<?xml version="1.0" encoding="utf-8" standalone="no"?>
<!DOCTYPE svg PUBLIC "-//W3C//DTD SVG 1.1//EN"
  "http://www.w3.org/Graphics/SVG/1.1/DTD/svg11.dtd">
<!-- Created with matplotlib (https://matplotlib.org/) -->
<svg height="864pt" version="1.1" viewBox="0 0 576 864" width="576pt" xmlns="http://www.w3.org/2000/svg" xmlns:xlink="http://www.w3.org/1999/xlink">
 <metadata>
  <rdf:RDF xmlns:cc="http://creativecommons.org/ns#" xmlns:dc="http://purl.org/dc/elements/1.1/" xmlns:rdf="http://www.w3.org/1999/02/22-rdf-syntax-ns#">
   <cc:Work>
    <dc:type rdf:resource="http://purl.org/dc/dcmitype/StillImage"/>
    <dc:date>2024-02-04T22:28:26.270755</dc:date>
    <dc:format>image/svg+xml</dc:format>
    <dc:creator>
     <cc:Agent>
      <dc:title>Matplotlib v3.3.2, https://matplotlib.org/</dc:title>
     </cc:Agent>
    </dc:creator>
   </cc:Work>
  </rdf:RDF>
 </metadata>
 <defs>
  <style type="text/css">*{stroke-linecap:butt;stroke-linejoin:round;}</style>
 </defs>
 <g id="figure_1">
  <g id="patch_1">
   <path d="M 0 864 
L 576 864 
L 576 0 
L 0 0 
z
" style="fill:#ffffff;"/>
  </g>
  <g id="axes_1">
   <g id="patch_2">
    <path clip-path="url(#p5b1f6da925)" d="M 299.283017 88.201994 
Q 299.068897 97.028993 298.881889 104.738288 
" style="fill:none;stroke:#000000;stroke-linecap:round;"/>
    <path clip-path="url(#p5b1f6da925)" d="M 300.978302 100.787964 
L 298.881889 104.738288 
L 296.979479 100.690964 
L 300.978302 100.787964 
z
" style="stroke:#000000;stroke-linecap:round;"/>
   </g>
   <g id="patch_3">
    <path clip-path="url(#p5b1f6da925)" d="M 298.770072 132.311474 
Q 298.825678 135.425707 298.861324 137.422083 
" style="fill:none;stroke:#000000;stroke-linecap:round;"/>
    <path clip-path="url(#p5b1f6da925)" d="M 300.789595 133.387016 
L 298.861324 137.422083 
L 296.790232 133.458426 
L 300.789595 133.387016 
z
" style="stroke:#000000;stroke-linecap:round;"/>
   </g>
   <g id="patch_4">
    <path clip-path="url(#p5b1f6da925)" d="M 298.854741 105.857453 
Q 299.068861 97.030454 299.255869 89.321159 
" style="fill:none;stroke:#000000;stroke-linecap:round;"/>
    <path clip-path="url(#p5b1f6da925)" d="M 297.159456 93.271482 
L 299.255869 89.321159 
L 301.158279 93.368483 
L 297.159456 93.271482 
z
" style="stroke:#000000;stroke-linecap:round;"/>
   </g>
   <g id="patch_5">
    <path clip-path="url(#p5b1f6da925)" d="M 299.340423 165.000163 
Q 299.96427 202.026809 300.569283 237.935579 
" style="fill:none;stroke:#000000;stroke-linecap:round;"/>
    <path clip-path="url(#p5b1f6da925)" d="M 302.501614 233.902454 
L 300.569283 237.935579 
L 298.502182 233.969839 
L 302.501614 233.902454 
z
" style="stroke:#000000;stroke-linecap:round;"/>
   </g>
   <g id="patch_6">
    <path clip-path="url(#p5b1f6da925)" d="M 285.890313 151.605464 
Q 206.484914 150.610105 128.197461 149.628759 
" style="fill:none;stroke:#000000;stroke-linecap:round;"/>
    <path clip-path="url(#p5b1f6da925)" d="M 132.172079 151.678739 
L 128.197461 149.628759 
L 132.222215 147.679053 
L 132.172079 151.678739 
z
" style="stroke:#000000;stroke-linecap:round;"/>
   </g>
   <g id="patch_7">
    <path clip-path="url(#p5b1f6da925)" d="M 312.345398 152.017624 
Q 395.460784 153.56556 477.458331 155.092678 
" style="fill:none;stroke:#000000;stroke-linecap:round;"/>
    <path clip-path="url(#p5b1f6da925)" d="M 473.496266 153.018541 
L 477.458331 155.092678 
L 473.421783 157.017848 
L 473.496266 153.018541 
z
" style="stroke:#000000;stroke-linecap:round;"/>
   </g>
   <g id="patch_8">
    <path clip-path="url(#p5b1f6da925)" d="M 298.881357 138.544035 
Q 298.825751 135.429803 298.790105 133.433426 
" style="fill:none;stroke:#000000;stroke-linecap:round;"/>
    <path clip-path="url(#p5b1f6da925)" d="M 296.861834 137.468494 
L 298.790105 133.433426 
L 300.861196 137.397084 
L 296.861834 137.468494 
z
" style="stroke:#000000;stroke-linecap:round;"/>
   </g>
   <g id="patch_9">
    <path clip-path="url(#p5b1f6da925)" d="M 300.996164 265.505367 
Q 301.769836 320.75289 302.527853 374.882488 
" style="fill:none;stroke:#000000;stroke-linecap:round;"/>
    <path clip-path="url(#p5b1f6da925)" d="M 304.471648 370.854876 
L 302.527853 374.882488 
L 300.47204 370.910885 
L 304.471648 370.854876 
z
" style="stroke:#000000;stroke-linecap:round;"/>
   </g>
   <g id="patch_10">
    <path clip-path="url(#p5b1f6da925)" d="M 300.58804 239.048839 
Q 299.964192 202.022193 299.35918 166.113422 
" style="fill:none;stroke:#000000;stroke-linecap:round;"/>
    <path clip-path="url(#p5b1f6da925)" d="M 297.426848 170.146547 
L 299.35918 166.113422 
L 301.426281 170.079162 
L 297.426848 170.146547 
z
" style="stroke:#000000;stroke-linecap:round;"/>
   </g>
   <g id="patch_11">
    <path clip-path="url(#p5b1f6da925)" d="M 289.497477 389.342329 
Q 261.933849 389.583433 235.488212 389.814758 
" style="fill:none;stroke:#000000;stroke-linecap:round;"/>
    <path clip-path="url(#p5b1f6da925)" d="M 239.505553 391.779694 
L 235.488212 389.814758 
L 239.470565 387.779847 
L 239.505553 391.779694 
z
" style="stroke:#000000;stroke-linecap:round;"/>
   </g>
   <g id="patch_12">
    <path clip-path="url(#p5b1f6da925)" d="M 315.950891 388.879096 
Q 343.717968 388.149339 370.367396 387.448956 
" style="fill:none;stroke:#000000;stroke-linecap:round;"/>
    <path clip-path="url(#p5b1f6da925)" d="M 366.316232 385.554735 
L 370.367396 387.448956 
L 366.421321 389.553354 
L 366.316232 385.554735 
z
" style="stroke:#000000;stroke-linecap:round;"/>
   </g>
   <g id="patch_13">
    <path clip-path="url(#p5b1f6da925)" d="M 302.543488 375.998957 
Q 301.769816 320.751435 301.011799 266.621836 
" style="fill:none;stroke:#000000;stroke-linecap:round;"/>
    <path clip-path="url(#p5b1f6da925)" d="M 299.068005 270.649449 
L 301.011799 266.621836 
L 303.067612 270.593439 
L 299.068005 270.649449 
z
" style="stroke:#000000;stroke-linecap:round;"/>
   </g>
   <g id="patch_14">
    <path clip-path="url(#p5b1f6da925)" d="M 106.458684 160.417653 
Q 81.917095 196.829392 58.00038 232.314021 
" style="fill:none;stroke:#000000;stroke-linecap:round;"/>
    <path clip-path="url(#p5b1f6da925)" d="M 61.894461 230.114901 
L 58.00038 232.314021 
L 58.577532 227.879283 
L 61.894461 230.114901 
z
" style="stroke:#000000;stroke-linecap:round;"/>
   </g>
   <g id="patch_15">
    <path clip-path="url(#p5b1f6da925)" d="M 127.078847 149.614737 
Q 206.484246 150.610096 284.771699 151.591442 
" style="fill:none;stroke:#000000;stroke-linecap:round;"/>
    <path clip-path="url(#p5b1f6da925)" d="M 280.797082 149.541462 
L 284.771699 151.591442 
L 280.746945 153.541148 
L 280.797082 149.541462 
z
" style="stroke:#000000;stroke-linecap:round;"/>
   </g>
   <g id="patch_16">
    <path clip-path="url(#p5b1f6da925)" d="M 62.634611 248.083182 
Q 150.727721 275.063532 237.751812 301.716472 
" style="fill:none;stroke:#000000;stroke-linecap:round;"/>
    <path clip-path="url(#p5b1f6da925)" d="M 234.512859 298.632776 
L 237.751812 301.716472 
L 233.341483 302.457417 
L 234.512859 298.632776 
z
" style="stroke:#000000;stroke-linecap:round;"/>
   </g>
   <g id="patch_17">
    <path clip-path="url(#p5b1f6da925)" d="M 57.376413 233.239785 
Q 81.918002 196.828046 105.834717 161.343417 
" style="fill:none;stroke:#000000;stroke-linecap:round;"/>
    <path clip-path="url(#p5b1f6da925)" d="M 101.940636 163.542538 
L 105.834717 161.343417 
L 105.257565 165.778155 
L 101.940636 163.542538 
z
" style="stroke:#000000;stroke-linecap:round;"/>
   </g>
   <g id="patch_18">
    <path clip-path="url(#p5b1f6da925)" d="M 264.337932 308.980507 
Q 285.014069 313.901722 304.602555 318.564061 
" style="fill:none;stroke:#000000;stroke-linecap:round;"/>
    <path clip-path="url(#p5b1f6da925)" d="M 301.174351 315.692229 
L 304.602555 318.564061 
L 300.248167 319.583525 
L 301.174351 315.692229 
z
" style="stroke:#000000;stroke-linecap:round;"/>
   </g>
   <g id="patch_19">
    <path clip-path="url(#p5b1f6da925)" d="M 238.815959 302.04239 
Q 150.722849 275.062039 63.698758 248.409099 
" style="fill:none;stroke:#000000;stroke-linecap:round;"/>
    <path clip-path="url(#p5b1f6da925)" d="M 66.937711 251.492795 
L 63.698758 248.409099 
L 68.109087 247.668154 
L 66.937711 251.492795 
z
" style="stroke:#000000;stroke-linecap:round;"/>
   </g>
   <g id="patch_20">
    <path clip-path="url(#p5b1f6da925)" d="M 331.124549 326.037771 
Q 335.177865 327.377114 338.169601 328.365676 
" style="fill:none;stroke:#000000;stroke-linecap:round;"/>
    <path clip-path="url(#p5b1f6da925)" d="M 334.999067 325.211676 
L 338.169601 328.365676 
L 333.744081 329.009703 
L 334.999067 325.211676 
z
" style="stroke:#000000;stroke-linecap:round;"/>
   </g>
   <g id="patch_21">
    <path clip-path="url(#p5b1f6da925)" d="M 331.463097 318.975755 
Q 344.307975 316.078106 356.062226 313.42649 
" style="fill:none;stroke:#000000;stroke-linecap:round;"/>
    <path clip-path="url(#p5b1f6da925)" d="M 351.720163 312.355749 
L 356.062226 313.42649 
L 352.600395 316.257696 
L 351.720163 312.355749 
z
" style="stroke:#000000;stroke-linecap:round;"/>
   </g>
   <g id="patch_22">
    <path clip-path="url(#p5b1f6da925)" d="M 305.690039 318.822898 
Q 285.013903 313.901683 265.425417 309.239343 
" style="fill:none;stroke:#000000;stroke-linecap:round;"/>
    <path clip-path="url(#p5b1f6da925)" d="M 268.853621 312.111175 
L 265.425417 309.239343 
L 269.779804 308.219879 
L 268.853621 312.111175 
z
" style="stroke:#000000;stroke-linecap:round;"/>
   </g>
   <g id="patch_23">
    <path clip-path="url(#p5b1f6da925)" d="M 495.49371 168.066809 
Q 508.91125 214.288799 522.017108 259.437078 
" style="fill:none;stroke:#000000;stroke-linecap:round;"/>
    <path clip-path="url(#p5b1f6da925)" d="M 522.822713 255.038101 
L 522.017108 259.437078 
L 518.981289 256.153208 
L 522.822713 255.038101 
z
" style="stroke:#000000;stroke-linecap:round;"/>
   </g>
   <g id="patch_24">
    <path clip-path="url(#p5b1f6da925)" d="M 478.577215 155.113516 
Q 395.461829 153.56558 313.464283 152.038462 
" style="fill:none;stroke:#000000;stroke-linecap:round;"/>
    <path clip-path="url(#p5b1f6da925)" d="M 317.426348 154.112598 
L 313.464283 152.038462 
L 317.500831 150.113292 
L 317.426348 154.112598 
z
" style="stroke:#000000;stroke-linecap:round;"/>
   </g>
   <g id="patch_25">
    <path clip-path="url(#p5b1f6da925)" d="M 513.701799 278.036325 
Q 465.662525 296.845465 418.66433 315.246985 
" style="fill:none;stroke:#000000;stroke-linecap:round;"/>
    <path clip-path="url(#p5b1f6da925)" d="M 423.118182 315.650975 
L 418.66433 315.246985 
L 421.659834 311.926298 
L 423.118182 315.650975 
z
" style="stroke:#000000;stroke-linecap:round;"/>
   </g>
   <g id="patch_26">
    <path clip-path="url(#p5b1f6da925)" d="M 522.327898 260.507718 
Q 508.910358 214.285728 495.8045 169.137448 
" style="fill:none;stroke:#000000;stroke-linecap:round;"/>
    <path clip-path="url(#p5b1f6da925)" d="M 494.998895 173.536426 
L 495.8045 169.137448 
L 498.840319 172.421319 
L 494.998895 173.536426 
z
" style="stroke:#000000;stroke-linecap:round;"/>
   </g>
   <g id="patch_27">
    <path clip-path="url(#p5b1f6da925)" d="M 392.105928 321.308628 
Q 378.342883 322.17609 365.695657 322.973223 
" style="fill:none;stroke:#000000;stroke-linecap:round;"/>
    <path clip-path="url(#p5b1f6da925)" d="M 369.813543 324.717648 
L 365.695657 322.973223 
L 369.561929 320.72557 
L 369.813543 324.717648 
z
" style="stroke:#000000;stroke-linecap:round;"/>
   </g>
   <g id="patch_28">
    <path clip-path="url(#p5b1f6da925)" d="M 417.622594 315.654863 
Q 465.661868 296.845723 512.660062 278.444203 
" style="fill:none;stroke:#000000;stroke-linecap:round;"/>
    <path clip-path="url(#p5b1f6da925)" d="M 508.206211 278.040213 
L 512.660062 278.444203 
L 509.664559 281.76489 
L 508.206211 278.040213 
z
" style="stroke:#000000;stroke-linecap:round;"/>
   </g>
   <g id="patch_29">
    <path clip-path="url(#p5b1f6da925)" d="M 338.637651 327.438365 
Q 332.152753 329.251474 326.744597 330.763537 
" style="fill:none;stroke:#000000;stroke-linecap:round;"/>
    <path clip-path="url(#p5b1f6da925)" d="M 331.13539 331.612617 
L 326.744597 330.763537 
L 330.058337 327.760351 
L 331.13539 331.612617 
z
" style="stroke:#000000;stroke-linecap:round;"/>
   </g>
   <g id="patch_30">
    <path clip-path="url(#p5b1f6da925)" d="M 364.356182 326.455299 
Q 367.598848 327.100038 369.744944 327.526747 
" style="fill:none;stroke:#000000;stroke-linecap:round;"/>
    <path clip-path="url(#p5b1f6da925)" d="M 366.211767 324.785095 
L 369.744944 327.526747 
L 365.431716 328.708297 
L 366.211767 324.785095 
z
" style="stroke:#000000;stroke-linecap:round;"/>
   </g>
   <g id="patch_31">
    <path clip-path="url(#p5b1f6da925)" d="M 364.58297 323.043354 
Q 378.346015 322.175892 390.993241 321.378759 
" style="fill:none;stroke:#000000;stroke-linecap:round;"/>
    <path clip-path="url(#p5b1f6da925)" d="M 386.875356 319.634334 
L 390.993241 321.378759 
L 387.12697 323.626412 
L 386.875356 319.634334 
z
" style="stroke:#000000;stroke-linecap:round;"/>
   </g>
   <g id="patch_32">
    <path clip-path="url(#p5b1f6da925)" d="M 217.721028 402.718248 
Q 198.565485 474.305948 179.698939 544.81361 
" style="fill:none;stroke:#000000;stroke-linecap:round;"/>
    <path clip-path="url(#p5b1f6da925)" d="M 182.664919 541.466527 
L 179.698939 544.81361 
L 178.800861 540.432577 
L 182.664919 541.466527 
z
" style="stroke:#000000;stroke-linecap:round;"/>
   </g>
   <g id="patch_33">
    <path clip-path="url(#p5b1f6da925)" d="M 234.371428 389.824526 
Q 261.935056 389.583422 288.380692 389.352097 
" style="fill:none;stroke:#000000;stroke-linecap:round;"/>
    <path clip-path="url(#p5b1f6da925)" d="M 284.363352 387.387161 
L 288.380692 389.352097 
L 284.398339 391.387008 
L 284.363352 387.387161 
z
" style="stroke:#000000;stroke-linecap:round;"/>
   </g>
   <g id="patch_34">
    <path clip-path="url(#p5b1f6da925)" d="M 176.972359 571.865853 
Q 183.141358 654.764453 189.227386 736.548103 
" style="fill:none;stroke:#000000;stroke-linecap:round;"/>
    <path clip-path="url(#p5b1f6da925)" d="M 190.925028 732.410711 
L 189.227386 736.548103 
L 186.936057 732.707555 
L 190.925028 732.410711 
z
" style="stroke:#000000;stroke-linecap:round;"/>
   </g>
   <g id="patch_35">
    <path clip-path="url(#p5b1f6da925)" d="M 179.409712 545.894506 
Q 198.565255 474.306806 217.4318 403.799143 
" style="fill:none;stroke:#000000;stroke-linecap:round;"/>
    <path clip-path="url(#p5b1f6da925)" d="M 214.465821 407.146226 
L 217.4318 403.799143 
L 218.329879 408.180177 
L 214.465821 407.146226 
z
" style="stroke:#000000;stroke-linecap:round;"/>
   </g>
   <g id="patch_36">
    <path clip-path="url(#p5b1f6da925)" d="M 188.946033 764.019411 
Q 188.340209 769.942622 187.848143 774.753602 
" style="fill:none;stroke:#000000;stroke-linecap:round;"/>
    <path clip-path="url(#p5b1f6da925)" d="M 190.244759 770.977859 
L 187.848143 774.753602 
L 186.265519 770.570863 
L 190.244759 770.977859 
z
" style="stroke:#000000;stroke-linecap:round;"/>
   </g>
   <g id="patch_37">
    <path clip-path="url(#p5b1f6da925)" d="M 189.310434 737.664096 
Q 183.141436 654.765495 177.055407 572.981846 
" style="fill:none;stroke:#000000;stroke-linecap:round;"/>
    <path clip-path="url(#p5b1f6da925)" d="M 175.357766 577.119238 
L 177.055407 572.981846 
L 179.346737 576.822394 
L 175.357766 577.119238 
z
" style="stroke:#000000;stroke-linecap:round;"/>
   </g>
   <g id="patch_38">
    <path clip-path="url(#p5b1f6da925)" d="M 187.734691 775.86284 
Q 188.340515 769.939629 188.832581 765.12865 
" style="fill:none;stroke:#000000;stroke-linecap:round;"/>
    <path clip-path="url(#p5b1f6da925)" d="M 186.435965 768.904392 
L 188.832581 765.12865 
L 190.415205 769.311388 
L 186.435965 768.904392 
z
" style="stroke:#000000;stroke-linecap:round;"/>
   </g>
   <g id="patch_39">
    <path clip-path="url(#p5b1f6da925)" d="M 386.520069 400.179016 
Q 395.191838 462.926113 403.710547 524.565703 
" style="fill:none;stroke:#000000;stroke-linecap:round;"/>
    <path clip-path="url(#p5b1f6da925)" d="M 405.144114 520.329563 
L 403.710547 524.565703 
L 401.181775 520.877166 
L 405.144114 520.329563 
z
" style="stroke:#000000;stroke-linecap:round;"/>
   </g>
   <g id="patch_40">
    <path clip-path="url(#p5b1f6da925)" d="M 371.486494 387.419544 
Q 343.719417 388.149301 317.069989 388.849684 
" style="fill:none;stroke:#000000;stroke-linecap:round;"/>
    <path clip-path="url(#p5b1f6da925)" d="M 321.121153 390.743905 
L 317.069989 388.849684 
L 321.016063 386.745286 
L 321.121153 390.743905 
z
" style="stroke:#000000;stroke-linecap:round;"/>
   </g>
   <g id="patch_41">
    <path clip-path="url(#p5b1f6da925)" d="M 401.376296 551.288832 
Q 379.752378 614.202795 358.491868 676.059434 
" style="fill:none;stroke:#000000;stroke-linecap:round;"/>
    <path clip-path="url(#p5b1f6da925)" d="M 361.683438 672.926722 
L 358.491868 676.059434 
L 357.90064 671.626551 
L 361.683438 672.926722 
z
" style="stroke:#000000;stroke-linecap:round;"/>
   </g>
   <g id="patch_42">
    <path clip-path="url(#p5b1f6da925)" d="M 403.863774 525.67442 
Q 395.192005 462.927322 386.673295 401.287732 
" style="fill:none;stroke:#000000;stroke-linecap:round;"/>
    <path clip-path="url(#p5b1f6da925)" d="M 385.239729 405.523873 
L 386.673295 401.287732 
L 389.202068 404.97627 
L 385.239729 405.523873 
z
" style="stroke:#000000;stroke-linecap:round;"/>
   </g>
   <g id="patch_43">
    <path clip-path="url(#p5b1f6da925)" d="M 351.516436 702.647522 
Q 350.689613 707.303153 350.05829 710.857975 
" style="fill:none;stroke:#000000;stroke-linecap:round;"/>
    <path clip-path="url(#p5b1f6da925)" d="M 352.726917 707.269322 
L 350.05829 710.857975 
L 348.788544 706.569882 
L 352.726917 707.269322 
z
" style="stroke:#000000;stroke-linecap:round;"/>
   </g>
   <g id="patch_44">
    <path clip-path="url(#p5b1f6da925)" d="M 358.127955 677.118227 
Q 379.751873 614.204264 401.012383 552.347625 
" style="fill:none;stroke:#000000;stroke-linecap:round;"/>
    <path clip-path="url(#p5b1f6da925)" d="M 397.820813 555.480337 
L 401.012383 552.347625 
L 401.60361 556.780508 
L 397.820813 555.480337 
z
" style="stroke:#000000;stroke-linecap:round;"/>
   </g>
   <g id="patch_45">
    <path clip-path="url(#p5b1f6da925)" d="M 349.862256 711.961793 
Q 350.689079 707.306162 351.320402 703.75134 
" style="fill:none;stroke:#000000;stroke-linecap:round;"/>
    <path clip-path="url(#p5b1f6da925)" d="M 348.651775 707.339992 
L 351.320402 703.75134 
L 352.590148 708.039433 
L 348.651775 707.339992 
z
" style="stroke:#000000;stroke-linecap:round;"/>
   </g>
   <g id="patch_46">
    <path clip-path="url(#p5b1f6da925)" d="M 339.229885 328.716027 
Q 335.176568 327.376685 332.184833 326.388122 
" style="fill:none;stroke:#000000;stroke-linecap:round;"/>
    <path clip-path="url(#p5b1f6da925)" d="M 335.355366 329.542122 
L 332.184833 326.388122 
L 336.610353 325.744095 
L 335.355366 329.542122 
z
" style="stroke:#000000;stroke-linecap:round;"/>
   </g>
   <g id="patch_47">
    <path clip-path="url(#p5b1f6da925)" d="M 357.154396 313.18011 
Q 344.309518 316.077758 332.555267 318.729374 
" style="fill:none;stroke:#000000;stroke-linecap:round;"/>
    <path clip-path="url(#p5b1f6da925)" d="M 336.89733 319.800116 
L 332.555267 318.729374 
L 336.017098 315.898169 
L 336.89733 319.800116 
z
" style="stroke:#000000;stroke-linecap:round;"/>
   </g>
   <g id="patch_48">
    <path clip-path="url(#p5b1f6da925)" d="M 325.673664 331.062958 
Q 332.158561 329.24985 337.566718 327.737786 
" style="fill:none;stroke:#000000;stroke-linecap:round;"/>
    <path clip-path="url(#p5b1f6da925)" d="M 333.175925 326.888706 
L 337.566718 327.737786 
L 334.252978 330.740973 
L 333.175925 326.888706 
z
" style="stroke:#000000;stroke-linecap:round;"/>
   </g>
   <g id="patch_49">
    <path clip-path="url(#p5b1f6da925)" d="M 370.841777 327.74483 
Q 367.599112 327.100091 365.453015 326.673382 
" style="fill:none;stroke:#000000;stroke-linecap:round;"/>
    <path clip-path="url(#p5b1f6da925)" d="M 368.986193 329.415034 
L 365.453015 326.673382 
L 369.766243 325.491831 
L 368.986193 329.415034 
z
" style="stroke:#000000;stroke-linecap:round;"/>
   </g>
   <g id="PathCollection_1">
    <defs>
     <path d="M 0 13.228757 
C 3.508307 13.228757 6.873396 11.834891 9.354143 9.354143 
C 11.834891 6.873396 13.228757 3.508307 13.228757 0 
C 13.228757 -3.508307 11.834891 -6.873396 9.354143 -9.354143 
C 6.873396 -11.834891 3.508307 -13.228757 0 -13.228757 
C -3.508307 -13.228757 -6.873396 -11.834891 -9.354143 -9.354143 
C -11.834891 -6.873396 -13.228757 -3.508307 -13.228757 0 
C -13.228757 3.508307 -11.834891 6.873396 -9.354143 9.354143 
C -6.873396 11.834891 -3.508307 13.228757 0 13.228757 
z
" id="m352b8f1d28" style="stroke:#87ceeb;"/>
    </defs>
    <g clip-path="url(#p5b1f6da925)">
     <use style="fill:#87ceeb;stroke:#87ceeb;" x="299.603864" xlink:href="#m352b8f1d28" y="74.975207"/>
     <use style="fill:#87ceeb;stroke:#87ceeb;" x="298.533894" xlink:href="#m352b8f1d28" y="119.08424"/>
     <use style="fill:#87ceeb;stroke:#87ceeb;" x="299.117535" xlink:href="#m352b8f1d28" y="151.771269"/>
     <use style="fill:#87ceeb;stroke:#87ceeb;" x="300.810928" xlink:href="#m352b8f1d28" y="252.277732"/>
     <use style="fill:#87ceeb;stroke:#87ceeb;" x="302.728724" xlink:href="#m352b8f1d28" y="389.226592"/>
     <use style="fill:#87ceeb;stroke:#87ceeb;" x="113.851626" xlink:href="#m352b8f1d28" y="149.448932"/>
     <use style="fill:#87ceeb;stroke:#87ceeb;" x="49.983471" xlink:href="#m352b8f1d28" y="244.208506"/>
     <use style="fill:#87ceeb;stroke:#87ceeb;" x="251.467099" xlink:href="#m352b8f1d28" y="305.917065"/>
     <use style="fill:#87ceeb;stroke:#87ceeb;" x="318.560872" xlink:href="#m352b8f1d28" y="321.88634"/>
     <use style="fill:#87ceeb;stroke:#87ceeb;" x="491.805079" xlink:href="#m352b8f1d28" y="155.35987"/>
     <use style="fill:#87ceeb;stroke:#87ceeb;" x="526.016529" xlink:href="#m352b8f1d28" y="273.214656"/>
     <use style="fill:#87ceeb;stroke:#87ceeb;" x="405.307864" xlink:href="#m352b8f1d28" y="320.476532"/>
     <use style="fill:#87ceeb;stroke:#87ceeb;" x="351.381034" xlink:href="#m352b8f1d28" y="323.87545"/>
     <use style="fill:#87ceeb;stroke:#87ceeb;" x="221.14018" xlink:href="#m352b8f1d28" y="389.940263"/>
     <use style="fill:#87ceeb;stroke:#87ceeb;" x="175.99056" xlink:href="#m352b8f1d28" y="558.672491"/>
     <use style="fill:#87ceeb;stroke:#87ceeb;" x="190.292234" xlink:href="#m352b8f1d28" y="750.857458"/>
     <use style="fill:#87ceeb;stroke:#87ceeb;" x="186.38849" xlink:href="#m352b8f1d28" y="789.024793"/>
     <use style="fill:#87ceeb;stroke:#87ceeb;" x="384.70866" xlink:href="#m352b8f1d28" y="387.072048"/>
     <use style="fill:#87ceeb;stroke:#87ceeb;" x="405.675182" xlink:href="#m352b8f1d28" y="538.781388"/>
     <use style="fill:#87ceeb;stroke:#87ceeb;" x="353.829069" xlink:href="#m352b8f1d28" y="689.62567"/>
     <use style="fill:#87ceeb;stroke:#87ceeb;" x="347.549623" xlink:href="#m352b8f1d28" y="724.983644"/>
     <use style="fill:#87ceeb;stroke:#87ceeb;" x="351.793561" xlink:href="#m352b8f1d28" y="332.867459"/>
     <use style="fill:#87ceeb;stroke:#87ceeb;" x="370.056621" xlink:href="#m352b8f1d28" y="310.269525"/>
     <use style="fill:#87ceeb;stroke:#87ceeb;" x="312.93028" xlink:href="#m352b8f1d28" y="334.625873"/>
     <use style="fill:#87ceeb;stroke:#87ceeb;" x="383.816925" xlink:href="#m352b8f1d28" y="330.324679"/>
    </g>
   </g>
   <g id="text_1">
    <g clip-path="url(#p5b1f6da925)">
     <!-- Head -->
     <g transform="translate(286.528864 77.734582)scale(0.1 -0.1)">
      <defs>
       <path d="M 9.8125 72.90625 
L 19.671875 72.90625 
L 19.671875 43.015625 
L 55.515625 43.015625 
L 55.515625 72.90625 
L 65.375 72.90625 
L 65.375 0 
L 55.515625 0 
L 55.515625 34.71875 
L 19.671875 34.71875 
L 19.671875 0 
L 9.8125 0 
z
" id="DejaVuSans-72"/>
       <path d="M 56.203125 29.59375 
L 56.203125 25.203125 
L 14.890625 25.203125 
Q 15.484375 15.921875 20.484375 11.0625 
Q 25.484375 6.203125 34.421875 6.203125 
Q 39.59375 6.203125 44.453125 7.46875 
Q 49.3125 8.734375 54.109375 11.28125 
L 54.109375 2.78125 
Q 49.265625 0.734375 44.1875 -0.34375 
Q 39.109375 -1.421875 33.890625 -1.421875 
Q 20.796875 -1.421875 13.15625 6.1875 
Q 5.515625 13.8125 5.515625 26.8125 
Q 5.515625 40.234375 12.765625 48.109375 
Q 20.015625 56 32.328125 56 
Q 43.359375 56 49.78125 48.890625 
Q 56.203125 41.796875 56.203125 29.59375 
z
M 47.21875 32.234375 
Q 47.125 39.59375 43.09375 43.984375 
Q 39.0625 48.390625 32.421875 48.390625 
Q 24.90625 48.390625 20.390625 44.140625 
Q 15.875 39.890625 15.1875 32.171875 
z
" id="DejaVuSans-101"/>
       <path d="M 34.28125 27.484375 
Q 23.390625 27.484375 19.1875 25 
Q 14.984375 22.515625 14.984375 16.5 
Q 14.984375 11.71875 18.140625 8.90625 
Q 21.296875 6.109375 26.703125 6.109375 
Q 34.1875 6.109375 38.703125 11.40625 
Q 43.21875 16.703125 43.21875 25.484375 
L 43.21875 27.484375 
z
M 52.203125 31.203125 
L 52.203125 0 
L 43.21875 0 
L 43.21875 8.296875 
Q 40.140625 3.328125 35.546875 0.953125 
Q 30.953125 -1.421875 24.3125 -1.421875 
Q 15.921875 -1.421875 10.953125 3.296875 
Q 6 8.015625 6 15.921875 
Q 6 25.140625 12.171875 29.828125 
Q 18.359375 34.515625 30.609375 34.515625 
L 43.21875 34.515625 
L 43.21875 35.40625 
Q 43.21875 41.609375 39.140625 45 
Q 35.0625 48.390625 27.6875 48.390625 
Q 23 48.390625 18.546875 47.265625 
Q 14.109375 46.140625 10.015625 43.890625 
L 10.015625 52.203125 
Q 14.9375 54.109375 19.578125 55.046875 
Q 24.21875 56 28.609375 56 
Q 40.484375 56 46.34375 49.84375 
Q 52.203125 43.703125 52.203125 31.203125 
z
" id="DejaVuSans-97"/>
       <path d="M 45.40625 46.390625 
L 45.40625 75.984375 
L 54.390625 75.984375 
L 54.390625 0 
L 45.40625 0 
L 45.40625 8.203125 
Q 42.578125 3.328125 38.25 0.953125 
Q 33.9375 -1.421875 27.875 -1.421875 
Q 17.96875 -1.421875 11.734375 6.484375 
Q 5.515625 14.40625 5.515625 27.296875 
Q 5.515625 40.1875 11.734375 48.09375 
Q 17.96875 56 27.875 56 
Q 33.9375 56 38.25 53.625 
Q 42.578125 51.265625 45.40625 46.390625 
z
M 14.796875 27.296875 
Q 14.796875 17.390625 18.875 11.75 
Q 22.953125 6.109375 30.078125 6.109375 
Q 37.203125 6.109375 41.296875 11.75 
Q 45.40625 17.390625 45.40625 27.296875 
Q 45.40625 37.203125 41.296875 42.84375 
Q 37.203125 48.484375 30.078125 48.484375 
Q 22.953125 48.484375 18.875 42.84375 
Q 14.796875 37.203125 14.796875 27.296875 
z
" id="DejaVuSans-100"/>
      </defs>
      <use xlink:href="#DejaVuSans-72"/>
      <use x="75.195312" xlink:href="#DejaVuSans-101"/>
      <use x="136.71875" xlink:href="#DejaVuSans-97"/>
      <use x="197.998047" xlink:href="#DejaVuSans-100"/>
     </g>
    </g>
   </g>
   <g id="text_2">
    <g clip-path="url(#p5b1f6da925)">
     <!-- c7 -->
     <g transform="translate(292.603425 121.843615)scale(0.1 -0.1)">
      <defs>
       <path d="M 48.78125 52.59375 
L 48.78125 44.1875 
Q 44.96875 46.296875 41.140625 47.34375 
Q 37.3125 48.390625 33.40625 48.390625 
Q 24.65625 48.390625 19.8125 42.84375 
Q 14.984375 37.3125 14.984375 27.296875 
Q 14.984375 17.28125 19.8125 11.734375 
Q 24.65625 6.203125 33.40625 6.203125 
Q 37.3125 6.203125 41.140625 7.25 
Q 44.96875 8.296875 48.78125 10.40625 
L 48.78125 2.09375 
Q 45.015625 0.34375 40.984375 -0.53125 
Q 36.96875 -1.421875 32.421875 -1.421875 
Q 20.0625 -1.421875 12.78125 6.34375 
Q 5.515625 14.109375 5.515625 27.296875 
Q 5.515625 40.671875 12.859375 48.328125 
Q 20.21875 56 33.015625 56 
Q 37.15625 56 41.109375 55.140625 
Q 45.0625 54.296875 48.78125 52.59375 
z
" id="DejaVuSans-99"/>
       <path d="M 8.203125 72.90625 
L 55.078125 72.90625 
L 55.078125 68.703125 
L 28.609375 0 
L 18.3125 0 
L 43.21875 64.59375 
L 8.203125 64.59375 
z
" id="DejaVuSans-55"/>
      </defs>
      <use xlink:href="#DejaVuSans-99"/>
      <use x="54.980469" xlink:href="#DejaVuSans-55"/>
     </g>
    </g>
   </g>
   <g id="text_3">
    <g clip-path="url(#p5b1f6da925)">
     <!-- SpineShoulder -->
     <g transform="translate(262.868316 154.530644)scale(0.1 -0.1)">
      <defs>
       <path d="M 53.515625 70.515625 
L 53.515625 60.890625 
Q 47.90625 63.578125 42.921875 64.890625 
Q 37.9375 66.21875 33.296875 66.21875 
Q 25.25 66.21875 20.875 63.09375 
Q 16.5 59.96875 16.5 54.203125 
Q 16.5 49.359375 19.40625 46.890625 
Q 22.3125 44.4375 30.421875 42.921875 
L 36.375 41.703125 
Q 47.40625 39.59375 52.65625 34.296875 
Q 57.90625 29 57.90625 20.125 
Q 57.90625 9.515625 50.796875 4.046875 
Q 43.703125 -1.421875 29.984375 -1.421875 
Q 24.8125 -1.421875 18.96875 -0.25 
Q 13.140625 0.921875 6.890625 3.21875 
L 6.890625 13.375 
Q 12.890625 10.015625 18.65625 8.296875 
Q 24.421875 6.59375 29.984375 6.59375 
Q 38.421875 6.59375 43.015625 9.90625 
Q 47.609375 13.234375 47.609375 19.390625 
Q 47.609375 24.75 44.3125 27.78125 
Q 41.015625 30.8125 33.5 32.328125 
L 27.484375 33.5 
Q 16.453125 35.6875 11.515625 40.375 
Q 6.59375 45.0625 6.59375 53.421875 
Q 6.59375 63.09375 13.40625 68.65625 
Q 20.21875 74.21875 32.171875 74.21875 
Q 37.3125 74.21875 42.625 73.28125 
Q 47.953125 72.359375 53.515625 70.515625 
z
" id="DejaVuSans-83"/>
       <path d="M 18.109375 8.203125 
L 18.109375 -20.796875 
L 9.078125 -20.796875 
L 9.078125 54.6875 
L 18.109375 54.6875 
L 18.109375 46.390625 
Q 20.953125 51.265625 25.265625 53.625 
Q 29.59375 56 35.59375 56 
Q 45.5625 56 51.78125 48.09375 
Q 58.015625 40.1875 58.015625 27.296875 
Q 58.015625 14.40625 51.78125 6.484375 
Q 45.5625 -1.421875 35.59375 -1.421875 
Q 29.59375 -1.421875 25.265625 0.953125 
Q 20.953125 3.328125 18.109375 8.203125 
z
M 48.6875 27.296875 
Q 48.6875 37.203125 44.609375 42.84375 
Q 40.53125 48.484375 33.40625 48.484375 
Q 26.265625 48.484375 22.1875 42.84375 
Q 18.109375 37.203125 18.109375 27.296875 
Q 18.109375 17.390625 22.1875 11.75 
Q 26.265625 6.109375 33.40625 6.109375 
Q 40.53125 6.109375 44.609375 11.75 
Q 48.6875 17.390625 48.6875 27.296875 
z
" id="DejaVuSans-112"/>
       <path d="M 9.421875 54.6875 
L 18.40625 54.6875 
L 18.40625 0 
L 9.421875 0 
z
M 9.421875 75.984375 
L 18.40625 75.984375 
L 18.40625 64.59375 
L 9.421875 64.59375 
z
" id="DejaVuSans-105"/>
       <path d="M 54.890625 33.015625 
L 54.890625 0 
L 45.90625 0 
L 45.90625 32.71875 
Q 45.90625 40.484375 42.875 44.328125 
Q 39.84375 48.1875 33.796875 48.1875 
Q 26.515625 48.1875 22.3125 43.546875 
Q 18.109375 38.921875 18.109375 30.90625 
L 18.109375 0 
L 9.078125 0 
L 9.078125 54.6875 
L 18.109375 54.6875 
L 18.109375 46.1875 
Q 21.34375 51.125 25.703125 53.5625 
Q 30.078125 56 35.796875 56 
Q 45.21875 56 50.046875 50.171875 
Q 54.890625 44.34375 54.890625 33.015625 
z
" id="DejaVuSans-110"/>
       <path d="M 54.890625 33.015625 
L 54.890625 0 
L 45.90625 0 
L 45.90625 32.71875 
Q 45.90625 40.484375 42.875 44.328125 
Q 39.84375 48.1875 33.796875 48.1875 
Q 26.515625 48.1875 22.3125 43.546875 
Q 18.109375 38.921875 18.109375 30.90625 
L 18.109375 0 
L 9.078125 0 
L 9.078125 75.984375 
L 18.109375 75.984375 
L 18.109375 46.1875 
Q 21.34375 51.125 25.703125 53.5625 
Q 30.078125 56 35.796875 56 
Q 45.21875 56 50.046875 50.171875 
Q 54.890625 44.34375 54.890625 33.015625 
z
" id="DejaVuSans-104"/>
       <path d="M 30.609375 48.390625 
Q 23.390625 48.390625 19.1875 42.75 
Q 14.984375 37.109375 14.984375 27.296875 
Q 14.984375 17.484375 19.15625 11.84375 
Q 23.34375 6.203125 30.609375 6.203125 
Q 37.796875 6.203125 41.984375 11.859375 
Q 46.1875 17.53125 46.1875 27.296875 
Q 46.1875 37.015625 41.984375 42.703125 
Q 37.796875 48.390625 30.609375 48.390625 
z
M 30.609375 56 
Q 42.328125 56 49.015625 48.375 
Q 55.71875 40.765625 55.71875 27.296875 
Q 55.71875 13.875 49.015625 6.21875 
Q 42.328125 -1.421875 30.609375 -1.421875 
Q 18.84375 -1.421875 12.171875 6.21875 
Q 5.515625 13.875 5.515625 27.296875 
Q 5.515625 40.765625 12.171875 48.375 
Q 18.84375 56 30.609375 56 
z
" id="DejaVuSans-111"/>
       <path d="M 8.5 21.578125 
L 8.5 54.6875 
L 17.484375 54.6875 
L 17.484375 21.921875 
Q 17.484375 14.15625 20.5 10.265625 
Q 23.53125 6.390625 29.59375 6.390625 
Q 36.859375 6.390625 41.078125 11.03125 
Q 45.3125 15.671875 45.3125 23.6875 
L 45.3125 54.6875 
L 54.296875 54.6875 
L 54.296875 0 
L 45.3125 0 
L 45.3125 8.40625 
Q 42.046875 3.421875 37.71875 1 
Q 33.40625 -1.421875 27.6875 -1.421875 
Q 18.265625 -1.421875 13.375 4.4375 
Q 8.5 10.296875 8.5 21.578125 
z
M 31.109375 56 
z
" id="DejaVuSans-117"/>
       <path d="M 9.421875 75.984375 
L 18.40625 75.984375 
L 18.40625 0 
L 9.421875 0 
z
" id="DejaVuSans-108"/>
       <path d="M 41.109375 46.296875 
Q 39.59375 47.171875 37.8125 47.578125 
Q 36.03125 48 33.890625 48 
Q 26.265625 48 22.1875 43.046875 
Q 18.109375 38.09375 18.109375 28.8125 
L 18.109375 0 
L 9.078125 0 
L 9.078125 54.6875 
L 18.109375 54.6875 
L 18.109375 46.1875 
Q 20.953125 51.171875 25.484375 53.578125 
Q 30.03125 56 36.53125 56 
Q 37.453125 56 38.578125 55.875 
Q 39.703125 55.765625 41.0625 55.515625 
z
" id="DejaVuSans-114"/>
      </defs>
      <use xlink:href="#DejaVuSans-83"/>
      <use x="63.476562" xlink:href="#DejaVuSans-112"/>
      <use x="126.953125" xlink:href="#DejaVuSans-105"/>
      <use x="154.736328" xlink:href="#DejaVuSans-110"/>
      <use x="218.115234" xlink:href="#DejaVuSans-101"/>
      <use x="279.638672" xlink:href="#DejaVuSans-83"/>
      <use x="343.115234" xlink:href="#DejaVuSans-104"/>
      <use x="406.494141" xlink:href="#DejaVuSans-111"/>
      <use x="467.675781" xlink:href="#DejaVuSans-117"/>
      <use x="531.054688" xlink:href="#DejaVuSans-108"/>
      <use x="558.837891" xlink:href="#DejaVuSans-100"/>
      <use x="622.314453" xlink:href="#DejaVuSans-101"/>
      <use x="683.837891" xlink:href="#DejaVuSans-114"/>
     </g>
    </g>
   </g>
   <g id="text_4">
    <g clip-path="url(#p5b1f6da925)">
     <!-- Spine -->
     <g transform="translate(286.828115 255.037107)scale(0.1 -0.1)">
      <use xlink:href="#DejaVuSans-83"/>
      <use x="63.476562" xlink:href="#DejaVuSans-112"/>
      <use x="126.953125" xlink:href="#DejaVuSans-105"/>
      <use x="154.736328" xlink:href="#DejaVuSans-110"/>
      <use x="218.115234" xlink:href="#DejaVuSans-101"/>
     </g>
    </g>
   </g>
   <g id="text_5">
    <g clip-path="url(#p5b1f6da925)">
     <!-- Sacr -->
     <g transform="translate(291.685756 391.985967)scale(0.1 -0.1)">
      <use xlink:href="#DejaVuSans-83"/>
      <use x="63.476562" xlink:href="#DejaVuSans-97"/>
      <use x="124.755859" xlink:href="#DejaVuSans-99"/>
      <use x="179.736328" xlink:href="#DejaVuSans-114"/>
     </g>
    </g>
   </g>
   <g id="text_6">
    <g clip-path="url(#p5b1f6da925)">
     <!-- LShoulder -->
     <g transform="translate(88.799282 152.208307)scale(0.1 -0.1)">
      <defs>
       <path d="M 9.8125 72.90625 
L 19.671875 72.90625 
L 19.671875 8.296875 
L 55.171875 8.296875 
L 55.171875 0 
L 9.8125 0 
z
" id="DejaVuSans-76"/>
      </defs>
      <use xlink:href="#DejaVuSans-76"/>
      <use x="55.712891" xlink:href="#DejaVuSans-83"/>
      <use x="119.189453" xlink:href="#DejaVuSans-104"/>
      <use x="182.568359" xlink:href="#DejaVuSans-111"/>
      <use x="243.75" xlink:href="#DejaVuSans-117"/>
      <use x="307.128906" xlink:href="#DejaVuSans-108"/>
      <use x="334.912109" xlink:href="#DejaVuSans-100"/>
      <use x="398.388672" xlink:href="#DejaVuSans-101"/>
      <use x="459.912109" xlink:href="#DejaVuSans-114"/>
     </g>
    </g>
   </g>
   <g id="text_7">
    <g clip-path="url(#p5b1f6da925)">
     <!-- LElbow -->
     <g transform="translate(32.32644 246.967881)scale(0.1 -0.1)">
      <defs>
       <path d="M 9.8125 72.90625 
L 55.90625 72.90625 
L 55.90625 64.59375 
L 19.671875 64.59375 
L 19.671875 43.015625 
L 54.390625 43.015625 
L 54.390625 34.71875 
L 19.671875 34.71875 
L 19.671875 8.296875 
L 56.78125 8.296875 
L 56.78125 0 
L 9.8125 0 
z
" id="DejaVuSans-69"/>
       <path d="M 48.6875 27.296875 
Q 48.6875 37.203125 44.609375 42.84375 
Q 40.53125 48.484375 33.40625 48.484375 
Q 26.265625 48.484375 22.1875 42.84375 
Q 18.109375 37.203125 18.109375 27.296875 
Q 18.109375 17.390625 22.1875 11.75 
Q 26.265625 6.109375 33.40625 6.109375 
Q 40.53125 6.109375 44.609375 11.75 
Q 48.6875 17.390625 48.6875 27.296875 
z
M 18.109375 46.390625 
Q 20.953125 51.265625 25.265625 53.625 
Q 29.59375 56 35.59375 56 
Q 45.5625 56 51.78125 48.09375 
Q 58.015625 40.1875 58.015625 27.296875 
Q 58.015625 14.40625 51.78125 6.484375 
Q 45.5625 -1.421875 35.59375 -1.421875 
Q 29.59375 -1.421875 25.265625 0.953125 
Q 20.953125 3.328125 18.109375 8.203125 
L 18.109375 0 
L 9.078125 0 
L 9.078125 75.984375 
L 18.109375 75.984375 
z
" id="DejaVuSans-98"/>
       <path d="M 4.203125 54.6875 
L 13.1875 54.6875 
L 24.421875 12.015625 
L 35.59375 54.6875 
L 46.1875 54.6875 
L 57.421875 12.015625 
L 68.609375 54.6875 
L 77.59375 54.6875 
L 63.28125 0 
L 52.6875 0 
L 40.921875 44.828125 
L 29.109375 0 
L 18.5 0 
z
" id="DejaVuSans-119"/>
      </defs>
      <use xlink:href="#DejaVuSans-76"/>
      <use x="55.712891" xlink:href="#DejaVuSans-69"/>
      <use x="118.896484" xlink:href="#DejaVuSans-108"/>
      <use x="146.679688" xlink:href="#DejaVuSans-98"/>
      <use x="210.15625" xlink:href="#DejaVuSans-111"/>
      <use x="271.337891" xlink:href="#DejaVuSans-119"/>
     </g>
    </g>
   </g>
   <g id="text_8">
    <g clip-path="url(#p5b1f6da925)">
     <!-- LWrist -->
     <g transform="translate(236.409287 308.67644)scale(0.1 -0.1)">
      <defs>
       <path d="M 3.328125 72.90625 
L 13.28125 72.90625 
L 28.609375 11.28125 
L 43.890625 72.90625 
L 54.984375 72.90625 
L 70.3125 11.28125 
L 85.59375 72.90625 
L 95.609375 72.90625 
L 77.296875 0 
L 64.890625 0 
L 49.515625 63.28125 
L 33.984375 0 
L 21.578125 0 
z
" id="DejaVuSans-87"/>
       <path d="M 44.28125 53.078125 
L 44.28125 44.578125 
Q 40.484375 46.53125 36.375 47.5 
Q 32.28125 48.484375 27.875 48.484375 
Q 21.1875 48.484375 17.84375 46.4375 
Q 14.5 44.390625 14.5 40.28125 
Q 14.5 37.15625 16.890625 35.375 
Q 19.28125 33.59375 26.515625 31.984375 
L 29.59375 31.296875 
Q 39.15625 29.25 43.1875 25.515625 
Q 47.21875 21.78125 47.21875 15.09375 
Q 47.21875 7.46875 41.1875 3.015625 
Q 35.15625 -1.421875 24.609375 -1.421875 
Q 20.21875 -1.421875 15.453125 -0.5625 
Q 10.6875 0.296875 5.421875 2 
L 5.421875 11.28125 
Q 10.40625 8.6875 15.234375 7.390625 
Q 20.0625 6.109375 24.8125 6.109375 
Q 31.15625 6.109375 34.5625 8.28125 
Q 37.984375 10.453125 37.984375 14.40625 
Q 37.984375 18.0625 35.515625 20.015625 
Q 33.0625 21.96875 24.703125 23.78125 
L 21.578125 24.515625 
Q 13.234375 26.265625 9.515625 29.90625 
Q 5.8125 33.546875 5.8125 39.890625 
Q 5.8125 47.609375 11.28125 51.796875 
Q 16.75 56 26.8125 56 
Q 31.78125 56 36.171875 55.265625 
Q 40.578125 54.546875 44.28125 53.078125 
z
" id="DejaVuSans-115"/>
       <path d="M 18.3125 70.21875 
L 18.3125 54.6875 
L 36.8125 54.6875 
L 36.8125 47.703125 
L 18.3125 47.703125 
L 18.3125 18.015625 
Q 18.3125 11.328125 20.140625 9.421875 
Q 21.96875 7.515625 27.59375 7.515625 
L 36.8125 7.515625 
L 36.8125 0 
L 27.59375 0 
Q 17.1875 0 13.234375 3.875 
Q 9.28125 7.765625 9.28125 18.015625 
L 9.28125 47.703125 
L 2.6875 47.703125 
L 2.6875 54.6875 
L 9.28125 54.6875 
L 9.28125 70.21875 
z
" id="DejaVuSans-116"/>
      </defs>
      <use xlink:href="#DejaVuSans-76"/>
      <use x="46.587891" xlink:href="#DejaVuSans-87"/>
      <use x="140.964844" xlink:href="#DejaVuSans-114"/>
      <use x="182.078125" xlink:href="#DejaVuSans-105"/>
      <use x="209.861328" xlink:href="#DejaVuSans-115"/>
      <use x="261.960938" xlink:href="#DejaVuSans-116"/>
     </g>
    </g>
   </g>
   <g id="text_9">
    <g clip-path="url(#p5b1f6da925)">
     <!-- LHand -->
     <g transform="translate(302.607747 324.645715)scale(0.1 -0.1)">
      <use xlink:href="#DejaVuSans-76"/>
      <use x="55.712891" xlink:href="#DejaVuSans-72"/>
      <use x="130.908203" xlink:href="#DejaVuSans-97"/>
      <use x="192.1875" xlink:href="#DejaVuSans-110"/>
      <use x="255.566406" xlink:href="#DejaVuSans-100"/>
     </g>
    </g>
   </g>
   <g id="text_10">
    <g clip-path="url(#p5b1f6da925)">
     <!-- RShoulder -->
     <g transform="translate(466.064454 158.119245)scale(0.1 -0.1)">
      <defs>
       <path d="M 44.390625 34.1875 
Q 47.5625 33.109375 50.5625 29.59375 
Q 53.5625 26.078125 56.59375 19.921875 
L 66.609375 0 
L 56 0 
L 46.6875 18.703125 
Q 43.0625 26.03125 39.671875 28.421875 
Q 36.28125 30.8125 30.421875 30.8125 
L 19.671875 30.8125 
L 19.671875 0 
L 9.8125 0 
L 9.8125 72.90625 
L 32.078125 72.90625 
Q 44.578125 72.90625 50.734375 67.671875 
Q 56.890625 62.453125 56.890625 51.90625 
Q 56.890625 45.015625 53.6875 40.46875 
Q 50.484375 35.9375 44.390625 34.1875 
z
M 19.671875 64.796875 
L 19.671875 38.921875 
L 32.078125 38.921875 
Q 39.203125 38.921875 42.84375 42.21875 
Q 46.484375 45.515625 46.484375 51.90625 
Q 46.484375 58.296875 42.84375 61.546875 
Q 39.203125 64.796875 32.078125 64.796875 
z
" id="DejaVuSans-82"/>
      </defs>
      <use xlink:href="#DejaVuSans-82"/>
      <use x="69.482422" xlink:href="#DejaVuSans-83"/>
      <use x="132.958984" xlink:href="#DejaVuSans-104"/>
      <use x="196.337891" xlink:href="#DejaVuSans-111"/>
      <use x="257.519531" xlink:href="#DejaVuSans-117"/>
      <use x="320.898438" xlink:href="#DejaVuSans-108"/>
      <use x="348.681641" xlink:href="#DejaVuSans-100"/>
      <use x="412.158203" xlink:href="#DejaVuSans-101"/>
      <use x="473.681641" xlink:href="#DejaVuSans-114"/>
     </g>
    </g>
   </g>
   <g id="text_11">
    <g clip-path="url(#p5b1f6da925)">
     <!-- RElbow -->
     <g transform="translate(507.671216 275.974031)scale(0.1 -0.1)">
      <use xlink:href="#DejaVuSans-82"/>
      <use x="69.482422" xlink:href="#DejaVuSans-69"/>
      <use x="132.666016" xlink:href="#DejaVuSans-108"/>
      <use x="160.449219" xlink:href="#DejaVuSans-98"/>
      <use x="223.925781" xlink:href="#DejaVuSans-111"/>
      <use x="285.107422" xlink:href="#DejaVuSans-119"/>
     </g>
    </g>
   </g>
   <g id="text_12">
    <g clip-path="url(#p5b1f6da925)">
     <!-- RWrist -->
     <g transform="translate(389.30552 323.235907)scale(0.1 -0.1)">
      <use xlink:href="#DejaVuSans-82"/>
      <use x="65.482422" xlink:href="#DejaVuSans-87"/>
      <use x="159.859375" xlink:href="#DejaVuSans-114"/>
      <use x="200.972656" xlink:href="#DejaVuSans-105"/>
      <use x="228.755859" xlink:href="#DejaVuSans-115"/>
      <use x="280.855469" xlink:href="#DejaVuSans-116"/>
     </g>
    </g>
   </g>
   <g id="text_13">
    <g clip-path="url(#p5b1f6da925)">
     <!-- RHand -->
     <g transform="translate(334.739628 326.634825)scale(0.1 -0.1)">
      <use xlink:href="#DejaVuSans-82"/>
      <use x="69.482422" xlink:href="#DejaVuSans-72"/>
      <use x="144.677734" xlink:href="#DejaVuSans-97"/>
      <use x="205.957031" xlink:href="#DejaVuSans-110"/>
      <use x="269.335938" xlink:href="#DejaVuSans-100"/>
     </g>
    </g>
   </g>
   <g id="text_14">
    <g clip-path="url(#p5b1f6da925)">
     <!-- LHip -->
     <g transform="translate(210.030805 392.699638)scale(0.1 -0.1)">
      <use xlink:href="#DejaVuSans-76"/>
      <use x="55.712891" xlink:href="#DejaVuSans-72"/>
      <use x="130.908203" xlink:href="#DejaVuSans-105"/>
      <use x="158.691406" xlink:href="#DejaVuSans-112"/>
     </g>
    </g>
   </g>
   <g id="text_15">
    <g clip-path="url(#p5b1f6da925)">
     <!-- LKnee -->
     <g transform="translate(160.603841 561.431866)scale(0.1 -0.1)">
      <defs>
       <path d="M 9.8125 72.90625 
L 19.671875 72.90625 
L 19.671875 42.09375 
L 52.390625 72.90625 
L 65.09375 72.90625 
L 28.90625 38.921875 
L 67.671875 0 
L 54.6875 0 
L 19.671875 35.109375 
L 19.671875 0 
L 9.8125 0 
z
" id="DejaVuSans-75"/>
      </defs>
      <use xlink:href="#DejaVuSans-76"/>
      <use x="55.712891" xlink:href="#DejaVuSans-75"/>
      <use x="121.289062" xlink:href="#DejaVuSans-110"/>
      <use x="184.667969" xlink:href="#DejaVuSans-101"/>
      <use x="246.191406" xlink:href="#DejaVuSans-101"/>
     </g>
    </g>
   </g>
   <g id="text_16">
    <g clip-path="url(#p5b1f6da925)">
     <!-- LAnkle -->
     <g transform="translate(173.443797 753.616833)scale(0.1 -0.1)">
      <defs>
       <path d="M 34.1875 63.1875 
L 20.796875 26.90625 
L 47.609375 26.90625 
z
M 28.609375 72.90625 
L 39.796875 72.90625 
L 67.578125 0 
L 57.328125 0 
L 50.6875 18.703125 
L 17.828125 18.703125 
L 11.1875 0 
L 0.78125 0 
z
" id="DejaVuSans-65"/>
       <path d="M 9.078125 75.984375 
L 18.109375 75.984375 
L 18.109375 31.109375 
L 44.921875 54.6875 
L 56.390625 54.6875 
L 27.390625 29.109375 
L 57.625 0 
L 45.90625 0 
L 18.109375 26.703125 
L 18.109375 0 
L 9.078125 0 
z
" id="DejaVuSans-107"/>
      </defs>
      <use xlink:href="#DejaVuSans-76"/>
      <use x="57.962891" xlink:href="#DejaVuSans-65"/>
      <use x="126.371094" xlink:href="#DejaVuSans-110"/>
      <use x="189.75" xlink:href="#DejaVuSans-107"/>
      <use x="247.660156" xlink:href="#DejaVuSans-108"/>
      <use x="275.443359" xlink:href="#DejaVuSans-101"/>
     </g>
    </g>
   </g>
   <g id="text_17">
    <g clip-path="url(#p5b1f6da925)">
     <!-- LFoot -->
     <g transform="translate(172.829115 791.784168)scale(0.1 -0.1)">
      <defs>
       <path d="M 9.8125 72.90625 
L 51.703125 72.90625 
L 51.703125 64.59375 
L 19.671875 64.59375 
L 19.671875 43.109375 
L 48.578125 43.109375 
L 48.578125 34.8125 
L 19.671875 34.8125 
L 19.671875 0 
L 9.8125 0 
z
" id="DejaVuSans-70"/>
      </defs>
      <use xlink:href="#DejaVuSans-76"/>
      <use x="55.712891" xlink:href="#DejaVuSans-70"/>
      <use x="109.607422" xlink:href="#DejaVuSans-111"/>
      <use x="170.789062" xlink:href="#DejaVuSans-111"/>
      <use x="231.970703" xlink:href="#DejaVuSans-116"/>
     </g>
    </g>
   </g>
   <g id="text_18">
    <g clip-path="url(#p5b1f6da925)">
     <!-- RHip -->
     <g transform="translate(372.911004 389.831423)scale(0.1 -0.1)">
      <use xlink:href="#DejaVuSans-82"/>
      <use x="69.482422" xlink:href="#DejaVuSans-72"/>
      <use x="144.677734" xlink:href="#DejaVuSans-105"/>
      <use x="172.460938" xlink:href="#DejaVuSans-112"/>
     </g>
    </g>
   </g>
   <g id="text_19">
    <g clip-path="url(#p5b1f6da925)">
     <!-- RKnee -->
     <g transform="translate(389.600182 541.540763)scale(0.1 -0.1)">
      <use xlink:href="#DejaVuSans-82"/>
      <use x="69.482422" xlink:href="#DejaVuSans-75"/>
      <use x="135.058594" xlink:href="#DejaVuSans-110"/>
      <use x="198.4375" xlink:href="#DejaVuSans-101"/>
      <use x="259.960938" xlink:href="#DejaVuSans-101"/>
     </g>
    </g>
   </g>
   <g id="text_20">
    <g clip-path="url(#p5b1f6da925)">
     <!-- RAnkle -->
     <g transform="translate(336.60485 692.385045)scale(0.1 -0.1)">
      <use xlink:href="#DejaVuSans-82"/>
      <use x="65.482422" xlink:href="#DejaVuSans-65"/>
      <use x="133.890625" xlink:href="#DejaVuSans-110"/>
      <use x="197.269531" xlink:href="#DejaVuSans-107"/>
      <use x="255.179688" xlink:href="#DejaVuSans-108"/>
      <use x="282.962891" xlink:href="#DejaVuSans-101"/>
     </g>
    </g>
   </g>
   <g id="text_21">
    <g clip-path="url(#p5b1f6da925)">
     <!-- RFoot -->
     <g transform="translate(333.301967 727.743019)scale(0.1 -0.1)">
      <use xlink:href="#DejaVuSans-82"/>
      <use x="69.482422" xlink:href="#DejaVuSans-70"/>
      <use x="123.376953" xlink:href="#DejaVuSans-111"/>
      <use x="184.558594" xlink:href="#DejaVuSans-111"/>
      <use x="245.740234" xlink:href="#DejaVuSans-116"/>
     </g>
    </g>
   </g>
   <g id="text_22">
    <g clip-path="url(#p5b1f6da925)">
     <!-- LHandTip -->
     <g transform="translate(328.379498 335.626834)scale(0.1 -0.1)">
      <defs>
       <path d="M -0.296875 72.90625 
L 61.375 72.90625 
L 61.375 64.59375 
L 35.5 64.59375 
L 35.5 0 
L 25.59375 0 
L 25.59375 64.59375 
L -0.296875 64.59375 
z
" id="DejaVuSans-84"/>
      </defs>
      <use xlink:href="#DejaVuSans-76"/>
      <use x="55.712891" xlink:href="#DejaVuSans-72"/>
      <use x="130.908203" xlink:href="#DejaVuSans-97"/>
      <use x="192.1875" xlink:href="#DejaVuSans-110"/>
      <use x="255.566406" xlink:href="#DejaVuSans-100"/>
      <use x="319.042969" xlink:href="#DejaVuSans-84"/>
      <use x="377.001953" xlink:href="#DejaVuSans-105"/>
      <use x="404.785156" xlink:href="#DejaVuSans-112"/>
     </g>
    </g>
   </g>
   <g id="text_23">
    <g clip-path="url(#p5b1f6da925)">
     <!-- LThumb -->
     <g transform="translate(350.522246 313.0289)scale(0.1 -0.1)">
      <defs>
       <path d="M 52 44.1875 
Q 55.375 50.25 60.0625 53.125 
Q 64.75 56 71.09375 56 
Q 79.640625 56 84.28125 50.015625 
Q 88.921875 44.046875 88.921875 33.015625 
L 88.921875 0 
L 79.890625 0 
L 79.890625 32.71875 
Q 79.890625 40.578125 77.09375 44.375 
Q 74.3125 48.1875 68.609375 48.1875 
Q 61.625 48.1875 57.5625 43.546875 
Q 53.515625 38.921875 53.515625 30.90625 
L 53.515625 0 
L 44.484375 0 
L 44.484375 32.71875 
Q 44.484375 40.625 41.703125 44.40625 
Q 38.921875 48.1875 33.109375 48.1875 
Q 26.21875 48.1875 22.15625 43.53125 
Q 18.109375 38.875 18.109375 30.90625 
L 18.109375 0 
L 9.078125 0 
L 9.078125 54.6875 
L 18.109375 54.6875 
L 18.109375 46.1875 
Q 21.1875 51.21875 25.484375 53.609375 
Q 29.78125 56 35.6875 56 
Q 41.65625 56 45.828125 52.96875 
Q 50 49.953125 52 44.1875 
z
" id="DejaVuSans-109"/>
      </defs>
      <use xlink:href="#DejaVuSans-76"/>
      <use x="41.962891" xlink:href="#DejaVuSans-84"/>
      <use x="103.046875" xlink:href="#DejaVuSans-104"/>
      <use x="166.425781" xlink:href="#DejaVuSans-117"/>
      <use x="229.804688" xlink:href="#DejaVuSans-109"/>
      <use x="327.216797" xlink:href="#DejaVuSans-98"/>
     </g>
    </g>
   </g>
   <g id="text_24">
    <g clip-path="url(#p5b1f6da925)">
     <!-- RHandTip -->
     <g transform="translate(288.827937 337.385248)scale(0.1 -0.1)">
      <use xlink:href="#DejaVuSans-82"/>
      <use x="69.482422" xlink:href="#DejaVuSans-72"/>
      <use x="144.677734" xlink:href="#DejaVuSans-97"/>
      <use x="205.957031" xlink:href="#DejaVuSans-110"/>
      <use x="269.335938" xlink:href="#DejaVuSans-100"/>
      <use x="332.8125" xlink:href="#DejaVuSans-84"/>
      <use x="390.771484" xlink:href="#DejaVuSans-105"/>
      <use x="418.554688" xlink:href="#DejaVuSans-112"/>
     </g>
    </g>
   </g>
   <g id="text_25">
    <g clip-path="url(#p5b1f6da925)">
     <!-- RThumb -->
     <g transform="translate(363.269269 333.084054)scale(0.1 -0.1)">
      <use xlink:href="#DejaVuSans-82"/>
      <use x="62.232422" xlink:href="#DejaVuSans-84"/>
      <use x="123.316406" xlink:href="#DejaVuSans-104"/>
      <use x="186.695312" xlink:href="#DejaVuSans-117"/>
      <use x="250.074219" xlink:href="#DejaVuSans-109"/>
      <use x="347.486328" xlink:href="#DejaVuSans-98"/>
     </g>
    </g>
   </g>
   <g id="text_26">
    <!-- Node Graph Visualization - Frame 267 -->
    <g transform="translate(174.194063 -6)scale(0.12 -0.12)">
     <defs>
      <path d="M 9.8125 72.90625 
L 23.09375 72.90625 
L 55.421875 11.921875 
L 55.421875 72.90625 
L 64.984375 72.90625 
L 64.984375 0 
L 51.703125 0 
L 19.390625 60.984375 
L 19.390625 0 
L 9.8125 0 
z
" id="DejaVuSans-78"/>
      <path id="DejaVuSans-32"/>
      <path d="M 59.515625 10.40625 
L 59.515625 29.984375 
L 43.40625 29.984375 
L 43.40625 38.09375 
L 69.28125 38.09375 
L 69.28125 6.78125 
Q 63.578125 2.734375 56.6875 0.65625 
Q 49.8125 -1.421875 42 -1.421875 
Q 24.90625 -1.421875 15.25 8.5625 
Q 5.609375 18.5625 5.609375 36.375 
Q 5.609375 54.25 15.25 64.234375 
Q 24.90625 74.21875 42 74.21875 
Q 49.125 74.21875 55.546875 72.453125 
Q 61.96875 70.703125 67.390625 67.28125 
L 67.390625 56.78125 
Q 61.921875 61.421875 55.765625 63.765625 
Q 49.609375 66.109375 42.828125 66.109375 
Q 29.4375 66.109375 22.71875 58.640625 
Q 16.015625 51.171875 16.015625 36.375 
Q 16.015625 21.625 22.71875 14.15625 
Q 29.4375 6.6875 42.828125 6.6875 
Q 48.046875 6.6875 52.140625 7.59375 
Q 56.25 8.5 59.515625 10.40625 
z
" id="DejaVuSans-71"/>
      <path d="M 28.609375 0 
L 0.78125 72.90625 
L 11.078125 72.90625 
L 34.1875 11.53125 
L 57.328125 72.90625 
L 67.578125 72.90625 
L 39.796875 0 
z
" id="DejaVuSans-86"/>
      <path d="M 5.515625 54.6875 
L 48.1875 54.6875 
L 48.1875 46.484375 
L 14.40625 7.171875 
L 48.1875 7.171875 
L 48.1875 0 
L 4.296875 0 
L 4.296875 8.203125 
L 38.09375 47.515625 
L 5.515625 47.515625 
z
" id="DejaVuSans-122"/>
      <path d="M 4.890625 31.390625 
L 31.203125 31.390625 
L 31.203125 23.390625 
L 4.890625 23.390625 
z
" id="DejaVuSans-45"/>
      <path d="M 19.1875 8.296875 
L 53.609375 8.296875 
L 53.609375 0 
L 7.328125 0 
L 7.328125 8.296875 
Q 12.9375 14.109375 22.625 23.890625 
Q 32.328125 33.6875 34.8125 36.53125 
Q 39.546875 41.84375 41.421875 45.53125 
Q 43.3125 49.21875 43.3125 52.78125 
Q 43.3125 58.59375 39.234375 62.25 
Q 35.15625 65.921875 28.609375 65.921875 
Q 23.96875 65.921875 18.8125 64.3125 
Q 13.671875 62.703125 7.8125 59.421875 
L 7.8125 69.390625 
Q 13.765625 71.78125 18.9375 73 
Q 24.125 74.21875 28.421875 74.21875 
Q 39.75 74.21875 46.484375 68.546875 
Q 53.21875 62.890625 53.21875 53.421875 
Q 53.21875 48.921875 51.53125 44.890625 
Q 49.859375 40.875 45.40625 35.40625 
Q 44.1875 33.984375 37.640625 27.21875 
Q 31.109375 20.453125 19.1875 8.296875 
z
" id="DejaVuSans-50"/>
      <path d="M 33.015625 40.375 
Q 26.375 40.375 22.484375 35.828125 
Q 18.609375 31.296875 18.609375 23.390625 
Q 18.609375 15.53125 22.484375 10.953125 
Q 26.375 6.390625 33.015625 6.390625 
Q 39.65625 6.390625 43.53125 10.953125 
Q 47.40625 15.53125 47.40625 23.390625 
Q 47.40625 31.296875 43.53125 35.828125 
Q 39.65625 40.375 33.015625 40.375 
z
M 52.59375 71.296875 
L 52.59375 62.3125 
Q 48.875 64.0625 45.09375 64.984375 
Q 41.3125 65.921875 37.59375 65.921875 
Q 27.828125 65.921875 22.671875 59.328125 
Q 17.53125 52.734375 16.796875 39.40625 
Q 19.671875 43.65625 24.015625 45.921875 
Q 28.375 48.1875 33.59375 48.1875 
Q 44.578125 48.1875 50.953125 41.515625 
Q 57.328125 34.859375 57.328125 23.390625 
Q 57.328125 12.15625 50.6875 5.359375 
Q 44.046875 -1.421875 33.015625 -1.421875 
Q 20.359375 -1.421875 13.671875 8.265625 
Q 6.984375 17.96875 6.984375 36.375 
Q 6.984375 53.65625 15.1875 63.9375 
Q 23.390625 74.21875 37.203125 74.21875 
Q 40.921875 74.21875 44.703125 73.484375 
Q 48.484375 72.75 52.59375 71.296875 
z
" id="DejaVuSans-54"/>
     </defs>
     <use xlink:href="#DejaVuSans-78"/>
     <use x="74.804688" xlink:href="#DejaVuSans-111"/>
     <use x="135.986328" xlink:href="#DejaVuSans-100"/>
     <use x="199.462891" xlink:href="#DejaVuSans-101"/>
     <use x="260.986328" xlink:href="#DejaVuSans-32"/>
     <use x="292.773438" xlink:href="#DejaVuSans-71"/>
     <use x="370.263672" xlink:href="#DejaVuSans-114"/>
     <use x="411.376953" xlink:href="#DejaVuSans-97"/>
     <use x="472.65625" xlink:href="#DejaVuSans-112"/>
     <use x="536.132812" xlink:href="#DejaVuSans-104"/>
     <use x="599.511719" xlink:href="#DejaVuSans-32"/>
     <use x="631.298828" xlink:href="#DejaVuSans-86"/>
     <use x="697.457031" xlink:href="#DejaVuSans-105"/>
     <use x="725.240234" xlink:href="#DejaVuSans-115"/>
     <use x="777.339844" xlink:href="#DejaVuSans-117"/>
     <use x="840.71875" xlink:href="#DejaVuSans-97"/>
     <use x="901.998047" xlink:href="#DejaVuSans-108"/>
     <use x="929.78125" xlink:href="#DejaVuSans-105"/>
     <use x="957.564453" xlink:href="#DejaVuSans-122"/>
     <use x="1010.054688" xlink:href="#DejaVuSans-97"/>
     <use x="1071.333984" xlink:href="#DejaVuSans-116"/>
     <use x="1110.542969" xlink:href="#DejaVuSans-105"/>
     <use x="1138.326172" xlink:href="#DejaVuSans-111"/>
     <use x="1199.507812" xlink:href="#DejaVuSans-110"/>
     <use x="1262.886719" xlink:href="#DejaVuSans-32"/>
     <use x="1294.673828" xlink:href="#DejaVuSans-45"/>
     <use x="1330.757812" xlink:href="#DejaVuSans-32"/>
     <use x="1362.544922" xlink:href="#DejaVuSans-70"/>
     <use x="1412.814453" xlink:href="#DejaVuSans-114"/>
     <use x="1453.927734" xlink:href="#DejaVuSans-97"/>
     <use x="1515.207031" xlink:href="#DejaVuSans-109"/>
     <use x="1612.619141" xlink:href="#DejaVuSans-101"/>
     <use x="1674.142578" xlink:href="#DejaVuSans-32"/>
     <use x="1705.929688" xlink:href="#DejaVuSans-50"/>
     <use x="1769.552734" xlink:href="#DejaVuSans-54"/>
     <use x="1833.175781" xlink:href="#DejaVuSans-55"/>
    </g>
   </g>
  </g>
 </g>
 <defs>
  <clipPath id="p5b1f6da925">
   <rect height="864" width="576" x="0" y="0"/>
  </clipPath>
 </defs>
</svg>
