<?xml version="1.0" encoding="utf-8" standalone="no"?>
<!DOCTYPE svg PUBLIC "-//W3C//DTD SVG 1.1//EN"
  "http://www.w3.org/Graphics/SVG/1.1/DTD/svg11.dtd">
<!-- Created with matplotlib (https://matplotlib.org/) -->
<svg height="864pt" version="1.1" viewBox="0 0 576 864" width="576pt" xmlns="http://www.w3.org/2000/svg" xmlns:xlink="http://www.w3.org/1999/xlink">
 <metadata>
  <rdf:RDF xmlns:cc="http://creativecommons.org/ns#" xmlns:dc="http://purl.org/dc/elements/1.1/" xmlns:rdf="http://www.w3.org/1999/02/22-rdf-syntax-ns#">
   <cc:Work>
    <dc:type rdf:resource="http://purl.org/dc/dcmitype/StillImage"/>
    <dc:date>2024-02-04T22:27:51.047316</dc:date>
    <dc:format>image/svg+xml</dc:format>
    <dc:creator>
     <cc:Agent>
      <dc:title>Matplotlib v3.3.2, https://matplotlib.org/</dc:title>
     </cc:Agent>
    </dc:creator>
   </cc:Work>
  </rdf:RDF>
 </metadata>
 <defs>
  <style type="text/css">*{stroke-linecap:butt;stroke-linejoin:round;}</style>
 </defs>
 <g id="figure_1">
  <g id="patch_1">
   <path d="M 0 864 
L 576 864 
L 576 0 
L 0 0 
z
" style="fill:#ffffff;"/>
  </g>
  <g id="axes_1">
   <g id="patch_2">
    <path clip-path="url(#pc1b83bf332)" d="M 289.69795 85.868756 
Q 279.593807 100.52402 270.124284 114.258818 
" style="fill:none;stroke:#000000;stroke-linecap:round;"/>
    <path clip-path="url(#pc1b83bf332)" d="M 274.041349 112.100901 
L 270.124284 114.258818 
L 270.748189 109.830416 
L 274.041349 112.100901 
z
" style="stroke:#000000;stroke-linecap:round;"/>
   </g>
   <g id="patch_3">
    <path clip-path="url(#pc1b83bf332)" d="M 261.716922 139.298017 
Q 261.644054 142.963389 261.593409 145.510948 
" style="fill:none;stroke:#000000;stroke-linecap:round;"/>
    <path clip-path="url(#pc1b83bf332)" d="M 263.672518 141.55149 
L 261.593409 145.510948 
L 259.673308 141.471986 
L 263.672518 141.55149 
z
" style="stroke:#000000;stroke-linecap:round;"/>
   </g>
   <g id="patch_4">
    <path clip-path="url(#pc1b83bf332)" d="M 269.490473 115.178111 
Q 279.594616 100.522847 289.06414 86.788049 
" style="fill:none;stroke:#000000;stroke-linecap:round;"/>
    <path clip-path="url(#pc1b83bf332)" d="M 285.147075 88.945966 
L 289.06414 86.788049 
L 288.440234 91.216451 
L 285.147075 88.945966 
z
" style="stroke:#000000;stroke-linecap:round;"/>
   </g>
   <g id="patch_5">
    <path clip-path="url(#pc1b83bf332)" d="M 260.661099 173.067842 
Q 258.770097 211.672538 256.933794 249.160538 
" style="fill:none;stroke:#000000;stroke-linecap:round;"/>
    <path clip-path="url(#pc1b83bf332)" d="M 259.1271 245.263179 
L 256.933794 249.160538 
L 255.13189 245.067478 
L 259.1271 245.263179 
z
" style="stroke:#000000;stroke-linecap:round;"/>
   </g>
   <g id="patch_6">
    <path clip-path="url(#pc1b83bf332)" d="M 248.099902 160.625439 
Q 204.850236 163.140895 162.716717 165.591434 
" style="fill:none;stroke:#000000;stroke-linecap:round;"/>
    <path clip-path="url(#pc1b83bf332)" d="M 166.826095 167.355808 
L 162.716717 165.591434 
L 166.593843 163.362556 
L 166.826095 167.355808 
z
" style="stroke:#000000;stroke-linecap:round;"/>
   </g>
   <g id="patch_7">
    <path clip-path="url(#pc1b83bf332)" d="M 274.490769 160.948873 
Q 326.737436 165.275406 377.869884 169.509671 
" style="fill:none;stroke:#000000;stroke-linecap:round;"/>
    <path clip-path="url(#pc1b83bf332)" d="M 374.048583 167.186384 
L 377.869884 169.509671 
L 373.718474 171.17274 
L 374.048583 167.186384 
z
" style="stroke:#000000;stroke-linecap:round;"/>
   </g>
   <g id="patch_8">
    <path clip-path="url(#pc1b83bf332)" d="M 261.571144 146.630871 
Q 261.644012 142.965499 261.694658 140.41794 
" style="fill:none;stroke:#000000;stroke-linecap:round;"/>
    <path clip-path="url(#pc1b83bf332)" d="M 259.615548 144.377398 
L 261.694658 140.41794 
L 263.614758 144.456902 
L 259.615548 144.377398 
z
" style="stroke:#000000;stroke-linecap:round;"/>
   </g>
   <g id="patch_9">
    <path clip-path="url(#pc1b83bf332)" d="M 255.287174 276.690649 
Q 251.188924 333.952755 247.170487 390.099679 
" style="fill:none;stroke:#000000;stroke-linecap:round;"/>
    <path clip-path="url(#pc1b83bf332)" d="M 249.450934 386.252659 
L 247.170487 390.099679 
L 245.461139 385.96711 
L 249.450934 386.252659 
z
" style="stroke:#000000;stroke-linecap:round;"/>
   </g>
   <g id="patch_10">
    <path clip-path="url(#pc1b83bf332)" d="M 256.878856 250.282094 
Q 258.769859 211.677399 260.606161 174.189398 
" style="fill:none;stroke:#000000;stroke-linecap:round;"/>
    <path clip-path="url(#pc1b83bf332)" d="M 258.412855 178.086758 
L 260.606161 174.189398 
L 262.408065 178.282458 
L 258.412855 178.086758 
z
" style="stroke:#000000;stroke-linecap:round;"/>
   </g>
   <g id="patch_11">
    <path clip-path="url(#pc1b83bf332)" d="M 232.937776 403.720969 
Q 212.883418 402.677326 193.945582 401.691788 
" style="fill:none;stroke:#000000;stroke-linecap:round;"/>
    <path clip-path="url(#pc1b83bf332)" d="M 197.836236 403.896966 
L 193.945582 401.691788 
L 198.044118 399.902372 
L 197.836236 403.896966 
z
" style="stroke:#000000;stroke-linecap:round;"/>
   </g>
   <g id="patch_12">
    <path clip-path="url(#pc1b83bf332)" d="M 259.372555 404.378012 
Q 270.957137 404.351435 281.423688 404.327423 
" style="fill:none;stroke:#000000;stroke-linecap:round;"/>
    <path clip-path="url(#pc1b83bf332)" d="M 277.41911 402.336605 
L 281.423688 404.327423 
L 277.428287 406.336594 
L 277.41911 402.336605 
z
" style="stroke:#000000;stroke-linecap:round;"/>
   </g>
   <g id="patch_13">
    <path clip-path="url(#pc1b83bf332)" d="M 247.090991 391.210415 
Q 251.189242 333.948309 255.207679 277.801385 
" style="fill:none;stroke:#000000;stroke-linecap:round;"/>
    <path clip-path="url(#pc1b83bf332)" d="M 252.927232 281.648404 
L 255.207679 277.801385 
L 256.917027 281.933954 
L 252.927232 281.648404 
z
" style="stroke:#000000;stroke-linecap:round;"/>
   </g>
   <g id="patch_14">
    <path clip-path="url(#pc1b83bf332)" d="M 141.156143 177.49944 
Q 109.766033 225.546722 78.98742 272.658016 
" style="fill:none;stroke:#000000;stroke-linecap:round;"/>
    <path clip-path="url(#pc1b83bf332)" d="M 82.849521 270.403204 
L 78.98742 272.658016 
L 79.500831 268.215448 
L 82.849521 270.403204 
z
" style="stroke:#000000;stroke-linecap:round;"/>
   </g>
   <g id="patch_15">
    <path clip-path="url(#pc1b83bf332)" d="M 161.599824 165.656394 
Q 204.84949 163.140939 246.983008 160.690399 
" style="fill:none;stroke:#000000;stroke-linecap:round;"/>
    <path clip-path="url(#pc1b83bf332)" d="M 242.87363 158.926026 
L 246.983008 160.690399 
L 243.105883 162.919278 
L 242.87363 158.926026 
z
" style="stroke:#000000;stroke-linecap:round;"/>
   </g>
   <g id="patch_16">
    <path clip-path="url(#pc1b83bf332)" d="M 68.581461 297.647537 
Q 60.561475 338.342242 52.75767 377.940011 
" style="fill:none;stroke:#000000;stroke-linecap:round;"/>
    <path clip-path="url(#pc1b83bf332)" d="M 55.493357 374.402213 
L 52.75767 377.940011 
L 51.568844 373.628783 
L 55.493357 374.402213 
z
" style="stroke:#000000;stroke-linecap:round;"/>
   </g>
   <g id="patch_17">
    <path clip-path="url(#pc1b83bf332)" d="M 78.374087 273.596814 
Q 109.764197 225.549532 140.54281 178.438238 
" style="fill:none;stroke:#000000;stroke-linecap:round;"/>
    <path clip-path="url(#pc1b83bf332)" d="M 136.680709 180.69305 
L 140.54281 178.438238 
L 140.029399 182.880806 
L 136.680709 180.69305 
z
" style="stroke:#000000;stroke-linecap:round;"/>
   </g>
   <g id="patch_18">
    <path clip-path="url(#pc1b83bf332)" d="M 53.26437 404.829332 
Q 54.568056 409.920495 55.594397 413.928569 
" style="fill:none;stroke:#000000;stroke-linecap:round;"/>
    <path clip-path="url(#pc1b83bf332)" d="M 56.539626 409.557466 
L 55.594397 413.928569 
L 52.664652 410.549724 
L 56.539626 409.557466 
z
" style="stroke:#000000;stroke-linecap:round;"/>
   </g>
   <g id="patch_19">
    <path clip-path="url(#pc1b83bf332)" d="M 52.540719 379.040855 
Q 60.560705 338.346151 68.36451 298.748381 
" style="fill:none;stroke:#000000;stroke-linecap:round;"/>
    <path clip-path="url(#pc1b83bf332)" d="M 65.628822 302.286179 
L 68.36451 298.748381 
L 69.553335 303.059609 
L 65.628822 302.286179 
z
" style="stroke:#000000;stroke-linecap:round;"/>
   </g>
   <g id="patch_20">
    <path clip-path="url(#pc1b83bf332)" d="M 56.141989 440.713754 
Q 54.576014 447.414839 53.264458 453.027223 
" style="fill:none;stroke:#000000;stroke-linecap:round;"/>
    <path clip-path="url(#pc1b83bf332)" d="M 56.122221 449.587283 
L 53.264458 453.027223 
L 52.227164 448.677048 
L 56.122221 449.587283 
z
" style="stroke:#000000;stroke-linecap:round;"/>
   </g>
   <g id="patch_21">
    <path clip-path="url(#pc1b83bf332)" d="M 72.378519 427.520366 
Q 73.966095 427.483522 74.435938 427.472618 
" style="fill:none;stroke:#000000;stroke-linecap:round;"/>
    <path clip-path="url(#pc1b83bf332)" d="M 70.390611 425.565963 
L 74.435938 427.472618 
L 70.483418 429.564886 
L 70.390611 425.565963 
z
" style="stroke:#000000;stroke-linecap:round;"/>
   </g>
   <g id="patch_22">
    <path clip-path="url(#pc1b83bf332)" d="M 55.872523 415.014706 
Q 54.568837 409.923543 53.542496 405.915469 
" style="fill:none;stroke:#000000;stroke-linecap:round;"/>
    <path clip-path="url(#pc1b83bf332)" d="M 52.597267 410.286572 
L 53.542496 405.915469 
L 56.472241 409.294314 
L 52.597267 410.286572 
z
" style="stroke:#000000;stroke-linecap:round;"/>
   </g>
   <g id="patch_23">
    <path clip-path="url(#pc1b83bf332)" d="M 397.316293 182.880515 
Q 414.875754 224.442031 432.000093 264.973658 
" style="fill:none;stroke:#000000;stroke-linecap:round;"/>
    <path clip-path="url(#pc1b83bf332)" d="M 432.285678 260.51065 
L 432.000093 264.973658 
L 428.601038 262.067386 
L 432.285678 260.51065 
z
" style="stroke:#000000;stroke-linecap:round;"/>
   </g>
   <g id="patch_24">
    <path clip-path="url(#pc1b83bf332)" d="M 378.984858 169.602002 
Q 326.738191 165.275468 275.605743 161.041203 
" style="fill:none;stroke:#000000;stroke-linecap:round;"/>
    <path clip-path="url(#pc1b83bf332)" d="M 279.427044 163.36449 
L 275.605743 161.041203 
L 279.757153 159.378135 
L 279.427044 163.36449 
z
" style="stroke:#000000;stroke-linecap:round;"/>
   </g>
   <g id="patch_25">
    <path clip-path="url(#pc1b83bf332)" d="M 443.302811 290.118906 
Q 462.905592 331.008885 482.025054 370.890697 
" style="fill:none;stroke:#000000;stroke-linecap:round;"/>
    <path clip-path="url(#pc1b83bf332)" d="M 482.099346 366.419178 
L 482.025054 370.890697 
L 478.492414 368.148352 
L 482.099346 366.419178 
z
" style="stroke:#000000;stroke-linecap:round;"/>
   </g>
   <g id="patch_26">
    <path clip-path="url(#pc1b83bf332)" d="M 432.433941 266.000533 
Q 414.87448 224.439017 397.750141 183.907389 
" style="fill:none;stroke:#000000;stroke-linecap:round;"/>
    <path clip-path="url(#pc1b83bf332)" d="M 397.464556 188.370398 
L 397.750141 183.907389 
L 401.149196 186.813662 
L 397.464556 188.370398 
z
" style="stroke:#000000;stroke-linecap:round;"/>
   </g>
   <g id="patch_27">
    <path clip-path="url(#pc1b83bf332)" d="M 488.835661 397.038446 
Q 488.933361 399.158012 488.97958 400.160731 
" style="fill:none;stroke:#000000;stroke-linecap:round;"/>
    <path clip-path="url(#pc1b83bf332)" d="M 490.793277 396.072882 
L 488.97958 400.160731 
L 486.79752 396.257064 
L 490.793277 396.072882 
z
" style="stroke:#000000;stroke-linecap:round;"/>
   </g>
   <g id="patch_28">
    <path clip-path="url(#pc1b83bf332)" d="M 482.506679 371.895332 
Q 462.903898 331.005352 443.784436 291.123541 
" style="fill:none;stroke:#000000;stroke-linecap:round;"/>
    <path clip-path="url(#pc1b83bf332)" d="M 443.710144 295.59506 
L 443.784436 291.123541 
L 447.317076 293.865886 
L 443.710144 295.59506 
z
" style="stroke:#000000;stroke-linecap:round;"/>
   </g>
   <g id="patch_29">
    <path clip-path="url(#pc1b83bf332)" d="M 492.853273 413.943439 
Q 495.024081 421.136956 496.871883 427.260114 
" style="fill:none;stroke:#000000;stroke-linecap:round;"/>
    <path clip-path="url(#pc1b83bf332)" d="M 497.630981 422.852873 
L 496.871883 427.260114 
L 493.801549 424.008492 
L 497.630981 422.852873 
z
" style="stroke:#000000;stroke-linecap:round;"/>
   </g>
   <g id="patch_30">
    <path clip-path="url(#pc1b83bf332)" d="M 502.245961 401.851062 
Q 507.522668 402.080053 511.682391 402.260572 
" style="fill:none;stroke:#000000;stroke-linecap:round;"/>
    <path clip-path="url(#pc1b83bf332)" d="M 507.772864 400.089029 
L 511.682391 402.260572 
L 507.599441 404.085267 
L 507.772864 400.089029 
z
" style="stroke:#000000;stroke-linecap:round;"/>
   </g>
   <g id="patch_31">
    <path clip-path="url(#pc1b83bf332)" d="M 488.42208 388.06597 
Q 488.324379 385.946403 488.27816 384.943685 
" style="fill:none;stroke:#000000;stroke-linecap:round;"/>
    <path clip-path="url(#pc1b83bf332)" d="M 486.464463 389.031533 
L 488.27816 384.943685 
L 490.46022 388.847351 
L 486.464463 389.031533 
z
" style="stroke:#000000;stroke-linecap:round;"/>
   </g>
   <g id="patch_32">
    <path clip-path="url(#pc1b83bf332)" d="M 178.278501 414.105602 
Q 171.280433 482.751021 164.395755 550.284171 
" style="fill:none;stroke:#000000;stroke-linecap:round;"/>
    <path clip-path="url(#pc1b83bf332)" d="M 166.791121 546.507635 
L 164.395755 550.284171 
L 162.811746 546.101957 
L 166.791121 546.507635 
z
" style="stroke:#000000;stroke-linecap:round;"/>
   </g>
   <g id="patch_33">
    <path clip-path="url(#pc1b83bf332)" d="M 192.828668 401.633663 
Q 212.883027 402.677305 231.820862 403.662844 
" style="fill:none;stroke:#000000;stroke-linecap:round;"/>
    <path clip-path="url(#pc1b83bf332)" d="M 227.930208 401.457665 
L 231.820862 403.662844 
L 227.722327 405.452259 
L 227.930208 401.457665 
z
" style="stroke:#000000;stroke-linecap:round;"/>
   </g>
   <g id="patch_34">
    <path clip-path="url(#pc1b83bf332)" d="M 163.598231 577.771573 
Q 167.6439 659.017664 171.633966 739.147106 
" style="fill:none;stroke:#000000;stroke-linecap:round;"/>
    <path clip-path="url(#pc1b83bf332)" d="M 173.432556 735.052588 
L 171.633966 739.147106 
L 169.437506 735.251523 
L 173.432556 735.052588 
z
" style="stroke:#000000;stroke-linecap:round;"/>
   </g>
   <g id="patch_35">
    <path clip-path="url(#pc1b83bf332)" d="M 164.281902 551.400983 
Q 171.27997 482.755563 178.164647 415.222414 
" style="fill:none;stroke:#000000;stroke-linecap:round;"/>
    <path clip-path="url(#pc1b83bf332)" d="M 175.769282 418.99895 
L 178.164647 415.222414 
L 179.748657 419.404628 
L 175.769282 418.99895 
z
" style="stroke:#000000;stroke-linecap:round;"/>
   </g>
   <g id="patch_36">
    <path clip-path="url(#pc1b83bf332)" d="M 174.598366 766.517825 
Q 175.41574 771.253025 176.042935 774.886485 
" style="fill:none;stroke:#000000;stroke-linecap:round;"/>
    <path clip-path="url(#pc1b83bf332)" d="M 177.333385 770.604577 
L 176.042935 774.886485 
L 173.391678 771.28498 
L 177.333385 770.604577 
z
" style="stroke:#000000;stroke-linecap:round;"/>
   </g>
   <g id="patch_37">
    <path clip-path="url(#pc1b83bf332)" d="M 171.689758 740.267532 
Q 167.644088 659.02144 163.654023 578.891999 
" style="fill:none;stroke:#000000;stroke-linecap:round;"/>
    <path clip-path="url(#pc1b83bf332)" d="M 161.855432 582.986517 
L 163.654023 578.891999 
L 165.850482 582.787582 
L 161.855432 582.986517 
z
" style="stroke:#000000;stroke-linecap:round;"/>
   </g>
   <g id="patch_38">
    <path clip-path="url(#pc1b83bf332)" d="M 176.232688 775.985765 
Q 175.415315 771.250565 174.78812 767.617105 
" style="fill:none;stroke:#000000;stroke-linecap:round;"/>
    <path clip-path="url(#pc1b83bf332)" d="M 173.49767 771.899013 
L 174.78812 767.617105 
L 177.439377 771.21861 
L 173.49767 771.899013 
z
" style="stroke:#000000;stroke-linecap:round;"/>
   </g>
   <g id="patch_39">
    <path clip-path="url(#pc1b83bf332)" d="M 296.510669 417.503962 
Q 299.543638 471.443489 302.513841 524.266746 
" style="fill:none;stroke:#000000;stroke-linecap:round;"/>
    <path clip-path="url(#pc1b83bf332)" d="M 304.286126 520.160774 
L 302.513841 524.266746 
L 300.292434 520.385336 
L 304.286126 520.160774 
z
" style="stroke:#000000;stroke-linecap:round;"/>
   </g>
   <g id="patch_40">
    <path clip-path="url(#pc1b83bf332)" d="M 282.541773 404.324857 
Q 270.957191 404.351435 260.490639 404.375447 
" style="fill:none;stroke:#000000;stroke-linecap:round;"/>
    <path clip-path="url(#pc1b83bf332)" d="M 264.495217 406.366265 
L 260.490639 404.375447 
L 264.486041 402.366275 
L 264.495217 406.366265 
z
" style="stroke:#000000;stroke-linecap:round;"/>
   </g>
   <g id="patch_41">
    <path clip-path="url(#pc1b83bf332)" d="M 295.23768 549.065608 
Q 219.540857 647.146738 144.527126 744.342778 
" style="fill:none;stroke:#000000;stroke-linecap:round;"/>
    <path clip-path="url(#pc1b83bf332)" d="M 148.55433 742.398137 
L 144.527126 744.342778 
L 145.387736 739.95423 
L 148.55433 742.398137 
z
" style="stroke:#000000;stroke-linecap:round;"/>
   </g>
   <g id="patch_42">
    <path clip-path="url(#pc1b83bf332)" d="M 302.576693 525.384532 
Q 299.543724 471.445004 296.573521 418.621747 
" style="fill:none;stroke:#000000;stroke-linecap:round;"/>
    <path clip-path="url(#pc1b83bf332)" d="M 294.801236 422.72772 
L 296.573521 418.621747 
L 298.794928 422.503158 
L 294.801236 422.72772 
z
" style="stroke:#000000;stroke-linecap:round;"/>
   </g>
   <g id="patch_43">
    <path clip-path="url(#pc1b83bf332)" d="M 145.86841 764.235505 
Q 154.230718 771.299431 161.738937 777.641878 
" style="fill:none;stroke:#000000;stroke-linecap:round;"/>
    <path clip-path="url(#pc1b83bf332)" d="M 159.973873 773.532797 
L 161.738937 777.641878 
L 157.392633 776.58848 
L 159.973873 773.532797 
z
" style="stroke:#000000;stroke-linecap:round;"/>
   </g>
   <g id="patch_44">
    <path clip-path="url(#pc1b83bf332)" d="M 143.844498 745.227265 
Q 219.541322 647.146135 294.555052 549.950095 
" style="fill:none;stroke:#000000;stroke-linecap:round;"/>
    <path clip-path="url(#pc1b83bf332)" d="M 290.527848 551.894736 
L 294.555052 549.950095 
L 293.694443 554.338643 
L 290.527848 551.894736 
z
" style="stroke:#000000;stroke-linecap:round;"/>
   </g>
   <g id="patch_45">
    <path clip-path="url(#pc1b83bf332)" d="M 162.590233 778.360997 
Q 154.227925 771.297071 146.719706 764.954623 
" style="fill:none;stroke:#000000;stroke-linecap:round;"/>
    <path clip-path="url(#pc1b83bf332)" d="M 148.48477 769.063705 
L 146.719706 764.954623 
L 151.066009 766.008021 
L 148.48477 769.063705 
z
" style="stroke:#000000;stroke-linecap:round;"/>
   </g>
   <g id="patch_46">
    <path clip-path="url(#pc1b83bf332)" d="M 53.010992 454.111848 
Q 54.576967 447.410762 55.888523 441.798379 
" style="fill:none;stroke:#000000;stroke-linecap:round;"/>
    <path clip-path="url(#pc1b83bf332)" d="M 53.030759 445.238319 
L 55.888523 441.798379 
L 56.925817 446.148554 
L 53.030759 445.238319 
z
" style="stroke:#000000;stroke-linecap:round;"/>
   </g>
   <g id="patch_47">
    <path clip-path="url(#pc1b83bf332)" d="M 75.5537 427.446677 
Q 73.966124 427.483521 73.496282 427.494425 
" style="fill:none;stroke:#000000;stroke-linecap:round;"/>
    <path clip-path="url(#pc1b83bf332)" d="M 77.541608 429.40108 
L 73.496282 427.494425 
L 77.448801 425.402157 
L 77.541608 429.40108 
z
" style="stroke:#000000;stroke-linecap:round;"/>
   </g>
   <g id="patch_48">
    <path clip-path="url(#pc1b83bf332)" d="M 497.194135 428.327977 
Q 495.023328 421.13446 493.175525 415.011301 
" style="fill:none;stroke:#000000;stroke-linecap:round;"/>
    <path clip-path="url(#pc1b83bf332)" d="M 492.416427 419.418542 
L 493.175525 415.011301 
L 496.245859 418.262924 
L 492.416427 419.418542 
z
" style="stroke:#000000;stroke-linecap:round;"/>
   </g>
   <g id="patch_49">
    <path clip-path="url(#pc1b83bf332)" d="M 512.801628 402.309143 
Q 507.524922 402.080151 503.365199 401.899633 
" style="fill:none;stroke:#000000;stroke-linecap:round;"/>
    <path clip-path="url(#pc1b83bf332)" d="M 507.274726 404.071176 
L 503.365199 401.899633 
L 507.448149 400.074937 
L 507.274726 404.071176 
z
" style="stroke:#000000;stroke-linecap:round;"/>
   </g>
   <g id="PathCollection_1">
    <defs>
     <path d="M 0 13.228757 
C 3.508307 13.228757 6.873396 11.834891 9.354143 9.354143 
C 11.834891 6.873396 13.228757 3.508307 13.228757 0 
C 13.228757 -3.508307 11.834891 -6.873396 9.354143 -9.354143 
C 6.873396 -11.834891 3.508307 -13.228757 0 -13.228757 
C -3.508307 -13.228757 -6.873396 -11.834891 -9.354143 -9.354143 
C -11.834891 -6.873396 -13.228757 -3.508307 -13.228757 0 
C -13.228757 3.508307 -11.834891 6.873396 -9.354143 9.354143 
C -6.873396 11.834891 -3.508307 13.228757 0 13.228757 
z
" id="mefe2d9d55a" style="stroke:#87ceeb;"/>
    </defs>
    <g clip-path="url(#pc1b83bf332)">
     <use style="fill:#87ceeb;stroke:#87ceeb;" x="297.208561" xlink:href="#mefe2d9d55a" y="74.975207"/>
     <use style="fill:#87ceeb;stroke:#87ceeb;" x="261.979863" xlink:href="#mefe2d9d55a" y="126.07166"/>
     <use style="fill:#87ceeb;stroke:#87ceeb;" x="261.308204" xlink:href="#mefe2d9d55a" y="159.857228"/>
     <use style="fill:#87ceeb;stroke:#87ceeb;" x="256.231751" xlink:href="#mefe2d9d55a" y="263.492708"/>
     <use style="fill:#87ceeb;stroke:#87ceeb;" x="246.146414" xlink:href="#mefe2d9d55a" y="404.408355"/>
     <use style="fill:#87ceeb;stroke:#87ceeb;" x="148.391522" xlink:href="#mefe2d9d55a" y="166.424606"/>
     <use style="fill:#87ceeb;stroke:#87ceeb;" x="71.138708" xlink:href="#mefe2d9d55a" y="284.671648"/>
     <use style="fill:#87ceeb;stroke:#87ceeb;" x="49.983471" xlink:href="#mefe2d9d55a" y="392.016744"/>
     <use style="fill:#87ceeb;stroke:#87ceeb;" x="59.153422" xlink:href="#mefe2d9d55a" y="427.827294"/>
     <use style="fill:#87ceeb;stroke:#87ceeb;" x="392.167423" xlink:href="#mefe2d9d55a" y="170.693647"/>
     <use style="fill:#87ceeb;stroke:#87ceeb;" x="437.582811" xlink:href="#mefe2d9d55a" y="278.187401"/>
     <use style="fill:#87ceeb;stroke:#87ceeb;" x="488.226679" xlink:href="#mefe2d9d55a" y="383.826837"/>
     <use style="fill:#87ceeb;stroke:#87ceeb;" x="489.031061" xlink:href="#mefe2d9d55a" y="401.277579"/>
     <use style="fill:#87ceeb;stroke:#87ceeb;" x="179.62003" xlink:href="#mefe2d9d55a" y="400.946276"/>
     <use style="fill:#87ceeb;stroke:#87ceeb;" x="162.940372" xlink:href="#mefe2d9d55a" y="564.560308"/>
     <use style="fill:#87ceeb;stroke:#87ceeb;" x="172.347616" xlink:href="#mefe2d9d55a" y="753.478797"/>
     <use style="fill:#87ceeb;stroke:#87ceeb;" x="178.483439" xlink:href="#mefe2d9d55a" y="789.024793"/>
     <use style="fill:#87ceeb;stroke:#87ceeb;" x="295.767914" xlink:href="#mefe2d9d55a" y="404.294514"/>
     <use style="fill:#87ceeb;stroke:#87ceeb;" x="303.319448" xlink:href="#mefe2d9d55a" y="538.59398"/>
     <use style="fill:#87ceeb;stroke:#87ceeb;" x="135.76273" xlink:href="#mefe2d9d55a" y="755.698893"/>
     <use style="fill:#87ceeb;stroke:#87ceeb;" x="172.695913" xlink:href="#mefe2d9d55a" y="786.897608"/>
     <use style="fill:#87ceeb;stroke:#87ceeb;" x="49.999559" xlink:href="#mefe2d9d55a" y="466.998308"/>
     <use style="fill:#87ceeb;stroke:#87ceeb;" x="88.778798" xlink:href="#mefe2d9d55a" y="427.139749"/>
     <use style="fill:#87ceeb;stroke:#87ceeb;" x="501.016347" xlink:href="#mefe2d9d55a" y="440.993836"/>
     <use style="fill:#87ceeb;stroke:#87ceeb;" x="526.016529" xlink:href="#mefe2d9d55a" y="402.882626"/>
    </g>
   </g>
   <g id="text_1">
    <g clip-path="url(#pc1b83bf332)">
     <!-- Head -->
     <g transform="translate(284.133561 77.734582)scale(0.1 -0.1)">
      <defs>
       <path d="M 9.8125 72.90625 
L 19.671875 72.90625 
L 19.671875 43.015625 
L 55.515625 43.015625 
L 55.515625 72.90625 
L 65.375 72.90625 
L 65.375 0 
L 55.515625 0 
L 55.515625 34.71875 
L 19.671875 34.71875 
L 19.671875 0 
L 9.8125 0 
z
" id="DejaVuSans-72"/>
       <path d="M 56.203125 29.59375 
L 56.203125 25.203125 
L 14.890625 25.203125 
Q 15.484375 15.921875 20.484375 11.0625 
Q 25.484375 6.203125 34.421875 6.203125 
Q 39.59375 6.203125 44.453125 7.46875 
Q 49.3125 8.734375 54.109375 11.28125 
L 54.109375 2.78125 
Q 49.265625 0.734375 44.1875 -0.34375 
Q 39.109375 -1.421875 33.890625 -1.421875 
Q 20.796875 -1.421875 13.15625 6.1875 
Q 5.515625 13.8125 5.515625 26.8125 
Q 5.515625 40.234375 12.765625 48.109375 
Q 20.015625 56 32.328125 56 
Q 43.359375 56 49.78125 48.890625 
Q 56.203125 41.796875 56.203125 29.59375 
z
M 47.21875 32.234375 
Q 47.125 39.59375 43.09375 43.984375 
Q 39.0625 48.390625 32.421875 48.390625 
Q 24.90625 48.390625 20.390625 44.140625 
Q 15.875 39.890625 15.1875 32.171875 
z
" id="DejaVuSans-101"/>
       <path d="M 34.28125 27.484375 
Q 23.390625 27.484375 19.1875 25 
Q 14.984375 22.515625 14.984375 16.5 
Q 14.984375 11.71875 18.140625 8.90625 
Q 21.296875 6.109375 26.703125 6.109375 
Q 34.1875 6.109375 38.703125 11.40625 
Q 43.21875 16.703125 43.21875 25.484375 
L 43.21875 27.484375 
z
M 52.203125 31.203125 
L 52.203125 0 
L 43.21875 0 
L 43.21875 8.296875 
Q 40.140625 3.328125 35.546875 0.953125 
Q 30.953125 -1.421875 24.3125 -1.421875 
Q 15.921875 -1.421875 10.953125 3.296875 
Q 6 8.015625 6 15.921875 
Q 6 25.140625 12.171875 29.828125 
Q 18.359375 34.515625 30.609375 34.515625 
L 43.21875 34.515625 
L 43.21875 35.40625 
Q 43.21875 41.609375 39.140625 45 
Q 35.0625 48.390625 27.6875 48.390625 
Q 23 48.390625 18.546875 47.265625 
Q 14.109375 46.140625 10.015625 43.890625 
L 10.015625 52.203125 
Q 14.9375 54.109375 19.578125 55.046875 
Q 24.21875 56 28.609375 56 
Q 40.484375 56 46.34375 49.84375 
Q 52.203125 43.703125 52.203125 31.203125 
z
" id="DejaVuSans-97"/>
       <path d="M 45.40625 46.390625 
L 45.40625 75.984375 
L 54.390625 75.984375 
L 54.390625 0 
L 45.40625 0 
L 45.40625 8.203125 
Q 42.578125 3.328125 38.25 0.953125 
Q 33.9375 -1.421875 27.875 -1.421875 
Q 17.96875 -1.421875 11.734375 6.484375 
Q 5.515625 14.40625 5.515625 27.296875 
Q 5.515625 40.1875 11.734375 48.09375 
Q 17.96875 56 27.875 56 
Q 33.9375 56 38.25 53.625 
Q 42.578125 51.265625 45.40625 46.390625 
z
M 14.796875 27.296875 
Q 14.796875 17.390625 18.875 11.75 
Q 22.953125 6.109375 30.078125 6.109375 
Q 37.203125 6.109375 41.296875 11.75 
Q 45.40625 17.390625 45.40625 27.296875 
Q 45.40625 37.203125 41.296875 42.84375 
Q 37.203125 48.484375 30.078125 48.484375 
Q 22.953125 48.484375 18.875 42.84375 
Q 14.796875 37.203125 14.796875 27.296875 
z
" id="DejaVuSans-100"/>
      </defs>
      <use xlink:href="#DejaVuSans-72"/>
      <use x="75.195312" xlink:href="#DejaVuSans-101"/>
      <use x="136.71875" xlink:href="#DejaVuSans-97"/>
      <use x="197.998047" xlink:href="#DejaVuSans-100"/>
     </g>
    </g>
   </g>
   <g id="text_2">
    <g clip-path="url(#pc1b83bf332)">
     <!-- c7 -->
     <g transform="translate(256.049394 128.831035)scale(0.1 -0.1)">
      <defs>
       <path d="M 48.78125 52.59375 
L 48.78125 44.1875 
Q 44.96875 46.296875 41.140625 47.34375 
Q 37.3125 48.390625 33.40625 48.390625 
Q 24.65625 48.390625 19.8125 42.84375 
Q 14.984375 37.3125 14.984375 27.296875 
Q 14.984375 17.28125 19.8125 11.734375 
Q 24.65625 6.203125 33.40625 6.203125 
Q 37.3125 6.203125 41.140625 7.25 
Q 44.96875 8.296875 48.78125 10.40625 
L 48.78125 2.09375 
Q 45.015625 0.34375 40.984375 -0.53125 
Q 36.96875 -1.421875 32.421875 -1.421875 
Q 20.0625 -1.421875 12.78125 6.34375 
Q 5.515625 14.109375 5.515625 27.296875 
Q 5.515625 40.671875 12.859375 48.328125 
Q 20.21875 56 33.015625 56 
Q 37.15625 56 41.109375 55.140625 
Q 45.0625 54.296875 48.78125 52.59375 
z
" id="DejaVuSans-99"/>
       <path d="M 8.203125 72.90625 
L 55.078125 72.90625 
L 55.078125 68.703125 
L 28.609375 0 
L 18.3125 0 
L 43.21875 64.59375 
L 8.203125 64.59375 
z
" id="DejaVuSans-55"/>
      </defs>
      <use xlink:href="#DejaVuSans-99"/>
      <use x="54.980469" xlink:href="#DejaVuSans-55"/>
     </g>
    </g>
   </g>
   <g id="text_3">
    <g clip-path="url(#pc1b83bf332)">
     <!-- SpineShoulder -->
     <g transform="translate(225.058985 162.616603)scale(0.1 -0.1)">
      <defs>
       <path d="M 53.515625 70.515625 
L 53.515625 60.890625 
Q 47.90625 63.578125 42.921875 64.890625 
Q 37.9375 66.21875 33.296875 66.21875 
Q 25.25 66.21875 20.875 63.09375 
Q 16.5 59.96875 16.5 54.203125 
Q 16.5 49.359375 19.40625 46.890625 
Q 22.3125 44.4375 30.421875 42.921875 
L 36.375 41.703125 
Q 47.40625 39.59375 52.65625 34.296875 
Q 57.90625 29 57.90625 20.125 
Q 57.90625 9.515625 50.796875 4.046875 
Q 43.703125 -1.421875 29.984375 -1.421875 
Q 24.8125 -1.421875 18.96875 -0.25 
Q 13.140625 0.921875 6.890625 3.21875 
L 6.890625 13.375 
Q 12.890625 10.015625 18.65625 8.296875 
Q 24.421875 6.59375 29.984375 6.59375 
Q 38.421875 6.59375 43.015625 9.90625 
Q 47.609375 13.234375 47.609375 19.390625 
Q 47.609375 24.75 44.3125 27.78125 
Q 41.015625 30.8125 33.5 32.328125 
L 27.484375 33.5 
Q 16.453125 35.6875 11.515625 40.375 
Q 6.59375 45.0625 6.59375 53.421875 
Q 6.59375 63.09375 13.40625 68.65625 
Q 20.21875 74.21875 32.171875 74.21875 
Q 37.3125 74.21875 42.625 73.28125 
Q 47.953125 72.359375 53.515625 70.515625 
z
" id="DejaVuSans-83"/>
       <path d="M 18.109375 8.203125 
L 18.109375 -20.796875 
L 9.078125 -20.796875 
L 9.078125 54.6875 
L 18.109375 54.6875 
L 18.109375 46.390625 
Q 20.953125 51.265625 25.265625 53.625 
Q 29.59375 56 35.59375 56 
Q 45.5625 56 51.78125 48.09375 
Q 58.015625 40.1875 58.015625 27.296875 
Q 58.015625 14.40625 51.78125 6.484375 
Q 45.5625 -1.421875 35.59375 -1.421875 
Q 29.59375 -1.421875 25.265625 0.953125 
Q 20.953125 3.328125 18.109375 8.203125 
z
M 48.6875 27.296875 
Q 48.6875 37.203125 44.609375 42.84375 
Q 40.53125 48.484375 33.40625 48.484375 
Q 26.265625 48.484375 22.1875 42.84375 
Q 18.109375 37.203125 18.109375 27.296875 
Q 18.109375 17.390625 22.1875 11.75 
Q 26.265625 6.109375 33.40625 6.109375 
Q 40.53125 6.109375 44.609375 11.75 
Q 48.6875 17.390625 48.6875 27.296875 
z
" id="DejaVuSans-112"/>
       <path d="M 9.421875 54.6875 
L 18.40625 54.6875 
L 18.40625 0 
L 9.421875 0 
z
M 9.421875 75.984375 
L 18.40625 75.984375 
L 18.40625 64.59375 
L 9.421875 64.59375 
z
" id="DejaVuSans-105"/>
       <path d="M 54.890625 33.015625 
L 54.890625 0 
L 45.90625 0 
L 45.90625 32.71875 
Q 45.90625 40.484375 42.875 44.328125 
Q 39.84375 48.1875 33.796875 48.1875 
Q 26.515625 48.1875 22.3125 43.546875 
Q 18.109375 38.921875 18.109375 30.90625 
L 18.109375 0 
L 9.078125 0 
L 9.078125 54.6875 
L 18.109375 54.6875 
L 18.109375 46.1875 
Q 21.34375 51.125 25.703125 53.5625 
Q 30.078125 56 35.796875 56 
Q 45.21875 56 50.046875 50.171875 
Q 54.890625 44.34375 54.890625 33.015625 
z
" id="DejaVuSans-110"/>
       <path d="M 54.890625 33.015625 
L 54.890625 0 
L 45.90625 0 
L 45.90625 32.71875 
Q 45.90625 40.484375 42.875 44.328125 
Q 39.84375 48.1875 33.796875 48.1875 
Q 26.515625 48.1875 22.3125 43.546875 
Q 18.109375 38.921875 18.109375 30.90625 
L 18.109375 0 
L 9.078125 0 
L 9.078125 75.984375 
L 18.109375 75.984375 
L 18.109375 46.1875 
Q 21.34375 51.125 25.703125 53.5625 
Q 30.078125 56 35.796875 56 
Q 45.21875 56 50.046875 50.171875 
Q 54.890625 44.34375 54.890625 33.015625 
z
" id="DejaVuSans-104"/>
       <path d="M 30.609375 48.390625 
Q 23.390625 48.390625 19.1875 42.75 
Q 14.984375 37.109375 14.984375 27.296875 
Q 14.984375 17.484375 19.15625 11.84375 
Q 23.34375 6.203125 30.609375 6.203125 
Q 37.796875 6.203125 41.984375 11.859375 
Q 46.1875 17.53125 46.1875 27.296875 
Q 46.1875 37.015625 41.984375 42.703125 
Q 37.796875 48.390625 30.609375 48.390625 
z
M 30.609375 56 
Q 42.328125 56 49.015625 48.375 
Q 55.71875 40.765625 55.71875 27.296875 
Q 55.71875 13.875 49.015625 6.21875 
Q 42.328125 -1.421875 30.609375 -1.421875 
Q 18.84375 -1.421875 12.171875 6.21875 
Q 5.515625 13.875 5.515625 27.296875 
Q 5.515625 40.765625 12.171875 48.375 
Q 18.84375 56 30.609375 56 
z
" id="DejaVuSans-111"/>
       <path d="M 8.5 21.578125 
L 8.5 54.6875 
L 17.484375 54.6875 
L 17.484375 21.921875 
Q 17.484375 14.15625 20.5 10.265625 
Q 23.53125 6.390625 29.59375 6.390625 
Q 36.859375 6.390625 41.078125 11.03125 
Q 45.3125 15.671875 45.3125 23.6875 
L 45.3125 54.6875 
L 54.296875 54.6875 
L 54.296875 0 
L 45.3125 0 
L 45.3125 8.40625 
Q 42.046875 3.421875 37.71875 1 
Q 33.40625 -1.421875 27.6875 -1.421875 
Q 18.265625 -1.421875 13.375 4.4375 
Q 8.5 10.296875 8.5 21.578125 
z
M 31.109375 56 
z
" id="DejaVuSans-117"/>
       <path d="M 9.421875 75.984375 
L 18.40625 75.984375 
L 18.40625 0 
L 9.421875 0 
z
" id="DejaVuSans-108"/>
       <path d="M 41.109375 46.296875 
Q 39.59375 47.171875 37.8125 47.578125 
Q 36.03125 48 33.890625 48 
Q 26.265625 48 22.1875 43.046875 
Q 18.109375 38.09375 18.109375 28.8125 
L 18.109375 0 
L 9.078125 0 
L 9.078125 54.6875 
L 18.109375 54.6875 
L 18.109375 46.1875 
Q 20.953125 51.171875 25.484375 53.578125 
Q 30.03125 56 36.53125 56 
Q 37.453125 56 38.578125 55.875 
Q 39.703125 55.765625 41.0625 55.515625 
z
" id="DejaVuSans-114"/>
      </defs>
      <use xlink:href="#DejaVuSans-83"/>
      <use x="63.476562" xlink:href="#DejaVuSans-112"/>
      <use x="126.953125" xlink:href="#DejaVuSans-105"/>
      <use x="154.736328" xlink:href="#DejaVuSans-110"/>
      <use x="218.115234" xlink:href="#DejaVuSans-101"/>
      <use x="279.638672" xlink:href="#DejaVuSans-83"/>
      <use x="343.115234" xlink:href="#DejaVuSans-104"/>
      <use x="406.494141" xlink:href="#DejaVuSans-111"/>
      <use x="467.675781" xlink:href="#DejaVuSans-117"/>
      <use x="531.054688" xlink:href="#DejaVuSans-108"/>
      <use x="558.837891" xlink:href="#DejaVuSans-100"/>
      <use x="622.314453" xlink:href="#DejaVuSans-101"/>
      <use x="683.837891" xlink:href="#DejaVuSans-114"/>
     </g>
    </g>
   </g>
   <g id="text_4">
    <g clip-path="url(#pc1b83bf332)">
     <!-- Spine -->
     <g transform="translate(242.248939 266.252083)scale(0.1 -0.1)">
      <use xlink:href="#DejaVuSans-83"/>
      <use x="63.476562" xlink:href="#DejaVuSans-112"/>
      <use x="126.953125" xlink:href="#DejaVuSans-105"/>
      <use x="154.736328" xlink:href="#DejaVuSans-110"/>
      <use x="218.115234" xlink:href="#DejaVuSans-101"/>
     </g>
    </g>
   </g>
   <g id="text_5">
    <g clip-path="url(#pc1b83bf332)">
     <!-- Sacr -->
     <g transform="translate(235.103445 407.16773)scale(0.1 -0.1)">
      <use xlink:href="#DejaVuSans-83"/>
      <use x="63.476562" xlink:href="#DejaVuSans-97"/>
      <use x="124.755859" xlink:href="#DejaVuSans-99"/>
      <use x="179.736328" xlink:href="#DejaVuSans-114"/>
     </g>
    </g>
   </g>
   <g id="text_6">
    <g clip-path="url(#pc1b83bf332)">
     <!-- LShoulder -->
     <g transform="translate(123.339178 169.183981)scale(0.1 -0.1)">
      <defs>
       <path d="M 9.8125 72.90625 
L 19.671875 72.90625 
L 19.671875 8.296875 
L 55.171875 8.296875 
L 55.171875 0 
L 9.8125 0 
z
" id="DejaVuSans-76"/>
      </defs>
      <use xlink:href="#DejaVuSans-76"/>
      <use x="55.712891" xlink:href="#DejaVuSans-83"/>
      <use x="119.189453" xlink:href="#DejaVuSans-104"/>
      <use x="182.568359" xlink:href="#DejaVuSans-111"/>
      <use x="243.75" xlink:href="#DejaVuSans-117"/>
      <use x="307.128906" xlink:href="#DejaVuSans-108"/>
      <use x="334.912109" xlink:href="#DejaVuSans-100"/>
      <use x="398.388672" xlink:href="#DejaVuSans-101"/>
      <use x="459.912109" xlink:href="#DejaVuSans-114"/>
     </g>
    </g>
   </g>
   <g id="text_7">
    <g clip-path="url(#pc1b83bf332)">
     <!-- LElbow -->
     <g transform="translate(53.481677 287.431023)scale(0.1 -0.1)">
      <defs>
       <path d="M 9.8125 72.90625 
L 55.90625 72.90625 
L 55.90625 64.59375 
L 19.671875 64.59375 
L 19.671875 43.015625 
L 54.390625 43.015625 
L 54.390625 34.71875 
L 19.671875 34.71875 
L 19.671875 8.296875 
L 56.78125 8.296875 
L 56.78125 0 
L 9.8125 0 
z
" id="DejaVuSans-69"/>
       <path d="M 48.6875 27.296875 
Q 48.6875 37.203125 44.609375 42.84375 
Q 40.53125 48.484375 33.40625 48.484375 
Q 26.265625 48.484375 22.1875 42.84375 
Q 18.109375 37.203125 18.109375 27.296875 
Q 18.109375 17.390625 22.1875 11.75 
Q 26.265625 6.109375 33.40625 6.109375 
Q 40.53125 6.109375 44.609375 11.75 
Q 48.6875 17.390625 48.6875 27.296875 
z
M 18.109375 46.390625 
Q 20.953125 51.265625 25.265625 53.625 
Q 29.59375 56 35.59375 56 
Q 45.5625 56 51.78125 48.09375 
Q 58.015625 40.1875 58.015625 27.296875 
Q 58.015625 14.40625 51.78125 6.484375 
Q 45.5625 -1.421875 35.59375 -1.421875 
Q 29.59375 -1.421875 25.265625 0.953125 
Q 20.953125 3.328125 18.109375 8.203125 
L 18.109375 0 
L 9.078125 0 
L 9.078125 75.984375 
L 18.109375 75.984375 
z
" id="DejaVuSans-98"/>
       <path d="M 4.203125 54.6875 
L 13.1875 54.6875 
L 24.421875 12.015625 
L 35.59375 54.6875 
L 46.1875 54.6875 
L 57.421875 12.015625 
L 68.609375 54.6875 
L 77.59375 54.6875 
L 63.28125 0 
L 52.6875 0 
L 40.921875 44.828125 
L 29.109375 0 
L 18.5 0 
z
" id="DejaVuSans-119"/>
      </defs>
      <use xlink:href="#DejaVuSans-76"/>
      <use x="55.712891" xlink:href="#DejaVuSans-69"/>
      <use x="118.896484" xlink:href="#DejaVuSans-108"/>
      <use x="146.679688" xlink:href="#DejaVuSans-98"/>
      <use x="210.15625" xlink:href="#DejaVuSans-111"/>
      <use x="271.337891" xlink:href="#DejaVuSans-119"/>
     </g>
    </g>
   </g>
   <g id="text_8">
    <g clip-path="url(#pc1b83bf332)">
     <!-- LWrist -->
     <g transform="translate(34.925659 394.776119)scale(0.1 -0.1)">
      <defs>
       <path d="M 3.328125 72.90625 
L 13.28125 72.90625 
L 28.609375 11.28125 
L 43.890625 72.90625 
L 54.984375 72.90625 
L 70.3125 11.28125 
L 85.59375 72.90625 
L 95.609375 72.90625 
L 77.296875 0 
L 64.890625 0 
L 49.515625 63.28125 
L 33.984375 0 
L 21.578125 0 
z
" id="DejaVuSans-87"/>
       <path d="M 44.28125 53.078125 
L 44.28125 44.578125 
Q 40.484375 46.53125 36.375 47.5 
Q 32.28125 48.484375 27.875 48.484375 
Q 21.1875 48.484375 17.84375 46.4375 
Q 14.5 44.390625 14.5 40.28125 
Q 14.5 37.15625 16.890625 35.375 
Q 19.28125 33.59375 26.515625 31.984375 
L 29.59375 31.296875 
Q 39.15625 29.25 43.1875 25.515625 
Q 47.21875 21.78125 47.21875 15.09375 
Q 47.21875 7.46875 41.1875 3.015625 
Q 35.15625 -1.421875 24.609375 -1.421875 
Q 20.21875 -1.421875 15.453125 -0.5625 
Q 10.6875 0.296875 5.421875 2 
L 5.421875 11.28125 
Q 10.40625 8.6875 15.234375 7.390625 
Q 20.0625 6.109375 24.8125 6.109375 
Q 31.15625 6.109375 34.5625 8.28125 
Q 37.984375 10.453125 37.984375 14.40625 
Q 37.984375 18.0625 35.515625 20.015625 
Q 33.0625 21.96875 24.703125 23.78125 
L 21.578125 24.515625 
Q 13.234375 26.265625 9.515625 29.90625 
Q 5.8125 33.546875 5.8125 39.890625 
Q 5.8125 47.609375 11.28125 51.796875 
Q 16.75 56 26.8125 56 
Q 31.78125 56 36.171875 55.265625 
Q 40.578125 54.546875 44.28125 53.078125 
z
" id="DejaVuSans-115"/>
       <path d="M 18.3125 70.21875 
L 18.3125 54.6875 
L 36.8125 54.6875 
L 36.8125 47.703125 
L 18.3125 47.703125 
L 18.3125 18.015625 
Q 18.3125 11.328125 20.140625 9.421875 
Q 21.96875 7.515625 27.59375 7.515625 
L 36.8125 7.515625 
L 36.8125 0 
L 27.59375 0 
Q 17.1875 0 13.234375 3.875 
Q 9.28125 7.765625 9.28125 18.015625 
L 9.28125 47.703125 
L 2.6875 47.703125 
L 2.6875 54.6875 
L 9.28125 54.6875 
L 9.28125 70.21875 
z
" id="DejaVuSans-116"/>
      </defs>
      <use xlink:href="#DejaVuSans-76"/>
      <use x="46.587891" xlink:href="#DejaVuSans-87"/>
      <use x="140.964844" xlink:href="#DejaVuSans-114"/>
      <use x="182.078125" xlink:href="#DejaVuSans-105"/>
      <use x="209.861328" xlink:href="#DejaVuSans-115"/>
      <use x="261.960938" xlink:href="#DejaVuSans-116"/>
     </g>
    </g>
   </g>
   <g id="text_9">
    <g clip-path="url(#pc1b83bf332)">
     <!-- LHand -->
     <g transform="translate(43.200297 430.586669)scale(0.1 -0.1)">
      <use xlink:href="#DejaVuSans-76"/>
      <use x="55.712891" xlink:href="#DejaVuSans-72"/>
      <use x="130.908203" xlink:href="#DejaVuSans-97"/>
      <use x="192.1875" xlink:href="#DejaVuSans-110"/>
      <use x="255.566406" xlink:href="#DejaVuSans-100"/>
     </g>
    </g>
   </g>
   <g id="text_10">
    <g clip-path="url(#pc1b83bf332)">
     <!-- RShoulder -->
     <g transform="translate(366.426798 173.453022)scale(0.1 -0.1)">
      <defs>
       <path d="M 44.390625 34.1875 
Q 47.5625 33.109375 50.5625 29.59375 
Q 53.5625 26.078125 56.59375 19.921875 
L 66.609375 0 
L 56 0 
L 46.6875 18.703125 
Q 43.0625 26.03125 39.671875 28.421875 
Q 36.28125 30.8125 30.421875 30.8125 
L 19.671875 30.8125 
L 19.671875 0 
L 9.8125 0 
L 9.8125 72.90625 
L 32.078125 72.90625 
Q 44.578125 72.90625 50.734375 67.671875 
Q 56.890625 62.453125 56.890625 51.90625 
Q 56.890625 45.015625 53.6875 40.46875 
Q 50.484375 35.9375 44.390625 34.1875 
z
M 19.671875 64.796875 
L 19.671875 38.921875 
L 32.078125 38.921875 
Q 39.203125 38.921875 42.84375 42.21875 
Q 46.484375 45.515625 46.484375 51.90625 
Q 46.484375 58.296875 42.84375 61.546875 
Q 39.203125 64.796875 32.078125 64.796875 
z
" id="DejaVuSans-82"/>
      </defs>
      <use xlink:href="#DejaVuSans-82"/>
      <use x="69.482422" xlink:href="#DejaVuSans-83"/>
      <use x="132.958984" xlink:href="#DejaVuSans-104"/>
      <use x="196.337891" xlink:href="#DejaVuSans-111"/>
      <use x="257.519531" xlink:href="#DejaVuSans-117"/>
      <use x="320.898438" xlink:href="#DejaVuSans-108"/>
      <use x="348.681641" xlink:href="#DejaVuSans-100"/>
      <use x="412.158203" xlink:href="#DejaVuSans-101"/>
      <use x="473.681641" xlink:href="#DejaVuSans-114"/>
     </g>
    </g>
   </g>
   <g id="text_11">
    <g clip-path="url(#pc1b83bf332)">
     <!-- RElbow -->
     <g transform="translate(419.237498 280.946776)scale(0.1 -0.1)">
      <use xlink:href="#DejaVuSans-82"/>
      <use x="69.482422" xlink:href="#DejaVuSans-69"/>
      <use x="132.666016" xlink:href="#DejaVuSans-108"/>
      <use x="160.449219" xlink:href="#DejaVuSans-98"/>
      <use x="223.925781" xlink:href="#DejaVuSans-111"/>
      <use x="285.107422" xlink:href="#DejaVuSans-119"/>
     </g>
    </g>
   </g>
   <g id="text_12">
    <g clip-path="url(#pc1b83bf332)">
     <!-- RWrist -->
     <g transform="translate(472.224335 386.586212)scale(0.1 -0.1)">
      <use xlink:href="#DejaVuSans-82"/>
      <use x="65.482422" xlink:href="#DejaVuSans-87"/>
      <use x="159.859375" xlink:href="#DejaVuSans-114"/>
      <use x="200.972656" xlink:href="#DejaVuSans-105"/>
      <use x="228.755859" xlink:href="#DejaVuSans-115"/>
      <use x="280.855469" xlink:href="#DejaVuSans-116"/>
     </g>
    </g>
   </g>
   <g id="text_13">
    <g clip-path="url(#pc1b83bf332)">
     <!-- RHand -->
     <g transform="translate(472.389655 404.036954)scale(0.1 -0.1)">
      <use xlink:href="#DejaVuSans-82"/>
      <use x="69.482422" xlink:href="#DejaVuSans-72"/>
      <use x="144.677734" xlink:href="#DejaVuSans-97"/>
      <use x="205.957031" xlink:href="#DejaVuSans-110"/>
      <use x="269.335938" xlink:href="#DejaVuSans-100"/>
     </g>
    </g>
   </g>
   <g id="text_14">
    <g clip-path="url(#pc1b83bf332)">
     <!-- LHip -->
     <g transform="translate(168.510655 403.705651)scale(0.1 -0.1)">
      <use xlink:href="#DejaVuSans-76"/>
      <use x="55.712891" xlink:href="#DejaVuSans-72"/>
      <use x="130.908203" xlink:href="#DejaVuSans-105"/>
      <use x="158.691406" xlink:href="#DejaVuSans-112"/>
     </g>
    </g>
   </g>
   <g id="text_15">
    <g clip-path="url(#pc1b83bf332)">
     <!-- LKnee -->
     <g transform="translate(147.553654 567.319683)scale(0.1 -0.1)">
      <defs>
       <path d="M 9.8125 72.90625 
L 19.671875 72.90625 
L 19.671875 42.09375 
L 52.390625 72.90625 
L 65.09375 72.90625 
L 28.90625 38.921875 
L 67.671875 0 
L 54.6875 0 
L 19.671875 35.109375 
L 19.671875 0 
L 9.8125 0 
z
" id="DejaVuSans-75"/>
      </defs>
      <use xlink:href="#DejaVuSans-76"/>
      <use x="55.712891" xlink:href="#DejaVuSans-75"/>
      <use x="121.289062" xlink:href="#DejaVuSans-110"/>
      <use x="184.667969" xlink:href="#DejaVuSans-101"/>
      <use x="246.191406" xlink:href="#DejaVuSans-101"/>
     </g>
    </g>
   </g>
   <g id="text_16">
    <g clip-path="url(#pc1b83bf332)">
     <!-- LAnkle -->
     <g transform="translate(155.499178 756.238172)scale(0.1 -0.1)">
      <defs>
       <path d="M 34.1875 63.1875 
L 20.796875 26.90625 
L 47.609375 26.90625 
z
M 28.609375 72.90625 
L 39.796875 72.90625 
L 67.578125 0 
L 57.328125 0 
L 50.6875 18.703125 
L 17.828125 18.703125 
L 11.1875 0 
L 0.78125 0 
z
" id="DejaVuSans-65"/>
       <path d="M 9.078125 75.984375 
L 18.109375 75.984375 
L 18.109375 31.109375 
L 44.921875 54.6875 
L 56.390625 54.6875 
L 27.390625 29.109375 
L 57.625 0 
L 45.90625 0 
L 18.109375 26.703125 
L 18.109375 0 
L 9.078125 0 
z
" id="DejaVuSans-107"/>
      </defs>
      <use xlink:href="#DejaVuSans-76"/>
      <use x="57.962891" xlink:href="#DejaVuSans-65"/>
      <use x="126.371094" xlink:href="#DejaVuSans-110"/>
      <use x="189.75" xlink:href="#DejaVuSans-107"/>
      <use x="247.660156" xlink:href="#DejaVuSans-108"/>
      <use x="275.443359" xlink:href="#DejaVuSans-101"/>
     </g>
    </g>
   </g>
   <g id="text_17">
    <g clip-path="url(#pc1b83bf332)">
     <!-- LFoot -->
     <g transform="translate(164.924064 791.784168)scale(0.1 -0.1)">
      <defs>
       <path d="M 9.8125 72.90625 
L 51.703125 72.90625 
L 51.703125 64.59375 
L 19.671875 64.59375 
L 19.671875 43.109375 
L 48.578125 43.109375 
L 48.578125 34.8125 
L 19.671875 34.8125 
L 19.671875 0 
L 9.8125 0 
z
" id="DejaVuSans-70"/>
      </defs>
      <use xlink:href="#DejaVuSans-76"/>
      <use x="55.712891" xlink:href="#DejaVuSans-70"/>
      <use x="109.607422" xlink:href="#DejaVuSans-111"/>
      <use x="170.789062" xlink:href="#DejaVuSans-111"/>
      <use x="231.970703" xlink:href="#DejaVuSans-116"/>
     </g>
    </g>
   </g>
   <g id="text_18">
    <g clip-path="url(#pc1b83bf332)">
     <!-- RHip -->
     <g transform="translate(283.970257 407.053889)scale(0.1 -0.1)">
      <use xlink:href="#DejaVuSans-82"/>
      <use x="69.482422" xlink:href="#DejaVuSans-72"/>
      <use x="144.677734" xlink:href="#DejaVuSans-105"/>
      <use x="172.460938" xlink:href="#DejaVuSans-112"/>
     </g>
    </g>
   </g>
   <g id="text_19">
    <g clip-path="url(#pc1b83bf332)">
     <!-- RKnee -->
     <g transform="translate(287.244448 541.353355)scale(0.1 -0.1)">
      <use xlink:href="#DejaVuSans-82"/>
      <use x="69.482422" xlink:href="#DejaVuSans-75"/>
      <use x="135.058594" xlink:href="#DejaVuSans-110"/>
      <use x="198.4375" xlink:href="#DejaVuSans-101"/>
      <use x="259.960938" xlink:href="#DejaVuSans-101"/>
     </g>
    </g>
   </g>
   <g id="text_20">
    <g clip-path="url(#pc1b83bf332)">
     <!-- RAnkle -->
     <g transform="translate(118.538511 758.458268)scale(0.1 -0.1)">
      <use xlink:href="#DejaVuSans-82"/>
      <use x="65.482422" xlink:href="#DejaVuSans-65"/>
      <use x="133.890625" xlink:href="#DejaVuSans-110"/>
      <use x="197.269531" xlink:href="#DejaVuSans-107"/>
      <use x="255.179688" xlink:href="#DejaVuSans-108"/>
      <use x="282.962891" xlink:href="#DejaVuSans-101"/>
     </g>
    </g>
   </g>
   <g id="text_21">
    <g clip-path="url(#pc1b83bf332)">
     <!-- RFoot -->
     <g transform="translate(158.448257 789.656983)scale(0.1 -0.1)">
      <use xlink:href="#DejaVuSans-82"/>
      <use x="69.482422" xlink:href="#DejaVuSans-70"/>
      <use x="123.376953" xlink:href="#DejaVuSans-111"/>
      <use x="184.558594" xlink:href="#DejaVuSans-111"/>
      <use x="245.740234" xlink:href="#DejaVuSans-116"/>
     </g>
    </g>
   </g>
   <g id="text_22">
    <g clip-path="url(#pc1b83bf332)">
     <!-- LHandTip -->
     <g transform="translate(26.585496 469.757683)scale(0.1 -0.1)">
      <defs>
       <path d="M -0.296875 72.90625 
L 61.375 72.90625 
L 61.375 64.59375 
L 35.5 64.59375 
L 35.5 0 
L 25.59375 0 
L 25.59375 64.59375 
L -0.296875 64.59375 
z
" id="DejaVuSans-84"/>
      </defs>
      <use xlink:href="#DejaVuSans-76"/>
      <use x="55.712891" xlink:href="#DejaVuSans-72"/>
      <use x="130.908203" xlink:href="#DejaVuSans-97"/>
      <use x="192.1875" xlink:href="#DejaVuSans-110"/>
      <use x="255.566406" xlink:href="#DejaVuSans-100"/>
      <use x="319.042969" xlink:href="#DejaVuSans-84"/>
      <use x="377.001953" xlink:href="#DejaVuSans-105"/>
      <use x="404.785156" xlink:href="#DejaVuSans-112"/>
     </g>
    </g>
   </g>
   <g id="text_23">
    <g clip-path="url(#pc1b83bf332)">
     <!-- LThumb -->
     <g transform="translate(69.244423 429.899124)scale(0.1 -0.1)">
      <defs>
       <path d="M 52 44.1875 
Q 55.375 50.25 60.0625 53.125 
Q 64.75 56 71.09375 56 
Q 79.640625 56 84.28125 50.015625 
Q 88.921875 44.046875 88.921875 33.015625 
L 88.921875 0 
L 79.890625 0 
L 79.890625 32.71875 
Q 79.890625 40.578125 77.09375 44.375 
Q 74.3125 48.1875 68.609375 48.1875 
Q 61.625 48.1875 57.5625 43.546875 
Q 53.515625 38.921875 53.515625 30.90625 
L 53.515625 0 
L 44.484375 0 
L 44.484375 32.71875 
Q 44.484375 40.625 41.703125 44.40625 
Q 38.921875 48.1875 33.109375 48.1875 
Q 26.21875 48.1875 22.15625 43.53125 
Q 18.109375 38.875 18.109375 30.90625 
L 18.109375 0 
L 9.078125 0 
L 9.078125 54.6875 
L 18.109375 54.6875 
L 18.109375 46.1875 
Q 21.1875 51.21875 25.484375 53.609375 
Q 29.78125 56 35.6875 56 
Q 41.65625 56 45.828125 52.96875 
Q 50 49.953125 52 44.1875 
z
" id="DejaVuSans-109"/>
      </defs>
      <use xlink:href="#DejaVuSans-76"/>
      <use x="41.962891" xlink:href="#DejaVuSans-84"/>
      <use x="103.046875" xlink:href="#DejaVuSans-104"/>
      <use x="166.425781" xlink:href="#DejaVuSans-117"/>
      <use x="229.804688" xlink:href="#DejaVuSans-109"/>
      <use x="327.216797" xlink:href="#DejaVuSans-98"/>
     </g>
    </g>
   </g>
   <g id="text_24">
    <g clip-path="url(#pc1b83bf332)">
     <!-- RHandTip -->
     <g transform="translate(476.914004 443.753211)scale(0.1 -0.1)">
      <use xlink:href="#DejaVuSans-82"/>
      <use x="69.482422" xlink:href="#DejaVuSans-72"/>
      <use x="144.677734" xlink:href="#DejaVuSans-97"/>
      <use x="205.957031" xlink:href="#DejaVuSans-110"/>
      <use x="269.335938" xlink:href="#DejaVuSans-100"/>
      <use x="332.8125" xlink:href="#DejaVuSans-84"/>
      <use x="390.771484" xlink:href="#DejaVuSans-105"/>
      <use x="418.554688" xlink:href="#DejaVuSans-112"/>
     </g>
    </g>
   </g>
   <g id="text_25">
    <g clip-path="url(#pc1b83bf332)">
     <!-- RThumb -->
     <g transform="translate(505.468873 405.642001)scale(0.1 -0.1)">
      <use xlink:href="#DejaVuSans-82"/>
      <use x="62.232422" xlink:href="#DejaVuSans-84"/>
      <use x="123.316406" xlink:href="#DejaVuSans-104"/>
      <use x="186.695312" xlink:href="#DejaVuSans-117"/>
      <use x="250.074219" xlink:href="#DejaVuSans-109"/>
      <use x="347.486328" xlink:href="#DejaVuSans-98"/>
     </g>
    </g>
   </g>
   <g id="text_26">
    <!-- Node Graph Visualization - Frame 41 -->
    <g transform="translate(178.011563 -6)scale(0.12 -0.12)">
     <defs>
      <path d="M 9.8125 72.90625 
L 23.09375 72.90625 
L 55.421875 11.921875 
L 55.421875 72.90625 
L 64.984375 72.90625 
L 64.984375 0 
L 51.703125 0 
L 19.390625 60.984375 
L 19.390625 0 
L 9.8125 0 
z
" id="DejaVuSans-78"/>
      <path id="DejaVuSans-32"/>
      <path d="M 59.515625 10.40625 
L 59.515625 29.984375 
L 43.40625 29.984375 
L 43.40625 38.09375 
L 69.28125 38.09375 
L 69.28125 6.78125 
Q 63.578125 2.734375 56.6875 0.65625 
Q 49.8125 -1.421875 42 -1.421875 
Q 24.90625 -1.421875 15.25 8.5625 
Q 5.609375 18.5625 5.609375 36.375 
Q 5.609375 54.25 15.25 64.234375 
Q 24.90625 74.21875 42 74.21875 
Q 49.125 74.21875 55.546875 72.453125 
Q 61.96875 70.703125 67.390625 67.28125 
L 67.390625 56.78125 
Q 61.921875 61.421875 55.765625 63.765625 
Q 49.609375 66.109375 42.828125 66.109375 
Q 29.4375 66.109375 22.71875 58.640625 
Q 16.015625 51.171875 16.015625 36.375 
Q 16.015625 21.625 22.71875 14.15625 
Q 29.4375 6.6875 42.828125 6.6875 
Q 48.046875 6.6875 52.140625 7.59375 
Q 56.25 8.5 59.515625 10.40625 
z
" id="DejaVuSans-71"/>
      <path d="M 28.609375 0 
L 0.78125 72.90625 
L 11.078125 72.90625 
L 34.1875 11.53125 
L 57.328125 72.90625 
L 67.578125 72.90625 
L 39.796875 0 
z
" id="DejaVuSans-86"/>
      <path d="M 5.515625 54.6875 
L 48.1875 54.6875 
L 48.1875 46.484375 
L 14.40625 7.171875 
L 48.1875 7.171875 
L 48.1875 0 
L 4.296875 0 
L 4.296875 8.203125 
L 38.09375 47.515625 
L 5.515625 47.515625 
z
" id="DejaVuSans-122"/>
      <path d="M 4.890625 31.390625 
L 31.203125 31.390625 
L 31.203125 23.390625 
L 4.890625 23.390625 
z
" id="DejaVuSans-45"/>
      <path d="M 37.796875 64.3125 
L 12.890625 25.390625 
L 37.796875 25.390625 
z
M 35.203125 72.90625 
L 47.609375 72.90625 
L 47.609375 25.390625 
L 58.015625 25.390625 
L 58.015625 17.1875 
L 47.609375 17.1875 
L 47.609375 0 
L 37.796875 0 
L 37.796875 17.1875 
L 4.890625 17.1875 
L 4.890625 26.703125 
z
" id="DejaVuSans-52"/>
      <path d="M 12.40625 8.296875 
L 28.515625 8.296875 
L 28.515625 63.921875 
L 10.984375 60.40625 
L 10.984375 69.390625 
L 28.421875 72.90625 
L 38.28125 72.90625 
L 38.28125 8.296875 
L 54.390625 8.296875 
L 54.390625 0 
L 12.40625 0 
z
" id="DejaVuSans-49"/>
     </defs>
     <use xlink:href="#DejaVuSans-78"/>
     <use x="74.804688" xlink:href="#DejaVuSans-111"/>
     <use x="135.986328" xlink:href="#DejaVuSans-100"/>
     <use x="199.462891" xlink:href="#DejaVuSans-101"/>
     <use x="260.986328" xlink:href="#DejaVuSans-32"/>
     <use x="292.773438" xlink:href="#DejaVuSans-71"/>
     <use x="370.263672" xlink:href="#DejaVuSans-114"/>
     <use x="411.376953" xlink:href="#DejaVuSans-97"/>
     <use x="472.65625" xlink:href="#DejaVuSans-112"/>
     <use x="536.132812" xlink:href="#DejaVuSans-104"/>
     <use x="599.511719" xlink:href="#DejaVuSans-32"/>
     <use x="631.298828" xlink:href="#DejaVuSans-86"/>
     <use x="697.457031" xlink:href="#DejaVuSans-105"/>
     <use x="725.240234" xlink:href="#DejaVuSans-115"/>
     <use x="777.339844" xlink:href="#DejaVuSans-117"/>
     <use x="840.71875" xlink:href="#DejaVuSans-97"/>
     <use x="901.998047" xlink:href="#DejaVuSans-108"/>
     <use x="929.78125" xlink:href="#DejaVuSans-105"/>
     <use x="957.564453" xlink:href="#DejaVuSans-122"/>
     <use x="1010.054688" xlink:href="#DejaVuSans-97"/>
     <use x="1071.333984" xlink:href="#DejaVuSans-116"/>
     <use x="1110.542969" xlink:href="#DejaVuSans-105"/>
     <use x="1138.326172" xlink:href="#DejaVuSans-111"/>
     <use x="1199.507812" xlink:href="#DejaVuSans-110"/>
     <use x="1262.886719" xlink:href="#DejaVuSans-32"/>
     <use x="1294.673828" xlink:href="#DejaVuSans-45"/>
     <use x="1330.757812" xlink:href="#DejaVuSans-32"/>
     <use x="1362.544922" xlink:href="#DejaVuSans-70"/>
     <use x="1412.814453" xlink:href="#DejaVuSans-114"/>
     <use x="1453.927734" xlink:href="#DejaVuSans-97"/>
     <use x="1515.207031" xlink:href="#DejaVuSans-109"/>
     <use x="1612.619141" xlink:href="#DejaVuSans-101"/>
     <use x="1674.142578" xlink:href="#DejaVuSans-32"/>
     <use x="1705.929688" xlink:href="#DejaVuSans-52"/>
     <use x="1769.552734" xlink:href="#DejaVuSans-49"/>
    </g>
   </g>
  </g>
 </g>
 <defs>
  <clipPath id="pc1b83bf332">
   <rect height="864" width="576" x="0" y="0"/>
  </clipPath>
 </defs>
</svg>
