<?xml version="1.0" encoding="utf-8" standalone="no"?>
<!DOCTYPE svg PUBLIC "-//W3C//DTD SVG 1.1//EN"
  "http://www.w3.org/Graphics/SVG/1.1/DTD/svg11.dtd">
<!-- Created with matplotlib (https://matplotlib.org/) -->
<svg height="864pt" version="1.1" viewBox="0 0 576 864" width="576pt" xmlns="http://www.w3.org/2000/svg" xmlns:xlink="http://www.w3.org/1999/xlink">
 <metadata>
  <rdf:RDF xmlns:cc="http://creativecommons.org/ns#" xmlns:dc="http://purl.org/dc/elements/1.1/" xmlns:rdf="http://www.w3.org/1999/02/22-rdf-syntax-ns#">
   <cc:Work>
    <dc:type rdf:resource="http://purl.org/dc/dcmitype/StillImage"/>
    <dc:date>2024-02-04T22:27:46.925732</dc:date>
    <dc:format>image/svg+xml</dc:format>
    <dc:creator>
     <cc:Agent>
      <dc:title>Matplotlib v3.3.2, https://matplotlib.org/</dc:title>
     </cc:Agent>
    </dc:creator>
   </cc:Work>
  </rdf:RDF>
 </metadata>
 <defs>
  <style type="text/css">*{stroke-linecap:butt;stroke-linejoin:round;}</style>
 </defs>
 <g id="figure_1">
  <g id="patch_1">
   <path d="M 0 864 
L 576 864 
L 576 0 
L 0 0 
z
" style="fill:#ffffff;"/>
  </g>
  <g id="axes_1">
   <g id="patch_2">
    <path clip-path="url(#paa9a4f0b93)" d="M 321.838044 87.901029 
Q 320.095925 95.874313 318.592461 102.755332 
" style="fill:none;stroke:#000000;stroke-linecap:round;"/>
    <path clip-path="url(#paa9a4f0b93)" d="M 321.400199 99.274441 
L 318.592461 102.755332 
L 317.492391 98.420606 
L 321.400199 99.274441 
z
" style="stroke:#000000;stroke-linecap:round;"/>
   </g>
   <g id="patch_3">
    <path clip-path="url(#paa9a4f0b93)" d="M 313.568926 129.854939 
Q 312.705765 135.613361 312.00834 140.2661 
" style="fill:none;stroke:#000000;stroke-linecap:round;"/>
    <path clip-path="url(#paa9a4f0b93)" d="M 314.579201 136.606773 
L 312.00834 140.2661 
L 310.623395 136.013816 
L 314.579201 136.606773 
z
" style="stroke:#000000;stroke-linecap:round;"/>
   </g>
   <g id="patch_4">
    <path clip-path="url(#paa9a4f0b93)" d="M 318.354448 103.844662 
Q 320.096566 95.871378 321.600031 88.99036 
" style="fill:none;stroke:#000000;stroke-linecap:round;"/>
    <path clip-path="url(#paa9a4f0b93)" d="M 318.792292 92.471251 
L 321.600031 88.99036 
L 322.700101 93.325085 
L 318.792292 92.471251 
z
" style="stroke:#000000;stroke-linecap:round;"/>
   </g>
   <g id="patch_5">
    <path clip-path="url(#paa9a4f0b93)" d="M 310.451547 154.529103 
Q 307.535105 182.114301 304.736211 208.587662 
" style="fill:none;stroke:#000000;stroke-linecap:round;"/>
    <path clip-path="url(#paa9a4f0b93)" d="M 307.145682 204.820109 
L 304.736211 208.587662 
L 303.167852 204.399554 
L 307.145682 204.820109 
z
" style="stroke:#000000;stroke-linecap:round;"/>
   </g>
   <g id="patch_6">
    <path clip-path="url(#paa9a4f0b93)" d="M 298.624838 140.853201 
Q 229.919868 138.157659 162.332073 135.505948 
" style="fill:none;stroke:#000000;stroke-linecap:round;"/>
    <path clip-path="url(#paa9a4f0b93)" d="M 166.250591 137.661224 
L 162.332073 135.505948 
L 166.407405 133.664299 
L 166.250591 137.661224 
z
" style="stroke:#000000;stroke-linecap:round;"/>
   </g>
   <g id="patch_7">
    <path clip-path="url(#paa9a4f0b93)" d="M 325.061842 141.924003 
Q 399.973819 145.053383 473.768735 148.136098 
" style="fill:none;stroke:#000000;stroke-linecap:round;"/>
    <path clip-path="url(#paa9a4f0b93)" d="M 469.855696 145.97089 
L 473.768735 148.136098 
L 469.688746 149.967404 
L 469.855696 145.97089 
z
" style="stroke:#000000;stroke-linecap:round;"/>
   </g>
   <g id="patch_8">
    <path clip-path="url(#paa9a4f0b93)" d="M 313.803904 128.287327 
Q 314.667066 122.528906 315.36449 117.876166 
" style="fill:none;stroke:#000000;stroke-linecap:round;"/>
    <path clip-path="url(#paa9a4f0b93)" d="M 312.79363 121.535494 
L 315.36449 117.876166 
L 316.749436 122.128451 
L 312.79363 121.535494 
z
" style="stroke:#000000;stroke-linecap:round;"/>
   </g>
   <g id="patch_9">
    <path clip-path="url(#paa9a4f0b93)" d="M 301.680081 235.996036 
Q 296.664214 278.58302 291.779124 320.059644 
" style="fill:none;stroke:#000000;stroke-linecap:round;"/>
    <path clip-path="url(#paa9a4f0b93)" d="M 294.233278 316.321045 
L 291.779124 320.059644 
L 290.260736 315.853161 
L 294.233278 316.321045 
z
" style="stroke:#000000;stroke-linecap:round;"/>
   </g>
   <g id="patch_10">
    <path clip-path="url(#paa9a4f0b93)" d="M 304.618627 209.699832 
Q 307.53507 182.114633 310.333963 155.641273 
" style="fill:none;stroke:#000000;stroke-linecap:round;"/>
    <path clip-path="url(#paa9a4f0b93)" d="M 307.924492 159.408825 
L 310.333963 155.641273 
L 311.902322 159.829381 
L 307.924492 159.408825 
z
" style="stroke:#000000;stroke-linecap:round;"/>
   </g>
   <g id="patch_11">
    <path clip-path="url(#paa9a4f0b93)" d="M 276.868189 334.309692 
Q 251.562485 334.312778 227.374814 334.315728 
" style="fill:none;stroke:#000000;stroke-linecap:round;"/>
    <path clip-path="url(#paa9a4f0b93)" d="M 231.375058 336.31524 
L 227.374814 334.315728 
L 231.374571 332.31524 
L 231.375058 336.31524 
z
" style="stroke:#000000;stroke-linecap:round;"/>
   </g>
   <g id="patch_12">
    <path clip-path="url(#paa9a4f0b93)" d="M 303.28776 335.332085 
Q 329.085657 337.335392 353.768876 339.25214 
" style="fill:none;stroke:#000000;stroke-linecap:round;"/>
    <path clip-path="url(#paa9a4f0b93)" d="M 349.935724 336.94846 
L 353.768876 339.25214 
L 349.626041 340.936454 
L 349.935724 336.94846 
z
" style="stroke:#000000;stroke-linecap:round;"/>
   </g>
   <g id="patch_13">
    <path clip-path="url(#paa9a4f0b93)" d="M 291.648441 321.169195 
Q 296.664309 278.582211 301.549399 237.105586 
" style="fill:none;stroke:#000000;stroke-linecap:round;"/>
    <path clip-path="url(#paa9a4f0b93)" d="M 299.095245 240.844186 
L 301.549399 237.105586 
L 303.067786 241.312069 
L 299.095245 240.844186 
z
" style="stroke:#000000;stroke-linecap:round;"/>
   </g>
   <g id="patch_14">
    <path clip-path="url(#paa9a4f0b93)" d="M 138.2749 143.916875 
Q 98.991303 180.166027 60.529374 215.656982 
" style="fill:none;stroke:#000000;stroke-linecap:round;"/>
    <path clip-path="url(#paa9a4f0b93)" d="M 64.825364 214.414214 
L 60.529374 215.656982 
L 62.112754 211.474529 
L 64.825364 214.414214 
z
" style="stroke:#000000;stroke-linecap:round;"/>
   </g>
   <g id="patch_15">
    <path clip-path="url(#paa9a4f0b93)" d="M 161.217076 135.462202 
Q 229.922046 138.157745 297.509841 140.809456 
" style="fill:none;stroke:#000000;stroke-linecap:round;"/>
    <path clip-path="url(#paa9a4f0b93)" d="M 293.591323 138.65418 
L 297.509841 140.809456 
L 293.434509 142.651105 
L 293.591323 138.65418 
z
" style="stroke:#000000;stroke-linecap:round;"/>
   </g>
   <g id="patch_16">
    <path clip-path="url(#paa9a4f0b93)" d="M 62.866268 228.398249 
Q 161.397188 251.419325 258.839395 274.186031 
" style="fill:none;stroke:#000000;stroke-linecap:round;"/>
    <path clip-path="url(#paa9a4f0b93)" d="M 255.399328 271.32842 
L 258.839395 274.186031 
L 254.489266 275.223517 
L 255.399328 271.32842 
z
" style="stroke:#000000;stroke-linecap:round;"/>
   </g>
   <g id="patch_17">
    <path clip-path="url(#paa9a4f0b93)" d="M 59.707882 216.415018 
Q 98.991478 180.165866 137.453408 144.674911 
" style="fill:none;stroke:#000000;stroke-linecap:round;"/>
    <path clip-path="url(#paa9a4f0b93)" d="M 133.157418 145.917679 
L 137.453408 144.674911 
L 135.870028 148.857364 
L 133.157418 145.917679 
z
" style="stroke:#000000;stroke-linecap:round;"/>
   </g>
   <g id="patch_18">
    <path clip-path="url(#paa9a4f0b93)" d="M 285.908571 279.273364 
Q 301.912206 281.501 316.808483 283.574496 
" style="fill:none;stroke:#000000;stroke-linecap:round;"/>
    <path clip-path="url(#paa9a4f0b93)" d="M 313.122412 281.042129 
L 316.808483 283.574496 
L 312.570946 285.003932 
L 313.122412 281.042129 
z
" style="stroke:#000000;stroke-linecap:round;"/>
   </g>
   <g id="patch_19">
    <path clip-path="url(#paa9a4f0b93)" d="M 259.926488 274.440023 
Q 161.395568 251.418947 63.953362 228.652241 
" style="fill:none;stroke:#000000;stroke-linecap:round;"/>
    <path clip-path="url(#paa9a4f0b93)" d="M 67.393428 231.509852 
L 63.953362 228.652241 
L 68.303491 227.614755 
L 67.393428 231.509852 
z
" style="stroke:#000000;stroke-linecap:round;"/>
   </g>
   <g id="patch_20">
    <path clip-path="url(#paa9a4f0b93)" d="M 344.068236 287.73666 
Q 354.623691 289.503382 364.076452 291.08554 
" style="fill:none;stroke:#000000;stroke-linecap:round;"/>
    <path clip-path="url(#paa9a4f0b93)" d="M 360.461488 288.452664 
L 364.076452 291.08554 
L 359.801173 292.397785 
L 360.461488 288.452664 
z
" style="stroke:#000000;stroke-linecap:round;"/>
   </g>
   <g id="patch_21">
    <path clip-path="url(#paa9a4f0b93)" d="M 320.336868 293.349357 
Q 317.754388 295.234323 316.074969 296.460139 
" style="fill:none;stroke:#000000;stroke-linecap:round;"/>
    <path clip-path="url(#paa9a4f0b93)" d="M 320.484986 295.71734 
L 316.074969 296.460139 
L 318.12674 292.486446 
L 320.484986 295.71734 
z
" style="stroke:#000000;stroke-linecap:round;"/>
   </g>
   <g id="patch_22">
    <path clip-path="url(#paa9a4f0b93)" d="M 317.919573 283.729155 
Q 301.915939 281.501519 287.019662 279.428023 
" style="fill:none;stroke:#000000;stroke-linecap:round;"/>
    <path clip-path="url(#paa9a4f0b93)" d="M 290.705732 281.96039 
L 287.019662 279.428023 
L 291.257198 277.998587 
L 290.705732 281.96039 
z
" style="stroke:#000000;stroke-linecap:round;"/>
   </g>
   <g id="patch_23">
    <path clip-path="url(#paa9a4f0b93)" d="M 492.665744 161.153132 
Q 507.061806 200.362126 521.072522 238.521592 
" style="fill:none;stroke:#000000;stroke-linecap:round;"/>
    <path clip-path="url(#paa9a4f0b93)" d="M 521.571315 234.077359 
L 521.072522 238.521592 
L 517.816412 235.456018 
L 521.571315 234.077359 
z
" style="stroke:#000000;stroke-linecap:round;"/>
   </g>
   <g id="patch_24">
    <path clip-path="url(#paa9a4f0b93)" d="M 474.887049 148.182814 
Q 399.975072 145.053435 326.180156 141.97072 
" style="fill:none;stroke:#000000;stroke-linecap:round;"/>
    <path clip-path="url(#paa9a4f0b93)" d="M 330.093195 144.135928 
L 326.180156 141.97072 
L 330.260146 140.139413 
L 330.093195 144.135928 
z
" style="stroke:#000000;stroke-linecap:round;"/>
   </g>
   <g id="patch_25">
    <path clip-path="url(#paa9a4f0b93)" d="M 513.087468 254.786409 
Q 439.07704 270.81093 366.159326 286.598859 
" style="fill:none;stroke:#000000;stroke-linecap:round;"/>
    <path clip-path="url(#paa9a4f0b93)" d="M 370.491967 287.707112 
L 366.159326 286.598859 
L 369.645512 283.797698 
L 370.491967 287.707112 
z
" style="stroke:#000000;stroke-linecap:round;"/>
   </g>
   <g id="patch_26">
    <path clip-path="url(#paa9a4f0b93)" d="M 521.457073 239.56895 
Q 507.06101 200.359957 493.050294 162.20049 
" style="fill:none;stroke:#000000;stroke-linecap:round;"/>
    <path clip-path="url(#paa9a4f0b93)" d="M 492.551501 166.644723 
L 493.050294 162.20049 
L 496.306405 165.266064 
L 492.551501 166.644723 
z
" style="stroke:#000000;stroke-linecap:round;"/>
   </g>
   <g id="patch_27">
    <path clip-path="url(#paa9a4f0b93)" d="M 338.922593 288.963459 
Q 338.031021 288.91814 338.256042 288.929578 
" style="fill:none;stroke:#000000;stroke-linecap:round;"/>
    <path clip-path="url(#paa9a4f0b93)" d="M 342.149355 291.130058 
L 338.256042 288.929578 
L 342.352414 287.135216 
L 342.149355 291.130058 
z
" style="stroke:#000000;stroke-linecap:round;"/>
   </g>
   <g id="patch_28">
    <path clip-path="url(#paa9a4f0b93)" d="M 365.065245 286.835747 
Q 439.075673 270.811226 511.993387 255.023296 
" style="fill:none;stroke:#000000;stroke-linecap:round;"/>
    <path clip-path="url(#paa9a4f0b93)" d="M 507.660746 253.915044 
L 511.993387 255.023296 
L 508.507201 257.824458 
L 507.660746 253.915044 
z
" style="stroke:#000000;stroke-linecap:round;"/>
   </g>
   <g id="patch_29">
    <path clip-path="url(#paa9a4f0b93)" d="M 311.393921 292.440349 
Q 307.169465 293.869449 304.004084 294.940272 
" style="fill:none;stroke:#000000;stroke-linecap:round;"/>
    <path clip-path="url(#paa9a4f0b93)" d="M 308.434047 295.552993 
L 304.004084 294.940272 
L 307.152239 291.763934 
L 308.434047 295.552993 
z
" style="stroke:#000000;stroke-linecap:round;"/>
   </g>
   <g id="patch_30">
    <path clip-path="url(#paa9a4f0b93)" d="M 311.320428 284.188703 
Q 303.800352 281.794854 297.345634 279.740138 
" style="fill:none;stroke:#000000;stroke-linecap:round;"/>
    <path clip-path="url(#paa9a4f0b93)" d="M 300.550516 282.859229 
L 297.345634 279.740138 
L 301.763836 279.047686 
L 300.550516 282.859229 
z
" style="stroke:#000000;stroke-linecap:round;"/>
   </g>
   <g id="patch_31">
    <path clip-path="url(#paa9a4f0b93)" d="M 337.138741 288.872785 
Q 338.030313 288.918104 337.805292 288.906666 
" style="fill:none;stroke:#000000;stroke-linecap:round;"/>
    <path clip-path="url(#paa9a4f0b93)" d="M 333.911979 286.706186 
L 337.805292 288.906666 
L 333.70892 290.701029 
L 333.911979 286.706186 
z
" style="stroke:#000000;stroke-linecap:round;"/>
   </g>
   <g id="patch_32">
    <path clip-path="url(#paa9a4f0b93)" d="M 210.274828 347.258138 
Q 195.681096 415.847106 181.320041 483.342519 
" style="fill:none;stroke:#000000;stroke-linecap:round;"/>
    <path clip-path="url(#paa9a4f0b93)" d="M 184.1087 479.846324 
L 181.320041 483.342519 
L 180.19628 479.013875 
L 184.1087 479.846324 
z
" style="stroke:#000000;stroke-linecap:round;"/>
   </g>
   <g id="patch_33">
    <path clip-path="url(#paa9a4f0b93)" d="M 226.260986 334.315864 
Q 251.56669 334.312778 275.754361 334.309828 
" style="fill:none;stroke:#000000;stroke-linecap:round;"/>
    <path clip-path="url(#paa9a4f0b93)" d="M 271.754117 332.310316 
L 275.754361 334.309828 
L 271.754605 336.310316 
L 271.754117 332.310316 
z
" style="stroke:#000000;stroke-linecap:round;"/>
   </g>
   <g id="patch_34">
    <path clip-path="url(#paa9a4f0b93)" d="M 179.086525 510.585162 
Q 182.684735 573.70455 186.219313 635.707717 
" style="fill:none;stroke:#000000;stroke-linecap:round;"/>
    <path clip-path="url(#paa9a4f0b93)" d="M 187.988415 631.600372 
L 186.219313 635.707717 
L 183.994899 631.828028 
L 187.988415 631.600372 
z
" style="stroke:#000000;stroke-linecap:round;"/>
   </g>
   <g id="patch_35">
    <path clip-path="url(#paa9a4f0b93)" d="M 181.087041 484.437593 
Q 195.680773 415.848625 210.041828 348.353212 
" style="fill:none;stroke:#000000;stroke-linecap:round;"/>
    <path clip-path="url(#paa9a4f0b93)" d="M 207.25317 351.849407 
L 210.041828 348.353212 
L 211.165589 352.681856 
L 207.25317 351.849407 
z
" style="stroke:#000000;stroke-linecap:round;"/>
   </g>
   <g id="patch_36">
    <path clip-path="url(#paa9a4f0b93)" d="M 180.161044 661.33314 
Q 174.616978 670.449614 169.65384 678.610828 
" style="fill:none;stroke:#000000;stroke-linecap:round;"/>
    <path clip-path="url(#paa9a4f0b93)" d="M 173.441056 676.232384 
L 169.65384 678.610828 
L 170.023414 674.153989 
L 173.441056 676.232384 
z
" style="stroke:#000000;stroke-linecap:round;"/>
   </g>
   <g id="patch_37">
    <path clip-path="url(#paa9a4f0b93)" d="M 186.282822 636.82178 
Q 182.684612 573.702392 179.150034 511.699225 
" style="fill:none;stroke:#000000;stroke-linecap:round;"/>
    <path clip-path="url(#paa9a4f0b93)" d="M 177.380931 515.80657 
L 179.150034 511.699225 
L 181.374448 515.578913 
L 177.380931 515.80657 
z
" style="stroke:#000000;stroke-linecap:round;"/>
   </g>
   <g id="patch_38">
    <path clip-path="url(#paa9a4f0b93)" d="M 169.073671 679.564839 
Q 174.617737 670.448365 179.580874 662.287151 
" style="fill:none;stroke:#000000;stroke-linecap:round;"/>
    <path clip-path="url(#paa9a4f0b93)" d="M 175.793659 664.665595 
L 179.580874 662.287151 
L 179.211301 666.74399 
L 175.793659 664.665595 
z
" style="stroke:#000000;stroke-linecap:round;"/>
   </g>
   <g id="patch_39">
    <path clip-path="url(#paa9a4f0b93)" d="M 368.590303 353.581574 
Q 372.448305 451.627913 376.262347 548.557082 
" style="fill:none;stroke:#000000;stroke-linecap:round;"/>
    <path clip-path="url(#paa9a4f0b93)" d="M 378.103527 544.481538 
L 376.262347 548.557082 
L 374.10662 544.638812 
L 378.103527 544.481538 
z
" style="stroke:#000000;stroke-linecap:round;"/>
   </g>
   <g id="patch_40">
    <path clip-path="url(#paa9a4f0b93)" d="M 354.883349 339.338683 
Q 329.085452 337.335376 304.402233 335.418628 
" style="fill:none;stroke:#000000;stroke-linecap:round;"/>
    <path clip-path="url(#paa9a4f0b93)" d="M 308.235385 337.722308 
L 304.402233 335.418628 
L 308.545068 333.734314 
L 308.235385 337.722308 
z
" style="stroke:#000000;stroke-linecap:round;"/>
   </g>
   <g id="patch_41">
    <path clip-path="url(#paa9a4f0b93)" d="M 376.009449 576.094515 
Q 371.126736 654.986322 366.313088 732.762231 
" style="fill:none;stroke:#000000;stroke-linecap:round;"/>
    <path clip-path="url(#paa9a4f0b93)" d="M 368.556361 728.893416 
L 366.313088 732.762231 
L 364.564 728.646324 
L 368.556361 728.893416 
z
" style="stroke:#000000;stroke-linecap:round;"/>
   </g>
   <g id="patch_42">
    <path clip-path="url(#paa9a4f0b93)" d="M 376.306324 549.674704 
Q 372.448323 451.628365 368.63428 354.699196 
" style="fill:none;stroke:#000000;stroke-linecap:round;"/>
    <path clip-path="url(#paa9a4f0b93)" d="M 366.7931 358.774739 
L 368.63428 354.699196 
L 370.790007 358.617466 
L 366.7931 358.774739 
z
" style="stroke:#000000;stroke-linecap:round;"/>
   </g>
   <g id="patch_43">
    <path clip-path="url(#paa9a4f0b93)" d="M 365.506528 760.309882 
Q 365.553222 768.054706 365.593175 774.681516 
" style="fill:none;stroke:#000000;stroke-linecap:round;"/>
    <path clip-path="url(#paa9a4f0b93)" d="M 367.569023 770.669531 
L 365.593175 774.681516 
L 363.569096 770.693646 
L 367.569023 770.669531 
z
" style="stroke:#000000;stroke-linecap:round;"/>
   </g>
   <g id="patch_44">
    <path clip-path="url(#paa9a4f0b93)" d="M 366.243802 733.881714 
Q 371.126514 654.989907 375.940162 577.213999 
" style="fill:none;stroke:#000000;stroke-linecap:round;"/>
    <path clip-path="url(#paa9a4f0b93)" d="M 373.69689 581.082813 
L 375.940162 577.213999 
L 377.689251 581.329906 
L 373.69689 581.082813 
z
" style="stroke:#000000;stroke-linecap:round;"/>
   </g>
   <g id="patch_45">
    <path clip-path="url(#paa9a4f0b93)" d="M 365.599904 775.797554 
Q 365.55321 768.05273 365.513256 761.425919 
" style="fill:none;stroke:#000000;stroke-linecap:round;"/>
    <path clip-path="url(#paa9a4f0b93)" d="M 363.537408 765.437905 
L 365.513256 761.425919 
L 367.537336 765.413789 
L 363.537408 765.437905 
z
" style="stroke:#000000;stroke-linecap:round;"/>
   </g>
   <g id="patch_46">
    <path clip-path="url(#paa9a4f0b93)" d="M 365.176589 291.269676 
Q 354.621133 289.502954 345.168372 287.920796 
" style="fill:none;stroke:#000000;stroke-linecap:round;"/>
    <path clip-path="url(#paa9a4f0b93)" d="M 348.783336 290.553672 
L 345.168372 287.920796 
L 349.443652 286.608551 
L 348.783336 290.553672 
z
" style="stroke:#000000;stroke-linecap:round;"/>
   </g>
   <g id="patch_47">
    <path clip-path="url(#paa9a4f0b93)" d="M 325.853898 289.322449 
Q 328.436379 287.437483 330.115797 286.211668 
" style="fill:none;stroke:#000000;stroke-linecap:round;"/>
    <path clip-path="url(#paa9a4f0b93)" d="M 325.70578 286.954467 
L 330.115797 286.211668 
L 328.064026 290.18536 
L 325.70578 286.954467 
z
" style="stroke:#000000;stroke-linecap:round;"/>
   </g>
   <g id="patch_48">
    <path clip-path="url(#paa9a4f0b93)" d="M 315.476238 291.059334 
Q 319.700694 289.630234 322.866075 288.559411 
" style="fill:none;stroke:#000000;stroke-linecap:round;"/>
    <path clip-path="url(#paa9a4f0b93)" d="M 318.436112 287.94669 
L 322.866075 288.559411 
L 319.717921 291.735749 
L 318.436112 287.94669 
z
" style="stroke:#000000;stroke-linecap:round;"/>
   </g>
   <g id="patch_49">
    <path clip-path="url(#paa9a4f0b93)" d="M 296.281234 279.40131 
Q 303.80131 281.795159 310.256028 283.849875 
" style="fill:none;stroke:#000000;stroke-linecap:round;"/>
    <path clip-path="url(#paa9a4f0b93)" d="M 307.051146 280.730784 
L 310.256028 283.849875 
L 305.837826 284.542326 
L 307.051146 280.730784 
z
" style="stroke:#000000;stroke-linecap:round;"/>
   </g>
   <g id="PathCollection_1">
    <defs>
     <path d="M 0 13.228757 
C 3.508307 13.228757 6.873396 11.834891 9.354143 9.354143 
C 11.834891 6.873396 13.228757 3.508307 13.228757 0 
C 13.228757 -3.508307 11.834891 -6.873396 9.354143 -9.354143 
C 6.873396 -11.834891 3.508307 -13.228757 0 -13.228757 
C -3.508307 -13.228757 -6.873396 -11.834891 -9.354143 -9.354143 
C -11.834891 -6.873396 -13.228757 -3.508307 -13.228757 0 
C -13.228757 3.508307 -11.834891 6.873396 -9.354143 9.354143 
C -6.873396 11.834891 -3.508307 13.228757 0 13.228757 
z
" id="m00c478e368" style="stroke:#87ceeb;"/>
    </defs>
    <g clip-path="url(#paa9a4f0b93)">
     <use style="fill:#87ceeb;stroke:#87ceeb;" x="324.662265" xlink:href="#m00c478e368" y="74.975207"/>
     <use style="fill:#87ceeb;stroke:#87ceeb;" x="315.530227" xlink:href="#m00c478e368" y="116.770485"/>
     <use style="fill:#87ceeb;stroke:#87ceeb;" x="311.842604" xlink:href="#m00c478e368" y="141.371782"/>
     <use style="fill:#87ceeb;stroke:#87ceeb;" x="303.22757" xlink:href="#m00c478e368" y="222.857153"/>
     <use style="fill:#87ceeb;stroke:#87ceeb;" x="290.100952" xlink:href="#m00c478e368" y="334.308078"/>
     <use style="fill:#87ceeb;stroke:#87ceeb;" x="147.99931" xlink:href="#m00c478e368" y="134.943622"/>
     <use style="fill:#87ceeb;stroke:#87ceeb;" x="49.983471" xlink:href="#m00c478e368" y="225.388271"/>
     <use style="fill:#87ceeb;stroke:#87ceeb;" x="272.809285" xlink:href="#m00c478e368" y="277.450001"/>
     <use style="fill:#87ceeb;stroke:#87ceeb;" x="331.018859" xlink:href="#m00c478e368" y="285.552518"/>
     <use style="fill:#87ceeb;stroke:#87ceeb;" x="488.106287" xlink:href="#m00c478e368" y="148.735036"/>
     <use style="fill:#87ceeb;stroke:#87ceeb;" x="526.016529" xlink:href="#m00c478e368" y="251.987047"/>
     <use style="fill:#87ceeb;stroke:#87ceeb;" x="352.136184" xlink:href="#m00c478e368" y="289.635109"/>
     <use style="fill:#87ceeb;stroke:#87ceeb;" x="323.92515" xlink:href="#m00c478e368" y="288.201135"/>
     <use style="fill:#87ceeb;stroke:#87ceeb;" x="213.028223" xlink:href="#m00c478e368" y="334.317478"/>
     <use style="fill:#87ceeb;stroke:#87ceeb;" x="178.333646" xlink:href="#m00c478e368" y="497.378253"/>
     <use style="fill:#87ceeb;stroke:#87ceeb;" x="187.0357" xlink:href="#m00c478e368" y="650.028689"/>
     <use style="fill:#87ceeb;stroke:#87ceeb;" x="162.199015" xlink:href="#m00c478e368" y="690.86929"/>
     <use style="fill:#87ceeb;stroke:#87ceeb;" x="368.070157" xlink:href="#m00c478e368" y="340.36269"/>
     <use style="fill:#87ceeb;stroke:#87ceeb;" x="376.82647" xlink:href="#m00c478e368" y="562.893588"/>
     <use style="fill:#87ceeb;stroke:#87ceeb;" x="365.42678" xlink:href="#m00c478e368" y="747.082642"/>
     <use style="fill:#87ceeb;stroke:#87ceeb;" x="365.679651" xlink:href="#m00c478e368" y="789.024793"/>
     <use style="fill:#87ceeb;stroke:#87ceeb;" x="378.225965" xlink:href="#m00c478e368" y="293.453818"/>
     <use style="fill:#87ceeb;stroke:#87ceeb;" x="315.171907" xlink:href="#m00c478e368" y="297.119289"/>
     <use style="fill:#87ceeb;stroke:#87ceeb;" x="302.94501" xlink:href="#m00c478e368" y="295.298548"/>
     <use style="fill:#87ceeb;stroke:#87ceeb;" x="283.676513" xlink:href="#m00c478e368" y="275.388877"/>
    </g>
   </g>
   <g id="text_1">
    <g clip-path="url(#paa9a4f0b93)">
     <!-- Head -->
     <g transform="translate(311.587265 77.734582)scale(0.1 -0.1)">
      <defs>
       <path d="M 9.8125 72.90625 
L 19.671875 72.90625 
L 19.671875 43.015625 
L 55.515625 43.015625 
L 55.515625 72.90625 
L 65.375 72.90625 
L 65.375 0 
L 55.515625 0 
L 55.515625 34.71875 
L 19.671875 34.71875 
L 19.671875 0 
L 9.8125 0 
z
" id="DejaVuSans-72"/>
       <path d="M 56.203125 29.59375 
L 56.203125 25.203125 
L 14.890625 25.203125 
Q 15.484375 15.921875 20.484375 11.0625 
Q 25.484375 6.203125 34.421875 6.203125 
Q 39.59375 6.203125 44.453125 7.46875 
Q 49.3125 8.734375 54.109375 11.28125 
L 54.109375 2.78125 
Q 49.265625 0.734375 44.1875 -0.34375 
Q 39.109375 -1.421875 33.890625 -1.421875 
Q 20.796875 -1.421875 13.15625 6.1875 
Q 5.515625 13.8125 5.515625 26.8125 
Q 5.515625 40.234375 12.765625 48.109375 
Q 20.015625 56 32.328125 56 
Q 43.359375 56 49.78125 48.890625 
Q 56.203125 41.796875 56.203125 29.59375 
z
M 47.21875 32.234375 
Q 47.125 39.59375 43.09375 43.984375 
Q 39.0625 48.390625 32.421875 48.390625 
Q 24.90625 48.390625 20.390625 44.140625 
Q 15.875 39.890625 15.1875 32.171875 
z
" id="DejaVuSans-101"/>
       <path d="M 34.28125 27.484375 
Q 23.390625 27.484375 19.1875 25 
Q 14.984375 22.515625 14.984375 16.5 
Q 14.984375 11.71875 18.140625 8.90625 
Q 21.296875 6.109375 26.703125 6.109375 
Q 34.1875 6.109375 38.703125 11.40625 
Q 43.21875 16.703125 43.21875 25.484375 
L 43.21875 27.484375 
z
M 52.203125 31.203125 
L 52.203125 0 
L 43.21875 0 
L 43.21875 8.296875 
Q 40.140625 3.328125 35.546875 0.953125 
Q 30.953125 -1.421875 24.3125 -1.421875 
Q 15.921875 -1.421875 10.953125 3.296875 
Q 6 8.015625 6 15.921875 
Q 6 25.140625 12.171875 29.828125 
Q 18.359375 34.515625 30.609375 34.515625 
L 43.21875 34.515625 
L 43.21875 35.40625 
Q 43.21875 41.609375 39.140625 45 
Q 35.0625 48.390625 27.6875 48.390625 
Q 23 48.390625 18.546875 47.265625 
Q 14.109375 46.140625 10.015625 43.890625 
L 10.015625 52.203125 
Q 14.9375 54.109375 19.578125 55.046875 
Q 24.21875 56 28.609375 56 
Q 40.484375 56 46.34375 49.84375 
Q 52.203125 43.703125 52.203125 31.203125 
z
" id="DejaVuSans-97"/>
       <path d="M 45.40625 46.390625 
L 45.40625 75.984375 
L 54.390625 75.984375 
L 54.390625 0 
L 45.40625 0 
L 45.40625 8.203125 
Q 42.578125 3.328125 38.25 0.953125 
Q 33.9375 -1.421875 27.875 -1.421875 
Q 17.96875 -1.421875 11.734375 6.484375 
Q 5.515625 14.40625 5.515625 27.296875 
Q 5.515625 40.1875 11.734375 48.09375 
Q 17.96875 56 27.875 56 
Q 33.9375 56 38.25 53.625 
Q 42.578125 51.265625 45.40625 46.390625 
z
M 14.796875 27.296875 
Q 14.796875 17.390625 18.875 11.75 
Q 22.953125 6.109375 30.078125 6.109375 
Q 37.203125 6.109375 41.296875 11.75 
Q 45.40625 17.390625 45.40625 27.296875 
Q 45.40625 37.203125 41.296875 42.84375 
Q 37.203125 48.484375 30.078125 48.484375 
Q 22.953125 48.484375 18.875 42.84375 
Q 14.796875 37.203125 14.796875 27.296875 
z
" id="DejaVuSans-100"/>
      </defs>
      <use xlink:href="#DejaVuSans-72"/>
      <use x="75.195312" xlink:href="#DejaVuSans-101"/>
      <use x="136.71875" xlink:href="#DejaVuSans-97"/>
      <use x="197.998047" xlink:href="#DejaVuSans-100"/>
     </g>
    </g>
   </g>
   <g id="text_2">
    <g clip-path="url(#paa9a4f0b93)">
     <!-- c7 -->
     <g transform="translate(309.599758 119.52986)scale(0.1 -0.1)">
      <defs>
       <path d="M 48.78125 52.59375 
L 48.78125 44.1875 
Q 44.96875 46.296875 41.140625 47.34375 
Q 37.3125 48.390625 33.40625 48.390625 
Q 24.65625 48.390625 19.8125 42.84375 
Q 14.984375 37.3125 14.984375 27.296875 
Q 14.984375 17.28125 19.8125 11.734375 
Q 24.65625 6.203125 33.40625 6.203125 
Q 37.3125 6.203125 41.140625 7.25 
Q 44.96875 8.296875 48.78125 10.40625 
L 48.78125 2.09375 
Q 45.015625 0.34375 40.984375 -0.53125 
Q 36.96875 -1.421875 32.421875 -1.421875 
Q 20.0625 -1.421875 12.78125 6.34375 
Q 5.515625 14.109375 5.515625 27.296875 
Q 5.515625 40.671875 12.859375 48.328125 
Q 20.21875 56 33.015625 56 
Q 37.15625 56 41.109375 55.140625 
Q 45.0625 54.296875 48.78125 52.59375 
z
" id="DejaVuSans-99"/>
       <path d="M 8.203125 72.90625 
L 55.078125 72.90625 
L 55.078125 68.703125 
L 28.609375 0 
L 18.3125 0 
L 43.21875 64.59375 
L 8.203125 64.59375 
z
" id="DejaVuSans-55"/>
      </defs>
      <use xlink:href="#DejaVuSans-99"/>
      <use x="54.980469" xlink:href="#DejaVuSans-55"/>
     </g>
    </g>
   </g>
   <g id="text_3">
    <g clip-path="url(#paa9a4f0b93)">
     <!-- SpineShoulder -->
     <g transform="translate(275.593385 144.131157)scale(0.1 -0.1)">
      <defs>
       <path d="M 53.515625 70.515625 
L 53.515625 60.890625 
Q 47.90625 63.578125 42.921875 64.890625 
Q 37.9375 66.21875 33.296875 66.21875 
Q 25.25 66.21875 20.875 63.09375 
Q 16.5 59.96875 16.5 54.203125 
Q 16.5 49.359375 19.40625 46.890625 
Q 22.3125 44.4375 30.421875 42.921875 
L 36.375 41.703125 
Q 47.40625 39.59375 52.65625 34.296875 
Q 57.90625 29 57.90625 20.125 
Q 57.90625 9.515625 50.796875 4.046875 
Q 43.703125 -1.421875 29.984375 -1.421875 
Q 24.8125 -1.421875 18.96875 -0.25 
Q 13.140625 0.921875 6.890625 3.21875 
L 6.890625 13.375 
Q 12.890625 10.015625 18.65625 8.296875 
Q 24.421875 6.59375 29.984375 6.59375 
Q 38.421875 6.59375 43.015625 9.90625 
Q 47.609375 13.234375 47.609375 19.390625 
Q 47.609375 24.75 44.3125 27.78125 
Q 41.015625 30.8125 33.5 32.328125 
L 27.484375 33.5 
Q 16.453125 35.6875 11.515625 40.375 
Q 6.59375 45.0625 6.59375 53.421875 
Q 6.59375 63.09375 13.40625 68.65625 
Q 20.21875 74.21875 32.171875 74.21875 
Q 37.3125 74.21875 42.625 73.28125 
Q 47.953125 72.359375 53.515625 70.515625 
z
" id="DejaVuSans-83"/>
       <path d="M 18.109375 8.203125 
L 18.109375 -20.796875 
L 9.078125 -20.796875 
L 9.078125 54.6875 
L 18.109375 54.6875 
L 18.109375 46.390625 
Q 20.953125 51.265625 25.265625 53.625 
Q 29.59375 56 35.59375 56 
Q 45.5625 56 51.78125 48.09375 
Q 58.015625 40.1875 58.015625 27.296875 
Q 58.015625 14.40625 51.78125 6.484375 
Q 45.5625 -1.421875 35.59375 -1.421875 
Q 29.59375 -1.421875 25.265625 0.953125 
Q 20.953125 3.328125 18.109375 8.203125 
z
M 48.6875 27.296875 
Q 48.6875 37.203125 44.609375 42.84375 
Q 40.53125 48.484375 33.40625 48.484375 
Q 26.265625 48.484375 22.1875 42.84375 
Q 18.109375 37.203125 18.109375 27.296875 
Q 18.109375 17.390625 22.1875 11.75 
Q 26.265625 6.109375 33.40625 6.109375 
Q 40.53125 6.109375 44.609375 11.75 
Q 48.6875 17.390625 48.6875 27.296875 
z
" id="DejaVuSans-112"/>
       <path d="M 9.421875 54.6875 
L 18.40625 54.6875 
L 18.40625 0 
L 9.421875 0 
z
M 9.421875 75.984375 
L 18.40625 75.984375 
L 18.40625 64.59375 
L 9.421875 64.59375 
z
" id="DejaVuSans-105"/>
       <path d="M 54.890625 33.015625 
L 54.890625 0 
L 45.90625 0 
L 45.90625 32.71875 
Q 45.90625 40.484375 42.875 44.328125 
Q 39.84375 48.1875 33.796875 48.1875 
Q 26.515625 48.1875 22.3125 43.546875 
Q 18.109375 38.921875 18.109375 30.90625 
L 18.109375 0 
L 9.078125 0 
L 9.078125 54.6875 
L 18.109375 54.6875 
L 18.109375 46.1875 
Q 21.34375 51.125 25.703125 53.5625 
Q 30.078125 56 35.796875 56 
Q 45.21875 56 50.046875 50.171875 
Q 54.890625 44.34375 54.890625 33.015625 
z
" id="DejaVuSans-110"/>
       <path d="M 54.890625 33.015625 
L 54.890625 0 
L 45.90625 0 
L 45.90625 32.71875 
Q 45.90625 40.484375 42.875 44.328125 
Q 39.84375 48.1875 33.796875 48.1875 
Q 26.515625 48.1875 22.3125 43.546875 
Q 18.109375 38.921875 18.109375 30.90625 
L 18.109375 0 
L 9.078125 0 
L 9.078125 75.984375 
L 18.109375 75.984375 
L 18.109375 46.1875 
Q 21.34375 51.125 25.703125 53.5625 
Q 30.078125 56 35.796875 56 
Q 45.21875 56 50.046875 50.171875 
Q 54.890625 44.34375 54.890625 33.015625 
z
" id="DejaVuSans-104"/>
       <path d="M 30.609375 48.390625 
Q 23.390625 48.390625 19.1875 42.75 
Q 14.984375 37.109375 14.984375 27.296875 
Q 14.984375 17.484375 19.15625 11.84375 
Q 23.34375 6.203125 30.609375 6.203125 
Q 37.796875 6.203125 41.984375 11.859375 
Q 46.1875 17.53125 46.1875 27.296875 
Q 46.1875 37.015625 41.984375 42.703125 
Q 37.796875 48.390625 30.609375 48.390625 
z
M 30.609375 56 
Q 42.328125 56 49.015625 48.375 
Q 55.71875 40.765625 55.71875 27.296875 
Q 55.71875 13.875 49.015625 6.21875 
Q 42.328125 -1.421875 30.609375 -1.421875 
Q 18.84375 -1.421875 12.171875 6.21875 
Q 5.515625 13.875 5.515625 27.296875 
Q 5.515625 40.765625 12.171875 48.375 
Q 18.84375 56 30.609375 56 
z
" id="DejaVuSans-111"/>
       <path d="M 8.5 21.578125 
L 8.5 54.6875 
L 17.484375 54.6875 
L 17.484375 21.921875 
Q 17.484375 14.15625 20.5 10.265625 
Q 23.53125 6.390625 29.59375 6.390625 
Q 36.859375 6.390625 41.078125 11.03125 
Q 45.3125 15.671875 45.3125 23.6875 
L 45.3125 54.6875 
L 54.296875 54.6875 
L 54.296875 0 
L 45.3125 0 
L 45.3125 8.40625 
Q 42.046875 3.421875 37.71875 1 
Q 33.40625 -1.421875 27.6875 -1.421875 
Q 18.265625 -1.421875 13.375 4.4375 
Q 8.5 10.296875 8.5 21.578125 
z
M 31.109375 56 
z
" id="DejaVuSans-117"/>
       <path d="M 9.421875 75.984375 
L 18.40625 75.984375 
L 18.40625 0 
L 9.421875 0 
z
" id="DejaVuSans-108"/>
       <path d="M 41.109375 46.296875 
Q 39.59375 47.171875 37.8125 47.578125 
Q 36.03125 48 33.890625 48 
Q 26.265625 48 22.1875 43.046875 
Q 18.109375 38.09375 18.109375 28.8125 
L 18.109375 0 
L 9.078125 0 
L 9.078125 54.6875 
L 18.109375 54.6875 
L 18.109375 46.1875 
Q 20.953125 51.171875 25.484375 53.578125 
Q 30.03125 56 36.53125 56 
Q 37.453125 56 38.578125 55.875 
Q 39.703125 55.765625 41.0625 55.515625 
z
" id="DejaVuSans-114"/>
      </defs>
      <use xlink:href="#DejaVuSans-83"/>
      <use x="63.476562" xlink:href="#DejaVuSans-112"/>
      <use x="126.953125" xlink:href="#DejaVuSans-105"/>
      <use x="154.736328" xlink:href="#DejaVuSans-110"/>
      <use x="218.115234" xlink:href="#DejaVuSans-101"/>
      <use x="279.638672" xlink:href="#DejaVuSans-83"/>
      <use x="343.115234" xlink:href="#DejaVuSans-104"/>
      <use x="406.494141" xlink:href="#DejaVuSans-111"/>
      <use x="467.675781" xlink:href="#DejaVuSans-117"/>
      <use x="531.054688" xlink:href="#DejaVuSans-108"/>
      <use x="558.837891" xlink:href="#DejaVuSans-100"/>
      <use x="622.314453" xlink:href="#DejaVuSans-101"/>
      <use x="683.837891" xlink:href="#DejaVuSans-114"/>
     </g>
    </g>
   </g>
   <g id="text_4">
    <g clip-path="url(#paa9a4f0b93)">
     <!-- Spine -->
     <g transform="translate(289.244758 225.616528)scale(0.1 -0.1)">
      <use xlink:href="#DejaVuSans-83"/>
      <use x="63.476562" xlink:href="#DejaVuSans-112"/>
      <use x="126.953125" xlink:href="#DejaVuSans-105"/>
      <use x="154.736328" xlink:href="#DejaVuSans-110"/>
      <use x="218.115234" xlink:href="#DejaVuSans-101"/>
     </g>
    </g>
   </g>
   <g id="text_5">
    <g clip-path="url(#paa9a4f0b93)">
     <!-- Sacr -->
     <g transform="translate(279.057983 337.067453)scale(0.1 -0.1)">
      <use xlink:href="#DejaVuSans-83"/>
      <use x="63.476562" xlink:href="#DejaVuSans-97"/>
      <use x="124.755859" xlink:href="#DejaVuSans-99"/>
      <use x="179.736328" xlink:href="#DejaVuSans-114"/>
     </g>
    </g>
   </g>
   <g id="text_6">
    <g clip-path="url(#paa9a4f0b93)">
     <!-- LShoulder -->
     <g transform="translate(122.946967 137.702997)scale(0.1 -0.1)">
      <defs>
       <path d="M 9.8125 72.90625 
L 19.671875 72.90625 
L 19.671875 8.296875 
L 55.171875 8.296875 
L 55.171875 0 
L 9.8125 0 
z
" id="DejaVuSans-76"/>
      </defs>
      <use xlink:href="#DejaVuSans-76"/>
      <use x="55.712891" xlink:href="#DejaVuSans-83"/>
      <use x="119.189453" xlink:href="#DejaVuSans-104"/>
      <use x="182.568359" xlink:href="#DejaVuSans-111"/>
      <use x="243.75" xlink:href="#DejaVuSans-117"/>
      <use x="307.128906" xlink:href="#DejaVuSans-108"/>
      <use x="334.912109" xlink:href="#DejaVuSans-100"/>
      <use x="398.388672" xlink:href="#DejaVuSans-101"/>
      <use x="459.912109" xlink:href="#DejaVuSans-114"/>
     </g>
    </g>
   </g>
   <g id="text_7">
    <g clip-path="url(#paa9a4f0b93)">
     <!-- LElbow -->
     <g transform="translate(32.32644 228.147646)scale(0.1 -0.1)">
      <defs>
       <path d="M 9.8125 72.90625 
L 55.90625 72.90625 
L 55.90625 64.59375 
L 19.671875 64.59375 
L 19.671875 43.015625 
L 54.390625 43.015625 
L 54.390625 34.71875 
L 19.671875 34.71875 
L 19.671875 8.296875 
L 56.78125 8.296875 
L 56.78125 0 
L 9.8125 0 
z
" id="DejaVuSans-69"/>
       <path d="M 48.6875 27.296875 
Q 48.6875 37.203125 44.609375 42.84375 
Q 40.53125 48.484375 33.40625 48.484375 
Q 26.265625 48.484375 22.1875 42.84375 
Q 18.109375 37.203125 18.109375 27.296875 
Q 18.109375 17.390625 22.1875 11.75 
Q 26.265625 6.109375 33.40625 6.109375 
Q 40.53125 6.109375 44.609375 11.75 
Q 48.6875 17.390625 48.6875 27.296875 
z
M 18.109375 46.390625 
Q 20.953125 51.265625 25.265625 53.625 
Q 29.59375 56 35.59375 56 
Q 45.5625 56 51.78125 48.09375 
Q 58.015625 40.1875 58.015625 27.296875 
Q 58.015625 14.40625 51.78125 6.484375 
Q 45.5625 -1.421875 35.59375 -1.421875 
Q 29.59375 -1.421875 25.265625 0.953125 
Q 20.953125 3.328125 18.109375 8.203125 
L 18.109375 0 
L 9.078125 0 
L 9.078125 75.984375 
L 18.109375 75.984375 
z
" id="DejaVuSans-98"/>
       <path d="M 4.203125 54.6875 
L 13.1875 54.6875 
L 24.421875 12.015625 
L 35.59375 54.6875 
L 46.1875 54.6875 
L 57.421875 12.015625 
L 68.609375 54.6875 
L 77.59375 54.6875 
L 63.28125 0 
L 52.6875 0 
L 40.921875 44.828125 
L 29.109375 0 
L 18.5 0 
z
" id="DejaVuSans-119"/>
      </defs>
      <use xlink:href="#DejaVuSans-76"/>
      <use x="55.712891" xlink:href="#DejaVuSans-69"/>
      <use x="118.896484" xlink:href="#DejaVuSans-108"/>
      <use x="146.679688" xlink:href="#DejaVuSans-98"/>
      <use x="210.15625" xlink:href="#DejaVuSans-111"/>
      <use x="271.337891" xlink:href="#DejaVuSans-119"/>
     </g>
    </g>
   </g>
   <g id="text_8">
    <g clip-path="url(#paa9a4f0b93)">
     <!-- LWrist -->
     <g transform="translate(257.751473 280.209376)scale(0.1 -0.1)">
      <defs>
       <path d="M 3.328125 72.90625 
L 13.28125 72.90625 
L 28.609375 11.28125 
L 43.890625 72.90625 
L 54.984375 72.90625 
L 70.3125 11.28125 
L 85.59375 72.90625 
L 95.609375 72.90625 
L 77.296875 0 
L 64.890625 0 
L 49.515625 63.28125 
L 33.984375 0 
L 21.578125 0 
z
" id="DejaVuSans-87"/>
       <path d="M 44.28125 53.078125 
L 44.28125 44.578125 
Q 40.484375 46.53125 36.375 47.5 
Q 32.28125 48.484375 27.875 48.484375 
Q 21.1875 48.484375 17.84375 46.4375 
Q 14.5 44.390625 14.5 40.28125 
Q 14.5 37.15625 16.890625 35.375 
Q 19.28125 33.59375 26.515625 31.984375 
L 29.59375 31.296875 
Q 39.15625 29.25 43.1875 25.515625 
Q 47.21875 21.78125 47.21875 15.09375 
Q 47.21875 7.46875 41.1875 3.015625 
Q 35.15625 -1.421875 24.609375 -1.421875 
Q 20.21875 -1.421875 15.453125 -0.5625 
Q 10.6875 0.296875 5.421875 2 
L 5.421875 11.28125 
Q 10.40625 8.6875 15.234375 7.390625 
Q 20.0625 6.109375 24.8125 6.109375 
Q 31.15625 6.109375 34.5625 8.28125 
Q 37.984375 10.453125 37.984375 14.40625 
Q 37.984375 18.0625 35.515625 20.015625 
Q 33.0625 21.96875 24.703125 23.78125 
L 21.578125 24.515625 
Q 13.234375 26.265625 9.515625 29.90625 
Q 5.8125 33.546875 5.8125 39.890625 
Q 5.8125 47.609375 11.28125 51.796875 
Q 16.75 56 26.8125 56 
Q 31.78125 56 36.171875 55.265625 
Q 40.578125 54.546875 44.28125 53.078125 
z
" id="DejaVuSans-115"/>
       <path d="M 18.3125 70.21875 
L 18.3125 54.6875 
L 36.8125 54.6875 
L 36.8125 47.703125 
L 18.3125 47.703125 
L 18.3125 18.015625 
Q 18.3125 11.328125 20.140625 9.421875 
Q 21.96875 7.515625 27.59375 7.515625 
L 36.8125 7.515625 
L 36.8125 0 
L 27.59375 0 
Q 17.1875 0 13.234375 3.875 
Q 9.28125 7.765625 9.28125 18.015625 
L 9.28125 47.703125 
L 2.6875 47.703125 
L 2.6875 54.6875 
L 9.28125 54.6875 
L 9.28125 70.21875 
z
" id="DejaVuSans-116"/>
      </defs>
      <use xlink:href="#DejaVuSans-76"/>
      <use x="46.587891" xlink:href="#DejaVuSans-87"/>
      <use x="140.964844" xlink:href="#DejaVuSans-114"/>
      <use x="182.078125" xlink:href="#DejaVuSans-105"/>
      <use x="209.861328" xlink:href="#DejaVuSans-115"/>
      <use x="261.960938" xlink:href="#DejaVuSans-116"/>
     </g>
    </g>
   </g>
   <g id="text_9">
    <g clip-path="url(#paa9a4f0b93)">
     <!-- LHand -->
     <g transform="translate(315.065734 288.311893)scale(0.1 -0.1)">
      <use xlink:href="#DejaVuSans-76"/>
      <use x="55.712891" xlink:href="#DejaVuSans-72"/>
      <use x="130.908203" xlink:href="#DejaVuSans-97"/>
      <use x="192.1875" xlink:href="#DejaVuSans-110"/>
      <use x="255.566406" xlink:href="#DejaVuSans-100"/>
     </g>
    </g>
   </g>
   <g id="text_10">
    <g clip-path="url(#paa9a4f0b93)">
     <!-- RShoulder -->
     <g transform="translate(462.365662 151.494411)scale(0.1 -0.1)">
      <defs>
       <path d="M 44.390625 34.1875 
Q 47.5625 33.109375 50.5625 29.59375 
Q 53.5625 26.078125 56.59375 19.921875 
L 66.609375 0 
L 56 0 
L 46.6875 18.703125 
Q 43.0625 26.03125 39.671875 28.421875 
Q 36.28125 30.8125 30.421875 30.8125 
L 19.671875 30.8125 
L 19.671875 0 
L 9.8125 0 
L 9.8125 72.90625 
L 32.078125 72.90625 
Q 44.578125 72.90625 50.734375 67.671875 
Q 56.890625 62.453125 56.890625 51.90625 
Q 56.890625 45.015625 53.6875 40.46875 
Q 50.484375 35.9375 44.390625 34.1875 
z
M 19.671875 64.796875 
L 19.671875 38.921875 
L 32.078125 38.921875 
Q 39.203125 38.921875 42.84375 42.21875 
Q 46.484375 45.515625 46.484375 51.90625 
Q 46.484375 58.296875 42.84375 61.546875 
Q 39.203125 64.796875 32.078125 64.796875 
z
" id="DejaVuSans-82"/>
      </defs>
      <use xlink:href="#DejaVuSans-82"/>
      <use x="69.482422" xlink:href="#DejaVuSans-83"/>
      <use x="132.958984" xlink:href="#DejaVuSans-104"/>
      <use x="196.337891" xlink:href="#DejaVuSans-111"/>
      <use x="257.519531" xlink:href="#DejaVuSans-117"/>
      <use x="320.898438" xlink:href="#DejaVuSans-108"/>
      <use x="348.681641" xlink:href="#DejaVuSans-100"/>
      <use x="412.158203" xlink:href="#DejaVuSans-101"/>
      <use x="473.681641" xlink:href="#DejaVuSans-114"/>
     </g>
    </g>
   </g>
   <g id="text_11">
    <g clip-path="url(#paa9a4f0b93)">
     <!-- RElbow -->
     <g transform="translate(507.671216 254.746422)scale(0.1 -0.1)">
      <use xlink:href="#DejaVuSans-82"/>
      <use x="69.482422" xlink:href="#DejaVuSans-69"/>
      <use x="132.666016" xlink:href="#DejaVuSans-108"/>
      <use x="160.449219" xlink:href="#DejaVuSans-98"/>
      <use x="223.925781" xlink:href="#DejaVuSans-111"/>
      <use x="285.107422" xlink:href="#DejaVuSans-119"/>
     </g>
    </g>
   </g>
   <g id="text_12">
    <g clip-path="url(#paa9a4f0b93)">
     <!-- RWrist -->
     <g transform="translate(336.133841 292.394484)scale(0.1 -0.1)">
      <use xlink:href="#DejaVuSans-82"/>
      <use x="65.482422" xlink:href="#DejaVuSans-87"/>
      <use x="159.859375" xlink:href="#DejaVuSans-114"/>
      <use x="200.972656" xlink:href="#DejaVuSans-105"/>
      <use x="228.755859" xlink:href="#DejaVuSans-115"/>
      <use x="280.855469" xlink:href="#DejaVuSans-116"/>
     </g>
    </g>
   </g>
   <g id="text_13">
    <g clip-path="url(#paa9a4f0b93)">
     <!-- RHand -->
     <g transform="translate(307.283743 290.96051)scale(0.1 -0.1)">
      <use xlink:href="#DejaVuSans-82"/>
      <use x="69.482422" xlink:href="#DejaVuSans-72"/>
      <use x="144.677734" xlink:href="#DejaVuSans-97"/>
      <use x="205.957031" xlink:href="#DejaVuSans-110"/>
      <use x="269.335938" xlink:href="#DejaVuSans-100"/>
     </g>
    </g>
   </g>
   <g id="text_14">
    <g clip-path="url(#paa9a4f0b93)">
     <!-- LHip -->
     <g transform="translate(201.918848 337.076853)scale(0.1 -0.1)">
      <use xlink:href="#DejaVuSans-76"/>
      <use x="55.712891" xlink:href="#DejaVuSans-72"/>
      <use x="130.908203" xlink:href="#DejaVuSans-105"/>
      <use x="158.691406" xlink:href="#DejaVuSans-112"/>
     </g>
    </g>
   </g>
   <g id="text_15">
    <g clip-path="url(#paa9a4f0b93)">
     <!-- LKnee -->
     <g transform="translate(162.946928 500.137628)scale(0.1 -0.1)">
      <defs>
       <path d="M 9.8125 72.90625 
L 19.671875 72.90625 
L 19.671875 42.09375 
L 52.390625 72.90625 
L 65.09375 72.90625 
L 28.90625 38.921875 
L 67.671875 0 
L 54.6875 0 
L 19.671875 35.109375 
L 19.671875 0 
L 9.8125 0 
z
" id="DejaVuSans-75"/>
      </defs>
      <use xlink:href="#DejaVuSans-76"/>
      <use x="55.712891" xlink:href="#DejaVuSans-75"/>
      <use x="121.289062" xlink:href="#DejaVuSans-110"/>
      <use x="184.667969" xlink:href="#DejaVuSans-101"/>
      <use x="246.191406" xlink:href="#DejaVuSans-101"/>
     </g>
    </g>
   </g>
   <g id="text_16">
    <g clip-path="url(#paa9a4f0b93)">
     <!-- LAnkle -->
     <g transform="translate(170.187263 652.788064)scale(0.1 -0.1)">
      <defs>
       <path d="M 34.1875 63.1875 
L 20.796875 26.90625 
L 47.609375 26.90625 
z
M 28.609375 72.90625 
L 39.796875 72.90625 
L 67.578125 0 
L 57.328125 0 
L 50.6875 18.703125 
L 17.828125 18.703125 
L 11.1875 0 
L 0.78125 0 
z
" id="DejaVuSans-65"/>
       <path d="M 9.078125 75.984375 
L 18.109375 75.984375 
L 18.109375 31.109375 
L 44.921875 54.6875 
L 56.390625 54.6875 
L 27.390625 29.109375 
L 57.625 0 
L 45.90625 0 
L 18.109375 26.703125 
L 18.109375 0 
L 9.078125 0 
z
" id="DejaVuSans-107"/>
      </defs>
      <use xlink:href="#DejaVuSans-76"/>
      <use x="57.962891" xlink:href="#DejaVuSans-65"/>
      <use x="126.371094" xlink:href="#DejaVuSans-110"/>
      <use x="189.75" xlink:href="#DejaVuSans-107"/>
      <use x="247.660156" xlink:href="#DejaVuSans-108"/>
      <use x="275.443359" xlink:href="#DejaVuSans-101"/>
     </g>
    </g>
   </g>
   <g id="text_17">
    <g clip-path="url(#paa9a4f0b93)">
     <!-- LFoot -->
     <g transform="translate(148.63964 693.628665)scale(0.1 -0.1)">
      <defs>
       <path d="M 9.8125 72.90625 
L 51.703125 72.90625 
L 51.703125 64.59375 
L 19.671875 64.59375 
L 19.671875 43.109375 
L 48.578125 43.109375 
L 48.578125 34.8125 
L 19.671875 34.8125 
L 19.671875 0 
L 9.8125 0 
z
" id="DejaVuSans-70"/>
      </defs>
      <use xlink:href="#DejaVuSans-76"/>
      <use x="55.712891" xlink:href="#DejaVuSans-70"/>
      <use x="109.607422" xlink:href="#DejaVuSans-111"/>
      <use x="170.789062" xlink:href="#DejaVuSans-111"/>
      <use x="231.970703" xlink:href="#DejaVuSans-116"/>
     </g>
    </g>
   </g>
   <g id="text_18">
    <g clip-path="url(#paa9a4f0b93)">
     <!-- RHip -->
     <g transform="translate(356.272501 343.122065)scale(0.1 -0.1)">
      <use xlink:href="#DejaVuSans-82"/>
      <use x="69.482422" xlink:href="#DejaVuSans-72"/>
      <use x="144.677734" xlink:href="#DejaVuSans-105"/>
      <use x="172.460938" xlink:href="#DejaVuSans-112"/>
     </g>
    </g>
   </g>
   <g id="text_19">
    <g clip-path="url(#paa9a4f0b93)">
     <!-- RKnee -->
     <g transform="translate(360.75147 565.652963)scale(0.1 -0.1)">
      <use xlink:href="#DejaVuSans-82"/>
      <use x="69.482422" xlink:href="#DejaVuSans-75"/>
      <use x="135.058594" xlink:href="#DejaVuSans-110"/>
      <use x="198.4375" xlink:href="#DejaVuSans-101"/>
      <use x="259.960938" xlink:href="#DejaVuSans-101"/>
     </g>
    </g>
   </g>
   <g id="text_20">
    <g clip-path="url(#paa9a4f0b93)">
     <!-- RAnkle -->
     <g transform="translate(348.202561 749.842017)scale(0.1 -0.1)">
      <use xlink:href="#DejaVuSans-82"/>
      <use x="65.482422" xlink:href="#DejaVuSans-65"/>
      <use x="133.890625" xlink:href="#DejaVuSans-110"/>
      <use x="197.269531" xlink:href="#DejaVuSans-107"/>
      <use x="255.179688" xlink:href="#DejaVuSans-108"/>
      <use x="282.962891" xlink:href="#DejaVuSans-101"/>
     </g>
    </g>
   </g>
   <g id="text_21">
    <g clip-path="url(#paa9a4f0b93)">
     <!-- RFoot -->
     <g transform="translate(351.431995 791.784168)scale(0.1 -0.1)">
      <use xlink:href="#DejaVuSans-82"/>
      <use x="69.482422" xlink:href="#DejaVuSans-70"/>
      <use x="123.376953" xlink:href="#DejaVuSans-111"/>
      <use x="184.558594" xlink:href="#DejaVuSans-111"/>
      <use x="245.740234" xlink:href="#DejaVuSans-116"/>
     </g>
    </g>
   </g>
   <g id="text_22">
    <g clip-path="url(#paa9a4f0b93)">
     <!-- LHandTip -->
     <g transform="translate(354.811903 296.213193)scale(0.1 -0.1)">
      <defs>
       <path d="M -0.296875 72.90625 
L 61.375 72.90625 
L 61.375 64.59375 
L 35.5 64.59375 
L 35.5 0 
L 25.59375 0 
L 25.59375 64.59375 
L -0.296875 64.59375 
z
" id="DejaVuSans-84"/>
      </defs>
      <use xlink:href="#DejaVuSans-76"/>
      <use x="55.712891" xlink:href="#DejaVuSans-72"/>
      <use x="130.908203" xlink:href="#DejaVuSans-97"/>
      <use x="192.1875" xlink:href="#DejaVuSans-110"/>
      <use x="255.566406" xlink:href="#DejaVuSans-100"/>
      <use x="319.042969" xlink:href="#DejaVuSans-84"/>
      <use x="377.001953" xlink:href="#DejaVuSans-105"/>
      <use x="404.785156" xlink:href="#DejaVuSans-112"/>
     </g>
    </g>
   </g>
   <g id="text_23">
    <g clip-path="url(#paa9a4f0b93)">
     <!-- LThumb -->
     <g transform="translate(295.637532 299.878664)scale(0.1 -0.1)">
      <defs>
       <path d="M 52 44.1875 
Q 55.375 50.25 60.0625 53.125 
Q 64.75 56 71.09375 56 
Q 79.640625 56 84.28125 50.015625 
Q 88.921875 44.046875 88.921875 33.015625 
L 88.921875 0 
L 79.890625 0 
L 79.890625 32.71875 
Q 79.890625 40.578125 77.09375 44.375 
Q 74.3125 48.1875 68.609375 48.1875 
Q 61.625 48.1875 57.5625 43.546875 
Q 53.515625 38.921875 53.515625 30.90625 
L 53.515625 0 
L 44.484375 0 
L 44.484375 32.71875 
Q 44.484375 40.625 41.703125 44.40625 
Q 38.921875 48.1875 33.109375 48.1875 
Q 26.21875 48.1875 22.15625 43.53125 
Q 18.109375 38.875 18.109375 30.90625 
L 18.109375 0 
L 9.078125 0 
L 9.078125 54.6875 
L 18.109375 54.6875 
L 18.109375 46.1875 
Q 21.1875 51.21875 25.484375 53.609375 
Q 29.78125 56 35.6875 56 
Q 41.65625 56 45.828125 52.96875 
Q 50 49.953125 52 44.1875 
z
" id="DejaVuSans-109"/>
      </defs>
      <use xlink:href="#DejaVuSans-76"/>
      <use x="41.962891" xlink:href="#DejaVuSans-84"/>
      <use x="103.046875" xlink:href="#DejaVuSans-104"/>
      <use x="166.425781" xlink:href="#DejaVuSans-117"/>
      <use x="229.804688" xlink:href="#DejaVuSans-109"/>
      <use x="327.216797" xlink:href="#DejaVuSans-98"/>
     </g>
    </g>
   </g>
   <g id="text_24">
    <g clip-path="url(#paa9a4f0b93)">
     <!-- RHandTip -->
     <g transform="translate(278.842666 298.057923)scale(0.1 -0.1)">
      <use xlink:href="#DejaVuSans-82"/>
      <use x="69.482422" xlink:href="#DejaVuSans-72"/>
      <use x="144.677734" xlink:href="#DejaVuSans-97"/>
      <use x="205.957031" xlink:href="#DejaVuSans-110"/>
      <use x="269.335938" xlink:href="#DejaVuSans-100"/>
      <use x="332.8125" xlink:href="#DejaVuSans-84"/>
      <use x="390.771484" xlink:href="#DejaVuSans-105"/>
      <use x="418.554688" xlink:href="#DejaVuSans-112"/>
     </g>
    </g>
   </g>
   <g id="text_25">
    <g clip-path="url(#paa9a4f0b93)">
     <!-- RThumb -->
     <g transform="translate(263.128856 278.148252)scale(0.1 -0.1)">
      <use xlink:href="#DejaVuSans-82"/>
      <use x="62.232422" xlink:href="#DejaVuSans-84"/>
      <use x="123.316406" xlink:href="#DejaVuSans-104"/>
      <use x="186.695312" xlink:href="#DejaVuSans-117"/>
      <use x="250.074219" xlink:href="#DejaVuSans-109"/>
      <use x="347.486328" xlink:href="#DejaVuSans-98"/>
     </g>
    </g>
   </g>
   <g id="text_26">
    <!-- Node Graph Visualization - Frame 13 -->
    <g transform="translate(178.011563 -6)scale(0.12 -0.12)">
     <defs>
      <path d="M 9.8125 72.90625 
L 23.09375 72.90625 
L 55.421875 11.921875 
L 55.421875 72.90625 
L 64.984375 72.90625 
L 64.984375 0 
L 51.703125 0 
L 19.390625 60.984375 
L 19.390625 0 
L 9.8125 0 
z
" id="DejaVuSans-78"/>
      <path id="DejaVuSans-32"/>
      <path d="M 59.515625 10.40625 
L 59.515625 29.984375 
L 43.40625 29.984375 
L 43.40625 38.09375 
L 69.28125 38.09375 
L 69.28125 6.78125 
Q 63.578125 2.734375 56.6875 0.65625 
Q 49.8125 -1.421875 42 -1.421875 
Q 24.90625 -1.421875 15.25 8.5625 
Q 5.609375 18.5625 5.609375 36.375 
Q 5.609375 54.25 15.25 64.234375 
Q 24.90625 74.21875 42 74.21875 
Q 49.125 74.21875 55.546875 72.453125 
Q 61.96875 70.703125 67.390625 67.28125 
L 67.390625 56.78125 
Q 61.921875 61.421875 55.765625 63.765625 
Q 49.609375 66.109375 42.828125 66.109375 
Q 29.4375 66.109375 22.71875 58.640625 
Q 16.015625 51.171875 16.015625 36.375 
Q 16.015625 21.625 22.71875 14.15625 
Q 29.4375 6.6875 42.828125 6.6875 
Q 48.046875 6.6875 52.140625 7.59375 
Q 56.25 8.5 59.515625 10.40625 
z
" id="DejaVuSans-71"/>
      <path d="M 28.609375 0 
L 0.78125 72.90625 
L 11.078125 72.90625 
L 34.1875 11.53125 
L 57.328125 72.90625 
L 67.578125 72.90625 
L 39.796875 0 
z
" id="DejaVuSans-86"/>
      <path d="M 5.515625 54.6875 
L 48.1875 54.6875 
L 48.1875 46.484375 
L 14.40625 7.171875 
L 48.1875 7.171875 
L 48.1875 0 
L 4.296875 0 
L 4.296875 8.203125 
L 38.09375 47.515625 
L 5.515625 47.515625 
z
" id="DejaVuSans-122"/>
      <path d="M 4.890625 31.390625 
L 31.203125 31.390625 
L 31.203125 23.390625 
L 4.890625 23.390625 
z
" id="DejaVuSans-45"/>
      <path d="M 12.40625 8.296875 
L 28.515625 8.296875 
L 28.515625 63.921875 
L 10.984375 60.40625 
L 10.984375 69.390625 
L 28.421875 72.90625 
L 38.28125 72.90625 
L 38.28125 8.296875 
L 54.390625 8.296875 
L 54.390625 0 
L 12.40625 0 
z
" id="DejaVuSans-49"/>
      <path d="M 40.578125 39.3125 
Q 47.65625 37.796875 51.625 33 
Q 55.609375 28.21875 55.609375 21.1875 
Q 55.609375 10.40625 48.1875 4.484375 
Q 40.765625 -1.421875 27.09375 -1.421875 
Q 22.515625 -1.421875 17.65625 -0.515625 
Q 12.796875 0.390625 7.625 2.203125 
L 7.625 11.71875 
Q 11.71875 9.328125 16.59375 8.109375 
Q 21.484375 6.890625 26.8125 6.890625 
Q 36.078125 6.890625 40.9375 10.546875 
Q 45.796875 14.203125 45.796875 21.1875 
Q 45.796875 27.640625 41.28125 31.265625 
Q 36.765625 34.90625 28.71875 34.90625 
L 20.21875 34.90625 
L 20.21875 43.015625 
L 29.109375 43.015625 
Q 36.375 43.015625 40.234375 45.921875 
Q 44.09375 48.828125 44.09375 54.296875 
Q 44.09375 59.90625 40.109375 62.90625 
Q 36.140625 65.921875 28.71875 65.921875 
Q 24.65625 65.921875 20.015625 65.03125 
Q 15.375 64.15625 9.8125 62.3125 
L 9.8125 71.09375 
Q 15.4375 72.65625 20.34375 73.4375 
Q 25.25 74.21875 29.59375 74.21875 
Q 40.828125 74.21875 47.359375 69.109375 
Q 53.90625 64.015625 53.90625 55.328125 
Q 53.90625 49.265625 50.4375 45.09375 
Q 46.96875 40.921875 40.578125 39.3125 
z
" id="DejaVuSans-51"/>
     </defs>
     <use xlink:href="#DejaVuSans-78"/>
     <use x="74.804688" xlink:href="#DejaVuSans-111"/>
     <use x="135.986328" xlink:href="#DejaVuSans-100"/>
     <use x="199.462891" xlink:href="#DejaVuSans-101"/>
     <use x="260.986328" xlink:href="#DejaVuSans-32"/>
     <use x="292.773438" xlink:href="#DejaVuSans-71"/>
     <use x="370.263672" xlink:href="#DejaVuSans-114"/>
     <use x="411.376953" xlink:href="#DejaVuSans-97"/>
     <use x="472.65625" xlink:href="#DejaVuSans-112"/>
     <use x="536.132812" xlink:href="#DejaVuSans-104"/>
     <use x="599.511719" xlink:href="#DejaVuSans-32"/>
     <use x="631.298828" xlink:href="#DejaVuSans-86"/>
     <use x="697.457031" xlink:href="#DejaVuSans-105"/>
     <use x="725.240234" xlink:href="#DejaVuSans-115"/>
     <use x="777.339844" xlink:href="#DejaVuSans-117"/>
     <use x="840.71875" xlink:href="#DejaVuSans-97"/>
     <use x="901.998047" xlink:href="#DejaVuSans-108"/>
     <use x="929.78125" xlink:href="#DejaVuSans-105"/>
     <use x="957.564453" xlink:href="#DejaVuSans-122"/>
     <use x="1010.054688" xlink:href="#DejaVuSans-97"/>
     <use x="1071.333984" xlink:href="#DejaVuSans-116"/>
     <use x="1110.542969" xlink:href="#DejaVuSans-105"/>
     <use x="1138.326172" xlink:href="#DejaVuSans-111"/>
     <use x="1199.507812" xlink:href="#DejaVuSans-110"/>
     <use x="1262.886719" xlink:href="#DejaVuSans-32"/>
     <use x="1294.673828" xlink:href="#DejaVuSans-45"/>
     <use x="1330.757812" xlink:href="#DejaVuSans-32"/>
     <use x="1362.544922" xlink:href="#DejaVuSans-70"/>
     <use x="1412.814453" xlink:href="#DejaVuSans-114"/>
     <use x="1453.927734" xlink:href="#DejaVuSans-97"/>
     <use x="1515.207031" xlink:href="#DejaVuSans-109"/>
     <use x="1612.619141" xlink:href="#DejaVuSans-101"/>
     <use x="1674.142578" xlink:href="#DejaVuSans-32"/>
     <use x="1705.929688" xlink:href="#DejaVuSans-49"/>
     <use x="1769.552734" xlink:href="#DejaVuSans-51"/>
    </g>
   </g>
  </g>
 </g>
 <defs>
  <clipPath id="paa9a4f0b93">
   <rect height="864" width="576" x="0" y="0"/>
  </clipPath>
 </defs>
</svg>
