<?xml version="1.0" encoding="utf-8" standalone="no"?>
<!DOCTYPE svg PUBLIC "-//W3C//DTD SVG 1.1//EN"
  "http://www.w3.org/Graphics/SVG/1.1/DTD/svg11.dtd">
<!-- Created with matplotlib (https://matplotlib.org/) -->
<svg height="864pt" version="1.1" viewBox="0 0 576 864" width="576pt" xmlns="http://www.w3.org/2000/svg" xmlns:xlink="http://www.w3.org/1999/xlink">
 <metadata>
  <rdf:RDF xmlns:cc="http://creativecommons.org/ns#" xmlns:dc="http://purl.org/dc/elements/1.1/" xmlns:rdf="http://www.w3.org/1999/02/22-rdf-syntax-ns#">
   <cc:Work>
    <dc:type rdf:resource="http://purl.org/dc/dcmitype/StillImage"/>
    <dc:date>2024-02-04T22:27:48.380037</dc:date>
    <dc:format>image/svg+xml</dc:format>
    <dc:creator>
     <cc:Agent>
      <dc:title>Matplotlib v3.3.2, https://matplotlib.org/</dc:title>
     </cc:Agent>
    </dc:creator>
   </cc:Work>
  </rdf:RDF>
 </metadata>
 <defs>
  <style type="text/css">*{stroke-linecap:butt;stroke-linejoin:round;}</style>
 </defs>
 <g id="figure_1">
  <g id="patch_1">
   <path d="M 0 864 
L 576 864 
L 576 0 
L 0 0 
z
" style="fill:#ffffff;"/>
  </g>
  <g id="axes_1">
   <g id="patch_2">
    <path clip-path="url(#pff69a8fc2f)" d="M 333.828576 87.597072 
Q 331.084737 96.326446 328.67615 103.989234 
" style="fill:none;stroke:#000000;stroke-linecap:round;"/>
    <path clip-path="url(#pff69a8fc2f)" d="M 331.783551 100.773016 
L 328.67615 103.989234 
L 327.967617 99.573582 
L 331.783551 100.773016 
z
" style="stroke:#000000;stroke-linecap:round;"/>
   </g>
   <g id="patch_3">
    <path clip-path="url(#pff69a8fc2f)" d="M 321.747366 130.640742 
Q 321.50903 131.817066 321.492709 131.897621 
" style="fill:none;stroke:#000000;stroke-linecap:round;"/>
    <path clip-path="url(#pff69a8fc2f)" d="M 324.247184 128.374431 
L 321.492709 131.897621 
L 320.326842 127.580127 
L 324.247184 128.374431 
z
" style="stroke:#000000;stroke-linecap:round;"/>
   </g>
   <g id="patch_4">
    <path clip-path="url(#pff69a8fc2f)" d="M 328.341642 105.053453 
Q 331.085481 96.324079 333.494068 88.661292 
" style="fill:none;stroke:#000000;stroke-linecap:round;"/>
    <path clip-path="url(#pff69a8fc2f)" d="M 330.386666 91.877509 
L 333.494068 88.661292 
L 334.202601 93.076943 
L 330.386666 91.877509 
z
" style="stroke:#000000;stroke-linecap:round;"/>
   </g>
   <g id="patch_5">
    <path clip-path="url(#pff69a8fc2f)" d="M 316.029565 158.92919 
Q 309.819458 189.740835 303.830248 219.456486 
" style="fill:none;stroke:#000000;stroke-linecap:round;"/>
    <path clip-path="url(#pff69a8fc2f)" d="M 306.581133 215.930492 
L 303.830248 219.456486 
L 302.659984 215.140182 
L 306.581133 215.930492 
z
" style="stroke:#000000;stroke-linecap:round;"/>
   </g>
   <g id="patch_6">
    <path clip-path="url(#pff69a8fc2f)" d="M 305.46458 144.838373 
Q 231.843992 138.566998 159.337403 132.390519 
" style="fill:none;stroke:#000000;stroke-linecap:round;"/>
    <path clip-path="url(#pff69a8fc2f)" d="M 163.153213 134.722813 
L 159.337403 132.390519 
L 163.492724 130.737247 
L 163.153213 134.722813 
z
" style="stroke:#000000;stroke-linecap:round;"/>
   </g>
   <g id="patch_7">
    <path clip-path="url(#pff69a8fc2f)" d="M 331.850496 146.743928 
Q 409.27801 151.333842 485.589449 155.857596 
" style="fill:none;stroke:#000000;stroke-linecap:round;"/>
    <path clip-path="url(#pff69a8fc2f)" d="M 481.714811 153.624395 
L 485.589449 155.857596 
L 481.478106 157.617386 
L 481.714811 153.624395 
z
" style="stroke:#000000;stroke-linecap:round;"/>
   </g>
   <g id="patch_8">
    <path clip-path="url(#pff69a8fc2f)" d="M 321.27025 132.995581 
Q 321.508586 131.819257 321.524907 131.738702 
" style="fill:none;stroke:#000000;stroke-linecap:round;"/>
    <path clip-path="url(#pff69a8fc2f)" d="M 318.770432 135.261891 
L 321.524907 131.738702 
L 322.690774 136.056196 
L 318.770432 135.261891 
z
" style="stroke:#000000;stroke-linecap:round;"/>
   </g>
   <g id="patch_9">
    <path clip-path="url(#pff69a8fc2f)" d="M 298.417973 246.49719 
Q 289.051172 293.652486 279.902198 339.711172 
" style="fill:none;stroke:#000000;stroke-linecap:round;"/>
    <path clip-path="url(#pff69a8fc2f)" d="M 282.643195 336.177487 
L 279.902198 339.711172 
L 278.719848 335.398163 
L 282.643195 336.177487 
z
" style="stroke:#000000;stroke-linecap:round;"/>
   </g>
   <g id="patch_10">
    <path clip-path="url(#pff69a8fc2f)" d="M 303.608749 220.555463 
Q 309.818857 189.743817 315.808066 160.028166 
" style="fill:none;stroke:#000000;stroke-linecap:round;"/>
    <path clip-path="url(#pff69a8fc2f)" d="M 313.057181 163.55416 
L 315.808066 160.028166 
L 316.97833 164.344471 
L 313.057181 163.55416 
z
" style="stroke:#000000;stroke-linecap:round;"/>
   </g>
   <g id="patch_11">
    <path clip-path="url(#pff69a8fc2f)" d="M 263.883231 353.458482 
Q 236.821019 352.79424 210.876505 352.157431 
" style="fill:none;stroke:#000000;stroke-linecap:round;"/>
    <path clip-path="url(#pff69a8fc2f)" d="M 214.826226 354.25498 
L 210.876505 352.157431 
L 214.924376 350.256184 
L 214.826226 354.25498 
z
" style="stroke:#000000;stroke-linecap:round;"/>
   </g>
   <g id="patch_12">
    <path clip-path="url(#pff69a8fc2f)" d="M 290.275274 355.032098 
Q 317.252023 357.5909 343.115735 360.044128 
" style="fill:none;stroke:#000000;stroke-linecap:round;"/>
    <path clip-path="url(#pff69a8fc2f)" d="M 339.322465 357.675351 
L 343.115735 360.044128 
L 338.944751 361.657478 
L 339.322465 357.675351 
z
" style="stroke:#000000;stroke-linecap:round;"/>
   </g>
   <g id="patch_13">
    <path clip-path="url(#pff69a8fc2f)" d="M 279.684026 340.809517 
Q 289.050827 293.654222 298.199801 247.595535 
" style="fill:none;stroke:#000000;stroke-linecap:round;"/>
    <path clip-path="url(#pff69a8fc2f)" d="M 295.458804 251.129221 
L 298.199801 247.595535 
L 299.382151 251.908544 
L 295.458804 251.129221 
z
" style="stroke:#000000;stroke-linecap:round;"/>
   </g>
   <g id="patch_14">
    <path clip-path="url(#pff69a8fc2f)" d="M 135.300811 140.124186 
Q 97.512322 174.860604 60.546943 208.840392 
" style="fill:none;stroke:#000000;stroke-linecap:round;"/>
    <path clip-path="url(#pff69a8fc2f)" d="M 64.845294 207.605815 
L 60.546943 208.840392 
L 62.138292 204.660965 
L 64.845294 207.605815 
z
" style="stroke:#000000;stroke-linecap:round;"/>
   </g>
   <g id="patch_15">
    <path clip-path="url(#pff69a8fc2f)" d="M 158.217747 132.295141 
Q 231.838335 138.566516 304.344924 144.742995 
" style="fill:none;stroke:#000000;stroke-linecap:round;"/>
    <path clip-path="url(#pff69a8fc2f)" d="M 300.529113 142.410702 
L 304.344924 144.742995 
L 300.189603 146.396267 
L 300.529113 142.410702 
z
" style="stroke:#000000;stroke-linecap:round;"/>
   </g>
   <g id="patch_16">
    <path clip-path="url(#pff69a8fc2f)" d="M 62.677122 222.260457 
Q 124.979232 240.468522 186.2082 258.362957 
" style="fill:none;stroke:#000000;stroke-linecap:round;"/>
    <path clip-path="url(#pff69a8fc2f)" d="M 182.929847 255.321181 
L 186.2082 258.362957 
L 181.807768 259.160574 
L 182.929847 255.321181 
z
" style="stroke:#000000;stroke-linecap:round;"/>
   </g>
   <g id="patch_17">
    <path clip-path="url(#pff69a8fc2f)" d="M 59.721675 209.599006 
Q 97.510164 174.862588 134.475543 140.8828 
" style="fill:none;stroke:#000000;stroke-linecap:round;"/>
    <path clip-path="url(#pff69a8fc2f)" d="M 130.177192 142.117377 
L 134.475543 140.8828 
L 132.884195 145.062227 
L 130.177192 142.117377 
z
" style="stroke:#000000;stroke-linecap:round;"/>
   </g>
   <g id="patch_18">
    <path clip-path="url(#pff69a8fc2f)" d="M 212.720425 265.950258 
Q 238.107031 273.048724 262.416903 279.846119 
" style="fill:none;stroke:#000000;stroke-linecap:round;"/>
    <path clip-path="url(#pff69a8fc2f)" d="M 259.103233 276.842856 
L 262.416903 279.846119 
L 258.02609 280.695097 
L 259.103233 276.842856 
z
" style="stroke:#000000;stroke-linecap:round;"/>
   </g>
   <g id="patch_19">
    <path clip-path="url(#pff69a8fc2f)" d="M 187.288214 258.678596 
Q 124.986103 240.47053 63.757135 222.576096 
" style="fill:none;stroke:#000000;stroke-linecap:round;"/>
    <path clip-path="url(#pff69a8fc2f)" d="M 67.035488 225.617872 
L 63.757135 222.576096 
L 68.157568 221.778479 
L 67.035488 225.617872 
z
" style="stroke:#000000;stroke-linecap:round;"/>
   </g>
   <g id="patch_20">
    <path clip-path="url(#pff69a8fc2f)" d="M 288.806328 287.835217 
Q 302.140738 292.211055 314.412851 296.238287 
" style="fill:none;stroke:#000000;stroke-linecap:round;"/>
    <path clip-path="url(#pff69a8fc2f)" d="M 311.235865 293.090786 
L 314.412851 296.238287 
L 309.988658 296.891375 
L 311.235865 293.090786 
z
" style="stroke:#000000;stroke-linecap:round;"/>
   </g>
   <g id="patch_21">
    <path clip-path="url(#pff69a8fc2f)" d="M 276.236368 283.710243 
Q 277.764779 282.080742 278.528319 281.2667 
" style="fill:none;stroke:#000000;stroke-linecap:round;"/>
    <path clip-path="url(#pff69a8fc2f)" d="M 274.333099 282.815936 
L 278.528319 281.2667 
L 277.250576 285.552417 
L 274.333099 282.815936 
z
" style="stroke:#000000;stroke-linecap:round;"/>
   </g>
   <g id="patch_22">
    <path clip-path="url(#pff69a8fc2f)" d="M 263.497808 280.148356 
Q 238.111202 273.04989 213.801329 266.252495 
" style="fill:none;stroke:#000000;stroke-linecap:round;"/>
    <path clip-path="url(#pff69a8fc2f)" d="M 217.114999 269.255759 
L 213.801329 266.252495 
L 218.192142 265.403517 
L 217.114999 269.255759 
z
" style="stroke:#000000;stroke-linecap:round;"/>
   </g>
   <g id="patch_23">
    <path clip-path="url(#pff69a8fc2f)" d="M 502.893229 169.597562 
Q 512.963451 213.105526 522.781562 255.524251 
" style="fill:none;stroke:#000000;stroke-linecap:round;"/>
    <path clip-path="url(#pff69a8fc2f)" d="M 523.828068 251.176283 
L 522.781562 255.524251 
L 519.931091 252.078266 
L 523.828068 251.176283 
z
" style="stroke:#000000;stroke-linecap:round;"/>
   </g>
   <g id="patch_24">
    <path clip-path="url(#pff69a8fc2f)" d="M 486.702315 155.923566 
Q 409.274802 151.333652 332.963363 146.809899 
" style="fill:none;stroke:#000000;stroke-linecap:round;"/>
    <path clip-path="url(#pff69a8fc2f)" d="M 336.838001 149.043099 
L 332.963363 146.809899 
L 337.074706 145.050109 
L 336.838001 149.043099 
z
" style="stroke:#000000;stroke-linecap:round;"/>
   </g>
   <g id="patch_25">
    <path clip-path="url(#pff69a8fc2f)" d="M 512.896895 271.178299 
Q 437.250322 280.850681 362.712755 290.381262 
" style="fill:none;stroke:#000000;stroke-linecap:round;"/>
    <path clip-path="url(#pff69a8fc2f)" d="M 366.934113 291.85779 
L 362.712755 290.381262 
L 366.426792 287.890092 
L 366.934113 291.85779 
z
" style="stroke:#000000;stroke-linecap:round;"/>
   </g>
   <g id="patch_26">
    <path clip-path="url(#pff69a8fc2f)" d="M 523.0328 256.609714 
Q 512.962577 213.10175 503.144467 170.683025 
" style="fill:none;stroke:#000000;stroke-linecap:round;"/>
    <path clip-path="url(#pff69a8fc2f)" d="M 502.097961 175.030993 
L 503.144467 170.683025 
L 505.994937 174.12901 
L 502.097961 175.030993 
z
" style="stroke:#000000;stroke-linecap:round;"/>
   </g>
   <g id="patch_27">
    <path clip-path="url(#pff69a8fc2f)" d="M 335.496005 294.717267 
Q 334.242023 294.960274 334.085655 294.990576 
" style="fill:none;stroke:#000000;stroke-linecap:round;"/>
    <path clip-path="url(#pff69a8fc2f)" d="M 338.393097 296.193051 
L 334.085655 294.990576 
L 337.6321 292.266108 
L 338.393097 296.193051 
z
" style="stroke:#000000;stroke-linecap:round;"/>
   </g>
   <g id="patch_28">
    <path clip-path="url(#pff69a8fc2f)" d="M 361.599854 290.52356 
Q 437.246427 280.851179 511.783994 271.320597 
" style="fill:none;stroke:#000000;stroke-linecap:round;"/>
    <path clip-path="url(#pff69a8fc2f)" d="M 507.562636 269.844069 
L 511.783994 271.320597 
L 508.069957 273.811767 
L 507.562636 269.844069 
z
" style="stroke:#000000;stroke-linecap:round;"/>
   </g>
   <g id="patch_29">
    <path clip-path="url(#pff69a8fc2f)" d="M 306.796524 298.536413 
Q 305.830213 298.596165 305.979804 298.586915 
" style="fill:none;stroke:#000000;stroke-linecap:round;"/>
    <path clip-path="url(#pff69a8fc2f)" d="M 310.095614 300.336232 
L 305.979804 298.586915 
L 309.848744 296.343858 
L 310.095614 300.336232 
z
" style="stroke:#000000;stroke-linecap:round;"/>
   </g>
   <g id="patch_30">
    <path clip-path="url(#pff69a8fc2f)" d="M 307.833705 292.524276 
Q 305.87104 291.686254 304.9366 291.287265 
" style="fill:none;stroke:#000000;stroke-linecap:round;"/>
    <path clip-path="url(#pff69a8fc2f)" d="M 307.829926 294.697348 
L 304.9366 291.287265 
L 309.400662 291.018654 
L 307.829926 294.697348 
z
" style="stroke:#000000;stroke-linecap:round;"/>
   </g>
   <g id="patch_31">
    <path clip-path="url(#pff69a8fc2f)" d="M 332.986071 295.203663 
Q 334.240053 294.960656 334.396421 294.930354 
" style="fill:none;stroke:#000000;stroke-linecap:round;"/>
    <path clip-path="url(#pff69a8fc2f)" d="M 330.088979 293.727879 
L 334.396421 294.930354 
L 330.849976 297.654822 
L 330.088979 293.727879 
z
" style="stroke:#000000;stroke-linecap:round;"/>
   </g>
   <g id="patch_32">
    <path clip-path="url(#pff69a8fc2f)" d="M 190.324741 363.488362 
Q 150.732577 437.970803 111.665185 511.466018 
" style="fill:none;stroke:#000000;stroke-linecap:round;"/>
    <path clip-path="url(#pff69a8fc2f)" d="M 115.308672 508.872757 
L 111.665185 511.466018 
L 111.776668 506.995272 
L 115.308672 508.872757 
z
" style="stroke:#000000;stroke-linecap:round;"/>
   </g>
   <g id="patch_33">
    <path clip-path="url(#pff69a8fc2f)" d="M 209.758736 352.129996 
Q 236.820948 352.794238 262.765462 353.431046 
" style="fill:none;stroke:#000000;stroke-linecap:round;"/>
    <path clip-path="url(#pff69a8fc2f)" d="M 258.815741 351.333498 
L 262.765462 353.431046 
L 258.717591 355.332293 
L 258.815741 351.333498 
z
" style="stroke:#000000;stroke-linecap:round;"/>
   </g>
   <g id="patch_34">
    <path clip-path="url(#pff69a8fc2f)" d="M 104.211193 537.342376 
Q 100.814413 599.620193 97.478524 660.781636 
" style="fill:none;stroke:#000000;stroke-linecap:round;"/>
    <path clip-path="url(#pff69a8fc2f)" d="M 99.693401 656.896495 
L 97.478524 660.781636 
L 95.699337 656.67865 
L 99.693401 656.896495 
z
" style="stroke:#000000;stroke-linecap:round;"/>
   </g>
   <g id="patch_35">
    <path clip-path="url(#pff69a8fc2f)" d="M 111.141869 512.450503 
Q 150.734033 437.968062 189.801425 364.472847 
" style="fill:none;stroke:#000000;stroke-linecap:round;"/>
    <path clip-path="url(#pff69a8fc2f)" d="M 186.157938 367.066108 
L 189.801425 364.472847 
L 189.689941 368.943593 
L 186.157938 367.066108 
z
" style="stroke:#000000;stroke-linecap:round;"/>
   </g>
   <g id="patch_36">
    <path clip-path="url(#pff69a8fc2f)" d="M 91.808895 687.393924 
Q 87.962867 697.063679 84.53004 705.694557 
" style="fill:none;stroke:#000000;stroke-linecap:round;"/>
    <path clip-path="url(#pff69a8fc2f)" d="M 87.866752 702.716914 
L 84.53004 705.694557 
L 84.149953 701.238603 
L 87.866752 702.716914 
z
" style="stroke:#000000;stroke-linecap:round;"/>
   </g>
   <g id="patch_37">
    <path clip-path="url(#pff69a8fc2f)" d="M 97.417839 661.89424 
Q 100.814619 599.616423 104.150509 538.454981 
" style="fill:none;stroke:#000000;stroke-linecap:round;"/>
    <path clip-path="url(#pff69a8fc2f)" d="M 101.935632 542.340121 
L 104.150509 538.454981 
L 105.929695 542.557967 
L 101.935632 542.340121 
z
" style="stroke:#000000;stroke-linecap:round;"/>
   </g>
   <g id="patch_38">
    <path clip-path="url(#pff69a8fc2f)" d="M 84.117374 706.732092 
Q 87.963401 697.062336 91.396228 688.431458 
" style="fill:none;stroke:#000000;stroke-linecap:round;"/>
    <path clip-path="url(#pff69a8fc2f)" d="M 88.059517 691.409101 
L 91.396228 688.431458 
L 91.776316 692.887413 
L 88.059517 691.409101 
z
" style="stroke:#000000;stroke-linecap:round;"/>
   </g>
   <g id="patch_39">
    <path clip-path="url(#pff69a8fc2f)" d="M 356.302455 374.582926 
Q 349.002601 462.217467 341.795557 548.737833 
" style="fill:none;stroke:#000000;stroke-linecap:round;"/>
    <path clip-path="url(#pff69a8fc2f)" d="M 344.120699 544.917662 
L 341.795557 548.737833 
L 340.134505 544.585616 
L 344.120699 544.917662 
z
" style="stroke:#000000;stroke-linecap:round;"/>
   </g>
   <g id="patch_40">
    <path clip-path="url(#pff69a8fc2f)" d="M 344.232376 360.150043 
Q 317.255627 357.591242 291.391916 355.138014 
" style="fill:none;stroke:#000000;stroke-linecap:round;"/>
    <path clip-path="url(#pff69a8fc2f)" d="M 295.185186 357.50679 
L 291.391916 355.138014 
L 295.562899 353.524664 
L 295.185186 357.50679 
z
" style="stroke:#000000;stroke-linecap:round;"/>
   </g>
   <g id="patch_41">
    <path clip-path="url(#pff69a8fc2f)" d="M 336.238686 575.526031 
Q 308.06885 656.113113 280.267942 735.644784 
" style="fill:none;stroke:#000000;stroke-linecap:round;"/>
    <path clip-path="url(#pff69a8fc2f)" d="M 283.475832 732.528787 
L 280.267942 735.644784 
L 279.699879 731.208873 
L 283.475832 732.528787 
z
" style="stroke:#000000;stroke-linecap:round;"/>
   </g>
   <g id="patch_42">
    <path clip-path="url(#pff69a8fc2f)" d="M 341.702692 549.852669 
Q 349.002546 462.218128 356.209591 375.697762 
" style="fill:none;stroke:#000000;stroke-linecap:round;"/>
    <path clip-path="url(#pff69a8fc2f)" d="M 353.884448 379.517934 
L 356.209591 375.697762 
L 357.870642 379.849979 
L 353.884448 379.517934 
z
" style="stroke:#000000;stroke-linecap:round;"/>
   </g>
   <g id="patch_43">
    <path clip-path="url(#pff69a8fc2f)" d="M 278.840375 762.000043 
Q 280.675082 769.107565 282.230345 775.13254 
" style="fill:none;stroke:#000000;stroke-linecap:round;"/>
    <path clip-path="url(#pff69a8fc2f)" d="M 283.167095 770.759612 
L 282.230345 775.13254 
L 279.294052 771.759383 
L 283.167095 770.759612 
z
" style="stroke:#000000;stroke-linecap:round;"/>
   </g>
   <g id="patch_44">
    <path clip-path="url(#pff69a8fc2f)" d="M 279.899222 736.699602 
Q 308.069058 656.11252 335.869967 576.580849 
" style="fill:none;stroke:#000000;stroke-linecap:round;"/>
    <path clip-path="url(#pff69a8fc2f)" d="M 332.662076 579.696846 
L 335.869967 576.580849 
L 336.43803 581.016759 
L 332.662076 579.696846 
z
" style="stroke:#000000;stroke-linecap:round;"/>
   </g>
   <g id="patch_45">
    <path clip-path="url(#pff69a8fc2f)" d="M 282.509475 776.21387 
Q 280.674768 769.106348 279.119505 763.081373 
" style="fill:none;stroke:#000000;stroke-linecap:round;"/>
    <path clip-path="url(#pff69a8fc2f)" d="M 278.182756 767.454301 
L 279.119505 763.081373 
L 282.055798 766.45453 
L 278.182756 767.454301 
z
" style="stroke:#000000;stroke-linecap:round;"/>
   </g>
   <g id="patch_46">
    <path clip-path="url(#pff69a8fc2f)" d="M 315.476777 296.587426 
Q 302.142367 292.211589 289.870254 288.184357 
" style="fill:none;stroke:#000000;stroke-linecap:round;"/>
    <path clip-path="url(#pff69a8fc2f)" d="M 293.04724 291.331857 
L 289.870254 288.184357 
L 294.294446 287.531268 
L 293.04724 291.331857 
z
" style="stroke:#000000;stroke-linecap:round;"/>
   </g>
   <g id="patch_47">
    <path clip-path="url(#pff69a8fc2f)" d="M 279.293189 280.451241 
Q 277.764779 282.080742 277.001238 282.894784 
" style="fill:none;stroke:#000000;stroke-linecap:round;"/>
    <path clip-path="url(#pff69a8fc2f)" d="M 281.196458 281.345548 
L 277.001238 282.894784 
L 278.278982 278.609067 
L 281.196458 281.345548 
z
" style="stroke:#000000;stroke-linecap:round;"/>
   </g>
   <g id="patch_48">
    <path clip-path="url(#pff69a8fc2f)" d="M 304.866061 298.655783 
Q 305.832372 298.596031 305.682781 298.605281 
" style="fill:none;stroke:#000000;stroke-linecap:round;"/>
    <path clip-path="url(#pff69a8fc2f)" d="M 301.566971 296.855964 
L 305.682781 298.605281 
L 301.813841 300.848338 
L 301.566971 296.855964 
z
" style="stroke:#000000;stroke-linecap:round;"/>
   </g>
   <g id="patch_49">
    <path clip-path="url(#pff69a8fc2f)" d="M 303.907605 290.847903 
Q 305.870271 291.685925 306.80471 292.084914 
" style="fill:none;stroke:#000000;stroke-linecap:round;"/>
    <path clip-path="url(#pff69a8fc2f)" d="M 303.911384 288.674831 
L 306.80471 292.084914 
L 302.340648 292.353525 
L 303.911384 288.674831 
z
" style="stroke:#000000;stroke-linecap:round;"/>
   </g>
   <g id="PathCollection_1">
    <defs>
     <path d="M 0 13.228757 
C 3.508307 13.228757 6.873396 11.834891 9.354143 9.354143 
C 11.834891 6.873396 13.228757 3.508307 13.228757 0 
C 13.228757 -3.508307 11.834891 -6.873396 9.354143 -9.354143 
C 6.873396 -11.834891 3.508307 -13.228757 0 -13.228757 
C -3.508307 -13.228757 -6.873396 -11.834891 -9.354143 -9.354143 
C -11.834891 -6.873396 -13.228757 -3.508307 -13.228757 0 
C -13.228757 3.508307 -11.834891 6.873396 -9.354143 9.354143 
C -6.873396 11.834891 -3.508307 13.228757 0 13.228757 
z
" id="m4428250bae" style="stroke:#87ceeb;"/>
    </defs>
    <g clip-path="url(#pff69a8fc2f)">
     <use style="fill:#87ceeb;stroke:#87ceeb;" x="337.795913" xlink:href="#m4428250bae" y="74.975207"/>
     <use style="fill:#87ceeb;stroke:#87ceeb;" x="324.374304" xlink:href="#m4428250bae" y="117.675319"/>
     <use style="fill:#87ceeb;stroke:#87ceeb;" x="318.643312" xlink:href="#m4428250bae" y="145.961004"/>
     <use style="fill:#87ceeb;stroke:#87ceeb;" x="300.995002" xlink:href="#m4428250bae" y="233.523648"/>
     <use style="fill:#87ceeb;stroke:#87ceeb;" x="277.106996" xlink:href="#m4428250bae" y="353.783059"/>
     <use style="fill:#87ceeb;stroke:#87ceeb;" x="145.039015" xlink:href="#m4428250bae" y="131.17251"/>
     <use style="fill:#87ceeb;stroke:#87ceeb;" x="49.983471" xlink:href="#m4428250bae" y="218.550682"/>
     <use style="fill:#87ceeb;stroke:#87ceeb;" x="199.981864" xlink:href="#m4428250bae" y="262.388371"/>
     <use style="fill:#87ceeb;stroke:#87ceeb;" x="276.236368" xlink:href="#m4428250bae" y="283.710243"/>
     <use style="fill:#87ceeb;stroke:#87ceeb;" x="499.9095" xlink:href="#m4428250bae" y="156.70649"/>
     <use style="fill:#87ceeb;stroke:#87ceeb;" x="526.016529" xlink:href="#m4428250bae" y="269.500786"/>
     <use style="fill:#87ceeb;stroke:#87ceeb;" x="348.48022" xlink:href="#m4428250bae" y="292.201073"/>
     <use style="fill:#87ceeb;stroke:#87ceeb;" x="320.001856" xlink:href="#m4428250bae" y="297.719857"/>
     <use style="fill:#87ceeb;stroke:#87ceeb;" x="196.53497" xlink:href="#m4428250bae" y="351.805418"/>
     <use style="fill:#87ceeb;stroke:#87ceeb;" x="104.931639" xlink:href="#m4428250bae" y="524.133447"/>
     <use style="fill:#87ceeb;stroke:#87ceeb;" x="96.697393" xlink:href="#m4428250bae" y="675.10317"/>
     <use style="fill:#87ceeb;stroke:#87ceeb;" x="79.228876" xlink:href="#m4428250bae" y="719.022846"/>
     <use style="fill:#87ceeb;stroke:#87ceeb;" x="357.400654" xlink:href="#m4428250bae" y="361.399082"/>
     <use style="fill:#87ceeb;stroke:#87ceeb;" x="340.604493" xlink:href="#m4428250bae" y="563.036513"/>
     <use style="fill:#87ceeb;stroke:#87ceeb;" x="275.533415" xlink:href="#m4428250bae" y="749.189119"/>
     <use style="fill:#87ceeb;stroke:#87ceeb;" x="285.816435" xlink:href="#m4428250bae" y="789.024793"/>
     <use style="fill:#87ceeb;stroke:#87ceeb;" x="328.046736" xlink:href="#m4428250bae" y="300.7124"/>
     <use style="fill:#87ceeb;stroke:#87ceeb;" x="279.293189" xlink:href="#m4428250bae" y="280.451241"/>
     <use style="fill:#87ceeb;stroke:#87ceeb;" x="291.660729" xlink:href="#m4428250bae" y="299.472339"/>
     <use style="fill:#87ceeb;stroke:#87ceeb;" x="291.739454" xlink:href="#m4428250bae" y="285.652322"/>
    </g>
   </g>
   <g id="text_1">
    <g clip-path="url(#pff69a8fc2f)">
     <!-- Head -->
     <g transform="translate(324.720913 77.734582)scale(0.1 -0.1)">
      <defs>
       <path d="M 9.8125 72.90625 
L 19.671875 72.90625 
L 19.671875 43.015625 
L 55.515625 43.015625 
L 55.515625 72.90625 
L 65.375 72.90625 
L 65.375 0 
L 55.515625 0 
L 55.515625 34.71875 
L 19.671875 34.71875 
L 19.671875 0 
L 9.8125 0 
z
" id="DejaVuSans-72"/>
       <path d="M 56.203125 29.59375 
L 56.203125 25.203125 
L 14.890625 25.203125 
Q 15.484375 15.921875 20.484375 11.0625 
Q 25.484375 6.203125 34.421875 6.203125 
Q 39.59375 6.203125 44.453125 7.46875 
Q 49.3125 8.734375 54.109375 11.28125 
L 54.109375 2.78125 
Q 49.265625 0.734375 44.1875 -0.34375 
Q 39.109375 -1.421875 33.890625 -1.421875 
Q 20.796875 -1.421875 13.15625 6.1875 
Q 5.515625 13.8125 5.515625 26.8125 
Q 5.515625 40.234375 12.765625 48.109375 
Q 20.015625 56 32.328125 56 
Q 43.359375 56 49.78125 48.890625 
Q 56.203125 41.796875 56.203125 29.59375 
z
M 47.21875 32.234375 
Q 47.125 39.59375 43.09375 43.984375 
Q 39.0625 48.390625 32.421875 48.390625 
Q 24.90625 48.390625 20.390625 44.140625 
Q 15.875 39.890625 15.1875 32.171875 
z
" id="DejaVuSans-101"/>
       <path d="M 34.28125 27.484375 
Q 23.390625 27.484375 19.1875 25 
Q 14.984375 22.515625 14.984375 16.5 
Q 14.984375 11.71875 18.140625 8.90625 
Q 21.296875 6.109375 26.703125 6.109375 
Q 34.1875 6.109375 38.703125 11.40625 
Q 43.21875 16.703125 43.21875 25.484375 
L 43.21875 27.484375 
z
M 52.203125 31.203125 
L 52.203125 0 
L 43.21875 0 
L 43.21875 8.296875 
Q 40.140625 3.328125 35.546875 0.953125 
Q 30.953125 -1.421875 24.3125 -1.421875 
Q 15.921875 -1.421875 10.953125 3.296875 
Q 6 8.015625 6 15.921875 
Q 6 25.140625 12.171875 29.828125 
Q 18.359375 34.515625 30.609375 34.515625 
L 43.21875 34.515625 
L 43.21875 35.40625 
Q 43.21875 41.609375 39.140625 45 
Q 35.0625 48.390625 27.6875 48.390625 
Q 23 48.390625 18.546875 47.265625 
Q 14.109375 46.140625 10.015625 43.890625 
L 10.015625 52.203125 
Q 14.9375 54.109375 19.578125 55.046875 
Q 24.21875 56 28.609375 56 
Q 40.484375 56 46.34375 49.84375 
Q 52.203125 43.703125 52.203125 31.203125 
z
" id="DejaVuSans-97"/>
       <path d="M 45.40625 46.390625 
L 45.40625 75.984375 
L 54.390625 75.984375 
L 54.390625 0 
L 45.40625 0 
L 45.40625 8.203125 
Q 42.578125 3.328125 38.25 0.953125 
Q 33.9375 -1.421875 27.875 -1.421875 
Q 17.96875 -1.421875 11.734375 6.484375 
Q 5.515625 14.40625 5.515625 27.296875 
Q 5.515625 40.1875 11.734375 48.09375 
Q 17.96875 56 27.875 56 
Q 33.9375 56 38.25 53.625 
Q 42.578125 51.265625 45.40625 46.390625 
z
M 14.796875 27.296875 
Q 14.796875 17.390625 18.875 11.75 
Q 22.953125 6.109375 30.078125 6.109375 
Q 37.203125 6.109375 41.296875 11.75 
Q 45.40625 17.390625 45.40625 27.296875 
Q 45.40625 37.203125 41.296875 42.84375 
Q 37.203125 48.484375 30.078125 48.484375 
Q 22.953125 48.484375 18.875 42.84375 
Q 14.796875 37.203125 14.796875 27.296875 
z
" id="DejaVuSans-100"/>
      </defs>
      <use xlink:href="#DejaVuSans-72"/>
      <use x="75.195312" xlink:href="#DejaVuSans-101"/>
      <use x="136.71875" xlink:href="#DejaVuSans-97"/>
      <use x="197.998047" xlink:href="#DejaVuSans-100"/>
     </g>
    </g>
   </g>
   <g id="text_2">
    <g clip-path="url(#pff69a8fc2f)">
     <!-- c7 -->
     <g transform="translate(318.443836 120.434694)scale(0.1 -0.1)">
      <defs>
       <path d="M 48.78125 52.59375 
L 48.78125 44.1875 
Q 44.96875 46.296875 41.140625 47.34375 
Q 37.3125 48.390625 33.40625 48.390625 
Q 24.65625 48.390625 19.8125 42.84375 
Q 14.984375 37.3125 14.984375 27.296875 
Q 14.984375 17.28125 19.8125 11.734375 
Q 24.65625 6.203125 33.40625 6.203125 
Q 37.3125 6.203125 41.140625 7.25 
Q 44.96875 8.296875 48.78125 10.40625 
L 48.78125 2.09375 
Q 45.015625 0.34375 40.984375 -0.53125 
Q 36.96875 -1.421875 32.421875 -1.421875 
Q 20.0625 -1.421875 12.78125 6.34375 
Q 5.515625 14.109375 5.515625 27.296875 
Q 5.515625 40.671875 12.859375 48.328125 
Q 20.21875 56 33.015625 56 
Q 37.15625 56 41.109375 55.140625 
Q 45.0625 54.296875 48.78125 52.59375 
z
" id="DejaVuSans-99"/>
       <path d="M 8.203125 72.90625 
L 55.078125 72.90625 
L 55.078125 68.703125 
L 28.609375 0 
L 18.3125 0 
L 43.21875 64.59375 
L 8.203125 64.59375 
z
" id="DejaVuSans-55"/>
      </defs>
      <use xlink:href="#DejaVuSans-99"/>
      <use x="54.980469" xlink:href="#DejaVuSans-55"/>
     </g>
    </g>
   </g>
   <g id="text_3">
    <g clip-path="url(#pff69a8fc2f)">
     <!-- SpineShoulder -->
     <g transform="translate(282.394093 148.720379)scale(0.1 -0.1)">
      <defs>
       <path d="M 53.515625 70.515625 
L 53.515625 60.890625 
Q 47.90625 63.578125 42.921875 64.890625 
Q 37.9375 66.21875 33.296875 66.21875 
Q 25.25 66.21875 20.875 63.09375 
Q 16.5 59.96875 16.5 54.203125 
Q 16.5 49.359375 19.40625 46.890625 
Q 22.3125 44.4375 30.421875 42.921875 
L 36.375 41.703125 
Q 47.40625 39.59375 52.65625 34.296875 
Q 57.90625 29 57.90625 20.125 
Q 57.90625 9.515625 50.796875 4.046875 
Q 43.703125 -1.421875 29.984375 -1.421875 
Q 24.8125 -1.421875 18.96875 -0.25 
Q 13.140625 0.921875 6.890625 3.21875 
L 6.890625 13.375 
Q 12.890625 10.015625 18.65625 8.296875 
Q 24.421875 6.59375 29.984375 6.59375 
Q 38.421875 6.59375 43.015625 9.90625 
Q 47.609375 13.234375 47.609375 19.390625 
Q 47.609375 24.75 44.3125 27.78125 
Q 41.015625 30.8125 33.5 32.328125 
L 27.484375 33.5 
Q 16.453125 35.6875 11.515625 40.375 
Q 6.59375 45.0625 6.59375 53.421875 
Q 6.59375 63.09375 13.40625 68.65625 
Q 20.21875 74.21875 32.171875 74.21875 
Q 37.3125 74.21875 42.625 73.28125 
Q 47.953125 72.359375 53.515625 70.515625 
z
" id="DejaVuSans-83"/>
       <path d="M 18.109375 8.203125 
L 18.109375 -20.796875 
L 9.078125 -20.796875 
L 9.078125 54.6875 
L 18.109375 54.6875 
L 18.109375 46.390625 
Q 20.953125 51.265625 25.265625 53.625 
Q 29.59375 56 35.59375 56 
Q 45.5625 56 51.78125 48.09375 
Q 58.015625 40.1875 58.015625 27.296875 
Q 58.015625 14.40625 51.78125 6.484375 
Q 45.5625 -1.421875 35.59375 -1.421875 
Q 29.59375 -1.421875 25.265625 0.953125 
Q 20.953125 3.328125 18.109375 8.203125 
z
M 48.6875 27.296875 
Q 48.6875 37.203125 44.609375 42.84375 
Q 40.53125 48.484375 33.40625 48.484375 
Q 26.265625 48.484375 22.1875 42.84375 
Q 18.109375 37.203125 18.109375 27.296875 
Q 18.109375 17.390625 22.1875 11.75 
Q 26.265625 6.109375 33.40625 6.109375 
Q 40.53125 6.109375 44.609375 11.75 
Q 48.6875 17.390625 48.6875 27.296875 
z
" id="DejaVuSans-112"/>
       <path d="M 9.421875 54.6875 
L 18.40625 54.6875 
L 18.40625 0 
L 9.421875 0 
z
M 9.421875 75.984375 
L 18.40625 75.984375 
L 18.40625 64.59375 
L 9.421875 64.59375 
z
" id="DejaVuSans-105"/>
       <path d="M 54.890625 33.015625 
L 54.890625 0 
L 45.90625 0 
L 45.90625 32.71875 
Q 45.90625 40.484375 42.875 44.328125 
Q 39.84375 48.1875 33.796875 48.1875 
Q 26.515625 48.1875 22.3125 43.546875 
Q 18.109375 38.921875 18.109375 30.90625 
L 18.109375 0 
L 9.078125 0 
L 9.078125 54.6875 
L 18.109375 54.6875 
L 18.109375 46.1875 
Q 21.34375 51.125 25.703125 53.5625 
Q 30.078125 56 35.796875 56 
Q 45.21875 56 50.046875 50.171875 
Q 54.890625 44.34375 54.890625 33.015625 
z
" id="DejaVuSans-110"/>
       <path d="M 54.890625 33.015625 
L 54.890625 0 
L 45.90625 0 
L 45.90625 32.71875 
Q 45.90625 40.484375 42.875 44.328125 
Q 39.84375 48.1875 33.796875 48.1875 
Q 26.515625 48.1875 22.3125 43.546875 
Q 18.109375 38.921875 18.109375 30.90625 
L 18.109375 0 
L 9.078125 0 
L 9.078125 75.984375 
L 18.109375 75.984375 
L 18.109375 46.1875 
Q 21.34375 51.125 25.703125 53.5625 
Q 30.078125 56 35.796875 56 
Q 45.21875 56 50.046875 50.171875 
Q 54.890625 44.34375 54.890625 33.015625 
z
" id="DejaVuSans-104"/>
       <path d="M 30.609375 48.390625 
Q 23.390625 48.390625 19.1875 42.75 
Q 14.984375 37.109375 14.984375 27.296875 
Q 14.984375 17.484375 19.15625 11.84375 
Q 23.34375 6.203125 30.609375 6.203125 
Q 37.796875 6.203125 41.984375 11.859375 
Q 46.1875 17.53125 46.1875 27.296875 
Q 46.1875 37.015625 41.984375 42.703125 
Q 37.796875 48.390625 30.609375 48.390625 
z
M 30.609375 56 
Q 42.328125 56 49.015625 48.375 
Q 55.71875 40.765625 55.71875 27.296875 
Q 55.71875 13.875 49.015625 6.21875 
Q 42.328125 -1.421875 30.609375 -1.421875 
Q 18.84375 -1.421875 12.171875 6.21875 
Q 5.515625 13.875 5.515625 27.296875 
Q 5.515625 40.765625 12.171875 48.375 
Q 18.84375 56 30.609375 56 
z
" id="DejaVuSans-111"/>
       <path d="M 8.5 21.578125 
L 8.5 54.6875 
L 17.484375 54.6875 
L 17.484375 21.921875 
Q 17.484375 14.15625 20.5 10.265625 
Q 23.53125 6.390625 29.59375 6.390625 
Q 36.859375 6.390625 41.078125 11.03125 
Q 45.3125 15.671875 45.3125 23.6875 
L 45.3125 54.6875 
L 54.296875 54.6875 
L 54.296875 0 
L 45.3125 0 
L 45.3125 8.40625 
Q 42.046875 3.421875 37.71875 1 
Q 33.40625 -1.421875 27.6875 -1.421875 
Q 18.265625 -1.421875 13.375 4.4375 
Q 8.5 10.296875 8.5 21.578125 
z
M 31.109375 56 
z
" id="DejaVuSans-117"/>
       <path d="M 9.421875 75.984375 
L 18.40625 75.984375 
L 18.40625 0 
L 9.421875 0 
z
" id="DejaVuSans-108"/>
       <path d="M 41.109375 46.296875 
Q 39.59375 47.171875 37.8125 47.578125 
Q 36.03125 48 33.890625 48 
Q 26.265625 48 22.1875 43.046875 
Q 18.109375 38.09375 18.109375 28.8125 
L 18.109375 0 
L 9.078125 0 
L 9.078125 54.6875 
L 18.109375 54.6875 
L 18.109375 46.1875 
Q 20.953125 51.171875 25.484375 53.578125 
Q 30.03125 56 36.53125 56 
Q 37.453125 56 38.578125 55.875 
Q 39.703125 55.765625 41.0625 55.515625 
z
" id="DejaVuSans-114"/>
      </defs>
      <use xlink:href="#DejaVuSans-83"/>
      <use x="63.476562" xlink:href="#DejaVuSans-112"/>
      <use x="126.953125" xlink:href="#DejaVuSans-105"/>
      <use x="154.736328" xlink:href="#DejaVuSans-110"/>
      <use x="218.115234" xlink:href="#DejaVuSans-101"/>
      <use x="279.638672" xlink:href="#DejaVuSans-83"/>
      <use x="343.115234" xlink:href="#DejaVuSans-104"/>
      <use x="406.494141" xlink:href="#DejaVuSans-111"/>
      <use x="467.675781" xlink:href="#DejaVuSans-117"/>
      <use x="531.054688" xlink:href="#DejaVuSans-108"/>
      <use x="558.837891" xlink:href="#DejaVuSans-100"/>
      <use x="622.314453" xlink:href="#DejaVuSans-101"/>
      <use x="683.837891" xlink:href="#DejaVuSans-114"/>
     </g>
    </g>
   </g>
   <g id="text_4">
    <g clip-path="url(#pff69a8fc2f)">
     <!-- Spine -->
     <g transform="translate(287.01219 236.283023)scale(0.1 -0.1)">
      <use xlink:href="#DejaVuSans-83"/>
      <use x="63.476562" xlink:href="#DejaVuSans-112"/>
      <use x="126.953125" xlink:href="#DejaVuSans-105"/>
      <use x="154.736328" xlink:href="#DejaVuSans-110"/>
      <use x="218.115234" xlink:href="#DejaVuSans-101"/>
     </g>
    </g>
   </g>
   <g id="text_5">
    <g clip-path="url(#pff69a8fc2f)">
     <!-- Sacr -->
     <g transform="translate(266.064028 356.542434)scale(0.1 -0.1)">
      <use xlink:href="#DejaVuSans-83"/>
      <use x="63.476562" xlink:href="#DejaVuSans-97"/>
      <use x="124.755859" xlink:href="#DejaVuSans-99"/>
      <use x="179.736328" xlink:href="#DejaVuSans-114"/>
     </g>
    </g>
   </g>
   <g id="text_6">
    <g clip-path="url(#pff69a8fc2f)">
     <!-- LShoulder -->
     <g transform="translate(119.986671 133.931885)scale(0.1 -0.1)">
      <defs>
       <path d="M 9.8125 72.90625 
L 19.671875 72.90625 
L 19.671875 8.296875 
L 55.171875 8.296875 
L 55.171875 0 
L 9.8125 0 
z
" id="DejaVuSans-76"/>
      </defs>
      <use xlink:href="#DejaVuSans-76"/>
      <use x="55.712891" xlink:href="#DejaVuSans-83"/>
      <use x="119.189453" xlink:href="#DejaVuSans-104"/>
      <use x="182.568359" xlink:href="#DejaVuSans-111"/>
      <use x="243.75" xlink:href="#DejaVuSans-117"/>
      <use x="307.128906" xlink:href="#DejaVuSans-108"/>
      <use x="334.912109" xlink:href="#DejaVuSans-100"/>
      <use x="398.388672" xlink:href="#DejaVuSans-101"/>
      <use x="459.912109" xlink:href="#DejaVuSans-114"/>
     </g>
    </g>
   </g>
   <g id="text_7">
    <g clip-path="url(#pff69a8fc2f)">
     <!-- LElbow -->
     <g transform="translate(32.32644 221.310057)scale(0.1 -0.1)">
      <defs>
       <path d="M 9.8125 72.90625 
L 55.90625 72.90625 
L 55.90625 64.59375 
L 19.671875 64.59375 
L 19.671875 43.015625 
L 54.390625 43.015625 
L 54.390625 34.71875 
L 19.671875 34.71875 
L 19.671875 8.296875 
L 56.78125 8.296875 
L 56.78125 0 
L 9.8125 0 
z
" id="DejaVuSans-69"/>
       <path d="M 48.6875 27.296875 
Q 48.6875 37.203125 44.609375 42.84375 
Q 40.53125 48.484375 33.40625 48.484375 
Q 26.265625 48.484375 22.1875 42.84375 
Q 18.109375 37.203125 18.109375 27.296875 
Q 18.109375 17.390625 22.1875 11.75 
Q 26.265625 6.109375 33.40625 6.109375 
Q 40.53125 6.109375 44.609375 11.75 
Q 48.6875 17.390625 48.6875 27.296875 
z
M 18.109375 46.390625 
Q 20.953125 51.265625 25.265625 53.625 
Q 29.59375 56 35.59375 56 
Q 45.5625 56 51.78125 48.09375 
Q 58.015625 40.1875 58.015625 27.296875 
Q 58.015625 14.40625 51.78125 6.484375 
Q 45.5625 -1.421875 35.59375 -1.421875 
Q 29.59375 -1.421875 25.265625 0.953125 
Q 20.953125 3.328125 18.109375 8.203125 
L 18.109375 0 
L 9.078125 0 
L 9.078125 75.984375 
L 18.109375 75.984375 
z
" id="DejaVuSans-98"/>
       <path d="M 4.203125 54.6875 
L 13.1875 54.6875 
L 24.421875 12.015625 
L 35.59375 54.6875 
L 46.1875 54.6875 
L 57.421875 12.015625 
L 68.609375 54.6875 
L 77.59375 54.6875 
L 63.28125 0 
L 52.6875 0 
L 40.921875 44.828125 
L 29.109375 0 
L 18.5 0 
z
" id="DejaVuSans-119"/>
      </defs>
      <use xlink:href="#DejaVuSans-76"/>
      <use x="55.712891" xlink:href="#DejaVuSans-69"/>
      <use x="118.896484" xlink:href="#DejaVuSans-108"/>
      <use x="146.679688" xlink:href="#DejaVuSans-98"/>
      <use x="210.15625" xlink:href="#DejaVuSans-111"/>
      <use x="271.337891" xlink:href="#DejaVuSans-119"/>
     </g>
    </g>
   </g>
   <g id="text_8">
    <g clip-path="url(#pff69a8fc2f)">
     <!-- LWrist -->
     <g transform="translate(184.924052 265.147746)scale(0.1 -0.1)">
      <defs>
       <path d="M 3.328125 72.90625 
L 13.28125 72.90625 
L 28.609375 11.28125 
L 43.890625 72.90625 
L 54.984375 72.90625 
L 70.3125 11.28125 
L 85.59375 72.90625 
L 95.609375 72.90625 
L 77.296875 0 
L 64.890625 0 
L 49.515625 63.28125 
L 33.984375 0 
L 21.578125 0 
z
" id="DejaVuSans-87"/>
       <path d="M 44.28125 53.078125 
L 44.28125 44.578125 
Q 40.484375 46.53125 36.375 47.5 
Q 32.28125 48.484375 27.875 48.484375 
Q 21.1875 48.484375 17.84375 46.4375 
Q 14.5 44.390625 14.5 40.28125 
Q 14.5 37.15625 16.890625 35.375 
Q 19.28125 33.59375 26.515625 31.984375 
L 29.59375 31.296875 
Q 39.15625 29.25 43.1875 25.515625 
Q 47.21875 21.78125 47.21875 15.09375 
Q 47.21875 7.46875 41.1875 3.015625 
Q 35.15625 -1.421875 24.609375 -1.421875 
Q 20.21875 -1.421875 15.453125 -0.5625 
Q 10.6875 0.296875 5.421875 2 
L 5.421875 11.28125 
Q 10.40625 8.6875 15.234375 7.390625 
Q 20.0625 6.109375 24.8125 6.109375 
Q 31.15625 6.109375 34.5625 8.28125 
Q 37.984375 10.453125 37.984375 14.40625 
Q 37.984375 18.0625 35.515625 20.015625 
Q 33.0625 21.96875 24.703125 23.78125 
L 21.578125 24.515625 
Q 13.234375 26.265625 9.515625 29.90625 
Q 5.8125 33.546875 5.8125 39.890625 
Q 5.8125 47.609375 11.28125 51.796875 
Q 16.75 56 26.8125 56 
Q 31.78125 56 36.171875 55.265625 
Q 40.578125 54.546875 44.28125 53.078125 
z
" id="DejaVuSans-115"/>
       <path d="M 18.3125 70.21875 
L 18.3125 54.6875 
L 36.8125 54.6875 
L 36.8125 47.703125 
L 18.3125 47.703125 
L 18.3125 18.015625 
Q 18.3125 11.328125 20.140625 9.421875 
Q 21.96875 7.515625 27.59375 7.515625 
L 36.8125 7.515625 
L 36.8125 0 
L 27.59375 0 
Q 17.1875 0 13.234375 3.875 
Q 9.28125 7.765625 9.28125 18.015625 
L 9.28125 47.703125 
L 2.6875 47.703125 
L 2.6875 54.6875 
L 9.28125 54.6875 
L 9.28125 70.21875 
z
" id="DejaVuSans-116"/>
      </defs>
      <use xlink:href="#DejaVuSans-76"/>
      <use x="46.587891" xlink:href="#DejaVuSans-87"/>
      <use x="140.964844" xlink:href="#DejaVuSans-114"/>
      <use x="182.078125" xlink:href="#DejaVuSans-105"/>
      <use x="209.861328" xlink:href="#DejaVuSans-115"/>
      <use x="261.960938" xlink:href="#DejaVuSans-116"/>
     </g>
    </g>
   </g>
   <g id="text_9">
    <g clip-path="url(#pff69a8fc2f)">
     <!-- LHand -->
     <g transform="translate(260.283243 286.469618)scale(0.1 -0.1)">
      <use xlink:href="#DejaVuSans-76"/>
      <use x="55.712891" xlink:href="#DejaVuSans-72"/>
      <use x="130.908203" xlink:href="#DejaVuSans-97"/>
      <use x="192.1875" xlink:href="#DejaVuSans-110"/>
      <use x="255.566406" xlink:href="#DejaVuSans-100"/>
     </g>
    </g>
   </g>
   <g id="text_10">
    <g clip-path="url(#pff69a8fc2f)">
     <!-- RShoulder -->
     <g transform="translate(474.168875 159.465865)scale(0.1 -0.1)">
      <defs>
       <path d="M 44.390625 34.1875 
Q 47.5625 33.109375 50.5625 29.59375 
Q 53.5625 26.078125 56.59375 19.921875 
L 66.609375 0 
L 56 0 
L 46.6875 18.703125 
Q 43.0625 26.03125 39.671875 28.421875 
Q 36.28125 30.8125 30.421875 30.8125 
L 19.671875 30.8125 
L 19.671875 0 
L 9.8125 0 
L 9.8125 72.90625 
L 32.078125 72.90625 
Q 44.578125 72.90625 50.734375 67.671875 
Q 56.890625 62.453125 56.890625 51.90625 
Q 56.890625 45.015625 53.6875 40.46875 
Q 50.484375 35.9375 44.390625 34.1875 
z
M 19.671875 64.796875 
L 19.671875 38.921875 
L 32.078125 38.921875 
Q 39.203125 38.921875 42.84375 42.21875 
Q 46.484375 45.515625 46.484375 51.90625 
Q 46.484375 58.296875 42.84375 61.546875 
Q 39.203125 64.796875 32.078125 64.796875 
z
" id="DejaVuSans-82"/>
      </defs>
      <use xlink:href="#DejaVuSans-82"/>
      <use x="69.482422" xlink:href="#DejaVuSans-83"/>
      <use x="132.958984" xlink:href="#DejaVuSans-104"/>
      <use x="196.337891" xlink:href="#DejaVuSans-111"/>
      <use x="257.519531" xlink:href="#DejaVuSans-117"/>
      <use x="320.898438" xlink:href="#DejaVuSans-108"/>
      <use x="348.681641" xlink:href="#DejaVuSans-100"/>
      <use x="412.158203" xlink:href="#DejaVuSans-101"/>
      <use x="473.681641" xlink:href="#DejaVuSans-114"/>
     </g>
    </g>
   </g>
   <g id="text_11">
    <g clip-path="url(#pff69a8fc2f)">
     <!-- RElbow -->
     <g transform="translate(507.671216 272.260161)scale(0.1 -0.1)">
      <use xlink:href="#DejaVuSans-82"/>
      <use x="69.482422" xlink:href="#DejaVuSans-69"/>
      <use x="132.666016" xlink:href="#DejaVuSans-108"/>
      <use x="160.449219" xlink:href="#DejaVuSans-98"/>
      <use x="223.925781" xlink:href="#DejaVuSans-111"/>
      <use x="285.107422" xlink:href="#DejaVuSans-119"/>
     </g>
    </g>
   </g>
   <g id="text_12">
    <g clip-path="url(#pff69a8fc2f)">
     <!-- RWrist -->
     <g transform="translate(332.477876 294.960448)scale(0.1 -0.1)">
      <use xlink:href="#DejaVuSans-82"/>
      <use x="65.482422" xlink:href="#DejaVuSans-87"/>
      <use x="159.859375" xlink:href="#DejaVuSans-114"/>
      <use x="200.972656" xlink:href="#DejaVuSans-105"/>
      <use x="228.755859" xlink:href="#DejaVuSans-115"/>
      <use x="280.855469" xlink:href="#DejaVuSans-116"/>
     </g>
    </g>
   </g>
   <g id="text_13">
    <g clip-path="url(#pff69a8fc2f)">
     <!-- RHand -->
     <g transform="translate(303.36045 300.479232)scale(0.1 -0.1)">
      <use xlink:href="#DejaVuSans-82"/>
      <use x="69.482422" xlink:href="#DejaVuSans-72"/>
      <use x="144.677734" xlink:href="#DejaVuSans-97"/>
      <use x="205.957031" xlink:href="#DejaVuSans-110"/>
      <use x="269.335938" xlink:href="#DejaVuSans-100"/>
     </g>
    </g>
   </g>
   <g id="text_14">
    <g clip-path="url(#pff69a8fc2f)">
     <!-- LHip -->
     <g transform="translate(185.425595 354.564793)scale(0.1 -0.1)">
      <use xlink:href="#DejaVuSans-76"/>
      <use x="55.712891" xlink:href="#DejaVuSans-72"/>
      <use x="130.908203" xlink:href="#DejaVuSans-105"/>
      <use x="158.691406" xlink:href="#DejaVuSans-112"/>
     </g>
    </g>
   </g>
   <g id="text_15">
    <g clip-path="url(#pff69a8fc2f)">
     <!-- LKnee -->
     <g transform="translate(89.544921 526.892822)scale(0.1 -0.1)">
      <defs>
       <path d="M 9.8125 72.90625 
L 19.671875 72.90625 
L 19.671875 42.09375 
L 52.390625 72.90625 
L 65.09375 72.90625 
L 28.90625 38.921875 
L 67.671875 0 
L 54.6875 0 
L 19.671875 35.109375 
L 19.671875 0 
L 9.8125 0 
z
" id="DejaVuSans-75"/>
      </defs>
      <use xlink:href="#DejaVuSans-76"/>
      <use x="55.712891" xlink:href="#DejaVuSans-75"/>
      <use x="121.289062" xlink:href="#DejaVuSans-110"/>
      <use x="184.667969" xlink:href="#DejaVuSans-101"/>
      <use x="246.191406" xlink:href="#DejaVuSans-101"/>
     </g>
    </g>
   </g>
   <g id="text_16">
    <g clip-path="url(#pff69a8fc2f)">
     <!-- LAnkle -->
     <g transform="translate(79.848956 677.862545)scale(0.1 -0.1)">
      <defs>
       <path d="M 34.1875 63.1875 
L 20.796875 26.90625 
L 47.609375 26.90625 
z
M 28.609375 72.90625 
L 39.796875 72.90625 
L 67.578125 0 
L 57.328125 0 
L 50.6875 18.703125 
L 17.828125 18.703125 
L 11.1875 0 
L 0.78125 0 
z
" id="DejaVuSans-65"/>
       <path d="M 9.078125 75.984375 
L 18.109375 75.984375 
L 18.109375 31.109375 
L 44.921875 54.6875 
L 56.390625 54.6875 
L 27.390625 29.109375 
L 57.625 0 
L 45.90625 0 
L 18.109375 26.703125 
L 18.109375 0 
L 9.078125 0 
z
" id="DejaVuSans-107"/>
      </defs>
      <use xlink:href="#DejaVuSans-76"/>
      <use x="57.962891" xlink:href="#DejaVuSans-65"/>
      <use x="126.371094" xlink:href="#DejaVuSans-110"/>
      <use x="189.75" xlink:href="#DejaVuSans-107"/>
      <use x="247.660156" xlink:href="#DejaVuSans-108"/>
      <use x="275.443359" xlink:href="#DejaVuSans-101"/>
     </g>
    </g>
   </g>
   <g id="text_17">
    <g clip-path="url(#pff69a8fc2f)">
     <!-- LFoot -->
     <g transform="translate(65.669501 721.782221)scale(0.1 -0.1)">
      <defs>
       <path d="M 9.8125 72.90625 
L 51.703125 72.90625 
L 51.703125 64.59375 
L 19.671875 64.59375 
L 19.671875 43.109375 
L 48.578125 43.109375 
L 48.578125 34.8125 
L 19.671875 34.8125 
L 19.671875 0 
L 9.8125 0 
z
" id="DejaVuSans-70"/>
      </defs>
      <use xlink:href="#DejaVuSans-76"/>
      <use x="55.712891" xlink:href="#DejaVuSans-70"/>
      <use x="109.607422" xlink:href="#DejaVuSans-111"/>
      <use x="170.789062" xlink:href="#DejaVuSans-111"/>
      <use x="231.970703" xlink:href="#DejaVuSans-116"/>
     </g>
    </g>
   </g>
   <g id="text_18">
    <g clip-path="url(#pff69a8fc2f)">
     <!-- RHip -->
     <g transform="translate(345.602998 364.158457)scale(0.1 -0.1)">
      <use xlink:href="#DejaVuSans-82"/>
      <use x="69.482422" xlink:href="#DejaVuSans-72"/>
      <use x="144.677734" xlink:href="#DejaVuSans-105"/>
      <use x="172.460938" xlink:href="#DejaVuSans-112"/>
     </g>
    </g>
   </g>
   <g id="text_19">
    <g clip-path="url(#pff69a8fc2f)">
     <!-- RKnee -->
     <g transform="translate(324.529493 565.795888)scale(0.1 -0.1)">
      <use xlink:href="#DejaVuSans-82"/>
      <use x="69.482422" xlink:href="#DejaVuSans-75"/>
      <use x="135.058594" xlink:href="#DejaVuSans-110"/>
      <use x="198.4375" xlink:href="#DejaVuSans-101"/>
      <use x="259.960938" xlink:href="#DejaVuSans-101"/>
     </g>
    </g>
   </g>
   <g id="text_20">
    <g clip-path="url(#pff69a8fc2f)">
     <!-- RAnkle -->
     <g transform="translate(258.309196 751.948494)scale(0.1 -0.1)">
      <use xlink:href="#DejaVuSans-82"/>
      <use x="65.482422" xlink:href="#DejaVuSans-65"/>
      <use x="133.890625" xlink:href="#DejaVuSans-110"/>
      <use x="197.269531" xlink:href="#DejaVuSans-107"/>
      <use x="255.179688" xlink:href="#DejaVuSans-108"/>
      <use x="282.962891" xlink:href="#DejaVuSans-101"/>
     </g>
    </g>
   </g>
   <g id="text_21">
    <g clip-path="url(#pff69a8fc2f)">
     <!-- RFoot -->
     <g transform="translate(271.568779 791.784168)scale(0.1 -0.1)">
      <use xlink:href="#DejaVuSans-82"/>
      <use x="69.482422" xlink:href="#DejaVuSans-70"/>
      <use x="123.376953" xlink:href="#DejaVuSans-111"/>
      <use x="184.558594" xlink:href="#DejaVuSans-111"/>
      <use x="245.740234" xlink:href="#DejaVuSans-116"/>
     </g>
    </g>
   </g>
   <g id="text_22">
    <g clip-path="url(#pff69a8fc2f)">
     <!-- LHandTip -->
     <g transform="translate(304.632673 303.471775)scale(0.1 -0.1)">
      <defs>
       <path d="M -0.296875 72.90625 
L 61.375 72.90625 
L 61.375 64.59375 
L 35.5 64.59375 
L 35.5 0 
L 25.59375 0 
L 25.59375 64.59375 
L -0.296875 64.59375 
z
" id="DejaVuSans-84"/>
      </defs>
      <use xlink:href="#DejaVuSans-76"/>
      <use x="55.712891" xlink:href="#DejaVuSans-72"/>
      <use x="130.908203" xlink:href="#DejaVuSans-97"/>
      <use x="192.1875" xlink:href="#DejaVuSans-110"/>
      <use x="255.566406" xlink:href="#DejaVuSans-100"/>
      <use x="319.042969" xlink:href="#DejaVuSans-84"/>
      <use x="377.001953" xlink:href="#DejaVuSans-105"/>
      <use x="404.785156" xlink:href="#DejaVuSans-112"/>
     </g>
    </g>
   </g>
   <g id="text_23">
    <g clip-path="url(#pff69a8fc2f)">
     <!-- LThumb -->
     <g transform="translate(259.758814 283.210616)scale(0.1 -0.1)">
      <defs>
       <path d="M 52 44.1875 
Q 55.375 50.25 60.0625 53.125 
Q 64.75 56 71.09375 56 
Q 79.640625 56 84.28125 50.015625 
Q 88.921875 44.046875 88.921875 33.015625 
L 88.921875 0 
L 79.890625 0 
L 79.890625 32.71875 
Q 79.890625 40.578125 77.09375 44.375 
Q 74.3125 48.1875 68.609375 48.1875 
Q 61.625 48.1875 57.5625 43.546875 
Q 53.515625 38.921875 53.515625 30.90625 
L 53.515625 0 
L 44.484375 0 
L 44.484375 32.71875 
Q 44.484375 40.625 41.703125 44.40625 
Q 38.921875 48.1875 33.109375 48.1875 
Q 26.21875 48.1875 22.15625 43.53125 
Q 18.109375 38.875 18.109375 30.90625 
L 18.109375 0 
L 9.078125 0 
L 9.078125 54.6875 
L 18.109375 54.6875 
L 18.109375 46.1875 
Q 21.1875 51.21875 25.484375 53.609375 
Q 29.78125 56 35.6875 56 
Q 41.65625 56 45.828125 52.96875 
Q 50 49.953125 52 44.1875 
z
" id="DejaVuSans-109"/>
      </defs>
      <use xlink:href="#DejaVuSans-76"/>
      <use x="41.962891" xlink:href="#DejaVuSans-84"/>
      <use x="103.046875" xlink:href="#DejaVuSans-104"/>
      <use x="166.425781" xlink:href="#DejaVuSans-117"/>
      <use x="229.804688" xlink:href="#DejaVuSans-109"/>
      <use x="327.216797" xlink:href="#DejaVuSans-98"/>
     </g>
    </g>
   </g>
   <g id="text_24">
    <g clip-path="url(#pff69a8fc2f)">
     <!-- RHandTip -->
     <g transform="translate(267.558385 302.231714)scale(0.1 -0.1)">
      <use xlink:href="#DejaVuSans-82"/>
      <use x="69.482422" xlink:href="#DejaVuSans-72"/>
      <use x="144.677734" xlink:href="#DejaVuSans-97"/>
      <use x="205.957031" xlink:href="#DejaVuSans-110"/>
      <use x="269.335938" xlink:href="#DejaVuSans-100"/>
      <use x="332.8125" xlink:href="#DejaVuSans-84"/>
      <use x="390.771484" xlink:href="#DejaVuSans-105"/>
      <use x="418.554688" xlink:href="#DejaVuSans-112"/>
     </g>
    </g>
   </g>
   <g id="text_25">
    <g clip-path="url(#pff69a8fc2f)">
     <!-- RThumb -->
     <g transform="translate(271.191798 288.411697)scale(0.1 -0.1)">
      <use xlink:href="#DejaVuSans-82"/>
      <use x="62.232422" xlink:href="#DejaVuSans-84"/>
      <use x="123.316406" xlink:href="#DejaVuSans-104"/>
      <use x="186.695312" xlink:href="#DejaVuSans-117"/>
      <use x="250.074219" xlink:href="#DejaVuSans-109"/>
      <use x="347.486328" xlink:href="#DejaVuSans-98"/>
     </g>
    </g>
   </g>
   <g id="text_26">
    <!-- Node Graph Visualization - Frame 23 -->
    <g transform="translate(178.011563 -6)scale(0.12 -0.12)">
     <defs>
      <path d="M 9.8125 72.90625 
L 23.09375 72.90625 
L 55.421875 11.921875 
L 55.421875 72.90625 
L 64.984375 72.90625 
L 64.984375 0 
L 51.703125 0 
L 19.390625 60.984375 
L 19.390625 0 
L 9.8125 0 
z
" id="DejaVuSans-78"/>
      <path id="DejaVuSans-32"/>
      <path d="M 59.515625 10.40625 
L 59.515625 29.984375 
L 43.40625 29.984375 
L 43.40625 38.09375 
L 69.28125 38.09375 
L 69.28125 6.78125 
Q 63.578125 2.734375 56.6875 0.65625 
Q 49.8125 -1.421875 42 -1.421875 
Q 24.90625 -1.421875 15.25 8.5625 
Q 5.609375 18.5625 5.609375 36.375 
Q 5.609375 54.25 15.25 64.234375 
Q 24.90625 74.21875 42 74.21875 
Q 49.125 74.21875 55.546875 72.453125 
Q 61.96875 70.703125 67.390625 67.28125 
L 67.390625 56.78125 
Q 61.921875 61.421875 55.765625 63.765625 
Q 49.609375 66.109375 42.828125 66.109375 
Q 29.4375 66.109375 22.71875 58.640625 
Q 16.015625 51.171875 16.015625 36.375 
Q 16.015625 21.625 22.71875 14.15625 
Q 29.4375 6.6875 42.828125 6.6875 
Q 48.046875 6.6875 52.140625 7.59375 
Q 56.25 8.5 59.515625 10.40625 
z
" id="DejaVuSans-71"/>
      <path d="M 28.609375 0 
L 0.78125 72.90625 
L 11.078125 72.90625 
L 34.1875 11.53125 
L 57.328125 72.90625 
L 67.578125 72.90625 
L 39.796875 0 
z
" id="DejaVuSans-86"/>
      <path d="M 5.515625 54.6875 
L 48.1875 54.6875 
L 48.1875 46.484375 
L 14.40625 7.171875 
L 48.1875 7.171875 
L 48.1875 0 
L 4.296875 0 
L 4.296875 8.203125 
L 38.09375 47.515625 
L 5.515625 47.515625 
z
" id="DejaVuSans-122"/>
      <path d="M 4.890625 31.390625 
L 31.203125 31.390625 
L 31.203125 23.390625 
L 4.890625 23.390625 
z
" id="DejaVuSans-45"/>
      <path d="M 19.1875 8.296875 
L 53.609375 8.296875 
L 53.609375 0 
L 7.328125 0 
L 7.328125 8.296875 
Q 12.9375 14.109375 22.625 23.890625 
Q 32.328125 33.6875 34.8125 36.53125 
Q 39.546875 41.84375 41.421875 45.53125 
Q 43.3125 49.21875 43.3125 52.78125 
Q 43.3125 58.59375 39.234375 62.25 
Q 35.15625 65.921875 28.609375 65.921875 
Q 23.96875 65.921875 18.8125 64.3125 
Q 13.671875 62.703125 7.8125 59.421875 
L 7.8125 69.390625 
Q 13.765625 71.78125 18.9375 73 
Q 24.125 74.21875 28.421875 74.21875 
Q 39.75 74.21875 46.484375 68.546875 
Q 53.21875 62.890625 53.21875 53.421875 
Q 53.21875 48.921875 51.53125 44.890625 
Q 49.859375 40.875 45.40625 35.40625 
Q 44.1875 33.984375 37.640625 27.21875 
Q 31.109375 20.453125 19.1875 8.296875 
z
" id="DejaVuSans-50"/>
      <path d="M 40.578125 39.3125 
Q 47.65625 37.796875 51.625 33 
Q 55.609375 28.21875 55.609375 21.1875 
Q 55.609375 10.40625 48.1875 4.484375 
Q 40.765625 -1.421875 27.09375 -1.421875 
Q 22.515625 -1.421875 17.65625 -0.515625 
Q 12.796875 0.390625 7.625 2.203125 
L 7.625 11.71875 
Q 11.71875 9.328125 16.59375 8.109375 
Q 21.484375 6.890625 26.8125 6.890625 
Q 36.078125 6.890625 40.9375 10.546875 
Q 45.796875 14.203125 45.796875 21.1875 
Q 45.796875 27.640625 41.28125 31.265625 
Q 36.765625 34.90625 28.71875 34.90625 
L 20.21875 34.90625 
L 20.21875 43.015625 
L 29.109375 43.015625 
Q 36.375 43.015625 40.234375 45.921875 
Q 44.09375 48.828125 44.09375 54.296875 
Q 44.09375 59.90625 40.109375 62.90625 
Q 36.140625 65.921875 28.71875 65.921875 
Q 24.65625 65.921875 20.015625 65.03125 
Q 15.375 64.15625 9.8125 62.3125 
L 9.8125 71.09375 
Q 15.4375 72.65625 20.34375 73.4375 
Q 25.25 74.21875 29.59375 74.21875 
Q 40.828125 74.21875 47.359375 69.109375 
Q 53.90625 64.015625 53.90625 55.328125 
Q 53.90625 49.265625 50.4375 45.09375 
Q 46.96875 40.921875 40.578125 39.3125 
z
" id="DejaVuSans-51"/>
     </defs>
     <use xlink:href="#DejaVuSans-78"/>
     <use x="74.804688" xlink:href="#DejaVuSans-111"/>
     <use x="135.986328" xlink:href="#DejaVuSans-100"/>
     <use x="199.462891" xlink:href="#DejaVuSans-101"/>
     <use x="260.986328" xlink:href="#DejaVuSans-32"/>
     <use x="292.773438" xlink:href="#DejaVuSans-71"/>
     <use x="370.263672" xlink:href="#DejaVuSans-114"/>
     <use x="411.376953" xlink:href="#DejaVuSans-97"/>
     <use x="472.65625" xlink:href="#DejaVuSans-112"/>
     <use x="536.132812" xlink:href="#DejaVuSans-104"/>
     <use x="599.511719" xlink:href="#DejaVuSans-32"/>
     <use x="631.298828" xlink:href="#DejaVuSans-86"/>
     <use x="697.457031" xlink:href="#DejaVuSans-105"/>
     <use x="725.240234" xlink:href="#DejaVuSans-115"/>
     <use x="777.339844" xlink:href="#DejaVuSans-117"/>
     <use x="840.71875" xlink:href="#DejaVuSans-97"/>
     <use x="901.998047" xlink:href="#DejaVuSans-108"/>
     <use x="929.78125" xlink:href="#DejaVuSans-105"/>
     <use x="957.564453" xlink:href="#DejaVuSans-122"/>
     <use x="1010.054688" xlink:href="#DejaVuSans-97"/>
     <use x="1071.333984" xlink:href="#DejaVuSans-116"/>
     <use x="1110.542969" xlink:href="#DejaVuSans-105"/>
     <use x="1138.326172" xlink:href="#DejaVuSans-111"/>
     <use x="1199.507812" xlink:href="#DejaVuSans-110"/>
     <use x="1262.886719" xlink:href="#DejaVuSans-32"/>
     <use x="1294.673828" xlink:href="#DejaVuSans-45"/>
     <use x="1330.757812" xlink:href="#DejaVuSans-32"/>
     <use x="1362.544922" xlink:href="#DejaVuSans-70"/>
     <use x="1412.814453" xlink:href="#DejaVuSans-114"/>
     <use x="1453.927734" xlink:href="#DejaVuSans-97"/>
     <use x="1515.207031" xlink:href="#DejaVuSans-109"/>
     <use x="1612.619141" xlink:href="#DejaVuSans-101"/>
     <use x="1674.142578" xlink:href="#DejaVuSans-32"/>
     <use x="1705.929688" xlink:href="#DejaVuSans-50"/>
     <use x="1769.552734" xlink:href="#DejaVuSans-51"/>
    </g>
   </g>
  </g>
 </g>
 <defs>
  <clipPath id="pff69a8fc2f">
   <rect height="864" width="576" x="0" y="0"/>
  </clipPath>
 </defs>
</svg>
