<?xml version="1.0" encoding="utf-8" standalone="no"?>
<!DOCTYPE svg PUBLIC "-//W3C//DTD SVG 1.1//EN"
  "http://www.w3.org/Graphics/SVG/1.1/DTD/svg11.dtd">
<!-- Created with matplotlib (https://matplotlib.org/) -->
<svg height="864pt" version="1.1" viewBox="0 0 576 864" width="576pt" xmlns="http://www.w3.org/2000/svg" xmlns:xlink="http://www.w3.org/1999/xlink">
 <metadata>
  <rdf:RDF xmlns:cc="http://creativecommons.org/ns#" xmlns:dc="http://purl.org/dc/elements/1.1/" xmlns:rdf="http://www.w3.org/1999/02/22-rdf-syntax-ns#">
   <cc:Work>
    <dc:type rdf:resource="http://purl.org/dc/dcmitype/StillImage"/>
    <dc:date>2024-02-04T22:28:13.003188</dc:date>
    <dc:format>image/svg+xml</dc:format>
    <dc:creator>
     <cc:Agent>
      <dc:title>Matplotlib v3.3.2, https://matplotlib.org/</dc:title>
     </cc:Agent>
    </dc:creator>
   </cc:Work>
  </rdf:RDF>
 </metadata>
 <defs>
  <style type="text/css">*{stroke-linecap:butt;stroke-linejoin:round;}</style>
 </defs>
 <g id="figure_1">
  <g id="patch_1">
   <path d="M 0 864 
L 576 864 
L 576 0 
L 0 0 
z
" style="fill:#ffffff;"/>
  </g>
  <g id="axes_1">
   <g id="patch_2">
    <path clip-path="url(#p3a2c809e45)" d="M 324.221783 86.675666 
Q 318.914716 96.733478 314.129406 105.802468 
" style="fill:none;stroke:#000000;stroke-linecap:round;"/>
    <path clip-path="url(#p3a2c809e45)" d="M 317.764963 103.198101 
L 314.129406 105.802468 
L 314.227246 101.331403 
L 317.764963 103.198101 
z
" style="stroke:#000000;stroke-linecap:round;"/>
   </g>
   <g id="patch_3">
    <path clip-path="url(#p3a2c809e45)" d="M 306.721256 131.700719 
Q 306.599422 133.962554 306.537724 135.107974 
" style="fill:none;stroke:#000000;stroke-linecap:round;"/>
    <path clip-path="url(#p3a2c809e45)" d="M 308.749977 131.221339 
L 306.537724 135.107974 
L 304.755767 131.00619 
L 308.749977 131.221339 
z
" style="stroke:#000000;stroke-linecap:round;"/>
   </g>
   <g id="patch_4">
    <path clip-path="url(#p3a2c809e45)" d="M 313.606456 106.793549 
Q 318.913524 96.735737 323.698833 87.666746 
" style="fill:none;stroke:#000000;stroke-linecap:round;"/>
    <path clip-path="url(#p3a2c809e45)" d="M 320.063277 90.271114 
L 323.698833 87.666746 
L 323.600993 92.137812 
L 320.063277 90.271114 
z
" style="stroke:#000000;stroke-linecap:round;"/>
   </g>
   <g id="patch_5">
    <path clip-path="url(#p3a2c809e45)" d="M 304.685082 162.613646 
Q 301.877633 196.845252 299.16157 229.962565 
" style="fill:none;stroke:#000000;stroke-linecap:round;"/>
    <path clip-path="url(#p3a2c809e45)" d="M 301.481834 226.139427 
L 299.16157 229.962565 
L 297.495218 225.812472 
L 301.481834 226.139427 
z
" style="stroke:#000000;stroke-linecap:round;"/>
   </g>
   <g id="patch_6">
    <path clip-path="url(#p3a2c809e45)" d="M 292.537251 149.45848 
Q 221.9705 149.600925 152.52178 149.741113 
" style="fill:none;stroke:#000000;stroke-linecap:round;"/>
    <path clip-path="url(#p3a2c809e45)" d="M 156.525809 151.733035 
L 152.52178 149.741113 
L 156.517735 147.733043 
L 156.525809 151.733035 
z
" style="stroke:#000000;stroke-linecap:round;"/>
   </g>
   <g id="patch_7">
    <path clip-path="url(#p3a2c809e45)" d="M 318.905654 150.988195 
Q 396.125965 160.135215 472.236004 169.15072 
" style="fill:none;stroke:#000000;stroke-linecap:round;"/>
    <path clip-path="url(#p3a2c809e45)" d="M 468.499037 166.69408 
L 472.236004 169.15072 
L 468.028512 170.66631 
L 468.499037 166.69408 
z
" style="stroke:#000000;stroke-linecap:round;"/>
   </g>
   <g id="patch_8">
    <path clip-path="url(#p3a2c809e45)" d="M 306.477552 136.225065 
Q 306.599386 133.96323 306.661084 132.81781 
" style="fill:none;stroke:#000000;stroke-linecap:round;"/>
    <path clip-path="url(#p3a2c809e45)" d="M 304.448831 136.704446 
L 306.661084 132.81781 
L 308.44304 136.919594 
L 304.448831 136.704446 
z
" style="stroke:#000000;stroke-linecap:round;"/>
   </g>
   <g id="patch_9">
    <path clip-path="url(#p3a2c809e45)" d="M 296.625582 257.421166 
Q 291.310956 308.723834 286.111535 358.91442 
" style="fill:none;stroke:#000000;stroke-linecap:round;"/>
    <path clip-path="url(#p3a2c809e45)" d="M 288.513058 355.141796 
L 286.111535 358.91442 
L 284.53435 354.729628 
L 288.513058 355.141796 
z
" style="stroke:#000000;stroke-linecap:round;"/>
   </g>
   <g id="patch_10">
    <path clip-path="url(#p3a2c809e45)" d="M 299.070062 231.078336 
Q 301.877511 196.84673 304.593574 163.729417 
" style="fill:none;stroke:#000000;stroke-linecap:round;"/>
    <path clip-path="url(#p3a2c809e45)" d="M 302.27331 167.552555 
L 304.593574 163.729417 
L 306.259926 167.87951 
L 302.27331 167.552555 
z
" style="stroke:#000000;stroke-linecap:round;"/>
   </g>
   <g id="patch_11">
    <path clip-path="url(#p3a2c809e45)" d="M 271.403579 373.022263 
Q 243.621178 372.677426 216.956725 372.346465 
" style="fill:none;stroke:#000000;stroke-linecap:round;"/>
    <path clip-path="url(#p3a2c809e45)" d="M 220.931594 374.395955 
L 216.956725 372.346465 
L 220.981239 370.396263 
L 220.931594 374.395955 
z
" style="stroke:#000000;stroke-linecap:round;"/>
   </g>
   <g id="patch_12">
    <path clip-path="url(#p3a2c809e45)" d="M 297.85258 373.679491 
Q 317.538021 374.41366 336.106205 375.106161 
" style="fill:none;stroke:#000000;stroke-linecap:round;"/>
    <path clip-path="url(#p3a2c809e45)" d="M 332.183522 372.958474 
L 336.106205 375.106161 
L 332.034445 376.955695 
L 332.183522 372.958474 
z
" style="stroke:#000000;stroke-linecap:round;"/>
   </g>
   <g id="patch_13">
    <path clip-path="url(#p3a2c809e45)" d="M 285.996434 360.025508 
Q 291.31106 308.722839 296.51048 258.532254 
" style="fill:none;stroke:#000000;stroke-linecap:round;"/>
    <path clip-path="url(#p3a2c809e45)" d="M 294.108958 262.304877 
L 296.51048 258.532254 
L 298.087666 262.717046 
L 294.108958 262.304877 
z
" style="stroke:#000000;stroke-linecap:round;"/>
   </g>
   <g id="patch_14">
    <path clip-path="url(#p3a2c809e45)" d="M 128.608797 158.907642 
Q 94.077047 191.906359 60.353605 224.132653 
" style="fill:none;stroke:#000000;stroke-linecap:round;"/>
    <path clip-path="url(#p3a2c809e45)" d="M 64.62725 222.815093 
L 60.353605 224.132653 
L 61.863744 219.923201 
L 64.62725 222.815093 
z
" style="stroke:#000000;stroke-linecap:round;"/>
   </g>
   <g id="patch_15">
    <path clip-path="url(#p3a2c809e45)" d="M 151.399784 149.743378 
Q 221.966535 149.600933 291.415255 149.460745 
" style="fill:none;stroke:#000000;stroke-linecap:round;"/>
    <path clip-path="url(#p3a2c809e45)" d="M 287.411226 147.468824 
L 291.415255 149.460745 
L 287.4193 151.468815 
L 287.411226 147.468824 
z
" style="stroke:#000000;stroke-linecap:round;"/>
   </g>
   <g id="patch_16">
    <path clip-path="url(#p3a2c809e45)" d="M 60.362007 242.244494 
Q 110.432352 281.814754 159.625521 320.691787 
" style="fill:none;stroke:#000000;stroke-linecap:round;"/>
    <path clip-path="url(#p3a2c809e45)" d="M 157.727322 316.642486 
L 159.625521 320.691787 
L 155.24716 319.780766 
L 157.727322 316.642486 
z
" style="stroke:#000000;stroke-linecap:round;"/>
   </g>
   <g id="patch_17">
    <path clip-path="url(#p3a2c809e45)" d="M 59.545538 224.904847 
Q 94.077288 191.906129 127.800729 159.679835 
" style="fill:none;stroke:#000000;stroke-linecap:round;"/>
    <path clip-path="url(#p3a2c809e45)" d="M 123.527085 160.997396 
L 127.800729 159.679835 
L 126.290591 163.889287 
L 123.527085 160.997396 
z
" style="stroke:#000000;stroke-linecap:round;"/>
   </g>
   <g id="patch_18">
    <path clip-path="url(#p3a2c809e45)" d="M 184.015498 331.177242 
Q 191.513526 332.085223 197.901628 332.858796 
" style="fill:none;stroke:#000000;stroke-linecap:round;"/>
    <path clip-path="url(#p3a2c809e45)" d="M 194.171073 330.39243 
L 197.901628 332.858796 
L 193.690203 334.36342 
L 194.171073 330.39243 
z
" style="stroke:#000000;stroke-linecap:round;"/>
   </g>
   <g id="patch_19">
    <path clip-path="url(#p3a2c809e45)" d="M 160.50215 321.384582 
Q 110.431806 281.814322 61.238637 242.937289 
" style="fill:none;stroke:#000000;stroke-linecap:round;"/>
    <path clip-path="url(#p3a2c809e45)" d="M 63.136836 246.98659 
L 61.238637 242.937289 
L 65.616997 243.848311 
L 63.136836 246.98659 
z
" style="stroke:#000000;stroke-linecap:round;"/>
   </g>
   <g id="patch_20">
    <path clip-path="url(#p3a2c809e45)" d="M 223.431949 341.487696 
Q 226.958504 343.645061 229.531332 345.218985 
" style="fill:none;stroke:#000000;stroke-linecap:round;"/>
    <path clip-path="url(#p3a2c809e45)" d="M 227.162865 341.425522 
L 229.531332 345.218985 
L 225.075481 344.837681 
L 227.162865 341.425522 
z
" style="stroke:#000000;stroke-linecap:round;"/>
   </g>
   <g id="patch_21">
    <path clip-path="url(#p3a2c809e45)" d="M 225.282036 332.998956 
Q 231.287448 332.274397 236.182876 331.683759 
" style="fill:none;stroke:#000000;stroke-linecap:round;"/>
    <path clip-path="url(#p3a2c809e45)" d="M 231.972111 330.177288 
L 236.182876 331.683759 
L 232.45124 334.148489 
L 231.972111 330.177288 
z
" style="stroke:#000000;stroke-linecap:round;"/>
   </g>
   <g id="patch_22">
    <path clip-path="url(#p3a2c809e45)" d="M 199.011598 332.993209 
Q 191.51357 332.085228 185.125468 331.311655 
" style="fill:none;stroke:#000000;stroke-linecap:round;"/>
    <path clip-path="url(#p3a2c809e45)" d="M 188.856022 333.778021 
L 185.125468 331.311655 
L 189.336893 329.807031 
L 188.856022 333.778021 
z
" style="stroke:#000000;stroke-linecap:round;"/>
   </g>
   <g id="patch_23">
    <path clip-path="url(#p3a2c809e45)" d="M 491.137538 183.217838 
Q 506.24861 223.396817 520.96611 262.529325 
" style="fill:none;stroke:#000000;stroke-linecap:round;"/>
    <path clip-path="url(#p3a2c809e45)" d="M 521.43001 258.081315 
L 520.96611 262.529325 
L 517.686042 259.489399 
L 521.43001 258.081315 
z
" style="stroke:#000000;stroke-linecap:round;"/>
   </g>
   <g id="patch_24">
    <path clip-path="url(#p3a2c809e45)" d="M 473.342135 169.281745 
Q 396.121824 160.134725 320.011785 151.11922 
" style="fill:none;stroke:#000000;stroke-linecap:round;"/>
    <path clip-path="url(#p3a2c809e45)" d="M 323.748752 153.575859 
L 320.011785 151.11922 
L 324.219276 149.60363 
L 323.748752 153.575859 
z
" style="stroke:#000000;stroke-linecap:round;"/>
   </g>
   <g id="patch_25">
    <path clip-path="url(#p3a2c809e45)" d="M 522.444869 288.696511 
Q 513.88296 319.233161 505.622887 348.693291 
" style="fill:none;stroke:#000000;stroke-linecap:round;"/>
    <path clip-path="url(#p3a2c809e45)" d="M 508.628506 345.381757 
L 505.622887 348.693291 
L 504.777031 344.301875 
L 508.628506 345.381757 
z
" style="stroke:#000000;stroke-linecap:round;"/>
   </g>
   <g id="patch_26">
    <path clip-path="url(#p3a2c809e45)" d="M 521.360608 263.57826 
Q 506.249536 223.399281 491.532036 184.266773 
" style="fill:none;stroke:#000000;stroke-linecap:round;"/>
    <path clip-path="url(#p3a2c809e45)" d="M 491.068136 188.714783 
L 491.532036 184.266773 
L 494.812104 187.306699 
L 491.068136 188.714783 
z
" style="stroke:#000000;stroke-linecap:round;"/>
   </g>
   <g id="patch_27">
    <path clip-path="url(#p3a2c809e45)" d="M 491.555901 370.936995 
Q 487.021094 374.687729 483.347821 377.725889 
" style="fill:none;stroke:#000000;stroke-linecap:round;"/>
    <path clip-path="url(#p3a2c809e45)" d="M 487.704826 376.717667 
L 483.347821 377.725889 
L 485.155446 373.635353 
L 487.704826 376.717667 
z
" style="stroke:#000000;stroke-linecap:round;"/>
   </g>
   <g id="patch_28">
    <path clip-path="url(#p3a2c809e45)" d="M 505.321933 349.766664 
Q 513.883842 319.230015 522.143915 289.769885 
" style="fill:none;stroke:#000000;stroke-linecap:round;"/>
    <path clip-path="url(#p3a2c809e45)" d="M 519.138296 293.081418 
L 522.143915 289.769885 
L 522.98977 294.1613 
L 519.138296 293.081418 
z
" style="stroke:#000000;stroke-linecap:round;"/>
   </g>
   <g id="patch_29">
    <path clip-path="url(#p3a2c809e45)" d="M 461.666715 394.754287 
Q 450.675275 402.91018 440.581688 410.399845 
" style="fill:none;stroke:#000000;stroke-linecap:round;"/>
    <path clip-path="url(#p3a2c809e45)" d="M 444.98573 409.622407 
L 440.581688 410.399845 
L 442.602163 406.410148 
L 444.98573 409.622407 
z
" style="stroke:#000000;stroke-linecap:round;"/>
   </g>
   <g id="patch_30">
    <path clip-path="url(#p3a2c809e45)" d="M 459.077046 386.228292 
Q 442.075824 385.403295 426.191322 384.632487 
" style="fill:none;stroke:#000000;stroke-linecap:round;"/>
    <path clip-path="url(#p3a2c809e45)" d="M 430.089683 386.824011 
L 426.191322 384.632487 
L 430.283558 382.828713 
L 430.089683 386.824011 
z
" style="stroke:#000000;stroke-linecap:round;"/>
   </g>
   <g id="patch_31">
    <path clip-path="url(#p3a2c809e45)" d="M 482.487045 378.437836 
Q 487.021852 374.687102 490.695125 371.648942 
" style="fill:none;stroke:#000000;stroke-linecap:round;"/>
    <path clip-path="url(#p3a2c809e45)" d="M 486.33812 372.657164 
L 490.695125 371.648942 
L 488.8875 375.739479 
L 486.33812 372.657164 
z
" style="stroke:#000000;stroke-linecap:round;"/>
   </g>
   <g id="patch_32">
    <path clip-path="url(#p3a2c809e45)" d="M 197.818554 384.497724 
Q 165.86343 466.761428 134.313133 547.982964 
" style="fill:none;stroke:#000000;stroke-linecap:round;"/>
    <path clip-path="url(#p3a2c809e45)" d="M 137.625775 544.978567 
L 134.313133 547.982964 
L 133.897201 543.530212 
L 137.625775 544.978567 
z
" style="stroke:#000000;stroke-linecap:round;"/>
   </g>
   <g id="patch_33">
    <path clip-path="url(#p3a2c809e45)" d="M 215.837326 372.332571 
Q 243.619728 372.677408 270.284181 373.008369 
" style="fill:none;stroke:#000000;stroke-linecap:round;"/>
    <path clip-path="url(#p3a2c809e45)" d="M 266.309311 370.958878 
L 270.284181 373.008369 
L 266.259667 374.95857 
L 266.309311 370.958878 
z
" style="stroke:#000000;stroke-linecap:round;"/>
   </g>
   <g id="patch_34">
    <path clip-path="url(#p3a2c809e45)" d="M 128.169951 574.548312 
Q 122.629565 651.58935 117.169376 727.515234 
" style="fill:none;stroke:#000000;stroke-linecap:round;"/>
    <path clip-path="url(#p3a2c809e45)" d="M 119.451142 723.668996 
L 117.169376 727.515234 
L 115.461445 723.382078 
L 119.451142 723.668996 
z
" style="stroke:#000000;stroke-linecap:round;"/>
   </g>
   <g id="patch_35">
    <path clip-path="url(#p3a2c809e45)" d="M 133.90804 549.025816 
Q 165.863164 466.762112 197.413461 385.540577 
" style="fill:none;stroke:#000000;stroke-linecap:round;"/>
    <path clip-path="url(#p3a2c809e45)" d="M 194.100819 388.544973 
L 197.413461 385.540577 
L 197.829393 389.993329 
L 194.100819 388.544973 
z
" style="stroke:#000000;stroke-linecap:round;"/>
   </g>
   <g id="patch_36">
    <path clip-path="url(#p3a2c809e45)" d="M 111.689469 754.283822 
Q 107.709072 765.426632 104.104779 775.516568 
" style="fill:none;stroke:#000000;stroke-linecap:round;"/>
    <path clip-path="url(#p3a2c809e45)" d="M 107.333811 772.422484 
L 104.104779 775.516568 
L 103.566931 771.076892 
L 107.333811 772.422484 
z
" style="stroke:#000000;stroke-linecap:round;"/>
   </g>
   <g id="patch_37">
    <path clip-path="url(#p3a2c809e45)" d="M 117.089156 728.630721 
Q 122.629541 651.589683 128.089731 575.6638 
" style="fill:none;stroke:#000000;stroke-linecap:round;"/>
    <path clip-path="url(#p3a2c809e45)" d="M 125.807965 579.510037 
L 128.089731 575.6638 
L 129.797661 579.796955 
L 125.807965 579.510037 
z
" style="stroke:#000000;stroke-linecap:round;"/>
   </g>
   <g id="patch_38">
    <path clip-path="url(#p3a2c809e45)" d="M 103.730322 776.56483 
Q 107.710719 765.422019 111.315012 755.332084 
" style="fill:none;stroke:#000000;stroke-linecap:round;"/>
    <path clip-path="url(#p3a2c809e45)" d="M 108.08598 758.426168 
L 111.315012 755.332084 
L 111.85286 759.77176 
L 108.08598 758.426168 
z
" style="stroke:#000000;stroke-linecap:round;"/>
   </g>
   <g id="patch_39">
    <path clip-path="url(#p3a2c809e45)" d="M 350.444807 388.868103 
Q 350.440622 465.469796 350.436498 540.953455 
" style="fill:none;stroke:#000000;stroke-linecap:round;"/>
    <path clip-path="url(#p3a2c809e45)" d="M 352.436716 536.953565 
L 350.436498 540.953455 
L 348.436716 536.953346 
L 352.436716 536.953565 
z
" style="stroke:#000000;stroke-linecap:round;"/>
   </g>
   <g id="patch_40">
    <path clip-path="url(#p3a2c809e45)" d="M 337.225993 375.147923 
Q 317.540552 374.413754 298.972368 373.721253 
" style="fill:none;stroke:#000000;stroke-linecap:round;"/>
    <path clip-path="url(#p3a2c809e45)" d="M 302.895051 375.86894 
L 298.972368 373.721253 
L 303.044128 371.871719 
L 302.895051 375.86894 
z
" style="stroke:#000000;stroke-linecap:round;"/>
   </g>
   <g id="patch_41">
    <path clip-path="url(#p3a2c809e45)" d="M 344.246576 566.987837 
Q 314.311754 623.518053 284.900142 679.060215 
" style="fill:none;stroke:#000000;stroke-linecap:round;"/>
    <path clip-path="url(#p3a2c809e45)" d="M 288.539522 676.461194 
L 284.900142 679.060215 
L 285.004553 674.589298 
L 288.539522 676.461194 
z
" style="stroke:#000000;stroke-linecap:round;"/>
   </g>
   <g id="patch_42">
    <path clip-path="url(#p3a2c809e45)" d="M 350.436437 542.072845 
Q 350.440622 465.471151 350.444746 389.987492 
" style="fill:none;stroke:#000000;stroke-linecap:round;"/>
    <path clip-path="url(#p3a2c809e45)" d="M 348.444527 393.987383 
L 350.444746 389.987492 
L 352.444527 393.987601 
L 348.444527 393.987383 
z
" style="stroke:#000000;stroke-linecap:round;"/>
   </g>
   <g id="patch_43">
    <path clip-path="url(#p3a2c809e45)" d="M 272.211027 703.546065 
Q 266.467879 714.894575 261.229569 725.245519 
" style="fill:none;stroke:#000000;stroke-linecap:round;"/>
    <path clip-path="url(#p3a2c809e45)" d="M 264.820236 722.579602 
L 261.229569 725.245519 
L 261.251236 720.773436 
L 264.820236 722.579602 
z
" style="stroke:#000000;stroke-linecap:round;"/>
   </g>
   <g id="patch_44">
    <path clip-path="url(#p3a2c809e45)" d="M 284.374882 680.052139 
Q 314.309705 623.521923 343.721316 567.979761 
" style="fill:none;stroke:#000000;stroke-linecap:round;"/>
    <path clip-path="url(#p3a2c809e45)" d="M 340.081936 570.578782 
L 343.721316 567.979761 
L 343.616905 572.450678 
L 340.081936 570.578782 
z
" style="stroke:#000000;stroke-linecap:round;"/>
   </g>
   <g id="patch_45">
    <path clip-path="url(#p3a2c809e45)" d="M 260.725038 726.242477 
Q 266.468187 714.893967 271.706496 704.543023 
" style="fill:none;stroke:#000000;stroke-linecap:round;"/>
    <path clip-path="url(#p3a2c809e45)" d="M 268.11583 707.20894 
L 271.706496 704.543023 
L 271.68483 709.015107 
L 268.11583 707.20894 
z
" style="stroke:#000000;stroke-linecap:round;"/>
   </g>
   <g id="patch_46">
    <path clip-path="url(#p3a2c809e45)" d="M 230.483152 345.80126 
Q 226.956597 343.643895 224.38377 342.069971 
" style="fill:none;stroke:#000000;stroke-linecap:round;"/>
    <path clip-path="url(#p3a2c809e45)" d="M 226.752237 345.863434 
L 224.38377 342.069971 
L 228.83962 342.451275 
L 226.752237 345.863434 
z
" style="stroke:#000000;stroke-linecap:round;"/>
   </g>
   <g id="patch_47">
    <path clip-path="url(#p3a2c809e45)" d="M 237.291484 331.550005 
Q 231.286072 332.274563 226.390644 332.865201 
" style="fill:none;stroke:#000000;stroke-linecap:round;"/>
    <path clip-path="url(#p3a2c809e45)" d="M 230.601409 334.371673 
L 226.390644 332.865201 
L 230.12228 330.400472 
L 230.601409 334.371673 
z
" style="stroke:#000000;stroke-linecap:round;"/>
   </g>
   <g id="patch_48">
    <path clip-path="url(#p3a2c809e45)" d="M 439.686524 411.064076 
Q 450.677965 402.908184 460.771552 395.418519 
" style="fill:none;stroke:#000000;stroke-linecap:round;"/>
    <path clip-path="url(#p3a2c809e45)" d="M 456.367509 396.195956 
L 460.771552 395.418519 
L 458.751076 399.408215 
L 456.367509 396.195956 
z
" style="stroke:#000000;stroke-linecap:round;"/>
   </g>
   <g id="patch_49">
    <path clip-path="url(#p3a2c809e45)" d="M 425.077143 384.578421 
Q 442.078365 385.403418 457.962867 386.174226 
" style="fill:none;stroke:#000000;stroke-linecap:round;"/>
    <path clip-path="url(#p3a2c809e45)" d="M 454.064506 383.982702 
L 457.962867 386.174226 
L 453.870631 387.978 
L 454.064506 383.982702 
z
" style="stroke:#000000;stroke-linecap:round;"/>
   </g>
   <g id="PathCollection_1">
    <defs>
     <path d="M 0 13.228757 
C 3.508307 13.228757 6.873396 11.834891 9.354143 9.354143 
C 11.834891 6.873396 13.228757 3.508307 13.228757 0 
C 13.228757 -3.508307 11.834891 -6.873396 9.354143 -9.354143 
C 6.873396 -11.834891 3.508307 -13.228757 0 -13.228757 
C -3.508307 -13.228757 -6.873396 -11.834891 -9.354143 -9.354143 
C -11.834891 -6.873396 -13.228757 -3.508307 -13.228757 0 
C -13.228757 3.508307 -11.834891 6.873396 -9.354143 9.354143 
C -6.873396 11.834891 -3.508307 13.228757 0 13.228757 
z
" id="m92614cfd84" style="stroke:#87ceeb;"/>
    </defs>
    <g clip-path="url(#p3a2c809e45)">
     <use style="fill:#87ceeb;stroke:#87ceeb;" x="330.395604" xlink:href="#m92614cfd84" y="74.975207"/>
     <use style="fill:#87ceeb;stroke:#87ceeb;" x="307.432636" xlink:href="#m92614cfd84" y="118.494008"/>
     <use style="fill:#87ceeb;stroke:#87ceeb;" x="305.766171" xlink:href="#m92614cfd84" y="149.431777"/>
     <use style="fill:#87ceeb;stroke:#87ceeb;" x="297.988973" xlink:href="#m92614cfd84" y="244.260205"/>
     <use style="fill:#87ceeb;stroke:#87ceeb;" x="284.633043" xlink:href="#m92614cfd84" y="373.186468"/>
     <use style="fill:#87ceeb;stroke:#87ceeb;" x="138.170864" xlink:href="#m92614cfd84" y="149.770082"/>
     <use style="fill:#87ceeb;stroke:#87ceeb;" x="49.983471" xlink:href="#m92614cfd84" y="234.042407"/>
     <use style="fill:#87ceeb;stroke:#87ceeb;" x="170.880686" xlink:href="#m92614cfd84" y="329.58667"/>
     <use style="fill:#87ceeb;stroke:#87ceeb;" x="212.146409" xlink:href="#m92614cfd84" y="334.583781"/>
     <use style="fill:#87ceeb;stroke:#87ceeb;" x="486.481617" xlink:href="#m92614cfd84" y="170.838163"/>
     <use style="fill:#87ceeb;stroke:#87ceeb;" x="526.016529" xlink:href="#m92614cfd84" y="275.957935"/>
     <use style="fill:#87ceeb;stroke:#87ceeb;" x="501.750273" xlink:href="#m92614cfd84" y="362.50524"/>
     <use style="fill:#87ceeb;stroke:#87ceeb;" x="472.292673" xlink:href="#m92614cfd84" y="386.869591"/>
     <use style="fill:#87ceeb;stroke:#87ceeb;" x="202.607862" xlink:href="#m92614cfd84" y="372.168365"/>
     <use style="fill:#87ceeb;stroke:#87ceeb;" x="129.118732" xlink:href="#m92614cfd84" y="561.355175"/>
     <use style="fill:#87ceeb;stroke:#87ceeb;" x="116.140375" xlink:href="#m92614cfd84" y="741.823858"/>
     <use style="fill:#87ceeb;stroke:#87ceeb;" x="99.279416" xlink:href="#m92614cfd84" y="789.024793"/>
     <use style="fill:#87ceeb;stroke:#87ceeb;" x="350.44553" xlink:href="#m92614cfd84" y="375.640946"/>
     <use style="fill:#87ceeb;stroke:#87ceeb;" x="350.435714" xlink:href="#m92614cfd84" y="555.300001"/>
     <use style="fill:#87ceeb;stroke:#87ceeb;" x="278.185744" xlink:href="#m92614cfd84" y="691.739974"/>
     <use style="fill:#87ceeb;stroke:#87ceeb;" x="254.750321" xlink:href="#m92614cfd84" y="738.048568"/>
     <use style="fill:#87ceeb;stroke:#87ceeb;" x="241.768692" xlink:href="#m92614cfd84" y="352.705175"/>
     <use style="fill:#87ceeb;stroke:#87ceeb;" x="250.42711" xlink:href="#m92614cfd84" y="329.965179"/>
     <use style="fill:#87ceeb;stroke:#87ceeb;" x="429.060566" xlink:href="#m92614cfd84" y="418.948772"/>
     <use style="fill:#87ceeb;stroke:#87ceeb;" x="411.861516" xlink:href="#m92614cfd84" y="383.937122"/>
    </g>
   </g>
   <g id="text_1">
    <g clip-path="url(#p3a2c809e45)">
     <!-- Head -->
     <g transform="translate(317.320604 77.734582)scale(0.1 -0.1)">
      <defs>
       <path d="M 9.8125 72.90625 
L 19.671875 72.90625 
L 19.671875 43.015625 
L 55.515625 43.015625 
L 55.515625 72.90625 
L 65.375 72.90625 
L 65.375 0 
L 55.515625 0 
L 55.515625 34.71875 
L 19.671875 34.71875 
L 19.671875 0 
L 9.8125 0 
z
" id="DejaVuSans-72"/>
       <path d="M 56.203125 29.59375 
L 56.203125 25.203125 
L 14.890625 25.203125 
Q 15.484375 15.921875 20.484375 11.0625 
Q 25.484375 6.203125 34.421875 6.203125 
Q 39.59375 6.203125 44.453125 7.46875 
Q 49.3125 8.734375 54.109375 11.28125 
L 54.109375 2.78125 
Q 49.265625 0.734375 44.1875 -0.34375 
Q 39.109375 -1.421875 33.890625 -1.421875 
Q 20.796875 -1.421875 13.15625 6.1875 
Q 5.515625 13.8125 5.515625 26.8125 
Q 5.515625 40.234375 12.765625 48.109375 
Q 20.015625 56 32.328125 56 
Q 43.359375 56 49.78125 48.890625 
Q 56.203125 41.796875 56.203125 29.59375 
z
M 47.21875 32.234375 
Q 47.125 39.59375 43.09375 43.984375 
Q 39.0625 48.390625 32.421875 48.390625 
Q 24.90625 48.390625 20.390625 44.140625 
Q 15.875 39.890625 15.1875 32.171875 
z
" id="DejaVuSans-101"/>
       <path d="M 34.28125 27.484375 
Q 23.390625 27.484375 19.1875 25 
Q 14.984375 22.515625 14.984375 16.5 
Q 14.984375 11.71875 18.140625 8.90625 
Q 21.296875 6.109375 26.703125 6.109375 
Q 34.1875 6.109375 38.703125 11.40625 
Q 43.21875 16.703125 43.21875 25.484375 
L 43.21875 27.484375 
z
M 52.203125 31.203125 
L 52.203125 0 
L 43.21875 0 
L 43.21875 8.296875 
Q 40.140625 3.328125 35.546875 0.953125 
Q 30.953125 -1.421875 24.3125 -1.421875 
Q 15.921875 -1.421875 10.953125 3.296875 
Q 6 8.015625 6 15.921875 
Q 6 25.140625 12.171875 29.828125 
Q 18.359375 34.515625 30.609375 34.515625 
L 43.21875 34.515625 
L 43.21875 35.40625 
Q 43.21875 41.609375 39.140625 45 
Q 35.0625 48.390625 27.6875 48.390625 
Q 23 48.390625 18.546875 47.265625 
Q 14.109375 46.140625 10.015625 43.890625 
L 10.015625 52.203125 
Q 14.9375 54.109375 19.578125 55.046875 
Q 24.21875 56 28.609375 56 
Q 40.484375 56 46.34375 49.84375 
Q 52.203125 43.703125 52.203125 31.203125 
z
" id="DejaVuSans-97"/>
       <path d="M 45.40625 46.390625 
L 45.40625 75.984375 
L 54.390625 75.984375 
L 54.390625 0 
L 45.40625 0 
L 45.40625 8.203125 
Q 42.578125 3.328125 38.25 0.953125 
Q 33.9375 -1.421875 27.875 -1.421875 
Q 17.96875 -1.421875 11.734375 6.484375 
Q 5.515625 14.40625 5.515625 27.296875 
Q 5.515625 40.1875 11.734375 48.09375 
Q 17.96875 56 27.875 56 
Q 33.9375 56 38.25 53.625 
Q 42.578125 51.265625 45.40625 46.390625 
z
M 14.796875 27.296875 
Q 14.796875 17.390625 18.875 11.75 
Q 22.953125 6.109375 30.078125 6.109375 
Q 37.203125 6.109375 41.296875 11.75 
Q 45.40625 17.390625 45.40625 27.296875 
Q 45.40625 37.203125 41.296875 42.84375 
Q 37.203125 48.484375 30.078125 48.484375 
Q 22.953125 48.484375 18.875 42.84375 
Q 14.796875 37.203125 14.796875 27.296875 
z
" id="DejaVuSans-100"/>
      </defs>
      <use xlink:href="#DejaVuSans-72"/>
      <use x="75.195312" xlink:href="#DejaVuSans-101"/>
      <use x="136.71875" xlink:href="#DejaVuSans-97"/>
      <use x="197.998047" xlink:href="#DejaVuSans-100"/>
     </g>
    </g>
   </g>
   <g id="text_2">
    <g clip-path="url(#p3a2c809e45)">
     <!-- c7 -->
     <g transform="translate(301.502167 121.253383)scale(0.1 -0.1)">
      <defs>
       <path d="M 48.78125 52.59375 
L 48.78125 44.1875 
Q 44.96875 46.296875 41.140625 47.34375 
Q 37.3125 48.390625 33.40625 48.390625 
Q 24.65625 48.390625 19.8125 42.84375 
Q 14.984375 37.3125 14.984375 27.296875 
Q 14.984375 17.28125 19.8125 11.734375 
Q 24.65625 6.203125 33.40625 6.203125 
Q 37.3125 6.203125 41.140625 7.25 
Q 44.96875 8.296875 48.78125 10.40625 
L 48.78125 2.09375 
Q 45.015625 0.34375 40.984375 -0.53125 
Q 36.96875 -1.421875 32.421875 -1.421875 
Q 20.0625 -1.421875 12.78125 6.34375 
Q 5.515625 14.109375 5.515625 27.296875 
Q 5.515625 40.671875 12.859375 48.328125 
Q 20.21875 56 33.015625 56 
Q 37.15625 56 41.109375 55.140625 
Q 45.0625 54.296875 48.78125 52.59375 
z
" id="DejaVuSans-99"/>
       <path d="M 8.203125 72.90625 
L 55.078125 72.90625 
L 55.078125 68.703125 
L 28.609375 0 
L 18.3125 0 
L 43.21875 64.59375 
L 8.203125 64.59375 
z
" id="DejaVuSans-55"/>
      </defs>
      <use xlink:href="#DejaVuSans-99"/>
      <use x="54.980469" xlink:href="#DejaVuSans-55"/>
     </g>
    </g>
   </g>
   <g id="text_3">
    <g clip-path="url(#p3a2c809e45)">
     <!-- SpineShoulder -->
     <g transform="translate(269.516953 152.191152)scale(0.1 -0.1)">
      <defs>
       <path d="M 53.515625 70.515625 
L 53.515625 60.890625 
Q 47.90625 63.578125 42.921875 64.890625 
Q 37.9375 66.21875 33.296875 66.21875 
Q 25.25 66.21875 20.875 63.09375 
Q 16.5 59.96875 16.5 54.203125 
Q 16.5 49.359375 19.40625 46.890625 
Q 22.3125 44.4375 30.421875 42.921875 
L 36.375 41.703125 
Q 47.40625 39.59375 52.65625 34.296875 
Q 57.90625 29 57.90625 20.125 
Q 57.90625 9.515625 50.796875 4.046875 
Q 43.703125 -1.421875 29.984375 -1.421875 
Q 24.8125 -1.421875 18.96875 -0.25 
Q 13.140625 0.921875 6.890625 3.21875 
L 6.890625 13.375 
Q 12.890625 10.015625 18.65625 8.296875 
Q 24.421875 6.59375 29.984375 6.59375 
Q 38.421875 6.59375 43.015625 9.90625 
Q 47.609375 13.234375 47.609375 19.390625 
Q 47.609375 24.75 44.3125 27.78125 
Q 41.015625 30.8125 33.5 32.328125 
L 27.484375 33.5 
Q 16.453125 35.6875 11.515625 40.375 
Q 6.59375 45.0625 6.59375 53.421875 
Q 6.59375 63.09375 13.40625 68.65625 
Q 20.21875 74.21875 32.171875 74.21875 
Q 37.3125 74.21875 42.625 73.28125 
Q 47.953125 72.359375 53.515625 70.515625 
z
" id="DejaVuSans-83"/>
       <path d="M 18.109375 8.203125 
L 18.109375 -20.796875 
L 9.078125 -20.796875 
L 9.078125 54.6875 
L 18.109375 54.6875 
L 18.109375 46.390625 
Q 20.953125 51.265625 25.265625 53.625 
Q 29.59375 56 35.59375 56 
Q 45.5625 56 51.78125 48.09375 
Q 58.015625 40.1875 58.015625 27.296875 
Q 58.015625 14.40625 51.78125 6.484375 
Q 45.5625 -1.421875 35.59375 -1.421875 
Q 29.59375 -1.421875 25.265625 0.953125 
Q 20.953125 3.328125 18.109375 8.203125 
z
M 48.6875 27.296875 
Q 48.6875 37.203125 44.609375 42.84375 
Q 40.53125 48.484375 33.40625 48.484375 
Q 26.265625 48.484375 22.1875 42.84375 
Q 18.109375 37.203125 18.109375 27.296875 
Q 18.109375 17.390625 22.1875 11.75 
Q 26.265625 6.109375 33.40625 6.109375 
Q 40.53125 6.109375 44.609375 11.75 
Q 48.6875 17.390625 48.6875 27.296875 
z
" id="DejaVuSans-112"/>
       <path d="M 9.421875 54.6875 
L 18.40625 54.6875 
L 18.40625 0 
L 9.421875 0 
z
M 9.421875 75.984375 
L 18.40625 75.984375 
L 18.40625 64.59375 
L 9.421875 64.59375 
z
" id="DejaVuSans-105"/>
       <path d="M 54.890625 33.015625 
L 54.890625 0 
L 45.90625 0 
L 45.90625 32.71875 
Q 45.90625 40.484375 42.875 44.328125 
Q 39.84375 48.1875 33.796875 48.1875 
Q 26.515625 48.1875 22.3125 43.546875 
Q 18.109375 38.921875 18.109375 30.90625 
L 18.109375 0 
L 9.078125 0 
L 9.078125 54.6875 
L 18.109375 54.6875 
L 18.109375 46.1875 
Q 21.34375 51.125 25.703125 53.5625 
Q 30.078125 56 35.796875 56 
Q 45.21875 56 50.046875 50.171875 
Q 54.890625 44.34375 54.890625 33.015625 
z
" id="DejaVuSans-110"/>
       <path d="M 54.890625 33.015625 
L 54.890625 0 
L 45.90625 0 
L 45.90625 32.71875 
Q 45.90625 40.484375 42.875 44.328125 
Q 39.84375 48.1875 33.796875 48.1875 
Q 26.515625 48.1875 22.3125 43.546875 
Q 18.109375 38.921875 18.109375 30.90625 
L 18.109375 0 
L 9.078125 0 
L 9.078125 75.984375 
L 18.109375 75.984375 
L 18.109375 46.1875 
Q 21.34375 51.125 25.703125 53.5625 
Q 30.078125 56 35.796875 56 
Q 45.21875 56 50.046875 50.171875 
Q 54.890625 44.34375 54.890625 33.015625 
z
" id="DejaVuSans-104"/>
       <path d="M 30.609375 48.390625 
Q 23.390625 48.390625 19.1875 42.75 
Q 14.984375 37.109375 14.984375 27.296875 
Q 14.984375 17.484375 19.15625 11.84375 
Q 23.34375 6.203125 30.609375 6.203125 
Q 37.796875 6.203125 41.984375 11.859375 
Q 46.1875 17.53125 46.1875 27.296875 
Q 46.1875 37.015625 41.984375 42.703125 
Q 37.796875 48.390625 30.609375 48.390625 
z
M 30.609375 56 
Q 42.328125 56 49.015625 48.375 
Q 55.71875 40.765625 55.71875 27.296875 
Q 55.71875 13.875 49.015625 6.21875 
Q 42.328125 -1.421875 30.609375 -1.421875 
Q 18.84375 -1.421875 12.171875 6.21875 
Q 5.515625 13.875 5.515625 27.296875 
Q 5.515625 40.765625 12.171875 48.375 
Q 18.84375 56 30.609375 56 
z
" id="DejaVuSans-111"/>
       <path d="M 8.5 21.578125 
L 8.5 54.6875 
L 17.484375 54.6875 
L 17.484375 21.921875 
Q 17.484375 14.15625 20.5 10.265625 
Q 23.53125 6.390625 29.59375 6.390625 
Q 36.859375 6.390625 41.078125 11.03125 
Q 45.3125 15.671875 45.3125 23.6875 
L 45.3125 54.6875 
L 54.296875 54.6875 
L 54.296875 0 
L 45.3125 0 
L 45.3125 8.40625 
Q 42.046875 3.421875 37.71875 1 
Q 33.40625 -1.421875 27.6875 -1.421875 
Q 18.265625 -1.421875 13.375 4.4375 
Q 8.5 10.296875 8.5 21.578125 
z
M 31.109375 56 
z
" id="DejaVuSans-117"/>
       <path d="M 9.421875 75.984375 
L 18.40625 75.984375 
L 18.40625 0 
L 9.421875 0 
z
" id="DejaVuSans-108"/>
       <path d="M 41.109375 46.296875 
Q 39.59375 47.171875 37.8125 47.578125 
Q 36.03125 48 33.890625 48 
Q 26.265625 48 22.1875 43.046875 
Q 18.109375 38.09375 18.109375 28.8125 
L 18.109375 0 
L 9.078125 0 
L 9.078125 54.6875 
L 18.109375 54.6875 
L 18.109375 46.1875 
Q 20.953125 51.171875 25.484375 53.578125 
Q 30.03125 56 36.53125 56 
Q 37.453125 56 38.578125 55.875 
Q 39.703125 55.765625 41.0625 55.515625 
z
" id="DejaVuSans-114"/>
      </defs>
      <use xlink:href="#DejaVuSans-83"/>
      <use x="63.476562" xlink:href="#DejaVuSans-112"/>
      <use x="126.953125" xlink:href="#DejaVuSans-105"/>
      <use x="154.736328" xlink:href="#DejaVuSans-110"/>
      <use x="218.115234" xlink:href="#DejaVuSans-101"/>
      <use x="279.638672" xlink:href="#DejaVuSans-83"/>
      <use x="343.115234" xlink:href="#DejaVuSans-104"/>
      <use x="406.494141" xlink:href="#DejaVuSans-111"/>
      <use x="467.675781" xlink:href="#DejaVuSans-117"/>
      <use x="531.054688" xlink:href="#DejaVuSans-108"/>
      <use x="558.837891" xlink:href="#DejaVuSans-100"/>
      <use x="622.314453" xlink:href="#DejaVuSans-101"/>
      <use x="683.837891" xlink:href="#DejaVuSans-114"/>
     </g>
    </g>
   </g>
   <g id="text_4">
    <g clip-path="url(#p3a2c809e45)">
     <!-- Spine -->
     <g transform="translate(284.00616 247.01958)scale(0.1 -0.1)">
      <use xlink:href="#DejaVuSans-83"/>
      <use x="63.476562" xlink:href="#DejaVuSans-112"/>
      <use x="126.953125" xlink:href="#DejaVuSans-105"/>
      <use x="154.736328" xlink:href="#DejaVuSans-110"/>
      <use x="218.115234" xlink:href="#DejaVuSans-101"/>
     </g>
    </g>
   </g>
   <g id="text_5">
    <g clip-path="url(#p3a2c809e45)">
     <!-- Sacr -->
     <g transform="translate(273.590075 375.945843)scale(0.1 -0.1)">
      <use xlink:href="#DejaVuSans-83"/>
      <use x="63.476562" xlink:href="#DejaVuSans-97"/>
      <use x="124.755859" xlink:href="#DejaVuSans-99"/>
      <use x="179.736328" xlink:href="#DejaVuSans-114"/>
     </g>
    </g>
   </g>
   <g id="text_6">
    <g clip-path="url(#p3a2c809e45)">
     <!-- LShoulder -->
     <g transform="translate(113.11852 152.529457)scale(0.1 -0.1)">
      <defs>
       <path d="M 9.8125 72.90625 
L 19.671875 72.90625 
L 19.671875 8.296875 
L 55.171875 8.296875 
L 55.171875 0 
L 9.8125 0 
z
" id="DejaVuSans-76"/>
      </defs>
      <use xlink:href="#DejaVuSans-76"/>
      <use x="55.712891" xlink:href="#DejaVuSans-83"/>
      <use x="119.189453" xlink:href="#DejaVuSans-104"/>
      <use x="182.568359" xlink:href="#DejaVuSans-111"/>
      <use x="243.75" xlink:href="#DejaVuSans-117"/>
      <use x="307.128906" xlink:href="#DejaVuSans-108"/>
      <use x="334.912109" xlink:href="#DejaVuSans-100"/>
      <use x="398.388672" xlink:href="#DejaVuSans-101"/>
      <use x="459.912109" xlink:href="#DejaVuSans-114"/>
     </g>
    </g>
   </g>
   <g id="text_7">
    <g clip-path="url(#p3a2c809e45)">
     <!-- LElbow -->
     <g transform="translate(32.32644 236.801782)scale(0.1 -0.1)">
      <defs>
       <path d="M 9.8125 72.90625 
L 55.90625 72.90625 
L 55.90625 64.59375 
L 19.671875 64.59375 
L 19.671875 43.015625 
L 54.390625 43.015625 
L 54.390625 34.71875 
L 19.671875 34.71875 
L 19.671875 8.296875 
L 56.78125 8.296875 
L 56.78125 0 
L 9.8125 0 
z
" id="DejaVuSans-69"/>
       <path d="M 48.6875 27.296875 
Q 48.6875 37.203125 44.609375 42.84375 
Q 40.53125 48.484375 33.40625 48.484375 
Q 26.265625 48.484375 22.1875 42.84375 
Q 18.109375 37.203125 18.109375 27.296875 
Q 18.109375 17.390625 22.1875 11.75 
Q 26.265625 6.109375 33.40625 6.109375 
Q 40.53125 6.109375 44.609375 11.75 
Q 48.6875 17.390625 48.6875 27.296875 
z
M 18.109375 46.390625 
Q 20.953125 51.265625 25.265625 53.625 
Q 29.59375 56 35.59375 56 
Q 45.5625 56 51.78125 48.09375 
Q 58.015625 40.1875 58.015625 27.296875 
Q 58.015625 14.40625 51.78125 6.484375 
Q 45.5625 -1.421875 35.59375 -1.421875 
Q 29.59375 -1.421875 25.265625 0.953125 
Q 20.953125 3.328125 18.109375 8.203125 
L 18.109375 0 
L 9.078125 0 
L 9.078125 75.984375 
L 18.109375 75.984375 
z
" id="DejaVuSans-98"/>
       <path d="M 4.203125 54.6875 
L 13.1875 54.6875 
L 24.421875 12.015625 
L 35.59375 54.6875 
L 46.1875 54.6875 
L 57.421875 12.015625 
L 68.609375 54.6875 
L 77.59375 54.6875 
L 63.28125 0 
L 52.6875 0 
L 40.921875 44.828125 
L 29.109375 0 
L 18.5 0 
z
" id="DejaVuSans-119"/>
      </defs>
      <use xlink:href="#DejaVuSans-76"/>
      <use x="55.712891" xlink:href="#DejaVuSans-69"/>
      <use x="118.896484" xlink:href="#DejaVuSans-108"/>
      <use x="146.679688" xlink:href="#DejaVuSans-98"/>
      <use x="210.15625" xlink:href="#DejaVuSans-111"/>
      <use x="271.337891" xlink:href="#DejaVuSans-119"/>
     </g>
    </g>
   </g>
   <g id="text_8">
    <g clip-path="url(#p3a2c809e45)">
     <!-- LWrist -->
     <g transform="translate(155.822874 332.346045)scale(0.1 -0.1)">
      <defs>
       <path d="M 3.328125 72.90625 
L 13.28125 72.90625 
L 28.609375 11.28125 
L 43.890625 72.90625 
L 54.984375 72.90625 
L 70.3125 11.28125 
L 85.59375 72.90625 
L 95.609375 72.90625 
L 77.296875 0 
L 64.890625 0 
L 49.515625 63.28125 
L 33.984375 0 
L 21.578125 0 
z
" id="DejaVuSans-87"/>
       <path d="M 44.28125 53.078125 
L 44.28125 44.578125 
Q 40.484375 46.53125 36.375 47.5 
Q 32.28125 48.484375 27.875 48.484375 
Q 21.1875 48.484375 17.84375 46.4375 
Q 14.5 44.390625 14.5 40.28125 
Q 14.5 37.15625 16.890625 35.375 
Q 19.28125 33.59375 26.515625 31.984375 
L 29.59375 31.296875 
Q 39.15625 29.25 43.1875 25.515625 
Q 47.21875 21.78125 47.21875 15.09375 
Q 47.21875 7.46875 41.1875 3.015625 
Q 35.15625 -1.421875 24.609375 -1.421875 
Q 20.21875 -1.421875 15.453125 -0.5625 
Q 10.6875 0.296875 5.421875 2 
L 5.421875 11.28125 
Q 10.40625 8.6875 15.234375 7.390625 
Q 20.0625 6.109375 24.8125 6.109375 
Q 31.15625 6.109375 34.5625 8.28125 
Q 37.984375 10.453125 37.984375 14.40625 
Q 37.984375 18.0625 35.515625 20.015625 
Q 33.0625 21.96875 24.703125 23.78125 
L 21.578125 24.515625 
Q 13.234375 26.265625 9.515625 29.90625 
Q 5.8125 33.546875 5.8125 39.890625 
Q 5.8125 47.609375 11.28125 51.796875 
Q 16.75 56 26.8125 56 
Q 31.78125 56 36.171875 55.265625 
Q 40.578125 54.546875 44.28125 53.078125 
z
" id="DejaVuSans-115"/>
       <path d="M 18.3125 70.21875 
L 18.3125 54.6875 
L 36.8125 54.6875 
L 36.8125 47.703125 
L 18.3125 47.703125 
L 18.3125 18.015625 
Q 18.3125 11.328125 20.140625 9.421875 
Q 21.96875 7.515625 27.59375 7.515625 
L 36.8125 7.515625 
L 36.8125 0 
L 27.59375 0 
Q 17.1875 0 13.234375 3.875 
Q 9.28125 7.765625 9.28125 18.015625 
L 9.28125 47.703125 
L 2.6875 47.703125 
L 2.6875 54.6875 
L 9.28125 54.6875 
L 9.28125 70.21875 
z
" id="DejaVuSans-116"/>
      </defs>
      <use xlink:href="#DejaVuSans-76"/>
      <use x="46.587891" xlink:href="#DejaVuSans-87"/>
      <use x="140.964844" xlink:href="#DejaVuSans-114"/>
      <use x="182.078125" xlink:href="#DejaVuSans-105"/>
      <use x="209.861328" xlink:href="#DejaVuSans-115"/>
      <use x="261.960938" xlink:href="#DejaVuSans-116"/>
     </g>
    </g>
   </g>
   <g id="text_9">
    <g clip-path="url(#p3a2c809e45)">
     <!-- LHand -->
     <g transform="translate(196.193284 337.343156)scale(0.1 -0.1)">
      <use xlink:href="#DejaVuSans-76"/>
      <use x="55.712891" xlink:href="#DejaVuSans-72"/>
      <use x="130.908203" xlink:href="#DejaVuSans-97"/>
      <use x="192.1875" xlink:href="#DejaVuSans-110"/>
      <use x="255.566406" xlink:href="#DejaVuSans-100"/>
     </g>
    </g>
   </g>
   <g id="text_10">
    <g clip-path="url(#p3a2c809e45)">
     <!-- RShoulder -->
     <g transform="translate(460.740992 173.597538)scale(0.1 -0.1)">
      <defs>
       <path d="M 44.390625 34.1875 
Q 47.5625 33.109375 50.5625 29.59375 
Q 53.5625 26.078125 56.59375 19.921875 
L 66.609375 0 
L 56 0 
L 46.6875 18.703125 
Q 43.0625 26.03125 39.671875 28.421875 
Q 36.28125 30.8125 30.421875 30.8125 
L 19.671875 30.8125 
L 19.671875 0 
L 9.8125 0 
L 9.8125 72.90625 
L 32.078125 72.90625 
Q 44.578125 72.90625 50.734375 67.671875 
Q 56.890625 62.453125 56.890625 51.90625 
Q 56.890625 45.015625 53.6875 40.46875 
Q 50.484375 35.9375 44.390625 34.1875 
z
M 19.671875 64.796875 
L 19.671875 38.921875 
L 32.078125 38.921875 
Q 39.203125 38.921875 42.84375 42.21875 
Q 46.484375 45.515625 46.484375 51.90625 
Q 46.484375 58.296875 42.84375 61.546875 
Q 39.203125 64.796875 32.078125 64.796875 
z
" id="DejaVuSans-82"/>
      </defs>
      <use xlink:href="#DejaVuSans-82"/>
      <use x="69.482422" xlink:href="#DejaVuSans-83"/>
      <use x="132.958984" xlink:href="#DejaVuSans-104"/>
      <use x="196.337891" xlink:href="#DejaVuSans-111"/>
      <use x="257.519531" xlink:href="#DejaVuSans-117"/>
      <use x="320.898438" xlink:href="#DejaVuSans-108"/>
      <use x="348.681641" xlink:href="#DejaVuSans-100"/>
      <use x="412.158203" xlink:href="#DejaVuSans-101"/>
      <use x="473.681641" xlink:href="#DejaVuSans-114"/>
     </g>
    </g>
   </g>
   <g id="text_11">
    <g clip-path="url(#p3a2c809e45)">
     <!-- RElbow -->
     <g transform="translate(507.671216 278.71731)scale(0.1 -0.1)">
      <use xlink:href="#DejaVuSans-82"/>
      <use x="69.482422" xlink:href="#DejaVuSans-69"/>
      <use x="132.666016" xlink:href="#DejaVuSans-108"/>
      <use x="160.449219" xlink:href="#DejaVuSans-98"/>
      <use x="223.925781" xlink:href="#DejaVuSans-111"/>
      <use x="285.107422" xlink:href="#DejaVuSans-119"/>
     </g>
    </g>
   </g>
   <g id="text_12">
    <g clip-path="url(#p3a2c809e45)">
     <!-- RWrist -->
     <g transform="translate(485.747929 365.264615)scale(0.1 -0.1)">
      <use xlink:href="#DejaVuSans-82"/>
      <use x="65.482422" xlink:href="#DejaVuSans-87"/>
      <use x="159.859375" xlink:href="#DejaVuSans-114"/>
      <use x="200.972656" xlink:href="#DejaVuSans-105"/>
      <use x="228.755859" xlink:href="#DejaVuSans-115"/>
      <use x="280.855469" xlink:href="#DejaVuSans-116"/>
     </g>
    </g>
   </g>
   <g id="text_13">
    <g clip-path="url(#p3a2c809e45)">
     <!-- RHand -->
     <g transform="translate(455.651267 389.628966)scale(0.1 -0.1)">
      <use xlink:href="#DejaVuSans-82"/>
      <use x="69.482422" xlink:href="#DejaVuSans-72"/>
      <use x="144.677734" xlink:href="#DejaVuSans-97"/>
      <use x="205.957031" xlink:href="#DejaVuSans-110"/>
      <use x="269.335938" xlink:href="#DejaVuSans-100"/>
     </g>
    </g>
   </g>
   <g id="text_14">
    <g clip-path="url(#p3a2c809e45)">
     <!-- LHip -->
     <g transform="translate(191.498487 374.92774)scale(0.1 -0.1)">
      <use xlink:href="#DejaVuSans-76"/>
      <use x="55.712891" xlink:href="#DejaVuSans-72"/>
      <use x="130.908203" xlink:href="#DejaVuSans-105"/>
      <use x="158.691406" xlink:href="#DejaVuSans-112"/>
     </g>
    </g>
   </g>
   <g id="text_15">
    <g clip-path="url(#p3a2c809e45)">
     <!-- LKnee -->
     <g transform="translate(113.732013 564.11455)scale(0.1 -0.1)">
      <defs>
       <path d="M 9.8125 72.90625 
L 19.671875 72.90625 
L 19.671875 42.09375 
L 52.390625 72.90625 
L 65.09375 72.90625 
L 28.90625 38.921875 
L 67.671875 0 
L 54.6875 0 
L 19.671875 35.109375 
L 19.671875 0 
L 9.8125 0 
z
" id="DejaVuSans-75"/>
      </defs>
      <use xlink:href="#DejaVuSans-76"/>
      <use x="55.712891" xlink:href="#DejaVuSans-75"/>
      <use x="121.289062" xlink:href="#DejaVuSans-110"/>
      <use x="184.667969" xlink:href="#DejaVuSans-101"/>
      <use x="246.191406" xlink:href="#DejaVuSans-101"/>
     </g>
    </g>
   </g>
   <g id="text_16">
    <g clip-path="url(#p3a2c809e45)">
     <!-- LAnkle -->
     <g transform="translate(99.291937 744.583233)scale(0.1 -0.1)">
      <defs>
       <path d="M 34.1875 63.1875 
L 20.796875 26.90625 
L 47.609375 26.90625 
z
M 28.609375 72.90625 
L 39.796875 72.90625 
L 67.578125 0 
L 57.328125 0 
L 50.6875 18.703125 
L 17.828125 18.703125 
L 11.1875 0 
L 0.78125 0 
z
" id="DejaVuSans-65"/>
       <path d="M 9.078125 75.984375 
L 18.109375 75.984375 
L 18.109375 31.109375 
L 44.921875 54.6875 
L 56.390625 54.6875 
L 27.390625 29.109375 
L 57.625 0 
L 45.90625 0 
L 18.109375 26.703125 
L 18.109375 0 
L 9.078125 0 
z
" id="DejaVuSans-107"/>
      </defs>
      <use xlink:href="#DejaVuSans-76"/>
      <use x="57.962891" xlink:href="#DejaVuSans-65"/>
      <use x="126.371094" xlink:href="#DejaVuSans-110"/>
      <use x="189.75" xlink:href="#DejaVuSans-107"/>
      <use x="247.660156" xlink:href="#DejaVuSans-108"/>
      <use x="275.443359" xlink:href="#DejaVuSans-101"/>
     </g>
    </g>
   </g>
   <g id="text_17">
    <g clip-path="url(#p3a2c809e45)">
     <!-- LFoot -->
     <g transform="translate(85.720041 791.784168)scale(0.1 -0.1)">
      <defs>
       <path d="M 9.8125 72.90625 
L 51.703125 72.90625 
L 51.703125 64.59375 
L 19.671875 64.59375 
L 19.671875 43.109375 
L 48.578125 43.109375 
L 48.578125 34.8125 
L 19.671875 34.8125 
L 19.671875 0 
L 9.8125 0 
z
" id="DejaVuSans-70"/>
      </defs>
      <use xlink:href="#DejaVuSans-76"/>
      <use x="55.712891" xlink:href="#DejaVuSans-70"/>
      <use x="109.607422" xlink:href="#DejaVuSans-111"/>
      <use x="170.789062" xlink:href="#DejaVuSans-111"/>
      <use x="231.970703" xlink:href="#DejaVuSans-116"/>
     </g>
    </g>
   </g>
   <g id="text_18">
    <g clip-path="url(#p3a2c809e45)">
     <!-- RHip -->
     <g transform="translate(338.647873 378.400321)scale(0.1 -0.1)">
      <use xlink:href="#DejaVuSans-82"/>
      <use x="69.482422" xlink:href="#DejaVuSans-72"/>
      <use x="144.677734" xlink:href="#DejaVuSans-105"/>
      <use x="172.460938" xlink:href="#DejaVuSans-112"/>
     </g>
    </g>
   </g>
   <g id="text_19">
    <g clip-path="url(#p3a2c809e45)">
     <!-- RKnee -->
     <g transform="translate(334.360714 558.059376)scale(0.1 -0.1)">
      <use xlink:href="#DejaVuSans-82"/>
      <use x="69.482422" xlink:href="#DejaVuSans-75"/>
      <use x="135.058594" xlink:href="#DejaVuSans-110"/>
      <use x="198.4375" xlink:href="#DejaVuSans-101"/>
      <use x="259.960938" xlink:href="#DejaVuSans-101"/>
     </g>
    </g>
   </g>
   <g id="text_20">
    <g clip-path="url(#p3a2c809e45)">
     <!-- RAnkle -->
     <g transform="translate(260.961526 694.499349)scale(0.1 -0.1)">
      <use xlink:href="#DejaVuSans-82"/>
      <use x="65.482422" xlink:href="#DejaVuSans-65"/>
      <use x="133.890625" xlink:href="#DejaVuSans-110"/>
      <use x="197.269531" xlink:href="#DejaVuSans-107"/>
      <use x="255.179688" xlink:href="#DejaVuSans-108"/>
      <use x="282.962891" xlink:href="#DejaVuSans-101"/>
     </g>
    </g>
   </g>
   <g id="text_21">
    <g clip-path="url(#p3a2c809e45)">
     <!-- RFoot -->
     <g transform="translate(240.502665 740.807943)scale(0.1 -0.1)">
      <use xlink:href="#DejaVuSans-82"/>
      <use x="69.482422" xlink:href="#DejaVuSans-70"/>
      <use x="123.376953" xlink:href="#DejaVuSans-111"/>
      <use x="184.558594" xlink:href="#DejaVuSans-111"/>
      <use x="245.740234" xlink:href="#DejaVuSans-116"/>
     </g>
    </g>
   </g>
   <g id="text_22">
    <g clip-path="url(#p3a2c809e45)">
     <!-- LHandTip -->
     <g transform="translate(218.354629 355.46455)scale(0.1 -0.1)">
      <defs>
       <path d="M -0.296875 72.90625 
L 61.375 72.90625 
L 61.375 64.59375 
L 35.5 64.59375 
L 35.5 0 
L 25.59375 0 
L 25.59375 64.59375 
L -0.296875 64.59375 
z
" id="DejaVuSans-84"/>
      </defs>
      <use xlink:href="#DejaVuSans-76"/>
      <use x="55.712891" xlink:href="#DejaVuSans-72"/>
      <use x="130.908203" xlink:href="#DejaVuSans-97"/>
      <use x="192.1875" xlink:href="#DejaVuSans-110"/>
      <use x="255.566406" xlink:href="#DejaVuSans-100"/>
      <use x="319.042969" xlink:href="#DejaVuSans-84"/>
      <use x="377.001953" xlink:href="#DejaVuSans-105"/>
      <use x="404.785156" xlink:href="#DejaVuSans-112"/>
     </g>
    </g>
   </g>
   <g id="text_23">
    <g clip-path="url(#p3a2c809e45)">
     <!-- LThumb -->
     <g transform="translate(230.892735 332.724554)scale(0.1 -0.1)">
      <defs>
       <path d="M 52 44.1875 
Q 55.375 50.25 60.0625 53.125 
Q 64.75 56 71.09375 56 
Q 79.640625 56 84.28125 50.015625 
Q 88.921875 44.046875 88.921875 33.015625 
L 88.921875 0 
L 79.890625 0 
L 79.890625 32.71875 
Q 79.890625 40.578125 77.09375 44.375 
Q 74.3125 48.1875 68.609375 48.1875 
Q 61.625 48.1875 57.5625 43.546875 
Q 53.515625 38.921875 53.515625 30.90625 
L 53.515625 0 
L 44.484375 0 
L 44.484375 32.71875 
Q 44.484375 40.625 41.703125 44.40625 
Q 38.921875 48.1875 33.109375 48.1875 
Q 26.21875 48.1875 22.15625 43.53125 
Q 18.109375 38.875 18.109375 30.90625 
L 18.109375 0 
L 9.078125 0 
L 9.078125 54.6875 
L 18.109375 54.6875 
L 18.109375 46.1875 
Q 21.1875 51.21875 25.484375 53.609375 
Q 29.78125 56 35.6875 56 
Q 41.65625 56 45.828125 52.96875 
Q 50 49.953125 52 44.1875 
z
" id="DejaVuSans-109"/>
      </defs>
      <use xlink:href="#DejaVuSans-76"/>
      <use x="41.962891" xlink:href="#DejaVuSans-84"/>
      <use x="103.046875" xlink:href="#DejaVuSans-104"/>
      <use x="166.425781" xlink:href="#DejaVuSans-117"/>
      <use x="229.804688" xlink:href="#DejaVuSans-109"/>
      <use x="327.216797" xlink:href="#DejaVuSans-98"/>
     </g>
    </g>
   </g>
   <g id="text_24">
    <g clip-path="url(#p3a2c809e45)">
     <!-- RHandTip -->
     <g transform="translate(404.958222 421.708147)scale(0.1 -0.1)">
      <use xlink:href="#DejaVuSans-82"/>
      <use x="69.482422" xlink:href="#DejaVuSans-72"/>
      <use x="144.677734" xlink:href="#DejaVuSans-97"/>
      <use x="205.957031" xlink:href="#DejaVuSans-110"/>
      <use x="269.335938" xlink:href="#DejaVuSans-100"/>
      <use x="332.8125" xlink:href="#DejaVuSans-84"/>
      <use x="390.771484" xlink:href="#DejaVuSans-105"/>
      <use x="418.554688" xlink:href="#DejaVuSans-112"/>
     </g>
    </g>
   </g>
   <g id="text_25">
    <g clip-path="url(#p3a2c809e45)">
     <!-- RThumb -->
     <g transform="translate(391.313859 386.696497)scale(0.1 -0.1)">
      <use xlink:href="#DejaVuSans-82"/>
      <use x="62.232422" xlink:href="#DejaVuSans-84"/>
      <use x="123.316406" xlink:href="#DejaVuSans-104"/>
      <use x="186.695312" xlink:href="#DejaVuSans-117"/>
      <use x="250.074219" xlink:href="#DejaVuSans-109"/>
      <use x="347.486328" xlink:href="#DejaVuSans-98"/>
     </g>
    </g>
   </g>
   <g id="text_26">
    <!-- Node Graph Visualization - Frame 181 -->
    <g transform="translate(174.194063 -6)scale(0.12 -0.12)">
     <defs>
      <path d="M 9.8125 72.90625 
L 23.09375 72.90625 
L 55.421875 11.921875 
L 55.421875 72.90625 
L 64.984375 72.90625 
L 64.984375 0 
L 51.703125 0 
L 19.390625 60.984375 
L 19.390625 0 
L 9.8125 0 
z
" id="DejaVuSans-78"/>
      <path id="DejaVuSans-32"/>
      <path d="M 59.515625 10.40625 
L 59.515625 29.984375 
L 43.40625 29.984375 
L 43.40625 38.09375 
L 69.28125 38.09375 
L 69.28125 6.78125 
Q 63.578125 2.734375 56.6875 0.65625 
Q 49.8125 -1.421875 42 -1.421875 
Q 24.90625 -1.421875 15.25 8.5625 
Q 5.609375 18.5625 5.609375 36.375 
Q 5.609375 54.25 15.25 64.234375 
Q 24.90625 74.21875 42 74.21875 
Q 49.125 74.21875 55.546875 72.453125 
Q 61.96875 70.703125 67.390625 67.28125 
L 67.390625 56.78125 
Q 61.921875 61.421875 55.765625 63.765625 
Q 49.609375 66.109375 42.828125 66.109375 
Q 29.4375 66.109375 22.71875 58.640625 
Q 16.015625 51.171875 16.015625 36.375 
Q 16.015625 21.625 22.71875 14.15625 
Q 29.4375 6.6875 42.828125 6.6875 
Q 48.046875 6.6875 52.140625 7.59375 
Q 56.25 8.5 59.515625 10.40625 
z
" id="DejaVuSans-71"/>
      <path d="M 28.609375 0 
L 0.78125 72.90625 
L 11.078125 72.90625 
L 34.1875 11.53125 
L 57.328125 72.90625 
L 67.578125 72.90625 
L 39.796875 0 
z
" id="DejaVuSans-86"/>
      <path d="M 5.515625 54.6875 
L 48.1875 54.6875 
L 48.1875 46.484375 
L 14.40625 7.171875 
L 48.1875 7.171875 
L 48.1875 0 
L 4.296875 0 
L 4.296875 8.203125 
L 38.09375 47.515625 
L 5.515625 47.515625 
z
" id="DejaVuSans-122"/>
      <path d="M 4.890625 31.390625 
L 31.203125 31.390625 
L 31.203125 23.390625 
L 4.890625 23.390625 
z
" id="DejaVuSans-45"/>
      <path d="M 12.40625 8.296875 
L 28.515625 8.296875 
L 28.515625 63.921875 
L 10.984375 60.40625 
L 10.984375 69.390625 
L 28.421875 72.90625 
L 38.28125 72.90625 
L 38.28125 8.296875 
L 54.390625 8.296875 
L 54.390625 0 
L 12.40625 0 
z
" id="DejaVuSans-49"/>
      <path d="M 31.78125 34.625 
Q 24.75 34.625 20.71875 30.859375 
Q 16.703125 27.09375 16.703125 20.515625 
Q 16.703125 13.921875 20.71875 10.15625 
Q 24.75 6.390625 31.78125 6.390625 
Q 38.8125 6.390625 42.859375 10.171875 
Q 46.921875 13.96875 46.921875 20.515625 
Q 46.921875 27.09375 42.890625 30.859375 
Q 38.875 34.625 31.78125 34.625 
z
M 21.921875 38.8125 
Q 15.578125 40.375 12.03125 44.71875 
Q 8.5 49.078125 8.5 55.328125 
Q 8.5 64.0625 14.71875 69.140625 
Q 20.953125 74.21875 31.78125 74.21875 
Q 42.671875 74.21875 48.875 69.140625 
Q 55.078125 64.0625 55.078125 55.328125 
Q 55.078125 49.078125 51.53125 44.71875 
Q 48 40.375 41.703125 38.8125 
Q 48.828125 37.15625 52.796875 32.3125 
Q 56.78125 27.484375 56.78125 20.515625 
Q 56.78125 9.90625 50.3125 4.234375 
Q 43.84375 -1.421875 31.78125 -1.421875 
Q 19.734375 -1.421875 13.25 4.234375 
Q 6.78125 9.90625 6.78125 20.515625 
Q 6.78125 27.484375 10.78125 32.3125 
Q 14.796875 37.15625 21.921875 38.8125 
z
M 18.3125 54.390625 
Q 18.3125 48.734375 21.84375 45.5625 
Q 25.390625 42.390625 31.78125 42.390625 
Q 38.140625 42.390625 41.71875 45.5625 
Q 45.3125 48.734375 45.3125 54.390625 
Q 45.3125 60.0625 41.71875 63.234375 
Q 38.140625 66.40625 31.78125 66.40625 
Q 25.390625 66.40625 21.84375 63.234375 
Q 18.3125 60.0625 18.3125 54.390625 
z
" id="DejaVuSans-56"/>
     </defs>
     <use xlink:href="#DejaVuSans-78"/>
     <use x="74.804688" xlink:href="#DejaVuSans-111"/>
     <use x="135.986328" xlink:href="#DejaVuSans-100"/>
     <use x="199.462891" xlink:href="#DejaVuSans-101"/>
     <use x="260.986328" xlink:href="#DejaVuSans-32"/>
     <use x="292.773438" xlink:href="#DejaVuSans-71"/>
     <use x="370.263672" xlink:href="#DejaVuSans-114"/>
     <use x="411.376953" xlink:href="#DejaVuSans-97"/>
     <use x="472.65625" xlink:href="#DejaVuSans-112"/>
     <use x="536.132812" xlink:href="#DejaVuSans-104"/>
     <use x="599.511719" xlink:href="#DejaVuSans-32"/>
     <use x="631.298828" xlink:href="#DejaVuSans-86"/>
     <use x="697.457031" xlink:href="#DejaVuSans-105"/>
     <use x="725.240234" xlink:href="#DejaVuSans-115"/>
     <use x="777.339844" xlink:href="#DejaVuSans-117"/>
     <use x="840.71875" xlink:href="#DejaVuSans-97"/>
     <use x="901.998047" xlink:href="#DejaVuSans-108"/>
     <use x="929.78125" xlink:href="#DejaVuSans-105"/>
     <use x="957.564453" xlink:href="#DejaVuSans-122"/>
     <use x="1010.054688" xlink:href="#DejaVuSans-97"/>
     <use x="1071.333984" xlink:href="#DejaVuSans-116"/>
     <use x="1110.542969" xlink:href="#DejaVuSans-105"/>
     <use x="1138.326172" xlink:href="#DejaVuSans-111"/>
     <use x="1199.507812" xlink:href="#DejaVuSans-110"/>
     <use x="1262.886719" xlink:href="#DejaVuSans-32"/>
     <use x="1294.673828" xlink:href="#DejaVuSans-45"/>
     <use x="1330.757812" xlink:href="#DejaVuSans-32"/>
     <use x="1362.544922" xlink:href="#DejaVuSans-70"/>
     <use x="1412.814453" xlink:href="#DejaVuSans-114"/>
     <use x="1453.927734" xlink:href="#DejaVuSans-97"/>
     <use x="1515.207031" xlink:href="#DejaVuSans-109"/>
     <use x="1612.619141" xlink:href="#DejaVuSans-101"/>
     <use x="1674.142578" xlink:href="#DejaVuSans-32"/>
     <use x="1705.929688" xlink:href="#DejaVuSans-49"/>
     <use x="1769.552734" xlink:href="#DejaVuSans-56"/>
     <use x="1833.175781" xlink:href="#DejaVuSans-49"/>
    </g>
   </g>
  </g>
 </g>
 <defs>
  <clipPath id="p3a2c809e45">
   <rect height="864" width="576" x="0" y="0"/>
  </clipPath>
 </defs>
</svg>
