<?xml version="1.0" encoding="utf-8" standalone="no"?>
<!DOCTYPE svg PUBLIC "-//W3C//DTD SVG 1.1//EN"
  "http://www.w3.org/Graphics/SVG/1.1/DTD/svg11.dtd">
<!-- Created with matplotlib (https://matplotlib.org/) -->
<svg height="864pt" version="1.1" viewBox="0 0 576 864" width="576pt" xmlns="http://www.w3.org/2000/svg" xmlns:xlink="http://www.w3.org/1999/xlink">
 <metadata>
  <rdf:RDF xmlns:cc="http://creativecommons.org/ns#" xmlns:dc="http://purl.org/dc/elements/1.1/" xmlns:rdf="http://www.w3.org/1999/02/22-rdf-syntax-ns#">
   <cc:Work>
    <dc:type rdf:resource="http://purl.org/dc/dcmitype/StillImage"/>
    <dc:date>2024-02-04T22:28:00.745239</dc:date>
    <dc:format>image/svg+xml</dc:format>
    <dc:creator>
     <cc:Agent>
      <dc:title>Matplotlib v3.3.2, https://matplotlib.org/</dc:title>
     </cc:Agent>
    </dc:creator>
   </cc:Work>
  </rdf:RDF>
 </metadata>
 <defs>
  <style type="text/css">*{stroke-linecap:butt;stroke-linejoin:round;}</style>
 </defs>
 <g id="figure_1">
  <g id="patch_1">
   <path d="M 0 864 
L 576 864 
L 576 0 
L 0 0 
z
" style="fill:#ffffff;"/>
  </g>
  <g id="axes_1">
   <g id="patch_2">
    <path clip-path="url(#pdf8e358b16)" d="M 317.50557 87.028066 
Q 312.809184 97.409695 308.57361 106.772673 
" style="fill:none;stroke:#000000;stroke-linecap:round;"/>
    <path clip-path="url(#pdf8e358b16)" d="M 312.044483 103.952559 
L 308.57361 106.772673 
L 308.400042 102.303907 
L 312.044483 103.952559 
z
" style="stroke:#000000;stroke-linecap:round;"/>
   </g>
   <g id="patch_3">
    <path clip-path="url(#pdf8e358b16)" d="M 303.148594 133.066596 
Q 303.20202 134.511711 303.21414 134.839556 
" style="fill:none;stroke:#000000;stroke-linecap:round;"/>
    <path clip-path="url(#pdf8e358b16)" d="M 305.064995 130.768397 
L 303.21414 134.839556 
L 301.067726 130.916176 
L 305.064995 130.768397 
z
" style="stroke:#000000;stroke-linecap:round;"/>
   </g>
   <g id="patch_4">
    <path clip-path="url(#pdf8e358b16)" d="M 308.112215 107.792614 
Q 312.808601 97.410984 317.044174 88.048006 
" style="fill:none;stroke:#000000;stroke-linecap:round;"/>
    <path clip-path="url(#pdf8e358b16)" d="M 313.573302 90.868121 
L 317.044174 88.048006 
L 317.217742 92.516773 
L 313.573302 90.868121 
z
" style="stroke:#000000;stroke-linecap:round;"/>
   </g>
   <g id="patch_5">
    <path clip-path="url(#pdf8e358b16)" d="M 303.927284 162.399245 
Q 304.367493 194.175493 304.792215 224.833814 
" style="fill:none;stroke:#000000;stroke-linecap:round;"/>
    <path clip-path="url(#pdf8e358b16)" d="M 306.736615 220.806493 
L 304.792215 224.833814 
L 302.736999 220.861902 
L 306.736615 220.806493 
z
" style="stroke:#000000;stroke-linecap:round;"/>
   </g>
   <g id="patch_6">
    <path clip-path="url(#pdf8e358b16)" d="M 290.521019 149.610912 
Q 218.667789 151.989198 147.931982 154.330498 
" style="fill:none;stroke:#000000;stroke-linecap:round;"/>
    <path clip-path="url(#pdf8e358b16)" d="M 151.995954 156.197078 
L 147.931982 154.330498 
L 151.86363 152.199268 
L 151.995954 156.197078 
z
" style="stroke:#000000;stroke-linecap:round;"/>
   </g>
   <g id="patch_7">
    <path clip-path="url(#pdf8e358b16)" d="M 316.897569 150.583924 
Q 394.542132 158.911127 471.075037 167.119107 
" style="fill:none;stroke:#000000;stroke-linecap:round;"/>
    <path clip-path="url(#pdf8e358b16)" d="M 467.311117 164.703966 
L 471.075037 167.119107 
L 466.884572 168.681159 
L 467.311117 164.703966 
z
" style="stroke:#000000;stroke-linecap:round;"/>
   </g>
   <g id="patch_8">
    <path clip-path="url(#pdf8e358b16)" d="M 303.255272 135.952116 
Q 303.201846 134.507001 303.189725 134.179157 
" style="fill:none;stroke:#000000;stroke-linecap:round;"/>
    <path clip-path="url(#pdf8e358b16)" d="M 301.33887 138.250316 
L 303.189725 134.179157 
L 305.33614 138.102536 
L 301.33887 138.250316 
z
" style="stroke:#000000;stroke-linecap:round;"/>
   </g>
   <g id="patch_9">
    <path clip-path="url(#pdf8e358b16)" d="M 304.957844 252.406866 
Q 304.837489 300.44369 304.719936 347.362484 
" style="fill:none;stroke:#000000;stroke-linecap:round;"/>
    <path clip-path="url(#pdf8e358b16)" d="M 306.729952 343.367508 
L 304.719936 347.362484 
L 302.729964 343.357486 
L 306.729952 343.367508 
z
" style="stroke:#000000;stroke-linecap:round;"/>
   </g>
   <g id="patch_10">
    <path clip-path="url(#pdf8e358b16)" d="M 304.807754 225.955489 
Q 304.367545 194.179241 303.942823 163.52092 
" style="fill:none;stroke:#000000;stroke-linecap:round;"/>
    <path clip-path="url(#pdf8e358b16)" d="M 301.998423 167.548241 
L 303.942823 163.52092 
L 305.998039 167.492832 
L 301.998423 167.548241 
z
" style="stroke:#000000;stroke-linecap:round;"/>
   </g>
   <g id="patch_11">
    <path clip-path="url(#pdf8e358b16)" d="M 291.461814 362.007204 
Q 265.568252 362.597177 240.792435 363.161682 
" style="fill:none;stroke:#000000;stroke-linecap:round;"/>
    <path clip-path="url(#pdf8e358b16)" d="M 244.836954 365.070049 
L 240.792435 363.161682 
L 244.74584 361.071087 
L 244.836954 365.070049 
z
" style="stroke:#000000;stroke-linecap:round;"/>
   </g>
   <g id="patch_12">
    <path clip-path="url(#pdf8e358b16)" d="M 317.900073 362.236195 
Q 336.820096 362.995299 354.622984 363.709582 
" style="fill:none;stroke:#000000;stroke-linecap:round;"/>
    <path clip-path="url(#pdf8e358b16)" d="M 350.706378 361.550832 
L 354.622984 363.709582 
L 350.54602 365.547616 
L 350.706378 361.550832 
z
" style="stroke:#000000;stroke-linecap:round;"/>
   </g>
   <g id="patch_13">
    <path clip-path="url(#pdf8e358b16)" d="M 304.717135 348.480571 
Q 304.837489 300.443747 304.955042 253.524953 
" style="fill:none;stroke:#000000;stroke-linecap:round;"/>
    <path clip-path="url(#pdf8e358b16)" d="M 302.945027 257.51993 
L 304.955042 253.524953 
L 306.945014 257.529952 
L 302.945027 257.51993 
z
" style="stroke:#000000;stroke-linecap:round;"/>
   </g>
   <g id="patch_14">
    <path clip-path="url(#pdf8e358b16)" d="M 124.572217 164.48422 
Q 91.788269 199.665028 59.766536 234.027894 
" style="fill:none;stroke:#000000;stroke-linecap:round;"/>
    <path clip-path="url(#pdf8e358b16)" d="M 63.956698 232.46503 
L 59.766536 234.027894 
L 61.030342 229.738046 
L 63.956698 232.46503 
z
" style="stroke:#000000;stroke-linecap:round;"/>
   </g>
   <g id="patch_15">
    <path clip-path="url(#pdf8e358b16)" d="M 146.8149 154.367472 
Q 218.66813 151.989186 289.403937 149.647886 
" style="fill:none;stroke:#000000;stroke-linecap:round;"/>
    <path clip-path="url(#pdf8e358b16)" d="M 285.339964 147.781305 
L 289.403937 149.647886 
L 285.472289 151.779116 
L 285.339964 147.781305 
z
" style="stroke:#000000;stroke-linecap:round;"/>
   </g>
   <g id="patch_16">
    <path clip-path="url(#pdf8e358b16)" d="M 53.679027 257.230122 
Q 63.710114 291.713177 73.42891 325.122699 
" style="fill:none;stroke:#000000;stroke-linecap:round;"/>
    <path clip-path="url(#pdf8e358b16)" d="M 74.232023 320.723267 
L 73.42891 325.122699 
L 70.391232 321.840549 
L 74.232023 320.723267 
z
" style="stroke:#000000;stroke-linecap:round;"/>
   </g>
   <g id="patch_17">
    <path clip-path="url(#pdf8e358b16)" d="M 59.003114 234.84713 
Q 91.787062 199.666323 123.808795 165.303456 
" style="fill:none;stroke:#000000;stroke-linecap:round;"/>
    <path clip-path="url(#pdf8e358b16)" d="M 119.618634 166.86632 
L 123.808795 165.303456 
L 122.544989 169.593304 
L 119.618634 166.86632 
z
" style="stroke:#000000;stroke-linecap:round;"/>
   </g>
   <g id="patch_18">
    <path clip-path="url(#pdf8e358b16)" d="M 89.496682 344.34069 
Q 103.06476 350.461942 115.613719 356.123418 
" style="fill:none;stroke:#000000;stroke-linecap:round;"/>
    <path clip-path="url(#pdf8e358b16)" d="M 112.790079 352.655413 
L 115.613719 356.123418 
L 111.145131 356.301527 
L 112.790079 352.655413 
z
" style="stroke:#000000;stroke-linecap:round;"/>
   </g>
   <g id="patch_19">
    <path clip-path="url(#pdf8e358b16)" d="M 73.741097 326.19588 
Q 63.710011 291.712824 53.991214 258.303302 
" style="fill:none;stroke:#000000;stroke-linecap:round;"/>
    <path clip-path="url(#pdf8e358b16)" d="M 53.188101 262.702735 
L 53.991214 258.303302 
L 57.028893 261.585453 
L 53.188101 262.702735 
z
" style="stroke:#000000;stroke-linecap:round;"/>
   </g>
   <g id="patch_20">
    <path clip-path="url(#pdf8e358b16)" d="M 139.857686 369.120054 
Q 152.127603 376.918317 163.453935 384.116875 
" style="fill:none;stroke:#000000;stroke-linecap:round;"/>
    <path clip-path="url(#pdf8e358b16)" d="M 161.150845 380.283368 
L 163.453935 384.116875 
L 159.005275 383.659243 
L 161.150845 380.283368 
z
" style="stroke:#000000;stroke-linecap:round;"/>
   </g>
   <g id="patch_21">
    <path clip-path="url(#pdf8e358b16)" d="M 141.364853 358.239983 
Q 144.062326 357.434514 145.688505 356.948934 
" style="fill:none;stroke:#000000;stroke-linecap:round;"/>
    <path clip-path="url(#pdf8e358b16)" d="M 141.283491 356.177018 
L 145.688505 356.948934 
L 142.427964 360.009796 
L 141.283491 356.177018 
z
" style="stroke:#000000;stroke-linecap:round;"/>
   </g>
   <g id="patch_22">
    <path clip-path="url(#pdf8e358b16)" d="M 116.632528 356.583054 
Q 103.064449 350.461802 90.51549 344.800326 
" style="fill:none;stroke:#000000;stroke-linecap:round;"/>
    <path clip-path="url(#pdf8e358b16)" d="M 93.33913 348.268331 
L 90.51549 344.800326 
L 94.984078 344.622217 
L 93.33913 348.268331 
z
" style="stroke:#000000;stroke-linecap:round;"/>
   </g>
   <g id="patch_23">
    <path clip-path="url(#pdf8e358b16)" d="M 490.548571 180.805114 
Q 505.676681 216.101968 520.364354 250.371197 
" style="fill:none;stroke:#000000;stroke-linecap:round;"/>
    <path clip-path="url(#pdf8e358b16)" d="M 520.626872 245.906773 
L 520.364354 250.371197 
L 516.950326 247.482528 
L 520.626872 245.906773 
z
" style="stroke:#000000;stroke-linecap:round;"/>
   </g>
   <g id="patch_24">
    <path clip-path="url(#pdf8e358b16)" d="M 472.184917 167.23814 
Q 394.540353 158.910936 318.007449 150.702956 
" style="fill:none;stroke:#000000;stroke-linecap:round;"/>
    <path clip-path="url(#pdf8e358b16)" d="M 321.771369 153.118097 
L 318.007449 150.702956 
L 322.197914 149.140905 
L 321.771369 153.118097 
z
" style="stroke:#000000;stroke-linecap:round;"/>
   </g>
   <g id="patch_25">
    <path clip-path="url(#pdf8e358b16)" d="M 515.657014 271.782215 
Q 481.363905 299.004086 447.946477 325.530842 
" style="fill:none;stroke:#000000;stroke-linecap:round;"/>
    <path clip-path="url(#pdf8e358b16)" d="M 452.322864 324.610387 
L 447.946477 325.530842 
L 449.835945 321.477459 
L 452.322864 324.610387 
z
" style="stroke:#000000;stroke-linecap:round;"/>
   </g>
   <g id="patch_26">
    <path clip-path="url(#pdf8e358b16)" d="M 520.806385 251.402542 
Q 505.678275 216.105687 490.990602 181.836458 
" style="fill:none;stroke:#000000;stroke-linecap:round;"/>
    <path clip-path="url(#pdf8e358b16)" d="M 490.728084 186.300882 
L 490.990602 181.836458 
L 494.40463 184.725127 
L 490.728084 186.300882 
z
" style="stroke:#000000;stroke-linecap:round;"/>
   </g>
   <g id="patch_27">
    <path clip-path="url(#pdf8e358b16)" d="M 436.708295 334.45171 
Q 432.737617 332.491009 429.769415 331.025326 
" style="fill:none;stroke:#000000;stroke-linecap:round;"/>
    <path clip-path="url(#pdf8e358b16)" d="M 432.470467 334.589637 
L 429.769415 331.025326 
L 434.241496 331.003071 
L 432.470467 334.589637 
z
" style="stroke:#000000;stroke-linecap:round;"/>
   </g>
   <g id="patch_28">
    <path clip-path="url(#pdf8e358b16)" d="M 447.067811 326.228327 
Q 481.360919 299.006456 514.778348 272.4797 
" style="fill:none;stroke:#000000;stroke-linecap:round;"/>
    <path clip-path="url(#pdf8e358b16)" d="M 510.401961 273.400154 
L 514.778348 272.4797 
L 512.888879 276.533082 
L 510.401961 273.400154 
z
" style="stroke:#000000;stroke-linecap:round;"/>
   </g>
   <g id="patch_29">
    <path clip-path="url(#pdf8e358b16)" d="M 415.865592 333.469762 
Q 414.384782 333.807151 413.99407 333.896171 
" style="fill:none;stroke:#000000;stroke-linecap:round;"/>
    <path clip-path="url(#pdf8e358b16)" d="M 418.338417 334.957606 
L 413.99407 333.896171 
L 417.449826 331.057554 
L 418.338417 334.957606 
z
" style="stroke:#000000;stroke-linecap:round;"/>
   </g>
   <g id="patch_30">
    <path clip-path="url(#pdf8e358b16)" d="M 415.608037 329.159451 
Q 407.279238 328.29178 400.062455 327.539955 
" style="fill:none;stroke:#000000;stroke-linecap:round;"/>
    <path clip-path="url(#pdf8e358b16)" d="M 403.833691 329.943656 
L 400.062455 327.539955 
L 404.248157 325.965187 
L 403.833691 329.943656 
z
" style="stroke:#000000;stroke-linecap:round;"/>
   </g>
   <g id="patch_31">
    <path clip-path="url(#pdf8e358b16)" d="M 428.766939 330.530308 
Q 432.737617 332.491009 435.70582 333.956693 
" style="fill:none;stroke:#000000;stroke-linecap:round;"/>
    <path clip-path="url(#pdf8e358b16)" d="M 433.004768 330.392381 
L 435.70582 333.956693 
L 431.233739 333.978947 
L 433.004768 330.392381 
z
" style="stroke:#000000;stroke-linecap:round;"/>
   </g>
   <g id="patch_32">
    <path clip-path="url(#pdf8e358b16)" d="M 222.968854 376.249057 
Q 197.888938 468.20494 173.103207 559.082187 
" style="fill:none;stroke:#000000;stroke-linecap:round;"/>
    <path clip-path="url(#pdf8e358b16)" d="M 176.08524 555.749398 
L 173.103207 559.082187 
L 172.226195 554.696888 
L 176.08524 555.749398 
z
" style="stroke:#000000;stroke-linecap:round;"/>
   </g>
   <g id="patch_33">
    <path clip-path="url(#pdf8e358b16)" d="M 239.671339 363.187226 
Q 265.564901 362.597253 290.340718 362.032748 
" style="fill:none;stroke:#000000;stroke-linecap:round;"/>
    <path clip-path="url(#pdf8e358b16)" d="M 286.296199 360.124381 
L 290.340718 362.032748 
L 286.387314 364.123343 
L 286.296199 360.124381 
z
" style="stroke:#000000;stroke-linecap:round;"/>
   </g>
   <g id="patch_34">
    <path clip-path="url(#pdf8e358b16)" d="M 168.440074 586.123393 
Q 163.793449 655.199387 159.221863 723.159869 
" style="fill:none;stroke:#000000;stroke-linecap:round;"/>
    <path clip-path="url(#pdf8e358b16)" d="M 161.48582 719.303121 
L 159.221863 723.159869 
L 157.494839 719.034655 
L 161.48582 719.303121 
z
" style="stroke:#000000;stroke-linecap:round;"/>
   </g>
   <g id="patch_35">
    <path clip-path="url(#pdf8e358b16)" d="M 172.808262 560.163608 
Q 197.888178 468.207726 222.673909 377.330479 
" style="fill:none;stroke:#000000;stroke-linecap:round;"/>
    <path clip-path="url(#pdf8e358b16)" d="M 219.691877 380.663268 
L 222.673909 377.330479 
L 223.550921 381.715778 
L 219.691877 380.663268 
z
" style="stroke:#000000;stroke-linecap:round;"/>
   </g>
   <g id="patch_36">
    <path clip-path="url(#pdf8e358b16)" d="M 156.545352 750.589302 
Q 154.89127 763.250212 153.382022 774.802508 
" style="fill:none;stroke:#000000;stroke-linecap:round;"/>
    <path clip-path="url(#pdf8e358b16)" d="M 155.883345 771.095302 
L 153.382022 774.802508 
L 151.917051 770.577126 
L 155.883345 771.095302 
z
" style="stroke:#000000;stroke-linecap:round;"/>
   </g>
   <g id="patch_37">
    <path clip-path="url(#pdf8e358b16)" d="M 159.147052 724.271989 
Q 163.793677 655.195995 168.365263 587.235513 
" style="fill:none;stroke:#000000;stroke-linecap:round;"/>
    <path clip-path="url(#pdf8e358b16)" d="M 166.101306 591.092261 
L 168.365263 587.235513 
L 170.092287 591.360727 
L 166.101306 591.092261 
z
" style="stroke:#000000;stroke-linecap:round;"/>
   </g>
   <g id="patch_38">
    <path clip-path="url(#pdf8e358b16)" d="M 153.237766 775.906696 
Q 154.891848 763.245786 156.401096 751.693489 
" style="fill:none;stroke:#000000;stroke-linecap:round;"/>
    <path clip-path="url(#pdf8e358b16)" d="M 153.899773 755.400695 
L 156.401096 751.693489 
L 157.866067 755.918871 
L 153.899773 755.400695 
z
" style="stroke:#000000;stroke-linecap:round;"/>
   </g>
   <g id="patch_39">
    <path clip-path="url(#pdf8e358b16)" d="M 368.819743 377.512829 
Q 368.112173 446.239071 367.416112 513.847339 
" style="fill:none;stroke:#000000;stroke-linecap:round;"/>
    <path clip-path="url(#pdf8e358b16)" d="M 369.457186 509.868141 
L 367.416112 513.847339 
L 365.457398 509.826961 
L 369.457186 509.868141 
z
" style="stroke:#000000;stroke-linecap:round;"/>
   </g>
   <g id="patch_40">
    <path clip-path="url(#pdf8e358b16)" d="M 355.73986 363.754393 
Q 336.819837 362.995289 319.016949 362.281006 
" style="fill:none;stroke:#000000;stroke-linecap:round;"/>
    <path clip-path="url(#pdf8e358b16)" d="M 322.933554 364.439756 
L 319.016949 362.281006 
L 323.093912 360.442972 
L 322.933554 364.439756 
z
" style="stroke:#000000;stroke-linecap:round;"/>
   </g>
   <g id="patch_41">
    <path clip-path="url(#pdf8e358b16)" d="M 359.903429 539.181957 
Q 322.393372 595.138565 285.50585 650.166492 
" style="fill:none;stroke:#000000;stroke-linecap:round;"/>
    <path clip-path="url(#pdf8e358b16)" d="M 289.394374 647.957561 
L 285.50585 650.166492 
L 286.07182 645.730313 
L 289.394374 647.957561 
z
" style="stroke:#000000;stroke-linecap:round;"/>
   </g>
   <g id="patch_42">
    <path clip-path="url(#pdf8e358b16)" d="M 367.404586 514.966891 
Q 368.112156 446.240649 368.808217 378.632381 
" style="fill:none;stroke:#000000;stroke-linecap:round;"/>
    <path clip-path="url(#pdf8e358b16)" d="M 366.767143 382.611579 
L 368.808217 378.632381 
L 370.766931 382.652759 
L 366.767143 382.611579 
z
" style="stroke:#000000;stroke-linecap:round;"/>
   </g>
   <g id="patch_43">
    <path clip-path="url(#pdf8e358b16)" d="M 272.462537 674.305657 
Q 268.810587 683.134441 265.585984 690.930089 
" style="fill:none;stroke:#000000;stroke-linecap:round;"/>
    <path clip-path="url(#pdf8e358b16)" d="M 268.963045 687.998287 
L 265.585984 690.930089 
L 265.26678 686.469359 
L 268.963045 687.998287 
z
" style="stroke:#000000;stroke-linecap:round;"/>
   </g>
   <g id="patch_44">
    <path clip-path="url(#pdf8e358b16)" d="M 284.884298 651.093707 
Q 322.394355 595.137099 359.281877 540.109173 
" style="fill:none;stroke:#000000;stroke-linecap:round;"/>
    <path clip-path="url(#pdf8e358b16)" d="M 355.393352 542.318104 
L 359.281877 540.109173 
L 358.715907 544.545351 
L 355.393352 542.318104 
z
" style="stroke:#000000;stroke-linecap:round;"/>
   </g>
   <g id="patch_45">
    <path clip-path="url(#pdf8e358b16)" d="M 265.159579 691.960946 
Q 268.81153 683.132162 272.036132 675.336515 
" style="fill:none;stroke:#000000;stroke-linecap:round;"/>
    <path clip-path="url(#pdf8e358b16)" d="M 268.659071 678.268316 
L 272.036132 675.336515 
L 272.355336 679.797244 
L 268.659071 678.268316 
z
" style="stroke:#000000;stroke-linecap:round;"/>
   </g>
   <g id="patch_46">
    <path clip-path="url(#pdf8e358b16)" d="M 164.39637 384.715849 
Q 152.126453 376.917586 140.800121 369.719027 
" style="fill:none;stroke:#000000;stroke-linecap:round;"/>
    <path clip-path="url(#pdf8e358b16)" d="M 143.103211 373.552534 
L 140.800121 369.719027 
L 145.248781 370.17666 
L 143.103211 373.552534 
z
" style="stroke:#000000;stroke-linecap:round;"/>
   </g>
   <g id="patch_47">
    <path clip-path="url(#pdf8e358b16)" d="M 146.760992 356.628688 
Q 144.063519 357.434157 142.43734 357.919737 
" style="fill:none;stroke:#000000;stroke-linecap:round;"/>
    <path clip-path="url(#pdf8e358b16)" d="M 146.842354 358.691653 
L 142.43734 357.919737 
L 145.697881 354.858875 
L 146.842354 358.691653 
z
" style="stroke:#000000;stroke-linecap:round;"/>
   </g>
   <g id="patch_48">
    <path clip-path="url(#pdf8e358b16)" d="M 412.909691 334.143237 
Q 414.390501 333.805848 414.781213 333.716828 
" style="fill:none;stroke:#000000;stroke-linecap:round;"/>
    <path clip-path="url(#pdf8e358b16)" d="M 410.436866 332.655393 
L 414.781213 333.716828 
L 411.325457 336.555445 
L 410.436866 332.655393 
z
" style="stroke:#000000;stroke-linecap:round;"/>
   </g>
   <g id="patch_49">
    <path clip-path="url(#pdf8e358b16)" d="M 398.952859 327.424361 
Q 407.281658 328.292032 414.498441 329.043856 
" style="fill:none;stroke:#000000;stroke-linecap:round;"/>
    <path clip-path="url(#pdf8e358b16)" d="M 410.727205 326.640156 
L 414.498441 329.043856 
L 410.312739 330.618625 
L 410.727205 326.640156 
z
" style="stroke:#000000;stroke-linecap:round;"/>
   </g>
   <g id="PathCollection_1">
    <defs>
     <path d="M 0 13.228757 
C 3.508307 13.228757 6.873396 11.834891 9.354143 9.354143 
C 11.834891 6.873396 13.228757 3.508307 13.228757 0 
C 13.228757 -3.508307 11.834891 -6.873396 9.354143 -9.354143 
C 6.873396 -11.834891 3.508307 -13.228757 0 -13.228757 
C -3.508307 -13.228757 -6.873396 -11.834891 -9.354143 -9.354143 
C -11.834891 -6.873396 -13.228757 -3.508307 -13.228757 0 
C -13.228757 3.508307 -11.834891 6.873396 -9.354143 9.354143 
C -6.873396 11.834891 -3.508307 13.228757 0 13.228757 
z
" id="m2dd3798da8" style="stroke:#87ceeb;"/>
    </defs>
    <g clip-path="url(#pdf8e358b16)">
     <use style="fill:#87ceeb;stroke:#87ceeb;" x="322.957977" xlink:href="#m2dd3798da8" y="74.975207"/>
     <use style="fill:#87ceeb;stroke:#87ceeb;" x="302.659807" xlink:href="#m2dd3798da8" y="119.845473"/>
     <use style="fill:#87ceeb;stroke:#87ceeb;" x="303.744058" xlink:href="#m2dd3798da8" y="149.17324"/>
     <use style="fill:#87ceeb;stroke:#87ceeb;" x="304.990979" xlink:href="#m2dd3798da8" y="239.181494"/>
     <use style="fill:#87ceeb;stroke:#87ceeb;" x="304.683999" xlink:href="#m2dd3798da8" y="361.705943"/>
     <use style="fill:#87ceeb;stroke:#87ceeb;" x="133.59186" xlink:href="#m2dd3798da8" y="154.805144"/>
     <use style="fill:#87ceeb;stroke:#87ceeb;" x="49.983471" xlink:href="#m2dd3798da8" y="244.526206"/>
     <use style="fill:#87ceeb;stroke:#87ceeb;" x="77.436653" xlink:href="#m2dd3798da8" y="338.899795"/>
     <use style="fill:#87ceeb;stroke:#87ceeb;" x="128.692556" xlink:href="#m2dd3798da8" y="362.023949"/>
     <use style="fill:#87ceeb;stroke:#87ceeb;" x="485.338427" xlink:href="#m2dd3798da8" y="168.648824"/>
     <use style="fill:#87ceeb;stroke:#87ceeb;" x="526.016529" xlink:href="#m2dd3798da8" y="263.558831"/>
     <use style="fill:#87ceeb;stroke:#87ceeb;" x="436.708295" xlink:href="#m2dd3798da8" y="334.45171"/>
     <use style="fill:#87ceeb;stroke:#87ceeb;" x="428.766939" xlink:href="#m2dd3798da8" y="330.530308"/>
     <use style="fill:#87ceeb;stroke:#87ceeb;" x="226.449154" xlink:href="#m2dd3798da8" y="363.488487"/>
     <use style="fill:#87ceeb;stroke:#87ceeb;" x="169.327962" xlink:href="#m2dd3798da8" y="572.924178"/>
     <use style="fill:#87ceeb;stroke:#87ceeb;" x="158.259164" xlink:href="#m2dd3798da8" y="737.471204"/>
     <use style="fill:#87ceeb;stroke:#87ceeb;" x="151.523954" xlink:href="#m2dd3798da8" y="789.024793"/>
     <use style="fill:#87ceeb;stroke:#87ceeb;" x="368.955934" xlink:href="#m2dd3798da8" y="364.284645"/>
     <use style="fill:#87ceeb;stroke:#87ceeb;" x="367.268395" xlink:href="#m2dd3798da8" y="528.195075"/>
     <use style="fill:#87ceeb;stroke:#87ceeb;" x="277.519331" xlink:href="#m2dd3798da8" y="662.080589"/>
     <use style="fill:#87ceeb;stroke:#87ceeb;" x="260.102785" xlink:href="#m2dd3798da8" y="704.186014"/>
     <use style="fill:#87ceeb;stroke:#87ceeb;" x="175.5615" xlink:href="#m2dd3798da8" y="391.811954"/>
     <use style="fill:#87ceeb;stroke:#87ceeb;" x="159.433289" xlink:href="#m2dd3798da8" y="352.844723"/>
     <use style="fill:#87ceeb;stroke:#87ceeb;" x="400.008343" xlink:href="#m2dd3798da8" y="337.082691"/>
     <use style="fill:#87ceeb;stroke:#87ceeb;" x="385.793957" xlink:href="#m2dd3798da8" y="326.053503"/>
    </g>
   </g>
   <g id="text_1">
    <g clip-path="url(#pdf8e358b16)">
     <!-- Head -->
     <g transform="translate(309.882977 77.734582)scale(0.1 -0.1)">
      <defs>
       <path d="M 9.8125 72.90625 
L 19.671875 72.90625 
L 19.671875 43.015625 
L 55.515625 43.015625 
L 55.515625 72.90625 
L 65.375 72.90625 
L 65.375 0 
L 55.515625 0 
L 55.515625 34.71875 
L 19.671875 34.71875 
L 19.671875 0 
L 9.8125 0 
z
" id="DejaVuSans-72"/>
       <path d="M 56.203125 29.59375 
L 56.203125 25.203125 
L 14.890625 25.203125 
Q 15.484375 15.921875 20.484375 11.0625 
Q 25.484375 6.203125 34.421875 6.203125 
Q 39.59375 6.203125 44.453125 7.46875 
Q 49.3125 8.734375 54.109375 11.28125 
L 54.109375 2.78125 
Q 49.265625 0.734375 44.1875 -0.34375 
Q 39.109375 -1.421875 33.890625 -1.421875 
Q 20.796875 -1.421875 13.15625 6.1875 
Q 5.515625 13.8125 5.515625 26.8125 
Q 5.515625 40.234375 12.765625 48.109375 
Q 20.015625 56 32.328125 56 
Q 43.359375 56 49.78125 48.890625 
Q 56.203125 41.796875 56.203125 29.59375 
z
M 47.21875 32.234375 
Q 47.125 39.59375 43.09375 43.984375 
Q 39.0625 48.390625 32.421875 48.390625 
Q 24.90625 48.390625 20.390625 44.140625 
Q 15.875 39.890625 15.1875 32.171875 
z
" id="DejaVuSans-101"/>
       <path d="M 34.28125 27.484375 
Q 23.390625 27.484375 19.1875 25 
Q 14.984375 22.515625 14.984375 16.5 
Q 14.984375 11.71875 18.140625 8.90625 
Q 21.296875 6.109375 26.703125 6.109375 
Q 34.1875 6.109375 38.703125 11.40625 
Q 43.21875 16.703125 43.21875 25.484375 
L 43.21875 27.484375 
z
M 52.203125 31.203125 
L 52.203125 0 
L 43.21875 0 
L 43.21875 8.296875 
Q 40.140625 3.328125 35.546875 0.953125 
Q 30.953125 -1.421875 24.3125 -1.421875 
Q 15.921875 -1.421875 10.953125 3.296875 
Q 6 8.015625 6 15.921875 
Q 6 25.140625 12.171875 29.828125 
Q 18.359375 34.515625 30.609375 34.515625 
L 43.21875 34.515625 
L 43.21875 35.40625 
Q 43.21875 41.609375 39.140625 45 
Q 35.0625 48.390625 27.6875 48.390625 
Q 23 48.390625 18.546875 47.265625 
Q 14.109375 46.140625 10.015625 43.890625 
L 10.015625 52.203125 
Q 14.9375 54.109375 19.578125 55.046875 
Q 24.21875 56 28.609375 56 
Q 40.484375 56 46.34375 49.84375 
Q 52.203125 43.703125 52.203125 31.203125 
z
" id="DejaVuSans-97"/>
       <path d="M 45.40625 46.390625 
L 45.40625 75.984375 
L 54.390625 75.984375 
L 54.390625 0 
L 45.40625 0 
L 45.40625 8.203125 
Q 42.578125 3.328125 38.25 0.953125 
Q 33.9375 -1.421875 27.875 -1.421875 
Q 17.96875 -1.421875 11.734375 6.484375 
Q 5.515625 14.40625 5.515625 27.296875 
Q 5.515625 40.1875 11.734375 48.09375 
Q 17.96875 56 27.875 56 
Q 33.9375 56 38.25 53.625 
Q 42.578125 51.265625 45.40625 46.390625 
z
M 14.796875 27.296875 
Q 14.796875 17.390625 18.875 11.75 
Q 22.953125 6.109375 30.078125 6.109375 
Q 37.203125 6.109375 41.296875 11.75 
Q 45.40625 17.390625 45.40625 27.296875 
Q 45.40625 37.203125 41.296875 42.84375 
Q 37.203125 48.484375 30.078125 48.484375 
Q 22.953125 48.484375 18.875 42.84375 
Q 14.796875 37.203125 14.796875 27.296875 
z
" id="DejaVuSans-100"/>
      </defs>
      <use xlink:href="#DejaVuSans-72"/>
      <use x="75.195312" xlink:href="#DejaVuSans-101"/>
      <use x="136.71875" xlink:href="#DejaVuSans-97"/>
      <use x="197.998047" xlink:href="#DejaVuSans-100"/>
     </g>
    </g>
   </g>
   <g id="text_2">
    <g clip-path="url(#pdf8e358b16)">
     <!-- c7 -->
     <g transform="translate(296.729338 122.604848)scale(0.1 -0.1)">
      <defs>
       <path d="M 48.78125 52.59375 
L 48.78125 44.1875 
Q 44.96875 46.296875 41.140625 47.34375 
Q 37.3125 48.390625 33.40625 48.390625 
Q 24.65625 48.390625 19.8125 42.84375 
Q 14.984375 37.3125 14.984375 27.296875 
Q 14.984375 17.28125 19.8125 11.734375 
Q 24.65625 6.203125 33.40625 6.203125 
Q 37.3125 6.203125 41.140625 7.25 
Q 44.96875 8.296875 48.78125 10.40625 
L 48.78125 2.09375 
Q 45.015625 0.34375 40.984375 -0.53125 
Q 36.96875 -1.421875 32.421875 -1.421875 
Q 20.0625 -1.421875 12.78125 6.34375 
Q 5.515625 14.109375 5.515625 27.296875 
Q 5.515625 40.671875 12.859375 48.328125 
Q 20.21875 56 33.015625 56 
Q 37.15625 56 41.109375 55.140625 
Q 45.0625 54.296875 48.78125 52.59375 
z
" id="DejaVuSans-99"/>
       <path d="M 8.203125 72.90625 
L 55.078125 72.90625 
L 55.078125 68.703125 
L 28.609375 0 
L 18.3125 0 
L 43.21875 64.59375 
L 8.203125 64.59375 
z
" id="DejaVuSans-55"/>
      </defs>
      <use xlink:href="#DejaVuSans-99"/>
      <use x="54.980469" xlink:href="#DejaVuSans-55"/>
     </g>
    </g>
   </g>
   <g id="text_3">
    <g clip-path="url(#pdf8e358b16)">
     <!-- SpineShoulder -->
     <g transform="translate(267.49484 151.932615)scale(0.1 -0.1)">
      <defs>
       <path d="M 53.515625 70.515625 
L 53.515625 60.890625 
Q 47.90625 63.578125 42.921875 64.890625 
Q 37.9375 66.21875 33.296875 66.21875 
Q 25.25 66.21875 20.875 63.09375 
Q 16.5 59.96875 16.5 54.203125 
Q 16.5 49.359375 19.40625 46.890625 
Q 22.3125 44.4375 30.421875 42.921875 
L 36.375 41.703125 
Q 47.40625 39.59375 52.65625 34.296875 
Q 57.90625 29 57.90625 20.125 
Q 57.90625 9.515625 50.796875 4.046875 
Q 43.703125 -1.421875 29.984375 -1.421875 
Q 24.8125 -1.421875 18.96875 -0.25 
Q 13.140625 0.921875 6.890625 3.21875 
L 6.890625 13.375 
Q 12.890625 10.015625 18.65625 8.296875 
Q 24.421875 6.59375 29.984375 6.59375 
Q 38.421875 6.59375 43.015625 9.90625 
Q 47.609375 13.234375 47.609375 19.390625 
Q 47.609375 24.75 44.3125 27.78125 
Q 41.015625 30.8125 33.5 32.328125 
L 27.484375 33.5 
Q 16.453125 35.6875 11.515625 40.375 
Q 6.59375 45.0625 6.59375 53.421875 
Q 6.59375 63.09375 13.40625 68.65625 
Q 20.21875 74.21875 32.171875 74.21875 
Q 37.3125 74.21875 42.625 73.28125 
Q 47.953125 72.359375 53.515625 70.515625 
z
" id="DejaVuSans-83"/>
       <path d="M 18.109375 8.203125 
L 18.109375 -20.796875 
L 9.078125 -20.796875 
L 9.078125 54.6875 
L 18.109375 54.6875 
L 18.109375 46.390625 
Q 20.953125 51.265625 25.265625 53.625 
Q 29.59375 56 35.59375 56 
Q 45.5625 56 51.78125 48.09375 
Q 58.015625 40.1875 58.015625 27.296875 
Q 58.015625 14.40625 51.78125 6.484375 
Q 45.5625 -1.421875 35.59375 -1.421875 
Q 29.59375 -1.421875 25.265625 0.953125 
Q 20.953125 3.328125 18.109375 8.203125 
z
M 48.6875 27.296875 
Q 48.6875 37.203125 44.609375 42.84375 
Q 40.53125 48.484375 33.40625 48.484375 
Q 26.265625 48.484375 22.1875 42.84375 
Q 18.109375 37.203125 18.109375 27.296875 
Q 18.109375 17.390625 22.1875 11.75 
Q 26.265625 6.109375 33.40625 6.109375 
Q 40.53125 6.109375 44.609375 11.75 
Q 48.6875 17.390625 48.6875 27.296875 
z
" id="DejaVuSans-112"/>
       <path d="M 9.421875 54.6875 
L 18.40625 54.6875 
L 18.40625 0 
L 9.421875 0 
z
M 9.421875 75.984375 
L 18.40625 75.984375 
L 18.40625 64.59375 
L 9.421875 64.59375 
z
" id="DejaVuSans-105"/>
       <path d="M 54.890625 33.015625 
L 54.890625 0 
L 45.90625 0 
L 45.90625 32.71875 
Q 45.90625 40.484375 42.875 44.328125 
Q 39.84375 48.1875 33.796875 48.1875 
Q 26.515625 48.1875 22.3125 43.546875 
Q 18.109375 38.921875 18.109375 30.90625 
L 18.109375 0 
L 9.078125 0 
L 9.078125 54.6875 
L 18.109375 54.6875 
L 18.109375 46.1875 
Q 21.34375 51.125 25.703125 53.5625 
Q 30.078125 56 35.796875 56 
Q 45.21875 56 50.046875 50.171875 
Q 54.890625 44.34375 54.890625 33.015625 
z
" id="DejaVuSans-110"/>
       <path d="M 54.890625 33.015625 
L 54.890625 0 
L 45.90625 0 
L 45.90625 32.71875 
Q 45.90625 40.484375 42.875 44.328125 
Q 39.84375 48.1875 33.796875 48.1875 
Q 26.515625 48.1875 22.3125 43.546875 
Q 18.109375 38.921875 18.109375 30.90625 
L 18.109375 0 
L 9.078125 0 
L 9.078125 75.984375 
L 18.109375 75.984375 
L 18.109375 46.1875 
Q 21.34375 51.125 25.703125 53.5625 
Q 30.078125 56 35.796875 56 
Q 45.21875 56 50.046875 50.171875 
Q 54.890625 44.34375 54.890625 33.015625 
z
" id="DejaVuSans-104"/>
       <path d="M 30.609375 48.390625 
Q 23.390625 48.390625 19.1875 42.75 
Q 14.984375 37.109375 14.984375 27.296875 
Q 14.984375 17.484375 19.15625 11.84375 
Q 23.34375 6.203125 30.609375 6.203125 
Q 37.796875 6.203125 41.984375 11.859375 
Q 46.1875 17.53125 46.1875 27.296875 
Q 46.1875 37.015625 41.984375 42.703125 
Q 37.796875 48.390625 30.609375 48.390625 
z
M 30.609375 56 
Q 42.328125 56 49.015625 48.375 
Q 55.71875 40.765625 55.71875 27.296875 
Q 55.71875 13.875 49.015625 6.21875 
Q 42.328125 -1.421875 30.609375 -1.421875 
Q 18.84375 -1.421875 12.171875 6.21875 
Q 5.515625 13.875 5.515625 27.296875 
Q 5.515625 40.765625 12.171875 48.375 
Q 18.84375 56 30.609375 56 
z
" id="DejaVuSans-111"/>
       <path d="M 8.5 21.578125 
L 8.5 54.6875 
L 17.484375 54.6875 
L 17.484375 21.921875 
Q 17.484375 14.15625 20.5 10.265625 
Q 23.53125 6.390625 29.59375 6.390625 
Q 36.859375 6.390625 41.078125 11.03125 
Q 45.3125 15.671875 45.3125 23.6875 
L 45.3125 54.6875 
L 54.296875 54.6875 
L 54.296875 0 
L 45.3125 0 
L 45.3125 8.40625 
Q 42.046875 3.421875 37.71875 1 
Q 33.40625 -1.421875 27.6875 -1.421875 
Q 18.265625 -1.421875 13.375 4.4375 
Q 8.5 10.296875 8.5 21.578125 
z
M 31.109375 56 
z
" id="DejaVuSans-117"/>
       <path d="M 9.421875 75.984375 
L 18.40625 75.984375 
L 18.40625 0 
L 9.421875 0 
z
" id="DejaVuSans-108"/>
       <path d="M 41.109375 46.296875 
Q 39.59375 47.171875 37.8125 47.578125 
Q 36.03125 48 33.890625 48 
Q 26.265625 48 22.1875 43.046875 
Q 18.109375 38.09375 18.109375 28.8125 
L 18.109375 0 
L 9.078125 0 
L 9.078125 54.6875 
L 18.109375 54.6875 
L 18.109375 46.1875 
Q 20.953125 51.171875 25.484375 53.578125 
Q 30.03125 56 36.53125 56 
Q 37.453125 56 38.578125 55.875 
Q 39.703125 55.765625 41.0625 55.515625 
z
" id="DejaVuSans-114"/>
      </defs>
      <use xlink:href="#DejaVuSans-83"/>
      <use x="63.476562" xlink:href="#DejaVuSans-112"/>
      <use x="126.953125" xlink:href="#DejaVuSans-105"/>
      <use x="154.736328" xlink:href="#DejaVuSans-110"/>
      <use x="218.115234" xlink:href="#DejaVuSans-101"/>
      <use x="279.638672" xlink:href="#DejaVuSans-83"/>
      <use x="343.115234" xlink:href="#DejaVuSans-104"/>
      <use x="406.494141" xlink:href="#DejaVuSans-111"/>
      <use x="467.675781" xlink:href="#DejaVuSans-117"/>
      <use x="531.054688" xlink:href="#DejaVuSans-108"/>
      <use x="558.837891" xlink:href="#DejaVuSans-100"/>
      <use x="622.314453" xlink:href="#DejaVuSans-101"/>
      <use x="683.837891" xlink:href="#DejaVuSans-114"/>
     </g>
    </g>
   </g>
   <g id="text_4">
    <g clip-path="url(#pdf8e358b16)">
     <!-- Spine -->
     <g transform="translate(291.008167 241.940869)scale(0.1 -0.1)">
      <use xlink:href="#DejaVuSans-83"/>
      <use x="63.476562" xlink:href="#DejaVuSans-112"/>
      <use x="126.953125" xlink:href="#DejaVuSans-105"/>
      <use x="154.736328" xlink:href="#DejaVuSans-110"/>
      <use x="218.115234" xlink:href="#DejaVuSans-101"/>
     </g>
    </g>
   </g>
   <g id="text_5">
    <g clip-path="url(#pdf8e358b16)">
     <!-- Sacr -->
     <g transform="translate(293.64103 364.465318)scale(0.1 -0.1)">
      <use xlink:href="#DejaVuSans-83"/>
      <use x="63.476562" xlink:href="#DejaVuSans-97"/>
      <use x="124.755859" xlink:href="#DejaVuSans-99"/>
      <use x="179.736328" xlink:href="#DejaVuSans-114"/>
     </g>
    </g>
   </g>
   <g id="text_6">
    <g clip-path="url(#pdf8e358b16)">
     <!-- LShoulder -->
     <g transform="translate(108.539517 157.564519)scale(0.1 -0.1)">
      <defs>
       <path d="M 9.8125 72.90625 
L 19.671875 72.90625 
L 19.671875 8.296875 
L 55.171875 8.296875 
L 55.171875 0 
L 9.8125 0 
z
" id="DejaVuSans-76"/>
      </defs>
      <use xlink:href="#DejaVuSans-76"/>
      <use x="55.712891" xlink:href="#DejaVuSans-83"/>
      <use x="119.189453" xlink:href="#DejaVuSans-104"/>
      <use x="182.568359" xlink:href="#DejaVuSans-111"/>
      <use x="243.75" xlink:href="#DejaVuSans-117"/>
      <use x="307.128906" xlink:href="#DejaVuSans-108"/>
      <use x="334.912109" xlink:href="#DejaVuSans-100"/>
      <use x="398.388672" xlink:href="#DejaVuSans-101"/>
      <use x="459.912109" xlink:href="#DejaVuSans-114"/>
     </g>
    </g>
   </g>
   <g id="text_7">
    <g clip-path="url(#pdf8e358b16)">
     <!-- LElbow -->
     <g transform="translate(32.32644 247.285581)scale(0.1 -0.1)">
      <defs>
       <path d="M 9.8125 72.90625 
L 55.90625 72.90625 
L 55.90625 64.59375 
L 19.671875 64.59375 
L 19.671875 43.015625 
L 54.390625 43.015625 
L 54.390625 34.71875 
L 19.671875 34.71875 
L 19.671875 8.296875 
L 56.78125 8.296875 
L 56.78125 0 
L 9.8125 0 
z
" id="DejaVuSans-69"/>
       <path d="M 48.6875 27.296875 
Q 48.6875 37.203125 44.609375 42.84375 
Q 40.53125 48.484375 33.40625 48.484375 
Q 26.265625 48.484375 22.1875 42.84375 
Q 18.109375 37.203125 18.109375 27.296875 
Q 18.109375 17.390625 22.1875 11.75 
Q 26.265625 6.109375 33.40625 6.109375 
Q 40.53125 6.109375 44.609375 11.75 
Q 48.6875 17.390625 48.6875 27.296875 
z
M 18.109375 46.390625 
Q 20.953125 51.265625 25.265625 53.625 
Q 29.59375 56 35.59375 56 
Q 45.5625 56 51.78125 48.09375 
Q 58.015625 40.1875 58.015625 27.296875 
Q 58.015625 14.40625 51.78125 6.484375 
Q 45.5625 -1.421875 35.59375 -1.421875 
Q 29.59375 -1.421875 25.265625 0.953125 
Q 20.953125 3.328125 18.109375 8.203125 
L 18.109375 0 
L 9.078125 0 
L 9.078125 75.984375 
L 18.109375 75.984375 
z
" id="DejaVuSans-98"/>
       <path d="M 4.203125 54.6875 
L 13.1875 54.6875 
L 24.421875 12.015625 
L 35.59375 54.6875 
L 46.1875 54.6875 
L 57.421875 12.015625 
L 68.609375 54.6875 
L 77.59375 54.6875 
L 63.28125 0 
L 52.6875 0 
L 40.921875 44.828125 
L 29.109375 0 
L 18.5 0 
z
" id="DejaVuSans-119"/>
      </defs>
      <use xlink:href="#DejaVuSans-76"/>
      <use x="55.712891" xlink:href="#DejaVuSans-69"/>
      <use x="118.896484" xlink:href="#DejaVuSans-108"/>
      <use x="146.679688" xlink:href="#DejaVuSans-98"/>
      <use x="210.15625" xlink:href="#DejaVuSans-111"/>
      <use x="271.337891" xlink:href="#DejaVuSans-119"/>
     </g>
    </g>
   </g>
   <g id="text_8">
    <g clip-path="url(#pdf8e358b16)">
     <!-- LWrist -->
     <g transform="translate(62.378841 341.65917)scale(0.1 -0.1)">
      <defs>
       <path d="M 3.328125 72.90625 
L 13.28125 72.90625 
L 28.609375 11.28125 
L 43.890625 72.90625 
L 54.984375 72.90625 
L 70.3125 11.28125 
L 85.59375 72.90625 
L 95.609375 72.90625 
L 77.296875 0 
L 64.890625 0 
L 49.515625 63.28125 
L 33.984375 0 
L 21.578125 0 
z
" id="DejaVuSans-87"/>
       <path d="M 44.28125 53.078125 
L 44.28125 44.578125 
Q 40.484375 46.53125 36.375 47.5 
Q 32.28125 48.484375 27.875 48.484375 
Q 21.1875 48.484375 17.84375 46.4375 
Q 14.5 44.390625 14.5 40.28125 
Q 14.5 37.15625 16.890625 35.375 
Q 19.28125 33.59375 26.515625 31.984375 
L 29.59375 31.296875 
Q 39.15625 29.25 43.1875 25.515625 
Q 47.21875 21.78125 47.21875 15.09375 
Q 47.21875 7.46875 41.1875 3.015625 
Q 35.15625 -1.421875 24.609375 -1.421875 
Q 20.21875 -1.421875 15.453125 -0.5625 
Q 10.6875 0.296875 5.421875 2 
L 5.421875 11.28125 
Q 10.40625 8.6875 15.234375 7.390625 
Q 20.0625 6.109375 24.8125 6.109375 
Q 31.15625 6.109375 34.5625 8.28125 
Q 37.984375 10.453125 37.984375 14.40625 
Q 37.984375 18.0625 35.515625 20.015625 
Q 33.0625 21.96875 24.703125 23.78125 
L 21.578125 24.515625 
Q 13.234375 26.265625 9.515625 29.90625 
Q 5.8125 33.546875 5.8125 39.890625 
Q 5.8125 47.609375 11.28125 51.796875 
Q 16.75 56 26.8125 56 
Q 31.78125 56 36.171875 55.265625 
Q 40.578125 54.546875 44.28125 53.078125 
z
" id="DejaVuSans-115"/>
       <path d="M 18.3125 70.21875 
L 18.3125 54.6875 
L 36.8125 54.6875 
L 36.8125 47.703125 
L 18.3125 47.703125 
L 18.3125 18.015625 
Q 18.3125 11.328125 20.140625 9.421875 
Q 21.96875 7.515625 27.59375 7.515625 
L 36.8125 7.515625 
L 36.8125 0 
L 27.59375 0 
Q 17.1875 0 13.234375 3.875 
Q 9.28125 7.765625 9.28125 18.015625 
L 9.28125 47.703125 
L 2.6875 47.703125 
L 2.6875 54.6875 
L 9.28125 54.6875 
L 9.28125 70.21875 
z
" id="DejaVuSans-116"/>
      </defs>
      <use xlink:href="#DejaVuSans-76"/>
      <use x="46.587891" xlink:href="#DejaVuSans-87"/>
      <use x="140.964844" xlink:href="#DejaVuSans-114"/>
      <use x="182.078125" xlink:href="#DejaVuSans-105"/>
      <use x="209.861328" xlink:href="#DejaVuSans-115"/>
      <use x="261.960938" xlink:href="#DejaVuSans-116"/>
     </g>
    </g>
   </g>
   <g id="text_9">
    <g clip-path="url(#pdf8e358b16)">
     <!-- LHand -->
     <g transform="translate(112.739431 364.783324)scale(0.1 -0.1)">
      <use xlink:href="#DejaVuSans-76"/>
      <use x="55.712891" xlink:href="#DejaVuSans-72"/>
      <use x="130.908203" xlink:href="#DejaVuSans-97"/>
      <use x="192.1875" xlink:href="#DejaVuSans-110"/>
      <use x="255.566406" xlink:href="#DejaVuSans-100"/>
     </g>
    </g>
   </g>
   <g id="text_10">
    <g clip-path="url(#pdf8e358b16)">
     <!-- RShoulder -->
     <g transform="translate(459.597802 171.408199)scale(0.1 -0.1)">
      <defs>
       <path d="M 44.390625 34.1875 
Q 47.5625 33.109375 50.5625 29.59375 
Q 53.5625 26.078125 56.59375 19.921875 
L 66.609375 0 
L 56 0 
L 46.6875 18.703125 
Q 43.0625 26.03125 39.671875 28.421875 
Q 36.28125 30.8125 30.421875 30.8125 
L 19.671875 30.8125 
L 19.671875 0 
L 9.8125 0 
L 9.8125 72.90625 
L 32.078125 72.90625 
Q 44.578125 72.90625 50.734375 67.671875 
Q 56.890625 62.453125 56.890625 51.90625 
Q 56.890625 45.015625 53.6875 40.46875 
Q 50.484375 35.9375 44.390625 34.1875 
z
M 19.671875 64.796875 
L 19.671875 38.921875 
L 32.078125 38.921875 
Q 39.203125 38.921875 42.84375 42.21875 
Q 46.484375 45.515625 46.484375 51.90625 
Q 46.484375 58.296875 42.84375 61.546875 
Q 39.203125 64.796875 32.078125 64.796875 
z
" id="DejaVuSans-82"/>
      </defs>
      <use xlink:href="#DejaVuSans-82"/>
      <use x="69.482422" xlink:href="#DejaVuSans-83"/>
      <use x="132.958984" xlink:href="#DejaVuSans-104"/>
      <use x="196.337891" xlink:href="#DejaVuSans-111"/>
      <use x="257.519531" xlink:href="#DejaVuSans-117"/>
      <use x="320.898438" xlink:href="#DejaVuSans-108"/>
      <use x="348.681641" xlink:href="#DejaVuSans-100"/>
      <use x="412.158203" xlink:href="#DejaVuSans-101"/>
      <use x="473.681641" xlink:href="#DejaVuSans-114"/>
     </g>
    </g>
   </g>
   <g id="text_11">
    <g clip-path="url(#pdf8e358b16)">
     <!-- RElbow -->
     <g transform="translate(507.671216 266.318206)scale(0.1 -0.1)">
      <use xlink:href="#DejaVuSans-82"/>
      <use x="69.482422" xlink:href="#DejaVuSans-69"/>
      <use x="132.666016" xlink:href="#DejaVuSans-108"/>
      <use x="160.449219" xlink:href="#DejaVuSans-98"/>
      <use x="223.925781" xlink:href="#DejaVuSans-111"/>
      <use x="285.107422" xlink:href="#DejaVuSans-119"/>
     </g>
    </g>
   </g>
   <g id="text_12">
    <g clip-path="url(#pdf8e358b16)">
     <!-- RWrist -->
     <g transform="translate(420.705952 337.211085)scale(0.1 -0.1)">
      <use xlink:href="#DejaVuSans-82"/>
      <use x="65.482422" xlink:href="#DejaVuSans-87"/>
      <use x="159.859375" xlink:href="#DejaVuSans-114"/>
      <use x="200.972656" xlink:href="#DejaVuSans-105"/>
      <use x="228.755859" xlink:href="#DejaVuSans-115"/>
      <use x="280.855469" xlink:href="#DejaVuSans-116"/>
     </g>
    </g>
   </g>
   <g id="text_13">
    <g clip-path="url(#pdf8e358b16)">
     <!-- RHand -->
     <g transform="translate(412.125533 333.289683)scale(0.1 -0.1)">
      <use xlink:href="#DejaVuSans-82"/>
      <use x="69.482422" xlink:href="#DejaVuSans-72"/>
      <use x="144.677734" xlink:href="#DejaVuSans-97"/>
      <use x="205.957031" xlink:href="#DejaVuSans-110"/>
      <use x="269.335938" xlink:href="#DejaVuSans-100"/>
     </g>
    </g>
   </g>
   <g id="text_14">
    <g clip-path="url(#pdf8e358b16)">
     <!-- LHip -->
     <g transform="translate(215.339779 366.247862)scale(0.1 -0.1)">
      <use xlink:href="#DejaVuSans-76"/>
      <use x="55.712891" xlink:href="#DejaVuSans-72"/>
      <use x="130.908203" xlink:href="#DejaVuSans-105"/>
      <use x="158.691406" xlink:href="#DejaVuSans-112"/>
     </g>
    </g>
   </g>
   <g id="text_15">
    <g clip-path="url(#pdf8e358b16)">
     <!-- LKnee -->
     <g transform="translate(153.941244 575.683553)scale(0.1 -0.1)">
      <defs>
       <path d="M 9.8125 72.90625 
L 19.671875 72.90625 
L 19.671875 42.09375 
L 52.390625 72.90625 
L 65.09375 72.90625 
L 28.90625 38.921875 
L 67.671875 0 
L 54.6875 0 
L 19.671875 35.109375 
L 19.671875 0 
L 9.8125 0 
z
" id="DejaVuSans-75"/>
      </defs>
      <use xlink:href="#DejaVuSans-76"/>
      <use x="55.712891" xlink:href="#DejaVuSans-75"/>
      <use x="121.289062" xlink:href="#DejaVuSans-110"/>
      <use x="184.667969" xlink:href="#DejaVuSans-101"/>
      <use x="246.191406" xlink:href="#DejaVuSans-101"/>
     </g>
    </g>
   </g>
   <g id="text_16">
    <g clip-path="url(#pdf8e358b16)">
     <!-- LAnkle -->
     <g transform="translate(141.410726 740.230579)scale(0.1 -0.1)">
      <defs>
       <path d="M 34.1875 63.1875 
L 20.796875 26.90625 
L 47.609375 26.90625 
z
M 28.609375 72.90625 
L 39.796875 72.90625 
L 67.578125 0 
L 57.328125 0 
L 50.6875 18.703125 
L 17.828125 18.703125 
L 11.1875 0 
L 0.78125 0 
z
" id="DejaVuSans-65"/>
       <path d="M 9.078125 75.984375 
L 18.109375 75.984375 
L 18.109375 31.109375 
L 44.921875 54.6875 
L 56.390625 54.6875 
L 27.390625 29.109375 
L 57.625 0 
L 45.90625 0 
L 18.109375 26.703125 
L 18.109375 0 
L 9.078125 0 
z
" id="DejaVuSans-107"/>
      </defs>
      <use xlink:href="#DejaVuSans-76"/>
      <use x="57.962891" xlink:href="#DejaVuSans-65"/>
      <use x="126.371094" xlink:href="#DejaVuSans-110"/>
      <use x="189.75" xlink:href="#DejaVuSans-107"/>
      <use x="247.660156" xlink:href="#DejaVuSans-108"/>
      <use x="275.443359" xlink:href="#DejaVuSans-101"/>
     </g>
    </g>
   </g>
   <g id="text_17">
    <g clip-path="url(#pdf8e358b16)">
     <!-- LFoot -->
     <g transform="translate(137.964579 791.784168)scale(0.1 -0.1)">
      <defs>
       <path d="M 9.8125 72.90625 
L 51.703125 72.90625 
L 51.703125 64.59375 
L 19.671875 64.59375 
L 19.671875 43.109375 
L 48.578125 43.109375 
L 48.578125 34.8125 
L 19.671875 34.8125 
L 19.671875 0 
L 9.8125 0 
z
" id="DejaVuSans-70"/>
      </defs>
      <use xlink:href="#DejaVuSans-76"/>
      <use x="55.712891" xlink:href="#DejaVuSans-70"/>
      <use x="109.607422" xlink:href="#DejaVuSans-111"/>
      <use x="170.789062" xlink:href="#DejaVuSans-111"/>
      <use x="231.970703" xlink:href="#DejaVuSans-116"/>
     </g>
    </g>
   </g>
   <g id="text_18">
    <g clip-path="url(#pdf8e358b16)">
     <!-- RHip -->
     <g transform="translate(357.158277 367.04402)scale(0.1 -0.1)">
      <use xlink:href="#DejaVuSans-82"/>
      <use x="69.482422" xlink:href="#DejaVuSans-72"/>
      <use x="144.677734" xlink:href="#DejaVuSans-105"/>
      <use x="172.460938" xlink:href="#DejaVuSans-112"/>
     </g>
    </g>
   </g>
   <g id="text_19">
    <g clip-path="url(#pdf8e358b16)">
     <!-- RKnee -->
     <g transform="translate(351.193395 530.95445)scale(0.1 -0.1)">
      <use xlink:href="#DejaVuSans-82"/>
      <use x="69.482422" xlink:href="#DejaVuSans-75"/>
      <use x="135.058594" xlink:href="#DejaVuSans-110"/>
      <use x="198.4375" xlink:href="#DejaVuSans-101"/>
      <use x="259.960938" xlink:href="#DejaVuSans-101"/>
     </g>
    </g>
   </g>
   <g id="text_20">
    <g clip-path="url(#pdf8e358b16)">
     <!-- RAnkle -->
     <g transform="translate(260.295113 664.839964)scale(0.1 -0.1)">
      <use xlink:href="#DejaVuSans-82"/>
      <use x="65.482422" xlink:href="#DejaVuSans-65"/>
      <use x="133.890625" xlink:href="#DejaVuSans-110"/>
      <use x="197.269531" xlink:href="#DejaVuSans-107"/>
      <use x="255.179688" xlink:href="#DejaVuSans-108"/>
      <use x="282.962891" xlink:href="#DejaVuSans-101"/>
     </g>
    </g>
   </g>
   <g id="text_21">
    <g clip-path="url(#pdf8e358b16)">
     <!-- RFoot -->
     <g transform="translate(245.855129 706.945389)scale(0.1 -0.1)">
      <use xlink:href="#DejaVuSans-82"/>
      <use x="69.482422" xlink:href="#DejaVuSans-70"/>
      <use x="123.376953" xlink:href="#DejaVuSans-111"/>
      <use x="184.558594" xlink:href="#DejaVuSans-111"/>
      <use x="245.740234" xlink:href="#DejaVuSans-116"/>
     </g>
    </g>
   </g>
   <g id="text_22">
    <g clip-path="url(#pdf8e358b16)">
     <!-- LHandTip -->
     <g transform="translate(152.147437 394.571329)scale(0.1 -0.1)">
      <defs>
       <path d="M -0.296875 72.90625 
L 61.375 72.90625 
L 61.375 64.59375 
L 35.5 64.59375 
L 35.5 0 
L 25.59375 0 
L 25.59375 64.59375 
L -0.296875 64.59375 
z
" id="DejaVuSans-84"/>
      </defs>
      <use xlink:href="#DejaVuSans-76"/>
      <use x="55.712891" xlink:href="#DejaVuSans-72"/>
      <use x="130.908203" xlink:href="#DejaVuSans-97"/>
      <use x="192.1875" xlink:href="#DejaVuSans-110"/>
      <use x="255.566406" xlink:href="#DejaVuSans-100"/>
      <use x="319.042969" xlink:href="#DejaVuSans-84"/>
      <use x="377.001953" xlink:href="#DejaVuSans-105"/>
      <use x="404.785156" xlink:href="#DejaVuSans-112"/>
     </g>
    </g>
   </g>
   <g id="text_23">
    <g clip-path="url(#pdf8e358b16)">
     <!-- LThumb -->
     <g transform="translate(139.898914 355.604098)scale(0.1 -0.1)">
      <defs>
       <path d="M 52 44.1875 
Q 55.375 50.25 60.0625 53.125 
Q 64.75 56 71.09375 56 
Q 79.640625 56 84.28125 50.015625 
Q 88.921875 44.046875 88.921875 33.015625 
L 88.921875 0 
L 79.890625 0 
L 79.890625 32.71875 
Q 79.890625 40.578125 77.09375 44.375 
Q 74.3125 48.1875 68.609375 48.1875 
Q 61.625 48.1875 57.5625 43.546875 
Q 53.515625 38.921875 53.515625 30.90625 
L 53.515625 0 
L 44.484375 0 
L 44.484375 32.71875 
Q 44.484375 40.625 41.703125 44.40625 
Q 38.921875 48.1875 33.109375 48.1875 
Q 26.21875 48.1875 22.15625 43.53125 
Q 18.109375 38.875 18.109375 30.90625 
L 18.109375 0 
L 9.078125 0 
L 9.078125 54.6875 
L 18.109375 54.6875 
L 18.109375 46.1875 
Q 21.1875 51.21875 25.484375 53.609375 
Q 29.78125 56 35.6875 56 
Q 41.65625 56 45.828125 52.96875 
Q 50 49.953125 52 44.1875 
z
" id="DejaVuSans-109"/>
      </defs>
      <use xlink:href="#DejaVuSans-76"/>
      <use x="41.962891" xlink:href="#DejaVuSans-84"/>
      <use x="103.046875" xlink:href="#DejaVuSans-104"/>
      <use x="166.425781" xlink:href="#DejaVuSans-117"/>
      <use x="229.804688" xlink:href="#DejaVuSans-109"/>
      <use x="327.216797" xlink:href="#DejaVuSans-98"/>
     </g>
    </g>
   </g>
   <g id="text_24">
    <g clip-path="url(#pdf8e358b16)">
     <!-- RHandTip -->
     <g transform="translate(375.906 339.842066)scale(0.1 -0.1)">
      <use xlink:href="#DejaVuSans-82"/>
      <use x="69.482422" xlink:href="#DejaVuSans-72"/>
      <use x="144.677734" xlink:href="#DejaVuSans-97"/>
      <use x="205.957031" xlink:href="#DejaVuSans-110"/>
      <use x="269.335938" xlink:href="#DejaVuSans-100"/>
      <use x="332.8125" xlink:href="#DejaVuSans-84"/>
      <use x="390.771484" xlink:href="#DejaVuSans-105"/>
      <use x="418.554688" xlink:href="#DejaVuSans-112"/>
     </g>
    </g>
   </g>
   <g id="text_25">
    <g clip-path="url(#pdf8e358b16)">
     <!-- RThumb -->
     <g transform="translate(365.2463 328.812878)scale(0.1 -0.1)">
      <use xlink:href="#DejaVuSans-82"/>
      <use x="62.232422" xlink:href="#DejaVuSans-84"/>
      <use x="123.316406" xlink:href="#DejaVuSans-104"/>
      <use x="186.695312" xlink:href="#DejaVuSans-117"/>
      <use x="250.074219" xlink:href="#DejaVuSans-109"/>
      <use x="347.486328" xlink:href="#DejaVuSans-98"/>
     </g>
    </g>
   </g>
   <g id="text_26">
    <!-- Node Graph Visualization - Frame 100 -->
    <g transform="translate(174.194063 -6)scale(0.12 -0.12)">
     <defs>
      <path d="M 9.8125 72.90625 
L 23.09375 72.90625 
L 55.421875 11.921875 
L 55.421875 72.90625 
L 64.984375 72.90625 
L 64.984375 0 
L 51.703125 0 
L 19.390625 60.984375 
L 19.390625 0 
L 9.8125 0 
z
" id="DejaVuSans-78"/>
      <path id="DejaVuSans-32"/>
      <path d="M 59.515625 10.40625 
L 59.515625 29.984375 
L 43.40625 29.984375 
L 43.40625 38.09375 
L 69.28125 38.09375 
L 69.28125 6.78125 
Q 63.578125 2.734375 56.6875 0.65625 
Q 49.8125 -1.421875 42 -1.421875 
Q 24.90625 -1.421875 15.25 8.5625 
Q 5.609375 18.5625 5.609375 36.375 
Q 5.609375 54.25 15.25 64.234375 
Q 24.90625 74.21875 42 74.21875 
Q 49.125 74.21875 55.546875 72.453125 
Q 61.96875 70.703125 67.390625 67.28125 
L 67.390625 56.78125 
Q 61.921875 61.421875 55.765625 63.765625 
Q 49.609375 66.109375 42.828125 66.109375 
Q 29.4375 66.109375 22.71875 58.640625 
Q 16.015625 51.171875 16.015625 36.375 
Q 16.015625 21.625 22.71875 14.15625 
Q 29.4375 6.6875 42.828125 6.6875 
Q 48.046875 6.6875 52.140625 7.59375 
Q 56.25 8.5 59.515625 10.40625 
z
" id="DejaVuSans-71"/>
      <path d="M 28.609375 0 
L 0.78125 72.90625 
L 11.078125 72.90625 
L 34.1875 11.53125 
L 57.328125 72.90625 
L 67.578125 72.90625 
L 39.796875 0 
z
" id="DejaVuSans-86"/>
      <path d="M 5.515625 54.6875 
L 48.1875 54.6875 
L 48.1875 46.484375 
L 14.40625 7.171875 
L 48.1875 7.171875 
L 48.1875 0 
L 4.296875 0 
L 4.296875 8.203125 
L 38.09375 47.515625 
L 5.515625 47.515625 
z
" id="DejaVuSans-122"/>
      <path d="M 4.890625 31.390625 
L 31.203125 31.390625 
L 31.203125 23.390625 
L 4.890625 23.390625 
z
" id="DejaVuSans-45"/>
      <path d="M 12.40625 8.296875 
L 28.515625 8.296875 
L 28.515625 63.921875 
L 10.984375 60.40625 
L 10.984375 69.390625 
L 28.421875 72.90625 
L 38.28125 72.90625 
L 38.28125 8.296875 
L 54.390625 8.296875 
L 54.390625 0 
L 12.40625 0 
z
" id="DejaVuSans-49"/>
      <path d="M 31.78125 66.40625 
Q 24.171875 66.40625 20.328125 58.90625 
Q 16.5 51.421875 16.5 36.375 
Q 16.5 21.390625 20.328125 13.890625 
Q 24.171875 6.390625 31.78125 6.390625 
Q 39.453125 6.390625 43.28125 13.890625 
Q 47.125 21.390625 47.125 36.375 
Q 47.125 51.421875 43.28125 58.90625 
Q 39.453125 66.40625 31.78125 66.40625 
z
M 31.78125 74.21875 
Q 44.046875 74.21875 50.515625 64.515625 
Q 56.984375 54.828125 56.984375 36.375 
Q 56.984375 17.96875 50.515625 8.265625 
Q 44.046875 -1.421875 31.78125 -1.421875 
Q 19.53125 -1.421875 13.0625 8.265625 
Q 6.59375 17.96875 6.59375 36.375 
Q 6.59375 54.828125 13.0625 64.515625 
Q 19.53125 74.21875 31.78125 74.21875 
z
" id="DejaVuSans-48"/>
     </defs>
     <use xlink:href="#DejaVuSans-78"/>
     <use x="74.804688" xlink:href="#DejaVuSans-111"/>
     <use x="135.986328" xlink:href="#DejaVuSans-100"/>
     <use x="199.462891" xlink:href="#DejaVuSans-101"/>
     <use x="260.986328" xlink:href="#DejaVuSans-32"/>
     <use x="292.773438" xlink:href="#DejaVuSans-71"/>
     <use x="370.263672" xlink:href="#DejaVuSans-114"/>
     <use x="411.376953" xlink:href="#DejaVuSans-97"/>
     <use x="472.65625" xlink:href="#DejaVuSans-112"/>
     <use x="536.132812" xlink:href="#DejaVuSans-104"/>
     <use x="599.511719" xlink:href="#DejaVuSans-32"/>
     <use x="631.298828" xlink:href="#DejaVuSans-86"/>
     <use x="697.457031" xlink:href="#DejaVuSans-105"/>
     <use x="725.240234" xlink:href="#DejaVuSans-115"/>
     <use x="777.339844" xlink:href="#DejaVuSans-117"/>
     <use x="840.71875" xlink:href="#DejaVuSans-97"/>
     <use x="901.998047" xlink:href="#DejaVuSans-108"/>
     <use x="929.78125" xlink:href="#DejaVuSans-105"/>
     <use x="957.564453" xlink:href="#DejaVuSans-122"/>
     <use x="1010.054688" xlink:href="#DejaVuSans-97"/>
     <use x="1071.333984" xlink:href="#DejaVuSans-116"/>
     <use x="1110.542969" xlink:href="#DejaVuSans-105"/>
     <use x="1138.326172" xlink:href="#DejaVuSans-111"/>
     <use x="1199.507812" xlink:href="#DejaVuSans-110"/>
     <use x="1262.886719" xlink:href="#DejaVuSans-32"/>
     <use x="1294.673828" xlink:href="#DejaVuSans-45"/>
     <use x="1330.757812" xlink:href="#DejaVuSans-32"/>
     <use x="1362.544922" xlink:href="#DejaVuSans-70"/>
     <use x="1412.814453" xlink:href="#DejaVuSans-114"/>
     <use x="1453.927734" xlink:href="#DejaVuSans-97"/>
     <use x="1515.207031" xlink:href="#DejaVuSans-109"/>
     <use x="1612.619141" xlink:href="#DejaVuSans-101"/>
     <use x="1674.142578" xlink:href="#DejaVuSans-32"/>
     <use x="1705.929688" xlink:href="#DejaVuSans-49"/>
     <use x="1769.552734" xlink:href="#DejaVuSans-48"/>
     <use x="1833.175781" xlink:href="#DejaVuSans-48"/>
    </g>
   </g>
  </g>
 </g>
 <defs>
  <clipPath id="pdf8e358b16">
   <rect height="864" width="576" x="0" y="0"/>
  </clipPath>
 </defs>
</svg>
