<?xml version="1.0" encoding="utf-8" standalone="no"?>
<!DOCTYPE svg PUBLIC "-//W3C//DTD SVG 1.1//EN"
  "http://www.w3.org/Graphics/SVG/1.1/DTD/svg11.dtd">
<!-- Created with matplotlib (https://matplotlib.org/) -->
<svg height="864pt" version="1.1" viewBox="0 0 576 864" width="576pt" xmlns="http://www.w3.org/2000/svg" xmlns:xlink="http://www.w3.org/1999/xlink">
 <metadata>
  <rdf:RDF xmlns:cc="http://creativecommons.org/ns#" xmlns:dc="http://purl.org/dc/elements/1.1/" xmlns:rdf="http://www.w3.org/1999/02/22-rdf-syntax-ns#">
   <cc:Work>
    <dc:type rdf:resource="http://purl.org/dc/dcmitype/StillImage"/>
    <dc:date>2024-02-04T22:28:07.782301</dc:date>
    <dc:format>image/svg+xml</dc:format>
    <dc:creator>
     <cc:Agent>
      <dc:title>Matplotlib v3.3.2, https://matplotlib.org/</dc:title>
     </cc:Agent>
    </dc:creator>
   </cc:Work>
  </rdf:RDF>
 </metadata>
 <defs>
  <style type="text/css">*{stroke-linecap:butt;stroke-linejoin:round;}</style>
 </defs>
 <g id="figure_1">
  <g id="patch_1">
   <path d="M 0 864 
L 576 864 
L 576 0 
L 0 0 
z
" style="fill:#ffffff;"/>
  </g>
  <g id="axes_1">
   <g id="patch_2">
    <path clip-path="url(#p1fff7b6b55)" d="M 340.105454 84.593563 
Q 325.566358 99.996046 311.794715 114.585501 
" style="fill:none;stroke:#000000;stroke-linecap:round;"/>
    <path clip-path="url(#p1fff7b6b55)" d="M 315.99483 113.049586 
L 311.794715 114.585501 
L 313.086053 110.30386 
L 315.99483 113.049586 
z
" style="stroke:#000000;stroke-linecap:round;"/>
   </g>
   <g id="patch_3">
    <path clip-path="url(#p1fff7b6b55)" d="M 301.650016 138.24016 
Q 301.540073 143.146347 301.455178 146.93478 
" style="fill:none;stroke:#000000;stroke-linecap:round;"/>
    <path clip-path="url(#p1fff7b6b55)" d="M 303.54429 142.980591 
L 301.455178 146.93478 
L 299.545294 142.890977 
L 303.54429 142.980591 
z
" style="stroke:#000000;stroke-linecap:round;"/>
   </g>
   <g id="patch_4">
    <path clip-path="url(#p1fff7b6b55)" d="M 311.025493 115.400402 
Q 325.564589 99.997919 339.336232 85.408464 
" style="fill:none;stroke:#000000;stroke-linecap:round;"/>
    <path clip-path="url(#p1fff7b6b55)" d="M 335.136117 86.944379 
L 339.336232 85.408464 
L 338.044895 89.690105 
L 335.136117 86.944379 
z
" style="stroke:#000000;stroke-linecap:round;"/>
   </g>
   <g id="patch_5">
    <path clip-path="url(#p1fff7b6b55)" d="M 300.234608 174.476001 
Q 297.359406 216.676539 294.560202 257.761628 
" style="fill:none;stroke:#000000;stroke-linecap:round;"/>
    <path clip-path="url(#p1fff7b6b55)" d="M 296.827473 253.906828 
L 294.560202 257.761628 
L 292.836725 253.634931 
L 296.827473 253.906828 
z
" style="stroke:#000000;stroke-linecap:round;"/>
   </g>
   <g id="patch_6">
    <path clip-path="url(#p1fff7b6b55)" d="M 287.909346 161.469618 
Q 241.725735 162.134868 196.660042 162.784014 
" style="fill:none;stroke:#000000;stroke-linecap:round;"/>
    <path clip-path="url(#p1fff7b6b55)" d="M 200.688433 164.726195 
L 196.660042 162.784014 
L 200.630822 160.72661 
L 200.688433 164.726195 
z
" style="stroke:#000000;stroke-linecap:round;"/>
   </g>
   <g id="patch_7">
    <path clip-path="url(#p1fff7b6b55)" d="M 314.11837 163.8114 
Q 372.54687 175.206165 429.878009 186.386922 
" style="fill:none;stroke:#000000;stroke-linecap:round;"/>
    <path clip-path="url(#p1fff7b6b55)" d="M 426.334801 183.658245 
L 429.878009 186.386922 
L 425.569143 187.584283 
L 426.334801 183.658245 
z
" style="stroke:#000000;stroke-linecap:round;"/>
   </g>
   <g id="patch_8">
    <path clip-path="url(#p1fff7b6b55)" d="M 301.430014 148.057726 
Q 301.539957 143.15154 301.624852 139.363107 
" style="fill:none;stroke:#000000;stroke-linecap:round;"/>
    <path clip-path="url(#p1fff7b6b55)" d="M 299.53574 143.317296 
L 301.624852 139.363107 
L 303.534736 143.406909 
L 299.53574 143.317296 
z
" style="stroke:#000000;stroke-linecap:round;"/>
   </g>
   <g id="patch_9">
    <path clip-path="url(#p1fff7b6b55)" d="M 292.224397 285.228856 
Q 285.82611 347.085583 279.542856 407.83021 
" style="fill:none;stroke:#000000;stroke-linecap:round;"/>
    <path clip-path="url(#p1fff7b6b55)" d="M 281.943795 404.057214 
L 279.542856 407.83021 
L 277.965023 403.645661 
L 281.943795 404.057214 
z
" style="stroke:#000000;stroke-linecap:round;"/>
   </g>
   <g id="patch_10">
    <path clip-path="url(#p1fff7b6b55)" d="M 294.484153 258.87783 
Q 297.359355 216.677293 300.158559 175.592204 
" style="fill:none;stroke:#000000;stroke-linecap:round;"/>
    <path clip-path="url(#p1fff7b6b55)" d="M 297.891288 179.447003 
L 300.158559 175.592204 
L 301.882036 179.7189 
L 297.891288 179.447003 
z
" style="stroke:#000000;stroke-linecap:round;"/>
   </g>
   <g id="patch_11">
    <path clip-path="url(#p1fff7b6b55)" d="M 264.989082 420.137648 
Q 241.468523 416.600319 219.053564 413.229265 
" style="fill:none;stroke:#000000;stroke-linecap:round;"/>
    <path clip-path="url(#p1fff7b6b55)" d="M 222.71164 415.801906 
L 219.053564 413.229265 
L 223.306523 411.846389 
L 222.71164 415.801906 
z
" style="stroke:#000000;stroke-linecap:round;"/>
   </g>
   <g id="patch_12">
    <path clip-path="url(#p1fff7b6b55)" d="M 291.285183 422.612671 
Q 303.047144 423.064942 313.691897 423.474253 
" style="fill:none;stroke:#000000;stroke-linecap:round;"/>
    <path clip-path="url(#p1fff7b6b55)" d="M 309.771698 421.322036 
L 313.691897 423.474253 
L 309.618004 425.319082 
L 309.771698 421.322036 
z
" style="stroke:#000000;stroke-linecap:round;"/>
   </g>
   <g id="patch_13">
    <path clip-path="url(#p1fff7b6b55)" d="M 279.427005 408.95023 
Q 285.825291 347.093503 292.108545 286.348876 
" style="fill:none;stroke:#000000;stroke-linecap:round;"/>
    <path clip-path="url(#p1fff7b6b55)" d="M 289.707606 290.121871 
L 292.108545 286.348876 
L 293.686378 290.533424 
L 289.707606 290.121871 
z
" style="stroke:#000000;stroke-linecap:round;"/>
   </g>
   <g id="patch_14">
    <path clip-path="url(#p1fff7b6b55)" d="M 173.73833 173.058582 
Q 133.984002 219.732376 94.954631 265.55503 
" style="fill:none;stroke:#000000;stroke-linecap:round;"/>
    <path clip-path="url(#p1fff7b6b55)" d="M 99.070879 263.806743 
L 94.954631 265.55503 
L 96.02575 261.21306 
L 99.070879 263.806743 
z
" style="stroke:#000000;stroke-linecap:round;"/>
   </g>
   <g id="patch_15">
    <path clip-path="url(#p1fff7b6b55)" d="M 195.538051 162.800176 
Q 241.721662 162.134927 286.787354 161.48578 
" style="fill:none;stroke:#000000;stroke-linecap:round;"/>
    <path clip-path="url(#p1fff7b6b55)" d="M 282.758963 159.543599 
L 286.787354 161.48578 
L 282.816575 163.543184 
L 282.758963 159.543599 
z
" style="stroke:#000000;stroke-linecap:round;"/>
   </g>
   <g id="patch_16">
    <path clip-path="url(#p1fff7b6b55)" d="M 82.428176 289.30556 
Q 69.919669 339.085041 57.68363 387.780196 
" style="fill:none;stroke:#000000;stroke-linecap:round;"/>
    <path clip-path="url(#p1fff7b6b55)" d="M 60.59814 384.3882 
L 57.68363 387.780196 
L 56.718739 383.413391 
L 60.59814 384.3882 
z
" style="stroke:#000000;stroke-linecap:round;"/>
   </g>
   <g id="patch_17">
    <path clip-path="url(#p1fff7b6b55)" d="M 94.226985 266.409327 
Q 133.981313 219.735534 173.010684 173.912879 
" style="fill:none;stroke:#000000;stroke-linecap:round;"/>
    <path clip-path="url(#p1fff7b6b55)" d="M 168.894437 175.661166 
L 173.010684 173.912879 
L 171.939565 178.254849 
L 168.894437 175.661166 
z
" style="stroke:#000000;stroke-linecap:round;"/>
   </g>
   <g id="patch_18">
    <path clip-path="url(#p1fff7b6b55)" d="M 56.280338 414.756382 
Q 57.000707 419.250825 57.544135 422.641324 
" style="fill:none;stroke:#000000;stroke-linecap:round;"/>
    <path clip-path="url(#p1fff7b6b55)" d="M 58.88589 418.375214 
L 57.544135 422.641324 
L 54.936301 419.008254 
L 58.88589 418.375214 
z
" style="stroke:#000000;stroke-linecap:round;"/>
   </g>
   <g id="patch_19">
    <path clip-path="url(#p1fff7b6b55)" d="M 57.410448 388.867364 
Q 69.918955 339.087883 82.154994 290.392728 
" style="fill:none;stroke:#000000;stroke-linecap:round;"/>
    <path clip-path="url(#p1fff7b6b55)" d="M 79.240484 293.784724 
L 82.154994 290.392728 
L 83.119885 294.759533 
L 79.240484 293.784724 
z
" style="stroke:#000000;stroke-linecap:round;"/>
   </g>
   <g id="patch_20">
    <path clip-path="url(#p1fff7b6b55)" d="M 56.793712 449.689876 
Q 54.899531 457.764638 53.260687 464.750912 
" style="fill:none;stroke:#000000;stroke-linecap:round;"/>
    <path clip-path="url(#p1fff7b6b55)" d="M 56.121355 461.313387 
L 53.260687 464.750912 
L 52.227067 460.399863 
L 56.121355 461.313387 
z
" style="stroke:#000000;stroke-linecap:round;"/>
   </g>
   <g id="patch_21">
    <path clip-path="url(#p1fff7b6b55)" d="M 72.899627 434.882228 
Q 76.588048 434.338812 79.170375 433.958357 
" style="fill:none;stroke:#000000;stroke-linecap:round;"/>
    <path clip-path="url(#p1fff7b6b55)" d="M 74.92158 432.562744 
L 79.170375 433.958357 
L 75.504607 436.520025 
L 74.92158 432.562744 
z
" style="stroke:#000000;stroke-linecap:round;"/>
   </g>
   <g id="patch_22">
    <path clip-path="url(#p1fff7b6b55)" d="M 57.721718 423.749276 
Q 57.001349 419.254833 56.45792 415.864334 
" style="fill:none;stroke:#000000;stroke-linecap:round;"/>
    <path clip-path="url(#p1fff7b6b55)" d="M 55.116165 420.130444 
L 56.45792 415.864334 
L 59.065755 419.497404 
L 55.116165 420.130444 
z
" style="stroke:#000000;stroke-linecap:round;"/>
   </g>
   <g id="patch_23">
    <path clip-path="url(#p1fff7b6b55)" d="M 447.933291 201.750368 
Q 461.605379 245.169718 474.941669 287.522653 
" style="fill:none;stroke:#000000;stroke-linecap:round;"/>
    <path clip-path="url(#p1fff7b6b55)" d="M 475.647944 283.10664 
L 474.941669 287.522653 
L 471.832623 284.308026 
L 475.647944 283.10664 
z
" style="stroke:#000000;stroke-linecap:round;"/>
   </g>
   <g id="patch_24">
    <path clip-path="url(#p1fff7b6b55)" d="M 430.975726 186.601 
Q 372.547227 175.206235 315.216088 164.025478 
" style="fill:none;stroke:#000000;stroke-linecap:round;"/>
    <path clip-path="url(#p1fff7b6b55)" d="M 318.759296 166.754155 
L 315.216088 164.025478 
L 319.524954 162.828118 
L 318.759296 166.754155 
z
" style="stroke:#000000;stroke-linecap:round;"/>
   </g>
   <g id="patch_25">
    <path clip-path="url(#p1fff7b6b55)" d="M 483.132657 313.851 
Q 494.828509 351.94535 506.196216 388.970905 
" style="fill:none;stroke:#000000;stroke-linecap:round;"/>
    <path clip-path="url(#p1fff7b6b55)" d="M 506.934127 384.560067 
L 506.196216 388.970905 
L 503.110293 385.734074 
L 506.934127 384.560067 
z
" style="stroke:#000000;stroke-linecap:round;"/>
   </g>
   <g id="patch_26">
    <path clip-path="url(#p1fff7b6b55)" d="M 475.277475 288.589094 
Q 461.605387 245.169744 448.269097 202.816809 
" style="fill:none;stroke:#000000;stroke-linecap:round;"/>
    <path clip-path="url(#p1fff7b6b55)" d="M 447.562823 207.232822 
L 448.269097 202.816809 
L 451.378144 206.031436 
L 447.562823 207.232822 
z
" style="stroke:#000000;stroke-linecap:round;"/>
   </g>
   <g id="patch_27">
    <path clip-path="url(#p1fff7b6b55)" d="M 510.407302 402.686757 
Q 511.928652 406.682113 513.052145 409.632619 
" style="fill:none;stroke:#000000;stroke-linecap:round;"/>
    <path clip-path="url(#p1fff7b6b55)" d="M 513.49781 405.182745 
L 513.052145 409.632619 
L 509.759644 406.606162 
L 513.49781 405.182745 
z
" style="stroke:#000000;stroke-linecap:round;"/>
   </g>
   <g id="patch_28">
    <path clip-path="url(#p1fff7b6b55)" d="M 506.525051 390.041947 
Q 494.829199 351.947597 483.461491 314.922042 
" style="fill:none;stroke:#000000;stroke-linecap:round;"/>
    <path clip-path="url(#p1fff7b6b55)" d="M 482.72358 319.33288 
L 483.461491 314.922042 
L 486.547415 318.158873 
L 482.72358 319.33288 
z
" style="stroke:#000000;stroke-linecap:round;"/>
   </g>
   <g id="patch_29">
    <path clip-path="url(#p1fff7b6b55)" d="M 517.170719 423.371003 
Q 519.73257 432.110972 521.979936 439.778048 
" style="fill:none;stroke:#000000;stroke-linecap:round;"/>
    <path clip-path="url(#p1fff7b6b55)" d="M 522.774048 435.376981 
L 521.979936 439.778048 
L 518.93555 436.502118 
L 522.774048 435.376981 
z
" style="stroke:#000000;stroke-linecap:round;"/>
   </g>
   <g id="patch_30">
    <path clip-path="url(#p1fff7b6b55)" d="M 500.250611 411.591812 
Q 497.782505 411.762782 496.429761 411.856488 
" style="fill:none;stroke:#000000;stroke-linecap:round;"/>
    <path clip-path="url(#p1fff7b6b55)" d="M 500.55841 413.575283 
L 496.429761 411.856488 
L 500.281986 409.584846 
L 500.55841 413.575283 
z
" style="stroke:#000000;stroke-linecap:round;"/>
   </g>
   <g id="patch_31">
    <path clip-path="url(#p1fff7b6b55)" d="M 513.450002 410.677469 
Q 511.928652 406.682113 510.805159 403.731606 
" style="fill:none;stroke:#000000;stroke-linecap:round;"/>
    <path clip-path="url(#p1fff7b6b55)" d="M 510.359494 408.181481 
L 510.805159 403.731606 
L 514.097659 406.758064 
L 510.359494 408.181481 
z
" style="stroke:#000000;stroke-linecap:round;"/>
   </g>
   <g id="patch_32">
    <path clip-path="url(#p1fff7b6b55)" d="M 199.820925 423.32419 
Q 169.895142 495.865206 140.395733 567.372682 
" style="fill:none;stroke:#000000;stroke-linecap:round;"/>
    <path clip-path="url(#p1fff7b6b55)" d="M 143.770024 564.437693 
L 140.395733 567.372682 
L 140.072317 562.912256 
L 143.770024 564.437693 
z
" style="stroke:#000000;stroke-linecap:round;"/>
   </g>
   <g id="patch_33">
    <path clip-path="url(#p1fff7b6b55)" d="M 217.942991 413.062242 
Q 241.46355 416.599571 263.878508 419.970626 
" style="fill:none;stroke:#000000;stroke-linecap:round;"/>
    <path clip-path="url(#p1fff7b6b55)" d="M 260.220432 417.397985 
L 263.878508 419.970626 
L 259.62555 421.353502 
L 260.220432 417.397985 
z
" style="stroke:#000000;stroke-linecap:round;"/>
   </g>
   <g id="patch_34">
    <path clip-path="url(#p1fff7b6b55)" d="M 133.584635 593.797761 
Q 126.622467 662.210509 119.773493 729.510968 
" style="fill:none;stroke:#000000;stroke-linecap:round;"/>
    <path clip-path="url(#p1fff7b6b55)" d="M 122.168193 725.73401 
L 119.773493 729.510968 
L 118.188747 725.329033 
L 122.168193 725.73401 
z
" style="stroke:#000000;stroke-linecap:round;"/>
   </g>
   <g id="patch_35">
    <path clip-path="url(#p1fff7b6b55)" d="M 139.96882 568.407532 
Q 169.894602 495.866516 199.394011 424.359041 
" style="fill:none;stroke:#000000;stroke-linecap:round;"/>
    <path clip-path="url(#p1fff7b6b55)" d="M 196.01972 427.294029 
L 199.394011 424.359041 
L 199.717428 428.819467 
L 196.01972 427.294029 
z
" style="stroke:#000000;stroke-linecap:round;"/>
   </g>
   <g id="patch_36">
    <path clip-path="url(#p1fff7b6b55)" d="M 127.861302 752.945371 
Q 134.838884 759.646883 141.010105 765.573939 
" style="fill:none;stroke:#000000;stroke-linecap:round;"/>
    <path clip-path="url(#p1fff7b6b55)" d="M 139.510573 761.360698 
L 141.010105 765.573939 
L 136.739793 764.24562 
L 139.510573 761.360698 
z
" style="stroke:#000000;stroke-linecap:round;"/>
   </g>
   <g id="patch_37">
    <path clip-path="url(#p1fff7b6b55)" d="M 119.660519 730.621089 
Q 126.622688 662.208341 133.471661 594.907882 
" style="fill:none;stroke:#000000;stroke-linecap:round;"/>
    <path clip-path="url(#p1fff7b6b55)" d="M 131.076961 598.68484 
L 133.471661 594.907882 
L 135.056408 599.089817 
L 131.076961 598.68484 
z
" style="stroke:#000000;stroke-linecap:round;"/>
   </g>
   <g id="patch_38">
    <path clip-path="url(#p1fff7b6b55)" d="M 141.81971 766.351511 
Q 134.842128 759.649999 128.670906 753.722943 
" style="fill:none;stroke:#000000;stroke-linecap:round;"/>
    <path clip-path="url(#p1fff7b6b55)" d="M 130.170439 757.936184 
L 128.670906 753.722943 
L 132.941219 755.051262 
L 130.170439 757.936184 
z
" style="stroke:#000000;stroke-linecap:round;"/>
   </g>
   <g id="patch_39">
    <path clip-path="url(#p1fff7b6b55)" d="M 327.889057 437.256756 
Q 327.350624 489.10719 326.823801 539.839652 
" style="fill:none;stroke:#000000;stroke-linecap:round;"/>
    <path clip-path="url(#p1fff7b6b55)" d="M 328.865229 535.860635 
L 326.823801 539.839652 
L 324.865444 535.8191 
L 328.865229 535.860635 
z
" style="stroke:#000000;stroke-linecap:round;"/>
   </g>
   <g id="patch_40">
    <path clip-path="url(#p1fff7b6b55)" d="M 314.807647 423.517156 
Q 303.045686 423.064886 292.400934 422.655574 
" style="fill:none;stroke:#000000;stroke-linecap:round;"/>
    <path clip-path="url(#p1fff7b6b55)" d="M 296.321133 424.807791 
L 292.400934 422.655574 
L 296.474827 420.810745 
L 296.321133 424.807791 
z
" style="stroke:#000000;stroke-linecap:round;"/>
   </g>
   <g id="patch_41">
    <path clip-path="url(#p1fff7b6b55)" d="M 321.899294 566.520686 
Q 288.046774 653.960671 254.597908 740.358032 
" style="fill:none;stroke:#000000;stroke-linecap:round;"/>
    <path clip-path="url(#p1fff7b6b55)" d="M 257.907163 737.349905 
L 254.597908 740.358032 
L 254.17696 735.905751 
L 257.907163 737.349905 
z
" style="stroke:#000000;stroke-linecap:round;"/>
   </g>
   <g id="patch_42">
    <path clip-path="url(#p1fff7b6b55)" d="M 326.812226 540.954322 
Q 327.350659 489.103887 327.877482 438.371426 
" style="fill:none;stroke:#000000;stroke-linecap:round;"/>
    <path clip-path="url(#p1fff7b6b55)" d="M 325.836054 442.350443 
L 327.877482 438.371426 
L 329.835839 442.391978 
L 325.836054 442.350443 
z
" style="stroke:#000000;stroke-linecap:round;"/>
   </g>
   <g id="patch_43">
    <path clip-path="url(#p1fff7b6b55)" d="M 245.441961 766.355118 
Q 243.857956 771.381908 242.60997 775.342354 
" style="fill:none;stroke:#000000;stroke-linecap:round;"/>
    <path clip-path="url(#p1fff7b6b55)" d="M 245.719683 772.12837 
L 242.60997 775.342354 
L 241.904611 770.926194 
L 245.719683 772.12837 
z
" style="stroke:#000000;stroke-linecap:round;"/>
   </g>
   <g id="patch_44">
    <path clip-path="url(#p1fff7b6b55)" d="M 254.193042 741.403786 
Q 288.045562 653.963801 321.494429 567.56644 
" style="fill:none;stroke:#000000;stroke-linecap:round;"/>
    <path clip-path="url(#p1fff7b6b55)" d="M 318.185173 570.574567 
L 321.494429 567.56644 
L 321.915377 572.018721 
L 318.185173 570.574567 
z
" style="stroke:#000000;stroke-linecap:round;"/>
   </g>
   <g id="patch_45">
    <path clip-path="url(#p1fff7b6b55)" d="M 242.27401 776.408514 
Q 243.858014 771.381724 245.106 767.421279 
" style="fill:none;stroke:#000000;stroke-linecap:round;"/>
    <path clip-path="url(#p1fff7b6b55)" d="M 241.996288 770.635262 
L 245.106 767.421279 
L 245.811359 771.837439 
L 241.996288 770.635262 
z
" style="stroke:#000000;stroke-linecap:round;"/>
   </g>
   <g id="patch_46">
    <path clip-path="url(#p1fff7b6b55)" d="M 53.004844 465.841552 
Q 54.899026 457.766791 56.53787 450.780516 
" style="fill:none;stroke:#000000;stroke-linecap:round;"/>
    <path clip-path="url(#p1fff7b6b55)" d="M 53.677202 454.218041 
L 56.53787 450.780516 
L 57.571489 455.131565 
L 53.677202 454.218041 
z
" style="stroke:#000000;stroke-linecap:round;"/>
   </g>
   <g id="patch_47">
    <path clip-path="url(#p1fff7b6b55)" d="M 80.27939 433.794966 
Q 76.590969 434.338382 74.008642 434.718837 
" style="fill:none;stroke:#000000;stroke-linecap:round;"/>
    <path clip-path="url(#p1fff7b6b55)" d="M 78.257437 436.11445 
L 74.008642 434.718837 
L 77.67441 432.157168 
L 78.257437 436.11445 
z
" style="stroke:#000000;stroke-linecap:round;"/>
   </g>
   <g id="patch_48">
    <path clip-path="url(#p1fff7b6b55)" d="M 522.295812 440.855687 
Q 519.733961 432.115718 517.486595 424.448643 
" style="fill:none;stroke:#000000;stroke-linecap:round;"/>
    <path clip-path="url(#p1fff7b6b55)" d="M 516.692483 428.849709 
L 517.486595 424.448643 
L 520.530981 427.724572 
L 516.692483 428.849709 
z
" style="stroke:#000000;stroke-linecap:round;"/>
   </g>
   <g id="patch_49">
    <path clip-path="url(#p1fff7b6b55)" d="M 495.316617 411.933598 
Q 497.784723 411.762628 499.137468 411.668921 
" style="fill:none;stroke:#000000;stroke-linecap:round;"/>
    <path clip-path="url(#p1fff7b6b55)" d="M 495.008819 409.950127 
L 499.137468 411.668921 
L 495.285243 413.940564 
L 495.008819 409.950127 
z
" style="stroke:#000000;stroke-linecap:round;"/>
   </g>
   <g id="PathCollection_1">
    <defs>
     <path d="M 0 13.228757 
C 3.508307 13.228757 6.873396 11.834891 9.354143 9.354143 
C 11.834891 6.873396 13.228757 3.508307 13.228757 0 
C 13.228757 -3.508307 11.834891 -6.873396 9.354143 -9.354143 
C 6.873396 -11.834891 3.508307 -13.228757 0 -13.228757 
C -3.508307 -13.228757 -6.873396 -11.834891 -9.354143 -9.354143 
C -11.834891 -6.873396 -13.228757 -3.508307 -13.228757 0 
C -13.228757 3.508307 -11.834891 6.873396 -9.354143 9.354143 
C -6.873396 11.834891 -3.508307 13.228757 0 13.228757 
z
" id="md8fe2770fb" style="stroke:#87ceeb;"/>
    </defs>
    <g clip-path="url(#p1fff7b6b55)">
     <use style="fill:#87ceeb;stroke:#87ceeb;" x="349.184652" xlink:href="#md8fe2770fb" y="74.975207"/>
     <use style="fill:#87ceeb;stroke:#87ceeb;" x="301.946295" xlink:href="#md8fe2770fb" y="125.018758"/>
     <use style="fill:#87ceeb;stroke:#87ceeb;" x="301.133736" xlink:href="#md8fe2770fb" y="161.279128"/>
     <use style="fill:#87ceeb;stroke:#87ceeb;" x="293.585025" xlink:href="#md8fe2770fb" y="272.074703"/>
     <use style="fill:#87ceeb;stroke:#87ceeb;" x="278.066376" xlink:href="#md8fe2770fb" y="422.104382"/>
     <use style="fill:#87ceeb;stroke:#87ceeb;" x="182.313661" xlink:href="#md8fe2770fb" y="162.990666"/>
     <use style="fill:#87ceeb;stroke:#87ceeb;" x="85.651654" xlink:href="#md8fe2770fb" y="276.477243"/>
     <use style="fill:#87ceeb;stroke:#87ceeb;" x="54.18697" xlink:href="#md8fe2770fb" y="401.695681"/>
     <use style="fill:#87ceeb;stroke:#87ceeb;" x="59.815086" xlink:href="#md8fe2770fb" y="436.809977"/>
     <use style="fill:#87ceeb;stroke:#87ceeb;" x="443.960361" xlink:href="#md8fe2770fb" y="189.133272"/>
     <use style="fill:#87ceeb;stroke:#87ceeb;" x="479.250405" xlink:href="#md8fe2770fb" y="301.20619"/>
     <use style="fill:#87ceeb;stroke:#87ceeb;" x="510.407302" xlink:href="#md8fe2770fb" y="402.686757"/>
     <use style="fill:#87ceeb;stroke:#87ceeb;" x="513.450002" xlink:href="#md8fe2770fb" y="410.677469"/>
     <use style="fill:#87ceeb;stroke:#87ceeb;" x="204.865697" xlink:href="#md8fe2770fb" y="411.095508"/>
     <use style="fill:#87ceeb;stroke:#87ceeb;" x="134.924048" xlink:href="#md8fe2770fb" y="580.636215"/>
     <use style="fill:#87ceeb;stroke:#87ceeb;" x="118.321107" xlink:href="#md8fe2770fb" y="743.782636"/>
     <use style="fill:#87ceeb;stroke:#87ceeb;" x="151.359904" xlink:href="#md8fe2770fb" y="775.514246"/>
     <use style="fill:#87ceeb;stroke:#87ceeb;" x="328.026455" xlink:href="#md8fe2770fb" y="424.025445"/>
     <use style="fill:#87ceeb;stroke:#87ceeb;" x="326.674828" xlink:href="#md8fe2770fb" y="554.185633"/>
     <use style="fill:#87ceeb;stroke:#87ceeb;" x="249.417508" xlink:href="#md8fe2770fb" y="753.738839"/>
     <use style="fill:#87ceeb;stroke:#87ceeb;" x="238.298462" xlink:href="#md8fe2770fb" y="789.024793"/>
     <use style="fill:#87ceeb;stroke:#87ceeb;" x="49.983471" xlink:href="#md8fe2770fb" y="478.721451"/>
     <use style="fill:#87ceeb;stroke:#87ceeb;" x="93.363931" xlink:href="#md8fe2770fb" y="431.867217"/>
     <use style="fill:#87ceeb;stroke:#87ceeb;" x="526.016529" xlink:href="#md8fe2770fb" y="453.549222"/>
     <use style="fill:#87ceeb;stroke:#87ceeb;" x="482.117227" xlink:href="#md8fe2770fb" y="412.847941"/>
    </g>
   </g>
   <g id="text_1">
    <g clip-path="url(#p1fff7b6b55)">
     <!-- Head -->
     <g transform="translate(336.109652 77.734582)scale(0.1 -0.1)">
      <defs>
       <path d="M 9.8125 72.90625 
L 19.671875 72.90625 
L 19.671875 43.015625 
L 55.515625 43.015625 
L 55.515625 72.90625 
L 65.375 72.90625 
L 65.375 0 
L 55.515625 0 
L 55.515625 34.71875 
L 19.671875 34.71875 
L 19.671875 0 
L 9.8125 0 
z
" id="DejaVuSans-72"/>
       <path d="M 56.203125 29.59375 
L 56.203125 25.203125 
L 14.890625 25.203125 
Q 15.484375 15.921875 20.484375 11.0625 
Q 25.484375 6.203125 34.421875 6.203125 
Q 39.59375 6.203125 44.453125 7.46875 
Q 49.3125 8.734375 54.109375 11.28125 
L 54.109375 2.78125 
Q 49.265625 0.734375 44.1875 -0.34375 
Q 39.109375 -1.421875 33.890625 -1.421875 
Q 20.796875 -1.421875 13.15625 6.1875 
Q 5.515625 13.8125 5.515625 26.8125 
Q 5.515625 40.234375 12.765625 48.109375 
Q 20.015625 56 32.328125 56 
Q 43.359375 56 49.78125 48.890625 
Q 56.203125 41.796875 56.203125 29.59375 
z
M 47.21875 32.234375 
Q 47.125 39.59375 43.09375 43.984375 
Q 39.0625 48.390625 32.421875 48.390625 
Q 24.90625 48.390625 20.390625 44.140625 
Q 15.875 39.890625 15.1875 32.171875 
z
" id="DejaVuSans-101"/>
       <path d="M 34.28125 27.484375 
Q 23.390625 27.484375 19.1875 25 
Q 14.984375 22.515625 14.984375 16.5 
Q 14.984375 11.71875 18.140625 8.90625 
Q 21.296875 6.109375 26.703125 6.109375 
Q 34.1875 6.109375 38.703125 11.40625 
Q 43.21875 16.703125 43.21875 25.484375 
L 43.21875 27.484375 
z
M 52.203125 31.203125 
L 52.203125 0 
L 43.21875 0 
L 43.21875 8.296875 
Q 40.140625 3.328125 35.546875 0.953125 
Q 30.953125 -1.421875 24.3125 -1.421875 
Q 15.921875 -1.421875 10.953125 3.296875 
Q 6 8.015625 6 15.921875 
Q 6 25.140625 12.171875 29.828125 
Q 18.359375 34.515625 30.609375 34.515625 
L 43.21875 34.515625 
L 43.21875 35.40625 
Q 43.21875 41.609375 39.140625 45 
Q 35.0625 48.390625 27.6875 48.390625 
Q 23 48.390625 18.546875 47.265625 
Q 14.109375 46.140625 10.015625 43.890625 
L 10.015625 52.203125 
Q 14.9375 54.109375 19.578125 55.046875 
Q 24.21875 56 28.609375 56 
Q 40.484375 56 46.34375 49.84375 
Q 52.203125 43.703125 52.203125 31.203125 
z
" id="DejaVuSans-97"/>
       <path d="M 45.40625 46.390625 
L 45.40625 75.984375 
L 54.390625 75.984375 
L 54.390625 0 
L 45.40625 0 
L 45.40625 8.203125 
Q 42.578125 3.328125 38.25 0.953125 
Q 33.9375 -1.421875 27.875 -1.421875 
Q 17.96875 -1.421875 11.734375 6.484375 
Q 5.515625 14.40625 5.515625 27.296875 
Q 5.515625 40.1875 11.734375 48.09375 
Q 17.96875 56 27.875 56 
Q 33.9375 56 38.25 53.625 
Q 42.578125 51.265625 45.40625 46.390625 
z
M 14.796875 27.296875 
Q 14.796875 17.390625 18.875 11.75 
Q 22.953125 6.109375 30.078125 6.109375 
Q 37.203125 6.109375 41.296875 11.75 
Q 45.40625 17.390625 45.40625 27.296875 
Q 45.40625 37.203125 41.296875 42.84375 
Q 37.203125 48.484375 30.078125 48.484375 
Q 22.953125 48.484375 18.875 42.84375 
Q 14.796875 37.203125 14.796875 27.296875 
z
" id="DejaVuSans-100"/>
      </defs>
      <use xlink:href="#DejaVuSans-72"/>
      <use x="75.195312" xlink:href="#DejaVuSans-101"/>
      <use x="136.71875" xlink:href="#DejaVuSans-97"/>
      <use x="197.998047" xlink:href="#DejaVuSans-100"/>
     </g>
    </g>
   </g>
   <g id="text_2">
    <g clip-path="url(#p1fff7b6b55)">
     <!-- c7 -->
     <g transform="translate(296.015826 127.778133)scale(0.1 -0.1)">
      <defs>
       <path d="M 48.78125 52.59375 
L 48.78125 44.1875 
Q 44.96875 46.296875 41.140625 47.34375 
Q 37.3125 48.390625 33.40625 48.390625 
Q 24.65625 48.390625 19.8125 42.84375 
Q 14.984375 37.3125 14.984375 27.296875 
Q 14.984375 17.28125 19.8125 11.734375 
Q 24.65625 6.203125 33.40625 6.203125 
Q 37.3125 6.203125 41.140625 7.25 
Q 44.96875 8.296875 48.78125 10.40625 
L 48.78125 2.09375 
Q 45.015625 0.34375 40.984375 -0.53125 
Q 36.96875 -1.421875 32.421875 -1.421875 
Q 20.0625 -1.421875 12.78125 6.34375 
Q 5.515625 14.109375 5.515625 27.296875 
Q 5.515625 40.671875 12.859375 48.328125 
Q 20.21875 56 33.015625 56 
Q 37.15625 56 41.109375 55.140625 
Q 45.0625 54.296875 48.78125 52.59375 
z
" id="DejaVuSans-99"/>
       <path d="M 8.203125 72.90625 
L 55.078125 72.90625 
L 55.078125 68.703125 
L 28.609375 0 
L 18.3125 0 
L 43.21875 64.59375 
L 8.203125 64.59375 
z
" id="DejaVuSans-55"/>
      </defs>
      <use xlink:href="#DejaVuSans-99"/>
      <use x="54.980469" xlink:href="#DejaVuSans-55"/>
     </g>
    </g>
   </g>
   <g id="text_3">
    <g clip-path="url(#p1fff7b6b55)">
     <!-- SpineShoulder -->
     <g transform="translate(264.884517 164.038503)scale(0.1 -0.1)">
      <defs>
       <path d="M 53.515625 70.515625 
L 53.515625 60.890625 
Q 47.90625 63.578125 42.921875 64.890625 
Q 37.9375 66.21875 33.296875 66.21875 
Q 25.25 66.21875 20.875 63.09375 
Q 16.5 59.96875 16.5 54.203125 
Q 16.5 49.359375 19.40625 46.890625 
Q 22.3125 44.4375 30.421875 42.921875 
L 36.375 41.703125 
Q 47.40625 39.59375 52.65625 34.296875 
Q 57.90625 29 57.90625 20.125 
Q 57.90625 9.515625 50.796875 4.046875 
Q 43.703125 -1.421875 29.984375 -1.421875 
Q 24.8125 -1.421875 18.96875 -0.25 
Q 13.140625 0.921875 6.890625 3.21875 
L 6.890625 13.375 
Q 12.890625 10.015625 18.65625 8.296875 
Q 24.421875 6.59375 29.984375 6.59375 
Q 38.421875 6.59375 43.015625 9.90625 
Q 47.609375 13.234375 47.609375 19.390625 
Q 47.609375 24.75 44.3125 27.78125 
Q 41.015625 30.8125 33.5 32.328125 
L 27.484375 33.5 
Q 16.453125 35.6875 11.515625 40.375 
Q 6.59375 45.0625 6.59375 53.421875 
Q 6.59375 63.09375 13.40625 68.65625 
Q 20.21875 74.21875 32.171875 74.21875 
Q 37.3125 74.21875 42.625 73.28125 
Q 47.953125 72.359375 53.515625 70.515625 
z
" id="DejaVuSans-83"/>
       <path d="M 18.109375 8.203125 
L 18.109375 -20.796875 
L 9.078125 -20.796875 
L 9.078125 54.6875 
L 18.109375 54.6875 
L 18.109375 46.390625 
Q 20.953125 51.265625 25.265625 53.625 
Q 29.59375 56 35.59375 56 
Q 45.5625 56 51.78125 48.09375 
Q 58.015625 40.1875 58.015625 27.296875 
Q 58.015625 14.40625 51.78125 6.484375 
Q 45.5625 -1.421875 35.59375 -1.421875 
Q 29.59375 -1.421875 25.265625 0.953125 
Q 20.953125 3.328125 18.109375 8.203125 
z
M 48.6875 27.296875 
Q 48.6875 37.203125 44.609375 42.84375 
Q 40.53125 48.484375 33.40625 48.484375 
Q 26.265625 48.484375 22.1875 42.84375 
Q 18.109375 37.203125 18.109375 27.296875 
Q 18.109375 17.390625 22.1875 11.75 
Q 26.265625 6.109375 33.40625 6.109375 
Q 40.53125 6.109375 44.609375 11.75 
Q 48.6875 17.390625 48.6875 27.296875 
z
" id="DejaVuSans-112"/>
       <path d="M 9.421875 54.6875 
L 18.40625 54.6875 
L 18.40625 0 
L 9.421875 0 
z
M 9.421875 75.984375 
L 18.40625 75.984375 
L 18.40625 64.59375 
L 9.421875 64.59375 
z
" id="DejaVuSans-105"/>
       <path d="M 54.890625 33.015625 
L 54.890625 0 
L 45.90625 0 
L 45.90625 32.71875 
Q 45.90625 40.484375 42.875 44.328125 
Q 39.84375 48.1875 33.796875 48.1875 
Q 26.515625 48.1875 22.3125 43.546875 
Q 18.109375 38.921875 18.109375 30.90625 
L 18.109375 0 
L 9.078125 0 
L 9.078125 54.6875 
L 18.109375 54.6875 
L 18.109375 46.1875 
Q 21.34375 51.125 25.703125 53.5625 
Q 30.078125 56 35.796875 56 
Q 45.21875 56 50.046875 50.171875 
Q 54.890625 44.34375 54.890625 33.015625 
z
" id="DejaVuSans-110"/>
       <path d="M 54.890625 33.015625 
L 54.890625 0 
L 45.90625 0 
L 45.90625 32.71875 
Q 45.90625 40.484375 42.875 44.328125 
Q 39.84375 48.1875 33.796875 48.1875 
Q 26.515625 48.1875 22.3125 43.546875 
Q 18.109375 38.921875 18.109375 30.90625 
L 18.109375 0 
L 9.078125 0 
L 9.078125 75.984375 
L 18.109375 75.984375 
L 18.109375 46.1875 
Q 21.34375 51.125 25.703125 53.5625 
Q 30.078125 56 35.796875 56 
Q 45.21875 56 50.046875 50.171875 
Q 54.890625 44.34375 54.890625 33.015625 
z
" id="DejaVuSans-104"/>
       <path d="M 30.609375 48.390625 
Q 23.390625 48.390625 19.1875 42.75 
Q 14.984375 37.109375 14.984375 27.296875 
Q 14.984375 17.484375 19.15625 11.84375 
Q 23.34375 6.203125 30.609375 6.203125 
Q 37.796875 6.203125 41.984375 11.859375 
Q 46.1875 17.53125 46.1875 27.296875 
Q 46.1875 37.015625 41.984375 42.703125 
Q 37.796875 48.390625 30.609375 48.390625 
z
M 30.609375 56 
Q 42.328125 56 49.015625 48.375 
Q 55.71875 40.765625 55.71875 27.296875 
Q 55.71875 13.875 49.015625 6.21875 
Q 42.328125 -1.421875 30.609375 -1.421875 
Q 18.84375 -1.421875 12.171875 6.21875 
Q 5.515625 13.875 5.515625 27.296875 
Q 5.515625 40.765625 12.171875 48.375 
Q 18.84375 56 30.609375 56 
z
" id="DejaVuSans-111"/>
       <path d="M 8.5 21.578125 
L 8.5 54.6875 
L 17.484375 54.6875 
L 17.484375 21.921875 
Q 17.484375 14.15625 20.5 10.265625 
Q 23.53125 6.390625 29.59375 6.390625 
Q 36.859375 6.390625 41.078125 11.03125 
Q 45.3125 15.671875 45.3125 23.6875 
L 45.3125 54.6875 
L 54.296875 54.6875 
L 54.296875 0 
L 45.3125 0 
L 45.3125 8.40625 
Q 42.046875 3.421875 37.71875 1 
Q 33.40625 -1.421875 27.6875 -1.421875 
Q 18.265625 -1.421875 13.375 4.4375 
Q 8.5 10.296875 8.5 21.578125 
z
M 31.109375 56 
z
" id="DejaVuSans-117"/>
       <path d="M 9.421875 75.984375 
L 18.40625 75.984375 
L 18.40625 0 
L 9.421875 0 
z
" id="DejaVuSans-108"/>
       <path d="M 41.109375 46.296875 
Q 39.59375 47.171875 37.8125 47.578125 
Q 36.03125 48 33.890625 48 
Q 26.265625 48 22.1875 43.046875 
Q 18.109375 38.09375 18.109375 28.8125 
L 18.109375 0 
L 9.078125 0 
L 9.078125 54.6875 
L 18.109375 54.6875 
L 18.109375 46.1875 
Q 20.953125 51.171875 25.484375 53.578125 
Q 30.03125 56 36.53125 56 
Q 37.453125 56 38.578125 55.875 
Q 39.703125 55.765625 41.0625 55.515625 
z
" id="DejaVuSans-114"/>
      </defs>
      <use xlink:href="#DejaVuSans-83"/>
      <use x="63.476562" xlink:href="#DejaVuSans-112"/>
      <use x="126.953125" xlink:href="#DejaVuSans-105"/>
      <use x="154.736328" xlink:href="#DejaVuSans-110"/>
      <use x="218.115234" xlink:href="#DejaVuSans-101"/>
      <use x="279.638672" xlink:href="#DejaVuSans-83"/>
      <use x="343.115234" xlink:href="#DejaVuSans-104"/>
      <use x="406.494141" xlink:href="#DejaVuSans-111"/>
      <use x="467.675781" xlink:href="#DejaVuSans-117"/>
      <use x="531.054688" xlink:href="#DejaVuSans-108"/>
      <use x="558.837891" xlink:href="#DejaVuSans-100"/>
      <use x="622.314453" xlink:href="#DejaVuSans-101"/>
      <use x="683.837891" xlink:href="#DejaVuSans-114"/>
     </g>
    </g>
   </g>
   <g id="text_4">
    <g clip-path="url(#p1fff7b6b55)">
     <!-- Spine -->
     <g transform="translate(279.602213 274.834078)scale(0.1 -0.1)">
      <use xlink:href="#DejaVuSans-83"/>
      <use x="63.476562" xlink:href="#DejaVuSans-112"/>
      <use x="126.953125" xlink:href="#DejaVuSans-105"/>
      <use x="154.736328" xlink:href="#DejaVuSans-110"/>
      <use x="218.115234" xlink:href="#DejaVuSans-101"/>
     </g>
    </g>
   </g>
   <g id="text_5">
    <g clip-path="url(#p1fff7b6b55)">
     <!-- Sacr -->
     <g transform="translate(267.023407 424.863757)scale(0.1 -0.1)">
      <use xlink:href="#DejaVuSans-83"/>
      <use x="63.476562" xlink:href="#DejaVuSans-97"/>
      <use x="124.755859" xlink:href="#DejaVuSans-99"/>
      <use x="179.736328" xlink:href="#DejaVuSans-114"/>
     </g>
    </g>
   </g>
   <g id="text_6">
    <g clip-path="url(#p1fff7b6b55)">
     <!-- LShoulder -->
     <g transform="translate(157.261317 165.750041)scale(0.1 -0.1)">
      <defs>
       <path d="M 9.8125 72.90625 
L 19.671875 72.90625 
L 19.671875 8.296875 
L 55.171875 8.296875 
L 55.171875 0 
L 9.8125 0 
z
" id="DejaVuSans-76"/>
      </defs>
      <use xlink:href="#DejaVuSans-76"/>
      <use x="55.712891" xlink:href="#DejaVuSans-83"/>
      <use x="119.189453" xlink:href="#DejaVuSans-104"/>
      <use x="182.568359" xlink:href="#DejaVuSans-111"/>
      <use x="243.75" xlink:href="#DejaVuSans-117"/>
      <use x="307.128906" xlink:href="#DejaVuSans-108"/>
      <use x="334.912109" xlink:href="#DejaVuSans-100"/>
      <use x="398.388672" xlink:href="#DejaVuSans-101"/>
      <use x="459.912109" xlink:href="#DejaVuSans-114"/>
     </g>
    </g>
   </g>
   <g id="text_7">
    <g clip-path="url(#p1fff7b6b55)">
     <!-- LElbow -->
     <g transform="translate(67.994623 279.236618)scale(0.1 -0.1)">
      <defs>
       <path d="M 9.8125 72.90625 
L 55.90625 72.90625 
L 55.90625 64.59375 
L 19.671875 64.59375 
L 19.671875 43.015625 
L 54.390625 43.015625 
L 54.390625 34.71875 
L 19.671875 34.71875 
L 19.671875 8.296875 
L 56.78125 8.296875 
L 56.78125 0 
L 9.8125 0 
z
" id="DejaVuSans-69"/>
       <path d="M 48.6875 27.296875 
Q 48.6875 37.203125 44.609375 42.84375 
Q 40.53125 48.484375 33.40625 48.484375 
Q 26.265625 48.484375 22.1875 42.84375 
Q 18.109375 37.203125 18.109375 27.296875 
Q 18.109375 17.390625 22.1875 11.75 
Q 26.265625 6.109375 33.40625 6.109375 
Q 40.53125 6.109375 44.609375 11.75 
Q 48.6875 17.390625 48.6875 27.296875 
z
M 18.109375 46.390625 
Q 20.953125 51.265625 25.265625 53.625 
Q 29.59375 56 35.59375 56 
Q 45.5625 56 51.78125 48.09375 
Q 58.015625 40.1875 58.015625 27.296875 
Q 58.015625 14.40625 51.78125 6.484375 
Q 45.5625 -1.421875 35.59375 -1.421875 
Q 29.59375 -1.421875 25.265625 0.953125 
Q 20.953125 3.328125 18.109375 8.203125 
L 18.109375 0 
L 9.078125 0 
L 9.078125 75.984375 
L 18.109375 75.984375 
z
" id="DejaVuSans-98"/>
       <path d="M 4.203125 54.6875 
L 13.1875 54.6875 
L 24.421875 12.015625 
L 35.59375 54.6875 
L 46.1875 54.6875 
L 57.421875 12.015625 
L 68.609375 54.6875 
L 77.59375 54.6875 
L 63.28125 0 
L 52.6875 0 
L 40.921875 44.828125 
L 29.109375 0 
L 18.5 0 
z
" id="DejaVuSans-119"/>
      </defs>
      <use xlink:href="#DejaVuSans-76"/>
      <use x="55.712891" xlink:href="#DejaVuSans-69"/>
      <use x="118.896484" xlink:href="#DejaVuSans-108"/>
      <use x="146.679688" xlink:href="#DejaVuSans-98"/>
      <use x="210.15625" xlink:href="#DejaVuSans-111"/>
      <use x="271.337891" xlink:href="#DejaVuSans-119"/>
     </g>
    </g>
   </g>
   <g id="text_8">
    <g clip-path="url(#p1fff7b6b55)">
     <!-- LWrist -->
     <g transform="translate(39.129157 404.455056)scale(0.1 -0.1)">
      <defs>
       <path d="M 3.328125 72.90625 
L 13.28125 72.90625 
L 28.609375 11.28125 
L 43.890625 72.90625 
L 54.984375 72.90625 
L 70.3125 11.28125 
L 85.59375 72.90625 
L 95.609375 72.90625 
L 77.296875 0 
L 64.890625 0 
L 49.515625 63.28125 
L 33.984375 0 
L 21.578125 0 
z
" id="DejaVuSans-87"/>
       <path d="M 44.28125 53.078125 
L 44.28125 44.578125 
Q 40.484375 46.53125 36.375 47.5 
Q 32.28125 48.484375 27.875 48.484375 
Q 21.1875 48.484375 17.84375 46.4375 
Q 14.5 44.390625 14.5 40.28125 
Q 14.5 37.15625 16.890625 35.375 
Q 19.28125 33.59375 26.515625 31.984375 
L 29.59375 31.296875 
Q 39.15625 29.25 43.1875 25.515625 
Q 47.21875 21.78125 47.21875 15.09375 
Q 47.21875 7.46875 41.1875 3.015625 
Q 35.15625 -1.421875 24.609375 -1.421875 
Q 20.21875 -1.421875 15.453125 -0.5625 
Q 10.6875 0.296875 5.421875 2 
L 5.421875 11.28125 
Q 10.40625 8.6875 15.234375 7.390625 
Q 20.0625 6.109375 24.8125 6.109375 
Q 31.15625 6.109375 34.5625 8.28125 
Q 37.984375 10.453125 37.984375 14.40625 
Q 37.984375 18.0625 35.515625 20.015625 
Q 33.0625 21.96875 24.703125 23.78125 
L 21.578125 24.515625 
Q 13.234375 26.265625 9.515625 29.90625 
Q 5.8125 33.546875 5.8125 39.890625 
Q 5.8125 47.609375 11.28125 51.796875 
Q 16.75 56 26.8125 56 
Q 31.78125 56 36.171875 55.265625 
Q 40.578125 54.546875 44.28125 53.078125 
z
" id="DejaVuSans-115"/>
       <path d="M 18.3125 70.21875 
L 18.3125 54.6875 
L 36.8125 54.6875 
L 36.8125 47.703125 
L 18.3125 47.703125 
L 18.3125 18.015625 
Q 18.3125 11.328125 20.140625 9.421875 
Q 21.96875 7.515625 27.59375 7.515625 
L 36.8125 7.515625 
L 36.8125 0 
L 27.59375 0 
Q 17.1875 0 13.234375 3.875 
Q 9.28125 7.765625 9.28125 18.015625 
L 9.28125 47.703125 
L 2.6875 47.703125 
L 2.6875 54.6875 
L 9.28125 54.6875 
L 9.28125 70.21875 
z
" id="DejaVuSans-116"/>
      </defs>
      <use xlink:href="#DejaVuSans-76"/>
      <use x="46.587891" xlink:href="#DejaVuSans-87"/>
      <use x="140.964844" xlink:href="#DejaVuSans-114"/>
      <use x="182.078125" xlink:href="#DejaVuSans-105"/>
      <use x="209.861328" xlink:href="#DejaVuSans-115"/>
      <use x="261.960938" xlink:href="#DejaVuSans-116"/>
     </g>
    </g>
   </g>
   <g id="text_9">
    <g clip-path="url(#p1fff7b6b55)">
     <!-- LHand -->
     <g transform="translate(43.861961 439.569352)scale(0.1 -0.1)">
      <use xlink:href="#DejaVuSans-76"/>
      <use x="55.712891" xlink:href="#DejaVuSans-72"/>
      <use x="130.908203" xlink:href="#DejaVuSans-97"/>
      <use x="192.1875" xlink:href="#DejaVuSans-110"/>
      <use x="255.566406" xlink:href="#DejaVuSans-100"/>
     </g>
    </g>
   </g>
   <g id="text_10">
    <g clip-path="url(#p1fff7b6b55)">
     <!-- RShoulder -->
     <g transform="translate(418.219736 191.892647)scale(0.1 -0.1)">
      <defs>
       <path d="M 44.390625 34.1875 
Q 47.5625 33.109375 50.5625 29.59375 
Q 53.5625 26.078125 56.59375 19.921875 
L 66.609375 0 
L 56 0 
L 46.6875 18.703125 
Q 43.0625 26.03125 39.671875 28.421875 
Q 36.28125 30.8125 30.421875 30.8125 
L 19.671875 30.8125 
L 19.671875 0 
L 9.8125 0 
L 9.8125 72.90625 
L 32.078125 72.90625 
Q 44.578125 72.90625 50.734375 67.671875 
Q 56.890625 62.453125 56.890625 51.90625 
Q 56.890625 45.015625 53.6875 40.46875 
Q 50.484375 35.9375 44.390625 34.1875 
z
M 19.671875 64.796875 
L 19.671875 38.921875 
L 32.078125 38.921875 
Q 39.203125 38.921875 42.84375 42.21875 
Q 46.484375 45.515625 46.484375 51.90625 
Q 46.484375 58.296875 42.84375 61.546875 
Q 39.203125 64.796875 32.078125 64.796875 
z
" id="DejaVuSans-82"/>
      </defs>
      <use xlink:href="#DejaVuSans-82"/>
      <use x="69.482422" xlink:href="#DejaVuSans-83"/>
      <use x="132.958984" xlink:href="#DejaVuSans-104"/>
      <use x="196.337891" xlink:href="#DejaVuSans-111"/>
      <use x="257.519531" xlink:href="#DejaVuSans-117"/>
      <use x="320.898438" xlink:href="#DejaVuSans-108"/>
      <use x="348.681641" xlink:href="#DejaVuSans-100"/>
      <use x="412.158203" xlink:href="#DejaVuSans-101"/>
      <use x="473.681641" xlink:href="#DejaVuSans-114"/>
     </g>
    </g>
   </g>
   <g id="text_11">
    <g clip-path="url(#p1fff7b6b55)">
     <!-- RElbow -->
     <g transform="translate(460.905093 303.965565)scale(0.1 -0.1)">
      <use xlink:href="#DejaVuSans-82"/>
      <use x="69.482422" xlink:href="#DejaVuSans-69"/>
      <use x="132.666016" xlink:href="#DejaVuSans-108"/>
      <use x="160.449219" xlink:href="#DejaVuSans-98"/>
      <use x="223.925781" xlink:href="#DejaVuSans-111"/>
      <use x="285.107422" xlink:href="#DejaVuSans-119"/>
     </g>
    </g>
   </g>
   <g id="text_12">
    <g clip-path="url(#p1fff7b6b55)">
     <!-- RWrist -->
     <g transform="translate(494.404958 405.446132)scale(0.1 -0.1)">
      <use xlink:href="#DejaVuSans-82"/>
      <use x="65.482422" xlink:href="#DejaVuSans-87"/>
      <use x="159.859375" xlink:href="#DejaVuSans-114"/>
      <use x="200.972656" xlink:href="#DejaVuSans-105"/>
      <use x="228.755859" xlink:href="#DejaVuSans-115"/>
      <use x="280.855469" xlink:href="#DejaVuSans-116"/>
     </g>
    </g>
   </g>
   <g id="text_13">
    <g clip-path="url(#p1fff7b6b55)">
     <!-- RHand -->
     <g transform="translate(496.808596 413.436844)scale(0.1 -0.1)">
      <use xlink:href="#DejaVuSans-82"/>
      <use x="69.482422" xlink:href="#DejaVuSans-72"/>
      <use x="144.677734" xlink:href="#DejaVuSans-97"/>
      <use x="205.957031" xlink:href="#DejaVuSans-110"/>
      <use x="269.335938" xlink:href="#DejaVuSans-100"/>
     </g>
    </g>
   </g>
   <g id="text_14">
    <g clip-path="url(#p1fff7b6b55)">
     <!-- LHip -->
     <g transform="translate(193.756322 413.854883)scale(0.1 -0.1)">
      <use xlink:href="#DejaVuSans-76"/>
      <use x="55.712891" xlink:href="#DejaVuSans-72"/>
      <use x="130.908203" xlink:href="#DejaVuSans-105"/>
      <use x="158.691406" xlink:href="#DejaVuSans-112"/>
     </g>
    </g>
   </g>
   <g id="text_15">
    <g clip-path="url(#p1fff7b6b55)">
     <!-- LKnee -->
     <g transform="translate(119.537329 583.39559)scale(0.1 -0.1)">
      <defs>
       <path d="M 9.8125 72.90625 
L 19.671875 72.90625 
L 19.671875 42.09375 
L 52.390625 72.90625 
L 65.09375 72.90625 
L 28.90625 38.921875 
L 67.671875 0 
L 54.6875 0 
L 19.671875 35.109375 
L 19.671875 0 
L 9.8125 0 
z
" id="DejaVuSans-75"/>
      </defs>
      <use xlink:href="#DejaVuSans-76"/>
      <use x="55.712891" xlink:href="#DejaVuSans-75"/>
      <use x="121.289062" xlink:href="#DejaVuSans-110"/>
      <use x="184.667969" xlink:href="#DejaVuSans-101"/>
      <use x="246.191406" xlink:href="#DejaVuSans-101"/>
     </g>
    </g>
   </g>
   <g id="text_16">
    <g clip-path="url(#p1fff7b6b55)">
     <!-- LAnkle -->
     <g transform="translate(101.472669 746.542011)scale(0.1 -0.1)">
      <defs>
       <path d="M 34.1875 63.1875 
L 20.796875 26.90625 
L 47.609375 26.90625 
z
M 28.609375 72.90625 
L 39.796875 72.90625 
L 67.578125 0 
L 57.328125 0 
L 50.6875 18.703125 
L 17.828125 18.703125 
L 11.1875 0 
L 0.78125 0 
z
" id="DejaVuSans-65"/>
       <path d="M 9.078125 75.984375 
L 18.109375 75.984375 
L 18.109375 31.109375 
L 44.921875 54.6875 
L 56.390625 54.6875 
L 27.390625 29.109375 
L 57.625 0 
L 45.90625 0 
L 18.109375 26.703125 
L 18.109375 0 
L 9.078125 0 
z
" id="DejaVuSans-107"/>
      </defs>
      <use xlink:href="#DejaVuSans-76"/>
      <use x="57.962891" xlink:href="#DejaVuSans-65"/>
      <use x="126.371094" xlink:href="#DejaVuSans-110"/>
      <use x="189.75" xlink:href="#DejaVuSans-107"/>
      <use x="247.660156" xlink:href="#DejaVuSans-108"/>
      <use x="275.443359" xlink:href="#DejaVuSans-101"/>
     </g>
    </g>
   </g>
   <g id="text_17">
    <g clip-path="url(#p1fff7b6b55)">
     <!-- LFoot -->
     <g transform="translate(137.800529 778.273621)scale(0.1 -0.1)">
      <defs>
       <path d="M 9.8125 72.90625 
L 51.703125 72.90625 
L 51.703125 64.59375 
L 19.671875 64.59375 
L 19.671875 43.109375 
L 48.578125 43.109375 
L 48.578125 34.8125 
L 19.671875 34.8125 
L 19.671875 0 
L 9.8125 0 
z
" id="DejaVuSans-70"/>
      </defs>
      <use xlink:href="#DejaVuSans-76"/>
      <use x="55.712891" xlink:href="#DejaVuSans-70"/>
      <use x="109.607422" xlink:href="#DejaVuSans-111"/>
      <use x="170.789062" xlink:href="#DejaVuSans-111"/>
      <use x="231.970703" xlink:href="#DejaVuSans-116"/>
     </g>
    </g>
   </g>
   <g id="text_18">
    <g clip-path="url(#p1fff7b6b55)">
     <!-- RHip -->
     <g transform="translate(316.228799 426.78482)scale(0.1 -0.1)">
      <use xlink:href="#DejaVuSans-82"/>
      <use x="69.482422" xlink:href="#DejaVuSans-72"/>
      <use x="144.677734" xlink:href="#DejaVuSans-105"/>
      <use x="172.460938" xlink:href="#DejaVuSans-112"/>
     </g>
    </g>
   </g>
   <g id="text_19">
    <g clip-path="url(#p1fff7b6b55)">
     <!-- RKnee -->
     <g transform="translate(310.599828 556.945008)scale(0.1 -0.1)">
      <use xlink:href="#DejaVuSans-82"/>
      <use x="69.482422" xlink:href="#DejaVuSans-75"/>
      <use x="135.058594" xlink:href="#DejaVuSans-110"/>
      <use x="198.4375" xlink:href="#DejaVuSans-101"/>
      <use x="259.960938" xlink:href="#DejaVuSans-101"/>
     </g>
    </g>
   </g>
   <g id="text_20">
    <g clip-path="url(#p1fff7b6b55)">
     <!-- RAnkle -->
     <g transform="translate(232.19329 756.498214)scale(0.1 -0.1)">
      <use xlink:href="#DejaVuSans-82"/>
      <use x="65.482422" xlink:href="#DejaVuSans-65"/>
      <use x="133.890625" xlink:href="#DejaVuSans-110"/>
      <use x="197.269531" xlink:href="#DejaVuSans-107"/>
      <use x="255.179688" xlink:href="#DejaVuSans-108"/>
      <use x="282.962891" xlink:href="#DejaVuSans-101"/>
     </g>
    </g>
   </g>
   <g id="text_21">
    <g clip-path="url(#p1fff7b6b55)">
     <!-- RFoot -->
     <g transform="translate(224.050806 791.784168)scale(0.1 -0.1)">
      <use xlink:href="#DejaVuSans-82"/>
      <use x="69.482422" xlink:href="#DejaVuSans-70"/>
      <use x="123.376953" xlink:href="#DejaVuSans-111"/>
      <use x="184.558594" xlink:href="#DejaVuSans-111"/>
      <use x="245.740234" xlink:href="#DejaVuSans-116"/>
     </g>
    </g>
   </g>
   <g id="text_22">
    <g clip-path="url(#p1fff7b6b55)">
     <!-- LHandTip -->
     <g transform="translate(26.569409 481.480826)scale(0.1 -0.1)">
      <defs>
       <path d="M -0.296875 72.90625 
L 61.375 72.90625 
L 61.375 64.59375 
L 35.5 64.59375 
L 35.5 0 
L 25.59375 0 
L 25.59375 64.59375 
L -0.296875 64.59375 
z
" id="DejaVuSans-84"/>
      </defs>
      <use xlink:href="#DejaVuSans-76"/>
      <use x="55.712891" xlink:href="#DejaVuSans-72"/>
      <use x="130.908203" xlink:href="#DejaVuSans-97"/>
      <use x="192.1875" xlink:href="#DejaVuSans-110"/>
      <use x="255.566406" xlink:href="#DejaVuSans-100"/>
      <use x="319.042969" xlink:href="#DejaVuSans-84"/>
      <use x="377.001953" xlink:href="#DejaVuSans-105"/>
      <use x="404.785156" xlink:href="#DejaVuSans-112"/>
     </g>
    </g>
   </g>
   <g id="text_23">
    <g clip-path="url(#p1fff7b6b55)">
     <!-- LThumb -->
     <g transform="translate(73.829556 434.626592)scale(0.1 -0.1)">
      <defs>
       <path d="M 52 44.1875 
Q 55.375 50.25 60.0625 53.125 
Q 64.75 56 71.09375 56 
Q 79.640625 56 84.28125 50.015625 
Q 88.921875 44.046875 88.921875 33.015625 
L 88.921875 0 
L 79.890625 0 
L 79.890625 32.71875 
Q 79.890625 40.578125 77.09375 44.375 
Q 74.3125 48.1875 68.609375 48.1875 
Q 61.625 48.1875 57.5625 43.546875 
Q 53.515625 38.921875 53.515625 30.90625 
L 53.515625 0 
L 44.484375 0 
L 44.484375 32.71875 
Q 44.484375 40.625 41.703125 44.40625 
Q 38.921875 48.1875 33.109375 48.1875 
Q 26.21875 48.1875 22.15625 43.53125 
Q 18.109375 38.875 18.109375 30.90625 
L 18.109375 0 
L 9.078125 0 
L 9.078125 54.6875 
L 18.109375 54.6875 
L 18.109375 46.1875 
Q 21.1875 51.21875 25.484375 53.609375 
Q 29.78125 56 35.6875 56 
Q 41.65625 56 45.828125 52.96875 
Q 50 49.953125 52 44.1875 
z
" id="DejaVuSans-109"/>
      </defs>
      <use xlink:href="#DejaVuSans-76"/>
      <use x="41.962891" xlink:href="#DejaVuSans-84"/>
      <use x="103.046875" xlink:href="#DejaVuSans-104"/>
      <use x="166.425781" xlink:href="#DejaVuSans-117"/>
      <use x="229.804688" xlink:href="#DejaVuSans-109"/>
      <use x="327.216797" xlink:href="#DejaVuSans-98"/>
     </g>
    </g>
   </g>
   <g id="text_24">
    <g clip-path="url(#p1fff7b6b55)">
     <!-- RHandTip -->
     <g transform="translate(501.914185 456.308597)scale(0.1 -0.1)">
      <use xlink:href="#DejaVuSans-82"/>
      <use x="69.482422" xlink:href="#DejaVuSans-72"/>
      <use x="144.677734" xlink:href="#DejaVuSans-97"/>
      <use x="205.957031" xlink:href="#DejaVuSans-110"/>
      <use x="269.335938" xlink:href="#DejaVuSans-100"/>
      <use x="332.8125" xlink:href="#DejaVuSans-84"/>
      <use x="390.771484" xlink:href="#DejaVuSans-105"/>
      <use x="418.554688" xlink:href="#DejaVuSans-112"/>
     </g>
    </g>
   </g>
   <g id="text_25">
    <g clip-path="url(#p1fff7b6b55)">
     <!-- RThumb -->
     <g transform="translate(461.569571 415.607316)scale(0.1 -0.1)">
      <use xlink:href="#DejaVuSans-82"/>
      <use x="62.232422" xlink:href="#DejaVuSans-84"/>
      <use x="123.316406" xlink:href="#DejaVuSans-104"/>
      <use x="186.695312" xlink:href="#DejaVuSans-117"/>
      <use x="250.074219" xlink:href="#DejaVuSans-109"/>
      <use x="347.486328" xlink:href="#DejaVuSans-98"/>
     </g>
    </g>
   </g>
   <g id="text_26">
    <!-- Node Graph Visualization - Frame 147 -->
    <g transform="translate(174.194063 -6)scale(0.12 -0.12)">
     <defs>
      <path d="M 9.8125 72.90625 
L 23.09375 72.90625 
L 55.421875 11.921875 
L 55.421875 72.90625 
L 64.984375 72.90625 
L 64.984375 0 
L 51.703125 0 
L 19.390625 60.984375 
L 19.390625 0 
L 9.8125 0 
z
" id="DejaVuSans-78"/>
      <path id="DejaVuSans-32"/>
      <path d="M 59.515625 10.40625 
L 59.515625 29.984375 
L 43.40625 29.984375 
L 43.40625 38.09375 
L 69.28125 38.09375 
L 69.28125 6.78125 
Q 63.578125 2.734375 56.6875 0.65625 
Q 49.8125 -1.421875 42 -1.421875 
Q 24.90625 -1.421875 15.25 8.5625 
Q 5.609375 18.5625 5.609375 36.375 
Q 5.609375 54.25 15.25 64.234375 
Q 24.90625 74.21875 42 74.21875 
Q 49.125 74.21875 55.546875 72.453125 
Q 61.96875 70.703125 67.390625 67.28125 
L 67.390625 56.78125 
Q 61.921875 61.421875 55.765625 63.765625 
Q 49.609375 66.109375 42.828125 66.109375 
Q 29.4375 66.109375 22.71875 58.640625 
Q 16.015625 51.171875 16.015625 36.375 
Q 16.015625 21.625 22.71875 14.15625 
Q 29.4375 6.6875 42.828125 6.6875 
Q 48.046875 6.6875 52.140625 7.59375 
Q 56.25 8.5 59.515625 10.40625 
z
" id="DejaVuSans-71"/>
      <path d="M 28.609375 0 
L 0.78125 72.90625 
L 11.078125 72.90625 
L 34.1875 11.53125 
L 57.328125 72.90625 
L 67.578125 72.90625 
L 39.796875 0 
z
" id="DejaVuSans-86"/>
      <path d="M 5.515625 54.6875 
L 48.1875 54.6875 
L 48.1875 46.484375 
L 14.40625 7.171875 
L 48.1875 7.171875 
L 48.1875 0 
L 4.296875 0 
L 4.296875 8.203125 
L 38.09375 47.515625 
L 5.515625 47.515625 
z
" id="DejaVuSans-122"/>
      <path d="M 4.890625 31.390625 
L 31.203125 31.390625 
L 31.203125 23.390625 
L 4.890625 23.390625 
z
" id="DejaVuSans-45"/>
      <path d="M 12.40625 8.296875 
L 28.515625 8.296875 
L 28.515625 63.921875 
L 10.984375 60.40625 
L 10.984375 69.390625 
L 28.421875 72.90625 
L 38.28125 72.90625 
L 38.28125 8.296875 
L 54.390625 8.296875 
L 54.390625 0 
L 12.40625 0 
z
" id="DejaVuSans-49"/>
      <path d="M 37.796875 64.3125 
L 12.890625 25.390625 
L 37.796875 25.390625 
z
M 35.203125 72.90625 
L 47.609375 72.90625 
L 47.609375 25.390625 
L 58.015625 25.390625 
L 58.015625 17.1875 
L 47.609375 17.1875 
L 47.609375 0 
L 37.796875 0 
L 37.796875 17.1875 
L 4.890625 17.1875 
L 4.890625 26.703125 
z
" id="DejaVuSans-52"/>
     </defs>
     <use xlink:href="#DejaVuSans-78"/>
     <use x="74.804688" xlink:href="#DejaVuSans-111"/>
     <use x="135.986328" xlink:href="#DejaVuSans-100"/>
     <use x="199.462891" xlink:href="#DejaVuSans-101"/>
     <use x="260.986328" xlink:href="#DejaVuSans-32"/>
     <use x="292.773438" xlink:href="#DejaVuSans-71"/>
     <use x="370.263672" xlink:href="#DejaVuSans-114"/>
     <use x="411.376953" xlink:href="#DejaVuSans-97"/>
     <use x="472.65625" xlink:href="#DejaVuSans-112"/>
     <use x="536.132812" xlink:href="#DejaVuSans-104"/>
     <use x="599.511719" xlink:href="#DejaVuSans-32"/>
     <use x="631.298828" xlink:href="#DejaVuSans-86"/>
     <use x="697.457031" xlink:href="#DejaVuSans-105"/>
     <use x="725.240234" xlink:href="#DejaVuSans-115"/>
     <use x="777.339844" xlink:href="#DejaVuSans-117"/>
     <use x="840.71875" xlink:href="#DejaVuSans-97"/>
     <use x="901.998047" xlink:href="#DejaVuSans-108"/>
     <use x="929.78125" xlink:href="#DejaVuSans-105"/>
     <use x="957.564453" xlink:href="#DejaVuSans-122"/>
     <use x="1010.054688" xlink:href="#DejaVuSans-97"/>
     <use x="1071.333984" xlink:href="#DejaVuSans-116"/>
     <use x="1110.542969" xlink:href="#DejaVuSans-105"/>
     <use x="1138.326172" xlink:href="#DejaVuSans-111"/>
     <use x="1199.507812" xlink:href="#DejaVuSans-110"/>
     <use x="1262.886719" xlink:href="#DejaVuSans-32"/>
     <use x="1294.673828" xlink:href="#DejaVuSans-45"/>
     <use x="1330.757812" xlink:href="#DejaVuSans-32"/>
     <use x="1362.544922" xlink:href="#DejaVuSans-70"/>
     <use x="1412.814453" xlink:href="#DejaVuSans-114"/>
     <use x="1453.927734" xlink:href="#DejaVuSans-97"/>
     <use x="1515.207031" xlink:href="#DejaVuSans-109"/>
     <use x="1612.619141" xlink:href="#DejaVuSans-101"/>
     <use x="1674.142578" xlink:href="#DejaVuSans-32"/>
     <use x="1705.929688" xlink:href="#DejaVuSans-49"/>
     <use x="1769.552734" xlink:href="#DejaVuSans-52"/>
     <use x="1833.175781" xlink:href="#DejaVuSans-55"/>
    </g>
   </g>
  </g>
 </g>
 <defs>
  <clipPath id="p1fff7b6b55">
   <rect height="864" width="576" x="0" y="0"/>
  </clipPath>
 </defs>
</svg>
