<?xml version="1.0" encoding="utf-8" standalone="no"?>
<!DOCTYPE svg PUBLIC "-//W3C//DTD SVG 1.1//EN"
  "http://www.w3.org/Graphics/SVG/1.1/DTD/svg11.dtd">
<!-- Created with matplotlib (https://matplotlib.org/) -->
<svg height="864pt" version="1.1" viewBox="0 0 576 864" width="576pt" xmlns="http://www.w3.org/2000/svg" xmlns:xlink="http://www.w3.org/1999/xlink">
 <metadata>
  <rdf:RDF xmlns:cc="http://creativecommons.org/ns#" xmlns:dc="http://purl.org/dc/elements/1.1/" xmlns:rdf="http://www.w3.org/1999/02/22-rdf-syntax-ns#">
   <cc:Work>
    <dc:type rdf:resource="http://purl.org/dc/dcmitype/StillImage"/>
    <dc:date>2024-02-04T22:28:11.070510</dc:date>
    <dc:format>image/svg+xml</dc:format>
    <dc:creator>
     <cc:Agent>
      <dc:title>Matplotlib v3.3.2, https://matplotlib.org/</dc:title>
     </cc:Agent>
    </dc:creator>
   </cc:Work>
  </rdf:RDF>
 </metadata>
 <defs>
  <style type="text/css">*{stroke-linecap:butt;stroke-linejoin:round;}</style>
 </defs>
 <g id="figure_1">
  <g id="patch_1">
   <path d="M 0 864 
L 576 864 
L 576 0 
L 0 0 
z
" style="fill:#ffffff;"/>
  </g>
  <g id="axes_1">
   <g id="patch_2">
    <path clip-path="url(#p2ee567f8c8)" d="M 329.089571 86.347801 
Q 322.368166 97.650994 316.218198 107.993219 
" style="fill:none;stroke:#000000;stroke-linecap:round;"/>
    <path clip-path="url(#p2ee567f8c8)" d="M 319.981664 105.57737 
L 316.218198 107.993219 
L 316.543599 103.532937 
L 319.981664 105.57737 
z
" style="stroke:#000000;stroke-linecap:round;"/>
   </g>
   <g id="patch_3">
    <path clip-path="url(#p2ee567f8c8)" d="M 308.959068 133.547023 
Q 308.97226 135.972329 308.979371 137.279618 
" style="fill:none;stroke:#000000;stroke-linecap:round;"/>
    <path clip-path="url(#p2ee567f8c8)" d="M 310.957584 133.268799 
L 308.979371 137.279618 
L 306.957644 133.290556 
L 310.957584 133.268799 
z
" style="stroke:#000000;stroke-linecap:round;"/>
   </g>
   <g id="patch_4">
    <path clip-path="url(#p2ee567f8c8)" d="M 315.649806 108.949067 
Q 322.37121 97.645874 328.521178 87.30365 
" style="fill:none;stroke:#000000;stroke-linecap:round;"/>
    <path clip-path="url(#p2ee567f8c8)" d="M 324.757712 89.719498 
L 328.521178 87.30365 
L 328.195777 91.763932 
L 324.757712 89.719498 
z
" style="stroke:#000000;stroke-linecap:round;"/>
   </g>
   <g id="patch_5">
    <path clip-path="url(#p2ee567f8c8)" d="M 308.850502 164.852746 
Q 308.306259 199.647085 307.779501 233.323528 
" style="fill:none;stroke:#000000;stroke-linecap:round;"/>
    <path clip-path="url(#p2ee567f8c8)" d="M 309.841815 229.355296 
L 307.779501 233.323528 
L 305.842305 229.292737 
L 309.841815 229.355296 
z
" style="stroke:#000000;stroke-linecap:round;"/>
   </g>
   <g id="patch_6">
    <path clip-path="url(#p2ee567f8c8)" d="M 295.830505 151.850018 
Q 226.044087 153.035249 157.375542 154.201494 
" style="fill:none;stroke:#000000;stroke-linecap:round;"/>
    <path clip-path="url(#p2ee567f8c8)" d="M 161.408928 156.13328 
L 157.375542 154.201494 
L 161.341003 152.133857 
L 161.408928 156.13328 
z
" style="stroke:#000000;stroke-linecap:round;"/>
   </g>
   <g id="patch_7">
    <path clip-path="url(#p2ee567f8c8)" d="M 322.215947 152.983623 
Q 398.235035 160.830434 473.141999 168.56245 
" style="fill:none;stroke:#000000;stroke-linecap:round;"/>
    <path clip-path="url(#p2ee567f8c8)" d="M 469.368491 166.162317 
L 473.141999 168.56245 
L 468.957787 170.141176 
L 469.368491 166.162317 
z
" style="stroke:#000000;stroke-linecap:round;"/>
   </g>
   <g id="patch_8">
    <path clip-path="url(#p2ee567f8c8)" d="M 308.985465 138.400016 
Q 308.972273 135.974709 308.965162 134.66742 
" style="fill:none;stroke:#000000;stroke-linecap:round;"/>
    <path clip-path="url(#p2ee567f8c8)" d="M 306.986949 138.678239 
L 308.965162 134.66742 
L 310.98689 138.656482 
L 306.986949 138.678239 
z
" style="stroke:#000000;stroke-linecap:round;"/>
   </g>
   <g id="patch_9">
    <path clip-path="url(#p2ee567f8c8)" d="M 307.157067 260.889329 
Q 305.586452 313.058644 304.049482 364.110432 
" style="fill:none;stroke:#000000;stroke-linecap:round;"/>
    <path clip-path="url(#p2ee567f8c8)" d="M 306.168946 360.172429 
L 304.049482 364.110432 
L 302.170758 360.052059 
L 306.168946 360.172429 
z
" style="stroke:#000000;stroke-linecap:round;"/>
   </g>
   <g id="patch_10">
    <path clip-path="url(#p2ee567f8c8)" d="M 307.762048 234.439317 
Q 308.306292 199.644977 308.83305 165.968535 
" style="fill:none;stroke:#000000;stroke-linecap:round;"/>
    <path clip-path="url(#p2ee567f8c8)" d="M 306.770735 169.936766 
L 308.83305 165.968535 
L 310.770246 169.999325 
L 306.770735 169.936766 
z
" style="stroke:#000000;stroke-linecap:round;"/>
   </g>
   <g id="patch_11">
    <path clip-path="url(#p2ee567f8c8)" d="M 290.386785 378.335871 
Q 263.216628 378.104945 237.164464 377.883521 
" style="fill:none;stroke:#000000;stroke-linecap:round;"/>
    <path clip-path="url(#p2ee567f8c8)" d="M 241.147322 379.917445 
L 237.164464 377.883521 
L 241.181317 375.917589 
L 241.147322 379.917445 
z
" style="stroke:#000000;stroke-linecap:round;"/>
   </g>
   <g id="patch_12">
    <path clip-path="url(#p2ee567f8c8)" d="M 316.830881 379.10902 
Q 336.151635 380.075121 354.355751 380.985386 
" style="fill:none;stroke:#000000;stroke-linecap:round;"/>
    <path clip-path="url(#p2ee567f8c8)" d="M 350.460624 378.788119 
L 354.355751 380.985386 
L 350.26086 382.783127 
L 350.460624 378.788119 
z
" style="stroke:#000000;stroke-linecap:round;"/>
   </g>
   <g id="patch_13">
    <path clip-path="url(#p2ee567f8c8)" d="M 304.015906 365.225681 
Q 305.586521 313.056366 307.123491 262.004578 
" style="fill:none;stroke:#000000;stroke-linecap:round;"/>
    <path clip-path="url(#p2ee567f8c8)" d="M 305.004027 265.942581 
L 307.123491 262.004578 
L 309.002215 266.062951 
L 305.004027 265.942581 
z
" style="stroke:#000000;stroke-linecap:round;"/>
   </g>
   <g id="patch_14">
    <path clip-path="url(#p2ee567f8c8)" d="M 133.433624 163.552371 
Q 96.50525 198.604541 60.387778 232.88701 
" style="fill:none;stroke:#000000;stroke-linecap:round;"/>
    <path clip-path="url(#p2ee567f8c8)" d="M 64.665827 231.583825 
L 60.387778 232.88701 
L 61.91206 228.682659 
L 64.665827 231.583825 
z
" style="stroke:#000000;stroke-linecap:round;"/>
   </g>
   <g id="patch_15">
    <path clip-path="url(#p2ee567f8c8)" d="M 156.255201 154.220521 
Q 226.041619 153.035291 294.710163 151.869046 
" style="fill:none;stroke:#000000;stroke-linecap:round;"/>
    <path clip-path="url(#p2ee567f8c8)" d="M 290.676778 149.937259 
L 294.710163 151.869046 
L 290.744703 153.936682 
L 290.676778 149.937259 
z
" style="stroke:#000000;stroke-linecap:round;"/>
   </g>
   <g id="patch_16">
    <path clip-path="url(#p2ee567f8c8)" d="M 54.850623 255.0615 
Q 68.610434 289.831123 81.958836 323.561159 
" style="fill:none;stroke:#000000;stroke-linecap:round;"/>
    <path clip-path="url(#p2ee567f8c8)" d="M 82.346606 319.105866 
L 81.958836 323.561159 
L 78.627264 320.577767 
L 82.346606 319.105866 
z
" style="stroke:#000000;stroke-linecap:round;"/>
   </g>
   <g id="patch_17">
    <path clip-path="url(#p2ee567f8c8)" d="M 59.578152 233.655502 
Q 96.506525 198.603331 132.623998 164.320862 
" style="fill:none;stroke:#000000;stroke-linecap:round;"/>
    <path clip-path="url(#p2ee567f8c8)" d="M 128.345948 165.624047 
L 132.623998 164.320862 
L 131.099716 168.525213 
L 128.345948 165.624047 
z
" style="stroke:#000000;stroke-linecap:round;"/>
   </g>
   <g id="patch_18">
    <path clip-path="url(#p2ee567f8c8)" d="M 100.088167 340.052227 
Q 119.580079 344.831953 137.986126 349.345408 
" style="fill:none;stroke:#000000;stroke-linecap:round;"/>
    <path clip-path="url(#p2ee567f8c8)" d="M 134.577543 346.450316 
L 137.986126 349.345408 
L 133.624903 350.335219 
L 134.577543 346.450316 
z
" style="stroke:#000000;stroke-linecap:round;"/>
   </g>
   <g id="patch_19">
    <path clip-path="url(#p2ee567f8c8)" d="M 82.370893 324.602383 
Q 68.611082 289.83276 55.262679 256.102724 
" style="fill:none;stroke:#000000;stroke-linecap:round;"/>
    <path clip-path="url(#p2ee567f8c8)" d="M 54.874909 260.558017 
L 55.262679 256.102724 
L 58.594252 259.086116 
L 54.874909 260.558017 
z
" style="stroke:#000000;stroke-linecap:round;"/>
   </g>
   <g id="patch_20">
    <path clip-path="url(#p2ee567f8c8)" d="M 163.035658 359.931827 
Q 171.659524 365.493911 179.343825 370.450009 
" style="fill:none;stroke:#000000;stroke-linecap:round;"/>
    <path clip-path="url(#p2ee567f8c8)" d="M 177.066356 366.601225 
L 179.343825 370.450009 
L 174.898317 369.962714 
L 177.066356 366.601225 
z
" style="stroke:#000000;stroke-linecap:round;"/>
   </g>
   <g id="patch_21">
    <path clip-path="url(#p2ee567f8c8)" d="M 164.553186 348.843495 
Q 177.969489 344.682467 190.317938 340.852631 
" style="fill:none;stroke:#000000;stroke-linecap:round;"/>
    <path clip-path="url(#p2ee567f8c8)" d="M 185.905014 340.127304 
L 190.317938 340.852631 
L 187.089921 343.947774 
L 185.905014 340.127304 
z
" style="stroke:#000000;stroke-linecap:round;"/>
   </g>
   <g id="patch_22">
    <path clip-path="url(#p2ee567f8c8)" d="M 139.068845 349.610907 
Q 119.576934 344.831182 101.170886 340.317727 
" style="fill:none;stroke:#000000;stroke-linecap:round;"/>
    <path clip-path="url(#p2ee567f8c8)" d="M 104.57947 343.212819 
L 101.170886 340.317727 
L 105.53211 339.327915 
L 104.57947 343.212819 
z
" style="stroke:#000000;stroke-linecap:round;"/>
   </g>
   <g id="patch_23">
    <path clip-path="url(#p2ee567f8c8)" d="M 491.765345 182.527554 
Q 506.715222 225.454366 521.297388 267.325343 
" style="fill:none;stroke:#000000;stroke-linecap:round;"/>
    <path clip-path="url(#p2ee567f8c8)" d="M 521.870566 262.89009 
L 521.297388 267.325343 
L 518.093093 264.205649 
L 521.870566 262.89009 
z
" style="stroke:#000000;stroke-linecap:round;"/>
   </g>
   <g id="patch_24">
    <path clip-path="url(#p2ee567f8c8)" d="M 474.25634 168.677475 
Q 398.237251 160.830663 323.330288 153.098647 
" style="fill:none;stroke:#000000;stroke-linecap:round;"/>
    <path clip-path="url(#p2ee567f8c8)" d="M 327.103795 155.498781 
L 323.330288 153.098647 
L 327.514499 151.519921 
L 327.103795 155.498781 
z
" style="stroke:#000000;stroke-linecap:round;"/>
   </g>
   <g id="patch_25">
    <path clip-path="url(#p2ee567f8c8)" d="M 523.228184 293.80801 
Q 517.028356 322.562521 511.064175 350.224114 
" style="fill:none;stroke:#000000;stroke-linecap:round;"/>
    <path clip-path="url(#p2ee567f8c8)" d="M 513.862322 346.735508 
L 511.064175 350.224114 
L 509.952178 345.892432 
L 513.862322 346.735508 
z
" style="stroke:#000000;stroke-linecap:round;"/>
   </g>
   <g id="patch_26">
    <path clip-path="url(#p2ee567f8c8)" d="M 521.666069 268.383966 
Q 506.716192 225.457154 492.134026 183.586178 
" style="fill:none;stroke:#000000;stroke-linecap:round;"/>
    <path clip-path="url(#p2ee567f8c8)" d="M 491.560848 188.02143 
L 492.134026 183.586178 
L 495.338321 186.705871 
L 491.560848 188.02143 
z
" style="stroke:#000000;stroke-linecap:round;"/>
   </g>
   <g id="patch_27">
    <path clip-path="url(#p2ee567f8c8)" d="M 497.094916 371.67666 
Q 488.082435 377.795887 479.994929 383.287083 
" style="fill:none;stroke:#000000;stroke-linecap:round;"/>
    <path clip-path="url(#p2ee567f8c8)" d="M 484.427672 382.694811 
L 479.994929 383.287083 
L 482.180758 379.385525 
L 484.427672 382.694811 
z
" style="stroke:#000000;stroke-linecap:round;"/>
   </g>
   <g id="patch_28">
    <path clip-path="url(#p2ee567f8c8)" d="M 510.829569 351.312206 
Q 517.029397 322.557695 522.993578 294.896103 
" style="fill:none;stroke:#000000;stroke-linecap:round;"/>
    <path clip-path="url(#p2ee567f8c8)" d="M 520.195431 298.384709 
L 522.993578 294.896103 
L 524.105575 299.227784 
L 520.195431 298.384709 
z
" style="stroke:#000000;stroke-linecap:round;"/>
   </g>
   <g id="patch_29">
    <path clip-path="url(#p2ee567f8c8)" d="M 457.640377 399.410613 
Q 450.12175 405.193522 443.489341 410.294803 
" style="fill:none;stroke:#000000;stroke-linecap:round;"/>
    <path clip-path="url(#p2ee567f8c8)" d="M 447.879305 409.441446 
L 443.489341 410.294803 
L 445.440634 406.270817 
L 447.879305 409.441446 
z
" style="stroke:#000000;stroke-linecap:round;"/>
   </g>
   <g id="patch_30">
    <path clip-path="url(#p2ee567f8c8)" d="M 455.05843 389.283718 
Q 442.582604 387.314125 431.211135 385.51888 
" style="fill:none;stroke:#000000;stroke-linecap:round;"/>
    <path clip-path="url(#p2ee567f8c8)" d="M 434.850318 388.118178 
L 431.211135 385.51888 
L 435.474083 384.167113 
L 434.850318 388.118178 
z
" style="stroke:#000000;stroke-linecap:round;"/>
   </g>
   <g id="patch_31">
    <path clip-path="url(#p2ee567f8c8)" d="M 479.071148 383.914305 
Q 488.083628 377.795078 496.171135 372.303882 
" style="fill:none;stroke:#000000;stroke-linecap:round;"/>
    <path clip-path="url(#p2ee567f8c8)" d="M 491.738392 372.896154 
L 496.171135 372.303882 
L 493.985306 376.20544 
L 491.738392 372.896154 
z
" style="stroke:#000000;stroke-linecap:round;"/>
   </g>
   <g id="patch_32">
    <path clip-path="url(#p2ee567f8c8)" d="M 217.34699 389.80819 
Q 190.5 448.887816 164.115551 506.949574 
" style="fill:none;stroke:#000000;stroke-linecap:round;"/>
    <path clip-path="url(#p2ee567f8c8)" d="M 167.591204 504.135354 
L 164.115551 506.949574 
L 163.949567 502.480519 
L 167.591204 504.135354 
z
" style="stroke:#000000;stroke-linecap:round;"/>
   </g>
   <g id="patch_33">
    <path clip-path="url(#p2ee567f8c8)" d="M 236.052239 377.874068 
Q 263.222396 378.104994 289.27456 378.326417 
" style="fill:none;stroke:#000000;stroke-linecap:round;"/>
    <path clip-path="url(#p2ee567f8c8)" d="M 285.291702 376.292494 
L 289.27456 378.326417 
L 285.257707 380.29235 
L 285.291702 376.292494 
z
" style="stroke:#000000;stroke-linecap:round;"/>
   </g>
   <g id="patch_34">
    <path clip-path="url(#p2ee567f8c8)" d="M 159.538197 533.167518 
Q 165.594126 591.836087 171.535259 649.392531 
" style="fill:none;stroke:#000000;stroke-linecap:round;"/>
    <path clip-path="url(#p2ee567f8c8)" d="M 173.11398 645.208318 
L 171.535259 649.392531 
L 169.135121 645.619026 
L 173.11398 645.208318 
z
" style="stroke:#000000;stroke-linecap:round;"/>
   </g>
   <g id="patch_35">
    <path clip-path="url(#p2ee567f8c8)" d="M 163.65436 507.964473 
Q 190.50135 448.884846 216.885799 390.823088 
" style="fill:none;stroke:#000000;stroke-linecap:round;"/>
    <path clip-path="url(#p2ee567f8c8)" d="M 213.410146 393.637309 
L 216.885799 390.823088 
L 217.051783 395.292143 
L 213.410146 393.637309 
z
" style="stroke:#000000;stroke-linecap:round;"/>
   </g>
   <g id="patch_36">
    <path clip-path="url(#p2ee567f8c8)" d="M 170.938993 676.731904 
Q 169.506127 685.776858 168.248194 693.717548 
" style="fill:none;stroke:#000000;stroke-linecap:round;"/>
    <path clip-path="url(#p2ee567f8c8)" d="M 170.849421 690.079743 
L 168.248194 693.717548 
L 166.898687 689.453884 
L 170.849421 690.079743 
z
" style="stroke:#000000;stroke-linecap:round;"/>
   </g>
   <g id="patch_37">
    <path clip-path="url(#p2ee567f8c8)" d="M 171.650652 650.510431 
Q 165.594723 591.841862 159.653589 534.285419 
" style="fill:none;stroke:#000000;stroke-linecap:round;"/>
    <path clip-path="url(#p2ee567f8c8)" d="M 158.074869 538.469632 
L 159.653589 534.285419 
L 162.053728 538.058923 
L 158.074869 538.469632 
z
" style="stroke:#000000;stroke-linecap:round;"/>
   </g>
   <g id="patch_38">
    <path clip-path="url(#p2ee567f8c8)" d="M 168.07364 694.819417 
Q 169.506506 685.774464 170.764439 677.833774 
" style="fill:none;stroke:#000000;stroke-linecap:round;"/>
    <path clip-path="url(#p2ee567f8c8)" d="M 168.163212 681.471578 
L 170.764439 677.833774 
L 172.113946 682.097438 
L 168.163212 681.471578 
z
" style="stroke:#000000;stroke-linecap:round;"/>
   </g>
   <g id="patch_39">
    <path clip-path="url(#p2ee567f8c8)" d="M 367.347005 394.86323 
Q 359.514765 471.832349 351.795709 547.689178 
" style="fill:none;stroke:#000000;stroke-linecap:round;"/>
    <path clip-path="url(#p2ee567f8c8)" d="M 354.190376 543.912199 
L 351.795709 547.689178 
L 350.210926 543.507257 
L 354.190376 543.912199 
z
" style="stroke:#000000;stroke-linecap:round;"/>
   </g>
   <g id="patch_40">
    <path clip-path="url(#p2ee567f8c8)" d="M 355.473215 381.041263 
Q 336.152461 380.075162 317.948346 379.164897 
" style="fill:none;stroke:#000000;stroke-linecap:round;"/>
    <path clip-path="url(#p2ee567f8c8)" d="M 321.843473 381.362165 
L 317.948346 379.164897 
L 322.043236 377.367156 
L 321.843473 381.362165 
z
" style="stroke:#000000;stroke-linecap:round;"/>
   </g>
   <g id="patch_41">
    <path clip-path="url(#p2ee567f8c8)" d="M 346.457863 574.605779 
Q 322.205719 653.531504 298.281968 731.388511 
" style="fill:none;stroke:#000000;stroke-linecap:round;"/>
    <path clip-path="url(#p2ee567f8c8)" d="M 301.368645 728.152399 
L 298.281968 731.388511 
L 297.545084 726.977502 
L 301.368645 728.152399 
z
" style="stroke:#000000;stroke-linecap:round;"/>
   </g>
   <g id="patch_42">
    <path clip-path="url(#p2ee567f8c8)" d="M 351.682754 548.799208 
Q 359.514995 471.830089 367.23405 395.97326 
" style="fill:none;stroke:#000000;stroke-linecap:round;"/>
    <path clip-path="url(#p2ee567f8c8)" d="M 364.839384 399.750239 
L 367.23405 395.97326 
L 368.818834 400.155181 
L 364.839384 399.750239 
z
" style="stroke:#000000;stroke-linecap:round;"/>
   </g>
   <g id="patch_43">
    <path clip-path="url(#p2ee567f8c8)" d="M 290.97568 757.968426 
Q 288.789382 767.065075 286.864354 775.074647 
" style="fill:none;stroke:#000000;stroke-linecap:round;"/>
    <path clip-path="url(#p2ee567f8c8)" d="M 289.743724 771.652772 
L 286.864354 775.074647 
L 285.854476 770.718026 
L 289.743724 771.652772 
z
" style="stroke:#000000;stroke-linecap:round;"/>
   </g>
   <g id="patch_44">
    <path clip-path="url(#p2ee567f8c8)" d="M 297.953259 732.458256 
Q 322.205403 653.53253 346.129154 575.675523 
" style="fill:none;stroke:#000000;stroke-linecap:round;"/>
    <path clip-path="url(#p2ee567f8c8)" d="M 343.042477 578.911636 
L 346.129154 575.675523 
L 346.866038 580.086532 
L 343.042477 578.911636 
z
" style="stroke:#000000;stroke-linecap:round;"/>
   </g>
   <g id="patch_45">
    <path clip-path="url(#p2ee567f8c8)" d="M 286.603517 776.159924 
Q 288.789815 767.063275 290.714843 759.053703 
" style="fill:none;stroke:#000000;stroke-linecap:round;"/>
    <path clip-path="url(#p2ee567f8c8)" d="M 287.835474 762.475578 
L 290.714843 759.053703 
L 291.724722 763.410324 
L 287.835474 762.475578 
z
" style="stroke:#000000;stroke-linecap:round;"/>
   </g>
   <g id="patch_46">
    <path clip-path="url(#p2ee567f8c8)" d="M 180.285444 371.05732 
Q 171.661578 365.495236 163.977277 360.539137 
" style="fill:none;stroke:#000000;stroke-linecap:round;"/>
    <path clip-path="url(#p2ee567f8c8)" d="M 166.254746 364.387921 
L 163.977277 360.539137 
L 168.422785 361.026433 
L 166.254746 364.387921 
z
" style="stroke:#000000;stroke-linecap:round;"/>
   </g>
   <g id="patch_47">
    <path clip-path="url(#p2ee567f8c8)" d="M 191.386192 340.521315 
Q 177.969889 344.682343 165.62144 348.512179 
" style="fill:none;stroke:#000000;stroke-linecap:round;"/>
    <path clip-path="url(#p2ee567f8c8)" d="M 170.034365 349.237506 
L 165.62144 348.512179 
L 168.849457 345.417036 
L 170.034365 349.237506 
z
" style="stroke:#000000;stroke-linecap:round;"/>
   </g>
   <g id="patch_48">
    <path clip-path="url(#p2ee567f8c8)" d="M 442.60481 410.975135 
Q 450.123437 405.192225 456.755846 400.090945 
" style="fill:none;stroke:#000000;stroke-linecap:round;"/>
    <path clip-path="url(#p2ee567f8c8)" d="M 452.365882 400.944302 
L 456.755846 400.090945 
L 454.804553 404.11493 
L 452.365882 400.944302 
z
" style="stroke:#000000;stroke-linecap:round;"/>
   </g>
   <g id="patch_49">
    <path clip-path="url(#p2ee567f8c8)" d="M 430.110347 385.345096 
Q 442.586173 387.314689 453.957642 389.109934 
" style="fill:none;stroke:#000000;stroke-linecap:round;"/>
    <path clip-path="url(#p2ee567f8c8)" d="M 450.31846 386.510635 
L 453.957642 389.109934 
L 449.694694 390.461701 
L 450.31846 386.510635 
z
" style="stroke:#000000;stroke-linecap:round;"/>
   </g>
   <g id="PathCollection_1">
    <defs>
     <path d="M 0 13.228757 
C 3.508307 13.228757 6.873396 11.834891 9.354143 9.354143 
C 11.834891 6.873396 13.228757 3.508307 13.228757 0 
C 13.228757 -3.508307 11.834891 -6.873396 9.354143 -9.354143 
C 6.873396 -11.834891 3.508307 -13.228757 0 -13.228757 
C -3.508307 -13.228757 -6.873396 -11.834891 -9.354143 -9.354143 
C -11.834891 -6.873396 -13.228757 -3.508307 -13.228757 0 
C -13.228757 3.508307 -11.834891 6.873396 -9.354143 9.354143 
C -6.873396 11.834891 -3.508307 13.228757 0 13.228757 
z
" id="m50b4bf7339" style="stroke:#87ceeb;"/>
    </defs>
    <g clip-path="url(#p2ee567f8c8)">
     <use style="fill:#87ceeb;stroke:#87ceeb;" x="335.852244" xlink:href="#m50b4bf7339" y="74.975207"/>
     <use style="fill:#87ceeb;stroke:#87ceeb;" x="308.887132" xlink:href="#m50b4bf7339" y="120.321662"/>
     <use style="fill:#87ceeb;stroke:#87ceeb;" x="309.057401" xlink:href="#m50b4bf7339" y="151.625377"/>
     <use style="fill:#87ceeb;stroke:#87ceeb;" x="307.555149" xlink:href="#m50b4bf7339" y="247.666686"/>
     <use style="fill:#87ceeb;stroke:#87ceeb;" x="303.617824" xlink:href="#m50b4bf7339" y="378.448324"/>
     <use style="fill:#87ceeb;stroke:#87ceeb;" x="143.028304" xlink:href="#m50b4bf7339" y="154.445163"/>
     <use style="fill:#87ceeb;stroke:#87ceeb;" x="49.983471" xlink:href="#m50b4bf7339" y="242.762709"/>
     <use style="fill:#87ceeb;stroke:#87ceeb;" x="87.238045" xlink:href="#m50b4bf7339" y="336.901174"/>
     <use style="fill:#87ceeb;stroke:#87ceeb;" x="151.918968" xlink:href="#m50b4bf7339" y="352.761961"/>
     <use style="fill:#87ceeb;stroke:#87ceeb;" x="487.414885" xlink:href="#m50b4bf7339" y="170.035721"/>
     <use style="fill:#87ceeb;stroke:#87ceeb;" x="526.016529" xlink:href="#m50b4bf7339" y="280.8758"/>
     <use style="fill:#87ceeb;stroke:#87ceeb;" x="508.041224" xlink:href="#m50b4bf7339" y="364.244417"/>
     <use style="fill:#87ceeb;stroke:#87ceeb;" x="468.12484" xlink:href="#m50b4bf7339" y="391.346548"/>
     <use style="fill:#87ceeb;stroke:#87ceeb;" x="222.8212" xlink:href="#m50b4bf7339" y="377.761614"/>
     <use style="fill:#87ceeb;stroke:#87ceeb;" x="158.18015" xlink:href="#m50b4bf7339" y="520.011048"/>
     <use style="fill:#87ceeb;stroke:#87ceeb;" x="173.008699" xlink:href="#m50b4bf7339" y="663.666901"/>
     <use style="fill:#87ceeb;stroke:#87ceeb;" x="166.003934" xlink:href="#m50b4bf7339" y="707.88442"/>
     <use style="fill:#87ceeb;stroke:#87ceeb;" x="368.686272" xlink:href="#m50b4bf7339" y="381.701959"/>
     <use style="fill:#87ceeb;stroke:#87ceeb;" x="350.343487" xlink:href="#m50b4bf7339" y="561.960478"/>
     <use style="fill:#87ceeb;stroke:#87ceeb;" x="294.067635" xlink:href="#m50b4bf7339" y="745.103556"/>
     <use style="fill:#87ceeb;stroke:#87ceeb;" x="283.511562" xlink:href="#m50b4bf7339" y="789.024793"/>
     <use style="fill:#87ceeb;stroke:#87ceeb;" x="191.402134" xlink:href="#m50b4bf7339" y="378.227186"/>
     <use style="fill:#87ceeb;stroke:#87ceeb;" x="204.02041" xlink:href="#m50b4bf7339" y="336.602849"/>
     <use style="fill:#87ceeb;stroke:#87ceeb;" x="432.120347" xlink:href="#m50b4bf7339" y="419.0392"/>
     <use style="fill:#87ceeb;stroke:#87ceeb;" x="417.043938" xlink:href="#m50b4bf7339" y="383.282266"/>
    </g>
   </g>
   <g id="text_1">
    <g clip-path="url(#p2ee567f8c8)">
     <!-- Head -->
     <g transform="translate(322.777244 77.734582)scale(0.1 -0.1)">
      <defs>
       <path d="M 9.8125 72.90625 
L 19.671875 72.90625 
L 19.671875 43.015625 
L 55.515625 43.015625 
L 55.515625 72.90625 
L 65.375 72.90625 
L 65.375 0 
L 55.515625 0 
L 55.515625 34.71875 
L 19.671875 34.71875 
L 19.671875 0 
L 9.8125 0 
z
" id="DejaVuSans-72"/>
       <path d="M 56.203125 29.59375 
L 56.203125 25.203125 
L 14.890625 25.203125 
Q 15.484375 15.921875 20.484375 11.0625 
Q 25.484375 6.203125 34.421875 6.203125 
Q 39.59375 6.203125 44.453125 7.46875 
Q 49.3125 8.734375 54.109375 11.28125 
L 54.109375 2.78125 
Q 49.265625 0.734375 44.1875 -0.34375 
Q 39.109375 -1.421875 33.890625 -1.421875 
Q 20.796875 -1.421875 13.15625 6.1875 
Q 5.515625 13.8125 5.515625 26.8125 
Q 5.515625 40.234375 12.765625 48.109375 
Q 20.015625 56 32.328125 56 
Q 43.359375 56 49.78125 48.890625 
Q 56.203125 41.796875 56.203125 29.59375 
z
M 47.21875 32.234375 
Q 47.125 39.59375 43.09375 43.984375 
Q 39.0625 48.390625 32.421875 48.390625 
Q 24.90625 48.390625 20.390625 44.140625 
Q 15.875 39.890625 15.1875 32.171875 
z
" id="DejaVuSans-101"/>
       <path d="M 34.28125 27.484375 
Q 23.390625 27.484375 19.1875 25 
Q 14.984375 22.515625 14.984375 16.5 
Q 14.984375 11.71875 18.140625 8.90625 
Q 21.296875 6.109375 26.703125 6.109375 
Q 34.1875 6.109375 38.703125 11.40625 
Q 43.21875 16.703125 43.21875 25.484375 
L 43.21875 27.484375 
z
M 52.203125 31.203125 
L 52.203125 0 
L 43.21875 0 
L 43.21875 8.296875 
Q 40.140625 3.328125 35.546875 0.953125 
Q 30.953125 -1.421875 24.3125 -1.421875 
Q 15.921875 -1.421875 10.953125 3.296875 
Q 6 8.015625 6 15.921875 
Q 6 25.140625 12.171875 29.828125 
Q 18.359375 34.515625 30.609375 34.515625 
L 43.21875 34.515625 
L 43.21875 35.40625 
Q 43.21875 41.609375 39.140625 45 
Q 35.0625 48.390625 27.6875 48.390625 
Q 23 48.390625 18.546875 47.265625 
Q 14.109375 46.140625 10.015625 43.890625 
L 10.015625 52.203125 
Q 14.9375 54.109375 19.578125 55.046875 
Q 24.21875 56 28.609375 56 
Q 40.484375 56 46.34375 49.84375 
Q 52.203125 43.703125 52.203125 31.203125 
z
" id="DejaVuSans-97"/>
       <path d="M 45.40625 46.390625 
L 45.40625 75.984375 
L 54.390625 75.984375 
L 54.390625 0 
L 45.40625 0 
L 45.40625 8.203125 
Q 42.578125 3.328125 38.25 0.953125 
Q 33.9375 -1.421875 27.875 -1.421875 
Q 17.96875 -1.421875 11.734375 6.484375 
Q 5.515625 14.40625 5.515625 27.296875 
Q 5.515625 40.1875 11.734375 48.09375 
Q 17.96875 56 27.875 56 
Q 33.9375 56 38.25 53.625 
Q 42.578125 51.265625 45.40625 46.390625 
z
M 14.796875 27.296875 
Q 14.796875 17.390625 18.875 11.75 
Q 22.953125 6.109375 30.078125 6.109375 
Q 37.203125 6.109375 41.296875 11.75 
Q 45.40625 17.390625 45.40625 27.296875 
Q 45.40625 37.203125 41.296875 42.84375 
Q 37.203125 48.484375 30.078125 48.484375 
Q 22.953125 48.484375 18.875 42.84375 
Q 14.796875 37.203125 14.796875 27.296875 
z
" id="DejaVuSans-100"/>
      </defs>
      <use xlink:href="#DejaVuSans-72"/>
      <use x="75.195312" xlink:href="#DejaVuSans-101"/>
      <use x="136.71875" xlink:href="#DejaVuSans-97"/>
      <use x="197.998047" xlink:href="#DejaVuSans-100"/>
     </g>
    </g>
   </g>
   <g id="text_2">
    <g clip-path="url(#p2ee567f8c8)">
     <!-- c7 -->
     <g transform="translate(302.956663 123.081037)scale(0.1 -0.1)">
      <defs>
       <path d="M 48.78125 52.59375 
L 48.78125 44.1875 
Q 44.96875 46.296875 41.140625 47.34375 
Q 37.3125 48.390625 33.40625 48.390625 
Q 24.65625 48.390625 19.8125 42.84375 
Q 14.984375 37.3125 14.984375 27.296875 
Q 14.984375 17.28125 19.8125 11.734375 
Q 24.65625 6.203125 33.40625 6.203125 
Q 37.3125 6.203125 41.140625 7.25 
Q 44.96875 8.296875 48.78125 10.40625 
L 48.78125 2.09375 
Q 45.015625 0.34375 40.984375 -0.53125 
Q 36.96875 -1.421875 32.421875 -1.421875 
Q 20.0625 -1.421875 12.78125 6.34375 
Q 5.515625 14.109375 5.515625 27.296875 
Q 5.515625 40.671875 12.859375 48.328125 
Q 20.21875 56 33.015625 56 
Q 37.15625 56 41.109375 55.140625 
Q 45.0625 54.296875 48.78125 52.59375 
z
" id="DejaVuSans-99"/>
       <path d="M 8.203125 72.90625 
L 55.078125 72.90625 
L 55.078125 68.703125 
L 28.609375 0 
L 18.3125 0 
L 43.21875 64.59375 
L 8.203125 64.59375 
z
" id="DejaVuSans-55"/>
      </defs>
      <use xlink:href="#DejaVuSans-99"/>
      <use x="54.980469" xlink:href="#DejaVuSans-55"/>
     </g>
    </g>
   </g>
   <g id="text_3">
    <g clip-path="url(#p2ee567f8c8)">
     <!-- SpineShoulder -->
     <g transform="translate(272.808183 154.384752)scale(0.1 -0.1)">
      <defs>
       <path d="M 53.515625 70.515625 
L 53.515625 60.890625 
Q 47.90625 63.578125 42.921875 64.890625 
Q 37.9375 66.21875 33.296875 66.21875 
Q 25.25 66.21875 20.875 63.09375 
Q 16.5 59.96875 16.5 54.203125 
Q 16.5 49.359375 19.40625 46.890625 
Q 22.3125 44.4375 30.421875 42.921875 
L 36.375 41.703125 
Q 47.40625 39.59375 52.65625 34.296875 
Q 57.90625 29 57.90625 20.125 
Q 57.90625 9.515625 50.796875 4.046875 
Q 43.703125 -1.421875 29.984375 -1.421875 
Q 24.8125 -1.421875 18.96875 -0.25 
Q 13.140625 0.921875 6.890625 3.21875 
L 6.890625 13.375 
Q 12.890625 10.015625 18.65625 8.296875 
Q 24.421875 6.59375 29.984375 6.59375 
Q 38.421875 6.59375 43.015625 9.90625 
Q 47.609375 13.234375 47.609375 19.390625 
Q 47.609375 24.75 44.3125 27.78125 
Q 41.015625 30.8125 33.5 32.328125 
L 27.484375 33.5 
Q 16.453125 35.6875 11.515625 40.375 
Q 6.59375 45.0625 6.59375 53.421875 
Q 6.59375 63.09375 13.40625 68.65625 
Q 20.21875 74.21875 32.171875 74.21875 
Q 37.3125 74.21875 42.625 73.28125 
Q 47.953125 72.359375 53.515625 70.515625 
z
" id="DejaVuSans-83"/>
       <path d="M 18.109375 8.203125 
L 18.109375 -20.796875 
L 9.078125 -20.796875 
L 9.078125 54.6875 
L 18.109375 54.6875 
L 18.109375 46.390625 
Q 20.953125 51.265625 25.265625 53.625 
Q 29.59375 56 35.59375 56 
Q 45.5625 56 51.78125 48.09375 
Q 58.015625 40.1875 58.015625 27.296875 
Q 58.015625 14.40625 51.78125 6.484375 
Q 45.5625 -1.421875 35.59375 -1.421875 
Q 29.59375 -1.421875 25.265625 0.953125 
Q 20.953125 3.328125 18.109375 8.203125 
z
M 48.6875 27.296875 
Q 48.6875 37.203125 44.609375 42.84375 
Q 40.53125 48.484375 33.40625 48.484375 
Q 26.265625 48.484375 22.1875 42.84375 
Q 18.109375 37.203125 18.109375 27.296875 
Q 18.109375 17.390625 22.1875 11.75 
Q 26.265625 6.109375 33.40625 6.109375 
Q 40.53125 6.109375 44.609375 11.75 
Q 48.6875 17.390625 48.6875 27.296875 
z
" id="DejaVuSans-112"/>
       <path d="M 9.421875 54.6875 
L 18.40625 54.6875 
L 18.40625 0 
L 9.421875 0 
z
M 9.421875 75.984375 
L 18.40625 75.984375 
L 18.40625 64.59375 
L 9.421875 64.59375 
z
" id="DejaVuSans-105"/>
       <path d="M 54.890625 33.015625 
L 54.890625 0 
L 45.90625 0 
L 45.90625 32.71875 
Q 45.90625 40.484375 42.875 44.328125 
Q 39.84375 48.1875 33.796875 48.1875 
Q 26.515625 48.1875 22.3125 43.546875 
Q 18.109375 38.921875 18.109375 30.90625 
L 18.109375 0 
L 9.078125 0 
L 9.078125 54.6875 
L 18.109375 54.6875 
L 18.109375 46.1875 
Q 21.34375 51.125 25.703125 53.5625 
Q 30.078125 56 35.796875 56 
Q 45.21875 56 50.046875 50.171875 
Q 54.890625 44.34375 54.890625 33.015625 
z
" id="DejaVuSans-110"/>
       <path d="M 54.890625 33.015625 
L 54.890625 0 
L 45.90625 0 
L 45.90625 32.71875 
Q 45.90625 40.484375 42.875 44.328125 
Q 39.84375 48.1875 33.796875 48.1875 
Q 26.515625 48.1875 22.3125 43.546875 
Q 18.109375 38.921875 18.109375 30.90625 
L 18.109375 0 
L 9.078125 0 
L 9.078125 75.984375 
L 18.109375 75.984375 
L 18.109375 46.1875 
Q 21.34375 51.125 25.703125 53.5625 
Q 30.078125 56 35.796875 56 
Q 45.21875 56 50.046875 50.171875 
Q 54.890625 44.34375 54.890625 33.015625 
z
" id="DejaVuSans-104"/>
       <path d="M 30.609375 48.390625 
Q 23.390625 48.390625 19.1875 42.75 
Q 14.984375 37.109375 14.984375 27.296875 
Q 14.984375 17.484375 19.15625 11.84375 
Q 23.34375 6.203125 30.609375 6.203125 
Q 37.796875 6.203125 41.984375 11.859375 
Q 46.1875 17.53125 46.1875 27.296875 
Q 46.1875 37.015625 41.984375 42.703125 
Q 37.796875 48.390625 30.609375 48.390625 
z
M 30.609375 56 
Q 42.328125 56 49.015625 48.375 
Q 55.71875 40.765625 55.71875 27.296875 
Q 55.71875 13.875 49.015625 6.21875 
Q 42.328125 -1.421875 30.609375 -1.421875 
Q 18.84375 -1.421875 12.171875 6.21875 
Q 5.515625 13.875 5.515625 27.296875 
Q 5.515625 40.765625 12.171875 48.375 
Q 18.84375 56 30.609375 56 
z
" id="DejaVuSans-111"/>
       <path d="M 8.5 21.578125 
L 8.5 54.6875 
L 17.484375 54.6875 
L 17.484375 21.921875 
Q 17.484375 14.15625 20.5 10.265625 
Q 23.53125 6.390625 29.59375 6.390625 
Q 36.859375 6.390625 41.078125 11.03125 
Q 45.3125 15.671875 45.3125 23.6875 
L 45.3125 54.6875 
L 54.296875 54.6875 
L 54.296875 0 
L 45.3125 0 
L 45.3125 8.40625 
Q 42.046875 3.421875 37.71875 1 
Q 33.40625 -1.421875 27.6875 -1.421875 
Q 18.265625 -1.421875 13.375 4.4375 
Q 8.5 10.296875 8.5 21.578125 
z
M 31.109375 56 
z
" id="DejaVuSans-117"/>
       <path d="M 9.421875 75.984375 
L 18.40625 75.984375 
L 18.40625 0 
L 9.421875 0 
z
" id="DejaVuSans-108"/>
       <path d="M 41.109375 46.296875 
Q 39.59375 47.171875 37.8125 47.578125 
Q 36.03125 48 33.890625 48 
Q 26.265625 48 22.1875 43.046875 
Q 18.109375 38.09375 18.109375 28.8125 
L 18.109375 0 
L 9.078125 0 
L 9.078125 54.6875 
L 18.109375 54.6875 
L 18.109375 46.1875 
Q 20.953125 51.171875 25.484375 53.578125 
Q 30.03125 56 36.53125 56 
Q 37.453125 56 38.578125 55.875 
Q 39.703125 55.765625 41.0625 55.515625 
z
" id="DejaVuSans-114"/>
      </defs>
      <use xlink:href="#DejaVuSans-83"/>
      <use x="63.476562" xlink:href="#DejaVuSans-112"/>
      <use x="126.953125" xlink:href="#DejaVuSans-105"/>
      <use x="154.736328" xlink:href="#DejaVuSans-110"/>
      <use x="218.115234" xlink:href="#DejaVuSans-101"/>
      <use x="279.638672" xlink:href="#DejaVuSans-83"/>
      <use x="343.115234" xlink:href="#DejaVuSans-104"/>
      <use x="406.494141" xlink:href="#DejaVuSans-111"/>
      <use x="467.675781" xlink:href="#DejaVuSans-117"/>
      <use x="531.054688" xlink:href="#DejaVuSans-108"/>
      <use x="558.837891" xlink:href="#DejaVuSans-100"/>
      <use x="622.314453" xlink:href="#DejaVuSans-101"/>
      <use x="683.837891" xlink:href="#DejaVuSans-114"/>
     </g>
    </g>
   </g>
   <g id="text_4">
    <g clip-path="url(#p2ee567f8c8)">
     <!-- Spine -->
     <g transform="translate(293.572336 250.426061)scale(0.1 -0.1)">
      <use xlink:href="#DejaVuSans-83"/>
      <use x="63.476562" xlink:href="#DejaVuSans-112"/>
      <use x="126.953125" xlink:href="#DejaVuSans-105"/>
      <use x="154.736328" xlink:href="#DejaVuSans-110"/>
      <use x="218.115234" xlink:href="#DejaVuSans-101"/>
     </g>
    </g>
   </g>
   <g id="text_5">
    <g clip-path="url(#p2ee567f8c8)">
     <!-- Sacr -->
     <g transform="translate(292.574855 381.207699)scale(0.1 -0.1)">
      <use xlink:href="#DejaVuSans-83"/>
      <use x="63.476562" xlink:href="#DejaVuSans-97"/>
      <use x="124.755859" xlink:href="#DejaVuSans-99"/>
      <use x="179.736328" xlink:href="#DejaVuSans-114"/>
     </g>
    </g>
   </g>
   <g id="text_6">
    <g clip-path="url(#p2ee567f8c8)">
     <!-- LShoulder -->
     <g transform="translate(117.975961 157.204538)scale(0.1 -0.1)">
      <defs>
       <path d="M 9.8125 72.90625 
L 19.671875 72.90625 
L 19.671875 8.296875 
L 55.171875 8.296875 
L 55.171875 0 
L 9.8125 0 
z
" id="DejaVuSans-76"/>
      </defs>
      <use xlink:href="#DejaVuSans-76"/>
      <use x="55.712891" xlink:href="#DejaVuSans-83"/>
      <use x="119.189453" xlink:href="#DejaVuSans-104"/>
      <use x="182.568359" xlink:href="#DejaVuSans-111"/>
      <use x="243.75" xlink:href="#DejaVuSans-117"/>
      <use x="307.128906" xlink:href="#DejaVuSans-108"/>
      <use x="334.912109" xlink:href="#DejaVuSans-100"/>
      <use x="398.388672" xlink:href="#DejaVuSans-101"/>
      <use x="459.912109" xlink:href="#DejaVuSans-114"/>
     </g>
    </g>
   </g>
   <g id="text_7">
    <g clip-path="url(#p2ee567f8c8)">
     <!-- LElbow -->
     <g transform="translate(32.32644 245.522084)scale(0.1 -0.1)">
      <defs>
       <path d="M 9.8125 72.90625 
L 55.90625 72.90625 
L 55.90625 64.59375 
L 19.671875 64.59375 
L 19.671875 43.015625 
L 54.390625 43.015625 
L 54.390625 34.71875 
L 19.671875 34.71875 
L 19.671875 8.296875 
L 56.78125 8.296875 
L 56.78125 0 
L 9.8125 0 
z
" id="DejaVuSans-69"/>
       <path d="M 48.6875 27.296875 
Q 48.6875 37.203125 44.609375 42.84375 
Q 40.53125 48.484375 33.40625 48.484375 
Q 26.265625 48.484375 22.1875 42.84375 
Q 18.109375 37.203125 18.109375 27.296875 
Q 18.109375 17.390625 22.1875 11.75 
Q 26.265625 6.109375 33.40625 6.109375 
Q 40.53125 6.109375 44.609375 11.75 
Q 48.6875 17.390625 48.6875 27.296875 
z
M 18.109375 46.390625 
Q 20.953125 51.265625 25.265625 53.625 
Q 29.59375 56 35.59375 56 
Q 45.5625 56 51.78125 48.09375 
Q 58.015625 40.1875 58.015625 27.296875 
Q 58.015625 14.40625 51.78125 6.484375 
Q 45.5625 -1.421875 35.59375 -1.421875 
Q 29.59375 -1.421875 25.265625 0.953125 
Q 20.953125 3.328125 18.109375 8.203125 
L 18.109375 0 
L 9.078125 0 
L 9.078125 75.984375 
L 18.109375 75.984375 
z
" id="DejaVuSans-98"/>
       <path d="M 4.203125 54.6875 
L 13.1875 54.6875 
L 24.421875 12.015625 
L 35.59375 54.6875 
L 46.1875 54.6875 
L 57.421875 12.015625 
L 68.609375 54.6875 
L 77.59375 54.6875 
L 63.28125 0 
L 52.6875 0 
L 40.921875 44.828125 
L 29.109375 0 
L 18.5 0 
z
" id="DejaVuSans-119"/>
      </defs>
      <use xlink:href="#DejaVuSans-76"/>
      <use x="55.712891" xlink:href="#DejaVuSans-69"/>
      <use x="118.896484" xlink:href="#DejaVuSans-108"/>
      <use x="146.679688" xlink:href="#DejaVuSans-98"/>
      <use x="210.15625" xlink:href="#DejaVuSans-111"/>
      <use x="271.337891" xlink:href="#DejaVuSans-119"/>
     </g>
    </g>
   </g>
   <g id="text_8">
    <g clip-path="url(#p2ee567f8c8)">
     <!-- LWrist -->
     <g transform="translate(72.180232 339.660549)scale(0.1 -0.1)">
      <defs>
       <path d="M 3.328125 72.90625 
L 13.28125 72.90625 
L 28.609375 11.28125 
L 43.890625 72.90625 
L 54.984375 72.90625 
L 70.3125 11.28125 
L 85.59375 72.90625 
L 95.609375 72.90625 
L 77.296875 0 
L 64.890625 0 
L 49.515625 63.28125 
L 33.984375 0 
L 21.578125 0 
z
" id="DejaVuSans-87"/>
       <path d="M 44.28125 53.078125 
L 44.28125 44.578125 
Q 40.484375 46.53125 36.375 47.5 
Q 32.28125 48.484375 27.875 48.484375 
Q 21.1875 48.484375 17.84375 46.4375 
Q 14.5 44.390625 14.5 40.28125 
Q 14.5 37.15625 16.890625 35.375 
Q 19.28125 33.59375 26.515625 31.984375 
L 29.59375 31.296875 
Q 39.15625 29.25 43.1875 25.515625 
Q 47.21875 21.78125 47.21875 15.09375 
Q 47.21875 7.46875 41.1875 3.015625 
Q 35.15625 -1.421875 24.609375 -1.421875 
Q 20.21875 -1.421875 15.453125 -0.5625 
Q 10.6875 0.296875 5.421875 2 
L 5.421875 11.28125 
Q 10.40625 8.6875 15.234375 7.390625 
Q 20.0625 6.109375 24.8125 6.109375 
Q 31.15625 6.109375 34.5625 8.28125 
Q 37.984375 10.453125 37.984375 14.40625 
Q 37.984375 18.0625 35.515625 20.015625 
Q 33.0625 21.96875 24.703125 23.78125 
L 21.578125 24.515625 
Q 13.234375 26.265625 9.515625 29.90625 
Q 5.8125 33.546875 5.8125 39.890625 
Q 5.8125 47.609375 11.28125 51.796875 
Q 16.75 56 26.8125 56 
Q 31.78125 56 36.171875 55.265625 
Q 40.578125 54.546875 44.28125 53.078125 
z
" id="DejaVuSans-115"/>
       <path d="M 18.3125 70.21875 
L 18.3125 54.6875 
L 36.8125 54.6875 
L 36.8125 47.703125 
L 18.3125 47.703125 
L 18.3125 18.015625 
Q 18.3125 11.328125 20.140625 9.421875 
Q 21.96875 7.515625 27.59375 7.515625 
L 36.8125 7.515625 
L 36.8125 0 
L 27.59375 0 
Q 17.1875 0 13.234375 3.875 
Q 9.28125 7.765625 9.28125 18.015625 
L 9.28125 47.703125 
L 2.6875 47.703125 
L 2.6875 54.6875 
L 9.28125 54.6875 
L 9.28125 70.21875 
z
" id="DejaVuSans-116"/>
      </defs>
      <use xlink:href="#DejaVuSans-76"/>
      <use x="46.587891" xlink:href="#DejaVuSans-87"/>
      <use x="140.964844" xlink:href="#DejaVuSans-114"/>
      <use x="182.078125" xlink:href="#DejaVuSans-105"/>
      <use x="209.861328" xlink:href="#DejaVuSans-115"/>
      <use x="261.960938" xlink:href="#DejaVuSans-116"/>
     </g>
    </g>
   </g>
   <g id="text_9">
    <g clip-path="url(#p2ee567f8c8)">
     <!-- LHand -->
     <g transform="translate(135.965843 355.521336)scale(0.1 -0.1)">
      <use xlink:href="#DejaVuSans-76"/>
      <use x="55.712891" xlink:href="#DejaVuSans-72"/>
      <use x="130.908203" xlink:href="#DejaVuSans-97"/>
      <use x="192.1875" xlink:href="#DejaVuSans-110"/>
      <use x="255.566406" xlink:href="#DejaVuSans-100"/>
     </g>
    </g>
   </g>
   <g id="text_10">
    <g clip-path="url(#p2ee567f8c8)">
     <!-- RShoulder -->
     <g transform="translate(461.67426 172.795096)scale(0.1 -0.1)">
      <defs>
       <path d="M 44.390625 34.1875 
Q 47.5625 33.109375 50.5625 29.59375 
Q 53.5625 26.078125 56.59375 19.921875 
L 66.609375 0 
L 56 0 
L 46.6875 18.703125 
Q 43.0625 26.03125 39.671875 28.421875 
Q 36.28125 30.8125 30.421875 30.8125 
L 19.671875 30.8125 
L 19.671875 0 
L 9.8125 0 
L 9.8125 72.90625 
L 32.078125 72.90625 
Q 44.578125 72.90625 50.734375 67.671875 
Q 56.890625 62.453125 56.890625 51.90625 
Q 56.890625 45.015625 53.6875 40.46875 
Q 50.484375 35.9375 44.390625 34.1875 
z
M 19.671875 64.796875 
L 19.671875 38.921875 
L 32.078125 38.921875 
Q 39.203125 38.921875 42.84375 42.21875 
Q 46.484375 45.515625 46.484375 51.90625 
Q 46.484375 58.296875 42.84375 61.546875 
Q 39.203125 64.796875 32.078125 64.796875 
z
" id="DejaVuSans-82"/>
      </defs>
      <use xlink:href="#DejaVuSans-82"/>
      <use x="69.482422" xlink:href="#DejaVuSans-83"/>
      <use x="132.958984" xlink:href="#DejaVuSans-104"/>
      <use x="196.337891" xlink:href="#DejaVuSans-111"/>
      <use x="257.519531" xlink:href="#DejaVuSans-117"/>
      <use x="320.898438" xlink:href="#DejaVuSans-108"/>
      <use x="348.681641" xlink:href="#DejaVuSans-100"/>
      <use x="412.158203" xlink:href="#DejaVuSans-101"/>
      <use x="473.681641" xlink:href="#DejaVuSans-114"/>
     </g>
    </g>
   </g>
   <g id="text_11">
    <g clip-path="url(#p2ee567f8c8)">
     <!-- RElbow -->
     <g transform="translate(507.671216 283.635175)scale(0.1 -0.1)">
      <use xlink:href="#DejaVuSans-82"/>
      <use x="69.482422" xlink:href="#DejaVuSans-69"/>
      <use x="132.666016" xlink:href="#DejaVuSans-108"/>
      <use x="160.449219" xlink:href="#DejaVuSans-98"/>
      <use x="223.925781" xlink:href="#DejaVuSans-111"/>
      <use x="285.107422" xlink:href="#DejaVuSans-119"/>
     </g>
    </g>
   </g>
   <g id="text_12">
    <g clip-path="url(#p2ee567f8c8)">
     <!-- RWrist -->
     <g transform="translate(492.03888 367.003792)scale(0.1 -0.1)">
      <use xlink:href="#DejaVuSans-82"/>
      <use x="65.482422" xlink:href="#DejaVuSans-87"/>
      <use x="159.859375" xlink:href="#DejaVuSans-114"/>
      <use x="200.972656" xlink:href="#DejaVuSans-105"/>
      <use x="228.755859" xlink:href="#DejaVuSans-115"/>
      <use x="280.855469" xlink:href="#DejaVuSans-116"/>
     </g>
    </g>
   </g>
   <g id="text_13">
    <g clip-path="url(#p2ee567f8c8)">
     <!-- RHand -->
     <g transform="translate(451.483433 394.105923)scale(0.1 -0.1)">
      <use xlink:href="#DejaVuSans-82"/>
      <use x="69.482422" xlink:href="#DejaVuSans-72"/>
      <use x="144.677734" xlink:href="#DejaVuSans-97"/>
      <use x="205.957031" xlink:href="#DejaVuSans-110"/>
      <use x="269.335938" xlink:href="#DejaVuSans-100"/>
     </g>
    </g>
   </g>
   <g id="text_14">
    <g clip-path="url(#p2ee567f8c8)">
     <!-- LHip -->
     <g transform="translate(211.711825 380.520989)scale(0.1 -0.1)">
      <use xlink:href="#DejaVuSans-76"/>
      <use x="55.712891" xlink:href="#DejaVuSans-72"/>
      <use x="130.908203" xlink:href="#DejaVuSans-105"/>
      <use x="158.691406" xlink:href="#DejaVuSans-112"/>
     </g>
    </g>
   </g>
   <g id="text_15">
    <g clip-path="url(#p2ee567f8c8)">
     <!-- LKnee -->
     <g transform="translate(142.793431 522.770423)scale(0.1 -0.1)">
      <defs>
       <path d="M 9.8125 72.90625 
L 19.671875 72.90625 
L 19.671875 42.09375 
L 52.390625 72.90625 
L 65.09375 72.90625 
L 28.90625 38.921875 
L 67.671875 0 
L 54.6875 0 
L 19.671875 35.109375 
L 19.671875 0 
L 9.8125 0 
z
" id="DejaVuSans-75"/>
      </defs>
      <use xlink:href="#DejaVuSans-76"/>
      <use x="55.712891" xlink:href="#DejaVuSans-75"/>
      <use x="121.289062" xlink:href="#DejaVuSans-110"/>
      <use x="184.667969" xlink:href="#DejaVuSans-101"/>
      <use x="246.191406" xlink:href="#DejaVuSans-101"/>
     </g>
    </g>
   </g>
   <g id="text_16">
    <g clip-path="url(#p2ee567f8c8)">
     <!-- LAnkle -->
     <g transform="translate(156.160261 666.426276)scale(0.1 -0.1)">
      <defs>
       <path d="M 34.1875 63.1875 
L 20.796875 26.90625 
L 47.609375 26.90625 
z
M 28.609375 72.90625 
L 39.796875 72.90625 
L 67.578125 0 
L 57.328125 0 
L 50.6875 18.703125 
L 17.828125 18.703125 
L 11.1875 0 
L 0.78125 0 
z
" id="DejaVuSans-65"/>
       <path d="M 9.078125 75.984375 
L 18.109375 75.984375 
L 18.109375 31.109375 
L 44.921875 54.6875 
L 56.390625 54.6875 
L 27.390625 29.109375 
L 57.625 0 
L 45.90625 0 
L 18.109375 26.703125 
L 18.109375 0 
L 9.078125 0 
z
" id="DejaVuSans-107"/>
      </defs>
      <use xlink:href="#DejaVuSans-76"/>
      <use x="57.962891" xlink:href="#DejaVuSans-65"/>
      <use x="126.371094" xlink:href="#DejaVuSans-110"/>
      <use x="189.75" xlink:href="#DejaVuSans-107"/>
      <use x="247.660156" xlink:href="#DejaVuSans-108"/>
      <use x="275.443359" xlink:href="#DejaVuSans-101"/>
     </g>
    </g>
   </g>
   <g id="text_17">
    <g clip-path="url(#p2ee567f8c8)">
     <!-- LFoot -->
     <g transform="translate(152.444559 710.643795)scale(0.1 -0.1)">
      <defs>
       <path d="M 9.8125 72.90625 
L 51.703125 72.90625 
L 51.703125 64.59375 
L 19.671875 64.59375 
L 19.671875 43.109375 
L 48.578125 43.109375 
L 48.578125 34.8125 
L 19.671875 34.8125 
L 19.671875 0 
L 9.8125 0 
z
" id="DejaVuSans-70"/>
      </defs>
      <use xlink:href="#DejaVuSans-76"/>
      <use x="55.712891" xlink:href="#DejaVuSans-70"/>
      <use x="109.607422" xlink:href="#DejaVuSans-111"/>
      <use x="170.789062" xlink:href="#DejaVuSans-111"/>
      <use x="231.970703" xlink:href="#DejaVuSans-116"/>
     </g>
    </g>
   </g>
   <g id="text_18">
    <g clip-path="url(#p2ee567f8c8)">
     <!-- RHip -->
     <g transform="translate(356.888616 384.461334)scale(0.1 -0.1)">
      <use xlink:href="#DejaVuSans-82"/>
      <use x="69.482422" xlink:href="#DejaVuSans-72"/>
      <use x="144.677734" xlink:href="#DejaVuSans-105"/>
      <use x="172.460938" xlink:href="#DejaVuSans-112"/>
     </g>
    </g>
   </g>
   <g id="text_19">
    <g clip-path="url(#p2ee567f8c8)">
     <!-- RKnee -->
     <g transform="translate(334.268487 564.719853)scale(0.1 -0.1)">
      <use xlink:href="#DejaVuSans-82"/>
      <use x="69.482422" xlink:href="#DejaVuSans-75"/>
      <use x="135.058594" xlink:href="#DejaVuSans-110"/>
      <use x="198.4375" xlink:href="#DejaVuSans-101"/>
      <use x="259.960938" xlink:href="#DejaVuSans-101"/>
     </g>
    </g>
   </g>
   <g id="text_20">
    <g clip-path="url(#p2ee567f8c8)">
     <!-- RAnkle -->
     <g transform="translate(276.843417 747.862931)scale(0.1 -0.1)">
      <use xlink:href="#DejaVuSans-82"/>
      <use x="65.482422" xlink:href="#DejaVuSans-65"/>
      <use x="133.890625" xlink:href="#DejaVuSans-110"/>
      <use x="197.269531" xlink:href="#DejaVuSans-107"/>
      <use x="255.179688" xlink:href="#DejaVuSans-108"/>
      <use x="282.962891" xlink:href="#DejaVuSans-101"/>
     </g>
    </g>
   </g>
   <g id="text_21">
    <g clip-path="url(#p2ee567f8c8)">
     <!-- RFoot -->
     <g transform="translate(269.263906 791.784168)scale(0.1 -0.1)">
      <use xlink:href="#DejaVuSans-82"/>
      <use x="69.482422" xlink:href="#DejaVuSans-70"/>
      <use x="123.376953" xlink:href="#DejaVuSans-111"/>
      <use x="184.558594" xlink:href="#DejaVuSans-111"/>
      <use x="245.740234" xlink:href="#DejaVuSans-116"/>
     </g>
    </g>
   </g>
   <g id="text_22">
    <g clip-path="url(#p2ee567f8c8)">
     <!-- LHandTip -->
     <g transform="translate(167.988072 380.986561)scale(0.1 -0.1)">
      <defs>
       <path d="M -0.296875 72.90625 
L 61.375 72.90625 
L 61.375 64.59375 
L 35.5 64.59375 
L 35.5 0 
L 25.59375 0 
L 25.59375 64.59375 
L -0.296875 64.59375 
z
" id="DejaVuSans-84"/>
      </defs>
      <use xlink:href="#DejaVuSans-76"/>
      <use x="55.712891" xlink:href="#DejaVuSans-72"/>
      <use x="130.908203" xlink:href="#DejaVuSans-97"/>
      <use x="192.1875" xlink:href="#DejaVuSans-110"/>
      <use x="255.566406" xlink:href="#DejaVuSans-100"/>
      <use x="319.042969" xlink:href="#DejaVuSans-84"/>
      <use x="377.001953" xlink:href="#DejaVuSans-105"/>
      <use x="404.785156" xlink:href="#DejaVuSans-112"/>
     </g>
    </g>
   </g>
   <g id="text_23">
    <g clip-path="url(#p2ee567f8c8)">
     <!-- LThumb -->
     <g transform="translate(184.486035 339.362224)scale(0.1 -0.1)">
      <defs>
       <path d="M 52 44.1875 
Q 55.375 50.25 60.0625 53.125 
Q 64.75 56 71.09375 56 
Q 79.640625 56 84.28125 50.015625 
Q 88.921875 44.046875 88.921875 33.015625 
L 88.921875 0 
L 79.890625 0 
L 79.890625 32.71875 
Q 79.890625 40.578125 77.09375 44.375 
Q 74.3125 48.1875 68.609375 48.1875 
Q 61.625 48.1875 57.5625 43.546875 
Q 53.515625 38.921875 53.515625 30.90625 
L 53.515625 0 
L 44.484375 0 
L 44.484375 32.71875 
Q 44.484375 40.625 41.703125 44.40625 
Q 38.921875 48.1875 33.109375 48.1875 
Q 26.21875 48.1875 22.15625 43.53125 
Q 18.109375 38.875 18.109375 30.90625 
L 18.109375 0 
L 9.078125 0 
L 9.078125 54.6875 
L 18.109375 54.6875 
L 18.109375 46.1875 
Q 21.1875 51.21875 25.484375 53.609375 
Q 29.78125 56 35.6875 56 
Q 41.65625 56 45.828125 52.96875 
Q 50 49.953125 52 44.1875 
z
" id="DejaVuSans-109"/>
      </defs>
      <use xlink:href="#DejaVuSans-76"/>
      <use x="41.962891" xlink:href="#DejaVuSans-84"/>
      <use x="103.046875" xlink:href="#DejaVuSans-104"/>
      <use x="166.425781" xlink:href="#DejaVuSans-117"/>
      <use x="229.804688" xlink:href="#DejaVuSans-109"/>
      <use x="327.216797" xlink:href="#DejaVuSans-98"/>
     </g>
    </g>
   </g>
   <g id="text_24">
    <g clip-path="url(#p2ee567f8c8)">
     <!-- RHandTip -->
     <g transform="translate(408.018004 421.798575)scale(0.1 -0.1)">
      <use xlink:href="#DejaVuSans-82"/>
      <use x="69.482422" xlink:href="#DejaVuSans-72"/>
      <use x="144.677734" xlink:href="#DejaVuSans-97"/>
      <use x="205.957031" xlink:href="#DejaVuSans-110"/>
      <use x="269.335938" xlink:href="#DejaVuSans-100"/>
      <use x="332.8125" xlink:href="#DejaVuSans-84"/>
      <use x="390.771484" xlink:href="#DejaVuSans-105"/>
      <use x="418.554688" xlink:href="#DejaVuSans-112"/>
     </g>
    </g>
   </g>
   <g id="text_25">
    <g clip-path="url(#p2ee567f8c8)">
     <!-- RThumb -->
     <g transform="translate(396.496281 386.041641)scale(0.1 -0.1)">
      <use xlink:href="#DejaVuSans-82"/>
      <use x="62.232422" xlink:href="#DejaVuSans-84"/>
      <use x="123.316406" xlink:href="#DejaVuSans-104"/>
      <use x="186.695312" xlink:href="#DejaVuSans-117"/>
      <use x="250.074219" xlink:href="#DejaVuSans-109"/>
      <use x="347.486328" xlink:href="#DejaVuSans-98"/>
     </g>
    </g>
   </g>
   <g id="text_26">
    <!-- Node Graph Visualization - Frame 168 -->
    <g transform="translate(174.194063 -6)scale(0.12 -0.12)">
     <defs>
      <path d="M 9.8125 72.90625 
L 23.09375 72.90625 
L 55.421875 11.921875 
L 55.421875 72.90625 
L 64.984375 72.90625 
L 64.984375 0 
L 51.703125 0 
L 19.390625 60.984375 
L 19.390625 0 
L 9.8125 0 
z
" id="DejaVuSans-78"/>
      <path id="DejaVuSans-32"/>
      <path d="M 59.515625 10.40625 
L 59.515625 29.984375 
L 43.40625 29.984375 
L 43.40625 38.09375 
L 69.28125 38.09375 
L 69.28125 6.78125 
Q 63.578125 2.734375 56.6875 0.65625 
Q 49.8125 -1.421875 42 -1.421875 
Q 24.90625 -1.421875 15.25 8.5625 
Q 5.609375 18.5625 5.609375 36.375 
Q 5.609375 54.25 15.25 64.234375 
Q 24.90625 74.21875 42 74.21875 
Q 49.125 74.21875 55.546875 72.453125 
Q 61.96875 70.703125 67.390625 67.28125 
L 67.390625 56.78125 
Q 61.921875 61.421875 55.765625 63.765625 
Q 49.609375 66.109375 42.828125 66.109375 
Q 29.4375 66.109375 22.71875 58.640625 
Q 16.015625 51.171875 16.015625 36.375 
Q 16.015625 21.625 22.71875 14.15625 
Q 29.4375 6.6875 42.828125 6.6875 
Q 48.046875 6.6875 52.140625 7.59375 
Q 56.25 8.5 59.515625 10.40625 
z
" id="DejaVuSans-71"/>
      <path d="M 28.609375 0 
L 0.78125 72.90625 
L 11.078125 72.90625 
L 34.1875 11.53125 
L 57.328125 72.90625 
L 67.578125 72.90625 
L 39.796875 0 
z
" id="DejaVuSans-86"/>
      <path d="M 5.515625 54.6875 
L 48.1875 54.6875 
L 48.1875 46.484375 
L 14.40625 7.171875 
L 48.1875 7.171875 
L 48.1875 0 
L 4.296875 0 
L 4.296875 8.203125 
L 38.09375 47.515625 
L 5.515625 47.515625 
z
" id="DejaVuSans-122"/>
      <path d="M 4.890625 31.390625 
L 31.203125 31.390625 
L 31.203125 23.390625 
L 4.890625 23.390625 
z
" id="DejaVuSans-45"/>
      <path d="M 12.40625 8.296875 
L 28.515625 8.296875 
L 28.515625 63.921875 
L 10.984375 60.40625 
L 10.984375 69.390625 
L 28.421875 72.90625 
L 38.28125 72.90625 
L 38.28125 8.296875 
L 54.390625 8.296875 
L 54.390625 0 
L 12.40625 0 
z
" id="DejaVuSans-49"/>
      <path d="M 33.015625 40.375 
Q 26.375 40.375 22.484375 35.828125 
Q 18.609375 31.296875 18.609375 23.390625 
Q 18.609375 15.53125 22.484375 10.953125 
Q 26.375 6.390625 33.015625 6.390625 
Q 39.65625 6.390625 43.53125 10.953125 
Q 47.40625 15.53125 47.40625 23.390625 
Q 47.40625 31.296875 43.53125 35.828125 
Q 39.65625 40.375 33.015625 40.375 
z
M 52.59375 71.296875 
L 52.59375 62.3125 
Q 48.875 64.0625 45.09375 64.984375 
Q 41.3125 65.921875 37.59375 65.921875 
Q 27.828125 65.921875 22.671875 59.328125 
Q 17.53125 52.734375 16.796875 39.40625 
Q 19.671875 43.65625 24.015625 45.921875 
Q 28.375 48.1875 33.59375 48.1875 
Q 44.578125 48.1875 50.953125 41.515625 
Q 57.328125 34.859375 57.328125 23.390625 
Q 57.328125 12.15625 50.6875 5.359375 
Q 44.046875 -1.421875 33.015625 -1.421875 
Q 20.359375 -1.421875 13.671875 8.265625 
Q 6.984375 17.96875 6.984375 36.375 
Q 6.984375 53.65625 15.1875 63.9375 
Q 23.390625 74.21875 37.203125 74.21875 
Q 40.921875 74.21875 44.703125 73.484375 
Q 48.484375 72.75 52.59375 71.296875 
z
" id="DejaVuSans-54"/>
      <path d="M 31.78125 34.625 
Q 24.75 34.625 20.71875 30.859375 
Q 16.703125 27.09375 16.703125 20.515625 
Q 16.703125 13.921875 20.71875 10.15625 
Q 24.75 6.390625 31.78125 6.390625 
Q 38.8125 6.390625 42.859375 10.171875 
Q 46.921875 13.96875 46.921875 20.515625 
Q 46.921875 27.09375 42.890625 30.859375 
Q 38.875 34.625 31.78125 34.625 
z
M 21.921875 38.8125 
Q 15.578125 40.375 12.03125 44.71875 
Q 8.5 49.078125 8.5 55.328125 
Q 8.5 64.0625 14.71875 69.140625 
Q 20.953125 74.21875 31.78125 74.21875 
Q 42.671875 74.21875 48.875 69.140625 
Q 55.078125 64.0625 55.078125 55.328125 
Q 55.078125 49.078125 51.53125 44.71875 
Q 48 40.375 41.703125 38.8125 
Q 48.828125 37.15625 52.796875 32.3125 
Q 56.78125 27.484375 56.78125 20.515625 
Q 56.78125 9.90625 50.3125 4.234375 
Q 43.84375 -1.421875 31.78125 -1.421875 
Q 19.734375 -1.421875 13.25 4.234375 
Q 6.78125 9.90625 6.78125 20.515625 
Q 6.78125 27.484375 10.78125 32.3125 
Q 14.796875 37.15625 21.921875 38.8125 
z
M 18.3125 54.390625 
Q 18.3125 48.734375 21.84375 45.5625 
Q 25.390625 42.390625 31.78125 42.390625 
Q 38.140625 42.390625 41.71875 45.5625 
Q 45.3125 48.734375 45.3125 54.390625 
Q 45.3125 60.0625 41.71875 63.234375 
Q 38.140625 66.40625 31.78125 66.40625 
Q 25.390625 66.40625 21.84375 63.234375 
Q 18.3125 60.0625 18.3125 54.390625 
z
" id="DejaVuSans-56"/>
     </defs>
     <use xlink:href="#DejaVuSans-78"/>
     <use x="74.804688" xlink:href="#DejaVuSans-111"/>
     <use x="135.986328" xlink:href="#DejaVuSans-100"/>
     <use x="199.462891" xlink:href="#DejaVuSans-101"/>
     <use x="260.986328" xlink:href="#DejaVuSans-32"/>
     <use x="292.773438" xlink:href="#DejaVuSans-71"/>
     <use x="370.263672" xlink:href="#DejaVuSans-114"/>
     <use x="411.376953" xlink:href="#DejaVuSans-97"/>
     <use x="472.65625" xlink:href="#DejaVuSans-112"/>
     <use x="536.132812" xlink:href="#DejaVuSans-104"/>
     <use x="599.511719" xlink:href="#DejaVuSans-32"/>
     <use x="631.298828" xlink:href="#DejaVuSans-86"/>
     <use x="697.457031" xlink:href="#DejaVuSans-105"/>
     <use x="725.240234" xlink:href="#DejaVuSans-115"/>
     <use x="777.339844" xlink:href="#DejaVuSans-117"/>
     <use x="840.71875" xlink:href="#DejaVuSans-97"/>
     <use x="901.998047" xlink:href="#DejaVuSans-108"/>
     <use x="929.78125" xlink:href="#DejaVuSans-105"/>
     <use x="957.564453" xlink:href="#DejaVuSans-122"/>
     <use x="1010.054688" xlink:href="#DejaVuSans-97"/>
     <use x="1071.333984" xlink:href="#DejaVuSans-116"/>
     <use x="1110.542969" xlink:href="#DejaVuSans-105"/>
     <use x="1138.326172" xlink:href="#DejaVuSans-111"/>
     <use x="1199.507812" xlink:href="#DejaVuSans-110"/>
     <use x="1262.886719" xlink:href="#DejaVuSans-32"/>
     <use x="1294.673828" xlink:href="#DejaVuSans-45"/>
     <use x="1330.757812" xlink:href="#DejaVuSans-32"/>
     <use x="1362.544922" xlink:href="#DejaVuSans-70"/>
     <use x="1412.814453" xlink:href="#DejaVuSans-114"/>
     <use x="1453.927734" xlink:href="#DejaVuSans-97"/>
     <use x="1515.207031" xlink:href="#DejaVuSans-109"/>
     <use x="1612.619141" xlink:href="#DejaVuSans-101"/>
     <use x="1674.142578" xlink:href="#DejaVuSans-32"/>
     <use x="1705.929688" xlink:href="#DejaVuSans-49"/>
     <use x="1769.552734" xlink:href="#DejaVuSans-54"/>
     <use x="1833.175781" xlink:href="#DejaVuSans-56"/>
    </g>
   </g>
  </g>
 </g>
 <defs>
  <clipPath id="p2ee567f8c8">
   <rect height="864" width="576" x="0" y="0"/>
  </clipPath>
 </defs>
</svg>
