<?xml version="1.0" encoding="utf-8" standalone="no"?>
<!DOCTYPE svg PUBLIC "-//W3C//DTD SVG 1.1//EN"
  "http://www.w3.org/Graphics/SVG/1.1/DTD/svg11.dtd">
<!-- Created with matplotlib (https://matplotlib.org/) -->
<svg height="864pt" version="1.1" viewBox="0 0 576 864" width="576pt" xmlns="http://www.w3.org/2000/svg" xmlns:xlink="http://www.w3.org/1999/xlink">
 <metadata>
  <rdf:RDF xmlns:cc="http://creativecommons.org/ns#" xmlns:dc="http://purl.org/dc/elements/1.1/" xmlns:rdf="http://www.w3.org/1999/02/22-rdf-syntax-ns#">
   <cc:Work>
    <dc:type rdf:resource="http://purl.org/dc/dcmitype/StillImage"/>
    <dc:date>2024-02-04T22:27:51.341511</dc:date>
    <dc:format>image/svg+xml</dc:format>
    <dc:creator>
     <cc:Agent>
      <dc:title>Matplotlib v3.3.2, https://matplotlib.org/</dc:title>
     </cc:Agent>
    </dc:creator>
   </cc:Work>
  </rdf:RDF>
 </metadata>
 <defs>
  <style type="text/css">*{stroke-linecap:butt;stroke-linejoin:round;}</style>
 </defs>
 <g id="figure_1">
  <g id="patch_1">
   <path d="M 0 864 
L 576 864 
L 576 0 
L 0 0 
z
" style="fill:#ffffff;"/>
  </g>
  <g id="axes_1">
   <g id="patch_2">
    <path clip-path="url(#pe6251ecd83)" d="M 330.273118 87.57375 
Q 327.1921 97.210624 324.451552 105.782567 
" style="fill:none;stroke:#000000;stroke-linecap:round;"/>
    <path clip-path="url(#pe6251ecd83)" d="M 327.574665 102.581604 
L 324.451552 105.782567 
L 323.76465 101.363498 
L 327.574665 102.581604 
z
" style="stroke:#000000;stroke-linecap:round;"/>
   </g>
   <g id="patch_3">
    <path clip-path="url(#pe6251ecd83)" d="M 317.502397 132.425909 
Q 317.312766 133.379888 317.341112 133.237287 
" style="fill:none;stroke:#000000;stroke-linecap:round;"/>
    <path clip-path="url(#pe6251ecd83)" d="M 320.082591 129.703975 
L 317.341112 133.237287 
L 316.15935 128.924117 
L 320.082591 129.703975 
z
" style="stroke:#000000;stroke-linecap:round;"/>
   </g>
   <g id="patch_4">
    <path clip-path="url(#pe6251ecd83)" d="M 324.109333 106.852968 
Q 327.190351 97.216093 329.930898 88.644151 
" style="fill:none;stroke:#000000;stroke-linecap:round;"/>
    <path clip-path="url(#pe6251ecd83)" d="M 326.807785 91.845114 
L 329.930898 88.644151 
L 330.617801 93.063219 
L 326.807785 91.845114 
z
" style="stroke:#000000;stroke-linecap:round;"/>
   </g>
   <g id="patch_5">
    <path clip-path="url(#pe6251ecd83)" d="M 311.94777 160.285379 
Q 305.911737 190.454973 300.095042 219.52826 
" style="fill:none;stroke:#000000;stroke-linecap:round;"/>
    <path clip-path="url(#pe6251ecd83)" d="M 302.840906 215.998355 
L 300.095042 219.52826 
L 298.918636 215.213626 
L 302.840906 215.998355 
z
" style="stroke:#000000;stroke-linecap:round;"/>
   </g>
   <g id="patch_6">
    <path clip-path="url(#pe6251ecd83)" d="M 301.384666 145.929058 
Q 232.177952 138.657724 164.083153 131.503215 
" style="fill:none;stroke:#000000;stroke-linecap:round;"/>
    <path clip-path="url(#pe6251ecd83)" d="M 167.852272 133.910234 
L 164.083153 131.503215 
L 168.270239 129.932131 
L 167.852272 133.910234 
z
" style="stroke:#000000;stroke-linecap:round;"/>
   </g>
   <g id="patch_7">
    <path clip-path="url(#pe6251ecd83)" d="M 327.765311 147.814377 
Q 406.315829 150.801296 483.74912 153.745732 
" style="fill:none;stroke:#000000;stroke-linecap:round;"/>
    <path clip-path="url(#pe6251ecd83)" d="M 479.828005 151.595185 
L 483.74912 153.745732 
L 479.676013 155.592296 
L 479.828005 151.595185 
z
" style="stroke:#000000;stroke-linecap:round;"/>
   </g>
   <g id="patch_8">
    <path clip-path="url(#pe6251ecd83)" d="M 317.122471 134.33721 
Q 317.312102 133.383232 317.283756 133.525832 
" style="fill:none;stroke:#000000;stroke-linecap:round;"/>
    <path clip-path="url(#pe6251ecd83)" d="M 314.542277 137.059144 
L 317.283756 133.525832 
L 318.465518 137.839002 
L 314.542277 137.059144 
z
" style="stroke:#000000;stroke-linecap:round;"/>
   </g>
   <g id="patch_9">
    <path clip-path="url(#pe6251ecd83)" d="M 294.663447 246.563137 
Q 285.307172 292.922026 276.172083 338.184978 
" style="fill:none;stroke:#000000;stroke-linecap:round;"/>
    <path clip-path="url(#pe6251ecd83)" d="M 278.923889 334.659704 
L 276.172083 338.184978 
L 275.002947 333.868369 
L 278.923889 334.659704 
z
" style="stroke:#000000;stroke-linecap:round;"/>
   </g>
   <g id="patch_10">
    <path clip-path="url(#pe6251ecd83)" d="M 299.876119 220.622493 
Q 305.912152 190.452899 311.728846 161.379612 
" style="fill:none;stroke:#000000;stroke-linecap:round;"/>
    <path clip-path="url(#pe6251ecd83)" d="M 308.982983 164.909517 
L 311.728846 161.379612 
L 312.905252 165.694246 
L 308.982983 164.909517 
z
" style="stroke:#000000;stroke-linecap:round;"/>
   </g>
   <g id="patch_11">
    <path clip-path="url(#pe6251ecd83)" d="M 260.106382 352.004643 
Q 231.180041 351.468382 203.371542 350.952846 
" style="fill:none;stroke:#000000;stroke-linecap:round;"/>
    <path clip-path="url(#pe6251ecd83)" d="M 207.333783 353.026645 
L 203.371542 350.952846 
L 207.407926 349.027332 
L 207.333783 353.026645 
z
" style="stroke:#000000;stroke-linecap:round;"/>
   </g>
   <g id="patch_12">
    <path clip-path="url(#pe6251ecd83)" d="M 286.510824 353.387455 
Q 315.279919 355.871083 342.935122 358.258549 
" style="fill:none;stroke:#000000;stroke-linecap:round;"/>
    <path clip-path="url(#pe6251ecd83)" d="M 339.121965 355.921921 
L 342.935122 358.258549 
L 338.777925 359.907098 
L 339.121965 355.921921 
z
" style="stroke:#000000;stroke-linecap:round;"/>
   </g>
   <g id="patch_13">
    <path clip-path="url(#pe6251ecd83)" d="M 275.95048 339.282984 
Q 285.306755 292.924094 294.441845 247.661142 
" style="fill:none;stroke:#000000;stroke-linecap:round;"/>
    <path clip-path="url(#pe6251ecd83)" d="M 291.690038 251.186417 
L 294.441845 247.661142 
L 295.610981 251.977752 
L 291.690038 251.186417 
z
" style="stroke:#000000;stroke-linecap:round;"/>
   </g>
   <g id="patch_14">
    <path clip-path="url(#pe6251ecd83)" d="M 139.840054 138.702168 
Q 99.89572 173.547925 60.793896 207.658712 
" style="fill:none;stroke:#000000;stroke-linecap:round;"/>
    <path clip-path="url(#pe6251ecd83)" d="M 65.122898 206.536332 
L 60.793896 207.658712 
L 62.493393 203.522082 
L 65.122898 206.536332 
z
" style="stroke:#000000;stroke-linecap:round;"/>
   </g>
   <g id="patch_15">
    <path clip-path="url(#pe6251ecd83)" d="M 162.970022 131.386262 
Q 232.176735 138.657596 300.271535 145.812105 
" style="fill:none;stroke:#000000;stroke-linecap:round;"/>
    <path clip-path="url(#pe6251ecd83)" d="M 296.502416 143.405087 
L 300.271535 145.812105 
L 296.084449 147.38319 
L 296.502416 143.405087 
z
" style="stroke:#000000;stroke-linecap:round;"/>
   </g>
   <g id="patch_16">
    <path clip-path="url(#pe6251ecd83)" d="M 62.49797 221.370096 
Q 144.403172 249.387346 225.250519 277.042735 
" style="fill:none;stroke:#000000;stroke-linecap:round;"/>
    <path clip-path="url(#pe6251ecd83)" d="M 222.113136 273.855758 
L 225.250519 277.042735 
L 220.818507 277.640455 
L 222.113136 273.855758 
z
" style="stroke:#000000;stroke-linecap:round;"/>
   </g>
   <g id="patch_17">
    <path clip-path="url(#pe6251ecd83)" d="M 59.954673 208.390815 
Q 99.899006 173.545058 139.000831 139.434271 
" style="fill:none;stroke:#000000;stroke-linecap:round;"/>
    <path clip-path="url(#pe6251ecd83)" d="M 134.671828 140.556651 
L 139.000831 139.434271 
L 137.301333 143.570901 
L 134.671828 140.556651 
z
" style="stroke:#000000;stroke-linecap:round;"/>
   </g>
   <g id="patch_18">
    <path clip-path="url(#pe6251ecd83)" d="M 251.756865 284.501578 
Q 276.108925 289.802713 299.368536 294.866037 
" style="fill:none;stroke:#000000;stroke-linecap:round;"/>
    <path clip-path="url(#pe6251ecd83)" d="M 295.885483 292.060981 
L 299.368536 294.866037 
L 295.034659 295.969446 
L 295.885483 292.060981 
z
" style="stroke:#000000;stroke-linecap:round;"/>
   </g>
   <g id="patch_19">
    <path clip-path="url(#pe6251ecd83)" d="M 226.313131 277.406222 
Q 144.407929 249.388973 63.560581 221.733583 
" style="fill:none;stroke:#000000;stroke-linecap:round;"/>
    <path clip-path="url(#pe6251ecd83)" d="M 66.697965 224.920561 
L 63.560581 221.733583 
L 67.992593 221.135863 
L 66.697965 224.920561 
z
" style="stroke:#000000;stroke-linecap:round;"/>
   </g>
   <g id="patch_20">
    <path clip-path="url(#pe6251ecd83)" d="M 325.399596 303.47099 
Q 331.08182 306.098213 335.749231 308.256229 
" style="fill:none;stroke:#000000;stroke-linecap:round;"/>
    <path clip-path="url(#pe6251ecd83)" d="M 332.957869 304.762191 
L 335.749231 308.256229 
L 331.279183 308.392895 
L 332.957869 304.762191 
z
" style="stroke:#000000;stroke-linecap:round;"/>
   </g>
   <g id="patch_21">
    <path clip-path="url(#pe6251ecd83)" d="M 326.133502 294.360025 
Q 335.758386 291.672396 344.30643 289.28546 
" style="fill:none;stroke:#000000;stroke-linecap:round;"/>
    <path clip-path="url(#pe6251ecd83)" d="M 339.915914 288.434947 
L 344.30643 289.28546 
L 340.99171 292.287565 
L 339.915914 288.434947 
z
" style="stroke:#000000;stroke-linecap:round;"/>
   </g>
   <g id="patch_22">
    <path clip-path="url(#pe6251ecd83)" d="M 300.461082 295.10387 
Q 276.109022 289.802734 252.849411 284.739411 
" style="fill:none;stroke:#000000;stroke-linecap:round;"/>
    <path clip-path="url(#pe6251ecd83)" d="M 256.332464 287.544467 
L 252.849411 284.739411 
L 257.183288 283.636002 
L 256.332464 287.544467 
z
" style="stroke:#000000;stroke-linecap:round;"/>
   </g>
   <g id="patch_23">
    <path clip-path="url(#pe6251ecd83)" d="M 501.275576 167.131823 
Q 512.051799 210.528814 522.558576 252.840724 
" style="fill:none;stroke:#000000;stroke-linecap:round;"/>
    <path clip-path="url(#pe6251ecd83)" d="M 523.535634 248.476625 
L 522.558576 252.840724 
L 519.653532 249.440618 
L 523.535634 248.476625 
z
" style="stroke:#000000;stroke-linecap:round;"/>
   </g>
   <g id="patch_24">
    <path clip-path="url(#pe6251ecd83)" d="M 484.865084 153.788167 
Q 406.314566 150.801248 328.881274 147.856812 
" style="fill:none;stroke:#000000;stroke-linecap:round;"/>
    <path clip-path="url(#pe6251ecd83)" d="M 332.80239 150.00736 
L 328.881274 147.856812 
L 332.954382 146.010248 
L 332.80239 150.00736 
z
" style="stroke:#000000;stroke-linecap:round;"/>
   </g>
   <g id="patch_25">
    <path clip-path="url(#pe6251ecd83)" d="M 512.958274 268.891229 
Q 435.379834 281.515525 358.904912 293.960247 
" style="fill:none;stroke:#000000;stroke-linecap:round;"/>
    <path clip-path="url(#pe6251ecd83)" d="M 363.174213 295.291814 
L 358.904912 293.960247 
L 362.531746 291.343747 
L 363.174213 295.291814 
z
" style="stroke:#000000;stroke-linecap:round;"/>
   </g>
   <g id="patch_26">
    <path clip-path="url(#pe6251ecd83)" d="M 522.827915 253.925378 
Q 512.051693 210.528388 501.544915 168.216478 
" style="fill:none;stroke:#000000;stroke-linecap:round;"/>
    <path clip-path="url(#pe6251ecd83)" d="M 500.567857 172.580576 
L 501.544915 168.216478 
L 504.449959 171.616583 
L 500.567857 172.580576 
z
" style="stroke:#000000;stroke-linecap:round;"/>
   </g>
   <g id="patch_27">
    <path clip-path="url(#pe6251ecd83)" d="M 331.655482 298.188841 
Q 329.923527 298.443464 329.297715 298.535467 
" style="fill:none;stroke:#000000;stroke-linecap:round;"/>
    <path clip-path="url(#pe6251ecd83)" d="M 333.546079 299.932393 
L 329.297715 298.535467 
L 332.964275 295.974932 
L 333.546079 299.932393 
z
" style="stroke:#000000;stroke-linecap:round;"/>
   </g>
   <g id="patch_28">
    <path clip-path="url(#pe6251ecd83)" d="M 357.802641 294.139619 
Q 435.381081 281.515322 511.856003 269.070601 
" style="fill:none;stroke:#000000;stroke-linecap:round;"/>
    <path clip-path="url(#pe6251ecd83)" d="M 507.586702 267.739034 
L 511.856003 269.070601 
L 508.229169 271.687101 
L 507.586702 267.739034 
z
" style="stroke:#000000;stroke-linecap:round;"/>
   </g>
   <g id="patch_29">
    <path clip-path="url(#pe6251ecd83)" d="M 302.504735 304.67553 
Q 297.421401 306.311211 293.402359 307.604431 
" style="fill:none;stroke:#000000;stroke-linecap:round;"/>
    <path clip-path="url(#pe6251ecd83)" d="M 297.822704 308.283071 
L 293.402359 307.604431 
L 296.597478 304.475339 
L 297.822704 308.283071 
z
" style="stroke:#000000;stroke-linecap:round;"/>
   </g>
   <g id="patch_30">
    <path clip-path="url(#pe6251ecd83)" d="M 302.254555 297.441755 
Q 296.260608 295.957415 291.351913 294.741827 
" style="fill:none;stroke:#000000;stroke-linecap:round;"/>
    <path clip-path="url(#pe6251ecd83)" d="M 294.753872 297.6447 
L 291.351913 294.741827 
L 295.715387 293.761983 
L 294.753872 297.6447 
z
" style="stroke:#000000;stroke-linecap:round;"/>
   </g>
   <g id="patch_31">
    <path clip-path="url(#pe6251ecd83)" d="M 328.18875 298.698501 
Q 329.920706 298.443878 330.546517 298.351875 
" style="fill:none;stroke:#000000;stroke-linecap:round;"/>
    <path clip-path="url(#pe6251ecd83)" d="M 326.298153 296.954949 
L 330.546517 298.351875 
L 326.879958 300.91241 
L 326.298153 296.954949 
z
" style="stroke:#000000;stroke-linecap:round;"/>
   </g>
   <g id="patch_32">
    <path clip-path="url(#pe6251ecd83)" d="M 183.259254 362.592166 
Q 146.988403 437.473646 111.204937 511.348918 
" style="fill:none;stroke:#000000;stroke-linecap:round;"/>
    <path clip-path="url(#pe6251ecd83)" d="M 114.748617 508.620855 
L 111.204937 511.348918 
L 111.148695 506.877136 
L 114.748617 508.620855 
z
" style="stroke:#000000;stroke-linecap:round;"/>
   </g>
   <g id="patch_33">
    <path clip-path="url(#pe6251ecd83)" d="M 202.252981 350.932109 
Q 231.179322 351.468369 258.987821 351.983906 
" style="fill:none;stroke:#000000;stroke-linecap:round;"/>
    <path clip-path="url(#pe6251ecd83)" d="M 255.025579 349.910107 
L 258.987821 351.983906 
L 254.951437 353.90942 
L 255.025579 349.910107 
z
" style="stroke:#000000;stroke-linecap:round;"/>
   </g>
   <g id="patch_34">
    <path clip-path="url(#pe6251ecd83)" d="M 103.448152 537.404629 
Q 95.525682 606.74197 87.730133 674.968505 
" style="fill:none;stroke:#000000;stroke-linecap:round;"/>
    <path clip-path="url(#pe6251ecd83)" d="M 90.171289 671.221405 
L 87.730133 674.968505 
L 86.197146 670.76732 
L 90.171289 671.221405 
z
" style="stroke:#000000;stroke-linecap:round;"/>
   </g>
   <g id="patch_35">
    <path clip-path="url(#pe6251ecd83)" d="M 110.716367 512.357575 
Q 146.987217 437.476095 182.770684 363.600824 
" style="fill:none;stroke:#000000;stroke-linecap:round;"/>
    <path clip-path="url(#pe6251ecd83)" d="M 179.227003 366.328887 
L 182.770684 363.600824 
L 182.826926 368.072606 
L 179.227003 366.328887 
z
" style="stroke:#000000;stroke-linecap:round;"/>
   </g>
   <g id="patch_36">
    <path clip-path="url(#pe6251ecd83)" d="M 81.623648 701.672158 
Q 77.71747 712.531847 74.189707 722.33949 
" style="fill:none;stroke:#000000;stroke-linecap:round;"/>
    <path clip-path="url(#pe6251ecd83)" d="M 77.425527 719.252506 
L 74.189707 722.33949 
L 73.661612 717.898644 
L 77.425527 719.252506 
z
" style="stroke:#000000;stroke-linecap:round;"/>
   </g>
   <g id="patch_37">
    <path clip-path="url(#pe6251ecd83)" d="M 87.602932 676.081764 
Q 95.525402 606.744423 103.320951 538.517888 
" style="fill:none;stroke:#000000;stroke-linecap:round;"/>
    <path clip-path="url(#pe6251ecd83)" d="M 100.879796 542.264988 
L 103.320951 538.517888 
L 104.853938 542.719073 
L 100.879796 542.264988 
z
" style="stroke:#000000;stroke-linecap:round;"/>
   </g>
   <g id="patch_38">
    <path clip-path="url(#pe6251ecd83)" d="M 73.810433 723.393921 
Q 77.716612 712.534232 81.244374 702.726589 
" style="fill:none;stroke:#000000;stroke-linecap:round;"/>
    <path clip-path="url(#pe6251ecd83)" d="M 78.008555 705.813573 
L 81.244374 702.726589 
L 81.77247 707.167435 
L 78.008555 705.813573 
z
" style="stroke:#000000;stroke-linecap:round;"/>
   </g>
   <g id="patch_39">
    <path clip-path="url(#pe6251ecd83)" d="M 356.233789 372.680855 
Q 350.071826 454.575884 343.993748 535.35603 
" style="fill:none;stroke:#000000;stroke-linecap:round;"/>
    <path clip-path="url(#pe6251ecd83)" d="M 346.288232 531.517366 
L 343.993748 535.35603 
L 342.299506 531.217245 
L 346.288232 531.517366 
z
" style="stroke:#000000;stroke-linecap:round;"/>
   </g>
   <g id="patch_40">
    <path clip-path="url(#pe6251ecd83)" d="M 344.048773 358.35469 
Q 315.279679 355.871062 287.624475 353.483596 
" style="fill:none;stroke:#000000;stroke-linecap:round;"/>
    <path clip-path="url(#pe6251ecd83)" d="M 291.437633 355.820224 
L 287.624475 353.483596 
L 291.781672 351.835047 
L 291.437633 355.820224 
z
" style="stroke:#000000;stroke-linecap:round;"/>
   </g>
   <g id="patch_41">
    <path clip-path="url(#pe6251ecd83)" d="M 338.476618 562.126958 
Q 307.538248 648.964409 276.975108 734.748673 
" style="fill:none;stroke:#000000;stroke-linecap:round;"/>
    <path clip-path="url(#pe6251ecd83)" d="M 280.201565 731.651905 
L 276.975108 734.748673 
L 276.433568 730.309446 
L 280.201565 731.651905 
z
" style="stroke:#000000;stroke-linecap:round;"/>
   </g>
   <g id="patch_42">
    <path clip-path="url(#pe6251ecd83)" d="M 343.909596 536.474451 
Q 350.071559 454.579422 356.149636 373.799276 
" style="fill:none;stroke:#000000;stroke-linecap:round;"/>
    <path clip-path="url(#pe6251ecd83)" d="M 353.855153 377.637941 
L 356.149636 373.799276 
L 357.843878 377.938061 
L 353.855153 377.637941 
z
" style="stroke:#000000;stroke-linecap:round;"/>
   </g>
   <g id="patch_43">
    <path clip-path="url(#pe6251ecd83)" d="M 271.403752 761.472939 
Q 270.992832 768.645098 270.645863 774.701054 
" style="fill:none;stroke:#000000;stroke-linecap:round;"/>
    <path clip-path="url(#pe6251ecd83)" d="M 272.871389 770.822003 
L 270.645863 774.701054 
L 268.877938 770.593203 
L 272.871389 770.822003 
z
" style="stroke:#000000;stroke-linecap:round;"/>
   </g>
   <g id="patch_44">
    <path clip-path="url(#pe6251ecd83)" d="M 276.60131 735.797843 
Q 307.53968 648.960392 338.10282 563.176129 
" style="fill:none;stroke:#000000;stroke-linecap:round;"/>
    <path clip-path="url(#pe6251ecd83)" d="M 334.876363 566.272897 
L 338.10282 563.176129 
L 338.64436 567.615356 
L 334.876363 566.272897 
z
" style="stroke:#000000;stroke-linecap:round;"/>
   </g>
   <g id="patch_45">
    <path clip-path="url(#pe6251ecd83)" d="M 270.582119 775.813637 
Q 270.993039 768.641477 271.340008 762.585522 
" style="fill:none;stroke:#000000;stroke-linecap:round;"/>
    <path clip-path="url(#pe6251ecd83)" d="M 269.114483 766.464573 
L 271.340008 762.585522 
L 273.107933 766.693372 
L 269.114483 766.464573 
z
" style="stroke:#000000;stroke-linecap:round;"/>
   </g>
   <g id="patch_46">
    <path clip-path="url(#pe6251ecd83)" d="M 324.754764 303.172847 
Q 319.072541 300.545624 314.40513 298.387608 
" style="fill:none;stroke:#000000;stroke-linecap:round;"/>
    <path clip-path="url(#pe6251ecd83)" d="M 317.196491 301.881646 
L 314.40513 298.387608 
L 318.875177 298.250942 
L 317.196491 301.881646 
z
" style="stroke:#000000;stroke-linecap:round;"/>
   </g>
   <g id="patch_47">
    <path clip-path="url(#pe6251ecd83)" d="M 345.383438 288.984719 
Q 335.758555 291.672349 327.21051 294.059284 
" style="fill:none;stroke:#000000;stroke-linecap:round;"/>
    <path clip-path="url(#pe6251ecd83)" d="M 331.601026 294.909797 
L 327.21051 294.059284 
L 330.52523 291.057179 
L 331.601026 294.909797 
z
" style="stroke:#000000;stroke-linecap:round;"/>
   </g>
   <g id="patch_48">
    <path clip-path="url(#pe6251ecd83)" d="M 304.933177 303.894123 
Q 310.016512 302.258441 314.035553 300.965221 
" style="fill:none;stroke:#000000;stroke-linecap:round;"/>
    <path clip-path="url(#pe6251ecd83)" d="M 309.615208 300.286582 
L 314.035553 300.965221 
L 310.840434 304.094314 
L 309.615208 300.286582 
z
" style="stroke:#000000;stroke-linecap:round;"/>
   </g>
   <g id="patch_49">
    <path clip-path="url(#pe6251ecd83)" d="M 290.269295 294.473727 
Q 296.263242 295.958067 301.171937 297.173655 
" style="fill:none;stroke:#000000;stroke-linecap:round;"/>
    <path clip-path="url(#pe6251ecd83)" d="M 297.769978 294.270782 
L 301.171937 297.173655 
L 296.808463 298.153499 
L 297.769978 294.270782 
z
" style="stroke:#000000;stroke-linecap:round;"/>
   </g>
   <g id="PathCollection_1">
    <defs>
     <path d="M 0 13.228757 
C 3.508307 13.228757 6.873396 11.834891 9.354143 9.354143 
C 11.834891 6.873396 13.228757 3.508307 13.228757 0 
C 13.228757 -3.508307 11.834891 -6.873396 9.354143 -9.354143 
C 6.873396 -11.834891 3.508307 -13.228757 0 -13.228757 
C -3.508307 -13.228757 -6.873396 -11.834891 -9.354143 -9.354143 
C -11.834891 -6.873396 -13.228757 -3.508307 -13.228757 0 
C -13.228757 3.508307 -11.834891 6.873396 -9.354143 9.354143 
C -6.873396 11.834891 -3.508307 13.228757 0 13.228757 
z
" id="m0b974e91ef" style="stroke:#87ceeb;"/>
    </defs>
    <g clip-path="url(#pe6251ecd83)">
     <use style="fill:#87ceeb;stroke:#87ceeb;" x="334.301015" xlink:href="#m0b974e91ef" y="74.975207"/>
     <use style="fill:#87ceeb;stroke:#87ceeb;" x="320.081436" xlink:href="#m0b974e91ef" y="119.451511"/>
     <use style="fill:#87ceeb;stroke:#87ceeb;" x="314.543433" xlink:href="#m0b974e91ef" y="147.311609"/>
     <use style="fill:#87ceeb;stroke:#87ceeb;" x="297.280456" xlink:href="#m0b974e91ef" y="233.596263"/>
     <use style="fill:#87ceeb;stroke:#87ceeb;" x="273.333471" xlink:href="#m0b974e91ef" y="352.249858"/>
     <use style="fill:#87ceeb;stroke:#87ceeb;" x="149.811255" xlink:href="#m0b974e91ef" y="130.003711"/>
     <use style="fill:#87ceeb;stroke:#87ceeb;" x="49.983471" xlink:href="#m0b974e91ef" y="217.089272"/>
     <use style="fill:#87ceeb;stroke:#87ceeb;" x="238.82763" xlink:href="#m0b974e91ef" y="281.687047"/>
     <use style="fill:#87ceeb;stroke:#87ceeb;" x="313.390317" xlink:href="#m0b974e91ef" y="297.918401"/>
     <use style="fill:#87ceeb;stroke:#87ceeb;" x="498.086962" xlink:href="#m0b974e91ef" y="154.290935"/>
     <use style="fill:#87ceeb;stroke:#87ceeb;" x="526.016529" xlink:href="#m0b974e91ef" y="266.766266"/>
     <use style="fill:#87ceeb;stroke:#87ceeb;" x="344.744386" xlink:href="#m0b974e91ef" y="296.264582"/>
     <use style="fill:#87ceeb;stroke:#87ceeb;" x="315.099846" xlink:href="#m0b974e91ef" y="300.62276"/>
     <use style="fill:#87ceeb;stroke:#87ceeb;" x="189.025891" xlink:href="#m0b974e91ef" y="350.686894"/>
     <use style="fill:#87ceeb;stroke:#87ceeb;" x="104.949729" xlink:href="#m0b974e91ef" y="524.262847"/>
     <use style="fill:#87ceeb;stroke:#87ceeb;" x="86.101355" xlink:href="#m0b974e91ef" y="689.223545"/>
     <use style="fill:#87ceeb;stroke:#87ceeb;" x="69.332726" xlink:href="#m0b974e91ef" y="735.842534"/>
     <use style="fill:#87ceeb;stroke:#87ceeb;" x="357.226126" xlink:href="#m0b974e91ef" y="359.492287"/>
     <use style="fill:#87ceeb;stroke:#87ceeb;" x="342.917259" xlink:href="#m0b974e91ef" y="549.663019"/>
     <use style="fill:#87ceeb;stroke:#87ceeb;" x="272.160669" xlink:href="#m0b974e91ef" y="748.261782"/>
     <use style="fill:#87ceeb;stroke:#87ceeb;" x="269.825202" xlink:href="#m0b974e91ef" y="789.024793"/>
     <use style="fill:#87ceeb;stroke:#87ceeb;" x="336.764043" xlink:href="#m0b974e91ef" y="308.725436"/>
     <use style="fill:#87ceeb;stroke:#87ceeb;" x="358.126623" xlink:href="#m0b974e91ef" y="285.426343"/>
     <use style="fill:#87ceeb;stroke:#87ceeb;" x="292.338066" xlink:href="#m0b974e91ef" y="307.946893"/>
     <use style="fill:#87ceeb;stroke:#87ceeb;" x="277.424004" xlink:href="#m0b974e91ef" y="291.292722"/>
    </g>
   </g>
   <g id="text_1">
    <g clip-path="url(#pe6251ecd83)">
     <!-- Head -->
     <g transform="translate(321.226015 77.734582)scale(0.1 -0.1)">
      <defs>
       <path d="M 9.8125 72.90625 
L 19.671875 72.90625 
L 19.671875 43.015625 
L 55.515625 43.015625 
L 55.515625 72.90625 
L 65.375 72.90625 
L 65.375 0 
L 55.515625 0 
L 55.515625 34.71875 
L 19.671875 34.71875 
L 19.671875 0 
L 9.8125 0 
z
" id="DejaVuSans-72"/>
       <path d="M 56.203125 29.59375 
L 56.203125 25.203125 
L 14.890625 25.203125 
Q 15.484375 15.921875 20.484375 11.0625 
Q 25.484375 6.203125 34.421875 6.203125 
Q 39.59375 6.203125 44.453125 7.46875 
Q 49.3125 8.734375 54.109375 11.28125 
L 54.109375 2.78125 
Q 49.265625 0.734375 44.1875 -0.34375 
Q 39.109375 -1.421875 33.890625 -1.421875 
Q 20.796875 -1.421875 13.15625 6.1875 
Q 5.515625 13.8125 5.515625 26.8125 
Q 5.515625 40.234375 12.765625 48.109375 
Q 20.015625 56 32.328125 56 
Q 43.359375 56 49.78125 48.890625 
Q 56.203125 41.796875 56.203125 29.59375 
z
M 47.21875 32.234375 
Q 47.125 39.59375 43.09375 43.984375 
Q 39.0625 48.390625 32.421875 48.390625 
Q 24.90625 48.390625 20.390625 44.140625 
Q 15.875 39.890625 15.1875 32.171875 
z
" id="DejaVuSans-101"/>
       <path d="M 34.28125 27.484375 
Q 23.390625 27.484375 19.1875 25 
Q 14.984375 22.515625 14.984375 16.5 
Q 14.984375 11.71875 18.140625 8.90625 
Q 21.296875 6.109375 26.703125 6.109375 
Q 34.1875 6.109375 38.703125 11.40625 
Q 43.21875 16.703125 43.21875 25.484375 
L 43.21875 27.484375 
z
M 52.203125 31.203125 
L 52.203125 0 
L 43.21875 0 
L 43.21875 8.296875 
Q 40.140625 3.328125 35.546875 0.953125 
Q 30.953125 -1.421875 24.3125 -1.421875 
Q 15.921875 -1.421875 10.953125 3.296875 
Q 6 8.015625 6 15.921875 
Q 6 25.140625 12.171875 29.828125 
Q 18.359375 34.515625 30.609375 34.515625 
L 43.21875 34.515625 
L 43.21875 35.40625 
Q 43.21875 41.609375 39.140625 45 
Q 35.0625 48.390625 27.6875 48.390625 
Q 23 48.390625 18.546875 47.265625 
Q 14.109375 46.140625 10.015625 43.890625 
L 10.015625 52.203125 
Q 14.9375 54.109375 19.578125 55.046875 
Q 24.21875 56 28.609375 56 
Q 40.484375 56 46.34375 49.84375 
Q 52.203125 43.703125 52.203125 31.203125 
z
" id="DejaVuSans-97"/>
       <path d="M 45.40625 46.390625 
L 45.40625 75.984375 
L 54.390625 75.984375 
L 54.390625 0 
L 45.40625 0 
L 45.40625 8.203125 
Q 42.578125 3.328125 38.25 0.953125 
Q 33.9375 -1.421875 27.875 -1.421875 
Q 17.96875 -1.421875 11.734375 6.484375 
Q 5.515625 14.40625 5.515625 27.296875 
Q 5.515625 40.1875 11.734375 48.09375 
Q 17.96875 56 27.875 56 
Q 33.9375 56 38.25 53.625 
Q 42.578125 51.265625 45.40625 46.390625 
z
M 14.796875 27.296875 
Q 14.796875 17.390625 18.875 11.75 
Q 22.953125 6.109375 30.078125 6.109375 
Q 37.203125 6.109375 41.296875 11.75 
Q 45.40625 17.390625 45.40625 27.296875 
Q 45.40625 37.203125 41.296875 42.84375 
Q 37.203125 48.484375 30.078125 48.484375 
Q 22.953125 48.484375 18.875 42.84375 
Q 14.796875 37.203125 14.796875 27.296875 
z
" id="DejaVuSans-100"/>
      </defs>
      <use xlink:href="#DejaVuSans-72"/>
      <use x="75.195312" xlink:href="#DejaVuSans-101"/>
      <use x="136.71875" xlink:href="#DejaVuSans-97"/>
      <use x="197.998047" xlink:href="#DejaVuSans-100"/>
     </g>
    </g>
   </g>
   <g id="text_2">
    <g clip-path="url(#pe6251ecd83)">
     <!-- c7 -->
     <g transform="translate(314.150967 122.210886)scale(0.1 -0.1)">
      <defs>
       <path d="M 48.78125 52.59375 
L 48.78125 44.1875 
Q 44.96875 46.296875 41.140625 47.34375 
Q 37.3125 48.390625 33.40625 48.390625 
Q 24.65625 48.390625 19.8125 42.84375 
Q 14.984375 37.3125 14.984375 27.296875 
Q 14.984375 17.28125 19.8125 11.734375 
Q 24.65625 6.203125 33.40625 6.203125 
Q 37.3125 6.203125 41.140625 7.25 
Q 44.96875 8.296875 48.78125 10.40625 
L 48.78125 2.09375 
Q 45.015625 0.34375 40.984375 -0.53125 
Q 36.96875 -1.421875 32.421875 -1.421875 
Q 20.0625 -1.421875 12.78125 6.34375 
Q 5.515625 14.109375 5.515625 27.296875 
Q 5.515625 40.671875 12.859375 48.328125 
Q 20.21875 56 33.015625 56 
Q 37.15625 56 41.109375 55.140625 
Q 45.0625 54.296875 48.78125 52.59375 
z
" id="DejaVuSans-99"/>
       <path d="M 8.203125 72.90625 
L 55.078125 72.90625 
L 55.078125 68.703125 
L 28.609375 0 
L 18.3125 0 
L 43.21875 64.59375 
L 8.203125 64.59375 
z
" id="DejaVuSans-55"/>
      </defs>
      <use xlink:href="#DejaVuSans-99"/>
      <use x="54.980469" xlink:href="#DejaVuSans-55"/>
     </g>
    </g>
   </g>
   <g id="text_3">
    <g clip-path="url(#pe6251ecd83)">
     <!-- SpineShoulder -->
     <g transform="translate(278.294214 150.070984)scale(0.1 -0.1)">
      <defs>
       <path d="M 53.515625 70.515625 
L 53.515625 60.890625 
Q 47.90625 63.578125 42.921875 64.890625 
Q 37.9375 66.21875 33.296875 66.21875 
Q 25.25 66.21875 20.875 63.09375 
Q 16.5 59.96875 16.5 54.203125 
Q 16.5 49.359375 19.40625 46.890625 
Q 22.3125 44.4375 30.421875 42.921875 
L 36.375 41.703125 
Q 47.40625 39.59375 52.65625 34.296875 
Q 57.90625 29 57.90625 20.125 
Q 57.90625 9.515625 50.796875 4.046875 
Q 43.703125 -1.421875 29.984375 -1.421875 
Q 24.8125 -1.421875 18.96875 -0.25 
Q 13.140625 0.921875 6.890625 3.21875 
L 6.890625 13.375 
Q 12.890625 10.015625 18.65625 8.296875 
Q 24.421875 6.59375 29.984375 6.59375 
Q 38.421875 6.59375 43.015625 9.90625 
Q 47.609375 13.234375 47.609375 19.390625 
Q 47.609375 24.75 44.3125 27.78125 
Q 41.015625 30.8125 33.5 32.328125 
L 27.484375 33.5 
Q 16.453125 35.6875 11.515625 40.375 
Q 6.59375 45.0625 6.59375 53.421875 
Q 6.59375 63.09375 13.40625 68.65625 
Q 20.21875 74.21875 32.171875 74.21875 
Q 37.3125 74.21875 42.625 73.28125 
Q 47.953125 72.359375 53.515625 70.515625 
z
" id="DejaVuSans-83"/>
       <path d="M 18.109375 8.203125 
L 18.109375 -20.796875 
L 9.078125 -20.796875 
L 9.078125 54.6875 
L 18.109375 54.6875 
L 18.109375 46.390625 
Q 20.953125 51.265625 25.265625 53.625 
Q 29.59375 56 35.59375 56 
Q 45.5625 56 51.78125 48.09375 
Q 58.015625 40.1875 58.015625 27.296875 
Q 58.015625 14.40625 51.78125 6.484375 
Q 45.5625 -1.421875 35.59375 -1.421875 
Q 29.59375 -1.421875 25.265625 0.953125 
Q 20.953125 3.328125 18.109375 8.203125 
z
M 48.6875 27.296875 
Q 48.6875 37.203125 44.609375 42.84375 
Q 40.53125 48.484375 33.40625 48.484375 
Q 26.265625 48.484375 22.1875 42.84375 
Q 18.109375 37.203125 18.109375 27.296875 
Q 18.109375 17.390625 22.1875 11.75 
Q 26.265625 6.109375 33.40625 6.109375 
Q 40.53125 6.109375 44.609375 11.75 
Q 48.6875 17.390625 48.6875 27.296875 
z
" id="DejaVuSans-112"/>
       <path d="M 9.421875 54.6875 
L 18.40625 54.6875 
L 18.40625 0 
L 9.421875 0 
z
M 9.421875 75.984375 
L 18.40625 75.984375 
L 18.40625 64.59375 
L 9.421875 64.59375 
z
" id="DejaVuSans-105"/>
       <path d="M 54.890625 33.015625 
L 54.890625 0 
L 45.90625 0 
L 45.90625 32.71875 
Q 45.90625 40.484375 42.875 44.328125 
Q 39.84375 48.1875 33.796875 48.1875 
Q 26.515625 48.1875 22.3125 43.546875 
Q 18.109375 38.921875 18.109375 30.90625 
L 18.109375 0 
L 9.078125 0 
L 9.078125 54.6875 
L 18.109375 54.6875 
L 18.109375 46.1875 
Q 21.34375 51.125 25.703125 53.5625 
Q 30.078125 56 35.796875 56 
Q 45.21875 56 50.046875 50.171875 
Q 54.890625 44.34375 54.890625 33.015625 
z
" id="DejaVuSans-110"/>
       <path d="M 54.890625 33.015625 
L 54.890625 0 
L 45.90625 0 
L 45.90625 32.71875 
Q 45.90625 40.484375 42.875 44.328125 
Q 39.84375 48.1875 33.796875 48.1875 
Q 26.515625 48.1875 22.3125 43.546875 
Q 18.109375 38.921875 18.109375 30.90625 
L 18.109375 0 
L 9.078125 0 
L 9.078125 75.984375 
L 18.109375 75.984375 
L 18.109375 46.1875 
Q 21.34375 51.125 25.703125 53.5625 
Q 30.078125 56 35.796875 56 
Q 45.21875 56 50.046875 50.171875 
Q 54.890625 44.34375 54.890625 33.015625 
z
" id="DejaVuSans-104"/>
       <path d="M 30.609375 48.390625 
Q 23.390625 48.390625 19.1875 42.75 
Q 14.984375 37.109375 14.984375 27.296875 
Q 14.984375 17.484375 19.15625 11.84375 
Q 23.34375 6.203125 30.609375 6.203125 
Q 37.796875 6.203125 41.984375 11.859375 
Q 46.1875 17.53125 46.1875 27.296875 
Q 46.1875 37.015625 41.984375 42.703125 
Q 37.796875 48.390625 30.609375 48.390625 
z
M 30.609375 56 
Q 42.328125 56 49.015625 48.375 
Q 55.71875 40.765625 55.71875 27.296875 
Q 55.71875 13.875 49.015625 6.21875 
Q 42.328125 -1.421875 30.609375 -1.421875 
Q 18.84375 -1.421875 12.171875 6.21875 
Q 5.515625 13.875 5.515625 27.296875 
Q 5.515625 40.765625 12.171875 48.375 
Q 18.84375 56 30.609375 56 
z
" id="DejaVuSans-111"/>
       <path d="M 8.5 21.578125 
L 8.5 54.6875 
L 17.484375 54.6875 
L 17.484375 21.921875 
Q 17.484375 14.15625 20.5 10.265625 
Q 23.53125 6.390625 29.59375 6.390625 
Q 36.859375 6.390625 41.078125 11.03125 
Q 45.3125 15.671875 45.3125 23.6875 
L 45.3125 54.6875 
L 54.296875 54.6875 
L 54.296875 0 
L 45.3125 0 
L 45.3125 8.40625 
Q 42.046875 3.421875 37.71875 1 
Q 33.40625 -1.421875 27.6875 -1.421875 
Q 18.265625 -1.421875 13.375 4.4375 
Q 8.5 10.296875 8.5 21.578125 
z
M 31.109375 56 
z
" id="DejaVuSans-117"/>
       <path d="M 9.421875 75.984375 
L 18.40625 75.984375 
L 18.40625 0 
L 9.421875 0 
z
" id="DejaVuSans-108"/>
       <path d="M 41.109375 46.296875 
Q 39.59375 47.171875 37.8125 47.578125 
Q 36.03125 48 33.890625 48 
Q 26.265625 48 22.1875 43.046875 
Q 18.109375 38.09375 18.109375 28.8125 
L 18.109375 0 
L 9.078125 0 
L 9.078125 54.6875 
L 18.109375 54.6875 
L 18.109375 46.1875 
Q 20.953125 51.171875 25.484375 53.578125 
Q 30.03125 56 36.53125 56 
Q 37.453125 56 38.578125 55.875 
Q 39.703125 55.765625 41.0625 55.515625 
z
" id="DejaVuSans-114"/>
      </defs>
      <use xlink:href="#DejaVuSans-83"/>
      <use x="63.476562" xlink:href="#DejaVuSans-112"/>
      <use x="126.953125" xlink:href="#DejaVuSans-105"/>
      <use x="154.736328" xlink:href="#DejaVuSans-110"/>
      <use x="218.115234" xlink:href="#DejaVuSans-101"/>
      <use x="279.638672" xlink:href="#DejaVuSans-83"/>
      <use x="343.115234" xlink:href="#DejaVuSans-104"/>
      <use x="406.494141" xlink:href="#DejaVuSans-111"/>
      <use x="467.675781" xlink:href="#DejaVuSans-117"/>
      <use x="531.054688" xlink:href="#DejaVuSans-108"/>
      <use x="558.837891" xlink:href="#DejaVuSans-100"/>
      <use x="622.314453" xlink:href="#DejaVuSans-101"/>
      <use x="683.837891" xlink:href="#DejaVuSans-114"/>
     </g>
    </g>
   </g>
   <g id="text_4">
    <g clip-path="url(#pe6251ecd83)">
     <!-- Spine -->
     <g transform="translate(283.297643 236.355638)scale(0.1 -0.1)">
      <use xlink:href="#DejaVuSans-83"/>
      <use x="63.476562" xlink:href="#DejaVuSans-112"/>
      <use x="126.953125" xlink:href="#DejaVuSans-105"/>
      <use x="154.736328" xlink:href="#DejaVuSans-110"/>
      <use x="218.115234" xlink:href="#DejaVuSans-101"/>
     </g>
    </g>
   </g>
   <g id="text_5">
    <g clip-path="url(#pe6251ecd83)">
     <!-- Sacr -->
     <g transform="translate(262.290503 355.009233)scale(0.1 -0.1)">
      <use xlink:href="#DejaVuSans-83"/>
      <use x="63.476562" xlink:href="#DejaVuSans-97"/>
      <use x="124.755859" xlink:href="#DejaVuSans-99"/>
      <use x="179.736328" xlink:href="#DejaVuSans-114"/>
     </g>
    </g>
   </g>
   <g id="text_6">
    <g clip-path="url(#pe6251ecd83)">
     <!-- LShoulder -->
     <g transform="translate(124.758912 132.763086)scale(0.1 -0.1)">
      <defs>
       <path d="M 9.8125 72.90625 
L 19.671875 72.90625 
L 19.671875 8.296875 
L 55.171875 8.296875 
L 55.171875 0 
L 9.8125 0 
z
" id="DejaVuSans-76"/>
      </defs>
      <use xlink:href="#DejaVuSans-76"/>
      <use x="55.712891" xlink:href="#DejaVuSans-83"/>
      <use x="119.189453" xlink:href="#DejaVuSans-104"/>
      <use x="182.568359" xlink:href="#DejaVuSans-111"/>
      <use x="243.75" xlink:href="#DejaVuSans-117"/>
      <use x="307.128906" xlink:href="#DejaVuSans-108"/>
      <use x="334.912109" xlink:href="#DejaVuSans-100"/>
      <use x="398.388672" xlink:href="#DejaVuSans-101"/>
      <use x="459.912109" xlink:href="#DejaVuSans-114"/>
     </g>
    </g>
   </g>
   <g id="text_7">
    <g clip-path="url(#pe6251ecd83)">
     <!-- LElbow -->
     <g transform="translate(32.32644 219.848647)scale(0.1 -0.1)">
      <defs>
       <path d="M 9.8125 72.90625 
L 55.90625 72.90625 
L 55.90625 64.59375 
L 19.671875 64.59375 
L 19.671875 43.015625 
L 54.390625 43.015625 
L 54.390625 34.71875 
L 19.671875 34.71875 
L 19.671875 8.296875 
L 56.78125 8.296875 
L 56.78125 0 
L 9.8125 0 
z
" id="DejaVuSans-69"/>
       <path d="M 48.6875 27.296875 
Q 48.6875 37.203125 44.609375 42.84375 
Q 40.53125 48.484375 33.40625 48.484375 
Q 26.265625 48.484375 22.1875 42.84375 
Q 18.109375 37.203125 18.109375 27.296875 
Q 18.109375 17.390625 22.1875 11.75 
Q 26.265625 6.109375 33.40625 6.109375 
Q 40.53125 6.109375 44.609375 11.75 
Q 48.6875 17.390625 48.6875 27.296875 
z
M 18.109375 46.390625 
Q 20.953125 51.265625 25.265625 53.625 
Q 29.59375 56 35.59375 56 
Q 45.5625 56 51.78125 48.09375 
Q 58.015625 40.1875 58.015625 27.296875 
Q 58.015625 14.40625 51.78125 6.484375 
Q 45.5625 -1.421875 35.59375 -1.421875 
Q 29.59375 -1.421875 25.265625 0.953125 
Q 20.953125 3.328125 18.109375 8.203125 
L 18.109375 0 
L 9.078125 0 
L 9.078125 75.984375 
L 18.109375 75.984375 
z
" id="DejaVuSans-98"/>
       <path d="M 4.203125 54.6875 
L 13.1875 54.6875 
L 24.421875 12.015625 
L 35.59375 54.6875 
L 46.1875 54.6875 
L 57.421875 12.015625 
L 68.609375 54.6875 
L 77.59375 54.6875 
L 63.28125 0 
L 52.6875 0 
L 40.921875 44.828125 
L 29.109375 0 
L 18.5 0 
z
" id="DejaVuSans-119"/>
      </defs>
      <use xlink:href="#DejaVuSans-76"/>
      <use x="55.712891" xlink:href="#DejaVuSans-69"/>
      <use x="118.896484" xlink:href="#DejaVuSans-108"/>
      <use x="146.679688" xlink:href="#DejaVuSans-98"/>
      <use x="210.15625" xlink:href="#DejaVuSans-111"/>
      <use x="271.337891" xlink:href="#DejaVuSans-119"/>
     </g>
    </g>
   </g>
   <g id="text_8">
    <g clip-path="url(#pe6251ecd83)">
     <!-- LWrist -->
     <g transform="translate(223.769817 284.446422)scale(0.1 -0.1)">
      <defs>
       <path d="M 3.328125 72.90625 
L 13.28125 72.90625 
L 28.609375 11.28125 
L 43.890625 72.90625 
L 54.984375 72.90625 
L 70.3125 11.28125 
L 85.59375 72.90625 
L 95.609375 72.90625 
L 77.296875 0 
L 64.890625 0 
L 49.515625 63.28125 
L 33.984375 0 
L 21.578125 0 
z
" id="DejaVuSans-87"/>
       <path d="M 44.28125 53.078125 
L 44.28125 44.578125 
Q 40.484375 46.53125 36.375 47.5 
Q 32.28125 48.484375 27.875 48.484375 
Q 21.1875 48.484375 17.84375 46.4375 
Q 14.5 44.390625 14.5 40.28125 
Q 14.5 37.15625 16.890625 35.375 
Q 19.28125 33.59375 26.515625 31.984375 
L 29.59375 31.296875 
Q 39.15625 29.25 43.1875 25.515625 
Q 47.21875 21.78125 47.21875 15.09375 
Q 47.21875 7.46875 41.1875 3.015625 
Q 35.15625 -1.421875 24.609375 -1.421875 
Q 20.21875 -1.421875 15.453125 -0.5625 
Q 10.6875 0.296875 5.421875 2 
L 5.421875 11.28125 
Q 10.40625 8.6875 15.234375 7.390625 
Q 20.0625 6.109375 24.8125 6.109375 
Q 31.15625 6.109375 34.5625 8.28125 
Q 37.984375 10.453125 37.984375 14.40625 
Q 37.984375 18.0625 35.515625 20.015625 
Q 33.0625 21.96875 24.703125 23.78125 
L 21.578125 24.515625 
Q 13.234375 26.265625 9.515625 29.90625 
Q 5.8125 33.546875 5.8125 39.890625 
Q 5.8125 47.609375 11.28125 51.796875 
Q 16.75 56 26.8125 56 
Q 31.78125 56 36.171875 55.265625 
Q 40.578125 54.546875 44.28125 53.078125 
z
" id="DejaVuSans-115"/>
       <path d="M 18.3125 70.21875 
L 18.3125 54.6875 
L 36.8125 54.6875 
L 36.8125 47.703125 
L 18.3125 47.703125 
L 18.3125 18.015625 
Q 18.3125 11.328125 20.140625 9.421875 
Q 21.96875 7.515625 27.59375 7.515625 
L 36.8125 7.515625 
L 36.8125 0 
L 27.59375 0 
Q 17.1875 0 13.234375 3.875 
Q 9.28125 7.765625 9.28125 18.015625 
L 9.28125 47.703125 
L 2.6875 47.703125 
L 2.6875 54.6875 
L 9.28125 54.6875 
L 9.28125 70.21875 
z
" id="DejaVuSans-116"/>
      </defs>
      <use xlink:href="#DejaVuSans-76"/>
      <use x="46.587891" xlink:href="#DejaVuSans-87"/>
      <use x="140.964844" xlink:href="#DejaVuSans-114"/>
      <use x="182.078125" xlink:href="#DejaVuSans-105"/>
      <use x="209.861328" xlink:href="#DejaVuSans-115"/>
      <use x="261.960938" xlink:href="#DejaVuSans-116"/>
     </g>
    </g>
   </g>
   <g id="text_9">
    <g clip-path="url(#pe6251ecd83)">
     <!-- LHand -->
     <g transform="translate(297.437192 300.677776)scale(0.1 -0.1)">
      <use xlink:href="#DejaVuSans-76"/>
      <use x="55.712891" xlink:href="#DejaVuSans-72"/>
      <use x="130.908203" xlink:href="#DejaVuSans-97"/>
      <use x="192.1875" xlink:href="#DejaVuSans-110"/>
      <use x="255.566406" xlink:href="#DejaVuSans-100"/>
     </g>
    </g>
   </g>
   <g id="text_10">
    <g clip-path="url(#pe6251ecd83)">
     <!-- RShoulder -->
     <g transform="translate(472.346337 157.05031)scale(0.1 -0.1)">
      <defs>
       <path d="M 44.390625 34.1875 
Q 47.5625 33.109375 50.5625 29.59375 
Q 53.5625 26.078125 56.59375 19.921875 
L 66.609375 0 
L 56 0 
L 46.6875 18.703125 
Q 43.0625 26.03125 39.671875 28.421875 
Q 36.28125 30.8125 30.421875 30.8125 
L 19.671875 30.8125 
L 19.671875 0 
L 9.8125 0 
L 9.8125 72.90625 
L 32.078125 72.90625 
Q 44.578125 72.90625 50.734375 67.671875 
Q 56.890625 62.453125 56.890625 51.90625 
Q 56.890625 45.015625 53.6875 40.46875 
Q 50.484375 35.9375 44.390625 34.1875 
z
M 19.671875 64.796875 
L 19.671875 38.921875 
L 32.078125 38.921875 
Q 39.203125 38.921875 42.84375 42.21875 
Q 46.484375 45.515625 46.484375 51.90625 
Q 46.484375 58.296875 42.84375 61.546875 
Q 39.203125 64.796875 32.078125 64.796875 
z
" id="DejaVuSans-82"/>
      </defs>
      <use xlink:href="#DejaVuSans-82"/>
      <use x="69.482422" xlink:href="#DejaVuSans-83"/>
      <use x="132.958984" xlink:href="#DejaVuSans-104"/>
      <use x="196.337891" xlink:href="#DejaVuSans-111"/>
      <use x="257.519531" xlink:href="#DejaVuSans-117"/>
      <use x="320.898438" xlink:href="#DejaVuSans-108"/>
      <use x="348.681641" xlink:href="#DejaVuSans-100"/>
      <use x="412.158203" xlink:href="#DejaVuSans-101"/>
      <use x="473.681641" xlink:href="#DejaVuSans-114"/>
     </g>
    </g>
   </g>
   <g id="text_11">
    <g clip-path="url(#pe6251ecd83)">
     <!-- RElbow -->
     <g transform="translate(507.671216 269.525641)scale(0.1 -0.1)">
      <use xlink:href="#DejaVuSans-82"/>
      <use x="69.482422" xlink:href="#DejaVuSans-69"/>
      <use x="132.666016" xlink:href="#DejaVuSans-108"/>
      <use x="160.449219" xlink:href="#DejaVuSans-98"/>
      <use x="223.925781" xlink:href="#DejaVuSans-111"/>
      <use x="285.107422" xlink:href="#DejaVuSans-119"/>
     </g>
    </g>
   </g>
   <g id="text_12">
    <g clip-path="url(#pe6251ecd83)">
     <!-- RWrist -->
     <g transform="translate(328.742042 299.023957)scale(0.1 -0.1)">
      <use xlink:href="#DejaVuSans-82"/>
      <use x="65.482422" xlink:href="#DejaVuSans-87"/>
      <use x="159.859375" xlink:href="#DejaVuSans-114"/>
      <use x="200.972656" xlink:href="#DejaVuSans-105"/>
      <use x="228.755859" xlink:href="#DejaVuSans-115"/>
      <use x="280.855469" xlink:href="#DejaVuSans-116"/>
     </g>
    </g>
   </g>
   <g id="text_13">
    <g clip-path="url(#pe6251ecd83)">
     <!-- RHand -->
     <g transform="translate(298.45844 303.382135)scale(0.1 -0.1)">
      <use xlink:href="#DejaVuSans-82"/>
      <use x="69.482422" xlink:href="#DejaVuSans-72"/>
      <use x="144.677734" xlink:href="#DejaVuSans-97"/>
      <use x="205.957031" xlink:href="#DejaVuSans-110"/>
      <use x="269.335938" xlink:href="#DejaVuSans-100"/>
     </g>
    </g>
   </g>
   <g id="text_14">
    <g clip-path="url(#pe6251ecd83)">
     <!-- LHip -->
     <g transform="translate(177.916516 353.446269)scale(0.1 -0.1)">
      <use xlink:href="#DejaVuSans-76"/>
      <use x="55.712891" xlink:href="#DejaVuSans-72"/>
      <use x="130.908203" xlink:href="#DejaVuSans-105"/>
      <use x="158.691406" xlink:href="#DejaVuSans-112"/>
     </g>
    </g>
   </g>
   <g id="text_15">
    <g clip-path="url(#pe6251ecd83)">
     <!-- LKnee -->
     <g transform="translate(89.563011 527.022222)scale(0.1 -0.1)">
      <defs>
       <path d="M 9.8125 72.90625 
L 19.671875 72.90625 
L 19.671875 42.09375 
L 52.390625 72.90625 
L 65.09375 72.90625 
L 28.90625 38.921875 
L 67.671875 0 
L 54.6875 0 
L 19.671875 35.109375 
L 19.671875 0 
L 9.8125 0 
z
" id="DejaVuSans-75"/>
      </defs>
      <use xlink:href="#DejaVuSans-76"/>
      <use x="55.712891" xlink:href="#DejaVuSans-75"/>
      <use x="121.289062" xlink:href="#DejaVuSans-110"/>
      <use x="184.667969" xlink:href="#DejaVuSans-101"/>
      <use x="246.191406" xlink:href="#DejaVuSans-101"/>
     </g>
    </g>
   </g>
   <g id="text_16">
    <g clip-path="url(#pe6251ecd83)">
     <!-- LAnkle -->
     <g transform="translate(69.252918 691.98292)scale(0.1 -0.1)">
      <defs>
       <path d="M 34.1875 63.1875 
L 20.796875 26.90625 
L 47.609375 26.90625 
z
M 28.609375 72.90625 
L 39.796875 72.90625 
L 67.578125 0 
L 57.328125 0 
L 50.6875 18.703125 
L 17.828125 18.703125 
L 11.1875 0 
L 0.78125 0 
z
" id="DejaVuSans-65"/>
       <path d="M 9.078125 75.984375 
L 18.109375 75.984375 
L 18.109375 31.109375 
L 44.921875 54.6875 
L 56.390625 54.6875 
L 27.390625 29.109375 
L 57.625 0 
L 45.90625 0 
L 18.109375 26.703125 
L 18.109375 0 
L 9.078125 0 
z
" id="DejaVuSans-107"/>
      </defs>
      <use xlink:href="#DejaVuSans-76"/>
      <use x="57.962891" xlink:href="#DejaVuSans-65"/>
      <use x="126.371094" xlink:href="#DejaVuSans-110"/>
      <use x="189.75" xlink:href="#DejaVuSans-107"/>
      <use x="247.660156" xlink:href="#DejaVuSans-108"/>
      <use x="275.443359" xlink:href="#DejaVuSans-101"/>
     </g>
    </g>
   </g>
   <g id="text_17">
    <g clip-path="url(#pe6251ecd83)">
     <!-- LFoot -->
     <g transform="translate(55.773351 738.601909)scale(0.1 -0.1)">
      <defs>
       <path d="M 9.8125 72.90625 
L 51.703125 72.90625 
L 51.703125 64.59375 
L 19.671875 64.59375 
L 19.671875 43.109375 
L 48.578125 43.109375 
L 48.578125 34.8125 
L 19.671875 34.8125 
L 19.671875 0 
L 9.8125 0 
z
" id="DejaVuSans-70"/>
      </defs>
      <use xlink:href="#DejaVuSans-76"/>
      <use x="55.712891" xlink:href="#DejaVuSans-70"/>
      <use x="109.607422" xlink:href="#DejaVuSans-111"/>
      <use x="170.789062" xlink:href="#DejaVuSans-111"/>
      <use x="231.970703" xlink:href="#DejaVuSans-116"/>
     </g>
    </g>
   </g>
   <g id="text_18">
    <g clip-path="url(#pe6251ecd83)">
     <!-- RHip -->
     <g transform="translate(345.42847 362.251662)scale(0.1 -0.1)">
      <use xlink:href="#DejaVuSans-82"/>
      <use x="69.482422" xlink:href="#DejaVuSans-72"/>
      <use x="144.677734" xlink:href="#DejaVuSans-105"/>
      <use x="172.460938" xlink:href="#DejaVuSans-112"/>
     </g>
    </g>
   </g>
   <g id="text_19">
    <g clip-path="url(#pe6251ecd83)">
     <!-- RKnee -->
     <g transform="translate(326.842259 552.422394)scale(0.1 -0.1)">
      <use xlink:href="#DejaVuSans-82"/>
      <use x="69.482422" xlink:href="#DejaVuSans-75"/>
      <use x="135.058594" xlink:href="#DejaVuSans-110"/>
      <use x="198.4375" xlink:href="#DejaVuSans-101"/>
      <use x="259.960938" xlink:href="#DejaVuSans-101"/>
     </g>
    </g>
   </g>
   <g id="text_20">
    <g clip-path="url(#pe6251ecd83)">
     <!-- RAnkle -->
     <g transform="translate(254.93645 751.021157)scale(0.1 -0.1)">
      <use xlink:href="#DejaVuSans-82"/>
      <use x="65.482422" xlink:href="#DejaVuSans-65"/>
      <use x="133.890625" xlink:href="#DejaVuSans-110"/>
      <use x="197.269531" xlink:href="#DejaVuSans-107"/>
      <use x="255.179688" xlink:href="#DejaVuSans-108"/>
      <use x="282.962891" xlink:href="#DejaVuSans-101"/>
     </g>
    </g>
   </g>
   <g id="text_21">
    <g clip-path="url(#pe6251ecd83)">
     <!-- RFoot -->
     <g transform="translate(255.577546 791.784168)scale(0.1 -0.1)">
      <use xlink:href="#DejaVuSans-82"/>
      <use x="69.482422" xlink:href="#DejaVuSans-70"/>
      <use x="123.376953" xlink:href="#DejaVuSans-111"/>
      <use x="184.558594" xlink:href="#DejaVuSans-111"/>
      <use x="245.740234" xlink:href="#DejaVuSans-116"/>
     </g>
    </g>
   </g>
   <g id="text_22">
    <g clip-path="url(#pe6251ecd83)">
     <!-- LHandTip -->
     <g transform="translate(313.349981 311.484811)scale(0.1 -0.1)">
      <defs>
       <path d="M -0.296875 72.90625 
L 61.375 72.90625 
L 61.375 64.59375 
L 35.5 64.59375 
L 35.5 0 
L 25.59375 0 
L 25.59375 64.59375 
L -0.296875 64.59375 
z
" id="DejaVuSans-84"/>
      </defs>
      <use xlink:href="#DejaVuSans-76"/>
      <use x="55.712891" xlink:href="#DejaVuSans-72"/>
      <use x="130.908203" xlink:href="#DejaVuSans-97"/>
      <use x="192.1875" xlink:href="#DejaVuSans-110"/>
      <use x="255.566406" xlink:href="#DejaVuSans-100"/>
      <use x="319.042969" xlink:href="#DejaVuSans-84"/>
      <use x="377.001953" xlink:href="#DejaVuSans-105"/>
      <use x="404.785156" xlink:href="#DejaVuSans-112"/>
     </g>
    </g>
   </g>
   <g id="text_23">
    <g clip-path="url(#pe6251ecd83)">
     <!-- LThumb -->
     <g transform="translate(338.592248 288.185718)scale(0.1 -0.1)">
      <defs>
       <path d="M 52 44.1875 
Q 55.375 50.25 60.0625 53.125 
Q 64.75 56 71.09375 56 
Q 79.640625 56 84.28125 50.015625 
Q 88.921875 44.046875 88.921875 33.015625 
L 88.921875 0 
L 79.890625 0 
L 79.890625 32.71875 
Q 79.890625 40.578125 77.09375 44.375 
Q 74.3125 48.1875 68.609375 48.1875 
Q 61.625 48.1875 57.5625 43.546875 
Q 53.515625 38.921875 53.515625 30.90625 
L 53.515625 0 
L 44.484375 0 
L 44.484375 32.71875 
Q 44.484375 40.625 41.703125 44.40625 
Q 38.921875 48.1875 33.109375 48.1875 
Q 26.21875 48.1875 22.15625 43.53125 
Q 18.109375 38.875 18.109375 30.90625 
L 18.109375 0 
L 9.078125 0 
L 9.078125 54.6875 
L 18.109375 54.6875 
L 18.109375 46.1875 
Q 21.1875 51.21875 25.484375 53.609375 
Q 29.78125 56 35.6875 56 
Q 41.65625 56 45.828125 52.96875 
Q 50 49.953125 52 44.1875 
z
" id="DejaVuSans-109"/>
      </defs>
      <use xlink:href="#DejaVuSans-76"/>
      <use x="41.962891" xlink:href="#DejaVuSans-84"/>
      <use x="103.046875" xlink:href="#DejaVuSans-104"/>
      <use x="166.425781" xlink:href="#DejaVuSans-117"/>
      <use x="229.804688" xlink:href="#DejaVuSans-109"/>
      <use x="327.216797" xlink:href="#DejaVuSans-98"/>
     </g>
    </g>
   </g>
   <g id="text_24">
    <g clip-path="url(#pe6251ecd83)">
     <!-- RHandTip -->
     <g transform="translate(268.235722 310.706268)scale(0.1 -0.1)">
      <use xlink:href="#DejaVuSans-82"/>
      <use x="69.482422" xlink:href="#DejaVuSans-72"/>
      <use x="144.677734" xlink:href="#DejaVuSans-97"/>
      <use x="205.957031" xlink:href="#DejaVuSans-110"/>
      <use x="269.335938" xlink:href="#DejaVuSans-100"/>
      <use x="332.8125" xlink:href="#DejaVuSans-84"/>
      <use x="390.771484" xlink:href="#DejaVuSans-105"/>
      <use x="418.554688" xlink:href="#DejaVuSans-112"/>
     </g>
    </g>
   </g>
   <g id="text_25">
    <g clip-path="url(#pe6251ecd83)">
     <!-- RThumb -->
     <g transform="translate(256.876348 294.052097)scale(0.1 -0.1)">
      <use xlink:href="#DejaVuSans-82"/>
      <use x="62.232422" xlink:href="#DejaVuSans-84"/>
      <use x="123.316406" xlink:href="#DejaVuSans-104"/>
      <use x="186.695312" xlink:href="#DejaVuSans-117"/>
      <use x="250.074219" xlink:href="#DejaVuSans-109"/>
      <use x="347.486328" xlink:href="#DejaVuSans-98"/>
     </g>
    </g>
   </g>
   <g id="text_26">
    <!-- Node Graph Visualization - Frame 43 -->
    <g transform="translate(178.011563 -6)scale(0.12 -0.12)">
     <defs>
      <path d="M 9.8125 72.90625 
L 23.09375 72.90625 
L 55.421875 11.921875 
L 55.421875 72.90625 
L 64.984375 72.90625 
L 64.984375 0 
L 51.703125 0 
L 19.390625 60.984375 
L 19.390625 0 
L 9.8125 0 
z
" id="DejaVuSans-78"/>
      <path id="DejaVuSans-32"/>
      <path d="M 59.515625 10.40625 
L 59.515625 29.984375 
L 43.40625 29.984375 
L 43.40625 38.09375 
L 69.28125 38.09375 
L 69.28125 6.78125 
Q 63.578125 2.734375 56.6875 0.65625 
Q 49.8125 -1.421875 42 -1.421875 
Q 24.90625 -1.421875 15.25 8.5625 
Q 5.609375 18.5625 5.609375 36.375 
Q 5.609375 54.25 15.25 64.234375 
Q 24.90625 74.21875 42 74.21875 
Q 49.125 74.21875 55.546875 72.453125 
Q 61.96875 70.703125 67.390625 67.28125 
L 67.390625 56.78125 
Q 61.921875 61.421875 55.765625 63.765625 
Q 49.609375 66.109375 42.828125 66.109375 
Q 29.4375 66.109375 22.71875 58.640625 
Q 16.015625 51.171875 16.015625 36.375 
Q 16.015625 21.625 22.71875 14.15625 
Q 29.4375 6.6875 42.828125 6.6875 
Q 48.046875 6.6875 52.140625 7.59375 
Q 56.25 8.5 59.515625 10.40625 
z
" id="DejaVuSans-71"/>
      <path d="M 28.609375 0 
L 0.78125 72.90625 
L 11.078125 72.90625 
L 34.1875 11.53125 
L 57.328125 72.90625 
L 67.578125 72.90625 
L 39.796875 0 
z
" id="DejaVuSans-86"/>
      <path d="M 5.515625 54.6875 
L 48.1875 54.6875 
L 48.1875 46.484375 
L 14.40625 7.171875 
L 48.1875 7.171875 
L 48.1875 0 
L 4.296875 0 
L 4.296875 8.203125 
L 38.09375 47.515625 
L 5.515625 47.515625 
z
" id="DejaVuSans-122"/>
      <path d="M 4.890625 31.390625 
L 31.203125 31.390625 
L 31.203125 23.390625 
L 4.890625 23.390625 
z
" id="DejaVuSans-45"/>
      <path d="M 37.796875 64.3125 
L 12.890625 25.390625 
L 37.796875 25.390625 
z
M 35.203125 72.90625 
L 47.609375 72.90625 
L 47.609375 25.390625 
L 58.015625 25.390625 
L 58.015625 17.1875 
L 47.609375 17.1875 
L 47.609375 0 
L 37.796875 0 
L 37.796875 17.1875 
L 4.890625 17.1875 
L 4.890625 26.703125 
z
" id="DejaVuSans-52"/>
      <path d="M 40.578125 39.3125 
Q 47.65625 37.796875 51.625 33 
Q 55.609375 28.21875 55.609375 21.1875 
Q 55.609375 10.40625 48.1875 4.484375 
Q 40.765625 -1.421875 27.09375 -1.421875 
Q 22.515625 -1.421875 17.65625 -0.515625 
Q 12.796875 0.390625 7.625 2.203125 
L 7.625 11.71875 
Q 11.71875 9.328125 16.59375 8.109375 
Q 21.484375 6.890625 26.8125 6.890625 
Q 36.078125 6.890625 40.9375 10.546875 
Q 45.796875 14.203125 45.796875 21.1875 
Q 45.796875 27.640625 41.28125 31.265625 
Q 36.765625 34.90625 28.71875 34.90625 
L 20.21875 34.90625 
L 20.21875 43.015625 
L 29.109375 43.015625 
Q 36.375 43.015625 40.234375 45.921875 
Q 44.09375 48.828125 44.09375 54.296875 
Q 44.09375 59.90625 40.109375 62.90625 
Q 36.140625 65.921875 28.71875 65.921875 
Q 24.65625 65.921875 20.015625 65.03125 
Q 15.375 64.15625 9.8125 62.3125 
L 9.8125 71.09375 
Q 15.4375 72.65625 20.34375 73.4375 
Q 25.25 74.21875 29.59375 74.21875 
Q 40.828125 74.21875 47.359375 69.109375 
Q 53.90625 64.015625 53.90625 55.328125 
Q 53.90625 49.265625 50.4375 45.09375 
Q 46.96875 40.921875 40.578125 39.3125 
z
" id="DejaVuSans-51"/>
     </defs>
     <use xlink:href="#DejaVuSans-78"/>
     <use x="74.804688" xlink:href="#DejaVuSans-111"/>
     <use x="135.986328" xlink:href="#DejaVuSans-100"/>
     <use x="199.462891" xlink:href="#DejaVuSans-101"/>
     <use x="260.986328" xlink:href="#DejaVuSans-32"/>
     <use x="292.773438" xlink:href="#DejaVuSans-71"/>
     <use x="370.263672" xlink:href="#DejaVuSans-114"/>
     <use x="411.376953" xlink:href="#DejaVuSans-97"/>
     <use x="472.65625" xlink:href="#DejaVuSans-112"/>
     <use x="536.132812" xlink:href="#DejaVuSans-104"/>
     <use x="599.511719" xlink:href="#DejaVuSans-32"/>
     <use x="631.298828" xlink:href="#DejaVuSans-86"/>
     <use x="697.457031" xlink:href="#DejaVuSans-105"/>
     <use x="725.240234" xlink:href="#DejaVuSans-115"/>
     <use x="777.339844" xlink:href="#DejaVuSans-117"/>
     <use x="840.71875" xlink:href="#DejaVuSans-97"/>
     <use x="901.998047" xlink:href="#DejaVuSans-108"/>
     <use x="929.78125" xlink:href="#DejaVuSans-105"/>
     <use x="957.564453" xlink:href="#DejaVuSans-122"/>
     <use x="1010.054688" xlink:href="#DejaVuSans-97"/>
     <use x="1071.333984" xlink:href="#DejaVuSans-116"/>
     <use x="1110.542969" xlink:href="#DejaVuSans-105"/>
     <use x="1138.326172" xlink:href="#DejaVuSans-111"/>
     <use x="1199.507812" xlink:href="#DejaVuSans-110"/>
     <use x="1262.886719" xlink:href="#DejaVuSans-32"/>
     <use x="1294.673828" xlink:href="#DejaVuSans-45"/>
     <use x="1330.757812" xlink:href="#DejaVuSans-32"/>
     <use x="1362.544922" xlink:href="#DejaVuSans-70"/>
     <use x="1412.814453" xlink:href="#DejaVuSans-114"/>
     <use x="1453.927734" xlink:href="#DejaVuSans-97"/>
     <use x="1515.207031" xlink:href="#DejaVuSans-109"/>
     <use x="1612.619141" xlink:href="#DejaVuSans-101"/>
     <use x="1674.142578" xlink:href="#DejaVuSans-32"/>
     <use x="1705.929688" xlink:href="#DejaVuSans-52"/>
     <use x="1769.552734" xlink:href="#DejaVuSans-51"/>
    </g>
   </g>
  </g>
 </g>
 <defs>
  <clipPath id="pe6251ecd83">
   <rect height="864" width="576" x="0" y="0"/>
  </clipPath>
 </defs>
</svg>
