<?xml version="1.0" encoding="utf-8" standalone="no"?>
<!DOCTYPE svg PUBLIC "-//W3C//DTD SVG 1.1//EN"
  "http://www.w3.org/Graphics/SVG/1.1/DTD/svg11.dtd">
<!-- Created with matplotlib (https://matplotlib.org/) -->
<svg height="864pt" version="1.1" viewBox="0 0 576 864" width="576pt" xmlns="http://www.w3.org/2000/svg" xmlns:xlink="http://www.w3.org/1999/xlink">
 <metadata>
  <rdf:RDF xmlns:cc="http://creativecommons.org/ns#" xmlns:dc="http://purl.org/dc/elements/1.1/" xmlns:rdf="http://www.w3.org/1999/02/22-rdf-syntax-ns#">
   <cc:Work>
    <dc:type rdf:resource="http://purl.org/dc/dcmitype/StillImage"/>
    <dc:date>2024-02-04T22:28:30.082881</dc:date>
    <dc:format>image/svg+xml</dc:format>
    <dc:creator>
     <cc:Agent>
      <dc:title>Matplotlib v3.3.2, https://matplotlib.org/</dc:title>
     </cc:Agent>
    </dc:creator>
   </cc:Work>
  </rdf:RDF>
 </metadata>
 <defs>
  <style type="text/css">*{stroke-linecap:butt;stroke-linejoin:round;}</style>
 </defs>
 <g id="figure_1">
  <g id="patch_1">
   <path d="M 0 864 
L 576 864 
L 576 0 
L 0 0 
z
" style="fill:#ffffff;"/>
  </g>
  <g id="axes_1">
   <g id="patch_2">
    <path clip-path="url(#p6e84549aac)" d="M 327.223369 87.825946 
Q 324.872541 97.483412 322.786143 106.054566 
" style="fill:none;stroke:#000000;stroke-linecap:round;"/>
    <path clip-path="url(#p6e84549aac)" d="M 325.675457 102.641084 
L 322.786143 106.054566 
L 321.788945 101.695025 
L 325.675457 102.641084 
z
" style="stroke:#000000;stroke-linecap:round;"/>
   </g>
   <g id="patch_3">
    <path clip-path="url(#p6e84549aac)" d="M 316.640413 132.934069 
Q 315.794175 136.912228 315.180562 139.796821 
" style="fill:none;stroke:#000000;stroke-linecap:round;"/>
    <path clip-path="url(#p6e84549aac)" d="M 317.969054 136.300492 
L 315.180562 139.796821 
L 314.056594 135.468231 
L 317.969054 136.300492 
z
" style="stroke:#000000;stroke-linecap:round;"/>
   </g>
   <g id="patch_4">
    <path clip-path="url(#p6e84549aac)" d="M 322.521464 107.141895 
Q 324.872293 97.484428 326.958691 88.913274 
" style="fill:none;stroke:#000000;stroke-linecap:round;"/>
    <path clip-path="url(#p6e84549aac)" d="M 324.069377 92.326757 
L 326.958691 88.913274 
L 327.955889 93.272815 
L 324.069377 92.326757 
z
" style="stroke:#000000;stroke-linecap:round;"/>
   </g>
   <g id="patch_5">
    <path clip-path="url(#p6e84549aac)" d="M 309.40898 166.761654 
Q 301.015216 205.71654 292.856955 243.578477 
" style="fill:none;stroke:#000000;stroke-linecap:round;"/>
    <path clip-path="url(#p6e84549aac)" d="M 295.654641 240.089501 
L 292.856955 243.578477 
L 291.744385 239.246943 
L 295.654641 240.089501 
z
" style="stroke:#000000;stroke-linecap:round;"/>
   </g>
   <g id="patch_6">
    <path clip-path="url(#p6e84549aac)" d="M 298.998034 152.945975 
Q 222.496753 147.814478 147.111 142.757807 
" style="fill:none;stroke:#000000;stroke-linecap:round;"/>
    <path clip-path="url(#p6e84549aac)" d="M 150.968178 145.02103 
L 147.111 142.757807 
L 151.235886 141.029998 
L 150.968178 145.02103 
z
" style="stroke:#000000;stroke-linecap:round;"/>
   </g>
   <g id="patch_7">
    <path clip-path="url(#p6e84549aac)" d="M 325.404868 154.570583 
Q 415.575703 159.617675 504.630252 164.602284 
" style="fill:none;stroke:#000000;stroke-linecap:round;"/>
    <path clip-path="url(#p6e84549aac)" d="M 500.748273 162.38187 
L 504.630252 164.602284 
L 500.524733 166.375618 
L 500.748273 162.38187 
z
" style="stroke:#000000;stroke-linecap:round;"/>
   </g>
   <g id="patch_8">
    <path clip-path="url(#p6e84549aac)" d="M 314.94807 140.889767 
Q 315.794307 136.911608 316.40792 134.027015 
" style="fill:none;stroke:#000000;stroke-linecap:round;"/>
    <path clip-path="url(#p6e84549aac)" d="M 313.619429 137.523343 
L 316.40792 134.027015 
L 317.531888 138.355605 
L 313.619429 137.523343 
z
" style="stroke:#000000;stroke-linecap:round;"/>
   </g>
   <g id="patch_9">
    <path clip-path="url(#p6e84549aac)" d="M 287.019951 270.526315 
Q 274.487888 328.05768 262.193786 384.496627 
" style="fill:none;stroke:#000000;stroke-linecap:round;"/>
    <path clip-path="url(#p6e84549aac)" d="M 264.999316 381.013956 
L 262.193786 384.496627 
L 261.090967 380.1626 
L 264.999316 381.013956 
z
" style="stroke:#000000;stroke-linecap:round;"/>
   </g>
   <g id="patch_10">
    <path clip-path="url(#p6e84549aac)" d="M 292.620958 244.673725 
Q 301.014721 205.718839 309.172983 167.856902 
" style="fill:none;stroke:#000000;stroke-linecap:round;"/>
    <path clip-path="url(#p6e84549aac)" d="M 306.375297 171.345878 
L 309.172983 167.856902 
L 310.285552 172.188436 
L 306.375297 171.345878 
z
" style="stroke:#000000;stroke-linecap:round;"/>
   </g>
   <g id="patch_11">
    <path clip-path="url(#p6e84549aac)" d="M 245.964713 397.304888 
Q 217.035607 394.651149 189.21986 392.09954 
" style="fill:none;stroke:#000000;stroke-linecap:round;"/>
    <path clip-path="url(#p6e84549aac)" d="M 193.020438 394.456574 
L 189.21986 392.09954 
L 193.385834 390.473298 
L 193.020438 394.456574 
z
" style="stroke:#000000;stroke-linecap:round;"/>
   </g>
   <g id="patch_12">
    <path clip-path="url(#p6e84549aac)" d="M 272.365358 398.852874 
Q 301.092955 399.590001 328.702885 400.298449 
" style="fill:none;stroke:#000000;stroke-linecap:round;"/>
    <path clip-path="url(#p6e84549aac)" d="M 324.755502 398.196504 
L 328.702885 400.298449 
L 324.652899 402.195188 
L 324.755502 398.196504 
z
" style="stroke:#000000;stroke-linecap:round;"/>
   </g>
   <g id="patch_13">
    <path clip-path="url(#p6e84549aac)" d="M 261.955312 385.591397 
Q 274.487375 328.060032 286.781477 271.621084 
" style="fill:none;stroke:#000000;stroke-linecap:round;"/>
    <path clip-path="url(#p6e84549aac)" d="M 283.975947 275.103756 
L 286.781477 271.621084 
L 287.884296 275.955112 
L 283.975947 275.103756 
z
" style="stroke:#000000;stroke-linecap:round;"/>
   </g>
   <g id="patch_14">
    <path clip-path="url(#p6e84549aac)" d="M 124.205311 151.861001 
Q 91.387833 190.307643 59.296216 227.903917 
" style="fill:none;stroke:#000000;stroke-linecap:round;"/>
    <path clip-path="url(#p6e84549aac)" d="M 63.41432 226.160009 
L 59.296216 227.903917 
L 60.371952 223.563089 
L 63.41432 226.160009 
z
" style="stroke:#000000;stroke-linecap:round;"/>
   </g>
   <g id="patch_15">
    <path clip-path="url(#p6e84549aac)" d="M 145.992444 142.682777 
Q 222.493724 147.814274 297.879477 152.870945 
" style="fill:none;stroke:#000000;stroke-linecap:round;"/>
    <path clip-path="url(#p6e84549aac)" d="M 294.0223 150.607722 
L 297.879477 152.870945 
L 293.754592 154.598754 
L 294.0223 150.607722 
z
" style="stroke:#000000;stroke-linecap:round;"/>
   </g>
   <g id="patch_16">
    <path clip-path="url(#p6e84549aac)" d="M 62.396954 243.385884 
Q 128.798816 267.841298 194.151535 291.910319 
" style="fill:none;stroke:#000000;stroke-linecap:round;"/>
    <path clip-path="url(#p6e84549aac)" d="M 191.089209 288.651154 
L 194.151535 291.910319 
L 189.706807 292.404681 
L 191.089209 288.651154 
z
" style="stroke:#000000;stroke-linecap:round;"/>
   </g>
   <g id="patch_17">
    <path clip-path="url(#p6e84549aac)" d="M 58.573482 228.750621 
Q 91.39096 190.303979 123.482577 152.707704 
" style="fill:none;stroke:#000000;stroke-linecap:round;"/>
    <path clip-path="url(#p6e84549aac)" d="M 119.364473 154.451613 
L 123.482577 152.707704 
L 122.406841 157.048533 
L 119.364473 154.451613 
z
" style="stroke:#000000;stroke-linecap:round;"/>
   </g>
   <g id="patch_18">
    <path clip-path="url(#p6e84549aac)" d="M 220.265259 300.731501 
Q 231.431966 304.141243 241.529377 307.224477 
" style="fill:none;stroke:#000000;stroke-linecap:round;"/>
    <path clip-path="url(#p6e84549aac)" d="M 238.287825 304.143512 
L 241.529377 307.224477 
L 237.119674 307.969139 
L 238.287825 304.143512 
z
" style="stroke:#000000;stroke-linecap:round;"/>
   </g>
   <g id="patch_19">
    <path clip-path="url(#p6e84549aac)" d="M 195.200291 292.29657 
Q 128.798429 267.841156 63.445709 243.772135 
" style="fill:none;stroke:#000000;stroke-linecap:round;"/>
    <path clip-path="url(#p6e84549aac)" d="M 66.508035 247.0313 
L 63.445709 243.772135 
L 67.890437 243.277773 
L 66.508035 247.0313 
z
" style="stroke:#000000;stroke-linecap:round;"/>
   </g>
   <g id="patch_20">
    <path clip-path="url(#p6e84549aac)" d="M 267.5622 316.255835 
Q 267.746401 316.328277 266.89014 315.991529 
" style="fill:none;stroke:#000000;stroke-linecap:round;"/>
    <path clip-path="url(#p6e84549aac)" d="M 263.899651 312.666326 
L 266.89014 315.991529 
L 262.435684 316.388798 
L 263.899651 312.666326 
z
" style="stroke:#000000;stroke-linecap:round;"/>
   </g>
   <g id="patch_21">
    <path clip-path="url(#p6e84549aac)" d="M 268.460452 310.651075 
Q 285.198283 309.682597 300.819947 308.778703 
" style="fill:none;stroke:#000000;stroke-linecap:round;"/>
    <path clip-path="url(#p6e84549aac)" d="M 296.711096 307.013103 
L 300.819947 308.778703 
L 296.942156 311.006424 
L 296.711096 307.013103 
z
" style="stroke:#000000;stroke-linecap:round;"/>
   </g>
   <g id="patch_22">
    <path clip-path="url(#p6e84549aac)" d="M 242.602359 307.552111 
Q 231.435652 304.142369 221.338242 301.059135 
" style="fill:none;stroke:#000000;stroke-linecap:round;"/>
    <path clip-path="url(#p6e84549aac)" d="M 224.579793 304.140099 
L 221.338242 301.059135 
L 225.747944 300.314472 
L 224.579793 304.140099 
z
" style="stroke:#000000;stroke-linecap:round;"/>
   </g>
   <g id="patch_23">
    <path clip-path="url(#p6e84549aac)" d="M 519.72889 178.612133 
Q 522.486736 225.800025 525.179351 271.871787 
" style="fill:none;stroke:#000000;stroke-linecap:round;"/>
    <path clip-path="url(#p6e84549aac)" d="M 526.942566 267.761912 
L 525.179351 271.871787 
L 522.94938 267.995289 
L 526.942566 267.761912 
z
" style="stroke:#000000;stroke-linecap:round;"/>
   </g>
   <g id="patch_24">
    <path clip-path="url(#p6e84549aac)" d="M 505.747253 164.664806 
Q 415.576418 159.617715 326.52187 154.633105 
" style="fill:none;stroke:#000000;stroke-linecap:round;"/>
    <path clip-path="url(#p6e84549aac)" d="M 330.403848 156.853519 
L 326.52187 154.633105 
L 330.627389 152.859771 
L 330.403848 156.853519 
z
" style="stroke:#000000;stroke-linecap:round;"/>
   </g>
   <g id="patch_25">
    <path clip-path="url(#p6e84549aac)" d="M 513.012909 288.630371 
Q 445.953967 301.182959 379.993971 313.529838 
" style="fill:none;stroke:#000000;stroke-linecap:round;"/>
    <path clip-path="url(#p6e84549aac)" d="M 384.293665 314.759727 
L 379.993971 313.529838 
L 383.557699 310.828015 
L 384.293665 314.759727 
z
" style="stroke:#000000;stroke-linecap:round;"/>
   </g>
   <g id="patch_26">
    <path clip-path="url(#p6e84549aac)" d="M 525.244605 272.988311 
Q 522.486759 225.80042 519.794144 179.728658 
" style="fill:none;stroke:#000000;stroke-linecap:round;"/>
    <path clip-path="url(#p6e84549aac)" d="M 518.030928 183.838533 
L 519.794144 179.728658 
L 522.024114 183.605155 
L 518.030928 183.838533 
z
" style="stroke:#000000;stroke-linecap:round;"/>
   </g>
   <g id="patch_27">
    <path clip-path="url(#p6e84549aac)" d="M 352.74258 317.631582 
Q 341.140107 318.921334 330.648823 320.087563 
" style="fill:none;stroke:#000000;stroke-linecap:round;"/>
    <path clip-path="url(#p6e84549aac)" d="M 334.845298 321.633395 
L 330.648823 320.087563 
L 334.403373 317.657882 
L 334.845298 321.633395 
z
" style="stroke:#000000;stroke-linecap:round;"/>
   </g>
   <g id="patch_28">
    <path clip-path="url(#p6e84549aac)" d="M 378.891396 313.736226 
Q 445.950338 301.183638 511.910334 288.836759 
" style="fill:none;stroke:#000000;stroke-linecap:round;"/>
    <path clip-path="url(#p6e84549aac)" d="M 507.610639 287.60687 
L 511.910334 288.836759 
L 508.346606 291.538581 
L 507.610639 287.60687 
z
" style="stroke:#000000;stroke-linecap:round;"/>
   </g>
   <g id="patch_29">
    <path clip-path="url(#p6e84549aac)" d="M 303.604683 325.085293 
Q 299.167874 326.269654 295.811275 327.165664 
" style="fill:none;stroke:#000000;stroke-linecap:round;"/>
    <path clip-path="url(#p6e84549aac)" d="M 300.19177 328.066366 
L 295.811275 327.165664 
L 299.160134 324.201689 
L 300.19177 328.066366 
z
" style="stroke:#000000;stroke-linecap:round;"/>
   </g>
   <g id="patch_30">
    <path clip-path="url(#p6e84549aac)" d="M 329.39985 324.059863 
Q 345.111736 326.942445 359.723942 329.623275 
" style="fill:none;stroke:#000000;stroke-linecap:round;"/>
    <path clip-path="url(#p6e84549aac)" d="M 356.150514 326.934294 
L 359.723942 329.623275 
L 355.428701 330.868629 
L 356.150514 326.934294 
z
" style="stroke:#000000;stroke-linecap:round;"/>
   </g>
   <g id="patch_31">
    <path clip-path="url(#p6e84549aac)" d="M 329.533803 320.211511 
Q 341.136276 318.92176 351.62756 317.75553 
" style="fill:none;stroke:#000000;stroke-linecap:round;"/>
    <path clip-path="url(#p6e84549aac)" d="M 347.431085 316.209699 
L 351.62756 317.75553 
L 347.87301 320.185212 
L 347.431085 316.209699 
z
" style="stroke:#000000;stroke-linecap:round;"/>
   </g>
   <g id="patch_32">
    <path clip-path="url(#p6e84549aac)" d="M 168.433585 402.312901 
Q 133.647833 464.013542 99.411158 524.740266 
" style="fill:none;stroke:#000000;stroke-linecap:round;"/>
    <path clip-path="url(#p6e84549aac)" d="M 103.117792 522.238095 
L 99.411158 524.740266 
L 99.633401 520.273656 
L 103.117792 522.238095 
z
" style="stroke:#000000;stroke-linecap:round;"/>
   </g>
   <g id="patch_33">
    <path clip-path="url(#p6e84549aac)" d="M 188.106464 391.997406 
Q 217.035571 394.651145 244.851317 397.202754 
" style="fill:none;stroke:#000000;stroke-linecap:round;"/>
    <path clip-path="url(#p6e84549aac)" d="M 241.05074 394.84572 
L 244.851317 397.202754 
L 240.685344 398.828996 
L 241.05074 394.84572 
z
" style="stroke:#000000;stroke-linecap:round;"/>
   </g>
   <g id="patch_34">
    <path clip-path="url(#p6e84549aac)" d="M 93.360018 550.434155 
Q 98.155454 613.983509 102.866762 676.417998 
" style="fill:none;stroke:#000000;stroke-linecap:round;"/>
    <path clip-path="url(#p6e84549aac)" d="M 104.560108 672.278845 
L 102.866762 676.417998 
L 100.571448 672.57983 
L 104.560108 672.278845 
z
" style="stroke:#000000;stroke-linecap:round;"/>
   </g>
   <g id="patch_35">
    <path clip-path="url(#p6e84549aac)" d="M 98.861456 525.715291 
Q 133.647208 464.01465 167.883883 403.287925 
" style="fill:none;stroke:#000000;stroke-linecap:round;"/>
    <path clip-path="url(#p6e84549aac)" d="M 164.177248 405.790096 
L 167.883883 403.287925 
L 167.661639 407.754536 
L 164.177248 405.790096 
z
" style="stroke:#000000;stroke-linecap:round;"/>
   </g>
   <g id="patch_36">
    <path clip-path="url(#p6e84549aac)" d="M 100.538125 703.50784 
Q 99.581968 707.0945 98.913806 709.600856 
" style="fill:none;stroke:#000000;stroke-linecap:round;"/>
    <path clip-path="url(#p6e84549aac)" d="M 101.876677 706.251021 
L 98.913806 709.600856 
L 98.011661 705.220658 
L 101.876677 706.251021 
z
" style="stroke:#000000;stroke-linecap:round;"/>
   </g>
   <g id="patch_37">
    <path clip-path="url(#p6e84549aac)" d="M 102.950583 677.528799 
Q 98.155147 613.979445 93.44384 551.544956 
" style="fill:none;stroke:#000000;stroke-linecap:round;"/>
    <path clip-path="url(#p6e84549aac)" d="M 91.750494 555.684109 
L 93.44384 551.544956 
L 95.739154 555.383124 
L 91.750494 555.684109 
z
" style="stroke:#000000;stroke-linecap:round;"/>
   </g>
   <g id="patch_38">
    <path clip-path="url(#p6e84549aac)" d="M 98.626843 710.677289 
Q 99.583 707.090628 100.251162 704.584273 
" style="fill:none;stroke:#000000;stroke-linecap:round;"/>
    <path clip-path="url(#p6e84549aac)" d="M 97.28829 707.934108 
L 100.251162 704.584273 
L 101.153307 708.964471 
L 97.28829 707.934108 
z
" style="stroke:#000000;stroke-linecap:round;"/>
   </g>
   <g id="patch_39">
    <path clip-path="url(#p6e84549aac)" d="M 343.465019 413.888451 
Q 345.545371 478.955319 347.589994 542.904723 
" style="fill:none;stroke:#000000;stroke-linecap:round;"/>
    <path clip-path="url(#p6e84549aac)" d="M 349.461147 538.842854 
L 347.589994 542.904723 
L 345.46319 538.970679 
L 349.461147 538.842854 
z
" style="stroke:#000000;stroke-linecap:round;"/>
   </g>
   <g id="patch_40">
    <path clip-path="url(#p6e84549aac)" d="M 329.8174 400.327047 
Q 301.089803 399.58992 273.479873 398.881472 
" style="fill:none;stroke:#000000;stroke-linecap:round;"/>
    <path clip-path="url(#p6e84549aac)" d="M 277.427255 400.983417 
L 273.479873 398.881472 
L 277.529858 396.984733 
L 277.427255 400.983417 
z
" style="stroke:#000000;stroke-linecap:round;"/>
   </g>
   <g id="patch_41">
    <path clip-path="url(#p6e84549aac)" d="M 343.841849 569.787497 
Q 314.534137 657.15028 285.582018 743.453083 
" style="fill:none;stroke:#000000;stroke-linecap:round;"/>
    <path clip-path="url(#p6e84549aac)" d="M 288.750371 740.296893 
L 285.582018 743.453083 
L 284.958077 739.024687 
L 288.750371 740.296893 
z
" style="stroke:#000000;stroke-linecap:round;"/>
   </g>
   <g id="patch_42">
    <path clip-path="url(#p6e84549aac)" d="M 347.625833 544.025681 
Q 345.545482 478.958814 343.500859 415.009409 
" style="fill:none;stroke:#000000;stroke-linecap:round;"/>
    <path clip-path="url(#p6e84549aac)" d="M 341.629705 419.071279 
L 343.500859 415.009409 
L 345.627662 418.943454 
L 341.629705 419.071279 
z
" style="stroke:#000000;stroke-linecap:round;"/>
   </g>
   <g id="patch_43">
    <path clip-path="url(#p6e84549aac)" d="M 280.366316 770.264873 
Q 280.229271 773.038099 280.147408 774.694653 
" style="fill:none;stroke:#000000;stroke-linecap:round;"/>
    <path clip-path="url(#p6e84549aac)" d="M 282.342399 770.798242 
L 280.147408 774.694653 
L 278.347274 770.600814 
L 282.342399 770.798242 
z
" style="stroke:#000000;stroke-linecap:round;"/>
   </g>
   <g id="patch_44">
    <path clip-path="url(#p6e84549aac)" d="M 285.225865 744.514736 
Q 314.533576 657.151953 343.485695 570.84915 
" style="fill:none;stroke:#000000;stroke-linecap:round;"/>
    <path clip-path="url(#p6e84549aac)" d="M 340.317342 574.00534 
L 343.485695 570.84915 
L 344.109636 575.277546 
L 340.317342 574.00534 
z
" style="stroke:#000000;stroke-linecap:round;"/>
   </g>
   <g id="patch_45">
    <path clip-path="url(#p6e84549aac)" d="M 280.092073 775.814407 
Q 280.229118 773.041181 280.310981 771.384627 
" style="fill:none;stroke:#000000;stroke-linecap:round;"/>
    <path clip-path="url(#p6e84549aac)" d="M 278.11599 775.281038 
L 280.310981 771.384627 
L 282.111115 775.478466 
L 278.11599 775.281038 
z
" style="stroke:#000000;stroke-linecap:round;"/>
   </g>
   <g id="patch_46">
    <path clip-path="url(#p6e84549aac)" d="M 267.934348 316.402193 
Q 267.750146 316.32975 268.606408 316.666499 
" style="fill:none;stroke:#000000;stroke-linecap:round;"/>
    <path clip-path="url(#p6e84549aac)" d="M 271.596897 319.991702 
L 268.606408 316.666499 
L 273.060863 316.269229 
L 271.596897 319.991702 
z
" style="stroke:#000000;stroke-linecap:round;"/>
   </g>
   <g id="patch_47">
    <path clip-path="url(#p6e84549aac)" d="M 301.935711 308.714144 
Q 285.19788 309.682621 269.576216 310.586515 
" style="fill:none;stroke:#000000;stroke-linecap:round;"/>
    <path clip-path="url(#p6e84549aac)" d="M 273.685067 312.352115 
L 269.576216 310.586515 
L 273.454007 308.358795 
L 273.685067 312.352115 
z
" style="stroke:#000000;stroke-linecap:round;"/>
   </g>
   <g id="patch_48">
    <path clip-path="url(#p6e84549aac)" d="M 294.734548 327.453086 
Q 299.171357 326.268724 302.527956 325.372714 
" style="fill:none;stroke:#000000;stroke-linecap:round;"/>
    <path clip-path="url(#p6e84549aac)" d="M 298.147461 324.472012 
L 302.527956 325.372714 
L 299.179097 328.336689 
L 298.147461 324.472012 
z
" style="stroke:#000000;stroke-linecap:round;"/>
   </g>
   <g id="patch_49">
    <path clip-path="url(#p6e84549aac)" d="M 360.821772 329.824688 
Q 345.109886 326.942106 330.49768 324.261276 
" style="fill:none;stroke:#000000;stroke-linecap:round;"/>
    <path clip-path="url(#p6e84549aac)" d="M 334.071108 326.950256 
L 330.49768 324.261276 
L 334.792921 323.015922 
L 334.071108 326.950256 
z
" style="stroke:#000000;stroke-linecap:round;"/>
   </g>
   <g id="PathCollection_1">
    <defs>
     <path d="M 0 13.228757 
C 3.508307 13.228757 6.873396 11.834891 9.354143 9.354143 
C 11.834891 6.873396 13.228757 3.508307 13.228757 0 
C 13.228757 -3.508307 11.834891 -6.873396 9.354143 -9.354143 
C 6.873396 -11.834891 3.508307 -13.228757 0 -13.228757 
C -3.508307 -13.228757 -6.873396 -11.834891 -9.354143 -9.354143 
C -11.834891 -6.873396 -13.228757 -3.508307 -13.228757 0 
C -13.228757 3.508307 -11.834891 6.873396 -9.354143 9.354143 
C -6.873396 11.834891 -3.508307 13.228757 0 13.228757 
z
" id="m6d6bd09f28" style="stroke:#87ceeb;"/>
    </defs>
    <g clip-path="url(#p6e84549aac)">
     <use style="fill:#87ceeb;stroke:#87ceeb;" x="330.351507" xlink:href="#m6d6bd09f28" y="74.975207"/>
     <use style="fill:#87ceeb;stroke:#87ceeb;" x="319.393327" xlink:href="#m6d6bd09f28" y="119.992634"/>
     <use style="fill:#87ceeb;stroke:#87ceeb;" x="312.195156" xlink:href="#m6d6bd09f28" y="153.831202"/>
     <use style="fill:#87ceeb;stroke:#87ceeb;" x="289.834782" xlink:href="#m6d6bd09f28" y="257.604177"/>
     <use style="fill:#87ceeb;stroke:#87ceeb;" x="259.140481" xlink:href="#m6d6bd09f28" y="398.513535"/>
     <use style="fill:#87ceeb;stroke:#87ceeb;" x="132.795322" xlink:href="#m6d6bd09f28" y="141.79755"/>
     <use style="fill:#87ceeb;stroke:#87ceeb;" x="49.983471" xlink:href="#m6d6bd09f28" y="238.814072"/>
     <use style="fill:#87ceeb;stroke:#87ceeb;" x="207.613773" xlink:href="#m6d6bd09f28" y="296.868382"/>
     <use style="fill:#87ceeb;stroke:#87ceeb;" x="255.253845" xlink:href="#m6d6bd09f28" y="311.41523"/>
     <use style="fill:#87ceeb;stroke:#87ceeb;" x="518.956965" xlink:href="#m6d6bd09f28" y="165.404187"/>
     <use style="fill:#87ceeb;stroke:#87ceeb;" x="526.016529" xlink:href="#m6d6bd09f28" y="286.196257"/>
     <use style="fill:#87ceeb;stroke:#87ceeb;" x="365.887776" xlink:href="#m6d6bd09f28" y="316.17034"/>
     <use style="fill:#87ceeb;stroke:#87ceeb;" x="316.388607" xlink:href="#m6d6bd09f28" y="321.672754"/>
     <use style="fill:#87ceeb;stroke:#87ceeb;" x="174.930696" xlink:href="#m6d6bd09f28" y="390.788759"/>
     <use style="fill:#87ceeb;stroke:#87ceeb;" x="92.364344" xlink:href="#m6d6bd09f28" y="537.239432"/>
     <use style="fill:#87ceeb;stroke:#87ceeb;" x="103.946257" xlink:href="#m6d6bd09f28" y="690.723522"/>
     <use style="fill:#87ceeb;stroke:#87ceeb;" x="95.21871" xlink:href="#m6d6bd09f28" y="723.461607"/>
     <use style="fill:#87ceeb;stroke:#87ceeb;" x="343.042277" xlink:href="#m6d6bd09f28" y="400.666386"/>
     <use style="fill:#87ceeb;stroke:#87ceeb;" x="348.048576" xlink:href="#m6d6bd09f28" y="557.247746"/>
     <use style="fill:#87ceeb;stroke:#87ceeb;" x="281.019137" xlink:href="#m6d6bd09f28" y="757.054487"/>
     <use style="fill:#87ceeb;stroke:#87ceeb;" x="279.439252" xlink:href="#m6d6bd09f28" y="789.024793"/>
     <use style="fill:#87ceeb;stroke:#87ceeb;" x="280.242703" xlink:href="#m6d6bd09f28" y="321.242798"/>
     <use style="fill:#87ceeb;stroke:#87ceeb;" x="315.142318" xlink:href="#m6d6bd09f28" y="307.949988"/>
     <use style="fill:#87ceeb;stroke:#87ceeb;" x="281.950624" xlink:href="#m6d6bd09f28" y="330.865625"/>
     <use style="fill:#87ceeb;stroke:#87ceeb;" x="373.833015" xlink:href="#m6d6bd09f28" y="332.211797"/>
    </g>
   </g>
   <g id="text_1">
    <g clip-path="url(#p6e84549aac)">
     <!-- Head -->
     <g transform="translate(317.276507 77.734582)scale(0.1 -0.1)">
      <defs>
       <path d="M 9.8125 72.90625 
L 19.671875 72.90625 
L 19.671875 43.015625 
L 55.515625 43.015625 
L 55.515625 72.90625 
L 65.375 72.90625 
L 65.375 0 
L 55.515625 0 
L 55.515625 34.71875 
L 19.671875 34.71875 
L 19.671875 0 
L 9.8125 0 
z
" id="DejaVuSans-72"/>
       <path d="M 56.203125 29.59375 
L 56.203125 25.203125 
L 14.890625 25.203125 
Q 15.484375 15.921875 20.484375 11.0625 
Q 25.484375 6.203125 34.421875 6.203125 
Q 39.59375 6.203125 44.453125 7.46875 
Q 49.3125 8.734375 54.109375 11.28125 
L 54.109375 2.78125 
Q 49.265625 0.734375 44.1875 -0.34375 
Q 39.109375 -1.421875 33.890625 -1.421875 
Q 20.796875 -1.421875 13.15625 6.1875 
Q 5.515625 13.8125 5.515625 26.8125 
Q 5.515625 40.234375 12.765625 48.109375 
Q 20.015625 56 32.328125 56 
Q 43.359375 56 49.78125 48.890625 
Q 56.203125 41.796875 56.203125 29.59375 
z
M 47.21875 32.234375 
Q 47.125 39.59375 43.09375 43.984375 
Q 39.0625 48.390625 32.421875 48.390625 
Q 24.90625 48.390625 20.390625 44.140625 
Q 15.875 39.890625 15.1875 32.171875 
z
" id="DejaVuSans-101"/>
       <path d="M 34.28125 27.484375 
Q 23.390625 27.484375 19.1875 25 
Q 14.984375 22.515625 14.984375 16.5 
Q 14.984375 11.71875 18.140625 8.90625 
Q 21.296875 6.109375 26.703125 6.109375 
Q 34.1875 6.109375 38.703125 11.40625 
Q 43.21875 16.703125 43.21875 25.484375 
L 43.21875 27.484375 
z
M 52.203125 31.203125 
L 52.203125 0 
L 43.21875 0 
L 43.21875 8.296875 
Q 40.140625 3.328125 35.546875 0.953125 
Q 30.953125 -1.421875 24.3125 -1.421875 
Q 15.921875 -1.421875 10.953125 3.296875 
Q 6 8.015625 6 15.921875 
Q 6 25.140625 12.171875 29.828125 
Q 18.359375 34.515625 30.609375 34.515625 
L 43.21875 34.515625 
L 43.21875 35.40625 
Q 43.21875 41.609375 39.140625 45 
Q 35.0625 48.390625 27.6875 48.390625 
Q 23 48.390625 18.546875 47.265625 
Q 14.109375 46.140625 10.015625 43.890625 
L 10.015625 52.203125 
Q 14.9375 54.109375 19.578125 55.046875 
Q 24.21875 56 28.609375 56 
Q 40.484375 56 46.34375 49.84375 
Q 52.203125 43.703125 52.203125 31.203125 
z
" id="DejaVuSans-97"/>
       <path d="M 45.40625 46.390625 
L 45.40625 75.984375 
L 54.390625 75.984375 
L 54.390625 0 
L 45.40625 0 
L 45.40625 8.203125 
Q 42.578125 3.328125 38.25 0.953125 
Q 33.9375 -1.421875 27.875 -1.421875 
Q 17.96875 -1.421875 11.734375 6.484375 
Q 5.515625 14.40625 5.515625 27.296875 
Q 5.515625 40.1875 11.734375 48.09375 
Q 17.96875 56 27.875 56 
Q 33.9375 56 38.25 53.625 
Q 42.578125 51.265625 45.40625 46.390625 
z
M 14.796875 27.296875 
Q 14.796875 17.390625 18.875 11.75 
Q 22.953125 6.109375 30.078125 6.109375 
Q 37.203125 6.109375 41.296875 11.75 
Q 45.40625 17.390625 45.40625 27.296875 
Q 45.40625 37.203125 41.296875 42.84375 
Q 37.203125 48.484375 30.078125 48.484375 
Q 22.953125 48.484375 18.875 42.84375 
Q 14.796875 37.203125 14.796875 27.296875 
z
" id="DejaVuSans-100"/>
      </defs>
      <use xlink:href="#DejaVuSans-72"/>
      <use x="75.195312" xlink:href="#DejaVuSans-101"/>
      <use x="136.71875" xlink:href="#DejaVuSans-97"/>
      <use x="197.998047" xlink:href="#DejaVuSans-100"/>
     </g>
    </g>
   </g>
   <g id="text_2">
    <g clip-path="url(#p6e84549aac)">
     <!-- c7 -->
     <g transform="translate(313.462858 122.752009)scale(0.1 -0.1)">
      <defs>
       <path d="M 48.78125 52.59375 
L 48.78125 44.1875 
Q 44.96875 46.296875 41.140625 47.34375 
Q 37.3125 48.390625 33.40625 48.390625 
Q 24.65625 48.390625 19.8125 42.84375 
Q 14.984375 37.3125 14.984375 27.296875 
Q 14.984375 17.28125 19.8125 11.734375 
Q 24.65625 6.203125 33.40625 6.203125 
Q 37.3125 6.203125 41.140625 7.25 
Q 44.96875 8.296875 48.78125 10.40625 
L 48.78125 2.09375 
Q 45.015625 0.34375 40.984375 -0.53125 
Q 36.96875 -1.421875 32.421875 -1.421875 
Q 20.0625 -1.421875 12.78125 6.34375 
Q 5.515625 14.109375 5.515625 27.296875 
Q 5.515625 40.671875 12.859375 48.328125 
Q 20.21875 56 33.015625 56 
Q 37.15625 56 41.109375 55.140625 
Q 45.0625 54.296875 48.78125 52.59375 
z
" id="DejaVuSans-99"/>
       <path d="M 8.203125 72.90625 
L 55.078125 72.90625 
L 55.078125 68.703125 
L 28.609375 0 
L 18.3125 0 
L 43.21875 64.59375 
L 8.203125 64.59375 
z
" id="DejaVuSans-55"/>
      </defs>
      <use xlink:href="#DejaVuSans-99"/>
      <use x="54.980469" xlink:href="#DejaVuSans-55"/>
     </g>
    </g>
   </g>
   <g id="text_3">
    <g clip-path="url(#p6e84549aac)">
     <!-- SpineShoulder -->
     <g transform="translate(275.945937 156.590577)scale(0.1 -0.1)">
      <defs>
       <path d="M 53.515625 70.515625 
L 53.515625 60.890625 
Q 47.90625 63.578125 42.921875 64.890625 
Q 37.9375 66.21875 33.296875 66.21875 
Q 25.25 66.21875 20.875 63.09375 
Q 16.5 59.96875 16.5 54.203125 
Q 16.5 49.359375 19.40625 46.890625 
Q 22.3125 44.4375 30.421875 42.921875 
L 36.375 41.703125 
Q 47.40625 39.59375 52.65625 34.296875 
Q 57.90625 29 57.90625 20.125 
Q 57.90625 9.515625 50.796875 4.046875 
Q 43.703125 -1.421875 29.984375 -1.421875 
Q 24.8125 -1.421875 18.96875 -0.25 
Q 13.140625 0.921875 6.890625 3.21875 
L 6.890625 13.375 
Q 12.890625 10.015625 18.65625 8.296875 
Q 24.421875 6.59375 29.984375 6.59375 
Q 38.421875 6.59375 43.015625 9.90625 
Q 47.609375 13.234375 47.609375 19.390625 
Q 47.609375 24.75 44.3125 27.78125 
Q 41.015625 30.8125 33.5 32.328125 
L 27.484375 33.5 
Q 16.453125 35.6875 11.515625 40.375 
Q 6.59375 45.0625 6.59375 53.421875 
Q 6.59375 63.09375 13.40625 68.65625 
Q 20.21875 74.21875 32.171875 74.21875 
Q 37.3125 74.21875 42.625 73.28125 
Q 47.953125 72.359375 53.515625 70.515625 
z
" id="DejaVuSans-83"/>
       <path d="M 18.109375 8.203125 
L 18.109375 -20.796875 
L 9.078125 -20.796875 
L 9.078125 54.6875 
L 18.109375 54.6875 
L 18.109375 46.390625 
Q 20.953125 51.265625 25.265625 53.625 
Q 29.59375 56 35.59375 56 
Q 45.5625 56 51.78125 48.09375 
Q 58.015625 40.1875 58.015625 27.296875 
Q 58.015625 14.40625 51.78125 6.484375 
Q 45.5625 -1.421875 35.59375 -1.421875 
Q 29.59375 -1.421875 25.265625 0.953125 
Q 20.953125 3.328125 18.109375 8.203125 
z
M 48.6875 27.296875 
Q 48.6875 37.203125 44.609375 42.84375 
Q 40.53125 48.484375 33.40625 48.484375 
Q 26.265625 48.484375 22.1875 42.84375 
Q 18.109375 37.203125 18.109375 27.296875 
Q 18.109375 17.390625 22.1875 11.75 
Q 26.265625 6.109375 33.40625 6.109375 
Q 40.53125 6.109375 44.609375 11.75 
Q 48.6875 17.390625 48.6875 27.296875 
z
" id="DejaVuSans-112"/>
       <path d="M 9.421875 54.6875 
L 18.40625 54.6875 
L 18.40625 0 
L 9.421875 0 
z
M 9.421875 75.984375 
L 18.40625 75.984375 
L 18.40625 64.59375 
L 9.421875 64.59375 
z
" id="DejaVuSans-105"/>
       <path d="M 54.890625 33.015625 
L 54.890625 0 
L 45.90625 0 
L 45.90625 32.71875 
Q 45.90625 40.484375 42.875 44.328125 
Q 39.84375 48.1875 33.796875 48.1875 
Q 26.515625 48.1875 22.3125 43.546875 
Q 18.109375 38.921875 18.109375 30.90625 
L 18.109375 0 
L 9.078125 0 
L 9.078125 54.6875 
L 18.109375 54.6875 
L 18.109375 46.1875 
Q 21.34375 51.125 25.703125 53.5625 
Q 30.078125 56 35.796875 56 
Q 45.21875 56 50.046875 50.171875 
Q 54.890625 44.34375 54.890625 33.015625 
z
" id="DejaVuSans-110"/>
       <path d="M 54.890625 33.015625 
L 54.890625 0 
L 45.90625 0 
L 45.90625 32.71875 
Q 45.90625 40.484375 42.875 44.328125 
Q 39.84375 48.1875 33.796875 48.1875 
Q 26.515625 48.1875 22.3125 43.546875 
Q 18.109375 38.921875 18.109375 30.90625 
L 18.109375 0 
L 9.078125 0 
L 9.078125 75.984375 
L 18.109375 75.984375 
L 18.109375 46.1875 
Q 21.34375 51.125 25.703125 53.5625 
Q 30.078125 56 35.796875 56 
Q 45.21875 56 50.046875 50.171875 
Q 54.890625 44.34375 54.890625 33.015625 
z
" id="DejaVuSans-104"/>
       <path d="M 30.609375 48.390625 
Q 23.390625 48.390625 19.1875 42.75 
Q 14.984375 37.109375 14.984375 27.296875 
Q 14.984375 17.484375 19.15625 11.84375 
Q 23.34375 6.203125 30.609375 6.203125 
Q 37.796875 6.203125 41.984375 11.859375 
Q 46.1875 17.53125 46.1875 27.296875 
Q 46.1875 37.015625 41.984375 42.703125 
Q 37.796875 48.390625 30.609375 48.390625 
z
M 30.609375 56 
Q 42.328125 56 49.015625 48.375 
Q 55.71875 40.765625 55.71875 27.296875 
Q 55.71875 13.875 49.015625 6.21875 
Q 42.328125 -1.421875 30.609375 -1.421875 
Q 18.84375 -1.421875 12.171875 6.21875 
Q 5.515625 13.875 5.515625 27.296875 
Q 5.515625 40.765625 12.171875 48.375 
Q 18.84375 56 30.609375 56 
z
" id="DejaVuSans-111"/>
       <path d="M 8.5 21.578125 
L 8.5 54.6875 
L 17.484375 54.6875 
L 17.484375 21.921875 
Q 17.484375 14.15625 20.5 10.265625 
Q 23.53125 6.390625 29.59375 6.390625 
Q 36.859375 6.390625 41.078125 11.03125 
Q 45.3125 15.671875 45.3125 23.6875 
L 45.3125 54.6875 
L 54.296875 54.6875 
L 54.296875 0 
L 45.3125 0 
L 45.3125 8.40625 
Q 42.046875 3.421875 37.71875 1 
Q 33.40625 -1.421875 27.6875 -1.421875 
Q 18.265625 -1.421875 13.375 4.4375 
Q 8.5 10.296875 8.5 21.578125 
z
M 31.109375 56 
z
" id="DejaVuSans-117"/>
       <path d="M 9.421875 75.984375 
L 18.40625 75.984375 
L 18.40625 0 
L 9.421875 0 
z
" id="DejaVuSans-108"/>
       <path d="M 41.109375 46.296875 
Q 39.59375 47.171875 37.8125 47.578125 
Q 36.03125 48 33.890625 48 
Q 26.265625 48 22.1875 43.046875 
Q 18.109375 38.09375 18.109375 28.8125 
L 18.109375 0 
L 9.078125 0 
L 9.078125 54.6875 
L 18.109375 54.6875 
L 18.109375 46.1875 
Q 20.953125 51.171875 25.484375 53.578125 
Q 30.03125 56 36.53125 56 
Q 37.453125 56 38.578125 55.875 
Q 39.703125 55.765625 41.0625 55.515625 
z
" id="DejaVuSans-114"/>
      </defs>
      <use xlink:href="#DejaVuSans-83"/>
      <use x="63.476562" xlink:href="#DejaVuSans-112"/>
      <use x="126.953125" xlink:href="#DejaVuSans-105"/>
      <use x="154.736328" xlink:href="#DejaVuSans-110"/>
      <use x="218.115234" xlink:href="#DejaVuSans-101"/>
      <use x="279.638672" xlink:href="#DejaVuSans-83"/>
      <use x="343.115234" xlink:href="#DejaVuSans-104"/>
      <use x="406.494141" xlink:href="#DejaVuSans-111"/>
      <use x="467.675781" xlink:href="#DejaVuSans-117"/>
      <use x="531.054688" xlink:href="#DejaVuSans-108"/>
      <use x="558.837891" xlink:href="#DejaVuSans-100"/>
      <use x="622.314453" xlink:href="#DejaVuSans-101"/>
      <use x="683.837891" xlink:href="#DejaVuSans-114"/>
     </g>
    </g>
   </g>
   <g id="text_4">
    <g clip-path="url(#p6e84549aac)">
     <!-- Spine -->
     <g transform="translate(275.851969 260.363552)scale(0.1 -0.1)">
      <use xlink:href="#DejaVuSans-83"/>
      <use x="63.476562" xlink:href="#DejaVuSans-112"/>
      <use x="126.953125" xlink:href="#DejaVuSans-105"/>
      <use x="154.736328" xlink:href="#DejaVuSans-110"/>
      <use x="218.115234" xlink:href="#DejaVuSans-101"/>
     </g>
    </g>
   </g>
   <g id="text_5">
    <g clip-path="url(#p6e84549aac)">
     <!-- Sacr -->
     <g transform="translate(248.097512 401.27291)scale(0.1 -0.1)">
      <use xlink:href="#DejaVuSans-83"/>
      <use x="63.476562" xlink:href="#DejaVuSans-97"/>
      <use x="124.755859" xlink:href="#DejaVuSans-99"/>
      <use x="179.736328" xlink:href="#DejaVuSans-114"/>
     </g>
    </g>
   </g>
   <g id="text_6">
    <g clip-path="url(#p6e84549aac)">
     <!-- LShoulder -->
     <g transform="translate(107.742978 144.556925)scale(0.1 -0.1)">
      <defs>
       <path d="M 9.8125 72.90625 
L 19.671875 72.90625 
L 19.671875 8.296875 
L 55.171875 8.296875 
L 55.171875 0 
L 9.8125 0 
z
" id="DejaVuSans-76"/>
      </defs>
      <use xlink:href="#DejaVuSans-76"/>
      <use x="55.712891" xlink:href="#DejaVuSans-83"/>
      <use x="119.189453" xlink:href="#DejaVuSans-104"/>
      <use x="182.568359" xlink:href="#DejaVuSans-111"/>
      <use x="243.75" xlink:href="#DejaVuSans-117"/>
      <use x="307.128906" xlink:href="#DejaVuSans-108"/>
      <use x="334.912109" xlink:href="#DejaVuSans-100"/>
      <use x="398.388672" xlink:href="#DejaVuSans-101"/>
      <use x="459.912109" xlink:href="#DejaVuSans-114"/>
     </g>
    </g>
   </g>
   <g id="text_7">
    <g clip-path="url(#p6e84549aac)">
     <!-- LElbow -->
     <g transform="translate(32.32644 241.573447)scale(0.1 -0.1)">
      <defs>
       <path d="M 9.8125 72.90625 
L 55.90625 72.90625 
L 55.90625 64.59375 
L 19.671875 64.59375 
L 19.671875 43.015625 
L 54.390625 43.015625 
L 54.390625 34.71875 
L 19.671875 34.71875 
L 19.671875 8.296875 
L 56.78125 8.296875 
L 56.78125 0 
L 9.8125 0 
z
" id="DejaVuSans-69"/>
       <path d="M 48.6875 27.296875 
Q 48.6875 37.203125 44.609375 42.84375 
Q 40.53125 48.484375 33.40625 48.484375 
Q 26.265625 48.484375 22.1875 42.84375 
Q 18.109375 37.203125 18.109375 27.296875 
Q 18.109375 17.390625 22.1875 11.75 
Q 26.265625 6.109375 33.40625 6.109375 
Q 40.53125 6.109375 44.609375 11.75 
Q 48.6875 17.390625 48.6875 27.296875 
z
M 18.109375 46.390625 
Q 20.953125 51.265625 25.265625 53.625 
Q 29.59375 56 35.59375 56 
Q 45.5625 56 51.78125 48.09375 
Q 58.015625 40.1875 58.015625 27.296875 
Q 58.015625 14.40625 51.78125 6.484375 
Q 45.5625 -1.421875 35.59375 -1.421875 
Q 29.59375 -1.421875 25.265625 0.953125 
Q 20.953125 3.328125 18.109375 8.203125 
L 18.109375 0 
L 9.078125 0 
L 9.078125 75.984375 
L 18.109375 75.984375 
z
" id="DejaVuSans-98"/>
       <path d="M 4.203125 54.6875 
L 13.1875 54.6875 
L 24.421875 12.015625 
L 35.59375 54.6875 
L 46.1875 54.6875 
L 57.421875 12.015625 
L 68.609375 54.6875 
L 77.59375 54.6875 
L 63.28125 0 
L 52.6875 0 
L 40.921875 44.828125 
L 29.109375 0 
L 18.5 0 
z
" id="DejaVuSans-119"/>
      </defs>
      <use xlink:href="#DejaVuSans-76"/>
      <use x="55.712891" xlink:href="#DejaVuSans-69"/>
      <use x="118.896484" xlink:href="#DejaVuSans-108"/>
      <use x="146.679688" xlink:href="#DejaVuSans-98"/>
      <use x="210.15625" xlink:href="#DejaVuSans-111"/>
      <use x="271.337891" xlink:href="#DejaVuSans-119"/>
     </g>
    </g>
   </g>
   <g id="text_8">
    <g clip-path="url(#p6e84549aac)">
     <!-- LWrist -->
     <g transform="translate(192.555961 299.627757)scale(0.1 -0.1)">
      <defs>
       <path d="M 3.328125 72.90625 
L 13.28125 72.90625 
L 28.609375 11.28125 
L 43.890625 72.90625 
L 54.984375 72.90625 
L 70.3125 11.28125 
L 85.59375 72.90625 
L 95.609375 72.90625 
L 77.296875 0 
L 64.890625 0 
L 49.515625 63.28125 
L 33.984375 0 
L 21.578125 0 
z
" id="DejaVuSans-87"/>
       <path d="M 44.28125 53.078125 
L 44.28125 44.578125 
Q 40.484375 46.53125 36.375 47.5 
Q 32.28125 48.484375 27.875 48.484375 
Q 21.1875 48.484375 17.84375 46.4375 
Q 14.5 44.390625 14.5 40.28125 
Q 14.5 37.15625 16.890625 35.375 
Q 19.28125 33.59375 26.515625 31.984375 
L 29.59375 31.296875 
Q 39.15625 29.25 43.1875 25.515625 
Q 47.21875 21.78125 47.21875 15.09375 
Q 47.21875 7.46875 41.1875 3.015625 
Q 35.15625 -1.421875 24.609375 -1.421875 
Q 20.21875 -1.421875 15.453125 -0.5625 
Q 10.6875 0.296875 5.421875 2 
L 5.421875 11.28125 
Q 10.40625 8.6875 15.234375 7.390625 
Q 20.0625 6.109375 24.8125 6.109375 
Q 31.15625 6.109375 34.5625 8.28125 
Q 37.984375 10.453125 37.984375 14.40625 
Q 37.984375 18.0625 35.515625 20.015625 
Q 33.0625 21.96875 24.703125 23.78125 
L 21.578125 24.515625 
Q 13.234375 26.265625 9.515625 29.90625 
Q 5.8125 33.546875 5.8125 39.890625 
Q 5.8125 47.609375 11.28125 51.796875 
Q 16.75 56 26.8125 56 
Q 31.78125 56 36.171875 55.265625 
Q 40.578125 54.546875 44.28125 53.078125 
z
" id="DejaVuSans-115"/>
       <path d="M 18.3125 70.21875 
L 18.3125 54.6875 
L 36.8125 54.6875 
L 36.8125 47.703125 
L 18.3125 47.703125 
L 18.3125 18.015625 
Q 18.3125 11.328125 20.140625 9.421875 
Q 21.96875 7.515625 27.59375 7.515625 
L 36.8125 7.515625 
L 36.8125 0 
L 27.59375 0 
Q 17.1875 0 13.234375 3.875 
Q 9.28125 7.765625 9.28125 18.015625 
L 9.28125 47.703125 
L 2.6875 47.703125 
L 2.6875 54.6875 
L 9.28125 54.6875 
L 9.28125 70.21875 
z
" id="DejaVuSans-116"/>
      </defs>
      <use xlink:href="#DejaVuSans-76"/>
      <use x="46.587891" xlink:href="#DejaVuSans-87"/>
      <use x="140.964844" xlink:href="#DejaVuSans-114"/>
      <use x="182.078125" xlink:href="#DejaVuSans-105"/>
      <use x="209.861328" xlink:href="#DejaVuSans-115"/>
      <use x="261.960938" xlink:href="#DejaVuSans-116"/>
     </g>
    </g>
   </g>
   <g id="text_9">
    <g clip-path="url(#p6e84549aac)">
     <!-- LHand -->
     <g transform="translate(239.30072 314.174605)scale(0.1 -0.1)">
      <use xlink:href="#DejaVuSans-76"/>
      <use x="55.712891" xlink:href="#DejaVuSans-72"/>
      <use x="130.908203" xlink:href="#DejaVuSans-97"/>
      <use x="192.1875" xlink:href="#DejaVuSans-110"/>
      <use x="255.566406" xlink:href="#DejaVuSans-100"/>
     </g>
    </g>
   </g>
   <g id="text_10">
    <g clip-path="url(#p6e84549aac)">
     <!-- RShoulder -->
     <g transform="translate(493.21634 168.163562)scale(0.1 -0.1)">
      <defs>
       <path d="M 44.390625 34.1875 
Q 47.5625 33.109375 50.5625 29.59375 
Q 53.5625 26.078125 56.59375 19.921875 
L 66.609375 0 
L 56 0 
L 46.6875 18.703125 
Q 43.0625 26.03125 39.671875 28.421875 
Q 36.28125 30.8125 30.421875 30.8125 
L 19.671875 30.8125 
L 19.671875 0 
L 9.8125 0 
L 9.8125 72.90625 
L 32.078125 72.90625 
Q 44.578125 72.90625 50.734375 67.671875 
Q 56.890625 62.453125 56.890625 51.90625 
Q 56.890625 45.015625 53.6875 40.46875 
Q 50.484375 35.9375 44.390625 34.1875 
z
M 19.671875 64.796875 
L 19.671875 38.921875 
L 32.078125 38.921875 
Q 39.203125 38.921875 42.84375 42.21875 
Q 46.484375 45.515625 46.484375 51.90625 
Q 46.484375 58.296875 42.84375 61.546875 
Q 39.203125 64.796875 32.078125 64.796875 
z
" id="DejaVuSans-82"/>
      </defs>
      <use xlink:href="#DejaVuSans-82"/>
      <use x="69.482422" xlink:href="#DejaVuSans-83"/>
      <use x="132.958984" xlink:href="#DejaVuSans-104"/>
      <use x="196.337891" xlink:href="#DejaVuSans-111"/>
      <use x="257.519531" xlink:href="#DejaVuSans-117"/>
      <use x="320.898438" xlink:href="#DejaVuSans-108"/>
      <use x="348.681641" xlink:href="#DejaVuSans-100"/>
      <use x="412.158203" xlink:href="#DejaVuSans-101"/>
      <use x="473.681641" xlink:href="#DejaVuSans-114"/>
     </g>
    </g>
   </g>
   <g id="text_11">
    <g clip-path="url(#p6e84549aac)">
     <!-- RElbow -->
     <g transform="translate(507.671216 288.955632)scale(0.1 -0.1)">
      <use xlink:href="#DejaVuSans-82"/>
      <use x="69.482422" xlink:href="#DejaVuSans-69"/>
      <use x="132.666016" xlink:href="#DejaVuSans-108"/>
      <use x="160.449219" xlink:href="#DejaVuSans-98"/>
      <use x="223.925781" xlink:href="#DejaVuSans-111"/>
      <use x="285.107422" xlink:href="#DejaVuSans-119"/>
     </g>
    </g>
   </g>
   <g id="text_12">
    <g clip-path="url(#p6e84549aac)">
     <!-- RWrist -->
     <g transform="translate(349.885432 318.929715)scale(0.1 -0.1)">
      <use xlink:href="#DejaVuSans-82"/>
      <use x="65.482422" xlink:href="#DejaVuSans-87"/>
      <use x="159.859375" xlink:href="#DejaVuSans-114"/>
      <use x="200.972656" xlink:href="#DejaVuSans-105"/>
      <use x="228.755859" xlink:href="#DejaVuSans-115"/>
      <use x="280.855469" xlink:href="#DejaVuSans-116"/>
     </g>
    </g>
   </g>
   <g id="text_13">
    <g clip-path="url(#p6e84549aac)">
     <!-- RHand -->
     <g transform="translate(299.747201 324.432129)scale(0.1 -0.1)">
      <use xlink:href="#DejaVuSans-82"/>
      <use x="69.482422" xlink:href="#DejaVuSans-72"/>
      <use x="144.677734" xlink:href="#DejaVuSans-97"/>
      <use x="205.957031" xlink:href="#DejaVuSans-110"/>
      <use x="269.335938" xlink:href="#DejaVuSans-100"/>
     </g>
    </g>
   </g>
   <g id="text_14">
    <g clip-path="url(#p6e84549aac)">
     <!-- LHip -->
     <g transform="translate(163.821321 393.548134)scale(0.1 -0.1)">
      <use xlink:href="#DejaVuSans-76"/>
      <use x="55.712891" xlink:href="#DejaVuSans-72"/>
      <use x="130.908203" xlink:href="#DejaVuSans-105"/>
      <use x="158.691406" xlink:href="#DejaVuSans-112"/>
     </g>
    </g>
   </g>
   <g id="text_15">
    <g clip-path="url(#p6e84549aac)">
     <!-- LKnee -->
     <g transform="translate(76.977626 539.998807)scale(0.1 -0.1)">
      <defs>
       <path d="M 9.8125 72.90625 
L 19.671875 72.90625 
L 19.671875 42.09375 
L 52.390625 72.90625 
L 65.09375 72.90625 
L 28.90625 38.921875 
L 67.671875 0 
L 54.6875 0 
L 19.671875 35.109375 
L 19.671875 0 
L 9.8125 0 
z
" id="DejaVuSans-75"/>
      </defs>
      <use xlink:href="#DejaVuSans-76"/>
      <use x="55.712891" xlink:href="#DejaVuSans-75"/>
      <use x="121.289062" xlink:href="#DejaVuSans-110"/>
      <use x="184.667969" xlink:href="#DejaVuSans-101"/>
      <use x="246.191406" xlink:href="#DejaVuSans-101"/>
     </g>
    </g>
   </g>
   <g id="text_16">
    <g clip-path="url(#p6e84549aac)">
     <!-- LAnkle -->
     <g transform="translate(87.09782 693.482897)scale(0.1 -0.1)">
      <defs>
       <path d="M 34.1875 63.1875 
L 20.796875 26.90625 
L 47.609375 26.90625 
z
M 28.609375 72.90625 
L 39.796875 72.90625 
L 67.578125 0 
L 57.328125 0 
L 50.6875 18.703125 
L 17.828125 18.703125 
L 11.1875 0 
L 0.78125 0 
z
" id="DejaVuSans-65"/>
       <path d="M 9.078125 75.984375 
L 18.109375 75.984375 
L 18.109375 31.109375 
L 44.921875 54.6875 
L 56.390625 54.6875 
L 27.390625 29.109375 
L 57.625 0 
L 45.90625 0 
L 18.109375 26.703125 
L 18.109375 0 
L 9.078125 0 
z
" id="DejaVuSans-107"/>
      </defs>
      <use xlink:href="#DejaVuSans-76"/>
      <use x="57.962891" xlink:href="#DejaVuSans-65"/>
      <use x="126.371094" xlink:href="#DejaVuSans-110"/>
      <use x="189.75" xlink:href="#DejaVuSans-107"/>
      <use x="247.660156" xlink:href="#DejaVuSans-108"/>
      <use x="275.443359" xlink:href="#DejaVuSans-101"/>
     </g>
    </g>
   </g>
   <g id="text_17">
    <g clip-path="url(#p6e84549aac)">
     <!-- LFoot -->
     <g transform="translate(81.659335 726.220982)scale(0.1 -0.1)">
      <defs>
       <path d="M 9.8125 72.90625 
L 51.703125 72.90625 
L 51.703125 64.59375 
L 19.671875 64.59375 
L 19.671875 43.109375 
L 48.578125 43.109375 
L 48.578125 34.8125 
L 19.671875 34.8125 
L 19.671875 0 
L 9.8125 0 
z
" id="DejaVuSans-70"/>
      </defs>
      <use xlink:href="#DejaVuSans-76"/>
      <use x="55.712891" xlink:href="#DejaVuSans-70"/>
      <use x="109.607422" xlink:href="#DejaVuSans-111"/>
      <use x="170.789062" xlink:href="#DejaVuSans-111"/>
      <use x="231.970703" xlink:href="#DejaVuSans-116"/>
     </g>
    </g>
   </g>
   <g id="text_18">
    <g clip-path="url(#p6e84549aac)">
     <!-- RHip -->
     <g transform="translate(331.24462 403.425761)scale(0.1 -0.1)">
      <use xlink:href="#DejaVuSans-82"/>
      <use x="69.482422" xlink:href="#DejaVuSans-72"/>
      <use x="144.677734" xlink:href="#DejaVuSans-105"/>
      <use x="172.460938" xlink:href="#DejaVuSans-112"/>
     </g>
    </g>
   </g>
   <g id="text_19">
    <g clip-path="url(#p6e84549aac)">
     <!-- RKnee -->
     <g transform="translate(331.973576 560.007121)scale(0.1 -0.1)">
      <use xlink:href="#DejaVuSans-82"/>
      <use x="69.482422" xlink:href="#DejaVuSans-75"/>
      <use x="135.058594" xlink:href="#DejaVuSans-110"/>
      <use x="198.4375" xlink:href="#DejaVuSans-101"/>
      <use x="259.960938" xlink:href="#DejaVuSans-101"/>
     </g>
    </g>
   </g>
   <g id="text_20">
    <g clip-path="url(#p6e84549aac)">
     <!-- RAnkle -->
     <g transform="translate(263.794918 759.813862)scale(0.1 -0.1)">
      <use xlink:href="#DejaVuSans-82"/>
      <use x="65.482422" xlink:href="#DejaVuSans-65"/>
      <use x="133.890625" xlink:href="#DejaVuSans-110"/>
      <use x="197.269531" xlink:href="#DejaVuSans-107"/>
      <use x="255.179688" xlink:href="#DejaVuSans-108"/>
      <use x="282.962891" xlink:href="#DejaVuSans-101"/>
     </g>
    </g>
   </g>
   <g id="text_21">
    <g clip-path="url(#p6e84549aac)">
     <!-- RFoot -->
     <g transform="translate(265.191595 791.784168)scale(0.1 -0.1)">
      <use xlink:href="#DejaVuSans-82"/>
      <use x="69.482422" xlink:href="#DejaVuSans-70"/>
      <use x="123.376953" xlink:href="#DejaVuSans-111"/>
      <use x="184.558594" xlink:href="#DejaVuSans-111"/>
      <use x="245.740234" xlink:href="#DejaVuSans-116"/>
     </g>
    </g>
   </g>
   <g id="text_22">
    <g clip-path="url(#p6e84549aac)">
     <!-- LHandTip -->
     <g transform="translate(256.82864 324.002173)scale(0.1 -0.1)">
      <defs>
       <path d="M -0.296875 72.90625 
L 61.375 72.90625 
L 61.375 64.59375 
L 35.5 64.59375 
L 35.5 0 
L 25.59375 0 
L 25.59375 64.59375 
L -0.296875 64.59375 
z
" id="DejaVuSans-84"/>
      </defs>
      <use xlink:href="#DejaVuSans-76"/>
      <use x="55.712891" xlink:href="#DejaVuSans-72"/>
      <use x="130.908203" xlink:href="#DejaVuSans-97"/>
      <use x="192.1875" xlink:href="#DejaVuSans-110"/>
      <use x="255.566406" xlink:href="#DejaVuSans-100"/>
      <use x="319.042969" xlink:href="#DejaVuSans-84"/>
      <use x="377.001953" xlink:href="#DejaVuSans-105"/>
      <use x="404.785156" xlink:href="#DejaVuSans-112"/>
     </g>
    </g>
   </g>
   <g id="text_23">
    <g clip-path="url(#p6e84549aac)">
     <!-- LThumb -->
     <g transform="translate(295.607943 310.709363)scale(0.1 -0.1)">
      <defs>
       <path d="M 52 44.1875 
Q 55.375 50.25 60.0625 53.125 
Q 64.75 56 71.09375 56 
Q 79.640625 56 84.28125 50.015625 
Q 88.921875 44.046875 88.921875 33.015625 
L 88.921875 0 
L 79.890625 0 
L 79.890625 32.71875 
Q 79.890625 40.578125 77.09375 44.375 
Q 74.3125 48.1875 68.609375 48.1875 
Q 61.625 48.1875 57.5625 43.546875 
Q 53.515625 38.921875 53.515625 30.90625 
L 53.515625 0 
L 44.484375 0 
L 44.484375 32.71875 
Q 44.484375 40.625 41.703125 44.40625 
Q 38.921875 48.1875 33.109375 48.1875 
Q 26.21875 48.1875 22.15625 43.53125 
Q 18.109375 38.875 18.109375 30.90625 
L 18.109375 0 
L 9.078125 0 
L 9.078125 54.6875 
L 18.109375 54.6875 
L 18.109375 46.1875 
Q 21.1875 51.21875 25.484375 53.609375 
Q 29.78125 56 35.6875 56 
Q 41.65625 56 45.828125 52.96875 
Q 50 49.953125 52 44.1875 
z
" id="DejaVuSans-109"/>
      </defs>
      <use xlink:href="#DejaVuSans-76"/>
      <use x="41.962891" xlink:href="#DejaVuSans-84"/>
      <use x="103.046875" xlink:href="#DejaVuSans-104"/>
      <use x="166.425781" xlink:href="#DejaVuSans-117"/>
      <use x="229.804688" xlink:href="#DejaVuSans-109"/>
      <use x="327.216797" xlink:href="#DejaVuSans-98"/>
     </g>
    </g>
   </g>
   <g id="text_24">
    <g clip-path="url(#p6e84549aac)">
     <!-- RHandTip -->
     <g transform="translate(257.84828 333.625)scale(0.1 -0.1)">
      <use xlink:href="#DejaVuSans-82"/>
      <use x="69.482422" xlink:href="#DejaVuSans-72"/>
      <use x="144.677734" xlink:href="#DejaVuSans-97"/>
      <use x="205.957031" xlink:href="#DejaVuSans-110"/>
      <use x="269.335938" xlink:href="#DejaVuSans-100"/>
      <use x="332.8125" xlink:href="#DejaVuSans-84"/>
      <use x="390.771484" xlink:href="#DejaVuSans-105"/>
      <use x="418.554688" xlink:href="#DejaVuSans-112"/>
     </g>
    </g>
   </g>
   <g id="text_25">
    <g clip-path="url(#p6e84549aac)">
     <!-- RThumb -->
     <g transform="translate(353.285359 334.971172)scale(0.1 -0.1)">
      <use xlink:href="#DejaVuSans-82"/>
      <use x="62.232422" xlink:href="#DejaVuSans-84"/>
      <use x="123.316406" xlink:href="#DejaVuSans-104"/>
      <use x="186.695312" xlink:href="#DejaVuSans-117"/>
      <use x="250.074219" xlink:href="#DejaVuSans-109"/>
      <use x="347.486328" xlink:href="#DejaVuSans-98"/>
     </g>
    </g>
   </g>
   <g id="text_26">
    <!-- Node Graph Visualization - Frame 293 -->
    <g transform="translate(174.194063 -6)scale(0.12 -0.12)">
     <defs>
      <path d="M 9.8125 72.90625 
L 23.09375 72.90625 
L 55.421875 11.921875 
L 55.421875 72.90625 
L 64.984375 72.90625 
L 64.984375 0 
L 51.703125 0 
L 19.390625 60.984375 
L 19.390625 0 
L 9.8125 0 
z
" id="DejaVuSans-78"/>
      <path id="DejaVuSans-32"/>
      <path d="M 59.515625 10.40625 
L 59.515625 29.984375 
L 43.40625 29.984375 
L 43.40625 38.09375 
L 69.28125 38.09375 
L 69.28125 6.78125 
Q 63.578125 2.734375 56.6875 0.65625 
Q 49.8125 -1.421875 42 -1.421875 
Q 24.90625 -1.421875 15.25 8.5625 
Q 5.609375 18.5625 5.609375 36.375 
Q 5.609375 54.25 15.25 64.234375 
Q 24.90625 74.21875 42 74.21875 
Q 49.125 74.21875 55.546875 72.453125 
Q 61.96875 70.703125 67.390625 67.28125 
L 67.390625 56.78125 
Q 61.921875 61.421875 55.765625 63.765625 
Q 49.609375 66.109375 42.828125 66.109375 
Q 29.4375 66.109375 22.71875 58.640625 
Q 16.015625 51.171875 16.015625 36.375 
Q 16.015625 21.625 22.71875 14.15625 
Q 29.4375 6.6875 42.828125 6.6875 
Q 48.046875 6.6875 52.140625 7.59375 
Q 56.25 8.5 59.515625 10.40625 
z
" id="DejaVuSans-71"/>
      <path d="M 28.609375 0 
L 0.78125 72.90625 
L 11.078125 72.90625 
L 34.1875 11.53125 
L 57.328125 72.90625 
L 67.578125 72.90625 
L 39.796875 0 
z
" id="DejaVuSans-86"/>
      <path d="M 5.515625 54.6875 
L 48.1875 54.6875 
L 48.1875 46.484375 
L 14.40625 7.171875 
L 48.1875 7.171875 
L 48.1875 0 
L 4.296875 0 
L 4.296875 8.203125 
L 38.09375 47.515625 
L 5.515625 47.515625 
z
" id="DejaVuSans-122"/>
      <path d="M 4.890625 31.390625 
L 31.203125 31.390625 
L 31.203125 23.390625 
L 4.890625 23.390625 
z
" id="DejaVuSans-45"/>
      <path d="M 19.1875 8.296875 
L 53.609375 8.296875 
L 53.609375 0 
L 7.328125 0 
L 7.328125 8.296875 
Q 12.9375 14.109375 22.625 23.890625 
Q 32.328125 33.6875 34.8125 36.53125 
Q 39.546875 41.84375 41.421875 45.53125 
Q 43.3125 49.21875 43.3125 52.78125 
Q 43.3125 58.59375 39.234375 62.25 
Q 35.15625 65.921875 28.609375 65.921875 
Q 23.96875 65.921875 18.8125 64.3125 
Q 13.671875 62.703125 7.8125 59.421875 
L 7.8125 69.390625 
Q 13.765625 71.78125 18.9375 73 
Q 24.125 74.21875 28.421875 74.21875 
Q 39.75 74.21875 46.484375 68.546875 
Q 53.21875 62.890625 53.21875 53.421875 
Q 53.21875 48.921875 51.53125 44.890625 
Q 49.859375 40.875 45.40625 35.40625 
Q 44.1875 33.984375 37.640625 27.21875 
Q 31.109375 20.453125 19.1875 8.296875 
z
" id="DejaVuSans-50"/>
      <path d="M 10.984375 1.515625 
L 10.984375 10.5 
Q 14.703125 8.734375 18.5 7.8125 
Q 22.3125 6.890625 25.984375 6.890625 
Q 35.75 6.890625 40.890625 13.453125 
Q 46.046875 20.015625 46.78125 33.40625 
Q 43.953125 29.203125 39.59375 26.953125 
Q 35.25 24.703125 29.984375 24.703125 
Q 19.046875 24.703125 12.671875 31.3125 
Q 6.296875 37.9375 6.296875 49.421875 
Q 6.296875 60.640625 12.9375 67.421875 
Q 19.578125 74.21875 30.609375 74.21875 
Q 43.265625 74.21875 49.921875 64.515625 
Q 56.59375 54.828125 56.59375 36.375 
Q 56.59375 19.140625 48.40625 8.859375 
Q 40.234375 -1.421875 26.421875 -1.421875 
Q 22.703125 -1.421875 18.890625 -0.6875 
Q 15.09375 0.046875 10.984375 1.515625 
z
M 30.609375 32.421875 
Q 37.25 32.421875 41.125 36.953125 
Q 45.015625 41.5 45.015625 49.421875 
Q 45.015625 57.28125 41.125 61.84375 
Q 37.25 66.40625 30.609375 66.40625 
Q 23.96875 66.40625 20.09375 61.84375 
Q 16.21875 57.28125 16.21875 49.421875 
Q 16.21875 41.5 20.09375 36.953125 
Q 23.96875 32.421875 30.609375 32.421875 
z
" id="DejaVuSans-57"/>
      <path d="M 40.578125 39.3125 
Q 47.65625 37.796875 51.625 33 
Q 55.609375 28.21875 55.609375 21.1875 
Q 55.609375 10.40625 48.1875 4.484375 
Q 40.765625 -1.421875 27.09375 -1.421875 
Q 22.515625 -1.421875 17.65625 -0.515625 
Q 12.796875 0.390625 7.625 2.203125 
L 7.625 11.71875 
Q 11.71875 9.328125 16.59375 8.109375 
Q 21.484375 6.890625 26.8125 6.890625 
Q 36.078125 6.890625 40.9375 10.546875 
Q 45.796875 14.203125 45.796875 21.1875 
Q 45.796875 27.640625 41.28125 31.265625 
Q 36.765625 34.90625 28.71875 34.90625 
L 20.21875 34.90625 
L 20.21875 43.015625 
L 29.109375 43.015625 
Q 36.375 43.015625 40.234375 45.921875 
Q 44.09375 48.828125 44.09375 54.296875 
Q 44.09375 59.90625 40.109375 62.90625 
Q 36.140625 65.921875 28.71875 65.921875 
Q 24.65625 65.921875 20.015625 65.03125 
Q 15.375 64.15625 9.8125 62.3125 
L 9.8125 71.09375 
Q 15.4375 72.65625 20.34375 73.4375 
Q 25.25 74.21875 29.59375 74.21875 
Q 40.828125 74.21875 47.359375 69.109375 
Q 53.90625 64.015625 53.90625 55.328125 
Q 53.90625 49.265625 50.4375 45.09375 
Q 46.96875 40.921875 40.578125 39.3125 
z
" id="DejaVuSans-51"/>
     </defs>
     <use xlink:href="#DejaVuSans-78"/>
     <use x="74.804688" xlink:href="#DejaVuSans-111"/>
     <use x="135.986328" xlink:href="#DejaVuSans-100"/>
     <use x="199.462891" xlink:href="#DejaVuSans-101"/>
     <use x="260.986328" xlink:href="#DejaVuSans-32"/>
     <use x="292.773438" xlink:href="#DejaVuSans-71"/>
     <use x="370.263672" xlink:href="#DejaVuSans-114"/>
     <use x="411.376953" xlink:href="#DejaVuSans-97"/>
     <use x="472.65625" xlink:href="#DejaVuSans-112"/>
     <use x="536.132812" xlink:href="#DejaVuSans-104"/>
     <use x="599.511719" xlink:href="#DejaVuSans-32"/>
     <use x="631.298828" xlink:href="#DejaVuSans-86"/>
     <use x="697.457031" xlink:href="#DejaVuSans-105"/>
     <use x="725.240234" xlink:href="#DejaVuSans-115"/>
     <use x="777.339844" xlink:href="#DejaVuSans-117"/>
     <use x="840.71875" xlink:href="#DejaVuSans-97"/>
     <use x="901.998047" xlink:href="#DejaVuSans-108"/>
     <use x="929.78125" xlink:href="#DejaVuSans-105"/>
     <use x="957.564453" xlink:href="#DejaVuSans-122"/>
     <use x="1010.054688" xlink:href="#DejaVuSans-97"/>
     <use x="1071.333984" xlink:href="#DejaVuSans-116"/>
     <use x="1110.542969" xlink:href="#DejaVuSans-105"/>
     <use x="1138.326172" xlink:href="#DejaVuSans-111"/>
     <use x="1199.507812" xlink:href="#DejaVuSans-110"/>
     <use x="1262.886719" xlink:href="#DejaVuSans-32"/>
     <use x="1294.673828" xlink:href="#DejaVuSans-45"/>
     <use x="1330.757812" xlink:href="#DejaVuSans-32"/>
     <use x="1362.544922" xlink:href="#DejaVuSans-70"/>
     <use x="1412.814453" xlink:href="#DejaVuSans-114"/>
     <use x="1453.927734" xlink:href="#DejaVuSans-97"/>
     <use x="1515.207031" xlink:href="#DejaVuSans-109"/>
     <use x="1612.619141" xlink:href="#DejaVuSans-101"/>
     <use x="1674.142578" xlink:href="#DejaVuSans-32"/>
     <use x="1705.929688" xlink:href="#DejaVuSans-50"/>
     <use x="1769.552734" xlink:href="#DejaVuSans-57"/>
     <use x="1833.175781" xlink:href="#DejaVuSans-51"/>
    </g>
   </g>
  </g>
 </g>
 <defs>
  <clipPath id="p6e84549aac">
   <rect height="864" width="576" x="0" y="0"/>
  </clipPath>
 </defs>
</svg>
