<?xml version="1.0" encoding="utf-8" standalone="no"?>
<!DOCTYPE svg PUBLIC "-//W3C//DTD SVG 1.1//EN"
  "http://www.w3.org/Graphics/SVG/1.1/DTD/svg11.dtd">
<!-- Created with matplotlib (https://matplotlib.org/) -->
<svg height="864pt" version="1.1" viewBox="0 0 576 864" width="576pt" xmlns="http://www.w3.org/2000/svg" xmlns:xlink="http://www.w3.org/1999/xlink">
 <metadata>
  <rdf:RDF xmlns:cc="http://creativecommons.org/ns#" xmlns:dc="http://purl.org/dc/elements/1.1/" xmlns:rdf="http://www.w3.org/1999/02/22-rdf-syntax-ns#">
   <cc:Work>
    <dc:type rdf:resource="http://purl.org/dc/dcmitype/StillImage"/>
    <dc:date>2024-02-04T22:28:11.667628</dc:date>
    <dc:format>image/svg+xml</dc:format>
    <dc:creator>
     <cc:Agent>
      <dc:title>Matplotlib v3.3.2, https://matplotlib.org/</dc:title>
     </cc:Agent>
    </dc:creator>
   </cc:Work>
  </rdf:RDF>
 </metadata>
 <defs>
  <style type="text/css">*{stroke-linecap:butt;stroke-linejoin:round;}</style>
 </defs>
 <g id="figure_1">
  <g id="patch_1">
   <path d="M 0 864 
L 576 864 
L 576 0 
L 0 0 
z
" style="fill:#ffffff;"/>
  </g>
  <g id="axes_1">
   <g id="patch_2">
    <path clip-path="url(#p4876802a10)" d="M 326.147033 86.601369 
Q 319.968648 97.986011 314.323545 108.387999 
" style="fill:none;stroke:#000000;stroke-linecap:round;"/>
    <path clip-path="url(#p4876802a10)" d="M 317.989298 105.826309 
L 314.323545 108.387999 
L 314.473645 103.918383 
L 317.989298 105.826309 
z
" style="stroke:#000000;stroke-linecap:round;"/>
   </g>
   <g id="patch_3">
    <path clip-path="url(#p4876802a10)" d="M 306.827681 134.211087 
Q 306.677696 137.2454 306.582908 139.163043 
" style="fill:none;stroke:#000000;stroke-linecap:round;"/>
    <path clip-path="url(#p4876802a10)" d="M 308.777946 135.266659 
L 306.582908 139.163043 
L 304.782824 135.069182 
L 308.777946 135.266659 
z
" style="stroke:#000000;stroke-linecap:round;"/>
   </g>
   <g id="patch_4">
    <path clip-path="url(#p4876802a10)" d="M 313.790316 109.370557 
Q 319.968701 97.985914 325.613804 87.583927 
" style="fill:none;stroke:#000000;stroke-linecap:round;"/>
    <path clip-path="url(#p4876802a10)" d="M 321.948051 90.145617 
L 325.613804 87.583927 
L 325.463705 92.053543 
L 321.948051 90.145617 
z
" style="stroke:#000000;stroke-linecap:round;"/>
   </g>
   <g id="patch_5">
    <path clip-path="url(#p4876802a10)" d="M 304.908841 166.688789 
Q 302.228215 203.314596 299.629199 238.825353 
" style="fill:none;stroke:#000000;stroke-linecap:round;"/>
    <path clip-path="url(#p4876802a10)" d="M 301.915841 234.982012 
L 299.629199 238.825353 
L 297.926511 234.690035 
L 301.915841 234.982012 
z
" style="stroke:#000000;stroke-linecap:round;"/>
   </g>
   <g id="patch_6">
    <path clip-path="url(#p4876802a10)" d="M 292.644755 153.556827 
Q 222.968759 153.881925 154.410784 154.201806 
" style="fill:none;stroke:#000000;stroke-linecap:round;"/>
    <path clip-path="url(#p4876802a10)" d="M 158.420072 156.183121 
L 154.410784 154.201806 
L 158.401409 152.183164 
L 158.420072 156.183121 
z
" style="stroke:#000000;stroke-linecap:round;"/>
   </g>
   <g id="patch_7">
    <path clip-path="url(#p4876802a10)" d="M 319.012162 155.052756 
Q 395.618217 164.135481 471.114016 173.086569 
" style="fill:none;stroke:#000000;stroke-linecap:round;"/>
    <path clip-path="url(#p4876802a10)" d="M 467.377317 170.629523 
L 471.114016 173.086569 
L 466.906359 174.601701 
L 467.377317 170.629523 
z
" style="stroke:#000000;stroke-linecap:round;"/>
   </g>
   <g id="patch_8">
    <path clip-path="url(#p4876802a10)" d="M 306.527661 140.280731 
Q 306.677646 137.246418 306.772434 135.328776 
" style="fill:none;stroke:#000000;stroke-linecap:round;"/>
    <path clip-path="url(#p4876802a10)" d="M 304.577396 139.22516 
L 306.772434 135.328776 
L 308.572518 139.422637 
L 304.577396 139.22516 
z
" style="stroke:#000000;stroke-linecap:round;"/>
   </g>
   <g id="patch_9">
    <path clip-path="url(#p4876802a10)" d="M 297.385615 266.311959 
Q 292.431311 320.885183 287.578089 374.344952 
" style="fill:none;stroke:#000000;stroke-linecap:round;"/>
    <path clip-path="url(#p4876802a10)" d="M 289.931542 370.542156 
L 287.578089 374.344952 
L 285.947924 370.180512 
L 289.931542 370.542156 
z
" style="stroke:#000000;stroke-linecap:round;"/>
   </g>
   <g id="patch_10">
    <path clip-path="url(#p4876802a10)" d="M 299.547636 239.939762 
Q 302.228262 203.313954 304.827278 167.803198 
" style="fill:none;stroke:#000000;stroke-linecap:round;"/>
    <path clip-path="url(#p4876802a10)" d="M 302.540636 171.646539 
L 304.827278 167.803198 
L 306.529966 171.938516 
L 302.540636 171.646539 
z
" style="stroke:#000000;stroke-linecap:round;"/>
   </g>
   <g id="patch_11">
    <path clip-path="url(#p4876802a10)" d="M 273.056644 388.605195 
Q 246.64332 388.55199 221.348028 388.501036 
" style="fill:none;stroke:#000000;stroke-linecap:round;"/>
    <path clip-path="url(#p4876802a10)" d="M 225.343992 390.509089 
L 221.348028 388.501036 
L 225.352049 386.509098 
L 225.343992 390.509089 
z
" style="stroke:#000000;stroke-linecap:round;"/>
   </g>
   <g id="patch_12">
    <path clip-path="url(#p4876802a10)" d="M 299.498448 389.136608 
Q 318.059384 389.845455 335.503099 390.511635 
" style="fill:none;stroke:#000000;stroke-linecap:round;"/>
    <path clip-path="url(#p4876802a10)" d="M 331.582338 388.360442 
L 335.503099 390.511635 
L 331.429688 392.357528 
L 331.582338 388.360442 
z
" style="stroke:#000000;stroke-linecap:round;"/>
   </g>
   <g id="patch_13">
    <path clip-path="url(#p4876802a10)" d="M 287.477468 375.453326 
Q 292.431772 320.880102 297.284994 267.420333 
" style="fill:none;stroke:#000000;stroke-linecap:round;"/>
    <path clip-path="url(#p4876802a10)" d="M 294.931541 271.223129 
L 297.284994 267.420333 
L 298.91516 271.584773 
L 294.931541 271.223129 
z
" style="stroke:#000000;stroke-linecap:round;"/>
   </g>
   <g id="patch_14">
    <path clip-path="url(#p4876802a10)" d="M 130.544021 163.45413 
Q 95.024656 197.725329 60.309871 231.220223 
" style="fill:none;stroke:#000000;stroke-linecap:round;"/>
    <path clip-path="url(#p4876802a10)" d="M 64.577122 229.8821 
L 60.309871 231.220223 
L 61.799724 227.003549 
L 64.577122 229.8821 
z
" style="stroke:#000000;stroke-linecap:round;"/>
   </g>
   <g id="patch_15">
    <path clip-path="url(#p4876802a10)" d="M 153.293665 154.207018 
Q 222.969661 153.881921 291.527636 153.56204 
" style="fill:none;stroke:#000000;stroke-linecap:round;"/>
    <path clip-path="url(#p4876802a10)" d="M 287.518348 151.580725 
L 291.527636 153.56204 
L 287.537011 155.580681 
L 287.518348 151.580725 
z
" style="stroke:#000000;stroke-linecap:round;"/>
   </g>
   <g id="patch_16">
    <path clip-path="url(#p4876802a10)" d="M 57.170244 252.287108 
Q 85.121399 295.470847 112.465047 337.716004 
" style="fill:none;stroke:#000000;stroke-linecap:round;"/>
    <path clip-path="url(#p4876802a10)" d="M 111.970548 333.271291 
L 112.465047 337.716004 
L 108.612578 335.444775 
L 111.970548 333.271291 
z
" style="stroke:#000000;stroke-linecap:round;"/>
   </g>
   <g id="patch_17">
    <path clip-path="url(#p4876802a10)" d="M 59.503389 231.998365 
Q 95.022753 197.727165 129.737539 164.232272 
" style="fill:none;stroke:#000000;stroke-linecap:round;"/>
    <path clip-path="url(#p4876802a10)" d="M 125.470288 165.570394 
L 129.737539 164.232272 
L 128.247686 168.448946 
L 125.470288 165.570394 
z
" style="stroke:#000000;stroke-linecap:round;"/>
   </g>
   <g id="patch_18">
    <path clip-path="url(#p4876802a10)" d="M 133.42816 351.015468 
Q 146.476256 352.260701 158.411374 353.399719 
" style="fill:none;stroke:#000000;stroke-linecap:round;"/>
    <path clip-path="url(#p4876802a10)" d="M 154.61947 351.028755 
L 158.411374 353.399719 
L 154.239461 355.010663 
L 154.61947 351.028755 
z
" style="stroke:#000000;stroke-linecap:round;"/>
   </g>
   <g id="patch_19">
    <path clip-path="url(#p4876802a10)" d="M 113.073084 338.655404 
Q 85.121929 295.471665 57.778281 253.226508 
" style="fill:none;stroke:#000000;stroke-linecap:round;"/>
    <path clip-path="url(#p4876802a10)" d="M 58.272779 257.67122 
L 57.778281 253.226508 
L 61.63075 255.497736 
L 58.272779 257.67122 
z
" style="stroke:#000000;stroke-linecap:round;"/>
   </g>
   <g id="patch_20">
    <path clip-path="url(#p4876802a10)" d="M 183.084842 362.942955 
Q 187.108903 366.109789 190.254371 368.585192 
" style="fill:none;stroke:#000000;stroke-linecap:round;"/>
    <path clip-path="url(#p4876802a10)" d="M 188.347891 364.539783 
L 190.254371 368.585192 
L 185.874156 367.683131 
L 188.347891 364.539783 
z
" style="stroke:#000000;stroke-linecap:round;"/>
   </g>
   <g id="patch_21">
    <path clip-path="url(#p4876802a10)" d="M 185.648482 352.08664 
Q 200.487898 349.022553 214.232377 346.184552 
" style="fill:none;stroke:#000000;stroke-linecap:round;"/>
    <path clip-path="url(#p4876802a10)" d="M 209.91058 345.034739 
L 214.232377 346.184552 
L 210.719449 348.952102 
L 209.91058 345.034739 
z
" style="stroke:#000000;stroke-linecap:round;"/>
   </g>
   <g id="patch_22">
    <path clip-path="url(#p4876802a10)" d="M 159.521563 353.505669 
Q 146.473468 352.260435 134.53835 351.121418 
" style="fill:none;stroke:#000000;stroke-linecap:round;"/>
    <path clip-path="url(#p4876802a10)" d="M 138.330253 353.492382 
L 134.53835 351.121418 
L 138.710263 349.510474 
L 138.330253 353.492382 
z
" style="stroke:#000000;stroke-linecap:round;"/>
   </g>
   <g id="patch_23">
    <path clip-path="url(#p4876802a10)" d="M 489.939377 187.188303 
Q 505.68845 229.875189 521.050529 271.513153 
" style="fill:none;stroke:#000000;stroke-linecap:round;"/>
    <path clip-path="url(#p4876802a10)" d="M 521.542348 267.068143 
L 521.050529 271.513153 
L 517.789612 268.452692 
L 521.542348 267.068143 
z
" style="stroke:#000000;stroke-linecap:round;"/>
   </g>
   <g id="patch_24">
    <path clip-path="url(#p4876802a10)" d="M 472.222106 173.217949 
Q 395.61605 164.135224 320.120252 155.184136 
" style="fill:none;stroke:#000000;stroke-linecap:round;"/>
    <path clip-path="url(#p4876802a10)" d="M 323.856951 157.641182 
L 320.120252 155.184136 
L 324.327908 153.669004 
L 323.856951 157.641182 
z
" style="stroke:#000000;stroke-linecap:round;"/>
   </g>
   <g id="patch_25">
    <path clip-path="url(#p4876802a10)" d="M 522.598753 297.754725 
Q 514.119231 329.465803 505.928522 360.096795 
" style="fill:none;stroke:#000000;stroke-linecap:round;"/>
    <path clip-path="url(#p4876802a10)" d="M 508.893933 356.749208 
L 505.928522 360.096795 
L 505.029699 355.715914 
L 508.893933 356.749208 
z
" style="stroke:#000000;stroke-linecap:round;"/>
   </g>
   <g id="patch_26">
    <path clip-path="url(#p4876802a10)" d="M 521.436938 272.560489 
Q 505.687865 229.873604 490.325786 188.235639 
" style="fill:none;stroke:#000000;stroke-linecap:round;"/>
    <path clip-path="url(#p4876802a10)" d="M 489.833967 192.68065 
L 490.325786 188.235639 
L 493.586703 191.2961 
L 489.833967 192.68065 
z
" style="stroke:#000000;stroke-linecap:round;"/>
   </g>
   <g id="patch_27">
    <path clip-path="url(#p4876802a10)" d="M 491.718139 381.987094 
Q 481.875039 389.5152 472.920013 396.364097 
" style="fill:none;stroke:#000000;stroke-linecap:round;"/>
    <path clip-path="url(#p4876802a10)" d="M 477.31229 395.522722 
L 472.920013 396.364097 
L 474.882279 392.345451 
L 477.31229 395.522722 
z
" style="stroke:#000000;stroke-linecap:round;"/>
   </g>
   <g id="patch_28">
    <path clip-path="url(#p4876802a10)" d="M 505.6413 361.170927 
Q 514.120822 329.45985 522.311531 298.828858 
" style="fill:none;stroke:#000000;stroke-linecap:round;"/>
    <path clip-path="url(#p4876802a10)" d="M 519.34612 302.176445 
L 522.311531 298.828858 
L 523.210354 303.209739 
L 519.34612 302.176445 
z
" style="stroke:#000000;stroke-linecap:round;"/>
   </g>
   <g id="patch_29">
    <path clip-path="url(#p4876802a10)" d="M 451.437374 413.641543 
Q 443.368537 420.490505 436.152072 426.615959 
" style="fill:none;stroke:#000000;stroke-linecap:round;"/>
    <path clip-path="url(#p4876802a10)" d="M 440.495858 425.55223 
L 436.152072 426.615959 
L 437.90736 422.502693 
L 440.495858 425.55223 
z
" style="stroke:#000000;stroke-linecap:round;"/>
   </g>
   <g id="patch_30">
    <path clip-path="url(#p4876802a10)" d="M 448.416872 403.27898 
Q 435.069125 401.444591 422.829001 399.762423 
" style="fill:none;stroke:#000000;stroke-linecap:round;"/>
    <path clip-path="url(#p4876802a10)" d="M 426.519452 402.288403 
L 422.829001 399.762423 
L 427.064056 398.32565 
L 426.519452 402.288403 
z
" style="stroke:#000000;stroke-linecap:round;"/>
   </g>
   <g id="patch_31">
    <path clip-path="url(#p4876802a10)" d="M 472.028926 397.04561 
Q 481.872026 389.517505 490.827051 382.668608 
" style="fill:none;stroke:#000000;stroke-linecap:round;"/>
    <path clip-path="url(#p4876802a10)" d="M 486.434775 383.509982 
L 490.827051 382.668608 
L 488.864785 386.687253 
L 486.434775 383.509982 
z
" style="stroke:#000000;stroke-linecap:round;"/>
   </g>
   <g id="patch_32">
    <path clip-path="url(#p4876802a10)" d="M 201.214575 400.36527 
Q 169.306666 465.933964 137.887977 530.497341 
" style="fill:none;stroke:#000000;stroke-linecap:round;"/>
    <path clip-path="url(#p4876802a10)" d="M 141.436633 527.775753 
L 137.887977 530.497341 
L 137.839901 526.025464 
L 141.436633 527.775753 
z
" style="stroke:#000000;stroke-linecap:round;"/>
   </g>
   <g id="patch_33">
    <path clip-path="url(#p4876802a10)" d="M 220.226612 388.498777 
Q 246.639936 388.551983 271.935228 388.602936 
" style="fill:none;stroke:#000000;stroke-linecap:round;"/>
    <path clip-path="url(#p4876802a10)" d="M 267.939265 386.594883 
L 271.935228 388.602936 
L 267.931208 390.594875 
L 267.939265 386.594883 
z
" style="stroke:#000000;stroke-linecap:round;"/>
   </g>
   <g id="patch_34">
    <path clip-path="url(#p4876802a10)" d="M 131.382291 556.622632 
Q 130.34025 617.02518 129.317494 676.30986 
" style="fill:none;stroke:#000000;stroke-linecap:round;"/>
    <path clip-path="url(#p4876802a10)" d="M 131.386193 672.344954 
L 129.317494 676.30986 
L 127.386788 672.275957 
L 131.386193 672.344954 
z
" style="stroke:#000000;stroke-linecap:round;"/>
   </g>
   <g id="patch_35">
    <path clip-path="url(#p4876802a10)" d="M 137.398043 531.504124 
Q 169.305952 465.93543 200.724641 401.372053 
" style="fill:none;stroke:#000000;stroke-linecap:round;"/>
    <path clip-path="url(#p4876802a10)" d="M 197.175985 404.093641 
L 200.724641 401.372053 
L 200.772717 405.843931 
L 197.175985 404.093641 
z
" style="stroke:#000000;stroke-linecap:round;"/>
   </g>
   <g id="patch_36">
    <path clip-path="url(#p4876802a10)" d="M 129.25523 703.879849 
Q 129.394374 713.821126 129.51787 722.644478 
" style="fill:none;stroke:#000000;stroke-linecap:round;"/>
    <path clip-path="url(#p4876802a10)" d="M 131.461694 718.616879 
L 129.51787 722.644478 
L 127.462086 718.67286 
L 131.461694 718.616879 
z
" style="stroke:#000000;stroke-linecap:round;"/>
   </g>
   <g id="patch_37">
    <path clip-path="url(#p4876802a10)" d="M 129.298238 677.426083 
Q 130.340278 617.023534 131.363034 557.738854 
" style="fill:none;stroke:#000000;stroke-linecap:round;"/>
    <path clip-path="url(#p4876802a10)" d="M 129.294335 561.70376 
L 131.363034 557.738854 
L 133.29374 561.772757 
L 129.294335 561.70376 
z
" style="stroke:#000000;stroke-linecap:round;"/>
   </g>
   <g id="patch_38">
    <path clip-path="url(#p4876802a10)" d="M 129.533532 723.763448 
Q 129.394389 713.822171 129.270892 704.998819 
" style="fill:none;stroke:#000000;stroke-linecap:round;"/>
    <path clip-path="url(#p4876802a10)" d="M 127.327069 709.026418 
L 129.270892 704.998819 
L 131.326677 708.970437 
L 127.327069 709.026418 
z
" style="stroke:#000000;stroke-linecap:round;"/>
   </g>
   <g id="patch_39">
    <path clip-path="url(#p4876802a10)" d="M 349.01388 404.261073 
Q 344.474227 476.600896 340.004598 547.824879 
" style="fill:none;stroke:#000000;stroke-linecap:round;"/>
    <path clip-path="url(#p4876802a10)" d="M 342.251197 543.957995 
L 340.004598 547.824879 
L 338.25905 543.707469 
L 342.251197 543.957995 
z
" style="stroke:#000000;stroke-linecap:round;"/>
   </g>
   <g id="patch_40">
    <path clip-path="url(#p4876802a10)" d="M 336.624994 390.55448 
Q 318.064059 389.845633 300.620343 389.179454 
" style="fill:none;stroke:#000000;stroke-linecap:round;"/>
    <path clip-path="url(#p4876802a10)" d="M 304.541104 391.330646 
L 300.620343 389.179454 
L 304.693754 387.33356 
L 304.541104 391.330646 
z
" style="stroke:#000000;stroke-linecap:round;"/>
   </g>
   <g id="patch_41">
    <path clip-path="url(#p4876802a10)" d="M 335.362978 574.836919 
Q 312.168845 653.4719 289.291015 731.034523 
" style="fill:none;stroke:#000000;stroke-linecap:round;"/>
    <path clip-path="url(#p4876802a10)" d="M 292.340946 727.763755 
L 289.291015 731.034523 
L 288.504359 726.632118 
L 292.340946 727.763755 
z
" style="stroke:#000000;stroke-linecap:round;"/>
   </g>
   <g id="patch_42">
    <path clip-path="url(#p4876802a10)" d="M 339.934249 548.94591 
Q 344.473902 476.606087 348.94353 405.382104 
" style="fill:none;stroke:#000000;stroke-linecap:round;"/>
    <path clip-path="url(#p4876802a10)" d="M 346.696932 409.248988 
L 348.94353 405.382104 
L 350.689079 409.499513 
L 346.696932 409.248988 
z
" style="stroke:#000000;stroke-linecap:round;"/>
   </g>
   <g id="patch_43">
    <path clip-path="url(#p4876802a10)" d="M 282.161252 757.664754 
Q 279.954821 766.911602 278.007884 775.070946 
" style="fill:none;stroke:#000000;stroke-linecap:round;"/>
    <path clip-path="url(#p4876802a10)" d="M 280.881663 771.644374 
L 278.007884 775.070946 
L 276.990893 770.71598 
L 280.881663 771.644374 
z
" style="stroke:#000000;stroke-linecap:round;"/>
   </g>
   <g id="patch_44">
    <path clip-path="url(#p4876802a10)" d="M 288.974657 732.107069 
Q 312.16879 653.472088 335.04662 575.909465 
" style="fill:none;stroke:#000000;stroke-linecap:round;"/>
    <path clip-path="url(#p4876802a10)" d="M 331.996689 579.180233 
L 335.04662 575.909465 
L 335.833276 580.31187 
L 331.996689 579.180233 
z
" style="stroke:#000000;stroke-linecap:round;"/>
   </g>
   <g id="patch_45">
    <path clip-path="url(#p4876802a10)" d="M 277.748904 776.156298 
Q 279.955335 766.909451 281.902272 758.750106 
" style="fill:none;stroke:#000000;stroke-linecap:round;"/>
    <path clip-path="url(#p4876802a10)" d="M 279.028494 762.176679 
L 281.902272 758.750106 
L 282.919263 763.105072 
L 279.028494 762.176679 
z
" style="stroke:#000000;stroke-linecap:round;"/>
   </g>
   <g id="patch_46">
    <path clip-path="url(#p4876802a10)" d="M 191.131884 369.275772 
Q 187.107823 366.108939 183.962355 363.633535 
" style="fill:none;stroke:#000000;stroke-linecap:round;"/>
    <path clip-path="url(#p4876802a10)" d="M 185.868835 367.678944 
L 183.962355 363.633535 
L 188.34257 364.535596 
L 185.868835 367.678944 
z
" style="stroke:#000000;stroke-linecap:round;"/>
   </g>
   <g id="patch_47">
    <path clip-path="url(#p4876802a10)" d="M 215.325375 345.958866 
Q 200.485959 349.022953 186.74148 351.860955 
" style="fill:none;stroke:#000000;stroke-linecap:round;"/>
    <path clip-path="url(#p4876802a10)" d="M 191.063277 353.010767 
L 186.74148 351.860955 
L 190.254408 349.093405 
L 191.063277 353.010767 
z
" style="stroke:#000000;stroke-linecap:round;"/>
   </g>
   <g id="patch_48">
    <path clip-path="url(#p4876802a10)" d="M 435.29862 427.340383 
Q 443.367457 420.491421 450.583923 414.365966 
" style="fill:none;stroke:#000000;stroke-linecap:round;"/>
    <path clip-path="url(#p4876802a10)" d="M 446.240136 415.429695 
L 450.583923 414.365966 
L 448.828634 418.479233 
L 446.240136 415.429695 
z
" style="stroke:#000000;stroke-linecap:round;"/>
   </g>
   <g id="patch_49">
    <path clip-path="url(#p4876802a10)" d="M 421.725637 399.610787 
Q 435.073383 401.445176 447.313507 403.127344 
" style="fill:none;stroke:#000000;stroke-linecap:round;"/>
    <path clip-path="url(#p4876802a10)" d="M 443.623057 400.601364 
L 447.313507 403.127344 
L 443.078453 404.564117 
L 443.623057 400.601364 
z
" style="stroke:#000000;stroke-linecap:round;"/>
   </g>
   <g id="PathCollection_1">
    <defs>
     <path d="M 0 13.228757 
C 3.508307 13.228757 6.873396 11.834891 9.354143 9.354143 
C 11.834891 6.873396 13.228757 3.508307 13.228757 0 
C 13.228757 -3.508307 11.834891 -6.873396 9.354143 -9.354143 
C 6.873396 -11.834891 3.508307 -13.228757 0 -13.228757 
C -3.508307 -13.228757 -6.873396 -11.834891 -9.354143 -9.354143 
C -11.834891 -6.873396 -13.228757 -3.508307 -13.228757 0 
C -13.228757 3.508307 -11.834891 6.873396 -9.354143 9.354143 
C -6.873396 11.834891 -3.508307 13.228757 0 13.228757 
z
" id="mdcf9617afe" style="stroke:#87ceeb;"/>
    </defs>
    <g clip-path="url(#p4876802a10)">
     <use style="fill:#87ceeb;stroke:#87ceeb;" x="332.456489" xlink:href="#mdcf9617afe" y="74.975207"/>
     <use style="fill:#87ceeb;stroke:#87ceeb;" x="307.480861" xlink:href="#mdcf9617afe" y="120.996719"/>
     <use style="fill:#87ceeb;stroke:#87ceeb;" x="305.874481" xlink:href="#mdcf9617afe" y="153.495099"/>
     <use style="fill:#87ceeb;stroke:#87ceeb;" x="298.581996" xlink:href="#mdcf9617afe" y="253.133451"/>
     <use style="fill:#87ceeb;stroke:#87ceeb;" x="286.281088" xlink:href="#mdcf9617afe" y="388.631834"/>
     <use style="fill:#87ceeb;stroke:#87ceeb;" x="140.063939" xlink:href="#mdcf9617afe" y="154.268746"/>
     <use style="fill:#87ceeb;stroke:#87ceeb;" x="49.983471" xlink:href="#mdcf9617afe" y="241.183749"/>
     <use style="fill:#87ceeb;stroke:#87ceeb;" x="120.259857" xlink:href="#mdcf9617afe" y="349.758763"/>
     <use style="fill:#87ceeb;stroke:#87ceeb;" x="172.689867" xlink:href="#mdcf9617afe" y="354.762374"/>
     <use style="fill:#87ceeb;stroke:#87ceeb;" x="485.359786" xlink:href="#mdcf9617afe" y="174.775606"/>
     <use style="fill:#87ceeb;stroke:#87ceeb;" x="526.016529" xlink:href="#mdcf9617afe" y="284.973186"/>
     <use style="fill:#87ceeb;stroke:#87ceeb;" x="502.223524" xlink:href="#mdcf9617afe" y="373.952466"/>
     <use style="fill:#87ceeb;stroke:#87ceeb;" x="461.523541" xlink:href="#mdcf9617afe" y="405.080238"/>
     <use style="fill:#87ceeb;stroke:#87ceeb;" x="207.002169" xlink:href="#mdcf9617afe" y="388.472139"/>
     <use style="fill:#87ceeb;stroke:#87ceeb;" x="131.610449" xlink:href="#mdcf9617afe" y="543.397256"/>
     <use style="fill:#87ceeb;stroke:#87ceeb;" x="129.070079" xlink:href="#mdcf9617afe" y="690.651458"/>
     <use style="fill:#87ceeb;stroke:#87ceeb;" x="129.718684" xlink:href="#mdcf9617afe" y="736.991839"/>
     <use style="fill:#87ceeb;stroke:#87ceeb;" x="349.842354" xlink:href="#mdcf9617afe" y="391.059254"/>
     <use style="fill:#87ceeb;stroke:#87ceeb;" x="339.105774" xlink:href="#mdcf9617afe" y="562.147729"/>
     <use style="fill:#87ceeb;stroke:#87ceeb;" x="285.231861" xlink:href="#mdcf9617afe" y="744.796259"/>
     <use style="fill:#87ceeb;stroke:#87ceeb;" x="274.678296" xlink:href="#mdcf9617afe" y="789.024793"/>
     <use style="fill:#87ceeb;stroke:#87ceeb;" x="201.526859" xlink:href="#mdcf9617afe" y="377.456353"/>
     <use style="fill:#87ceeb;stroke:#87ceeb;" x="228.28399" xlink:href="#mdcf9617afe" y="343.283133"/>
     <use style="fill:#87ceeb;stroke:#87ceeb;" x="425.212454" xlink:href="#mdcf9617afe" y="435.901688"/>
     <use style="fill:#87ceeb;stroke:#87ceeb;" x="408.618968" xlink:href="#mdcf9617afe" y="397.809529"/>
    </g>
   </g>
   <g id="text_1">
    <g clip-path="url(#p4876802a10)">
     <!-- Head -->
     <g transform="translate(319.381489 77.734582)scale(0.1 -0.1)">
      <defs>
       <path d="M 9.8125 72.90625 
L 19.671875 72.90625 
L 19.671875 43.015625 
L 55.515625 43.015625 
L 55.515625 72.90625 
L 65.375 72.90625 
L 65.375 0 
L 55.515625 0 
L 55.515625 34.71875 
L 19.671875 34.71875 
L 19.671875 0 
L 9.8125 0 
z
" id="DejaVuSans-72"/>
       <path d="M 56.203125 29.59375 
L 56.203125 25.203125 
L 14.890625 25.203125 
Q 15.484375 15.921875 20.484375 11.0625 
Q 25.484375 6.203125 34.421875 6.203125 
Q 39.59375 6.203125 44.453125 7.46875 
Q 49.3125 8.734375 54.109375 11.28125 
L 54.109375 2.78125 
Q 49.265625 0.734375 44.1875 -0.34375 
Q 39.109375 -1.421875 33.890625 -1.421875 
Q 20.796875 -1.421875 13.15625 6.1875 
Q 5.515625 13.8125 5.515625 26.8125 
Q 5.515625 40.234375 12.765625 48.109375 
Q 20.015625 56 32.328125 56 
Q 43.359375 56 49.78125 48.890625 
Q 56.203125 41.796875 56.203125 29.59375 
z
M 47.21875 32.234375 
Q 47.125 39.59375 43.09375 43.984375 
Q 39.0625 48.390625 32.421875 48.390625 
Q 24.90625 48.390625 20.390625 44.140625 
Q 15.875 39.890625 15.1875 32.171875 
z
" id="DejaVuSans-101"/>
       <path d="M 34.28125 27.484375 
Q 23.390625 27.484375 19.1875 25 
Q 14.984375 22.515625 14.984375 16.5 
Q 14.984375 11.71875 18.140625 8.90625 
Q 21.296875 6.109375 26.703125 6.109375 
Q 34.1875 6.109375 38.703125 11.40625 
Q 43.21875 16.703125 43.21875 25.484375 
L 43.21875 27.484375 
z
M 52.203125 31.203125 
L 52.203125 0 
L 43.21875 0 
L 43.21875 8.296875 
Q 40.140625 3.328125 35.546875 0.953125 
Q 30.953125 -1.421875 24.3125 -1.421875 
Q 15.921875 -1.421875 10.953125 3.296875 
Q 6 8.015625 6 15.921875 
Q 6 25.140625 12.171875 29.828125 
Q 18.359375 34.515625 30.609375 34.515625 
L 43.21875 34.515625 
L 43.21875 35.40625 
Q 43.21875 41.609375 39.140625 45 
Q 35.0625 48.390625 27.6875 48.390625 
Q 23 48.390625 18.546875 47.265625 
Q 14.109375 46.140625 10.015625 43.890625 
L 10.015625 52.203125 
Q 14.9375 54.109375 19.578125 55.046875 
Q 24.21875 56 28.609375 56 
Q 40.484375 56 46.34375 49.84375 
Q 52.203125 43.703125 52.203125 31.203125 
z
" id="DejaVuSans-97"/>
       <path d="M 45.40625 46.390625 
L 45.40625 75.984375 
L 54.390625 75.984375 
L 54.390625 0 
L 45.40625 0 
L 45.40625 8.203125 
Q 42.578125 3.328125 38.25 0.953125 
Q 33.9375 -1.421875 27.875 -1.421875 
Q 17.96875 -1.421875 11.734375 6.484375 
Q 5.515625 14.40625 5.515625 27.296875 
Q 5.515625 40.1875 11.734375 48.09375 
Q 17.96875 56 27.875 56 
Q 33.9375 56 38.25 53.625 
Q 42.578125 51.265625 45.40625 46.390625 
z
M 14.796875 27.296875 
Q 14.796875 17.390625 18.875 11.75 
Q 22.953125 6.109375 30.078125 6.109375 
Q 37.203125 6.109375 41.296875 11.75 
Q 45.40625 17.390625 45.40625 27.296875 
Q 45.40625 37.203125 41.296875 42.84375 
Q 37.203125 48.484375 30.078125 48.484375 
Q 22.953125 48.484375 18.875 42.84375 
Q 14.796875 37.203125 14.796875 27.296875 
z
" id="DejaVuSans-100"/>
      </defs>
      <use xlink:href="#DejaVuSans-72"/>
      <use x="75.195312" xlink:href="#DejaVuSans-101"/>
      <use x="136.71875" xlink:href="#DejaVuSans-97"/>
      <use x="197.998047" xlink:href="#DejaVuSans-100"/>
     </g>
    </g>
   </g>
   <g id="text_2">
    <g clip-path="url(#p4876802a10)">
     <!-- c7 -->
     <g transform="translate(301.550392 123.756094)scale(0.1 -0.1)">
      <defs>
       <path d="M 48.78125 52.59375 
L 48.78125 44.1875 
Q 44.96875 46.296875 41.140625 47.34375 
Q 37.3125 48.390625 33.40625 48.390625 
Q 24.65625 48.390625 19.8125 42.84375 
Q 14.984375 37.3125 14.984375 27.296875 
Q 14.984375 17.28125 19.8125 11.734375 
Q 24.65625 6.203125 33.40625 6.203125 
Q 37.3125 6.203125 41.140625 7.25 
Q 44.96875 8.296875 48.78125 10.40625 
L 48.78125 2.09375 
Q 45.015625 0.34375 40.984375 -0.53125 
Q 36.96875 -1.421875 32.421875 -1.421875 
Q 20.0625 -1.421875 12.78125 6.34375 
Q 5.515625 14.109375 5.515625 27.296875 
Q 5.515625 40.671875 12.859375 48.328125 
Q 20.21875 56 33.015625 56 
Q 37.15625 56 41.109375 55.140625 
Q 45.0625 54.296875 48.78125 52.59375 
z
" id="DejaVuSans-99"/>
       <path d="M 8.203125 72.90625 
L 55.078125 72.90625 
L 55.078125 68.703125 
L 28.609375 0 
L 18.3125 0 
L 43.21875 64.59375 
L 8.203125 64.59375 
z
" id="DejaVuSans-55"/>
      </defs>
      <use xlink:href="#DejaVuSans-99"/>
      <use x="54.980469" xlink:href="#DejaVuSans-55"/>
     </g>
    </g>
   </g>
   <g id="text_3">
    <g clip-path="url(#p4876802a10)">
     <!-- SpineShoulder -->
     <g transform="translate(269.625263 156.254474)scale(0.1 -0.1)">
      <defs>
       <path d="M 53.515625 70.515625 
L 53.515625 60.890625 
Q 47.90625 63.578125 42.921875 64.890625 
Q 37.9375 66.21875 33.296875 66.21875 
Q 25.25 66.21875 20.875 63.09375 
Q 16.5 59.96875 16.5 54.203125 
Q 16.5 49.359375 19.40625 46.890625 
Q 22.3125 44.4375 30.421875 42.921875 
L 36.375 41.703125 
Q 47.40625 39.59375 52.65625 34.296875 
Q 57.90625 29 57.90625 20.125 
Q 57.90625 9.515625 50.796875 4.046875 
Q 43.703125 -1.421875 29.984375 -1.421875 
Q 24.8125 -1.421875 18.96875 -0.25 
Q 13.140625 0.921875 6.890625 3.21875 
L 6.890625 13.375 
Q 12.890625 10.015625 18.65625 8.296875 
Q 24.421875 6.59375 29.984375 6.59375 
Q 38.421875 6.59375 43.015625 9.90625 
Q 47.609375 13.234375 47.609375 19.390625 
Q 47.609375 24.75 44.3125 27.78125 
Q 41.015625 30.8125 33.5 32.328125 
L 27.484375 33.5 
Q 16.453125 35.6875 11.515625 40.375 
Q 6.59375 45.0625 6.59375 53.421875 
Q 6.59375 63.09375 13.40625 68.65625 
Q 20.21875 74.21875 32.171875 74.21875 
Q 37.3125 74.21875 42.625 73.28125 
Q 47.953125 72.359375 53.515625 70.515625 
z
" id="DejaVuSans-83"/>
       <path d="M 18.109375 8.203125 
L 18.109375 -20.796875 
L 9.078125 -20.796875 
L 9.078125 54.6875 
L 18.109375 54.6875 
L 18.109375 46.390625 
Q 20.953125 51.265625 25.265625 53.625 
Q 29.59375 56 35.59375 56 
Q 45.5625 56 51.78125 48.09375 
Q 58.015625 40.1875 58.015625 27.296875 
Q 58.015625 14.40625 51.78125 6.484375 
Q 45.5625 -1.421875 35.59375 -1.421875 
Q 29.59375 -1.421875 25.265625 0.953125 
Q 20.953125 3.328125 18.109375 8.203125 
z
M 48.6875 27.296875 
Q 48.6875 37.203125 44.609375 42.84375 
Q 40.53125 48.484375 33.40625 48.484375 
Q 26.265625 48.484375 22.1875 42.84375 
Q 18.109375 37.203125 18.109375 27.296875 
Q 18.109375 17.390625 22.1875 11.75 
Q 26.265625 6.109375 33.40625 6.109375 
Q 40.53125 6.109375 44.609375 11.75 
Q 48.6875 17.390625 48.6875 27.296875 
z
" id="DejaVuSans-112"/>
       <path d="M 9.421875 54.6875 
L 18.40625 54.6875 
L 18.40625 0 
L 9.421875 0 
z
M 9.421875 75.984375 
L 18.40625 75.984375 
L 18.40625 64.59375 
L 9.421875 64.59375 
z
" id="DejaVuSans-105"/>
       <path d="M 54.890625 33.015625 
L 54.890625 0 
L 45.90625 0 
L 45.90625 32.71875 
Q 45.90625 40.484375 42.875 44.328125 
Q 39.84375 48.1875 33.796875 48.1875 
Q 26.515625 48.1875 22.3125 43.546875 
Q 18.109375 38.921875 18.109375 30.90625 
L 18.109375 0 
L 9.078125 0 
L 9.078125 54.6875 
L 18.109375 54.6875 
L 18.109375 46.1875 
Q 21.34375 51.125 25.703125 53.5625 
Q 30.078125 56 35.796875 56 
Q 45.21875 56 50.046875 50.171875 
Q 54.890625 44.34375 54.890625 33.015625 
z
" id="DejaVuSans-110"/>
       <path d="M 54.890625 33.015625 
L 54.890625 0 
L 45.90625 0 
L 45.90625 32.71875 
Q 45.90625 40.484375 42.875 44.328125 
Q 39.84375 48.1875 33.796875 48.1875 
Q 26.515625 48.1875 22.3125 43.546875 
Q 18.109375 38.921875 18.109375 30.90625 
L 18.109375 0 
L 9.078125 0 
L 9.078125 75.984375 
L 18.109375 75.984375 
L 18.109375 46.1875 
Q 21.34375 51.125 25.703125 53.5625 
Q 30.078125 56 35.796875 56 
Q 45.21875 56 50.046875 50.171875 
Q 54.890625 44.34375 54.890625 33.015625 
z
" id="DejaVuSans-104"/>
       <path d="M 30.609375 48.390625 
Q 23.390625 48.390625 19.1875 42.75 
Q 14.984375 37.109375 14.984375 27.296875 
Q 14.984375 17.484375 19.15625 11.84375 
Q 23.34375 6.203125 30.609375 6.203125 
Q 37.796875 6.203125 41.984375 11.859375 
Q 46.1875 17.53125 46.1875 27.296875 
Q 46.1875 37.015625 41.984375 42.703125 
Q 37.796875 48.390625 30.609375 48.390625 
z
M 30.609375 56 
Q 42.328125 56 49.015625 48.375 
Q 55.71875 40.765625 55.71875 27.296875 
Q 55.71875 13.875 49.015625 6.21875 
Q 42.328125 -1.421875 30.609375 -1.421875 
Q 18.84375 -1.421875 12.171875 6.21875 
Q 5.515625 13.875 5.515625 27.296875 
Q 5.515625 40.765625 12.171875 48.375 
Q 18.84375 56 30.609375 56 
z
" id="DejaVuSans-111"/>
       <path d="M 8.5 21.578125 
L 8.5 54.6875 
L 17.484375 54.6875 
L 17.484375 21.921875 
Q 17.484375 14.15625 20.5 10.265625 
Q 23.53125 6.390625 29.59375 6.390625 
Q 36.859375 6.390625 41.078125 11.03125 
Q 45.3125 15.671875 45.3125 23.6875 
L 45.3125 54.6875 
L 54.296875 54.6875 
L 54.296875 0 
L 45.3125 0 
L 45.3125 8.40625 
Q 42.046875 3.421875 37.71875 1 
Q 33.40625 -1.421875 27.6875 -1.421875 
Q 18.265625 -1.421875 13.375 4.4375 
Q 8.5 10.296875 8.5 21.578125 
z
M 31.109375 56 
z
" id="DejaVuSans-117"/>
       <path d="M 9.421875 75.984375 
L 18.40625 75.984375 
L 18.40625 0 
L 9.421875 0 
z
" id="DejaVuSans-108"/>
       <path d="M 41.109375 46.296875 
Q 39.59375 47.171875 37.8125 47.578125 
Q 36.03125 48 33.890625 48 
Q 26.265625 48 22.1875 43.046875 
Q 18.109375 38.09375 18.109375 28.8125 
L 18.109375 0 
L 9.078125 0 
L 9.078125 54.6875 
L 18.109375 54.6875 
L 18.109375 46.1875 
Q 20.953125 51.171875 25.484375 53.578125 
Q 30.03125 56 36.53125 56 
Q 37.453125 56 38.578125 55.875 
Q 39.703125 55.765625 41.0625 55.515625 
z
" id="DejaVuSans-114"/>
      </defs>
      <use xlink:href="#DejaVuSans-83"/>
      <use x="63.476562" xlink:href="#DejaVuSans-112"/>
      <use x="126.953125" xlink:href="#DejaVuSans-105"/>
      <use x="154.736328" xlink:href="#DejaVuSans-110"/>
      <use x="218.115234" xlink:href="#DejaVuSans-101"/>
      <use x="279.638672" xlink:href="#DejaVuSans-83"/>
      <use x="343.115234" xlink:href="#DejaVuSans-104"/>
      <use x="406.494141" xlink:href="#DejaVuSans-111"/>
      <use x="467.675781" xlink:href="#DejaVuSans-117"/>
      <use x="531.054688" xlink:href="#DejaVuSans-108"/>
      <use x="558.837891" xlink:href="#DejaVuSans-100"/>
      <use x="622.314453" xlink:href="#DejaVuSans-101"/>
      <use x="683.837891" xlink:href="#DejaVuSans-114"/>
     </g>
    </g>
   </g>
   <g id="text_4">
    <g clip-path="url(#p4876802a10)">
     <!-- Spine -->
     <g transform="translate(284.599183 255.892826)scale(0.1 -0.1)">
      <use xlink:href="#DejaVuSans-83"/>
      <use x="63.476562" xlink:href="#DejaVuSans-112"/>
      <use x="126.953125" xlink:href="#DejaVuSans-105"/>
      <use x="154.736328" xlink:href="#DejaVuSans-110"/>
      <use x="218.115234" xlink:href="#DejaVuSans-101"/>
     </g>
    </g>
   </g>
   <g id="text_5">
    <g clip-path="url(#p4876802a10)">
     <!-- Sacr -->
     <g transform="translate(275.238119 391.391209)scale(0.1 -0.1)">
      <use xlink:href="#DejaVuSans-83"/>
      <use x="63.476562" xlink:href="#DejaVuSans-97"/>
      <use x="124.755859" xlink:href="#DejaVuSans-99"/>
      <use x="179.736328" xlink:href="#DejaVuSans-114"/>
     </g>
    </g>
   </g>
   <g id="text_6">
    <g clip-path="url(#p4876802a10)">
     <!-- LShoulder -->
     <g transform="translate(115.011595 157.028121)scale(0.1 -0.1)">
      <defs>
       <path d="M 9.8125 72.90625 
L 19.671875 72.90625 
L 19.671875 8.296875 
L 55.171875 8.296875 
L 55.171875 0 
L 9.8125 0 
z
" id="DejaVuSans-76"/>
      </defs>
      <use xlink:href="#DejaVuSans-76"/>
      <use x="55.712891" xlink:href="#DejaVuSans-83"/>
      <use x="119.189453" xlink:href="#DejaVuSans-104"/>
      <use x="182.568359" xlink:href="#DejaVuSans-111"/>
      <use x="243.75" xlink:href="#DejaVuSans-117"/>
      <use x="307.128906" xlink:href="#DejaVuSans-108"/>
      <use x="334.912109" xlink:href="#DejaVuSans-100"/>
      <use x="398.388672" xlink:href="#DejaVuSans-101"/>
      <use x="459.912109" xlink:href="#DejaVuSans-114"/>
     </g>
    </g>
   </g>
   <g id="text_7">
    <g clip-path="url(#p4876802a10)">
     <!-- LElbow -->
     <g transform="translate(32.32644 243.943124)scale(0.1 -0.1)">
      <defs>
       <path d="M 9.8125 72.90625 
L 55.90625 72.90625 
L 55.90625 64.59375 
L 19.671875 64.59375 
L 19.671875 43.015625 
L 54.390625 43.015625 
L 54.390625 34.71875 
L 19.671875 34.71875 
L 19.671875 8.296875 
L 56.78125 8.296875 
L 56.78125 0 
L 9.8125 0 
z
" id="DejaVuSans-69"/>
       <path d="M 48.6875 27.296875 
Q 48.6875 37.203125 44.609375 42.84375 
Q 40.53125 48.484375 33.40625 48.484375 
Q 26.265625 48.484375 22.1875 42.84375 
Q 18.109375 37.203125 18.109375 27.296875 
Q 18.109375 17.390625 22.1875 11.75 
Q 26.265625 6.109375 33.40625 6.109375 
Q 40.53125 6.109375 44.609375 11.75 
Q 48.6875 17.390625 48.6875 27.296875 
z
M 18.109375 46.390625 
Q 20.953125 51.265625 25.265625 53.625 
Q 29.59375 56 35.59375 56 
Q 45.5625 56 51.78125 48.09375 
Q 58.015625 40.1875 58.015625 27.296875 
Q 58.015625 14.40625 51.78125 6.484375 
Q 45.5625 -1.421875 35.59375 -1.421875 
Q 29.59375 -1.421875 25.265625 0.953125 
Q 20.953125 3.328125 18.109375 8.203125 
L 18.109375 0 
L 9.078125 0 
L 9.078125 75.984375 
L 18.109375 75.984375 
z
" id="DejaVuSans-98"/>
       <path d="M 4.203125 54.6875 
L 13.1875 54.6875 
L 24.421875 12.015625 
L 35.59375 54.6875 
L 46.1875 54.6875 
L 57.421875 12.015625 
L 68.609375 54.6875 
L 77.59375 54.6875 
L 63.28125 0 
L 52.6875 0 
L 40.921875 44.828125 
L 29.109375 0 
L 18.5 0 
z
" id="DejaVuSans-119"/>
      </defs>
      <use xlink:href="#DejaVuSans-76"/>
      <use x="55.712891" xlink:href="#DejaVuSans-69"/>
      <use x="118.896484" xlink:href="#DejaVuSans-108"/>
      <use x="146.679688" xlink:href="#DejaVuSans-98"/>
      <use x="210.15625" xlink:href="#DejaVuSans-111"/>
      <use x="271.337891" xlink:href="#DejaVuSans-119"/>
     </g>
    </g>
   </g>
   <g id="text_8">
    <g clip-path="url(#p4876802a10)">
     <!-- LWrist -->
     <g transform="translate(105.202044 352.518138)scale(0.1 -0.1)">
      <defs>
       <path d="M 3.328125 72.90625 
L 13.28125 72.90625 
L 28.609375 11.28125 
L 43.890625 72.90625 
L 54.984375 72.90625 
L 70.3125 11.28125 
L 85.59375 72.90625 
L 95.609375 72.90625 
L 77.296875 0 
L 64.890625 0 
L 49.515625 63.28125 
L 33.984375 0 
L 21.578125 0 
z
" id="DejaVuSans-87"/>
       <path d="M 44.28125 53.078125 
L 44.28125 44.578125 
Q 40.484375 46.53125 36.375 47.5 
Q 32.28125 48.484375 27.875 48.484375 
Q 21.1875 48.484375 17.84375 46.4375 
Q 14.5 44.390625 14.5 40.28125 
Q 14.5 37.15625 16.890625 35.375 
Q 19.28125 33.59375 26.515625 31.984375 
L 29.59375 31.296875 
Q 39.15625 29.25 43.1875 25.515625 
Q 47.21875 21.78125 47.21875 15.09375 
Q 47.21875 7.46875 41.1875 3.015625 
Q 35.15625 -1.421875 24.609375 -1.421875 
Q 20.21875 -1.421875 15.453125 -0.5625 
Q 10.6875 0.296875 5.421875 2 
L 5.421875 11.28125 
Q 10.40625 8.6875 15.234375 7.390625 
Q 20.0625 6.109375 24.8125 6.109375 
Q 31.15625 6.109375 34.5625 8.28125 
Q 37.984375 10.453125 37.984375 14.40625 
Q 37.984375 18.0625 35.515625 20.015625 
Q 33.0625 21.96875 24.703125 23.78125 
L 21.578125 24.515625 
Q 13.234375 26.265625 9.515625 29.90625 
Q 5.8125 33.546875 5.8125 39.890625 
Q 5.8125 47.609375 11.28125 51.796875 
Q 16.75 56 26.8125 56 
Q 31.78125 56 36.171875 55.265625 
Q 40.578125 54.546875 44.28125 53.078125 
z
" id="DejaVuSans-115"/>
       <path d="M 18.3125 70.21875 
L 18.3125 54.6875 
L 36.8125 54.6875 
L 36.8125 47.703125 
L 18.3125 47.703125 
L 18.3125 18.015625 
Q 18.3125 11.328125 20.140625 9.421875 
Q 21.96875 7.515625 27.59375 7.515625 
L 36.8125 7.515625 
L 36.8125 0 
L 27.59375 0 
Q 17.1875 0 13.234375 3.875 
Q 9.28125 7.765625 9.28125 18.015625 
L 9.28125 47.703125 
L 2.6875 47.703125 
L 2.6875 54.6875 
L 9.28125 54.6875 
L 9.28125 70.21875 
z
" id="DejaVuSans-116"/>
      </defs>
      <use xlink:href="#DejaVuSans-76"/>
      <use x="46.587891" xlink:href="#DejaVuSans-87"/>
      <use x="140.964844" xlink:href="#DejaVuSans-114"/>
      <use x="182.078125" xlink:href="#DejaVuSans-105"/>
      <use x="209.861328" xlink:href="#DejaVuSans-115"/>
      <use x="261.960938" xlink:href="#DejaVuSans-116"/>
     </g>
    </g>
   </g>
   <g id="text_9">
    <g clip-path="url(#p4876802a10)">
     <!-- LHand -->
     <g transform="translate(156.736742 357.521749)scale(0.1 -0.1)">
      <use xlink:href="#DejaVuSans-76"/>
      <use x="55.712891" xlink:href="#DejaVuSans-72"/>
      <use x="130.908203" xlink:href="#DejaVuSans-97"/>
      <use x="192.1875" xlink:href="#DejaVuSans-110"/>
      <use x="255.566406" xlink:href="#DejaVuSans-100"/>
     </g>
    </g>
   </g>
   <g id="text_10">
    <g clip-path="url(#p4876802a10)">
     <!-- RShoulder -->
     <g transform="translate(459.619161 177.534981)scale(0.1 -0.1)">
      <defs>
       <path d="M 44.390625 34.1875 
Q 47.5625 33.109375 50.5625 29.59375 
Q 53.5625 26.078125 56.59375 19.921875 
L 66.609375 0 
L 56 0 
L 46.6875 18.703125 
Q 43.0625 26.03125 39.671875 28.421875 
Q 36.28125 30.8125 30.421875 30.8125 
L 19.671875 30.8125 
L 19.671875 0 
L 9.8125 0 
L 9.8125 72.90625 
L 32.078125 72.90625 
Q 44.578125 72.90625 50.734375 67.671875 
Q 56.890625 62.453125 56.890625 51.90625 
Q 56.890625 45.015625 53.6875 40.46875 
Q 50.484375 35.9375 44.390625 34.1875 
z
M 19.671875 64.796875 
L 19.671875 38.921875 
L 32.078125 38.921875 
Q 39.203125 38.921875 42.84375 42.21875 
Q 46.484375 45.515625 46.484375 51.90625 
Q 46.484375 58.296875 42.84375 61.546875 
Q 39.203125 64.796875 32.078125 64.796875 
z
" id="DejaVuSans-82"/>
      </defs>
      <use xlink:href="#DejaVuSans-82"/>
      <use x="69.482422" xlink:href="#DejaVuSans-83"/>
      <use x="132.958984" xlink:href="#DejaVuSans-104"/>
      <use x="196.337891" xlink:href="#DejaVuSans-111"/>
      <use x="257.519531" xlink:href="#DejaVuSans-117"/>
      <use x="320.898438" xlink:href="#DejaVuSans-108"/>
      <use x="348.681641" xlink:href="#DejaVuSans-100"/>
      <use x="412.158203" xlink:href="#DejaVuSans-101"/>
      <use x="473.681641" xlink:href="#DejaVuSans-114"/>
     </g>
    </g>
   </g>
   <g id="text_11">
    <g clip-path="url(#p4876802a10)">
     <!-- RElbow -->
     <g transform="translate(507.671216 287.732561)scale(0.1 -0.1)">
      <use xlink:href="#DejaVuSans-82"/>
      <use x="69.482422" xlink:href="#DejaVuSans-69"/>
      <use x="132.666016" xlink:href="#DejaVuSans-108"/>
      <use x="160.449219" xlink:href="#DejaVuSans-98"/>
      <use x="223.925781" xlink:href="#DejaVuSans-111"/>
      <use x="285.107422" xlink:href="#DejaVuSans-119"/>
     </g>
    </g>
   </g>
   <g id="text_12">
    <g clip-path="url(#p4876802a10)">
     <!-- RWrist -->
     <g transform="translate(486.22118 376.711841)scale(0.1 -0.1)">
      <use xlink:href="#DejaVuSans-82"/>
      <use x="65.482422" xlink:href="#DejaVuSans-87"/>
      <use x="159.859375" xlink:href="#DejaVuSans-114"/>
      <use x="200.972656" xlink:href="#DejaVuSans-105"/>
      <use x="228.755859" xlink:href="#DejaVuSans-115"/>
      <use x="280.855469" xlink:href="#DejaVuSans-116"/>
     </g>
    </g>
   </g>
   <g id="text_13">
    <g clip-path="url(#p4876802a10)">
     <!-- RHand -->
     <g transform="translate(444.882135 407.839613)scale(0.1 -0.1)">
      <use xlink:href="#DejaVuSans-82"/>
      <use x="69.482422" xlink:href="#DejaVuSans-72"/>
      <use x="144.677734" xlink:href="#DejaVuSans-97"/>
      <use x="205.957031" xlink:href="#DejaVuSans-110"/>
      <use x="269.335938" xlink:href="#DejaVuSans-100"/>
     </g>
    </g>
   </g>
   <g id="text_14">
    <g clip-path="url(#p4876802a10)">
     <!-- LHip -->
     <g transform="translate(195.892794 391.231514)scale(0.1 -0.1)">
      <use xlink:href="#DejaVuSans-76"/>
      <use x="55.712891" xlink:href="#DejaVuSans-72"/>
      <use x="130.908203" xlink:href="#DejaVuSans-105"/>
      <use x="158.691406" xlink:href="#DejaVuSans-112"/>
     </g>
    </g>
   </g>
   <g id="text_15">
    <g clip-path="url(#p4876802a10)">
     <!-- LKnee -->
     <g transform="translate(116.223731 546.156631)scale(0.1 -0.1)">
      <defs>
       <path d="M 9.8125 72.90625 
L 19.671875 72.90625 
L 19.671875 42.09375 
L 52.390625 72.90625 
L 65.09375 72.90625 
L 28.90625 38.921875 
L 67.671875 0 
L 54.6875 0 
L 19.671875 35.109375 
L 19.671875 0 
L 9.8125 0 
z
" id="DejaVuSans-75"/>
      </defs>
      <use xlink:href="#DejaVuSans-76"/>
      <use x="55.712891" xlink:href="#DejaVuSans-75"/>
      <use x="121.289062" xlink:href="#DejaVuSans-110"/>
      <use x="184.667969" xlink:href="#DejaVuSans-101"/>
      <use x="246.191406" xlink:href="#DejaVuSans-101"/>
     </g>
    </g>
   </g>
   <g id="text_16">
    <g clip-path="url(#p4876802a10)">
     <!-- LAnkle -->
     <g transform="translate(112.221641 693.410833)scale(0.1 -0.1)">
      <defs>
       <path d="M 34.1875 63.1875 
L 20.796875 26.90625 
L 47.609375 26.90625 
z
M 28.609375 72.90625 
L 39.796875 72.90625 
L 67.578125 0 
L 57.328125 0 
L 50.6875 18.703125 
L 17.828125 18.703125 
L 11.1875 0 
L 0.78125 0 
z
" id="DejaVuSans-65"/>
       <path d="M 9.078125 75.984375 
L 18.109375 75.984375 
L 18.109375 31.109375 
L 44.921875 54.6875 
L 56.390625 54.6875 
L 27.390625 29.109375 
L 57.625 0 
L 45.90625 0 
L 18.109375 26.703125 
L 18.109375 0 
L 9.078125 0 
z
" id="DejaVuSans-107"/>
      </defs>
      <use xlink:href="#DejaVuSans-76"/>
      <use x="57.962891" xlink:href="#DejaVuSans-65"/>
      <use x="126.371094" xlink:href="#DejaVuSans-110"/>
      <use x="189.75" xlink:href="#DejaVuSans-107"/>
      <use x="247.660156" xlink:href="#DejaVuSans-108"/>
      <use x="275.443359" xlink:href="#DejaVuSans-101"/>
     </g>
    </g>
   </g>
   <g id="text_17">
    <g clip-path="url(#p4876802a10)">
     <!-- LFoot -->
     <g transform="translate(116.159309 739.751214)scale(0.1 -0.1)">
      <defs>
       <path d="M 9.8125 72.90625 
L 51.703125 72.90625 
L 51.703125 64.59375 
L 19.671875 64.59375 
L 19.671875 43.109375 
L 48.578125 43.109375 
L 48.578125 34.8125 
L 19.671875 34.8125 
L 19.671875 0 
L 9.8125 0 
z
" id="DejaVuSans-70"/>
      </defs>
      <use xlink:href="#DejaVuSans-76"/>
      <use x="55.712891" xlink:href="#DejaVuSans-70"/>
      <use x="109.607422" xlink:href="#DejaVuSans-111"/>
      <use x="170.789062" xlink:href="#DejaVuSans-111"/>
      <use x="231.970703" xlink:href="#DejaVuSans-116"/>
     </g>
    </g>
   </g>
   <g id="text_18">
    <g clip-path="url(#p4876802a10)">
     <!-- RHip -->
     <g transform="translate(338.044698 393.818629)scale(0.1 -0.1)">
      <use xlink:href="#DejaVuSans-82"/>
      <use x="69.482422" xlink:href="#DejaVuSans-72"/>
      <use x="144.677734" xlink:href="#DejaVuSans-105"/>
      <use x="172.460938" xlink:href="#DejaVuSans-112"/>
     </g>
    </g>
   </g>
   <g id="text_19">
    <g clip-path="url(#p4876802a10)">
     <!-- RKnee -->
     <g transform="translate(323.030774 564.907104)scale(0.1 -0.1)">
      <use xlink:href="#DejaVuSans-82"/>
      <use x="69.482422" xlink:href="#DejaVuSans-75"/>
      <use x="135.058594" xlink:href="#DejaVuSans-110"/>
      <use x="198.4375" xlink:href="#DejaVuSans-101"/>
      <use x="259.960938" xlink:href="#DejaVuSans-101"/>
     </g>
    </g>
   </g>
   <g id="text_20">
    <g clip-path="url(#p4876802a10)">
     <!-- RAnkle -->
     <g transform="translate(268.007642 747.555634)scale(0.1 -0.1)">
      <use xlink:href="#DejaVuSans-82"/>
      <use x="65.482422" xlink:href="#DejaVuSans-65"/>
      <use x="133.890625" xlink:href="#DejaVuSans-110"/>
      <use x="197.269531" xlink:href="#DejaVuSans-107"/>
      <use x="255.179688" xlink:href="#DejaVuSans-108"/>
      <use x="282.962891" xlink:href="#DejaVuSans-101"/>
     </g>
    </g>
   </g>
   <g id="text_21">
    <g clip-path="url(#p4876802a10)">
     <!-- RFoot -->
     <g transform="translate(260.430639 791.784168)scale(0.1 -0.1)">
      <use xlink:href="#DejaVuSans-82"/>
      <use x="69.482422" xlink:href="#DejaVuSans-70"/>
      <use x="123.376953" xlink:href="#DejaVuSans-111"/>
      <use x="184.558594" xlink:href="#DejaVuSans-111"/>
      <use x="245.740234" xlink:href="#DejaVuSans-116"/>
     </g>
    </g>
   </g>
   <g id="text_22">
    <g clip-path="url(#p4876802a10)">
     <!-- LHandTip -->
     <g transform="translate(178.112796 380.215728)scale(0.1 -0.1)">
      <defs>
       <path d="M -0.296875 72.90625 
L 61.375 72.90625 
L 61.375 64.59375 
L 35.5 64.59375 
L 35.5 0 
L 25.59375 0 
L 25.59375 64.59375 
L -0.296875 64.59375 
z
" id="DejaVuSans-84"/>
      </defs>
      <use xlink:href="#DejaVuSans-76"/>
      <use x="55.712891" xlink:href="#DejaVuSans-72"/>
      <use x="130.908203" xlink:href="#DejaVuSans-97"/>
      <use x="192.1875" xlink:href="#DejaVuSans-110"/>
      <use x="255.566406" xlink:href="#DejaVuSans-100"/>
      <use x="319.042969" xlink:href="#DejaVuSans-84"/>
      <use x="377.001953" xlink:href="#DejaVuSans-105"/>
      <use x="404.785156" xlink:href="#DejaVuSans-112"/>
     </g>
    </g>
   </g>
   <g id="text_23">
    <g clip-path="url(#p4876802a10)">
     <!-- LThumb -->
     <g transform="translate(208.749615 346.042508)scale(0.1 -0.1)">
      <defs>
       <path d="M 52 44.1875 
Q 55.375 50.25 60.0625 53.125 
Q 64.75 56 71.09375 56 
Q 79.640625 56 84.28125 50.015625 
Q 88.921875 44.046875 88.921875 33.015625 
L 88.921875 0 
L 79.890625 0 
L 79.890625 32.71875 
Q 79.890625 40.578125 77.09375 44.375 
Q 74.3125 48.1875 68.609375 48.1875 
Q 61.625 48.1875 57.5625 43.546875 
Q 53.515625 38.921875 53.515625 30.90625 
L 53.515625 0 
L 44.484375 0 
L 44.484375 32.71875 
Q 44.484375 40.625 41.703125 44.40625 
Q 38.921875 48.1875 33.109375 48.1875 
Q 26.21875 48.1875 22.15625 43.53125 
Q 18.109375 38.875 18.109375 30.90625 
L 18.109375 0 
L 9.078125 0 
L 9.078125 54.6875 
L 18.109375 54.6875 
L 18.109375 46.1875 
Q 21.1875 51.21875 25.484375 53.609375 
Q 29.78125 56 35.6875 56 
Q 41.65625 56 45.828125 52.96875 
Q 50 49.953125 52 44.1875 
z
" id="DejaVuSans-109"/>
      </defs>
      <use xlink:href="#DejaVuSans-76"/>
      <use x="41.962891" xlink:href="#DejaVuSans-84"/>
      <use x="103.046875" xlink:href="#DejaVuSans-104"/>
      <use x="166.425781" xlink:href="#DejaVuSans-117"/>
      <use x="229.804688" xlink:href="#DejaVuSans-109"/>
      <use x="327.216797" xlink:href="#DejaVuSans-98"/>
     </g>
    </g>
   </g>
   <g id="text_24">
    <g clip-path="url(#p4876802a10)">
     <!-- RHandTip -->
     <g transform="translate(401.11011 438.661063)scale(0.1 -0.1)">
      <use xlink:href="#DejaVuSans-82"/>
      <use x="69.482422" xlink:href="#DejaVuSans-72"/>
      <use x="144.677734" xlink:href="#DejaVuSans-97"/>
      <use x="205.957031" xlink:href="#DejaVuSans-110"/>
      <use x="269.335938" xlink:href="#DejaVuSans-100"/>
      <use x="332.8125" xlink:href="#DejaVuSans-84"/>
      <use x="390.771484" xlink:href="#DejaVuSans-105"/>
      <use x="418.554688" xlink:href="#DejaVuSans-112"/>
     </g>
    </g>
   </g>
   <g id="text_25">
    <g clip-path="url(#p4876802a10)">
     <!-- RThumb -->
     <g transform="translate(388.071311 400.568904)scale(0.1 -0.1)">
      <use xlink:href="#DejaVuSans-82"/>
      <use x="62.232422" xlink:href="#DejaVuSans-84"/>
      <use x="123.316406" xlink:href="#DejaVuSans-104"/>
      <use x="186.695312" xlink:href="#DejaVuSans-117"/>
      <use x="250.074219" xlink:href="#DejaVuSans-109"/>
      <use x="347.486328" xlink:href="#DejaVuSans-98"/>
     </g>
    </g>
   </g>
   <g id="text_26">
    <!-- Node Graph Visualization - Frame 172 -->
    <g transform="translate(174.194063 -6)scale(0.12 -0.12)">
     <defs>
      <path d="M 9.8125 72.90625 
L 23.09375 72.90625 
L 55.421875 11.921875 
L 55.421875 72.90625 
L 64.984375 72.90625 
L 64.984375 0 
L 51.703125 0 
L 19.390625 60.984375 
L 19.390625 0 
L 9.8125 0 
z
" id="DejaVuSans-78"/>
      <path id="DejaVuSans-32"/>
      <path d="M 59.515625 10.40625 
L 59.515625 29.984375 
L 43.40625 29.984375 
L 43.40625 38.09375 
L 69.28125 38.09375 
L 69.28125 6.78125 
Q 63.578125 2.734375 56.6875 0.65625 
Q 49.8125 -1.421875 42 -1.421875 
Q 24.90625 -1.421875 15.25 8.5625 
Q 5.609375 18.5625 5.609375 36.375 
Q 5.609375 54.25 15.25 64.234375 
Q 24.90625 74.21875 42 74.21875 
Q 49.125 74.21875 55.546875 72.453125 
Q 61.96875 70.703125 67.390625 67.28125 
L 67.390625 56.78125 
Q 61.921875 61.421875 55.765625 63.765625 
Q 49.609375 66.109375 42.828125 66.109375 
Q 29.4375 66.109375 22.71875 58.640625 
Q 16.015625 51.171875 16.015625 36.375 
Q 16.015625 21.625 22.71875 14.15625 
Q 29.4375 6.6875 42.828125 6.6875 
Q 48.046875 6.6875 52.140625 7.59375 
Q 56.25 8.5 59.515625 10.40625 
z
" id="DejaVuSans-71"/>
      <path d="M 28.609375 0 
L 0.78125 72.90625 
L 11.078125 72.90625 
L 34.1875 11.53125 
L 57.328125 72.90625 
L 67.578125 72.90625 
L 39.796875 0 
z
" id="DejaVuSans-86"/>
      <path d="M 5.515625 54.6875 
L 48.1875 54.6875 
L 48.1875 46.484375 
L 14.40625 7.171875 
L 48.1875 7.171875 
L 48.1875 0 
L 4.296875 0 
L 4.296875 8.203125 
L 38.09375 47.515625 
L 5.515625 47.515625 
z
" id="DejaVuSans-122"/>
      <path d="M 4.890625 31.390625 
L 31.203125 31.390625 
L 31.203125 23.390625 
L 4.890625 23.390625 
z
" id="DejaVuSans-45"/>
      <path d="M 12.40625 8.296875 
L 28.515625 8.296875 
L 28.515625 63.921875 
L 10.984375 60.40625 
L 10.984375 69.390625 
L 28.421875 72.90625 
L 38.28125 72.90625 
L 38.28125 8.296875 
L 54.390625 8.296875 
L 54.390625 0 
L 12.40625 0 
z
" id="DejaVuSans-49"/>
      <path d="M 19.1875 8.296875 
L 53.609375 8.296875 
L 53.609375 0 
L 7.328125 0 
L 7.328125 8.296875 
Q 12.9375 14.109375 22.625 23.890625 
Q 32.328125 33.6875 34.8125 36.53125 
Q 39.546875 41.84375 41.421875 45.53125 
Q 43.3125 49.21875 43.3125 52.78125 
Q 43.3125 58.59375 39.234375 62.25 
Q 35.15625 65.921875 28.609375 65.921875 
Q 23.96875 65.921875 18.8125 64.3125 
Q 13.671875 62.703125 7.8125 59.421875 
L 7.8125 69.390625 
Q 13.765625 71.78125 18.9375 73 
Q 24.125 74.21875 28.421875 74.21875 
Q 39.75 74.21875 46.484375 68.546875 
Q 53.21875 62.890625 53.21875 53.421875 
Q 53.21875 48.921875 51.53125 44.890625 
Q 49.859375 40.875 45.40625 35.40625 
Q 44.1875 33.984375 37.640625 27.21875 
Q 31.109375 20.453125 19.1875 8.296875 
z
" id="DejaVuSans-50"/>
     </defs>
     <use xlink:href="#DejaVuSans-78"/>
     <use x="74.804688" xlink:href="#DejaVuSans-111"/>
     <use x="135.986328" xlink:href="#DejaVuSans-100"/>
     <use x="199.462891" xlink:href="#DejaVuSans-101"/>
     <use x="260.986328" xlink:href="#DejaVuSans-32"/>
     <use x="292.773438" xlink:href="#DejaVuSans-71"/>
     <use x="370.263672" xlink:href="#DejaVuSans-114"/>
     <use x="411.376953" xlink:href="#DejaVuSans-97"/>
     <use x="472.65625" xlink:href="#DejaVuSans-112"/>
     <use x="536.132812" xlink:href="#DejaVuSans-104"/>
     <use x="599.511719" xlink:href="#DejaVuSans-32"/>
     <use x="631.298828" xlink:href="#DejaVuSans-86"/>
     <use x="697.457031" xlink:href="#DejaVuSans-105"/>
     <use x="725.240234" xlink:href="#DejaVuSans-115"/>
     <use x="777.339844" xlink:href="#DejaVuSans-117"/>
     <use x="840.71875" xlink:href="#DejaVuSans-97"/>
     <use x="901.998047" xlink:href="#DejaVuSans-108"/>
     <use x="929.78125" xlink:href="#DejaVuSans-105"/>
     <use x="957.564453" xlink:href="#DejaVuSans-122"/>
     <use x="1010.054688" xlink:href="#DejaVuSans-97"/>
     <use x="1071.333984" xlink:href="#DejaVuSans-116"/>
     <use x="1110.542969" xlink:href="#DejaVuSans-105"/>
     <use x="1138.326172" xlink:href="#DejaVuSans-111"/>
     <use x="1199.507812" xlink:href="#DejaVuSans-110"/>
     <use x="1262.886719" xlink:href="#DejaVuSans-32"/>
     <use x="1294.673828" xlink:href="#DejaVuSans-45"/>
     <use x="1330.757812" xlink:href="#DejaVuSans-32"/>
     <use x="1362.544922" xlink:href="#DejaVuSans-70"/>
     <use x="1412.814453" xlink:href="#DejaVuSans-114"/>
     <use x="1453.927734" xlink:href="#DejaVuSans-97"/>
     <use x="1515.207031" xlink:href="#DejaVuSans-109"/>
     <use x="1612.619141" xlink:href="#DejaVuSans-101"/>
     <use x="1674.142578" xlink:href="#DejaVuSans-32"/>
     <use x="1705.929688" xlink:href="#DejaVuSans-49"/>
     <use x="1769.552734" xlink:href="#DejaVuSans-55"/>
     <use x="1833.175781" xlink:href="#DejaVuSans-50"/>
    </g>
   </g>
  </g>
 </g>
 <defs>
  <clipPath id="p4876802a10">
   <rect height="864" width="576" x="0" y="0"/>
  </clipPath>
 </defs>
</svg>
