<?xml version="1.0" encoding="utf-8" standalone="no"?>
<!DOCTYPE svg PUBLIC "-//W3C//DTD SVG 1.1//EN"
  "http://www.w3.org/Graphics/SVG/1.1/DTD/svg11.dtd">
<!-- Created with matplotlib (https://matplotlib.org/) -->
<svg height="864pt" version="1.1" viewBox="0 0 576 864" width="576pt" xmlns="http://www.w3.org/2000/svg" xmlns:xlink="http://www.w3.org/1999/xlink">
 <metadata>
  <rdf:RDF xmlns:cc="http://creativecommons.org/ns#" xmlns:dc="http://purl.org/dc/elements/1.1/" xmlns:rdf="http://www.w3.org/1999/02/22-rdf-syntax-ns#">
   <cc:Work>
    <dc:type rdf:resource="http://purl.org/dc/dcmitype/StillImage"/>
    <dc:date>2024-02-04T22:27:45.315119</dc:date>
    <dc:format>image/svg+xml</dc:format>
    <dc:creator>
     <cc:Agent>
      <dc:title>Matplotlib v3.3.2, https://matplotlib.org/</dc:title>
     </cc:Agent>
    </dc:creator>
   </cc:Work>
  </rdf:RDF>
 </metadata>
 <defs>
  <style type="text/css">*{stroke-linecap:butt;stroke-linejoin:round;}</style>
 </defs>
 <g id="figure_1">
  <g id="patch_1">
   <path d="M 0 864 
L 576 864 
L 576 0 
L 0 0 
z
" style="fill:#ffffff;"/>
  </g>
  <g id="axes_1">
   <g id="patch_2">
    <path clip-path="url(#p96eaa4e58f)" d="M 267.441442 87.588984 
Q 266.460716 90.685442 265.817571 92.716048 
" style="fill:none;stroke:#000000;stroke-linecap:round;"/>
    <path clip-path="url(#p96eaa4e58f)" d="M 268.931993 89.506629 
L 265.817571 92.716048 
L 265.118689 88.298859 
L 268.931993 89.506629 
z
" style="stroke:#000000;stroke-linecap:round;"/>
   </g>
   <g id="patch_3">
    <path clip-path="url(#p96eaa4e58f)" d="M 260.898502 119.605322 
Q 260.856633 120.547209 260.864414 120.372164 
" style="fill:none;stroke:#000000;stroke-linecap:round;"/>
    <path clip-path="url(#p96eaa4e58f)" d="M 263.040076 116.464927 
L 260.864414 120.372164 
L 259.044022 116.287293 
L 263.040076 116.464927 
z
" style="stroke:#000000;stroke-linecap:round;"/>
   </g>
   <g id="patch_4">
    <path clip-path="url(#p96eaa4e58f)" d="M 265.480939 93.7789 
Q 266.461666 90.682443 267.10481 88.651836 
" style="fill:none;stroke:#000000;stroke-linecap:round;"/>
    <path clip-path="url(#p96eaa4e58f)" d="M 263.990388 91.861255 
L 267.10481 88.651836 
L 267.803693 93.069025 
L 263.990388 91.861255 
z
" style="stroke:#000000;stroke-linecap:round;"/>
   </g>
   <g id="patch_5">
    <path clip-path="url(#p96eaa4e58f)" d="M 259.738453 147.923722 
Q 258.603677 178.609839 257.510217 208.178685 
" style="fill:none;stroke:#000000;stroke-linecap:round;"/>
    <path clip-path="url(#p96eaa4e58f)" d="M 259.65667 204.255327 
L 257.510217 208.178685 
L 255.659403 204.107508 
L 259.65667 204.255327 
z
" style="stroke:#000000;stroke-linecap:round;"/>
   </g>
   <g id="patch_6">
    <path clip-path="url(#p96eaa4e58f)" d="M 247.000428 134.90495 
Q 155.104175 136.294182 64.325828 137.666515 
" style="fill:none;stroke:#000000;stroke-linecap:round;"/>
    <path clip-path="url(#p96eaa4e58f)" d="M 68.355602 139.605823 
L 64.325828 137.666515 
L 68.29514 135.60628 
L 68.355602 139.605823 
z
" style="stroke:#000000;stroke-linecap:round;"/>
   </g>
   <g id="patch_7">
    <path clip-path="url(#p96eaa4e58f)" d="M 273.448484 135.10367 
Q 354.881027 137.559213 435.196043 139.981057 
" style="fill:none;stroke:#000000;stroke-linecap:round;"/>
    <path clip-path="url(#p96eaa4e58f)" d="M 431.258142 137.861403 
L 435.196043 139.981057 
L 431.13758 141.859586 
L 431.258142 137.861403 
z
" style="stroke:#000000;stroke-linecap:round;"/>
   </g>
   <g id="patch_8">
    <path clip-path="url(#p96eaa4e58f)" d="M 260.814619 121.492349 
Q 260.856488 120.550463 260.848707 120.725508 
" style="fill:none;stroke:#000000;stroke-linecap:round;"/>
    <path clip-path="url(#p96eaa4e58f)" d="M 258.673046 124.632744 
L 260.848707 120.725508 
L 262.669099 124.810379 
L 258.673046 124.632744 
z
" style="stroke:#000000;stroke-linecap:round;"/>
   </g>
   <g id="patch_9">
    <path clip-path="url(#p96eaa4e58f)" d="M 256.540008 235.735076 
Q 254.972999 282.810238 253.443187 328.767984 
" style="fill:none;stroke:#000000;stroke-linecap:round;"/>
    <path clip-path="url(#p96eaa4e58f)" d="M 255.575155 324.836736 
L 253.443187 328.767984 
L 251.577369 324.703661 
L 255.575155 324.836736 
z
" style="stroke:#000000;stroke-linecap:round;"/>
   </g>
   <g id="patch_10">
    <path clip-path="url(#p96eaa4e58f)" d="M 257.469005 209.293131 
Q 258.603781 178.607014 259.697241 149.038168 
" style="fill:none;stroke:#000000;stroke-linecap:round;"/>
    <path clip-path="url(#p96eaa4e58f)" d="M 257.550788 152.961526 
L 259.697241 149.038168 
L 261.548055 153.109345 
L 257.550788 152.961526 
z
" style="stroke:#000000;stroke-linecap:round;"/>
   </g>
   <g id="patch_11">
    <path clip-path="url(#p96eaa4e58f)" d="M 239.741429 343.51689 
Q 208.09558 344.497725 177.567229 345.443923 
" style="fill:none;stroke:#000000;stroke-linecap:round;"/>
    <path clip-path="url(#p96eaa4e58f)" d="M 181.627267 347.319046 
L 177.567229 345.443923 
L 181.50335 343.320966 
L 181.627267 347.319046 
z
" style="stroke:#000000;stroke-linecap:round;"/>
   </g>
   <g id="patch_12">
    <path clip-path="url(#p96eaa4e58f)" d="M 266.178464 343.737756 
Q 298.491792 345.280338 329.688359 346.769608 
" style="fill:none;stroke:#000000;stroke-linecap:round;"/>
    <path clip-path="url(#p96eaa4e58f)" d="M 325.788277 344.581147 
L 329.688359 346.769608 
L 325.597541 348.576597 
L 325.788277 344.581147 
z
" style="stroke:#000000;stroke-linecap:round;"/>
   </g>
   <g id="patch_13">
    <path clip-path="url(#p96eaa4e58f)" d="M 253.406044 329.883793 
Q 254.973053 282.808632 256.502866 236.850885 
" style="fill:none;stroke:#000000;stroke-linecap:round;"/>
    <path clip-path="url(#p96eaa4e58f)" d="M 254.370897 240.782133 
L 256.502866 236.850885 
L 258.368683 240.915209 
L 254.370897 240.782133 
z
" style="stroke:#000000;stroke-linecap:round;"/>
   </g>
   <g id="patch_14">
    <path clip-path="url(#p96eaa4e58f)" d="M 52.752945 150.817667 
Q 61.473468 191.545305 69.959905 231.17969 
" style="fill:none;stroke:#000000;stroke-linecap:round;"/>
    <path clip-path="url(#p96eaa4e58f)" d="M 71.078088 226.849601 
L 69.959905 231.17969 
L 67.166744 227.68709 
L 71.078088 226.849601 
z
" style="stroke:#000000;stroke-linecap:round;"/>
   </g>
   <g id="patch_15">
    <path clip-path="url(#p96eaa4e58f)" d="M 63.210327 137.683378 
Q 155.10658 136.294146 245.884927 134.921813 
" style="fill:none;stroke:#000000;stroke-linecap:round;"/>
    <path clip-path="url(#p96eaa4e58f)" d="M 241.855153 132.982504 
L 245.884927 134.921813 
L 241.915615 136.982047 
L 241.855153 132.982504 
z
" style="stroke:#000000;stroke-linecap:round;"/>
   </g>
   <g id="patch_16">
    <path clip-path="url(#p96eaa4e58f)" d="M 85.845445 248.208473 
Q 182.969379 270.817934 279.004395 293.173906 
" style="fill:none;stroke:#000000;stroke-linecap:round;"/>
    <path clip-path="url(#p96eaa4e58f)" d="M 275.562017 290.31908 
L 279.004395 293.173906 
L 274.655107 294.214912 
L 275.562017 290.31908 
z
" style="stroke:#000000;stroke-linecap:round;"/>
   </g>
   <g id="patch_17">
    <path clip-path="url(#p96eaa4e58f)" d="M 70.194532 232.275472 
Q 61.47401 191.547834 52.987572 151.91345 
" style="fill:none;stroke:#000000;stroke-linecap:round;"/>
    <path clip-path="url(#p96eaa4e58f)" d="M 51.86939 156.243538 
L 52.987572 151.91345 
L 55.780734 155.406049 
L 51.86939 156.243538 
z
" style="stroke:#000000;stroke-linecap:round;"/>
   </g>
   <g id="patch_18">
    <path clip-path="url(#p96eaa4e58f)" d="M 306.134175 297.851313 
Q 310.368603 298.309754 313.491491 298.647854 
" style="fill:none;stroke:#000000;stroke-linecap:round;"/>
    <path clip-path="url(#p96eaa4e58f)" d="M 309.730002 296.228929 
L 313.491491 298.647854 
L 309.299458 300.20569 
L 309.730002 296.228929 
z
" style="stroke:#000000;stroke-linecap:round;"/>
   </g>
   <g id="patch_19">
    <path clip-path="url(#p96eaa4e58f)" d="M 280.097677 293.428411 
Q 182.973743 270.81895 86.938728 248.462978 
" style="fill:none;stroke:#000000;stroke-linecap:round;"/>
    <path clip-path="url(#p96eaa4e58f)" d="M 90.381106 251.317805 
L 86.938728 248.462978 
L 91.288016 247.421972 
L 90.381106 251.317805 
z
" style="stroke:#000000;stroke-linecap:round;"/>
   </g>
   <g id="patch_20">
    <path clip-path="url(#p96eaa4e58f)" d="M 340.913876 301.512391 
Q 351.608433 302.585438 361.190541 303.546867 
" style="fill:none;stroke:#000000;stroke-linecap:round;"/>
    <path clip-path="url(#p96eaa4e58f)" d="M 357.410194 301.157521 
L 361.190541 303.546867 
L 357.010856 305.137537 
L 357.410194 301.157521 
z
" style="stroke:#000000;stroke-linecap:round;"/>
   </g>
   <g id="patch_21">
    <path clip-path="url(#p96eaa4e58f)" d="M 319.321438 310.386806 
Q 319.320409 310.388051 320.031954 309.527764 
" style="fill:none;stroke:#000000;stroke-linecap:round;"/>
    <path clip-path="url(#p96eaa4e58f)" d="M 324.122496 307.72015 
L 320.031954 309.527764 
L 321.040187 305.170762 
L 324.122496 307.72015 
z
" style="stroke:#000000;stroke-linecap:round;"/>
   </g>
   <g id="patch_22">
    <path clip-path="url(#p96eaa4e58f)" d="M 314.598579 298.767713 
Q 310.364152 298.309272 307.241263 297.971172 
" style="fill:none;stroke:#000000;stroke-linecap:round;"/>
    <path clip-path="url(#p96eaa4e58f)" d="M 311.002752 300.390098 
L 307.241263 297.971172 
L 311.433297 296.413336 
L 311.002752 300.390098 
z
" style="stroke:#000000;stroke-linecap:round;"/>
   </g>
   <g id="patch_23">
    <path clip-path="url(#p96eaa4e58f)" d="M 457.398973 151.048759 
Q 487.776188 192.13477 517.488722 232.321783 
" style="fill:none;stroke:#000000;stroke-linecap:round;"/>
    <path clip-path="url(#p96eaa4e58f)" d="M 516.718865 227.916409 
L 517.488722 232.321783 
L 513.502509 230.294443 
L 516.718865 227.916409 
z
" style="stroke:#000000;stroke-linecap:round;"/>
   </g>
   <g id="patch_24">
    <path clip-path="url(#p96eaa4e58f)" d="M 436.314494 140.014783 
Q 354.881951 137.559241 274.566934 135.137396 
" style="fill:none;stroke:#000000;stroke-linecap:round;"/>
    <path clip-path="url(#p96eaa4e58f)" d="M 278.504836 137.25705 
L 274.566934 135.137396 
L 278.625398 133.258867 
L 278.504836 137.25705 
z
" style="stroke:#000000;stroke-linecap:round;"/>
   </g>
   <g id="patch_25">
    <path clip-path="url(#p96eaa4e58f)" d="M 513.29775 247.495887 
Q 438.36797 268.940187 364.513072 290.076864 
" style="fill:none;stroke:#000000;stroke-linecap:round;"/>
    <path clip-path="url(#p96eaa4e58f)" d="M 368.908973 290.899087 
L 364.513072 290.076864 
L 367.80839 287.053477 
L 368.908973 290.899087 
z
" style="stroke:#000000;stroke-linecap:round;"/>
   </g>
   <g id="patch_26">
    <path clip-path="url(#p96eaa4e58f)" d="M 518.15325 233.220575 
Q 487.776035 192.134564 458.063501 151.947551 
" style="fill:none;stroke:#000000;stroke-linecap:round;"/>
    <path clip-path="url(#p96eaa4e58f)" d="M 458.833358 156.352925 
L 458.063501 151.947551 
L 462.049714 153.974891 
L 458.833358 156.352925 
z
" style="stroke:#000000;stroke-linecap:round;"/>
   </g>
   <g id="patch_27">
    <path clip-path="url(#p96eaa4e58f)" d="M 337.967182 297.547152 
Q 336.797339 297.870307 336.705168 297.895768 
" style="fill:none;stroke:#000000;stroke-linecap:round;"/>
    <path clip-path="url(#p96eaa4e58f)" d="M 341.093299 298.758504 
L 336.705168 297.895768 
L 340.028235 294.902905 
L 341.093299 298.758504 
z
" style="stroke:#000000;stroke-linecap:round;"/>
   </g>
   <g id="patch_28">
    <path clip-path="url(#p96eaa4e58f)" d="M 363.43817 290.384493 
Q 438.36795 268.940193 512.222849 247.803515 
" style="fill:none;stroke:#000000;stroke-linecap:round;"/>
    <path clip-path="url(#p96eaa4e58f)" d="M 507.826947 246.981292 
L 512.222849 247.803515 
L 508.92753 250.826903 
L 507.826947 246.981292 
z
" style="stroke:#000000;stroke-linecap:round;"/>
   </g>
   <g id="patch_29">
    <path clip-path="url(#p96eaa4e58f)" d="M 322.824053 301.522539 
Q 313.055984 304.062376 304.36997 306.320863 
" style="fill:none;stroke:#000000;stroke-linecap:round;"/>
    <path clip-path="url(#p96eaa4e58f)" d="M 308.74454 307.249914 
L 304.36997 306.320863 
L 307.737953 303.378638 
L 308.74454 307.249914 
z
" style="stroke:#000000;stroke-linecap:round;"/>
   </g>
   <g id="patch_30">
    <path clip-path="url(#p96eaa4e58f)" d="M 345.440835 307.058946 
Q 348.008215 309.378346 349.745976 310.948259 
" style="fill:none;stroke:#000000;stroke-linecap:round;"/>
    <path clip-path="url(#p96eaa4e58f)" d="M 348.118564 306.782743 
L 349.745976 310.948259 
L 345.437115 309.750879 
L 348.118564 306.782743 
z
" style="stroke:#000000;stroke-linecap:round;"/>
   </g>
   <g id="patch_31">
    <path clip-path="url(#p96eaa4e58f)" d="M 348.379705 294.670815 
Q 349.549548 294.34766 349.641719 294.322199 
" style="fill:none;stroke:#000000;stroke-linecap:round;"/>
    <path clip-path="url(#p96eaa4e58f)" d="M 345.253589 293.459463 
L 349.641719 294.322199 
L 346.318652 297.315062 
L 345.253589 293.459463 
z
" style="stroke:#000000;stroke-linecap:round;"/>
   </g>
   <g id="patch_32">
    <path clip-path="url(#p96eaa4e58f)" d="M 160.098936 358.744412 
Q 139.665447 442.667247 119.496449 525.503784 
" style="fill:none;stroke:#000000;stroke-linecap:round;"/>
    <path clip-path="url(#p96eaa4e58f)" d="M 122.385952 522.090461 
L 119.496449 525.503784 
L 118.499493 521.144188 
L 122.385952 522.090461 
z
" style="stroke:#000000;stroke-linecap:round;"/>
   </g>
   <g id="patch_33">
    <path clip-path="url(#p96eaa4e58f)" d="M 176.45358 345.47844 
Q 208.099429 344.497605 238.62778 343.551407 
" style="fill:none;stroke:#000000;stroke-linecap:round;"/>
    <path clip-path="url(#p96eaa4e58f)" d="M 234.567742 341.676284 
L 238.62778 343.551407 
L 234.691659 345.674364 
L 234.567742 341.676284 
z
" style="stroke:#000000;stroke-linecap:round;"/>
   </g>
   <g id="patch_34">
    <path clip-path="url(#p96eaa4e58f)" d="M 116.428534 552.66666 
Q 118.454698 634.958212 120.453341 716.13207 
" style="fill:none;stroke:#000000;stroke-linecap:round;"/>
    <path clip-path="url(#p96eaa4e58f)" d="M 122.354278 712.084053 
L 120.453341 716.13207 
L 118.35549 712.18251 
L 122.354278 712.084053 
z
" style="stroke:#000000;stroke-linecap:round;"/>
   </g>
   <g id="patch_35">
    <path clip-path="url(#p96eaa4e58f)" d="M 119.233102 526.585385 
Q 139.666591 442.662549 159.835589 359.826013 
" style="fill:none;stroke:#000000;stroke-linecap:round;"/>
    <path clip-path="url(#p96eaa4e58f)" d="M 156.946086 363.239336 
L 159.835589 359.826013 
L 160.832545 364.185609 
L 156.946086 363.239336 
z
" style="stroke:#000000;stroke-linecap:round;"/>
   </g>
   <g id="patch_36">
    <path clip-path="url(#p96eaa4e58f)" d="M 114.44928 742.075103 
Q 107.764819 754.270777 101.61773 765.486028 
" style="fill:none;stroke:#000000;stroke-linecap:round;"/>
    <path clip-path="url(#p96eaa4e58f)" d="M 105.294125 762.939634 
L 101.61773 765.486028 
L 101.786452 761.017075 
L 105.294125 762.939634 
z
" style="stroke:#000000;stroke-linecap:round;"/>
   </g>
   <g id="patch_37">
    <path clip-path="url(#p96eaa4e58f)" d="M 120.480898 717.251246 
Q 118.454734 634.959693 116.45609 553.785836 
" style="fill:none;stroke:#000000;stroke-linecap:round;"/>
    <path clip-path="url(#p96eaa4e58f)" d="M 114.555153 557.833853 
L 116.45609 553.785836 
L 118.553941 557.735396 
L 114.555153 557.833853 
z
" style="stroke:#000000;stroke-linecap:round;"/>
   </g>
   <g id="patch_38">
    <path clip-path="url(#p96eaa4e58f)" d="M 101.078846 766.46921 
Q 107.763307 754.273536 113.910397 743.058286 
" style="fill:none;stroke:#000000;stroke-linecap:round;"/>
    <path clip-path="url(#p96eaa4e58f)" d="M 110.234001 745.604679 
L 113.910397 743.058286 
L 113.741674 747.527238 
L 110.234001 745.604679 
z
" style="stroke:#000000;stroke-linecap:round;"/>
   </g>
   <g id="patch_39">
    <path clip-path="url(#p96eaa4e58f)" d="M 346.685583 360.411277 
Q 365.750485 452.997327 384.589897 544.488317 
" style="fill:none;stroke:#000000;stroke-linecap:round;"/>
    <path clip-path="url(#p96eaa4e58f)" d="M 385.742062 540.167147 
L 384.589897 544.488317 
L 381.824259 540.973883 
L 385.742062 540.167147 
z
" style="stroke:#000000;stroke-linecap:round;"/>
   </g>
   <g id="patch_40">
    <path clip-path="url(#p96eaa4e58f)" d="M 330.804821 346.822906 
Q 298.491493 345.280324 267.294927 343.791054 
" style="fill:none;stroke:#000000;stroke-linecap:round;"/>
    <path clip-path="url(#p96eaa4e58f)" d="M 271.195009 345.979515 
L 267.294927 343.791054 
L 271.385744 341.984065 
L 271.195009 345.979515 
z
" style="stroke:#000000;stroke-linecap:round;"/>
   </g>
   <g id="patch_41">
    <path clip-path="url(#p96eaa4e58f)" d="M 385.847773 571.662876 
Q 375.822856 652.134589 365.936152 731.496843 
" style="fill:none;stroke:#000000;stroke-linecap:round;"/>
    <path clip-path="url(#p96eaa4e58f)" d="M 368.415297 727.774768 
L 365.936152 731.496843 
L 364.445979 727.280283 
L 368.415297 727.774768 
z
" style="stroke:#000000;stroke-linecap:round;"/>
   </g>
   <g id="patch_42">
    <path clip-path="url(#p96eaa4e58f)" d="M 384.814697 545.580028 
Q 365.749795 452.993979 346.910383 361.502988 
" style="fill:none;stroke:#000000;stroke-linecap:round;"/>
    <path clip-path="url(#p96eaa4e58f)" d="M 345.758218 365.824159 
L 346.910383 361.502988 
L 349.676021 365.017423 
L 345.758218 365.824159 
z
" style="stroke:#000000;stroke-linecap:round;"/>
   </g>
   <g id="patch_43">
    <path clip-path="url(#p96eaa4e58f)" d="M 373.377929 755.223603 
Q 385.185486 767.38019 396.214071 778.734777 
" style="fill:none;stroke:#000000;stroke-linecap:round;"/>
    <path clip-path="url(#p96eaa4e58f)" d="M 394.861794 774.471991 
L 396.214071 778.734777 
L 391.992476 777.258928 
L 394.861794 774.471991 
z
" style="stroke:#000000;stroke-linecap:round;"/>
   </g>
   <g id="patch_44">
    <path clip-path="url(#p96eaa4e58f)" d="M 365.797432 732.610374 
Q 375.822349 652.138661 385.709053 572.776407 
" style="fill:none;stroke:#000000;stroke-linecap:round;"/>
    <path clip-path="url(#p96eaa4e58f)" d="M 383.229909 576.498482 
L 385.709053 572.776407 
L 387.199227 576.992967 
L 383.229909 576.498482 
z
" style="stroke:#000000;stroke-linecap:round;"/>
   </g>
   <g id="patch_45">
    <path clip-path="url(#p96eaa4e58f)" d="M 396.993053 779.536786 
Q 385.185496 767.3802 374.156911 756.025612 
" style="fill:none;stroke:#000000;stroke-linecap:round;"/>
    <path clip-path="url(#p96eaa4e58f)" d="M 375.509189 760.288398 
L 374.156911 756.025612 
L 378.378506 757.501461 
L 375.509189 760.288398 
z
" style="stroke:#000000;stroke-linecap:round;"/>
   </g>
   <g id="patch_46">
    <path clip-path="url(#p96eaa4e58f)" d="M 362.306906 303.658879 
Q 351.612349 302.585831 342.030241 301.624403 
" style="fill:none;stroke:#000000;stroke-linecap:round;"/>
    <path clip-path="url(#p96eaa4e58f)" d="M 345.810588 304.013749 
L 342.030241 301.624403 
L 346.209926 300.033733 
L 345.810588 304.013749 
z
" style="stroke:#000000;stroke-linecap:round;"/>
   </g>
   <g id="patch_47">
    <path clip-path="url(#p96eaa4e58f)" d="M 327.75158 300.194437 
Q 327.752609 300.193193 327.041063 301.053479 
" style="fill:none;stroke:#000000;stroke-linecap:round;"/>
    <path clip-path="url(#p96eaa4e58f)" d="M 322.950522 302.861094 
L 327.041063 301.053479 
L 326.03283 305.410481 
L 322.950522 302.861094 
z
" style="stroke:#000000;stroke-linecap:round;"/>
   </g>
   <g id="patch_48">
    <path clip-path="url(#p96eaa4e58f)" d="M 303.289641 306.601764 
Q 313.05771 304.061927 321.743725 301.80344 
" style="fill:none;stroke:#000000;stroke-linecap:round;"/>
    <path clip-path="url(#p96eaa4e58f)" d="M 317.369154 300.874389 
L 321.743725 301.80344 
L 318.375741 304.745665 
L 317.369154 300.874389 
z
" style="stroke:#000000;stroke-linecap:round;"/>
   </g>
   <g id="patch_49">
    <path clip-path="url(#p96eaa4e58f)" d="M 340.762255 302.832263 
Q 338.194876 300.512863 336.457115 298.94295 
" style="fill:none;stroke:#000000;stroke-linecap:round;"/>
    <path clip-path="url(#p96eaa4e58f)" d="M 338.084527 303.108466 
L 336.457115 298.94295 
L 340.765976 300.14033 
L 338.084527 303.108466 
z
" style="stroke:#000000;stroke-linecap:round;"/>
   </g>
   <g id="PathCollection_1">
    <defs>
     <path d="M 0 13.228757 
C 3.508307 13.228757 6.873396 11.834891 9.354143 9.354143 
C 11.834891 6.873396 13.228757 3.508307 13.228757 0 
C 13.228757 -3.508307 11.834891 -6.873396 9.354143 -9.354143 
C 6.873396 -11.834891 3.508307 -13.228757 0 -13.228757 
C -3.508307 -13.228757 -6.873396 -11.834891 -9.354143 -9.354143 
C -11.834891 -6.873396 -13.228757 -3.508307 -13.228757 0 
C -13.228757 3.508307 -11.834891 6.873396 -9.354143 9.354143 
C -6.873396 11.834891 -3.508307 13.228757 0 13.228757 
z
" id="m2659a32830" style="stroke:#87ceeb;"/>
    </defs>
    <g clip-path="url(#p96eaa4e58f)">
     <use style="fill:#87ceeb;stroke:#87ceeb;" x="271.436544" xlink:href="#m2659a32830" y="74.975207"/>
     <use style="fill:#87ceeb;stroke:#87ceeb;" x="261.485838" xlink:href="#m2659a32830" y="106.392677"/>
     <use style="fill:#87ceeb;stroke:#87ceeb;" x="260.227284" xlink:href="#m2659a32830" y="134.704994"/>
     <use style="fill:#87ceeb;stroke:#87ceeb;" x="256.980174" xlink:href="#m2659a32830" y="222.511859"/>
     <use style="fill:#87ceeb;stroke:#87ceeb;" x="252.965878" xlink:href="#m2659a32830" y="343.107011"/>
     <use style="fill:#87ceeb;stroke:#87ceeb;" x="49.983471" xlink:href="#m2659a32830" y="137.883334"/>
     <use style="fill:#87ceeb;stroke:#87ceeb;" x="72.964007" xlink:href="#m2659a32830" y="245.209805"/>
     <use style="fill:#87ceeb;stroke:#87ceeb;" x="292.979116" xlink:href="#m2659a32830" y="296.427079"/>
     <use style="fill:#87ceeb;stroke:#87ceeb;" x="327.753639" xlink:href="#m2659a32830" y="300.191948"/>
     <use style="fill:#87ceeb;stroke:#87ceeb;" x="449.535694" xlink:href="#m2659a32830" y="140.41346"/>
     <use style="fill:#87ceeb;stroke:#87ceeb;" x="526.016529" xlink:href="#m2659a32830" y="243.855875"/>
     <use style="fill:#87ceeb;stroke:#87ceeb;" x="350.719391" xlink:href="#m2659a32830" y="294.024505"/>
     <use style="fill:#87ceeb;stroke:#87ceeb;" x="335.627496" xlink:href="#m2659a32830" y="298.193462"/>
     <use style="fill:#87ceeb;stroke:#87ceeb;" x="163.229131" xlink:href="#m2659a32830" y="345.888319"/>
     <use style="fill:#87ceeb;stroke:#87ceeb;" x="116.102907" xlink:href="#m2659a32830" y="539.441477"/>
     <use style="fill:#87ceeb;stroke:#87ceeb;" x="120.806525" xlink:href="#m2659a32830" y="730.476428"/>
     <use style="fill:#87ceeb;stroke:#87ceeb;" x="94.721601" xlink:href="#m2659a32830" y="778.067885"/>
     <use style="fill:#87ceeb;stroke:#87ceeb;" x="344.017407" xlink:href="#m2659a32830" y="347.453652"/>
     <use style="fill:#87ceeb;stroke:#87ceeb;" x="387.482873" xlink:href="#m2659a32830" y="558.537654"/>
     <use style="fill:#87ceeb;stroke:#87ceeb;" x="364.162333" xlink:href="#m2659a32830" y="745.735596"/>
     <use style="fill:#87ceeb;stroke:#87ceeb;" x="406.208649" xlink:href="#m2659a32830" y="789.024793"/>
     <use style="fill:#87ceeb;stroke:#87ceeb;" x="375.467143" xlink:href="#m2659a32830" y="304.979322"/>
     <use style="fill:#87ceeb;stroke:#87ceeb;" x="319.319379" xlink:href="#m2659a32830" y="310.389296"/>
     <use style="fill:#87ceeb;stroke:#87ceeb;" x="290.486198" xlink:href="#m2659a32830" y="309.930841"/>
     <use style="fill:#87ceeb;stroke:#87ceeb;" x="350.575595" xlink:href="#m2659a32830" y="311.697747"/>
    </g>
   </g>
   <g id="text_1">
    <g clip-path="url(#p96eaa4e58f)">
     <!-- Head -->
     <g transform="translate(258.361544 77.734582)scale(0.1 -0.1)">
      <defs>
       <path d="M 9.8125 72.90625 
L 19.671875 72.90625 
L 19.671875 43.015625 
L 55.515625 43.015625 
L 55.515625 72.90625 
L 65.375 72.90625 
L 65.375 0 
L 55.515625 0 
L 55.515625 34.71875 
L 19.671875 34.71875 
L 19.671875 0 
L 9.8125 0 
z
" id="DejaVuSans-72"/>
       <path d="M 56.203125 29.59375 
L 56.203125 25.203125 
L 14.890625 25.203125 
Q 15.484375 15.921875 20.484375 11.0625 
Q 25.484375 6.203125 34.421875 6.203125 
Q 39.59375 6.203125 44.453125 7.46875 
Q 49.3125 8.734375 54.109375 11.28125 
L 54.109375 2.78125 
Q 49.265625 0.734375 44.1875 -0.34375 
Q 39.109375 -1.421875 33.890625 -1.421875 
Q 20.796875 -1.421875 13.15625 6.1875 
Q 5.515625 13.8125 5.515625 26.8125 
Q 5.515625 40.234375 12.765625 48.109375 
Q 20.015625 56 32.328125 56 
Q 43.359375 56 49.78125 48.890625 
Q 56.203125 41.796875 56.203125 29.59375 
z
M 47.21875 32.234375 
Q 47.125 39.59375 43.09375 43.984375 
Q 39.0625 48.390625 32.421875 48.390625 
Q 24.90625 48.390625 20.390625 44.140625 
Q 15.875 39.890625 15.1875 32.171875 
z
" id="DejaVuSans-101"/>
       <path d="M 34.28125 27.484375 
Q 23.390625 27.484375 19.1875 25 
Q 14.984375 22.515625 14.984375 16.5 
Q 14.984375 11.71875 18.140625 8.90625 
Q 21.296875 6.109375 26.703125 6.109375 
Q 34.1875 6.109375 38.703125 11.40625 
Q 43.21875 16.703125 43.21875 25.484375 
L 43.21875 27.484375 
z
M 52.203125 31.203125 
L 52.203125 0 
L 43.21875 0 
L 43.21875 8.296875 
Q 40.140625 3.328125 35.546875 0.953125 
Q 30.953125 -1.421875 24.3125 -1.421875 
Q 15.921875 -1.421875 10.953125 3.296875 
Q 6 8.015625 6 15.921875 
Q 6 25.140625 12.171875 29.828125 
Q 18.359375 34.515625 30.609375 34.515625 
L 43.21875 34.515625 
L 43.21875 35.40625 
Q 43.21875 41.609375 39.140625 45 
Q 35.0625 48.390625 27.6875 48.390625 
Q 23 48.390625 18.546875 47.265625 
Q 14.109375 46.140625 10.015625 43.890625 
L 10.015625 52.203125 
Q 14.9375 54.109375 19.578125 55.046875 
Q 24.21875 56 28.609375 56 
Q 40.484375 56 46.34375 49.84375 
Q 52.203125 43.703125 52.203125 31.203125 
z
" id="DejaVuSans-97"/>
       <path d="M 45.40625 46.390625 
L 45.40625 75.984375 
L 54.390625 75.984375 
L 54.390625 0 
L 45.40625 0 
L 45.40625 8.203125 
Q 42.578125 3.328125 38.25 0.953125 
Q 33.9375 -1.421875 27.875 -1.421875 
Q 17.96875 -1.421875 11.734375 6.484375 
Q 5.515625 14.40625 5.515625 27.296875 
Q 5.515625 40.1875 11.734375 48.09375 
Q 17.96875 56 27.875 56 
Q 33.9375 56 38.25 53.625 
Q 42.578125 51.265625 45.40625 46.390625 
z
M 14.796875 27.296875 
Q 14.796875 17.390625 18.875 11.75 
Q 22.953125 6.109375 30.078125 6.109375 
Q 37.203125 6.109375 41.296875 11.75 
Q 45.40625 17.390625 45.40625 27.296875 
Q 45.40625 37.203125 41.296875 42.84375 
Q 37.203125 48.484375 30.078125 48.484375 
Q 22.953125 48.484375 18.875 42.84375 
Q 14.796875 37.203125 14.796875 27.296875 
z
" id="DejaVuSans-100"/>
      </defs>
      <use xlink:href="#DejaVuSans-72"/>
      <use x="75.195312" xlink:href="#DejaVuSans-101"/>
      <use x="136.71875" xlink:href="#DejaVuSans-97"/>
      <use x="197.998047" xlink:href="#DejaVuSans-100"/>
     </g>
    </g>
   </g>
   <g id="text_2">
    <g clip-path="url(#p96eaa4e58f)">
     <!-- c7 -->
     <g transform="translate(255.555369 109.152052)scale(0.1 -0.1)">
      <defs>
       <path d="M 48.78125 52.59375 
L 48.78125 44.1875 
Q 44.96875 46.296875 41.140625 47.34375 
Q 37.3125 48.390625 33.40625 48.390625 
Q 24.65625 48.390625 19.8125 42.84375 
Q 14.984375 37.3125 14.984375 27.296875 
Q 14.984375 17.28125 19.8125 11.734375 
Q 24.65625 6.203125 33.40625 6.203125 
Q 37.3125 6.203125 41.140625 7.25 
Q 44.96875 8.296875 48.78125 10.40625 
L 48.78125 2.09375 
Q 45.015625 0.34375 40.984375 -0.53125 
Q 36.96875 -1.421875 32.421875 -1.421875 
Q 20.0625 -1.421875 12.78125 6.34375 
Q 5.515625 14.109375 5.515625 27.296875 
Q 5.515625 40.671875 12.859375 48.328125 
Q 20.21875 56 33.015625 56 
Q 37.15625 56 41.109375 55.140625 
Q 45.0625 54.296875 48.78125 52.59375 
z
" id="DejaVuSans-99"/>
       <path d="M 8.203125 72.90625 
L 55.078125 72.90625 
L 55.078125 68.703125 
L 28.609375 0 
L 18.3125 0 
L 43.21875 64.59375 
L 8.203125 64.59375 
z
" id="DejaVuSans-55"/>
      </defs>
      <use xlink:href="#DejaVuSans-99"/>
      <use x="54.980469" xlink:href="#DejaVuSans-55"/>
     </g>
    </g>
   </g>
   <g id="text_3">
    <g clip-path="url(#p96eaa4e58f)">
     <!-- SpineShoulder -->
     <g transform="translate(223.978065 137.464369)scale(0.1 -0.1)">
      <defs>
       <path d="M 53.515625 70.515625 
L 53.515625 60.890625 
Q 47.90625 63.578125 42.921875 64.890625 
Q 37.9375 66.21875 33.296875 66.21875 
Q 25.25 66.21875 20.875 63.09375 
Q 16.5 59.96875 16.5 54.203125 
Q 16.5 49.359375 19.40625 46.890625 
Q 22.3125 44.4375 30.421875 42.921875 
L 36.375 41.703125 
Q 47.40625 39.59375 52.65625 34.296875 
Q 57.90625 29 57.90625 20.125 
Q 57.90625 9.515625 50.796875 4.046875 
Q 43.703125 -1.421875 29.984375 -1.421875 
Q 24.8125 -1.421875 18.96875 -0.25 
Q 13.140625 0.921875 6.890625 3.21875 
L 6.890625 13.375 
Q 12.890625 10.015625 18.65625 8.296875 
Q 24.421875 6.59375 29.984375 6.59375 
Q 38.421875 6.59375 43.015625 9.90625 
Q 47.609375 13.234375 47.609375 19.390625 
Q 47.609375 24.75 44.3125 27.78125 
Q 41.015625 30.8125 33.5 32.328125 
L 27.484375 33.5 
Q 16.453125 35.6875 11.515625 40.375 
Q 6.59375 45.0625 6.59375 53.421875 
Q 6.59375 63.09375 13.40625 68.65625 
Q 20.21875 74.21875 32.171875 74.21875 
Q 37.3125 74.21875 42.625 73.28125 
Q 47.953125 72.359375 53.515625 70.515625 
z
" id="DejaVuSans-83"/>
       <path d="M 18.109375 8.203125 
L 18.109375 -20.796875 
L 9.078125 -20.796875 
L 9.078125 54.6875 
L 18.109375 54.6875 
L 18.109375 46.390625 
Q 20.953125 51.265625 25.265625 53.625 
Q 29.59375 56 35.59375 56 
Q 45.5625 56 51.78125 48.09375 
Q 58.015625 40.1875 58.015625 27.296875 
Q 58.015625 14.40625 51.78125 6.484375 
Q 45.5625 -1.421875 35.59375 -1.421875 
Q 29.59375 -1.421875 25.265625 0.953125 
Q 20.953125 3.328125 18.109375 8.203125 
z
M 48.6875 27.296875 
Q 48.6875 37.203125 44.609375 42.84375 
Q 40.53125 48.484375 33.40625 48.484375 
Q 26.265625 48.484375 22.1875 42.84375 
Q 18.109375 37.203125 18.109375 27.296875 
Q 18.109375 17.390625 22.1875 11.75 
Q 26.265625 6.109375 33.40625 6.109375 
Q 40.53125 6.109375 44.609375 11.75 
Q 48.6875 17.390625 48.6875 27.296875 
z
" id="DejaVuSans-112"/>
       <path d="M 9.421875 54.6875 
L 18.40625 54.6875 
L 18.40625 0 
L 9.421875 0 
z
M 9.421875 75.984375 
L 18.40625 75.984375 
L 18.40625 64.59375 
L 9.421875 64.59375 
z
" id="DejaVuSans-105"/>
       <path d="M 54.890625 33.015625 
L 54.890625 0 
L 45.90625 0 
L 45.90625 32.71875 
Q 45.90625 40.484375 42.875 44.328125 
Q 39.84375 48.1875 33.796875 48.1875 
Q 26.515625 48.1875 22.3125 43.546875 
Q 18.109375 38.921875 18.109375 30.90625 
L 18.109375 0 
L 9.078125 0 
L 9.078125 54.6875 
L 18.109375 54.6875 
L 18.109375 46.1875 
Q 21.34375 51.125 25.703125 53.5625 
Q 30.078125 56 35.796875 56 
Q 45.21875 56 50.046875 50.171875 
Q 54.890625 44.34375 54.890625 33.015625 
z
" id="DejaVuSans-110"/>
       <path d="M 54.890625 33.015625 
L 54.890625 0 
L 45.90625 0 
L 45.90625 32.71875 
Q 45.90625 40.484375 42.875 44.328125 
Q 39.84375 48.1875 33.796875 48.1875 
Q 26.515625 48.1875 22.3125 43.546875 
Q 18.109375 38.921875 18.109375 30.90625 
L 18.109375 0 
L 9.078125 0 
L 9.078125 75.984375 
L 18.109375 75.984375 
L 18.109375 46.1875 
Q 21.34375 51.125 25.703125 53.5625 
Q 30.078125 56 35.796875 56 
Q 45.21875 56 50.046875 50.171875 
Q 54.890625 44.34375 54.890625 33.015625 
z
" id="DejaVuSans-104"/>
       <path d="M 30.609375 48.390625 
Q 23.390625 48.390625 19.1875 42.75 
Q 14.984375 37.109375 14.984375 27.296875 
Q 14.984375 17.484375 19.15625 11.84375 
Q 23.34375 6.203125 30.609375 6.203125 
Q 37.796875 6.203125 41.984375 11.859375 
Q 46.1875 17.53125 46.1875 27.296875 
Q 46.1875 37.015625 41.984375 42.703125 
Q 37.796875 48.390625 30.609375 48.390625 
z
M 30.609375 56 
Q 42.328125 56 49.015625 48.375 
Q 55.71875 40.765625 55.71875 27.296875 
Q 55.71875 13.875 49.015625 6.21875 
Q 42.328125 -1.421875 30.609375 -1.421875 
Q 18.84375 -1.421875 12.171875 6.21875 
Q 5.515625 13.875 5.515625 27.296875 
Q 5.515625 40.765625 12.171875 48.375 
Q 18.84375 56 30.609375 56 
z
" id="DejaVuSans-111"/>
       <path d="M 8.5 21.578125 
L 8.5 54.6875 
L 17.484375 54.6875 
L 17.484375 21.921875 
Q 17.484375 14.15625 20.5 10.265625 
Q 23.53125 6.390625 29.59375 6.390625 
Q 36.859375 6.390625 41.078125 11.03125 
Q 45.3125 15.671875 45.3125 23.6875 
L 45.3125 54.6875 
L 54.296875 54.6875 
L 54.296875 0 
L 45.3125 0 
L 45.3125 8.40625 
Q 42.046875 3.421875 37.71875 1 
Q 33.40625 -1.421875 27.6875 -1.421875 
Q 18.265625 -1.421875 13.375 4.4375 
Q 8.5 10.296875 8.5 21.578125 
z
M 31.109375 56 
z
" id="DejaVuSans-117"/>
       <path d="M 9.421875 75.984375 
L 18.40625 75.984375 
L 18.40625 0 
L 9.421875 0 
z
" id="DejaVuSans-108"/>
       <path d="M 41.109375 46.296875 
Q 39.59375 47.171875 37.8125 47.578125 
Q 36.03125 48 33.890625 48 
Q 26.265625 48 22.1875 43.046875 
Q 18.109375 38.09375 18.109375 28.8125 
L 18.109375 0 
L 9.078125 0 
L 9.078125 54.6875 
L 18.109375 54.6875 
L 18.109375 46.1875 
Q 20.953125 51.171875 25.484375 53.578125 
Q 30.03125 56 36.53125 56 
Q 37.453125 56 38.578125 55.875 
Q 39.703125 55.765625 41.0625 55.515625 
z
" id="DejaVuSans-114"/>
      </defs>
      <use xlink:href="#DejaVuSans-83"/>
      <use x="63.476562" xlink:href="#DejaVuSans-112"/>
      <use x="126.953125" xlink:href="#DejaVuSans-105"/>
      <use x="154.736328" xlink:href="#DejaVuSans-110"/>
      <use x="218.115234" xlink:href="#DejaVuSans-101"/>
      <use x="279.638672" xlink:href="#DejaVuSans-83"/>
      <use x="343.115234" xlink:href="#DejaVuSans-104"/>
      <use x="406.494141" xlink:href="#DejaVuSans-111"/>
      <use x="467.675781" xlink:href="#DejaVuSans-117"/>
      <use x="531.054688" xlink:href="#DejaVuSans-108"/>
      <use x="558.837891" xlink:href="#DejaVuSans-100"/>
      <use x="622.314453" xlink:href="#DejaVuSans-101"/>
      <use x="683.837891" xlink:href="#DejaVuSans-114"/>
     </g>
    </g>
   </g>
   <g id="text_4">
    <g clip-path="url(#p96eaa4e58f)">
     <!-- Spine -->
     <g transform="translate(242.997362 225.271234)scale(0.1 -0.1)">
      <use xlink:href="#DejaVuSans-83"/>
      <use x="63.476562" xlink:href="#DejaVuSans-112"/>
      <use x="126.953125" xlink:href="#DejaVuSans-105"/>
      <use x="154.736328" xlink:href="#DejaVuSans-110"/>
      <use x="218.115234" xlink:href="#DejaVuSans-101"/>
     </g>
    </g>
   </g>
   <g id="text_5">
    <g clip-path="url(#p96eaa4e58f)">
     <!-- Sacr -->
     <g transform="translate(241.922909 345.866386)scale(0.1 -0.1)">
      <use xlink:href="#DejaVuSans-83"/>
      <use x="63.476562" xlink:href="#DejaVuSans-97"/>
      <use x="124.755859" xlink:href="#DejaVuSans-99"/>
      <use x="179.736328" xlink:href="#DejaVuSans-114"/>
     </g>
    </g>
   </g>
   <g id="text_6">
    <g clip-path="url(#p96eaa4e58f)">
     <!-- LShoulder -->
     <g transform="translate(24.931127 140.642709)scale(0.1 -0.1)">
      <defs>
       <path d="M 9.8125 72.90625 
L 19.671875 72.90625 
L 19.671875 8.296875 
L 55.171875 8.296875 
L 55.171875 0 
L 9.8125 0 
z
" id="DejaVuSans-76"/>
      </defs>
      <use xlink:href="#DejaVuSans-76"/>
      <use x="55.712891" xlink:href="#DejaVuSans-83"/>
      <use x="119.189453" xlink:href="#DejaVuSans-104"/>
      <use x="182.568359" xlink:href="#DejaVuSans-111"/>
      <use x="243.75" xlink:href="#DejaVuSans-117"/>
      <use x="307.128906" xlink:href="#DejaVuSans-108"/>
      <use x="334.912109" xlink:href="#DejaVuSans-100"/>
      <use x="398.388672" xlink:href="#DejaVuSans-101"/>
      <use x="459.912109" xlink:href="#DejaVuSans-114"/>
     </g>
    </g>
   </g>
   <g id="text_7">
    <g clip-path="url(#p96eaa4e58f)">
     <!-- LElbow -->
     <g transform="translate(55.306975 247.96918)scale(0.1 -0.1)">
      <defs>
       <path d="M 9.8125 72.90625 
L 55.90625 72.90625 
L 55.90625 64.59375 
L 19.671875 64.59375 
L 19.671875 43.015625 
L 54.390625 43.015625 
L 54.390625 34.71875 
L 19.671875 34.71875 
L 19.671875 8.296875 
L 56.78125 8.296875 
L 56.78125 0 
L 9.8125 0 
z
" id="DejaVuSans-69"/>
       <path d="M 48.6875 27.296875 
Q 48.6875 37.203125 44.609375 42.84375 
Q 40.53125 48.484375 33.40625 48.484375 
Q 26.265625 48.484375 22.1875 42.84375 
Q 18.109375 37.203125 18.109375 27.296875 
Q 18.109375 17.390625 22.1875 11.75 
Q 26.265625 6.109375 33.40625 6.109375 
Q 40.53125 6.109375 44.609375 11.75 
Q 48.6875 17.390625 48.6875 27.296875 
z
M 18.109375 46.390625 
Q 20.953125 51.265625 25.265625 53.625 
Q 29.59375 56 35.59375 56 
Q 45.5625 56 51.78125 48.09375 
Q 58.015625 40.1875 58.015625 27.296875 
Q 58.015625 14.40625 51.78125 6.484375 
Q 45.5625 -1.421875 35.59375 -1.421875 
Q 29.59375 -1.421875 25.265625 0.953125 
Q 20.953125 3.328125 18.109375 8.203125 
L 18.109375 0 
L 9.078125 0 
L 9.078125 75.984375 
L 18.109375 75.984375 
z
" id="DejaVuSans-98"/>
       <path d="M 4.203125 54.6875 
L 13.1875 54.6875 
L 24.421875 12.015625 
L 35.59375 54.6875 
L 46.1875 54.6875 
L 57.421875 12.015625 
L 68.609375 54.6875 
L 77.59375 54.6875 
L 63.28125 0 
L 52.6875 0 
L 40.921875 44.828125 
L 29.109375 0 
L 18.5 0 
z
" id="DejaVuSans-119"/>
      </defs>
      <use xlink:href="#DejaVuSans-76"/>
      <use x="55.712891" xlink:href="#DejaVuSans-69"/>
      <use x="118.896484" xlink:href="#DejaVuSans-108"/>
      <use x="146.679688" xlink:href="#DejaVuSans-98"/>
      <use x="210.15625" xlink:href="#DejaVuSans-111"/>
      <use x="271.337891" xlink:href="#DejaVuSans-119"/>
     </g>
    </g>
   </g>
   <g id="text_8">
    <g clip-path="url(#p96eaa4e58f)">
     <!-- LWrist -->
     <g transform="translate(277.921304 299.186454)scale(0.1 -0.1)">
      <defs>
       <path d="M 3.328125 72.90625 
L 13.28125 72.90625 
L 28.609375 11.28125 
L 43.890625 72.90625 
L 54.984375 72.90625 
L 70.3125 11.28125 
L 85.59375 72.90625 
L 95.609375 72.90625 
L 77.296875 0 
L 64.890625 0 
L 49.515625 63.28125 
L 33.984375 0 
L 21.578125 0 
z
" id="DejaVuSans-87"/>
       <path d="M 44.28125 53.078125 
L 44.28125 44.578125 
Q 40.484375 46.53125 36.375 47.5 
Q 32.28125 48.484375 27.875 48.484375 
Q 21.1875 48.484375 17.84375 46.4375 
Q 14.5 44.390625 14.5 40.28125 
Q 14.5 37.15625 16.890625 35.375 
Q 19.28125 33.59375 26.515625 31.984375 
L 29.59375 31.296875 
Q 39.15625 29.25 43.1875 25.515625 
Q 47.21875 21.78125 47.21875 15.09375 
Q 47.21875 7.46875 41.1875 3.015625 
Q 35.15625 -1.421875 24.609375 -1.421875 
Q 20.21875 -1.421875 15.453125 -0.5625 
Q 10.6875 0.296875 5.421875 2 
L 5.421875 11.28125 
Q 10.40625 8.6875 15.234375 7.390625 
Q 20.0625 6.109375 24.8125 6.109375 
Q 31.15625 6.109375 34.5625 8.28125 
Q 37.984375 10.453125 37.984375 14.40625 
Q 37.984375 18.0625 35.515625 20.015625 
Q 33.0625 21.96875 24.703125 23.78125 
L 21.578125 24.515625 
Q 13.234375 26.265625 9.515625 29.90625 
Q 5.8125 33.546875 5.8125 39.890625 
Q 5.8125 47.609375 11.28125 51.796875 
Q 16.75 56 26.8125 56 
Q 31.78125 56 36.171875 55.265625 
Q 40.578125 54.546875 44.28125 53.078125 
z
" id="DejaVuSans-115"/>
       <path d="M 18.3125 70.21875 
L 18.3125 54.6875 
L 36.8125 54.6875 
L 36.8125 47.703125 
L 18.3125 47.703125 
L 18.3125 18.015625 
Q 18.3125 11.328125 20.140625 9.421875 
Q 21.96875 7.515625 27.59375 7.515625 
L 36.8125 7.515625 
L 36.8125 0 
L 27.59375 0 
Q 17.1875 0 13.234375 3.875 
Q 9.28125 7.765625 9.28125 18.015625 
L 9.28125 47.703125 
L 2.6875 47.703125 
L 2.6875 54.6875 
L 9.28125 54.6875 
L 9.28125 70.21875 
z
" id="DejaVuSans-116"/>
      </defs>
      <use xlink:href="#DejaVuSans-76"/>
      <use x="46.587891" xlink:href="#DejaVuSans-87"/>
      <use x="140.964844" xlink:href="#DejaVuSans-114"/>
      <use x="182.078125" xlink:href="#DejaVuSans-105"/>
      <use x="209.861328" xlink:href="#DejaVuSans-115"/>
      <use x="261.960938" xlink:href="#DejaVuSans-116"/>
     </g>
    </g>
   </g>
   <g id="text_9">
    <g clip-path="url(#p96eaa4e58f)">
     <!-- LHand -->
     <g transform="translate(311.800514 302.951323)scale(0.1 -0.1)">
      <use xlink:href="#DejaVuSans-76"/>
      <use x="55.712891" xlink:href="#DejaVuSans-72"/>
      <use x="130.908203" xlink:href="#DejaVuSans-97"/>
      <use x="192.1875" xlink:href="#DejaVuSans-110"/>
      <use x="255.566406" xlink:href="#DejaVuSans-100"/>
     </g>
    </g>
   </g>
   <g id="text_10">
    <g clip-path="url(#p96eaa4e58f)">
     <!-- RShoulder -->
     <g transform="translate(423.795069 143.172835)scale(0.1 -0.1)">
      <defs>
       <path d="M 44.390625 34.1875 
Q 47.5625 33.109375 50.5625 29.59375 
Q 53.5625 26.078125 56.59375 19.921875 
L 66.609375 0 
L 56 0 
L 46.6875 18.703125 
Q 43.0625 26.03125 39.671875 28.421875 
Q 36.28125 30.8125 30.421875 30.8125 
L 19.671875 30.8125 
L 19.671875 0 
L 9.8125 0 
L 9.8125 72.90625 
L 32.078125 72.90625 
Q 44.578125 72.90625 50.734375 67.671875 
Q 56.890625 62.453125 56.890625 51.90625 
Q 56.890625 45.015625 53.6875 40.46875 
Q 50.484375 35.9375 44.390625 34.1875 
z
M 19.671875 64.796875 
L 19.671875 38.921875 
L 32.078125 38.921875 
Q 39.203125 38.921875 42.84375 42.21875 
Q 46.484375 45.515625 46.484375 51.90625 
Q 46.484375 58.296875 42.84375 61.546875 
Q 39.203125 64.796875 32.078125 64.796875 
z
" id="DejaVuSans-82"/>
      </defs>
      <use xlink:href="#DejaVuSans-82"/>
      <use x="69.482422" xlink:href="#DejaVuSans-83"/>
      <use x="132.958984" xlink:href="#DejaVuSans-104"/>
      <use x="196.337891" xlink:href="#DejaVuSans-111"/>
      <use x="257.519531" xlink:href="#DejaVuSans-117"/>
      <use x="320.898438" xlink:href="#DejaVuSans-108"/>
      <use x="348.681641" xlink:href="#DejaVuSans-100"/>
      <use x="412.158203" xlink:href="#DejaVuSans-101"/>
      <use x="473.681641" xlink:href="#DejaVuSans-114"/>
     </g>
    </g>
   </g>
   <g id="text_11">
    <g clip-path="url(#p96eaa4e58f)">
     <!-- RElbow -->
     <g transform="translate(507.671216 246.61525)scale(0.1 -0.1)">
      <use xlink:href="#DejaVuSans-82"/>
      <use x="69.482422" xlink:href="#DejaVuSans-69"/>
      <use x="132.666016" xlink:href="#DejaVuSans-108"/>
      <use x="160.449219" xlink:href="#DejaVuSans-98"/>
      <use x="223.925781" xlink:href="#DejaVuSans-111"/>
      <use x="285.107422" xlink:href="#DejaVuSans-119"/>
     </g>
    </g>
   </g>
   <g id="text_12">
    <g clip-path="url(#p96eaa4e58f)">
     <!-- RWrist -->
     <g transform="translate(334.717048 296.78388)scale(0.1 -0.1)">
      <use xlink:href="#DejaVuSans-82"/>
      <use x="65.482422" xlink:href="#DejaVuSans-87"/>
      <use x="159.859375" xlink:href="#DejaVuSans-114"/>
      <use x="200.972656" xlink:href="#DejaVuSans-105"/>
      <use x="228.755859" xlink:href="#DejaVuSans-115"/>
      <use x="280.855469" xlink:href="#DejaVuSans-116"/>
     </g>
    </g>
   </g>
   <g id="text_13">
    <g clip-path="url(#p96eaa4e58f)">
     <!-- RHand -->
     <g transform="translate(318.98609 300.952837)scale(0.1 -0.1)">
      <use xlink:href="#DejaVuSans-82"/>
      <use x="69.482422" xlink:href="#DejaVuSans-72"/>
      <use x="144.677734" xlink:href="#DejaVuSans-97"/>
      <use x="205.957031" xlink:href="#DejaVuSans-110"/>
      <use x="269.335938" xlink:href="#DejaVuSans-100"/>
     </g>
    </g>
   </g>
   <g id="text_14">
    <g clip-path="url(#p96eaa4e58f)">
     <!-- LHip -->
     <g transform="translate(152.119756 348.647694)scale(0.1 -0.1)">
      <use xlink:href="#DejaVuSans-76"/>
      <use x="55.712891" xlink:href="#DejaVuSans-72"/>
      <use x="130.908203" xlink:href="#DejaVuSans-105"/>
      <use x="158.691406" xlink:href="#DejaVuSans-112"/>
     </g>
    </g>
   </g>
   <g id="text_15">
    <g clip-path="url(#p96eaa4e58f)">
     <!-- LKnee -->
     <g transform="translate(100.716188 542.200852)scale(0.1 -0.1)">
      <defs>
       <path d="M 9.8125 72.90625 
L 19.671875 72.90625 
L 19.671875 42.09375 
L 52.390625 72.90625 
L 65.09375 72.90625 
L 28.90625 38.921875 
L 67.671875 0 
L 54.6875 0 
L 19.671875 35.109375 
L 19.671875 0 
L 9.8125 0 
z
" id="DejaVuSans-75"/>
      </defs>
      <use xlink:href="#DejaVuSans-76"/>
      <use x="55.712891" xlink:href="#DejaVuSans-75"/>
      <use x="121.289062" xlink:href="#DejaVuSans-110"/>
      <use x="184.667969" xlink:href="#DejaVuSans-101"/>
      <use x="246.191406" xlink:href="#DejaVuSans-101"/>
     </g>
    </g>
   </g>
   <g id="text_16">
    <g clip-path="url(#p96eaa4e58f)">
     <!-- LAnkle -->
     <g transform="translate(103.958087 733.235803)scale(0.1 -0.1)">
      <defs>
       <path d="M 34.1875 63.1875 
L 20.796875 26.90625 
L 47.609375 26.90625 
z
M 28.609375 72.90625 
L 39.796875 72.90625 
L 67.578125 0 
L 57.328125 0 
L 50.6875 18.703125 
L 17.828125 18.703125 
L 11.1875 0 
L 0.78125 0 
z
" id="DejaVuSans-65"/>
       <path d="M 9.078125 75.984375 
L 18.109375 75.984375 
L 18.109375 31.109375 
L 44.921875 54.6875 
L 56.390625 54.6875 
L 27.390625 29.109375 
L 57.625 0 
L 45.90625 0 
L 18.109375 26.703125 
L 18.109375 0 
L 9.078125 0 
z
" id="DejaVuSans-107"/>
      </defs>
      <use xlink:href="#DejaVuSans-76"/>
      <use x="57.962891" xlink:href="#DejaVuSans-65"/>
      <use x="126.371094" xlink:href="#DejaVuSans-110"/>
      <use x="189.75" xlink:href="#DejaVuSans-107"/>
      <use x="247.660156" xlink:href="#DejaVuSans-108"/>
      <use x="275.443359" xlink:href="#DejaVuSans-101"/>
     </g>
    </g>
   </g>
   <g id="text_17">
    <g clip-path="url(#p96eaa4e58f)">
     <!-- LFoot -->
     <g transform="translate(81.162226 780.82726)scale(0.1 -0.1)">
      <defs>
       <path d="M 9.8125 72.90625 
L 51.703125 72.90625 
L 51.703125 64.59375 
L 19.671875 64.59375 
L 19.671875 43.109375 
L 48.578125 43.109375 
L 48.578125 34.8125 
L 19.671875 34.8125 
L 19.671875 0 
L 9.8125 0 
z
" id="DejaVuSans-70"/>
      </defs>
      <use xlink:href="#DejaVuSans-76"/>
      <use x="55.712891" xlink:href="#DejaVuSans-70"/>
      <use x="109.607422" xlink:href="#DejaVuSans-111"/>
      <use x="170.789062" xlink:href="#DejaVuSans-111"/>
      <use x="231.970703" xlink:href="#DejaVuSans-116"/>
     </g>
    </g>
   </g>
   <g id="text_18">
    <g clip-path="url(#p96eaa4e58f)">
     <!-- RHip -->
     <g transform="translate(332.219751 350.213027)scale(0.1 -0.1)">
      <use xlink:href="#DejaVuSans-82"/>
      <use x="69.482422" xlink:href="#DejaVuSans-72"/>
      <use x="144.677734" xlink:href="#DejaVuSans-105"/>
      <use x="172.460938" xlink:href="#DejaVuSans-112"/>
     </g>
    </g>
   </g>
   <g id="text_19">
    <g clip-path="url(#p96eaa4e58f)">
     <!-- RKnee -->
     <g transform="translate(371.407873 561.297029)scale(0.1 -0.1)">
      <use xlink:href="#DejaVuSans-82"/>
      <use x="69.482422" xlink:href="#DejaVuSans-75"/>
      <use x="135.058594" xlink:href="#DejaVuSans-110"/>
      <use x="198.4375" xlink:href="#DejaVuSans-101"/>
      <use x="259.960938" xlink:href="#DejaVuSans-101"/>
     </g>
    </g>
   </g>
   <g id="text_20">
    <g clip-path="url(#p96eaa4e58f)">
     <!-- RAnkle -->
     <g transform="translate(346.938114 748.494971)scale(0.1 -0.1)">
      <use xlink:href="#DejaVuSans-82"/>
      <use x="65.482422" xlink:href="#DejaVuSans-65"/>
      <use x="133.890625" xlink:href="#DejaVuSans-110"/>
      <use x="197.269531" xlink:href="#DejaVuSans-107"/>
      <use x="255.179688" xlink:href="#DejaVuSans-108"/>
      <use x="282.962891" xlink:href="#DejaVuSans-101"/>
     </g>
    </g>
   </g>
   <g id="text_21">
    <g clip-path="url(#p96eaa4e58f)">
     <!-- RFoot -->
     <g transform="translate(391.960993 791.784168)scale(0.1 -0.1)">
      <use xlink:href="#DejaVuSans-82"/>
      <use x="69.482422" xlink:href="#DejaVuSans-70"/>
      <use x="123.376953" xlink:href="#DejaVuSans-111"/>
      <use x="184.558594" xlink:href="#DejaVuSans-111"/>
      <use x="245.740234" xlink:href="#DejaVuSans-116"/>
     </g>
    </g>
   </g>
   <g id="text_22">
    <g clip-path="url(#p96eaa4e58f)">
     <!-- LHandTip -->
     <g transform="translate(352.053081 307.738697)scale(0.1 -0.1)">
      <defs>
       <path d="M -0.296875 72.90625 
L 61.375 72.90625 
L 61.375 64.59375 
L 35.5 64.59375 
L 35.5 0 
L 25.59375 0 
L 25.59375 64.59375 
L -0.296875 64.59375 
z
" id="DejaVuSans-84"/>
      </defs>
      <use xlink:href="#DejaVuSans-76"/>
      <use x="55.712891" xlink:href="#DejaVuSans-72"/>
      <use x="130.908203" xlink:href="#DejaVuSans-97"/>
      <use x="192.1875" xlink:href="#DejaVuSans-110"/>
      <use x="255.566406" xlink:href="#DejaVuSans-100"/>
      <use x="319.042969" xlink:href="#DejaVuSans-84"/>
      <use x="377.001953" xlink:href="#DejaVuSans-105"/>
      <use x="404.785156" xlink:href="#DejaVuSans-112"/>
     </g>
    </g>
   </g>
   <g id="text_23">
    <g clip-path="url(#p96eaa4e58f)">
     <!-- LThumb -->
     <g transform="translate(299.785004 313.148671)scale(0.1 -0.1)">
      <defs>
       <path d="M 52 44.1875 
Q 55.375 50.25 60.0625 53.125 
Q 64.75 56 71.09375 56 
Q 79.640625 56 84.28125 50.015625 
Q 88.921875 44.046875 88.921875 33.015625 
L 88.921875 0 
L 79.890625 0 
L 79.890625 32.71875 
Q 79.890625 40.578125 77.09375 44.375 
Q 74.3125 48.1875 68.609375 48.1875 
Q 61.625 48.1875 57.5625 43.546875 
Q 53.515625 38.921875 53.515625 30.90625 
L 53.515625 0 
L 44.484375 0 
L 44.484375 32.71875 
Q 44.484375 40.625 41.703125 44.40625 
Q 38.921875 48.1875 33.109375 48.1875 
Q 26.21875 48.1875 22.15625 43.53125 
Q 18.109375 38.875 18.109375 30.90625 
L 18.109375 0 
L 9.078125 0 
L 9.078125 54.6875 
L 18.109375 54.6875 
L 18.109375 46.1875 
Q 21.1875 51.21875 25.484375 53.609375 
Q 29.78125 56 35.6875 56 
Q 41.65625 56 45.828125 52.96875 
Q 50 49.953125 52 44.1875 
z
" id="DejaVuSans-109"/>
      </defs>
      <use xlink:href="#DejaVuSans-76"/>
      <use x="41.962891" xlink:href="#DejaVuSans-84"/>
      <use x="103.046875" xlink:href="#DejaVuSans-104"/>
      <use x="166.425781" xlink:href="#DejaVuSans-117"/>
      <use x="229.804688" xlink:href="#DejaVuSans-109"/>
      <use x="327.216797" xlink:href="#DejaVuSans-98"/>
     </g>
    </g>
   </g>
   <g id="text_24">
    <g clip-path="url(#p96eaa4e58f)">
     <!-- RHandTip -->
     <g transform="translate(266.383855 312.690216)scale(0.1 -0.1)">
      <use xlink:href="#DejaVuSans-82"/>
      <use x="69.482422" xlink:href="#DejaVuSans-72"/>
      <use x="144.677734" xlink:href="#DejaVuSans-97"/>
      <use x="205.957031" xlink:href="#DejaVuSans-110"/>
      <use x="269.335938" xlink:href="#DejaVuSans-100"/>
      <use x="332.8125" xlink:href="#DejaVuSans-84"/>
      <use x="390.771484" xlink:href="#DejaVuSans-105"/>
      <use x="418.554688" xlink:href="#DejaVuSans-112"/>
     </g>
    </g>
   </g>
   <g id="text_25">
    <g clip-path="url(#p96eaa4e58f)">
     <!-- RThumb -->
     <g transform="translate(330.027939 314.457122)scale(0.1 -0.1)">
      <use xlink:href="#DejaVuSans-82"/>
      <use x="62.232422" xlink:href="#DejaVuSans-84"/>
      <use x="123.316406" xlink:href="#DejaVuSans-104"/>
      <use x="186.695312" xlink:href="#DejaVuSans-117"/>
      <use x="250.074219" xlink:href="#DejaVuSans-109"/>
      <use x="347.486328" xlink:href="#DejaVuSans-98"/>
     </g>
    </g>
   </g>
   <g id="text_26">
    <!-- Node Graph Visualization - Frame 2 -->
    <g transform="translate(181.829063 -6)scale(0.12 -0.12)">
     <defs>
      <path d="M 9.8125 72.90625 
L 23.09375 72.90625 
L 55.421875 11.921875 
L 55.421875 72.90625 
L 64.984375 72.90625 
L 64.984375 0 
L 51.703125 0 
L 19.390625 60.984375 
L 19.390625 0 
L 9.8125 0 
z
" id="DejaVuSans-78"/>
      <path id="DejaVuSans-32"/>
      <path d="M 59.515625 10.40625 
L 59.515625 29.984375 
L 43.40625 29.984375 
L 43.40625 38.09375 
L 69.28125 38.09375 
L 69.28125 6.78125 
Q 63.578125 2.734375 56.6875 0.65625 
Q 49.8125 -1.421875 42 -1.421875 
Q 24.90625 -1.421875 15.25 8.5625 
Q 5.609375 18.5625 5.609375 36.375 
Q 5.609375 54.25 15.25 64.234375 
Q 24.90625 74.21875 42 74.21875 
Q 49.125 74.21875 55.546875 72.453125 
Q 61.96875 70.703125 67.390625 67.28125 
L 67.390625 56.78125 
Q 61.921875 61.421875 55.765625 63.765625 
Q 49.609375 66.109375 42.828125 66.109375 
Q 29.4375 66.109375 22.71875 58.640625 
Q 16.015625 51.171875 16.015625 36.375 
Q 16.015625 21.625 22.71875 14.15625 
Q 29.4375 6.6875 42.828125 6.6875 
Q 48.046875 6.6875 52.140625 7.59375 
Q 56.25 8.5 59.515625 10.40625 
z
" id="DejaVuSans-71"/>
      <path d="M 28.609375 0 
L 0.78125 72.90625 
L 11.078125 72.90625 
L 34.1875 11.53125 
L 57.328125 72.90625 
L 67.578125 72.90625 
L 39.796875 0 
z
" id="DejaVuSans-86"/>
      <path d="M 5.515625 54.6875 
L 48.1875 54.6875 
L 48.1875 46.484375 
L 14.40625 7.171875 
L 48.1875 7.171875 
L 48.1875 0 
L 4.296875 0 
L 4.296875 8.203125 
L 38.09375 47.515625 
L 5.515625 47.515625 
z
" id="DejaVuSans-122"/>
      <path d="M 4.890625 31.390625 
L 31.203125 31.390625 
L 31.203125 23.390625 
L 4.890625 23.390625 
z
" id="DejaVuSans-45"/>
      <path d="M 19.1875 8.296875 
L 53.609375 8.296875 
L 53.609375 0 
L 7.328125 0 
L 7.328125 8.296875 
Q 12.9375 14.109375 22.625 23.890625 
Q 32.328125 33.6875 34.8125 36.53125 
Q 39.546875 41.84375 41.421875 45.53125 
Q 43.3125 49.21875 43.3125 52.78125 
Q 43.3125 58.59375 39.234375 62.25 
Q 35.15625 65.921875 28.609375 65.921875 
Q 23.96875 65.921875 18.8125 64.3125 
Q 13.671875 62.703125 7.8125 59.421875 
L 7.8125 69.390625 
Q 13.765625 71.78125 18.9375 73 
Q 24.125 74.21875 28.421875 74.21875 
Q 39.75 74.21875 46.484375 68.546875 
Q 53.21875 62.890625 53.21875 53.421875 
Q 53.21875 48.921875 51.53125 44.890625 
Q 49.859375 40.875 45.40625 35.40625 
Q 44.1875 33.984375 37.640625 27.21875 
Q 31.109375 20.453125 19.1875 8.296875 
z
" id="DejaVuSans-50"/>
     </defs>
     <use xlink:href="#DejaVuSans-78"/>
     <use x="74.804688" xlink:href="#DejaVuSans-111"/>
     <use x="135.986328" xlink:href="#DejaVuSans-100"/>
     <use x="199.462891" xlink:href="#DejaVuSans-101"/>
     <use x="260.986328" xlink:href="#DejaVuSans-32"/>
     <use x="292.773438" xlink:href="#DejaVuSans-71"/>
     <use x="370.263672" xlink:href="#DejaVuSans-114"/>
     <use x="411.376953" xlink:href="#DejaVuSans-97"/>
     <use x="472.65625" xlink:href="#DejaVuSans-112"/>
     <use x="536.132812" xlink:href="#DejaVuSans-104"/>
     <use x="599.511719" xlink:href="#DejaVuSans-32"/>
     <use x="631.298828" xlink:href="#DejaVuSans-86"/>
     <use x="697.457031" xlink:href="#DejaVuSans-105"/>
     <use x="725.240234" xlink:href="#DejaVuSans-115"/>
     <use x="777.339844" xlink:href="#DejaVuSans-117"/>
     <use x="840.71875" xlink:href="#DejaVuSans-97"/>
     <use x="901.998047" xlink:href="#DejaVuSans-108"/>
     <use x="929.78125" xlink:href="#DejaVuSans-105"/>
     <use x="957.564453" xlink:href="#DejaVuSans-122"/>
     <use x="1010.054688" xlink:href="#DejaVuSans-97"/>
     <use x="1071.333984" xlink:href="#DejaVuSans-116"/>
     <use x="1110.542969" xlink:href="#DejaVuSans-105"/>
     <use x="1138.326172" xlink:href="#DejaVuSans-111"/>
     <use x="1199.507812" xlink:href="#DejaVuSans-110"/>
     <use x="1262.886719" xlink:href="#DejaVuSans-32"/>
     <use x="1294.673828" xlink:href="#DejaVuSans-45"/>
     <use x="1330.757812" xlink:href="#DejaVuSans-32"/>
     <use x="1362.544922" xlink:href="#DejaVuSans-70"/>
     <use x="1412.814453" xlink:href="#DejaVuSans-114"/>
     <use x="1453.927734" xlink:href="#DejaVuSans-97"/>
     <use x="1515.207031" xlink:href="#DejaVuSans-109"/>
     <use x="1612.619141" xlink:href="#DejaVuSans-101"/>
     <use x="1674.142578" xlink:href="#DejaVuSans-32"/>
     <use x="1705.929688" xlink:href="#DejaVuSans-50"/>
    </g>
   </g>
  </g>
 </g>
 <defs>
  <clipPath id="p96eaa4e58f">
   <rect height="864" width="576" x="0" y="0"/>
  </clipPath>
 </defs>
</svg>
