<?xml version="1.0" encoding="utf-8" standalone="no"?>
<!DOCTYPE svg PUBLIC "-//W3C//DTD SVG 1.1//EN"
  "http://www.w3.org/Graphics/SVG/1.1/DTD/svg11.dtd">
<!-- Created with matplotlib (https://matplotlib.org/) -->
<svg height="864pt" version="1.1" viewBox="0 0 576 864" width="576pt" xmlns="http://www.w3.org/2000/svg" xmlns:xlink="http://www.w3.org/1999/xlink">
 <metadata>
  <rdf:RDF xmlns:cc="http://creativecommons.org/ns#" xmlns:dc="http://purl.org/dc/elements/1.1/" xmlns:rdf="http://www.w3.org/1999/02/22-rdf-syntax-ns#">
   <cc:Work>
    <dc:type rdf:resource="http://purl.org/dc/dcmitype/StillImage"/>
    <dc:date>2024-02-04T22:28:25.529000</dc:date>
    <dc:format>image/svg+xml</dc:format>
    <dc:creator>
     <cc:Agent>
      <dc:title>Matplotlib v3.3.2, https://matplotlib.org/</dc:title>
     </cc:Agent>
    </dc:creator>
   </cc:Work>
  </rdf:RDF>
 </metadata>
 <defs>
  <style type="text/css">*{stroke-linecap:butt;stroke-linejoin:round;}</style>
 </defs>
 <g id="figure_1">
  <g id="patch_1">
   <path d="M 0 864 
L 576 864 
L 576 0 
L 0 0 
z
" style="fill:#ffffff;"/>
  </g>
  <g id="axes_1">
   <g id="patch_2">
    <path clip-path="url(#pf0eed556cd)" d="M 302.294715 88.199528 
Q 302.089788 96.328576 301.913036 103.339945 
" style="fill:none;stroke:#000000;stroke-linecap:round;"/>
    <path clip-path="url(#pf0eed556cd)" d="M 304.013206 99.391617 
L 301.913036 103.339945 
L 300.014476 99.290812 
L 304.013206 99.391617 
z
" style="stroke:#000000;stroke-linecap:round;"/>
   </g>
   <g id="patch_3">
    <path clip-path="url(#pf0eed556cd)" d="M 301.401363 130.913144 
Q 301.370603 133.625044 301.352524 135.218983 
" style="fill:none;stroke:#000000;stroke-linecap:round;"/>
    <path clip-path="url(#pf0eed556cd)" d="M 303.397763 131.241924 
L 301.352524 135.218983 
L 299.39802 131.196556 
L 303.397763 131.241924 
z
" style="stroke:#000000;stroke-linecap:round;"/>
   </g>
   <g id="patch_4">
    <path clip-path="url(#pf0eed556cd)" d="M 301.884781 104.460777 
Q 302.089708 96.331729 302.26646 89.32036 
" style="fill:none;stroke:#000000;stroke-linecap:round;"/>
    <path clip-path="url(#pf0eed556cd)" d="M 300.16629 93.268687 
L 302.26646 89.32036 
L 304.165019 93.369492 
L 300.16629 93.268687 
z
" style="stroke:#000000;stroke-linecap:round;"/>
   </g>
   <g id="patch_5">
    <path clip-path="url(#pf0eed556cd)" d="M 301.064589 162.797384 
Q 300.72369 198.823925 300.39337 233.732482 
" style="fill:none;stroke:#000000;stroke-linecap:round;"/>
    <path clip-path="url(#pf0eed556cd)" d="M 302.431129 229.751585 
L 300.39337 233.732482 
L 298.431308 229.713737 
L 302.431129 229.751585 
z
" style="stroke:#000000;stroke-linecap:round;"/>
   </g>
   <g id="patch_6">
    <path clip-path="url(#pf0eed556cd)" d="M 287.96496 149.33584 
Q 208.375038 147.948974 129.902981 146.581588 
" style="fill:none;stroke:#000000;stroke-linecap:round;"/>
    <path clip-path="url(#pf0eed556cd)" d="M 133.867529 148.650974 
L 129.902981 146.581588 
L 133.937219 144.651581 
L 133.867529 148.650974 
z
" style="stroke:#000000;stroke-linecap:round;"/>
   </g>
   <g id="patch_7">
    <path clip-path="url(#pf0eed556cd)" d="M 314.41147 149.943338 
Q 398.133679 152.330916 480.738309 154.686623 
" style="fill:none;stroke:#000000;stroke-linecap:round;"/>
    <path clip-path="url(#pf0eed556cd)" d="M 476.796947 152.573411 
L 480.738309 154.686623 
L 476.682922 156.571785 
L 476.796947 152.573411 
z
" style="stroke:#000000;stroke-linecap:round;"/>
   </g>
   <g id="patch_8">
    <path clip-path="url(#pf0eed556cd)" d="M 301.339828 136.338238 
Q 301.370589 133.626338 301.388668 132.032399 
" style="fill:none;stroke:#000000;stroke-linecap:round;"/>
    <path clip-path="url(#pf0eed556cd)" d="M 299.343429 136.009458 
L 301.388668 132.032399 
L 303.343172 136.054826 
L 299.343429 136.009458 
z
" style="stroke:#000000;stroke-linecap:round;"/>
   </g>
   <g id="patch_9">
    <path clip-path="url(#pf0eed556cd)" d="M 300.307203 261.305135 
Q 300.507683 314.772764 300.703972 367.122368 
" style="fill:none;stroke:#000000;stroke-linecap:round;"/>
    <path clip-path="url(#pf0eed556cd)" d="M 302.688959 363.114897 
L 300.703972 367.122368 
L 298.688987 363.129895 
L 302.688959 363.114897 
z
" style="stroke:#000000;stroke-linecap:round;"/>
   </g>
   <g id="patch_10">
    <path clip-path="url(#pf0eed556cd)" d="M 300.382811 234.848401 
Q 300.723709 198.82186 301.054029 163.913303 
" style="fill:none;stroke:#000000;stroke-linecap:round;"/>
    <path clip-path="url(#pf0eed556cd)" d="M 299.016271 167.894199 
L 301.054029 163.913303 
L 303.016092 167.932047 
L 299.016271 167.894199 
z
" style="stroke:#000000;stroke-linecap:round;"/>
   </g>
   <g id="patch_11">
    <path clip-path="url(#pf0eed556cd)" d="M 287.533605 381.131388 
Q 258.148044 380.38452 229.880156 379.666059 
" style="fill:none;stroke:#000000;stroke-linecap:round;"/>
    <path clip-path="url(#pf0eed556cd)" d="M 233.828049 381.767045 
L 229.880156 379.666059 
L 233.929681 377.768337 
L 233.828049 381.767045 
z
" style="stroke:#000000;stroke-linecap:round;"/>
   </g>
   <g id="patch_12">
    <path clip-path="url(#pf0eed556cd)" d="M 313.983866 381.64799 
Q 343.188923 382.046549 371.27605 382.429851 
" style="fill:none;stroke:#000000;stroke-linecap:round;"/>
    <path clip-path="url(#pf0eed556cd)" d="M 367.303713 380.375455 
L 371.27605 382.429851 
L 367.249131 384.375082 
L 367.303713 380.375455 
z
" style="stroke:#000000;stroke-linecap:round;"/>
   </g>
   <g id="patch_13">
    <path clip-path="url(#pf0eed556cd)" d="M 300.708169 368.24186 
Q 300.507689 314.77423 300.311401 262.424627 
" style="fill:none;stroke:#000000;stroke-linecap:round;"/>
    <path clip-path="url(#pf0eed556cd)" d="M 298.326413 266.432098 
L 300.311401 262.424627 
L 302.326385 266.4171 
L 298.326413 266.432098 
z
" style="stroke:#000000;stroke-linecap:round;"/>
   </g>
   <g id="patch_14">
    <path clip-path="url(#pf0eed556cd)" d="M 107.937895 157.144901 
Q 82.771194 192.844863 58.248675 227.631025 
" style="fill:none;stroke:#000000;stroke-linecap:round;"/>
    <path clip-path="url(#pf0eed556cd)" d="M 62.188027 225.514068 
L 58.248675 227.631025 
L 58.91872 223.20937 
L 62.188027 225.514068 
z
" style="stroke:#000000;stroke-linecap:round;"/>
   </g>
   <g id="patch_15">
    <path clip-path="url(#pf0eed556cd)" d="M 128.785513 146.562116 
Q 208.375435 147.948981 286.847492 149.316368 
" style="fill:none;stroke:#000000;stroke-linecap:round;"/>
    <path clip-path="url(#pf0eed556cd)" d="M 282.882944 147.246981 
L 286.847492 149.316368 
L 282.813254 151.246374 
L 282.882944 147.246981 
z
" style="stroke:#000000;stroke-linecap:round;"/>
   </g>
   <g id="patch_16">
    <path clip-path="url(#pf0eed556cd)" d="M 62.655444 243.163084 
Q 149.826228 269.355236 235.926267 295.225662 
" style="fill:none;stroke:#000000;stroke-linecap:round;"/>
    <path clip-path="url(#pf0eed556cd)" d="M 232.670978 292.159216 
L 235.926267 295.225662 
L 231.519937 295.990026 
L 232.670978 292.159216 
z
" style="stroke:#000000;stroke-linecap:round;"/>
   </g>
   <g id="patch_17">
    <path clip-path="url(#pf0eed556cd)" d="M 57.606262 228.542313 
Q 82.772964 192.842352 107.295482 158.05619 
" style="fill:none;stroke:#000000;stroke-linecap:round;"/>
    <path clip-path="url(#pf0eed556cd)" d="M 103.35613 160.173146 
L 107.295482 158.05619 
L 106.625437 162.477845 
L 103.35613 160.173146 
z
" style="stroke:#000000;stroke-linecap:round;"/>
   </g>
   <g id="patch_18">
    <path clip-path="url(#pf0eed556cd)" d="M 262.534295 302.418258 
Q 282.01773 307.057907 300.413543 311.438557 
" style="fill:none;stroke:#000000;stroke-linecap:round;"/>
    <path clip-path="url(#pf0eed556cd)" d="M 296.985662 308.56634 
L 300.413543 311.438557 
L 296.059041 312.457532 
L 296.985662 308.56634 
z
" style="stroke:#000000;stroke-linecap:round;"/>
   </g>
   <g id="patch_19">
    <path clip-path="url(#pf0eed556cd)" d="M 236.991817 295.545827 
Q 149.821034 269.353675 63.720994 243.483249 
" style="fill:none;stroke:#000000;stroke-linecap:round;"/>
    <path clip-path="url(#pf0eed556cd)" d="M 66.976284 246.549695 
L 63.720994 243.483249 
L 68.127325 242.718885 
L 66.976284 246.549695 
z
" style="stroke:#000000;stroke-linecap:round;"/>
   </g>
   <g id="patch_20">
    <path clip-path="url(#pf0eed556cd)" d="M 326.755643 319.408105 
Q 328.298355 319.986764 328.794251 320.172771 
" style="fill:none;stroke:#000000;stroke-linecap:round;"/>
    <path clip-path="url(#pf0eed556cd)" d="M 325.751445 316.895373 
L 328.794251 320.172771 
L 324.346649 320.640577 
L 325.751445 316.895373 
z
" style="stroke:#000000;stroke-linecap:round;"/>
   </g>
   <g id="patch_21">
    <path clip-path="url(#pf0eed556cd)" d="M 327.291413 311.922817 
Q 338.813942 309.391863 349.244469 307.10077 
" style="fill:none;stroke:#000000;stroke-linecap:round;"/>
    <path clip-path="url(#pf0eed556cd)" d="M 344.908531 306.005492 
L 349.244469 307.10077 
L 345.766683 309.912354 
L 344.908531 306.005492 
z
" style="stroke:#000000;stroke-linecap:round;"/>
   </g>
   <g id="patch_22">
    <path clip-path="url(#pf0eed556cd)" d="M 301.497288 311.696632 
Q 282.013853 307.056984 263.61804 302.676334 
" style="fill:none;stroke:#000000;stroke-linecap:round;"/>
    <path clip-path="url(#pf0eed556cd)" d="M 267.045921 305.548551 
L 263.61804 302.676334 
L 267.972542 301.657359 
L 267.045921 305.548551 
z
" style="stroke:#000000;stroke-linecap:round;"/>
   </g>
   <g id="patch_23">
    <path clip-path="url(#pf0eed556cd)" d="M 498.625294 167.839188 
Q 510.548355 210.698956 522.171772 252.481593 
" style="fill:none;stroke:#000000;stroke-linecap:round;"/>
    <path clip-path="url(#pf0eed556cd)" d="M 523.026562 248.091908 
L 522.171772 252.481593 
L 519.172898 249.16395 
L 523.026562 248.091908 
z
" style="stroke:#000000;stroke-linecap:round;"/>
   </g>
   <g id="patch_24">
    <path clip-path="url(#pf0eed556cd)" d="M 481.858507 154.718569 
Q 398.136298 152.330991 315.531668 149.975284 
" style="fill:none;stroke:#000000;stroke-linecap:round;"/>
    <path clip-path="url(#pf0eed556cd)" d="M 319.47303 152.088496 
L 315.531668 149.975284 
L 319.587055 148.090122 
L 319.47303 152.088496 
z
" style="stroke:#000000;stroke-linecap:round;"/>
   </g>
   <g id="patch_25">
    <path clip-path="url(#pf0eed556cd)" d="M 513.363511 270.168383 
Q 453.09792 288.582216 393.901566 306.669348 
" style="fill:none;stroke:#000000;stroke-linecap:round;"/>
    <path clip-path="url(#pf0eed556cd)" d="M 398.311402 307.413221 
L 393.901566 306.669348 
L 397.142566 303.587803 
L 398.311402 307.413221 
z
" style="stroke:#000000;stroke-linecap:round;"/>
   </g>
   <g id="patch_26">
    <path clip-path="url(#pf0eed556cd)" d="M 522.471425 253.558755 
Q 510.548364 210.698987 498.924947 168.91635 
" style="fill:none;stroke:#000000;stroke-linecap:round;"/>
    <path clip-path="url(#pf0eed556cd)" d="M 498.070157 173.306035 
L 498.924947 168.91635 
L 501.923821 172.233993 
L 498.070157 173.306035 
z
" style="stroke:#000000;stroke-linecap:round;"/>
   </g>
   <g id="patch_27">
    <path clip-path="url(#pf0eed556cd)" d="M 367.068147 312.638122 
Q 358.423333 313.809174 350.886435 314.830145 
" style="fill:none;stroke:#000000;stroke-linecap:round;"/>
    <path clip-path="url(#pf0eed556cd)" d="M 355.118706 316.275096 
L 350.886435 314.830145 
L 354.581758 312.311299 
L 355.118706 316.275096 
z
" style="stroke:#000000;stroke-linecap:round;"/>
   </g>
   <g id="patch_28">
    <path clip-path="url(#pf0eed556cd)" d="M 392.832723 306.995928 
Q 453.098314 288.582095 512.294668 270.494962 
" style="fill:none;stroke:#000000;stroke-linecap:round;"/>
    <path clip-path="url(#pf0eed556cd)" d="M 507.884832 269.75109 
L 512.294668 270.494962 
L 509.053668 273.576508 
L 507.884832 269.75109 
z
" style="stroke:#000000;stroke-linecap:round;"/>
   </g>
   <g id="patch_29">
    <path clip-path="url(#pf0eed556cd)" d="M 323.829148 319.96535 
Q 317.863531 321.456511 312.982577 322.676551 
" style="fill:none;stroke:#000000;stroke-linecap:round;"/>
    <path clip-path="url(#pf0eed556cd)" d="M 317.348181 323.64686 
L 312.982577 322.676551 
L 316.378187 319.766253 
L 317.348181 323.64686 
z
" style="stroke:#000000;stroke-linecap:round;"/>
   </g>
   <g id="patch_30">
    <path clip-path="url(#pf0eed556cd)" d="M 349.634646 319.356608 
Q 354.602468 320.352814 358.47408 321.129194 
" style="fill:none;stroke:#000000;stroke-linecap:round;"/>
    <path clip-path="url(#pf0eed556cd)" d="M 354.945393 318.381765 
L 358.47408 321.129194 
L 354.158924 322.303686 
L 354.945393 318.381765 
z
" style="stroke:#000000;stroke-linecap:round;"/>
   </g>
   <g id="patch_31">
    <path clip-path="url(#pf0eed556cd)" d="M 349.779056 314.980154 
Q 358.423869 313.809101 365.960768 312.78813 
" style="fill:none;stroke:#000000;stroke-linecap:round;"/>
    <path clip-path="url(#pf0eed556cd)" d="M 361.728497 311.34318 
L 365.960768 312.78813 
L 362.265445 315.306977 
L 361.728497 311.34318 
z
" style="stroke:#000000;stroke-linecap:round;"/>
   </g>
   <g id="patch_32">
    <path clip-path="url(#pf0eed556cd)" d="M 211.827798 391.999564 
Q 189.56098 468.15256 167.607933 543.232454 
" style="fill:none;stroke:#000000;stroke-linecap:round;"/>
    <path clip-path="url(#pf0eed556cd)" d="M 170.650136 539.954497 
L 167.607933 543.232454 
L 166.81089 538.831917 
L 170.650136 539.954497 
z
" style="stroke:#000000;stroke-linecap:round;"/>
   </g>
   <g id="patch_33">
    <path clip-path="url(#pf0eed556cd)" d="M 228.764784 379.637711 
Q 258.150344 380.384578 286.418232 381.103039 
" style="fill:none;stroke:#000000;stroke-linecap:round;"/>
    <path clip-path="url(#pf0eed556cd)" d="M 282.470339 379.002053 
L 286.418232 381.103039 
L 282.368707 383.000762 
L 282.470339 379.002053 
z
" style="stroke:#000000;stroke-linecap:round;"/>
   </g>
   <g id="patch_34">
    <path clip-path="url(#pf0eed556cd)" d="M 163.560243 570.23191 
Q 163.426298 653.145117 163.294159 734.940291 
" style="fill:none;stroke:#000000;stroke-linecap:round;"/>
    <path clip-path="url(#pf0eed556cd)" d="M 165.300619 730.943527 
L 163.294159 734.940291 
L 161.300624 730.937065 
L 165.300619 730.943527 
z
" style="stroke:#000000;stroke-linecap:round;"/>
   </g>
   <g id="patch_35">
    <path clip-path="url(#pf0eed556cd)" d="M 167.294446 544.304587 
Q 189.561264 468.151591 211.514311 393.071697 
" style="fill:none;stroke:#000000;stroke-linecap:round;"/>
    <path clip-path="url(#pf0eed556cd)" d="M 208.472108 396.349654 
L 211.514311 393.071697 
L 212.311355 397.472234 
L 208.472108 396.349654 
z
" style="stroke:#000000;stroke-linecap:round;"/>
   </g>
   <g id="patch_36">
    <path clip-path="url(#pf0eed556cd)" d="M 160.274618 762.173931 
Q 158.651265 769.157056 157.281068 775.051186 
" style="fill:none;stroke:#000000;stroke-linecap:round;"/>
    <path clip-path="url(#pf0eed556cd)" d="M 160.134844 771.607937 
L 157.281068 775.051186 
L 156.238734 770.702216 
L 160.134844 771.607937 
z
" style="stroke:#000000;stroke-linecap:round;"/>
   </g>
   <g id="patch_37">
    <path clip-path="url(#pf0eed556cd)" d="M 163.292358 736.055184 
Q 163.426303 653.141978 163.558442 571.346804 
" style="fill:none;stroke:#000000;stroke-linecap:round;"/>
    <path clip-path="url(#pf0eed556cd)" d="M 161.551983 575.343568 
L 163.558442 571.346804 
L 165.551978 575.35003 
L 161.551983 575.343568 
z
" style="stroke:#000000;stroke-linecap:round;"/>
   </g>
   <g id="patch_38">
    <path clip-path="url(#pf0eed556cd)" d="M 157.029021 776.135409 
Q 158.652374 769.152284 160.02257 763.258155 
" style="fill:none;stroke:#000000;stroke-linecap:round;"/>
    <path clip-path="url(#pf0eed556cd)" d="M 157.168795 766.701404 
L 160.02257 763.258155 
L 161.064905 767.607124 
L 157.168795 766.701404 
z
" style="stroke:#000000;stroke-linecap:round;"/>
   </g>
   <g id="patch_39">
    <path clip-path="url(#pf0eed556cd)" d="M 386.076946 395.848387 
Q 387.783224 445.2574 389.450916 493.549045 
" style="fill:none;stroke:#000000;stroke-linecap:round;"/>
    <path clip-path="url(#pf0eed556cd)" d="M 391.311672 489.482401 
L 389.450916 493.549045 
L 387.314055 489.620454 
L 391.311672 489.482401 
z
" style="stroke:#000000;stroke-linecap:round;"/>
   </g>
   <g id="patch_40">
    <path clip-path="url(#pf0eed556cd)" d="M 372.394207 382.445111 
Q 343.18915 382.046552 315.102023 381.663249 
" style="fill:none;stroke:#000000;stroke-linecap:round;"/>
    <path clip-path="url(#pf0eed556cd)" d="M 319.07436 383.717646 
L 315.102023 381.663249 
L 319.128942 379.718018 
L 319.07436 383.717646 
z
" style="stroke:#000000;stroke-linecap:round;"/>
   </g>
   <g id="patch_41">
    <path clip-path="url(#pf0eed556cd)" d="M 384.124703 519.768373 
Q 350.047247 589.31145 316.461759 657.850551 
" style="fill:none;stroke:#000000;stroke-linecap:round;"/>
    <path clip-path="url(#pf0eed556cd)" d="M 320.017843 655.138675 
L 316.461759 657.850551 
L 316.425909 653.378558 
L 320.017843 655.138675 
z
" style="stroke:#000000;stroke-linecap:round;"/>
   </g>
   <g id="patch_42">
    <path clip-path="url(#pf0eed556cd)" d="M 389.489476 494.665642 
Q 387.783198 445.256629 386.115506 396.964984 
" style="fill:none;stroke:#000000;stroke-linecap:round;"/>
    <path clip-path="url(#pf0eed556cd)" d="M 384.25475 401.031627 
L 386.115506 396.964984 
L 388.252367 400.893574 
L 384.25475 401.031627 
z
" style="stroke:#000000;stroke-linecap:round;"/>
   </g>
   <g id="patch_43">
    <path clip-path="url(#pf0eed556cd)" d="M 309.955417 683.963565 
Q 309.897782 687.909622 309.856474 690.737765 
" style="fill:none;stroke:#000000;stroke-linecap:round;"/>
    <path clip-path="url(#pf0eed556cd)" d="M 311.914678 686.7674 
L 309.856474 690.737765 
L 307.915105 686.708983 
L 311.914678 686.7674 
z
" style="stroke:#000000;stroke-linecap:round;"/>
   </g>
   <g id="patch_44">
    <path clip-path="url(#pf0eed556cd)" d="M 315.970053 658.853993 
Q 350.047509 589.310916 383.632996 520.771815 
" style="fill:none;stroke:#000000;stroke-linecap:round;"/>
    <path clip-path="url(#pf0eed556cd)" d="M 380.076912 523.48369 
L 383.632996 520.771815 
L 383.668846 525.243807 
L 380.076912 523.48369 
z
" style="stroke:#000000;stroke-linecap:round;"/>
   </g>
   <g id="patch_45">
    <path clip-path="url(#pf0eed556cd)" d="M 309.840153 691.855212 
Q 309.897789 687.909155 309.939096 685.081012 
" style="fill:none;stroke:#000000;stroke-linecap:round;"/>
    <path clip-path="url(#pf0eed556cd)" d="M 307.880892 689.051377 
L 309.939096 685.081012 
L 311.880466 689.109794 
L 307.880892 689.051377 
z
" style="stroke:#000000;stroke-linecap:round;"/>
   </g>
   <g id="patch_46">
    <path clip-path="url(#pf0eed556cd)" d="M 329.836453 320.563692 
Q 328.293742 319.985034 327.797846 319.799027 
" style="fill:none;stroke:#000000;stroke-linecap:round;"/>
    <path clip-path="url(#pf0eed556cd)" d="M 330.840652 323.076424 
L 327.797846 319.799027 
L 332.245447 319.331221 
L 330.840652 323.076424 
z
" style="stroke:#000000;stroke-linecap:round;"/>
   </g>
   <g id="patch_47">
    <path clip-path="url(#pf0eed556cd)" d="M 350.333712 306.861515 
Q 338.811183 309.392469 328.380656 311.683562 
" style="fill:none;stroke:#000000;stroke-linecap:round;"/>
    <path clip-path="url(#pf0eed556cd)" d="M 332.716595 312.77884 
L 328.380656 311.683562 
L 331.858442 308.871978 
L 332.716595 312.77884 
z
" style="stroke:#000000;stroke-linecap:round;"/>
   </g>
   <g id="patch_48">
    <path clip-path="url(#pf0eed556cd)" d="M 311.904217 322.946097 
Q 317.869834 321.454935 322.750788 320.234896 
" style="fill:none;stroke:#000000;stroke-linecap:round;"/>
    <path clip-path="url(#pf0eed556cd)" d="M 318.385184 319.264586 
L 322.750788 320.234896 
L 319.355178 323.145193 
L 318.385184 319.264586 
z
" style="stroke:#000000;stroke-linecap:round;"/>
   </g>
   <g id="patch_49">
    <path clip-path="url(#pf0eed556cd)" d="M 359.575688 321.350102 
Q 354.607866 320.353896 350.736254 319.577516 
" style="fill:none;stroke:#000000;stroke-linecap:round;"/>
    <path clip-path="url(#pf0eed556cd)" d="M 354.26494 322.324945 
L 350.736254 319.577516 
L 355.051409 318.403024 
L 354.26494 322.324945 
z
" style="stroke:#000000;stroke-linecap:round;"/>
   </g>
   <g id="PathCollection_1">
    <defs>
     <path d="M 0 13.228757 
C 3.508307 13.228757 6.873396 11.834891 9.354143 9.354143 
C 11.834891 6.873396 13.228757 3.508307 13.228757 0 
C 13.228757 -3.508307 11.834891 -6.873396 9.354143 -9.354143 
C 6.873396 -11.834891 3.508307 -13.228757 0 -13.228757 
C -3.508307 -13.228757 -6.873396 -11.834891 -9.354143 -9.354143 
C -11.834891 -6.873396 -13.228757 -3.508307 -13.228757 0 
C -13.228757 3.508307 -11.834891 6.873396 -9.354143 9.354143 
C -6.873396 11.834891 -3.508307 13.228757 0 13.228757 
z
" id="m5568c367ac" style="stroke:#87ceeb;"/>
    </defs>
    <g clip-path="url(#pf0eed556cd)">
     <use style="fill:#87ceeb;stroke:#87ceeb;" x="302.628091" xlink:href="#m5568c367ac" y="74.975207"/>
     <use style="fill:#87ceeb;stroke:#87ceeb;" x="301.551405" xlink:href="#m5568c367ac" y="117.685098"/>
     <use style="fill:#87ceeb;stroke:#87ceeb;" x="301.189787" xlink:href="#m5568c367ac" y="149.566284"/>
     <use style="fill:#87ceeb;stroke:#87ceeb;" x="300.257613" xlink:href="#m5568c367ac" y="248.0795"/>
     <use style="fill:#87ceeb;stroke:#87ceeb;" x="300.75776" xlink:href="#m5568c367ac" y="381.467495"/>
     <use style="fill:#87ceeb;stroke:#87ceeb;" x="115.560686" xlink:href="#m5568c367ac" y="146.331671"/>
     <use style="fill:#87ceeb;stroke:#87ceeb;" x="49.983471" xlink:href="#m5568c367ac" y="239.355544"/>
     <use style="fill:#87ceeb;stroke:#87ceeb;" x="249.66379" xlink:href="#m5568c367ac" y="299.353367"/>
     <use style="fill:#87ceeb;stroke:#87ceeb;" x="314.367793" xlink:href="#m5568c367ac" y="314.761524"/>
     <use style="fill:#87ceeb;stroke:#87ceeb;" x="495.08019" xlink:href="#m5568c367ac" y="155.095623"/>
     <use style="fill:#87ceeb;stroke:#87ceeb;" x="526.016529" xlink:href="#m5568c367ac" y="266.30232"/>
     <use style="fill:#87ceeb;stroke:#87ceeb;" x="380.179705" xlink:href="#m5568c367ac" y="310.86199"/>
     <use style="fill:#87ceeb;stroke:#87ceeb;" x="336.667497" xlink:href="#m5568c367ac" y="316.756285"/>
     <use style="fill:#87ceeb;stroke:#87ceeb;" x="215.540629" xlink:href="#m5568c367ac" y="379.301604"/>
     <use style="fill:#87ceeb;stroke:#87ceeb;" x="163.581615" xlink:href="#m5568c367ac" y="557.002547"/>
     <use style="fill:#87ceeb;stroke:#87ceeb;" x="163.270986" xlink:href="#m5568c367ac" y="749.284547"/>
     <use style="fill:#87ceeb;stroke:#87ceeb;" x="154.032652" xlink:href="#m5568c367ac" y="789.024793"/>
     <use style="fill:#87ceeb;stroke:#87ceeb;" x="385.620313" xlink:href="#m5568c367ac" y="382.625606"/>
     <use style="fill:#87ceeb;stroke:#87ceeb;" x="389.946109" xlink:href="#m5568c367ac" y="507.888422"/>
     <use style="fill:#87ceeb;stroke:#87ceeb;" x="310.148647" xlink:href="#m5568c367ac" y="670.733943"/>
     <use style="fill:#87ceeb;stroke:#87ceeb;" x="309.646924" xlink:href="#m5568c367ac" y="705.084834"/>
     <use style="fill:#87ceeb;stroke:#87ceeb;" x="342.224304" xlink:href="#m5568c367ac" y="325.210274"/>
     <use style="fill:#87ceeb;stroke:#87ceeb;" x="363.257332" xlink:href="#m5568c367ac" y="304.022808"/>
     <use style="fill:#87ceeb;stroke:#87ceeb;" x="299.065867" xlink:href="#m5568c367ac" y="326.155161"/>
     <use style="fill:#87ceeb;stroke:#87ceeb;" x="372.542836" xlink:href="#m5568c367ac" y="323.950425"/>
    </g>
   </g>
   <g id="text_1">
    <g clip-path="url(#pf0eed556cd)">
     <!-- Head -->
     <g transform="translate(289.553091 77.734582)scale(0.1 -0.1)">
      <defs>
       <path d="M 9.8125 72.90625 
L 19.671875 72.90625 
L 19.671875 43.015625 
L 55.515625 43.015625 
L 55.515625 72.90625 
L 65.375 72.90625 
L 65.375 0 
L 55.515625 0 
L 55.515625 34.71875 
L 19.671875 34.71875 
L 19.671875 0 
L 9.8125 0 
z
" id="DejaVuSans-72"/>
       <path d="M 56.203125 29.59375 
L 56.203125 25.203125 
L 14.890625 25.203125 
Q 15.484375 15.921875 20.484375 11.0625 
Q 25.484375 6.203125 34.421875 6.203125 
Q 39.59375 6.203125 44.453125 7.46875 
Q 49.3125 8.734375 54.109375 11.28125 
L 54.109375 2.78125 
Q 49.265625 0.734375 44.1875 -0.34375 
Q 39.109375 -1.421875 33.890625 -1.421875 
Q 20.796875 -1.421875 13.15625 6.1875 
Q 5.515625 13.8125 5.515625 26.8125 
Q 5.515625 40.234375 12.765625 48.109375 
Q 20.015625 56 32.328125 56 
Q 43.359375 56 49.78125 48.890625 
Q 56.203125 41.796875 56.203125 29.59375 
z
M 47.21875 32.234375 
Q 47.125 39.59375 43.09375 43.984375 
Q 39.0625 48.390625 32.421875 48.390625 
Q 24.90625 48.390625 20.390625 44.140625 
Q 15.875 39.890625 15.1875 32.171875 
z
" id="DejaVuSans-101"/>
       <path d="M 34.28125 27.484375 
Q 23.390625 27.484375 19.1875 25 
Q 14.984375 22.515625 14.984375 16.5 
Q 14.984375 11.71875 18.140625 8.90625 
Q 21.296875 6.109375 26.703125 6.109375 
Q 34.1875 6.109375 38.703125 11.40625 
Q 43.21875 16.703125 43.21875 25.484375 
L 43.21875 27.484375 
z
M 52.203125 31.203125 
L 52.203125 0 
L 43.21875 0 
L 43.21875 8.296875 
Q 40.140625 3.328125 35.546875 0.953125 
Q 30.953125 -1.421875 24.3125 -1.421875 
Q 15.921875 -1.421875 10.953125 3.296875 
Q 6 8.015625 6 15.921875 
Q 6 25.140625 12.171875 29.828125 
Q 18.359375 34.515625 30.609375 34.515625 
L 43.21875 34.515625 
L 43.21875 35.40625 
Q 43.21875 41.609375 39.140625 45 
Q 35.0625 48.390625 27.6875 48.390625 
Q 23 48.390625 18.546875 47.265625 
Q 14.109375 46.140625 10.015625 43.890625 
L 10.015625 52.203125 
Q 14.9375 54.109375 19.578125 55.046875 
Q 24.21875 56 28.609375 56 
Q 40.484375 56 46.34375 49.84375 
Q 52.203125 43.703125 52.203125 31.203125 
z
" id="DejaVuSans-97"/>
       <path d="M 45.40625 46.390625 
L 45.40625 75.984375 
L 54.390625 75.984375 
L 54.390625 0 
L 45.40625 0 
L 45.40625 8.203125 
Q 42.578125 3.328125 38.25 0.953125 
Q 33.9375 -1.421875 27.875 -1.421875 
Q 17.96875 -1.421875 11.734375 6.484375 
Q 5.515625 14.40625 5.515625 27.296875 
Q 5.515625 40.1875 11.734375 48.09375 
Q 17.96875 56 27.875 56 
Q 33.9375 56 38.25 53.625 
Q 42.578125 51.265625 45.40625 46.390625 
z
M 14.796875 27.296875 
Q 14.796875 17.390625 18.875 11.75 
Q 22.953125 6.109375 30.078125 6.109375 
Q 37.203125 6.109375 41.296875 11.75 
Q 45.40625 17.390625 45.40625 27.296875 
Q 45.40625 37.203125 41.296875 42.84375 
Q 37.203125 48.484375 30.078125 48.484375 
Q 22.953125 48.484375 18.875 42.84375 
Q 14.796875 37.203125 14.796875 27.296875 
z
" id="DejaVuSans-100"/>
      </defs>
      <use xlink:href="#DejaVuSans-72"/>
      <use x="75.195312" xlink:href="#DejaVuSans-101"/>
      <use x="136.71875" xlink:href="#DejaVuSans-97"/>
      <use x="197.998047" xlink:href="#DejaVuSans-100"/>
     </g>
    </g>
   </g>
   <g id="text_2">
    <g clip-path="url(#pf0eed556cd)">
     <!-- c7 -->
     <g transform="translate(295.620936 120.444473)scale(0.1 -0.1)">
      <defs>
       <path d="M 48.78125 52.59375 
L 48.78125 44.1875 
Q 44.96875 46.296875 41.140625 47.34375 
Q 37.3125 48.390625 33.40625 48.390625 
Q 24.65625 48.390625 19.8125 42.84375 
Q 14.984375 37.3125 14.984375 27.296875 
Q 14.984375 17.28125 19.8125 11.734375 
Q 24.65625 6.203125 33.40625 6.203125 
Q 37.3125 6.203125 41.140625 7.25 
Q 44.96875 8.296875 48.78125 10.40625 
L 48.78125 2.09375 
Q 45.015625 0.34375 40.984375 -0.53125 
Q 36.96875 -1.421875 32.421875 -1.421875 
Q 20.0625 -1.421875 12.78125 6.34375 
Q 5.515625 14.109375 5.515625 27.296875 
Q 5.515625 40.671875 12.859375 48.328125 
Q 20.21875 56 33.015625 56 
Q 37.15625 56 41.109375 55.140625 
Q 45.0625 54.296875 48.78125 52.59375 
z
" id="DejaVuSans-99"/>
       <path d="M 8.203125 72.90625 
L 55.078125 72.90625 
L 55.078125 68.703125 
L 28.609375 0 
L 18.3125 0 
L 43.21875 64.59375 
L 8.203125 64.59375 
z
" id="DejaVuSans-55"/>
      </defs>
      <use xlink:href="#DejaVuSans-99"/>
      <use x="54.980469" xlink:href="#DejaVuSans-55"/>
     </g>
    </g>
   </g>
   <g id="text_3">
    <g clip-path="url(#pf0eed556cd)">
     <!-- SpineShoulder -->
     <g transform="translate(264.940568 152.325659)scale(0.1 -0.1)">
      <defs>
       <path d="M 53.515625 70.515625 
L 53.515625 60.890625 
Q 47.90625 63.578125 42.921875 64.890625 
Q 37.9375 66.21875 33.296875 66.21875 
Q 25.25 66.21875 20.875 63.09375 
Q 16.5 59.96875 16.5 54.203125 
Q 16.5 49.359375 19.40625 46.890625 
Q 22.3125 44.4375 30.421875 42.921875 
L 36.375 41.703125 
Q 47.40625 39.59375 52.65625 34.296875 
Q 57.90625 29 57.90625 20.125 
Q 57.90625 9.515625 50.796875 4.046875 
Q 43.703125 -1.421875 29.984375 -1.421875 
Q 24.8125 -1.421875 18.96875 -0.25 
Q 13.140625 0.921875 6.890625 3.21875 
L 6.890625 13.375 
Q 12.890625 10.015625 18.65625 8.296875 
Q 24.421875 6.59375 29.984375 6.59375 
Q 38.421875 6.59375 43.015625 9.90625 
Q 47.609375 13.234375 47.609375 19.390625 
Q 47.609375 24.75 44.3125 27.78125 
Q 41.015625 30.8125 33.5 32.328125 
L 27.484375 33.5 
Q 16.453125 35.6875 11.515625 40.375 
Q 6.59375 45.0625 6.59375 53.421875 
Q 6.59375 63.09375 13.40625 68.65625 
Q 20.21875 74.21875 32.171875 74.21875 
Q 37.3125 74.21875 42.625 73.28125 
Q 47.953125 72.359375 53.515625 70.515625 
z
" id="DejaVuSans-83"/>
       <path d="M 18.109375 8.203125 
L 18.109375 -20.796875 
L 9.078125 -20.796875 
L 9.078125 54.6875 
L 18.109375 54.6875 
L 18.109375 46.390625 
Q 20.953125 51.265625 25.265625 53.625 
Q 29.59375 56 35.59375 56 
Q 45.5625 56 51.78125 48.09375 
Q 58.015625 40.1875 58.015625 27.296875 
Q 58.015625 14.40625 51.78125 6.484375 
Q 45.5625 -1.421875 35.59375 -1.421875 
Q 29.59375 -1.421875 25.265625 0.953125 
Q 20.953125 3.328125 18.109375 8.203125 
z
M 48.6875 27.296875 
Q 48.6875 37.203125 44.609375 42.84375 
Q 40.53125 48.484375 33.40625 48.484375 
Q 26.265625 48.484375 22.1875 42.84375 
Q 18.109375 37.203125 18.109375 27.296875 
Q 18.109375 17.390625 22.1875 11.75 
Q 26.265625 6.109375 33.40625 6.109375 
Q 40.53125 6.109375 44.609375 11.75 
Q 48.6875 17.390625 48.6875 27.296875 
z
" id="DejaVuSans-112"/>
       <path d="M 9.421875 54.6875 
L 18.40625 54.6875 
L 18.40625 0 
L 9.421875 0 
z
M 9.421875 75.984375 
L 18.40625 75.984375 
L 18.40625 64.59375 
L 9.421875 64.59375 
z
" id="DejaVuSans-105"/>
       <path d="M 54.890625 33.015625 
L 54.890625 0 
L 45.90625 0 
L 45.90625 32.71875 
Q 45.90625 40.484375 42.875 44.328125 
Q 39.84375 48.1875 33.796875 48.1875 
Q 26.515625 48.1875 22.3125 43.546875 
Q 18.109375 38.921875 18.109375 30.90625 
L 18.109375 0 
L 9.078125 0 
L 9.078125 54.6875 
L 18.109375 54.6875 
L 18.109375 46.1875 
Q 21.34375 51.125 25.703125 53.5625 
Q 30.078125 56 35.796875 56 
Q 45.21875 56 50.046875 50.171875 
Q 54.890625 44.34375 54.890625 33.015625 
z
" id="DejaVuSans-110"/>
       <path d="M 54.890625 33.015625 
L 54.890625 0 
L 45.90625 0 
L 45.90625 32.71875 
Q 45.90625 40.484375 42.875 44.328125 
Q 39.84375 48.1875 33.796875 48.1875 
Q 26.515625 48.1875 22.3125 43.546875 
Q 18.109375 38.921875 18.109375 30.90625 
L 18.109375 0 
L 9.078125 0 
L 9.078125 75.984375 
L 18.109375 75.984375 
L 18.109375 46.1875 
Q 21.34375 51.125 25.703125 53.5625 
Q 30.078125 56 35.796875 56 
Q 45.21875 56 50.046875 50.171875 
Q 54.890625 44.34375 54.890625 33.015625 
z
" id="DejaVuSans-104"/>
       <path d="M 30.609375 48.390625 
Q 23.390625 48.390625 19.1875 42.75 
Q 14.984375 37.109375 14.984375 27.296875 
Q 14.984375 17.484375 19.15625 11.84375 
Q 23.34375 6.203125 30.609375 6.203125 
Q 37.796875 6.203125 41.984375 11.859375 
Q 46.1875 17.53125 46.1875 27.296875 
Q 46.1875 37.015625 41.984375 42.703125 
Q 37.796875 48.390625 30.609375 48.390625 
z
M 30.609375 56 
Q 42.328125 56 49.015625 48.375 
Q 55.71875 40.765625 55.71875 27.296875 
Q 55.71875 13.875 49.015625 6.21875 
Q 42.328125 -1.421875 30.609375 -1.421875 
Q 18.84375 -1.421875 12.171875 6.21875 
Q 5.515625 13.875 5.515625 27.296875 
Q 5.515625 40.765625 12.171875 48.375 
Q 18.84375 56 30.609375 56 
z
" id="DejaVuSans-111"/>
       <path d="M 8.5 21.578125 
L 8.5 54.6875 
L 17.484375 54.6875 
L 17.484375 21.921875 
Q 17.484375 14.15625 20.5 10.265625 
Q 23.53125 6.390625 29.59375 6.390625 
Q 36.859375 6.390625 41.078125 11.03125 
Q 45.3125 15.671875 45.3125 23.6875 
L 45.3125 54.6875 
L 54.296875 54.6875 
L 54.296875 0 
L 45.3125 0 
L 45.3125 8.40625 
Q 42.046875 3.421875 37.71875 1 
Q 33.40625 -1.421875 27.6875 -1.421875 
Q 18.265625 -1.421875 13.375 4.4375 
Q 8.5 10.296875 8.5 21.578125 
z
M 31.109375 56 
z
" id="DejaVuSans-117"/>
       <path d="M 9.421875 75.984375 
L 18.40625 75.984375 
L 18.40625 0 
L 9.421875 0 
z
" id="DejaVuSans-108"/>
       <path d="M 41.109375 46.296875 
Q 39.59375 47.171875 37.8125 47.578125 
Q 36.03125 48 33.890625 48 
Q 26.265625 48 22.1875 43.046875 
Q 18.109375 38.09375 18.109375 28.8125 
L 18.109375 0 
L 9.078125 0 
L 9.078125 54.6875 
L 18.109375 54.6875 
L 18.109375 46.1875 
Q 20.953125 51.171875 25.484375 53.578125 
Q 30.03125 56 36.53125 56 
Q 37.453125 56 38.578125 55.875 
Q 39.703125 55.765625 41.0625 55.515625 
z
" id="DejaVuSans-114"/>
      </defs>
      <use xlink:href="#DejaVuSans-83"/>
      <use x="63.476562" xlink:href="#DejaVuSans-112"/>
      <use x="126.953125" xlink:href="#DejaVuSans-105"/>
      <use x="154.736328" xlink:href="#DejaVuSans-110"/>
      <use x="218.115234" xlink:href="#DejaVuSans-101"/>
      <use x="279.638672" xlink:href="#DejaVuSans-83"/>
      <use x="343.115234" xlink:href="#DejaVuSans-104"/>
      <use x="406.494141" xlink:href="#DejaVuSans-111"/>
      <use x="467.675781" xlink:href="#DejaVuSans-117"/>
      <use x="531.054688" xlink:href="#DejaVuSans-108"/>
      <use x="558.837891" xlink:href="#DejaVuSans-100"/>
      <use x="622.314453" xlink:href="#DejaVuSans-101"/>
      <use x="683.837891" xlink:href="#DejaVuSans-114"/>
     </g>
    </g>
   </g>
   <g id="text_4">
    <g clip-path="url(#pf0eed556cd)">
     <!-- Spine -->
     <g transform="translate(286.2748 250.838875)scale(0.1 -0.1)">
      <use xlink:href="#DejaVuSans-83"/>
      <use x="63.476562" xlink:href="#DejaVuSans-112"/>
      <use x="126.953125" xlink:href="#DejaVuSans-105"/>
      <use x="154.736328" xlink:href="#DejaVuSans-110"/>
      <use x="218.115234" xlink:href="#DejaVuSans-101"/>
     </g>
    </g>
   </g>
   <g id="text_5">
    <g clip-path="url(#pf0eed556cd)">
     <!-- Sacr -->
     <g transform="translate(289.714791 384.22687)scale(0.1 -0.1)">
      <use xlink:href="#DejaVuSans-83"/>
      <use x="63.476562" xlink:href="#DejaVuSans-97"/>
      <use x="124.755859" xlink:href="#DejaVuSans-99"/>
      <use x="179.736328" xlink:href="#DejaVuSans-114"/>
     </g>
    </g>
   </g>
   <g id="text_6">
    <g clip-path="url(#pf0eed556cd)">
     <!-- LShoulder -->
     <g transform="translate(90.508342 149.091046)scale(0.1 -0.1)">
      <defs>
       <path d="M 9.8125 72.90625 
L 19.671875 72.90625 
L 19.671875 8.296875 
L 55.171875 8.296875 
L 55.171875 0 
L 9.8125 0 
z
" id="DejaVuSans-76"/>
      </defs>
      <use xlink:href="#DejaVuSans-76"/>
      <use x="55.712891" xlink:href="#DejaVuSans-83"/>
      <use x="119.189453" xlink:href="#DejaVuSans-104"/>
      <use x="182.568359" xlink:href="#DejaVuSans-111"/>
      <use x="243.75" xlink:href="#DejaVuSans-117"/>
      <use x="307.128906" xlink:href="#DejaVuSans-108"/>
      <use x="334.912109" xlink:href="#DejaVuSans-100"/>
      <use x="398.388672" xlink:href="#DejaVuSans-101"/>
      <use x="459.912109" xlink:href="#DejaVuSans-114"/>
     </g>
    </g>
   </g>
   <g id="text_7">
    <g clip-path="url(#pf0eed556cd)">
     <!-- LElbow -->
     <g transform="translate(32.32644 242.114919)scale(0.1 -0.1)">
      <defs>
       <path d="M 9.8125 72.90625 
L 55.90625 72.90625 
L 55.90625 64.59375 
L 19.671875 64.59375 
L 19.671875 43.015625 
L 54.390625 43.015625 
L 54.390625 34.71875 
L 19.671875 34.71875 
L 19.671875 8.296875 
L 56.78125 8.296875 
L 56.78125 0 
L 9.8125 0 
z
" id="DejaVuSans-69"/>
       <path d="M 48.6875 27.296875 
Q 48.6875 37.203125 44.609375 42.84375 
Q 40.53125 48.484375 33.40625 48.484375 
Q 26.265625 48.484375 22.1875 42.84375 
Q 18.109375 37.203125 18.109375 27.296875 
Q 18.109375 17.390625 22.1875 11.75 
Q 26.265625 6.109375 33.40625 6.109375 
Q 40.53125 6.109375 44.609375 11.75 
Q 48.6875 17.390625 48.6875 27.296875 
z
M 18.109375 46.390625 
Q 20.953125 51.265625 25.265625 53.625 
Q 29.59375 56 35.59375 56 
Q 45.5625 56 51.78125 48.09375 
Q 58.015625 40.1875 58.015625 27.296875 
Q 58.015625 14.40625 51.78125 6.484375 
Q 45.5625 -1.421875 35.59375 -1.421875 
Q 29.59375 -1.421875 25.265625 0.953125 
Q 20.953125 3.328125 18.109375 8.203125 
L 18.109375 0 
L 9.078125 0 
L 9.078125 75.984375 
L 18.109375 75.984375 
z
" id="DejaVuSans-98"/>
       <path d="M 4.203125 54.6875 
L 13.1875 54.6875 
L 24.421875 12.015625 
L 35.59375 54.6875 
L 46.1875 54.6875 
L 57.421875 12.015625 
L 68.609375 54.6875 
L 77.59375 54.6875 
L 63.28125 0 
L 52.6875 0 
L 40.921875 44.828125 
L 29.109375 0 
L 18.5 0 
z
" id="DejaVuSans-119"/>
      </defs>
      <use xlink:href="#DejaVuSans-76"/>
      <use x="55.712891" xlink:href="#DejaVuSans-69"/>
      <use x="118.896484" xlink:href="#DejaVuSans-108"/>
      <use x="146.679688" xlink:href="#DejaVuSans-98"/>
      <use x="210.15625" xlink:href="#DejaVuSans-111"/>
      <use x="271.337891" xlink:href="#DejaVuSans-119"/>
     </g>
    </g>
   </g>
   <g id="text_8">
    <g clip-path="url(#pf0eed556cd)">
     <!-- LWrist -->
     <g transform="translate(234.605978 302.112742)scale(0.1 -0.1)">
      <defs>
       <path d="M 3.328125 72.90625 
L 13.28125 72.90625 
L 28.609375 11.28125 
L 43.890625 72.90625 
L 54.984375 72.90625 
L 70.3125 11.28125 
L 85.59375 72.90625 
L 95.609375 72.90625 
L 77.296875 0 
L 64.890625 0 
L 49.515625 63.28125 
L 33.984375 0 
L 21.578125 0 
z
" id="DejaVuSans-87"/>
       <path d="M 44.28125 53.078125 
L 44.28125 44.578125 
Q 40.484375 46.53125 36.375 47.5 
Q 32.28125 48.484375 27.875 48.484375 
Q 21.1875 48.484375 17.84375 46.4375 
Q 14.5 44.390625 14.5 40.28125 
Q 14.5 37.15625 16.890625 35.375 
Q 19.28125 33.59375 26.515625 31.984375 
L 29.59375 31.296875 
Q 39.15625 29.25 43.1875 25.515625 
Q 47.21875 21.78125 47.21875 15.09375 
Q 47.21875 7.46875 41.1875 3.015625 
Q 35.15625 -1.421875 24.609375 -1.421875 
Q 20.21875 -1.421875 15.453125 -0.5625 
Q 10.6875 0.296875 5.421875 2 
L 5.421875 11.28125 
Q 10.40625 8.6875 15.234375 7.390625 
Q 20.0625 6.109375 24.8125 6.109375 
Q 31.15625 6.109375 34.5625 8.28125 
Q 37.984375 10.453125 37.984375 14.40625 
Q 37.984375 18.0625 35.515625 20.015625 
Q 33.0625 21.96875 24.703125 23.78125 
L 21.578125 24.515625 
Q 13.234375 26.265625 9.515625 29.90625 
Q 5.8125 33.546875 5.8125 39.890625 
Q 5.8125 47.609375 11.28125 51.796875 
Q 16.75 56 26.8125 56 
Q 31.78125 56 36.171875 55.265625 
Q 40.578125 54.546875 44.28125 53.078125 
z
" id="DejaVuSans-115"/>
       <path d="M 18.3125 70.21875 
L 18.3125 54.6875 
L 36.8125 54.6875 
L 36.8125 47.703125 
L 18.3125 47.703125 
L 18.3125 18.015625 
Q 18.3125 11.328125 20.140625 9.421875 
Q 21.96875 7.515625 27.59375 7.515625 
L 36.8125 7.515625 
L 36.8125 0 
L 27.59375 0 
Q 17.1875 0 13.234375 3.875 
Q 9.28125 7.765625 9.28125 18.015625 
L 9.28125 47.703125 
L 2.6875 47.703125 
L 2.6875 54.6875 
L 9.28125 54.6875 
L 9.28125 70.21875 
z
" id="DejaVuSans-116"/>
      </defs>
      <use xlink:href="#DejaVuSans-76"/>
      <use x="46.587891" xlink:href="#DejaVuSans-87"/>
      <use x="140.964844" xlink:href="#DejaVuSans-114"/>
      <use x="182.078125" xlink:href="#DejaVuSans-105"/>
      <use x="209.861328" xlink:href="#DejaVuSans-115"/>
      <use x="261.960938" xlink:href="#DejaVuSans-116"/>
     </g>
    </g>
   </g>
   <g id="text_9">
    <g clip-path="url(#pf0eed556cd)">
     <!-- LHand -->
     <g transform="translate(298.414668 317.520899)scale(0.1 -0.1)">
      <use xlink:href="#DejaVuSans-76"/>
      <use x="55.712891" xlink:href="#DejaVuSans-72"/>
      <use x="130.908203" xlink:href="#DejaVuSans-97"/>
      <use x="192.1875" xlink:href="#DejaVuSans-110"/>
      <use x="255.566406" xlink:href="#DejaVuSans-100"/>
     </g>
    </g>
   </g>
   <g id="text_10">
    <g clip-path="url(#pf0eed556cd)">
     <!-- RShoulder -->
     <g transform="translate(469.339565 157.854998)scale(0.1 -0.1)">
      <defs>
       <path d="M 44.390625 34.1875 
Q 47.5625 33.109375 50.5625 29.59375 
Q 53.5625 26.078125 56.59375 19.921875 
L 66.609375 0 
L 56 0 
L 46.6875 18.703125 
Q 43.0625 26.03125 39.671875 28.421875 
Q 36.28125 30.8125 30.421875 30.8125 
L 19.671875 30.8125 
L 19.671875 0 
L 9.8125 0 
L 9.8125 72.90625 
L 32.078125 72.90625 
Q 44.578125 72.90625 50.734375 67.671875 
Q 56.890625 62.453125 56.890625 51.90625 
Q 56.890625 45.015625 53.6875 40.46875 
Q 50.484375 35.9375 44.390625 34.1875 
z
M 19.671875 64.796875 
L 19.671875 38.921875 
L 32.078125 38.921875 
Q 39.203125 38.921875 42.84375 42.21875 
Q 46.484375 45.515625 46.484375 51.90625 
Q 46.484375 58.296875 42.84375 61.546875 
Q 39.203125 64.796875 32.078125 64.796875 
z
" id="DejaVuSans-82"/>
      </defs>
      <use xlink:href="#DejaVuSans-82"/>
      <use x="69.482422" xlink:href="#DejaVuSans-83"/>
      <use x="132.958984" xlink:href="#DejaVuSans-104"/>
      <use x="196.337891" xlink:href="#DejaVuSans-111"/>
      <use x="257.519531" xlink:href="#DejaVuSans-117"/>
      <use x="320.898438" xlink:href="#DejaVuSans-108"/>
      <use x="348.681641" xlink:href="#DejaVuSans-100"/>
      <use x="412.158203" xlink:href="#DejaVuSans-101"/>
      <use x="473.681641" xlink:href="#DejaVuSans-114"/>
     </g>
    </g>
   </g>
   <g id="text_11">
    <g clip-path="url(#pf0eed556cd)">
     <!-- RElbow -->
     <g transform="translate(507.671216 269.061695)scale(0.1 -0.1)">
      <use xlink:href="#DejaVuSans-82"/>
      <use x="69.482422" xlink:href="#DejaVuSans-69"/>
      <use x="132.666016" xlink:href="#DejaVuSans-108"/>
      <use x="160.449219" xlink:href="#DejaVuSans-98"/>
      <use x="223.925781" xlink:href="#DejaVuSans-111"/>
      <use x="285.107422" xlink:href="#DejaVuSans-119"/>
     </g>
    </g>
   </g>
   <g id="text_12">
    <g clip-path="url(#pf0eed556cd)">
     <!-- RWrist -->
     <g transform="translate(364.177362 313.621365)scale(0.1 -0.1)">
      <use xlink:href="#DejaVuSans-82"/>
      <use x="65.482422" xlink:href="#DejaVuSans-87"/>
      <use x="159.859375" xlink:href="#DejaVuSans-114"/>
      <use x="200.972656" xlink:href="#DejaVuSans-105"/>
      <use x="228.755859" xlink:href="#DejaVuSans-115"/>
      <use x="280.855469" xlink:href="#DejaVuSans-116"/>
     </g>
    </g>
   </g>
   <g id="text_13">
    <g clip-path="url(#pf0eed556cd)">
     <!-- RHand -->
     <g transform="translate(320.026091 319.51566)scale(0.1 -0.1)">
      <use xlink:href="#DejaVuSans-82"/>
      <use x="69.482422" xlink:href="#DejaVuSans-72"/>
      <use x="144.677734" xlink:href="#DejaVuSans-97"/>
      <use x="205.957031" xlink:href="#DejaVuSans-110"/>
      <use x="269.335938" xlink:href="#DejaVuSans-100"/>
     </g>
    </g>
   </g>
   <g id="text_14">
    <g clip-path="url(#pf0eed556cd)">
     <!-- LHip -->
     <g transform="translate(204.431254 382.060979)scale(0.1 -0.1)">
      <use xlink:href="#DejaVuSans-76"/>
      <use x="55.712891" xlink:href="#DejaVuSans-72"/>
      <use x="130.908203" xlink:href="#DejaVuSans-105"/>
      <use x="158.691406" xlink:href="#DejaVuSans-112"/>
     </g>
    </g>
   </g>
   <g id="text_15">
    <g clip-path="url(#pf0eed556cd)">
     <!-- LKnee -->
     <g transform="translate(148.194897 559.761922)scale(0.1 -0.1)">
      <defs>
       <path d="M 9.8125 72.90625 
L 19.671875 72.90625 
L 19.671875 42.09375 
L 52.390625 72.90625 
L 65.09375 72.90625 
L 28.90625 38.921875 
L 67.671875 0 
L 54.6875 0 
L 19.671875 35.109375 
L 19.671875 0 
L 9.8125 0 
z
" id="DejaVuSans-75"/>
      </defs>
      <use xlink:href="#DejaVuSans-76"/>
      <use x="55.712891" xlink:href="#DejaVuSans-75"/>
      <use x="121.289062" xlink:href="#DejaVuSans-110"/>
      <use x="184.667969" xlink:href="#DejaVuSans-101"/>
      <use x="246.191406" xlink:href="#DejaVuSans-101"/>
     </g>
    </g>
   </g>
   <g id="text_16">
    <g clip-path="url(#pf0eed556cd)">
     <!-- LAnkle -->
     <g transform="translate(146.422549 752.043922)scale(0.1 -0.1)">
      <defs>
       <path d="M 34.1875 63.1875 
L 20.796875 26.90625 
L 47.609375 26.90625 
z
M 28.609375 72.90625 
L 39.796875 72.90625 
L 67.578125 0 
L 57.328125 0 
L 50.6875 18.703125 
L 17.828125 18.703125 
L 11.1875 0 
L 0.78125 0 
z
" id="DejaVuSans-65"/>
       <path d="M 9.078125 75.984375 
L 18.109375 75.984375 
L 18.109375 31.109375 
L 44.921875 54.6875 
L 56.390625 54.6875 
L 27.390625 29.109375 
L 57.625 0 
L 45.90625 0 
L 18.109375 26.703125 
L 18.109375 0 
L 9.078125 0 
z
" id="DejaVuSans-107"/>
      </defs>
      <use xlink:href="#DejaVuSans-76"/>
      <use x="57.962891" xlink:href="#DejaVuSans-65"/>
      <use x="126.371094" xlink:href="#DejaVuSans-110"/>
      <use x="189.75" xlink:href="#DejaVuSans-107"/>
      <use x="247.660156" xlink:href="#DejaVuSans-108"/>
      <use x="275.443359" xlink:href="#DejaVuSans-101"/>
     </g>
    </g>
   </g>
   <g id="text_17">
    <g clip-path="url(#pf0eed556cd)">
     <!-- LFoot -->
     <g transform="translate(140.473277 791.784168)scale(0.1 -0.1)">
      <defs>
       <path d="M 9.8125 72.90625 
L 51.703125 72.90625 
L 51.703125 64.59375 
L 19.671875 64.59375 
L 19.671875 43.109375 
L 48.578125 43.109375 
L 48.578125 34.8125 
L 19.671875 34.8125 
L 19.671875 0 
L 9.8125 0 
z
" id="DejaVuSans-70"/>
      </defs>
      <use xlink:href="#DejaVuSans-76"/>
      <use x="55.712891" xlink:href="#DejaVuSans-70"/>
      <use x="109.607422" xlink:href="#DejaVuSans-111"/>
      <use x="170.789062" xlink:href="#DejaVuSans-111"/>
      <use x="231.970703" xlink:href="#DejaVuSans-116"/>
     </g>
    </g>
   </g>
   <g id="text_18">
    <g clip-path="url(#pf0eed556cd)">
     <!-- RHip -->
     <g transform="translate(373.822657 385.384981)scale(0.1 -0.1)">
      <use xlink:href="#DejaVuSans-82"/>
      <use x="69.482422" xlink:href="#DejaVuSans-72"/>
      <use x="144.677734" xlink:href="#DejaVuSans-105"/>
      <use x="172.460938" xlink:href="#DejaVuSans-112"/>
     </g>
    </g>
   </g>
   <g id="text_19">
    <g clip-path="url(#pf0eed556cd)">
     <!-- RKnee -->
     <g transform="translate(373.871109 510.647797)scale(0.1 -0.1)">
      <use xlink:href="#DejaVuSans-82"/>
      <use x="69.482422" xlink:href="#DejaVuSans-75"/>
      <use x="135.058594" xlink:href="#DejaVuSans-110"/>
      <use x="198.4375" xlink:href="#DejaVuSans-101"/>
      <use x="259.960938" xlink:href="#DejaVuSans-101"/>
     </g>
    </g>
   </g>
   <g id="text_20">
    <g clip-path="url(#pf0eed556cd)">
     <!-- RAnkle -->
     <g transform="translate(292.924428 673.493318)scale(0.1 -0.1)">
      <use xlink:href="#DejaVuSans-82"/>
      <use x="65.482422" xlink:href="#DejaVuSans-65"/>
      <use x="133.890625" xlink:href="#DejaVuSans-110"/>
      <use x="197.269531" xlink:href="#DejaVuSans-107"/>
      <use x="255.179688" xlink:href="#DejaVuSans-108"/>
      <use x="282.962891" xlink:href="#DejaVuSans-101"/>
     </g>
    </g>
   </g>
   <g id="text_21">
    <g clip-path="url(#pf0eed556cd)">
     <!-- RFoot -->
     <g transform="translate(295.399267 707.844209)scale(0.1 -0.1)">
      <use xlink:href="#DejaVuSans-82"/>
      <use x="69.482422" xlink:href="#DejaVuSans-70"/>
      <use x="123.376953" xlink:href="#DejaVuSans-111"/>
      <use x="184.558594" xlink:href="#DejaVuSans-111"/>
      <use x="245.740234" xlink:href="#DejaVuSans-116"/>
     </g>
    </g>
   </g>
   <g id="text_22">
    <g clip-path="url(#pf0eed556cd)">
     <!-- LHandTip -->
     <g transform="translate(318.810241 327.969649)scale(0.1 -0.1)">
      <defs>
       <path d="M -0.296875 72.90625 
L 61.375 72.90625 
L 61.375 64.59375 
L 35.5 64.59375 
L 35.5 0 
L 25.59375 0 
L 25.59375 64.59375 
L -0.296875 64.59375 
z
" id="DejaVuSans-84"/>
      </defs>
      <use xlink:href="#DejaVuSans-76"/>
      <use x="55.712891" xlink:href="#DejaVuSans-72"/>
      <use x="130.908203" xlink:href="#DejaVuSans-97"/>
      <use x="192.1875" xlink:href="#DejaVuSans-110"/>
      <use x="255.566406" xlink:href="#DejaVuSans-100"/>
      <use x="319.042969" xlink:href="#DejaVuSans-84"/>
      <use x="377.001953" xlink:href="#DejaVuSans-105"/>
      <use x="404.785156" xlink:href="#DejaVuSans-112"/>
     </g>
    </g>
   </g>
   <g id="text_23">
    <g clip-path="url(#pf0eed556cd)">
     <!-- LThumb -->
     <g transform="translate(343.722957 306.782183)scale(0.1 -0.1)">
      <defs>
       <path d="M 52 44.1875 
Q 55.375 50.25 60.0625 53.125 
Q 64.75 56 71.09375 56 
Q 79.640625 56 84.28125 50.015625 
Q 88.921875 44.046875 88.921875 33.015625 
L 88.921875 0 
L 79.890625 0 
L 79.890625 32.71875 
Q 79.890625 40.578125 77.09375 44.375 
Q 74.3125 48.1875 68.609375 48.1875 
Q 61.625 48.1875 57.5625 43.546875 
Q 53.515625 38.921875 53.515625 30.90625 
L 53.515625 0 
L 44.484375 0 
L 44.484375 32.71875 
Q 44.484375 40.625 41.703125 44.40625 
Q 38.921875 48.1875 33.109375 48.1875 
Q 26.21875 48.1875 22.15625 43.53125 
Q 18.109375 38.875 18.109375 30.90625 
L 18.109375 0 
L 9.078125 0 
L 9.078125 54.6875 
L 18.109375 54.6875 
L 18.109375 46.1875 
Q 21.1875 51.21875 25.484375 53.609375 
Q 29.78125 56 35.6875 56 
Q 41.65625 56 45.828125 52.96875 
Q 50 49.953125 52 44.1875 
z
" id="DejaVuSans-109"/>
      </defs>
      <use xlink:href="#DejaVuSans-76"/>
      <use x="41.962891" xlink:href="#DejaVuSans-84"/>
      <use x="103.046875" xlink:href="#DejaVuSans-104"/>
      <use x="166.425781" xlink:href="#DejaVuSans-117"/>
      <use x="229.804688" xlink:href="#DejaVuSans-109"/>
      <use x="327.216797" xlink:href="#DejaVuSans-98"/>
     </g>
    </g>
   </g>
   <g id="text_24">
    <g clip-path="url(#pf0eed556cd)">
     <!-- RHandTip -->
     <g transform="translate(274.963524 328.914536)scale(0.1 -0.1)">
      <use xlink:href="#DejaVuSans-82"/>
      <use x="69.482422" xlink:href="#DejaVuSans-72"/>
      <use x="144.677734" xlink:href="#DejaVuSans-97"/>
      <use x="205.957031" xlink:href="#DejaVuSans-110"/>
      <use x="269.335938" xlink:href="#DejaVuSans-100"/>
      <use x="332.8125" xlink:href="#DejaVuSans-84"/>
      <use x="390.771484" xlink:href="#DejaVuSans-105"/>
      <use x="418.554688" xlink:href="#DejaVuSans-112"/>
     </g>
    </g>
   </g>
   <g id="text_25">
    <g clip-path="url(#pf0eed556cd)">
     <!-- RThumb -->
     <g transform="translate(351.99518 326.7098)scale(0.1 -0.1)">
      <use xlink:href="#DejaVuSans-82"/>
      <use x="62.232422" xlink:href="#DejaVuSans-84"/>
      <use x="123.316406" xlink:href="#DejaVuSans-104"/>
      <use x="186.695312" xlink:href="#DejaVuSans-117"/>
      <use x="250.074219" xlink:href="#DejaVuSans-109"/>
      <use x="347.486328" xlink:href="#DejaVuSans-98"/>
     </g>
    </g>
   </g>
   <g id="text_26">
    <!-- Node Graph Visualization - Frame 262 -->
    <g transform="translate(174.194063 -6)scale(0.12 -0.12)">
     <defs>
      <path d="M 9.8125 72.90625 
L 23.09375 72.90625 
L 55.421875 11.921875 
L 55.421875 72.90625 
L 64.984375 72.90625 
L 64.984375 0 
L 51.703125 0 
L 19.390625 60.984375 
L 19.390625 0 
L 9.8125 0 
z
" id="DejaVuSans-78"/>
      <path id="DejaVuSans-32"/>
      <path d="M 59.515625 10.40625 
L 59.515625 29.984375 
L 43.40625 29.984375 
L 43.40625 38.09375 
L 69.28125 38.09375 
L 69.28125 6.78125 
Q 63.578125 2.734375 56.6875 0.65625 
Q 49.8125 -1.421875 42 -1.421875 
Q 24.90625 -1.421875 15.25 8.5625 
Q 5.609375 18.5625 5.609375 36.375 
Q 5.609375 54.25 15.25 64.234375 
Q 24.90625 74.21875 42 74.21875 
Q 49.125 74.21875 55.546875 72.453125 
Q 61.96875 70.703125 67.390625 67.28125 
L 67.390625 56.78125 
Q 61.921875 61.421875 55.765625 63.765625 
Q 49.609375 66.109375 42.828125 66.109375 
Q 29.4375 66.109375 22.71875 58.640625 
Q 16.015625 51.171875 16.015625 36.375 
Q 16.015625 21.625 22.71875 14.15625 
Q 29.4375 6.6875 42.828125 6.6875 
Q 48.046875 6.6875 52.140625 7.59375 
Q 56.25 8.5 59.515625 10.40625 
z
" id="DejaVuSans-71"/>
      <path d="M 28.609375 0 
L 0.78125 72.90625 
L 11.078125 72.90625 
L 34.1875 11.53125 
L 57.328125 72.90625 
L 67.578125 72.90625 
L 39.796875 0 
z
" id="DejaVuSans-86"/>
      <path d="M 5.515625 54.6875 
L 48.1875 54.6875 
L 48.1875 46.484375 
L 14.40625 7.171875 
L 48.1875 7.171875 
L 48.1875 0 
L 4.296875 0 
L 4.296875 8.203125 
L 38.09375 47.515625 
L 5.515625 47.515625 
z
" id="DejaVuSans-122"/>
      <path d="M 4.890625 31.390625 
L 31.203125 31.390625 
L 31.203125 23.390625 
L 4.890625 23.390625 
z
" id="DejaVuSans-45"/>
      <path d="M 19.1875 8.296875 
L 53.609375 8.296875 
L 53.609375 0 
L 7.328125 0 
L 7.328125 8.296875 
Q 12.9375 14.109375 22.625 23.890625 
Q 32.328125 33.6875 34.8125 36.53125 
Q 39.546875 41.84375 41.421875 45.53125 
Q 43.3125 49.21875 43.3125 52.78125 
Q 43.3125 58.59375 39.234375 62.25 
Q 35.15625 65.921875 28.609375 65.921875 
Q 23.96875 65.921875 18.8125 64.3125 
Q 13.671875 62.703125 7.8125 59.421875 
L 7.8125 69.390625 
Q 13.765625 71.78125 18.9375 73 
Q 24.125 74.21875 28.421875 74.21875 
Q 39.75 74.21875 46.484375 68.546875 
Q 53.21875 62.890625 53.21875 53.421875 
Q 53.21875 48.921875 51.53125 44.890625 
Q 49.859375 40.875 45.40625 35.40625 
Q 44.1875 33.984375 37.640625 27.21875 
Q 31.109375 20.453125 19.1875 8.296875 
z
" id="DejaVuSans-50"/>
      <path d="M 33.015625 40.375 
Q 26.375 40.375 22.484375 35.828125 
Q 18.609375 31.296875 18.609375 23.390625 
Q 18.609375 15.53125 22.484375 10.953125 
Q 26.375 6.390625 33.015625 6.390625 
Q 39.65625 6.390625 43.53125 10.953125 
Q 47.40625 15.53125 47.40625 23.390625 
Q 47.40625 31.296875 43.53125 35.828125 
Q 39.65625 40.375 33.015625 40.375 
z
M 52.59375 71.296875 
L 52.59375 62.3125 
Q 48.875 64.0625 45.09375 64.984375 
Q 41.3125 65.921875 37.59375 65.921875 
Q 27.828125 65.921875 22.671875 59.328125 
Q 17.53125 52.734375 16.796875 39.40625 
Q 19.671875 43.65625 24.015625 45.921875 
Q 28.375 48.1875 33.59375 48.1875 
Q 44.578125 48.1875 50.953125 41.515625 
Q 57.328125 34.859375 57.328125 23.390625 
Q 57.328125 12.15625 50.6875 5.359375 
Q 44.046875 -1.421875 33.015625 -1.421875 
Q 20.359375 -1.421875 13.671875 8.265625 
Q 6.984375 17.96875 6.984375 36.375 
Q 6.984375 53.65625 15.1875 63.9375 
Q 23.390625 74.21875 37.203125 74.21875 
Q 40.921875 74.21875 44.703125 73.484375 
Q 48.484375 72.75 52.59375 71.296875 
z
" id="DejaVuSans-54"/>
     </defs>
     <use xlink:href="#DejaVuSans-78"/>
     <use x="74.804688" xlink:href="#DejaVuSans-111"/>
     <use x="135.986328" xlink:href="#DejaVuSans-100"/>
     <use x="199.462891" xlink:href="#DejaVuSans-101"/>
     <use x="260.986328" xlink:href="#DejaVuSans-32"/>
     <use x="292.773438" xlink:href="#DejaVuSans-71"/>
     <use x="370.263672" xlink:href="#DejaVuSans-114"/>
     <use x="411.376953" xlink:href="#DejaVuSans-97"/>
     <use x="472.65625" xlink:href="#DejaVuSans-112"/>
     <use x="536.132812" xlink:href="#DejaVuSans-104"/>
     <use x="599.511719" xlink:href="#DejaVuSans-32"/>
     <use x="631.298828" xlink:href="#DejaVuSans-86"/>
     <use x="697.457031" xlink:href="#DejaVuSans-105"/>
     <use x="725.240234" xlink:href="#DejaVuSans-115"/>
     <use x="777.339844" xlink:href="#DejaVuSans-117"/>
     <use x="840.71875" xlink:href="#DejaVuSans-97"/>
     <use x="901.998047" xlink:href="#DejaVuSans-108"/>
     <use x="929.78125" xlink:href="#DejaVuSans-105"/>
     <use x="957.564453" xlink:href="#DejaVuSans-122"/>
     <use x="1010.054688" xlink:href="#DejaVuSans-97"/>
     <use x="1071.333984" xlink:href="#DejaVuSans-116"/>
     <use x="1110.542969" xlink:href="#DejaVuSans-105"/>
     <use x="1138.326172" xlink:href="#DejaVuSans-111"/>
     <use x="1199.507812" xlink:href="#DejaVuSans-110"/>
     <use x="1262.886719" xlink:href="#DejaVuSans-32"/>
     <use x="1294.673828" xlink:href="#DejaVuSans-45"/>
     <use x="1330.757812" xlink:href="#DejaVuSans-32"/>
     <use x="1362.544922" xlink:href="#DejaVuSans-70"/>
     <use x="1412.814453" xlink:href="#DejaVuSans-114"/>
     <use x="1453.927734" xlink:href="#DejaVuSans-97"/>
     <use x="1515.207031" xlink:href="#DejaVuSans-109"/>
     <use x="1612.619141" xlink:href="#DejaVuSans-101"/>
     <use x="1674.142578" xlink:href="#DejaVuSans-32"/>
     <use x="1705.929688" xlink:href="#DejaVuSans-50"/>
     <use x="1769.552734" xlink:href="#DejaVuSans-54"/>
     <use x="1833.175781" xlink:href="#DejaVuSans-50"/>
    </g>
   </g>
  </g>
 </g>
 <defs>
  <clipPath id="pf0eed556cd">
   <rect height="864" width="576" x="0" y="0"/>
  </clipPath>
 </defs>
</svg>
