<?xml version="1.0" encoding="utf-8" standalone="no"?>
<!DOCTYPE svg PUBLIC "-//W3C//DTD SVG 1.1//EN"
  "http://www.w3.org/Graphics/SVG/1.1/DTD/svg11.dtd">
<!-- Created with matplotlib (https://matplotlib.org/) -->
<svg height="864pt" version="1.1" viewBox="0 0 576 864" width="576pt" xmlns="http://www.w3.org/2000/svg" xmlns:xlink="http://www.w3.org/1999/xlink">
 <metadata>
  <rdf:RDF xmlns:cc="http://creativecommons.org/ns#" xmlns:dc="http://purl.org/dc/elements/1.1/" xmlns:rdf="http://www.w3.org/1999/02/22-rdf-syntax-ns#">
   <cc:Work>
    <dc:type rdf:resource="http://purl.org/dc/dcmitype/StillImage"/>
    <dc:date>2024-02-04T22:28:04.865830</dc:date>
    <dc:format>image/svg+xml</dc:format>
    <dc:creator>
     <cc:Agent>
      <dc:title>Matplotlib v3.3.2, https://matplotlib.org/</dc:title>
     </cc:Agent>
    </dc:creator>
   </cc:Work>
  </rdf:RDF>
 </metadata>
 <defs>
  <style type="text/css">*{stroke-linecap:butt;stroke-linejoin:round;}</style>
 </defs>
 <g id="figure_1">
  <g id="patch_1">
   <path d="M 0 864 
L 576 864 
L 576 0 
L 0 0 
z
" style="fill:#ffffff;"/>
  </g>
  <g id="axes_1">
   <g id="patch_2">
    <path clip-path="url(#pba21c74a04)" d="M 280.457775 85.418424 
Q 269.710192 99.245293 259.648752 112.189434 
" style="fill:none;stroke:#000000;stroke-linecap:round;"/>
    <path clip-path="url(#pba21c74a04)" d="M 263.682641 110.258697 
L 259.648752 112.189434 
L 260.524496 107.803881 
L 263.682641 110.258697 
z
" style="stroke:#000000;stroke-linecap:round;"/>
   </g>
   <g id="patch_3">
    <path clip-path="url(#pba21c74a04)" d="M 251.344334 136.735672 
Q 251.506051 141.023223 251.625628 144.193534 
" style="fill:none;stroke:#000000;stroke-linecap:round;"/>
    <path clip-path="url(#pba21c74a04)" d="M 253.473443 140.120995 
L 251.625628 144.193534 
L 249.476285 140.271758 
L 253.473443 140.120995 
z
" style="stroke:#000000;stroke-linecap:round;"/>
   </g>
   <g id="patch_4">
    <path clip-path="url(#pba21c74a04)" d="M 258.963149 113.07147 
Q 269.710731 99.2446 279.772171 86.300459 
" style="fill:none;stroke:#000000;stroke-linecap:round;"/>
    <path clip-path="url(#pba21c74a04)" d="M 275.738283 88.231196 
L 279.772171 86.300459 
L 278.896428 90.686012 
L 275.738283 88.231196 
z
" style="stroke:#000000;stroke-linecap:round;"/>
   </g>
   <g id="patch_5">
    <path clip-path="url(#pba21c74a04)" d="M 252.251556 171.759856 
Q 252.512138 212.246454 252.765523 251.615042 
" style="fill:none;stroke:#000000;stroke-linecap:round;"/>
    <path clip-path="url(#pba21c74a04)" d="M 254.739737 247.602253 
L 252.765523 251.615042 
L 250.73982 247.627997 
L 254.739737 247.602253 
z
" style="stroke:#000000;stroke-linecap:round;"/>
   </g>
   <g id="patch_6">
    <path clip-path="url(#pba21c74a04)" d="M 238.984505 159.641252 
Q 196.17065 163.246369 154.470887 166.757674 
" style="fill:none;stroke:#000000;stroke-linecap:round;"/>
    <path clip-path="url(#pba21c74a04)" d="M 158.624596 168.414991 
L 154.470887 166.757674 
L 158.288966 164.429097 
L 158.624596 168.414991 
z
" style="stroke:#000000;stroke-linecap:round;"/>
   </g>
   <g id="patch_7">
    <path clip-path="url(#pba21c74a04)" d="M 265.285683 160.24989 
Q 315.035041 166.767013 363.675836 173.138916 
" style="fill:none;stroke:#000000;stroke-linecap:round;"/>
    <path clip-path="url(#pba21c74a04)" d="M 359.969501 170.636301 
L 363.675836 173.138916 
L 359.449943 174.602415 
L 359.969501 170.636301 
z
" style="stroke:#000000;stroke-linecap:round;"/>
   </g>
   <g id="patch_8">
    <path clip-path="url(#pba21c74a04)" d="M 251.667749 145.310291 
Q 251.506033 141.022741 251.386456 137.852429 
" style="fill:none;stroke:#000000;stroke-linecap:round;"/>
    <path clip-path="url(#pba21c74a04)" d="M 249.53864 141.924969 
L 251.386456 137.852429 
L 253.535798 141.774205 
L 249.53864 141.924969 
z
" style="stroke:#000000;stroke-linecap:round;"/>
   </g>
   <g id="patch_9">
    <path clip-path="url(#pba21c74a04)" d="M 252.628179 279.185309 
Q 251.588776 339.039275 250.568784 397.775375 
" style="fill:none;stroke:#000000;stroke-linecap:round;"/>
    <path clip-path="url(#pba21c74a04)" d="M 252.637935 393.810704 
L 250.568784 397.775375 
L 248.638538 393.741252 
L 252.637935 393.810704 
z
" style="stroke:#000000;stroke-linecap:round;"/>
   </g>
   <g id="patch_10">
    <path clip-path="url(#pba21c74a04)" d="M 252.772707 252.731217 
Q 252.512126 212.244619 252.25874 172.876031 
" style="fill:none;stroke:#000000;stroke-linecap:round;"/>
    <path clip-path="url(#pba21c74a04)" d="M 250.284526 176.88882 
L 252.25874 172.876031 
L 254.284443 176.863076 
L 250.284526 176.88882 
z
" style="stroke:#000000;stroke-linecap:round;"/>
   </g>
   <g id="patch_11">
    <path clip-path="url(#pba21c74a04)" d="M 237.097594 411.613362 
Q 217.605052 410.862178 199.229716 410.154047 
" style="fill:none;stroke:#000000;stroke-linecap:round;"/>
    <path clip-path="url(#pba21c74a04)" d="M 203.149732 412.306597 
L 199.229716 410.154047 
L 203.303766 408.309564 
L 203.149732 412.306597 
z
" style="stroke:#000000;stroke-linecap:round;"/>
   </g>
   <g id="patch_12">
    <path clip-path="url(#pba21c74a04)" d="M 263.52189 411.303712 
Q 274.136791 410.645066 283.635804 410.055661 
" style="fill:none;stroke:#000000;stroke-linecap:round;"/>
    <path clip-path="url(#pba21c74a04)" d="M 279.519622 408.30722 
L 283.635804 410.055661 
L 279.767342 412.299542 
L 279.519622 408.30722 
z
" style="stroke:#000000;stroke-linecap:round;"/>
   </g>
   <g id="patch_13">
    <path clip-path="url(#pba21c74a04)" d="M 250.5493 398.897388 
Q 251.588704 339.043422 252.608695 280.307321 
" style="fill:none;stroke:#000000;stroke-linecap:round;"/>
    <path clip-path="url(#pba21c74a04)" d="M 250.539544 284.271992 
L 252.608695 280.307321 
L 254.538941 284.341444 
L 250.539544 284.271992 
z
" style="stroke:#000000;stroke-linecap:round;"/>
   </g>
   <g id="patch_14">
    <path clip-path="url(#pba21c74a04)" d="M 132.950005 179.038433 
Q 102.861494 225.159047 73.38387 270.343275 
" style="fill:none;stroke:#000000;stroke-linecap:round;"/>
    <path clip-path="url(#pba21c74a04)" d="M 77.2445 268.085947 
L 73.38387 270.343275 
L 73.894385 265.900374 
L 77.2445 268.085947 
z
" style="stroke:#000000;stroke-linecap:round;"/>
   </g>
   <g id="patch_15">
    <path clip-path="url(#pba21c74a04)" d="M 153.358485 166.851344 
Q 196.17234 163.246227 237.872103 159.734921 
" style="fill:none;stroke:#000000;stroke-linecap:round;"/>
    <path clip-path="url(#pba21c74a04)" d="M 233.718394 158.077604 
L 237.872103 159.734921 
L 234.054024 162.063498 
L 233.718394 158.077604 
z
" style="stroke:#000000;stroke-linecap:round;"/>
   </g>
   <g id="patch_16">
    <path clip-path="url(#pba21c74a04)" d="M 63.931481 295.483892 
Q 57.765165 345.597503 51.73539 394.601448 
" style="fill:none;stroke:#000000;stroke-linecap:round;"/>
    <path clip-path="url(#pba21c74a04)" d="M 54.208922 390.87564 
L 51.73539 394.601448 
L 50.238863 390.387138 
L 54.208922 390.87564 
z
" style="stroke:#000000;stroke-linecap:round;"/>
   </g>
   <g id="patch_17">
    <path clip-path="url(#pba21c74a04)" d="M 72.773375 271.279061 
Q 102.861885 225.158447 132.33951 179.974219 
" style="fill:none;stroke:#000000;stroke-linecap:round;"/>
    <path clip-path="url(#pba21c74a04)" d="M 128.478879 182.231548 
L 132.33951 179.974219 
L 131.828994 184.417121 
L 128.478879 182.231548 
z
" style="stroke:#000000;stroke-linecap:round;"/>
   </g>
   <g id="patch_18">
    <path clip-path="url(#pba21c74a04)" d="M 53.975284 421.44896 
Q 55.416855 426.002718 56.520997 429.490577 
" style="fill:none;stroke:#000000;stroke-linecap:round;"/>
    <path clip-path="url(#pba21c74a04)" d="M 57.220514 425.073488 
L 56.520997 429.490577 
L 53.407036 426.28071 
L 57.220514 425.073488 
z
" style="stroke:#000000;stroke-linecap:round;"/>
   </g>
   <g id="patch_19">
    <path clip-path="url(#pba21c74a04)" d="M 51.598794 395.71156 
Q 57.76511 345.59795 63.794886 296.594005 
" style="fill:none;stroke:#000000;stroke-linecap:round;"/>
    <path clip-path="url(#pba21c74a04)" d="M 61.321354 300.319812 
L 63.794886 296.594005 
L 65.291412 300.808315 
L 61.321354 300.319812 
z
" style="stroke:#000000;stroke-linecap:round;"/>
   </g>
   <g id="patch_20">
    <path clip-path="url(#pba21c74a04)" d="M 59.042419 456.271013 
Q 58.50774 460.143996 58.12596 462.90945 
" style="fill:none;stroke:#000000;stroke-linecap:round;"/>
    <path clip-path="url(#pba21c74a04)" d="M 60.654195 459.220544 
L 58.12596 462.90945 
L 56.691776 458.673518 
L 60.654195 459.220544 
z
" style="stroke:#000000;stroke-linecap:round;"/>
   </g>
   <g id="patch_21">
    <path clip-path="url(#pba21c74a04)" d="M 74.071962 443.614625 
Q 80.519764 443.831895 85.850166 444.011512 
" style="fill:none;stroke:#000000;stroke-linecap:round;"/>
    <path clip-path="url(#pba21c74a04)" d="M 81.91979 441.877936 
L 85.850166 444.011512 
L 81.785079 445.875667 
L 81.91979 441.877936 
z
" style="stroke:#000000;stroke-linecap:round;"/>
   </g>
   <g id="patch_22">
    <path clip-path="url(#pba21c74a04)" d="M 56.859366 430.559445 
Q 55.417795 426.005687 54.313653 422.517828 
" style="fill:none;stroke:#000000;stroke-linecap:round;"/>
    <path clip-path="url(#pba21c74a04)" d="M 53.614136 426.934917 
L 54.313653 422.517828 
L 57.427614 425.727694 
L 53.614136 426.934917 
z
" style="stroke:#000000;stroke-linecap:round;"/>
   </g>
   <g id="patch_23">
    <path clip-path="url(#pba21c74a04)" d="M 384.379253 186.534556 
Q 404.772772 222.846335 424.618813 258.183298 
" style="fill:none;stroke:#000000;stroke-linecap:round;"/>
    <path clip-path="url(#pba21c74a04)" d="M 424.403897 253.716329 
L 424.618813 258.183298 
L 420.916288 255.675049 
L 424.403897 253.716329 
z
" style="stroke:#000000;stroke-linecap:round;"/>
   </g>
   <g id="patch_24">
    <path clip-path="url(#pba21c74a04)" d="M 364.783385 173.284004 
Q 315.034027 166.76688 266.393232 160.394978 
" style="fill:none;stroke:#000000;stroke-linecap:round;"/>
    <path clip-path="url(#pba21c74a04)" d="M 270.099567 162.897592 
L 266.393232 160.394978 
L 270.619124 158.931478 
L 270.099567 162.897592 
z
" style="stroke:#000000;stroke-linecap:round;"/>
   </g>
   <g id="patch_25">
    <path clip-path="url(#pba21c74a04)" d="M 437.075443 282.755438 
Q 453.206499 318.583244 468.878552 353.391581 
" style="fill:none;stroke:#000000;stroke-linecap:round;"/>
    <path clip-path="url(#pba21c74a04)" d="M 469.06005 348.92313 
L 468.878552 353.391581 
L 465.41269 350.565312 
L 469.06005 348.92313 
z
" style="stroke:#000000;stroke-linecap:round;"/>
   </g>
   <g id="patch_26">
    <path clip-path="url(#pba21c74a04)" d="M 425.167558 259.160369 
Q 404.774038 222.84859 384.927998 187.511627 
" style="fill:none;stroke:#000000;stroke-linecap:round;"/>
    <path clip-path="url(#pba21c74a04)" d="M 385.142914 191.978596 
L 384.927998 187.511627 
L 388.630522 190.019876 
L 385.142914 191.978596 
z
" style="stroke:#000000;stroke-linecap:round;"/>
   </g>
   <g id="patch_27">
    <path clip-path="url(#pba21c74a04)" d="M 483.090376 376.750505 
Q 484.911703 378.999844 486.029464 380.380278 
" style="fill:none;stroke:#000000;stroke-linecap:round;"/>
    <path clip-path="url(#pba21c74a04)" d="M 485.066652 376.013014 
L 486.029464 380.380278 
L 481.957966 378.53017 
L 485.066652 376.013014 
z
" style="stroke:#000000;stroke-linecap:round;"/>
   </g>
   <g id="patch_28">
    <path clip-path="url(#pba21c74a04)" d="M 469.336778 354.409321 
Q 453.205721 318.581515 437.533668 283.773178 
" style="fill:none;stroke:#000000;stroke-linecap:round;"/>
    <path clip-path="url(#pba21c74a04)" d="M 437.35217 288.24163 
L 437.533668 283.773178 
L 440.99953 286.599448 
L 437.35217 288.24163 
z
" style="stroke:#000000;stroke-linecap:round;"/>
   </g>
   <g id="patch_29">
    <path clip-path="url(#pba21c74a04)" d="M 491.560817 393.566361 
Q 494.886328 402.050768 497.80384 409.494245 
" style="fill:none;stroke:#000000;stroke-linecap:round;"/>
    <path clip-path="url(#pba21c74a04)" d="M 498.206213 405.040248 
L 497.80384 409.494245 
L 494.482066 406.499948 
L 498.206213 405.040248 
z
" style="stroke:#000000;stroke-linecap:round;"/>
   </g>
   <g id="patch_30">
    <path clip-path="url(#pba21c74a04)" d="M 499.963398 381.467646 
Q 506.376501 381.57354 511.671722 381.660976 
" style="fill:none;stroke:#000000;stroke-linecap:round;"/>
    <path clip-path="url(#pba21c74a04)" d="M 507.705287 379.595209 
L 511.671722 381.660976 
L 507.639247 383.594664 
L 507.705287 379.595209 
z
" style="stroke:#000000;stroke-linecap:round;"/>
   </g>
   <g id="patch_31">
    <path clip-path="url(#pba21c74a04)" d="M 478.410718 370.971129 
Q 476.589391 368.72179 475.471629 367.341355 
" style="fill:none;stroke:#000000;stroke-linecap:round;"/>
    <path clip-path="url(#pba21c74a04)" d="M 476.434442 371.708619 
L 475.471629 367.341355 
L 479.543128 369.191464 
L 476.434442 371.708619 
z
" style="stroke:#000000;stroke-linecap:round;"/>
   </g>
   <g id="patch_32">
    <path clip-path="url(#pba21c74a04)" d="M 182.905748 422.682226 
Q 173.539431 484.355467 164.340984 544.923348 
" style="fill:none;stroke:#000000;stroke-linecap:round;"/>
    <path clip-path="url(#pba21c74a04)" d="M 166.918905 541.268991 
L 164.340984 544.923348 
L 162.964251 540.668397 
L 166.918905 541.268991 
z
" style="stroke:#000000;stroke-linecap:round;"/>
   </g>
   <g id="patch_33">
    <path clip-path="url(#pba21c74a04)" d="M 198.114351 410.111064 
Q 217.606892 410.862249 235.982229 411.57038 
" style="fill:none;stroke:#000000;stroke-linecap:round;"/>
    <path clip-path="url(#pba21c74a04)" d="M 232.062212 409.417829 
L 235.982229 411.57038 
L 231.908179 413.414862 
L 232.062212 409.417829 
z
" style="stroke:#000000;stroke-linecap:round;"/>
   </g>
   <g id="patch_34">
    <path clip-path="url(#pba21c74a04)" d="M 163.348472 572.278723 
Q 169.174644 638.363813 174.902629 703.335189 
" style="fill:none;stroke:#000000;stroke-linecap:round;"/>
    <path clip-path="url(#pba21c74a04)" d="M 176.543617 699.175002 
L 174.902629 703.335189 
L 172.559072 699.526286 
L 176.543617 699.175002 
z
" style="stroke:#000000;stroke-linecap:round;"/>
   </g>
   <g id="patch_35">
    <path clip-path="url(#pba21c74a04)" d="M 164.17368 546.024973 
Q 173.539998 484.351733 182.738444 423.783852 
" style="fill:none;stroke:#000000;stroke-linecap:round;"/>
    <path clip-path="url(#pba21c74a04)" d="M 180.160524 427.438209 
L 182.738444 423.783852 
L 184.115177 428.038803 
L 180.160524 427.438209 
z
" style="stroke:#000000;stroke-linecap:round;"/>
   </g>
   <g id="patch_36">
    <path clip-path="url(#pba21c74a04)" d="M 182.765613 729.09322 
Q 186.365015 735.343495 189.40647 740.624908 
" style="fill:none;stroke:#000000;stroke-linecap:round;"/>
    <path clip-path="url(#pba21c74a04)" d="M 189.14345 736.160513 
L 189.40647 740.624908 
L 185.677142 738.156687 
L 189.14345 736.160513 
z
" style="stroke:#000000;stroke-linecap:round;"/>
   </g>
   <g id="patch_37">
    <path clip-path="url(#pba21c74a04)" d="M 175.00129 704.454282 
Q 169.175118 638.369192 163.447133 573.397816 
" style="fill:none;stroke:#000000;stroke-linecap:round;"/>
    <path clip-path="url(#pba21c74a04)" d="M 161.806145 577.558003 
L 163.447133 573.397816 
L 165.79069 577.206719 
L 161.806145 577.558003 
z
" style="stroke:#000000;stroke-linecap:round;"/>
   </g>
   <g id="patch_38">
    <path clip-path="url(#pba21c74a04)" d="M 189.963866 741.592813 
Q 186.364464 735.342538 183.323009 730.061126 
" style="fill:none;stroke:#000000;stroke-linecap:round;"/>
    <path clip-path="url(#pba21c74a04)" d="M 183.586029 734.52552 
L 183.323009 730.061126 
L 187.052337 732.529346 
L 183.586029 734.52552 
z
" style="stroke:#000000;stroke-linecap:round;"/>
   </g>
   <g id="patch_39">
    <path clip-path="url(#pba21c74a04)" d="M 297.893155 422.392704 
Q 297.599815 486.581418 297.311584 549.652109 
" style="fill:none;stroke:#000000;stroke-linecap:round;"/>
    <path clip-path="url(#pba21c74a04)" d="M 299.329843 545.661291 
L 297.311584 549.652109 
L 295.329885 545.643011 
L 299.329843 545.661291 
z
" style="stroke:#000000;stroke-linecap:round;"/>
   </g>
   <g id="patch_40">
    <path clip-path="url(#pba21c74a04)" d="M 284.751334 409.986443 
Q 274.136433 410.645089 264.63742 411.234494 
" style="fill:none;stroke:#000000;stroke-linecap:round;"/>
    <path clip-path="url(#pba21c74a04)" d="M 268.753602 412.982935 
L 264.63742 411.234494 
L 268.505882 408.990613 
L 268.753602 412.982935 
z
" style="stroke:#000000;stroke-linecap:round;"/>
   </g>
   <g id="patch_41">
    <path clip-path="url(#pba21c74a04)" d="M 297.571342 577.224832 
Q 299.576131 658.735102 301.553429 739.127676 
" style="fill:none;stroke:#000000;stroke-linecap:round;"/>
    <path clip-path="url(#pba21c74a04)" d="M 303.454472 735.07971 
L 301.553429 739.127676 
L 299.455681 735.178062 
L 303.454472 735.07971 
z
" style="stroke:#000000;stroke-linecap:round;"/>
   </g>
   <g id="patch_42">
    <path clip-path="url(#pba21c74a04)" d="M 297.306463 550.772652 
Q 297.599803 486.583938 297.888034 423.513247 
" style="fill:none;stroke:#000000;stroke-linecap:round;"/>
    <path clip-path="url(#pba21c74a04)" d="M 295.869775 427.504065 
L 297.888034 423.513247 
L 299.869733 427.522345 
L 295.869775 427.504065 
z
" style="stroke:#000000;stroke-linecap:round;"/>
   </g>
   <g id="patch_43">
    <path clip-path="url(#pba21c74a04)" d="M 300.655513 766.641508 
Q 300.218025 771.249591 299.886208 774.744644 
" style="fill:none;stroke:#000000;stroke-linecap:round;"/>
    <path clip-path="url(#pba21c74a04)" d="M 302.255312 770.951578 
L 299.886208 774.744644 
L 298.273218 770.573521 
L 302.255312 770.951578 
z
" style="stroke:#000000;stroke-linecap:round;"/>
   </g>
   <g id="patch_44">
    <path clip-path="url(#pba21c74a04)" d="M 301.58083 740.241757 
Q 299.576042 658.731487 297.598743 578.338912 
" style="fill:none;stroke:#000000;stroke-linecap:round;"/>
    <path clip-path="url(#pba21c74a04)" d="M 295.697701 582.386879 
L 297.598743 578.338912 
L 299.696491 582.288527 
L 295.697701 582.386879 
z
" style="stroke:#000000;stroke-linecap:round;"/>
   </g>
   <g id="patch_45">
    <path clip-path="url(#pba21c74a04)" d="M 299.781098 775.851772 
Q 300.218586 771.24369 300.550403 767.748637 
" style="fill:none;stroke:#000000;stroke-linecap:round;"/>
    <path clip-path="url(#pba21c74a04)" d="M 298.181299 771.541702 
L 300.550403 767.748637 
L 302.163393 771.919759 
L 298.181299 771.541702 
z
" style="stroke:#000000;stroke-linecap:round;"/>
   </g>
   <g id="patch_46">
    <path clip-path="url(#pba21c74a04)" d="M 57.972383 464.021891 
Q 58.507062 460.148908 58.888843 457.383454 
" style="fill:none;stroke:#000000;stroke-linecap:round;"/>
    <path clip-path="url(#pba21c74a04)" d="M 56.360608 461.07236 
L 58.888843 457.383454 
L 60.323026 461.619386 
L 56.360608 461.07236 
z
" style="stroke:#000000;stroke-linecap:round;"/>
   </g>
   <g id="patch_47">
    <path clip-path="url(#pba21c74a04)" d="M 73.746783 443.603668 
Q 67.298981 443.386398 61.968579 443.206781 
" style="fill:none;stroke:#000000;stroke-linecap:round;"/>
    <path clip-path="url(#pba21c74a04)" d="M 65.898955 445.340357 
L 61.968579 443.206781 
L 66.033665 441.342626 
L 65.898955 445.340357 
z
" style="stroke:#000000;stroke-linecap:round;"/>
   </g>
   <g id="patch_48">
    <path clip-path="url(#pba21c74a04)" d="M 498.210841 410.532632 
Q 494.885331 402.048225 491.967819 394.604748 
" style="fill:none;stroke:#000000;stroke-linecap:round;"/>
    <path clip-path="url(#pba21c74a04)" d="M 491.565445 399.058745 
L 491.967819 394.604748 
L 495.289593 397.599045 
L 491.565445 399.058745 
z
" style="stroke:#000000;stroke-linecap:round;"/>
   </g>
   <g id="patch_49">
    <path clip-path="url(#pba21c74a04)" d="M 512.786161 381.679378 
Q 506.373059 381.573483 501.077837 381.486047 
" style="fill:none;stroke:#000000;stroke-linecap:round;"/>
    <path clip-path="url(#pba21c74a04)" d="M 505.044272 383.551815 
L 501.077837 381.486047 
L 505.110312 379.55236 
L 505.044272 383.551815 
z
" style="stroke:#000000;stroke-linecap:round;"/>
   </g>
   <g id="PathCollection_1">
    <defs>
     <path d="M 0 13.228757 
C 3.508307 13.228757 6.873396 11.834891 9.354143 9.354143 
C 11.834891 6.873396 13.228757 3.508307 13.228757 0 
C 13.228757 -3.508307 11.834891 -6.873396 9.354143 -9.354143 
C 6.873396 -11.834891 3.508307 -13.228757 0 -13.228757 
C -3.508307 -13.228757 -6.873396 -11.834891 -9.354143 -9.354143 
C -11.834891 -6.873396 -13.228757 -3.508307 -13.228757 0 
C -13.228757 3.508307 -11.834891 6.873396 -9.354143 9.354143 
C -6.873396 11.834891 -3.508307 13.228757 0 13.228757 
z
" id="m3add5165b5" style="stroke:#87ceeb;"/>
    </defs>
    <g clip-path="url(#pba21c74a04)">
     <use style="fill:#87ceeb;stroke:#87ceeb;" x="288.575254" xlink:href="#m3add5165b5" y="74.975207"/>
     <use style="fill:#87ceeb;stroke:#87ceeb;" x="250.845669" xlink:href="#m3add5165b5" y="123.514687"/>
     <use style="fill:#87ceeb;stroke:#87ceeb;" x="252.166414" xlink:href="#m3add5165b5" y="158.531277"/>
     <use style="fill:#87ceeb;stroke:#87ceeb;" x="252.857849" xlink:href="#m3add5165b5" y="265.959796"/>
     <use style="fill:#87ceeb;stroke:#87ceeb;" x="250.31963" xlink:href="#m3add5165b5" y="412.1229"/>
     <use style="fill:#87ceeb;stroke:#87ceeb;" x="140.176576" xlink:href="#m3add5165b5" y="167.961319"/>
     <use style="fill:#87ceeb;stroke:#87ceeb;" x="65.546804" xlink:href="#m3add5165b5" y="282.356176"/>
     <use style="fill:#87ceeb;stroke:#87ceeb;" x="49.983471" xlink:href="#m3add5165b5" y="408.839277"/>
     <use style="fill:#87ceeb;stroke:#87ceeb;" x="60.851179" xlink:href="#m3add5165b5" y="443.169128"/>
     <use style="fill:#87ceeb;stroke:#87ceeb;" x="377.902654" xlink:href="#m3add5165b5" y="175.002617"/>
     <use style="fill:#87ceeb;stroke:#87ceeb;" x="431.644157" xlink:href="#m3add5165b5" y="270.692308"/>
     <use style="fill:#87ceeb;stroke:#87ceeb;" x="474.768063" xlink:href="#m3add5165b5" y="366.472451"/>
     <use style="fill:#87ceeb;stroke:#87ceeb;" x="486.733031" xlink:href="#m3add5165b5" y="381.249182"/>
     <use style="fill:#87ceeb;stroke:#87ceeb;" x="184.892314" xlink:href="#m3add5165b5" y="409.601526"/>
     <use style="fill:#87ceeb;stroke:#87ceeb;" x="162.187114" xlink:href="#m3add5165b5" y="559.105674"/>
     <use style="fill:#87ceeb;stroke:#87ceeb;" x="176.162648" xlink:href="#m3add5165b5" y="717.627331"/>
     <use style="fill:#87ceeb;stroke:#87ceeb;" x="196.566831" xlink:href="#m3add5165b5" y="753.058703"/>
     <use style="fill:#87ceeb;stroke:#87ceeb;" x="297.953595" xlink:href="#m3add5165b5" y="409.167254"/>
     <use style="fill:#87ceeb;stroke:#87ceeb;" x="297.246024" xlink:href="#m3add5165b5" y="563.998102"/>
     <use style="fill:#87ceeb;stroke:#87ceeb;" x="301.906149" xlink:href="#m3add5165b5" y="753.468487"/>
     <use style="fill:#87ceeb;stroke:#87ceeb;" x="298.530462" xlink:href="#m3add5165b5" y="789.024793"/>
     <use style="fill:#87ceeb;stroke:#87ceeb;" x="56.163623" xlink:href="#m3add5165b5" y="477.123776"/>
     <use style="fill:#87ceeb;stroke:#87ceeb;" x="86.967565" xlink:href="#m3add5165b5" y="444.049165"/>
     <use style="fill:#87ceeb;stroke:#87ceeb;" x="503.038627" xlink:href="#m3add5165b5" y="422.849811"/>
     <use style="fill:#87ceeb;stroke:#87ceeb;" x="526.016529" xlink:href="#m3add5165b5" y="381.897841"/>
    </g>
   </g>
   <g id="text_1">
    <g clip-path="url(#pba21c74a04)">
     <!-- Head -->
     <g transform="translate(275.500254 77.734582)scale(0.1 -0.1)">
      <defs>
       <path d="M 9.8125 72.90625 
L 19.671875 72.90625 
L 19.671875 43.015625 
L 55.515625 43.015625 
L 55.515625 72.90625 
L 65.375 72.90625 
L 65.375 0 
L 55.515625 0 
L 55.515625 34.71875 
L 19.671875 34.71875 
L 19.671875 0 
L 9.8125 0 
z
" id="DejaVuSans-72"/>
       <path d="M 56.203125 29.59375 
L 56.203125 25.203125 
L 14.890625 25.203125 
Q 15.484375 15.921875 20.484375 11.0625 
Q 25.484375 6.203125 34.421875 6.203125 
Q 39.59375 6.203125 44.453125 7.46875 
Q 49.3125 8.734375 54.109375 11.28125 
L 54.109375 2.78125 
Q 49.265625 0.734375 44.1875 -0.34375 
Q 39.109375 -1.421875 33.890625 -1.421875 
Q 20.796875 -1.421875 13.15625 6.1875 
Q 5.515625 13.8125 5.515625 26.8125 
Q 5.515625 40.234375 12.765625 48.109375 
Q 20.015625 56 32.328125 56 
Q 43.359375 56 49.78125 48.890625 
Q 56.203125 41.796875 56.203125 29.59375 
z
M 47.21875 32.234375 
Q 47.125 39.59375 43.09375 43.984375 
Q 39.0625 48.390625 32.421875 48.390625 
Q 24.90625 48.390625 20.390625 44.140625 
Q 15.875 39.890625 15.1875 32.171875 
z
" id="DejaVuSans-101"/>
       <path d="M 34.28125 27.484375 
Q 23.390625 27.484375 19.1875 25 
Q 14.984375 22.515625 14.984375 16.5 
Q 14.984375 11.71875 18.140625 8.90625 
Q 21.296875 6.109375 26.703125 6.109375 
Q 34.1875 6.109375 38.703125 11.40625 
Q 43.21875 16.703125 43.21875 25.484375 
L 43.21875 27.484375 
z
M 52.203125 31.203125 
L 52.203125 0 
L 43.21875 0 
L 43.21875 8.296875 
Q 40.140625 3.328125 35.546875 0.953125 
Q 30.953125 -1.421875 24.3125 -1.421875 
Q 15.921875 -1.421875 10.953125 3.296875 
Q 6 8.015625 6 15.921875 
Q 6 25.140625 12.171875 29.828125 
Q 18.359375 34.515625 30.609375 34.515625 
L 43.21875 34.515625 
L 43.21875 35.40625 
Q 43.21875 41.609375 39.140625 45 
Q 35.0625 48.390625 27.6875 48.390625 
Q 23 48.390625 18.546875 47.265625 
Q 14.109375 46.140625 10.015625 43.890625 
L 10.015625 52.203125 
Q 14.9375 54.109375 19.578125 55.046875 
Q 24.21875 56 28.609375 56 
Q 40.484375 56 46.34375 49.84375 
Q 52.203125 43.703125 52.203125 31.203125 
z
" id="DejaVuSans-97"/>
       <path d="M 45.40625 46.390625 
L 45.40625 75.984375 
L 54.390625 75.984375 
L 54.390625 0 
L 45.40625 0 
L 45.40625 8.203125 
Q 42.578125 3.328125 38.25 0.953125 
Q 33.9375 -1.421875 27.875 -1.421875 
Q 17.96875 -1.421875 11.734375 6.484375 
Q 5.515625 14.40625 5.515625 27.296875 
Q 5.515625 40.1875 11.734375 48.09375 
Q 17.96875 56 27.875 56 
Q 33.9375 56 38.25 53.625 
Q 42.578125 51.265625 45.40625 46.390625 
z
M 14.796875 27.296875 
Q 14.796875 17.390625 18.875 11.75 
Q 22.953125 6.109375 30.078125 6.109375 
Q 37.203125 6.109375 41.296875 11.75 
Q 45.40625 17.390625 45.40625 27.296875 
Q 45.40625 37.203125 41.296875 42.84375 
Q 37.203125 48.484375 30.078125 48.484375 
Q 22.953125 48.484375 18.875 42.84375 
Q 14.796875 37.203125 14.796875 27.296875 
z
" id="DejaVuSans-100"/>
      </defs>
      <use xlink:href="#DejaVuSans-72"/>
      <use x="75.195312" xlink:href="#DejaVuSans-101"/>
      <use x="136.71875" xlink:href="#DejaVuSans-97"/>
      <use x="197.998047" xlink:href="#DejaVuSans-100"/>
     </g>
    </g>
   </g>
   <g id="text_2">
    <g clip-path="url(#pba21c74a04)">
     <!-- c7 -->
     <g transform="translate(244.9152 126.274062)scale(0.1 -0.1)">
      <defs>
       <path d="M 48.78125 52.59375 
L 48.78125 44.1875 
Q 44.96875 46.296875 41.140625 47.34375 
Q 37.3125 48.390625 33.40625 48.390625 
Q 24.65625 48.390625 19.8125 42.84375 
Q 14.984375 37.3125 14.984375 27.296875 
Q 14.984375 17.28125 19.8125 11.734375 
Q 24.65625 6.203125 33.40625 6.203125 
Q 37.3125 6.203125 41.140625 7.25 
Q 44.96875 8.296875 48.78125 10.40625 
L 48.78125 2.09375 
Q 45.015625 0.34375 40.984375 -0.53125 
Q 36.96875 -1.421875 32.421875 -1.421875 
Q 20.0625 -1.421875 12.78125 6.34375 
Q 5.515625 14.109375 5.515625 27.296875 
Q 5.515625 40.671875 12.859375 48.328125 
Q 20.21875 56 33.015625 56 
Q 37.15625 56 41.109375 55.140625 
Q 45.0625 54.296875 48.78125 52.59375 
z
" id="DejaVuSans-99"/>
       <path d="M 8.203125 72.90625 
L 55.078125 72.90625 
L 55.078125 68.703125 
L 28.609375 0 
L 18.3125 0 
L 43.21875 64.59375 
L 8.203125 64.59375 
z
" id="DejaVuSans-55"/>
      </defs>
      <use xlink:href="#DejaVuSans-99"/>
      <use x="54.980469" xlink:href="#DejaVuSans-55"/>
     </g>
    </g>
   </g>
   <g id="text_3">
    <g clip-path="url(#pba21c74a04)">
     <!-- SpineShoulder -->
     <g transform="translate(215.917196 161.290652)scale(0.1 -0.1)">
      <defs>
       <path d="M 53.515625 70.515625 
L 53.515625 60.890625 
Q 47.90625 63.578125 42.921875 64.890625 
Q 37.9375 66.21875 33.296875 66.21875 
Q 25.25 66.21875 20.875 63.09375 
Q 16.5 59.96875 16.5 54.203125 
Q 16.5 49.359375 19.40625 46.890625 
Q 22.3125 44.4375 30.421875 42.921875 
L 36.375 41.703125 
Q 47.40625 39.59375 52.65625 34.296875 
Q 57.90625 29 57.90625 20.125 
Q 57.90625 9.515625 50.796875 4.046875 
Q 43.703125 -1.421875 29.984375 -1.421875 
Q 24.8125 -1.421875 18.96875 -0.25 
Q 13.140625 0.921875 6.890625 3.21875 
L 6.890625 13.375 
Q 12.890625 10.015625 18.65625 8.296875 
Q 24.421875 6.59375 29.984375 6.59375 
Q 38.421875 6.59375 43.015625 9.90625 
Q 47.609375 13.234375 47.609375 19.390625 
Q 47.609375 24.75 44.3125 27.78125 
Q 41.015625 30.8125 33.5 32.328125 
L 27.484375 33.5 
Q 16.453125 35.6875 11.515625 40.375 
Q 6.59375 45.0625 6.59375 53.421875 
Q 6.59375 63.09375 13.40625 68.65625 
Q 20.21875 74.21875 32.171875 74.21875 
Q 37.3125 74.21875 42.625 73.28125 
Q 47.953125 72.359375 53.515625 70.515625 
z
" id="DejaVuSans-83"/>
       <path d="M 18.109375 8.203125 
L 18.109375 -20.796875 
L 9.078125 -20.796875 
L 9.078125 54.6875 
L 18.109375 54.6875 
L 18.109375 46.390625 
Q 20.953125 51.265625 25.265625 53.625 
Q 29.59375 56 35.59375 56 
Q 45.5625 56 51.78125 48.09375 
Q 58.015625 40.1875 58.015625 27.296875 
Q 58.015625 14.40625 51.78125 6.484375 
Q 45.5625 -1.421875 35.59375 -1.421875 
Q 29.59375 -1.421875 25.265625 0.953125 
Q 20.953125 3.328125 18.109375 8.203125 
z
M 48.6875 27.296875 
Q 48.6875 37.203125 44.609375 42.84375 
Q 40.53125 48.484375 33.40625 48.484375 
Q 26.265625 48.484375 22.1875 42.84375 
Q 18.109375 37.203125 18.109375 27.296875 
Q 18.109375 17.390625 22.1875 11.75 
Q 26.265625 6.109375 33.40625 6.109375 
Q 40.53125 6.109375 44.609375 11.75 
Q 48.6875 17.390625 48.6875 27.296875 
z
" id="DejaVuSans-112"/>
       <path d="M 9.421875 54.6875 
L 18.40625 54.6875 
L 18.40625 0 
L 9.421875 0 
z
M 9.421875 75.984375 
L 18.40625 75.984375 
L 18.40625 64.59375 
L 9.421875 64.59375 
z
" id="DejaVuSans-105"/>
       <path d="M 54.890625 33.015625 
L 54.890625 0 
L 45.90625 0 
L 45.90625 32.71875 
Q 45.90625 40.484375 42.875 44.328125 
Q 39.84375 48.1875 33.796875 48.1875 
Q 26.515625 48.1875 22.3125 43.546875 
Q 18.109375 38.921875 18.109375 30.90625 
L 18.109375 0 
L 9.078125 0 
L 9.078125 54.6875 
L 18.109375 54.6875 
L 18.109375 46.1875 
Q 21.34375 51.125 25.703125 53.5625 
Q 30.078125 56 35.796875 56 
Q 45.21875 56 50.046875 50.171875 
Q 54.890625 44.34375 54.890625 33.015625 
z
" id="DejaVuSans-110"/>
       <path d="M 54.890625 33.015625 
L 54.890625 0 
L 45.90625 0 
L 45.90625 32.71875 
Q 45.90625 40.484375 42.875 44.328125 
Q 39.84375 48.1875 33.796875 48.1875 
Q 26.515625 48.1875 22.3125 43.546875 
Q 18.109375 38.921875 18.109375 30.90625 
L 18.109375 0 
L 9.078125 0 
L 9.078125 75.984375 
L 18.109375 75.984375 
L 18.109375 46.1875 
Q 21.34375 51.125 25.703125 53.5625 
Q 30.078125 56 35.796875 56 
Q 45.21875 56 50.046875 50.171875 
Q 54.890625 44.34375 54.890625 33.015625 
z
" id="DejaVuSans-104"/>
       <path d="M 30.609375 48.390625 
Q 23.390625 48.390625 19.1875 42.75 
Q 14.984375 37.109375 14.984375 27.296875 
Q 14.984375 17.484375 19.15625 11.84375 
Q 23.34375 6.203125 30.609375 6.203125 
Q 37.796875 6.203125 41.984375 11.859375 
Q 46.1875 17.53125 46.1875 27.296875 
Q 46.1875 37.015625 41.984375 42.703125 
Q 37.796875 48.390625 30.609375 48.390625 
z
M 30.609375 56 
Q 42.328125 56 49.015625 48.375 
Q 55.71875 40.765625 55.71875 27.296875 
Q 55.71875 13.875 49.015625 6.21875 
Q 42.328125 -1.421875 30.609375 -1.421875 
Q 18.84375 -1.421875 12.171875 6.21875 
Q 5.515625 13.875 5.515625 27.296875 
Q 5.515625 40.765625 12.171875 48.375 
Q 18.84375 56 30.609375 56 
z
" id="DejaVuSans-111"/>
       <path d="M 8.5 21.578125 
L 8.5 54.6875 
L 17.484375 54.6875 
L 17.484375 21.921875 
Q 17.484375 14.15625 20.5 10.265625 
Q 23.53125 6.390625 29.59375 6.390625 
Q 36.859375 6.390625 41.078125 11.03125 
Q 45.3125 15.671875 45.3125 23.6875 
L 45.3125 54.6875 
L 54.296875 54.6875 
L 54.296875 0 
L 45.3125 0 
L 45.3125 8.40625 
Q 42.046875 3.421875 37.71875 1 
Q 33.40625 -1.421875 27.6875 -1.421875 
Q 18.265625 -1.421875 13.375 4.4375 
Q 8.5 10.296875 8.5 21.578125 
z
M 31.109375 56 
z
" id="DejaVuSans-117"/>
       <path d="M 9.421875 75.984375 
L 18.40625 75.984375 
L 18.40625 0 
L 9.421875 0 
z
" id="DejaVuSans-108"/>
       <path d="M 41.109375 46.296875 
Q 39.59375 47.171875 37.8125 47.578125 
Q 36.03125 48 33.890625 48 
Q 26.265625 48 22.1875 43.046875 
Q 18.109375 38.09375 18.109375 28.8125 
L 18.109375 0 
L 9.078125 0 
L 9.078125 54.6875 
L 18.109375 54.6875 
L 18.109375 46.1875 
Q 20.953125 51.171875 25.484375 53.578125 
Q 30.03125 56 36.53125 56 
Q 37.453125 56 38.578125 55.875 
Q 39.703125 55.765625 41.0625 55.515625 
z
" id="DejaVuSans-114"/>
      </defs>
      <use xlink:href="#DejaVuSans-83"/>
      <use x="63.476562" xlink:href="#DejaVuSans-112"/>
      <use x="126.953125" xlink:href="#DejaVuSans-105"/>
      <use x="154.736328" xlink:href="#DejaVuSans-110"/>
      <use x="218.115234" xlink:href="#DejaVuSans-101"/>
      <use x="279.638672" xlink:href="#DejaVuSans-83"/>
      <use x="343.115234" xlink:href="#DejaVuSans-104"/>
      <use x="406.494141" xlink:href="#DejaVuSans-111"/>
      <use x="467.675781" xlink:href="#DejaVuSans-117"/>
      <use x="531.054688" xlink:href="#DejaVuSans-108"/>
      <use x="558.837891" xlink:href="#DejaVuSans-100"/>
      <use x="622.314453" xlink:href="#DejaVuSans-101"/>
      <use x="683.837891" xlink:href="#DejaVuSans-114"/>
     </g>
    </g>
   </g>
   <g id="text_4">
    <g clip-path="url(#pba21c74a04)">
     <!-- Spine -->
     <g transform="translate(238.875037 268.719171)scale(0.1 -0.1)">
      <use xlink:href="#DejaVuSans-83"/>
      <use x="63.476562" xlink:href="#DejaVuSans-112"/>
      <use x="126.953125" xlink:href="#DejaVuSans-105"/>
      <use x="154.736328" xlink:href="#DejaVuSans-110"/>
      <use x="218.115234" xlink:href="#DejaVuSans-101"/>
     </g>
    </g>
   </g>
   <g id="text_5">
    <g clip-path="url(#pba21c74a04)">
     <!-- Sacr -->
     <g transform="translate(239.276661 414.882275)scale(0.1 -0.1)">
      <use xlink:href="#DejaVuSans-83"/>
      <use x="63.476562" xlink:href="#DejaVuSans-97"/>
      <use x="124.755859" xlink:href="#DejaVuSans-99"/>
      <use x="179.736328" xlink:href="#DejaVuSans-114"/>
     </g>
    </g>
   </g>
   <g id="text_6">
    <g clip-path="url(#pba21c74a04)">
     <!-- LShoulder -->
     <g transform="translate(115.124232 170.720694)scale(0.1 -0.1)">
      <defs>
       <path d="M 9.8125 72.90625 
L 19.671875 72.90625 
L 19.671875 8.296875 
L 55.171875 8.296875 
L 55.171875 0 
L 9.8125 0 
z
" id="DejaVuSans-76"/>
      </defs>
      <use xlink:href="#DejaVuSans-76"/>
      <use x="55.712891" xlink:href="#DejaVuSans-83"/>
      <use x="119.189453" xlink:href="#DejaVuSans-104"/>
      <use x="182.568359" xlink:href="#DejaVuSans-111"/>
      <use x="243.75" xlink:href="#DejaVuSans-117"/>
      <use x="307.128906" xlink:href="#DejaVuSans-108"/>
      <use x="334.912109" xlink:href="#DejaVuSans-100"/>
      <use x="398.388672" xlink:href="#DejaVuSans-101"/>
      <use x="459.912109" xlink:href="#DejaVuSans-114"/>
     </g>
    </g>
   </g>
   <g id="text_7">
    <g clip-path="url(#pba21c74a04)">
     <!-- LElbow -->
     <g transform="translate(47.889773 285.115551)scale(0.1 -0.1)">
      <defs>
       <path d="M 9.8125 72.90625 
L 55.90625 72.90625 
L 55.90625 64.59375 
L 19.671875 64.59375 
L 19.671875 43.015625 
L 54.390625 43.015625 
L 54.390625 34.71875 
L 19.671875 34.71875 
L 19.671875 8.296875 
L 56.78125 8.296875 
L 56.78125 0 
L 9.8125 0 
z
" id="DejaVuSans-69"/>
       <path d="M 48.6875 27.296875 
Q 48.6875 37.203125 44.609375 42.84375 
Q 40.53125 48.484375 33.40625 48.484375 
Q 26.265625 48.484375 22.1875 42.84375 
Q 18.109375 37.203125 18.109375 27.296875 
Q 18.109375 17.390625 22.1875 11.75 
Q 26.265625 6.109375 33.40625 6.109375 
Q 40.53125 6.109375 44.609375 11.75 
Q 48.6875 17.390625 48.6875 27.296875 
z
M 18.109375 46.390625 
Q 20.953125 51.265625 25.265625 53.625 
Q 29.59375 56 35.59375 56 
Q 45.5625 56 51.78125 48.09375 
Q 58.015625 40.1875 58.015625 27.296875 
Q 58.015625 14.40625 51.78125 6.484375 
Q 45.5625 -1.421875 35.59375 -1.421875 
Q 29.59375 -1.421875 25.265625 0.953125 
Q 20.953125 3.328125 18.109375 8.203125 
L 18.109375 0 
L 9.078125 0 
L 9.078125 75.984375 
L 18.109375 75.984375 
z
" id="DejaVuSans-98"/>
       <path d="M 4.203125 54.6875 
L 13.1875 54.6875 
L 24.421875 12.015625 
L 35.59375 54.6875 
L 46.1875 54.6875 
L 57.421875 12.015625 
L 68.609375 54.6875 
L 77.59375 54.6875 
L 63.28125 0 
L 52.6875 0 
L 40.921875 44.828125 
L 29.109375 0 
L 18.5 0 
z
" id="DejaVuSans-119"/>
      </defs>
      <use xlink:href="#DejaVuSans-76"/>
      <use x="55.712891" xlink:href="#DejaVuSans-69"/>
      <use x="118.896484" xlink:href="#DejaVuSans-108"/>
      <use x="146.679688" xlink:href="#DejaVuSans-98"/>
      <use x="210.15625" xlink:href="#DejaVuSans-111"/>
      <use x="271.337891" xlink:href="#DejaVuSans-119"/>
     </g>
    </g>
   </g>
   <g id="text_8">
    <g clip-path="url(#pba21c74a04)">
     <!-- LWrist -->
     <g transform="translate(34.925659 411.598652)scale(0.1 -0.1)">
      <defs>
       <path d="M 3.328125 72.90625 
L 13.28125 72.90625 
L 28.609375 11.28125 
L 43.890625 72.90625 
L 54.984375 72.90625 
L 70.3125 11.28125 
L 85.59375 72.90625 
L 95.609375 72.90625 
L 77.296875 0 
L 64.890625 0 
L 49.515625 63.28125 
L 33.984375 0 
L 21.578125 0 
z
" id="DejaVuSans-87"/>
       <path d="M 44.28125 53.078125 
L 44.28125 44.578125 
Q 40.484375 46.53125 36.375 47.5 
Q 32.28125 48.484375 27.875 48.484375 
Q 21.1875 48.484375 17.84375 46.4375 
Q 14.5 44.390625 14.5 40.28125 
Q 14.5 37.15625 16.890625 35.375 
Q 19.28125 33.59375 26.515625 31.984375 
L 29.59375 31.296875 
Q 39.15625 29.25 43.1875 25.515625 
Q 47.21875 21.78125 47.21875 15.09375 
Q 47.21875 7.46875 41.1875 3.015625 
Q 35.15625 -1.421875 24.609375 -1.421875 
Q 20.21875 -1.421875 15.453125 -0.5625 
Q 10.6875 0.296875 5.421875 2 
L 5.421875 11.28125 
Q 10.40625 8.6875 15.234375 7.390625 
Q 20.0625 6.109375 24.8125 6.109375 
Q 31.15625 6.109375 34.5625 8.28125 
Q 37.984375 10.453125 37.984375 14.40625 
Q 37.984375 18.0625 35.515625 20.015625 
Q 33.0625 21.96875 24.703125 23.78125 
L 21.578125 24.515625 
Q 13.234375 26.265625 9.515625 29.90625 
Q 5.8125 33.546875 5.8125 39.890625 
Q 5.8125 47.609375 11.28125 51.796875 
Q 16.75 56 26.8125 56 
Q 31.78125 56 36.171875 55.265625 
Q 40.578125 54.546875 44.28125 53.078125 
z
" id="DejaVuSans-115"/>
       <path d="M 18.3125 70.21875 
L 18.3125 54.6875 
L 36.8125 54.6875 
L 36.8125 47.703125 
L 18.3125 47.703125 
L 18.3125 18.015625 
Q 18.3125 11.328125 20.140625 9.421875 
Q 21.96875 7.515625 27.59375 7.515625 
L 36.8125 7.515625 
L 36.8125 0 
L 27.59375 0 
Q 17.1875 0 13.234375 3.875 
Q 9.28125 7.765625 9.28125 18.015625 
L 9.28125 47.703125 
L 2.6875 47.703125 
L 2.6875 54.6875 
L 9.28125 54.6875 
L 9.28125 70.21875 
z
" id="DejaVuSans-116"/>
      </defs>
      <use xlink:href="#DejaVuSans-76"/>
      <use x="46.587891" xlink:href="#DejaVuSans-87"/>
      <use x="140.964844" xlink:href="#DejaVuSans-114"/>
      <use x="182.078125" xlink:href="#DejaVuSans-105"/>
      <use x="209.861328" xlink:href="#DejaVuSans-115"/>
      <use x="261.960938" xlink:href="#DejaVuSans-116"/>
     </g>
    </g>
   </g>
   <g id="text_9">
    <g clip-path="url(#pba21c74a04)">
     <!-- LHand -->
     <g transform="translate(44.898054 445.928503)scale(0.1 -0.1)">
      <use xlink:href="#DejaVuSans-76"/>
      <use x="55.712891" xlink:href="#DejaVuSans-72"/>
      <use x="130.908203" xlink:href="#DejaVuSans-97"/>
      <use x="192.1875" xlink:href="#DejaVuSans-110"/>
      <use x="255.566406" xlink:href="#DejaVuSans-100"/>
     </g>
    </g>
   </g>
   <g id="text_10">
    <g clip-path="url(#pba21c74a04)">
     <!-- RShoulder -->
     <g transform="translate(352.162029 177.761992)scale(0.1 -0.1)">
      <defs>
       <path d="M 44.390625 34.1875 
Q 47.5625 33.109375 50.5625 29.59375 
Q 53.5625 26.078125 56.59375 19.921875 
L 66.609375 0 
L 56 0 
L 46.6875 18.703125 
Q 43.0625 26.03125 39.671875 28.421875 
Q 36.28125 30.8125 30.421875 30.8125 
L 19.671875 30.8125 
L 19.671875 0 
L 9.8125 0 
L 9.8125 72.90625 
L 32.078125 72.90625 
Q 44.578125 72.90625 50.734375 67.671875 
Q 56.890625 62.453125 56.890625 51.90625 
Q 56.890625 45.015625 53.6875 40.46875 
Q 50.484375 35.9375 44.390625 34.1875 
z
M 19.671875 64.796875 
L 19.671875 38.921875 
L 32.078125 38.921875 
Q 39.203125 38.921875 42.84375 42.21875 
Q 46.484375 45.515625 46.484375 51.90625 
Q 46.484375 58.296875 42.84375 61.546875 
Q 39.203125 64.796875 32.078125 64.796875 
z
" id="DejaVuSans-82"/>
      </defs>
      <use xlink:href="#DejaVuSans-82"/>
      <use x="69.482422" xlink:href="#DejaVuSans-83"/>
      <use x="132.958984" xlink:href="#DejaVuSans-104"/>
      <use x="196.337891" xlink:href="#DejaVuSans-111"/>
      <use x="257.519531" xlink:href="#DejaVuSans-117"/>
      <use x="320.898438" xlink:href="#DejaVuSans-108"/>
      <use x="348.681641" xlink:href="#DejaVuSans-100"/>
      <use x="412.158203" xlink:href="#DejaVuSans-101"/>
      <use x="473.681641" xlink:href="#DejaVuSans-114"/>
     </g>
    </g>
   </g>
   <g id="text_11">
    <g clip-path="url(#pba21c74a04)">
     <!-- RElbow -->
     <g transform="translate(413.298845 273.451683)scale(0.1 -0.1)">
      <use xlink:href="#DejaVuSans-82"/>
      <use x="69.482422" xlink:href="#DejaVuSans-69"/>
      <use x="132.666016" xlink:href="#DejaVuSans-108"/>
      <use x="160.449219" xlink:href="#DejaVuSans-98"/>
      <use x="223.925781" xlink:href="#DejaVuSans-111"/>
      <use x="285.107422" xlink:href="#DejaVuSans-119"/>
     </g>
    </g>
   </g>
   <g id="text_12">
    <g clip-path="url(#pba21c74a04)">
     <!-- RWrist -->
     <g transform="translate(458.765719 369.231826)scale(0.1 -0.1)">
      <use xlink:href="#DejaVuSans-82"/>
      <use x="65.482422" xlink:href="#DejaVuSans-87"/>
      <use x="159.859375" xlink:href="#DejaVuSans-114"/>
      <use x="200.972656" xlink:href="#DejaVuSans-105"/>
      <use x="228.755859" xlink:href="#DejaVuSans-115"/>
      <use x="280.855469" xlink:href="#DejaVuSans-116"/>
     </g>
    </g>
   </g>
   <g id="text_13">
    <g clip-path="url(#pba21c74a04)">
     <!-- RHand -->
     <g transform="translate(470.091625 384.008557)scale(0.1 -0.1)">
      <use xlink:href="#DejaVuSans-82"/>
      <use x="69.482422" xlink:href="#DejaVuSans-72"/>
      <use x="144.677734" xlink:href="#DejaVuSans-97"/>
      <use x="205.957031" xlink:href="#DejaVuSans-110"/>
      <use x="269.335938" xlink:href="#DejaVuSans-100"/>
     </g>
    </g>
   </g>
   <g id="text_14">
    <g clip-path="url(#pba21c74a04)">
     <!-- LHip -->
     <g transform="translate(173.782939 412.360901)scale(0.1 -0.1)">
      <use xlink:href="#DejaVuSans-76"/>
      <use x="55.712891" xlink:href="#DejaVuSans-72"/>
      <use x="130.908203" xlink:href="#DejaVuSans-105"/>
      <use x="158.691406" xlink:href="#DejaVuSans-112"/>
     </g>
    </g>
   </g>
   <g id="text_15">
    <g clip-path="url(#pba21c74a04)">
     <!-- LKnee -->
     <g transform="translate(146.800395 561.865049)scale(0.1 -0.1)">
      <defs>
       <path d="M 9.8125 72.90625 
L 19.671875 72.90625 
L 19.671875 42.09375 
L 52.390625 72.90625 
L 65.09375 72.90625 
L 28.90625 38.921875 
L 67.671875 0 
L 54.6875 0 
L 19.671875 35.109375 
L 19.671875 0 
L 9.8125 0 
z
" id="DejaVuSans-75"/>
      </defs>
      <use xlink:href="#DejaVuSans-76"/>
      <use x="55.712891" xlink:href="#DejaVuSans-75"/>
      <use x="121.289062" xlink:href="#DejaVuSans-110"/>
      <use x="184.667969" xlink:href="#DejaVuSans-101"/>
      <use x="246.191406" xlink:href="#DejaVuSans-101"/>
     </g>
    </g>
   </g>
   <g id="text_16">
    <g clip-path="url(#pba21c74a04)">
     <!-- LAnkle -->
     <g transform="translate(159.314211 720.386706)scale(0.1 -0.1)">
      <defs>
       <path d="M 34.1875 63.1875 
L 20.796875 26.90625 
L 47.609375 26.90625 
z
M 28.609375 72.90625 
L 39.796875 72.90625 
L 67.578125 0 
L 57.328125 0 
L 50.6875 18.703125 
L 17.828125 18.703125 
L 11.1875 0 
L 0.78125 0 
z
" id="DejaVuSans-65"/>
       <path d="M 9.078125 75.984375 
L 18.109375 75.984375 
L 18.109375 31.109375 
L 44.921875 54.6875 
L 56.390625 54.6875 
L 27.390625 29.109375 
L 57.625 0 
L 45.90625 0 
L 18.109375 26.703125 
L 18.109375 0 
L 9.078125 0 
z
" id="DejaVuSans-107"/>
      </defs>
      <use xlink:href="#DejaVuSans-76"/>
      <use x="57.962891" xlink:href="#DejaVuSans-65"/>
      <use x="126.371094" xlink:href="#DejaVuSans-110"/>
      <use x="189.75" xlink:href="#DejaVuSans-107"/>
      <use x="247.660156" xlink:href="#DejaVuSans-108"/>
      <use x="275.443359" xlink:href="#DejaVuSans-101"/>
     </g>
    </g>
   </g>
   <g id="text_17">
    <g clip-path="url(#pba21c74a04)">
     <!-- LFoot -->
     <g transform="translate(183.007456 755.818078)scale(0.1 -0.1)">
      <defs>
       <path d="M 9.8125 72.90625 
L 51.703125 72.90625 
L 51.703125 64.59375 
L 19.671875 64.59375 
L 19.671875 43.109375 
L 48.578125 43.109375 
L 48.578125 34.8125 
L 19.671875 34.8125 
L 19.671875 0 
L 9.8125 0 
z
" id="DejaVuSans-70"/>
      </defs>
      <use xlink:href="#DejaVuSans-76"/>
      <use x="55.712891" xlink:href="#DejaVuSans-70"/>
      <use x="109.607422" xlink:href="#DejaVuSans-111"/>
      <use x="170.789062" xlink:href="#DejaVuSans-111"/>
      <use x="231.970703" xlink:href="#DejaVuSans-116"/>
     </g>
    </g>
   </g>
   <g id="text_18">
    <g clip-path="url(#pba21c74a04)">
     <!-- RHip -->
     <g transform="translate(286.155938 411.926629)scale(0.1 -0.1)">
      <use xlink:href="#DejaVuSans-82"/>
      <use x="69.482422" xlink:href="#DejaVuSans-72"/>
      <use x="144.677734" xlink:href="#DejaVuSans-105"/>
      <use x="172.460938" xlink:href="#DejaVuSans-112"/>
     </g>
    </g>
   </g>
   <g id="text_19">
    <g clip-path="url(#pba21c74a04)">
     <!-- RKnee -->
     <g transform="translate(281.171024 566.757477)scale(0.1 -0.1)">
      <use xlink:href="#DejaVuSans-82"/>
      <use x="69.482422" xlink:href="#DejaVuSans-75"/>
      <use x="135.058594" xlink:href="#DejaVuSans-110"/>
      <use x="198.4375" xlink:href="#DejaVuSans-101"/>
      <use x="259.960938" xlink:href="#DejaVuSans-101"/>
     </g>
    </g>
   </g>
   <g id="text_20">
    <g clip-path="url(#pba21c74a04)">
     <!-- RAnkle -->
     <g transform="translate(284.68193 756.227862)scale(0.1 -0.1)">
      <use xlink:href="#DejaVuSans-82"/>
      <use x="65.482422" xlink:href="#DejaVuSans-65"/>
      <use x="133.890625" xlink:href="#DejaVuSans-110"/>
      <use x="197.269531" xlink:href="#DejaVuSans-107"/>
      <use x="255.179688" xlink:href="#DejaVuSans-108"/>
      <use x="282.962891" xlink:href="#DejaVuSans-101"/>
     </g>
    </g>
   </g>
   <g id="text_21">
    <g clip-path="url(#pba21c74a04)">
     <!-- RFoot -->
     <g transform="translate(284.282806 791.784168)scale(0.1 -0.1)">
      <use xlink:href="#DejaVuSans-82"/>
      <use x="69.482422" xlink:href="#DejaVuSans-70"/>
      <use x="123.376953" xlink:href="#DejaVuSans-111"/>
      <use x="184.558594" xlink:href="#DejaVuSans-111"/>
      <use x="245.740234" xlink:href="#DejaVuSans-116"/>
     </g>
    </g>
   </g>
   <g id="text_22">
    <g clip-path="url(#pba21c74a04)">
     <!-- LHandTip -->
     <g transform="translate(32.74956 479.883151)scale(0.1 -0.1)">
      <defs>
       <path d="M -0.296875 72.90625 
L 61.375 72.90625 
L 61.375 64.59375 
L 35.5 64.59375 
L 35.5 0 
L 25.59375 0 
L 25.59375 64.59375 
L -0.296875 64.59375 
z
" id="DejaVuSans-84"/>
      </defs>
      <use xlink:href="#DejaVuSans-76"/>
      <use x="55.712891" xlink:href="#DejaVuSans-72"/>
      <use x="130.908203" xlink:href="#DejaVuSans-97"/>
      <use x="192.1875" xlink:href="#DejaVuSans-110"/>
      <use x="255.566406" xlink:href="#DejaVuSans-100"/>
      <use x="319.042969" xlink:href="#DejaVuSans-84"/>
      <use x="377.001953" xlink:href="#DejaVuSans-105"/>
      <use x="404.785156" xlink:href="#DejaVuSans-112"/>
     </g>
    </g>
   </g>
   <g id="text_23">
    <g clip-path="url(#pba21c74a04)">
     <!-- LThumb -->
     <g transform="translate(67.43319 446.80854)scale(0.1 -0.1)">
      <defs>
       <path d="M 52 44.1875 
Q 55.375 50.25 60.0625 53.125 
Q 64.75 56 71.09375 56 
Q 79.640625 56 84.28125 50.015625 
Q 88.921875 44.046875 88.921875 33.015625 
L 88.921875 0 
L 79.890625 0 
L 79.890625 32.71875 
Q 79.890625 40.578125 77.09375 44.375 
Q 74.3125 48.1875 68.609375 48.1875 
Q 61.625 48.1875 57.5625 43.546875 
Q 53.515625 38.921875 53.515625 30.90625 
L 53.515625 0 
L 44.484375 0 
L 44.484375 32.71875 
Q 44.484375 40.625 41.703125 44.40625 
Q 38.921875 48.1875 33.109375 48.1875 
Q 26.21875 48.1875 22.15625 43.53125 
Q 18.109375 38.875 18.109375 30.90625 
L 18.109375 0 
L 9.078125 0 
L 9.078125 54.6875 
L 18.109375 54.6875 
L 18.109375 46.1875 
Q 21.1875 51.21875 25.484375 53.609375 
Q 29.78125 56 35.6875 56 
Q 41.65625 56 45.828125 52.96875 
Q 50 49.953125 52 44.1875 
z
" id="DejaVuSans-109"/>
      </defs>
      <use xlink:href="#DejaVuSans-76"/>
      <use x="41.962891" xlink:href="#DejaVuSans-84"/>
      <use x="103.046875" xlink:href="#DejaVuSans-104"/>
      <use x="166.425781" xlink:href="#DejaVuSans-117"/>
      <use x="229.804688" xlink:href="#DejaVuSans-109"/>
      <use x="327.216797" xlink:href="#DejaVuSans-98"/>
     </g>
    </g>
   </g>
   <g id="text_24">
    <g clip-path="url(#pba21c74a04)">
     <!-- RHandTip -->
     <g transform="translate(478.936284 425.609186)scale(0.1 -0.1)">
      <use xlink:href="#DejaVuSans-82"/>
      <use x="69.482422" xlink:href="#DejaVuSans-72"/>
      <use x="144.677734" xlink:href="#DejaVuSans-97"/>
      <use x="205.957031" xlink:href="#DejaVuSans-110"/>
      <use x="269.335938" xlink:href="#DejaVuSans-100"/>
      <use x="332.8125" xlink:href="#DejaVuSans-84"/>
      <use x="390.771484" xlink:href="#DejaVuSans-105"/>
      <use x="418.554688" xlink:href="#DejaVuSans-112"/>
     </g>
    </g>
   </g>
   <g id="text_25">
    <g clip-path="url(#pba21c74a04)">
     <!-- RThumb -->
     <g transform="translate(505.468873 384.657216)scale(0.1 -0.1)">
      <use xlink:href="#DejaVuSans-82"/>
      <use x="62.232422" xlink:href="#DejaVuSans-84"/>
      <use x="123.316406" xlink:href="#DejaVuSans-104"/>
      <use x="186.695312" xlink:href="#DejaVuSans-117"/>
      <use x="250.074219" xlink:href="#DejaVuSans-109"/>
      <use x="347.486328" xlink:href="#DejaVuSans-98"/>
     </g>
    </g>
   </g>
   <g id="text_26">
    <!-- Node Graph Visualization - Frame 127 -->
    <g transform="translate(174.194063 -6)scale(0.12 -0.12)">
     <defs>
      <path d="M 9.8125 72.90625 
L 23.09375 72.90625 
L 55.421875 11.921875 
L 55.421875 72.90625 
L 64.984375 72.90625 
L 64.984375 0 
L 51.703125 0 
L 19.390625 60.984375 
L 19.390625 0 
L 9.8125 0 
z
" id="DejaVuSans-78"/>
      <path id="DejaVuSans-32"/>
      <path d="M 59.515625 10.40625 
L 59.515625 29.984375 
L 43.40625 29.984375 
L 43.40625 38.09375 
L 69.28125 38.09375 
L 69.28125 6.78125 
Q 63.578125 2.734375 56.6875 0.65625 
Q 49.8125 -1.421875 42 -1.421875 
Q 24.90625 -1.421875 15.25 8.5625 
Q 5.609375 18.5625 5.609375 36.375 
Q 5.609375 54.25 15.25 64.234375 
Q 24.90625 74.21875 42 74.21875 
Q 49.125 74.21875 55.546875 72.453125 
Q 61.96875 70.703125 67.390625 67.28125 
L 67.390625 56.78125 
Q 61.921875 61.421875 55.765625 63.765625 
Q 49.609375 66.109375 42.828125 66.109375 
Q 29.4375 66.109375 22.71875 58.640625 
Q 16.015625 51.171875 16.015625 36.375 
Q 16.015625 21.625 22.71875 14.15625 
Q 29.4375 6.6875 42.828125 6.6875 
Q 48.046875 6.6875 52.140625 7.59375 
Q 56.25 8.5 59.515625 10.40625 
z
" id="DejaVuSans-71"/>
      <path d="M 28.609375 0 
L 0.78125 72.90625 
L 11.078125 72.90625 
L 34.1875 11.53125 
L 57.328125 72.90625 
L 67.578125 72.90625 
L 39.796875 0 
z
" id="DejaVuSans-86"/>
      <path d="M 5.515625 54.6875 
L 48.1875 54.6875 
L 48.1875 46.484375 
L 14.40625 7.171875 
L 48.1875 7.171875 
L 48.1875 0 
L 4.296875 0 
L 4.296875 8.203125 
L 38.09375 47.515625 
L 5.515625 47.515625 
z
" id="DejaVuSans-122"/>
      <path d="M 4.890625 31.390625 
L 31.203125 31.390625 
L 31.203125 23.390625 
L 4.890625 23.390625 
z
" id="DejaVuSans-45"/>
      <path d="M 12.40625 8.296875 
L 28.515625 8.296875 
L 28.515625 63.921875 
L 10.984375 60.40625 
L 10.984375 69.390625 
L 28.421875 72.90625 
L 38.28125 72.90625 
L 38.28125 8.296875 
L 54.390625 8.296875 
L 54.390625 0 
L 12.40625 0 
z
" id="DejaVuSans-49"/>
      <path d="M 19.1875 8.296875 
L 53.609375 8.296875 
L 53.609375 0 
L 7.328125 0 
L 7.328125 8.296875 
Q 12.9375 14.109375 22.625 23.890625 
Q 32.328125 33.6875 34.8125 36.53125 
Q 39.546875 41.84375 41.421875 45.53125 
Q 43.3125 49.21875 43.3125 52.78125 
Q 43.3125 58.59375 39.234375 62.25 
Q 35.15625 65.921875 28.609375 65.921875 
Q 23.96875 65.921875 18.8125 64.3125 
Q 13.671875 62.703125 7.8125 59.421875 
L 7.8125 69.390625 
Q 13.765625 71.78125 18.9375 73 
Q 24.125 74.21875 28.421875 74.21875 
Q 39.75 74.21875 46.484375 68.546875 
Q 53.21875 62.890625 53.21875 53.421875 
Q 53.21875 48.921875 51.53125 44.890625 
Q 49.859375 40.875 45.40625 35.40625 
Q 44.1875 33.984375 37.640625 27.21875 
Q 31.109375 20.453125 19.1875 8.296875 
z
" id="DejaVuSans-50"/>
     </defs>
     <use xlink:href="#DejaVuSans-78"/>
     <use x="74.804688" xlink:href="#DejaVuSans-111"/>
     <use x="135.986328" xlink:href="#DejaVuSans-100"/>
     <use x="199.462891" xlink:href="#DejaVuSans-101"/>
     <use x="260.986328" xlink:href="#DejaVuSans-32"/>
     <use x="292.773438" xlink:href="#DejaVuSans-71"/>
     <use x="370.263672" xlink:href="#DejaVuSans-114"/>
     <use x="411.376953" xlink:href="#DejaVuSans-97"/>
     <use x="472.65625" xlink:href="#DejaVuSans-112"/>
     <use x="536.132812" xlink:href="#DejaVuSans-104"/>
     <use x="599.511719" xlink:href="#DejaVuSans-32"/>
     <use x="631.298828" xlink:href="#DejaVuSans-86"/>
     <use x="697.457031" xlink:href="#DejaVuSans-105"/>
     <use x="725.240234" xlink:href="#DejaVuSans-115"/>
     <use x="777.339844" xlink:href="#DejaVuSans-117"/>
     <use x="840.71875" xlink:href="#DejaVuSans-97"/>
     <use x="901.998047" xlink:href="#DejaVuSans-108"/>
     <use x="929.78125" xlink:href="#DejaVuSans-105"/>
     <use x="957.564453" xlink:href="#DejaVuSans-122"/>
     <use x="1010.054688" xlink:href="#DejaVuSans-97"/>
     <use x="1071.333984" xlink:href="#DejaVuSans-116"/>
     <use x="1110.542969" xlink:href="#DejaVuSans-105"/>
     <use x="1138.326172" xlink:href="#DejaVuSans-111"/>
     <use x="1199.507812" xlink:href="#DejaVuSans-110"/>
     <use x="1262.886719" xlink:href="#DejaVuSans-32"/>
     <use x="1294.673828" xlink:href="#DejaVuSans-45"/>
     <use x="1330.757812" xlink:href="#DejaVuSans-32"/>
     <use x="1362.544922" xlink:href="#DejaVuSans-70"/>
     <use x="1412.814453" xlink:href="#DejaVuSans-114"/>
     <use x="1453.927734" xlink:href="#DejaVuSans-97"/>
     <use x="1515.207031" xlink:href="#DejaVuSans-109"/>
     <use x="1612.619141" xlink:href="#DejaVuSans-101"/>
     <use x="1674.142578" xlink:href="#DejaVuSans-32"/>
     <use x="1705.929688" xlink:href="#DejaVuSans-49"/>
     <use x="1769.552734" xlink:href="#DejaVuSans-50"/>
     <use x="1833.175781" xlink:href="#DejaVuSans-55"/>
    </g>
   </g>
  </g>
 </g>
 <defs>
  <clipPath id="pba21c74a04">
   <rect height="864" width="576" x="0" y="0"/>
  </clipPath>
 </defs>
</svg>
