<?xml version="1.0" encoding="utf-8" standalone="no"?>
<!DOCTYPE svg PUBLIC "-//W3C//DTD SVG 1.1//EN"
  "http://www.w3.org/Graphics/SVG/1.1/DTD/svg11.dtd">
<!-- Created with matplotlib (https://matplotlib.org/) -->
<svg height="864pt" version="1.1" viewBox="0 0 576 864" width="576pt" xmlns="http://www.w3.org/2000/svg" xmlns:xlink="http://www.w3.org/1999/xlink">
 <metadata>
  <rdf:RDF xmlns:cc="http://creativecommons.org/ns#" xmlns:dc="http://purl.org/dc/elements/1.1/" xmlns:rdf="http://www.w3.org/1999/02/22-rdf-syntax-ns#">
   <cc:Work>
    <dc:type rdf:resource="http://purl.org/dc/dcmitype/StillImage"/>
    <dc:date>2024-02-04T22:27:59.437127</dc:date>
    <dc:format>image/svg+xml</dc:format>
    <dc:creator>
     <cc:Agent>
      <dc:title>Matplotlib v3.3.2, https://matplotlib.org/</dc:title>
     </cc:Agent>
    </dc:creator>
   </cc:Work>
  </rdf:RDF>
 </metadata>
 <defs>
  <style type="text/css">*{stroke-linecap:butt;stroke-linejoin:round;}</style>
 </defs>
 <g id="figure_1">
  <g id="patch_1">
   <path d="M 0 864 
L 576 864 
L 576 0 
L 0 0 
z
" style="fill:#ffffff;"/>
  </g>
  <g id="axes_1">
   <g id="patch_2">
    <path clip-path="url(#pd73445c463)" d="M 313.314402 87.538515 
Q 309.382599 99.46129 305.800945 110.322276 
" style="fill:none;stroke:#000000;stroke-linecap:round;"/>
    <path clip-path="url(#pd73445c463)" d="M 308.953061 107.149869 
L 305.800945 110.322276 
L 305.154289 105.897139 
L 308.953061 107.149869 
z
" style="stroke:#000000;stroke-linecap:round;"/>
   </g>
   <g id="patch_3">
    <path clip-path="url(#pd73445c463)" d="M 300.219307 137.134247 
Q 300.128676 138.2327 300.129979 138.216906 
" style="fill:none;stroke:#000000;stroke-linecap:round;"/>
    <path clip-path="url(#pd73445c463)" d="M 302.452122 134.39491 
L 300.129979 138.216906 
L 298.465669 134.065993 
L 302.452122 134.39491 
z
" style="stroke:#000000;stroke-linecap:round;"/>
   </g>
   <g id="patch_4">
    <path clip-path="url(#pd73445c463)" d="M 305.450229 111.385784 
Q 309.382032 99.463009 312.963687 88.602023 
" style="fill:none;stroke:#000000;stroke-linecap:round;"/>
    <path clip-path="url(#pd73445c463)" d="M 309.81157 91.774429 
L 312.963687 88.602023 
L 313.610342 93.02716 
L 309.81157 91.774429 
z
" style="stroke:#000000;stroke-linecap:round;"/>
   </g>
   <g id="patch_5">
    <path clip-path="url(#pd73445c463)" d="M 297.609258 165.676684 
Q 294.478324 196.405538 291.460719 226.022116 
" style="fill:none;stroke:#000000;stroke-linecap:round;"/>
    <path clip-path="url(#pd73445c463)" d="M 293.855875 222.245447 
L 291.460719 226.022116 
L 289.876478 221.83999 
L 293.855875 222.245447 
z
" style="stroke:#000000;stroke-linecap:round;"/>
   </g>
   <g id="patch_6">
    <path clip-path="url(#pd73445c463)" d="M 285.726296 152.412941 
Q 220.197592 151.900531 155.786888 151.396863 
" style="fill:none;stroke:#000000;stroke-linecap:round;"/>
    <path clip-path="url(#pd73445c463)" d="M 159.771127 153.428079 
L 155.786888 151.396863 
L 159.802405 149.428201 
L 159.771127 153.428079 
z
" style="stroke:#000000;stroke-linecap:round;"/>
   </g>
   <g id="patch_7">
    <path clip-path="url(#pd73445c463)" d="M 312.077947 154.153579 
Q 391.961778 164.116286 470.736169 173.940629 
" style="fill:none;stroke:#000000;stroke-linecap:round;"/>
    <path clip-path="url(#pd73445c463)" d="M 467.014431 171.460979 
L 470.736169 173.940629 
L 466.519406 175.430229 
L 467.014431 171.460979 
z
" style="stroke:#000000;stroke-linecap:round;"/>
   </g>
   <g id="patch_8">
    <path clip-path="url(#pd73445c463)" d="M 300.038041 139.331192 
Q 300.128672 138.232738 300.127369 138.248533 
" style="fill:none;stroke:#000000;stroke-linecap:round;"/>
    <path clip-path="url(#pd73445c463)" d="M 297.805226 142.070528 
L 300.127369 138.248533 
L 301.791679 142.399445 
L 297.805226 142.070528 
z
" style="stroke:#000000;stroke-linecap:round;"/>
   </g>
   <g id="patch_9">
    <path clip-path="url(#pd73445c463)" d="M 288.510654 253.432547 
Q 283.191885 300.148009 277.999592 345.752613 
" style="fill:none;stroke:#000000;stroke-linecap:round;"/>
    <path clip-path="url(#pd73445c463)" d="M 280.439249 342.004537 
L 277.999592 345.752613 
L 276.464925 341.552042 
L 280.439249 342.004537 
z
" style="stroke:#000000;stroke-linecap:round;"/>
   </g>
   <g id="patch_10">
    <path clip-path="url(#pd73445c463)" d="M 291.347749 227.130877 
Q 294.478682 196.402023 297.496287 166.785445 
" style="fill:none;stroke:#000000;stroke-linecap:round;"/>
    <path clip-path="url(#pd73445c463)" d="M 295.101132 170.562114 
L 297.496287 166.785445 
L 299.080529 170.967571 
L 295.101132 170.562114 
z
" style="stroke:#000000;stroke-linecap:round;"/>
   </g>
   <g id="patch_11">
    <path clip-path="url(#pd73445c463)" d="M 263.147428 360.150561 
Q 233.499622 360.473837 204.969784 360.784923 
" style="fill:none;stroke:#000000;stroke-linecap:round;"/>
    <path clip-path="url(#pd73445c463)" d="M 208.991353 362.741191 
L 204.969784 360.784923 
L 208.94774 358.741429 
L 208.991353 362.741191 
z
" style="stroke:#000000;stroke-linecap:round;"/>
   </g>
   <g id="patch_12">
    <path clip-path="url(#pd73445c463)" d="M 289.574113 360.85196 
Q 312.231404 362.303773 333.772949 363.684093 
" style="fill:none;stroke:#000000;stroke-linecap:round;"/>
    <path clip-path="url(#pd73445c463)" d="M 329.909027 361.432402 
L 333.772949 363.684093 
L 329.653244 365.424216 
L 329.909027 361.432402 
z
" style="stroke:#000000;stroke-linecap:round;"/>
   </g>
   <g id="patch_13">
    <path clip-path="url(#pd73445c463)" d="M 277.872944 346.864978 
Q 283.191713 300.149516 288.384006 254.544911 
" style="fill:none;stroke:#000000;stroke-linecap:round;"/>
    <path clip-path="url(#pd73445c463)" d="M 285.944349 258.292988 
L 288.384006 254.544911 
L 289.918673 258.745483 
L 285.944349 258.292988 
z
" style="stroke:#000000;stroke-linecap:round;"/>
   </g>
   <g id="patch_14">
    <path clip-path="url(#pd73445c463)" d="M 133.401463 161.796838 
Q 105.709838 198.024389 78.697181 233.363682 
" style="fill:none;stroke:#000000;stroke-linecap:round;"/>
    <path clip-path="url(#pd73445c463)" d="M 82.715293 231.400325 
L 78.697181 233.363682 
L 79.537363 228.971178 
L 82.715293 231.400325 
z
" style="stroke:#000000;stroke-linecap:round;"/>
   </g>
   <g id="patch_15">
    <path clip-path="url(#pd73445c463)" d="M 154.660627 151.388056 
Q 220.189331 151.900466 284.600035 152.404134 
" style="fill:none;stroke:#000000;stroke-linecap:round;"/>
    <path clip-path="url(#pd73445c463)" d="M 280.615796 150.372918 
L 284.600035 152.404134 
L 280.584518 154.372795 
L 280.615796 150.372918 
z
" style="stroke:#000000;stroke-linecap:round;"/>
   </g>
   <g id="patch_16">
    <path clip-path="url(#pd73445c463)" d="M 69.686011 257.985402 
Q 68.626598 304.892254 67.59243 350.681358 
" style="fill:none;stroke:#000000;stroke-linecap:round;"/>
    <path clip-path="url(#pd73445c463)" d="M 69.682239 346.727537 
L 67.59243 350.681358 
L 65.683259 346.637219 
L 69.682239 346.727537 
z
" style="stroke:#000000;stroke-linecap:round;"/>
   </g>
   <g id="patch_17">
    <path clip-path="url(#pd73445c463)" d="M 78.01998 234.24963 
Q 105.711604 198.022078 132.724262 162.682785 
" style="fill:none;stroke:#000000;stroke-linecap:round;"/>
    <path clip-path="url(#pd73445c463)" d="M 128.706149 164.646142 
L 132.724262 162.682785 
L 131.88408 167.075289 
L 128.706149 164.646142 
z
" style="stroke:#000000;stroke-linecap:round;"/>
   </g>
   <g id="patch_18">
    <path clip-path="url(#pd73445c463)" d="M 78.793879 371.514328 
Q 87.779862 376.57337 95.791599 381.083919 
" style="fill:none;stroke:#000000;stroke-linecap:round;"/>
    <path clip-path="url(#pd73445c463)" d="M 93.287206 377.378785 
L 95.791599 381.083919 
L 91.324857 380.864354 
L 93.287206 377.378785 
z
" style="stroke:#000000;stroke-linecap:round;"/>
   </g>
   <g id="patch_19">
    <path clip-path="url(#pd73445c463)" d="M 67.56712 351.802017 
Q 68.626532 304.895164 69.6607 259.106061 
" style="fill:none;stroke:#000000;stroke-linecap:round;"/>
    <path clip-path="url(#pd73445c463)" d="M 67.570891 263.059882 
L 69.6607 259.106061 
L 71.569871 263.1502 
L 67.570891 263.059882 
z
" style="stroke:#000000;stroke-linecap:round;"/>
   </g>
   <g id="patch_20">
    <path clip-path="url(#pd73445c463)" d="M 117.974718 397.132708 
Q 124.876444 403.555817 130.959731 409.217244 
" style="fill:none;stroke:#000000;stroke-linecap:round;"/>
    <path clip-path="url(#pd73445c463)" d="M 129.394135 405.028102 
L 130.959731 409.217244 
L 126.66906 407.956235 
L 129.394135 405.028102 
z
" style="stroke:#000000;stroke-linecap:round;"/>
   </g>
   <g id="patch_21">
    <path clip-path="url(#pd73445c463)" d="M 121.519603 388.045908 
Q 124.682044 388.02779 126.726469 388.016077 
" style="fill:none;stroke:#000000;stroke-linecap:round;"/>
    <path clip-path="url(#pd73445c463)" d="M 122.715077 386.039026 
L 126.726469 388.016077 
L 122.737993 390.03896 
L 122.715077 386.039026 
z
" style="stroke:#000000;stroke-linecap:round;"/>
   </g>
   <g id="patch_22">
    <path clip-path="url(#pd73445c463)" d="M 96.766825 381.632963 
Q 87.780842 376.573921 79.769105 372.063373 
" style="fill:none;stroke:#000000;stroke-linecap:round;"/>
    <path clip-path="url(#pd73445c463)" d="M 82.273499 375.768506 
L 79.769105 372.063373 
L 84.235848 372.282938 
L 82.273499 375.768506 
z
" style="stroke:#000000;stroke-linecap:round;"/>
   </g>
   <g id="patch_23">
    <path clip-path="url(#pd73445c463)" d="M 490.593358 187.69042 
Q 505.493727 219.421467 519.918872 250.140506 
" style="fill:none;stroke:#000000;stroke-linecap:round;"/>
    <path clip-path="url(#pd73445c463)" d="M 520.029002 245.669726 
L 519.918872 250.140506 
L 516.408326 247.369935 
L 520.029002 245.669726 
z
" style="stroke:#000000;stroke-linecap:round;"/>
   </g>
   <g id="patch_24">
    <path clip-path="url(#pd73445c463)" d="M 471.8425 174.078605 
Q 391.958669 164.115898 313.184278 154.291555 
" style="fill:none;stroke:#000000;stroke-linecap:round;"/>
    <path clip-path="url(#pd73445c463)" d="M 316.906016 156.771205 
L 313.184278 154.291555 
L 317.401041 152.801954 
L 316.906016 156.771205 
z
" style="stroke:#000000;stroke-linecap:round;"/>
   </g>
   <g id="patch_25">
    <path clip-path="url(#pd73445c463)" d="M 514.886473 270.270748 
Q 480.892243 292.093501 447.838865 313.31227 
" style="fill:none;stroke:#000000;stroke-linecap:round;"/>
    <path clip-path="url(#pd73445c463)" d="M 452.2854 312.834437 
L 447.838865 313.31227 
L 450.12452 309.468342 
L 452.2854 312.834437 
z
" style="stroke:#000000;stroke-linecap:round;"/>
   </g>
   <g id="patch_26">
    <path clip-path="url(#pd73445c463)" d="M 520.393465 251.151174 
Q 505.493097 219.420126 491.067951 188.701088 
" style="fill:none;stroke:#000000;stroke-linecap:round;"/>
    <path clip-path="url(#pd73445c463)" d="M 490.957822 193.171868 
L 491.067951 188.701088 
L 494.578497 191.471659 
L 490.957822 193.171868 
z
" style="stroke:#000000;stroke-linecap:round;"/>
   </g>
   <g id="patch_27">
    <path clip-path="url(#pd73445c463)" d="M 424.478187 327.967204 
Q 423.88275 328.331427 424.241066 328.112249 
" style="fill:none;stroke:#000000;stroke-linecap:round;"/>
    <path clip-path="url(#pd73445c463)" d="M 428.696933 327.731133 
L 424.241066 328.112249 
L 426.609694 324.318886 
L 428.696933 327.731133 
z
" style="stroke:#000000;stroke-linecap:round;"/>
   </g>
   <g id="patch_28">
    <path clip-path="url(#pd73445c463)" d="M 446.894255 313.918667 
Q 480.888485 292.095914 513.941863 270.877145 
" style="fill:none;stroke:#000000;stroke-linecap:round;"/>
    <path clip-path="url(#pd73445c463)" d="M 509.495328 271.354978 
L 513.941863 270.877145 
L 511.656208 274.721073 
L 509.495328 271.354978 
z
" style="stroke:#000000;stroke-linecap:round;"/>
   </g>
   <g id="patch_29">
    <path clip-path="url(#pd73445c463)" d="M 398.828741 336.82966 
Q 396.426419 337.05422 395.137278 337.174724 
" style="fill:none;stroke:#000000;stroke-linecap:round;"/>
    <path clip-path="url(#pd73445c463)" d="M 399.306057 338.793761 
L 395.137278 337.174724 
L 398.933776 334.811123 
L 399.306057 338.793761 
z
" style="stroke:#000000;stroke-linecap:round;"/>
   </g>
   <g id="patch_30">
    <path clip-path="url(#pd73445c463)" d="M 398.974071 333.305392 
Q 397.591675 333.062121 397.310394 333.012621 
" style="fill:none;stroke:#000000;stroke-linecap:round;"/>
    <path clip-path="url(#pd73445c463)" d="M 400.903231 335.675613 
L 397.310394 333.012621 
L 401.59649 331.736147 
L 400.903231 335.675613 
z
" style="stroke:#000000;stroke-linecap:round;"/>
   </g>
   <g id="patch_31">
    <path clip-path="url(#pd73445c463)" d="M 423.288964 328.69464 
Q 423.884401 328.330417 423.526086 328.549595 
" style="fill:none;stroke:#000000;stroke-linecap:round;"/>
    <path clip-path="url(#pd73445c463)" d="M 419.070219 328.930711 
L 423.526086 328.549595 
L 421.157458 332.342958 
L 419.070219 328.930711 
z
" style="stroke:#000000;stroke-linecap:round;"/>
   </g>
   <g id="patch_32">
    <path clip-path="url(#pd73445c463)" d="M 185.943101 373.316047 
Q 152.823836 460.938839 120.099865 547.51581 
" style="fill:none;stroke:#000000;stroke-linecap:round;"/>
    <path clip-path="url(#pd73445c463)" d="M 123.384937 544.481291 
L 120.099865 547.51581 
L 119.643293 543.067041 
L 123.384937 544.481291 
z
" style="stroke:#000000;stroke-linecap:round;"/>
   </g>
   <g id="patch_33">
    <path clip-path="url(#pd73445c463)" d="M 203.849734 360.797136 
Q 233.49754 360.47386 262.027378 360.162774 
" style="fill:none;stroke:#000000;stroke-linecap:round;"/>
    <path clip-path="url(#pd73445c463)" d="M 258.005809 358.206506 
L 262.027378 360.162774 
L 258.049422 362.206268 
L 258.005809 358.206506 
z
" style="stroke:#000000;stroke-linecap:round;"/>
   </g>
   <g id="patch_34">
    <path clip-path="url(#pd73445c463)" d="M 111.997869 573.818144 
Q 93.285181 653.39604 74.828418 731.885587 
" style="fill:none;stroke:#000000;stroke-linecap:round;"/>
    <path clip-path="url(#pd73445c463)" d="M 77.690938 728.449604 
L 74.828418 731.885587 
L 73.797144 727.533981 
L 77.690938 728.449604 
z
" style="stroke:#000000;stroke-linecap:round;"/>
   </g>
   <g id="patch_35">
    <path clip-path="url(#pd73445c463)" d="M 119.703974 548.563209 
Q 152.823239 460.940417 185.547209 374.363446 
" style="fill:none;stroke:#000000;stroke-linecap:round;"/>
    <path clip-path="url(#pd73445c463)" d="M 182.262138 377.397965 
L 185.547209 374.363446 
L 186.003782 378.812214 
L 182.262138 377.397965 
z
" style="stroke:#000000;stroke-linecap:round;"/>
   </g>
   <g id="patch_36">
    <path clip-path="url(#pd73445c463)" d="M 65.634655 757.684241 
Q 60.763721 767.437994 56.392299 776.191502 
" style="fill:none;stroke:#000000;stroke-linecap:round;"/>
    <path clip-path="url(#pd73445c463)" d="M 59.968699 773.506477 
L 56.392299 776.191502 
L 56.390119 771.719367 
L 59.968699 773.506477 
z
" style="stroke:#000000;stroke-linecap:round;"/>
   </g>
   <g id="patch_37">
    <path clip-path="url(#pd73445c463)" d="M 74.573598 732.969239 
Q 93.286285 653.391343 111.743049 574.901796 
" style="fill:none;stroke:#000000;stroke-linecap:round;"/>
    <path clip-path="url(#pd73445c463)" d="M 108.880528 578.337778 
L 111.743049 574.901796 
L 112.774323 579.253402 
L 108.880528 578.337778 
z
" style="stroke:#000000;stroke-linecap:round;"/>
   </g>
   <g id="patch_38">
    <path clip-path="url(#pd73445c463)" d="M 55.893626 777.190065 
Q 60.76456 767.436313 65.135982 758.682805 
" style="fill:none;stroke:#000000;stroke-linecap:round;"/>
    <path clip-path="url(#pd73445c463)" d="M 61.559582 761.36783 
L 65.135982 758.682805 
L 65.138162 763.15494 
L 61.559582 761.36783 
z
" style="stroke:#000000;stroke-linecap:round;"/>
   </g>
   <g id="patch_39">
    <path clip-path="url(#pd73445c463)" d="M 345.836786 377.634417 
Q 331.888276 458.192048 318.130514 537.648038 
" style="fill:none;stroke:#000000;stroke-linecap:round;"/>
    <path clip-path="url(#pd73445c463)" d="M 320.783634 534.047906 
L 318.130514 537.648038 
L 316.84228 533.365462 
L 320.783634 534.047906 
z
" style="stroke:#000000;stroke-linecap:round;"/>
   </g>
   <g id="patch_40">
    <path clip-path="url(#pd73445c463)" d="M 334.896024 363.756056 
Q 312.238733 362.304243 290.697188 360.923923 
" style="fill:none;stroke:#000000;stroke-linecap:round;"/>
    <path clip-path="url(#pd73445c463)" d="M 294.561109 363.175614 
L 290.697188 360.923923 
L 294.816893 359.1838 
L 294.561109 363.175614 
z
" style="stroke:#000000;stroke-linecap:round;"/>
   </g>
   <g id="patch_41">
    <path clip-path="url(#pd73445c463)" d="M 311.508426 564.33944 
Q 283.609883 648.250163 256.064078 731.099954 
" style="fill:none;stroke:#000000;stroke-linecap:round;"/>
    <path clip-path="url(#pd73445c463)" d="M 259.223922 727.935244 
L 256.064078 731.099954 
L 255.428217 726.673253 
L 259.223922 727.935244 
z
" style="stroke:#000000;stroke-linecap:round;"/>
   </g>
   <g id="patch_42">
    <path clip-path="url(#pd73445c463)" d="M 317.939525 538.751066 
Q 331.888036 458.193434 345.645798 378.737445 
" style="fill:none;stroke:#000000;stroke-linecap:round;"/>
    <path clip-path="url(#pd73445c463)" d="M 342.992677 382.337577 
L 345.645798 378.737445 
L 346.934031 383.02002 
L 342.992677 382.337577 
z
" style="stroke:#000000;stroke-linecap:round;"/>
   </g>
   <g id="patch_43">
    <path clip-path="url(#pd73445c463)" d="M 244.754365 756.07252 
Q 239.191865 765.386743 234.202616 773.741079 
" style="fill:none;stroke:#000000;stroke-linecap:round;"/>
    <path clip-path="url(#pd73445c463)" d="M 237.970636 771.33234 
L 234.202616 773.741079 
L 234.536437 769.281419 
L 237.970636 771.33234 
z
" style="stroke:#000000;stroke-linecap:round;"/>
   </g>
   <g id="patch_44">
    <path clip-path="url(#pd73445c463)" d="M 255.712147 732.158459 
Q 283.61069 648.247737 311.156495 565.397946 
" style="fill:none;stroke:#000000;stroke-linecap:round;"/>
    <path clip-path="url(#pd73445c463)" d="M 307.996651 568.562655 
L 311.156495 565.397946 
L 311.792356 569.824647 
L 307.996651 568.562655 
z
" style="stroke:#000000;stroke-linecap:round;"/>
   </g>
   <g id="patch_45">
    <path clip-path="url(#pd73445c463)" d="M 233.629227 774.7012 
Q 239.191726 765.386976 244.180976 757.032641 
" style="fill:none;stroke:#000000;stroke-linecap:round;"/>
    <path clip-path="url(#pd73445c463)" d="M 240.412956 759.44138 
L 244.180976 757.032641 
L 243.847155 761.4923 
L 240.412956 759.44138 
z
" style="stroke:#000000;stroke-linecap:round;"/>
   </g>
   <g id="patch_46">
    <path clip-path="url(#pd73445c463)" d="M 131.776746 409.977601 
Q 124.875021 403.554492 118.791733 397.893065 
" style="fill:none;stroke:#000000;stroke-linecap:round;"/>
    <path clip-path="url(#pd73445c463)" d="M 120.357329 402.082207 
L 118.791733 397.893065 
L 123.082404 399.154073 
L 120.357329 402.082207 
z
" style="stroke:#000000;stroke-linecap:round;"/>
   </g>
   <g id="patch_47">
    <path clip-path="url(#pd73445c463)" d="M 114.617128 388.085453 
Q 111.454686 388.103572 109.410261 388.115285 
" style="fill:none;stroke:#000000;stroke-linecap:round;"/>
    <path clip-path="url(#pd73445c463)" d="M 113.421654 390.092335 
L 109.410261 388.115285 
L 113.398737 386.092401 
L 113.421654 390.092335 
z
" style="stroke:#000000;stroke-linecap:round;"/>
   </g>
   <g id="patch_48">
    <path clip-path="url(#pd73445c463)" d="M 394.030514 337.27818 
Q 396.432836 337.05362 397.721976 336.933116 
" style="fill:none;stroke:#000000;stroke-linecap:round;"/>
    <path clip-path="url(#pd73445c463)" d="M 393.553198 335.314079 
L 397.721976 336.933116 
L 393.925479 339.296717 
L 393.553198 335.314079 
z
" style="stroke:#000000;stroke-linecap:round;"/>
   </g>
   <g id="patch_49">
    <path clip-path="url(#pd73445c463)" d="M 396.208556 332.818722 
Q 397.590951 333.061993 397.872232 333.111492 
" style="fill:none;stroke:#000000;stroke-linecap:round;"/>
    <path clip-path="url(#pd73445c463)" d="M 394.279396 330.448501 
L 397.872232 333.111492 
L 393.586137 334.387967 
L 394.279396 330.448501 
z
" style="stroke:#000000;stroke-linecap:round;"/>
   </g>
   <g id="PathCollection_1">
    <defs>
     <path d="M 0 13.228757 
C 3.508307 13.228757 6.873396 11.834891 9.354143 9.354143 
C 11.834891 6.873396 13.228757 3.508307 13.228757 0 
C 13.228757 -3.508307 11.834891 -6.873396 9.354143 -9.354143 
C 6.873396 -11.834891 3.508307 -13.228757 0 -13.228757 
C -3.508307 -13.228757 -6.873396 -11.834891 -9.354143 -9.354143 
C -11.834891 -6.873396 -13.228757 -3.508307 -13.228757 0 
C -13.228757 3.508307 -11.834891 6.873396 -9.354143 9.354143 
C -6.873396 11.834891 -3.508307 13.228757 0 13.228757 
z
" id="m79e8d6580d" style="stroke:#87ceeb;"/>
    </defs>
    <g clip-path="url(#pd73445c463)">
     <use style="fill:#87ceeb;stroke:#87ceeb;" x="317.457436" xlink:href="#m79e8d6580d" y="74.975207"/>
     <use style="fill:#87ceeb;stroke:#87ceeb;" x="301.307196" xlink:href="#m79e8d6580d" y="123.949092"/>
     <use style="fill:#87ceeb;stroke:#87ceeb;" x="298.950152" xlink:href="#m79e8d6580d" y="152.516347"/>
     <use style="fill:#87ceeb;stroke:#87ceeb;" x="290.006854" xlink:href="#m79e8d6580d" y="240.291214"/>
     <use style="fill:#87ceeb;stroke:#87ceeb;" x="276.376744" xlink:href="#m79e8d6580d" y="360.006311"/>
     <use style="fill:#87ceeb;stroke:#87ceeb;" x="141.436771" xlink:href="#m79e8d6580d" y="151.28465"/>
     <use style="fill:#87ceeb;stroke:#87ceeb;" x="69.984671" xlink:href="#m79e8d6580d" y="244.761817"/>
     <use style="fill:#87ceeb;stroke:#87ceeb;" x="67.268459" xlink:href="#m79e8d6580d" y="365.025602"/>
     <use style="fill:#87ceeb;stroke:#87ceeb;" x="108.292245" xlink:href="#m79e8d6580d" y="388.12169"/>
     <use style="fill:#87ceeb;stroke:#87ceeb;" x="484.970295" xlink:href="#m79e8d6580d" y="175.715837"/>
     <use style="fill:#87ceeb;stroke:#87ceeb;" x="526.016529" xlink:href="#m79e8d6580d" y="263.125757"/>
     <use style="fill:#87ceeb;stroke:#87ceeb;" x="435.764199" xlink:href="#m79e8d6580d" y="321.063658"/>
     <use style="fill:#87ceeb;stroke:#87ceeb;" x="412.002953" xlink:href="#m79e8d6580d" y="335.598186"/>
     <use style="fill:#87ceeb;stroke:#87ceeb;" x="190.620419" xlink:href="#m79e8d6580d" y="360.941386"/>
     <use style="fill:#87ceeb;stroke:#87ceeb;" x="115.026656" xlink:href="#m79e8d6580d" y="560.937869"/>
     <use style="fill:#87ceeb;stroke:#87ceeb;" x="71.54481" xlink:href="#m79e8d6580d" y="745.849513"/>
     <use style="fill:#87ceeb;stroke:#87ceeb;" x="49.983471" xlink:href="#m79e8d6580d" y="789.024793"/>
     <use style="fill:#87ceeb;stroke:#87ceeb;" x="348.093393" xlink:href="#m79e8d6580d" y="364.601705"/>
     <use style="fill:#87ceeb;stroke:#87ceeb;" x="315.682918" xlink:href="#m79e8d6580d" y="551.783777"/>
     <use style="fill:#87ceeb;stroke:#87ceeb;" x="251.537655" xlink:href="#m79e8d6580d" y="744.714122"/>
     <use style="fill:#87ceeb;stroke:#87ceeb;" x="226.845937" xlink:href="#m79e8d6580d" y="786.059597"/>
     <use style="fill:#87ceeb;stroke:#87ceeb;" x="141.459219" xlink:href="#m79e8d6580d" y="418.988619"/>
     <use style="fill:#87ceeb;stroke:#87ceeb;" x="127.844485" xlink:href="#m79e8d6580d" y="388.009671"/>
     <use style="fill:#87ceeb;stroke:#87ceeb;" x="380.856302" xlink:href="#m79e8d6580d" y="338.509654"/>
     <use style="fill:#87ceeb;stroke:#87ceeb;" x="383.179674" xlink:href="#m79e8d6580d" y="330.525927"/>
    </g>
   </g>
   <g id="text_1">
    <g clip-path="url(#pd73445c463)">
     <!-- Head -->
     <g transform="translate(304.382436 77.734582)scale(0.1 -0.1)">
      <defs>
       <path d="M 9.8125 72.90625 
L 19.671875 72.90625 
L 19.671875 43.015625 
L 55.515625 43.015625 
L 55.515625 72.90625 
L 65.375 72.90625 
L 65.375 0 
L 55.515625 0 
L 55.515625 34.71875 
L 19.671875 34.71875 
L 19.671875 0 
L 9.8125 0 
z
" id="DejaVuSans-72"/>
       <path d="M 56.203125 29.59375 
L 56.203125 25.203125 
L 14.890625 25.203125 
Q 15.484375 15.921875 20.484375 11.0625 
Q 25.484375 6.203125 34.421875 6.203125 
Q 39.59375 6.203125 44.453125 7.46875 
Q 49.3125 8.734375 54.109375 11.28125 
L 54.109375 2.78125 
Q 49.265625 0.734375 44.1875 -0.34375 
Q 39.109375 -1.421875 33.890625 -1.421875 
Q 20.796875 -1.421875 13.15625 6.1875 
Q 5.515625 13.8125 5.515625 26.8125 
Q 5.515625 40.234375 12.765625 48.109375 
Q 20.015625 56 32.328125 56 
Q 43.359375 56 49.78125 48.890625 
Q 56.203125 41.796875 56.203125 29.59375 
z
M 47.21875 32.234375 
Q 47.125 39.59375 43.09375 43.984375 
Q 39.0625 48.390625 32.421875 48.390625 
Q 24.90625 48.390625 20.390625 44.140625 
Q 15.875 39.890625 15.1875 32.171875 
z
" id="DejaVuSans-101"/>
       <path d="M 34.28125 27.484375 
Q 23.390625 27.484375 19.1875 25 
Q 14.984375 22.515625 14.984375 16.5 
Q 14.984375 11.71875 18.140625 8.90625 
Q 21.296875 6.109375 26.703125 6.109375 
Q 34.1875 6.109375 38.703125 11.40625 
Q 43.21875 16.703125 43.21875 25.484375 
L 43.21875 27.484375 
z
M 52.203125 31.203125 
L 52.203125 0 
L 43.21875 0 
L 43.21875 8.296875 
Q 40.140625 3.328125 35.546875 0.953125 
Q 30.953125 -1.421875 24.3125 -1.421875 
Q 15.921875 -1.421875 10.953125 3.296875 
Q 6 8.015625 6 15.921875 
Q 6 25.140625 12.171875 29.828125 
Q 18.359375 34.515625 30.609375 34.515625 
L 43.21875 34.515625 
L 43.21875 35.40625 
Q 43.21875 41.609375 39.140625 45 
Q 35.0625 48.390625 27.6875 48.390625 
Q 23 48.390625 18.546875 47.265625 
Q 14.109375 46.140625 10.015625 43.890625 
L 10.015625 52.203125 
Q 14.9375 54.109375 19.578125 55.046875 
Q 24.21875 56 28.609375 56 
Q 40.484375 56 46.34375 49.84375 
Q 52.203125 43.703125 52.203125 31.203125 
z
" id="DejaVuSans-97"/>
       <path d="M 45.40625 46.390625 
L 45.40625 75.984375 
L 54.390625 75.984375 
L 54.390625 0 
L 45.40625 0 
L 45.40625 8.203125 
Q 42.578125 3.328125 38.25 0.953125 
Q 33.9375 -1.421875 27.875 -1.421875 
Q 17.96875 -1.421875 11.734375 6.484375 
Q 5.515625 14.40625 5.515625 27.296875 
Q 5.515625 40.1875 11.734375 48.09375 
Q 17.96875 56 27.875 56 
Q 33.9375 56 38.25 53.625 
Q 42.578125 51.265625 45.40625 46.390625 
z
M 14.796875 27.296875 
Q 14.796875 17.390625 18.875 11.75 
Q 22.953125 6.109375 30.078125 6.109375 
Q 37.203125 6.109375 41.296875 11.75 
Q 45.40625 17.390625 45.40625 27.296875 
Q 45.40625 37.203125 41.296875 42.84375 
Q 37.203125 48.484375 30.078125 48.484375 
Q 22.953125 48.484375 18.875 42.84375 
Q 14.796875 37.203125 14.796875 27.296875 
z
" id="DejaVuSans-100"/>
      </defs>
      <use xlink:href="#DejaVuSans-72"/>
      <use x="75.195312" xlink:href="#DejaVuSans-101"/>
      <use x="136.71875" xlink:href="#DejaVuSans-97"/>
      <use x="197.998047" xlink:href="#DejaVuSans-100"/>
     </g>
    </g>
   </g>
   <g id="text_2">
    <g clip-path="url(#pd73445c463)">
     <!-- c7 -->
     <g transform="translate(295.376727 126.708467)scale(0.1 -0.1)">
      <defs>
       <path d="M 48.78125 52.59375 
L 48.78125 44.1875 
Q 44.96875 46.296875 41.140625 47.34375 
Q 37.3125 48.390625 33.40625 48.390625 
Q 24.65625 48.390625 19.8125 42.84375 
Q 14.984375 37.3125 14.984375 27.296875 
Q 14.984375 17.28125 19.8125 11.734375 
Q 24.65625 6.203125 33.40625 6.203125 
Q 37.3125 6.203125 41.140625 7.25 
Q 44.96875 8.296875 48.78125 10.40625 
L 48.78125 2.09375 
Q 45.015625 0.34375 40.984375 -0.53125 
Q 36.96875 -1.421875 32.421875 -1.421875 
Q 20.0625 -1.421875 12.78125 6.34375 
Q 5.515625 14.109375 5.515625 27.296875 
Q 5.515625 40.671875 12.859375 48.328125 
Q 20.21875 56 33.015625 56 
Q 37.15625 56 41.109375 55.140625 
Q 45.0625 54.296875 48.78125 52.59375 
z
" id="DejaVuSans-99"/>
       <path d="M 8.203125 72.90625 
L 55.078125 72.90625 
L 55.078125 68.703125 
L 28.609375 0 
L 18.3125 0 
L 43.21875 64.59375 
L 8.203125 64.59375 
z
" id="DejaVuSans-55"/>
      </defs>
      <use xlink:href="#DejaVuSans-99"/>
      <use x="54.980469" xlink:href="#DejaVuSans-55"/>
     </g>
    </g>
   </g>
   <g id="text_3">
    <g clip-path="url(#pd73445c463)">
     <!-- SpineShoulder -->
     <g transform="translate(262.700933 155.275722)scale(0.1 -0.1)">
      <defs>
       <path d="M 53.515625 70.515625 
L 53.515625 60.890625 
Q 47.90625 63.578125 42.921875 64.890625 
Q 37.9375 66.21875 33.296875 66.21875 
Q 25.25 66.21875 20.875 63.09375 
Q 16.5 59.96875 16.5 54.203125 
Q 16.5 49.359375 19.40625 46.890625 
Q 22.3125 44.4375 30.421875 42.921875 
L 36.375 41.703125 
Q 47.40625 39.59375 52.65625 34.296875 
Q 57.90625 29 57.90625 20.125 
Q 57.90625 9.515625 50.796875 4.046875 
Q 43.703125 -1.421875 29.984375 -1.421875 
Q 24.8125 -1.421875 18.96875 -0.25 
Q 13.140625 0.921875 6.890625 3.21875 
L 6.890625 13.375 
Q 12.890625 10.015625 18.65625 8.296875 
Q 24.421875 6.59375 29.984375 6.59375 
Q 38.421875 6.59375 43.015625 9.90625 
Q 47.609375 13.234375 47.609375 19.390625 
Q 47.609375 24.75 44.3125 27.78125 
Q 41.015625 30.8125 33.5 32.328125 
L 27.484375 33.5 
Q 16.453125 35.6875 11.515625 40.375 
Q 6.59375 45.0625 6.59375 53.421875 
Q 6.59375 63.09375 13.40625 68.65625 
Q 20.21875 74.21875 32.171875 74.21875 
Q 37.3125 74.21875 42.625 73.28125 
Q 47.953125 72.359375 53.515625 70.515625 
z
" id="DejaVuSans-83"/>
       <path d="M 18.109375 8.203125 
L 18.109375 -20.796875 
L 9.078125 -20.796875 
L 9.078125 54.6875 
L 18.109375 54.6875 
L 18.109375 46.390625 
Q 20.953125 51.265625 25.265625 53.625 
Q 29.59375 56 35.59375 56 
Q 45.5625 56 51.78125 48.09375 
Q 58.015625 40.1875 58.015625 27.296875 
Q 58.015625 14.40625 51.78125 6.484375 
Q 45.5625 -1.421875 35.59375 -1.421875 
Q 29.59375 -1.421875 25.265625 0.953125 
Q 20.953125 3.328125 18.109375 8.203125 
z
M 48.6875 27.296875 
Q 48.6875 37.203125 44.609375 42.84375 
Q 40.53125 48.484375 33.40625 48.484375 
Q 26.265625 48.484375 22.1875 42.84375 
Q 18.109375 37.203125 18.109375 27.296875 
Q 18.109375 17.390625 22.1875 11.75 
Q 26.265625 6.109375 33.40625 6.109375 
Q 40.53125 6.109375 44.609375 11.75 
Q 48.6875 17.390625 48.6875 27.296875 
z
" id="DejaVuSans-112"/>
       <path d="M 9.421875 54.6875 
L 18.40625 54.6875 
L 18.40625 0 
L 9.421875 0 
z
M 9.421875 75.984375 
L 18.40625 75.984375 
L 18.40625 64.59375 
L 9.421875 64.59375 
z
" id="DejaVuSans-105"/>
       <path d="M 54.890625 33.015625 
L 54.890625 0 
L 45.90625 0 
L 45.90625 32.71875 
Q 45.90625 40.484375 42.875 44.328125 
Q 39.84375 48.1875 33.796875 48.1875 
Q 26.515625 48.1875 22.3125 43.546875 
Q 18.109375 38.921875 18.109375 30.90625 
L 18.109375 0 
L 9.078125 0 
L 9.078125 54.6875 
L 18.109375 54.6875 
L 18.109375 46.1875 
Q 21.34375 51.125 25.703125 53.5625 
Q 30.078125 56 35.796875 56 
Q 45.21875 56 50.046875 50.171875 
Q 54.890625 44.34375 54.890625 33.015625 
z
" id="DejaVuSans-110"/>
       <path d="M 54.890625 33.015625 
L 54.890625 0 
L 45.90625 0 
L 45.90625 32.71875 
Q 45.90625 40.484375 42.875 44.328125 
Q 39.84375 48.1875 33.796875 48.1875 
Q 26.515625 48.1875 22.3125 43.546875 
Q 18.109375 38.921875 18.109375 30.90625 
L 18.109375 0 
L 9.078125 0 
L 9.078125 75.984375 
L 18.109375 75.984375 
L 18.109375 46.1875 
Q 21.34375 51.125 25.703125 53.5625 
Q 30.078125 56 35.796875 56 
Q 45.21875 56 50.046875 50.171875 
Q 54.890625 44.34375 54.890625 33.015625 
z
" id="DejaVuSans-104"/>
       <path d="M 30.609375 48.390625 
Q 23.390625 48.390625 19.1875 42.75 
Q 14.984375 37.109375 14.984375 27.296875 
Q 14.984375 17.484375 19.15625 11.84375 
Q 23.34375 6.203125 30.609375 6.203125 
Q 37.796875 6.203125 41.984375 11.859375 
Q 46.1875 17.53125 46.1875 27.296875 
Q 46.1875 37.015625 41.984375 42.703125 
Q 37.796875 48.390625 30.609375 48.390625 
z
M 30.609375 56 
Q 42.328125 56 49.015625 48.375 
Q 55.71875 40.765625 55.71875 27.296875 
Q 55.71875 13.875 49.015625 6.21875 
Q 42.328125 -1.421875 30.609375 -1.421875 
Q 18.84375 -1.421875 12.171875 6.21875 
Q 5.515625 13.875 5.515625 27.296875 
Q 5.515625 40.765625 12.171875 48.375 
Q 18.84375 56 30.609375 56 
z
" id="DejaVuSans-111"/>
       <path d="M 8.5 21.578125 
L 8.5 54.6875 
L 17.484375 54.6875 
L 17.484375 21.921875 
Q 17.484375 14.15625 20.5 10.265625 
Q 23.53125 6.390625 29.59375 6.390625 
Q 36.859375 6.390625 41.078125 11.03125 
Q 45.3125 15.671875 45.3125 23.6875 
L 45.3125 54.6875 
L 54.296875 54.6875 
L 54.296875 0 
L 45.3125 0 
L 45.3125 8.40625 
Q 42.046875 3.421875 37.71875 1 
Q 33.40625 -1.421875 27.6875 -1.421875 
Q 18.265625 -1.421875 13.375 4.4375 
Q 8.5 10.296875 8.5 21.578125 
z
M 31.109375 56 
z
" id="DejaVuSans-117"/>
       <path d="M 9.421875 75.984375 
L 18.40625 75.984375 
L 18.40625 0 
L 9.421875 0 
z
" id="DejaVuSans-108"/>
       <path d="M 41.109375 46.296875 
Q 39.59375 47.171875 37.8125 47.578125 
Q 36.03125 48 33.890625 48 
Q 26.265625 48 22.1875 43.046875 
Q 18.109375 38.09375 18.109375 28.8125 
L 18.109375 0 
L 9.078125 0 
L 9.078125 54.6875 
L 18.109375 54.6875 
L 18.109375 46.1875 
Q 20.953125 51.171875 25.484375 53.578125 
Q 30.03125 56 36.53125 56 
Q 37.453125 56 38.578125 55.875 
Q 39.703125 55.765625 41.0625 55.515625 
z
" id="DejaVuSans-114"/>
      </defs>
      <use xlink:href="#DejaVuSans-83"/>
      <use x="63.476562" xlink:href="#DejaVuSans-112"/>
      <use x="126.953125" xlink:href="#DejaVuSans-105"/>
      <use x="154.736328" xlink:href="#DejaVuSans-110"/>
      <use x="218.115234" xlink:href="#DejaVuSans-101"/>
      <use x="279.638672" xlink:href="#DejaVuSans-83"/>
      <use x="343.115234" xlink:href="#DejaVuSans-104"/>
      <use x="406.494141" xlink:href="#DejaVuSans-111"/>
      <use x="467.675781" xlink:href="#DejaVuSans-117"/>
      <use x="531.054688" xlink:href="#DejaVuSans-108"/>
      <use x="558.837891" xlink:href="#DejaVuSans-100"/>
      <use x="622.314453" xlink:href="#DejaVuSans-101"/>
      <use x="683.837891" xlink:href="#DejaVuSans-114"/>
     </g>
    </g>
   </g>
   <g id="text_4">
    <g clip-path="url(#pd73445c463)">
     <!-- Spine -->
     <g transform="translate(276.024042 243.050589)scale(0.1 -0.1)">
      <use xlink:href="#DejaVuSans-83"/>
      <use x="63.476562" xlink:href="#DejaVuSans-112"/>
      <use x="126.953125" xlink:href="#DejaVuSans-105"/>
      <use x="154.736328" xlink:href="#DejaVuSans-110"/>
      <use x="218.115234" xlink:href="#DejaVuSans-101"/>
     </g>
    </g>
   </g>
   <g id="text_5">
    <g clip-path="url(#pd73445c463)">
     <!-- Sacr -->
     <g transform="translate(265.333775 362.765686)scale(0.1 -0.1)">
      <use xlink:href="#DejaVuSans-83"/>
      <use x="63.476562" xlink:href="#DejaVuSans-97"/>
      <use x="124.755859" xlink:href="#DejaVuSans-99"/>
      <use x="179.736328" xlink:href="#DejaVuSans-114"/>
     </g>
    </g>
   </g>
   <g id="text_6">
    <g clip-path="url(#pd73445c463)">
     <!-- LShoulder -->
     <g transform="translate(116.384427 154.044025)scale(0.1 -0.1)">
      <defs>
       <path d="M 9.8125 72.90625 
L 19.671875 72.90625 
L 19.671875 8.296875 
L 55.171875 8.296875 
L 55.171875 0 
L 9.8125 0 
z
" id="DejaVuSans-76"/>
      </defs>
      <use xlink:href="#DejaVuSans-76"/>
      <use x="55.712891" xlink:href="#DejaVuSans-83"/>
      <use x="119.189453" xlink:href="#DejaVuSans-104"/>
      <use x="182.568359" xlink:href="#DejaVuSans-111"/>
      <use x="243.75" xlink:href="#DejaVuSans-117"/>
      <use x="307.128906" xlink:href="#DejaVuSans-108"/>
      <use x="334.912109" xlink:href="#DejaVuSans-100"/>
      <use x="398.388672" xlink:href="#DejaVuSans-101"/>
      <use x="459.912109" xlink:href="#DejaVuSans-114"/>
     </g>
    </g>
   </g>
   <g id="text_7">
    <g clip-path="url(#pd73445c463)">
     <!-- LElbow -->
     <g transform="translate(52.32764 247.521192)scale(0.1 -0.1)">
      <defs>
       <path d="M 9.8125 72.90625 
L 55.90625 72.90625 
L 55.90625 64.59375 
L 19.671875 64.59375 
L 19.671875 43.015625 
L 54.390625 43.015625 
L 54.390625 34.71875 
L 19.671875 34.71875 
L 19.671875 8.296875 
L 56.78125 8.296875 
L 56.78125 0 
L 9.8125 0 
z
" id="DejaVuSans-69"/>
       <path d="M 48.6875 27.296875 
Q 48.6875 37.203125 44.609375 42.84375 
Q 40.53125 48.484375 33.40625 48.484375 
Q 26.265625 48.484375 22.1875 42.84375 
Q 18.109375 37.203125 18.109375 27.296875 
Q 18.109375 17.390625 22.1875 11.75 
Q 26.265625 6.109375 33.40625 6.109375 
Q 40.53125 6.109375 44.609375 11.75 
Q 48.6875 17.390625 48.6875 27.296875 
z
M 18.109375 46.390625 
Q 20.953125 51.265625 25.265625 53.625 
Q 29.59375 56 35.59375 56 
Q 45.5625 56 51.78125 48.09375 
Q 58.015625 40.1875 58.015625 27.296875 
Q 58.015625 14.40625 51.78125 6.484375 
Q 45.5625 -1.421875 35.59375 -1.421875 
Q 29.59375 -1.421875 25.265625 0.953125 
Q 20.953125 3.328125 18.109375 8.203125 
L 18.109375 0 
L 9.078125 0 
L 9.078125 75.984375 
L 18.109375 75.984375 
z
" id="DejaVuSans-98"/>
       <path d="M 4.203125 54.6875 
L 13.1875 54.6875 
L 24.421875 12.015625 
L 35.59375 54.6875 
L 46.1875 54.6875 
L 57.421875 12.015625 
L 68.609375 54.6875 
L 77.59375 54.6875 
L 63.28125 0 
L 52.6875 0 
L 40.921875 44.828125 
L 29.109375 0 
L 18.5 0 
z
" id="DejaVuSans-119"/>
      </defs>
      <use xlink:href="#DejaVuSans-76"/>
      <use x="55.712891" xlink:href="#DejaVuSans-69"/>
      <use x="118.896484" xlink:href="#DejaVuSans-108"/>
      <use x="146.679688" xlink:href="#DejaVuSans-98"/>
      <use x="210.15625" xlink:href="#DejaVuSans-111"/>
      <use x="271.337891" xlink:href="#DejaVuSans-119"/>
     </g>
    </g>
   </g>
   <g id="text_8">
    <g clip-path="url(#pd73445c463)">
     <!-- LWrist -->
     <g transform="translate(52.210647 367.784977)scale(0.1 -0.1)">
      <defs>
       <path d="M 3.328125 72.90625 
L 13.28125 72.90625 
L 28.609375 11.28125 
L 43.890625 72.90625 
L 54.984375 72.90625 
L 70.3125 11.28125 
L 85.59375 72.90625 
L 95.609375 72.90625 
L 77.296875 0 
L 64.890625 0 
L 49.515625 63.28125 
L 33.984375 0 
L 21.578125 0 
z
" id="DejaVuSans-87"/>
       <path d="M 44.28125 53.078125 
L 44.28125 44.578125 
Q 40.484375 46.53125 36.375 47.5 
Q 32.28125 48.484375 27.875 48.484375 
Q 21.1875 48.484375 17.84375 46.4375 
Q 14.5 44.390625 14.5 40.28125 
Q 14.5 37.15625 16.890625 35.375 
Q 19.28125 33.59375 26.515625 31.984375 
L 29.59375 31.296875 
Q 39.15625 29.25 43.1875 25.515625 
Q 47.21875 21.78125 47.21875 15.09375 
Q 47.21875 7.46875 41.1875 3.015625 
Q 35.15625 -1.421875 24.609375 -1.421875 
Q 20.21875 -1.421875 15.453125 -0.5625 
Q 10.6875 0.296875 5.421875 2 
L 5.421875 11.28125 
Q 10.40625 8.6875 15.234375 7.390625 
Q 20.0625 6.109375 24.8125 6.109375 
Q 31.15625 6.109375 34.5625 8.28125 
Q 37.984375 10.453125 37.984375 14.40625 
Q 37.984375 18.0625 35.515625 20.015625 
Q 33.0625 21.96875 24.703125 23.78125 
L 21.578125 24.515625 
Q 13.234375 26.265625 9.515625 29.90625 
Q 5.8125 33.546875 5.8125 39.890625 
Q 5.8125 47.609375 11.28125 51.796875 
Q 16.75 56 26.8125 56 
Q 31.78125 56 36.171875 55.265625 
Q 40.578125 54.546875 44.28125 53.078125 
z
" id="DejaVuSans-115"/>
       <path d="M 18.3125 70.21875 
L 18.3125 54.6875 
L 36.8125 54.6875 
L 36.8125 47.703125 
L 18.3125 47.703125 
L 18.3125 18.015625 
Q 18.3125 11.328125 20.140625 9.421875 
Q 21.96875 7.515625 27.59375 7.515625 
L 36.8125 7.515625 
L 36.8125 0 
L 27.59375 0 
Q 17.1875 0 13.234375 3.875 
Q 9.28125 7.765625 9.28125 18.015625 
L 9.28125 47.703125 
L 2.6875 47.703125 
L 2.6875 54.6875 
L 9.28125 54.6875 
L 9.28125 70.21875 
z
" id="DejaVuSans-116"/>
      </defs>
      <use xlink:href="#DejaVuSans-76"/>
      <use x="46.587891" xlink:href="#DejaVuSans-87"/>
      <use x="140.964844" xlink:href="#DejaVuSans-114"/>
      <use x="182.078125" xlink:href="#DejaVuSans-105"/>
      <use x="209.861328" xlink:href="#DejaVuSans-115"/>
      <use x="261.960938" xlink:href="#DejaVuSans-116"/>
     </g>
    </g>
   </g>
   <g id="text_9">
    <g clip-path="url(#pd73445c463)">
     <!-- LHand -->
     <g transform="translate(92.33912 390.881065)scale(0.1 -0.1)">
      <use xlink:href="#DejaVuSans-76"/>
      <use x="55.712891" xlink:href="#DejaVuSans-72"/>
      <use x="130.908203" xlink:href="#DejaVuSans-97"/>
      <use x="192.1875" xlink:href="#DejaVuSans-110"/>
      <use x="255.566406" xlink:href="#DejaVuSans-100"/>
     </g>
    </g>
   </g>
   <g id="text_10">
    <g clip-path="url(#pd73445c463)">
     <!-- RShoulder -->
     <g transform="translate(459.22967 178.475212)scale(0.1 -0.1)">
      <defs>
       <path d="M 44.390625 34.1875 
Q 47.5625 33.109375 50.5625 29.59375 
Q 53.5625 26.078125 56.59375 19.921875 
L 66.609375 0 
L 56 0 
L 46.6875 18.703125 
Q 43.0625 26.03125 39.671875 28.421875 
Q 36.28125 30.8125 30.421875 30.8125 
L 19.671875 30.8125 
L 19.671875 0 
L 9.8125 0 
L 9.8125 72.90625 
L 32.078125 72.90625 
Q 44.578125 72.90625 50.734375 67.671875 
Q 56.890625 62.453125 56.890625 51.90625 
Q 56.890625 45.015625 53.6875 40.46875 
Q 50.484375 35.9375 44.390625 34.1875 
z
M 19.671875 64.796875 
L 19.671875 38.921875 
L 32.078125 38.921875 
Q 39.203125 38.921875 42.84375 42.21875 
Q 46.484375 45.515625 46.484375 51.90625 
Q 46.484375 58.296875 42.84375 61.546875 
Q 39.203125 64.796875 32.078125 64.796875 
z
" id="DejaVuSans-82"/>
      </defs>
      <use xlink:href="#DejaVuSans-82"/>
      <use x="69.482422" xlink:href="#DejaVuSans-83"/>
      <use x="132.958984" xlink:href="#DejaVuSans-104"/>
      <use x="196.337891" xlink:href="#DejaVuSans-111"/>
      <use x="257.519531" xlink:href="#DejaVuSans-117"/>
      <use x="320.898438" xlink:href="#DejaVuSans-108"/>
      <use x="348.681641" xlink:href="#DejaVuSans-100"/>
      <use x="412.158203" xlink:href="#DejaVuSans-101"/>
      <use x="473.681641" xlink:href="#DejaVuSans-114"/>
     </g>
    </g>
   </g>
   <g id="text_11">
    <g clip-path="url(#pd73445c463)">
     <!-- RElbow -->
     <g transform="translate(507.671216 265.885132)scale(0.1 -0.1)">
      <use xlink:href="#DejaVuSans-82"/>
      <use x="69.482422" xlink:href="#DejaVuSans-69"/>
      <use x="132.666016" xlink:href="#DejaVuSans-108"/>
      <use x="160.449219" xlink:href="#DejaVuSans-98"/>
      <use x="223.925781" xlink:href="#DejaVuSans-111"/>
      <use x="285.107422" xlink:href="#DejaVuSans-119"/>
     </g>
    </g>
   </g>
   <g id="text_12">
    <g clip-path="url(#pd73445c463)">
     <!-- RWrist -->
     <g transform="translate(419.761855 323.823033)scale(0.1 -0.1)">
      <use xlink:href="#DejaVuSans-82"/>
      <use x="65.482422" xlink:href="#DejaVuSans-87"/>
      <use x="159.859375" xlink:href="#DejaVuSans-114"/>
      <use x="200.972656" xlink:href="#DejaVuSans-105"/>
      <use x="228.755859" xlink:href="#DejaVuSans-115"/>
      <use x="280.855469" xlink:href="#DejaVuSans-116"/>
     </g>
    </g>
   </g>
   <g id="text_13">
    <g clip-path="url(#pd73445c463)">
     <!-- RHand -->
     <g transform="translate(395.361546 338.357561)scale(0.1 -0.1)">
      <use xlink:href="#DejaVuSans-82"/>
      <use x="69.482422" xlink:href="#DejaVuSans-72"/>
      <use x="144.677734" xlink:href="#DejaVuSans-97"/>
      <use x="205.957031" xlink:href="#DejaVuSans-110"/>
      <use x="269.335938" xlink:href="#DejaVuSans-100"/>
     </g>
    </g>
   </g>
   <g id="text_14">
    <g clip-path="url(#pd73445c463)">
     <!-- LHip -->
     <g transform="translate(179.511044 363.700761)scale(0.1 -0.1)">
      <use xlink:href="#DejaVuSans-76"/>
      <use x="55.712891" xlink:href="#DejaVuSans-72"/>
      <use x="130.908203" xlink:href="#DejaVuSans-105"/>
      <use x="158.691406" xlink:href="#DejaVuSans-112"/>
     </g>
    </g>
   </g>
   <g id="text_15">
    <g clip-path="url(#pd73445c463)">
     <!-- LKnee -->
     <g transform="translate(99.639938 563.697244)scale(0.1 -0.1)">
      <defs>
       <path d="M 9.8125 72.90625 
L 19.671875 72.90625 
L 19.671875 42.09375 
L 52.390625 72.90625 
L 65.09375 72.90625 
L 28.90625 38.921875 
L 67.671875 0 
L 54.6875 0 
L 19.671875 35.109375 
L 19.671875 0 
L 9.8125 0 
z
" id="DejaVuSans-75"/>
      </defs>
      <use xlink:href="#DejaVuSans-76"/>
      <use x="55.712891" xlink:href="#DejaVuSans-75"/>
      <use x="121.289062" xlink:href="#DejaVuSans-110"/>
      <use x="184.667969" xlink:href="#DejaVuSans-101"/>
      <use x="246.191406" xlink:href="#DejaVuSans-101"/>
     </g>
    </g>
   </g>
   <g id="text_16">
    <g clip-path="url(#pd73445c463)">
     <!-- LAnkle -->
     <g transform="translate(54.696372 748.608888)scale(0.1 -0.1)">
      <defs>
       <path d="M 34.1875 63.1875 
L 20.796875 26.90625 
L 47.609375 26.90625 
z
M 28.609375 72.90625 
L 39.796875 72.90625 
L 67.578125 0 
L 57.328125 0 
L 50.6875 18.703125 
L 17.828125 18.703125 
L 11.1875 0 
L 0.78125 0 
z
" id="DejaVuSans-65"/>
       <path d="M 9.078125 75.984375 
L 18.109375 75.984375 
L 18.109375 31.109375 
L 44.921875 54.6875 
L 56.390625 54.6875 
L 27.390625 29.109375 
L 57.625 0 
L 45.90625 0 
L 18.109375 26.703125 
L 18.109375 0 
L 9.078125 0 
z
" id="DejaVuSans-107"/>
      </defs>
      <use xlink:href="#DejaVuSans-76"/>
      <use x="57.962891" xlink:href="#DejaVuSans-65"/>
      <use x="126.371094" xlink:href="#DejaVuSans-110"/>
      <use x="189.75" xlink:href="#DejaVuSans-107"/>
      <use x="247.660156" xlink:href="#DejaVuSans-108"/>
      <use x="275.443359" xlink:href="#DejaVuSans-101"/>
     </g>
    </g>
   </g>
   <g id="text_17">
    <g clip-path="url(#pd73445c463)">
     <!-- LFoot -->
     <g transform="translate(36.424096 791.784168)scale(0.1 -0.1)">
      <defs>
       <path d="M 9.8125 72.90625 
L 51.703125 72.90625 
L 51.703125 64.59375 
L 19.671875 64.59375 
L 19.671875 43.109375 
L 48.578125 43.109375 
L 48.578125 34.8125 
L 19.671875 34.8125 
L 19.671875 0 
L 9.8125 0 
z
" id="DejaVuSans-70"/>
      </defs>
      <use xlink:href="#DejaVuSans-76"/>
      <use x="55.712891" xlink:href="#DejaVuSans-70"/>
      <use x="109.607422" xlink:href="#DejaVuSans-111"/>
      <use x="170.789062" xlink:href="#DejaVuSans-111"/>
      <use x="231.970703" xlink:href="#DejaVuSans-116"/>
     </g>
    </g>
   </g>
   <g id="text_18">
    <g clip-path="url(#pd73445c463)">
     <!-- RHip -->
     <g transform="translate(336.295737 367.36108)scale(0.1 -0.1)">
      <use xlink:href="#DejaVuSans-82"/>
      <use x="69.482422" xlink:href="#DejaVuSans-72"/>
      <use x="144.677734" xlink:href="#DejaVuSans-105"/>
      <use x="172.460938" xlink:href="#DejaVuSans-112"/>
     </g>
    </g>
   </g>
   <g id="text_19">
    <g clip-path="url(#pd73445c463)">
     <!-- RKnee -->
     <g transform="translate(299.607918 554.543152)scale(0.1 -0.1)">
      <use xlink:href="#DejaVuSans-82"/>
      <use x="69.482422" xlink:href="#DejaVuSans-75"/>
      <use x="135.058594" xlink:href="#DejaVuSans-110"/>
      <use x="198.4375" xlink:href="#DejaVuSans-101"/>
      <use x="259.960938" xlink:href="#DejaVuSans-101"/>
     </g>
    </g>
   </g>
   <g id="text_20">
    <g clip-path="url(#pd73445c463)">
     <!-- RAnkle -->
     <g transform="translate(234.313436 747.473497)scale(0.1 -0.1)">
      <use xlink:href="#DejaVuSans-82"/>
      <use x="65.482422" xlink:href="#DejaVuSans-65"/>
      <use x="133.890625" xlink:href="#DejaVuSans-110"/>
      <use x="197.269531" xlink:href="#DejaVuSans-107"/>
      <use x="255.179688" xlink:href="#DejaVuSans-108"/>
      <use x="282.962891" xlink:href="#DejaVuSans-101"/>
     </g>
    </g>
   </g>
   <g id="text_21">
    <g clip-path="url(#pd73445c463)">
     <!-- RFoot -->
     <g transform="translate(212.598281 788.818972)scale(0.1 -0.1)">
      <use xlink:href="#DejaVuSans-82"/>
      <use x="69.482422" xlink:href="#DejaVuSans-70"/>
      <use x="123.376953" xlink:href="#DejaVuSans-111"/>
      <use x="184.558594" xlink:href="#DejaVuSans-111"/>
      <use x="245.740234" xlink:href="#DejaVuSans-116"/>
     </g>
    </g>
   </g>
   <g id="text_22">
    <g clip-path="url(#pd73445c463)">
     <!-- LHandTip -->
     <g transform="translate(118.045157 421.747994)scale(0.1 -0.1)">
      <defs>
       <path d="M -0.296875 72.90625 
L 61.375 72.90625 
L 61.375 64.59375 
L 35.5 64.59375 
L 35.5 0 
L 25.59375 0 
L 25.59375 64.59375 
L -0.296875 64.59375 
z
" id="DejaVuSans-84"/>
      </defs>
      <use xlink:href="#DejaVuSans-76"/>
      <use x="55.712891" xlink:href="#DejaVuSans-72"/>
      <use x="130.908203" xlink:href="#DejaVuSans-97"/>
      <use x="192.1875" xlink:href="#DejaVuSans-110"/>
      <use x="255.566406" xlink:href="#DejaVuSans-100"/>
      <use x="319.042969" xlink:href="#DejaVuSans-84"/>
      <use x="377.001953" xlink:href="#DejaVuSans-105"/>
      <use x="404.785156" xlink:href="#DejaVuSans-112"/>
     </g>
    </g>
   </g>
   <g id="text_23">
    <g clip-path="url(#pd73445c463)">
     <!-- LThumb -->
     <g transform="translate(108.31011 390.769046)scale(0.1 -0.1)">
      <defs>
       <path d="M 52 44.1875 
Q 55.375 50.25 60.0625 53.125 
Q 64.75 56 71.09375 56 
Q 79.640625 56 84.28125 50.015625 
Q 88.921875 44.046875 88.921875 33.015625 
L 88.921875 0 
L 79.890625 0 
L 79.890625 32.71875 
Q 79.890625 40.578125 77.09375 44.375 
Q 74.3125 48.1875 68.609375 48.1875 
Q 61.625 48.1875 57.5625 43.546875 
Q 53.515625 38.921875 53.515625 30.90625 
L 53.515625 0 
L 44.484375 0 
L 44.484375 32.71875 
Q 44.484375 40.625 41.703125 44.40625 
Q 38.921875 48.1875 33.109375 48.1875 
Q 26.21875 48.1875 22.15625 43.53125 
Q 18.109375 38.875 18.109375 30.90625 
L 18.109375 0 
L 9.078125 0 
L 9.078125 54.6875 
L 18.109375 54.6875 
L 18.109375 46.1875 
Q 21.1875 51.21875 25.484375 53.609375 
Q 29.78125 56 35.6875 56 
Q 41.65625 56 45.828125 52.96875 
Q 50 49.953125 52 44.1875 
z
" id="DejaVuSans-109"/>
      </defs>
      <use xlink:href="#DejaVuSans-76"/>
      <use x="41.962891" xlink:href="#DejaVuSans-84"/>
      <use x="103.046875" xlink:href="#DejaVuSans-104"/>
      <use x="166.425781" xlink:href="#DejaVuSans-117"/>
      <use x="229.804688" xlink:href="#DejaVuSans-109"/>
      <use x="327.216797" xlink:href="#DejaVuSans-98"/>
     </g>
    </g>
   </g>
   <g id="text_24">
    <g clip-path="url(#pd73445c463)">
     <!-- RHandTip -->
     <g transform="translate(356.753958 341.269029)scale(0.1 -0.1)">
      <use xlink:href="#DejaVuSans-82"/>
      <use x="69.482422" xlink:href="#DejaVuSans-72"/>
      <use x="144.677734" xlink:href="#DejaVuSans-97"/>
      <use x="205.957031" xlink:href="#DejaVuSans-110"/>
      <use x="269.335938" xlink:href="#DejaVuSans-100"/>
      <use x="332.8125" xlink:href="#DejaVuSans-84"/>
      <use x="390.771484" xlink:href="#DejaVuSans-105"/>
      <use x="418.554688" xlink:href="#DejaVuSans-112"/>
     </g>
    </g>
   </g>
   <g id="text_25">
    <g clip-path="url(#pd73445c463)">
     <!-- RThumb -->
     <g transform="translate(362.632018 333.285302)scale(0.1 -0.1)">
      <use xlink:href="#DejaVuSans-82"/>
      <use x="62.232422" xlink:href="#DejaVuSans-84"/>
      <use x="123.316406" xlink:href="#DejaVuSans-104"/>
      <use x="186.695312" xlink:href="#DejaVuSans-117"/>
      <use x="250.074219" xlink:href="#DejaVuSans-109"/>
      <use x="347.486328" xlink:href="#DejaVuSans-98"/>
     </g>
    </g>
   </g>
   <g id="text_26">
    <!-- Node Graph Visualization - Frame 91 -->
    <g transform="translate(178.011563 -6)scale(0.12 -0.12)">
     <defs>
      <path d="M 9.8125 72.90625 
L 23.09375 72.90625 
L 55.421875 11.921875 
L 55.421875 72.90625 
L 64.984375 72.90625 
L 64.984375 0 
L 51.703125 0 
L 19.390625 60.984375 
L 19.390625 0 
L 9.8125 0 
z
" id="DejaVuSans-78"/>
      <path id="DejaVuSans-32"/>
      <path d="M 59.515625 10.40625 
L 59.515625 29.984375 
L 43.40625 29.984375 
L 43.40625 38.09375 
L 69.28125 38.09375 
L 69.28125 6.78125 
Q 63.578125 2.734375 56.6875 0.65625 
Q 49.8125 -1.421875 42 -1.421875 
Q 24.90625 -1.421875 15.25 8.5625 
Q 5.609375 18.5625 5.609375 36.375 
Q 5.609375 54.25 15.25 64.234375 
Q 24.90625 74.21875 42 74.21875 
Q 49.125 74.21875 55.546875 72.453125 
Q 61.96875 70.703125 67.390625 67.28125 
L 67.390625 56.78125 
Q 61.921875 61.421875 55.765625 63.765625 
Q 49.609375 66.109375 42.828125 66.109375 
Q 29.4375 66.109375 22.71875 58.640625 
Q 16.015625 51.171875 16.015625 36.375 
Q 16.015625 21.625 22.71875 14.15625 
Q 29.4375 6.6875 42.828125 6.6875 
Q 48.046875 6.6875 52.140625 7.59375 
Q 56.25 8.5 59.515625 10.40625 
z
" id="DejaVuSans-71"/>
      <path d="M 28.609375 0 
L 0.78125 72.90625 
L 11.078125 72.90625 
L 34.1875 11.53125 
L 57.328125 72.90625 
L 67.578125 72.90625 
L 39.796875 0 
z
" id="DejaVuSans-86"/>
      <path d="M 5.515625 54.6875 
L 48.1875 54.6875 
L 48.1875 46.484375 
L 14.40625 7.171875 
L 48.1875 7.171875 
L 48.1875 0 
L 4.296875 0 
L 4.296875 8.203125 
L 38.09375 47.515625 
L 5.515625 47.515625 
z
" id="DejaVuSans-122"/>
      <path d="M 4.890625 31.390625 
L 31.203125 31.390625 
L 31.203125 23.390625 
L 4.890625 23.390625 
z
" id="DejaVuSans-45"/>
      <path d="M 10.984375 1.515625 
L 10.984375 10.5 
Q 14.703125 8.734375 18.5 7.8125 
Q 22.3125 6.890625 25.984375 6.890625 
Q 35.75 6.890625 40.890625 13.453125 
Q 46.046875 20.015625 46.78125 33.40625 
Q 43.953125 29.203125 39.59375 26.953125 
Q 35.25 24.703125 29.984375 24.703125 
Q 19.046875 24.703125 12.671875 31.3125 
Q 6.296875 37.9375 6.296875 49.421875 
Q 6.296875 60.640625 12.9375 67.421875 
Q 19.578125 74.21875 30.609375 74.21875 
Q 43.265625 74.21875 49.921875 64.515625 
Q 56.59375 54.828125 56.59375 36.375 
Q 56.59375 19.140625 48.40625 8.859375 
Q 40.234375 -1.421875 26.421875 -1.421875 
Q 22.703125 -1.421875 18.890625 -0.6875 
Q 15.09375 0.046875 10.984375 1.515625 
z
M 30.609375 32.421875 
Q 37.25 32.421875 41.125 36.953125 
Q 45.015625 41.5 45.015625 49.421875 
Q 45.015625 57.28125 41.125 61.84375 
Q 37.25 66.40625 30.609375 66.40625 
Q 23.96875 66.40625 20.09375 61.84375 
Q 16.21875 57.28125 16.21875 49.421875 
Q 16.21875 41.5 20.09375 36.953125 
Q 23.96875 32.421875 30.609375 32.421875 
z
" id="DejaVuSans-57"/>
      <path d="M 12.40625 8.296875 
L 28.515625 8.296875 
L 28.515625 63.921875 
L 10.984375 60.40625 
L 10.984375 69.390625 
L 28.421875 72.90625 
L 38.28125 72.90625 
L 38.28125 8.296875 
L 54.390625 8.296875 
L 54.390625 0 
L 12.40625 0 
z
" id="DejaVuSans-49"/>
     </defs>
     <use xlink:href="#DejaVuSans-78"/>
     <use x="74.804688" xlink:href="#DejaVuSans-111"/>
     <use x="135.986328" xlink:href="#DejaVuSans-100"/>
     <use x="199.462891" xlink:href="#DejaVuSans-101"/>
     <use x="260.986328" xlink:href="#DejaVuSans-32"/>
     <use x="292.773438" xlink:href="#DejaVuSans-71"/>
     <use x="370.263672" xlink:href="#DejaVuSans-114"/>
     <use x="411.376953" xlink:href="#DejaVuSans-97"/>
     <use x="472.65625" xlink:href="#DejaVuSans-112"/>
     <use x="536.132812" xlink:href="#DejaVuSans-104"/>
     <use x="599.511719" xlink:href="#DejaVuSans-32"/>
     <use x="631.298828" xlink:href="#DejaVuSans-86"/>
     <use x="697.457031" xlink:href="#DejaVuSans-105"/>
     <use x="725.240234" xlink:href="#DejaVuSans-115"/>
     <use x="777.339844" xlink:href="#DejaVuSans-117"/>
     <use x="840.71875" xlink:href="#DejaVuSans-97"/>
     <use x="901.998047" xlink:href="#DejaVuSans-108"/>
     <use x="929.78125" xlink:href="#DejaVuSans-105"/>
     <use x="957.564453" xlink:href="#DejaVuSans-122"/>
     <use x="1010.054688" xlink:href="#DejaVuSans-97"/>
     <use x="1071.333984" xlink:href="#DejaVuSans-116"/>
     <use x="1110.542969" xlink:href="#DejaVuSans-105"/>
     <use x="1138.326172" xlink:href="#DejaVuSans-111"/>
     <use x="1199.507812" xlink:href="#DejaVuSans-110"/>
     <use x="1262.886719" xlink:href="#DejaVuSans-32"/>
     <use x="1294.673828" xlink:href="#DejaVuSans-45"/>
     <use x="1330.757812" xlink:href="#DejaVuSans-32"/>
     <use x="1362.544922" xlink:href="#DejaVuSans-70"/>
     <use x="1412.814453" xlink:href="#DejaVuSans-114"/>
     <use x="1453.927734" xlink:href="#DejaVuSans-97"/>
     <use x="1515.207031" xlink:href="#DejaVuSans-109"/>
     <use x="1612.619141" xlink:href="#DejaVuSans-101"/>
     <use x="1674.142578" xlink:href="#DejaVuSans-32"/>
     <use x="1705.929688" xlink:href="#DejaVuSans-57"/>
     <use x="1769.552734" xlink:href="#DejaVuSans-49"/>
    </g>
   </g>
  </g>
 </g>
 <defs>
  <clipPath id="pd73445c463">
   <rect height="864" width="576" x="0" y="0"/>
  </clipPath>
 </defs>
</svg>
