<?xml version="1.0" encoding="utf-8" standalone="no"?>
<!DOCTYPE svg PUBLIC "-//W3C//DTD SVG 1.1//EN"
  "http://www.w3.org/Graphics/SVG/1.1/DTD/svg11.dtd">
<!-- Created with matplotlib (https://matplotlib.org/) -->
<svg height="864pt" version="1.1" viewBox="0 0 576 864" width="576pt" xmlns="http://www.w3.org/2000/svg" xmlns:xlink="http://www.w3.org/1999/xlink">
 <metadata>
  <rdf:RDF xmlns:cc="http://creativecommons.org/ns#" xmlns:dc="http://purl.org/dc/elements/1.1/" xmlns:rdf="http://www.w3.org/1999/02/22-rdf-syntax-ns#">
   <cc:Work>
    <dc:type rdf:resource="http://purl.org/dc/dcmitype/StillImage"/>
    <dc:date>2024-02-04T22:28:26.418167</dc:date>
    <dc:format>image/svg+xml</dc:format>
    <dc:creator>
     <cc:Agent>
      <dc:title>Matplotlib v3.3.2, https://matplotlib.org/</dc:title>
     </cc:Agent>
    </dc:creator>
   </cc:Work>
  </rdf:RDF>
 </metadata>
 <defs>
  <style type="text/css">*{stroke-linecap:butt;stroke-linejoin:round;}</style>
 </defs>
 <g id="figure_1">
  <g id="patch_1">
   <path d="M 0 864 
L 576 864 
L 576 0 
L 0 0 
z
" style="fill:#ffffff;"/>
  </g>
  <g id="axes_1">
   <g id="patch_2">
    <path clip-path="url(#pfa3580b3c1)" d="M 300.494798 88.195638 
Q 300.200858 97.116792 299.943735 104.920518 
" style="fill:none;stroke:#000000;stroke-linecap:round;"/>
    <path clip-path="url(#pfa3580b3c1)" d="M 302.074374 100.988549 
L 299.943735 104.920518 
L 298.076543 100.856826 
L 302.074374 100.988549 
z
" style="stroke:#000000;stroke-linecap:round;"/>
   </g>
   <g id="patch_3">
    <path clip-path="url(#pfa3580b3c1)" d="M 299.391203 132.490974 
Q 299.371559 135.738611 299.358678 137.868234 
" style="fill:none;stroke:#000000;stroke-linecap:round;"/>
    <path clip-path="url(#pfa3580b3c1)" d="M 301.382835 133.880404 
L 299.358678 137.868234 
L 297.382908 133.85621 
L 301.382835 133.880404 
z
" style="stroke:#000000;stroke-linecap:round;"/>
   </g>
   <g id="patch_4">
    <path clip-path="url(#pfa3580b3c1)" d="M 299.90682 106.040922 
Q 300.20076 97.119768 300.457882 89.316041 
" style="fill:none;stroke:#000000;stroke-linecap:round;"/>
    <path clip-path="url(#pfa3580b3c1)" d="M 298.327244 93.24801 
L 300.457882 89.316041 
L 302.325074 93.379733 
L 298.327244 93.24801 
z
" style="stroke:#000000;stroke-linecap:round;"/>
   </g>
   <g id="patch_5">
    <path clip-path="url(#pfa3580b3c1)" d="M 299.166213 165.441719 
Q 298.867189 202.866587 298.577097 239.173456 
" style="fill:none;stroke:#000000;stroke-linecap:round;"/>
    <path clip-path="url(#pfa3580b3c1)" d="M 300.608992 235.189564 
L 298.577097 239.173456 
L 296.60912 235.157605 
L 300.608992 235.189564 
z
" style="stroke:#000000;stroke-linecap:round;"/>
   </g>
   <g id="patch_6">
    <path clip-path="url(#pfa3580b3c1)" d="M 286.04253 152.080298 
Q 207.48589 151.293956 130.047228 150.518804 
" style="fill:none;stroke:#000000;stroke-linecap:round;"/>
    <path clip-path="url(#pfa3580b3c1)" d="M 134.027009 152.558741 
L 130.047228 150.518804 
L 134.067046 148.558941 
L 134.027009 152.558741 
z
" style="stroke:#000000;stroke-linecap:round;"/>
   </g>
   <g id="patch_7">
    <path clip-path="url(#pfa3580b3c1)" d="M 312.5006 152.466132 
Q 396.138362 154.068301 478.658296 155.649057 
" style="fill:none;stroke:#000000;stroke-linecap:round;"/>
    <path clip-path="url(#pfa3580b3c1)" d="M 474.697335 153.572814 
L 478.658296 155.649057 
L 474.620725 157.57208 
L 474.697335 153.572814 
z
" style="stroke:#000000;stroke-linecap:round;"/>
   </g>
   <g id="patch_8">
    <path clip-path="url(#pfa3580b3c1)" d="M 299.351934 138.983102 
Q 299.371578 135.735465 299.384459 133.605842 
" style="fill:none;stroke:#000000;stroke-linecap:round;"/>
    <path clip-path="url(#pfa3580b3c1)" d="M 297.360302 137.593672 
L 299.384459 133.605842 
L 301.360229 137.617866 
L 297.360302 137.593672 
z
" style="stroke:#000000;stroke-linecap:round;"/>
   </g>
   <g id="patch_9">
    <path clip-path="url(#pfa3580b3c1)" d="M 298.278664 266.748703 
Q 297.50304 322.574252 296.742949 377.281875 
" style="fill:none;stroke:#000000;stroke-linecap:round;"/>
    <path clip-path="url(#pfa3580b3c1)" d="M 298.798325 373.310046 
L 296.742949 377.281875 
L 294.798711 373.254477 
L 298.798325 373.310046 
z
" style="stroke:#000000;stroke-linecap:round;"/>
   </g>
   <g id="patch_10">
    <path clip-path="url(#pfa3580b3c1)" d="M 298.568179 240.289577 
Q 298.867204 202.864709 299.157296 166.557839 
" style="fill:none;stroke:#000000;stroke-linecap:round;"/>
    <path clip-path="url(#pfa3580b3c1)" d="M 297.1254 170.541732 
L 299.157296 166.557839 
L 301.125273 170.573691 
L 297.1254 170.541732 
z
" style="stroke:#000000;stroke-linecap:round;"/>
   </g>
   <g id="patch_11">
    <path clip-path="url(#pfa3580b3c1)" d="M 283.317379 391.648637 
Q 256.161175 391.691398 230.123003 391.732399 
" style="fill:none;stroke:#000000;stroke-linecap:round;"/>
    <path clip-path="url(#pfa3580b3c1)" d="M 234.126147 393.726098 
L 230.123003 391.732399 
L 234.119849 389.726103 
L 234.126147 393.726098 
z
" style="stroke:#000000;stroke-linecap:round;"/>
   </g>
   <g id="patch_12">
    <path clip-path="url(#pfa3580b3c1)" d="M 309.77059 391.350353 
Q 337.296381 390.772955 363.704384 390.219004 
" style="fill:none;stroke:#000000;stroke-linecap:round;"/>
    <path clip-path="url(#pfa3580b3c1)" d="M 359.663319 388.303332 
L 363.704384 390.219004 
L 359.747208 392.302452 
L 359.663319 388.303332 
z
" style="stroke:#000000;stroke-linecap:round;"/>
   </g>
   <g id="patch_13">
    <path clip-path="url(#pfa3580b3c1)" d="M 296.727446 378.39768 
Q 297.50307 322.572131 298.263161 267.864507 
" style="fill:none;stroke:#000000;stroke-linecap:round;"/>
    <path clip-path="url(#pfa3580b3c1)" d="M 296.207785 271.836336 
L 298.263161 267.864507 
L 300.207399 271.891906 
L 296.207785 271.836336 
z
" style="stroke:#000000;stroke-linecap:round;"/>
   </g>
   <g id="patch_14">
    <path clip-path="url(#pfa3580b3c1)" d="M 108.058743 161.169235 
Q 82.843108 196.779625 58.273573 231.477571 
" style="fill:none;stroke:#000000;stroke-linecap:round;"/>
    <path clip-path="url(#pfa3580b3c1)" d="M 62.21736 229.368889 
L 58.273573 231.477571 
L 58.952899 227.057332 
L 62.21736 229.368889 
z
" style="stroke:#000000;stroke-linecap:round;"/>
   </g>
   <g id="patch_15">
    <path clip-path="url(#pfa3580b3c1)" d="M 128.931351 150.507634 
Q 207.487991 151.293977 284.926654 152.069129 
" style="fill:none;stroke:#000000;stroke-linecap:round;"/>
    <path clip-path="url(#pfa3580b3c1)" d="M 280.946873 150.029191 
L 284.926654 152.069129 
L 280.906835 154.028991 
L 280.946873 150.029191 
z
" style="stroke:#000000;stroke-linecap:round;"/>
   </g>
   <g id="patch_16">
    <path clip-path="url(#pfa3580b3c1)" d="M 62.632539 247.05994 
Q 150.659807 274.025419 237.618073 300.663429 
" style="fill:none;stroke:#000000;stroke-linecap:round;"/>
    <path clip-path="url(#pfa3580b3c1)" d="M 234.379289 297.579554 
L 237.618073 300.663429 
L 233.207703 301.404131 
L 234.379289 297.579554 
z
" style="stroke:#000000;stroke-linecap:round;"/>
   </g>
   <g id="patch_17">
    <path clip-path="url(#pfa3580b3c1)" d="M 57.626696 232.391113 
Q 82.842331 196.780722 107.411867 162.082777 
" style="fill:none;stroke:#000000;stroke-linecap:round;"/>
    <path clip-path="url(#pfa3580b3c1)" d="M 103.468079 164.191459 
L 107.411867 162.082777 
L 106.73254 166.503016 
L 103.468079 164.191459 
z
" style="stroke:#000000;stroke-linecap:round;"/>
   </g>
   <g id="patch_18">
    <path clip-path="url(#pfa3580b3c1)" d="M 264.111279 308.315129 
Q 285.174712 314.002487 305.158766 319.398401 
" style="fill:none;stroke:#000000;stroke-linecap:round;"/>
    <path clip-path="url(#pfa3580b3c1)" d="M 301.818411 316.424845 
L 305.158766 319.398401 
L 300.775708 320.28655 
L 301.818411 316.424845 
z
" style="stroke:#000000;stroke-linecap:round;"/>
   </g>
   <g id="patch_19">
    <path clip-path="url(#pfa3580b3c1)" d="M 238.687166 300.990925 
Q 150.659898 274.025447 63.701632 247.387436 
" style="fill:none;stroke:#000000;stroke-linecap:round;"/>
    <path clip-path="url(#pfa3580b3c1)" d="M 66.940416 250.471311 
L 63.701632 247.387436 
L 68.112002 246.646734 
L 66.940416 250.471311 
z
" style="stroke:#000000;stroke-linecap:round;"/>
   </g>
   <g id="patch_20">
    <path clip-path="url(#pfa3580b3c1)" d="M 331.630605 327.100281 
Q 336.576265 328.652788 340.455215 329.870441 
" style="fill:none;stroke:#000000;stroke-linecap:round;"/>
    <path clip-path="url(#pfa3580b3c1)" d="M 337.237839 326.764238 
L 340.455215 329.870441 
L 336.039827 330.58062 
L 337.237839 326.764238 
z
" style="stroke:#000000;stroke-linecap:round;"/>
   </g>
   <g id="patch_21">
    <path clip-path="url(#pfa3580b3c1)" d="M 331.815042 319.830578 
Q 342.244171 317.137718 351.590769 314.724373 
" style="fill:none;stroke:#000000;stroke-linecap:round;"/>
    <path clip-path="url(#pfa3580b3c1)" d="M 347.21778 313.787909 
L 351.590769 314.724373 
L 348.217805 317.660886 
L 347.21778 313.787909 
z
" style="stroke:#000000;stroke-linecap:round;"/>
   </g>
   <g id="patch_22">
    <path clip-path="url(#pfa3580b3c1)" d="M 306.232168 319.688231 
Q 285.168735 314.000873 265.184681 308.604959 
" style="fill:none;stroke:#000000;stroke-linecap:round;"/>
    <path clip-path="url(#pfa3580b3c1)" d="M 268.525035 311.578515 
L 265.184681 308.604959 
L 269.567738 307.716809 
L 268.525035 311.578515 
z
" style="stroke:#000000;stroke-linecap:round;"/>
   </g>
   <g id="patch_23">
    <path clip-path="url(#pfa3580b3c1)" d="M 496.580304 168.661984 
Q 509.511204 214.731194 522.139966 259.723968 
" style="fill:none;stroke:#000000;stroke-linecap:round;"/>
    <path clip-path="url(#pfa3580b3c1)" d="M 522.984589 255.332315 
L 522.139966 259.723968 
L 519.133418 256.413278 
L 522.984589 255.332315 
z
" style="stroke:#000000;stroke-linecap:round;"/>
   </g>
   <g id="patch_24">
    <path clip-path="url(#pfa3580b3c1)" d="M 479.776232 155.670472 
Q 396.13847 154.068303 313.618536 152.487548 
" style="fill:none;stroke:#000000;stroke-linecap:round;"/>
    <path clip-path="url(#pfa3580b3c1)" d="M 317.579497 154.563791 
L 313.618536 152.487548 
L 317.656107 150.564525 
L 317.579497 154.563791 
z
" style="stroke:#000000;stroke-linecap:round;"/>
   </g>
   <g id="patch_25">
    <path clip-path="url(#pfa3580b3c1)" d="M 513.668069 278.27508 
Q 466.354485 296.436546 420.08468 314.197355 
" style="fill:none;stroke:#000000;stroke-linecap:round;"/>
    <path clip-path="url(#pfa3580b3c1)" d="M 424.535734 314.631086 
L 420.08468 314.197355 
L 423.102298 310.896751 
L 424.535734 314.631086 
z
" style="stroke:#000000;stroke-linecap:round;"/>
   </g>
   <g id="patch_26">
    <path clip-path="url(#pfa3580b3c1)" d="M 522.441144 260.796982 
Q 509.510244 214.727773 496.881482 169.734999 
" style="fill:none;stroke:#000000;stroke-linecap:round;"/>
    <path clip-path="url(#pfa3580b3c1)" d="M 496.036859 174.126651 
L 496.881482 169.734999 
L 499.88803 173.045688 
L 496.036859 174.126651 
z
" style="stroke:#000000;stroke-linecap:round;"/>
   </g>
   <g id="patch_27">
    <path clip-path="url(#pfa3580b3c1)" d="M 393.549081 320.831151 
Q 380.693657 322.291088 368.949125 323.624865 
" style="fill:none;stroke:#000000;stroke-linecap:round;"/>
    <path clip-path="url(#pfa3580b3c1)" d="M 373.149259 325.160729 
L 368.949125 323.624865 
L 372.697897 321.186277 
L 373.149259 325.160729 
z
" style="stroke:#000000;stroke-linecap:round;"/>
   </g>
   <g id="patch_28">
    <path clip-path="url(#pfa3580b3c1)" d="M 419.039023 314.598733 
Q 466.352607 296.437267 512.622412 278.676458 
" style="fill:none;stroke:#000000;stroke-linecap:round;"/>
    <path clip-path="url(#pfa3580b3c1)" d="M 508.171358 278.242727 
L 512.622412 278.676458 
L 509.604794 281.977062 
L 508.171358 278.242727 
z
" style="stroke:#000000;stroke-linecap:round;"/>
   </g>
   <g id="patch_29">
    <path clip-path="url(#pfa3580b3c1)" d="M 341.958809 328.811722 
Q 335.047274 330.747927 329.212325 332.382536 
" style="fill:none;stroke:#000000;stroke-linecap:round;"/>
    <path clip-path="url(#pfa3580b3c1)" d="M 333.603552 333.22937 
L 329.212325 332.382536 
L 332.524528 329.377655 
L 333.603552 333.22937 
z
" style="stroke:#000000;stroke-linecap:round;"/>
   </g>
   <g id="patch_30">
    <path clip-path="url(#pfa3580b3c1)" d="M 367.74433 327.421501 
Q 372.169097 328.160051 375.491086 328.714533 
" style="fill:none;stroke:#000000;stroke-linecap:round;"/>
    <path clip-path="url(#pfa3580b3c1)" d="M 371.874938 326.083283 
L 375.491086 328.714533 
L 371.216398 330.028702 
L 371.874938 326.083283 
z
" style="stroke:#000000;stroke-linecap:round;"/>
   </g>
   <g id="patch_31">
    <path clip-path="url(#pfa3580b3c1)" d="M 367.837348 323.751125 
Q 380.692773 322.291188 392.437304 320.957411 
" style="fill:none;stroke:#000000;stroke-linecap:round;"/>
    <path clip-path="url(#pfa3580b3c1)" d="M 388.237171 319.421547 
L 392.437304 320.957411 
L 388.688533 323.395999 
L 388.237171 319.421547 
z
" style="stroke:#000000;stroke-linecap:round;"/>
   </g>
   <g id="patch_32">
    <path clip-path="url(#pfa3580b3c1)" d="M 212.931784 404.675513 
Q 197.249849 475.908376 181.808293 546.049351 
" style="fill:none;stroke:#000000;stroke-linecap:round;"/>
    <path clip-path="url(#pfa3580b3c1)" d="M 184.621528 542.5729 
L 181.808293 546.049351 
L 180.715073 541.712893 
L 184.621528 542.5729 
z
" style="stroke:#000000;stroke-linecap:round;"/>
   </g>
   <g id="patch_33">
    <path clip-path="url(#pfa3580b3c1)" d="M 229.002492 391.734164 
Q 256.158696 391.691402 282.196868 391.650401 
" style="fill:none;stroke:#000000;stroke-linecap:round;"/>
    <path clip-path="url(#pfa3580b3c1)" d="M 278.193723 389.656702 
L 282.196868 391.650401 
L 278.200022 393.656697 
L 278.193723 389.656702 
z
" style="stroke:#000000;stroke-linecap:round;"/>
   </g>
   <g id="patch_34">
    <path clip-path="url(#pfa3580b3c1)" d="M 179.873447 573.240775 
Q 187.038509 655.318287 194.106341 736.282001 
" style="fill:none;stroke:#000000;stroke-linecap:round;"/>
    <path clip-path="url(#pfa3580b3c1)" d="M 195.750902 732.123225 
L 194.106341 736.282001 
L 191.766056 732.471087 
L 195.750902 732.123225 
z
" style="stroke:#000000;stroke-linecap:round;"/>
   </g>
   <g id="patch_35">
    <path clip-path="url(#pfa3580b3c1)" d="M 181.567563 547.142831 
Q 197.249498 475.909968 212.691054 405.768993 
" style="fill:none;stroke:#000000;stroke-linecap:round;"/>
    <path clip-path="url(#pfa3580b3c1)" d="M 209.87782 409.245444 
L 212.691054 405.768993 
L 213.784274 410.105451 
L 209.87782 409.245444 
z
" style="stroke:#000000;stroke-linecap:round;"/>
   </g>
   <g id="patch_36">
    <path clip-path="url(#pfa3580b3c1)" d="M 194.348064 763.769546 
Q 193.88808 769.801271 193.513111 774.718199 
" style="fill:none;stroke:#000000;stroke-linecap:round;"/>
    <path clip-path="url(#pfa3580b3c1)" d="M 195.81148 770.88186 
L 193.513111 774.718199 
L 191.823061 770.5777 
L 195.81148 770.88186 
z
" style="stroke:#000000;stroke-linecap:round;"/>
   </g>
   <g id="patch_37">
    <path clip-path="url(#pfa3580b3c1)" d="M 194.203846 737.398945 
Q 187.038784 655.321433 179.970952 574.357719 
" style="fill:none;stroke:#000000;stroke-linecap:round;"/>
    <path clip-path="url(#pfa3580b3c1)" d="M 178.326391 578.516495 
L 179.970952 574.357719 
L 182.311237 578.168633 
L 178.326391 578.516495 
z
" style="stroke:#000000;stroke-linecap:round;"/>
   </g>
   <g id="patch_38">
    <path clip-path="url(#pfa3580b3c1)" d="M 193.428201 775.831614 
Q 193.888185 769.799889 194.263154 764.882961 
" style="fill:none;stroke:#000000;stroke-linecap:round;"/>
    <path clip-path="url(#pfa3580b3c1)" d="M 191.964784 768.7193 
L 194.263154 764.882961 
L 195.953204 769.02346 
L 191.964784 768.7193 
z
" style="stroke:#000000;stroke-linecap:round;"/>
   </g>
   <g id="patch_39">
    <path clip-path="url(#pfa3580b3c1)" d="M 380.986618 402.815253 
Q 395.786402 467.688999 410.337515 531.472716 
" style="fill:none;stroke:#000000;stroke-linecap:round;"/>
    <path clip-path="url(#pfa3580b3c1)" d="M 411.397747 527.128075 
L 410.337515 531.472716 
L 407.497941 528.017746 
L 411.397747 527.128075 
z
" style="stroke:#000000;stroke-linecap:round;"/>
   </g>
   <g id="patch_40">
    <path clip-path="url(#pfa3580b3c1)" d="M 364.817426 390.195656 
Q 337.291635 390.773054 310.883632 391.327005 
" style="fill:none;stroke:#000000;stroke-linecap:round;"/>
    <path clip-path="url(#pfa3580b3c1)" d="M 314.924697 393.242677 
L 310.883632 391.327005 
L 314.840809 389.243557 
L 314.924697 393.242677 
z
" style="stroke:#000000;stroke-linecap:round;"/>
   </g>
   <g id="patch_41">
    <path clip-path="url(#pfa3580b3c1)" d="M 409.475278 558.054433 
Q 388.866893 622.079306 368.601073 685.039919 
" style="fill:none;stroke:#000000;stroke-linecap:round;"/>
    <path clip-path="url(#pfa3580b3c1)" d="M 371.730477 681.845105 
L 368.601073 685.039919 
L 367.922864 680.619508 
L 371.730477 681.845105 
z
" style="stroke:#000000;stroke-linecap:round;"/>
   </g>
   <g id="patch_42">
    <path clip-path="url(#pfa3580b3c1)" d="M 410.586531 532.56426 
Q 395.786747 467.690514 381.235634 403.906796 
" style="fill:none;stroke:#000000;stroke-linecap:round;"/>
    <path clip-path="url(#pfa3580b3c1)" d="M 380.175402 408.251438 
L 381.235634 403.906796 
L 384.075208 407.361767 
L 380.175402 408.251438 
z
" style="stroke:#000000;stroke-linecap:round;"/>
   </g>
   <g id="patch_43">
    <path clip-path="url(#pfa3580b3c1)" d="M 361.990893 711.735826 
Q 361.186248 716.472619 360.568842 720.107169 
" style="fill:none;stroke:#000000;stroke-linecap:round;"/>
    <path clip-path="url(#pfa3580b3c1)" d="M 363.210485 716.498606 
L 360.568842 720.107169 
L 359.266977 715.828717 
L 363.210485 716.498606 
z
" style="stroke:#000000;stroke-linecap:round;"/>
   </g>
   <g id="patch_44">
    <path clip-path="url(#pfa3580b3c1)" d="M 368.260081 686.099291 
Q 388.868466 622.074418 409.134286 559.113805 
" style="fill:none;stroke:#000000;stroke-linecap:round;"/>
    <path clip-path="url(#pfa3580b3c1)" d="M 406.004882 562.308618 
L 409.134286 559.113805 
L 409.812494 563.534216 
L 406.004882 562.308618 
z
" style="stroke:#000000;stroke-linecap:round;"/>
   </g>
   <g id="patch_45">
    <path clip-path="url(#pfa3580b3c1)" d="M 360.382021 721.206951 
Q 361.186666 716.470158 361.804072 712.835608 
" style="fill:none;stroke:#000000;stroke-linecap:round;"/>
    <path clip-path="url(#pfa3580b3c1)" d="M 359.162429 716.444171 
L 361.804072 712.835608 
L 363.105937 717.11406 
L 359.162429 716.444171 
z
" style="stroke:#000000;stroke-linecap:round;"/>
   </g>
   <g id="patch_46">
    <path clip-path="url(#pfa3580b3c1)" d="M 341.521717 330.20523 
Q 336.576056 328.652722 332.697107 327.43507 
" style="fill:none;stroke:#000000;stroke-linecap:round;"/>
    <path clip-path="url(#pfa3580b3c1)" d="M 335.914482 330.541272 
L 332.697107 327.43507 
L 337.112494 326.724891 
L 335.914482 330.541272 
z
" style="stroke:#000000;stroke-linecap:round;"/>
   </g>
   <g id="patch_47">
    <path clip-path="url(#pfa3580b3c1)" d="M 352.676344 314.444071 
Q 342.247216 317.136932 332.900617 319.550277 
" style="fill:none;stroke:#000000;stroke-linecap:round;"/>
    <path clip-path="url(#pfa3580b3c1)" d="M 337.273606 320.486741 
L 332.900617 319.550277 
L 336.273582 316.613764 
L 337.273606 320.486741 
z
" style="stroke:#000000;stroke-linecap:round;"/>
   </g>
   <g id="patch_48">
    <path clip-path="url(#pfa3580b3c1)" d="M 328.132744 332.684972 
Q 335.044279 330.748766 340.879227 329.114157 
" style="fill:none;stroke:#000000;stroke-linecap:round;"/>
    <path clip-path="url(#pfa3580b3c1)" d="M 336.488001 328.267323 
L 340.879227 329.114157 
L 337.567024 332.119038 
L 336.488001 328.267323 
z
" style="stroke:#000000;stroke-linecap:round;"/>
   </g>
   <g id="patch_49">
    <path clip-path="url(#pfa3580b3c1)" d="M 376.59118 328.898152 
Q 372.166413 328.159603 368.844424 327.605121 
" style="fill:none;stroke:#000000;stroke-linecap:round;"/>
    <path clip-path="url(#pfa3580b3c1)" d="M 372.460572 330.23637 
L 368.844424 327.605121 
L 373.119112 326.290952 
L 372.460572 330.23637 
z
" style="stroke:#000000;stroke-linecap:round;"/>
   </g>
   <g id="PathCollection_1">
    <defs>
     <path d="M 0 13.228757 
C 3.508307 13.228757 6.873396 11.834891 9.354143 9.354143 
C 11.834891 6.873396 13.228757 3.508307 13.228757 0 
C 13.228757 -3.508307 11.834891 -6.873396 9.354143 -9.354143 
C 6.873396 -11.834891 3.508307 -13.228757 0 -13.228757 
C -3.508307 -13.228757 -6.873396 -11.834891 -9.354143 -9.354143 
C -11.834891 -6.873396 -13.228757 -3.508307 -13.228757 0 
C -13.228757 3.508307 -11.834891 6.873396 -9.354143 9.354143 
C -6.873396 11.834891 -3.508307 13.228757 0 13.228757 
z
" id="md79b341c18" style="stroke:#87ceeb;"/>
    </defs>
    <g clip-path="url(#pfa3580b3c1)">
     <use style="fill:#87ceeb;stroke:#87ceeb;" x="300.930394" xlink:href="#md79b341c18" y="74.975207"/>
     <use style="fill:#87ceeb;stroke:#87ceeb;" x="299.471224" xlink:href="#md79b341c18" y="119.261353"/>
     <use style="fill:#87ceeb;stroke:#87ceeb;" x="299.271913" xlink:href="#md79b341c18" y="152.212723"/>
     <use style="fill:#87ceeb;stroke:#87ceeb;" x="298.46248" xlink:href="#md79b341c18" y="253.518573"/>
     <use style="fill:#87ceeb;stroke:#87ceeb;" x="296.54363" xlink:href="#md79b341c18" y="391.62781"/>
     <use style="fill:#87ceeb;stroke:#87ceeb;" x="115.701968" xlink:href="#md79b341c18" y="150.375209"/>
     <use style="fill:#87ceeb;stroke:#87ceeb;" x="49.983471" xlink:href="#md79b341c18" y="243.185139"/>
     <use style="fill:#87ceeb;stroke:#87ceeb;" x="251.336234" xlink:href="#md79b341c18" y="304.865727"/>
     <use style="fill:#87ceeb;stroke:#87ceeb;" x="319.007213" xlink:href="#md79b341c18" y="323.137633"/>
     <use style="fill:#87ceeb;stroke:#87ceeb;" x="493.004919" xlink:href="#md79b341c18" y="155.923881"/>
     <use style="fill:#87ceeb;stroke:#87ceeb;" x="526.016529" xlink:href="#md79b341c18" y="273.535085"/>
     <use style="fill:#87ceeb;stroke:#87ceeb;" x="406.690563" xlink:href="#md79b341c18" y="319.338728"/>
     <use style="fill:#87ceeb;stroke:#87ceeb;" x="354.695867" xlink:href="#md79b341c18" y="325.243548"/>
     <use style="fill:#87ceeb;stroke:#87ceeb;" x="215.776241" xlink:href="#md79b341c18" y="391.754991"/>
     <use style="fill:#87ceeb;stroke:#87ceeb;" x="178.723107" xlink:href="#md79b341c18" y="560.063353"/>
     <use style="fill:#87ceeb;stroke:#87ceeb;" x="195.354186" xlink:href="#md79b341c18" y="750.576367"/>
     <use style="fill:#87ceeb;stroke:#87ceeb;" x="192.422078" xlink:href="#md79b341c18" y="789.024793"/>
     <use style="fill:#87ceeb;stroke:#87ceeb;" x="378.044386" xlink:href="#md79b341c18" y="389.918199"/>
     <use style="fill:#87ceeb;stroke:#87ceeb;" x="413.528763" xlink:href="#md79b341c18" y="545.461313"/>
     <use style="fill:#87ceeb;stroke:#87ceeb;" x="364.206596" xlink:href="#md79b341c18" y="698.692411"/>
     <use style="fill:#87ceeb;stroke:#87ceeb;" x="358.166318" xlink:href="#md79b341c18" y="734.250367"/>
     <use style="fill:#87ceeb;stroke:#87ceeb;" x="354.145109" xlink:href="#md79b341c18" y="334.167877"/>
     <use style="fill:#87ceeb;stroke:#87ceeb;" x="365.484174" xlink:href="#md79b341c18" y="311.137017"/>
     <use style="fill:#87ceeb;stroke:#87ceeb;" x="315.395686" xlink:href="#md79b341c18" y="336.253146"/>
     <use style="fill:#87ceeb;stroke:#87ceeb;" x="389.639643" xlink:href="#md79b341c18" y="331.076105"/>
    </g>
   </g>
   <g id="text_1">
    <g clip-path="url(#pfa3580b3c1)">
     <!-- Head -->
     <g transform="translate(287.855394 77.734582)scale(0.1 -0.1)">
      <defs>
       <path d="M 9.8125 72.90625 
L 19.671875 72.90625 
L 19.671875 43.015625 
L 55.515625 43.015625 
L 55.515625 72.90625 
L 65.375 72.90625 
L 65.375 0 
L 55.515625 0 
L 55.515625 34.71875 
L 19.671875 34.71875 
L 19.671875 0 
L 9.8125 0 
z
" id="DejaVuSans-72"/>
       <path d="M 56.203125 29.59375 
L 56.203125 25.203125 
L 14.890625 25.203125 
Q 15.484375 15.921875 20.484375 11.0625 
Q 25.484375 6.203125 34.421875 6.203125 
Q 39.59375 6.203125 44.453125 7.46875 
Q 49.3125 8.734375 54.109375 11.28125 
L 54.109375 2.78125 
Q 49.265625 0.734375 44.1875 -0.34375 
Q 39.109375 -1.421875 33.890625 -1.421875 
Q 20.796875 -1.421875 13.15625 6.1875 
Q 5.515625 13.8125 5.515625 26.8125 
Q 5.515625 40.234375 12.765625 48.109375 
Q 20.015625 56 32.328125 56 
Q 43.359375 56 49.78125 48.890625 
Q 56.203125 41.796875 56.203125 29.59375 
z
M 47.21875 32.234375 
Q 47.125 39.59375 43.09375 43.984375 
Q 39.0625 48.390625 32.421875 48.390625 
Q 24.90625 48.390625 20.390625 44.140625 
Q 15.875 39.890625 15.1875 32.171875 
z
" id="DejaVuSans-101"/>
       <path d="M 34.28125 27.484375 
Q 23.390625 27.484375 19.1875 25 
Q 14.984375 22.515625 14.984375 16.5 
Q 14.984375 11.71875 18.140625 8.90625 
Q 21.296875 6.109375 26.703125 6.109375 
Q 34.1875 6.109375 38.703125 11.40625 
Q 43.21875 16.703125 43.21875 25.484375 
L 43.21875 27.484375 
z
M 52.203125 31.203125 
L 52.203125 0 
L 43.21875 0 
L 43.21875 8.296875 
Q 40.140625 3.328125 35.546875 0.953125 
Q 30.953125 -1.421875 24.3125 -1.421875 
Q 15.921875 -1.421875 10.953125 3.296875 
Q 6 8.015625 6 15.921875 
Q 6 25.140625 12.171875 29.828125 
Q 18.359375 34.515625 30.609375 34.515625 
L 43.21875 34.515625 
L 43.21875 35.40625 
Q 43.21875 41.609375 39.140625 45 
Q 35.0625 48.390625 27.6875 48.390625 
Q 23 48.390625 18.546875 47.265625 
Q 14.109375 46.140625 10.015625 43.890625 
L 10.015625 52.203125 
Q 14.9375 54.109375 19.578125 55.046875 
Q 24.21875 56 28.609375 56 
Q 40.484375 56 46.34375 49.84375 
Q 52.203125 43.703125 52.203125 31.203125 
z
" id="DejaVuSans-97"/>
       <path d="M 45.40625 46.390625 
L 45.40625 75.984375 
L 54.390625 75.984375 
L 54.390625 0 
L 45.40625 0 
L 45.40625 8.203125 
Q 42.578125 3.328125 38.25 0.953125 
Q 33.9375 -1.421875 27.875 -1.421875 
Q 17.96875 -1.421875 11.734375 6.484375 
Q 5.515625 14.40625 5.515625 27.296875 
Q 5.515625 40.1875 11.734375 48.09375 
Q 17.96875 56 27.875 56 
Q 33.9375 56 38.25 53.625 
Q 42.578125 51.265625 45.40625 46.390625 
z
M 14.796875 27.296875 
Q 14.796875 17.390625 18.875 11.75 
Q 22.953125 6.109375 30.078125 6.109375 
Q 37.203125 6.109375 41.296875 11.75 
Q 45.40625 17.390625 45.40625 27.296875 
Q 45.40625 37.203125 41.296875 42.84375 
Q 37.203125 48.484375 30.078125 48.484375 
Q 22.953125 48.484375 18.875 42.84375 
Q 14.796875 37.203125 14.796875 27.296875 
z
" id="DejaVuSans-100"/>
      </defs>
      <use xlink:href="#DejaVuSans-72"/>
      <use x="75.195312" xlink:href="#DejaVuSans-101"/>
      <use x="136.71875" xlink:href="#DejaVuSans-97"/>
      <use x="197.998047" xlink:href="#DejaVuSans-100"/>
     </g>
    </g>
   </g>
   <g id="text_2">
    <g clip-path="url(#pfa3580b3c1)">
     <!-- c7 -->
     <g transform="translate(293.540755 122.020728)scale(0.1 -0.1)">
      <defs>
       <path d="M 48.78125 52.59375 
L 48.78125 44.1875 
Q 44.96875 46.296875 41.140625 47.34375 
Q 37.3125 48.390625 33.40625 48.390625 
Q 24.65625 48.390625 19.8125 42.84375 
Q 14.984375 37.3125 14.984375 27.296875 
Q 14.984375 17.28125 19.8125 11.734375 
Q 24.65625 6.203125 33.40625 6.203125 
Q 37.3125 6.203125 41.140625 7.25 
Q 44.96875 8.296875 48.78125 10.40625 
L 48.78125 2.09375 
Q 45.015625 0.34375 40.984375 -0.53125 
Q 36.96875 -1.421875 32.421875 -1.421875 
Q 20.0625 -1.421875 12.78125 6.34375 
Q 5.515625 14.109375 5.515625 27.296875 
Q 5.515625 40.671875 12.859375 48.328125 
Q 20.21875 56 33.015625 56 
Q 37.15625 56 41.109375 55.140625 
Q 45.0625 54.296875 48.78125 52.59375 
z
" id="DejaVuSans-99"/>
       <path d="M 8.203125 72.90625 
L 55.078125 72.90625 
L 55.078125 68.703125 
L 28.609375 0 
L 18.3125 0 
L 43.21875 64.59375 
L 8.203125 64.59375 
z
" id="DejaVuSans-55"/>
      </defs>
      <use xlink:href="#DejaVuSans-99"/>
      <use x="54.980469" xlink:href="#DejaVuSans-55"/>
     </g>
    </g>
   </g>
   <g id="text_3">
    <g clip-path="url(#pfa3580b3c1)">
     <!-- SpineShoulder -->
     <g transform="translate(263.022694 154.972098)scale(0.1 -0.1)">
      <defs>
       <path d="M 53.515625 70.515625 
L 53.515625 60.890625 
Q 47.90625 63.578125 42.921875 64.890625 
Q 37.9375 66.21875 33.296875 66.21875 
Q 25.25 66.21875 20.875 63.09375 
Q 16.5 59.96875 16.5 54.203125 
Q 16.5 49.359375 19.40625 46.890625 
Q 22.3125 44.4375 30.421875 42.921875 
L 36.375 41.703125 
Q 47.40625 39.59375 52.65625 34.296875 
Q 57.90625 29 57.90625 20.125 
Q 57.90625 9.515625 50.796875 4.046875 
Q 43.703125 -1.421875 29.984375 -1.421875 
Q 24.8125 -1.421875 18.96875 -0.25 
Q 13.140625 0.921875 6.890625 3.21875 
L 6.890625 13.375 
Q 12.890625 10.015625 18.65625 8.296875 
Q 24.421875 6.59375 29.984375 6.59375 
Q 38.421875 6.59375 43.015625 9.90625 
Q 47.609375 13.234375 47.609375 19.390625 
Q 47.609375 24.75 44.3125 27.78125 
Q 41.015625 30.8125 33.5 32.328125 
L 27.484375 33.5 
Q 16.453125 35.6875 11.515625 40.375 
Q 6.59375 45.0625 6.59375 53.421875 
Q 6.59375 63.09375 13.40625 68.65625 
Q 20.21875 74.21875 32.171875 74.21875 
Q 37.3125 74.21875 42.625 73.28125 
Q 47.953125 72.359375 53.515625 70.515625 
z
" id="DejaVuSans-83"/>
       <path d="M 18.109375 8.203125 
L 18.109375 -20.796875 
L 9.078125 -20.796875 
L 9.078125 54.6875 
L 18.109375 54.6875 
L 18.109375 46.390625 
Q 20.953125 51.265625 25.265625 53.625 
Q 29.59375 56 35.59375 56 
Q 45.5625 56 51.78125 48.09375 
Q 58.015625 40.1875 58.015625 27.296875 
Q 58.015625 14.40625 51.78125 6.484375 
Q 45.5625 -1.421875 35.59375 -1.421875 
Q 29.59375 -1.421875 25.265625 0.953125 
Q 20.953125 3.328125 18.109375 8.203125 
z
M 48.6875 27.296875 
Q 48.6875 37.203125 44.609375 42.84375 
Q 40.53125 48.484375 33.40625 48.484375 
Q 26.265625 48.484375 22.1875 42.84375 
Q 18.109375 37.203125 18.109375 27.296875 
Q 18.109375 17.390625 22.1875 11.75 
Q 26.265625 6.109375 33.40625 6.109375 
Q 40.53125 6.109375 44.609375 11.75 
Q 48.6875 17.390625 48.6875 27.296875 
z
" id="DejaVuSans-112"/>
       <path d="M 9.421875 54.6875 
L 18.40625 54.6875 
L 18.40625 0 
L 9.421875 0 
z
M 9.421875 75.984375 
L 18.40625 75.984375 
L 18.40625 64.59375 
L 9.421875 64.59375 
z
" id="DejaVuSans-105"/>
       <path d="M 54.890625 33.015625 
L 54.890625 0 
L 45.90625 0 
L 45.90625 32.71875 
Q 45.90625 40.484375 42.875 44.328125 
Q 39.84375 48.1875 33.796875 48.1875 
Q 26.515625 48.1875 22.3125 43.546875 
Q 18.109375 38.921875 18.109375 30.90625 
L 18.109375 0 
L 9.078125 0 
L 9.078125 54.6875 
L 18.109375 54.6875 
L 18.109375 46.1875 
Q 21.34375 51.125 25.703125 53.5625 
Q 30.078125 56 35.796875 56 
Q 45.21875 56 50.046875 50.171875 
Q 54.890625 44.34375 54.890625 33.015625 
z
" id="DejaVuSans-110"/>
       <path d="M 54.890625 33.015625 
L 54.890625 0 
L 45.90625 0 
L 45.90625 32.71875 
Q 45.90625 40.484375 42.875 44.328125 
Q 39.84375 48.1875 33.796875 48.1875 
Q 26.515625 48.1875 22.3125 43.546875 
Q 18.109375 38.921875 18.109375 30.90625 
L 18.109375 0 
L 9.078125 0 
L 9.078125 75.984375 
L 18.109375 75.984375 
L 18.109375 46.1875 
Q 21.34375 51.125 25.703125 53.5625 
Q 30.078125 56 35.796875 56 
Q 45.21875 56 50.046875 50.171875 
Q 54.890625 44.34375 54.890625 33.015625 
z
" id="DejaVuSans-104"/>
       <path d="M 30.609375 48.390625 
Q 23.390625 48.390625 19.1875 42.75 
Q 14.984375 37.109375 14.984375 27.296875 
Q 14.984375 17.484375 19.15625 11.84375 
Q 23.34375 6.203125 30.609375 6.203125 
Q 37.796875 6.203125 41.984375 11.859375 
Q 46.1875 17.53125 46.1875 27.296875 
Q 46.1875 37.015625 41.984375 42.703125 
Q 37.796875 48.390625 30.609375 48.390625 
z
M 30.609375 56 
Q 42.328125 56 49.015625 48.375 
Q 55.71875 40.765625 55.71875 27.296875 
Q 55.71875 13.875 49.015625 6.21875 
Q 42.328125 -1.421875 30.609375 -1.421875 
Q 18.84375 -1.421875 12.171875 6.21875 
Q 5.515625 13.875 5.515625 27.296875 
Q 5.515625 40.765625 12.171875 48.375 
Q 18.84375 56 30.609375 56 
z
" id="DejaVuSans-111"/>
       <path d="M 8.5 21.578125 
L 8.5 54.6875 
L 17.484375 54.6875 
L 17.484375 21.921875 
Q 17.484375 14.15625 20.5 10.265625 
Q 23.53125 6.390625 29.59375 6.390625 
Q 36.859375 6.390625 41.078125 11.03125 
Q 45.3125 15.671875 45.3125 23.6875 
L 45.3125 54.6875 
L 54.296875 54.6875 
L 54.296875 0 
L 45.3125 0 
L 45.3125 8.40625 
Q 42.046875 3.421875 37.71875 1 
Q 33.40625 -1.421875 27.6875 -1.421875 
Q 18.265625 -1.421875 13.375 4.4375 
Q 8.5 10.296875 8.5 21.578125 
z
M 31.109375 56 
z
" id="DejaVuSans-117"/>
       <path d="M 9.421875 75.984375 
L 18.40625 75.984375 
L 18.40625 0 
L 9.421875 0 
z
" id="DejaVuSans-108"/>
       <path d="M 41.109375 46.296875 
Q 39.59375 47.171875 37.8125 47.578125 
Q 36.03125 48 33.890625 48 
Q 26.265625 48 22.1875 43.046875 
Q 18.109375 38.09375 18.109375 28.8125 
L 18.109375 0 
L 9.078125 0 
L 9.078125 54.6875 
L 18.109375 54.6875 
L 18.109375 46.1875 
Q 20.953125 51.171875 25.484375 53.578125 
Q 30.03125 56 36.53125 56 
Q 37.453125 56 38.578125 55.875 
Q 39.703125 55.765625 41.0625 55.515625 
z
" id="DejaVuSans-114"/>
      </defs>
      <use xlink:href="#DejaVuSans-83"/>
      <use x="63.476562" xlink:href="#DejaVuSans-112"/>
      <use x="126.953125" xlink:href="#DejaVuSans-105"/>
      <use x="154.736328" xlink:href="#DejaVuSans-110"/>
      <use x="218.115234" xlink:href="#DejaVuSans-101"/>
      <use x="279.638672" xlink:href="#DejaVuSans-83"/>
      <use x="343.115234" xlink:href="#DejaVuSans-104"/>
      <use x="406.494141" xlink:href="#DejaVuSans-111"/>
      <use x="467.675781" xlink:href="#DejaVuSans-117"/>
      <use x="531.054688" xlink:href="#DejaVuSans-108"/>
      <use x="558.837891" xlink:href="#DejaVuSans-100"/>
      <use x="622.314453" xlink:href="#DejaVuSans-101"/>
      <use x="683.837891" xlink:href="#DejaVuSans-114"/>
     </g>
    </g>
   </g>
   <g id="text_4">
    <g clip-path="url(#pfa3580b3c1)">
     <!-- Spine -->
     <g transform="translate(284.479667 256.277948)scale(0.1 -0.1)">
      <use xlink:href="#DejaVuSans-83"/>
      <use x="63.476562" xlink:href="#DejaVuSans-112"/>
      <use x="126.953125" xlink:href="#DejaVuSans-105"/>
      <use x="154.736328" xlink:href="#DejaVuSans-110"/>
      <use x="218.115234" xlink:href="#DejaVuSans-101"/>
     </g>
    </g>
   </g>
   <g id="text_5">
    <g clip-path="url(#pfa3580b3c1)">
     <!-- Sacr -->
     <g transform="translate(285.500662 394.387185)scale(0.1 -0.1)">
      <use xlink:href="#DejaVuSans-83"/>
      <use x="63.476562" xlink:href="#DejaVuSans-97"/>
      <use x="124.755859" xlink:href="#DejaVuSans-99"/>
      <use x="179.736328" xlink:href="#DejaVuSans-114"/>
     </g>
    </g>
   </g>
   <g id="text_6">
    <g clip-path="url(#pfa3580b3c1)">
     <!-- LShoulder -->
     <g transform="translate(90.649625 153.134584)scale(0.1 -0.1)">
      <defs>
       <path d="M 9.8125 72.90625 
L 19.671875 72.90625 
L 19.671875 8.296875 
L 55.171875 8.296875 
L 55.171875 0 
L 9.8125 0 
z
" id="DejaVuSans-76"/>
      </defs>
      <use xlink:href="#DejaVuSans-76"/>
      <use x="55.712891" xlink:href="#DejaVuSans-83"/>
      <use x="119.189453" xlink:href="#DejaVuSans-104"/>
      <use x="182.568359" xlink:href="#DejaVuSans-111"/>
      <use x="243.75" xlink:href="#DejaVuSans-117"/>
      <use x="307.128906" xlink:href="#DejaVuSans-108"/>
      <use x="334.912109" xlink:href="#DejaVuSans-100"/>
      <use x="398.388672" xlink:href="#DejaVuSans-101"/>
      <use x="459.912109" xlink:href="#DejaVuSans-114"/>
     </g>
    </g>
   </g>
   <g id="text_7">
    <g clip-path="url(#pfa3580b3c1)">
     <!-- LElbow -->
     <g transform="translate(32.32644 245.944514)scale(0.1 -0.1)">
      <defs>
       <path d="M 9.8125 72.90625 
L 55.90625 72.90625 
L 55.90625 64.59375 
L 19.671875 64.59375 
L 19.671875 43.015625 
L 54.390625 43.015625 
L 54.390625 34.71875 
L 19.671875 34.71875 
L 19.671875 8.296875 
L 56.78125 8.296875 
L 56.78125 0 
L 9.8125 0 
z
" id="DejaVuSans-69"/>
       <path d="M 48.6875 27.296875 
Q 48.6875 37.203125 44.609375 42.84375 
Q 40.53125 48.484375 33.40625 48.484375 
Q 26.265625 48.484375 22.1875 42.84375 
Q 18.109375 37.203125 18.109375 27.296875 
Q 18.109375 17.390625 22.1875 11.75 
Q 26.265625 6.109375 33.40625 6.109375 
Q 40.53125 6.109375 44.609375 11.75 
Q 48.6875 17.390625 48.6875 27.296875 
z
M 18.109375 46.390625 
Q 20.953125 51.265625 25.265625 53.625 
Q 29.59375 56 35.59375 56 
Q 45.5625 56 51.78125 48.09375 
Q 58.015625 40.1875 58.015625 27.296875 
Q 58.015625 14.40625 51.78125 6.484375 
Q 45.5625 -1.421875 35.59375 -1.421875 
Q 29.59375 -1.421875 25.265625 0.953125 
Q 20.953125 3.328125 18.109375 8.203125 
L 18.109375 0 
L 9.078125 0 
L 9.078125 75.984375 
L 18.109375 75.984375 
z
" id="DejaVuSans-98"/>
       <path d="M 4.203125 54.6875 
L 13.1875 54.6875 
L 24.421875 12.015625 
L 35.59375 54.6875 
L 46.1875 54.6875 
L 57.421875 12.015625 
L 68.609375 54.6875 
L 77.59375 54.6875 
L 63.28125 0 
L 52.6875 0 
L 40.921875 44.828125 
L 29.109375 0 
L 18.5 0 
z
" id="DejaVuSans-119"/>
      </defs>
      <use xlink:href="#DejaVuSans-76"/>
      <use x="55.712891" xlink:href="#DejaVuSans-69"/>
      <use x="118.896484" xlink:href="#DejaVuSans-108"/>
      <use x="146.679688" xlink:href="#DejaVuSans-98"/>
      <use x="210.15625" xlink:href="#DejaVuSans-111"/>
      <use x="271.337891" xlink:href="#DejaVuSans-119"/>
     </g>
    </g>
   </g>
   <g id="text_8">
    <g clip-path="url(#pfa3580b3c1)">
     <!-- LWrist -->
     <g transform="translate(236.278421 307.625102)scale(0.1 -0.1)">
      <defs>
       <path d="M 3.328125 72.90625 
L 13.28125 72.90625 
L 28.609375 11.28125 
L 43.890625 72.90625 
L 54.984375 72.90625 
L 70.3125 11.28125 
L 85.59375 72.90625 
L 95.609375 72.90625 
L 77.296875 0 
L 64.890625 0 
L 49.515625 63.28125 
L 33.984375 0 
L 21.578125 0 
z
" id="DejaVuSans-87"/>
       <path d="M 44.28125 53.078125 
L 44.28125 44.578125 
Q 40.484375 46.53125 36.375 47.5 
Q 32.28125 48.484375 27.875 48.484375 
Q 21.1875 48.484375 17.84375 46.4375 
Q 14.5 44.390625 14.5 40.28125 
Q 14.5 37.15625 16.890625 35.375 
Q 19.28125 33.59375 26.515625 31.984375 
L 29.59375 31.296875 
Q 39.15625 29.25 43.1875 25.515625 
Q 47.21875 21.78125 47.21875 15.09375 
Q 47.21875 7.46875 41.1875 3.015625 
Q 35.15625 -1.421875 24.609375 -1.421875 
Q 20.21875 -1.421875 15.453125 -0.5625 
Q 10.6875 0.296875 5.421875 2 
L 5.421875 11.28125 
Q 10.40625 8.6875 15.234375 7.390625 
Q 20.0625 6.109375 24.8125 6.109375 
Q 31.15625 6.109375 34.5625 8.28125 
Q 37.984375 10.453125 37.984375 14.40625 
Q 37.984375 18.0625 35.515625 20.015625 
Q 33.0625 21.96875 24.703125 23.78125 
L 21.578125 24.515625 
Q 13.234375 26.265625 9.515625 29.90625 
Q 5.8125 33.546875 5.8125 39.890625 
Q 5.8125 47.609375 11.28125 51.796875 
Q 16.75 56 26.8125 56 
Q 31.78125 56 36.171875 55.265625 
Q 40.578125 54.546875 44.28125 53.078125 
z
" id="DejaVuSans-115"/>
       <path d="M 18.3125 70.21875 
L 18.3125 54.6875 
L 36.8125 54.6875 
L 36.8125 47.703125 
L 18.3125 47.703125 
L 18.3125 18.015625 
Q 18.3125 11.328125 20.140625 9.421875 
Q 21.96875 7.515625 27.59375 7.515625 
L 36.8125 7.515625 
L 36.8125 0 
L 27.59375 0 
Q 17.1875 0 13.234375 3.875 
Q 9.28125 7.765625 9.28125 18.015625 
L 9.28125 47.703125 
L 2.6875 47.703125 
L 2.6875 54.6875 
L 9.28125 54.6875 
L 9.28125 70.21875 
z
" id="DejaVuSans-116"/>
      </defs>
      <use xlink:href="#DejaVuSans-76"/>
      <use x="46.587891" xlink:href="#DejaVuSans-87"/>
      <use x="140.964844" xlink:href="#DejaVuSans-114"/>
      <use x="182.078125" xlink:href="#DejaVuSans-105"/>
      <use x="209.861328" xlink:href="#DejaVuSans-115"/>
      <use x="261.960938" xlink:href="#DejaVuSans-116"/>
     </g>
    </g>
   </g>
   <g id="text_9">
    <g clip-path="url(#pfa3580b3c1)">
     <!-- LHand -->
     <g transform="translate(303.054088 325.897008)scale(0.1 -0.1)">
      <use xlink:href="#DejaVuSans-76"/>
      <use x="55.712891" xlink:href="#DejaVuSans-72"/>
      <use x="130.908203" xlink:href="#DejaVuSans-97"/>
      <use x="192.1875" xlink:href="#DejaVuSans-110"/>
      <use x="255.566406" xlink:href="#DejaVuSans-100"/>
     </g>
    </g>
   </g>
   <g id="text_10">
    <g clip-path="url(#pfa3580b3c1)">
     <!-- RShoulder -->
     <g transform="translate(467.264294 158.683256)scale(0.1 -0.1)">
      <defs>
       <path d="M 44.390625 34.1875 
Q 47.5625 33.109375 50.5625 29.59375 
Q 53.5625 26.078125 56.59375 19.921875 
L 66.609375 0 
L 56 0 
L 46.6875 18.703125 
Q 43.0625 26.03125 39.671875 28.421875 
Q 36.28125 30.8125 30.421875 30.8125 
L 19.671875 30.8125 
L 19.671875 0 
L 9.8125 0 
L 9.8125 72.90625 
L 32.078125 72.90625 
Q 44.578125 72.90625 50.734375 67.671875 
Q 56.890625 62.453125 56.890625 51.90625 
Q 56.890625 45.015625 53.6875 40.46875 
Q 50.484375 35.9375 44.390625 34.1875 
z
M 19.671875 64.796875 
L 19.671875 38.921875 
L 32.078125 38.921875 
Q 39.203125 38.921875 42.84375 42.21875 
Q 46.484375 45.515625 46.484375 51.90625 
Q 46.484375 58.296875 42.84375 61.546875 
Q 39.203125 64.796875 32.078125 64.796875 
z
" id="DejaVuSans-82"/>
      </defs>
      <use xlink:href="#DejaVuSans-82"/>
      <use x="69.482422" xlink:href="#DejaVuSans-83"/>
      <use x="132.958984" xlink:href="#DejaVuSans-104"/>
      <use x="196.337891" xlink:href="#DejaVuSans-111"/>
      <use x="257.519531" xlink:href="#DejaVuSans-117"/>
      <use x="320.898438" xlink:href="#DejaVuSans-108"/>
      <use x="348.681641" xlink:href="#DejaVuSans-100"/>
      <use x="412.158203" xlink:href="#DejaVuSans-101"/>
      <use x="473.681641" xlink:href="#DejaVuSans-114"/>
     </g>
    </g>
   </g>
   <g id="text_11">
    <g clip-path="url(#pfa3580b3c1)">
     <!-- RElbow -->
     <g transform="translate(507.671216 276.29446)scale(0.1 -0.1)">
      <use xlink:href="#DejaVuSans-82"/>
      <use x="69.482422" xlink:href="#DejaVuSans-69"/>
      <use x="132.666016" xlink:href="#DejaVuSans-108"/>
      <use x="160.449219" xlink:href="#DejaVuSans-98"/>
      <use x="223.925781" xlink:href="#DejaVuSans-111"/>
      <use x="285.107422" xlink:href="#DejaVuSans-119"/>
     </g>
    </g>
   </g>
   <g id="text_12">
    <g clip-path="url(#pfa3580b3c1)">
     <!-- RWrist -->
     <g transform="translate(390.688219 322.098103)scale(0.1 -0.1)">
      <use xlink:href="#DejaVuSans-82"/>
      <use x="65.482422" xlink:href="#DejaVuSans-87"/>
      <use x="159.859375" xlink:href="#DejaVuSans-114"/>
      <use x="200.972656" xlink:href="#DejaVuSans-105"/>
      <use x="228.755859" xlink:href="#DejaVuSans-115"/>
      <use x="280.855469" xlink:href="#DejaVuSans-116"/>
     </g>
    </g>
   </g>
   <g id="text_13">
    <g clip-path="url(#pfa3580b3c1)">
     <!-- RHand -->
     <g transform="translate(338.05446 328.002923)scale(0.1 -0.1)">
      <use xlink:href="#DejaVuSans-82"/>
      <use x="69.482422" xlink:href="#DejaVuSans-72"/>
      <use x="144.677734" xlink:href="#DejaVuSans-97"/>
      <use x="205.957031" xlink:href="#DejaVuSans-110"/>
      <use x="269.335938" xlink:href="#DejaVuSans-100"/>
     </g>
    </g>
   </g>
   <g id="text_14">
    <g clip-path="url(#pfa3580b3c1)">
     <!-- LHip -->
     <g transform="translate(204.666866 394.514366)scale(0.1 -0.1)">
      <use xlink:href="#DejaVuSans-76"/>
      <use x="55.712891" xlink:href="#DejaVuSans-72"/>
      <use x="130.908203" xlink:href="#DejaVuSans-105"/>
      <use x="158.691406" xlink:href="#DejaVuSans-112"/>
     </g>
    </g>
   </g>
   <g id="text_15">
    <g clip-path="url(#pfa3580b3c1)">
     <!-- LKnee -->
     <g transform="translate(163.336388 562.822728)scale(0.1 -0.1)">
      <defs>
       <path d="M 9.8125 72.90625 
L 19.671875 72.90625 
L 19.671875 42.09375 
L 52.390625 72.90625 
L 65.09375 72.90625 
L 28.90625 38.921875 
L 67.671875 0 
L 54.6875 0 
L 19.671875 35.109375 
L 19.671875 0 
L 9.8125 0 
z
" id="DejaVuSans-75"/>
      </defs>
      <use xlink:href="#DejaVuSans-76"/>
      <use x="55.712891" xlink:href="#DejaVuSans-75"/>
      <use x="121.289062" xlink:href="#DejaVuSans-110"/>
      <use x="184.667969" xlink:href="#DejaVuSans-101"/>
      <use x="246.191406" xlink:href="#DejaVuSans-101"/>
     </g>
    </g>
   </g>
   <g id="text_16">
    <g clip-path="url(#pfa3580b3c1)">
     <!-- LAnkle -->
     <g transform="translate(178.505749 753.335742)scale(0.1 -0.1)">
      <defs>
       <path d="M 34.1875 63.1875 
L 20.796875 26.90625 
L 47.609375 26.90625 
z
M 28.609375 72.90625 
L 39.796875 72.90625 
L 67.578125 0 
L 57.328125 0 
L 50.6875 18.703125 
L 17.828125 18.703125 
L 11.1875 0 
L 0.78125 0 
z
" id="DejaVuSans-65"/>
       <path d="M 9.078125 75.984375 
L 18.109375 75.984375 
L 18.109375 31.109375 
L 44.921875 54.6875 
L 56.390625 54.6875 
L 27.390625 29.109375 
L 57.625 0 
L 45.90625 0 
L 18.109375 26.703125 
L 18.109375 0 
L 9.078125 0 
z
" id="DejaVuSans-107"/>
      </defs>
      <use xlink:href="#DejaVuSans-76"/>
      <use x="57.962891" xlink:href="#DejaVuSans-65"/>
      <use x="126.371094" xlink:href="#DejaVuSans-110"/>
      <use x="189.75" xlink:href="#DejaVuSans-107"/>
      <use x="247.660156" xlink:href="#DejaVuSans-108"/>
      <use x="275.443359" xlink:href="#DejaVuSans-101"/>
     </g>
    </g>
   </g>
   <g id="text_17">
    <g clip-path="url(#pfa3580b3c1)">
     <!-- LFoot -->
     <g transform="translate(178.862703 791.784168)scale(0.1 -0.1)">
      <defs>
       <path d="M 9.8125 72.90625 
L 51.703125 72.90625 
L 51.703125 64.59375 
L 19.671875 64.59375 
L 19.671875 43.109375 
L 48.578125 43.109375 
L 48.578125 34.8125 
L 19.671875 34.8125 
L 19.671875 0 
L 9.8125 0 
z
" id="DejaVuSans-70"/>
      </defs>
      <use xlink:href="#DejaVuSans-76"/>
      <use x="55.712891" xlink:href="#DejaVuSans-70"/>
      <use x="109.607422" xlink:href="#DejaVuSans-111"/>
      <use x="170.789062" xlink:href="#DejaVuSans-111"/>
      <use x="231.970703" xlink:href="#DejaVuSans-116"/>
     </g>
    </g>
   </g>
   <g id="text_18">
    <g clip-path="url(#pfa3580b3c1)">
     <!-- RHip -->
     <g transform="translate(366.24673 392.677574)scale(0.1 -0.1)">
      <use xlink:href="#DejaVuSans-82"/>
      <use x="69.482422" xlink:href="#DejaVuSans-72"/>
      <use x="144.677734" xlink:href="#DejaVuSans-105"/>
      <use x="172.460938" xlink:href="#DejaVuSans-112"/>
     </g>
    </g>
   </g>
   <g id="text_19">
    <g clip-path="url(#pfa3580b3c1)">
     <!-- RKnee -->
     <g transform="translate(397.453763 548.220688)scale(0.1 -0.1)">
      <use xlink:href="#DejaVuSans-82"/>
      <use x="69.482422" xlink:href="#DejaVuSans-75"/>
      <use x="135.058594" xlink:href="#DejaVuSans-110"/>
      <use x="198.4375" xlink:href="#DejaVuSans-101"/>
      <use x="259.960938" xlink:href="#DejaVuSans-101"/>
     </g>
    </g>
   </g>
   <g id="text_20">
    <g clip-path="url(#pfa3580b3c1)">
     <!-- RAnkle -->
     <g transform="translate(346.982377 701.451786)scale(0.1 -0.1)">
      <use xlink:href="#DejaVuSans-82"/>
      <use x="65.482422" xlink:href="#DejaVuSans-65"/>
      <use x="133.890625" xlink:href="#DejaVuSans-110"/>
      <use x="197.269531" xlink:href="#DejaVuSans-107"/>
      <use x="255.179688" xlink:href="#DejaVuSans-108"/>
      <use x="282.962891" xlink:href="#DejaVuSans-101"/>
     </g>
    </g>
   </g>
   <g id="text_21">
    <g clip-path="url(#pfa3580b3c1)">
     <!-- RFoot -->
     <g transform="translate(343.918662 737.009742)scale(0.1 -0.1)">
      <use xlink:href="#DejaVuSans-82"/>
      <use x="69.482422" xlink:href="#DejaVuSans-70"/>
      <use x="123.376953" xlink:href="#DejaVuSans-111"/>
      <use x="184.558594" xlink:href="#DejaVuSans-111"/>
      <use x="245.740234" xlink:href="#DejaVuSans-116"/>
     </g>
    </g>
   </g>
   <g id="text_22">
    <g clip-path="url(#pfa3580b3c1)">
     <!-- LHandTip -->
     <g transform="translate(330.731046 336.927252)scale(0.1 -0.1)">
      <defs>
       <path d="M -0.296875 72.90625 
L 61.375 72.90625 
L 61.375 64.59375 
L 35.5 64.59375 
L 35.5 0 
L 25.59375 0 
L 25.59375 64.59375 
L -0.296875 64.59375 
z
" id="DejaVuSans-84"/>
      </defs>
      <use xlink:href="#DejaVuSans-76"/>
      <use x="55.712891" xlink:href="#DejaVuSans-72"/>
      <use x="130.908203" xlink:href="#DejaVuSans-97"/>
      <use x="192.1875" xlink:href="#DejaVuSans-110"/>
      <use x="255.566406" xlink:href="#DejaVuSans-100"/>
      <use x="319.042969" xlink:href="#DejaVuSans-84"/>
      <use x="377.001953" xlink:href="#DejaVuSans-105"/>
      <use x="404.785156" xlink:href="#DejaVuSans-112"/>
     </g>
    </g>
   </g>
   <g id="text_23">
    <g clip-path="url(#pfa3580b3c1)">
     <!-- LThumb -->
     <g transform="translate(345.949799 313.896392)scale(0.1 -0.1)">
      <defs>
       <path d="M 52 44.1875 
Q 55.375 50.25 60.0625 53.125 
Q 64.75 56 71.09375 56 
Q 79.640625 56 84.28125 50.015625 
Q 88.921875 44.046875 88.921875 33.015625 
L 88.921875 0 
L 79.890625 0 
L 79.890625 32.71875 
Q 79.890625 40.578125 77.09375 44.375 
Q 74.3125 48.1875 68.609375 48.1875 
Q 61.625 48.1875 57.5625 43.546875 
Q 53.515625 38.921875 53.515625 30.90625 
L 53.515625 0 
L 44.484375 0 
L 44.484375 32.71875 
Q 44.484375 40.625 41.703125 44.40625 
Q 38.921875 48.1875 33.109375 48.1875 
Q 26.21875 48.1875 22.15625 43.53125 
Q 18.109375 38.875 18.109375 30.90625 
L 18.109375 0 
L 9.078125 0 
L 9.078125 54.6875 
L 18.109375 54.6875 
L 18.109375 46.1875 
Q 21.1875 51.21875 25.484375 53.609375 
Q 29.78125 56 35.6875 56 
Q 41.65625 56 45.828125 52.96875 
Q 50 49.953125 52 44.1875 
z
" id="DejaVuSans-109"/>
      </defs>
      <use xlink:href="#DejaVuSans-76"/>
      <use x="41.962891" xlink:href="#DejaVuSans-84"/>
      <use x="103.046875" xlink:href="#DejaVuSans-104"/>
      <use x="166.425781" xlink:href="#DejaVuSans-117"/>
      <use x="229.804688" xlink:href="#DejaVuSans-109"/>
      <use x="327.216797" xlink:href="#DejaVuSans-98"/>
     </g>
    </g>
   </g>
   <g id="text_24">
    <g clip-path="url(#pfa3580b3c1)">
     <!-- RHandTip -->
     <g transform="translate(291.293342 339.012521)scale(0.1 -0.1)">
      <use xlink:href="#DejaVuSans-82"/>
      <use x="69.482422" xlink:href="#DejaVuSans-72"/>
      <use x="144.677734" xlink:href="#DejaVuSans-97"/>
      <use x="205.957031" xlink:href="#DejaVuSans-110"/>
      <use x="269.335938" xlink:href="#DejaVuSans-100"/>
      <use x="332.8125" xlink:href="#DejaVuSans-84"/>
      <use x="390.771484" xlink:href="#DejaVuSans-105"/>
      <use x="418.554688" xlink:href="#DejaVuSans-112"/>
     </g>
    </g>
   </g>
   <g id="text_25">
    <g clip-path="url(#pfa3580b3c1)">
     <!-- RThumb -->
     <g transform="translate(369.091987 333.83548)scale(0.1 -0.1)">
      <use xlink:href="#DejaVuSans-82"/>
      <use x="62.232422" xlink:href="#DejaVuSans-84"/>
      <use x="123.316406" xlink:href="#DejaVuSans-104"/>
      <use x="186.695312" xlink:href="#DejaVuSans-117"/>
      <use x="250.074219" xlink:href="#DejaVuSans-109"/>
      <use x="347.486328" xlink:href="#DejaVuSans-98"/>
     </g>
    </g>
   </g>
   <g id="text_26">
    <!-- Node Graph Visualization - Frame 268 -->
    <g transform="translate(174.194063 -6)scale(0.12 -0.12)">
     <defs>
      <path d="M 9.8125 72.90625 
L 23.09375 72.90625 
L 55.421875 11.921875 
L 55.421875 72.90625 
L 64.984375 72.90625 
L 64.984375 0 
L 51.703125 0 
L 19.390625 60.984375 
L 19.390625 0 
L 9.8125 0 
z
" id="DejaVuSans-78"/>
      <path id="DejaVuSans-32"/>
      <path d="M 59.515625 10.40625 
L 59.515625 29.984375 
L 43.40625 29.984375 
L 43.40625 38.09375 
L 69.28125 38.09375 
L 69.28125 6.78125 
Q 63.578125 2.734375 56.6875 0.65625 
Q 49.8125 -1.421875 42 -1.421875 
Q 24.90625 -1.421875 15.25 8.5625 
Q 5.609375 18.5625 5.609375 36.375 
Q 5.609375 54.25 15.25 64.234375 
Q 24.90625 74.21875 42 74.21875 
Q 49.125 74.21875 55.546875 72.453125 
Q 61.96875 70.703125 67.390625 67.28125 
L 67.390625 56.78125 
Q 61.921875 61.421875 55.765625 63.765625 
Q 49.609375 66.109375 42.828125 66.109375 
Q 29.4375 66.109375 22.71875 58.640625 
Q 16.015625 51.171875 16.015625 36.375 
Q 16.015625 21.625 22.71875 14.15625 
Q 29.4375 6.6875 42.828125 6.6875 
Q 48.046875 6.6875 52.140625 7.59375 
Q 56.25 8.5 59.515625 10.40625 
z
" id="DejaVuSans-71"/>
      <path d="M 28.609375 0 
L 0.78125 72.90625 
L 11.078125 72.90625 
L 34.1875 11.53125 
L 57.328125 72.90625 
L 67.578125 72.90625 
L 39.796875 0 
z
" id="DejaVuSans-86"/>
      <path d="M 5.515625 54.6875 
L 48.1875 54.6875 
L 48.1875 46.484375 
L 14.40625 7.171875 
L 48.1875 7.171875 
L 48.1875 0 
L 4.296875 0 
L 4.296875 8.203125 
L 38.09375 47.515625 
L 5.515625 47.515625 
z
" id="DejaVuSans-122"/>
      <path d="M 4.890625 31.390625 
L 31.203125 31.390625 
L 31.203125 23.390625 
L 4.890625 23.390625 
z
" id="DejaVuSans-45"/>
      <path d="M 19.1875 8.296875 
L 53.609375 8.296875 
L 53.609375 0 
L 7.328125 0 
L 7.328125 8.296875 
Q 12.9375 14.109375 22.625 23.890625 
Q 32.328125 33.6875 34.8125 36.53125 
Q 39.546875 41.84375 41.421875 45.53125 
Q 43.3125 49.21875 43.3125 52.78125 
Q 43.3125 58.59375 39.234375 62.25 
Q 35.15625 65.921875 28.609375 65.921875 
Q 23.96875 65.921875 18.8125 64.3125 
Q 13.671875 62.703125 7.8125 59.421875 
L 7.8125 69.390625 
Q 13.765625 71.78125 18.9375 73 
Q 24.125 74.21875 28.421875 74.21875 
Q 39.75 74.21875 46.484375 68.546875 
Q 53.21875 62.890625 53.21875 53.421875 
Q 53.21875 48.921875 51.53125 44.890625 
Q 49.859375 40.875 45.40625 35.40625 
Q 44.1875 33.984375 37.640625 27.21875 
Q 31.109375 20.453125 19.1875 8.296875 
z
" id="DejaVuSans-50"/>
      <path d="M 33.015625 40.375 
Q 26.375 40.375 22.484375 35.828125 
Q 18.609375 31.296875 18.609375 23.390625 
Q 18.609375 15.53125 22.484375 10.953125 
Q 26.375 6.390625 33.015625 6.390625 
Q 39.65625 6.390625 43.53125 10.953125 
Q 47.40625 15.53125 47.40625 23.390625 
Q 47.40625 31.296875 43.53125 35.828125 
Q 39.65625 40.375 33.015625 40.375 
z
M 52.59375 71.296875 
L 52.59375 62.3125 
Q 48.875 64.0625 45.09375 64.984375 
Q 41.3125 65.921875 37.59375 65.921875 
Q 27.828125 65.921875 22.671875 59.328125 
Q 17.53125 52.734375 16.796875 39.40625 
Q 19.671875 43.65625 24.015625 45.921875 
Q 28.375 48.1875 33.59375 48.1875 
Q 44.578125 48.1875 50.953125 41.515625 
Q 57.328125 34.859375 57.328125 23.390625 
Q 57.328125 12.15625 50.6875 5.359375 
Q 44.046875 -1.421875 33.015625 -1.421875 
Q 20.359375 -1.421875 13.671875 8.265625 
Q 6.984375 17.96875 6.984375 36.375 
Q 6.984375 53.65625 15.1875 63.9375 
Q 23.390625 74.21875 37.203125 74.21875 
Q 40.921875 74.21875 44.703125 73.484375 
Q 48.484375 72.75 52.59375 71.296875 
z
" id="DejaVuSans-54"/>
      <path d="M 31.78125 34.625 
Q 24.75 34.625 20.71875 30.859375 
Q 16.703125 27.09375 16.703125 20.515625 
Q 16.703125 13.921875 20.71875 10.15625 
Q 24.75 6.390625 31.78125 6.390625 
Q 38.8125 6.390625 42.859375 10.171875 
Q 46.921875 13.96875 46.921875 20.515625 
Q 46.921875 27.09375 42.890625 30.859375 
Q 38.875 34.625 31.78125 34.625 
z
M 21.921875 38.8125 
Q 15.578125 40.375 12.03125 44.71875 
Q 8.5 49.078125 8.5 55.328125 
Q 8.5 64.0625 14.71875 69.140625 
Q 20.953125 74.21875 31.78125 74.21875 
Q 42.671875 74.21875 48.875 69.140625 
Q 55.078125 64.0625 55.078125 55.328125 
Q 55.078125 49.078125 51.53125 44.71875 
Q 48 40.375 41.703125 38.8125 
Q 48.828125 37.15625 52.796875 32.3125 
Q 56.78125 27.484375 56.78125 20.515625 
Q 56.78125 9.90625 50.3125 4.234375 
Q 43.84375 -1.421875 31.78125 -1.421875 
Q 19.734375 -1.421875 13.25 4.234375 
Q 6.78125 9.90625 6.78125 20.515625 
Q 6.78125 27.484375 10.78125 32.3125 
Q 14.796875 37.15625 21.921875 38.8125 
z
M 18.3125 54.390625 
Q 18.3125 48.734375 21.84375 45.5625 
Q 25.390625 42.390625 31.78125 42.390625 
Q 38.140625 42.390625 41.71875 45.5625 
Q 45.3125 48.734375 45.3125 54.390625 
Q 45.3125 60.0625 41.71875 63.234375 
Q 38.140625 66.40625 31.78125 66.40625 
Q 25.390625 66.40625 21.84375 63.234375 
Q 18.3125 60.0625 18.3125 54.390625 
z
" id="DejaVuSans-56"/>
     </defs>
     <use xlink:href="#DejaVuSans-78"/>
     <use x="74.804688" xlink:href="#DejaVuSans-111"/>
     <use x="135.986328" xlink:href="#DejaVuSans-100"/>
     <use x="199.462891" xlink:href="#DejaVuSans-101"/>
     <use x="260.986328" xlink:href="#DejaVuSans-32"/>
     <use x="292.773438" xlink:href="#DejaVuSans-71"/>
     <use x="370.263672" xlink:href="#DejaVuSans-114"/>
     <use x="411.376953" xlink:href="#DejaVuSans-97"/>
     <use x="472.65625" xlink:href="#DejaVuSans-112"/>
     <use x="536.132812" xlink:href="#DejaVuSans-104"/>
     <use x="599.511719" xlink:href="#DejaVuSans-32"/>
     <use x="631.298828" xlink:href="#DejaVuSans-86"/>
     <use x="697.457031" xlink:href="#DejaVuSans-105"/>
     <use x="725.240234" xlink:href="#DejaVuSans-115"/>
     <use x="777.339844" xlink:href="#DejaVuSans-117"/>
     <use x="840.71875" xlink:href="#DejaVuSans-97"/>
     <use x="901.998047" xlink:href="#DejaVuSans-108"/>
     <use x="929.78125" xlink:href="#DejaVuSans-105"/>
     <use x="957.564453" xlink:href="#DejaVuSans-122"/>
     <use x="1010.054688" xlink:href="#DejaVuSans-97"/>
     <use x="1071.333984" xlink:href="#DejaVuSans-116"/>
     <use x="1110.542969" xlink:href="#DejaVuSans-105"/>
     <use x="1138.326172" xlink:href="#DejaVuSans-111"/>
     <use x="1199.507812" xlink:href="#DejaVuSans-110"/>
     <use x="1262.886719" xlink:href="#DejaVuSans-32"/>
     <use x="1294.673828" xlink:href="#DejaVuSans-45"/>
     <use x="1330.757812" xlink:href="#DejaVuSans-32"/>
     <use x="1362.544922" xlink:href="#DejaVuSans-70"/>
     <use x="1412.814453" xlink:href="#DejaVuSans-114"/>
     <use x="1453.927734" xlink:href="#DejaVuSans-97"/>
     <use x="1515.207031" xlink:href="#DejaVuSans-109"/>
     <use x="1612.619141" xlink:href="#DejaVuSans-101"/>
     <use x="1674.142578" xlink:href="#DejaVuSans-32"/>
     <use x="1705.929688" xlink:href="#DejaVuSans-50"/>
     <use x="1769.552734" xlink:href="#DejaVuSans-54"/>
     <use x="1833.175781" xlink:href="#DejaVuSans-56"/>
    </g>
   </g>
  </g>
 </g>
 <defs>
  <clipPath id="pfa3580b3c1">
   <rect height="864" width="576" x="0" y="0"/>
  </clipPath>
 </defs>
</svg>
