<?xml version="1.0" encoding="utf-8" standalone="no"?>
<!DOCTYPE svg PUBLIC "-//W3C//DTD SVG 1.1//EN"
  "http://www.w3.org/Graphics/SVG/1.1/DTD/svg11.dtd">
<!-- Created with matplotlib (https://matplotlib.org/) -->
<svg height="864pt" version="1.1" viewBox="0 0 576 864" width="576pt" xmlns="http://www.w3.org/2000/svg" xmlns:xlink="http://www.w3.org/1999/xlink">
 <metadata>
  <rdf:RDF xmlns:cc="http://creativecommons.org/ns#" xmlns:dc="http://purl.org/dc/elements/1.1/" xmlns:rdf="http://www.w3.org/1999/02/22-rdf-syntax-ns#">
   <cc:Work>
    <dc:type rdf:resource="http://purl.org/dc/dcmitype/StillImage"/>
    <dc:date>2024-02-04T22:28:03.084948</dc:date>
    <dc:format>image/svg+xml</dc:format>
    <dc:creator>
     <cc:Agent>
      <dc:title>Matplotlib v3.3.2, https://matplotlib.org/</dc:title>
     </cc:Agent>
    </dc:creator>
   </cc:Work>
  </rdf:RDF>
 </metadata>
 <defs>
  <style type="text/css">*{stroke-linecap:butt;stroke-linejoin:round;}</style>
 </defs>
 <g id="figure_1">
  <g id="patch_1">
   <path d="M 0 864 
L 576 864 
L 576 0 
L 0 0 
z
" style="fill:#ffffff;"/>
  </g>
  <g id="axes_1">
   <g id="patch_2">
    <path clip-path="url(#p88a7d2bd73)" d="M 310.001454 87.359414 
Q 305.766555 98.628985 301.924942 108.851978 
" style="fill:none;stroke:#000000;stroke-linecap:round;"/>
    <path clip-path="url(#p88a7d2bd73)" d="M 305.204178 105.811154 
L 301.924942 108.851978 
L 301.459825 104.404094 
L 305.204178 105.811154 
z
" style="stroke:#000000;stroke-linecap:round;"/>
   </g>
   <g id="patch_3">
    <path clip-path="url(#p88a7d2bd73)" d="M 298.237294 135.442555 
Q 298.477378 137.766577 298.602575 138.978483 
" style="fill:none;stroke:#000000;stroke-linecap:round;"/>
    <path clip-path="url(#p88a7d2bd73)" d="M 300.180953 134.794141 
L 298.602575 138.978483 
L 296.202128 135.205175 
L 300.180953 134.794141 
z
" style="stroke:#000000;stroke-linecap:round;"/>
   </g>
   <g id="patch_4">
    <path clip-path="url(#p88a7d2bd73)" d="M 301.531592 109.898728 
Q 305.766491 98.629157 309.608105 88.406164 
" style="fill:none;stroke:#000000;stroke-linecap:round;"/>
    <path clip-path="url(#p88a7d2bd73)" d="M 306.328868 91.446988 
L 309.608105 88.406164 
L 310.073222 92.854047 
L 306.328868 91.446988 
z
" style="stroke:#000000;stroke-linecap:round;"/>
   </g>
   <g id="patch_5">
    <path clip-path="url(#p88a7d2bd73)" d="M 301.147167 166.436599 
Q 303.932845 200.760022 306.628081 233.969076 
" style="fill:none;stroke:#000000;stroke-linecap:round;"/>
    <path clip-path="url(#p88a7d2bd73)" d="M 308.297951 229.820398 
L 306.628081 233.969076 
L 304.31106 230.143972 
L 308.297951 229.820398 
z
" style="stroke:#000000;stroke-linecap:round;"/>
   </g>
   <g id="patch_6">
    <path clip-path="url(#p88a7d2bd73)" d="M 286.860221 153.775812 
Q 218.515484 156.484012 151.287905 159.147943 
" style="fill:none;stroke:#000000;stroke-linecap:round;"/>
    <path clip-path="url(#p88a7d2bd73)" d="M 155.363958 160.987997 
L 151.287905 159.147943 
L 155.20558 156.991134 
L 155.363958 160.987997 
z
" style="stroke:#000000;stroke-linecap:round;"/>
   </g>
   <g id="patch_7">
    <path clip-path="url(#p88a7d2bd73)" d="M 313.286537 153.925048 
Q 388.3559 157.749508 462.308677 161.517083 
" style="fill:none;stroke:#000000;stroke-linecap:round;"/>
    <path clip-path="url(#p88a7d2bd73)" d="M 458.415618 159.316155 
L 462.308677 161.517083 
L 458.212099 163.310974 
L 458.415618 159.316155 
z
" style="stroke:#000000;stroke-linecap:round;"/>
   </g>
   <g id="patch_8">
    <path clip-path="url(#p88a7d2bd73)" d="M 298.717655 140.092464 
Q 298.477571 137.768442 298.352375 136.556536 
" style="fill:none;stroke:#000000;stroke-linecap:round;"/>
    <path clip-path="url(#p88a7d2bd73)" d="M 296.773996 140.740879 
L 298.352375 136.556536 
L 300.752822 140.329844 
L 296.773996 140.740879 
z
" style="stroke:#000000;stroke-linecap:round;"/>
   </g>
   <g id="patch_9">
    <path clip-path="url(#p88a7d2bd73)" d="M 308.651284 261.46618 
Q 312.014697 312.920104 315.305184 363.258375 
" style="fill:none;stroke:#000000;stroke-linecap:round;"/>
    <path clip-path="url(#p88a7d2bd73)" d="M 317.040011 359.136437 
L 315.305184 363.258375 
L 313.04853 359.39735 
L 317.040011 359.136437 
z
" style="stroke:#000000;stroke-linecap:round;"/>
   </g>
   <g id="patch_10">
    <path clip-path="url(#p88a7d2bd73)" d="M 306.718397 235.081903 
Q 303.932719 200.75848 301.237483 167.549426 
" style="fill:none;stroke:#000000;stroke-linecap:round;"/>
    <path clip-path="url(#p88a7d2bd73)" d="M 299.567613 171.698104 
L 301.237483 167.549426 
L 303.554504 171.37453 
L 299.567613 171.698104 
z
" style="stroke:#000000;stroke-linecap:round;"/>
   </g>
   <g id="patch_11">
    <path clip-path="url(#p88a7d2bd73)" d="M 303.035316 378.338384 
Q 277.143877 379.839437 252.368597 381.27578 
" style="fill:none;stroke:#000000;stroke-linecap:round;"/>
    <path clip-path="url(#p88a7d2bd73)" d="M 256.477647 383.040917 
L 252.368597 381.27578 
L 256.246136 379.047622 
L 256.477647 383.040917 
z
" style="stroke:#000000;stroke-linecap:round;"/>
   </g>
   <g id="patch_12">
    <path clip-path="url(#p88a7d2bd73)" d="M 329.466311 377.425107 
Q 348.766527 377.209585 366.948779 377.006547 
" style="fill:none;stroke:#000000;stroke-linecap:round;"/>
    <path clip-path="url(#p88a7d2bd73)" d="M 362.926696 375.051337 
L 366.948779 377.006547 
L 362.971361 379.051087 
L 362.926696 375.051337 
z
" style="stroke:#000000;stroke-linecap:round;"/>
   </g>
   <g id="patch_13">
    <path clip-path="url(#p88a7d2bd73)" d="M 315.378046 364.373031 
Q 312.014632 312.919107 308.724146 262.580835 
" style="fill:none;stroke:#000000;stroke-linecap:round;"/>
    <path clip-path="url(#p88a7d2bd73)" d="M 306.989318 266.702774 
L 308.724146 262.580835 
L 310.9808 266.44186 
L 306.989318 266.702774 
z
" style="stroke:#000000;stroke-linecap:round;"/>
   </g>
   <g id="patch_14">
    <path clip-path="url(#p88a7d2bd73)" d="M 128.086772 169.534382 
Q 93.467284 207.866614 59.59716 245.369116 
" style="fill:none;stroke:#000000;stroke-linecap:round;"/>
    <path clip-path="url(#p88a7d2bd73)" d="M 63.762436 243.741088 
L 59.59716 245.369116 
L 60.793904 241.060078 
L 63.762436 243.741088 
z
" style="stroke:#000000;stroke-linecap:round;"/>
   </g>
   <g id="patch_15">
    <path clip-path="url(#p88a7d2bd73)" d="M 150.171141 159.192196 
Q 218.515877 156.483996 285.743456 153.820064 
" style="fill:none;stroke:#000000;stroke-linecap:round;"/>
    <path clip-path="url(#p88a7d2bd73)" d="M 281.667403 151.980011 
L 285.743456 153.820064 
L 281.825781 155.976874 
L 281.667403 151.980011 
z
" style="stroke:#000000;stroke-linecap:round;"/>
   </g>
   <g id="patch_16">
    <path clip-path="url(#p88a7d2bd73)" d="M 55.045713 268.233393 
Q 70.692342 306.002257 85.911065 342.738215 
" style="fill:none;stroke:#000000;stroke-linecap:round;"/>
    <path clip-path="url(#p88a7d2bd73)" d="M 86.227863 338.277313 
L 85.911065 342.738215 
L 82.532423 339.808235 
L 86.227863 338.277313 
z
" style="stroke:#000000;stroke-linecap:round;"/>
   </g>
   <g id="patch_17">
    <path clip-path="url(#p88a7d2bd73)" d="M 58.850944 246.195359 
Q 93.470433 207.863128 127.340556 170.360626 
" style="fill:none;stroke:#000000;stroke-linecap:round;"/>
    <path clip-path="url(#p88a7d2bd73)" d="M 123.17528 171.988654 
L 127.340556 170.360626 
L 126.143813 174.669663 
L 123.17528 171.988654 
z
" style="stroke:#000000;stroke-linecap:round;"/>
   </g>
   <g id="patch_18">
    <path clip-path="url(#p88a7d2bd73)" d="M 104.14645 359.537041 
Q 125.532743 365.486403 145.841903 371.136122 
" style="fill:none;stroke:#000000;stroke-linecap:round;"/>
    <path clip-path="url(#p88a7d2bd73)" d="M 142.524255 368.137254 
L 145.841903 371.136122 
L 141.45222 371.99092 
L 142.524255 368.137254 
z
" style="stroke:#000000;stroke-linecap:round;"/>
   </g>
   <g id="patch_19">
    <path clip-path="url(#p88a7d2bd73)" d="M 86.339346 343.772027 
Q 70.692717 306.003163 55.473994 269.267206 
" style="fill:none;stroke:#000000;stroke-linecap:round;"/>
    <path clip-path="url(#p88a7d2bd73)" d="M 55.157196 273.728107 
L 55.473994 269.267206 
L 58.852636 272.197185 
L 55.157196 273.728107 
z
" style="stroke:#000000;stroke-linecap:round;"/>
   </g>
   <g id="patch_20">
    <path clip-path="url(#p88a7d2bd73)" d="M 170.295398 382.848872 
Q 182.116557 391.596492 193.038992 399.679059 
" style="fill:none;stroke:#000000;stroke-linecap:round;"/>
    <path clip-path="url(#p88a7d2bd73)" d="M 191.013302 395.692008 
L 193.038992 399.679059 
L 188.633937 398.90738 
L 191.013302 395.692008 
z
" style="stroke:#000000;stroke-linecap:round;"/>
   </g>
   <g id="patch_21">
    <path clip-path="url(#p88a7d2bd73)" d="M 172.389943 371.386694 
Q 178.790382 369.579109 184.114871 368.07539 
" style="fill:none;stroke:#000000;stroke-linecap:round;"/>
    <path clip-path="url(#p88a7d2bd73)" d="M 179.721869 367.237814 
L 184.114871 368.07539 
L 180.809009 371.087246 
L 179.721869 367.237814 
z
" style="stroke:#000000;stroke-linecap:round;"/>
   </g>
   <g id="patch_22">
    <path clip-path="url(#p88a7d2bd73)" d="M 146.918188 371.435529 
Q 125.531896 365.486167 105.222735 359.836448 
" style="fill:none;stroke:#000000;stroke-linecap:round;"/>
    <path clip-path="url(#p88a7d2bd73)" d="M 108.540384 362.835316 
L 105.222735 359.836448 
L 109.612419 358.98165 
L 108.540384 362.835316 
z
" style="stroke:#000000;stroke-linecap:round;"/>
   </g>
   <g id="patch_23">
    <path clip-path="url(#p88a7d2bd73)" d="M 482.202661 174.253812 
Q 501.32911 215.544002 519.985631 255.819714 
" style="fill:none;stroke:#000000;stroke-linecap:round;"/>
    <path clip-path="url(#p88a7d2bd73)" d="M 520.119124 251.34957 
L 519.985631 255.819714 
L 516.489613 253.030833 
L 520.119124 251.34957 
z
" style="stroke:#000000;stroke-linecap:round;"/>
   </g>
   <g id="patch_24">
    <path clip-path="url(#p88a7d2bd73)" d="M 463.431559 161.574289 
Q 388.362196 157.749829 314.409419 153.982254 
" style="fill:none;stroke:#000000;stroke-linecap:round;"/>
    <path clip-path="url(#p88a7d2bd73)" d="M 318.302479 156.183182 
L 314.409419 153.982254 
L 318.505998 152.188363 
L 318.302479 156.183182 
z
" style="stroke:#000000;stroke-linecap:round;"/>
   </g>
   <g id="patch_25">
    <path clip-path="url(#p88a7d2bd73)" d="M 522.267585 281.524189 
Q 514.449498 307.977561 506.948287 333.358745 
" style="fill:none;stroke:#000000;stroke-linecap:round;"/>
    <path clip-path="url(#p88a7d2bd73)" d="M 509.999971 330.089612 
L 506.948287 333.358745 
L 506.163991 328.955918 
L 509.999971 330.089612 
z
" style="stroke:#000000;stroke-linecap:round;"/>
   </g>
   <g id="patch_26">
    <path clip-path="url(#p88a7d2bd73)" d="M 520.454848 256.83266 
Q 501.3284 215.542469 482.671878 175.266758 
" style="fill:none;stroke:#000000;stroke-linecap:round;"/>
    <path clip-path="url(#p88a7d2bd73)" d="M 482.538385 179.736901 
L 482.671878 175.266758 
L 486.167897 178.055638 
L 482.538385 179.736901 
z
" style="stroke:#000000;stroke-linecap:round;"/>
   </g>
   <g id="patch_27">
    <path clip-path="url(#p88a7d2bd73)" d="M 490.924399 352.785004 
Q 486.237059 355.006431 482.560037 356.749048 
" style="fill:none;stroke:#000000;stroke-linecap:round;"/>
    <path clip-path="url(#p88a7d2bd73)" d="M 487.031179 356.843315 
L 482.560037 356.749048 
L 485.318136 353.228695 
L 487.031179 356.843315 
z
" style="stroke:#000000;stroke-linecap:round;"/>
   </g>
   <g id="patch_28">
    <path clip-path="url(#p88a7d2bd73)" d="M 506.630748 334.433173 
Q 514.448836 307.979801 521.950046 282.598618 
" style="fill:none;stroke:#000000;stroke-linecap:round;"/>
    <path clip-path="url(#p88a7d2bd73)" d="M 518.898363 285.86775 
L 521.950046 282.598618 
L 522.734342 287.001444 
L 518.898363 285.86775 
z
" style="stroke:#000000;stroke-linecap:round;"/>
   </g>
   <g id="patch_29">
    <path clip-path="url(#p88a7d2bd73)" d="M 459.062584 370.89672 
Q 455.646052 373.49259 453.119743 375.412072 
" style="fill:none;stroke:#000000;stroke-linecap:round;"/>
    <path clip-path="url(#p88a7d2bd73)" d="M 457.514665 374.584629 
L 453.119743 375.412072 
L 455.094742 371.399669 
L 457.514665 374.584629 
z
" style="stroke:#000000;stroke-linecap:round;"/>
   </g>
   <g id="patch_30">
    <path clip-path="url(#p88a7d2bd73)" d="M 456.434088 361.570404 
Q 441.211176 360.041878 427.100704 358.625052 
" style="fill:none;stroke:#000000;stroke-linecap:round;"/>
    <path clip-path="url(#p88a7d2bd73)" d="M 430.880877 361.014674 
L 427.100704 358.625052 
L 431.280506 357.034687 
L 430.880877 361.014674 
z
" style="stroke:#000000;stroke-linecap:round;"/>
   </g>
   <g id="patch_31">
    <path clip-path="url(#p88a7d2bd73)" d="M 481.555124 357.225297 
Q 486.242464 355.00387 489.919487 353.261253 
" style="fill:none;stroke:#000000;stroke-linecap:round;"/>
    <path clip-path="url(#p88a7d2bd73)" d="M 485.448344 353.166986 
L 489.919487 353.261253 
L 487.161388 356.781607 
L 485.448344 353.166986 
z
" style="stroke:#000000;stroke-linecap:round;"/>
   </g>
   <g id="patch_32">
    <path clip-path="url(#p88a7d2bd73)" d="M 235.362104 395.059369 
Q 217.995608 478.816334 200.856101 561.47855 
" style="fill:none;stroke:#000000;stroke-linecap:round;"/>
    <path clip-path="url(#p88a7d2bd73)" d="M 203.62655 557.967908 
L 200.856101 561.47855 
L 199.709857 557.155805 
L 203.62655 557.967908 
z
" style="stroke:#000000;stroke-linecap:round;"/>
   </g>
   <g id="patch_33">
    <path clip-path="url(#p88a7d2bd73)" d="M 251.253466 381.34043 
Q 277.144906 379.839377 301.920186 378.403034 
" style="fill:none;stroke:#000000;stroke-linecap:round;"/>
    <path clip-path="url(#p88a7d2bd73)" d="M 297.811136 376.637897 
L 301.920186 378.403034 
L 298.042647 380.631192 
L 297.811136 376.637897 
z
" style="stroke:#000000;stroke-linecap:round;"/>
   </g>
   <g id="patch_34">
    <path clip-path="url(#p88a7d2bd73)" d="M 200.527629 588.497943 
Q 213.079038 651.524661 225.412085 713.454877 
" style="fill:none;stroke:#000000;stroke-linecap:round;"/>
    <path clip-path="url(#p88a7d2bd73)" d="M 226.592332 709.141292 
L 225.412085 713.454877 
L 222.669365 709.922528 
L 226.592332 709.141292 
z
" style="stroke:#000000;stroke-linecap:round;"/>
   </g>
   <g id="patch_35">
    <path clip-path="url(#p88a7d2bd73)" d="M 200.629701 562.570455 
Q 217.996197 478.81349 235.135704 396.151274 
" style="fill:none;stroke:#000000;stroke-linecap:round;"/>
    <path clip-path="url(#p88a7d2bd73)" d="M 232.365255 399.661916 
L 235.135704 396.151274 
L 236.281948 400.474019 
L 232.365255 399.661916 
z
" style="stroke:#000000;stroke-linecap:round;"/>
   </g>
   <g id="patch_36">
    <path clip-path="url(#p88a7d2bd73)" d="M 226.857415 740.676389 
Q 226.318643 745.903699 225.894498 750.018867 
" style="fill:none;stroke:#000000;stroke-linecap:round;"/>
    <path clip-path="url(#p88a7d2bd73)" d="M 228.294061 746.244997 
L 225.894498 750.018867 
L 224.31514 745.834894 
L 228.294061 746.244997 
z
" style="stroke:#000000;stroke-linecap:round;"/>
   </g>
   <g id="patch_37">
    <path clip-path="url(#p88a7d2bd73)" d="M 225.629581 714.547027 
Q 213.078171 651.520309 200.745124 589.590093 
" style="fill:none;stroke:#000000;stroke-linecap:round;"/>
    <path clip-path="url(#p88a7d2bd73)" d="M 199.564877 593.903678 
L 200.745124 589.590093 
L 203.487844 593.122442 
L 199.564877 593.903678 
z
" style="stroke:#000000;stroke-linecap:round;"/>
   </g>
   <g id="patch_38">
    <path clip-path="url(#p88a7d2bd73)" d="M 225.779549 751.134139 
Q 226.318321 745.906829 226.742465 741.791661 
" style="fill:none;stroke:#000000;stroke-linecap:round;"/>
    <path clip-path="url(#p88a7d2bd73)" d="M 224.342903 745.565532 
L 226.742465 741.791661 
L 228.321824 745.975634 
L 224.342903 745.565532 
z
" style="stroke:#000000;stroke-linecap:round;"/>
   </g>
   <g id="patch_39">
    <path clip-path="url(#p88a7d2bd73)" d="M 382.519146 390.017025 
Q 390.061709 470.972668 397.500554 550.815098 
" style="fill:none;stroke:#000000;stroke-linecap:round;"/>
    <path clip-path="url(#p88a7d2bd73)" d="M 399.12086 546.646812 
L 397.500554 550.815098 
L 395.138109 547.017882 
L 399.12086 546.646812 
z
" style="stroke:#000000;stroke-linecap:round;"/>
   </g>
   <g id="patch_40">
    <path clip-path="url(#p88a7d2bd73)" d="M 368.06662 376.994065 
Q 348.766404 377.209587 330.584152 377.412625 
" style="fill:none;stroke:#000000;stroke-linecap:round;"/>
    <path clip-path="url(#p88a7d2bd73)" d="M 334.606234 379.367836 
L 330.584152 377.412625 
L 334.56157 375.368085 
L 334.606234 379.367836 
z
" style="stroke:#000000;stroke-linecap:round;"/>
   </g>
   <g id="patch_41">
    <path clip-path="url(#p88a7d2bd73)" d="M 396.193859 578.063958 
Q 380.798036 653.719108 365.625163 728.278679 
" style="fill:none;stroke:#000000;stroke-linecap:round;"/>
    <path clip-path="url(#p88a7d2bd73)" d="M 368.382646 724.757842 
L 365.625163 728.278679 
L 364.462983 723.960191 
L 368.382646 724.757842 
z
" style="stroke:#000000;stroke-linecap:round;"/>
   </g>
   <g id="patch_42">
    <path clip-path="url(#p88a7d2bd73)" d="M 397.604543 551.93124 
Q 390.061981 470.975597 382.623136 391.133167 
" style="fill:none;stroke:#000000;stroke-linecap:round;"/>
    <path clip-path="url(#p88a7d2bd73)" d="M 381.00283 395.301453 
L 382.623136 391.133167 
L 384.985581 394.930384 
L 381.00283 395.301453 
z
" style="stroke:#000000;stroke-linecap:round;"/>
   </g>
   <g id="patch_43">
    <path clip-path="url(#p88a7d2bd73)" d="M 370.121579 753.332703 
Q 378.382998 765.681373 386.022735 777.100791 
" style="fill:none;stroke:#000000;stroke-linecap:round;"/>
    <path clip-path="url(#p88a7d2bd73)" d="M 385.460835 772.664095 
L 386.022735 777.100791 
L 382.136239 774.888293 
L 385.460835 772.664095 
z
" style="stroke:#000000;stroke-linecap:round;"/>
   </g>
   <g id="patch_44">
    <path clip-path="url(#p88a7d2bd73)" d="M 365.402314 729.373763 
Q 380.798137 653.718613 395.971009 579.159042 
" style="fill:none;stroke:#000000;stroke-linecap:round;"/>
    <path clip-path="url(#p88a7d2bd73)" d="M 393.213527 582.679879 
L 395.971009 579.159042 
L 397.133189 583.47753 
L 393.213527 582.679879 
z
" style="stroke:#000000;stroke-linecap:round;"/>
   </g>
   <g id="patch_45">
    <path clip-path="url(#p88a7d2bd73)" d="M 386.643 778.027925 
Q 378.38158 765.679255 370.741843 754.259837 
" style="fill:none;stroke:#000000;stroke-linecap:round;"/>
    <path clip-path="url(#p88a7d2bd73)" d="M 371.303743 758.696533 
L 370.741843 754.259837 
L 374.62834 756.472335 
L 371.303743 758.696533 
z
" style="stroke:#000000;stroke-linecap:round;"/>
   </g>
   <g id="patch_46">
    <path clip-path="url(#p88a7d2bd73)" d="M 193.939285 400.345273 
Q 182.118126 391.597653 171.195691 383.515086 
" style="fill:none;stroke:#000000;stroke-linecap:round;"/>
    <path clip-path="url(#p88a7d2bd73)" d="M 173.221381 387.502138 
L 171.195691 383.515086 
L 175.600746 384.286765 
L 173.221381 387.502138 
z
" style="stroke:#000000;stroke-linecap:round;"/>
   </g>
   <g id="patch_47">
    <path clip-path="url(#p88a7d2bd73)" d="M 185.196233 367.769996 
Q 178.795795 369.57758 173.471305 371.0813 
" style="fill:none;stroke:#000000;stroke-linecap:round;"/>
    <path clip-path="url(#p88a7d2bd73)" d="M 177.864307 371.918876 
L 173.471305 371.0813 
L 176.777167 368.069444 
L 177.864307 371.918876 
z
" style="stroke:#000000;stroke-linecap:round;"/>
   </g>
   <g id="patch_48">
    <path clip-path="url(#p88a7d2bd73)" d="M 452.229904 376.088169 
Q 455.646436 373.492298 458.172745 371.572817 
" style="fill:none;stroke:#000000;stroke-linecap:round;"/>
    <path clip-path="url(#p88a7d2bd73)" d="M 453.777823 372.400259 
L 458.172745 371.572817 
L 456.197746 375.58522 
L 453.777823 372.400259 
z
" style="stroke:#000000;stroke-linecap:round;"/>
   </g>
   <g id="patch_49">
    <path clip-path="url(#p88a7d2bd73)" d="M 425.990377 358.513564 
Q 441.213289 360.04209 455.323761 361.458917 
" style="fill:none;stroke:#000000;stroke-linecap:round;"/>
    <path clip-path="url(#p88a7d2bd73)" d="M 451.543589 359.069294 
L 455.323761 361.458917 
L 451.14396 363.049281 
L 451.543589 359.069294 
z
" style="stroke:#000000;stroke-linecap:round;"/>
   </g>
   <g id="PathCollection_1">
    <defs>
     <path d="M 0 13.228757 
C 3.508307 13.228757 6.873396 11.834891 9.354143 9.354143 
C 11.834891 6.873396 13.228757 3.508307 13.228757 0 
C 13.228757 -3.508307 11.834891 -6.873396 9.354143 -9.354143 
C 6.873396 -11.834891 3.508307 -13.228757 0 -13.228757 
C -3.508307 -13.228757 -6.873396 -11.834891 -9.354143 -9.354143 
C -11.834891 -6.873396 -13.228757 -3.508307 -13.228757 0 
C -13.228757 3.508307 -11.834891 6.873396 -9.354143 9.354143 
C -6.873396 11.834891 -3.508307 13.228757 0 13.228757 
z
" id="m4453afc71a" style="stroke:#87ceeb;"/>
    </defs>
    <g clip-path="url(#p88a7d2bd73)">
     <use style="fill:#87ceeb;stroke:#87ceeb;" x="314.655213" xlink:href="#m4453afc71a" y="74.975207"/>
     <use style="fill:#87ceeb;stroke:#87ceeb;" x="296.877834" xlink:href="#m4453afc71a" y="122.282935"/>
     <use style="fill:#87ceeb;stroke:#87ceeb;" x="300.077116" xlink:href="#m4453afc71a" y="153.252085"/>
     <use style="fill:#87ceeb;stroke:#87ceeb;" x="307.788448" xlink:href="#m4453afc71a" y="248.266417"/>
     <use style="fill:#87ceeb;stroke:#87ceeb;" x="316.240881" xlink:href="#m4453afc71a" y="377.572793"/>
     <use style="fill:#87ceeb;stroke:#87ceeb;" x="136.954245" xlink:href="#m4453afc71a" y="159.715923"/>
     <use style="fill:#87ceeb;stroke:#87ceeb;" x="49.983471" xlink:href="#m4453afc71a" y="256.013819"/>
     <use style="fill:#87ceeb;stroke:#87ceeb;" x="91.401588" xlink:href="#m4453afc71a" y="355.991602"/>
     <use style="fill:#87ceeb;stroke:#87ceeb;" x="159.66305" xlink:href="#m4453afc71a" y="374.980968"/>
     <use style="fill:#87ceeb;stroke:#87ceeb;" x="476.640981" xlink:href="#m4453afc71a" y="162.247252"/>
     <use style="fill:#87ceeb;stroke:#87ceeb;" x="526.016529" xlink:href="#m4453afc71a" y="268.839219"/>
     <use style="fill:#87ceeb;stroke:#87ceeb;" x="502.881804" xlink:href="#m4453afc71a" y="347.118143"/>
     <use style="fill:#87ceeb;stroke:#87ceeb;" x="469.597719" xlink:href="#m4453afc71a" y="362.892159"/>
     <use style="fill:#87ceeb;stroke:#87ceeb;" x="238.047902" xlink:href="#m4453afc71a" y="382.10602"/>
     <use style="fill:#87ceeb;stroke:#87ceeb;" x="197.943903" xlink:href="#m4453afc71a" y="575.523803"/>
     <use style="fill:#87ceeb;stroke:#87ceeb;" x="228.213306" xlink:href="#m4453afc71a" y="727.521167"/>
     <use style="fill:#87ceeb;stroke:#87ceeb;" x="224.423658" xlink:href="#m4453afc71a" y="764.289361"/>
     <use style="fill:#87ceeb;stroke:#87ceeb;" x="381.292049" xlink:href="#m4453afc71a" y="376.846379"/>
     <use style="fill:#87ceeb;stroke:#87ceeb;" x="398.83164" xlink:href="#m4453afc71a" y="565.101887"/>
     <use style="fill:#87ceeb;stroke:#87ceeb;" x="362.764532" xlink:href="#m4453afc71a" y="742.335834"/>
     <use style="fill:#87ceeb;stroke:#87ceeb;" x="394.000046" xlink:href="#m4453afc71a" y="789.024793"/>
     <use style="fill:#87ceeb;stroke:#87ceeb;" x="204.571633" xlink:href="#m4453afc71a" y="408.213177"/>
     <use style="fill:#87ceeb;stroke:#87ceeb;" x="197.923127" xlink:href="#m4453afc71a" y="364.175721"/>
     <use style="fill:#87ceeb;stroke:#87ceeb;" x="441.694769" xlink:href="#m4453afc71a" y="384.09273"/>
     <use style="fill:#87ceeb;stroke:#87ceeb;" x="412.826746" xlink:href="#m4453afc71a" y="357.19181"/>
    </g>
   </g>
   <g id="text_1">
    <g clip-path="url(#p88a7d2bd73)">
     <!-- Head -->
     <g transform="translate(301.580213 77.734582)scale(0.1 -0.1)">
      <defs>
       <path d="M 9.8125 72.90625 
L 19.671875 72.90625 
L 19.671875 43.015625 
L 55.515625 43.015625 
L 55.515625 72.90625 
L 65.375 72.90625 
L 65.375 0 
L 55.515625 0 
L 55.515625 34.71875 
L 19.671875 34.71875 
L 19.671875 0 
L 9.8125 0 
z
" id="DejaVuSans-72"/>
       <path d="M 56.203125 29.59375 
L 56.203125 25.203125 
L 14.890625 25.203125 
Q 15.484375 15.921875 20.484375 11.0625 
Q 25.484375 6.203125 34.421875 6.203125 
Q 39.59375 6.203125 44.453125 7.46875 
Q 49.3125 8.734375 54.109375 11.28125 
L 54.109375 2.78125 
Q 49.265625 0.734375 44.1875 -0.34375 
Q 39.109375 -1.421875 33.890625 -1.421875 
Q 20.796875 -1.421875 13.15625 6.1875 
Q 5.515625 13.8125 5.515625 26.8125 
Q 5.515625 40.234375 12.765625 48.109375 
Q 20.015625 56 32.328125 56 
Q 43.359375 56 49.78125 48.890625 
Q 56.203125 41.796875 56.203125 29.59375 
z
M 47.21875 32.234375 
Q 47.125 39.59375 43.09375 43.984375 
Q 39.0625 48.390625 32.421875 48.390625 
Q 24.90625 48.390625 20.390625 44.140625 
Q 15.875 39.890625 15.1875 32.171875 
z
" id="DejaVuSans-101"/>
       <path d="M 34.28125 27.484375 
Q 23.390625 27.484375 19.1875 25 
Q 14.984375 22.515625 14.984375 16.5 
Q 14.984375 11.71875 18.140625 8.90625 
Q 21.296875 6.109375 26.703125 6.109375 
Q 34.1875 6.109375 38.703125 11.40625 
Q 43.21875 16.703125 43.21875 25.484375 
L 43.21875 27.484375 
z
M 52.203125 31.203125 
L 52.203125 0 
L 43.21875 0 
L 43.21875 8.296875 
Q 40.140625 3.328125 35.546875 0.953125 
Q 30.953125 -1.421875 24.3125 -1.421875 
Q 15.921875 -1.421875 10.953125 3.296875 
Q 6 8.015625 6 15.921875 
Q 6 25.140625 12.171875 29.828125 
Q 18.359375 34.515625 30.609375 34.515625 
L 43.21875 34.515625 
L 43.21875 35.40625 
Q 43.21875 41.609375 39.140625 45 
Q 35.0625 48.390625 27.6875 48.390625 
Q 23 48.390625 18.546875 47.265625 
Q 14.109375 46.140625 10.015625 43.890625 
L 10.015625 52.203125 
Q 14.9375 54.109375 19.578125 55.046875 
Q 24.21875 56 28.609375 56 
Q 40.484375 56 46.34375 49.84375 
Q 52.203125 43.703125 52.203125 31.203125 
z
" id="DejaVuSans-97"/>
       <path d="M 45.40625 46.390625 
L 45.40625 75.984375 
L 54.390625 75.984375 
L 54.390625 0 
L 45.40625 0 
L 45.40625 8.203125 
Q 42.578125 3.328125 38.25 0.953125 
Q 33.9375 -1.421875 27.875 -1.421875 
Q 17.96875 -1.421875 11.734375 6.484375 
Q 5.515625 14.40625 5.515625 27.296875 
Q 5.515625 40.1875 11.734375 48.09375 
Q 17.96875 56 27.875 56 
Q 33.9375 56 38.25 53.625 
Q 42.578125 51.265625 45.40625 46.390625 
z
M 14.796875 27.296875 
Q 14.796875 17.390625 18.875 11.75 
Q 22.953125 6.109375 30.078125 6.109375 
Q 37.203125 6.109375 41.296875 11.75 
Q 45.40625 17.390625 45.40625 27.296875 
Q 45.40625 37.203125 41.296875 42.84375 
Q 37.203125 48.484375 30.078125 48.484375 
Q 22.953125 48.484375 18.875 42.84375 
Q 14.796875 37.203125 14.796875 27.296875 
z
" id="DejaVuSans-100"/>
      </defs>
      <use xlink:href="#DejaVuSans-72"/>
      <use x="75.195312" xlink:href="#DejaVuSans-101"/>
      <use x="136.71875" xlink:href="#DejaVuSans-97"/>
      <use x="197.998047" xlink:href="#DejaVuSans-100"/>
     </g>
    </g>
   </g>
   <g id="text_2">
    <g clip-path="url(#p88a7d2bd73)">
     <!-- c7 -->
     <g transform="translate(290.947365 125.04231)scale(0.1 -0.1)">
      <defs>
       <path d="M 48.78125 52.59375 
L 48.78125 44.1875 
Q 44.96875 46.296875 41.140625 47.34375 
Q 37.3125 48.390625 33.40625 48.390625 
Q 24.65625 48.390625 19.8125 42.84375 
Q 14.984375 37.3125 14.984375 27.296875 
Q 14.984375 17.28125 19.8125 11.734375 
Q 24.65625 6.203125 33.40625 6.203125 
Q 37.3125 6.203125 41.140625 7.25 
Q 44.96875 8.296875 48.78125 10.40625 
L 48.78125 2.09375 
Q 45.015625 0.34375 40.984375 -0.53125 
Q 36.96875 -1.421875 32.421875 -1.421875 
Q 20.0625 -1.421875 12.78125 6.34375 
Q 5.515625 14.109375 5.515625 27.296875 
Q 5.515625 40.671875 12.859375 48.328125 
Q 20.21875 56 33.015625 56 
Q 37.15625 56 41.109375 55.140625 
Q 45.0625 54.296875 48.78125 52.59375 
z
" id="DejaVuSans-99"/>
       <path d="M 8.203125 72.90625 
L 55.078125 72.90625 
L 55.078125 68.703125 
L 28.609375 0 
L 18.3125 0 
L 43.21875 64.59375 
L 8.203125 64.59375 
z
" id="DejaVuSans-55"/>
      </defs>
      <use xlink:href="#DejaVuSans-99"/>
      <use x="54.980469" xlink:href="#DejaVuSans-55"/>
     </g>
    </g>
   </g>
   <g id="text_3">
    <g clip-path="url(#p88a7d2bd73)">
     <!-- SpineShoulder -->
     <g transform="translate(263.827897 156.01146)scale(0.1 -0.1)">
      <defs>
       <path d="M 53.515625 70.515625 
L 53.515625 60.890625 
Q 47.90625 63.578125 42.921875 64.890625 
Q 37.9375 66.21875 33.296875 66.21875 
Q 25.25 66.21875 20.875 63.09375 
Q 16.5 59.96875 16.5 54.203125 
Q 16.5 49.359375 19.40625 46.890625 
Q 22.3125 44.4375 30.421875 42.921875 
L 36.375 41.703125 
Q 47.40625 39.59375 52.65625 34.296875 
Q 57.90625 29 57.90625 20.125 
Q 57.90625 9.515625 50.796875 4.046875 
Q 43.703125 -1.421875 29.984375 -1.421875 
Q 24.8125 -1.421875 18.96875 -0.25 
Q 13.140625 0.921875 6.890625 3.21875 
L 6.890625 13.375 
Q 12.890625 10.015625 18.65625 8.296875 
Q 24.421875 6.59375 29.984375 6.59375 
Q 38.421875 6.59375 43.015625 9.90625 
Q 47.609375 13.234375 47.609375 19.390625 
Q 47.609375 24.75 44.3125 27.78125 
Q 41.015625 30.8125 33.5 32.328125 
L 27.484375 33.5 
Q 16.453125 35.6875 11.515625 40.375 
Q 6.59375 45.0625 6.59375 53.421875 
Q 6.59375 63.09375 13.40625 68.65625 
Q 20.21875 74.21875 32.171875 74.21875 
Q 37.3125 74.21875 42.625 73.28125 
Q 47.953125 72.359375 53.515625 70.515625 
z
" id="DejaVuSans-83"/>
       <path d="M 18.109375 8.203125 
L 18.109375 -20.796875 
L 9.078125 -20.796875 
L 9.078125 54.6875 
L 18.109375 54.6875 
L 18.109375 46.390625 
Q 20.953125 51.265625 25.265625 53.625 
Q 29.59375 56 35.59375 56 
Q 45.5625 56 51.78125 48.09375 
Q 58.015625 40.1875 58.015625 27.296875 
Q 58.015625 14.40625 51.78125 6.484375 
Q 45.5625 -1.421875 35.59375 -1.421875 
Q 29.59375 -1.421875 25.265625 0.953125 
Q 20.953125 3.328125 18.109375 8.203125 
z
M 48.6875 27.296875 
Q 48.6875 37.203125 44.609375 42.84375 
Q 40.53125 48.484375 33.40625 48.484375 
Q 26.265625 48.484375 22.1875 42.84375 
Q 18.109375 37.203125 18.109375 27.296875 
Q 18.109375 17.390625 22.1875 11.75 
Q 26.265625 6.109375 33.40625 6.109375 
Q 40.53125 6.109375 44.609375 11.75 
Q 48.6875 17.390625 48.6875 27.296875 
z
" id="DejaVuSans-112"/>
       <path d="M 9.421875 54.6875 
L 18.40625 54.6875 
L 18.40625 0 
L 9.421875 0 
z
M 9.421875 75.984375 
L 18.40625 75.984375 
L 18.40625 64.59375 
L 9.421875 64.59375 
z
" id="DejaVuSans-105"/>
       <path d="M 54.890625 33.015625 
L 54.890625 0 
L 45.90625 0 
L 45.90625 32.71875 
Q 45.90625 40.484375 42.875 44.328125 
Q 39.84375 48.1875 33.796875 48.1875 
Q 26.515625 48.1875 22.3125 43.546875 
Q 18.109375 38.921875 18.109375 30.90625 
L 18.109375 0 
L 9.078125 0 
L 9.078125 54.6875 
L 18.109375 54.6875 
L 18.109375 46.1875 
Q 21.34375 51.125 25.703125 53.5625 
Q 30.078125 56 35.796875 56 
Q 45.21875 56 50.046875 50.171875 
Q 54.890625 44.34375 54.890625 33.015625 
z
" id="DejaVuSans-110"/>
       <path d="M 54.890625 33.015625 
L 54.890625 0 
L 45.90625 0 
L 45.90625 32.71875 
Q 45.90625 40.484375 42.875 44.328125 
Q 39.84375 48.1875 33.796875 48.1875 
Q 26.515625 48.1875 22.3125 43.546875 
Q 18.109375 38.921875 18.109375 30.90625 
L 18.109375 0 
L 9.078125 0 
L 9.078125 75.984375 
L 18.109375 75.984375 
L 18.109375 46.1875 
Q 21.34375 51.125 25.703125 53.5625 
Q 30.078125 56 35.796875 56 
Q 45.21875 56 50.046875 50.171875 
Q 54.890625 44.34375 54.890625 33.015625 
z
" id="DejaVuSans-104"/>
       <path d="M 30.609375 48.390625 
Q 23.390625 48.390625 19.1875 42.75 
Q 14.984375 37.109375 14.984375 27.296875 
Q 14.984375 17.484375 19.15625 11.84375 
Q 23.34375 6.203125 30.609375 6.203125 
Q 37.796875 6.203125 41.984375 11.859375 
Q 46.1875 17.53125 46.1875 27.296875 
Q 46.1875 37.015625 41.984375 42.703125 
Q 37.796875 48.390625 30.609375 48.390625 
z
M 30.609375 56 
Q 42.328125 56 49.015625 48.375 
Q 55.71875 40.765625 55.71875 27.296875 
Q 55.71875 13.875 49.015625 6.21875 
Q 42.328125 -1.421875 30.609375 -1.421875 
Q 18.84375 -1.421875 12.171875 6.21875 
Q 5.515625 13.875 5.515625 27.296875 
Q 5.515625 40.765625 12.171875 48.375 
Q 18.84375 56 30.609375 56 
z
" id="DejaVuSans-111"/>
       <path d="M 8.5 21.578125 
L 8.5 54.6875 
L 17.484375 54.6875 
L 17.484375 21.921875 
Q 17.484375 14.15625 20.5 10.265625 
Q 23.53125 6.390625 29.59375 6.390625 
Q 36.859375 6.390625 41.078125 11.03125 
Q 45.3125 15.671875 45.3125 23.6875 
L 45.3125 54.6875 
L 54.296875 54.6875 
L 54.296875 0 
L 45.3125 0 
L 45.3125 8.40625 
Q 42.046875 3.421875 37.71875 1 
Q 33.40625 -1.421875 27.6875 -1.421875 
Q 18.265625 -1.421875 13.375 4.4375 
Q 8.5 10.296875 8.5 21.578125 
z
M 31.109375 56 
z
" id="DejaVuSans-117"/>
       <path d="M 9.421875 75.984375 
L 18.40625 75.984375 
L 18.40625 0 
L 9.421875 0 
z
" id="DejaVuSans-108"/>
       <path d="M 41.109375 46.296875 
Q 39.59375 47.171875 37.8125 47.578125 
Q 36.03125 48 33.890625 48 
Q 26.265625 48 22.1875 43.046875 
Q 18.109375 38.09375 18.109375 28.8125 
L 18.109375 0 
L 9.078125 0 
L 9.078125 54.6875 
L 18.109375 54.6875 
L 18.109375 46.1875 
Q 20.953125 51.171875 25.484375 53.578125 
Q 30.03125 56 36.53125 56 
Q 37.453125 56 38.578125 55.875 
Q 39.703125 55.765625 41.0625 55.515625 
z
" id="DejaVuSans-114"/>
      </defs>
      <use xlink:href="#DejaVuSans-83"/>
      <use x="63.476562" xlink:href="#DejaVuSans-112"/>
      <use x="126.953125" xlink:href="#DejaVuSans-105"/>
      <use x="154.736328" xlink:href="#DejaVuSans-110"/>
      <use x="218.115234" xlink:href="#DejaVuSans-101"/>
      <use x="279.638672" xlink:href="#DejaVuSans-83"/>
      <use x="343.115234" xlink:href="#DejaVuSans-104"/>
      <use x="406.494141" xlink:href="#DejaVuSans-111"/>
      <use x="467.675781" xlink:href="#DejaVuSans-117"/>
      <use x="531.054688" xlink:href="#DejaVuSans-108"/>
      <use x="558.837891" xlink:href="#DejaVuSans-100"/>
      <use x="622.314453" xlink:href="#DejaVuSans-101"/>
      <use x="683.837891" xlink:href="#DejaVuSans-114"/>
     </g>
    </g>
   </g>
   <g id="text_4">
    <g clip-path="url(#p88a7d2bd73)">
     <!-- Spine -->
     <g transform="translate(293.805636 251.025792)scale(0.1 -0.1)">
      <use xlink:href="#DejaVuSans-83"/>
      <use x="63.476562" xlink:href="#DejaVuSans-112"/>
      <use x="126.953125" xlink:href="#DejaVuSans-105"/>
      <use x="154.736328" xlink:href="#DejaVuSans-110"/>
      <use x="218.115234" xlink:href="#DejaVuSans-101"/>
     </g>
    </g>
   </g>
   <g id="text_5">
    <g clip-path="url(#p88a7d2bd73)">
     <!-- Sacr -->
     <g transform="translate(305.197913 380.332168)scale(0.1 -0.1)">
      <use xlink:href="#DejaVuSans-83"/>
      <use x="63.476562" xlink:href="#DejaVuSans-97"/>
      <use x="124.755859" xlink:href="#DejaVuSans-99"/>
      <use x="179.736328" xlink:href="#DejaVuSans-114"/>
     </g>
    </g>
   </g>
   <g id="text_6">
    <g clip-path="url(#p88a7d2bd73)">
     <!-- LShoulder -->
     <g transform="translate(111.901902 162.475298)scale(0.1 -0.1)">
      <defs>
       <path d="M 9.8125 72.90625 
L 19.671875 72.90625 
L 19.671875 8.296875 
L 55.171875 8.296875 
L 55.171875 0 
L 9.8125 0 
z
" id="DejaVuSans-76"/>
      </defs>
      <use xlink:href="#DejaVuSans-76"/>
      <use x="55.712891" xlink:href="#DejaVuSans-83"/>
      <use x="119.189453" xlink:href="#DejaVuSans-104"/>
      <use x="182.568359" xlink:href="#DejaVuSans-111"/>
      <use x="243.75" xlink:href="#DejaVuSans-117"/>
      <use x="307.128906" xlink:href="#DejaVuSans-108"/>
      <use x="334.912109" xlink:href="#DejaVuSans-100"/>
      <use x="398.388672" xlink:href="#DejaVuSans-101"/>
      <use x="459.912109" xlink:href="#DejaVuSans-114"/>
     </g>
    </g>
   </g>
   <g id="text_7">
    <g clip-path="url(#p88a7d2bd73)">
     <!-- LElbow -->
     <g transform="translate(32.32644 258.773194)scale(0.1 -0.1)">
      <defs>
       <path d="M 9.8125 72.90625 
L 55.90625 72.90625 
L 55.90625 64.59375 
L 19.671875 64.59375 
L 19.671875 43.015625 
L 54.390625 43.015625 
L 54.390625 34.71875 
L 19.671875 34.71875 
L 19.671875 8.296875 
L 56.78125 8.296875 
L 56.78125 0 
L 9.8125 0 
z
" id="DejaVuSans-69"/>
       <path d="M 48.6875 27.296875 
Q 48.6875 37.203125 44.609375 42.84375 
Q 40.53125 48.484375 33.40625 48.484375 
Q 26.265625 48.484375 22.1875 42.84375 
Q 18.109375 37.203125 18.109375 27.296875 
Q 18.109375 17.390625 22.1875 11.75 
Q 26.265625 6.109375 33.40625 6.109375 
Q 40.53125 6.109375 44.609375 11.75 
Q 48.6875 17.390625 48.6875 27.296875 
z
M 18.109375 46.390625 
Q 20.953125 51.265625 25.265625 53.625 
Q 29.59375 56 35.59375 56 
Q 45.5625 56 51.78125 48.09375 
Q 58.015625 40.1875 58.015625 27.296875 
Q 58.015625 14.40625 51.78125 6.484375 
Q 45.5625 -1.421875 35.59375 -1.421875 
Q 29.59375 -1.421875 25.265625 0.953125 
Q 20.953125 3.328125 18.109375 8.203125 
L 18.109375 0 
L 9.078125 0 
L 9.078125 75.984375 
L 18.109375 75.984375 
z
" id="DejaVuSans-98"/>
       <path d="M 4.203125 54.6875 
L 13.1875 54.6875 
L 24.421875 12.015625 
L 35.59375 54.6875 
L 46.1875 54.6875 
L 57.421875 12.015625 
L 68.609375 54.6875 
L 77.59375 54.6875 
L 63.28125 0 
L 52.6875 0 
L 40.921875 44.828125 
L 29.109375 0 
L 18.5 0 
z
" id="DejaVuSans-119"/>
      </defs>
      <use xlink:href="#DejaVuSans-76"/>
      <use x="55.712891" xlink:href="#DejaVuSans-69"/>
      <use x="118.896484" xlink:href="#DejaVuSans-108"/>
      <use x="146.679688" xlink:href="#DejaVuSans-98"/>
      <use x="210.15625" xlink:href="#DejaVuSans-111"/>
      <use x="271.337891" xlink:href="#DejaVuSans-119"/>
     </g>
    </g>
   </g>
   <g id="text_8">
    <g clip-path="url(#p88a7d2bd73)">
     <!-- LWrist -->
     <g transform="translate(76.343776 358.750977)scale(0.1 -0.1)">
      <defs>
       <path d="M 3.328125 72.90625 
L 13.28125 72.90625 
L 28.609375 11.28125 
L 43.890625 72.90625 
L 54.984375 72.90625 
L 70.3125 11.28125 
L 85.59375 72.90625 
L 95.609375 72.90625 
L 77.296875 0 
L 64.890625 0 
L 49.515625 63.28125 
L 33.984375 0 
L 21.578125 0 
z
" id="DejaVuSans-87"/>
       <path d="M 44.28125 53.078125 
L 44.28125 44.578125 
Q 40.484375 46.53125 36.375 47.5 
Q 32.28125 48.484375 27.875 48.484375 
Q 21.1875 48.484375 17.84375 46.4375 
Q 14.5 44.390625 14.5 40.28125 
Q 14.5 37.15625 16.890625 35.375 
Q 19.28125 33.59375 26.515625 31.984375 
L 29.59375 31.296875 
Q 39.15625 29.25 43.1875 25.515625 
Q 47.21875 21.78125 47.21875 15.09375 
Q 47.21875 7.46875 41.1875 3.015625 
Q 35.15625 -1.421875 24.609375 -1.421875 
Q 20.21875 -1.421875 15.453125 -0.5625 
Q 10.6875 0.296875 5.421875 2 
L 5.421875 11.28125 
Q 10.40625 8.6875 15.234375 7.390625 
Q 20.0625 6.109375 24.8125 6.109375 
Q 31.15625 6.109375 34.5625 8.28125 
Q 37.984375 10.453125 37.984375 14.40625 
Q 37.984375 18.0625 35.515625 20.015625 
Q 33.0625 21.96875 24.703125 23.78125 
L 21.578125 24.515625 
Q 13.234375 26.265625 9.515625 29.90625 
Q 5.8125 33.546875 5.8125 39.890625 
Q 5.8125 47.609375 11.28125 51.796875 
Q 16.75 56 26.8125 56 
Q 31.78125 56 36.171875 55.265625 
Q 40.578125 54.546875 44.28125 53.078125 
z
" id="DejaVuSans-115"/>
       <path d="M 18.3125 70.21875 
L 18.3125 54.6875 
L 36.8125 54.6875 
L 36.8125 47.703125 
L 18.3125 47.703125 
L 18.3125 18.015625 
Q 18.3125 11.328125 20.140625 9.421875 
Q 21.96875 7.515625 27.59375 7.515625 
L 36.8125 7.515625 
L 36.8125 0 
L 27.59375 0 
Q 17.1875 0 13.234375 3.875 
Q 9.28125 7.765625 9.28125 18.015625 
L 9.28125 47.703125 
L 2.6875 47.703125 
L 2.6875 54.6875 
L 9.28125 54.6875 
L 9.28125 70.21875 
z
" id="DejaVuSans-116"/>
      </defs>
      <use xlink:href="#DejaVuSans-76"/>
      <use x="46.587891" xlink:href="#DejaVuSans-87"/>
      <use x="140.964844" xlink:href="#DejaVuSans-114"/>
      <use x="182.078125" xlink:href="#DejaVuSans-105"/>
      <use x="209.861328" xlink:href="#DejaVuSans-115"/>
      <use x="261.960938" xlink:href="#DejaVuSans-116"/>
     </g>
    </g>
   </g>
   <g id="text_9">
    <g clip-path="url(#p88a7d2bd73)">
     <!-- LHand -->
     <g transform="translate(143.709925 377.740343)scale(0.1 -0.1)">
      <use xlink:href="#DejaVuSans-76"/>
      <use x="55.712891" xlink:href="#DejaVuSans-72"/>
      <use x="130.908203" xlink:href="#DejaVuSans-97"/>
      <use x="192.1875" xlink:href="#DejaVuSans-110"/>
      <use x="255.566406" xlink:href="#DejaVuSans-100"/>
     </g>
    </g>
   </g>
   <g id="text_10">
    <g clip-path="url(#p88a7d2bd73)">
     <!-- RShoulder -->
     <g transform="translate(450.900356 165.006627)scale(0.1 -0.1)">
      <defs>
       <path d="M 44.390625 34.1875 
Q 47.5625 33.109375 50.5625 29.59375 
Q 53.5625 26.078125 56.59375 19.921875 
L 66.609375 0 
L 56 0 
L 46.6875 18.703125 
Q 43.0625 26.03125 39.671875 28.421875 
Q 36.28125 30.8125 30.421875 30.8125 
L 19.671875 30.8125 
L 19.671875 0 
L 9.8125 0 
L 9.8125 72.90625 
L 32.078125 72.90625 
Q 44.578125 72.90625 50.734375 67.671875 
Q 56.890625 62.453125 56.890625 51.90625 
Q 56.890625 45.015625 53.6875 40.46875 
Q 50.484375 35.9375 44.390625 34.1875 
z
M 19.671875 64.796875 
L 19.671875 38.921875 
L 32.078125 38.921875 
Q 39.203125 38.921875 42.84375 42.21875 
Q 46.484375 45.515625 46.484375 51.90625 
Q 46.484375 58.296875 42.84375 61.546875 
Q 39.203125 64.796875 32.078125 64.796875 
z
" id="DejaVuSans-82"/>
      </defs>
      <use xlink:href="#DejaVuSans-82"/>
      <use x="69.482422" xlink:href="#DejaVuSans-83"/>
      <use x="132.958984" xlink:href="#DejaVuSans-104"/>
      <use x="196.337891" xlink:href="#DejaVuSans-111"/>
      <use x="257.519531" xlink:href="#DejaVuSans-117"/>
      <use x="320.898438" xlink:href="#DejaVuSans-108"/>
      <use x="348.681641" xlink:href="#DejaVuSans-100"/>
      <use x="412.158203" xlink:href="#DejaVuSans-101"/>
      <use x="473.681641" xlink:href="#DejaVuSans-114"/>
     </g>
    </g>
   </g>
   <g id="text_11">
    <g clip-path="url(#p88a7d2bd73)">
     <!-- RElbow -->
     <g transform="translate(507.671216 271.598594)scale(0.1 -0.1)">
      <use xlink:href="#DejaVuSans-82"/>
      <use x="69.482422" xlink:href="#DejaVuSans-69"/>
      <use x="132.666016" xlink:href="#DejaVuSans-108"/>
      <use x="160.449219" xlink:href="#DejaVuSans-98"/>
      <use x="223.925781" xlink:href="#DejaVuSans-111"/>
      <use x="285.107422" xlink:href="#DejaVuSans-119"/>
     </g>
    </g>
   </g>
   <g id="text_12">
    <g clip-path="url(#p88a7d2bd73)">
     <!-- RWrist -->
     <g transform="translate(486.879461 349.877518)scale(0.1 -0.1)">
      <use xlink:href="#DejaVuSans-82"/>
      <use x="65.482422" xlink:href="#DejaVuSans-87"/>
      <use x="159.859375" xlink:href="#DejaVuSans-114"/>
      <use x="200.972656" xlink:href="#DejaVuSans-105"/>
      <use x="228.755859" xlink:href="#DejaVuSans-115"/>
      <use x="280.855469" xlink:href="#DejaVuSans-116"/>
     </g>
    </g>
   </g>
   <g id="text_13">
    <g clip-path="url(#p88a7d2bd73)">
     <!-- RHand -->
     <g transform="translate(452.956313 365.651534)scale(0.1 -0.1)">
      <use xlink:href="#DejaVuSans-82"/>
      <use x="69.482422" xlink:href="#DejaVuSans-72"/>
      <use x="144.677734" xlink:href="#DejaVuSans-97"/>
      <use x="205.957031" xlink:href="#DejaVuSans-110"/>
      <use x="269.335938" xlink:href="#DejaVuSans-100"/>
     </g>
    </g>
   </g>
   <g id="text_14">
    <g clip-path="url(#p88a7d2bd73)">
     <!-- LHip -->
     <g transform="translate(226.938527 384.865395)scale(0.1 -0.1)">
      <use xlink:href="#DejaVuSans-76"/>
      <use x="55.712891" xlink:href="#DejaVuSans-72"/>
      <use x="130.908203" xlink:href="#DejaVuSans-105"/>
      <use x="158.691406" xlink:href="#DejaVuSans-112"/>
     </g>
    </g>
   </g>
   <g id="text_15">
    <g clip-path="url(#p88a7d2bd73)">
     <!-- LKnee -->
     <g transform="translate(182.557184 578.283178)scale(0.1 -0.1)">
      <defs>
       <path d="M 9.8125 72.90625 
L 19.671875 72.90625 
L 19.671875 42.09375 
L 52.390625 72.90625 
L 65.09375 72.90625 
L 28.90625 38.921875 
L 67.671875 0 
L 54.6875 0 
L 19.671875 35.109375 
L 19.671875 0 
L 9.8125 0 
z
" id="DejaVuSans-75"/>
      </defs>
      <use xlink:href="#DejaVuSans-76"/>
      <use x="55.712891" xlink:href="#DejaVuSans-75"/>
      <use x="121.289062" xlink:href="#DejaVuSans-110"/>
      <use x="184.667969" xlink:href="#DejaVuSans-101"/>
      <use x="246.191406" xlink:href="#DejaVuSans-101"/>
     </g>
    </g>
   </g>
   <g id="text_16">
    <g clip-path="url(#p88a7d2bd73)">
     <!-- LAnkle -->
     <g transform="translate(211.364869 730.280542)scale(0.1 -0.1)">
      <defs>
       <path d="M 34.1875 63.1875 
L 20.796875 26.90625 
L 47.609375 26.90625 
z
M 28.609375 72.90625 
L 39.796875 72.90625 
L 67.578125 0 
L 57.328125 0 
L 50.6875 18.703125 
L 17.828125 18.703125 
L 11.1875 0 
L 0.78125 0 
z
" id="DejaVuSans-65"/>
       <path d="M 9.078125 75.984375 
L 18.109375 75.984375 
L 18.109375 31.109375 
L 44.921875 54.6875 
L 56.390625 54.6875 
L 27.390625 29.109375 
L 57.625 0 
L 45.90625 0 
L 18.109375 26.703125 
L 18.109375 0 
L 9.078125 0 
z
" id="DejaVuSans-107"/>
      </defs>
      <use xlink:href="#DejaVuSans-76"/>
      <use x="57.962891" xlink:href="#DejaVuSans-65"/>
      <use x="126.371094" xlink:href="#DejaVuSans-110"/>
      <use x="189.75" xlink:href="#DejaVuSans-107"/>
      <use x="247.660156" xlink:href="#DejaVuSans-108"/>
      <use x="275.443359" xlink:href="#DejaVuSans-101"/>
     </g>
    </g>
   </g>
   <g id="text_17">
    <g clip-path="url(#p88a7d2bd73)">
     <!-- LFoot -->
     <g transform="translate(210.864283 767.048736)scale(0.1 -0.1)">
      <defs>
       <path d="M 9.8125 72.90625 
L 51.703125 72.90625 
L 51.703125 64.59375 
L 19.671875 64.59375 
L 19.671875 43.109375 
L 48.578125 43.109375 
L 48.578125 34.8125 
L 19.671875 34.8125 
L 19.671875 0 
L 9.8125 0 
z
" id="DejaVuSans-70"/>
      </defs>
      <use xlink:href="#DejaVuSans-76"/>
      <use x="55.712891" xlink:href="#DejaVuSans-70"/>
      <use x="109.607422" xlink:href="#DejaVuSans-111"/>
      <use x="170.789062" xlink:href="#DejaVuSans-111"/>
      <use x="231.970703" xlink:href="#DejaVuSans-116"/>
     </g>
    </g>
   </g>
   <g id="text_18">
    <g clip-path="url(#p88a7d2bd73)">
     <!-- RHip -->
     <g transform="translate(369.494393 379.605754)scale(0.1 -0.1)">
      <use xlink:href="#DejaVuSans-82"/>
      <use x="69.482422" xlink:href="#DejaVuSans-72"/>
      <use x="144.677734" xlink:href="#DejaVuSans-105"/>
      <use x="172.460938" xlink:href="#DejaVuSans-112"/>
     </g>
    </g>
   </g>
   <g id="text_19">
    <g clip-path="url(#p88a7d2bd73)">
     <!-- RKnee -->
     <g transform="translate(382.75664 567.861262)scale(0.1 -0.1)">
      <use xlink:href="#DejaVuSans-82"/>
      <use x="69.482422" xlink:href="#DejaVuSans-75"/>
      <use x="135.058594" xlink:href="#DejaVuSans-110"/>
      <use x="198.4375" xlink:href="#DejaVuSans-101"/>
      <use x="259.960938" xlink:href="#DejaVuSans-101"/>
     </g>
    </g>
   </g>
   <g id="text_20">
    <g clip-path="url(#p88a7d2bd73)">
     <!-- RAnkle -->
     <g transform="translate(345.540313 745.095209)scale(0.1 -0.1)">
      <use xlink:href="#DejaVuSans-82"/>
      <use x="65.482422" xlink:href="#DejaVuSans-65"/>
      <use x="133.890625" xlink:href="#DejaVuSans-110"/>
      <use x="197.269531" xlink:href="#DejaVuSans-107"/>
      <use x="255.179688" xlink:href="#DejaVuSans-108"/>
      <use x="282.962891" xlink:href="#DejaVuSans-101"/>
     </g>
    </g>
   </g>
   <g id="text_21">
    <g clip-path="url(#p88a7d2bd73)">
     <!-- RFoot -->
     <g transform="translate(379.75239 791.784168)scale(0.1 -0.1)">
      <use xlink:href="#DejaVuSans-82"/>
      <use x="69.482422" xlink:href="#DejaVuSans-70"/>
      <use x="123.376953" xlink:href="#DejaVuSans-111"/>
      <use x="184.558594" xlink:href="#DejaVuSans-111"/>
      <use x="245.740234" xlink:href="#DejaVuSans-116"/>
     </g>
    </g>
   </g>
   <g id="text_22">
    <g clip-path="url(#p88a7d2bd73)">
     <!-- LHandTip -->
     <g transform="translate(181.157571 410.972552)scale(0.1 -0.1)">
      <defs>
       <path d="M -0.296875 72.90625 
L 61.375 72.90625 
L 61.375 64.59375 
L 35.5 64.59375 
L 35.5 0 
L 25.59375 0 
L 25.59375 64.59375 
L -0.296875 64.59375 
z
" id="DejaVuSans-84"/>
      </defs>
      <use xlink:href="#DejaVuSans-76"/>
      <use x="55.712891" xlink:href="#DejaVuSans-72"/>
      <use x="130.908203" xlink:href="#DejaVuSans-97"/>
      <use x="192.1875" xlink:href="#DejaVuSans-110"/>
      <use x="255.566406" xlink:href="#DejaVuSans-100"/>
      <use x="319.042969" xlink:href="#DejaVuSans-84"/>
      <use x="377.001953" xlink:href="#DejaVuSans-105"/>
      <use x="404.785156" xlink:href="#DejaVuSans-112"/>
     </g>
    </g>
   </g>
   <g id="text_23">
    <g clip-path="url(#p88a7d2bd73)">
     <!-- LThumb -->
     <g transform="translate(178.388752 366.935096)scale(0.1 -0.1)">
      <defs>
       <path d="M 52 44.1875 
Q 55.375 50.25 60.0625 53.125 
Q 64.75 56 71.09375 56 
Q 79.640625 56 84.28125 50.015625 
Q 88.921875 44.046875 88.921875 33.015625 
L 88.921875 0 
L 79.890625 0 
L 79.890625 32.71875 
Q 79.890625 40.578125 77.09375 44.375 
Q 74.3125 48.1875 68.609375 48.1875 
Q 61.625 48.1875 57.5625 43.546875 
Q 53.515625 38.921875 53.515625 30.90625 
L 53.515625 0 
L 44.484375 0 
L 44.484375 32.71875 
Q 44.484375 40.625 41.703125 44.40625 
Q 38.921875 48.1875 33.109375 48.1875 
Q 26.21875 48.1875 22.15625 43.53125 
Q 18.109375 38.875 18.109375 30.90625 
L 18.109375 0 
L 9.078125 0 
L 9.078125 54.6875 
L 18.109375 54.6875 
L 18.109375 46.1875 
Q 21.1875 51.21875 25.484375 53.609375 
Q 29.78125 56 35.6875 56 
Q 41.65625 56 45.828125 52.96875 
Q 50 49.953125 52 44.1875 
z
" id="DejaVuSans-109"/>
      </defs>
      <use xlink:href="#DejaVuSans-76"/>
      <use x="41.962891" xlink:href="#DejaVuSans-84"/>
      <use x="103.046875" xlink:href="#DejaVuSans-104"/>
      <use x="166.425781" xlink:href="#DejaVuSans-117"/>
      <use x="229.804688" xlink:href="#DejaVuSans-109"/>
      <use x="327.216797" xlink:href="#DejaVuSans-98"/>
     </g>
    </g>
   </g>
   <g id="text_24">
    <g clip-path="url(#p88a7d2bd73)">
     <!-- RHandTip -->
     <g transform="translate(417.592425 386.852105)scale(0.1 -0.1)">
      <use xlink:href="#DejaVuSans-82"/>
      <use x="69.482422" xlink:href="#DejaVuSans-72"/>
      <use x="144.677734" xlink:href="#DejaVuSans-97"/>
      <use x="205.957031" xlink:href="#DejaVuSans-110"/>
      <use x="269.335938" xlink:href="#DejaVuSans-100"/>
      <use x="332.8125" xlink:href="#DejaVuSans-84"/>
      <use x="390.771484" xlink:href="#DejaVuSans-105"/>
      <use x="418.554688" xlink:href="#DejaVuSans-112"/>
     </g>
    </g>
   </g>
   <g id="text_25">
    <g clip-path="url(#p88a7d2bd73)">
     <!-- RThumb -->
     <g transform="translate(392.27909 359.951185)scale(0.1 -0.1)">
      <use xlink:href="#DejaVuSans-82"/>
      <use x="62.232422" xlink:href="#DejaVuSans-84"/>
      <use x="123.316406" xlink:href="#DejaVuSans-104"/>
      <use x="186.695312" xlink:href="#DejaVuSans-117"/>
      <use x="250.074219" xlink:href="#DejaVuSans-109"/>
      <use x="347.486328" xlink:href="#DejaVuSans-98"/>
     </g>
    </g>
   </g>
   <g id="text_26">
    <!-- Node Graph Visualization - Frame 116 -->
    <g transform="translate(174.194063 -6)scale(0.12 -0.12)">
     <defs>
      <path d="M 9.8125 72.90625 
L 23.09375 72.90625 
L 55.421875 11.921875 
L 55.421875 72.90625 
L 64.984375 72.90625 
L 64.984375 0 
L 51.703125 0 
L 19.390625 60.984375 
L 19.390625 0 
L 9.8125 0 
z
" id="DejaVuSans-78"/>
      <path id="DejaVuSans-32"/>
      <path d="M 59.515625 10.40625 
L 59.515625 29.984375 
L 43.40625 29.984375 
L 43.40625 38.09375 
L 69.28125 38.09375 
L 69.28125 6.78125 
Q 63.578125 2.734375 56.6875 0.65625 
Q 49.8125 -1.421875 42 -1.421875 
Q 24.90625 -1.421875 15.25 8.5625 
Q 5.609375 18.5625 5.609375 36.375 
Q 5.609375 54.25 15.25 64.234375 
Q 24.90625 74.21875 42 74.21875 
Q 49.125 74.21875 55.546875 72.453125 
Q 61.96875 70.703125 67.390625 67.28125 
L 67.390625 56.78125 
Q 61.921875 61.421875 55.765625 63.765625 
Q 49.609375 66.109375 42.828125 66.109375 
Q 29.4375 66.109375 22.71875 58.640625 
Q 16.015625 51.171875 16.015625 36.375 
Q 16.015625 21.625 22.71875 14.15625 
Q 29.4375 6.6875 42.828125 6.6875 
Q 48.046875 6.6875 52.140625 7.59375 
Q 56.25 8.5 59.515625 10.40625 
z
" id="DejaVuSans-71"/>
      <path d="M 28.609375 0 
L 0.78125 72.90625 
L 11.078125 72.90625 
L 34.1875 11.53125 
L 57.328125 72.90625 
L 67.578125 72.90625 
L 39.796875 0 
z
" id="DejaVuSans-86"/>
      <path d="M 5.515625 54.6875 
L 48.1875 54.6875 
L 48.1875 46.484375 
L 14.40625 7.171875 
L 48.1875 7.171875 
L 48.1875 0 
L 4.296875 0 
L 4.296875 8.203125 
L 38.09375 47.515625 
L 5.515625 47.515625 
z
" id="DejaVuSans-122"/>
      <path d="M 4.890625 31.390625 
L 31.203125 31.390625 
L 31.203125 23.390625 
L 4.890625 23.390625 
z
" id="DejaVuSans-45"/>
      <path d="M 12.40625 8.296875 
L 28.515625 8.296875 
L 28.515625 63.921875 
L 10.984375 60.40625 
L 10.984375 69.390625 
L 28.421875 72.90625 
L 38.28125 72.90625 
L 38.28125 8.296875 
L 54.390625 8.296875 
L 54.390625 0 
L 12.40625 0 
z
" id="DejaVuSans-49"/>
      <path d="M 33.015625 40.375 
Q 26.375 40.375 22.484375 35.828125 
Q 18.609375 31.296875 18.609375 23.390625 
Q 18.609375 15.53125 22.484375 10.953125 
Q 26.375 6.390625 33.015625 6.390625 
Q 39.65625 6.390625 43.53125 10.953125 
Q 47.40625 15.53125 47.40625 23.390625 
Q 47.40625 31.296875 43.53125 35.828125 
Q 39.65625 40.375 33.015625 40.375 
z
M 52.59375 71.296875 
L 52.59375 62.3125 
Q 48.875 64.0625 45.09375 64.984375 
Q 41.3125 65.921875 37.59375 65.921875 
Q 27.828125 65.921875 22.671875 59.328125 
Q 17.53125 52.734375 16.796875 39.40625 
Q 19.671875 43.65625 24.015625 45.921875 
Q 28.375 48.1875 33.59375 48.1875 
Q 44.578125 48.1875 50.953125 41.515625 
Q 57.328125 34.859375 57.328125 23.390625 
Q 57.328125 12.15625 50.6875 5.359375 
Q 44.046875 -1.421875 33.015625 -1.421875 
Q 20.359375 -1.421875 13.671875 8.265625 
Q 6.984375 17.96875 6.984375 36.375 
Q 6.984375 53.65625 15.1875 63.9375 
Q 23.390625 74.21875 37.203125 74.21875 
Q 40.921875 74.21875 44.703125 73.484375 
Q 48.484375 72.75 52.59375 71.296875 
z
" id="DejaVuSans-54"/>
     </defs>
     <use xlink:href="#DejaVuSans-78"/>
     <use x="74.804688" xlink:href="#DejaVuSans-111"/>
     <use x="135.986328" xlink:href="#DejaVuSans-100"/>
     <use x="199.462891" xlink:href="#DejaVuSans-101"/>
     <use x="260.986328" xlink:href="#DejaVuSans-32"/>
     <use x="292.773438" xlink:href="#DejaVuSans-71"/>
     <use x="370.263672" xlink:href="#DejaVuSans-114"/>
     <use x="411.376953" xlink:href="#DejaVuSans-97"/>
     <use x="472.65625" xlink:href="#DejaVuSans-112"/>
     <use x="536.132812" xlink:href="#DejaVuSans-104"/>
     <use x="599.511719" xlink:href="#DejaVuSans-32"/>
     <use x="631.298828" xlink:href="#DejaVuSans-86"/>
     <use x="697.457031" xlink:href="#DejaVuSans-105"/>
     <use x="725.240234" xlink:href="#DejaVuSans-115"/>
     <use x="777.339844" xlink:href="#DejaVuSans-117"/>
     <use x="840.71875" xlink:href="#DejaVuSans-97"/>
     <use x="901.998047" xlink:href="#DejaVuSans-108"/>
     <use x="929.78125" xlink:href="#DejaVuSans-105"/>
     <use x="957.564453" xlink:href="#DejaVuSans-122"/>
     <use x="1010.054688" xlink:href="#DejaVuSans-97"/>
     <use x="1071.333984" xlink:href="#DejaVuSans-116"/>
     <use x="1110.542969" xlink:href="#DejaVuSans-105"/>
     <use x="1138.326172" xlink:href="#DejaVuSans-111"/>
     <use x="1199.507812" xlink:href="#DejaVuSans-110"/>
     <use x="1262.886719" xlink:href="#DejaVuSans-32"/>
     <use x="1294.673828" xlink:href="#DejaVuSans-45"/>
     <use x="1330.757812" xlink:href="#DejaVuSans-32"/>
     <use x="1362.544922" xlink:href="#DejaVuSans-70"/>
     <use x="1412.814453" xlink:href="#DejaVuSans-114"/>
     <use x="1453.927734" xlink:href="#DejaVuSans-97"/>
     <use x="1515.207031" xlink:href="#DejaVuSans-109"/>
     <use x="1612.619141" xlink:href="#DejaVuSans-101"/>
     <use x="1674.142578" xlink:href="#DejaVuSans-32"/>
     <use x="1705.929688" xlink:href="#DejaVuSans-49"/>
     <use x="1769.552734" xlink:href="#DejaVuSans-49"/>
     <use x="1833.175781" xlink:href="#DejaVuSans-54"/>
    </g>
   </g>
  </g>
 </g>
 <defs>
  <clipPath id="p88a7d2bd73">
   <rect height="864" width="576" x="0" y="0"/>
  </clipPath>
 </defs>
</svg>
