<?xml version="1.0" encoding="utf-8" standalone="no"?>
<!DOCTYPE svg PUBLIC "-//W3C//DTD SVG 1.1//EN"
  "http://www.w3.org/Graphics/SVG/1.1/DTD/svg11.dtd">
<!-- Created with matplotlib (https://matplotlib.org/) -->
<svg height="864pt" version="1.1" viewBox="0 0 576 864" width="576pt" xmlns="http://www.w3.org/2000/svg" xmlns:xlink="http://www.w3.org/1999/xlink">
 <metadata>
  <rdf:RDF xmlns:cc="http://creativecommons.org/ns#" xmlns:dc="http://purl.org/dc/elements/1.1/" xmlns:rdf="http://www.w3.org/1999/02/22-rdf-syntax-ns#">
   <cc:Work>
    <dc:type rdf:resource="http://purl.org/dc/dcmitype/StillImage"/>
    <dc:date>2024-02-04T22:28:04.718825</dc:date>
    <dc:format>image/svg+xml</dc:format>
    <dc:creator>
     <cc:Agent>
      <dc:title>Matplotlib v3.3.2, https://matplotlib.org/</dc:title>
     </cc:Agent>
    </dc:creator>
   </cc:Work>
  </rdf:RDF>
 </metadata>
 <defs>
  <style type="text/css">*{stroke-linecap:butt;stroke-linejoin:round;}</style>
 </defs>
 <g id="figure_1">
  <g id="patch_1">
   <path d="M 0 864 
L 576 864 
L 576 0 
L 0 0 
z
" style="fill:#ffffff;"/>
  </g>
  <g id="axes_1">
   <g id="patch_2">
    <path clip-path="url(#pa17b68410e)" d="M 278.693728 85.445503 
Q 267.840026 99.501461 257.669638 112.6725 
" style="fill:none;stroke:#000000;stroke-linecap:round;"/>
    <path clip-path="url(#pa17b68410e)" d="M 261.69733 110.728869 
L 257.669638 112.6725 
L 258.531349 108.284168 
L 261.69733 110.728869 
z
" style="stroke:#000000;stroke-linecap:round;"/>
   </g>
   <g id="patch_3">
    <path clip-path="url(#pa17b68410e)" d="M 249.419669 137.248636 
Q 249.611324 142.118622 249.759014 145.87144 
" style="fill:none;stroke:#000000;stroke-linecap:round;"/>
    <path clip-path="url(#pa17b68410e)" d="M 251.600171 141.795886 
L 249.759014 145.87144 
L 247.603265 141.953181 
L 251.600171 141.795886 
z
" style="stroke:#000000;stroke-linecap:round;"/>
   </g>
   <g id="patch_4">
    <path clip-path="url(#pa17b68410e)" d="M 256.984399 113.559911 
Q 267.838101 99.503954 278.008488 86.332915 
" style="fill:none;stroke:#000000;stroke-linecap:round;"/>
    <path clip-path="url(#pa17b68410e)" d="M 273.980796 88.276545 
L 278.008488 86.332915 
L 277.146777 90.721246 
L 273.980796 88.276545 
z
" style="stroke:#000000;stroke-linecap:round;"/>
   </g>
   <g id="patch_5">
    <path clip-path="url(#pa17b68410e)" d="M 250.443559 173.434789 
Q 250.827873 215.69485 251.202021 256.836924 
" style="fill:none;stroke:#000000;stroke-linecap:round;"/>
    <path clip-path="url(#pa17b68410e)" d="M 253.165563 252.818902 
L 251.202021 256.836924 
L 249.165729 252.855277 
L 253.165563 252.818902 
z
" style="stroke:#000000;stroke-linecap:round;"/>
   </g>
   <g id="patch_6">
    <path clip-path="url(#pa17b68410e)" d="M 237.156243 161.51767 
Q 194.679632 165.737002 153.315579 169.845821 
" style="fill:none;stroke:#000000;stroke-linecap:round;"/>
    <path clip-path="url(#pa17b68410e)" d="M 157.493682 171.44064 
L 153.315579 169.845821 
L 157.098296 167.460229 
L 157.493682 171.44064 
z
" style="stroke:#000000;stroke-linecap:round;"/>
   </g>
   <g id="patch_7">
    <path clip-path="url(#pa17b68410e)" d="M 263.419121 162.068513 
Q 313.22684 169.13801 361.92762 176.050393 
" style="fill:none;stroke:#000000;stroke-linecap:round;"/>
    <path clip-path="url(#pa17b68410e)" d="M 358.248367 173.50813 
L 361.92762 176.050393 
L 357.686258 177.468438 
L 358.248367 173.50813 
z
" style="stroke:#000000;stroke-linecap:round;"/>
   </g>
   <g id="patch_8">
    <path clip-path="url(#pa17b68410e)" d="M 249.803087 146.991319 
Q 249.611431 142.121332 249.463741 138.368515 
" style="fill:none;stroke:#000000;stroke-linecap:round;"/>
    <path clip-path="url(#pa17b68410e)" d="M 247.622584 142.444069 
L 249.463741 138.368515 
L 251.61949 142.286773 
L 247.622584 142.444069 
z
" style="stroke:#000000;stroke-linecap:round;"/>
   </g>
   <g id="patch_9">
    <path clip-path="url(#pa17b68410e)" d="M 251.139956 284.411435 
Q 250.233707 346.664188 249.343733 407.799026 
" style="fill:none;stroke:#000000;stroke-linecap:round;"/>
    <path clip-path="url(#pa17b68410e)" d="M 251.401745 403.828562 
L 249.343733 407.799026 
L 247.402169 403.770338 
L 251.401745 403.828562 
z
" style="stroke:#000000;stroke-linecap:round;"/>
   </g>
   <g id="patch_10">
    <path clip-path="url(#pa17b68410e)" d="M 251.212233 257.959911 
Q 250.827919 215.699849 250.453771 174.557775 
" style="fill:none;stroke:#000000;stroke-linecap:round;"/>
    <path clip-path="url(#pa17b68410e)" d="M 248.490229 178.575797 
L 250.453771 174.557775 
L 252.490063 178.539422 
L 248.490229 178.575797 
z
" style="stroke:#000000;stroke-linecap:round;"/>
   </g>
   <g id="patch_11">
    <path clip-path="url(#pa17b68410e)" d="M 235.919362 421.614829 
Q 216.400496 420.832258 197.998766 420.094477 
" style="fill:none;stroke:#000000;stroke-linecap:round;"/>
    <path clip-path="url(#pa17b68410e)" d="M 201.915433 422.253115 
L 197.998766 420.094477 
L 202.075676 418.256326 
L 201.915433 422.253115 
z
" style="stroke:#000000;stroke-linecap:round;"/>
   </g>
   <g id="patch_12">
    <path clip-path="url(#pa17b68410e)" d="M 262.339379 421.347734 
Q 273.009566 420.703743 282.563751 420.127108 
" style="fill:none;stroke:#000000;stroke-linecap:round;"/>
    <path clip-path="url(#pa17b68410e)" d="M 278.450527 418.371719 
L 282.563751 420.127108 
L 278.691505 422.364454 
L 278.450527 418.371719 
z
" style="stroke:#000000;stroke-linecap:round;"/>
   </g>
   <g id="patch_13">
    <path clip-path="url(#pa17b68410e)" d="M 249.32744 408.918197 
Q 250.233689 346.665444 251.123664 285.530607 
" style="fill:none;stroke:#000000;stroke-linecap:round;"/>
    <path clip-path="url(#pa17b68410e)" d="M 249.065652 289.501071 
L 251.123664 285.530607 
L 253.065228 289.559295 
L 249.065652 289.501071 
z
" style="stroke:#000000;stroke-linecap:round;"/>
   </g>
   <g id="patch_14">
    <path clip-path="url(#pa17b68410e)" d="M 131.965941 182.448636 
Q 101.844939 230.093185 72.32138 276.792716 
" style="fill:none;stroke:#000000;stroke-linecap:round;"/>
    <path clip-path="url(#pa17b68410e)" d="M 76.149361 274.480452 
L 72.32138 276.792716 
L 72.768357 272.342973 
L 76.149361 274.480452 
z
" style="stroke:#000000;stroke-linecap:round;"/>
   </g>
   <g id="patch_15">
    <path clip-path="url(#pa17b68410e)" d="M 152.203829 169.956255 
Q 194.680441 165.736922 236.044494 161.628103 
" style="fill:none;stroke:#000000;stroke-linecap:round;"/>
    <path clip-path="url(#pa17b68410e)" d="M 231.86639 160.033284 
L 236.044494 161.628103 
L 232.261776 164.013695 
L 231.86639 160.033284 
z
" style="stroke:#000000;stroke-linecap:round;"/>
   </g>
   <g id="patch_16">
    <path clip-path="url(#pa17b68410e)" d="M 63.208906 302.064458 
Q 57.319656 355.580164 51.552705 407.984544 
" style="fill:none;stroke:#000000;stroke-linecap:round;"/>
    <path clip-path="url(#pa17b68410e)" d="M 53.97825 404.22732 
L 51.552705 407.984544 
L 50.002253 403.789773 
L 53.97825 404.22732 
z
" style="stroke:#000000;stroke-linecap:round;"/>
   </g>
   <g id="patch_17">
    <path clip-path="url(#pa17b68410e)" d="M 71.726455 277.733753 
Q 101.847457 230.089203 131.371015 183.389672 
" style="fill:none;stroke:#000000;stroke-linecap:round;"/>
    <path clip-path="url(#pa17b68410e)" d="M 127.543035 185.701936 
L 131.371015 183.389672 
L 130.924038 187.839415 
L 127.543035 185.701936 
z
" style="stroke:#000000;stroke-linecap:round;"/>
   </g>
   <g id="patch_18">
    <path clip-path="url(#pa17b68410e)" d="M 53.674369 434.94653 
Q 54.519711 437.855799 55.05309 439.691438 
" style="fill:none;stroke:#000000;stroke-linecap:round;"/>
    <path clip-path="url(#pa17b68410e)" d="M 55.857544 435.29225 
L 55.05309 439.691438 
L 52.016412 436.408362 
L 55.857544 435.29225 
z
" style="stroke:#000000;stroke-linecap:round;"/>
   </g>
   <g id="patch_19">
    <path clip-path="url(#pa17b68410e)" d="M 51.430178 409.097947 
Q 57.319428 355.582242 63.086379 303.177862 
" style="fill:none;stroke:#000000;stroke-linecap:round;"/>
    <path clip-path="url(#pa17b68410e)" d="M 60.660834 306.935085 
L 63.086379 303.177862 
L 64.636831 307.372632 
L 60.660834 306.935085 
z
" style="stroke:#000000;stroke-linecap:round;"/>
   </g>
   <g id="patch_20">
    <path clip-path="url(#pa17b68410e)" d="M 57.280789 466.575462 
Q 56.700709 470.861758 56.270571 474.04012 
" style="fill:none;stroke:#000000;stroke-linecap:round;"/>
    <path clip-path="url(#pa17b68410e)" d="M 58.788947 470.344477 
L 56.270571 474.04012 
L 54.825082 469.808033 
L 58.788947 470.344477 
z
" style="stroke:#000000;stroke-linecap:round;"/>
   </g>
   <g id="patch_21">
    <path clip-path="url(#pa17b68410e)" d="M 72.211042 454.846778 
Q 72.219084 454.847623 71.115211 454.731647 
" style="fill:none;stroke:#000000;stroke-linecap:round;"/>
    <path clip-path="url(#pa17b68410e)" d="M 67.346082 452.324642 
L 71.115211 454.731647 
L 66.92813 456.302747 
L 67.346082 452.324642 
z
" style="stroke:#000000;stroke-linecap:round;"/>
   </g>
   <g id="patch_22">
    <path clip-path="url(#pa17b68410e)" d="M 55.364231 440.762241 
Q 54.51889 437.852973 53.985511 436.017334 
" style="fill:none;stroke:#000000;stroke-linecap:round;"/>
    <path clip-path="url(#pa17b68410e)" d="M 53.181057 440.416522 
L 53.985511 436.017334 
L 57.022189 439.30041 
L 53.181057 440.416522 
z
" style="stroke:#000000;stroke-linecap:round;"/>
   </g>
   <g id="patch_23">
    <path clip-path="url(#pa17b68410e)" d="M 382.46059 189.683519 
Q 402.830404 227.060305 422.665199 263.45538 
" style="fill:none;stroke:#000000;stroke-linecap:round;"/>
    <path clip-path="url(#pa17b68410e)" d="M 422.507197 258.986036 
L 422.665199 263.45538 
L 418.994923 260.900175 
L 422.507197 258.986036 
z
" style="stroke:#000000;stroke-linecap:round;"/>
   </g>
   <g id="patch_24">
    <path clip-path="url(#pa17b68410e)" d="M 363.03344 176.207349 
Q 313.225721 169.137852 264.524942 162.225469 
" style="fill:none;stroke:#000000;stroke-linecap:round;"/>
    <path clip-path="url(#pa17b68410e)" d="M 268.204195 164.767732 
L 264.524942 162.225469 
L 268.766304 160.807425 
L 268.204195 164.767732 
z
" style="stroke:#000000;stroke-linecap:round;"/>
   </g>
   <g id="patch_25">
    <path clip-path="url(#pa17b68410e)" d="M 434.899201 288.145578 
Q 451.471141 325.474114 467.589427 361.78079 
" style="fill:none;stroke:#000000;stroke-linecap:round;"/>
    <path clip-path="url(#pa17b68410e)" d="M 467.794348 357.313351 
L 467.589427 361.78079 
L 464.138429 358.93639 
L 467.794348 357.313351 
z
" style="stroke:#000000;stroke-linecap:round;"/>
   </g>
   <g id="patch_26">
    <path clip-path="url(#pa17b68410e)" d="M 423.199407 264.435603 
Q 402.829593 227.058817 382.994798 190.663742 
" style="fill:none;stroke:#000000;stroke-linecap:round;"/>
    <path clip-path="url(#pa17b68410e)" d="M 383.1528 195.133086 
L 382.994798 190.663742 
L 386.665074 193.218947 
L 383.1528 195.133086 
z
" style="stroke:#000000;stroke-linecap:round;"/>
   </g>
   <g id="patch_27">
    <path clip-path="url(#pa17b68410e)" d="M 481.680017 385.219002 
Q 484.487635 388.724862 486.596377 391.358039 
" style="fill:none;stroke:#000000;stroke-linecap:round;"/>
    <path clip-path="url(#pa17b68410e)" d="M 485.657107 386.985652 
L 486.596377 391.358039 
L 482.534905 389.486023 
L 485.657107 386.985652 
z
" style="stroke:#000000;stroke-linecap:round;"/>
   </g>
   <g id="patch_28">
    <path clip-path="url(#pa17b68410e)" d="M 468.042077 362.80039 
Q 451.470137 325.471853 435.351851 289.165178 
" style="fill:none;stroke:#000000;stroke-linecap:round;"/>
    <path clip-path="url(#pa17b68410e)" d="M 435.14693 293.632616 
L 435.351851 289.165178 
L 438.80285 292.009577 
L 435.14693 293.632616 
z
" style="stroke:#000000;stroke-linecap:round;"/>
   </g>
   <g id="patch_29">
    <path clip-path="url(#pa17b68410e)" d="M 492.224197 404.506557 
Q 495.506938 412.682424 498.373096 419.820765 
" style="fill:none;stroke:#000000;stroke-linecap:round;"/>
    <path clip-path="url(#pa17b68410e)" d="M 498.738665 415.363596 
L 498.373096 419.820765 
L 495.026701 416.854008 
L 498.738665 415.363596 
z
" style="stroke:#000000;stroke-linecap:round;"/>
   </g>
   <g id="patch_30">
    <path clip-path="url(#pa17b68410e)" d="M 500.525337 392.39372 
Q 506.656977 392.469264 511.670668 392.531034 
" style="fill:none;stroke:#000000;stroke-linecap:round;"/>
    <path clip-path="url(#pa17b68410e)" d="M 507.69561 390.481908 
L 511.670668 392.531034 
L 507.646332 394.481605 
L 507.69561 390.481908 
z
" style="stroke:#000000;stroke-linecap:round;"/>
   </g>
   <g id="patch_31">
    <path clip-path="url(#pa17b68410e)" d="M 479.025789 381.90468 
Q 476.218171 378.39882 474.109428 375.765643 
" style="fill:none;stroke:#000000;stroke-linecap:round;"/>
    <path clip-path="url(#pa17b68410e)" d="M 475.048698 380.13803 
L 474.109428 375.765643 
L 478.1709 377.637659 
L 475.048698 380.13803 
z
" style="stroke:#000000;stroke-linecap:round;"/>
   </g>
   <g id="patch_32">
    <path clip-path="url(#pa17b68410e)" d="M 181.983103 432.646295 
Q 173.798454 496.690028 165.755535 559.624747 
" style="fill:none;stroke:#000000;stroke-linecap:round;"/>
    <path clip-path="url(#pa17b68410e)" d="M 168.246467 555.910551 
L 165.755535 559.624747 
L 164.278737 555.403483 
L 168.246467 555.910551 
z
" style="stroke:#000000;stroke-linecap:round;"/>
   </g>
   <g id="patch_33">
    <path clip-path="url(#pa17b68410e)" d="M 196.876196 420.04947 
Q 216.395062 420.83204 234.796792 421.569821 
" style="fill:none;stroke:#000000;stroke-linecap:round;"/>
    <path clip-path="url(#pa17b68410e)" d="M 230.880125 419.411183 
L 234.796792 421.569821 
L 230.719882 423.407972 
L 230.880125 419.411183 
z
" style="stroke:#000000;stroke-linecap:round;"/>
   </g>
   <g id="patch_34">
    <path clip-path="url(#pa17b68410e)" d="M 164.864272 587.050164 
Q 169.779927 656.983837 174.617188 725.802227 
" style="fill:none;stroke:#000000;stroke-linecap:round;"/>
    <path clip-path="url(#pa17b68410e)" d="M 176.331797 721.671837 
L 174.617188 725.802227 
L 172.341642 721.952306 
L 176.331797 721.671837 
z
" style="stroke:#000000;stroke-linecap:round;"/>
   </g>
   <g id="patch_35">
    <path clip-path="url(#pa17b68410e)" d="M 165.614398 560.729123 
Q 173.799047 496.68539 181.841966 433.750671 
" style="fill:none;stroke:#000000;stroke-linecap:round;"/>
    <path clip-path="url(#pa17b68410e)" d="M 179.351034 437.464868 
L 181.841966 433.750671 
L 183.318764 437.971935 
L 179.351034 437.464868 
z
" style="stroke:#000000;stroke-linecap:round;"/>
   </g>
   <g id="patch_36">
    <path clip-path="url(#pa17b68410e)" d="M 182.33778 751.512855 
Q 186.166941 758.013602 189.428665 763.551013 
" style="fill:none;stroke:#000000;stroke-linecap:round;"/>
    <path clip-path="url(#pa17b68410e)" d="M 189.121806 759.089417 
L 189.428665 763.551013 
L 185.675273 761.119542 
L 189.121806 759.089417 
z
" style="stroke:#000000;stroke-linecap:round;"/>
   </g>
   <g id="patch_37">
    <path clip-path="url(#pa17b68410e)" d="M 174.695691 726.919058 
Q 169.780036 656.985385 164.942775 588.166995 
" style="fill:none;stroke:#000000;stroke-linecap:round;"/>
    <path clip-path="url(#pa17b68410e)" d="M 163.228166 592.297385 
L 164.942775 588.166995 
L 167.218321 592.016916 
L 163.228166 592.297385 
z
" style="stroke:#000000;stroke-linecap:round;"/>
   </g>
   <g id="patch_38">
    <path clip-path="url(#pa17b68410e)" d="M 189.995858 764.513933 
Q 186.166697 758.013187 182.904973 752.475776 
" style="fill:none;stroke:#000000;stroke-linecap:round;"/>
    <path clip-path="url(#pa17b68410e)" d="M 183.211832 756.937372 
L 182.904973 752.475776 
L 186.658365 754.907246 
L 183.211832 756.937372 
z
" style="stroke:#000000;stroke-linecap:round;"/>
   </g>
   <g id="patch_39">
    <path clip-path="url(#pa17b68410e)" d="M 296.918309 432.493778 
Q 297.086924 493.986376 297.252473 554.360945 
" style="fill:none;stroke:#000000;stroke-linecap:round;"/>
    <path clip-path="url(#pa17b68410e)" d="M 299.241497 550.355476 
L 297.252473 554.360945 
L 295.241512 550.366444 
L 299.241497 550.355476 
z
" style="stroke:#000000;stroke-linecap:round;"/>
   </g>
   <g id="patch_40">
    <path clip-path="url(#pa17b68410e)" d="M 283.677545 420.059886 
Q 273.007358 420.703877 263.453173 421.280511 
" style="fill:none;stroke:#000000;stroke-linecap:round;"/>
    <path clip-path="url(#pa17b68410e)" d="M 267.566397 423.035901 
L 263.453173 421.280511 
L 267.325419 419.043166 
L 267.566397 423.035901 
z
" style="stroke:#000000;stroke-linecap:round;"/>
   </g>
   <g id="patch_41">
    <path clip-path="url(#pa17b68410e)" d="M 297.32218 581.942029 
Q 297.500334 659.586121 297.675923 736.112181 
" style="fill:none;stroke:#000000;stroke-linecap:round;"/>
    <path clip-path="url(#pa17b68410e)" d="M 299.66674 732.107603 
L 297.675923 736.112181 
L 295.66675 732.116781 
L 299.66674 732.107603 
z
" style="stroke:#000000;stroke-linecap:round;"/>
   </g>
   <g id="patch_42">
    <path clip-path="url(#pa17b68410e)" d="M 297.255541 555.479906 
Q 297.086926 493.987308 296.921377 433.612739 
" style="fill:none;stroke:#000000;stroke-linecap:round;"/>
    <path clip-path="url(#pa17b68410e)" d="M 294.932353 437.618208 
L 296.921377 433.612739 
L 298.932338 437.60724 
L 294.932353 437.618208 
z
" style="stroke:#000000;stroke-linecap:round;"/>
   </g>
   <g id="patch_43">
    <path clip-path="url(#pa17b68410e)" d="M 296.087459 763.589516 
Q 295.327698 769.74186 294.704964 774.784599 
" style="fill:none;stroke:#000000;stroke-linecap:round;"/>
    <path clip-path="url(#pa17b68410e)" d="M 297.180127 771.059875 
L 294.704964 774.784599 
L 293.210283 770.569634 
L 297.180127 771.059875 
z
" style="stroke:#000000;stroke-linecap:round;"/>
   </g>
   <g id="patch_44">
    <path clip-path="url(#pa17b68410e)" d="M 297.678485 737.228675 
Q 297.500331 659.584583 297.324742 583.058523 
" style="fill:none;stroke:#000000;stroke-linecap:round;"/>
    <path clip-path="url(#pa17b68410e)" d="M 295.333925 587.063101 
L 297.324742 583.058523 
L 299.333914 587.053923 
L 295.333925 587.063101 
z
" style="stroke:#000000;stroke-linecap:round;"/>
   </g>
   <g id="patch_45">
    <path clip-path="url(#pa17b68410e)" d="M 294.567809 775.895238 
Q 295.32757 769.742894 295.950304 764.700155 
" style="fill:none;stroke:#000000;stroke-linecap:round;"/>
    <path clip-path="url(#pa17b68410e)" d="M 293.475141 768.424879 
L 295.950304 764.700155 
L 297.444985 768.91512 
L 293.475141 768.424879 
z
" style="stroke:#000000;stroke-linecap:round;"/>
   </g>
   <g id="patch_46">
    <path clip-path="url(#pa17b68410e)" d="M 56.120886 475.146168 
Q 56.700965 470.859872 57.131103 467.68151 
" style="fill:none;stroke:#000000;stroke-linecap:round;"/>
    <path clip-path="url(#pa17b68410e)" d="M 54.612727 471.377153 
L 57.131103 467.68151 
L 58.576593 471.913597 
L 54.612727 471.377153 
z
" style="stroke:#000000;stroke-linecap:round;"/>
   </g>
   <g id="patch_47">
    <path clip-path="url(#pa17b68410e)" d="M 72.230328 454.848804 
Q 72.222286 454.84796 73.326159 454.963936 
" style="fill:none;stroke:#000000;stroke-linecap:round;"/>
    <path clip-path="url(#pa17b68410e)" d="M 77.095287 457.37094 
L 73.326159 454.963936 
L 77.513239 453.392836 
L 77.095287 457.37094 
z
" style="stroke:#000000;stroke-linecap:round;"/>
   </g>
   <g id="patch_48">
    <path clip-path="url(#pa17b68410e)" d="M 498.790108 420.859359 
Q 495.507367 412.683493 492.641209 405.545151 
" style="fill:none;stroke:#000000;stroke-linecap:round;"/>
    <path clip-path="url(#pa17b68410e)" d="M 492.27564 410.002321 
L 492.641209 405.545151 
L 495.987603 408.511908 
L 492.27564 410.002321 
z
" style="stroke:#000000;stroke-linecap:round;"/>
   </g>
   <g id="patch_49">
    <path clip-path="url(#pa17b68410e)" d="M 512.786444 392.544781 
Q 506.654804 392.469237 501.641114 392.407467 
" style="fill:none;stroke:#000000;stroke-linecap:round;"/>
    <path clip-path="url(#pa17b68410e)" d="M 505.616171 394.456593 
L 501.641114 392.407467 
L 505.665449 390.456896 
L 505.616171 394.456593 
z
" style="stroke:#000000;stroke-linecap:round;"/>
   </g>
   <g id="PathCollection_1">
    <defs>
     <path d="M 0 13.228757 
C 3.508307 13.228757 6.873396 11.834891 9.354143 9.354143 
C 11.834891 6.873396 13.228757 3.508307 13.228757 0 
C 13.228757 -3.508307 11.834891 -6.873396 9.354143 -9.354143 
C 6.873396 -11.834891 3.508307 -13.228757 0 -13.228757 
C -3.508307 -13.228757 -6.873396 -11.834891 -9.354143 -9.354143 
C -11.834891 -6.873396 -13.228757 -3.508307 -13.228757 0 
C -13.228757 3.508307 -11.834891 6.873396 -9.354143 9.354143 
C -6.873396 11.834891 -3.508307 13.228757 0 13.228757 
z
" id="m29b3788598" style="stroke:#87ceeb;"/>
    </defs>
    <g clip-path="url(#pa17b68410e)">
     <use style="fill:#87ceeb;stroke:#87ceeb;" x="286.778661" xlink:href="#m29b3788598" y="74.975207"/>
     <use style="fill:#87ceeb;stroke:#87ceeb;" x="248.899465" xlink:href="#m29b3788598" y="124.030208"/>
     <use style="fill:#87ceeb;stroke:#87ceeb;" x="250.32329" xlink:href="#m29b3788598" y="160.209746"/>
     <use style="fill:#87ceeb;stroke:#87ceeb;" x="251.332502" xlink:href="#m29b3788598" y="271.184953"/>
     <use style="fill:#87ceeb;stroke:#87ceeb;" x="249.134895" xlink:href="#m29b3788598" y="422.144679"/>
     <use style="fill:#87ceeb;stroke:#87ceeb;" x="139.036782" xlink:href="#m29b3788598" y="171.264178"/>
     <use style="fill:#87ceeb;stroke:#87ceeb;" x="64.655613" xlink:href="#m29b3788598" y="288.91821"/>
     <use style="fill:#87ceeb;stroke:#87ceeb;" x="49.983471" xlink:href="#m29b3788598" y="422.244195"/>
     <use style="fill:#87ceeb;stroke:#87ceeb;" x="59.055129" xlink:href="#m29b3788598" y="453.464577"/>
     <use style="fill:#87ceeb;stroke:#87ceeb;" x="376.129272" xlink:href="#m29b3788598" y="178.066116"/>
     <use style="fill:#87ceeb;stroke:#87ceeb;" x="429.530725" xlink:href="#m29b3788598" y="276.053007"/>
     <use style="fill:#87ceeb;stroke:#87ceeb;" x="473.410553" xlink:href="#m29b3788598" y="374.892961"/>
     <use style="fill:#87ceeb;stroke:#87ceeb;" x="487.295252" xlink:href="#m29b3788598" y="392.230721"/>
     <use style="fill:#87ceeb;stroke:#87ceeb;" x="183.660663" xlink:href="#m29b3788598" y="419.519619"/>
     <use style="fill:#87ceeb;stroke:#87ceeb;" x="163.936837" xlink:href="#m29b3788598" y="573.855799"/>
     <use style="fill:#87ceeb;stroke:#87ceeb;" x="175.623126" xlink:href="#m29b3788598" y="740.113423"/>
     <use style="fill:#87ceeb;stroke:#87ceeb;" x="196.710513" xlink:href="#m29b3788598" y="775.913366"/>
     <use style="fill:#87ceeb;stroke:#87ceeb;" x="296.882029" xlink:href="#m29b3788598" y="419.26294"/>
     <use style="fill:#87ceeb;stroke:#87ceeb;" x="297.291821" xlink:href="#m29b3788598" y="568.710744"/>
     <use style="fill:#87ceeb;stroke:#87ceeb;" x="297.708844" xlink:href="#m29b3788598" y="750.45996"/>
     <use style="fill:#87ceeb;stroke:#87ceeb;" x="292.946424" xlink:href="#m29b3788598" y="789.024793"/>
     <use style="fill:#87ceeb;stroke:#87ceeb;" x="54.346545" xlink:href="#m29b3788598" y="488.257053"/>
     <use style="fill:#87ceeb;stroke:#87ceeb;" x="85.38624" xlink:href="#m29b3788598" y="456.231006"/>
     <use style="fill:#87ceeb;stroke:#87ceeb;" x="503.719052" xlink:href="#m29b3788598" y="433.135195"/>
     <use style="fill:#87ceeb;stroke:#87ceeb;" x="526.016529" xlink:href="#m29b3788598" y="392.70778"/>
    </g>
   </g>
   <g id="text_1">
    <g clip-path="url(#pa17b68410e)">
     <!-- Head -->
     <g transform="translate(273.703661 77.734582)scale(0.1 -0.1)">
      <defs>
       <path d="M 9.8125 72.90625 
L 19.671875 72.90625 
L 19.671875 43.015625 
L 55.515625 43.015625 
L 55.515625 72.90625 
L 65.375 72.90625 
L 65.375 0 
L 55.515625 0 
L 55.515625 34.71875 
L 19.671875 34.71875 
L 19.671875 0 
L 9.8125 0 
z
" id="DejaVuSans-72"/>
       <path d="M 56.203125 29.59375 
L 56.203125 25.203125 
L 14.890625 25.203125 
Q 15.484375 15.921875 20.484375 11.0625 
Q 25.484375 6.203125 34.421875 6.203125 
Q 39.59375 6.203125 44.453125 7.46875 
Q 49.3125 8.734375 54.109375 11.28125 
L 54.109375 2.78125 
Q 49.265625 0.734375 44.1875 -0.34375 
Q 39.109375 -1.421875 33.890625 -1.421875 
Q 20.796875 -1.421875 13.15625 6.1875 
Q 5.515625 13.8125 5.515625 26.8125 
Q 5.515625 40.234375 12.765625 48.109375 
Q 20.015625 56 32.328125 56 
Q 43.359375 56 49.78125 48.890625 
Q 56.203125 41.796875 56.203125 29.59375 
z
M 47.21875 32.234375 
Q 47.125 39.59375 43.09375 43.984375 
Q 39.0625 48.390625 32.421875 48.390625 
Q 24.90625 48.390625 20.390625 44.140625 
Q 15.875 39.890625 15.1875 32.171875 
z
" id="DejaVuSans-101"/>
       <path d="M 34.28125 27.484375 
Q 23.390625 27.484375 19.1875 25 
Q 14.984375 22.515625 14.984375 16.5 
Q 14.984375 11.71875 18.140625 8.90625 
Q 21.296875 6.109375 26.703125 6.109375 
Q 34.1875 6.109375 38.703125 11.40625 
Q 43.21875 16.703125 43.21875 25.484375 
L 43.21875 27.484375 
z
M 52.203125 31.203125 
L 52.203125 0 
L 43.21875 0 
L 43.21875 8.296875 
Q 40.140625 3.328125 35.546875 0.953125 
Q 30.953125 -1.421875 24.3125 -1.421875 
Q 15.921875 -1.421875 10.953125 3.296875 
Q 6 8.015625 6 15.921875 
Q 6 25.140625 12.171875 29.828125 
Q 18.359375 34.515625 30.609375 34.515625 
L 43.21875 34.515625 
L 43.21875 35.40625 
Q 43.21875 41.609375 39.140625 45 
Q 35.0625 48.390625 27.6875 48.390625 
Q 23 48.390625 18.546875 47.265625 
Q 14.109375 46.140625 10.015625 43.890625 
L 10.015625 52.203125 
Q 14.9375 54.109375 19.578125 55.046875 
Q 24.21875 56 28.609375 56 
Q 40.484375 56 46.34375 49.84375 
Q 52.203125 43.703125 52.203125 31.203125 
z
" id="DejaVuSans-97"/>
       <path d="M 45.40625 46.390625 
L 45.40625 75.984375 
L 54.390625 75.984375 
L 54.390625 0 
L 45.40625 0 
L 45.40625 8.203125 
Q 42.578125 3.328125 38.25 0.953125 
Q 33.9375 -1.421875 27.875 -1.421875 
Q 17.96875 -1.421875 11.734375 6.484375 
Q 5.515625 14.40625 5.515625 27.296875 
Q 5.515625 40.1875 11.734375 48.09375 
Q 17.96875 56 27.875 56 
Q 33.9375 56 38.25 53.625 
Q 42.578125 51.265625 45.40625 46.390625 
z
M 14.796875 27.296875 
Q 14.796875 17.390625 18.875 11.75 
Q 22.953125 6.109375 30.078125 6.109375 
Q 37.203125 6.109375 41.296875 11.75 
Q 45.40625 17.390625 45.40625 27.296875 
Q 45.40625 37.203125 41.296875 42.84375 
Q 37.203125 48.484375 30.078125 48.484375 
Q 22.953125 48.484375 18.875 42.84375 
Q 14.796875 37.203125 14.796875 27.296875 
z
" id="DejaVuSans-100"/>
      </defs>
      <use xlink:href="#DejaVuSans-72"/>
      <use x="75.195312" xlink:href="#DejaVuSans-101"/>
      <use x="136.71875" xlink:href="#DejaVuSans-97"/>
      <use x="197.998047" xlink:href="#DejaVuSans-100"/>
     </g>
    </g>
   </g>
   <g id="text_2">
    <g clip-path="url(#pa17b68410e)">
     <!-- c7 -->
     <g transform="translate(242.968997 126.789583)scale(0.1 -0.1)">
      <defs>
       <path d="M 48.78125 52.59375 
L 48.78125 44.1875 
Q 44.96875 46.296875 41.140625 47.34375 
Q 37.3125 48.390625 33.40625 48.390625 
Q 24.65625 48.390625 19.8125 42.84375 
Q 14.984375 37.3125 14.984375 27.296875 
Q 14.984375 17.28125 19.8125 11.734375 
Q 24.65625 6.203125 33.40625 6.203125 
Q 37.3125 6.203125 41.140625 7.25 
Q 44.96875 8.296875 48.78125 10.40625 
L 48.78125 2.09375 
Q 45.015625 0.34375 40.984375 -0.53125 
Q 36.96875 -1.421875 32.421875 -1.421875 
Q 20.0625 -1.421875 12.78125 6.34375 
Q 5.515625 14.109375 5.515625 27.296875 
Q 5.515625 40.671875 12.859375 48.328125 
Q 20.21875 56 33.015625 56 
Q 37.15625 56 41.109375 55.140625 
Q 45.0625 54.296875 48.78125 52.59375 
z
" id="DejaVuSans-99"/>
       <path d="M 8.203125 72.90625 
L 55.078125 72.90625 
L 55.078125 68.703125 
L 28.609375 0 
L 18.3125 0 
L 43.21875 64.59375 
L 8.203125 64.59375 
z
" id="DejaVuSans-55"/>
      </defs>
      <use xlink:href="#DejaVuSans-99"/>
      <use x="54.980469" xlink:href="#DejaVuSans-55"/>
     </g>
    </g>
   </g>
   <g id="text_3">
    <g clip-path="url(#pa17b68410e)">
     <!-- SpineShoulder -->
     <g transform="translate(214.074071 162.969121)scale(0.1 -0.1)">
      <defs>
       <path d="M 53.515625 70.515625 
L 53.515625 60.890625 
Q 47.90625 63.578125 42.921875 64.890625 
Q 37.9375 66.21875 33.296875 66.21875 
Q 25.25 66.21875 20.875 63.09375 
Q 16.5 59.96875 16.5 54.203125 
Q 16.5 49.359375 19.40625 46.890625 
Q 22.3125 44.4375 30.421875 42.921875 
L 36.375 41.703125 
Q 47.40625 39.59375 52.65625 34.296875 
Q 57.90625 29 57.90625 20.125 
Q 57.90625 9.515625 50.796875 4.046875 
Q 43.703125 -1.421875 29.984375 -1.421875 
Q 24.8125 -1.421875 18.96875 -0.25 
Q 13.140625 0.921875 6.890625 3.21875 
L 6.890625 13.375 
Q 12.890625 10.015625 18.65625 8.296875 
Q 24.421875 6.59375 29.984375 6.59375 
Q 38.421875 6.59375 43.015625 9.90625 
Q 47.609375 13.234375 47.609375 19.390625 
Q 47.609375 24.75 44.3125 27.78125 
Q 41.015625 30.8125 33.5 32.328125 
L 27.484375 33.5 
Q 16.453125 35.6875 11.515625 40.375 
Q 6.59375 45.0625 6.59375 53.421875 
Q 6.59375 63.09375 13.40625 68.65625 
Q 20.21875 74.21875 32.171875 74.21875 
Q 37.3125 74.21875 42.625 73.28125 
Q 47.953125 72.359375 53.515625 70.515625 
z
" id="DejaVuSans-83"/>
       <path d="M 18.109375 8.203125 
L 18.109375 -20.796875 
L 9.078125 -20.796875 
L 9.078125 54.6875 
L 18.109375 54.6875 
L 18.109375 46.390625 
Q 20.953125 51.265625 25.265625 53.625 
Q 29.59375 56 35.59375 56 
Q 45.5625 56 51.78125 48.09375 
Q 58.015625 40.1875 58.015625 27.296875 
Q 58.015625 14.40625 51.78125 6.484375 
Q 45.5625 -1.421875 35.59375 -1.421875 
Q 29.59375 -1.421875 25.265625 0.953125 
Q 20.953125 3.328125 18.109375 8.203125 
z
M 48.6875 27.296875 
Q 48.6875 37.203125 44.609375 42.84375 
Q 40.53125 48.484375 33.40625 48.484375 
Q 26.265625 48.484375 22.1875 42.84375 
Q 18.109375 37.203125 18.109375 27.296875 
Q 18.109375 17.390625 22.1875 11.75 
Q 26.265625 6.109375 33.40625 6.109375 
Q 40.53125 6.109375 44.609375 11.75 
Q 48.6875 17.390625 48.6875 27.296875 
z
" id="DejaVuSans-112"/>
       <path d="M 9.421875 54.6875 
L 18.40625 54.6875 
L 18.40625 0 
L 9.421875 0 
z
M 9.421875 75.984375 
L 18.40625 75.984375 
L 18.40625 64.59375 
L 9.421875 64.59375 
z
" id="DejaVuSans-105"/>
       <path d="M 54.890625 33.015625 
L 54.890625 0 
L 45.90625 0 
L 45.90625 32.71875 
Q 45.90625 40.484375 42.875 44.328125 
Q 39.84375 48.1875 33.796875 48.1875 
Q 26.515625 48.1875 22.3125 43.546875 
Q 18.109375 38.921875 18.109375 30.90625 
L 18.109375 0 
L 9.078125 0 
L 9.078125 54.6875 
L 18.109375 54.6875 
L 18.109375 46.1875 
Q 21.34375 51.125 25.703125 53.5625 
Q 30.078125 56 35.796875 56 
Q 45.21875 56 50.046875 50.171875 
Q 54.890625 44.34375 54.890625 33.015625 
z
" id="DejaVuSans-110"/>
       <path d="M 54.890625 33.015625 
L 54.890625 0 
L 45.90625 0 
L 45.90625 32.71875 
Q 45.90625 40.484375 42.875 44.328125 
Q 39.84375 48.1875 33.796875 48.1875 
Q 26.515625 48.1875 22.3125 43.546875 
Q 18.109375 38.921875 18.109375 30.90625 
L 18.109375 0 
L 9.078125 0 
L 9.078125 75.984375 
L 18.109375 75.984375 
L 18.109375 46.1875 
Q 21.34375 51.125 25.703125 53.5625 
Q 30.078125 56 35.796875 56 
Q 45.21875 56 50.046875 50.171875 
Q 54.890625 44.34375 54.890625 33.015625 
z
" id="DejaVuSans-104"/>
       <path d="M 30.609375 48.390625 
Q 23.390625 48.390625 19.1875 42.75 
Q 14.984375 37.109375 14.984375 27.296875 
Q 14.984375 17.484375 19.15625 11.84375 
Q 23.34375 6.203125 30.609375 6.203125 
Q 37.796875 6.203125 41.984375 11.859375 
Q 46.1875 17.53125 46.1875 27.296875 
Q 46.1875 37.015625 41.984375 42.703125 
Q 37.796875 48.390625 30.609375 48.390625 
z
M 30.609375 56 
Q 42.328125 56 49.015625 48.375 
Q 55.71875 40.765625 55.71875 27.296875 
Q 55.71875 13.875 49.015625 6.21875 
Q 42.328125 -1.421875 30.609375 -1.421875 
Q 18.84375 -1.421875 12.171875 6.21875 
Q 5.515625 13.875 5.515625 27.296875 
Q 5.515625 40.765625 12.171875 48.375 
Q 18.84375 56 30.609375 56 
z
" id="DejaVuSans-111"/>
       <path d="M 8.5 21.578125 
L 8.5 54.6875 
L 17.484375 54.6875 
L 17.484375 21.921875 
Q 17.484375 14.15625 20.5 10.265625 
Q 23.53125 6.390625 29.59375 6.390625 
Q 36.859375 6.390625 41.078125 11.03125 
Q 45.3125 15.671875 45.3125 23.6875 
L 45.3125 54.6875 
L 54.296875 54.6875 
L 54.296875 0 
L 45.3125 0 
L 45.3125 8.40625 
Q 42.046875 3.421875 37.71875 1 
Q 33.40625 -1.421875 27.6875 -1.421875 
Q 18.265625 -1.421875 13.375 4.4375 
Q 8.5 10.296875 8.5 21.578125 
z
M 31.109375 56 
z
" id="DejaVuSans-117"/>
       <path d="M 9.421875 75.984375 
L 18.40625 75.984375 
L 18.40625 0 
L 9.421875 0 
z
" id="DejaVuSans-108"/>
       <path d="M 41.109375 46.296875 
Q 39.59375 47.171875 37.8125 47.578125 
Q 36.03125 48 33.890625 48 
Q 26.265625 48 22.1875 43.046875 
Q 18.109375 38.09375 18.109375 28.8125 
L 18.109375 0 
L 9.078125 0 
L 9.078125 54.6875 
L 18.109375 54.6875 
L 18.109375 46.1875 
Q 20.953125 51.171875 25.484375 53.578125 
Q 30.03125 56 36.53125 56 
Q 37.453125 56 38.578125 55.875 
Q 39.703125 55.765625 41.0625 55.515625 
z
" id="DejaVuSans-114"/>
      </defs>
      <use xlink:href="#DejaVuSans-83"/>
      <use x="63.476562" xlink:href="#DejaVuSans-112"/>
      <use x="126.953125" xlink:href="#DejaVuSans-105"/>
      <use x="154.736328" xlink:href="#DejaVuSans-110"/>
      <use x="218.115234" xlink:href="#DejaVuSans-101"/>
      <use x="279.638672" xlink:href="#DejaVuSans-83"/>
      <use x="343.115234" xlink:href="#DejaVuSans-104"/>
      <use x="406.494141" xlink:href="#DejaVuSans-111"/>
      <use x="467.675781" xlink:href="#DejaVuSans-117"/>
      <use x="531.054688" xlink:href="#DejaVuSans-108"/>
      <use x="558.837891" xlink:href="#DejaVuSans-100"/>
      <use x="622.314453" xlink:href="#DejaVuSans-101"/>
      <use x="683.837891" xlink:href="#DejaVuSans-114"/>
     </g>
    </g>
   </g>
   <g id="text_4">
    <g clip-path="url(#pa17b68410e)">
     <!-- Spine -->
     <g transform="translate(237.349689 273.944328)scale(0.1 -0.1)">
      <use xlink:href="#DejaVuSans-83"/>
      <use x="63.476562" xlink:href="#DejaVuSans-112"/>
      <use x="126.953125" xlink:href="#DejaVuSans-105"/>
      <use x="154.736328" xlink:href="#DejaVuSans-110"/>
      <use x="218.115234" xlink:href="#DejaVuSans-101"/>
     </g>
    </g>
   </g>
   <g id="text_5">
    <g clip-path="url(#pa17b68410e)">
     <!-- Sacr -->
     <g transform="translate(238.091926 424.904054)scale(0.1 -0.1)">
      <use xlink:href="#DejaVuSans-83"/>
      <use x="63.476562" xlink:href="#DejaVuSans-97"/>
      <use x="124.755859" xlink:href="#DejaVuSans-99"/>
      <use x="179.736328" xlink:href="#DejaVuSans-114"/>
     </g>
    </g>
   </g>
   <g id="text_6">
    <g clip-path="url(#pa17b68410e)">
     <!-- LShoulder -->
     <g transform="translate(113.984439 174.023553)scale(0.1 -0.1)">
      <defs>
       <path d="M 9.8125 72.90625 
L 19.671875 72.90625 
L 19.671875 8.296875 
L 55.171875 8.296875 
L 55.171875 0 
L 9.8125 0 
z
" id="DejaVuSans-76"/>
      </defs>
      <use xlink:href="#DejaVuSans-76"/>
      <use x="55.712891" xlink:href="#DejaVuSans-83"/>
      <use x="119.189453" xlink:href="#DejaVuSans-104"/>
      <use x="182.568359" xlink:href="#DejaVuSans-111"/>
      <use x="243.75" xlink:href="#DejaVuSans-117"/>
      <use x="307.128906" xlink:href="#DejaVuSans-108"/>
      <use x="334.912109" xlink:href="#DejaVuSans-100"/>
      <use x="398.388672" xlink:href="#DejaVuSans-101"/>
      <use x="459.912109" xlink:href="#DejaVuSans-114"/>
     </g>
    </g>
   </g>
   <g id="text_7">
    <g clip-path="url(#pa17b68410e)">
     <!-- LElbow -->
     <g transform="translate(46.998582 291.677585)scale(0.1 -0.1)">
      <defs>
       <path d="M 9.8125 72.90625 
L 55.90625 72.90625 
L 55.90625 64.59375 
L 19.671875 64.59375 
L 19.671875 43.015625 
L 54.390625 43.015625 
L 54.390625 34.71875 
L 19.671875 34.71875 
L 19.671875 8.296875 
L 56.78125 8.296875 
L 56.78125 0 
L 9.8125 0 
z
" id="DejaVuSans-69"/>
       <path d="M 48.6875 27.296875 
Q 48.6875 37.203125 44.609375 42.84375 
Q 40.53125 48.484375 33.40625 48.484375 
Q 26.265625 48.484375 22.1875 42.84375 
Q 18.109375 37.203125 18.109375 27.296875 
Q 18.109375 17.390625 22.1875 11.75 
Q 26.265625 6.109375 33.40625 6.109375 
Q 40.53125 6.109375 44.609375 11.75 
Q 48.6875 17.390625 48.6875 27.296875 
z
M 18.109375 46.390625 
Q 20.953125 51.265625 25.265625 53.625 
Q 29.59375 56 35.59375 56 
Q 45.5625 56 51.78125 48.09375 
Q 58.015625 40.1875 58.015625 27.296875 
Q 58.015625 14.40625 51.78125 6.484375 
Q 45.5625 -1.421875 35.59375 -1.421875 
Q 29.59375 -1.421875 25.265625 0.953125 
Q 20.953125 3.328125 18.109375 8.203125 
L 18.109375 0 
L 9.078125 0 
L 9.078125 75.984375 
L 18.109375 75.984375 
z
" id="DejaVuSans-98"/>
       <path d="M 4.203125 54.6875 
L 13.1875 54.6875 
L 24.421875 12.015625 
L 35.59375 54.6875 
L 46.1875 54.6875 
L 57.421875 12.015625 
L 68.609375 54.6875 
L 77.59375 54.6875 
L 63.28125 0 
L 52.6875 0 
L 40.921875 44.828125 
L 29.109375 0 
L 18.5 0 
z
" id="DejaVuSans-119"/>
      </defs>
      <use xlink:href="#DejaVuSans-76"/>
      <use x="55.712891" xlink:href="#DejaVuSans-69"/>
      <use x="118.896484" xlink:href="#DejaVuSans-108"/>
      <use x="146.679688" xlink:href="#DejaVuSans-98"/>
      <use x="210.15625" xlink:href="#DejaVuSans-111"/>
      <use x="271.337891" xlink:href="#DejaVuSans-119"/>
     </g>
    </g>
   </g>
   <g id="text_8">
    <g clip-path="url(#pa17b68410e)">
     <!-- LWrist -->
     <g transform="translate(34.925659 425.00357)scale(0.1 -0.1)">
      <defs>
       <path d="M 3.328125 72.90625 
L 13.28125 72.90625 
L 28.609375 11.28125 
L 43.890625 72.90625 
L 54.984375 72.90625 
L 70.3125 11.28125 
L 85.59375 72.90625 
L 95.609375 72.90625 
L 77.296875 0 
L 64.890625 0 
L 49.515625 63.28125 
L 33.984375 0 
L 21.578125 0 
z
" id="DejaVuSans-87"/>
       <path d="M 44.28125 53.078125 
L 44.28125 44.578125 
Q 40.484375 46.53125 36.375 47.5 
Q 32.28125 48.484375 27.875 48.484375 
Q 21.1875 48.484375 17.84375 46.4375 
Q 14.5 44.390625 14.5 40.28125 
Q 14.5 37.15625 16.890625 35.375 
Q 19.28125 33.59375 26.515625 31.984375 
L 29.59375 31.296875 
Q 39.15625 29.25 43.1875 25.515625 
Q 47.21875 21.78125 47.21875 15.09375 
Q 47.21875 7.46875 41.1875 3.015625 
Q 35.15625 -1.421875 24.609375 -1.421875 
Q 20.21875 -1.421875 15.453125 -0.5625 
Q 10.6875 0.296875 5.421875 2 
L 5.421875 11.28125 
Q 10.40625 8.6875 15.234375 7.390625 
Q 20.0625 6.109375 24.8125 6.109375 
Q 31.15625 6.109375 34.5625 8.28125 
Q 37.984375 10.453125 37.984375 14.40625 
Q 37.984375 18.0625 35.515625 20.015625 
Q 33.0625 21.96875 24.703125 23.78125 
L 21.578125 24.515625 
Q 13.234375 26.265625 9.515625 29.90625 
Q 5.8125 33.546875 5.8125 39.890625 
Q 5.8125 47.609375 11.28125 51.796875 
Q 16.75 56 26.8125 56 
Q 31.78125 56 36.171875 55.265625 
Q 40.578125 54.546875 44.28125 53.078125 
z
" id="DejaVuSans-115"/>
       <path d="M 18.3125 70.21875 
L 18.3125 54.6875 
L 36.8125 54.6875 
L 36.8125 47.703125 
L 18.3125 47.703125 
L 18.3125 18.015625 
Q 18.3125 11.328125 20.140625 9.421875 
Q 21.96875 7.515625 27.59375 7.515625 
L 36.8125 7.515625 
L 36.8125 0 
L 27.59375 0 
Q 17.1875 0 13.234375 3.875 
Q 9.28125 7.765625 9.28125 18.015625 
L 9.28125 47.703125 
L 2.6875 47.703125 
L 2.6875 54.6875 
L 9.28125 54.6875 
L 9.28125 70.21875 
z
" id="DejaVuSans-116"/>
      </defs>
      <use xlink:href="#DejaVuSans-76"/>
      <use x="46.587891" xlink:href="#DejaVuSans-87"/>
      <use x="140.964844" xlink:href="#DejaVuSans-114"/>
      <use x="182.078125" xlink:href="#DejaVuSans-105"/>
      <use x="209.861328" xlink:href="#DejaVuSans-115"/>
      <use x="261.960938" xlink:href="#DejaVuSans-116"/>
     </g>
    </g>
   </g>
   <g id="text_9">
    <g clip-path="url(#pa17b68410e)">
     <!-- LHand -->
     <g transform="translate(43.102004 456.223952)scale(0.1 -0.1)">
      <use xlink:href="#DejaVuSans-76"/>
      <use x="55.712891" xlink:href="#DejaVuSans-72"/>
      <use x="130.908203" xlink:href="#DejaVuSans-97"/>
      <use x="192.1875" xlink:href="#DejaVuSans-110"/>
      <use x="255.566406" xlink:href="#DejaVuSans-100"/>
     </g>
    </g>
   </g>
   <g id="text_10">
    <g clip-path="url(#pa17b68410e)">
     <!-- RShoulder -->
     <g transform="translate(350.388647 180.825491)scale(0.1 -0.1)">
      <defs>
       <path d="M 44.390625 34.1875 
Q 47.5625 33.109375 50.5625 29.59375 
Q 53.5625 26.078125 56.59375 19.921875 
L 66.609375 0 
L 56 0 
L 46.6875 18.703125 
Q 43.0625 26.03125 39.671875 28.421875 
Q 36.28125 30.8125 30.421875 30.8125 
L 19.671875 30.8125 
L 19.671875 0 
L 9.8125 0 
L 9.8125 72.90625 
L 32.078125 72.90625 
Q 44.578125 72.90625 50.734375 67.671875 
Q 56.890625 62.453125 56.890625 51.90625 
Q 56.890625 45.015625 53.6875 40.46875 
Q 50.484375 35.9375 44.390625 34.1875 
z
M 19.671875 64.796875 
L 19.671875 38.921875 
L 32.078125 38.921875 
Q 39.203125 38.921875 42.84375 42.21875 
Q 46.484375 45.515625 46.484375 51.90625 
Q 46.484375 58.296875 42.84375 61.546875 
Q 39.203125 64.796875 32.078125 64.796875 
z
" id="DejaVuSans-82"/>
      </defs>
      <use xlink:href="#DejaVuSans-82"/>
      <use x="69.482422" xlink:href="#DejaVuSans-83"/>
      <use x="132.958984" xlink:href="#DejaVuSans-104"/>
      <use x="196.337891" xlink:href="#DejaVuSans-111"/>
      <use x="257.519531" xlink:href="#DejaVuSans-117"/>
      <use x="320.898438" xlink:href="#DejaVuSans-108"/>
      <use x="348.681641" xlink:href="#DejaVuSans-100"/>
      <use x="412.158203" xlink:href="#DejaVuSans-101"/>
      <use x="473.681641" xlink:href="#DejaVuSans-114"/>
     </g>
    </g>
   </g>
   <g id="text_11">
    <g clip-path="url(#pa17b68410e)">
     <!-- RElbow -->
     <g transform="translate(411.185413 278.812382)scale(0.1 -0.1)">
      <use xlink:href="#DejaVuSans-82"/>
      <use x="69.482422" xlink:href="#DejaVuSans-69"/>
      <use x="132.666016" xlink:href="#DejaVuSans-108"/>
      <use x="160.449219" xlink:href="#DejaVuSans-98"/>
      <use x="223.925781" xlink:href="#DejaVuSans-111"/>
      <use x="285.107422" xlink:href="#DejaVuSans-119"/>
     </g>
    </g>
   </g>
   <g id="text_12">
    <g clip-path="url(#pa17b68410e)">
     <!-- RWrist -->
     <g transform="translate(457.408209 377.652336)scale(0.1 -0.1)">
      <use xlink:href="#DejaVuSans-82"/>
      <use x="65.482422" xlink:href="#DejaVuSans-87"/>
      <use x="159.859375" xlink:href="#DejaVuSans-114"/>
      <use x="200.972656" xlink:href="#DejaVuSans-105"/>
      <use x="228.755859" xlink:href="#DejaVuSans-115"/>
      <use x="280.855469" xlink:href="#DejaVuSans-116"/>
     </g>
    </g>
   </g>
   <g id="text_13">
    <g clip-path="url(#pa17b68410e)">
     <!-- RHand -->
     <g transform="translate(470.653846 394.990096)scale(0.1 -0.1)">
      <use xlink:href="#DejaVuSans-82"/>
      <use x="69.482422" xlink:href="#DejaVuSans-72"/>
      <use x="144.677734" xlink:href="#DejaVuSans-97"/>
      <use x="205.957031" xlink:href="#DejaVuSans-110"/>
      <use x="269.335938" xlink:href="#DejaVuSans-100"/>
     </g>
    </g>
   </g>
   <g id="text_14">
    <g clip-path="url(#pa17b68410e)">
     <!-- LHip -->
     <g transform="translate(172.551288 422.278994)scale(0.1 -0.1)">
      <use xlink:href="#DejaVuSans-76"/>
      <use x="55.712891" xlink:href="#DejaVuSans-72"/>
      <use x="130.908203" xlink:href="#DejaVuSans-105"/>
      <use x="158.691406" xlink:href="#DejaVuSans-112"/>
     </g>
    </g>
   </g>
   <g id="text_15">
    <g clip-path="url(#pa17b68410e)">
     <!-- LKnee -->
     <g transform="translate(148.550118 576.615174)scale(0.1 -0.1)">
      <defs>
       <path d="M 9.8125 72.90625 
L 19.671875 72.90625 
L 19.671875 42.09375 
L 52.390625 72.90625 
L 65.09375 72.90625 
L 28.90625 38.921875 
L 67.671875 0 
L 54.6875 0 
L 19.671875 35.109375 
L 19.671875 0 
L 9.8125 0 
z
" id="DejaVuSans-75"/>
      </defs>
      <use xlink:href="#DejaVuSans-76"/>
      <use x="55.712891" xlink:href="#DejaVuSans-75"/>
      <use x="121.289062" xlink:href="#DejaVuSans-110"/>
      <use x="184.667969" xlink:href="#DejaVuSans-101"/>
      <use x="246.191406" xlink:href="#DejaVuSans-101"/>
     </g>
    </g>
   </g>
   <g id="text_16">
    <g clip-path="url(#pa17b68410e)">
     <!-- LAnkle -->
     <g transform="translate(158.774688 742.872798)scale(0.1 -0.1)">
      <defs>
       <path d="M 34.1875 63.1875 
L 20.796875 26.90625 
L 47.609375 26.90625 
z
M 28.609375 72.90625 
L 39.796875 72.90625 
L 67.578125 0 
L 57.328125 0 
L 50.6875 18.703125 
L 17.828125 18.703125 
L 11.1875 0 
L 0.78125 0 
z
" id="DejaVuSans-65"/>
       <path d="M 9.078125 75.984375 
L 18.109375 75.984375 
L 18.109375 31.109375 
L 44.921875 54.6875 
L 56.390625 54.6875 
L 27.390625 29.109375 
L 57.625 0 
L 45.90625 0 
L 18.109375 26.703125 
L 18.109375 0 
L 9.078125 0 
z
" id="DejaVuSans-107"/>
      </defs>
      <use xlink:href="#DejaVuSans-76"/>
      <use x="57.962891" xlink:href="#DejaVuSans-65"/>
      <use x="126.371094" xlink:href="#DejaVuSans-110"/>
      <use x="189.75" xlink:href="#DejaVuSans-107"/>
      <use x="247.660156" xlink:href="#DejaVuSans-108"/>
      <use x="275.443359" xlink:href="#DejaVuSans-101"/>
     </g>
    </g>
   </g>
   <g id="text_17">
    <g clip-path="url(#pa17b68410e)">
     <!-- LFoot -->
     <g transform="translate(183.151138 778.672741)scale(0.1 -0.1)">
      <defs>
       <path d="M 9.8125 72.90625 
L 51.703125 72.90625 
L 51.703125 64.59375 
L 19.671875 64.59375 
L 19.671875 43.109375 
L 48.578125 43.109375 
L 48.578125 34.8125 
L 19.671875 34.8125 
L 19.671875 0 
L 9.8125 0 
z
" id="DejaVuSans-70"/>
      </defs>
      <use xlink:href="#DejaVuSans-76"/>
      <use x="55.712891" xlink:href="#DejaVuSans-70"/>
      <use x="109.607422" xlink:href="#DejaVuSans-111"/>
      <use x="170.789062" xlink:href="#DejaVuSans-111"/>
      <use x="231.970703" xlink:href="#DejaVuSans-116"/>
     </g>
    </g>
   </g>
   <g id="text_18">
    <g clip-path="url(#pa17b68410e)">
     <!-- RHip -->
     <g transform="translate(285.084373 422.022315)scale(0.1 -0.1)">
      <use xlink:href="#DejaVuSans-82"/>
      <use x="69.482422" xlink:href="#DejaVuSans-72"/>
      <use x="144.677734" xlink:href="#DejaVuSans-105"/>
      <use x="172.460938" xlink:href="#DejaVuSans-112"/>
     </g>
    </g>
   </g>
   <g id="text_19">
    <g clip-path="url(#pa17b68410e)">
     <!-- RKnee -->
     <g transform="translate(281.216821 571.470119)scale(0.1 -0.1)">
      <use xlink:href="#DejaVuSans-82"/>
      <use x="69.482422" xlink:href="#DejaVuSans-75"/>
      <use x="135.058594" xlink:href="#DejaVuSans-110"/>
      <use x="198.4375" xlink:href="#DejaVuSans-101"/>
      <use x="259.960938" xlink:href="#DejaVuSans-101"/>
     </g>
    </g>
   </g>
   <g id="text_20">
    <g clip-path="url(#pa17b68410e)">
     <!-- RAnkle -->
     <g transform="translate(280.484625 753.219335)scale(0.1 -0.1)">
      <use xlink:href="#DejaVuSans-82"/>
      <use x="65.482422" xlink:href="#DejaVuSans-65"/>
      <use x="133.890625" xlink:href="#DejaVuSans-110"/>
      <use x="197.269531" xlink:href="#DejaVuSans-107"/>
      <use x="255.179688" xlink:href="#DejaVuSans-108"/>
      <use x="282.962891" xlink:href="#DejaVuSans-101"/>
     </g>
    </g>
   </g>
   <g id="text_21">
    <g clip-path="url(#pa17b68410e)">
     <!-- RFoot -->
     <g transform="translate(278.698768 791.784168)scale(0.1 -0.1)">
      <use xlink:href="#DejaVuSans-82"/>
      <use x="69.482422" xlink:href="#DejaVuSans-70"/>
      <use x="123.376953" xlink:href="#DejaVuSans-111"/>
      <use x="184.558594" xlink:href="#DejaVuSans-111"/>
      <use x="245.740234" xlink:href="#DejaVuSans-116"/>
     </g>
    </g>
   </g>
   <g id="text_22">
    <g clip-path="url(#pa17b68410e)">
     <!-- LHandTip -->
     <g transform="translate(30.932482 491.016428)scale(0.1 -0.1)">
      <defs>
       <path d="M -0.296875 72.90625 
L 61.375 72.90625 
L 61.375 64.59375 
L 35.5 64.59375 
L 35.5 0 
L 25.59375 0 
L 25.59375 64.59375 
L -0.296875 64.59375 
z
" id="DejaVuSans-84"/>
      </defs>
      <use xlink:href="#DejaVuSans-76"/>
      <use x="55.712891" xlink:href="#DejaVuSans-72"/>
      <use x="130.908203" xlink:href="#DejaVuSans-97"/>
      <use x="192.1875" xlink:href="#DejaVuSans-110"/>
      <use x="255.566406" xlink:href="#DejaVuSans-100"/>
      <use x="319.042969" xlink:href="#DejaVuSans-84"/>
      <use x="377.001953" xlink:href="#DejaVuSans-105"/>
      <use x="404.785156" xlink:href="#DejaVuSans-112"/>
     </g>
    </g>
   </g>
   <g id="text_23">
    <g clip-path="url(#pa17b68410e)">
     <!-- LThumb -->
     <g transform="translate(65.851865 458.990381)scale(0.1 -0.1)">
      <defs>
       <path d="M 52 44.1875 
Q 55.375 50.25 60.0625 53.125 
Q 64.75 56 71.09375 56 
Q 79.640625 56 84.28125 50.015625 
Q 88.921875 44.046875 88.921875 33.015625 
L 88.921875 0 
L 79.890625 0 
L 79.890625 32.71875 
Q 79.890625 40.578125 77.09375 44.375 
Q 74.3125 48.1875 68.609375 48.1875 
Q 61.625 48.1875 57.5625 43.546875 
Q 53.515625 38.921875 53.515625 30.90625 
L 53.515625 0 
L 44.484375 0 
L 44.484375 32.71875 
Q 44.484375 40.625 41.703125 44.40625 
Q 38.921875 48.1875 33.109375 48.1875 
Q 26.21875 48.1875 22.15625 43.53125 
Q 18.109375 38.875 18.109375 30.90625 
L 18.109375 0 
L 9.078125 0 
L 9.078125 54.6875 
L 18.109375 54.6875 
L 18.109375 46.1875 
Q 21.1875 51.21875 25.484375 53.609375 
Q 29.78125 56 35.6875 56 
Q 41.65625 56 45.828125 52.96875 
Q 50 49.953125 52 44.1875 
z
" id="DejaVuSans-109"/>
      </defs>
      <use xlink:href="#DejaVuSans-76"/>
      <use x="41.962891" xlink:href="#DejaVuSans-84"/>
      <use x="103.046875" xlink:href="#DejaVuSans-104"/>
      <use x="166.425781" xlink:href="#DejaVuSans-117"/>
      <use x="229.804688" xlink:href="#DejaVuSans-109"/>
      <use x="327.216797" xlink:href="#DejaVuSans-98"/>
     </g>
    </g>
   </g>
   <g id="text_24">
    <g clip-path="url(#pa17b68410e)">
     <!-- RHandTip -->
     <g transform="translate(479.616708 435.89457)scale(0.1 -0.1)">
      <use xlink:href="#DejaVuSans-82"/>
      <use x="69.482422" xlink:href="#DejaVuSans-72"/>
      <use x="144.677734" xlink:href="#DejaVuSans-97"/>
      <use x="205.957031" xlink:href="#DejaVuSans-110"/>
      <use x="269.335938" xlink:href="#DejaVuSans-100"/>
      <use x="332.8125" xlink:href="#DejaVuSans-84"/>
      <use x="390.771484" xlink:href="#DejaVuSans-105"/>
      <use x="418.554688" xlink:href="#DejaVuSans-112"/>
     </g>
    </g>
   </g>
   <g id="text_25">
    <g clip-path="url(#pa17b68410e)">
     <!-- RThumb -->
     <g transform="translate(505.468873 395.467155)scale(0.1 -0.1)">
      <use xlink:href="#DejaVuSans-82"/>
      <use x="62.232422" xlink:href="#DejaVuSans-84"/>
      <use x="123.316406" xlink:href="#DejaVuSans-104"/>
      <use x="186.695312" xlink:href="#DejaVuSans-117"/>
      <use x="250.074219" xlink:href="#DejaVuSans-109"/>
      <use x="347.486328" xlink:href="#DejaVuSans-98"/>
     </g>
    </g>
   </g>
   <g id="text_26">
    <!-- Node Graph Visualization - Frame 126 -->
    <g transform="translate(174.194063 -6)scale(0.12 -0.12)">
     <defs>
      <path d="M 9.8125 72.90625 
L 23.09375 72.90625 
L 55.421875 11.921875 
L 55.421875 72.90625 
L 64.984375 72.90625 
L 64.984375 0 
L 51.703125 0 
L 19.390625 60.984375 
L 19.390625 0 
L 9.8125 0 
z
" id="DejaVuSans-78"/>
      <path id="DejaVuSans-32"/>
      <path d="M 59.515625 10.40625 
L 59.515625 29.984375 
L 43.40625 29.984375 
L 43.40625 38.09375 
L 69.28125 38.09375 
L 69.28125 6.78125 
Q 63.578125 2.734375 56.6875 0.65625 
Q 49.8125 -1.421875 42 -1.421875 
Q 24.90625 -1.421875 15.25 8.5625 
Q 5.609375 18.5625 5.609375 36.375 
Q 5.609375 54.25 15.25 64.234375 
Q 24.90625 74.21875 42 74.21875 
Q 49.125 74.21875 55.546875 72.453125 
Q 61.96875 70.703125 67.390625 67.28125 
L 67.390625 56.78125 
Q 61.921875 61.421875 55.765625 63.765625 
Q 49.609375 66.109375 42.828125 66.109375 
Q 29.4375 66.109375 22.71875 58.640625 
Q 16.015625 51.171875 16.015625 36.375 
Q 16.015625 21.625 22.71875 14.15625 
Q 29.4375 6.6875 42.828125 6.6875 
Q 48.046875 6.6875 52.140625 7.59375 
Q 56.25 8.5 59.515625 10.40625 
z
" id="DejaVuSans-71"/>
      <path d="M 28.609375 0 
L 0.78125 72.90625 
L 11.078125 72.90625 
L 34.1875 11.53125 
L 57.328125 72.90625 
L 67.578125 72.90625 
L 39.796875 0 
z
" id="DejaVuSans-86"/>
      <path d="M 5.515625 54.6875 
L 48.1875 54.6875 
L 48.1875 46.484375 
L 14.40625 7.171875 
L 48.1875 7.171875 
L 48.1875 0 
L 4.296875 0 
L 4.296875 8.203125 
L 38.09375 47.515625 
L 5.515625 47.515625 
z
" id="DejaVuSans-122"/>
      <path d="M 4.890625 31.390625 
L 31.203125 31.390625 
L 31.203125 23.390625 
L 4.890625 23.390625 
z
" id="DejaVuSans-45"/>
      <path d="M 12.40625 8.296875 
L 28.515625 8.296875 
L 28.515625 63.921875 
L 10.984375 60.40625 
L 10.984375 69.390625 
L 28.421875 72.90625 
L 38.28125 72.90625 
L 38.28125 8.296875 
L 54.390625 8.296875 
L 54.390625 0 
L 12.40625 0 
z
" id="DejaVuSans-49"/>
      <path d="M 19.1875 8.296875 
L 53.609375 8.296875 
L 53.609375 0 
L 7.328125 0 
L 7.328125 8.296875 
Q 12.9375 14.109375 22.625 23.890625 
Q 32.328125 33.6875 34.8125 36.53125 
Q 39.546875 41.84375 41.421875 45.53125 
Q 43.3125 49.21875 43.3125 52.78125 
Q 43.3125 58.59375 39.234375 62.25 
Q 35.15625 65.921875 28.609375 65.921875 
Q 23.96875 65.921875 18.8125 64.3125 
Q 13.671875 62.703125 7.8125 59.421875 
L 7.8125 69.390625 
Q 13.765625 71.78125 18.9375 73 
Q 24.125 74.21875 28.421875 74.21875 
Q 39.75 74.21875 46.484375 68.546875 
Q 53.21875 62.890625 53.21875 53.421875 
Q 53.21875 48.921875 51.53125 44.890625 
Q 49.859375 40.875 45.40625 35.40625 
Q 44.1875 33.984375 37.640625 27.21875 
Q 31.109375 20.453125 19.1875 8.296875 
z
" id="DejaVuSans-50"/>
      <path d="M 33.015625 40.375 
Q 26.375 40.375 22.484375 35.828125 
Q 18.609375 31.296875 18.609375 23.390625 
Q 18.609375 15.53125 22.484375 10.953125 
Q 26.375 6.390625 33.015625 6.390625 
Q 39.65625 6.390625 43.53125 10.953125 
Q 47.40625 15.53125 47.40625 23.390625 
Q 47.40625 31.296875 43.53125 35.828125 
Q 39.65625 40.375 33.015625 40.375 
z
M 52.59375 71.296875 
L 52.59375 62.3125 
Q 48.875 64.0625 45.09375 64.984375 
Q 41.3125 65.921875 37.59375 65.921875 
Q 27.828125 65.921875 22.671875 59.328125 
Q 17.53125 52.734375 16.796875 39.40625 
Q 19.671875 43.65625 24.015625 45.921875 
Q 28.375 48.1875 33.59375 48.1875 
Q 44.578125 48.1875 50.953125 41.515625 
Q 57.328125 34.859375 57.328125 23.390625 
Q 57.328125 12.15625 50.6875 5.359375 
Q 44.046875 -1.421875 33.015625 -1.421875 
Q 20.359375 -1.421875 13.671875 8.265625 
Q 6.984375 17.96875 6.984375 36.375 
Q 6.984375 53.65625 15.1875 63.9375 
Q 23.390625 74.21875 37.203125 74.21875 
Q 40.921875 74.21875 44.703125 73.484375 
Q 48.484375 72.75 52.59375 71.296875 
z
" id="DejaVuSans-54"/>
     </defs>
     <use xlink:href="#DejaVuSans-78"/>
     <use x="74.804688" xlink:href="#DejaVuSans-111"/>
     <use x="135.986328" xlink:href="#DejaVuSans-100"/>
     <use x="199.462891" xlink:href="#DejaVuSans-101"/>
     <use x="260.986328" xlink:href="#DejaVuSans-32"/>
     <use x="292.773438" xlink:href="#DejaVuSans-71"/>
     <use x="370.263672" xlink:href="#DejaVuSans-114"/>
     <use x="411.376953" xlink:href="#DejaVuSans-97"/>
     <use x="472.65625" xlink:href="#DejaVuSans-112"/>
     <use x="536.132812" xlink:href="#DejaVuSans-104"/>
     <use x="599.511719" xlink:href="#DejaVuSans-32"/>
     <use x="631.298828" xlink:href="#DejaVuSans-86"/>
     <use x="697.457031" xlink:href="#DejaVuSans-105"/>
     <use x="725.240234" xlink:href="#DejaVuSans-115"/>
     <use x="777.339844" xlink:href="#DejaVuSans-117"/>
     <use x="840.71875" xlink:href="#DejaVuSans-97"/>
     <use x="901.998047" xlink:href="#DejaVuSans-108"/>
     <use x="929.78125" xlink:href="#DejaVuSans-105"/>
     <use x="957.564453" xlink:href="#DejaVuSans-122"/>
     <use x="1010.054688" xlink:href="#DejaVuSans-97"/>
     <use x="1071.333984" xlink:href="#DejaVuSans-116"/>
     <use x="1110.542969" xlink:href="#DejaVuSans-105"/>
     <use x="1138.326172" xlink:href="#DejaVuSans-111"/>
     <use x="1199.507812" xlink:href="#DejaVuSans-110"/>
     <use x="1262.886719" xlink:href="#DejaVuSans-32"/>
     <use x="1294.673828" xlink:href="#DejaVuSans-45"/>
     <use x="1330.757812" xlink:href="#DejaVuSans-32"/>
     <use x="1362.544922" xlink:href="#DejaVuSans-70"/>
     <use x="1412.814453" xlink:href="#DejaVuSans-114"/>
     <use x="1453.927734" xlink:href="#DejaVuSans-97"/>
     <use x="1515.207031" xlink:href="#DejaVuSans-109"/>
     <use x="1612.619141" xlink:href="#DejaVuSans-101"/>
     <use x="1674.142578" xlink:href="#DejaVuSans-32"/>
     <use x="1705.929688" xlink:href="#DejaVuSans-49"/>
     <use x="1769.552734" xlink:href="#DejaVuSans-50"/>
     <use x="1833.175781" xlink:href="#DejaVuSans-54"/>
    </g>
   </g>
  </g>
 </g>
 <defs>
  <clipPath id="pa17b68410e">
   <rect height="864" width="576" x="0" y="0"/>
  </clipPath>
 </defs>
</svg>
