<?xml version="1.0" encoding="utf-8" standalone="no"?>
<!DOCTYPE svg PUBLIC "-//W3C//DTD SVG 1.1//EN"
  "http://www.w3.org/Graphics/SVG/1.1/DTD/svg11.dtd">
<!-- Created with matplotlib (https://matplotlib.org/) -->
<svg height="864pt" version="1.1" viewBox="0 0 576 864" width="576pt" xmlns="http://www.w3.org/2000/svg" xmlns:xlink="http://www.w3.org/1999/xlink">
 <metadata>
  <rdf:RDF xmlns:cc="http://creativecommons.org/ns#" xmlns:dc="http://purl.org/dc/elements/1.1/" xmlns:rdf="http://www.w3.org/1999/02/22-rdf-syntax-ns#">
   <cc:Work>
    <dc:type rdf:resource="http://purl.org/dc/dcmitype/StillImage"/>
    <dc:date>2024-02-04T22:28:03.536321</dc:date>
    <dc:format>image/svg+xml</dc:format>
    <dc:creator>
     <cc:Agent>
      <dc:title>Matplotlib v3.3.2, https://matplotlib.org/</dc:title>
     </cc:Agent>
    </dc:creator>
   </cc:Work>
  </rdf:RDF>
 </metadata>
 <defs>
  <style type="text/css">*{stroke-linecap:butt;stroke-linejoin:round;}</style>
 </defs>
 <g id="figure_1">
  <g id="patch_1">
   <path d="M 0 864 
L 576 864 
L 576 0 
L 0 0 
z
" style="fill:#ffffff;"/>
  </g>
  <g id="axes_1">
   <g id="patch_2">
    <path clip-path="url(#p55e861aa14)" d="M 281.666207 85.904021 
Q 271.238227 101.204448 261.439906 115.581009 
" style="fill:none;stroke:#000000;stroke-linecap:round;"/>
    <path clip-path="url(#p55e861aa14)" d="M 265.345306 113.402053 
L 261.439906 115.581009 
L 262.039982 111.149315 
L 265.345306 113.402053 
z
" style="stroke:#000000;stroke-linecap:round;"/>
   </g>
   <g id="patch_3">
    <path clip-path="url(#p55e861aa14)" d="M 253.463016 140.66815 
Q 253.495892 144.823882 253.519923 147.861615 
" style="fill:none;stroke:#000000;stroke-linecap:round;"/>
    <path clip-path="url(#p55e861aa14)" d="M 255.488218 143.845918 
L 253.519923 147.861615 
L 251.488343 143.877562 
L 255.488218 143.845918 
z
" style="stroke:#000000;stroke-linecap:round;"/>
   </g>
   <g id="patch_4">
    <path clip-path="url(#p55e861aa14)" d="M 260.806872 116.509826 
Q 271.234852 101.209399 281.033173 86.832838 
" style="fill:none;stroke:#000000;stroke-linecap:round;"/>
    <path clip-path="url(#p55e861aa14)" d="M 277.127773 89.011794 
L 281.033173 86.832838 
L 280.433097 91.264532 
L 277.127773 89.011794 
z
" style="stroke:#000000;stroke-linecap:round;"/>
   </g>
   <g id="patch_5">
    <path clip-path="url(#p55e861aa14)" d="M 253.351697 175.434133 
Q 252.497349 215.543735 251.666811 254.535556 
" style="fill:none;stroke:#000000;stroke-linecap:round;"/>
    <path clip-path="url(#p55e861aa14)" d="M 253.751539 250.579054 
L 251.666811 254.535556 
L 249.752446 250.493872 
L 253.751539 250.579054 
z
" style="stroke:#000000;stroke-linecap:round;"/>
   </g>
   <g id="patch_6">
    <path clip-path="url(#p55e861aa14)" d="M 240.440275 163.199581 
Q 197.764626 166.406984 156.203868 169.530594 
" style="fill:none;stroke:#000000;stroke-linecap:round;"/>
    <path clip-path="url(#p55e861aa14)" d="M 160.342511 171.225184 
L 156.203868 169.530594 
L 160.042726 167.236434 
L 160.342511 171.225184 
z
" style="stroke:#000000;stroke-linecap:round;"/>
   </g>
   <g id="patch_7">
    <path clip-path="url(#p55e861aa14)" d="M 266.821071 163.239352 
Q 319.607322 167.367487 371.278942 171.408453 
" style="fill:none;stroke:#000000;stroke-linecap:round;"/>
    <path clip-path="url(#p55e861aa14)" d="M 367.447052 169.102675 
L 371.278942 171.408453 
L 367.135185 173.090499 
L 367.447052 169.102675 
z
" style="stroke:#000000;stroke-linecap:round;"/>
   </g>
   <g id="patch_8">
    <path clip-path="url(#p55e861aa14)" d="M 253.528759 148.978506 
Q 253.495883 144.822774 253.471851 141.78504 
" style="fill:none;stroke:#000000;stroke-linecap:round;"/>
    <path clip-path="url(#p55e861aa14)" d="M 251.503557 145.800737 
L 253.471851 141.78504 
L 255.503432 145.769094 
L 251.503557 145.800737 
z
" style="stroke:#000000;stroke-linecap:round;"/>
   </g>
   <g id="patch_9">
    <path clip-path="url(#p55e861aa14)" d="M 250.775984 282.08984 
Q 248.146377 341.448388 245.566252 399.689997 
" style="fill:none;stroke:#000000;stroke-linecap:round;"/>
    <path clip-path="url(#p55e861aa14)" d="M 247.74132 395.78243 
L 245.566252 399.689997 
L 243.745239 395.605402 
L 247.74132 395.78243 
z
" style="stroke:#000000;stroke-linecap:round;"/>
   </g>
   <g id="patch_10">
    <path clip-path="url(#p55e861aa14)" d="M 251.643068 255.650227 
Q 252.497416 215.540625 253.327954 176.548804 
" style="fill:none;stroke:#000000;stroke-linecap:round;"/>
    <path clip-path="url(#p55e861aa14)" d="M 251.243226 180.505306 
L 253.327954 176.548804 
L 255.242319 180.590488 
L 251.243226 180.505306 
z
" style="stroke:#000000;stroke-linecap:round;"/>
   </g>
   <g id="patch_11">
    <path clip-path="url(#p55e861aa14)" d="M 231.701536 413.867928 
Q 211.530605 413.627741 192.477629 413.400866 
" style="fill:none;stroke:#000000;stroke-linecap:round;"/>
    <path clip-path="url(#p55e861aa14)" d="M 196.453532 415.448351 
L 192.477629 413.400866 
L 196.501159 411.448635 
L 196.453532 415.448351 
z
" style="stroke:#000000;stroke-linecap:round;"/>
   </g>
   <g id="patch_12">
    <path clip-path="url(#p55e861aa14)" d="M 258.133729 413.159252 
Q 269.732665 412.398256 280.215965 411.710455 
" style="fill:none;stroke:#000000;stroke-linecap:round;"/>
    <path clip-path="url(#p55e861aa14)" d="M 276.09361 409.976619 
L 280.215965 411.710455 
L 276.355483 413.968038 
L 276.09361 409.976619 
z
" style="stroke:#000000;stroke-linecap:round;"/>
   </g>
   <g id="patch_13">
    <path clip-path="url(#p55e861aa14)" d="M 245.516548 400.811966 
Q 248.146155 341.453418 250.72628 283.211809 
" style="fill:none;stroke:#000000;stroke-linecap:round;"/>
    <path clip-path="url(#p55e861aa14)" d="M 248.551212 287.119376 
L 250.72628 283.211809 
L 252.547293 287.296404 
L 248.551212 287.119376 
z
" style="stroke:#000000;stroke-linecap:round;"/>
   </g>
   <g id="patch_14">
    <path clip-path="url(#p55e861aa14)" d="M 134.897672 181.827507 
Q 105.06534 229.664007 75.82463 276.551832 
" style="fill:none;stroke:#000000;stroke-linecap:round;"/>
    <path clip-path="url(#p55e861aa14)" d="M 79.638324 274.21608 
L 75.82463 276.551832 
L 76.244244 272.099426 
L 79.638324 274.21608 
z
" style="stroke:#000000;stroke-linecap:round;"/>
   </g>
   <g id="patch_15">
    <path clip-path="url(#p55e861aa14)" d="M 155.088924 169.614391 
Q 197.764572 166.406988 239.325331 163.283378 
" style="fill:none;stroke:#000000;stroke-linecap:round;"/>
    <path clip-path="url(#p55e861aa14)" d="M 235.186688 161.588788 
L 239.325331 163.283378 
L 235.486473 165.577538 
L 235.186688 161.588788 
z
" style="stroke:#000000;stroke-linecap:round;"/>
   </g>
   <g id="patch_16">
    <path clip-path="url(#p55e861aa14)" d="M 66.200245 301.796255 
Q 59.108128 347.410157 52.187781 391.919298 
" style="fill:none;stroke:#000000;stroke-linecap:round;"/>
    <path clip-path="url(#p55e861aa14)" d="M 54.778579 388.274059 
L 52.187781 391.919298 
L 50.826068 387.659517 
L 54.778579 388.274059 
z
" style="stroke:#000000;stroke-linecap:round;"/>
   </g>
   <g id="patch_17">
    <path clip-path="url(#p55e861aa14)" d="M 75.230533 277.504475 
Q 105.062865 229.667975 134.303575 182.78015 
" style="fill:none;stroke:#000000;stroke-linecap:round;"/>
    <path clip-path="url(#p55e861aa14)" d="M 130.489881 185.115902 
L 134.303575 182.78015 
L 133.88396 187.232556 
L 130.489881 185.115902 
z
" style="stroke:#000000;stroke-linecap:round;"/>
   </g>
   <g id="patch_18">
    <path clip-path="url(#p55e861aa14)" d="M 53.622639 418.812161 
Q 55.331486 424.783008 56.732704 429.678977 
" style="fill:none;stroke:#000000;stroke-linecap:round;"/>
    <path clip-path="url(#p55e861aa14)" d="M 57.5549 425.28307 
L 56.732704 429.678977 
L 53.709297 426.383676 
L 57.5549 425.28307 
z
" style="stroke:#000000;stroke-linecap:round;"/>
   </g>
   <g id="patch_19">
    <path clip-path="url(#p55e861aa14)" d="M 52.01565 393.026387 
Q 59.107766 347.412485 66.028113 302.903344 
" style="fill:none;stroke:#000000;stroke-linecap:round;"/>
    <path clip-path="url(#p55e861aa14)" d="M 63.437316 306.548583 
L 66.028113 302.903344 
L 67.389826 307.163125 
L 63.437316 306.548583 
z
" style="stroke:#000000;stroke-linecap:round;"/>
   </g>
   <g id="patch_20">
    <path clip-path="url(#p55e861aa14)" d="M 60.400627 456.697206 
Q 60.258079 463.437876 60.13917 469.060762 
" style="fill:none;stroke:#000000;stroke-linecap:round;"/>
    <path clip-path="url(#p55e861aa14)" d="M 62.223293 465.103941 
L 60.13917 469.060762 
L 58.224187 465.019371 
L 62.223293 465.103941 
z
" style="stroke:#000000;stroke-linecap:round;"/>
   </g>
   <g id="patch_21">
    <path clip-path="url(#p55e861aa14)" d="M 73.86827 442.477337 
Q 74.88927 442.400316 74.795404 442.407397 
" style="fill:none;stroke:#000000;stroke-linecap:round;"/>
    <path clip-path="url(#p55e861aa14)" d="M 70.656291 440.713956 
L 74.795404 442.407397 
L 70.957184 444.702623 
L 70.656291 440.713956 
z
" style="stroke:#000000;stroke-linecap:round;"/>
   </g>
   <g id="patch_22">
    <path clip-path="url(#p55e861aa14)" d="M 57.041133 430.756652 
Q 55.332286 424.785805 53.931068 419.889836 
" style="fill:none;stroke:#000000;stroke-linecap:round;"/>
    <path clip-path="url(#p55e861aa14)" d="M 53.108872 424.285743 
L 53.931068 419.889836 
L 56.954475 423.185137 
L 53.108872 424.285743 
z
" style="stroke:#000000;stroke-linecap:round;"/>
   </g>
   <g id="patch_23">
    <path clip-path="url(#p55e861aa14)" d="M 391.12719 184.536787 
Q 409.827102 225.040086 428.058367 264.528313 
" style="fill:none;stroke:#000000;stroke-linecap:round;"/>
    <path clip-path="url(#p55e861aa14)" d="M 428.1975 260.058342 
L 428.058367 264.528313 
L 424.56587 261.735024 
L 428.1975 260.058342 
z
" style="stroke:#000000;stroke-linecap:round;"/>
   </g>
   <g id="patch_24">
    <path clip-path="url(#p55e861aa14)" d="M 372.39478 171.495717 
Q 319.60853 167.367582 267.93691 163.326616 
" style="fill:none;stroke:#000000;stroke-linecap:round;"/>
    <path clip-path="url(#p55e861aa14)" d="M 271.7688 165.632395 
L 267.93691 163.326616 
L 272.080667 161.644571 
L 271.7688 165.632395 
z
" style="stroke:#000000;stroke-linecap:round;"/>
   </g>
   <g id="patch_25">
    <path clip-path="url(#p55e861aa14)" d="M 439.188769 289.751796 
Q 455.236855 328.009852 470.852467 365.236905 
" style="fill:none;stroke:#000000;stroke-linecap:round;"/>
    <path clip-path="url(#p55e861aa14)" d="M 471.149514 360.774645 
L 470.852467 365.236905 
L 467.460888 362.321911 
L 471.149514 360.774645 
z
" style="stroke:#000000;stroke-linecap:round;"/>
   </g>
   <g id="patch_26">
    <path clip-path="url(#p55e861aa14)" d="M 428.527292 265.543987 
Q 409.82738 225.040688 391.596115 185.55246 
" style="fill:none;stroke:#000000;stroke-linecap:round;"/>
    <path clip-path="url(#p55e861aa14)" d="M 391.456983 190.022431 
L 391.596115 185.55246 
L 395.088613 188.345749 
L 391.456983 190.022431 
z
" style="stroke:#000000;stroke-linecap:round;"/>
   </g>
   <g id="patch_27">
    <path clip-path="url(#p55e861aa14)" d="M 483.455536 389.653762 
Q 486.655977 394.730078 489.260149 398.860633 
" style="fill:none;stroke:#000000;stroke-linecap:round;"/>
    <path clip-path="url(#p55e861aa14)" d="M 488.818699 394.410338 
L 489.260149 398.860633 
L 485.435043 396.543616 
L 488.818699 394.410338 
z
" style="stroke:#000000;stroke-linecap:round;"/>
   </g>
   <g id="patch_28">
    <path clip-path="url(#p55e861aa14)" d="M 471.284211 366.266167 
Q 455.236125 328.008112 439.620513 290.781059 
" style="fill:none;stroke:#000000;stroke-linecap:round;"/>
    <path clip-path="url(#p55e861aa14)" d="M 439.323466 295.243319 
L 439.620513 290.781059 
L 443.012093 293.696052 
L 439.323466 295.243319 
z
" style="stroke:#000000;stroke-linecap:round;"/>
   </g>
   <g id="patch_29">
    <path clip-path="url(#p55e861aa14)" d="M 494.116526 412.330565 
Q 496.724633 419.998065 498.972699 426.607091 
" style="fill:none;stroke:#000000;stroke-linecap:round;"/>
    <path clip-path="url(#p55e861aa14)" d="M 499.578034 422.176112 
L 498.972699 426.607091 
L 495.791117 423.464235 
L 499.578034 422.176112 
z
" style="stroke:#000000;stroke-linecap:round;"/>
   </g>
   <g id="patch_30">
    <path clip-path="url(#p55e861aa14)" d="M 503.076576 400.358061 
Q 507.939275 400.560978 511.684912 400.71728 
" style="fill:none;stroke:#000000;stroke-linecap:round;"/>
    <path clip-path="url(#p55e861aa14)" d="M 507.771776 398.552247 
L 511.684912 400.71728 
L 507.605004 402.548769 
L 507.771776 398.552247 
z
" style="stroke:#000000;stroke-linecap:round;"/>
   </g>
   <g id="patch_31">
    <path clip-path="url(#p55e861aa14)" d="M 482.801815 388.616876 
Q 479.601374 383.54056 476.997202 379.410005 
" style="fill:none;stroke:#000000;stroke-linecap:round;"/>
    <path clip-path="url(#p55e861aa14)" d="M 477.438651 383.8603 
L 476.997202 379.410005 
L 480.822307 381.727022 
L 477.438651 383.8603 
z
" style="stroke:#000000;stroke-linecap:round;"/>
   </g>
   <g id="patch_32">
    <path clip-path="url(#p55e861aa14)" d="M 176.543252 426.367389 
Q 168.884823 489.586868 161.36085 551.696427 
" style="fill:none;stroke:#000000;stroke-linecap:round;"/>
    <path clip-path="url(#p55e861aa14)" d="M 163.827379 547.96598 
L 161.36085 551.696427 
L 159.85641 547.484936 
L 163.827379 547.96598 
z
" style="stroke:#000000;stroke-linecap:round;"/>
   </g>
   <g id="patch_33">
    <path clip-path="url(#p55e861aa14)" d="M 191.364359 413.38761 
Q 211.53529 413.627796 230.588266 413.854671 
" style="fill:none;stroke:#000000;stroke-linecap:round;"/>
    <path clip-path="url(#p55e861aa14)" d="M 226.612363 411.807186 
L 230.588266 413.854671 
L 226.564736 415.806903 
L 226.612363 411.807186 
z
" style="stroke:#000000;stroke-linecap:round;"/>
   </g>
   <g id="patch_34">
    <path clip-path="url(#p55e861aa14)" d="M 160.767452 579.116755 
Q 167.64419 659.188688 174.425262 738.146688 
" style="fill:none;stroke:#000000;stroke-linecap:round;"/>
    <path clip-path="url(#p55e861aa14)" d="M 176.075659 733.990224 
L 174.425262 738.146688 
L 172.090329 734.332493 
L 176.075659 733.990224 
z
" style="stroke:#000000;stroke-linecap:round;"/>
   </g>
   <g id="patch_35">
    <path clip-path="url(#p55e861aa14)" d="M 161.227087 552.800626 
Q 168.885516 489.581147 176.409489 427.471588 
" style="fill:none;stroke:#000000;stroke-linecap:round;"/>
    <path clip-path="url(#p55e861aa14)" d="M 173.94296 431.202035 
L 176.409489 427.471588 
L 177.913929 431.683079 
L 173.94296 431.202035 
z
" style="stroke:#000000;stroke-linecap:round;"/>
   </g>
   <g id="patch_36">
    <path clip-path="url(#p55e861aa14)" d="M 176.558755 765.636215 
Q 176.908534 770.731054 177.181737 774.710484 
" style="fill:none;stroke:#000000;stroke-linecap:round;"/>
    <path clip-path="url(#p55e861aa14)" d="M 178.90307 770.582892 
L 177.181737 774.710484 
L 174.912464 770.856862 
L 178.90307 770.582892 
z
" style="stroke:#000000;stroke-linecap:round;"/>
   </g>
   <g id="patch_37">
    <path clip-path="url(#p55e861aa14)" d="M 174.520901 739.260292 
Q 167.644162 659.188358 160.86309 580.230358 
" style="fill:none;stroke:#000000;stroke-linecap:round;"/>
    <path clip-path="url(#p55e861aa14)" d="M 159.212694 584.386822 
L 160.86309 580.230358 
L 163.198023 584.044554 
L 159.212694 584.386822 
z
" style="stroke:#000000;stroke-linecap:round;"/>
   </g>
   <g id="patch_38">
    <path clip-path="url(#p55e861aa14)" d="M 177.258437 775.827686 
Q 176.908658 770.732848 176.635455 766.753418 
" style="fill:none;stroke:#000000;stroke-linecap:round;"/>
    <path clip-path="url(#p55e861aa14)" d="M 174.914122 770.881009 
L 176.635455 766.753418 
L 178.904728 770.607039 
L 174.914122 770.881009 
z
" style="stroke:#000000;stroke-linecap:round;"/>
   </g>
   <g id="patch_39">
    <path clip-path="url(#p55e861aa14)" d="M 296.869414 423.793686 
Q 307.058238 480.566416 317.049566 536.238694 
" style="fill:none;stroke:#000000;stroke-linecap:round;"/>
    <path clip-path="url(#p55e861aa14)" d="M 318.311537 531.948306 
L 317.049566 536.238694 
L 314.374438 532.654885 
L 318.311537 531.948306 
z
" style="stroke:#000000;stroke-linecap:round;"/>
   </g>
   <g id="patch_40">
    <path clip-path="url(#p55e861aa14)" d="M 281.329761 411.637379 
Q 269.730825 412.398376 259.247524 413.086177 
" style="fill:none;stroke:#000000;stroke-linecap:round;"/>
    <path clip-path="url(#p55e861aa14)" d="M 263.36988 414.820013 
L 259.247524 413.086177 
L 263.108006 410.828594 
L 263.36988 414.820013 
z
" style="stroke:#000000;stroke-linecap:round;"/>
   </g>
   <g id="patch_41">
    <path clip-path="url(#p55e861aa14)" d="M 313.933472 562.317652 
Q 289.081516 614.913096 264.707206 666.497673 
" style="fill:none;stroke:#000000;stroke-linecap:round;"/>
    <path clip-path="url(#p55e861aa14)" d="M 268.224382 663.735523 
L 264.707206 666.497673 
L 264.607792 662.026642 
L 268.224382 663.735523 
z
" style="stroke:#000000;stroke-linecap:round;"/>
   </g>
   <g id="patch_42">
    <path clip-path="url(#p55e861aa14)" d="M 317.246688 537.337067 
Q 307.057865 480.564337 297.066536 424.892059 
" style="fill:none;stroke:#000000;stroke-linecap:round;"/>
    <path clip-path="url(#p55e861aa14)" d="M 295.804565 429.182447 
L 297.066536 424.892059 
L 299.741664 428.475869 
L 295.804565 429.182447 
z
" style="stroke:#000000;stroke-linecap:round;"/>
   </g>
   <g id="patch_43">
    <path clip-path="url(#p55e861aa14)" d="M 249.463952 689.056258 
Q 235.088979 704.178744 221.484294 718.490886 
" style="fill:none;stroke:#000000;stroke-linecap:round;"/>
    <path clip-path="url(#p55e861aa14)" d="M 225.689746 716.969646 
L 221.484294 718.490886 
L 222.790573 714.21378 
L 225.689746 716.969646 
z
" style="stroke:#000000;stroke-linecap:round;"/>
   </g>
   <g id="patch_44">
    <path clip-path="url(#p55e861aa14)" d="M 264.229218 667.509262 
Q 289.081174 614.913818 313.455484 563.329241 
" style="fill:none;stroke:#000000;stroke-linecap:round;"/>
    <path clip-path="url(#p55e861aa14)" d="M 309.938308 566.091391 
L 313.455484 563.329241 
L 313.554898 567.800272 
L 309.938308 566.091391 
z
" style="stroke:#000000;stroke-linecap:round;"/>
   </g>
   <g id="patch_45">
    <path clip-path="url(#p55e861aa14)" d="M 220.717055 719.298023 
Q 235.092028 704.175537 248.696713 689.863394 
" style="fill:none;stroke:#000000;stroke-linecap:round;"/>
    <path clip-path="url(#p55e861aa14)" d="M 244.491261 691.384635 
L 248.696713 689.863394 
L 247.390434 694.1405 
L 244.491261 691.384635 
z
" style="stroke:#000000;stroke-linecap:round;"/>
   </g>
   <g id="patch_46">
    <path clip-path="url(#p55e861aa14)" d="M 60.115489 470.180573 
Q 60.258036 463.439903 60.376946 457.817018 
" style="fill:none;stroke:#000000;stroke-linecap:round;"/>
    <path clip-path="url(#p55e861aa14)" d="M 58.292822 461.773838 
L 60.376946 457.817018 
L 62.291928 461.858409 
L 58.292822 461.773838 
z
" style="stroke:#000000;stroke-linecap:round;"/>
   </g>
   <g id="patch_47">
    <path clip-path="url(#p55e861aa14)" d="M 75.915337 442.322913 
Q 74.894337 442.399934 74.988203 442.392853 
" style="fill:none;stroke:#000000;stroke-linecap:round;"/>
    <path clip-path="url(#p55e861aa14)" d="M 79.127316 444.086293 
L 74.988203 442.392853 
L 78.826423 440.097626 
L 79.127316 444.086293 
z
" style="stroke:#000000;stroke-linecap:round;"/>
   </g>
   <g id="patch_48">
    <path clip-path="url(#p55e861aa14)" d="M 499.333292 427.66719 
Q 496.725185 419.999689 494.47712 413.390664 
" style="fill:none;stroke:#000000;stroke-linecap:round;"/>
    <path clip-path="url(#p55e861aa14)" d="M 493.871784 417.821642 
L 494.47712 413.390664 
L 497.658701 416.533519 
L 493.871784 417.821642 
z
" style="stroke:#000000;stroke-linecap:round;"/>
   </g>
   <g id="patch_49">
    <path clip-path="url(#p55e861aa14)" d="M 512.796371 400.763661 
Q 507.933673 400.560744 504.188036 400.404441 
" style="fill:none;stroke:#000000;stroke-linecap:round;"/>
    <path clip-path="url(#p55e861aa14)" d="M 508.101171 402.569474 
L 504.188036 400.404441 
L 508.267943 398.572952 
L 508.101171 402.569474 
z
" style="stroke:#000000;stroke-linecap:round;"/>
   </g>
   <g id="PathCollection_1">
    <defs>
     <path d="M 0 13.228757 
C 3.508307 13.228757 6.873396 11.834891 9.354143 9.354143 
C 11.834891 6.873396 13.228757 3.508307 13.228757 0 
C 13.228757 -3.508307 11.834891 -6.873396 9.354143 -9.354143 
C 6.873396 -11.834891 3.508307 -13.228757 0 -13.228757 
C -3.508307 -13.228757 -6.873396 -11.834891 -9.354143 -9.354143 
C -11.834891 -6.873396 -13.228757 -3.508307 -13.228757 0 
C -13.228757 3.508307 -11.834891 6.873396 -9.354143 9.354143 
C -6.873396 11.834891 -3.508307 13.228757 0 13.228757 
z
" id="md24af958d6" style="stroke:#87ceeb;"/>
    </defs>
    <g clip-path="url(#p55e861aa14)">
     <use style="fill:#87ceeb;stroke:#87ceeb;" x="289.114722" xlink:href="#md24af958d6" y="74.975207"/>
     <use style="fill:#87ceeb;stroke:#87ceeb;" x="253.358357" xlink:href="#md24af958d6" y="127.43864"/>
     <use style="fill:#87ceeb;stroke:#87ceeb;" x="253.633418" xlink:href="#md24af958d6" y="162.208015"/>
     <use style="fill:#87ceeb;stroke:#87ceeb;" x="251.361347" xlink:href="#md24af958d6" y="268.876345"/>
     <use style="fill:#87ceeb;stroke:#87ceeb;" x="244.931185" xlink:href="#md24af958d6" y="414.025461"/>
     <use style="fill:#87ceeb;stroke:#87ceeb;" x="141.895781" xlink:href="#md24af958d6" y="170.605957"/>
     <use style="fill:#87ceeb;stroke:#87ceeb;" x="68.232424" xlink:href="#md24af958d6" y="288.726025"/>
     <use style="fill:#87ceeb;stroke:#87ceeb;" x="49.983471" xlink:href="#md24af958d6" y="406.096616"/>
     <use style="fill:#87ceeb;stroke:#87ceeb;" x="60.680301" xlink:href="#md24af958d6" y="443.472197"/>
     <use style="fill:#87ceeb;stroke:#87ceeb;" x="385.582434" xlink:href="#md24af958d6" y="172.527054"/>
     <use style="fill:#87ceeb;stroke:#87ceeb;" x="434.072048" xlink:href="#md24af958d6" y="277.553719"/>
     <use style="fill:#87ceeb;stroke:#87ceeb;" x="476.400932" xlink:href="#md24af958d6" y="378.464245"/>
     <use style="fill:#87ceeb;stroke:#87ceeb;" x="489.856418" xlink:href="#md24af958d6" y="399.806393"/>
     <use style="fill:#87ceeb;stroke:#87ceeb;" x="178.13471" xlink:href="#md24af958d6" y="413.230076"/>
     <use style="fill:#87ceeb;stroke:#87ceeb;" x="159.635629" xlink:href="#md24af958d6" y="565.937939"/>
     <use style="fill:#87ceeb;stroke:#87ceeb;" x="175.652724" xlink:href="#md24af958d6" y="752.439108"/>
     <use style="fill:#87ceeb;stroke:#87ceeb;" x="178.164468" xlink:href="#md24af958d6" y="789.024793"/>
     <use style="fill:#87ceeb;stroke:#87ceeb;" x="294.532305" xlink:href="#md24af958d6" y="410.771171"/>
     <use style="fill:#87ceeb;stroke:#87ceeb;" x="319.583798" xlink:href="#md24af958d6" y="550.359582"/>
     <use style="fill:#87ceeb;stroke:#87ceeb;" x="258.578892" xlink:href="#md24af958d6" y="679.467332"/>
     <use style="fill:#87ceeb;stroke:#87ceeb;" x="211.602115" xlink:href="#md24af958d6" y="728.886948"/>
     <use style="fill:#87ceeb;stroke:#87ceeb;" x="59.835814" xlink:href="#md24af958d6" y="483.405582"/>
     <use style="fill:#87ceeb;stroke:#87ceeb;" x="89.103306" xlink:href="#md24af958d6" y="441.328052"/>
     <use style="fill:#87ceeb;stroke:#87ceeb;" x="503.5934" xlink:href="#md24af958d6" y="440.191361"/>
     <use style="fill:#87ceeb;stroke:#87ceeb;" x="526.016529" xlink:href="#md24af958d6" y="401.315328"/>
    </g>
   </g>
   <g id="text_1">
    <g clip-path="url(#p55e861aa14)">
     <!-- Head -->
     <g transform="translate(276.039722 77.734582)scale(0.1 -0.1)">
      <defs>
       <path d="M 9.8125 72.90625 
L 19.671875 72.90625 
L 19.671875 43.015625 
L 55.515625 43.015625 
L 55.515625 72.90625 
L 65.375 72.90625 
L 65.375 0 
L 55.515625 0 
L 55.515625 34.71875 
L 19.671875 34.71875 
L 19.671875 0 
L 9.8125 0 
z
" id="DejaVuSans-72"/>
       <path d="M 56.203125 29.59375 
L 56.203125 25.203125 
L 14.890625 25.203125 
Q 15.484375 15.921875 20.484375 11.0625 
Q 25.484375 6.203125 34.421875 6.203125 
Q 39.59375 6.203125 44.453125 7.46875 
Q 49.3125 8.734375 54.109375 11.28125 
L 54.109375 2.78125 
Q 49.265625 0.734375 44.1875 -0.34375 
Q 39.109375 -1.421875 33.890625 -1.421875 
Q 20.796875 -1.421875 13.15625 6.1875 
Q 5.515625 13.8125 5.515625 26.8125 
Q 5.515625 40.234375 12.765625 48.109375 
Q 20.015625 56 32.328125 56 
Q 43.359375 56 49.78125 48.890625 
Q 56.203125 41.796875 56.203125 29.59375 
z
M 47.21875 32.234375 
Q 47.125 39.59375 43.09375 43.984375 
Q 39.0625 48.390625 32.421875 48.390625 
Q 24.90625 48.390625 20.390625 44.140625 
Q 15.875 39.890625 15.1875 32.171875 
z
" id="DejaVuSans-101"/>
       <path d="M 34.28125 27.484375 
Q 23.390625 27.484375 19.1875 25 
Q 14.984375 22.515625 14.984375 16.5 
Q 14.984375 11.71875 18.140625 8.90625 
Q 21.296875 6.109375 26.703125 6.109375 
Q 34.1875 6.109375 38.703125 11.40625 
Q 43.21875 16.703125 43.21875 25.484375 
L 43.21875 27.484375 
z
M 52.203125 31.203125 
L 52.203125 0 
L 43.21875 0 
L 43.21875 8.296875 
Q 40.140625 3.328125 35.546875 0.953125 
Q 30.953125 -1.421875 24.3125 -1.421875 
Q 15.921875 -1.421875 10.953125 3.296875 
Q 6 8.015625 6 15.921875 
Q 6 25.140625 12.171875 29.828125 
Q 18.359375 34.515625 30.609375 34.515625 
L 43.21875 34.515625 
L 43.21875 35.40625 
Q 43.21875 41.609375 39.140625 45 
Q 35.0625 48.390625 27.6875 48.390625 
Q 23 48.390625 18.546875 47.265625 
Q 14.109375 46.140625 10.015625 43.890625 
L 10.015625 52.203125 
Q 14.9375 54.109375 19.578125 55.046875 
Q 24.21875 56 28.609375 56 
Q 40.484375 56 46.34375 49.84375 
Q 52.203125 43.703125 52.203125 31.203125 
z
" id="DejaVuSans-97"/>
       <path d="M 45.40625 46.390625 
L 45.40625 75.984375 
L 54.390625 75.984375 
L 54.390625 0 
L 45.40625 0 
L 45.40625 8.203125 
Q 42.578125 3.328125 38.25 0.953125 
Q 33.9375 -1.421875 27.875 -1.421875 
Q 17.96875 -1.421875 11.734375 6.484375 
Q 5.515625 14.40625 5.515625 27.296875 
Q 5.515625 40.1875 11.734375 48.09375 
Q 17.96875 56 27.875 56 
Q 33.9375 56 38.25 53.625 
Q 42.578125 51.265625 45.40625 46.390625 
z
M 14.796875 27.296875 
Q 14.796875 17.390625 18.875 11.75 
Q 22.953125 6.109375 30.078125 6.109375 
Q 37.203125 6.109375 41.296875 11.75 
Q 45.40625 17.390625 45.40625 27.296875 
Q 45.40625 37.203125 41.296875 42.84375 
Q 37.203125 48.484375 30.078125 48.484375 
Q 22.953125 48.484375 18.875 42.84375 
Q 14.796875 37.203125 14.796875 27.296875 
z
" id="DejaVuSans-100"/>
      </defs>
      <use xlink:href="#DejaVuSans-72"/>
      <use x="75.195312" xlink:href="#DejaVuSans-101"/>
      <use x="136.71875" xlink:href="#DejaVuSans-97"/>
      <use x="197.998047" xlink:href="#DejaVuSans-100"/>
     </g>
    </g>
   </g>
   <g id="text_2">
    <g clip-path="url(#p55e861aa14)">
     <!-- c7 -->
     <g transform="translate(247.427888 130.198015)scale(0.1 -0.1)">
      <defs>
       <path d="M 48.78125 52.59375 
L 48.78125 44.1875 
Q 44.96875 46.296875 41.140625 47.34375 
Q 37.3125 48.390625 33.40625 48.390625 
Q 24.65625 48.390625 19.8125 42.84375 
Q 14.984375 37.3125 14.984375 27.296875 
Q 14.984375 17.28125 19.8125 11.734375 
Q 24.65625 6.203125 33.40625 6.203125 
Q 37.3125 6.203125 41.140625 7.25 
Q 44.96875 8.296875 48.78125 10.40625 
L 48.78125 2.09375 
Q 45.015625 0.34375 40.984375 -0.53125 
Q 36.96875 -1.421875 32.421875 -1.421875 
Q 20.0625 -1.421875 12.78125 6.34375 
Q 5.515625 14.109375 5.515625 27.296875 
Q 5.515625 40.671875 12.859375 48.328125 
Q 20.21875 56 33.015625 56 
Q 37.15625 56 41.109375 55.140625 
Q 45.0625 54.296875 48.78125 52.59375 
z
" id="DejaVuSans-99"/>
       <path d="M 8.203125 72.90625 
L 55.078125 72.90625 
L 55.078125 68.703125 
L 28.609375 0 
L 18.3125 0 
L 43.21875 64.59375 
L 8.203125 64.59375 
z
" id="DejaVuSans-55"/>
      </defs>
      <use xlink:href="#DejaVuSans-99"/>
      <use x="54.980469" xlink:href="#DejaVuSans-55"/>
     </g>
    </g>
   </g>
   <g id="text_3">
    <g clip-path="url(#p55e861aa14)">
     <!-- SpineShoulder -->
     <g transform="translate(217.384199 164.96739)scale(0.1 -0.1)">
      <defs>
       <path d="M 53.515625 70.515625 
L 53.515625 60.890625 
Q 47.90625 63.578125 42.921875 64.890625 
Q 37.9375 66.21875 33.296875 66.21875 
Q 25.25 66.21875 20.875 63.09375 
Q 16.5 59.96875 16.5 54.203125 
Q 16.5 49.359375 19.40625 46.890625 
Q 22.3125 44.4375 30.421875 42.921875 
L 36.375 41.703125 
Q 47.40625 39.59375 52.65625 34.296875 
Q 57.90625 29 57.90625 20.125 
Q 57.90625 9.515625 50.796875 4.046875 
Q 43.703125 -1.421875 29.984375 -1.421875 
Q 24.8125 -1.421875 18.96875 -0.25 
Q 13.140625 0.921875 6.890625 3.21875 
L 6.890625 13.375 
Q 12.890625 10.015625 18.65625 8.296875 
Q 24.421875 6.59375 29.984375 6.59375 
Q 38.421875 6.59375 43.015625 9.90625 
Q 47.609375 13.234375 47.609375 19.390625 
Q 47.609375 24.75 44.3125 27.78125 
Q 41.015625 30.8125 33.5 32.328125 
L 27.484375 33.5 
Q 16.453125 35.6875 11.515625 40.375 
Q 6.59375 45.0625 6.59375 53.421875 
Q 6.59375 63.09375 13.40625 68.65625 
Q 20.21875 74.21875 32.171875 74.21875 
Q 37.3125 74.21875 42.625 73.28125 
Q 47.953125 72.359375 53.515625 70.515625 
z
" id="DejaVuSans-83"/>
       <path d="M 18.109375 8.203125 
L 18.109375 -20.796875 
L 9.078125 -20.796875 
L 9.078125 54.6875 
L 18.109375 54.6875 
L 18.109375 46.390625 
Q 20.953125 51.265625 25.265625 53.625 
Q 29.59375 56 35.59375 56 
Q 45.5625 56 51.78125 48.09375 
Q 58.015625 40.1875 58.015625 27.296875 
Q 58.015625 14.40625 51.78125 6.484375 
Q 45.5625 -1.421875 35.59375 -1.421875 
Q 29.59375 -1.421875 25.265625 0.953125 
Q 20.953125 3.328125 18.109375 8.203125 
z
M 48.6875 27.296875 
Q 48.6875 37.203125 44.609375 42.84375 
Q 40.53125 48.484375 33.40625 48.484375 
Q 26.265625 48.484375 22.1875 42.84375 
Q 18.109375 37.203125 18.109375 27.296875 
Q 18.109375 17.390625 22.1875 11.75 
Q 26.265625 6.109375 33.40625 6.109375 
Q 40.53125 6.109375 44.609375 11.75 
Q 48.6875 17.390625 48.6875 27.296875 
z
" id="DejaVuSans-112"/>
       <path d="M 9.421875 54.6875 
L 18.40625 54.6875 
L 18.40625 0 
L 9.421875 0 
z
M 9.421875 75.984375 
L 18.40625 75.984375 
L 18.40625 64.59375 
L 9.421875 64.59375 
z
" id="DejaVuSans-105"/>
       <path d="M 54.890625 33.015625 
L 54.890625 0 
L 45.90625 0 
L 45.90625 32.71875 
Q 45.90625 40.484375 42.875 44.328125 
Q 39.84375 48.1875 33.796875 48.1875 
Q 26.515625 48.1875 22.3125 43.546875 
Q 18.109375 38.921875 18.109375 30.90625 
L 18.109375 0 
L 9.078125 0 
L 9.078125 54.6875 
L 18.109375 54.6875 
L 18.109375 46.1875 
Q 21.34375 51.125 25.703125 53.5625 
Q 30.078125 56 35.796875 56 
Q 45.21875 56 50.046875 50.171875 
Q 54.890625 44.34375 54.890625 33.015625 
z
" id="DejaVuSans-110"/>
       <path d="M 54.890625 33.015625 
L 54.890625 0 
L 45.90625 0 
L 45.90625 32.71875 
Q 45.90625 40.484375 42.875 44.328125 
Q 39.84375 48.1875 33.796875 48.1875 
Q 26.515625 48.1875 22.3125 43.546875 
Q 18.109375 38.921875 18.109375 30.90625 
L 18.109375 0 
L 9.078125 0 
L 9.078125 75.984375 
L 18.109375 75.984375 
L 18.109375 46.1875 
Q 21.34375 51.125 25.703125 53.5625 
Q 30.078125 56 35.796875 56 
Q 45.21875 56 50.046875 50.171875 
Q 54.890625 44.34375 54.890625 33.015625 
z
" id="DejaVuSans-104"/>
       <path d="M 30.609375 48.390625 
Q 23.390625 48.390625 19.1875 42.75 
Q 14.984375 37.109375 14.984375 27.296875 
Q 14.984375 17.484375 19.15625 11.84375 
Q 23.34375 6.203125 30.609375 6.203125 
Q 37.796875 6.203125 41.984375 11.859375 
Q 46.1875 17.53125 46.1875 27.296875 
Q 46.1875 37.015625 41.984375 42.703125 
Q 37.796875 48.390625 30.609375 48.390625 
z
M 30.609375 56 
Q 42.328125 56 49.015625 48.375 
Q 55.71875 40.765625 55.71875 27.296875 
Q 55.71875 13.875 49.015625 6.21875 
Q 42.328125 -1.421875 30.609375 -1.421875 
Q 18.84375 -1.421875 12.171875 6.21875 
Q 5.515625 13.875 5.515625 27.296875 
Q 5.515625 40.765625 12.171875 48.375 
Q 18.84375 56 30.609375 56 
z
" id="DejaVuSans-111"/>
       <path d="M 8.5 21.578125 
L 8.5 54.6875 
L 17.484375 54.6875 
L 17.484375 21.921875 
Q 17.484375 14.15625 20.5 10.265625 
Q 23.53125 6.390625 29.59375 6.390625 
Q 36.859375 6.390625 41.078125 11.03125 
Q 45.3125 15.671875 45.3125 23.6875 
L 45.3125 54.6875 
L 54.296875 54.6875 
L 54.296875 0 
L 45.3125 0 
L 45.3125 8.40625 
Q 42.046875 3.421875 37.71875 1 
Q 33.40625 -1.421875 27.6875 -1.421875 
Q 18.265625 -1.421875 13.375 4.4375 
Q 8.5 10.296875 8.5 21.578125 
z
M 31.109375 56 
z
" id="DejaVuSans-117"/>
       <path d="M 9.421875 75.984375 
L 18.40625 75.984375 
L 18.40625 0 
L 9.421875 0 
z
" id="DejaVuSans-108"/>
       <path d="M 41.109375 46.296875 
Q 39.59375 47.171875 37.8125 47.578125 
Q 36.03125 48 33.890625 48 
Q 26.265625 48 22.1875 43.046875 
Q 18.109375 38.09375 18.109375 28.8125 
L 18.109375 0 
L 9.078125 0 
L 9.078125 54.6875 
L 18.109375 54.6875 
L 18.109375 46.1875 
Q 20.953125 51.171875 25.484375 53.578125 
Q 30.03125 56 36.53125 56 
Q 37.453125 56 38.578125 55.875 
Q 39.703125 55.765625 41.0625 55.515625 
z
" id="DejaVuSans-114"/>
      </defs>
      <use xlink:href="#DejaVuSans-83"/>
      <use x="63.476562" xlink:href="#DejaVuSans-112"/>
      <use x="126.953125" xlink:href="#DejaVuSans-105"/>
      <use x="154.736328" xlink:href="#DejaVuSans-110"/>
      <use x="218.115234" xlink:href="#DejaVuSans-101"/>
      <use x="279.638672" xlink:href="#DejaVuSans-83"/>
      <use x="343.115234" xlink:href="#DejaVuSans-104"/>
      <use x="406.494141" xlink:href="#DejaVuSans-111"/>
      <use x="467.675781" xlink:href="#DejaVuSans-117"/>
      <use x="531.054688" xlink:href="#DejaVuSans-108"/>
      <use x="558.837891" xlink:href="#DejaVuSans-100"/>
      <use x="622.314453" xlink:href="#DejaVuSans-101"/>
      <use x="683.837891" xlink:href="#DejaVuSans-114"/>
     </g>
    </g>
   </g>
   <g id="text_4">
    <g clip-path="url(#p55e861aa14)">
     <!-- Spine -->
     <g transform="translate(237.378534 271.63572)scale(0.1 -0.1)">
      <use xlink:href="#DejaVuSans-83"/>
      <use x="63.476562" xlink:href="#DejaVuSans-112"/>
      <use x="126.953125" xlink:href="#DejaVuSans-105"/>
      <use x="154.736328" xlink:href="#DejaVuSans-110"/>
      <use x="218.115234" xlink:href="#DejaVuSans-101"/>
     </g>
    </g>
   </g>
   <g id="text_5">
    <g clip-path="url(#p55e861aa14)">
     <!-- Sacr -->
     <g transform="translate(233.888216 416.784836)scale(0.1 -0.1)">
      <use xlink:href="#DejaVuSans-83"/>
      <use x="63.476562" xlink:href="#DejaVuSans-97"/>
      <use x="124.755859" xlink:href="#DejaVuSans-99"/>
      <use x="179.736328" xlink:href="#DejaVuSans-114"/>
     </g>
    </g>
   </g>
   <g id="text_6">
    <g clip-path="url(#p55e861aa14)">
     <!-- LShoulder -->
     <g transform="translate(116.843437 173.365332)scale(0.1 -0.1)">
      <defs>
       <path d="M 9.8125 72.90625 
L 19.671875 72.90625 
L 19.671875 8.296875 
L 55.171875 8.296875 
L 55.171875 0 
L 9.8125 0 
z
" id="DejaVuSans-76"/>
      </defs>
      <use xlink:href="#DejaVuSans-76"/>
      <use x="55.712891" xlink:href="#DejaVuSans-83"/>
      <use x="119.189453" xlink:href="#DejaVuSans-104"/>
      <use x="182.568359" xlink:href="#DejaVuSans-111"/>
      <use x="243.75" xlink:href="#DejaVuSans-117"/>
      <use x="307.128906" xlink:href="#DejaVuSans-108"/>
      <use x="334.912109" xlink:href="#DejaVuSans-100"/>
      <use x="398.388672" xlink:href="#DejaVuSans-101"/>
      <use x="459.912109" xlink:href="#DejaVuSans-114"/>
     </g>
    </g>
   </g>
   <g id="text_7">
    <g clip-path="url(#p55e861aa14)">
     <!-- LElbow -->
     <g transform="translate(50.575392 291.4854)scale(0.1 -0.1)">
      <defs>
       <path d="M 9.8125 72.90625 
L 55.90625 72.90625 
L 55.90625 64.59375 
L 19.671875 64.59375 
L 19.671875 43.015625 
L 54.390625 43.015625 
L 54.390625 34.71875 
L 19.671875 34.71875 
L 19.671875 8.296875 
L 56.78125 8.296875 
L 56.78125 0 
L 9.8125 0 
z
" id="DejaVuSans-69"/>
       <path d="M 48.6875 27.296875 
Q 48.6875 37.203125 44.609375 42.84375 
Q 40.53125 48.484375 33.40625 48.484375 
Q 26.265625 48.484375 22.1875 42.84375 
Q 18.109375 37.203125 18.109375 27.296875 
Q 18.109375 17.390625 22.1875 11.75 
Q 26.265625 6.109375 33.40625 6.109375 
Q 40.53125 6.109375 44.609375 11.75 
Q 48.6875 17.390625 48.6875 27.296875 
z
M 18.109375 46.390625 
Q 20.953125 51.265625 25.265625 53.625 
Q 29.59375 56 35.59375 56 
Q 45.5625 56 51.78125 48.09375 
Q 58.015625 40.1875 58.015625 27.296875 
Q 58.015625 14.40625 51.78125 6.484375 
Q 45.5625 -1.421875 35.59375 -1.421875 
Q 29.59375 -1.421875 25.265625 0.953125 
Q 20.953125 3.328125 18.109375 8.203125 
L 18.109375 0 
L 9.078125 0 
L 9.078125 75.984375 
L 18.109375 75.984375 
z
" id="DejaVuSans-98"/>
       <path d="M 4.203125 54.6875 
L 13.1875 54.6875 
L 24.421875 12.015625 
L 35.59375 54.6875 
L 46.1875 54.6875 
L 57.421875 12.015625 
L 68.609375 54.6875 
L 77.59375 54.6875 
L 63.28125 0 
L 52.6875 0 
L 40.921875 44.828125 
L 29.109375 0 
L 18.5 0 
z
" id="DejaVuSans-119"/>
      </defs>
      <use xlink:href="#DejaVuSans-76"/>
      <use x="55.712891" xlink:href="#DejaVuSans-69"/>
      <use x="118.896484" xlink:href="#DejaVuSans-108"/>
      <use x="146.679688" xlink:href="#DejaVuSans-98"/>
      <use x="210.15625" xlink:href="#DejaVuSans-111"/>
      <use x="271.337891" xlink:href="#DejaVuSans-119"/>
     </g>
    </g>
   </g>
   <g id="text_8">
    <g clip-path="url(#p55e861aa14)">
     <!-- LWrist -->
     <g transform="translate(34.925659 408.855991)scale(0.1 -0.1)">
      <defs>
       <path d="M 3.328125 72.90625 
L 13.28125 72.90625 
L 28.609375 11.28125 
L 43.890625 72.90625 
L 54.984375 72.90625 
L 70.3125 11.28125 
L 85.59375 72.90625 
L 95.609375 72.90625 
L 77.296875 0 
L 64.890625 0 
L 49.515625 63.28125 
L 33.984375 0 
L 21.578125 0 
z
" id="DejaVuSans-87"/>
       <path d="M 44.28125 53.078125 
L 44.28125 44.578125 
Q 40.484375 46.53125 36.375 47.5 
Q 32.28125 48.484375 27.875 48.484375 
Q 21.1875 48.484375 17.84375 46.4375 
Q 14.5 44.390625 14.5 40.28125 
Q 14.5 37.15625 16.890625 35.375 
Q 19.28125 33.59375 26.515625 31.984375 
L 29.59375 31.296875 
Q 39.15625 29.25 43.1875 25.515625 
Q 47.21875 21.78125 47.21875 15.09375 
Q 47.21875 7.46875 41.1875 3.015625 
Q 35.15625 -1.421875 24.609375 -1.421875 
Q 20.21875 -1.421875 15.453125 -0.5625 
Q 10.6875 0.296875 5.421875 2 
L 5.421875 11.28125 
Q 10.40625 8.6875 15.234375 7.390625 
Q 20.0625 6.109375 24.8125 6.109375 
Q 31.15625 6.109375 34.5625 8.28125 
Q 37.984375 10.453125 37.984375 14.40625 
Q 37.984375 18.0625 35.515625 20.015625 
Q 33.0625 21.96875 24.703125 23.78125 
L 21.578125 24.515625 
Q 13.234375 26.265625 9.515625 29.90625 
Q 5.8125 33.546875 5.8125 39.890625 
Q 5.8125 47.609375 11.28125 51.796875 
Q 16.75 56 26.8125 56 
Q 31.78125 56 36.171875 55.265625 
Q 40.578125 54.546875 44.28125 53.078125 
z
" id="DejaVuSans-115"/>
       <path d="M 18.3125 70.21875 
L 18.3125 54.6875 
L 36.8125 54.6875 
L 36.8125 47.703125 
L 18.3125 47.703125 
L 18.3125 18.015625 
Q 18.3125 11.328125 20.140625 9.421875 
Q 21.96875 7.515625 27.59375 7.515625 
L 36.8125 7.515625 
L 36.8125 0 
L 27.59375 0 
Q 17.1875 0 13.234375 3.875 
Q 9.28125 7.765625 9.28125 18.015625 
L 9.28125 47.703125 
L 2.6875 47.703125 
L 2.6875 54.6875 
L 9.28125 54.6875 
L 9.28125 70.21875 
z
" id="DejaVuSans-116"/>
      </defs>
      <use xlink:href="#DejaVuSans-76"/>
      <use x="46.587891" xlink:href="#DejaVuSans-87"/>
      <use x="140.964844" xlink:href="#DejaVuSans-114"/>
      <use x="182.078125" xlink:href="#DejaVuSans-105"/>
      <use x="209.861328" xlink:href="#DejaVuSans-115"/>
      <use x="261.960938" xlink:href="#DejaVuSans-116"/>
     </g>
    </g>
   </g>
   <g id="text_9">
    <g clip-path="url(#p55e861aa14)">
     <!-- LHand -->
     <g transform="translate(44.727176 446.231572)scale(0.1 -0.1)">
      <use xlink:href="#DejaVuSans-76"/>
      <use x="55.712891" xlink:href="#DejaVuSans-72"/>
      <use x="130.908203" xlink:href="#DejaVuSans-97"/>
      <use x="192.1875" xlink:href="#DejaVuSans-110"/>
      <use x="255.566406" xlink:href="#DejaVuSans-100"/>
     </g>
    </g>
   </g>
   <g id="text_10">
    <g clip-path="url(#p55e861aa14)">
     <!-- RShoulder -->
     <g transform="translate(359.841809 175.286429)scale(0.1 -0.1)">
      <defs>
       <path d="M 44.390625 34.1875 
Q 47.5625 33.109375 50.5625 29.59375 
Q 53.5625 26.078125 56.59375 19.921875 
L 66.609375 0 
L 56 0 
L 46.6875 18.703125 
Q 43.0625 26.03125 39.671875 28.421875 
Q 36.28125 30.8125 30.421875 30.8125 
L 19.671875 30.8125 
L 19.671875 0 
L 9.8125 0 
L 9.8125 72.90625 
L 32.078125 72.90625 
Q 44.578125 72.90625 50.734375 67.671875 
Q 56.890625 62.453125 56.890625 51.90625 
Q 56.890625 45.015625 53.6875 40.46875 
Q 50.484375 35.9375 44.390625 34.1875 
z
M 19.671875 64.796875 
L 19.671875 38.921875 
L 32.078125 38.921875 
Q 39.203125 38.921875 42.84375 42.21875 
Q 46.484375 45.515625 46.484375 51.90625 
Q 46.484375 58.296875 42.84375 61.546875 
Q 39.203125 64.796875 32.078125 64.796875 
z
" id="DejaVuSans-82"/>
      </defs>
      <use xlink:href="#DejaVuSans-82"/>
      <use x="69.482422" xlink:href="#DejaVuSans-83"/>
      <use x="132.958984" xlink:href="#DejaVuSans-104"/>
      <use x="196.337891" xlink:href="#DejaVuSans-111"/>
      <use x="257.519531" xlink:href="#DejaVuSans-117"/>
      <use x="320.898438" xlink:href="#DejaVuSans-108"/>
      <use x="348.681641" xlink:href="#DejaVuSans-100"/>
      <use x="412.158203" xlink:href="#DejaVuSans-101"/>
      <use x="473.681641" xlink:href="#DejaVuSans-114"/>
     </g>
    </g>
   </g>
   <g id="text_11">
    <g clip-path="url(#p55e861aa14)">
     <!-- RElbow -->
     <g transform="translate(415.726736 280.313094)scale(0.1 -0.1)">
      <use xlink:href="#DejaVuSans-82"/>
      <use x="69.482422" xlink:href="#DejaVuSans-69"/>
      <use x="132.666016" xlink:href="#DejaVuSans-108"/>
      <use x="160.449219" xlink:href="#DejaVuSans-98"/>
      <use x="223.925781" xlink:href="#DejaVuSans-111"/>
      <use x="285.107422" xlink:href="#DejaVuSans-119"/>
     </g>
    </g>
   </g>
   <g id="text_12">
    <g clip-path="url(#p55e861aa14)">
     <!-- RWrist -->
     <g transform="translate(460.398589 381.22362)scale(0.1 -0.1)">
      <use xlink:href="#DejaVuSans-82"/>
      <use x="65.482422" xlink:href="#DejaVuSans-87"/>
      <use x="159.859375" xlink:href="#DejaVuSans-114"/>
      <use x="200.972656" xlink:href="#DejaVuSans-105"/>
      <use x="228.755859" xlink:href="#DejaVuSans-115"/>
      <use x="280.855469" xlink:href="#DejaVuSans-116"/>
     </g>
    </g>
   </g>
   <g id="text_13">
    <g clip-path="url(#p55e861aa14)">
     <!-- RHand -->
     <g transform="translate(473.215012 402.565768)scale(0.1 -0.1)">
      <use xlink:href="#DejaVuSans-82"/>
      <use x="69.482422" xlink:href="#DejaVuSans-72"/>
      <use x="144.677734" xlink:href="#DejaVuSans-97"/>
      <use x="205.957031" xlink:href="#DejaVuSans-110"/>
      <use x="269.335938" xlink:href="#DejaVuSans-100"/>
     </g>
    </g>
   </g>
   <g id="text_14">
    <g clip-path="url(#p55e861aa14)">
     <!-- LHip -->
     <g transform="translate(167.025335 415.989451)scale(0.1 -0.1)">
      <use xlink:href="#DejaVuSans-76"/>
      <use x="55.712891" xlink:href="#DejaVuSans-72"/>
      <use x="130.908203" xlink:href="#DejaVuSans-105"/>
      <use x="158.691406" xlink:href="#DejaVuSans-112"/>
     </g>
    </g>
   </g>
   <g id="text_15">
    <g clip-path="url(#p55e861aa14)">
     <!-- LKnee -->
     <g transform="translate(144.24891 568.697314)scale(0.1 -0.1)">
      <defs>
       <path d="M 9.8125 72.90625 
L 19.671875 72.90625 
L 19.671875 42.09375 
L 52.390625 72.90625 
L 65.09375 72.90625 
L 28.90625 38.921875 
L 67.671875 0 
L 54.6875 0 
L 19.671875 35.109375 
L 19.671875 0 
L 9.8125 0 
z
" id="DejaVuSans-75"/>
      </defs>
      <use xlink:href="#DejaVuSans-76"/>
      <use x="55.712891" xlink:href="#DejaVuSans-75"/>
      <use x="121.289062" xlink:href="#DejaVuSans-110"/>
      <use x="184.667969" xlink:href="#DejaVuSans-101"/>
      <use x="246.191406" xlink:href="#DejaVuSans-101"/>
     </g>
    </g>
   </g>
   <g id="text_16">
    <g clip-path="url(#p55e861aa14)">
     <!-- LAnkle -->
     <g transform="translate(158.804286 755.198483)scale(0.1 -0.1)">
      <defs>
       <path d="M 34.1875 63.1875 
L 20.796875 26.90625 
L 47.609375 26.90625 
z
M 28.609375 72.90625 
L 39.796875 72.90625 
L 67.578125 0 
L 57.328125 0 
L 50.6875 18.703125 
L 17.828125 18.703125 
L 11.1875 0 
L 0.78125 0 
z
" id="DejaVuSans-65"/>
       <path d="M 9.078125 75.984375 
L 18.109375 75.984375 
L 18.109375 31.109375 
L 44.921875 54.6875 
L 56.390625 54.6875 
L 27.390625 29.109375 
L 57.625 0 
L 45.90625 0 
L 18.109375 26.703125 
L 18.109375 0 
L 9.078125 0 
z
" id="DejaVuSans-107"/>
      </defs>
      <use xlink:href="#DejaVuSans-76"/>
      <use x="57.962891" xlink:href="#DejaVuSans-65"/>
      <use x="126.371094" xlink:href="#DejaVuSans-110"/>
      <use x="189.75" xlink:href="#DejaVuSans-107"/>
      <use x="247.660156" xlink:href="#DejaVuSans-108"/>
      <use x="275.443359" xlink:href="#DejaVuSans-101"/>
     </g>
    </g>
   </g>
   <g id="text_17">
    <g clip-path="url(#p55e861aa14)">
     <!-- LFoot -->
     <g transform="translate(164.605093 791.784168)scale(0.1 -0.1)">
      <defs>
       <path d="M 9.8125 72.90625 
L 51.703125 72.90625 
L 51.703125 64.59375 
L 19.671875 64.59375 
L 19.671875 43.109375 
L 48.578125 43.109375 
L 48.578125 34.8125 
L 19.671875 34.8125 
L 19.671875 0 
L 9.8125 0 
z
" id="DejaVuSans-70"/>
      </defs>
      <use xlink:href="#DejaVuSans-76"/>
      <use x="55.712891" xlink:href="#DejaVuSans-70"/>
      <use x="109.607422" xlink:href="#DejaVuSans-111"/>
      <use x="170.789062" xlink:href="#DejaVuSans-111"/>
      <use x="231.970703" xlink:href="#DejaVuSans-116"/>
     </g>
    </g>
   </g>
   <g id="text_18">
    <g clip-path="url(#p55e861aa14)">
     <!-- RHip -->
     <g transform="translate(282.734648 413.530546)scale(0.1 -0.1)">
      <use xlink:href="#DejaVuSans-82"/>
      <use x="69.482422" xlink:href="#DejaVuSans-72"/>
      <use x="144.677734" xlink:href="#DejaVuSans-105"/>
      <use x="172.460938" xlink:href="#DejaVuSans-112"/>
     </g>
    </g>
   </g>
   <g id="text_19">
    <g clip-path="url(#p55e861aa14)">
     <!-- RKnee -->
     <g transform="translate(303.508798 553.118957)scale(0.1 -0.1)">
      <use xlink:href="#DejaVuSans-82"/>
      <use x="69.482422" xlink:href="#DejaVuSans-75"/>
      <use x="135.058594" xlink:href="#DejaVuSans-110"/>
      <use x="198.4375" xlink:href="#DejaVuSans-101"/>
      <use x="259.960938" xlink:href="#DejaVuSans-101"/>
     </g>
    </g>
   </g>
   <g id="text_20">
    <g clip-path="url(#p55e861aa14)">
     <!-- RAnkle -->
     <g transform="translate(241.354673 682.226707)scale(0.1 -0.1)">
      <use xlink:href="#DejaVuSans-82"/>
      <use x="65.482422" xlink:href="#DejaVuSans-65"/>
      <use x="133.890625" xlink:href="#DejaVuSans-110"/>
      <use x="197.269531" xlink:href="#DejaVuSans-107"/>
      <use x="255.179688" xlink:href="#DejaVuSans-108"/>
      <use x="282.962891" xlink:href="#DejaVuSans-101"/>
     </g>
    </g>
   </g>
   <g id="text_21">
    <g clip-path="url(#p55e861aa14)">
     <!-- RFoot -->
     <g transform="translate(197.354459 731.646323)scale(0.1 -0.1)">
      <use xlink:href="#DejaVuSans-82"/>
      <use x="69.482422" xlink:href="#DejaVuSans-70"/>
      <use x="123.376953" xlink:href="#DejaVuSans-111"/>
      <use x="184.558594" xlink:href="#DejaVuSans-111"/>
      <use x="245.740234" xlink:href="#DejaVuSans-116"/>
     </g>
    </g>
   </g>
   <g id="text_22">
    <g clip-path="url(#p55e861aa14)">
     <!-- LHandTip -->
     <g transform="translate(36.421752 486.164957)scale(0.1 -0.1)">
      <defs>
       <path d="M -0.296875 72.90625 
L 61.375 72.90625 
L 61.375 64.59375 
L 35.5 64.59375 
L 35.5 0 
L 25.59375 0 
L 25.59375 64.59375 
L -0.296875 64.59375 
z
" id="DejaVuSans-84"/>
      </defs>
      <use xlink:href="#DejaVuSans-76"/>
      <use x="55.712891" xlink:href="#DejaVuSans-72"/>
      <use x="130.908203" xlink:href="#DejaVuSans-97"/>
      <use x="192.1875" xlink:href="#DejaVuSans-110"/>
      <use x="255.566406" xlink:href="#DejaVuSans-100"/>
      <use x="319.042969" xlink:href="#DejaVuSans-84"/>
      <use x="377.001953" xlink:href="#DejaVuSans-105"/>
      <use x="404.785156" xlink:href="#DejaVuSans-112"/>
     </g>
    </g>
   </g>
   <g id="text_23">
    <g clip-path="url(#p55e861aa14)">
     <!-- LThumb -->
     <g transform="translate(69.568931 444.087427)scale(0.1 -0.1)">
      <defs>
       <path d="M 52 44.1875 
Q 55.375 50.25 60.0625 53.125 
Q 64.75 56 71.09375 56 
Q 79.640625 56 84.28125 50.015625 
Q 88.921875 44.046875 88.921875 33.015625 
L 88.921875 0 
L 79.890625 0 
L 79.890625 32.71875 
Q 79.890625 40.578125 77.09375 44.375 
Q 74.3125 48.1875 68.609375 48.1875 
Q 61.625 48.1875 57.5625 43.546875 
Q 53.515625 38.921875 53.515625 30.90625 
L 53.515625 0 
L 44.484375 0 
L 44.484375 32.71875 
Q 44.484375 40.625 41.703125 44.40625 
Q 38.921875 48.1875 33.109375 48.1875 
Q 26.21875 48.1875 22.15625 43.53125 
Q 18.109375 38.875 18.109375 30.90625 
L 18.109375 0 
L 9.078125 0 
L 9.078125 54.6875 
L 18.109375 54.6875 
L 18.109375 46.1875 
Q 21.1875 51.21875 25.484375 53.609375 
Q 29.78125 56 35.6875 56 
Q 41.65625 56 45.828125 52.96875 
Q 50 49.953125 52 44.1875 
z
" id="DejaVuSans-109"/>
      </defs>
      <use xlink:href="#DejaVuSans-76"/>
      <use x="41.962891" xlink:href="#DejaVuSans-84"/>
      <use x="103.046875" xlink:href="#DejaVuSans-104"/>
      <use x="166.425781" xlink:href="#DejaVuSans-117"/>
      <use x="229.804688" xlink:href="#DejaVuSans-109"/>
      <use x="327.216797" xlink:href="#DejaVuSans-98"/>
     </g>
    </g>
   </g>
   <g id="text_24">
    <g clip-path="url(#p55e861aa14)">
     <!-- RHandTip -->
     <g transform="translate(479.491056 442.950736)scale(0.1 -0.1)">
      <use xlink:href="#DejaVuSans-82"/>
      <use x="69.482422" xlink:href="#DejaVuSans-72"/>
      <use x="144.677734" xlink:href="#DejaVuSans-97"/>
      <use x="205.957031" xlink:href="#DejaVuSans-110"/>
      <use x="269.335938" xlink:href="#DejaVuSans-100"/>
      <use x="332.8125" xlink:href="#DejaVuSans-84"/>
      <use x="390.771484" xlink:href="#DejaVuSans-105"/>
      <use x="418.554688" xlink:href="#DejaVuSans-112"/>
     </g>
    </g>
   </g>
   <g id="text_25">
    <g clip-path="url(#p55e861aa14)">
     <!-- RThumb -->
     <g transform="translate(505.468873 404.074703)scale(0.1 -0.1)">
      <use xlink:href="#DejaVuSans-82"/>
      <use x="62.232422" xlink:href="#DejaVuSans-84"/>
      <use x="123.316406" xlink:href="#DejaVuSans-104"/>
      <use x="186.695312" xlink:href="#DejaVuSans-117"/>
      <use x="250.074219" xlink:href="#DejaVuSans-109"/>
      <use x="347.486328" xlink:href="#DejaVuSans-98"/>
     </g>
    </g>
   </g>
   <g id="text_26">
    <!-- Node Graph Visualization - Frame 118 -->
    <g transform="translate(174.194063 -6)scale(0.12 -0.12)">
     <defs>
      <path d="M 9.8125 72.90625 
L 23.09375 72.90625 
L 55.421875 11.921875 
L 55.421875 72.90625 
L 64.984375 72.90625 
L 64.984375 0 
L 51.703125 0 
L 19.390625 60.984375 
L 19.390625 0 
L 9.8125 0 
z
" id="DejaVuSans-78"/>
      <path id="DejaVuSans-32"/>
      <path d="M 59.515625 10.40625 
L 59.515625 29.984375 
L 43.40625 29.984375 
L 43.40625 38.09375 
L 69.28125 38.09375 
L 69.28125 6.78125 
Q 63.578125 2.734375 56.6875 0.65625 
Q 49.8125 -1.421875 42 -1.421875 
Q 24.90625 -1.421875 15.25 8.5625 
Q 5.609375 18.5625 5.609375 36.375 
Q 5.609375 54.25 15.25 64.234375 
Q 24.90625 74.21875 42 74.21875 
Q 49.125 74.21875 55.546875 72.453125 
Q 61.96875 70.703125 67.390625 67.28125 
L 67.390625 56.78125 
Q 61.921875 61.421875 55.765625 63.765625 
Q 49.609375 66.109375 42.828125 66.109375 
Q 29.4375 66.109375 22.71875 58.640625 
Q 16.015625 51.171875 16.015625 36.375 
Q 16.015625 21.625 22.71875 14.15625 
Q 29.4375 6.6875 42.828125 6.6875 
Q 48.046875 6.6875 52.140625 7.59375 
Q 56.25 8.5 59.515625 10.40625 
z
" id="DejaVuSans-71"/>
      <path d="M 28.609375 0 
L 0.78125 72.90625 
L 11.078125 72.90625 
L 34.1875 11.53125 
L 57.328125 72.90625 
L 67.578125 72.90625 
L 39.796875 0 
z
" id="DejaVuSans-86"/>
      <path d="M 5.515625 54.6875 
L 48.1875 54.6875 
L 48.1875 46.484375 
L 14.40625 7.171875 
L 48.1875 7.171875 
L 48.1875 0 
L 4.296875 0 
L 4.296875 8.203125 
L 38.09375 47.515625 
L 5.515625 47.515625 
z
" id="DejaVuSans-122"/>
      <path d="M 4.890625 31.390625 
L 31.203125 31.390625 
L 31.203125 23.390625 
L 4.890625 23.390625 
z
" id="DejaVuSans-45"/>
      <path d="M 12.40625 8.296875 
L 28.515625 8.296875 
L 28.515625 63.921875 
L 10.984375 60.40625 
L 10.984375 69.390625 
L 28.421875 72.90625 
L 38.28125 72.90625 
L 38.28125 8.296875 
L 54.390625 8.296875 
L 54.390625 0 
L 12.40625 0 
z
" id="DejaVuSans-49"/>
      <path d="M 31.78125 34.625 
Q 24.75 34.625 20.71875 30.859375 
Q 16.703125 27.09375 16.703125 20.515625 
Q 16.703125 13.921875 20.71875 10.15625 
Q 24.75 6.390625 31.78125 6.390625 
Q 38.8125 6.390625 42.859375 10.171875 
Q 46.921875 13.96875 46.921875 20.515625 
Q 46.921875 27.09375 42.890625 30.859375 
Q 38.875 34.625 31.78125 34.625 
z
M 21.921875 38.8125 
Q 15.578125 40.375 12.03125 44.71875 
Q 8.5 49.078125 8.5 55.328125 
Q 8.5 64.0625 14.71875 69.140625 
Q 20.953125 74.21875 31.78125 74.21875 
Q 42.671875 74.21875 48.875 69.140625 
Q 55.078125 64.0625 55.078125 55.328125 
Q 55.078125 49.078125 51.53125 44.71875 
Q 48 40.375 41.703125 38.8125 
Q 48.828125 37.15625 52.796875 32.3125 
Q 56.78125 27.484375 56.78125 20.515625 
Q 56.78125 9.90625 50.3125 4.234375 
Q 43.84375 -1.421875 31.78125 -1.421875 
Q 19.734375 -1.421875 13.25 4.234375 
Q 6.78125 9.90625 6.78125 20.515625 
Q 6.78125 27.484375 10.78125 32.3125 
Q 14.796875 37.15625 21.921875 38.8125 
z
M 18.3125 54.390625 
Q 18.3125 48.734375 21.84375 45.5625 
Q 25.390625 42.390625 31.78125 42.390625 
Q 38.140625 42.390625 41.71875 45.5625 
Q 45.3125 48.734375 45.3125 54.390625 
Q 45.3125 60.0625 41.71875 63.234375 
Q 38.140625 66.40625 31.78125 66.40625 
Q 25.390625 66.40625 21.84375 63.234375 
Q 18.3125 60.0625 18.3125 54.390625 
z
" id="DejaVuSans-56"/>
     </defs>
     <use xlink:href="#DejaVuSans-78"/>
     <use x="74.804688" xlink:href="#DejaVuSans-111"/>
     <use x="135.986328" xlink:href="#DejaVuSans-100"/>
     <use x="199.462891" xlink:href="#DejaVuSans-101"/>
     <use x="260.986328" xlink:href="#DejaVuSans-32"/>
     <use x="292.773438" xlink:href="#DejaVuSans-71"/>
     <use x="370.263672" xlink:href="#DejaVuSans-114"/>
     <use x="411.376953" xlink:href="#DejaVuSans-97"/>
     <use x="472.65625" xlink:href="#DejaVuSans-112"/>
     <use x="536.132812" xlink:href="#DejaVuSans-104"/>
     <use x="599.511719" xlink:href="#DejaVuSans-32"/>
     <use x="631.298828" xlink:href="#DejaVuSans-86"/>
     <use x="697.457031" xlink:href="#DejaVuSans-105"/>
     <use x="725.240234" xlink:href="#DejaVuSans-115"/>
     <use x="777.339844" xlink:href="#DejaVuSans-117"/>
     <use x="840.71875" xlink:href="#DejaVuSans-97"/>
     <use x="901.998047" xlink:href="#DejaVuSans-108"/>
     <use x="929.78125" xlink:href="#DejaVuSans-105"/>
     <use x="957.564453" xlink:href="#DejaVuSans-122"/>
     <use x="1010.054688" xlink:href="#DejaVuSans-97"/>
     <use x="1071.333984" xlink:href="#DejaVuSans-116"/>
     <use x="1110.542969" xlink:href="#DejaVuSans-105"/>
     <use x="1138.326172" xlink:href="#DejaVuSans-111"/>
     <use x="1199.507812" xlink:href="#DejaVuSans-110"/>
     <use x="1262.886719" xlink:href="#DejaVuSans-32"/>
     <use x="1294.673828" xlink:href="#DejaVuSans-45"/>
     <use x="1330.757812" xlink:href="#DejaVuSans-32"/>
     <use x="1362.544922" xlink:href="#DejaVuSans-70"/>
     <use x="1412.814453" xlink:href="#DejaVuSans-114"/>
     <use x="1453.927734" xlink:href="#DejaVuSans-97"/>
     <use x="1515.207031" xlink:href="#DejaVuSans-109"/>
     <use x="1612.619141" xlink:href="#DejaVuSans-101"/>
     <use x="1674.142578" xlink:href="#DejaVuSans-32"/>
     <use x="1705.929688" xlink:href="#DejaVuSans-49"/>
     <use x="1769.552734" xlink:href="#DejaVuSans-49"/>
     <use x="1833.175781" xlink:href="#DejaVuSans-56"/>
    </g>
   </g>
  </g>
 </g>
 <defs>
  <clipPath id="p55e861aa14">
   <rect height="864" width="576" x="0" y="0"/>
  </clipPath>
 </defs>
</svg>
