<?xml version="1.0" encoding="utf-8" standalone="no"?>
<!DOCTYPE svg PUBLIC "-//W3C//DTD SVG 1.1//EN"
  "http://www.w3.org/Graphics/SVG/1.1/DTD/svg11.dtd">
<!-- Created with matplotlib (https://matplotlib.org/) -->
<svg height="864pt" version="1.1" viewBox="0 0 576 864" width="576pt" xmlns="http://www.w3.org/2000/svg" xmlns:xlink="http://www.w3.org/1999/xlink">
 <metadata>
  <rdf:RDF xmlns:cc="http://creativecommons.org/ns#" xmlns:dc="http://purl.org/dc/elements/1.1/" xmlns:rdf="http://www.w3.org/1999/02/22-rdf-syntax-ns#">
   <cc:Work>
    <dc:type rdf:resource="http://purl.org/dc/dcmitype/StillImage"/>
    <dc:date>2024-02-04T22:28:07.345615</dc:date>
    <dc:format>image/svg+xml</dc:format>
    <dc:creator>
     <cc:Agent>
      <dc:title>Matplotlib v3.3.2, https://matplotlib.org/</dc:title>
     </cc:Agent>
    </dc:creator>
   </cc:Work>
  </rdf:RDF>
 </metadata>
 <defs>
  <style type="text/css">*{stroke-linecap:butt;stroke-linejoin:round;}</style>
 </defs>
 <g id="figure_1">
  <g id="patch_1">
   <path d="M 0 864 
L 576 864 
L 576 0 
L 0 0 
z
" style="fill:#ffffff;"/>
  </g>
  <g id="axes_1">
   <g id="patch_2">
    <path clip-path="url(#p18deba4cef)" d="M 329.747708 84.557423 
Q 315.121426 99.93358 301.265715 114.49966 
" style="fill:none;stroke:#000000;stroke-linecap:round;"/>
    <path clip-path="url(#p18deba4cef)" d="M 305.471695 112.979881 
L 301.265715 114.49966 
L 302.57348 110.223008 
L 305.471695 112.979881 
z
" style="stroke:#000000;stroke-linecap:round;"/>
   </g>
   <g id="patch_3">
    <path clip-path="url(#p18deba4cef)" d="M 290.977589 138.121043 
Q 290.82696 143.094819 290.710174 146.951073 
" style="fill:none;stroke:#000000;stroke-linecap:round;"/>
    <path clip-path="url(#p18deba4cef)" d="M 292.830341 143.013448 
L 290.710174 146.951073 
L 288.832174 142.892364 
L 292.830341 143.013448 
z
" style="stroke:#000000;stroke-linecap:round;"/>
   </g>
   <g id="patch_4">
    <path clip-path="url(#p18deba4cef)" d="M 300.493067 115.31192 
Q 315.119349 99.935764 328.97506 85.369683 
" style="fill:none;stroke:#000000;stroke-linecap:round;"/>
    <path clip-path="url(#p18deba4cef)" d="M 324.76908 86.889462 
L 328.97506 85.369683 
L 327.667295 89.646335 
L 324.76908 86.889462 
z
" style="stroke:#000000;stroke-linecap:round;"/>
   </g>
   <g id="patch_5">
    <path clip-path="url(#p18deba4cef)" d="M 289.306417 174.486543 
Q 286.191653 216.88072 283.158813 258.159868 
" style="fill:none;stroke:#000000;stroke-linecap:round;"/>
    <path clip-path="url(#p18deba4cef)" d="M 285.446532 254.317168 
L 283.158813 258.159868 
L 281.457285 254.024072 
L 285.446532 254.317168 
z
" style="stroke:#000000;stroke-linecap:round;"/>
   </g>
   <g id="patch_6">
    <path clip-path="url(#p18deba4cef)" d="M 277.048233 161.490494 
Q 231.1438 162.181225 186.357274 162.855134 
" style="fill:none;stroke:#000000;stroke-linecap:round;"/>
    <path clip-path="url(#p18deba4cef)" d="M 190.386912 164.794726 
L 186.357274 162.855134 
L 190.32673 160.795178 
L 190.386912 164.794726 
z
" style="stroke:#000000;stroke-linecap:round;"/>
   </g>
   <g id="patch_7">
    <path clip-path="url(#p18deba4cef)" d="M 303.245148 163.886257 
Q 360.519339 175.34528 416.697223 186.584962 
" style="fill:none;stroke:#000000;stroke-linecap:round;"/>
    <path clip-path="url(#p18deba4cef)" d="M 413.167326 183.839088 
L 416.697223 186.584962 
L 412.382586 187.761356 
L 413.167326 183.839088 
z
" style="stroke:#000000;stroke-linecap:round;"/>
   </g>
   <g id="patch_8">
    <path clip-path="url(#p18deba4cef)" d="M 290.676453 148.064549 
Q 290.827083 143.090774 290.943868 139.23452 
" style="fill:none;stroke:#000000;stroke-linecap:round;"/>
    <path clip-path="url(#p18deba4cef)" d="M 288.823701 143.172145 
L 290.943868 139.23452 
L 292.821868 143.293228 
L 288.823701 143.172145 
z
" style="stroke:#000000;stroke-linecap:round;"/>
   </g>
   <g id="patch_9">
    <path clip-path="url(#p18deba4cef)" d="M 280.688516 285.62504 
Q 273.993323 347.696451 267.418028 408.656275 
" style="fill:none;stroke:#000000;stroke-linecap:round;"/>
    <path clip-path="url(#p18deba4cef)" d="M 269.835457 404.893824 
L 267.418028 408.656275 
L 265.858525 404.464862 
L 269.835457 404.893824 
z
" style="stroke:#000000;stroke-linecap:round;"/>
   </g>
   <g id="patch_10">
    <path clip-path="url(#p18deba4cef)" d="M 283.076827 259.275753 
Q 286.191591 216.881577 289.224431 175.602429 
" style="fill:none;stroke:#000000;stroke-linecap:round;"/>
    <path clip-path="url(#p18deba4cef)" d="M 286.936712 179.445128 
L 289.224431 175.602429 
L 290.925959 179.738224 
L 286.936712 179.445128 
z
" style="stroke:#000000;stroke-linecap:round;"/>
   </g>
   <g id="patch_11">
    <path clip-path="url(#p18deba4cef)" d="M 252.850803 420.645379 
Q 229.115303 416.501532 206.481179 412.549967 
" style="fill:none;stroke:#000000;stroke-linecap:round;"/>
    <path clip-path="url(#p18deba4cef)" d="M 210.077612 415.208099 
L 206.481179 412.549967 
L 210.765544 411.2677 
L 210.077612 415.208099 
z
" style="stroke:#000000;stroke-linecap:round;"/>
   </g>
   <g id="patch_12">
    <path clip-path="url(#p18deba4cef)" d="M 279.076256 423.878142 
Q 291.121682 424.752705 302.052009 425.546305 
" style="fill:none;stroke:#000000;stroke-linecap:round;"/>
    <path clip-path="url(#p18deba4cef)" d="M 298.20734 423.261897 
L 302.052009 425.546305 
L 297.917681 427.251395 
L 298.20734 423.261897 
z
" style="stroke:#000000;stroke-linecap:round;"/>
   </g>
   <g id="patch_13">
    <path clip-path="url(#p18deba4cef)" d="M 267.298353 409.765788 
Q 273.993546 347.694377 280.568841 286.734552 
" style="fill:none;stroke:#000000;stroke-linecap:round;"/>
    <path clip-path="url(#p18deba4cef)" d="M 278.151412 290.497003 
L 280.568841 286.734552 
L 282.128344 290.925966 
L 278.151412 290.497003 
z
" style="stroke:#000000;stroke-linecap:round;"/>
   </g>
   <g id="patch_14">
    <path clip-path="url(#p18deba4cef)" d="M 163.814624 173.45989 
Q 127.086476 220.016947 91.050792 265.696227 
" style="fill:none;stroke:#000000;stroke-linecap:round;"/>
    <path clip-path="url(#p18deba4cef)" d="M 95.098445 263.794516 
L 91.050792 265.696227 
L 91.958014 261.317078 
L 95.098445 263.794516 
z
" style="stroke:#000000;stroke-linecap:round;"/>
   </g>
   <g id="patch_15">
    <path clip-path="url(#p18deba4cef)" d="M 185.237895 162.871977 
Q 231.142328 162.181247 275.928854 161.507337 
" style="fill:none;stroke:#000000;stroke-linecap:round;"/>
    <path clip-path="url(#p18deba4cef)" d="M 271.899215 159.567746 
L 275.928854 161.507337 
L 271.959397 163.567293 
L 271.899215 159.567746 
z
" style="stroke:#000000;stroke-linecap:round;"/>
   </g>
   <g id="patch_16">
    <path clip-path="url(#p18deba4cef)" d="M 79.103705 289.832351 
Q 66.073449 344.651325 53.301742 398.382571 
" style="fill:none;stroke:#000000;stroke-linecap:round;"/>
    <path clip-path="url(#p18deba4cef)" d="M 56.172541 394.953502 
L 53.301742 398.382571 
L 52.280966 394.02849 
L 56.172541 394.953502 
z
" style="stroke:#000000;stroke-linecap:round;"/>
   </g>
   <g id="patch_17">
    <path clip-path="url(#p18deba4cef)" d="M 90.358363 266.57396 
Q 127.086511 220.016903 163.122194 174.337623 
" style="fill:none;stroke:#000000;stroke-linecap:round;"/>
    <path clip-path="url(#p18deba4cef)" d="M 159.074542 176.239334 
L 163.122194 174.337623 
L 162.214972 178.716772 
L 159.074542 176.239334 
z
" style="stroke:#000000;stroke-linecap:round;"/>
   </g>
   <g id="patch_18">
    <path clip-path="url(#p18deba4cef)" d="M 52.935313 425.241225 
Q 53.113389 426.019353 53.042049 425.707623 
" style="fill:none;stroke:#000000;stroke-linecap:round;"/>
    <path clip-path="url(#p18deba4cef)" d="M 54.099311 421.362258 
L 53.042049 425.707623 
L 50.200114 422.254594 
L 54.099311 421.362258 
z
" style="stroke:#000000;stroke-linecap:round;"/>
   </g>
   <g id="patch_19">
    <path clip-path="url(#p18deba4cef)" d="M 53.042505 399.473194 
Q 66.072761 344.65422 78.844468 290.922974 
" style="fill:none;stroke:#000000;stroke-linecap:round;"/>
    <path clip-path="url(#p18deba4cef)" d="M 75.973669 294.352042 
L 78.844468 290.922974 
L 79.865243 295.277054 
L 75.973669 294.352042 
z
" style="stroke:#000000;stroke-linecap:round;"/>
   </g>
   <g id="patch_20">
    <path clip-path="url(#p18deba4cef)" d="M 56.448067 452.925233 
Q 56.560233 460.169926 56.655091 466.296719 
" style="fill:none;stroke:#000000;stroke-linecap:round;"/>
    <path clip-path="url(#p18deba4cef)" d="M 58.592929 462.266237 
L 56.655091 466.296719 
L 54.593408 462.328159 
L 58.592929 462.266237 
z
" style="stroke:#000000;stroke-linecap:round;"/>
   </g>
   <g id="patch_21">
    <path clip-path="url(#p18deba4cef)" d="M 68.719839 435.310801 
Q 73.796844 433.526485 77.819061 432.112874 
" style="fill:none;stroke:#000000;stroke-linecap:round;"/>
    <path clip-path="url(#p18deba4cef)" d="M 73.382198 431.55229 
L 77.819061 432.112874 
L 74.708476 435.326013 
L 73.382198 431.55229 
z
" style="stroke:#000000;stroke-linecap:round;"/>
   </g>
   <g id="patch_22">
    <path clip-path="url(#p18deba4cef)" d="M 53.291399 426.797194 
Q 53.113323 426.019065 53.184663 426.330796 
" style="fill:none;stroke:#000000;stroke-linecap:round;"/>
    <path clip-path="url(#p18deba4cef)" d="M 52.127401 430.676161 
L 53.184663 426.330796 
L 56.026598 429.783824 
L 52.127401 430.676161 
z
" style="stroke:#000000;stroke-linecap:round;"/>
   </g>
   <g id="patch_23">
    <path clip-path="url(#p18deba4cef)" d="M 435.411652 201.785978 
Q 450.881842 243.017277 465.959276 283.201799 
" style="fill:none;stroke:#000000;stroke-linecap:round;"/>
    <path clip-path="url(#p18deba4cef)" d="M 466.426641 278.754152 
L 465.959276 283.201799 
L 462.681577 280.159318 
L 466.426641 278.754152 
z
" style="stroke:#000000;stroke-linecap:round;"/>
   </g>
   <g id="patch_24">
    <path clip-path="url(#p18deba4cef)" d="M 417.794868 186.804571 
Q 360.520676 175.345548 304.342792 164.105866 
" style="fill:none;stroke:#000000;stroke-linecap:round;"/>
    <path clip-path="url(#p18deba4cef)" d="M 307.872689 166.85174 
L 304.342792 164.105866 
L 308.65743 162.929472 
L 307.872689 166.85174 
z
" style="stroke:#000000;stroke-linecap:round;"/>
   </g>
   <g id="patch_25">
    <path clip-path="url(#p18deba4cef)" d="M 474.359488 309.427451 
Q 484.319424 347.346744 493.99533 384.184682 
" style="fill:none;stroke:#000000;stroke-linecap:round;"/>
    <path clip-path="url(#p18deba4cef)" d="M 494.913539 379.807823 
L 493.99533 384.184682 
L 491.044768 380.824 
L 494.913539 379.807823 
z
" style="stroke:#000000;stroke-linecap:round;"/>
   </g>
   <g id="patch_26">
    <path clip-path="url(#p18deba4cef)" d="M 466.351709 284.247715 
Q 450.881519 243.016416 435.804085 202.831894 
" style="fill:none;stroke:#000000;stroke-linecap:round;"/>
    <path clip-path="url(#p18deba4cef)" d="M 435.33672 207.279542 
L 435.804085 202.831894 
L 439.081784 205.874375 
L 435.33672 207.279542 
z
" style="stroke:#000000;stroke-linecap:round;"/>
   </g>
   <g id="patch_27">
    <path clip-path="url(#p18deba4cef)" d="M 507.123526 407.289467 
Q 508.747516 408.869525 509.570172 409.669927 
" style="fill:none;stroke:#000000;stroke-linecap:round;"/>
    <path clip-path="url(#p18deba4cef)" d="M 508.097924 405.447074 
L 509.570172 409.669927 
L 505.308541 408.314014 
L 508.097924 405.447074 
z
" style="stroke:#000000;stroke-linecap:round;"/>
   </g>
   <g id="patch_28">
    <path clip-path="url(#p18deba4cef)" d="M 494.280404 385.270007 
Q 484.320467 347.350715 474.644561 310.512777 
" style="fill:none;stroke:#000000;stroke-linecap:round;"/>
    <path clip-path="url(#p18deba4cef)" d="M 473.726353 314.889635 
L 474.644561 310.512777 
L 477.595123 313.873459 
L 473.726353 314.889635 
z
" style="stroke:#000000;stroke-linecap:round;"/>
   </g>
   <g id="patch_29">
    <path clip-path="url(#p18deba4cef)" d="M 514.814639 422.907347 
Q 518.194213 432.383078 521.198207 440.805747 
" style="fill:none;stroke:#000000;stroke-linecap:round;"/>
    <path clip-path="url(#p18deba4cef)" d="M 521.738263 436.36634 
L 521.198207 440.805747 
L 517.970714 437.710058 
L 521.738263 436.36634 
z
" style="stroke:#000000;stroke-linecap:round;"/>
   </g>
   <g id="patch_30">
    <path clip-path="url(#p18deba4cef)" d="M 497.145195 410.432313 
Q 493.288742 410.427277 490.550322 410.423702 
" style="fill:none;stroke:#000000;stroke-linecap:round;"/>
    <path clip-path="url(#p18deba4cef)" d="M 494.547707 412.428923 
L 490.550322 410.423702 
L 494.55293 408.428926 
L 494.547707 412.428923 
z
" style="stroke:#000000;stroke-linecap:round;"/>
   </g>
   <g id="patch_31">
    <path clip-path="url(#p18deba4cef)" d="M 500.888646 401.223254 
Q 499.264656 399.643196 498.442 398.842794 
" style="fill:none;stroke:#000000;stroke-linecap:round;"/>
    <path clip-path="url(#p18deba4cef)" d="M 499.914248 403.065647 
L 498.442 398.842794 
L 502.703631 400.198707 
L 499.914248 403.065647 
z
" style="stroke:#000000;stroke-linecap:round;"/>
   </g>
   <g id="patch_32">
    <path clip-path="url(#p18deba4cef)" d="M 187.834131 422.517241 
Q 163.567305 489.368582 139.681965 555.168986 
" style="fill:none;stroke:#000000;stroke-linecap:round;"/>
    <path clip-path="url(#p18deba4cef)" d="M 142.926786 552.091465 
L 139.681965 555.168986 
L 139.166841 550.726616 
L 142.926786 552.091465 
z
" style="stroke:#000000;stroke-linecap:round;"/>
   </g>
   <g id="patch_33">
    <path clip-path="url(#p18deba4cef)" d="M 205.376599 412.357125 
Q 229.112099 416.500972 251.746223 420.452537 
" style="fill:none;stroke:#000000;stroke-linecap:round;"/>
    <path clip-path="url(#p18deba4cef)" d="M 248.14979 417.794405 
L 251.746223 420.452537 
L 247.461857 421.734804 
L 248.14979 417.794405 
z
" style="stroke:#000000;stroke-linecap:round;"/>
   </g>
   <g id="patch_34">
    <path clip-path="url(#p18deba4cef)" d="M 131.890045 581.568352 
Q 120.544188 632.15898 109.442993 681.658672 
" style="fill:none;stroke:#000000;stroke-linecap:round;"/>
    <path clip-path="url(#p18deba4cef)" d="M 112.269847 678.193287 
L 109.442993 681.658672 
L 108.366797 677.317958 
L 112.269847 678.193287 
z
" style="stroke:#000000;stroke-linecap:round;"/>
   </g>
   <g id="patch_35">
    <path clip-path="url(#p18deba4cef)" d="M 139.299072 556.223798 
Q 163.565898 489.372457 187.451238 423.572053 
" style="fill:none;stroke:#000000;stroke-linecap:round;"/>
    <path clip-path="url(#p18deba4cef)" d="M 184.206417 426.649575 
L 187.451238 423.572053 
L 187.966362 428.014423 
L 184.206417 426.649575 
z
" style="stroke:#000000;stroke-linecap:round;"/>
   </g>
   <g id="patch_36">
    <path clip-path="url(#p18deba4cef)" d="M 113.133994 706.984518 
Q 118.277291 715.514988 122.843302 723.087992 
" style="fill:none;stroke:#000000;stroke-linecap:round;"/>
    <path clip-path="url(#p18deba4cef)" d="M 122.490703 718.629778 
L 122.843302 723.087992 
L 119.065171 720.695142 
L 122.490703 718.629778 
z
" style="stroke:#000000;stroke-linecap:round;"/>
   </g>
   <g id="patch_37">
    <path clip-path="url(#p18deba4cef)" d="M 109.199054 682.746385 
Q 120.544911 632.155757 131.646106 582.656065 
" style="fill:none;stroke:#000000;stroke-linecap:round;"/>
    <path clip-path="url(#p18deba4cef)" d="M 128.819252 586.12145 
L 131.646106 582.656065 
L 132.722302 586.996779 
L 128.819252 586.12145 
z
" style="stroke:#000000;stroke-linecap:round;"/>
   </g>
   <g id="patch_38">
    <path clip-path="url(#p18deba4cef)" d="M 123.420953 724.046062 
Q 118.277656 715.515592 113.711646 707.942588 
" style="fill:none;stroke:#000000;stroke-linecap:round;"/>
    <path clip-path="url(#p18deba4cef)" d="M 114.064244 712.400802 
L 113.711646 707.942588 
L 117.489776 710.335438 
L 114.064244 712.400802 
z
" style="stroke:#000000;stroke-linecap:round;"/>
   </g>
   <g id="patch_39">
    <path clip-path="url(#p18deba4cef)" d="M 316.408073 439.814746 
Q 316.595532 493.3821 316.779078 545.831428 
" style="fill:none;stroke:#000000;stroke-linecap:round;"/>
    <path clip-path="url(#p18deba4cef)" d="M 318.765068 541.824454 
L 316.779078 545.831428 
L 314.765092 541.838451 
L 318.765068 541.824454 
z
" style="stroke:#000000;stroke-linecap:round;"/>
   </g>
   <g id="patch_40">
    <path clip-path="url(#p18deba4cef)" d="M 303.165025 425.627116 
Q 291.119599 424.752554 280.189272 423.958953 
" style="fill:none;stroke:#000000;stroke-linecap:round;"/>
    <path clip-path="url(#p18deba4cef)" d="M 284.033941 426.243361 
L 280.189272 423.958953 
L 284.3236 422.253863 
L 284.033941 426.243361 
z
" style="stroke:#000000;stroke-linecap:round;"/>
   </g>
   <g id="patch_41">
    <path clip-path="url(#p18deba4cef)" d="M 312.168191 572.557792 
Q 280.455544 656.796673 249.136804 739.98921 
" style="fill:none;stroke:#000000;stroke-linecap:round;"/>
    <path clip-path="url(#p18deba4cef)" d="M 252.417849 736.950338 
L 249.136804 739.98921 
L 248.674333 735.541051 
L 252.417849 736.950338 
z
" style="stroke:#000000;stroke-linecap:round;"/>
   </g>
   <g id="patch_42">
    <path clip-path="url(#p18deba4cef)" d="M 316.782982 546.946987 
Q 316.595523 493.379632 316.411977 440.930305 
" style="fill:none;stroke:#000000;stroke-linecap:round;"/>
    <path clip-path="url(#p18deba4cef)" d="M 314.425987 444.937279 
L 316.411977 440.930305 
L 318.425963 444.923281 
L 314.425987 444.937279 
z
" style="stroke:#000000;stroke-linecap:round;"/>
   </g>
   <g id="patch_43">
    <path clip-path="url(#p18deba4cef)" d="M 243.035183 766.609971 
Q 242.669258 771.224546 242.391714 774.724586 
" style="fill:none;stroke:#000000;stroke-linecap:round;"/>
    <path clip-path="url(#p18deba4cef)" d="M 244.701653 770.895202 
L 242.391714 774.724586 
L 240.71417 770.579004 
L 244.701653 770.895202 
z
" style="stroke:#000000;stroke-linecap:round;"/>
   </g>
   <g id="patch_44">
    <path clip-path="url(#p18deba4cef)" d="M 248.742329 741.03706 
Q 280.454977 656.798178 311.773717 573.605641 
" style="fill:none;stroke:#000000;stroke-linecap:round;"/>
    <path clip-path="url(#p18deba4cef)" d="M 308.492672 576.644513 
L 311.773717 573.605641 
L 312.236187 578.0538 
L 308.492672 576.644513 
z
" style="stroke:#000000;stroke-linecap:round;"/>
   </g>
   <g id="patch_45">
    <path clip-path="url(#p18deba4cef)" d="M 242.303802 775.833212 
Q 242.669727 771.218637 242.947271 767.718598 
" style="fill:none;stroke:#000000;stroke-linecap:round;"/>
    <path clip-path="url(#p18deba4cef)" d="M 240.637332 771.547982 
L 242.947271 767.718598 
L 244.624815 771.864179 
L 240.637332 771.547982 
z
" style="stroke:#000000;stroke-linecap:round;"/>
   </g>
   <g id="patch_46">
    <path clip-path="url(#p18deba4cef)" d="M 56.672316 467.409238 
Q 56.56015 460.164545 56.465292 454.037752 
" style="fill:none;stroke:#000000;stroke-linecap:round;"/>
    <path clip-path="url(#p18deba4cef)" d="M 54.527454 458.068234 
L 56.465292 454.037752 
L 58.526975 458.006312 
L 54.527454 458.068234 
z
" style="stroke:#000000;stroke-linecap:round;"/>
   </g>
   <g id="patch_47">
    <path clip-path="url(#p18deba4cef)" d="M 78.877702 431.740814 
Q 73.800697 433.525131 69.77848 434.938741 
" style="fill:none;stroke:#000000;stroke-linecap:round;"/>
    <path clip-path="url(#p18deba4cef)" d="M 74.215342 435.499325 
L 69.77848 434.938741 
L 72.889065 431.725602 
L 74.215342 435.499325 
z
" style="stroke:#000000;stroke-linecap:round;"/>
   </g>
   <g id="patch_48">
    <path clip-path="url(#p18deba4cef)" d="M 521.573396 441.857712 
Q 518.193822 432.381981 515.189828 423.959311 
" style="fill:none;stroke:#000000;stroke-linecap:round;"/>
    <path clip-path="url(#p18deba4cef)" d="M 514.649772 428.398719 
L 515.189828 423.959311 
L 518.41732 427.055001 
L 514.649772 428.398719 
z
" style="stroke:#000000;stroke-linecap:round;"/>
   </g>
   <g id="patch_49">
    <path clip-path="url(#p18deba4cef)" d="M 489.428805 410.422237 
Q 493.285258 410.427273 496.023678 410.430849 
" style="fill:none;stroke:#000000;stroke-linecap:round;"/>
    <path clip-path="url(#p18deba4cef)" d="M 492.026293 408.425627 
L 496.023678 410.430849 
L 492.02107 412.425624 
L 492.026293 408.425627 
z
" style="stroke:#000000;stroke-linecap:round;"/>
   </g>
   <g id="PathCollection_1">
    <defs>
     <path d="M 0 13.228757 
C 3.508307 13.228757 6.873396 11.834891 9.354143 9.354143 
C 11.834891 6.873396 13.228757 3.508307 13.228757 0 
C 13.228757 -3.508307 11.834891 -6.873396 9.354143 -9.354143 
C 6.873396 -11.834891 3.508307 -13.228757 0 -13.228757 
C -3.508307 -13.228757 -6.873396 -11.834891 -9.354143 -9.354143 
C -11.834891 -6.873396 -13.228757 -3.508307 -13.228757 0 
C -13.228757 3.508307 -11.834891 6.873396 -9.354143 9.354143 
C -6.873396 11.834891 -3.508307 13.228757 0 13.228757 
z
" id="m731c5084c3" style="stroke:#87ceeb;"/>
    </defs>
    <g clip-path="url(#p18deba4cef)">
     <use style="fill:#87ceeb;stroke:#87ceeb;" x="338.862612" xlink:href="#m731c5084c3" y="74.975207"/>
     <use style="fill:#87ceeb;stroke:#87ceeb;" x="291.378163" xlink:href="#m731c5084c3" y="124.894137"/>
     <use style="fill:#87ceeb;stroke:#87ceeb;" x="290.27588" xlink:href="#m731c5084c3" y="161.291456"/>
     <use style="fill:#87ceeb;stroke:#87ceeb;" x="282.107364" xlink:href="#m731c5084c3" y="272.470841"/>
     <use style="fill:#87ceeb;stroke:#87ceeb;" x="265.879505" xlink:href="#m731c5084c3" y="422.919987"/>
     <use style="fill:#87ceeb;stroke:#87ceeb;" x="172.010248" xlink:href="#m731c5084c3" y="163.071015"/>
     <use style="fill:#87ceeb;stroke:#87ceeb;" x="82.162739" xlink:href="#m731c5084c3" y="276.962835"/>
     <use style="fill:#87ceeb;stroke:#87ceeb;" x="49.983471" xlink:href="#m731c5084c3" y="412.34271"/>
     <use style="fill:#87ceeb;stroke:#87ceeb;" x="56.243241" xlink:href="#m731c5084c3" y="439.695708"/>
     <use style="fill:#87ceeb;stroke:#87ceeb;" x="430.764136" xlink:href="#m731c5084c3" y="189.399373"/>
     <use style="fill:#87ceeb;stroke:#87ceeb;" x="470.999226" xlink:href="#m731c5084c3" y="296.63432"/>
     <use style="fill:#87ceeb;stroke:#87ceeb;" x="497.640666" xlink:href="#m731c5084c3" y="398.063138"/>
     <use style="fill:#87ceeb;stroke:#87ceeb;" x="510.371506" xlink:href="#m731c5084c3" y="410.449583"/>
     <use style="fill:#87ceeb;stroke:#87ceeb;" x="192.347897" xlink:href="#m731c5084c3" y="410.082517"/>
     <use style="fill:#87ceeb;stroke:#87ceeb;" x="134.785306" xlink:href="#m731c5084c3" y="568.658522"/>
     <use style="fill:#87ceeb;stroke:#87ceeb;" x="106.303793" xlink:href="#m731c5084c3" y="695.656215"/>
     <use style="fill:#87ceeb;stroke:#87ceeb;" x="130.251155" xlink:href="#m731c5084c3" y="735.374365"/>
     <use style="fill:#87ceeb;stroke:#87ceeb;" x="316.361776" xlink:href="#m731c5084c3" y="426.585271"/>
     <use style="fill:#87ceeb;stroke:#87ceeb;" x="316.829278" xlink:href="#m731c5084c3" y="560.176461"/>
     <use style="fill:#87ceeb;stroke:#87ceeb;" x="244.081242" xlink:href="#m731c5084c3" y="753.41839"/>
     <use style="fill:#87ceeb;stroke:#87ceeb;" x="241.257743" xlink:href="#m731c5084c3" y="789.024793"/>
     <use style="fill:#87ceeb;stroke:#87ceeb;" x="56.877142" xlink:href="#m731c5084c3" y="480.638763"/>
     <use style="fill:#87ceeb;stroke:#87ceeb;" x="91.3543" xlink:href="#m731c5084c3" y="427.355907"/>
     <use style="fill:#87ceeb;stroke:#87ceeb;" x="526.016529" xlink:href="#m731c5084c3" y="454.315476"/>
     <use style="fill:#87ceeb;stroke:#87ceeb;" x="476.202494" xlink:href="#m731c5084c3" y="410.404967"/>
    </g>
   </g>
   <g id="text_1">
    <g clip-path="url(#p18deba4cef)">
     <!-- Head -->
     <g transform="translate(325.787612 77.734582)scale(0.1 -0.1)">
      <defs>
       <path d="M 9.8125 72.90625 
L 19.671875 72.90625 
L 19.671875 43.015625 
L 55.515625 43.015625 
L 55.515625 72.90625 
L 65.375 72.90625 
L 65.375 0 
L 55.515625 0 
L 55.515625 34.71875 
L 19.671875 34.71875 
L 19.671875 0 
L 9.8125 0 
z
" id="DejaVuSans-72"/>
       <path d="M 56.203125 29.59375 
L 56.203125 25.203125 
L 14.890625 25.203125 
Q 15.484375 15.921875 20.484375 11.0625 
Q 25.484375 6.203125 34.421875 6.203125 
Q 39.59375 6.203125 44.453125 7.46875 
Q 49.3125 8.734375 54.109375 11.28125 
L 54.109375 2.78125 
Q 49.265625 0.734375 44.1875 -0.34375 
Q 39.109375 -1.421875 33.890625 -1.421875 
Q 20.796875 -1.421875 13.15625 6.1875 
Q 5.515625 13.8125 5.515625 26.8125 
Q 5.515625 40.234375 12.765625 48.109375 
Q 20.015625 56 32.328125 56 
Q 43.359375 56 49.78125 48.890625 
Q 56.203125 41.796875 56.203125 29.59375 
z
M 47.21875 32.234375 
Q 47.125 39.59375 43.09375 43.984375 
Q 39.0625 48.390625 32.421875 48.390625 
Q 24.90625 48.390625 20.390625 44.140625 
Q 15.875 39.890625 15.1875 32.171875 
z
" id="DejaVuSans-101"/>
       <path d="M 34.28125 27.484375 
Q 23.390625 27.484375 19.1875 25 
Q 14.984375 22.515625 14.984375 16.5 
Q 14.984375 11.71875 18.140625 8.90625 
Q 21.296875 6.109375 26.703125 6.109375 
Q 34.1875 6.109375 38.703125 11.40625 
Q 43.21875 16.703125 43.21875 25.484375 
L 43.21875 27.484375 
z
M 52.203125 31.203125 
L 52.203125 0 
L 43.21875 0 
L 43.21875 8.296875 
Q 40.140625 3.328125 35.546875 0.953125 
Q 30.953125 -1.421875 24.3125 -1.421875 
Q 15.921875 -1.421875 10.953125 3.296875 
Q 6 8.015625 6 15.921875 
Q 6 25.140625 12.171875 29.828125 
Q 18.359375 34.515625 30.609375 34.515625 
L 43.21875 34.515625 
L 43.21875 35.40625 
Q 43.21875 41.609375 39.140625 45 
Q 35.0625 48.390625 27.6875 48.390625 
Q 23 48.390625 18.546875 47.265625 
Q 14.109375 46.140625 10.015625 43.890625 
L 10.015625 52.203125 
Q 14.9375 54.109375 19.578125 55.046875 
Q 24.21875 56 28.609375 56 
Q 40.484375 56 46.34375 49.84375 
Q 52.203125 43.703125 52.203125 31.203125 
z
" id="DejaVuSans-97"/>
       <path d="M 45.40625 46.390625 
L 45.40625 75.984375 
L 54.390625 75.984375 
L 54.390625 0 
L 45.40625 0 
L 45.40625 8.203125 
Q 42.578125 3.328125 38.25 0.953125 
Q 33.9375 -1.421875 27.875 -1.421875 
Q 17.96875 -1.421875 11.734375 6.484375 
Q 5.515625 14.40625 5.515625 27.296875 
Q 5.515625 40.1875 11.734375 48.09375 
Q 17.96875 56 27.875 56 
Q 33.9375 56 38.25 53.625 
Q 42.578125 51.265625 45.40625 46.390625 
z
M 14.796875 27.296875 
Q 14.796875 17.390625 18.875 11.75 
Q 22.953125 6.109375 30.078125 6.109375 
Q 37.203125 6.109375 41.296875 11.75 
Q 45.40625 17.390625 45.40625 27.296875 
Q 45.40625 37.203125 41.296875 42.84375 
Q 37.203125 48.484375 30.078125 48.484375 
Q 22.953125 48.484375 18.875 42.84375 
Q 14.796875 37.203125 14.796875 27.296875 
z
" id="DejaVuSans-100"/>
      </defs>
      <use xlink:href="#DejaVuSans-72"/>
      <use x="75.195312" xlink:href="#DejaVuSans-101"/>
      <use x="136.71875" xlink:href="#DejaVuSans-97"/>
      <use x="197.998047" xlink:href="#DejaVuSans-100"/>
     </g>
    </g>
   </g>
   <g id="text_2">
    <g clip-path="url(#p18deba4cef)">
     <!-- c7 -->
     <g transform="translate(285.447694 127.653512)scale(0.1 -0.1)">
      <defs>
       <path d="M 48.78125 52.59375 
L 48.78125 44.1875 
Q 44.96875 46.296875 41.140625 47.34375 
Q 37.3125 48.390625 33.40625 48.390625 
Q 24.65625 48.390625 19.8125 42.84375 
Q 14.984375 37.3125 14.984375 27.296875 
Q 14.984375 17.28125 19.8125 11.734375 
Q 24.65625 6.203125 33.40625 6.203125 
Q 37.3125 6.203125 41.140625 7.25 
Q 44.96875 8.296875 48.78125 10.40625 
L 48.78125 2.09375 
Q 45.015625 0.34375 40.984375 -0.53125 
Q 36.96875 -1.421875 32.421875 -1.421875 
Q 20.0625 -1.421875 12.78125 6.34375 
Q 5.515625 14.109375 5.515625 27.296875 
Q 5.515625 40.671875 12.859375 48.328125 
Q 20.21875 56 33.015625 56 
Q 37.15625 56 41.109375 55.140625 
Q 45.0625 54.296875 48.78125 52.59375 
z
" id="DejaVuSans-99"/>
       <path d="M 8.203125 72.90625 
L 55.078125 72.90625 
L 55.078125 68.703125 
L 28.609375 0 
L 18.3125 0 
L 43.21875 64.59375 
L 8.203125 64.59375 
z
" id="DejaVuSans-55"/>
      </defs>
      <use xlink:href="#DejaVuSans-99"/>
      <use x="54.980469" xlink:href="#DejaVuSans-55"/>
     </g>
    </g>
   </g>
   <g id="text_3">
    <g clip-path="url(#p18deba4cef)">
     <!-- SpineShoulder -->
     <g transform="translate(254.026661 164.050831)scale(0.1 -0.1)">
      <defs>
       <path d="M 53.515625 70.515625 
L 53.515625 60.890625 
Q 47.90625 63.578125 42.921875 64.890625 
Q 37.9375 66.21875 33.296875 66.21875 
Q 25.25 66.21875 20.875 63.09375 
Q 16.5 59.96875 16.5 54.203125 
Q 16.5 49.359375 19.40625 46.890625 
Q 22.3125 44.4375 30.421875 42.921875 
L 36.375 41.703125 
Q 47.40625 39.59375 52.65625 34.296875 
Q 57.90625 29 57.90625 20.125 
Q 57.90625 9.515625 50.796875 4.046875 
Q 43.703125 -1.421875 29.984375 -1.421875 
Q 24.8125 -1.421875 18.96875 -0.25 
Q 13.140625 0.921875 6.890625 3.21875 
L 6.890625 13.375 
Q 12.890625 10.015625 18.65625 8.296875 
Q 24.421875 6.59375 29.984375 6.59375 
Q 38.421875 6.59375 43.015625 9.90625 
Q 47.609375 13.234375 47.609375 19.390625 
Q 47.609375 24.75 44.3125 27.78125 
Q 41.015625 30.8125 33.5 32.328125 
L 27.484375 33.5 
Q 16.453125 35.6875 11.515625 40.375 
Q 6.59375 45.0625 6.59375 53.421875 
Q 6.59375 63.09375 13.40625 68.65625 
Q 20.21875 74.21875 32.171875 74.21875 
Q 37.3125 74.21875 42.625 73.28125 
Q 47.953125 72.359375 53.515625 70.515625 
z
" id="DejaVuSans-83"/>
       <path d="M 18.109375 8.203125 
L 18.109375 -20.796875 
L 9.078125 -20.796875 
L 9.078125 54.6875 
L 18.109375 54.6875 
L 18.109375 46.390625 
Q 20.953125 51.265625 25.265625 53.625 
Q 29.59375 56 35.59375 56 
Q 45.5625 56 51.78125 48.09375 
Q 58.015625 40.1875 58.015625 27.296875 
Q 58.015625 14.40625 51.78125 6.484375 
Q 45.5625 -1.421875 35.59375 -1.421875 
Q 29.59375 -1.421875 25.265625 0.953125 
Q 20.953125 3.328125 18.109375 8.203125 
z
M 48.6875 27.296875 
Q 48.6875 37.203125 44.609375 42.84375 
Q 40.53125 48.484375 33.40625 48.484375 
Q 26.265625 48.484375 22.1875 42.84375 
Q 18.109375 37.203125 18.109375 27.296875 
Q 18.109375 17.390625 22.1875 11.75 
Q 26.265625 6.109375 33.40625 6.109375 
Q 40.53125 6.109375 44.609375 11.75 
Q 48.6875 17.390625 48.6875 27.296875 
z
" id="DejaVuSans-112"/>
       <path d="M 9.421875 54.6875 
L 18.40625 54.6875 
L 18.40625 0 
L 9.421875 0 
z
M 9.421875 75.984375 
L 18.40625 75.984375 
L 18.40625 64.59375 
L 9.421875 64.59375 
z
" id="DejaVuSans-105"/>
       <path d="M 54.890625 33.015625 
L 54.890625 0 
L 45.90625 0 
L 45.90625 32.71875 
Q 45.90625 40.484375 42.875 44.328125 
Q 39.84375 48.1875 33.796875 48.1875 
Q 26.515625 48.1875 22.3125 43.546875 
Q 18.109375 38.921875 18.109375 30.90625 
L 18.109375 0 
L 9.078125 0 
L 9.078125 54.6875 
L 18.109375 54.6875 
L 18.109375 46.1875 
Q 21.34375 51.125 25.703125 53.5625 
Q 30.078125 56 35.796875 56 
Q 45.21875 56 50.046875 50.171875 
Q 54.890625 44.34375 54.890625 33.015625 
z
" id="DejaVuSans-110"/>
       <path d="M 54.890625 33.015625 
L 54.890625 0 
L 45.90625 0 
L 45.90625 32.71875 
Q 45.90625 40.484375 42.875 44.328125 
Q 39.84375 48.1875 33.796875 48.1875 
Q 26.515625 48.1875 22.3125 43.546875 
Q 18.109375 38.921875 18.109375 30.90625 
L 18.109375 0 
L 9.078125 0 
L 9.078125 75.984375 
L 18.109375 75.984375 
L 18.109375 46.1875 
Q 21.34375 51.125 25.703125 53.5625 
Q 30.078125 56 35.796875 56 
Q 45.21875 56 50.046875 50.171875 
Q 54.890625 44.34375 54.890625 33.015625 
z
" id="DejaVuSans-104"/>
       <path d="M 30.609375 48.390625 
Q 23.390625 48.390625 19.1875 42.75 
Q 14.984375 37.109375 14.984375 27.296875 
Q 14.984375 17.484375 19.15625 11.84375 
Q 23.34375 6.203125 30.609375 6.203125 
Q 37.796875 6.203125 41.984375 11.859375 
Q 46.1875 17.53125 46.1875 27.296875 
Q 46.1875 37.015625 41.984375 42.703125 
Q 37.796875 48.390625 30.609375 48.390625 
z
M 30.609375 56 
Q 42.328125 56 49.015625 48.375 
Q 55.71875 40.765625 55.71875 27.296875 
Q 55.71875 13.875 49.015625 6.21875 
Q 42.328125 -1.421875 30.609375 -1.421875 
Q 18.84375 -1.421875 12.171875 6.21875 
Q 5.515625 13.875 5.515625 27.296875 
Q 5.515625 40.765625 12.171875 48.375 
Q 18.84375 56 30.609375 56 
z
" id="DejaVuSans-111"/>
       <path d="M 8.5 21.578125 
L 8.5 54.6875 
L 17.484375 54.6875 
L 17.484375 21.921875 
Q 17.484375 14.15625 20.5 10.265625 
Q 23.53125 6.390625 29.59375 6.390625 
Q 36.859375 6.390625 41.078125 11.03125 
Q 45.3125 15.671875 45.3125 23.6875 
L 45.3125 54.6875 
L 54.296875 54.6875 
L 54.296875 0 
L 45.3125 0 
L 45.3125 8.40625 
Q 42.046875 3.421875 37.71875 1 
Q 33.40625 -1.421875 27.6875 -1.421875 
Q 18.265625 -1.421875 13.375 4.4375 
Q 8.5 10.296875 8.5 21.578125 
z
M 31.109375 56 
z
" id="DejaVuSans-117"/>
       <path d="M 9.421875 75.984375 
L 18.40625 75.984375 
L 18.40625 0 
L 9.421875 0 
z
" id="DejaVuSans-108"/>
       <path d="M 41.109375 46.296875 
Q 39.59375 47.171875 37.8125 47.578125 
Q 36.03125 48 33.890625 48 
Q 26.265625 48 22.1875 43.046875 
Q 18.109375 38.09375 18.109375 28.8125 
L 18.109375 0 
L 9.078125 0 
L 9.078125 54.6875 
L 18.109375 54.6875 
L 18.109375 46.1875 
Q 20.953125 51.171875 25.484375 53.578125 
Q 30.03125 56 36.53125 56 
Q 37.453125 56 38.578125 55.875 
Q 39.703125 55.765625 41.0625 55.515625 
z
" id="DejaVuSans-114"/>
      </defs>
      <use xlink:href="#DejaVuSans-83"/>
      <use x="63.476562" xlink:href="#DejaVuSans-112"/>
      <use x="126.953125" xlink:href="#DejaVuSans-105"/>
      <use x="154.736328" xlink:href="#DejaVuSans-110"/>
      <use x="218.115234" xlink:href="#DejaVuSans-101"/>
      <use x="279.638672" xlink:href="#DejaVuSans-83"/>
      <use x="343.115234" xlink:href="#DejaVuSans-104"/>
      <use x="406.494141" xlink:href="#DejaVuSans-111"/>
      <use x="467.675781" xlink:href="#DejaVuSans-117"/>
      <use x="531.054688" xlink:href="#DejaVuSans-108"/>
      <use x="558.837891" xlink:href="#DejaVuSans-100"/>
      <use x="622.314453" xlink:href="#DejaVuSans-101"/>
      <use x="683.837891" xlink:href="#DejaVuSans-114"/>
     </g>
    </g>
   </g>
   <g id="text_4">
    <g clip-path="url(#p18deba4cef)">
     <!-- Spine -->
     <g transform="translate(268.124552 275.230216)scale(0.1 -0.1)">
      <use xlink:href="#DejaVuSans-83"/>
      <use x="63.476562" xlink:href="#DejaVuSans-112"/>
      <use x="126.953125" xlink:href="#DejaVuSans-105"/>
      <use x="154.736328" xlink:href="#DejaVuSans-110"/>
      <use x="218.115234" xlink:href="#DejaVuSans-101"/>
     </g>
    </g>
   </g>
   <g id="text_5">
    <g clip-path="url(#p18deba4cef)">
     <!-- Sacr -->
     <g transform="translate(254.836536 425.679362)scale(0.1 -0.1)">
      <use xlink:href="#DejaVuSans-83"/>
      <use x="63.476562" xlink:href="#DejaVuSans-97"/>
      <use x="124.755859" xlink:href="#DejaVuSans-99"/>
      <use x="179.736328" xlink:href="#DejaVuSans-114"/>
     </g>
    </g>
   </g>
   <g id="text_6">
    <g clip-path="url(#p18deba4cef)">
     <!-- LShoulder -->
     <g transform="translate(146.957904 165.83039)scale(0.1 -0.1)">
      <defs>
       <path d="M 9.8125 72.90625 
L 19.671875 72.90625 
L 19.671875 8.296875 
L 55.171875 8.296875 
L 55.171875 0 
L 9.8125 0 
z
" id="DejaVuSans-76"/>
      </defs>
      <use xlink:href="#DejaVuSans-76"/>
      <use x="55.712891" xlink:href="#DejaVuSans-83"/>
      <use x="119.189453" xlink:href="#DejaVuSans-104"/>
      <use x="182.568359" xlink:href="#DejaVuSans-111"/>
      <use x="243.75" xlink:href="#DejaVuSans-117"/>
      <use x="307.128906" xlink:href="#DejaVuSans-108"/>
      <use x="334.912109" xlink:href="#DejaVuSans-100"/>
      <use x="398.388672" xlink:href="#DejaVuSans-101"/>
      <use x="459.912109" xlink:href="#DejaVuSans-114"/>
     </g>
    </g>
   </g>
   <g id="text_7">
    <g clip-path="url(#p18deba4cef)">
     <!-- LElbow -->
     <g transform="translate(64.505708 279.72221)scale(0.1 -0.1)">
      <defs>
       <path d="M 9.8125 72.90625 
L 55.90625 72.90625 
L 55.90625 64.59375 
L 19.671875 64.59375 
L 19.671875 43.015625 
L 54.390625 43.015625 
L 54.390625 34.71875 
L 19.671875 34.71875 
L 19.671875 8.296875 
L 56.78125 8.296875 
L 56.78125 0 
L 9.8125 0 
z
" id="DejaVuSans-69"/>
       <path d="M 48.6875 27.296875 
Q 48.6875 37.203125 44.609375 42.84375 
Q 40.53125 48.484375 33.40625 48.484375 
Q 26.265625 48.484375 22.1875 42.84375 
Q 18.109375 37.203125 18.109375 27.296875 
Q 18.109375 17.390625 22.1875 11.75 
Q 26.265625 6.109375 33.40625 6.109375 
Q 40.53125 6.109375 44.609375 11.75 
Q 48.6875 17.390625 48.6875 27.296875 
z
M 18.109375 46.390625 
Q 20.953125 51.265625 25.265625 53.625 
Q 29.59375 56 35.59375 56 
Q 45.5625 56 51.78125 48.09375 
Q 58.015625 40.1875 58.015625 27.296875 
Q 58.015625 14.40625 51.78125 6.484375 
Q 45.5625 -1.421875 35.59375 -1.421875 
Q 29.59375 -1.421875 25.265625 0.953125 
Q 20.953125 3.328125 18.109375 8.203125 
L 18.109375 0 
L 9.078125 0 
L 9.078125 75.984375 
L 18.109375 75.984375 
z
" id="DejaVuSans-98"/>
       <path d="M 4.203125 54.6875 
L 13.1875 54.6875 
L 24.421875 12.015625 
L 35.59375 54.6875 
L 46.1875 54.6875 
L 57.421875 12.015625 
L 68.609375 54.6875 
L 77.59375 54.6875 
L 63.28125 0 
L 52.6875 0 
L 40.921875 44.828125 
L 29.109375 0 
L 18.5 0 
z
" id="DejaVuSans-119"/>
      </defs>
      <use xlink:href="#DejaVuSans-76"/>
      <use x="55.712891" xlink:href="#DejaVuSans-69"/>
      <use x="118.896484" xlink:href="#DejaVuSans-108"/>
      <use x="146.679688" xlink:href="#DejaVuSans-98"/>
      <use x="210.15625" xlink:href="#DejaVuSans-111"/>
      <use x="271.337891" xlink:href="#DejaVuSans-119"/>
     </g>
    </g>
   </g>
   <g id="text_8">
    <g clip-path="url(#p18deba4cef)">
     <!-- LWrist -->
     <g transform="translate(34.925659 415.102085)scale(0.1 -0.1)">
      <defs>
       <path d="M 3.328125 72.90625 
L 13.28125 72.90625 
L 28.609375 11.28125 
L 43.890625 72.90625 
L 54.984375 72.90625 
L 70.3125 11.28125 
L 85.59375 72.90625 
L 95.609375 72.90625 
L 77.296875 0 
L 64.890625 0 
L 49.515625 63.28125 
L 33.984375 0 
L 21.578125 0 
z
" id="DejaVuSans-87"/>
       <path d="M 44.28125 53.078125 
L 44.28125 44.578125 
Q 40.484375 46.53125 36.375 47.5 
Q 32.28125 48.484375 27.875 48.484375 
Q 21.1875 48.484375 17.84375 46.4375 
Q 14.5 44.390625 14.5 40.28125 
Q 14.5 37.15625 16.890625 35.375 
Q 19.28125 33.59375 26.515625 31.984375 
L 29.59375 31.296875 
Q 39.15625 29.25 43.1875 25.515625 
Q 47.21875 21.78125 47.21875 15.09375 
Q 47.21875 7.46875 41.1875 3.015625 
Q 35.15625 -1.421875 24.609375 -1.421875 
Q 20.21875 -1.421875 15.453125 -0.5625 
Q 10.6875 0.296875 5.421875 2 
L 5.421875 11.28125 
Q 10.40625 8.6875 15.234375 7.390625 
Q 20.0625 6.109375 24.8125 6.109375 
Q 31.15625 6.109375 34.5625 8.28125 
Q 37.984375 10.453125 37.984375 14.40625 
Q 37.984375 18.0625 35.515625 20.015625 
Q 33.0625 21.96875 24.703125 23.78125 
L 21.578125 24.515625 
Q 13.234375 26.265625 9.515625 29.90625 
Q 5.8125 33.546875 5.8125 39.890625 
Q 5.8125 47.609375 11.28125 51.796875 
Q 16.75 56 26.8125 56 
Q 31.78125 56 36.171875 55.265625 
Q 40.578125 54.546875 44.28125 53.078125 
z
" id="DejaVuSans-115"/>
       <path d="M 18.3125 70.21875 
L 18.3125 54.6875 
L 36.8125 54.6875 
L 36.8125 47.703125 
L 18.3125 47.703125 
L 18.3125 18.015625 
Q 18.3125 11.328125 20.140625 9.421875 
Q 21.96875 7.515625 27.59375 7.515625 
L 36.8125 7.515625 
L 36.8125 0 
L 27.59375 0 
Q 17.1875 0 13.234375 3.875 
Q 9.28125 7.765625 9.28125 18.015625 
L 9.28125 47.703125 
L 2.6875 47.703125 
L 2.6875 54.6875 
L 9.28125 54.6875 
L 9.28125 70.21875 
z
" id="DejaVuSans-116"/>
      </defs>
      <use xlink:href="#DejaVuSans-76"/>
      <use x="46.587891" xlink:href="#DejaVuSans-87"/>
      <use x="140.964844" xlink:href="#DejaVuSans-114"/>
      <use x="182.078125" xlink:href="#DejaVuSans-105"/>
      <use x="209.861328" xlink:href="#DejaVuSans-115"/>
      <use x="261.960938" xlink:href="#DejaVuSans-116"/>
     </g>
    </g>
   </g>
   <g id="text_9">
    <g clip-path="url(#p18deba4cef)">
     <!-- LHand -->
     <g transform="translate(40.290116 442.455083)scale(0.1 -0.1)">
      <use xlink:href="#DejaVuSans-76"/>
      <use x="55.712891" xlink:href="#DejaVuSans-72"/>
      <use x="130.908203" xlink:href="#DejaVuSans-97"/>
      <use x="192.1875" xlink:href="#DejaVuSans-110"/>
      <use x="255.566406" xlink:href="#DejaVuSans-100"/>
     </g>
    </g>
   </g>
   <g id="text_10">
    <g clip-path="url(#p18deba4cef)">
     <!-- RShoulder -->
     <g transform="translate(405.023511 192.158748)scale(0.1 -0.1)">
      <defs>
       <path d="M 44.390625 34.1875 
Q 47.5625 33.109375 50.5625 29.59375 
Q 53.5625 26.078125 56.59375 19.921875 
L 66.609375 0 
L 56 0 
L 46.6875 18.703125 
Q 43.0625 26.03125 39.671875 28.421875 
Q 36.28125 30.8125 30.421875 30.8125 
L 19.671875 30.8125 
L 19.671875 0 
L 9.8125 0 
L 9.8125 72.90625 
L 32.078125 72.90625 
Q 44.578125 72.90625 50.734375 67.671875 
Q 56.890625 62.453125 56.890625 51.90625 
Q 56.890625 45.015625 53.6875 40.46875 
Q 50.484375 35.9375 44.390625 34.1875 
z
M 19.671875 64.796875 
L 19.671875 38.921875 
L 32.078125 38.921875 
Q 39.203125 38.921875 42.84375 42.21875 
Q 46.484375 45.515625 46.484375 51.90625 
Q 46.484375 58.296875 42.84375 61.546875 
Q 39.203125 64.796875 32.078125 64.796875 
z
" id="DejaVuSans-82"/>
      </defs>
      <use xlink:href="#DejaVuSans-82"/>
      <use x="69.482422" xlink:href="#DejaVuSans-83"/>
      <use x="132.958984" xlink:href="#DejaVuSans-104"/>
      <use x="196.337891" xlink:href="#DejaVuSans-111"/>
      <use x="257.519531" xlink:href="#DejaVuSans-117"/>
      <use x="320.898438" xlink:href="#DejaVuSans-108"/>
      <use x="348.681641" xlink:href="#DejaVuSans-100"/>
      <use x="412.158203" xlink:href="#DejaVuSans-101"/>
      <use x="473.681641" xlink:href="#DejaVuSans-114"/>
     </g>
    </g>
   </g>
   <g id="text_11">
    <g clip-path="url(#p18deba4cef)">
     <!-- RElbow -->
     <g transform="translate(452.653913 299.393695)scale(0.1 -0.1)">
      <use xlink:href="#DejaVuSans-82"/>
      <use x="69.482422" xlink:href="#DejaVuSans-69"/>
      <use x="132.666016" xlink:href="#DejaVuSans-108"/>
      <use x="160.449219" xlink:href="#DejaVuSans-98"/>
      <use x="223.925781" xlink:href="#DejaVuSans-111"/>
      <use x="285.107422" xlink:href="#DejaVuSans-119"/>
     </g>
    </g>
   </g>
   <g id="text_12">
    <g clip-path="url(#p18deba4cef)">
     <!-- RWrist -->
     <g transform="translate(481.638322 400.822513)scale(0.1 -0.1)">
      <use xlink:href="#DejaVuSans-82"/>
      <use x="65.482422" xlink:href="#DejaVuSans-87"/>
      <use x="159.859375" xlink:href="#DejaVuSans-114"/>
      <use x="200.972656" xlink:href="#DejaVuSans-105"/>
      <use x="228.755859" xlink:href="#DejaVuSans-115"/>
      <use x="280.855469" xlink:href="#DejaVuSans-116"/>
     </g>
    </g>
   </g>
   <g id="text_13">
    <g clip-path="url(#p18deba4cef)">
     <!-- RHand -->
     <g transform="translate(493.7301 413.208958)scale(0.1 -0.1)">
      <use xlink:href="#DejaVuSans-82"/>
      <use x="69.482422" xlink:href="#DejaVuSans-72"/>
      <use x="144.677734" xlink:href="#DejaVuSans-97"/>
      <use x="205.957031" xlink:href="#DejaVuSans-110"/>
      <use x="269.335938" xlink:href="#DejaVuSans-100"/>
     </g>
    </g>
   </g>
   <g id="text_14">
    <g clip-path="url(#p18deba4cef)">
     <!-- LHip -->
     <g transform="translate(181.238522 412.841892)scale(0.1 -0.1)">
      <use xlink:href="#DejaVuSans-76"/>
      <use x="55.712891" xlink:href="#DejaVuSans-72"/>
      <use x="130.908203" xlink:href="#DejaVuSans-105"/>
      <use x="158.691406" xlink:href="#DejaVuSans-112"/>
     </g>
    </g>
   </g>
   <g id="text_15">
    <g clip-path="url(#p18deba4cef)">
     <!-- LKnee -->
     <g transform="translate(119.398587 571.417897)scale(0.1 -0.1)">
      <defs>
       <path d="M 9.8125 72.90625 
L 19.671875 72.90625 
L 19.671875 42.09375 
L 52.390625 72.90625 
L 65.09375 72.90625 
L 28.90625 38.921875 
L 67.671875 0 
L 54.6875 0 
L 19.671875 35.109375 
L 19.671875 0 
L 9.8125 0 
z
" id="DejaVuSans-75"/>
      </defs>
      <use xlink:href="#DejaVuSans-76"/>
      <use x="55.712891" xlink:href="#DejaVuSans-75"/>
      <use x="121.289062" xlink:href="#DejaVuSans-110"/>
      <use x="184.667969" xlink:href="#DejaVuSans-101"/>
      <use x="246.191406" xlink:href="#DejaVuSans-101"/>
     </g>
    </g>
   </g>
   <g id="text_16">
    <g clip-path="url(#p18deba4cef)">
     <!-- LAnkle -->
     <g transform="translate(89.455355 698.41559)scale(0.1 -0.1)">
      <defs>
       <path d="M 34.1875 63.1875 
L 20.796875 26.90625 
L 47.609375 26.90625 
z
M 28.609375 72.90625 
L 39.796875 72.90625 
L 67.578125 0 
L 57.328125 0 
L 50.6875 18.703125 
L 17.828125 18.703125 
L 11.1875 0 
L 0.78125 0 
z
" id="DejaVuSans-65"/>
       <path d="M 9.078125 75.984375 
L 18.109375 75.984375 
L 18.109375 31.109375 
L 44.921875 54.6875 
L 56.390625 54.6875 
L 27.390625 29.109375 
L 57.625 0 
L 45.90625 0 
L 18.109375 26.703125 
L 18.109375 0 
L 9.078125 0 
z
" id="DejaVuSans-107"/>
      </defs>
      <use xlink:href="#DejaVuSans-76"/>
      <use x="57.962891" xlink:href="#DejaVuSans-65"/>
      <use x="126.371094" xlink:href="#DejaVuSans-110"/>
      <use x="189.75" xlink:href="#DejaVuSans-107"/>
      <use x="247.660156" xlink:href="#DejaVuSans-108"/>
      <use x="275.443359" xlink:href="#DejaVuSans-101"/>
     </g>
    </g>
   </g>
   <g id="text_17">
    <g clip-path="url(#p18deba4cef)">
     <!-- LFoot -->
     <g transform="translate(116.69178 738.13374)scale(0.1 -0.1)">
      <defs>
       <path d="M 9.8125 72.90625 
L 51.703125 72.90625 
L 51.703125 64.59375 
L 19.671875 64.59375 
L 19.671875 43.109375 
L 48.578125 43.109375 
L 48.578125 34.8125 
L 19.671875 34.8125 
L 19.671875 0 
L 9.8125 0 
z
" id="DejaVuSans-70"/>
      </defs>
      <use xlink:href="#DejaVuSans-76"/>
      <use x="55.712891" xlink:href="#DejaVuSans-70"/>
      <use x="109.607422" xlink:href="#DejaVuSans-111"/>
      <use x="170.789062" xlink:href="#DejaVuSans-111"/>
      <use x="231.970703" xlink:href="#DejaVuSans-116"/>
     </g>
    </g>
   </g>
   <g id="text_18">
    <g clip-path="url(#p18deba4cef)">
     <!-- RHip -->
     <g transform="translate(304.56412 429.344646)scale(0.1 -0.1)">
      <use xlink:href="#DejaVuSans-82"/>
      <use x="69.482422" xlink:href="#DejaVuSans-72"/>
      <use x="144.677734" xlink:href="#DejaVuSans-105"/>
      <use x="172.460938" xlink:href="#DejaVuSans-112"/>
     </g>
    </g>
   </g>
   <g id="text_19">
    <g clip-path="url(#p18deba4cef)">
     <!-- RKnee -->
     <g transform="translate(300.754278 562.935836)scale(0.1 -0.1)">
      <use xlink:href="#DejaVuSans-82"/>
      <use x="69.482422" xlink:href="#DejaVuSans-75"/>
      <use x="135.058594" xlink:href="#DejaVuSans-110"/>
      <use x="198.4375" xlink:href="#DejaVuSans-101"/>
      <use x="259.960938" xlink:href="#DejaVuSans-101"/>
     </g>
    </g>
   </g>
   <g id="text_20">
    <g clip-path="url(#p18deba4cef)">
     <!-- RAnkle -->
     <g transform="translate(226.857024 756.177765)scale(0.1 -0.1)">
      <use xlink:href="#DejaVuSans-82"/>
      <use x="65.482422" xlink:href="#DejaVuSans-65"/>
      <use x="133.890625" xlink:href="#DejaVuSans-110"/>
      <use x="197.269531" xlink:href="#DejaVuSans-107"/>
      <use x="255.179688" xlink:href="#DejaVuSans-108"/>
      <use x="282.962891" xlink:href="#DejaVuSans-101"/>
     </g>
    </g>
   </g>
   <g id="text_21">
    <g clip-path="url(#p18deba4cef)">
     <!-- RFoot -->
     <g transform="translate(227.010086 791.784168)scale(0.1 -0.1)">
      <use xlink:href="#DejaVuSans-82"/>
      <use x="69.482422" xlink:href="#DejaVuSans-70"/>
      <use x="123.376953" xlink:href="#DejaVuSans-111"/>
      <use x="184.558594" xlink:href="#DejaVuSans-111"/>
      <use x="245.740234" xlink:href="#DejaVuSans-116"/>
     </g>
    </g>
   </g>
   <g id="text_22">
    <g clip-path="url(#p18deba4cef)">
     <!-- LHandTip -->
     <g transform="translate(33.463079 483.398138)scale(0.1 -0.1)">
      <defs>
       <path d="M -0.296875 72.90625 
L 61.375 72.90625 
L 61.375 64.59375 
L 35.5 64.59375 
L 35.5 0 
L 25.59375 0 
L 25.59375 64.59375 
L -0.296875 64.59375 
z
" id="DejaVuSans-84"/>
      </defs>
      <use xlink:href="#DejaVuSans-76"/>
      <use x="55.712891" xlink:href="#DejaVuSans-72"/>
      <use x="130.908203" xlink:href="#DejaVuSans-97"/>
      <use x="192.1875" xlink:href="#DejaVuSans-110"/>
      <use x="255.566406" xlink:href="#DejaVuSans-100"/>
      <use x="319.042969" xlink:href="#DejaVuSans-84"/>
      <use x="377.001953" xlink:href="#DejaVuSans-105"/>
      <use x="404.785156" xlink:href="#DejaVuSans-112"/>
     </g>
    </g>
   </g>
   <g id="text_23">
    <g clip-path="url(#p18deba4cef)">
     <!-- LThumb -->
     <g transform="translate(71.819925 430.115282)scale(0.1 -0.1)">
      <defs>
       <path d="M 52 44.1875 
Q 55.375 50.25 60.0625 53.125 
Q 64.75 56 71.09375 56 
Q 79.640625 56 84.28125 50.015625 
Q 88.921875 44.046875 88.921875 33.015625 
L 88.921875 0 
L 79.890625 0 
L 79.890625 32.71875 
Q 79.890625 40.578125 77.09375 44.375 
Q 74.3125 48.1875 68.609375 48.1875 
Q 61.625 48.1875 57.5625 43.546875 
Q 53.515625 38.921875 53.515625 30.90625 
L 53.515625 0 
L 44.484375 0 
L 44.484375 32.71875 
Q 44.484375 40.625 41.703125 44.40625 
Q 38.921875 48.1875 33.109375 48.1875 
Q 26.21875 48.1875 22.15625 43.53125 
Q 18.109375 38.875 18.109375 30.90625 
L 18.109375 0 
L 9.078125 0 
L 9.078125 54.6875 
L 18.109375 54.6875 
L 18.109375 46.1875 
Q 21.1875 51.21875 25.484375 53.609375 
Q 29.78125 56 35.6875 56 
Q 41.65625 56 45.828125 52.96875 
Q 50 49.953125 52 44.1875 
z
" id="DejaVuSans-109"/>
      </defs>
      <use xlink:href="#DejaVuSans-76"/>
      <use x="41.962891" xlink:href="#DejaVuSans-84"/>
      <use x="103.046875" xlink:href="#DejaVuSans-104"/>
      <use x="166.425781" xlink:href="#DejaVuSans-117"/>
      <use x="229.804688" xlink:href="#DejaVuSans-109"/>
      <use x="327.216797" xlink:href="#DejaVuSans-98"/>
     </g>
    </g>
   </g>
   <g id="text_24">
    <g clip-path="url(#p18deba4cef)">
     <!-- RHandTip -->
     <g transform="translate(501.914185 457.074851)scale(0.1 -0.1)">
      <use xlink:href="#DejaVuSans-82"/>
      <use x="69.482422" xlink:href="#DejaVuSans-72"/>
      <use x="144.677734" xlink:href="#DejaVuSans-97"/>
      <use x="205.957031" xlink:href="#DejaVuSans-110"/>
      <use x="269.335938" xlink:href="#DejaVuSans-100"/>
      <use x="332.8125" xlink:href="#DejaVuSans-84"/>
      <use x="390.771484" xlink:href="#DejaVuSans-105"/>
      <use x="418.554688" xlink:href="#DejaVuSans-112"/>
     </g>
    </g>
   </g>
   <g id="text_25">
    <g clip-path="url(#p18deba4cef)">
     <!-- RThumb -->
     <g transform="translate(455.654838 413.164342)scale(0.1 -0.1)">
      <use xlink:href="#DejaVuSans-82"/>
      <use x="62.232422" xlink:href="#DejaVuSans-84"/>
      <use x="123.316406" xlink:href="#DejaVuSans-104"/>
      <use x="186.695312" xlink:href="#DejaVuSans-117"/>
      <use x="250.074219" xlink:href="#DejaVuSans-109"/>
      <use x="347.486328" xlink:href="#DejaVuSans-98"/>
     </g>
    </g>
   </g>
   <g id="text_26">
    <!-- Node Graph Visualization - Frame 144 -->
    <g transform="translate(174.194063 -6)scale(0.12 -0.12)">
     <defs>
      <path d="M 9.8125 72.90625 
L 23.09375 72.90625 
L 55.421875 11.921875 
L 55.421875 72.90625 
L 64.984375 72.90625 
L 64.984375 0 
L 51.703125 0 
L 19.390625 60.984375 
L 19.390625 0 
L 9.8125 0 
z
" id="DejaVuSans-78"/>
      <path id="DejaVuSans-32"/>
      <path d="M 59.515625 10.40625 
L 59.515625 29.984375 
L 43.40625 29.984375 
L 43.40625 38.09375 
L 69.28125 38.09375 
L 69.28125 6.78125 
Q 63.578125 2.734375 56.6875 0.65625 
Q 49.8125 -1.421875 42 -1.421875 
Q 24.90625 -1.421875 15.25 8.5625 
Q 5.609375 18.5625 5.609375 36.375 
Q 5.609375 54.25 15.25 64.234375 
Q 24.90625 74.21875 42 74.21875 
Q 49.125 74.21875 55.546875 72.453125 
Q 61.96875 70.703125 67.390625 67.28125 
L 67.390625 56.78125 
Q 61.921875 61.421875 55.765625 63.765625 
Q 49.609375 66.109375 42.828125 66.109375 
Q 29.4375 66.109375 22.71875 58.640625 
Q 16.015625 51.171875 16.015625 36.375 
Q 16.015625 21.625 22.71875 14.15625 
Q 29.4375 6.6875 42.828125 6.6875 
Q 48.046875 6.6875 52.140625 7.59375 
Q 56.25 8.5 59.515625 10.40625 
z
" id="DejaVuSans-71"/>
      <path d="M 28.609375 0 
L 0.78125 72.90625 
L 11.078125 72.90625 
L 34.1875 11.53125 
L 57.328125 72.90625 
L 67.578125 72.90625 
L 39.796875 0 
z
" id="DejaVuSans-86"/>
      <path d="M 5.515625 54.6875 
L 48.1875 54.6875 
L 48.1875 46.484375 
L 14.40625 7.171875 
L 48.1875 7.171875 
L 48.1875 0 
L 4.296875 0 
L 4.296875 8.203125 
L 38.09375 47.515625 
L 5.515625 47.515625 
z
" id="DejaVuSans-122"/>
      <path d="M 4.890625 31.390625 
L 31.203125 31.390625 
L 31.203125 23.390625 
L 4.890625 23.390625 
z
" id="DejaVuSans-45"/>
      <path d="M 12.40625 8.296875 
L 28.515625 8.296875 
L 28.515625 63.921875 
L 10.984375 60.40625 
L 10.984375 69.390625 
L 28.421875 72.90625 
L 38.28125 72.90625 
L 38.28125 8.296875 
L 54.390625 8.296875 
L 54.390625 0 
L 12.40625 0 
z
" id="DejaVuSans-49"/>
      <path d="M 37.796875 64.3125 
L 12.890625 25.390625 
L 37.796875 25.390625 
z
M 35.203125 72.90625 
L 47.609375 72.90625 
L 47.609375 25.390625 
L 58.015625 25.390625 
L 58.015625 17.1875 
L 47.609375 17.1875 
L 47.609375 0 
L 37.796875 0 
L 37.796875 17.1875 
L 4.890625 17.1875 
L 4.890625 26.703125 
z
" id="DejaVuSans-52"/>
     </defs>
     <use xlink:href="#DejaVuSans-78"/>
     <use x="74.804688" xlink:href="#DejaVuSans-111"/>
     <use x="135.986328" xlink:href="#DejaVuSans-100"/>
     <use x="199.462891" xlink:href="#DejaVuSans-101"/>
     <use x="260.986328" xlink:href="#DejaVuSans-32"/>
     <use x="292.773438" xlink:href="#DejaVuSans-71"/>
     <use x="370.263672" xlink:href="#DejaVuSans-114"/>
     <use x="411.376953" xlink:href="#DejaVuSans-97"/>
     <use x="472.65625" xlink:href="#DejaVuSans-112"/>
     <use x="536.132812" xlink:href="#DejaVuSans-104"/>
     <use x="599.511719" xlink:href="#DejaVuSans-32"/>
     <use x="631.298828" xlink:href="#DejaVuSans-86"/>
     <use x="697.457031" xlink:href="#DejaVuSans-105"/>
     <use x="725.240234" xlink:href="#DejaVuSans-115"/>
     <use x="777.339844" xlink:href="#DejaVuSans-117"/>
     <use x="840.71875" xlink:href="#DejaVuSans-97"/>
     <use x="901.998047" xlink:href="#DejaVuSans-108"/>
     <use x="929.78125" xlink:href="#DejaVuSans-105"/>
     <use x="957.564453" xlink:href="#DejaVuSans-122"/>
     <use x="1010.054688" xlink:href="#DejaVuSans-97"/>
     <use x="1071.333984" xlink:href="#DejaVuSans-116"/>
     <use x="1110.542969" xlink:href="#DejaVuSans-105"/>
     <use x="1138.326172" xlink:href="#DejaVuSans-111"/>
     <use x="1199.507812" xlink:href="#DejaVuSans-110"/>
     <use x="1262.886719" xlink:href="#DejaVuSans-32"/>
     <use x="1294.673828" xlink:href="#DejaVuSans-45"/>
     <use x="1330.757812" xlink:href="#DejaVuSans-32"/>
     <use x="1362.544922" xlink:href="#DejaVuSans-70"/>
     <use x="1412.814453" xlink:href="#DejaVuSans-114"/>
     <use x="1453.927734" xlink:href="#DejaVuSans-97"/>
     <use x="1515.207031" xlink:href="#DejaVuSans-109"/>
     <use x="1612.619141" xlink:href="#DejaVuSans-101"/>
     <use x="1674.142578" xlink:href="#DejaVuSans-32"/>
     <use x="1705.929688" xlink:href="#DejaVuSans-49"/>
     <use x="1769.552734" xlink:href="#DejaVuSans-52"/>
     <use x="1833.175781" xlink:href="#DejaVuSans-52"/>
    </g>
   </g>
  </g>
 </g>
 <defs>
  <clipPath id="p18deba4cef">
   <rect height="864" width="576" x="0" y="0"/>
  </clipPath>
 </defs>
</svg>
