<?xml version="1.0" encoding="utf-8" standalone="no"?>
<!DOCTYPE svg PUBLIC "-//W3C//DTD SVG 1.1//EN"
  "http://www.w3.org/Graphics/SVG/1.1/DTD/svg11.dtd">
<!-- Created with matplotlib (https://matplotlib.org/) -->
<svg height="864pt" version="1.1" viewBox="0 0 576 864" width="576pt" xmlns="http://www.w3.org/2000/svg" xmlns:xlink="http://www.w3.org/1999/xlink">
 <metadata>
  <rdf:RDF xmlns:cc="http://creativecommons.org/ns#" xmlns:dc="http://purl.org/dc/elements/1.1/" xmlns:rdf="http://www.w3.org/1999/02/22-rdf-syntax-ns#">
   <cc:Work>
    <dc:type rdf:resource="http://purl.org/dc/dcmitype/StillImage"/>
    <dc:date>2024-02-04T22:27:54.232500</dc:date>
    <dc:format>image/svg+xml</dc:format>
    <dc:creator>
     <cc:Agent>
      <dc:title>Matplotlib v3.3.2, https://matplotlib.org/</dc:title>
     </cc:Agent>
    </dc:creator>
   </cc:Work>
  </rdf:RDF>
 </metadata>
 <defs>
  <style type="text/css">*{stroke-linecap:butt;stroke-linejoin:round;}</style>
 </defs>
 <g id="figure_1">
  <g id="patch_1">
   <path d="M 0 864 
L 576 864 
L 576 0 
L 0 0 
z
" style="fill:#ffffff;"/>
  </g>
  <g id="axes_1">
   <g id="patch_2">
    <path clip-path="url(#p03cfb99f74)" d="M 331.817488 87.66021 
Q 329.526817 95.410439 327.553042 102.088484 
" style="fill:none;stroke:#000000;stroke-linecap:round;"/>
    <path clip-path="url(#p03cfb99f74)" d="M 330.604784 98.819406 
L 327.553042 102.088484 
L 326.768825 97.685644 
L 330.604784 98.819406 
z
" style="stroke:#000000;stroke-linecap:round;"/>
   </g>
   <g id="patch_3">
    <path clip-path="url(#p03cfb99f74)" d="M 322.649766 129.04861 
Q 322.631094 129.343163 322.683154 128.521922 
" style="fill:none;stroke:#000000;stroke-linecap:round;"/>
    <path clip-path="url(#p03cfb99f74)" d="M 324.932207 124.656465 
L 322.683154 128.521922 
L 320.94022 124.403405 
L 324.932207 124.656465 
z
" style="stroke:#000000;stroke-linecap:round;"/>
   </g>
   <g id="patch_4">
    <path clip-path="url(#p03cfb99f74)" d="M 327.235867 103.161609 
Q 329.526538 95.411381 331.500313 88.733335 
" style="fill:none;stroke:#000000;stroke-linecap:round;"/>
    <path clip-path="url(#p03cfb99f74)" d="M 328.448571 92.002413 
L 331.500313 88.733335 
L 332.28453 93.136176 
L 328.448571 92.002413 
z
" style="stroke:#000000;stroke-linecap:round;"/>
   </g>
   <g id="patch_5">
    <path clip-path="url(#p03cfb99f74)" d="M 320.864042 156.035712 
Q 318.898162 184.497331 317.009323 211.843574 
" style="fill:none;stroke:#000000;stroke-linecap:round;"/>
    <path clip-path="url(#p03cfb99f74)" d="M 319.280197 207.990896 
L 317.009323 211.843574 
L 315.289705 207.715268 
L 319.280197 207.990896 
z
" style="stroke:#000000;stroke-linecap:round;"/>
   </g>
   <g id="patch_6">
    <path clip-path="url(#p03cfb99f74)" d="M 308.60424 141.624049 
Q 231.877942 134.557969 156.264967 127.59442 
" style="fill:none;stroke:#000000;stroke-linecap:round;"/>
    <path clip-path="url(#p03cfb99f74)" d="M 160.064698 129.952818 
L 156.264967 127.59442 
L 160.431524 125.969674 
L 160.064698 129.952818 
z
" style="stroke:#000000;stroke-linecap:round;"/>
   </g>
   <g id="patch_7">
    <path clip-path="url(#p03cfb99f74)" d="M 335.000541 143.091078 
Q 412.604306 144.581607 489.090244 146.050667 
" style="fill:none;stroke:#000000;stroke-linecap:round;"/>
    <path clip-path="url(#p03cfb99f74)" d="M 485.129388 143.974222 
L 489.090244 146.050667 
L 485.052574 147.973484 
L 485.129388 143.974222 
z
" style="stroke:#000000;stroke-linecap:round;"/>
   </g>
   <g id="patch_8">
    <path clip-path="url(#p03cfb99f74)" d="M 322.612589 129.635072 
Q 322.631261 129.340519 322.579201 130.16176 
" style="fill:none;stroke:#000000;stroke-linecap:round;"/>
    <path clip-path="url(#p03cfb99f74)" d="M 320.330148 134.027217 
L 322.579201 130.16176 
L 324.322135 134.280277 
L 320.330148 134.027217 
z
" style="stroke:#000000;stroke-linecap:round;"/>
   </g>
   <g id="patch_9">
    <path clip-path="url(#p03cfb99f74)" d="M 315.040763 239.344349 
Q 311.793658 283.043748 308.6294 325.628187 
" style="fill:none;stroke:#000000;stroke-linecap:round;"/>
    <path clip-path="url(#p03cfb99f74)" d="M 310.920306 321.787386 
L 308.6294 325.628187 
L 306.931303 321.490982 
L 310.920306 321.787386 
z
" style="stroke:#000000;stroke-linecap:round;"/>
   </g>
   <g id="patch_10">
    <path clip-path="url(#p03cfb99f74)" d="M 316.932598 212.95438 
Q 318.898478 184.49276 320.787318 157.146517 
" style="fill:none;stroke:#000000;stroke-linecap:round;"/>
    <path clip-path="url(#p03cfb99f74)" d="M 318.516443 160.999195 
L 320.787318 157.146517 
L 322.506936 161.274824 
L 318.516443 160.999195 
z
" style="stroke:#000000;stroke-linecap:round;"/>
   </g>
   <g id="patch_11">
    <path clip-path="url(#p03cfb99f74)" d="M 294.33747 339.872862 
Q 265.810516 339.741336 238.401584 339.614965 
" style="fill:none;stroke:#000000;stroke-linecap:round;"/>
    <path clip-path="url(#p03cfb99f74)" d="M 242.39232 341.633386 
L 238.401584 339.614965 
L 242.410762 337.633428 
L 242.39232 341.633386 
z
" style="stroke:#000000;stroke-linecap:round;"/>
   </g>
   <g id="patch_12">
    <path clip-path="url(#p03cfb99f74)" d="M 320.772781 340.71602 
Q 348.695462 342.369778 375.502066 343.957435 
" style="fill:none;stroke:#000000;stroke-linecap:round;"/>
    <path clip-path="url(#p03cfb99f74)" d="M 371.627309 341.724443 
L 375.502066 343.957435 
L 371.390818 345.717445 
L 371.627309 341.724443 
z
" style="stroke:#000000;stroke-linecap:round;"/>
   </g>
   <g id="patch_13">
    <path clip-path="url(#p03cfb99f74)" d="M 308.546598 326.742528 
Q 311.793704 283.043129 314.957961 240.45869 
" style="fill:none;stroke:#000000;stroke-linecap:round;"/>
    <path clip-path="url(#p03cfb99f74)" d="M 312.667055 244.299491 
L 314.957961 240.45869 
L 316.656058 244.595896 
L 312.667055 244.299491 
z
" style="stroke:#000000;stroke-linecap:round;"/>
   </g>
   <g id="patch_14">
    <path clip-path="url(#p03cfb99f74)" d="M 132.846221 135.854268 
Q 95.980541 174.507313 59.886503 212.351304 
" style="fill:none;stroke:#000000;stroke-linecap:round;"/>
    <path clip-path="url(#p03cfb99f74)" d="M 64.094494 210.8371 
L 59.886503 212.351304 
L 61.199935 208.076389 
L 64.094494 210.8371 
z
" style="stroke:#000000;stroke-linecap:round;"/>
   </g>
   <g id="patch_15">
    <path clip-path="url(#p03cfb99f74)" d="M 155.150401 127.491774 
Q 231.876699 134.557855 307.489674 141.521404 
" style="fill:none;stroke:#000000;stroke-linecap:round;"/>
    <path clip-path="url(#p03cfb99f74)" d="M 303.689942 139.163005 
L 307.489674 141.521404 
L 303.323116 143.14615 
L 303.689942 139.163005 
z
" style="stroke:#000000;stroke-linecap:round;"/>
   </g>
   <g id="patch_16">
    <path clip-path="url(#p03cfb99f74)" d="M 62.738469 226.245788 
Q 146.132687 249.203373 228.448971 271.864213 
" style="fill:none;stroke:#000000;stroke-linecap:round;"/>
    <path clip-path="url(#p03cfb99f74)" d="M 225.123268 268.87428 
L 228.448971 271.864213 
L 224.061603 272.730816 
L 225.123268 268.87428 
z
" style="stroke:#000000;stroke-linecap:round;"/>
   </g>
   <g id="patch_17">
    <path clip-path="url(#p03cfb99f74)" d="M 59.116201 213.158953 
Q 95.981881 174.505908 132.075919 136.661917 
" style="fill:none;stroke:#000000;stroke-linecap:round;"/>
    <path clip-path="url(#p03cfb99f74)" d="M 127.867928 138.176121 
L 132.075919 136.661917 
L 130.762487 140.936832 
L 127.867928 138.176121 
z
" style="stroke:#000000;stroke-linecap:round;"/>
   </g>
   <g id="patch_18">
    <path clip-path="url(#p03cfb99f74)" d="M 255.153652 278.696794 
Q 275.514401 283.481166 294.78676 288.009787 
" style="fill:none;stroke:#000000;stroke-linecap:round;"/>
    <path clip-path="url(#p03cfb99f74)" d="M 291.350319 285.147818 
L 294.78676 288.009787 
L 290.43532 289.041759 
L 291.350319 285.147818 
z
" style="stroke:#000000;stroke-linecap:round;"/>
   </g>
   <g id="patch_19">
    <path clip-path="url(#p03cfb99f74)" d="M 229.524658 272.160339 
Q 146.13044 249.202754 63.814156 226.541914 
" style="fill:none;stroke:#000000;stroke-linecap:round;"/>
    <path clip-path="url(#p03cfb99f74)" d="M 67.139859 229.531847 
L 63.814156 226.541914 
L 68.201524 225.675312 
L 67.139859 229.531847 
z
" style="stroke:#000000;stroke-linecap:round;"/>
   </g>
   <g id="patch_20">
    <path clip-path="url(#p03cfb99f74)" d="M 321.611113 294.397224 
Q 327.042632 295.709117 331.387367 296.758516 
" style="fill:none;stroke:#000000;stroke-linecap:round;"/>
    <path clip-path="url(#p03cfb99f74)" d="M 327.968739 293.875292 
L 331.387367 296.758516 
L 327.029611 297.763484 
L 327.968739 293.875292 
z
" style="stroke:#000000;stroke-linecap:round;"/>
   </g>
   <g id="patch_21">
    <path clip-path="url(#p03cfb99f74)" d="M 321.603699 288.149604 
Q 324.82264 287.36229 326.955559 286.840604 
" style="fill:none;stroke:#000000;stroke-linecap:round;"/>
    <path clip-path="url(#p03cfb99f74)" d="M 322.594923 285.848209 
L 326.955559 286.840604 
L 323.545261 289.733676 
L 322.594923 285.848209 
z
" style="stroke:#000000;stroke-linecap:round;"/>
   </g>
   <g id="patch_22">
    <path clip-path="url(#p03cfb99f74)" d="M 295.881409 288.267008 
Q 275.52066 283.482637 256.248301 278.954015 
" style="fill:none;stroke:#000000;stroke-linecap:round;"/>
    <path clip-path="url(#p03cfb99f74)" d="M 259.684742 281.815984 
L 256.248301 278.954015 
L 260.599741 277.922043 
L 259.684742 281.815984 
z
" style="stroke:#000000;stroke-linecap:round;"/>
   </g>
   <g id="patch_23">
    <path clip-path="url(#p03cfb99f74)" d="M 506.003375 159.301239 
Q 514.726455 203.395056 523.232559 246.392095 
" style="fill:none;stroke:#000000;stroke-linecap:round;"/>
    <path clip-path="url(#p03cfb99f74)" d="M 524.418259 242.080005 
L 523.232559 246.392095 
L 520.494307 242.856281 
L 524.418259 242.080005 
z
" style="stroke:#000000;stroke-linecap:round;"/>
   </g>
   <g id="patch_24">
    <path clip-path="url(#p03cfb99f74)" d="M 490.211675 146.072206 
Q 412.60791 144.581677 336.121972 143.112617 
" style="fill:none;stroke:#000000;stroke-linecap:round;"/>
    <path clip-path="url(#p03cfb99f74)" d="M 340.082828 145.189062 
L 336.121972 143.112617 
L 340.159641 141.189799 
L 340.082828 145.189062 
z
" style="stroke:#000000;stroke-linecap:round;"/>
   </g>
   <g id="patch_25">
    <path clip-path="url(#p03cfb99f74)" d="M 513.103713 263.339024 
Q 456.263848 275.991564 400.515306 288.401176 
" style="fill:none;stroke:#000000;stroke-linecap:round;"/>
    <path clip-path="url(#p03cfb99f74)" d="M 404.854305 289.484268 
L 400.515306 288.401176 
L 403.985178 285.579832 
L 404.854305 289.484268 
z
" style="stroke:#000000;stroke-linecap:round;"/>
   </g>
   <g id="patch_26">
    <path clip-path="url(#p03cfb99f74)" d="M 523.44968 247.489609 
Q 514.7266 203.395792 506.220497 160.398754 
" style="fill:none;stroke:#000000;stroke-linecap:round;"/>
    <path clip-path="url(#p03cfb99f74)" d="M 505.034796 164.710843 
L 506.220497 160.398754 
L 508.958748 163.934568 
L 505.034796 164.710843 
z
" style="stroke:#000000;stroke-linecap:round;"/>
   </g>
   <g id="patch_27">
    <path clip-path="url(#p03cfb99f74)" d="M 373.286843 292.003971 
Q 363.900049 292.348247 355.630538 292.651545 
" style="fill:none;stroke:#000000;stroke-linecap:round;"/>
    <path clip-path="url(#p03cfb99f74)" d="M 359.701155 294.503594 
L 355.630538 292.651545 
L 359.554547 290.506281 
L 359.701155 294.503594 
z
" style="stroke:#000000;stroke-linecap:round;"/>
   </g>
   <g id="patch_28">
    <path clip-path="url(#p03cfb99f74)" d="M 399.421545 288.644647 
Q 456.26141 275.992107 512.009952 263.582494 
" style="fill:none;stroke:#000000;stroke-linecap:round;"/>
    <path clip-path="url(#p03cfb99f74)" d="M 507.670953 262.499403 
L 512.009952 263.582494 
L 508.54008 266.403839 
L 507.670953 262.499403 
z
" style="stroke:#000000;stroke-linecap:round;"/>
   </g>
   <g id="patch_29">
    <path clip-path="url(#p03cfb99f74)" d="M 328.305065 295.702031 
Q 320.017544 297.312958 312.827516 298.710555 
" style="fill:none;stroke:#000000;stroke-linecap:round;"/>
    <path clip-path="url(#p03cfb99f74)" d="M 317.135642 299.910575 
L 312.827516 298.710555 
L 316.372407 295.984066 
L 317.135642 299.910575 
z
" style="stroke:#000000;stroke-linecap:round;"/>
   </g>
   <g id="patch_30">
    <path clip-path="url(#p03cfb99f74)" d="M 328.183254 291.420009 
Q 313.932839 289.509755 300.790546 287.748044 
" style="fill:none;stroke:#000000;stroke-linecap:round;"/>
    <path clip-path="url(#p03cfb99f74)" d="M 304.489364 290.261756 
L 300.790546 287.748044 
L 305.020807 286.297217 
L 304.489364 290.261756 
z
" style="stroke:#000000;stroke-linecap:round;"/>
   </g>
   <g id="patch_31">
    <path clip-path="url(#p03cfb99f74)" d="M 354.515131 292.692455 
Q 363.901924 292.348179 372.171435 292.044881 
" style="fill:none;stroke:#000000;stroke-linecap:round;"/>
    <path clip-path="url(#p03cfb99f74)" d="M 368.100819 290.192833 
L 372.171435 292.044881 
L 368.247427 294.190145 
L 368.100819 290.192833 
z
" style="stroke:#000000;stroke-linecap:round;"/>
   </g>
   <g id="patch_32">
    <path clip-path="url(#p03cfb99f74)" d="M 222.141034 352.635696 
Q 209.238629 440.663358 196.498365 527.584805 
" style="fill:none;stroke:#000000;stroke-linecap:round;"/>
    <path clip-path="url(#p03cfb99f74)" d="M 199.057313 523.917137 
L 196.498365 527.584805 
L 195.099599 523.337047 
L 199.057313 523.917137 
z
" style="stroke:#000000;stroke-linecap:round;"/>
   </g>
   <g id="patch_33">
    <path clip-path="url(#p03cfb99f74)" d="M 237.288143 339.609832 
Q 265.815097 339.741357 293.224029 339.867728 
" style="fill:none;stroke:#000000;stroke-linecap:round;"/>
    <path clip-path="url(#p03cfb99f74)" d="M 289.233292 337.849307 
L 293.224029 339.867728 
L 289.21485 341.849265 
L 289.233292 337.849307 
z
" style="stroke:#000000;stroke-linecap:round;"/>
   </g>
   <g id="patch_34">
    <path clip-path="url(#p03cfb99f74)" d="M 195.257023 554.98243 
Q 200.737945 641.211754 206.147946 726.325296 
" style="fill:none;stroke:#000000;stroke-linecap:round;"/>
    <path clip-path="url(#p03cfb99f74)" d="M 207.890182 722.206483 
L 206.147946 726.325296 
L 203.898237 722.46022 
L 207.890182 722.206483 
z
" style="stroke:#000000;stroke-linecap:round;"/>
   </g>
   <g id="patch_35">
    <path clip-path="url(#p03cfb99f74)" d="M 196.335986 528.692651 
Q 209.23839 440.664989 221.978654 353.743542 
" style="fill:none;stroke:#000000;stroke-linecap:round;"/>
    <path clip-path="url(#p03cfb99f74)" d="M 219.419707 357.41121 
L 221.978654 353.743542 
L 223.37742 357.9913 
L 219.419707 357.41121 
z
" style="stroke:#000000;stroke-linecap:round;"/>
   </g>
   <g id="patch_36">
    <path clip-path="url(#p03cfb99f74)" d="M 206.844937 753.871386 
Q 206.668194 764.833225 206.509476 774.677174 
" style="fill:none;stroke:#000000;stroke-linecap:round;"/>
    <path clip-path="url(#p03cfb99f74)" d="M 208.573702 770.709936 
L 206.509476 774.677174 
L 204.574222 770.645451 
L 208.573702 770.709936 
z
" style="stroke:#000000;stroke-linecap:round;"/>
   </g>
   <g id="patch_37">
    <path clip-path="url(#p03cfb99f74)" d="M 206.218974 727.442752 
Q 200.738052 641.213428 195.328051 556.099886 
" style="fill:none;stroke:#000000;stroke-linecap:round;"/>
    <path clip-path="url(#p03cfb99f74)" d="M 193.585816 560.218699 
L 195.328051 556.099886 
L 197.57776 559.964962 
L 193.585816 560.218699 
z
" style="stroke:#000000;stroke-linecap:round;"/>
   </g>
   <g id="patch_38">
    <path clip-path="url(#p03cfb99f74)" d="M 206.491387 775.799081 
Q 206.66813 764.837243 206.826848 754.993293 
" style="fill:none;stroke:#000000;stroke-linecap:round;"/>
    <path clip-path="url(#p03cfb99f74)" d="M 204.762622 758.960531 
L 206.826848 754.993293 
L 208.762103 759.025016 
L 204.762622 758.960531 
z
" style="stroke:#000000;stroke-linecap:round;"/>
   </g>
   <g id="patch_39">
    <path clip-path="url(#p03cfb99f74)" d="M 387.25121 357.783145 
Q 371.59247 436.83177 356.15098 514.783672 
" style="fill:none;stroke:#000000;stroke-linecap:round;"/>
    <path clip-path="url(#p03cfb99f74)" d="M 358.890116 511.248543 
L 356.15098 514.783672 
L 354.966359 510.471286 
L 358.890116 511.248543 
z
" style="stroke:#000000;stroke-linecap:round;"/>
   </g>
   <g id="patch_40">
    <path clip-path="url(#p03cfb99f74)" d="M 376.615571 344.023384 
Q 348.69289 342.369626 321.886286 340.781969 
" style="fill:none;stroke:#000000;stroke-linecap:round;"/>
    <path clip-path="url(#p03cfb99f74)" d="M 325.761043 343.014961 
L 321.886286 340.781969 
L 325.997534 339.021958 
L 325.761043 343.014961 
z
" style="stroke:#000000;stroke-linecap:round;"/>
   </g>
   <g id="patch_41">
    <path clip-path="url(#p03cfb99f74)" d="M 348.094644 540.98668 
Q 321.190486 602.928801 294.73174 663.845441 
" style="fill:none;stroke:#000000;stroke-linecap:round;"/>
    <path clip-path="url(#p03cfb99f74)" d="M 298.159724 660.973347 
L 294.73174 663.845441 
L 294.490855 659.379797 
L 298.159724 660.973347 
z
" style="stroke:#000000;stroke-linecap:round;"/>
   </g>
   <g id="patch_42">
    <path clip-path="url(#p03cfb99f74)" d="M 355.934014 515.878965 
Q 371.592754 436.830339 387.034244 358.878437 
" style="fill:none;stroke:#000000;stroke-linecap:round;"/>
    <path clip-path="url(#p03cfb99f74)" d="M 384.295108 362.413566 
L 387.034244 358.878437 
L 388.218866 363.190823 
L 384.295108 362.413566 
z
" style="stroke:#000000;stroke-linecap:round;"/>
   </g>
   <g id="patch_43">
    <path clip-path="url(#p03cfb99f74)" d="M 293.072285 689.593717 
Q 294.627012 694.419633 295.838902 698.181376 
" style="fill:none;stroke:#000000;stroke-linecap:round;"/>
    <path clip-path="url(#p03cfb99f74)" d="M 296.515985 693.760793 
L 295.838902 698.181376 
L 292.708685 694.98736 
L 296.515985 693.760793 
z
" style="stroke:#000000;stroke-linecap:round;"/>
   </g>
   <g id="patch_44">
    <path clip-path="url(#p03cfb99f74)" d="M 294.285016 664.873944 
Q 321.189173 602.931824 347.64792 542.015183 
" style="fill:none;stroke:#000000;stroke-linecap:round;"/>
    <path clip-path="url(#p03cfb99f74)" d="M 344.219936 544.887277 
L 347.64792 542.015183 
L 347.888805 546.480827 
L 344.219936 544.887277 
z
" style="stroke:#000000;stroke-linecap:round;"/>
   </g>
   <g id="patch_45">
    <path clip-path="url(#p03cfb99f74)" d="M 296.181677 699.24536 
Q 294.626951 694.419444 293.41506 690.6577 
" style="fill:none;stroke:#000000;stroke-linecap:round;"/>
    <path clip-path="url(#p03cfb99f74)" d="M 292.737977 695.078284 
L 293.41506 690.6577 
L 296.545277 693.851717 
L 292.737977 695.078284 
z
" style="stroke:#000000;stroke-linecap:round;"/>
   </g>
   <g id="patch_46">
    <path clip-path="url(#p03cfb99f74)" d="M 332.479746 297.022362 
Q 327.048227 295.710469 322.703491 294.66107 
" style="fill:none;stroke:#000000;stroke-linecap:round;"/>
    <path clip-path="url(#p03cfb99f74)" d="M 326.122119 297.544294 
L 322.703491 294.66107 
L 327.061247 293.656102 
L 326.122119 297.544294 
z
" style="stroke:#000000;stroke-linecap:round;"/>
   </g>
   <g id="patch_47">
    <path clip-path="url(#p03cfb99f74)" d="M 328.045501 286.574017 
Q 324.82656 287.361331 322.693641 287.883018 
" style="fill:none;stroke:#000000;stroke-linecap:round;"/>
    <path clip-path="url(#p03cfb99f74)" d="M 327.054277 288.875413 
L 322.693641 287.883018 
L 326.103939 284.989946 
L 327.054277 288.875413 
z
" style="stroke:#000000;stroke-linecap:round;"/>
   </g>
   <g id="patch_48">
    <path clip-path="url(#p03cfb99f74)" d="M 311.730269 298.923838 
Q 320.01779 297.31291 327.207818 295.915313 
" style="fill:none;stroke:#000000;stroke-linecap:round;"/>
    <path clip-path="url(#p03cfb99f74)" d="M 322.899692 294.715293 
L 327.207818 295.915313 
L 323.662927 298.641802 
L 322.899692 294.715293 
z
" style="stroke:#000000;stroke-linecap:round;"/>
   </g>
   <g id="patch_49">
    <path clip-path="url(#p03cfb99f74)" d="M 299.678629 287.598993 
Q 313.929044 289.509246 327.071337 291.270957 
" style="fill:none;stroke:#000000;stroke-linecap:round;"/>
    <path clip-path="url(#p03cfb99f74)" d="M 323.372519 288.757245 
L 327.071337 291.270957 
L 322.841077 292.721784 
L 323.372519 288.757245 
z
" style="stroke:#000000;stroke-linecap:round;"/>
   </g>
   <g id="PathCollection_1">
    <defs>
     <path d="M 0 13.228757 
C 3.508307 13.228757 6.873396 11.834891 9.354143 9.354143 
C 11.834891 6.873396 13.228757 3.508307 13.228757 0 
C 13.228757 -3.508307 11.834891 -6.873396 9.354143 -9.354143 
C 6.873396 -11.834891 3.508307 -13.228757 0 -13.228757 
C -3.508307 -13.228757 -6.873396 -11.834891 -9.354143 -9.354143 
C -11.834891 -6.873396 -13.228757 -3.508307 -13.228757 0 
C -13.228757 3.508307 -11.834891 6.873396 -9.354143 9.354143 
C -6.873396 11.834891 -3.508307 13.228757 0 13.228757 
z
" id="m3c02bdaeb9" style="stroke:#87ceeb;"/>
    </defs>
    <g clip-path="url(#p03cfb99f74)">
     <use style="fill:#87ceeb;stroke:#87ceeb;" x="335.56669" xlink:href="#m3c02bdaeb9" y="74.975207"/>
     <use style="fill:#87ceeb;stroke:#87ceeb;" x="323.486666" xlink:href="#m3c02bdaeb9" y="115.846613"/>
     <use style="fill:#87ceeb;stroke:#87ceeb;" x="321.775689" xlink:href="#m3c02bdaeb9" y="142.837069"/>
     <use style="fill:#87ceeb;stroke:#87ceeb;" x="316.020951" xlink:href="#m3c02bdaeb9" y="226.153023"/>
     <use style="fill:#87ceeb;stroke:#87ceeb;" x="307.56641" xlink:href="#m3c02bdaeb9" y="339.933855"/>
     <use style="fill:#87ceeb;stroke:#87ceeb;" x="141.978951" xlink:href="#m3c02bdaeb9" y="126.278755"/>
     <use style="fill:#87ceeb;stroke:#87ceeb;" x="49.983471" xlink:href="#m3c02bdaeb9" y="222.734467"/>
     <use style="fill:#87ceeb;stroke:#87ceeb;" x="242.279656" xlink:href="#m3c02bdaeb9" y="275.671661"/>
     <use style="fill:#87ceeb;stroke:#87ceeb;" x="308.755405" xlink:href="#m3c02bdaeb9" y="291.292142"/>
     <use style="fill:#87ceeb;stroke:#87ceeb;" x="503.436526" xlink:href="#m3c02bdaeb9" y="146.326215"/>
     <use style="fill:#87ceeb;stroke:#87ceeb;" x="526.016529" xlink:href="#m3c02bdaeb9" y="260.464634"/>
     <use style="fill:#87ceeb;stroke:#87ceeb;" x="386.508729" xlink:href="#m3c02bdaeb9" y="291.519037"/>
     <use style="fill:#87ceeb;stroke:#87ceeb;" x="341.293245" xlink:href="#m3c02bdaeb9" y="293.177389"/>
     <use style="fill:#87ceeb;stroke:#87ceeb;" x="224.059202" xlink:href="#m3c02bdaeb9" y="339.548839"/>
     <use style="fill:#87ceeb;stroke:#87ceeb;" x="194.417817" xlink:href="#m3c02bdaeb9" y="541.779508"/>
     <use style="fill:#87ceeb;stroke:#87ceeb;" x="207.05818" xlink:href="#m3c02bdaeb9" y="740.645674"/>
     <use style="fill:#87ceeb;stroke:#87ceeb;" x="206.278144" xlink:href="#m3c02bdaeb9" y="789.024793"/>
     <use style="fill:#87ceeb;stroke:#87ceeb;" x="389.821942" xlink:href="#m3c02bdaeb9" y="344.805549"/>
     <use style="fill:#87ceeb;stroke:#87ceeb;" x="353.363282" xlink:href="#m3c02bdaeb9" y="528.856561"/>
     <use style="fill:#87ceeb;stroke:#87ceeb;" x="289.016378" xlink:href="#m3c02bdaeb9" y="677.004064"/>
     <use style="fill:#87ceeb;stroke:#87ceeb;" x="300.237585" xlink:href="#m3c02bdaeb9" y="711.835013"/>
     <use style="fill:#87ceeb;stroke:#87ceeb;" x="345.335453" xlink:href="#m3c02bdaeb9" y="300.127444"/>
     <use style="fill:#87ceeb;stroke:#87ceeb;" x="340.893795" xlink:href="#m3c02bdaeb9" y="283.43148"/>
     <use style="fill:#87ceeb;stroke:#87ceeb;" x="298.74209" xlink:href="#m3c02bdaeb9" y="301.448479"/>
     <use style="fill:#87ceeb;stroke:#87ceeb;" x="286.568639" xlink:href="#m3c02bdaeb9" y="285.841612"/>
    </g>
   </g>
   <g id="text_1">
    <g clip-path="url(#p03cfb99f74)">
     <!-- Head -->
     <g transform="translate(322.49169 77.734582)scale(0.1 -0.1)">
      <defs>
       <path d="M 9.8125 72.90625 
L 19.671875 72.90625 
L 19.671875 43.015625 
L 55.515625 43.015625 
L 55.515625 72.90625 
L 65.375 72.90625 
L 65.375 0 
L 55.515625 0 
L 55.515625 34.71875 
L 19.671875 34.71875 
L 19.671875 0 
L 9.8125 0 
z
" id="DejaVuSans-72"/>
       <path d="M 56.203125 29.59375 
L 56.203125 25.203125 
L 14.890625 25.203125 
Q 15.484375 15.921875 20.484375 11.0625 
Q 25.484375 6.203125 34.421875 6.203125 
Q 39.59375 6.203125 44.453125 7.46875 
Q 49.3125 8.734375 54.109375 11.28125 
L 54.109375 2.78125 
Q 49.265625 0.734375 44.1875 -0.34375 
Q 39.109375 -1.421875 33.890625 -1.421875 
Q 20.796875 -1.421875 13.15625 6.1875 
Q 5.515625 13.8125 5.515625 26.8125 
Q 5.515625 40.234375 12.765625 48.109375 
Q 20.015625 56 32.328125 56 
Q 43.359375 56 49.78125 48.890625 
Q 56.203125 41.796875 56.203125 29.59375 
z
M 47.21875 32.234375 
Q 47.125 39.59375 43.09375 43.984375 
Q 39.0625 48.390625 32.421875 48.390625 
Q 24.90625 48.390625 20.390625 44.140625 
Q 15.875 39.890625 15.1875 32.171875 
z
" id="DejaVuSans-101"/>
       <path d="M 34.28125 27.484375 
Q 23.390625 27.484375 19.1875 25 
Q 14.984375 22.515625 14.984375 16.5 
Q 14.984375 11.71875 18.140625 8.90625 
Q 21.296875 6.109375 26.703125 6.109375 
Q 34.1875 6.109375 38.703125 11.40625 
Q 43.21875 16.703125 43.21875 25.484375 
L 43.21875 27.484375 
z
M 52.203125 31.203125 
L 52.203125 0 
L 43.21875 0 
L 43.21875 8.296875 
Q 40.140625 3.328125 35.546875 0.953125 
Q 30.953125 -1.421875 24.3125 -1.421875 
Q 15.921875 -1.421875 10.953125 3.296875 
Q 6 8.015625 6 15.921875 
Q 6 25.140625 12.171875 29.828125 
Q 18.359375 34.515625 30.609375 34.515625 
L 43.21875 34.515625 
L 43.21875 35.40625 
Q 43.21875 41.609375 39.140625 45 
Q 35.0625 48.390625 27.6875 48.390625 
Q 23 48.390625 18.546875 47.265625 
Q 14.109375 46.140625 10.015625 43.890625 
L 10.015625 52.203125 
Q 14.9375 54.109375 19.578125 55.046875 
Q 24.21875 56 28.609375 56 
Q 40.484375 56 46.34375 49.84375 
Q 52.203125 43.703125 52.203125 31.203125 
z
" id="DejaVuSans-97"/>
       <path d="M 45.40625 46.390625 
L 45.40625 75.984375 
L 54.390625 75.984375 
L 54.390625 0 
L 45.40625 0 
L 45.40625 8.203125 
Q 42.578125 3.328125 38.25 0.953125 
Q 33.9375 -1.421875 27.875 -1.421875 
Q 17.96875 -1.421875 11.734375 6.484375 
Q 5.515625 14.40625 5.515625 27.296875 
Q 5.515625 40.1875 11.734375 48.09375 
Q 17.96875 56 27.875 56 
Q 33.9375 56 38.25 53.625 
Q 42.578125 51.265625 45.40625 46.390625 
z
M 14.796875 27.296875 
Q 14.796875 17.390625 18.875 11.75 
Q 22.953125 6.109375 30.078125 6.109375 
Q 37.203125 6.109375 41.296875 11.75 
Q 45.40625 17.390625 45.40625 27.296875 
Q 45.40625 37.203125 41.296875 42.84375 
Q 37.203125 48.484375 30.078125 48.484375 
Q 22.953125 48.484375 18.875 42.84375 
Q 14.796875 37.203125 14.796875 27.296875 
z
" id="DejaVuSans-100"/>
      </defs>
      <use xlink:href="#DejaVuSans-72"/>
      <use x="75.195312" xlink:href="#DejaVuSans-101"/>
      <use x="136.71875" xlink:href="#DejaVuSans-97"/>
      <use x="197.998047" xlink:href="#DejaVuSans-100"/>
     </g>
    </g>
   </g>
   <g id="text_2">
    <g clip-path="url(#p03cfb99f74)">
     <!-- c7 -->
     <g transform="translate(317.556197 118.605988)scale(0.1 -0.1)">
      <defs>
       <path d="M 48.78125 52.59375 
L 48.78125 44.1875 
Q 44.96875 46.296875 41.140625 47.34375 
Q 37.3125 48.390625 33.40625 48.390625 
Q 24.65625 48.390625 19.8125 42.84375 
Q 14.984375 37.3125 14.984375 27.296875 
Q 14.984375 17.28125 19.8125 11.734375 
Q 24.65625 6.203125 33.40625 6.203125 
Q 37.3125 6.203125 41.140625 7.25 
Q 44.96875 8.296875 48.78125 10.40625 
L 48.78125 2.09375 
Q 45.015625 0.34375 40.984375 -0.53125 
Q 36.96875 -1.421875 32.421875 -1.421875 
Q 20.0625 -1.421875 12.78125 6.34375 
Q 5.515625 14.109375 5.515625 27.296875 
Q 5.515625 40.671875 12.859375 48.328125 
Q 20.21875 56 33.015625 56 
Q 37.15625 56 41.109375 55.140625 
Q 45.0625 54.296875 48.78125 52.59375 
z
" id="DejaVuSans-99"/>
       <path d="M 8.203125 72.90625 
L 55.078125 72.90625 
L 55.078125 68.703125 
L 28.609375 0 
L 18.3125 0 
L 43.21875 64.59375 
L 8.203125 64.59375 
z
" id="DejaVuSans-55"/>
      </defs>
      <use xlink:href="#DejaVuSans-99"/>
      <use x="54.980469" xlink:href="#DejaVuSans-55"/>
     </g>
    </g>
   </g>
   <g id="text_3">
    <g clip-path="url(#p03cfb99f74)">
     <!-- SpineShoulder -->
     <g transform="translate(285.526471 145.596444)scale(0.1 -0.1)">
      <defs>
       <path d="M 53.515625 70.515625 
L 53.515625 60.890625 
Q 47.90625 63.578125 42.921875 64.890625 
Q 37.9375 66.21875 33.296875 66.21875 
Q 25.25 66.21875 20.875 63.09375 
Q 16.5 59.96875 16.5 54.203125 
Q 16.5 49.359375 19.40625 46.890625 
Q 22.3125 44.4375 30.421875 42.921875 
L 36.375 41.703125 
Q 47.40625 39.59375 52.65625 34.296875 
Q 57.90625 29 57.90625 20.125 
Q 57.90625 9.515625 50.796875 4.046875 
Q 43.703125 -1.421875 29.984375 -1.421875 
Q 24.8125 -1.421875 18.96875 -0.25 
Q 13.140625 0.921875 6.890625 3.21875 
L 6.890625 13.375 
Q 12.890625 10.015625 18.65625 8.296875 
Q 24.421875 6.59375 29.984375 6.59375 
Q 38.421875 6.59375 43.015625 9.90625 
Q 47.609375 13.234375 47.609375 19.390625 
Q 47.609375 24.75 44.3125 27.78125 
Q 41.015625 30.8125 33.5 32.328125 
L 27.484375 33.5 
Q 16.453125 35.6875 11.515625 40.375 
Q 6.59375 45.0625 6.59375 53.421875 
Q 6.59375 63.09375 13.40625 68.65625 
Q 20.21875 74.21875 32.171875 74.21875 
Q 37.3125 74.21875 42.625 73.28125 
Q 47.953125 72.359375 53.515625 70.515625 
z
" id="DejaVuSans-83"/>
       <path d="M 18.109375 8.203125 
L 18.109375 -20.796875 
L 9.078125 -20.796875 
L 9.078125 54.6875 
L 18.109375 54.6875 
L 18.109375 46.390625 
Q 20.953125 51.265625 25.265625 53.625 
Q 29.59375 56 35.59375 56 
Q 45.5625 56 51.78125 48.09375 
Q 58.015625 40.1875 58.015625 27.296875 
Q 58.015625 14.40625 51.78125 6.484375 
Q 45.5625 -1.421875 35.59375 -1.421875 
Q 29.59375 -1.421875 25.265625 0.953125 
Q 20.953125 3.328125 18.109375 8.203125 
z
M 48.6875 27.296875 
Q 48.6875 37.203125 44.609375 42.84375 
Q 40.53125 48.484375 33.40625 48.484375 
Q 26.265625 48.484375 22.1875 42.84375 
Q 18.109375 37.203125 18.109375 27.296875 
Q 18.109375 17.390625 22.1875 11.75 
Q 26.265625 6.109375 33.40625 6.109375 
Q 40.53125 6.109375 44.609375 11.75 
Q 48.6875 17.390625 48.6875 27.296875 
z
" id="DejaVuSans-112"/>
       <path d="M 9.421875 54.6875 
L 18.40625 54.6875 
L 18.40625 0 
L 9.421875 0 
z
M 9.421875 75.984375 
L 18.40625 75.984375 
L 18.40625 64.59375 
L 9.421875 64.59375 
z
" id="DejaVuSans-105"/>
       <path d="M 54.890625 33.015625 
L 54.890625 0 
L 45.90625 0 
L 45.90625 32.71875 
Q 45.90625 40.484375 42.875 44.328125 
Q 39.84375 48.1875 33.796875 48.1875 
Q 26.515625 48.1875 22.3125 43.546875 
Q 18.109375 38.921875 18.109375 30.90625 
L 18.109375 0 
L 9.078125 0 
L 9.078125 54.6875 
L 18.109375 54.6875 
L 18.109375 46.1875 
Q 21.34375 51.125 25.703125 53.5625 
Q 30.078125 56 35.796875 56 
Q 45.21875 56 50.046875 50.171875 
Q 54.890625 44.34375 54.890625 33.015625 
z
" id="DejaVuSans-110"/>
       <path d="M 54.890625 33.015625 
L 54.890625 0 
L 45.90625 0 
L 45.90625 32.71875 
Q 45.90625 40.484375 42.875 44.328125 
Q 39.84375 48.1875 33.796875 48.1875 
Q 26.515625 48.1875 22.3125 43.546875 
Q 18.109375 38.921875 18.109375 30.90625 
L 18.109375 0 
L 9.078125 0 
L 9.078125 75.984375 
L 18.109375 75.984375 
L 18.109375 46.1875 
Q 21.34375 51.125 25.703125 53.5625 
Q 30.078125 56 35.796875 56 
Q 45.21875 56 50.046875 50.171875 
Q 54.890625 44.34375 54.890625 33.015625 
z
" id="DejaVuSans-104"/>
       <path d="M 30.609375 48.390625 
Q 23.390625 48.390625 19.1875 42.75 
Q 14.984375 37.109375 14.984375 27.296875 
Q 14.984375 17.484375 19.15625 11.84375 
Q 23.34375 6.203125 30.609375 6.203125 
Q 37.796875 6.203125 41.984375 11.859375 
Q 46.1875 17.53125 46.1875 27.296875 
Q 46.1875 37.015625 41.984375 42.703125 
Q 37.796875 48.390625 30.609375 48.390625 
z
M 30.609375 56 
Q 42.328125 56 49.015625 48.375 
Q 55.71875 40.765625 55.71875 27.296875 
Q 55.71875 13.875 49.015625 6.21875 
Q 42.328125 -1.421875 30.609375 -1.421875 
Q 18.84375 -1.421875 12.171875 6.21875 
Q 5.515625 13.875 5.515625 27.296875 
Q 5.515625 40.765625 12.171875 48.375 
Q 18.84375 56 30.609375 56 
z
" id="DejaVuSans-111"/>
       <path d="M 8.5 21.578125 
L 8.5 54.6875 
L 17.484375 54.6875 
L 17.484375 21.921875 
Q 17.484375 14.15625 20.5 10.265625 
Q 23.53125 6.390625 29.59375 6.390625 
Q 36.859375 6.390625 41.078125 11.03125 
Q 45.3125 15.671875 45.3125 23.6875 
L 45.3125 54.6875 
L 54.296875 54.6875 
L 54.296875 0 
L 45.3125 0 
L 45.3125 8.40625 
Q 42.046875 3.421875 37.71875 1 
Q 33.40625 -1.421875 27.6875 -1.421875 
Q 18.265625 -1.421875 13.375 4.4375 
Q 8.5 10.296875 8.5 21.578125 
z
M 31.109375 56 
z
" id="DejaVuSans-117"/>
       <path d="M 9.421875 75.984375 
L 18.40625 75.984375 
L 18.40625 0 
L 9.421875 0 
z
" id="DejaVuSans-108"/>
       <path d="M 41.109375 46.296875 
Q 39.59375 47.171875 37.8125 47.578125 
Q 36.03125 48 33.890625 48 
Q 26.265625 48 22.1875 43.046875 
Q 18.109375 38.09375 18.109375 28.8125 
L 18.109375 0 
L 9.078125 0 
L 9.078125 54.6875 
L 18.109375 54.6875 
L 18.109375 46.1875 
Q 20.953125 51.171875 25.484375 53.578125 
Q 30.03125 56 36.53125 56 
Q 37.453125 56 38.578125 55.875 
Q 39.703125 55.765625 41.0625 55.515625 
z
" id="DejaVuSans-114"/>
      </defs>
      <use xlink:href="#DejaVuSans-83"/>
      <use x="63.476562" xlink:href="#DejaVuSans-112"/>
      <use x="126.953125" xlink:href="#DejaVuSans-105"/>
      <use x="154.736328" xlink:href="#DejaVuSans-110"/>
      <use x="218.115234" xlink:href="#DejaVuSans-101"/>
      <use x="279.638672" xlink:href="#DejaVuSans-83"/>
      <use x="343.115234" xlink:href="#DejaVuSans-104"/>
      <use x="406.494141" xlink:href="#DejaVuSans-111"/>
      <use x="467.675781" xlink:href="#DejaVuSans-117"/>
      <use x="531.054688" xlink:href="#DejaVuSans-108"/>
      <use x="558.837891" xlink:href="#DejaVuSans-100"/>
      <use x="622.314453" xlink:href="#DejaVuSans-101"/>
      <use x="683.837891" xlink:href="#DejaVuSans-114"/>
     </g>
    </g>
   </g>
   <g id="text_4">
    <g clip-path="url(#p03cfb99f74)">
     <!-- Spine -->
     <g transform="translate(302.038139 228.912398)scale(0.1 -0.1)">
      <use xlink:href="#DejaVuSans-83"/>
      <use x="63.476562" xlink:href="#DejaVuSans-112"/>
      <use x="126.953125" xlink:href="#DejaVuSans-105"/>
      <use x="154.736328" xlink:href="#DejaVuSans-110"/>
      <use x="218.115234" xlink:href="#DejaVuSans-101"/>
     </g>
    </g>
   </g>
   <g id="text_5">
    <g clip-path="url(#p03cfb99f74)">
     <!-- Sacr -->
     <g transform="translate(296.523441 342.69323)scale(0.1 -0.1)">
      <use xlink:href="#DejaVuSans-83"/>
      <use x="63.476562" xlink:href="#DejaVuSans-97"/>
      <use x="124.755859" xlink:href="#DejaVuSans-99"/>
      <use x="179.736328" xlink:href="#DejaVuSans-114"/>
     </g>
    </g>
   </g>
   <g id="text_6">
    <g clip-path="url(#p03cfb99f74)">
     <!-- LShoulder -->
     <g transform="translate(116.926607 129.03813)scale(0.1 -0.1)">
      <defs>
       <path d="M 9.8125 72.90625 
L 19.671875 72.90625 
L 19.671875 8.296875 
L 55.171875 8.296875 
L 55.171875 0 
L 9.8125 0 
z
" id="DejaVuSans-76"/>
      </defs>
      <use xlink:href="#DejaVuSans-76"/>
      <use x="55.712891" xlink:href="#DejaVuSans-83"/>
      <use x="119.189453" xlink:href="#DejaVuSans-104"/>
      <use x="182.568359" xlink:href="#DejaVuSans-111"/>
      <use x="243.75" xlink:href="#DejaVuSans-117"/>
      <use x="307.128906" xlink:href="#DejaVuSans-108"/>
      <use x="334.912109" xlink:href="#DejaVuSans-100"/>
      <use x="398.388672" xlink:href="#DejaVuSans-101"/>
      <use x="459.912109" xlink:href="#DejaVuSans-114"/>
     </g>
    </g>
   </g>
   <g id="text_7">
    <g clip-path="url(#p03cfb99f74)">
     <!-- LElbow -->
     <g transform="translate(32.32644 225.493842)scale(0.1 -0.1)">
      <defs>
       <path d="M 9.8125 72.90625 
L 55.90625 72.90625 
L 55.90625 64.59375 
L 19.671875 64.59375 
L 19.671875 43.015625 
L 54.390625 43.015625 
L 54.390625 34.71875 
L 19.671875 34.71875 
L 19.671875 8.296875 
L 56.78125 8.296875 
L 56.78125 0 
L 9.8125 0 
z
" id="DejaVuSans-69"/>
       <path d="M 48.6875 27.296875 
Q 48.6875 37.203125 44.609375 42.84375 
Q 40.53125 48.484375 33.40625 48.484375 
Q 26.265625 48.484375 22.1875 42.84375 
Q 18.109375 37.203125 18.109375 27.296875 
Q 18.109375 17.390625 22.1875 11.75 
Q 26.265625 6.109375 33.40625 6.109375 
Q 40.53125 6.109375 44.609375 11.75 
Q 48.6875 17.390625 48.6875 27.296875 
z
M 18.109375 46.390625 
Q 20.953125 51.265625 25.265625 53.625 
Q 29.59375 56 35.59375 56 
Q 45.5625 56 51.78125 48.09375 
Q 58.015625 40.1875 58.015625 27.296875 
Q 58.015625 14.40625 51.78125 6.484375 
Q 45.5625 -1.421875 35.59375 -1.421875 
Q 29.59375 -1.421875 25.265625 0.953125 
Q 20.953125 3.328125 18.109375 8.203125 
L 18.109375 0 
L 9.078125 0 
L 9.078125 75.984375 
L 18.109375 75.984375 
z
" id="DejaVuSans-98"/>
       <path d="M 4.203125 54.6875 
L 13.1875 54.6875 
L 24.421875 12.015625 
L 35.59375 54.6875 
L 46.1875 54.6875 
L 57.421875 12.015625 
L 68.609375 54.6875 
L 77.59375 54.6875 
L 63.28125 0 
L 52.6875 0 
L 40.921875 44.828125 
L 29.109375 0 
L 18.5 0 
z
" id="DejaVuSans-119"/>
      </defs>
      <use xlink:href="#DejaVuSans-76"/>
      <use x="55.712891" xlink:href="#DejaVuSans-69"/>
      <use x="118.896484" xlink:href="#DejaVuSans-108"/>
      <use x="146.679688" xlink:href="#DejaVuSans-98"/>
      <use x="210.15625" xlink:href="#DejaVuSans-111"/>
      <use x="271.337891" xlink:href="#DejaVuSans-119"/>
     </g>
    </g>
   </g>
   <g id="text_8">
    <g clip-path="url(#p03cfb99f74)">
     <!-- LWrist -->
     <g transform="translate(227.221843 278.431036)scale(0.1 -0.1)">
      <defs>
       <path d="M 3.328125 72.90625 
L 13.28125 72.90625 
L 28.609375 11.28125 
L 43.890625 72.90625 
L 54.984375 72.90625 
L 70.3125 11.28125 
L 85.59375 72.90625 
L 95.609375 72.90625 
L 77.296875 0 
L 64.890625 0 
L 49.515625 63.28125 
L 33.984375 0 
L 21.578125 0 
z
" id="DejaVuSans-87"/>
       <path d="M 44.28125 53.078125 
L 44.28125 44.578125 
Q 40.484375 46.53125 36.375 47.5 
Q 32.28125 48.484375 27.875 48.484375 
Q 21.1875 48.484375 17.84375 46.4375 
Q 14.5 44.390625 14.5 40.28125 
Q 14.5 37.15625 16.890625 35.375 
Q 19.28125 33.59375 26.515625 31.984375 
L 29.59375 31.296875 
Q 39.15625 29.25 43.1875 25.515625 
Q 47.21875 21.78125 47.21875 15.09375 
Q 47.21875 7.46875 41.1875 3.015625 
Q 35.15625 -1.421875 24.609375 -1.421875 
Q 20.21875 -1.421875 15.453125 -0.5625 
Q 10.6875 0.296875 5.421875 2 
L 5.421875 11.28125 
Q 10.40625 8.6875 15.234375 7.390625 
Q 20.0625 6.109375 24.8125 6.109375 
Q 31.15625 6.109375 34.5625 8.28125 
Q 37.984375 10.453125 37.984375 14.40625 
Q 37.984375 18.0625 35.515625 20.015625 
Q 33.0625 21.96875 24.703125 23.78125 
L 21.578125 24.515625 
Q 13.234375 26.265625 9.515625 29.90625 
Q 5.8125 33.546875 5.8125 39.890625 
Q 5.8125 47.609375 11.28125 51.796875 
Q 16.75 56 26.8125 56 
Q 31.78125 56 36.171875 55.265625 
Q 40.578125 54.546875 44.28125 53.078125 
z
" id="DejaVuSans-115"/>
       <path d="M 18.3125 70.21875 
L 18.3125 54.6875 
L 36.8125 54.6875 
L 36.8125 47.703125 
L 18.3125 47.703125 
L 18.3125 18.015625 
Q 18.3125 11.328125 20.140625 9.421875 
Q 21.96875 7.515625 27.59375 7.515625 
L 36.8125 7.515625 
L 36.8125 0 
L 27.59375 0 
Q 17.1875 0 13.234375 3.875 
Q 9.28125 7.765625 9.28125 18.015625 
L 9.28125 47.703125 
L 2.6875 47.703125 
L 2.6875 54.6875 
L 9.28125 54.6875 
L 9.28125 70.21875 
z
" id="DejaVuSans-116"/>
      </defs>
      <use xlink:href="#DejaVuSans-76"/>
      <use x="46.587891" xlink:href="#DejaVuSans-87"/>
      <use x="140.964844" xlink:href="#DejaVuSans-114"/>
      <use x="182.078125" xlink:href="#DejaVuSans-105"/>
      <use x="209.861328" xlink:href="#DejaVuSans-115"/>
      <use x="261.960938" xlink:href="#DejaVuSans-116"/>
     </g>
    </g>
   </g>
   <g id="text_9">
    <g clip-path="url(#p03cfb99f74)">
     <!-- LHand -->
     <g transform="translate(292.80228 294.051517)scale(0.1 -0.1)">
      <use xlink:href="#DejaVuSans-76"/>
      <use x="55.712891" xlink:href="#DejaVuSans-72"/>
      <use x="130.908203" xlink:href="#DejaVuSans-97"/>
      <use x="192.1875" xlink:href="#DejaVuSans-110"/>
      <use x="255.566406" xlink:href="#DejaVuSans-100"/>
     </g>
    </g>
   </g>
   <g id="text_10">
    <g clip-path="url(#p03cfb99f74)">
     <!-- RShoulder -->
     <g transform="translate(477.695901 149.08559)scale(0.1 -0.1)">
      <defs>
       <path d="M 44.390625 34.1875 
Q 47.5625 33.109375 50.5625 29.59375 
Q 53.5625 26.078125 56.59375 19.921875 
L 66.609375 0 
L 56 0 
L 46.6875 18.703125 
Q 43.0625 26.03125 39.671875 28.421875 
Q 36.28125 30.8125 30.421875 30.8125 
L 19.671875 30.8125 
L 19.671875 0 
L 9.8125 0 
L 9.8125 72.90625 
L 32.078125 72.90625 
Q 44.578125 72.90625 50.734375 67.671875 
Q 56.890625 62.453125 56.890625 51.90625 
Q 56.890625 45.015625 53.6875 40.46875 
Q 50.484375 35.9375 44.390625 34.1875 
z
M 19.671875 64.796875 
L 19.671875 38.921875 
L 32.078125 38.921875 
Q 39.203125 38.921875 42.84375 42.21875 
Q 46.484375 45.515625 46.484375 51.90625 
Q 46.484375 58.296875 42.84375 61.546875 
Q 39.203125 64.796875 32.078125 64.796875 
z
" id="DejaVuSans-82"/>
      </defs>
      <use xlink:href="#DejaVuSans-82"/>
      <use x="69.482422" xlink:href="#DejaVuSans-83"/>
      <use x="132.958984" xlink:href="#DejaVuSans-104"/>
      <use x="196.337891" xlink:href="#DejaVuSans-111"/>
      <use x="257.519531" xlink:href="#DejaVuSans-117"/>
      <use x="320.898438" xlink:href="#DejaVuSans-108"/>
      <use x="348.681641" xlink:href="#DejaVuSans-100"/>
      <use x="412.158203" xlink:href="#DejaVuSans-101"/>
      <use x="473.681641" xlink:href="#DejaVuSans-114"/>
     </g>
    </g>
   </g>
   <g id="text_11">
    <g clip-path="url(#p03cfb99f74)">
     <!-- RElbow -->
     <g transform="translate(507.671216 263.224009)scale(0.1 -0.1)">
      <use xlink:href="#DejaVuSans-82"/>
      <use x="69.482422" xlink:href="#DejaVuSans-69"/>
      <use x="132.666016" xlink:href="#DejaVuSans-108"/>
      <use x="160.449219" xlink:href="#DejaVuSans-98"/>
      <use x="223.925781" xlink:href="#DejaVuSans-111"/>
      <use x="285.107422" xlink:href="#DejaVuSans-119"/>
     </g>
    </g>
   </g>
   <g id="text_12">
    <g clip-path="url(#p03cfb99f74)">
     <!-- RWrist -->
     <g transform="translate(370.506385 294.278412)scale(0.1 -0.1)">
      <use xlink:href="#DejaVuSans-82"/>
      <use x="65.482422" xlink:href="#DejaVuSans-87"/>
      <use x="159.859375" xlink:href="#DejaVuSans-114"/>
      <use x="200.972656" xlink:href="#DejaVuSans-105"/>
      <use x="228.755859" xlink:href="#DejaVuSans-115"/>
      <use x="280.855469" xlink:href="#DejaVuSans-116"/>
     </g>
    </g>
   </g>
   <g id="text_13">
    <g clip-path="url(#p03cfb99f74)">
     <!-- RHand -->
     <g transform="translate(324.651838 295.936764)scale(0.1 -0.1)">
      <use xlink:href="#DejaVuSans-82"/>
      <use x="69.482422" xlink:href="#DejaVuSans-72"/>
      <use x="144.677734" xlink:href="#DejaVuSans-97"/>
      <use x="205.957031" xlink:href="#DejaVuSans-110"/>
      <use x="269.335938" xlink:href="#DejaVuSans-100"/>
     </g>
    </g>
   </g>
   <g id="text_14">
    <g clip-path="url(#p03cfb99f74)">
     <!-- LHip -->
     <g transform="translate(212.949827 342.308214)scale(0.1 -0.1)">
      <use xlink:href="#DejaVuSans-76"/>
      <use x="55.712891" xlink:href="#DejaVuSans-72"/>
      <use x="130.908203" xlink:href="#DejaVuSans-105"/>
      <use x="158.691406" xlink:href="#DejaVuSans-112"/>
     </g>
    </g>
   </g>
   <g id="text_15">
    <g clip-path="url(#p03cfb99f74)">
     <!-- LKnee -->
     <g transform="translate(179.031098 544.538883)scale(0.1 -0.1)">
      <defs>
       <path d="M 9.8125 72.90625 
L 19.671875 72.90625 
L 19.671875 42.09375 
L 52.390625 72.90625 
L 65.09375 72.90625 
L 28.90625 38.921875 
L 67.671875 0 
L 54.6875 0 
L 19.671875 35.109375 
L 19.671875 0 
L 9.8125 0 
z
" id="DejaVuSans-75"/>
      </defs>
      <use xlink:href="#DejaVuSans-76"/>
      <use x="55.712891" xlink:href="#DejaVuSans-75"/>
      <use x="121.289062" xlink:href="#DejaVuSans-110"/>
      <use x="184.667969" xlink:href="#DejaVuSans-101"/>
      <use x="246.191406" xlink:href="#DejaVuSans-101"/>
     </g>
    </g>
   </g>
   <g id="text_16">
    <g clip-path="url(#p03cfb99f74)">
     <!-- LAnkle -->
     <g transform="translate(190.209743 743.405049)scale(0.1 -0.1)">
      <defs>
       <path d="M 34.1875 63.1875 
L 20.796875 26.90625 
L 47.609375 26.90625 
z
M 28.609375 72.90625 
L 39.796875 72.90625 
L 67.578125 0 
L 57.328125 0 
L 50.6875 18.703125 
L 17.828125 18.703125 
L 11.1875 0 
L 0.78125 0 
z
" id="DejaVuSans-65"/>
       <path d="M 9.078125 75.984375 
L 18.109375 75.984375 
L 18.109375 31.109375 
L 44.921875 54.6875 
L 56.390625 54.6875 
L 27.390625 29.109375 
L 57.625 0 
L 45.90625 0 
L 18.109375 26.703125 
L 18.109375 0 
L 9.078125 0 
z
" id="DejaVuSans-107"/>
      </defs>
      <use xlink:href="#DejaVuSans-76"/>
      <use x="57.962891" xlink:href="#DejaVuSans-65"/>
      <use x="126.371094" xlink:href="#DejaVuSans-110"/>
      <use x="189.75" xlink:href="#DejaVuSans-107"/>
      <use x="247.660156" xlink:href="#DejaVuSans-108"/>
      <use x="275.443359" xlink:href="#DejaVuSans-101"/>
     </g>
    </g>
   </g>
   <g id="text_17">
    <g clip-path="url(#p03cfb99f74)">
     <!-- LFoot -->
     <g transform="translate(192.718769 791.784168)scale(0.1 -0.1)">
      <defs>
       <path d="M 9.8125 72.90625 
L 51.703125 72.90625 
L 51.703125 64.59375 
L 19.671875 64.59375 
L 19.671875 43.109375 
L 48.578125 43.109375 
L 48.578125 34.8125 
L 19.671875 34.8125 
L 19.671875 0 
L 9.8125 0 
z
" id="DejaVuSans-70"/>
      </defs>
      <use xlink:href="#DejaVuSans-76"/>
      <use x="55.712891" xlink:href="#DejaVuSans-70"/>
      <use x="109.607422" xlink:href="#DejaVuSans-111"/>
      <use x="170.789062" xlink:href="#DejaVuSans-111"/>
      <use x="231.970703" xlink:href="#DejaVuSans-116"/>
     </g>
    </g>
   </g>
   <g id="text_18">
    <g clip-path="url(#p03cfb99f74)">
     <!-- RHip -->
     <g transform="translate(378.024286 347.564924)scale(0.1 -0.1)">
      <use xlink:href="#DejaVuSans-82"/>
      <use x="69.482422" xlink:href="#DejaVuSans-72"/>
      <use x="144.677734" xlink:href="#DejaVuSans-105"/>
      <use x="172.460938" xlink:href="#DejaVuSans-112"/>
     </g>
    </g>
   </g>
   <g id="text_19">
    <g clip-path="url(#p03cfb99f74)">
     <!-- RKnee -->
     <g transform="translate(337.288282 531.615936)scale(0.1 -0.1)">
      <use xlink:href="#DejaVuSans-82"/>
      <use x="69.482422" xlink:href="#DejaVuSans-75"/>
      <use x="135.058594" xlink:href="#DejaVuSans-110"/>
      <use x="198.4375" xlink:href="#DejaVuSans-101"/>
      <use x="259.960938" xlink:href="#DejaVuSans-101"/>
     </g>
    </g>
   </g>
   <g id="text_20">
    <g clip-path="url(#p03cfb99f74)">
     <!-- RAnkle -->
     <g transform="translate(271.792159 679.763439)scale(0.1 -0.1)">
      <use xlink:href="#DejaVuSans-82"/>
      <use x="65.482422" xlink:href="#DejaVuSans-65"/>
      <use x="133.890625" xlink:href="#DejaVuSans-110"/>
      <use x="197.269531" xlink:href="#DejaVuSans-107"/>
      <use x="255.179688" xlink:href="#DejaVuSans-108"/>
      <use x="282.962891" xlink:href="#DejaVuSans-101"/>
     </g>
    </g>
   </g>
   <g id="text_21">
    <g clip-path="url(#p03cfb99f74)">
     <!-- RFoot -->
     <g transform="translate(285.989928 714.594388)scale(0.1 -0.1)">
      <use xlink:href="#DejaVuSans-82"/>
      <use x="69.482422" xlink:href="#DejaVuSans-70"/>
      <use x="123.376953" xlink:href="#DejaVuSans-111"/>
      <use x="184.558594" xlink:href="#DejaVuSans-111"/>
      <use x="245.740234" xlink:href="#DejaVuSans-116"/>
     </g>
    </g>
   </g>
   <g id="text_22">
    <g clip-path="url(#p03cfb99f74)">
     <!-- LHandTip -->
     <g transform="translate(321.921391 302.886819)scale(0.1 -0.1)">
      <defs>
       <path d="M -0.296875 72.90625 
L 61.375 72.90625 
L 61.375 64.59375 
L 35.5 64.59375 
L 35.5 0 
L 25.59375 0 
L 25.59375 64.59375 
L -0.296875 64.59375 
z
" id="DejaVuSans-84"/>
      </defs>
      <use xlink:href="#DejaVuSans-76"/>
      <use x="55.712891" xlink:href="#DejaVuSans-72"/>
      <use x="130.908203" xlink:href="#DejaVuSans-97"/>
      <use x="192.1875" xlink:href="#DejaVuSans-110"/>
      <use x="255.566406" xlink:href="#DejaVuSans-100"/>
      <use x="319.042969" xlink:href="#DejaVuSans-84"/>
      <use x="377.001953" xlink:href="#DejaVuSans-105"/>
      <use x="404.785156" xlink:href="#DejaVuSans-112"/>
     </g>
    </g>
   </g>
   <g id="text_23">
    <g clip-path="url(#p03cfb99f74)">
     <!-- LThumb -->
     <g transform="translate(321.35942 286.190855)scale(0.1 -0.1)">
      <defs>
       <path d="M 52 44.1875 
Q 55.375 50.25 60.0625 53.125 
Q 64.75 56 71.09375 56 
Q 79.640625 56 84.28125 50.015625 
Q 88.921875 44.046875 88.921875 33.015625 
L 88.921875 0 
L 79.890625 0 
L 79.890625 32.71875 
Q 79.890625 40.578125 77.09375 44.375 
Q 74.3125 48.1875 68.609375 48.1875 
Q 61.625 48.1875 57.5625 43.546875 
Q 53.515625 38.921875 53.515625 30.90625 
L 53.515625 0 
L 44.484375 0 
L 44.484375 32.71875 
Q 44.484375 40.625 41.703125 44.40625 
Q 38.921875 48.1875 33.109375 48.1875 
Q 26.21875 48.1875 22.15625 43.53125 
Q 18.109375 38.875 18.109375 30.90625 
L 18.109375 0 
L 9.078125 0 
L 9.078125 54.6875 
L 18.109375 54.6875 
L 18.109375 46.1875 
Q 21.1875 51.21875 25.484375 53.609375 
Q 29.78125 56 35.6875 56 
Q 41.65625 56 45.828125 52.96875 
Q 50 49.953125 52 44.1875 
z
" id="DejaVuSans-109"/>
      </defs>
      <use xlink:href="#DejaVuSans-76"/>
      <use x="41.962891" xlink:href="#DejaVuSans-84"/>
      <use x="103.046875" xlink:href="#DejaVuSans-104"/>
      <use x="166.425781" xlink:href="#DejaVuSans-117"/>
      <use x="229.804688" xlink:href="#DejaVuSans-109"/>
      <use x="327.216797" xlink:href="#DejaVuSans-98"/>
     </g>
    </g>
   </g>
   <g id="text_24">
    <g clip-path="url(#p03cfb99f74)">
     <!-- RHandTip -->
     <g transform="translate(274.639746 304.207854)scale(0.1 -0.1)">
      <use xlink:href="#DejaVuSans-82"/>
      <use x="69.482422" xlink:href="#DejaVuSans-72"/>
      <use x="144.677734" xlink:href="#DejaVuSans-97"/>
      <use x="205.957031" xlink:href="#DejaVuSans-110"/>
      <use x="269.335938" xlink:href="#DejaVuSans-100"/>
      <use x="332.8125" xlink:href="#DejaVuSans-84"/>
      <use x="390.771484" xlink:href="#DejaVuSans-105"/>
      <use x="418.554688" xlink:href="#DejaVuSans-112"/>
     </g>
    </g>
   </g>
   <g id="text_25">
    <g clip-path="url(#p03cfb99f74)">
     <!-- RThumb -->
     <g transform="translate(266.020982 288.600987)scale(0.1 -0.1)">
      <use xlink:href="#DejaVuSans-82"/>
      <use x="62.232422" xlink:href="#DejaVuSans-84"/>
      <use x="123.316406" xlink:href="#DejaVuSans-104"/>
      <use x="186.695312" xlink:href="#DejaVuSans-117"/>
      <use x="250.074219" xlink:href="#DejaVuSans-109"/>
      <use x="347.486328" xlink:href="#DejaVuSans-98"/>
     </g>
    </g>
   </g>
   <g id="text_26">
    <!-- Node Graph Visualization - Frame 57 -->
    <g transform="translate(178.011563 -6)scale(0.12 -0.12)">
     <defs>
      <path d="M 9.8125 72.90625 
L 23.09375 72.90625 
L 55.421875 11.921875 
L 55.421875 72.90625 
L 64.984375 72.90625 
L 64.984375 0 
L 51.703125 0 
L 19.390625 60.984375 
L 19.390625 0 
L 9.8125 0 
z
" id="DejaVuSans-78"/>
      <path id="DejaVuSans-32"/>
      <path d="M 59.515625 10.40625 
L 59.515625 29.984375 
L 43.40625 29.984375 
L 43.40625 38.09375 
L 69.28125 38.09375 
L 69.28125 6.78125 
Q 63.578125 2.734375 56.6875 0.65625 
Q 49.8125 -1.421875 42 -1.421875 
Q 24.90625 -1.421875 15.25 8.5625 
Q 5.609375 18.5625 5.609375 36.375 
Q 5.609375 54.25 15.25 64.234375 
Q 24.90625 74.21875 42 74.21875 
Q 49.125 74.21875 55.546875 72.453125 
Q 61.96875 70.703125 67.390625 67.28125 
L 67.390625 56.78125 
Q 61.921875 61.421875 55.765625 63.765625 
Q 49.609375 66.109375 42.828125 66.109375 
Q 29.4375 66.109375 22.71875 58.640625 
Q 16.015625 51.171875 16.015625 36.375 
Q 16.015625 21.625 22.71875 14.15625 
Q 29.4375 6.6875 42.828125 6.6875 
Q 48.046875 6.6875 52.140625 7.59375 
Q 56.25 8.5 59.515625 10.40625 
z
" id="DejaVuSans-71"/>
      <path d="M 28.609375 0 
L 0.78125 72.90625 
L 11.078125 72.90625 
L 34.1875 11.53125 
L 57.328125 72.90625 
L 67.578125 72.90625 
L 39.796875 0 
z
" id="DejaVuSans-86"/>
      <path d="M 5.515625 54.6875 
L 48.1875 54.6875 
L 48.1875 46.484375 
L 14.40625 7.171875 
L 48.1875 7.171875 
L 48.1875 0 
L 4.296875 0 
L 4.296875 8.203125 
L 38.09375 47.515625 
L 5.515625 47.515625 
z
" id="DejaVuSans-122"/>
      <path d="M 4.890625 31.390625 
L 31.203125 31.390625 
L 31.203125 23.390625 
L 4.890625 23.390625 
z
" id="DejaVuSans-45"/>
      <path d="M 10.796875 72.90625 
L 49.515625 72.90625 
L 49.515625 64.59375 
L 19.828125 64.59375 
L 19.828125 46.734375 
Q 21.96875 47.46875 24.109375 47.828125 
Q 26.265625 48.1875 28.421875 48.1875 
Q 40.625 48.1875 47.75 41.5 
Q 54.890625 34.8125 54.890625 23.390625 
Q 54.890625 11.625 47.5625 5.09375 
Q 40.234375 -1.421875 26.90625 -1.421875 
Q 22.3125 -1.421875 17.546875 -0.640625 
Q 12.796875 0.140625 7.71875 1.703125 
L 7.71875 11.625 
Q 12.109375 9.234375 16.796875 8.0625 
Q 21.484375 6.890625 26.703125 6.890625 
Q 35.15625 6.890625 40.078125 11.328125 
Q 45.015625 15.765625 45.015625 23.390625 
Q 45.015625 31 40.078125 35.4375 
Q 35.15625 39.890625 26.703125 39.890625 
Q 22.75 39.890625 18.8125 39.015625 
Q 14.890625 38.140625 10.796875 36.28125 
z
" id="DejaVuSans-53"/>
     </defs>
     <use xlink:href="#DejaVuSans-78"/>
     <use x="74.804688" xlink:href="#DejaVuSans-111"/>
     <use x="135.986328" xlink:href="#DejaVuSans-100"/>
     <use x="199.462891" xlink:href="#DejaVuSans-101"/>
     <use x="260.986328" xlink:href="#DejaVuSans-32"/>
     <use x="292.773438" xlink:href="#DejaVuSans-71"/>
     <use x="370.263672" xlink:href="#DejaVuSans-114"/>
     <use x="411.376953" xlink:href="#DejaVuSans-97"/>
     <use x="472.65625" xlink:href="#DejaVuSans-112"/>
     <use x="536.132812" xlink:href="#DejaVuSans-104"/>
     <use x="599.511719" xlink:href="#DejaVuSans-32"/>
     <use x="631.298828" xlink:href="#DejaVuSans-86"/>
     <use x="697.457031" xlink:href="#DejaVuSans-105"/>
     <use x="725.240234" xlink:href="#DejaVuSans-115"/>
     <use x="777.339844" xlink:href="#DejaVuSans-117"/>
     <use x="840.71875" xlink:href="#DejaVuSans-97"/>
     <use x="901.998047" xlink:href="#DejaVuSans-108"/>
     <use x="929.78125" xlink:href="#DejaVuSans-105"/>
     <use x="957.564453" xlink:href="#DejaVuSans-122"/>
     <use x="1010.054688" xlink:href="#DejaVuSans-97"/>
     <use x="1071.333984" xlink:href="#DejaVuSans-116"/>
     <use x="1110.542969" xlink:href="#DejaVuSans-105"/>
     <use x="1138.326172" xlink:href="#DejaVuSans-111"/>
     <use x="1199.507812" xlink:href="#DejaVuSans-110"/>
     <use x="1262.886719" xlink:href="#DejaVuSans-32"/>
     <use x="1294.673828" xlink:href="#DejaVuSans-45"/>
     <use x="1330.757812" xlink:href="#DejaVuSans-32"/>
     <use x="1362.544922" xlink:href="#DejaVuSans-70"/>
     <use x="1412.814453" xlink:href="#DejaVuSans-114"/>
     <use x="1453.927734" xlink:href="#DejaVuSans-97"/>
     <use x="1515.207031" xlink:href="#DejaVuSans-109"/>
     <use x="1612.619141" xlink:href="#DejaVuSans-101"/>
     <use x="1674.142578" xlink:href="#DejaVuSans-32"/>
     <use x="1705.929688" xlink:href="#DejaVuSans-53"/>
     <use x="1769.552734" xlink:href="#DejaVuSans-55"/>
    </g>
   </g>
  </g>
 </g>
 <defs>
  <clipPath id="p03cfb99f74">
   <rect height="864" width="576" x="0" y="0"/>
  </clipPath>
 </defs>
</svg>
