<?xml version="1.0" encoding="utf-8" standalone="no"?>
<!DOCTYPE svg PUBLIC "-//W3C//DTD SVG 1.1//EN"
  "http://www.w3.org/Graphics/SVG/1.1/DTD/svg11.dtd">
<!-- Created with matplotlib (https://matplotlib.org/) -->
<svg height="864pt" version="1.1" viewBox="0 0 576 864" width="576pt" xmlns="http://www.w3.org/2000/svg" xmlns:xlink="http://www.w3.org/1999/xlink">
 <metadata>
  <rdf:RDF xmlns:cc="http://creativecommons.org/ns#" xmlns:dc="http://purl.org/dc/elements/1.1/" xmlns:rdf="http://www.w3.org/1999/02/22-rdf-syntax-ns#">
   <cc:Work>
    <dc:type rdf:resource="http://purl.org/dc/dcmitype/StillImage"/>
    <dc:date>2024-02-04T22:27:55.261678</dc:date>
    <dc:format>image/svg+xml</dc:format>
    <dc:creator>
     <cc:Agent>
      <dc:title>Matplotlib v3.3.2, https://matplotlib.org/</dc:title>
     </cc:Agent>
    </dc:creator>
   </cc:Work>
  </rdf:RDF>
 </metadata>
 <defs>
  <style type="text/css">*{stroke-linecap:butt;stroke-linejoin:round;}</style>
 </defs>
 <g id="figure_1">
  <g id="patch_1">
   <path d="M 0 864 
L 576 864 
L 576 0 
L 0 0 
z
" style="fill:#ffffff;"/>
  </g>
  <g id="axes_1">
   <g id="patch_2">
    <path clip-path="url(#p4d331745de)" d="M 318.593687 88.030545 
Q 317.084656 97.332605 315.754657 105.531058 
" style="fill:none;stroke:#000000;stroke-linecap:round;"/>
    <path clip-path="url(#p4d331745de)" d="M 318.369377 101.90294 
L 315.754657 105.531058 
L 314.420995 101.262412 
L 318.369377 101.90294 
z
" style="stroke:#000000;stroke-linecap:round;"/>
   </g>
   <g id="patch_3">
    <path clip-path="url(#p4d331745de)" d="M 313.258054 132.919705 
Q 313.23803 134.252216 313.234805 134.46682 
" style="fill:none;stroke:#000000;stroke-linecap:round;"/>
    <path clip-path="url(#p4d331745de)" d="M 315.294681 130.497323 
L 313.234805 134.46682 
L 311.295133 130.437221 
L 315.294681 130.497323 
z
" style="stroke:#000000;stroke-linecap:round;"/>
   </g>
   <g id="patch_4">
    <path clip-path="url(#p4d331745de)" d="M 315.574682 106.640476 
Q 317.083713 97.338417 318.413711 89.139964 
" style="fill:none;stroke:#000000;stroke-linecap:round;"/>
    <path clip-path="url(#p4d331745de)" d="M 315.798992 92.768082 
L 318.413711 89.139964 
L 319.747374 93.40861 
L 315.798992 92.768082 
z
" style="stroke:#000000;stroke-linecap:round;"/>
   </g>
   <g id="patch_5">
    <path clip-path="url(#p4d331745de)" d="M 312.81484 162.035681 
Q 312.325616 193.686907 311.85367 224.220233 
" style="fill:none;stroke:#000000;stroke-linecap:round;"/>
    <path clip-path="url(#p4d331745de)" d="M 313.915251 220.251621 
L 311.85367 224.220233 
L 309.915729 220.189801 
L 313.915251 220.251621 
z
" style="stroke:#000000;stroke-linecap:round;"/>
   </g>
   <g id="patch_6">
    <path clip-path="url(#p4d331745de)" d="M 299.807643 148.094986 
Q 221.93382 143.886441 145.176402 139.73823 
" style="fill:none;stroke:#000000;stroke-linecap:round;"/>
    <path clip-path="url(#p4d331745de)" d="M 149.062645 141.951173 
L 145.176402 139.73823 
L 149.278503 137.957001 
L 149.062645 141.951173 
z
" style="stroke:#000000;stroke-linecap:round;"/>
   </g>
   <g id="patch_7">
    <path clip-path="url(#p4d331745de)" d="M 326.248428 148.915472 
Q 401.363649 149.520111 475.360871 150.11575 
" style="fill:none;stroke:#000000;stroke-linecap:round;"/>
    <path clip-path="url(#p4d331745de)" d="M 471.377099 148.083618 
L 475.360871 150.11575 
L 471.344903 152.083489 
L 471.377099 148.083618 
z
" style="stroke:#000000;stroke-linecap:round;"/>
   </g>
   <g id="patch_8">
    <path clip-path="url(#p4d331745de)" d="M 313.218 135.585095 
Q 313.238024 134.252583 313.241249 134.037979 
" style="fill:none;stroke:#000000;stroke-linecap:round;"/>
    <path clip-path="url(#p4d331745de)" d="M 311.181373 138.007477 
L 313.241249 134.037979 
L 315.180921 138.067579 
L 311.181373 138.007477 
z
" style="stroke:#000000;stroke-linecap:round;"/>
   </g>
   <g id="patch_9">
    <path clip-path="url(#p4d331745de)" d="M 311.414738 251.784752 
Q 310.62618 299.778671 309.855989 346.654706 
" style="fill:none;stroke:#000000;stroke-linecap:round;"/>
    <path clip-path="url(#p4d331745de)" d="M 311.921431 342.688102 
L 309.855989 346.654706 
L 307.921971 342.622389 
L 311.921431 342.688102 
z
" style="stroke:#000000;stroke-linecap:round;"/>
   </g>
   <g id="patch_10">
    <path clip-path="url(#p4d331745de)" d="M 311.836451 225.334284 
Q 312.325675 193.683058 312.797621 163.149732 
" style="fill:none;stroke:#000000;stroke-linecap:round;"/>
    <path clip-path="url(#p4d331745de)" d="M 310.73604 167.118344 
L 312.797621 163.149732 
L 314.735562 167.180164 
L 310.73604 167.118344 
z
" style="stroke:#000000;stroke-linecap:round;"/>
   </g>
   <g id="patch_11">
    <path clip-path="url(#p4d331745de)" d="M 296.390735 361.081484 
Q 267.392529 361.257083 239.512335 361.425912 
" style="fill:none;stroke:#000000;stroke-linecap:round;"/>
    <path clip-path="url(#p4d331745de)" d="M 243.524373 363.401654 
L 239.512335 361.425912 
L 243.500151 359.401727 
L 243.524373 363.401654 
z
" style="stroke:#000000;stroke-linecap:round;"/>
   </g>
   <g id="patch_12">
    <path clip-path="url(#p4d331745de)" d="M 322.838827 361.578115 
Q 351.35645 362.822375 378.757102 364.0179 
" style="fill:none;stroke:#000000;stroke-linecap:round;"/>
    <path clip-path="url(#p4d331745de)" d="M 374.848083 361.845442 
L 378.757102 364.0179 
L 374.673724 365.84164 
L 374.848083 361.845442 
z
" style="stroke:#000000;stroke-linecap:round;"/>
   </g>
   <g id="patch_13">
    <path clip-path="url(#p4d331745de)" d="M 309.837539 347.777601 
Q 310.626097 299.783682 311.396288 252.907647 
" style="fill:none;stroke:#000000;stroke-linecap:round;"/>
    <path clip-path="url(#p4d331745de)" d="M 309.330845 256.874251 
L 311.396288 252.907647 
L 313.330305 256.939964 
L 309.330845 256.874251 
z
" style="stroke:#000000;stroke-linecap:round;"/>
   </g>
   <g id="patch_14">
    <path clip-path="url(#p4d331745de)" d="M 122.459219 149.191973 
Q 90.418206 188.235636 59.086449 226.415034 
" style="fill:none;stroke:#000000;stroke-linecap:round;"/>
    <path clip-path="url(#p4d331745de)" d="M 63.170007 224.591698 
L 59.086449 226.415034 
L 60.077915 222.054186 
L 63.170007 224.591698 
z
" style="stroke:#000000;stroke-linecap:round;"/>
   </g>
   <g id="patch_15">
    <path clip-path="url(#p4d331745de)" d="M 144.064294 139.678128 
Q 221.938117 143.886673 298.695534 148.034884 
" style="fill:none;stroke:#000000;stroke-linecap:round;"/>
    <path clip-path="url(#p4d331745de)" d="M 294.809292 145.821941 
L 298.695534 148.034884 
L 294.593434 149.816112 
L 294.809292 145.821941 
z
" style="stroke:#000000;stroke-linecap:round;"/>
   </g>
   <g id="patch_16">
    <path clip-path="url(#p4d331745de)" d="M 62.795632 240.809686 
Q 156.512229 264.96411 249.146173 288.839493 
" style="fill:none;stroke:#000000;stroke-linecap:round;"/>
    <path clip-path="url(#p4d331745de)" d="M 245.771924 285.904456 
L 249.146173 288.839493 
L 244.773594 289.77787 
L 245.771924 285.904456 
z
" style="stroke:#000000;stroke-linecap:round;"/>
   </g>
   <g id="patch_17">
    <path clip-path="url(#p4d331745de)" d="M 58.376907 227.279648 
Q 90.41792 188.235985 121.749677 150.056587 
" style="fill:none;stroke:#000000;stroke-linecap:round;"/>
    <path clip-path="url(#p4d331745de)" d="M 117.666119 151.879923 
L 121.749677 150.056587 
L 120.758211 154.417435 
L 117.666119 151.879923 
z
" style="stroke:#000000;stroke-linecap:round;"/>
   </g>
   <g id="patch_18">
    <path clip-path="url(#p4d331745de)" d="M 275.937505 295.376198 
Q 293.854263 299.482164 310.681237 303.338386 
" style="fill:none;stroke:#000000;stroke-linecap:round;"/>
    <path clip-path="url(#p4d331745de)" d="M 307.229067 300.495409 
L 310.681237 303.338386 
L 306.335553 304.394336 
L 307.229067 300.495409 
z
" style="stroke:#000000;stroke-linecap:round;"/>
   </g>
   <g id="patch_19">
    <path clip-path="url(#p4d331745de)" d="M 250.228352 289.118413 
Q 156.511756 264.963988 63.877811 241.088606 
" style="fill:none;stroke:#000000;stroke-linecap:round;"/>
    <path clip-path="url(#p4d331745de)" d="M 67.25206 244.023643 
L 63.877811 241.088606 
L 68.25039 240.150228 
L 67.25206 244.023643 
z
" style="stroke:#000000;stroke-linecap:round;"/>
   </g>
   <g id="patch_20">
    <path clip-path="url(#p4d331745de)" d="M 337.697916 308.802599 
Q 341.671847 309.491605 344.544178 309.989614 
" style="fill:none;stroke:#000000;stroke-linecap:round;"/>
    <path clip-path="url(#p4d331745de)" d="M 340.944643 307.335683 
L 344.544178 309.989614 
L 340.261312 311.276883 
L 340.944643 307.335683 
z
" style="stroke:#000000;stroke-linecap:round;"/>
   </g>
   <g id="patch_21">
    <path clip-path="url(#p4d331745de)" d="M 337.634504 303.939348 
Q 350.199941 301.417519 361.669202 299.115687 
" style="fill:none;stroke:#000000;stroke-linecap:round;"/>
    <path clip-path="url(#p4d331745de)" d="M 357.353861 297.941876 
L 361.669202 299.115687 
L 358.140949 301.863673 
L 357.353861 297.941876 
z
" style="stroke:#000000;stroke-linecap:round;"/>
   </g>
   <g id="patch_22">
    <path clip-path="url(#p4d331745de)" d="M 311.766243 303.587036 
Q 293.849485 299.481069 277.022511 295.624848 
" style="fill:none;stroke:#000000;stroke-linecap:round;"/>
    <path clip-path="url(#p4d331745de)" d="M 280.474682 298.467825 
L 277.022511 295.624848 
L 281.368195 294.568898 
L 280.474682 298.467825 
z
" style="stroke:#000000;stroke-linecap:round;"/>
   </g>
   <g id="patch_23">
    <path clip-path="url(#p4d331745de)" d="M 493.733224 162.827404 
Q 507.858648 206.971789 521.643339 250.051326 
" style="fill:none;stroke:#000000;stroke-linecap:round;"/>
    <path clip-path="url(#p4d331745de)" d="M 522.329155 245.632088 
L 521.643339 250.051326 
L 518.519439 246.85113 
L 522.329155 245.632088 
z
" style="stroke:#000000;stroke-linecap:round;"/>
   </g>
   <g id="patch_24">
    <path clip-path="url(#p4d331745de)" d="M 476.473513 150.124707 
Q 401.358293 149.520068 327.36107 148.924428 
" style="fill:none;stroke:#000000;stroke-linecap:round;"/>
    <path clip-path="url(#p4d331745de)" d="M 331.344842 150.95656 
L 327.36107 148.924428 
L 331.377039 146.95669 
L 331.344842 150.95656 
z
" style="stroke:#000000;stroke-linecap:round;"/>
   </g>
   <g id="patch_25">
    <path clip-path="url(#p4d331745de)" d="M 513.502117 267.998203 
Q 464.01723 284.92194 415.590221 301.483884 
" style="fill:none;stroke:#000000;stroke-linecap:round;"/>
    <path clip-path="url(#p4d331745de)" d="M 420.022195 302.081886 
L 415.590221 301.483884 
L 418.727808 298.297106 
L 420.022195 302.081886 
z
" style="stroke:#000000;stroke-linecap:round;"/>
   </g>
   <g id="patch_26">
    <path clip-path="url(#p4d331745de)" d="M 521.985964 251.122089 
Q 507.860541 206.977704 494.07585 163.898167 
" style="fill:none;stroke:#000000;stroke-linecap:round;"/>
    <path clip-path="url(#p4d331745de)" d="M 493.390034 168.317404 
L 494.07585 163.898167 
L 497.19975 167.098363 
L 493.390034 168.317404 
z
" style="stroke:#000000;stroke-linecap:round;"/>
   </g>
   <g id="patch_27">
    <path clip-path="url(#p4d331745de)" d="M 388.797457 306.579807 
Q 374.830585 307.058805 361.981091 307.499483 
" style="fill:none;stroke:#000000;stroke-linecap:round;"/>
    <path clip-path="url(#p4d331745de)" d="M 366.047291 309.361207 
L 361.981091 307.499483 
L 365.91019 305.363557 
L 366.047291 309.361207 
z
" style="stroke:#000000;stroke-linecap:round;"/>
   </g>
   <g id="patch_28">
    <path clip-path="url(#p4d331745de)" d="M 414.529659 301.846594 
Q 464.014546 284.922858 512.441555 268.360914 
" style="fill:none;stroke:#000000;stroke-linecap:round;"/>
    <path clip-path="url(#p4d331745de)" d="M 508.009581 267.762911 
L 512.441555 268.360914 
L 509.303969 271.547691 
L 508.009581 267.762911 
z
" style="stroke:#000000;stroke-linecap:round;"/>
   </g>
   <g id="patch_29">
    <path clip-path="url(#p4d331745de)" d="M 334.933961 311.667677 
Q 324.569883 314.665563 315.279811 317.352785 
" style="fill:none;stroke:#000000;stroke-linecap:round;"/>
    <path clip-path="url(#p4d331745de)" d="M 319.678023 318.162559 
L 315.279811 317.352785 
L 318.566558 314.32008 
L 319.678023 318.162559 
z
" style="stroke:#000000;stroke-linecap:round;"/>
   </g>
   <g id="patch_30">
    <path clip-path="url(#p4d331745de)" d="M 336.912826 300.25136 
Q 334.306881 298.371851 332.607726 297.146354 
" style="fill:none;stroke:#000000;stroke-linecap:round;"/>
    <path clip-path="url(#p4d331745de)" d="M 334.682024 301.108334 
L 332.607726 297.146354 
L 337.021889 297.864104 
L 334.682024 301.108334 
z
" style="stroke:#000000;stroke-linecap:round;"/>
   </g>
   <g id="patch_31">
    <path clip-path="url(#p4d331745de)" d="M 360.861892 307.537866 
Q 374.828764 307.058868 387.678259 306.61819 
" style="fill:none;stroke:#000000;stroke-linecap:round;"/>
    <path clip-path="url(#p4d331745de)" d="M 383.612059 304.756466 
L 387.678259 306.61819 
L 383.74916 308.754116 
L 383.612059 304.756466 
z
" style="stroke:#000000;stroke-linecap:round;"/>
   </g>
   <g id="patch_32">
    <path clip-path="url(#p4d331745de)" d="M 223.376362 374.619853 
Q 212.063373 457.488666 200.901613 539.24972 
" style="fill:none;stroke:#000000;stroke-linecap:round;"/>
    <path clip-path="url(#p4d331745de)" d="M 203.424281 535.557005 
L 200.901613 539.24972 
L 199.461042 535.015956 
L 203.424281 535.557005 
z
" style="stroke:#000000;stroke-linecap:round;"/>
   </g>
   <g id="patch_33">
    <path clip-path="url(#p4d331745de)" d="M 238.395229 361.432677 
Q 267.393436 361.257077 295.273629 361.088248 
" style="fill:none;stroke:#000000;stroke-linecap:round;"/>
    <path clip-path="url(#p4d331745de)" d="M 291.261592 359.112507 
L 295.273629 361.088248 
L 291.285813 363.112433 
L 291.261592 359.112507 
z
" style="stroke:#000000;stroke-linecap:round;"/>
   </g>
   <g id="patch_34">
    <path clip-path="url(#p4d331745de)" d="M 200.302347 566.622802 
Q 208.840136 650.37777 217.264542 733.020468 
" style="fill:none;stroke:#000000;stroke-linecap:round;"/>
    <path clip-path="url(#p4d331745de)" d="M 218.848582 728.838265 
L 217.264542 733.020468 
L 214.869204 729.243914 
L 218.848582 728.838265 
z
" style="stroke:#000000;stroke-linecap:round;"/>
   </g>
   <g id="patch_35">
    <path clip-path="url(#p4d331745de)" d="M 200.75037 540.357585 
Q 212.063359 457.488772 223.225119 375.727718 
" style="fill:none;stroke:#000000;stroke-linecap:round;"/>
    <path clip-path="url(#p4d331745de)" d="M 220.702451 379.420433 
L 223.225119 375.727718 
L 224.66569 379.961482 
L 220.702451 379.420433 
z
" style="stroke:#000000;stroke-linecap:round;"/>
   </g>
   <g id="patch_36">
    <path clip-path="url(#p4d331745de)" d="M 218.7785 760.518639 
Q 218.812732 768.158442 218.841955 774.680221 
" style="fill:none;stroke:#000000;stroke-linecap:round;"/>
    <path clip-path="url(#p4d331745de)" d="M 220.824012 770.6713 
L 218.841955 774.680221 
L 216.824052 770.689223 
L 220.824012 770.6713 
z
" style="stroke:#000000;stroke-linecap:round;"/>
   </g>
   <g id="patch_37">
    <path clip-path="url(#p4d331745de)" d="M 217.377917 734.132674 
Q 208.840129 650.377706 200.415723 567.735008 
" style="fill:none;stroke:#000000;stroke-linecap:round;"/>
    <path clip-path="url(#p4d331745de)" d="M 198.831682 571.91721 
L 200.415723 567.735008 
L 202.81106 571.511562 
L 198.831682 571.91721 
z
" style="stroke:#000000;stroke-linecap:round;"/>
   </g>
   <g id="patch_38">
    <path clip-path="url(#p4d331745de)" d="M 218.846959 775.79698 
Q 218.812726 768.157178 218.783504 761.635398 
" style="fill:none;stroke:#000000;stroke-linecap:round;"/>
    <path clip-path="url(#p4d331745de)" d="M 216.801447 765.644319 
L 218.783504 761.635398 
L 220.801407 765.626397 
L 216.801447 765.644319 
z
" style="stroke:#000000;stroke-linecap:round;"/>
   </g>
   <g id="patch_39">
    <path clip-path="url(#p4d331745de)" d="M 393.510679 377.862054 
Q 395.662728 446.150539 397.779561 513.321545 
" style="fill:none;stroke:#000000;stroke-linecap:round;"/>
    <path clip-path="url(#p4d331745de)" d="M 399.652575 509.260533 
L 397.779561 513.321545 
L 395.65456 509.386527 
L 399.652575 509.260533 
z
" style="stroke:#000000;stroke-linecap:round;"/>
   </g>
   <g id="patch_40">
    <path clip-path="url(#p4d331745de)" d="M 379.875547 364.066699 
Q 351.357924 362.822439 323.957272 361.626914 
" style="fill:none;stroke:#000000;stroke-linecap:round;"/>
    <path clip-path="url(#p4d331745de)" d="M 327.866291 363.799372 
L 323.957272 361.626914 
L 328.04065 359.803174 
L 327.866291 363.799372 
z
" style="stroke:#000000;stroke-linecap:round;"/>
   </g>
   <g id="patch_41">
    <path clip-path="url(#p4d331745de)" d="M 390.912878 538.685243 
Q 348.070567 603.19748 305.846771 666.778353 
" style="fill:none;stroke:#000000;stroke-linecap:round;"/>
    <path clip-path="url(#p4d331745de)" d="M 309.725713 664.552637 
L 305.846771 666.778353 
L 306.393563 662.33977 
L 309.725713 664.552637 
z
" style="stroke:#000000;stroke-linecap:round;"/>
   </g>
   <g id="patch_42">
    <path clip-path="url(#p4d331745de)" d="M 397.815 514.446091 
Q 395.662951 446.157606 393.546118 378.9866 
" style="fill:none;stroke:#000000;stroke-linecap:round;"/>
    <path clip-path="url(#p4d331745de)" d="M 391.673104 383.047612 
L 393.546118 378.9866 
L 395.67112 382.921619 
L 391.673104 383.047612 
z
" style="stroke:#000000;stroke-linecap:round;"/>
   </g>
   <g id="patch_43">
    <path clip-path="url(#p4d331745de)" d="M 296.584884 691.890955 
Q 295.822304 699.465613 295.171716 705.92786 
" style="fill:none;stroke:#000000;stroke-linecap:round;"/>
    <path clip-path="url(#p4d331745de)" d="M 297.562332 702.148316 
L 295.171716 705.92786 
L 293.582451 701.74764 
L 297.562332 702.148316 
z
" style="stroke:#000000;stroke-linecap:round;"/>
   </g>
   <g id="patch_44">
    <path clip-path="url(#p4d331745de)" d="M 305.228585 667.709222 
Q 348.070896 603.196985 390.294692 539.616111 
" style="fill:none;stroke:#000000;stroke-linecap:round;"/>
    <path clip-path="url(#p4d331745de)" d="M 386.415751 541.841828 
L 390.294692 539.616111 
L 389.7479 544.054694 
L 386.415751 541.841828 
z
" style="stroke:#000000;stroke-linecap:round;"/>
   </g>
   <g id="patch_45">
    <path clip-path="url(#p4d331745de)" d="M 295.059305 707.044429 
Q 295.821885 699.469771 296.472473 693.007525 
" style="fill:none;stroke:#000000;stroke-linecap:round;"/>
    <path clip-path="url(#p4d331745de)" d="M 294.081857 696.787069 
L 296.472473 693.007525 
L 298.061739 697.187744 
L 294.081857 696.787069 
z
" style="stroke:#000000;stroke-linecap:round;"/>
   </g>
   <g id="patch_46">
    <path clip-path="url(#p4d331745de)" d="M 345.645791 310.180613 
Q 341.671861 309.491607 338.79953 308.993598 
" style="fill:none;stroke:#000000;stroke-linecap:round;"/>
    <path clip-path="url(#p4d331745de)" d="M 342.399065 311.647529 
L 338.79953 308.993598 
L 343.082396 307.706329 
L 342.399065 311.647529 
z
" style="stroke:#000000;stroke-linecap:round;"/>
   </g>
   <g id="patch_47">
    <path clip-path="url(#p4d331745de)" d="M 362.766533 298.895457 
Q 350.201096 301.417287 338.731834 303.719119 
" style="fill:none;stroke:#000000;stroke-linecap:round;"/>
    <path clip-path="url(#p4d331745de)" d="M 343.047176 304.892929 
L 338.731834 303.719119 
L 342.260088 300.971132 
L 343.047176 304.892929 
z
" style="stroke:#000000;stroke-linecap:round;"/>
   </g>
   <g id="patch_48">
    <path clip-path="url(#p4d331745de)" d="M 314.211332 317.661851 
Q 324.575409 314.663965 333.865481 311.976743 
" style="fill:none;stroke:#000000;stroke-linecap:round;"/>
    <path clip-path="url(#p4d331745de)" d="M 329.467269 311.166969 
L 333.865481 311.976743 
L 330.578735 315.009448 
L 329.467269 311.166969 
z
" style="stroke:#000000;stroke-linecap:round;"/>
   </g>
   <g id="patch_49">
    <path clip-path="url(#p4d331745de)" d="M 342.432213 304.232157 
Q 345.038158 306.111665 346.737312 307.337162 
" style="fill:none;stroke:#000000;stroke-linecap:round;"/>
    <path clip-path="url(#p4d331745de)" d="M 344.663015 303.375182 
L 346.737312 307.337162 
L 342.32315 306.619412 
L 344.663015 303.375182 
z
" style="stroke:#000000;stroke-linecap:round;"/>
   </g>
   <g id="PathCollection_1">
    <defs>
     <path d="M 0 13.228757 
C 3.508307 13.228757 6.873396 11.834891 9.354143 9.354143 
C 11.834891 6.873396 13.228757 3.508307 13.228757 0 
C 13.228757 -3.508307 11.834891 -6.873396 9.354143 -9.354143 
C 6.873396 -11.834891 3.508307 -13.228757 0 -13.228757 
C -3.508307 -13.228757 -6.873396 -11.834891 -9.354143 -9.354143 
C -11.834891 -6.873396 -13.228757 -3.508307 -13.228757 0 
C -13.228757 3.508307 -11.834891 6.873396 -9.354143 9.354143 
C -6.873396 11.834891 -3.508307 13.228757 0 13.228757 
z
" id="mb19acce1a3" style="stroke:#87ceeb;"/>
    </defs>
    <g clip-path="url(#p4d331745de)">
     <use style="fill:#87ceeb;stroke:#87ceeb;" x="320.711596" xlink:href="#mb19acce1a3" y="74.975207"/>
     <use style="fill:#87ceeb;stroke:#87ceeb;" x="313.456773" xlink:href="#mb19acce1a3" y="119.695815"/>
     <use style="fill:#87ceeb;stroke:#87ceeb;" x="313.019282" xlink:href="#mb19acce1a3" y="148.808984"/>
     <use style="fill:#87ceeb;stroke:#87ceeb;" x="311.632009" xlink:href="#mb19acce1a3" y="238.560981"/>
     <use style="fill:#87ceeb;stroke:#87ceeb;" x="309.620268" xlink:href="#mb19acce1a3" y="361.001372"/>
     <use style="fill:#87ceeb;stroke:#87ceeb;" x="130.852655" xlink:href="#mb19acce1a3" y="138.964129"/>
     <use style="fill:#87ceeb;stroke:#87ceeb;" x="49.983471" xlink:href="#mb19acce1a3" y="237.507492"/>
     <use style="fill:#87ceeb;stroke:#87ceeb;" x="263.040514" xlink:href="#mb19acce1a3" y="292.420607"/>
     <use style="fill:#87ceeb;stroke:#87ceeb;" x="324.663235" xlink:href="#mb19acce1a3" y="306.542627"/>
     <use style="fill:#87ceeb;stroke:#87ceeb;" x="489.70266" xlink:href="#mb19acce1a3" y="150.231194"/>
     <use style="fill:#87ceeb;stroke:#87ceeb;" x="526.016529" xlink:href="#mb19acce1a3" y="263.718299"/>
     <use style="fill:#87ceeb;stroke:#87ceeb;" x="402.015247" xlink:href="#mb19acce1a3" y="306.126499"/>
     <use style="fill:#87ceeb;stroke:#87ceeb;" x="347.644102" xlink:href="#mb19acce1a3" y="307.991174"/>
     <use style="fill:#87ceeb;stroke:#87ceeb;" x="225.165697" xlink:href="#mb19acce1a3" y="361.512788"/>
     <use style="fill:#87ceeb;stroke:#87ceeb;" x="198.961035" xlink:href="#mb19acce1a3" y="553.46465"/>
     <use style="fill:#87ceeb;stroke:#87ceeb;" x="218.719229" xlink:href="#mb19acce1a3" y="747.290826"/>
     <use style="fill:#87ceeb;stroke:#87ceeb;" x="218.906229" xlink:href="#mb19acce1a3" y="789.024793"/>
     <use style="fill:#87ceeb;stroke:#87ceeb;" x="393.094107" xlink:href="#mb19acce1a3" y="364.643442"/>
     <use style="fill:#87ceeb;stroke:#87ceeb;" x="398.231573" xlink:href="#mb19acce1a3" y="527.664704"/>
     <use style="fill:#87ceeb;stroke:#87ceeb;" x="297.90989" xlink:href="#mb19acce1a3" y="678.729761"/>
     <use style="fill:#87ceeb;stroke:#87ceeb;" x="293.734299" xlink:href="#mb19acce1a3" y="720.205623"/>
     <use style="fill:#87ceeb;stroke:#87ceeb;" x="358.680473" xlink:href="#mb19acce1a3" y="312.440585"/>
     <use style="fill:#87ceeb;stroke:#87ceeb;" x="375.737802" xlink:href="#mb19acce1a3" y="296.292179"/>
     <use style="fill:#87ceeb;stroke:#87ceeb;" x="301.50119" xlink:href="#mb19acce1a3" y="321.338353"/>
     <use style="fill:#87ceeb;stroke:#87ceeb;" x="331.700937" xlink:href="#mb19acce1a3" y="296.492342"/>
    </g>
   </g>
   <g id="text_1">
    <g clip-path="url(#p4d331745de)">
     <!-- Head -->
     <g transform="translate(307.636596 77.734582)scale(0.1 -0.1)">
      <defs>
       <path d="M 9.8125 72.90625 
L 19.671875 72.90625 
L 19.671875 43.015625 
L 55.515625 43.015625 
L 55.515625 72.90625 
L 65.375 72.90625 
L 65.375 0 
L 55.515625 0 
L 55.515625 34.71875 
L 19.671875 34.71875 
L 19.671875 0 
L 9.8125 0 
z
" id="DejaVuSans-72"/>
       <path d="M 56.203125 29.59375 
L 56.203125 25.203125 
L 14.890625 25.203125 
Q 15.484375 15.921875 20.484375 11.0625 
Q 25.484375 6.203125 34.421875 6.203125 
Q 39.59375 6.203125 44.453125 7.46875 
Q 49.3125 8.734375 54.109375 11.28125 
L 54.109375 2.78125 
Q 49.265625 0.734375 44.1875 -0.34375 
Q 39.109375 -1.421875 33.890625 -1.421875 
Q 20.796875 -1.421875 13.15625 6.1875 
Q 5.515625 13.8125 5.515625 26.8125 
Q 5.515625 40.234375 12.765625 48.109375 
Q 20.015625 56 32.328125 56 
Q 43.359375 56 49.78125 48.890625 
Q 56.203125 41.796875 56.203125 29.59375 
z
M 47.21875 32.234375 
Q 47.125 39.59375 43.09375 43.984375 
Q 39.0625 48.390625 32.421875 48.390625 
Q 24.90625 48.390625 20.390625 44.140625 
Q 15.875 39.890625 15.1875 32.171875 
z
" id="DejaVuSans-101"/>
       <path d="M 34.28125 27.484375 
Q 23.390625 27.484375 19.1875 25 
Q 14.984375 22.515625 14.984375 16.5 
Q 14.984375 11.71875 18.140625 8.90625 
Q 21.296875 6.109375 26.703125 6.109375 
Q 34.1875 6.109375 38.703125 11.40625 
Q 43.21875 16.703125 43.21875 25.484375 
L 43.21875 27.484375 
z
M 52.203125 31.203125 
L 52.203125 0 
L 43.21875 0 
L 43.21875 8.296875 
Q 40.140625 3.328125 35.546875 0.953125 
Q 30.953125 -1.421875 24.3125 -1.421875 
Q 15.921875 -1.421875 10.953125 3.296875 
Q 6 8.015625 6 15.921875 
Q 6 25.140625 12.171875 29.828125 
Q 18.359375 34.515625 30.609375 34.515625 
L 43.21875 34.515625 
L 43.21875 35.40625 
Q 43.21875 41.609375 39.140625 45 
Q 35.0625 48.390625 27.6875 48.390625 
Q 23 48.390625 18.546875 47.265625 
Q 14.109375 46.140625 10.015625 43.890625 
L 10.015625 52.203125 
Q 14.9375 54.109375 19.578125 55.046875 
Q 24.21875 56 28.609375 56 
Q 40.484375 56 46.34375 49.84375 
Q 52.203125 43.703125 52.203125 31.203125 
z
" id="DejaVuSans-97"/>
       <path d="M 45.40625 46.390625 
L 45.40625 75.984375 
L 54.390625 75.984375 
L 54.390625 0 
L 45.40625 0 
L 45.40625 8.203125 
Q 42.578125 3.328125 38.25 0.953125 
Q 33.9375 -1.421875 27.875 -1.421875 
Q 17.96875 -1.421875 11.734375 6.484375 
Q 5.515625 14.40625 5.515625 27.296875 
Q 5.515625 40.1875 11.734375 48.09375 
Q 17.96875 56 27.875 56 
Q 33.9375 56 38.25 53.625 
Q 42.578125 51.265625 45.40625 46.390625 
z
M 14.796875 27.296875 
Q 14.796875 17.390625 18.875 11.75 
Q 22.953125 6.109375 30.078125 6.109375 
Q 37.203125 6.109375 41.296875 11.75 
Q 45.40625 17.390625 45.40625 27.296875 
Q 45.40625 37.203125 41.296875 42.84375 
Q 37.203125 48.484375 30.078125 48.484375 
Q 22.953125 48.484375 18.875 42.84375 
Q 14.796875 37.203125 14.796875 27.296875 
z
" id="DejaVuSans-100"/>
      </defs>
      <use xlink:href="#DejaVuSans-72"/>
      <use x="75.195312" xlink:href="#DejaVuSans-101"/>
      <use x="136.71875" xlink:href="#DejaVuSans-97"/>
      <use x="197.998047" xlink:href="#DejaVuSans-100"/>
     </g>
    </g>
   </g>
   <g id="text_2">
    <g clip-path="url(#p4d331745de)">
     <!-- c7 -->
     <g transform="translate(307.526304 122.45519)scale(0.1 -0.1)">
      <defs>
       <path d="M 48.78125 52.59375 
L 48.78125 44.1875 
Q 44.96875 46.296875 41.140625 47.34375 
Q 37.3125 48.390625 33.40625 48.390625 
Q 24.65625 48.390625 19.8125 42.84375 
Q 14.984375 37.3125 14.984375 27.296875 
Q 14.984375 17.28125 19.8125 11.734375 
Q 24.65625 6.203125 33.40625 6.203125 
Q 37.3125 6.203125 41.140625 7.25 
Q 44.96875 8.296875 48.78125 10.40625 
L 48.78125 2.09375 
Q 45.015625 0.34375 40.984375 -0.53125 
Q 36.96875 -1.421875 32.421875 -1.421875 
Q 20.0625 -1.421875 12.78125 6.34375 
Q 5.515625 14.109375 5.515625 27.296875 
Q 5.515625 40.671875 12.859375 48.328125 
Q 20.21875 56 33.015625 56 
Q 37.15625 56 41.109375 55.140625 
Q 45.0625 54.296875 48.78125 52.59375 
z
" id="DejaVuSans-99"/>
       <path d="M 8.203125 72.90625 
L 55.078125 72.90625 
L 55.078125 68.703125 
L 28.609375 0 
L 18.3125 0 
L 43.21875 64.59375 
L 8.203125 64.59375 
z
" id="DejaVuSans-55"/>
      </defs>
      <use xlink:href="#DejaVuSans-99"/>
      <use x="54.980469" xlink:href="#DejaVuSans-55"/>
     </g>
    </g>
   </g>
   <g id="text_3">
    <g clip-path="url(#p4d331745de)">
     <!-- SpineShoulder -->
     <g transform="translate(276.770063 151.568359)scale(0.1 -0.1)">
      <defs>
       <path d="M 53.515625 70.515625 
L 53.515625 60.890625 
Q 47.90625 63.578125 42.921875 64.890625 
Q 37.9375 66.21875 33.296875 66.21875 
Q 25.25 66.21875 20.875 63.09375 
Q 16.5 59.96875 16.5 54.203125 
Q 16.5 49.359375 19.40625 46.890625 
Q 22.3125 44.4375 30.421875 42.921875 
L 36.375 41.703125 
Q 47.40625 39.59375 52.65625 34.296875 
Q 57.90625 29 57.90625 20.125 
Q 57.90625 9.515625 50.796875 4.046875 
Q 43.703125 -1.421875 29.984375 -1.421875 
Q 24.8125 -1.421875 18.96875 -0.25 
Q 13.140625 0.921875 6.890625 3.21875 
L 6.890625 13.375 
Q 12.890625 10.015625 18.65625 8.296875 
Q 24.421875 6.59375 29.984375 6.59375 
Q 38.421875 6.59375 43.015625 9.90625 
Q 47.609375 13.234375 47.609375 19.390625 
Q 47.609375 24.75 44.3125 27.78125 
Q 41.015625 30.8125 33.5 32.328125 
L 27.484375 33.5 
Q 16.453125 35.6875 11.515625 40.375 
Q 6.59375 45.0625 6.59375 53.421875 
Q 6.59375 63.09375 13.40625 68.65625 
Q 20.21875 74.21875 32.171875 74.21875 
Q 37.3125 74.21875 42.625 73.28125 
Q 47.953125 72.359375 53.515625 70.515625 
z
" id="DejaVuSans-83"/>
       <path d="M 18.109375 8.203125 
L 18.109375 -20.796875 
L 9.078125 -20.796875 
L 9.078125 54.6875 
L 18.109375 54.6875 
L 18.109375 46.390625 
Q 20.953125 51.265625 25.265625 53.625 
Q 29.59375 56 35.59375 56 
Q 45.5625 56 51.78125 48.09375 
Q 58.015625 40.1875 58.015625 27.296875 
Q 58.015625 14.40625 51.78125 6.484375 
Q 45.5625 -1.421875 35.59375 -1.421875 
Q 29.59375 -1.421875 25.265625 0.953125 
Q 20.953125 3.328125 18.109375 8.203125 
z
M 48.6875 27.296875 
Q 48.6875 37.203125 44.609375 42.84375 
Q 40.53125 48.484375 33.40625 48.484375 
Q 26.265625 48.484375 22.1875 42.84375 
Q 18.109375 37.203125 18.109375 27.296875 
Q 18.109375 17.390625 22.1875 11.75 
Q 26.265625 6.109375 33.40625 6.109375 
Q 40.53125 6.109375 44.609375 11.75 
Q 48.6875 17.390625 48.6875 27.296875 
z
" id="DejaVuSans-112"/>
       <path d="M 9.421875 54.6875 
L 18.40625 54.6875 
L 18.40625 0 
L 9.421875 0 
z
M 9.421875 75.984375 
L 18.40625 75.984375 
L 18.40625 64.59375 
L 9.421875 64.59375 
z
" id="DejaVuSans-105"/>
       <path d="M 54.890625 33.015625 
L 54.890625 0 
L 45.90625 0 
L 45.90625 32.71875 
Q 45.90625 40.484375 42.875 44.328125 
Q 39.84375 48.1875 33.796875 48.1875 
Q 26.515625 48.1875 22.3125 43.546875 
Q 18.109375 38.921875 18.109375 30.90625 
L 18.109375 0 
L 9.078125 0 
L 9.078125 54.6875 
L 18.109375 54.6875 
L 18.109375 46.1875 
Q 21.34375 51.125 25.703125 53.5625 
Q 30.078125 56 35.796875 56 
Q 45.21875 56 50.046875 50.171875 
Q 54.890625 44.34375 54.890625 33.015625 
z
" id="DejaVuSans-110"/>
       <path d="M 54.890625 33.015625 
L 54.890625 0 
L 45.90625 0 
L 45.90625 32.71875 
Q 45.90625 40.484375 42.875 44.328125 
Q 39.84375 48.1875 33.796875 48.1875 
Q 26.515625 48.1875 22.3125 43.546875 
Q 18.109375 38.921875 18.109375 30.90625 
L 18.109375 0 
L 9.078125 0 
L 9.078125 75.984375 
L 18.109375 75.984375 
L 18.109375 46.1875 
Q 21.34375 51.125 25.703125 53.5625 
Q 30.078125 56 35.796875 56 
Q 45.21875 56 50.046875 50.171875 
Q 54.890625 44.34375 54.890625 33.015625 
z
" id="DejaVuSans-104"/>
       <path d="M 30.609375 48.390625 
Q 23.390625 48.390625 19.1875 42.75 
Q 14.984375 37.109375 14.984375 27.296875 
Q 14.984375 17.484375 19.15625 11.84375 
Q 23.34375 6.203125 30.609375 6.203125 
Q 37.796875 6.203125 41.984375 11.859375 
Q 46.1875 17.53125 46.1875 27.296875 
Q 46.1875 37.015625 41.984375 42.703125 
Q 37.796875 48.390625 30.609375 48.390625 
z
M 30.609375 56 
Q 42.328125 56 49.015625 48.375 
Q 55.71875 40.765625 55.71875 27.296875 
Q 55.71875 13.875 49.015625 6.21875 
Q 42.328125 -1.421875 30.609375 -1.421875 
Q 18.84375 -1.421875 12.171875 6.21875 
Q 5.515625 13.875 5.515625 27.296875 
Q 5.515625 40.765625 12.171875 48.375 
Q 18.84375 56 30.609375 56 
z
" id="DejaVuSans-111"/>
       <path d="M 8.5 21.578125 
L 8.5 54.6875 
L 17.484375 54.6875 
L 17.484375 21.921875 
Q 17.484375 14.15625 20.5 10.265625 
Q 23.53125 6.390625 29.59375 6.390625 
Q 36.859375 6.390625 41.078125 11.03125 
Q 45.3125 15.671875 45.3125 23.6875 
L 45.3125 54.6875 
L 54.296875 54.6875 
L 54.296875 0 
L 45.3125 0 
L 45.3125 8.40625 
Q 42.046875 3.421875 37.71875 1 
Q 33.40625 -1.421875 27.6875 -1.421875 
Q 18.265625 -1.421875 13.375 4.4375 
Q 8.5 10.296875 8.5 21.578125 
z
M 31.109375 56 
z
" id="DejaVuSans-117"/>
       <path d="M 9.421875 75.984375 
L 18.40625 75.984375 
L 18.40625 0 
L 9.421875 0 
z
" id="DejaVuSans-108"/>
       <path d="M 41.109375 46.296875 
Q 39.59375 47.171875 37.8125 47.578125 
Q 36.03125 48 33.890625 48 
Q 26.265625 48 22.1875 43.046875 
Q 18.109375 38.09375 18.109375 28.8125 
L 18.109375 0 
L 9.078125 0 
L 9.078125 54.6875 
L 18.109375 54.6875 
L 18.109375 46.1875 
Q 20.953125 51.171875 25.484375 53.578125 
Q 30.03125 56 36.53125 56 
Q 37.453125 56 38.578125 55.875 
Q 39.703125 55.765625 41.0625 55.515625 
z
" id="DejaVuSans-114"/>
      </defs>
      <use xlink:href="#DejaVuSans-83"/>
      <use x="63.476562" xlink:href="#DejaVuSans-112"/>
      <use x="126.953125" xlink:href="#DejaVuSans-105"/>
      <use x="154.736328" xlink:href="#DejaVuSans-110"/>
      <use x="218.115234" xlink:href="#DejaVuSans-101"/>
      <use x="279.638672" xlink:href="#DejaVuSans-83"/>
      <use x="343.115234" xlink:href="#DejaVuSans-104"/>
      <use x="406.494141" xlink:href="#DejaVuSans-111"/>
      <use x="467.675781" xlink:href="#DejaVuSans-117"/>
      <use x="531.054688" xlink:href="#DejaVuSans-108"/>
      <use x="558.837891" xlink:href="#DejaVuSans-100"/>
      <use x="622.314453" xlink:href="#DejaVuSans-101"/>
      <use x="683.837891" xlink:href="#DejaVuSans-114"/>
     </g>
    </g>
   </g>
   <g id="text_4">
    <g clip-path="url(#p4d331745de)">
     <!-- Spine -->
     <g transform="translate(297.649197 241.320356)scale(0.1 -0.1)">
      <use xlink:href="#DejaVuSans-83"/>
      <use x="63.476562" xlink:href="#DejaVuSans-112"/>
      <use x="126.953125" xlink:href="#DejaVuSans-105"/>
      <use x="154.736328" xlink:href="#DejaVuSans-110"/>
      <use x="218.115234" xlink:href="#DejaVuSans-101"/>
     </g>
    </g>
   </g>
   <g id="text_5">
    <g clip-path="url(#p4d331745de)">
     <!-- Sacr -->
     <g transform="translate(298.577299 363.760747)scale(0.1 -0.1)">
      <use xlink:href="#DejaVuSans-83"/>
      <use x="63.476562" xlink:href="#DejaVuSans-97"/>
      <use x="124.755859" xlink:href="#DejaVuSans-99"/>
      <use x="179.736328" xlink:href="#DejaVuSans-114"/>
     </g>
    </g>
   </g>
   <g id="text_6">
    <g clip-path="url(#p4d331745de)">
     <!-- LShoulder -->
     <g transform="translate(105.800311 141.723504)scale(0.1 -0.1)">
      <defs>
       <path d="M 9.8125 72.90625 
L 19.671875 72.90625 
L 19.671875 8.296875 
L 55.171875 8.296875 
L 55.171875 0 
L 9.8125 0 
z
" id="DejaVuSans-76"/>
      </defs>
      <use xlink:href="#DejaVuSans-76"/>
      <use x="55.712891" xlink:href="#DejaVuSans-83"/>
      <use x="119.189453" xlink:href="#DejaVuSans-104"/>
      <use x="182.568359" xlink:href="#DejaVuSans-111"/>
      <use x="243.75" xlink:href="#DejaVuSans-117"/>
      <use x="307.128906" xlink:href="#DejaVuSans-108"/>
      <use x="334.912109" xlink:href="#DejaVuSans-100"/>
      <use x="398.388672" xlink:href="#DejaVuSans-101"/>
      <use x="459.912109" xlink:href="#DejaVuSans-114"/>
     </g>
    </g>
   </g>
   <g id="text_7">
    <g clip-path="url(#p4d331745de)">
     <!-- LElbow -->
     <g transform="translate(32.32644 240.266867)scale(0.1 -0.1)">
      <defs>
       <path d="M 9.8125 72.90625 
L 55.90625 72.90625 
L 55.90625 64.59375 
L 19.671875 64.59375 
L 19.671875 43.015625 
L 54.390625 43.015625 
L 54.390625 34.71875 
L 19.671875 34.71875 
L 19.671875 8.296875 
L 56.78125 8.296875 
L 56.78125 0 
L 9.8125 0 
z
" id="DejaVuSans-69"/>
       <path d="M 48.6875 27.296875 
Q 48.6875 37.203125 44.609375 42.84375 
Q 40.53125 48.484375 33.40625 48.484375 
Q 26.265625 48.484375 22.1875 42.84375 
Q 18.109375 37.203125 18.109375 27.296875 
Q 18.109375 17.390625 22.1875 11.75 
Q 26.265625 6.109375 33.40625 6.109375 
Q 40.53125 6.109375 44.609375 11.75 
Q 48.6875 17.390625 48.6875 27.296875 
z
M 18.109375 46.390625 
Q 20.953125 51.265625 25.265625 53.625 
Q 29.59375 56 35.59375 56 
Q 45.5625 56 51.78125 48.09375 
Q 58.015625 40.1875 58.015625 27.296875 
Q 58.015625 14.40625 51.78125 6.484375 
Q 45.5625 -1.421875 35.59375 -1.421875 
Q 29.59375 -1.421875 25.265625 0.953125 
Q 20.953125 3.328125 18.109375 8.203125 
L 18.109375 0 
L 9.078125 0 
L 9.078125 75.984375 
L 18.109375 75.984375 
z
" id="DejaVuSans-98"/>
       <path d="M 4.203125 54.6875 
L 13.1875 54.6875 
L 24.421875 12.015625 
L 35.59375 54.6875 
L 46.1875 54.6875 
L 57.421875 12.015625 
L 68.609375 54.6875 
L 77.59375 54.6875 
L 63.28125 0 
L 52.6875 0 
L 40.921875 44.828125 
L 29.109375 0 
L 18.5 0 
z
" id="DejaVuSans-119"/>
      </defs>
      <use xlink:href="#DejaVuSans-76"/>
      <use x="55.712891" xlink:href="#DejaVuSans-69"/>
      <use x="118.896484" xlink:href="#DejaVuSans-108"/>
      <use x="146.679688" xlink:href="#DejaVuSans-98"/>
      <use x="210.15625" xlink:href="#DejaVuSans-111"/>
      <use x="271.337891" xlink:href="#DejaVuSans-119"/>
     </g>
    </g>
   </g>
   <g id="text_8">
    <g clip-path="url(#p4d331745de)">
     <!-- LWrist -->
     <g transform="translate(247.982701 295.179982)scale(0.1 -0.1)">
      <defs>
       <path d="M 3.328125 72.90625 
L 13.28125 72.90625 
L 28.609375 11.28125 
L 43.890625 72.90625 
L 54.984375 72.90625 
L 70.3125 11.28125 
L 85.59375 72.90625 
L 95.609375 72.90625 
L 77.296875 0 
L 64.890625 0 
L 49.515625 63.28125 
L 33.984375 0 
L 21.578125 0 
z
" id="DejaVuSans-87"/>
       <path d="M 44.28125 53.078125 
L 44.28125 44.578125 
Q 40.484375 46.53125 36.375 47.5 
Q 32.28125 48.484375 27.875 48.484375 
Q 21.1875 48.484375 17.84375 46.4375 
Q 14.5 44.390625 14.5 40.28125 
Q 14.5 37.15625 16.890625 35.375 
Q 19.28125 33.59375 26.515625 31.984375 
L 29.59375 31.296875 
Q 39.15625 29.25 43.1875 25.515625 
Q 47.21875 21.78125 47.21875 15.09375 
Q 47.21875 7.46875 41.1875 3.015625 
Q 35.15625 -1.421875 24.609375 -1.421875 
Q 20.21875 -1.421875 15.453125 -0.5625 
Q 10.6875 0.296875 5.421875 2 
L 5.421875 11.28125 
Q 10.40625 8.6875 15.234375 7.390625 
Q 20.0625 6.109375 24.8125 6.109375 
Q 31.15625 6.109375 34.5625 8.28125 
Q 37.984375 10.453125 37.984375 14.40625 
Q 37.984375 18.0625 35.515625 20.015625 
Q 33.0625 21.96875 24.703125 23.78125 
L 21.578125 24.515625 
Q 13.234375 26.265625 9.515625 29.90625 
Q 5.8125 33.546875 5.8125 39.890625 
Q 5.8125 47.609375 11.28125 51.796875 
Q 16.75 56 26.8125 56 
Q 31.78125 56 36.171875 55.265625 
Q 40.578125 54.546875 44.28125 53.078125 
z
" id="DejaVuSans-115"/>
       <path d="M 18.3125 70.21875 
L 18.3125 54.6875 
L 36.8125 54.6875 
L 36.8125 47.703125 
L 18.3125 47.703125 
L 18.3125 18.015625 
Q 18.3125 11.328125 20.140625 9.421875 
Q 21.96875 7.515625 27.59375 7.515625 
L 36.8125 7.515625 
L 36.8125 0 
L 27.59375 0 
Q 17.1875 0 13.234375 3.875 
Q 9.28125 7.765625 9.28125 18.015625 
L 9.28125 47.703125 
L 2.6875 47.703125 
L 2.6875 54.6875 
L 9.28125 54.6875 
L 9.28125 70.21875 
z
" id="DejaVuSans-116"/>
      </defs>
      <use xlink:href="#DejaVuSans-76"/>
      <use x="46.587891" xlink:href="#DejaVuSans-87"/>
      <use x="140.964844" xlink:href="#DejaVuSans-114"/>
      <use x="182.078125" xlink:href="#DejaVuSans-105"/>
      <use x="209.861328" xlink:href="#DejaVuSans-115"/>
      <use x="261.960938" xlink:href="#DejaVuSans-116"/>
     </g>
    </g>
   </g>
   <g id="text_9">
    <g clip-path="url(#p4d331745de)">
     <!-- LHand -->
     <g transform="translate(308.71011 309.302002)scale(0.1 -0.1)">
      <use xlink:href="#DejaVuSans-76"/>
      <use x="55.712891" xlink:href="#DejaVuSans-72"/>
      <use x="130.908203" xlink:href="#DejaVuSans-97"/>
      <use x="192.1875" xlink:href="#DejaVuSans-110"/>
      <use x="255.566406" xlink:href="#DejaVuSans-100"/>
     </g>
    </g>
   </g>
   <g id="text_10">
    <g clip-path="url(#p4d331745de)">
     <!-- RShoulder -->
     <g transform="translate(463.962035 152.990569)scale(0.1 -0.1)">
      <defs>
       <path d="M 44.390625 34.1875 
Q 47.5625 33.109375 50.5625 29.59375 
Q 53.5625 26.078125 56.59375 19.921875 
L 66.609375 0 
L 56 0 
L 46.6875 18.703125 
Q 43.0625 26.03125 39.671875 28.421875 
Q 36.28125 30.8125 30.421875 30.8125 
L 19.671875 30.8125 
L 19.671875 0 
L 9.8125 0 
L 9.8125 72.90625 
L 32.078125 72.90625 
Q 44.578125 72.90625 50.734375 67.671875 
Q 56.890625 62.453125 56.890625 51.90625 
Q 56.890625 45.015625 53.6875 40.46875 
Q 50.484375 35.9375 44.390625 34.1875 
z
M 19.671875 64.796875 
L 19.671875 38.921875 
L 32.078125 38.921875 
Q 39.203125 38.921875 42.84375 42.21875 
Q 46.484375 45.515625 46.484375 51.90625 
Q 46.484375 58.296875 42.84375 61.546875 
Q 39.203125 64.796875 32.078125 64.796875 
z
" id="DejaVuSans-82"/>
      </defs>
      <use xlink:href="#DejaVuSans-82"/>
      <use x="69.482422" xlink:href="#DejaVuSans-83"/>
      <use x="132.958984" xlink:href="#DejaVuSans-104"/>
      <use x="196.337891" xlink:href="#DejaVuSans-111"/>
      <use x="257.519531" xlink:href="#DejaVuSans-117"/>
      <use x="320.898438" xlink:href="#DejaVuSans-108"/>
      <use x="348.681641" xlink:href="#DejaVuSans-100"/>
      <use x="412.158203" xlink:href="#DejaVuSans-101"/>
      <use x="473.681641" xlink:href="#DejaVuSans-114"/>
     </g>
    </g>
   </g>
   <g id="text_11">
    <g clip-path="url(#p4d331745de)">
     <!-- RElbow -->
     <g transform="translate(507.671216 266.477674)scale(0.1 -0.1)">
      <use xlink:href="#DejaVuSans-82"/>
      <use x="69.482422" xlink:href="#DejaVuSans-69"/>
      <use x="132.666016" xlink:href="#DejaVuSans-108"/>
      <use x="160.449219" xlink:href="#DejaVuSans-98"/>
      <use x="223.925781" xlink:href="#DejaVuSans-111"/>
      <use x="285.107422" xlink:href="#DejaVuSans-119"/>
     </g>
    </g>
   </g>
   <g id="text_12">
    <g clip-path="url(#p4d331745de)">
     <!-- RWrist -->
     <g transform="translate(386.012904 308.885874)scale(0.1 -0.1)">
      <use xlink:href="#DejaVuSans-82"/>
      <use x="65.482422" xlink:href="#DejaVuSans-87"/>
      <use x="159.859375" xlink:href="#DejaVuSans-114"/>
      <use x="200.972656" xlink:href="#DejaVuSans-105"/>
      <use x="228.755859" xlink:href="#DejaVuSans-115"/>
      <use x="280.855469" xlink:href="#DejaVuSans-116"/>
     </g>
    </g>
   </g>
   <g id="text_13">
    <g clip-path="url(#p4d331745de)">
     <!-- RHand -->
     <g transform="translate(331.002696 310.750549)scale(0.1 -0.1)">
      <use xlink:href="#DejaVuSans-82"/>
      <use x="69.482422" xlink:href="#DejaVuSans-72"/>
      <use x="144.677734" xlink:href="#DejaVuSans-97"/>
      <use x="205.957031" xlink:href="#DejaVuSans-110"/>
      <use x="269.335938" xlink:href="#DejaVuSans-100"/>
     </g>
    </g>
   </g>
   <g id="text_14">
    <g clip-path="url(#p4d331745de)">
     <!-- LHip -->
     <g transform="translate(214.056322 364.272163)scale(0.1 -0.1)">
      <use xlink:href="#DejaVuSans-76"/>
      <use x="55.712891" xlink:href="#DejaVuSans-72"/>
      <use x="130.908203" xlink:href="#DejaVuSans-105"/>
      <use x="158.691406" xlink:href="#DejaVuSans-112"/>
     </g>
    </g>
   </g>
   <g id="text_15">
    <g clip-path="url(#p4d331745de)">
     <!-- LKnee -->
     <g transform="translate(183.574317 556.224025)scale(0.1 -0.1)">
      <defs>
       <path d="M 9.8125 72.90625 
L 19.671875 72.90625 
L 19.671875 42.09375 
L 52.390625 72.90625 
L 65.09375 72.90625 
L 28.90625 38.921875 
L 67.671875 0 
L 54.6875 0 
L 19.671875 35.109375 
L 19.671875 0 
L 9.8125 0 
z
" id="DejaVuSans-75"/>
      </defs>
      <use xlink:href="#DejaVuSans-76"/>
      <use x="55.712891" xlink:href="#DejaVuSans-75"/>
      <use x="121.289062" xlink:href="#DejaVuSans-110"/>
      <use x="184.667969" xlink:href="#DejaVuSans-101"/>
      <use x="246.191406" xlink:href="#DejaVuSans-101"/>
     </g>
    </g>
   </g>
   <g id="text_16">
    <g clip-path="url(#p4d331745de)">
     <!-- LAnkle -->
     <g transform="translate(201.870792 750.050201)scale(0.1 -0.1)">
      <defs>
       <path d="M 34.1875 63.1875 
L 20.796875 26.90625 
L 47.609375 26.90625 
z
M 28.609375 72.90625 
L 39.796875 72.90625 
L 67.578125 0 
L 57.328125 0 
L 50.6875 18.703125 
L 17.828125 18.703125 
L 11.1875 0 
L 0.78125 0 
z
" id="DejaVuSans-65"/>
       <path d="M 9.078125 75.984375 
L 18.109375 75.984375 
L 18.109375 31.109375 
L 44.921875 54.6875 
L 56.390625 54.6875 
L 27.390625 29.109375 
L 57.625 0 
L 45.90625 0 
L 18.109375 26.703125 
L 18.109375 0 
L 9.078125 0 
z
" id="DejaVuSans-107"/>
      </defs>
      <use xlink:href="#DejaVuSans-76"/>
      <use x="57.962891" xlink:href="#DejaVuSans-65"/>
      <use x="126.371094" xlink:href="#DejaVuSans-110"/>
      <use x="189.75" xlink:href="#DejaVuSans-107"/>
      <use x="247.660156" xlink:href="#DejaVuSans-108"/>
      <use x="275.443359" xlink:href="#DejaVuSans-101"/>
     </g>
    </g>
   </g>
   <g id="text_17">
    <g clip-path="url(#p4d331745de)">
     <!-- LFoot -->
     <g transform="translate(205.346854 791.784168)scale(0.1 -0.1)">
      <defs>
       <path d="M 9.8125 72.90625 
L 51.703125 72.90625 
L 51.703125 64.59375 
L 19.671875 64.59375 
L 19.671875 43.109375 
L 48.578125 43.109375 
L 48.578125 34.8125 
L 19.671875 34.8125 
L 19.671875 0 
L 9.8125 0 
z
" id="DejaVuSans-70"/>
      </defs>
      <use xlink:href="#DejaVuSans-76"/>
      <use x="55.712891" xlink:href="#DejaVuSans-70"/>
      <use x="109.607422" xlink:href="#DejaVuSans-111"/>
      <use x="170.789062" xlink:href="#DejaVuSans-111"/>
      <use x="231.970703" xlink:href="#DejaVuSans-116"/>
     </g>
    </g>
   </g>
   <g id="text_18">
    <g clip-path="url(#p4d331745de)">
     <!-- RHip -->
     <g transform="translate(381.29645 367.402817)scale(0.1 -0.1)">
      <use xlink:href="#DejaVuSans-82"/>
      <use x="69.482422" xlink:href="#DejaVuSans-72"/>
      <use x="144.677734" xlink:href="#DejaVuSans-105"/>
      <use x="172.460938" xlink:href="#DejaVuSans-112"/>
     </g>
    </g>
   </g>
   <g id="text_19">
    <g clip-path="url(#p4d331745de)">
     <!-- RKnee -->
     <g transform="translate(382.156573 530.424079)scale(0.1 -0.1)">
      <use xlink:href="#DejaVuSans-82"/>
      <use x="69.482422" xlink:href="#DejaVuSans-75"/>
      <use x="135.058594" xlink:href="#DejaVuSans-110"/>
      <use x="198.4375" xlink:href="#DejaVuSans-101"/>
      <use x="259.960938" xlink:href="#DejaVuSans-101"/>
     </g>
    </g>
   </g>
   <g id="text_20">
    <g clip-path="url(#p4d331745de)">
     <!-- RAnkle -->
     <g transform="translate(280.685672 681.489136)scale(0.1 -0.1)">
      <use xlink:href="#DejaVuSans-82"/>
      <use x="65.482422" xlink:href="#DejaVuSans-65"/>
      <use x="133.890625" xlink:href="#DejaVuSans-110"/>
      <use x="197.269531" xlink:href="#DejaVuSans-107"/>
      <use x="255.179688" xlink:href="#DejaVuSans-108"/>
      <use x="282.962891" xlink:href="#DejaVuSans-101"/>
     </g>
    </g>
   </g>
   <g id="text_21">
    <g clip-path="url(#p4d331745de)">
     <!-- RFoot -->
     <g transform="translate(279.486643 722.964998)scale(0.1 -0.1)">
      <use xlink:href="#DejaVuSans-82"/>
      <use x="69.482422" xlink:href="#DejaVuSans-70"/>
      <use x="123.376953" xlink:href="#DejaVuSans-111"/>
      <use x="184.558594" xlink:href="#DejaVuSans-111"/>
      <use x="245.740234" xlink:href="#DejaVuSans-116"/>
     </g>
    </g>
   </g>
   <g id="text_22">
    <g clip-path="url(#p4d331745de)">
     <!-- LHandTip -->
     <g transform="translate(335.26641 315.19996)scale(0.1 -0.1)">
      <defs>
       <path d="M -0.296875 72.90625 
L 61.375 72.90625 
L 61.375 64.59375 
L 35.5 64.59375 
L 35.5 0 
L 25.59375 0 
L 25.59375 64.59375 
L -0.296875 64.59375 
z
" id="DejaVuSans-84"/>
      </defs>
      <use xlink:href="#DejaVuSans-76"/>
      <use x="55.712891" xlink:href="#DejaVuSans-72"/>
      <use x="130.908203" xlink:href="#DejaVuSans-97"/>
      <use x="192.1875" xlink:href="#DejaVuSans-110"/>
      <use x="255.566406" xlink:href="#DejaVuSans-100"/>
      <use x="319.042969" xlink:href="#DejaVuSans-84"/>
      <use x="377.001953" xlink:href="#DejaVuSans-105"/>
      <use x="404.785156" xlink:href="#DejaVuSans-112"/>
     </g>
    </g>
   </g>
   <g id="text_23">
    <g clip-path="url(#p4d331745de)">
     <!-- LThumb -->
     <g transform="translate(356.203427 299.051554)scale(0.1 -0.1)">
      <defs>
       <path d="M 52 44.1875 
Q 55.375 50.25 60.0625 53.125 
Q 64.75 56 71.09375 56 
Q 79.640625 56 84.28125 50.015625 
Q 88.921875 44.046875 88.921875 33.015625 
L 88.921875 0 
L 79.890625 0 
L 79.890625 32.71875 
Q 79.890625 40.578125 77.09375 44.375 
Q 74.3125 48.1875 68.609375 48.1875 
Q 61.625 48.1875 57.5625 43.546875 
Q 53.515625 38.921875 53.515625 30.90625 
L 53.515625 0 
L 44.484375 0 
L 44.484375 32.71875 
Q 44.484375 40.625 41.703125 44.40625 
Q 38.921875 48.1875 33.109375 48.1875 
Q 26.21875 48.1875 22.15625 43.53125 
Q 18.109375 38.875 18.109375 30.90625 
L 18.109375 0 
L 9.078125 0 
L 9.078125 54.6875 
L 18.109375 54.6875 
L 18.109375 46.1875 
Q 21.1875 51.21875 25.484375 53.609375 
Q 29.78125 56 35.6875 56 
Q 41.65625 56 45.828125 52.96875 
Q 50 49.953125 52 44.1875 
z
" id="DejaVuSans-109"/>
      </defs>
      <use xlink:href="#DejaVuSans-76"/>
      <use x="41.962891" xlink:href="#DejaVuSans-84"/>
      <use x="103.046875" xlink:href="#DejaVuSans-104"/>
      <use x="166.425781" xlink:href="#DejaVuSans-117"/>
      <use x="229.804688" xlink:href="#DejaVuSans-109"/>
      <use x="327.216797" xlink:href="#DejaVuSans-98"/>
     </g>
    </g>
   </g>
   <g id="text_24">
    <g clip-path="url(#p4d331745de)">
     <!-- RHandTip -->
     <g transform="translate(277.398846 324.097728)scale(0.1 -0.1)">
      <use xlink:href="#DejaVuSans-82"/>
      <use x="69.482422" xlink:href="#DejaVuSans-72"/>
      <use x="144.677734" xlink:href="#DejaVuSans-97"/>
      <use x="205.957031" xlink:href="#DejaVuSans-110"/>
      <use x="269.335938" xlink:href="#DejaVuSans-100"/>
      <use x="332.8125" xlink:href="#DejaVuSans-84"/>
      <use x="390.771484" xlink:href="#DejaVuSans-105"/>
      <use x="418.554688" xlink:href="#DejaVuSans-112"/>
     </g>
    </g>
   </g>
   <g id="text_25">
    <g clip-path="url(#p4d331745de)">
     <!-- RThumb -->
     <g transform="translate(311.15328 299.251717)scale(0.1 -0.1)">
      <use xlink:href="#DejaVuSans-82"/>
      <use x="62.232422" xlink:href="#DejaVuSans-84"/>
      <use x="123.316406" xlink:href="#DejaVuSans-104"/>
      <use x="186.695312" xlink:href="#DejaVuSans-117"/>
      <use x="250.074219" xlink:href="#DejaVuSans-109"/>
      <use x="347.486328" xlink:href="#DejaVuSans-98"/>
     </g>
    </g>
   </g>
   <g id="text_26">
    <!-- Node Graph Visualization - Frame 64 -->
    <g transform="translate(178.011563 -6)scale(0.12 -0.12)">
     <defs>
      <path d="M 9.8125 72.90625 
L 23.09375 72.90625 
L 55.421875 11.921875 
L 55.421875 72.90625 
L 64.984375 72.90625 
L 64.984375 0 
L 51.703125 0 
L 19.390625 60.984375 
L 19.390625 0 
L 9.8125 0 
z
" id="DejaVuSans-78"/>
      <path id="DejaVuSans-32"/>
      <path d="M 59.515625 10.40625 
L 59.515625 29.984375 
L 43.40625 29.984375 
L 43.40625 38.09375 
L 69.28125 38.09375 
L 69.28125 6.78125 
Q 63.578125 2.734375 56.6875 0.65625 
Q 49.8125 -1.421875 42 -1.421875 
Q 24.90625 -1.421875 15.25 8.5625 
Q 5.609375 18.5625 5.609375 36.375 
Q 5.609375 54.25 15.25 64.234375 
Q 24.90625 74.21875 42 74.21875 
Q 49.125 74.21875 55.546875 72.453125 
Q 61.96875 70.703125 67.390625 67.28125 
L 67.390625 56.78125 
Q 61.921875 61.421875 55.765625 63.765625 
Q 49.609375 66.109375 42.828125 66.109375 
Q 29.4375 66.109375 22.71875 58.640625 
Q 16.015625 51.171875 16.015625 36.375 
Q 16.015625 21.625 22.71875 14.15625 
Q 29.4375 6.6875 42.828125 6.6875 
Q 48.046875 6.6875 52.140625 7.59375 
Q 56.25 8.5 59.515625 10.40625 
z
" id="DejaVuSans-71"/>
      <path d="M 28.609375 0 
L 0.78125 72.90625 
L 11.078125 72.90625 
L 34.1875 11.53125 
L 57.328125 72.90625 
L 67.578125 72.90625 
L 39.796875 0 
z
" id="DejaVuSans-86"/>
      <path d="M 5.515625 54.6875 
L 48.1875 54.6875 
L 48.1875 46.484375 
L 14.40625 7.171875 
L 48.1875 7.171875 
L 48.1875 0 
L 4.296875 0 
L 4.296875 8.203125 
L 38.09375 47.515625 
L 5.515625 47.515625 
z
" id="DejaVuSans-122"/>
      <path d="M 4.890625 31.390625 
L 31.203125 31.390625 
L 31.203125 23.390625 
L 4.890625 23.390625 
z
" id="DejaVuSans-45"/>
      <path d="M 33.015625 40.375 
Q 26.375 40.375 22.484375 35.828125 
Q 18.609375 31.296875 18.609375 23.390625 
Q 18.609375 15.53125 22.484375 10.953125 
Q 26.375 6.390625 33.015625 6.390625 
Q 39.65625 6.390625 43.53125 10.953125 
Q 47.40625 15.53125 47.40625 23.390625 
Q 47.40625 31.296875 43.53125 35.828125 
Q 39.65625 40.375 33.015625 40.375 
z
M 52.59375 71.296875 
L 52.59375 62.3125 
Q 48.875 64.0625 45.09375 64.984375 
Q 41.3125 65.921875 37.59375 65.921875 
Q 27.828125 65.921875 22.671875 59.328125 
Q 17.53125 52.734375 16.796875 39.40625 
Q 19.671875 43.65625 24.015625 45.921875 
Q 28.375 48.1875 33.59375 48.1875 
Q 44.578125 48.1875 50.953125 41.515625 
Q 57.328125 34.859375 57.328125 23.390625 
Q 57.328125 12.15625 50.6875 5.359375 
Q 44.046875 -1.421875 33.015625 -1.421875 
Q 20.359375 -1.421875 13.671875 8.265625 
Q 6.984375 17.96875 6.984375 36.375 
Q 6.984375 53.65625 15.1875 63.9375 
Q 23.390625 74.21875 37.203125 74.21875 
Q 40.921875 74.21875 44.703125 73.484375 
Q 48.484375 72.75 52.59375 71.296875 
z
" id="DejaVuSans-54"/>
      <path d="M 37.796875 64.3125 
L 12.890625 25.390625 
L 37.796875 25.390625 
z
M 35.203125 72.90625 
L 47.609375 72.90625 
L 47.609375 25.390625 
L 58.015625 25.390625 
L 58.015625 17.1875 
L 47.609375 17.1875 
L 47.609375 0 
L 37.796875 0 
L 37.796875 17.1875 
L 4.890625 17.1875 
L 4.890625 26.703125 
z
" id="DejaVuSans-52"/>
     </defs>
     <use xlink:href="#DejaVuSans-78"/>
     <use x="74.804688" xlink:href="#DejaVuSans-111"/>
     <use x="135.986328" xlink:href="#DejaVuSans-100"/>
     <use x="199.462891" xlink:href="#DejaVuSans-101"/>
     <use x="260.986328" xlink:href="#DejaVuSans-32"/>
     <use x="292.773438" xlink:href="#DejaVuSans-71"/>
     <use x="370.263672" xlink:href="#DejaVuSans-114"/>
     <use x="411.376953" xlink:href="#DejaVuSans-97"/>
     <use x="472.65625" xlink:href="#DejaVuSans-112"/>
     <use x="536.132812" xlink:href="#DejaVuSans-104"/>
     <use x="599.511719" xlink:href="#DejaVuSans-32"/>
     <use x="631.298828" xlink:href="#DejaVuSans-86"/>
     <use x="697.457031" xlink:href="#DejaVuSans-105"/>
     <use x="725.240234" xlink:href="#DejaVuSans-115"/>
     <use x="777.339844" xlink:href="#DejaVuSans-117"/>
     <use x="840.71875" xlink:href="#DejaVuSans-97"/>
     <use x="901.998047" xlink:href="#DejaVuSans-108"/>
     <use x="929.78125" xlink:href="#DejaVuSans-105"/>
     <use x="957.564453" xlink:href="#DejaVuSans-122"/>
     <use x="1010.054688" xlink:href="#DejaVuSans-97"/>
     <use x="1071.333984" xlink:href="#DejaVuSans-116"/>
     <use x="1110.542969" xlink:href="#DejaVuSans-105"/>
     <use x="1138.326172" xlink:href="#DejaVuSans-111"/>
     <use x="1199.507812" xlink:href="#DejaVuSans-110"/>
     <use x="1262.886719" xlink:href="#DejaVuSans-32"/>
     <use x="1294.673828" xlink:href="#DejaVuSans-45"/>
     <use x="1330.757812" xlink:href="#DejaVuSans-32"/>
     <use x="1362.544922" xlink:href="#DejaVuSans-70"/>
     <use x="1412.814453" xlink:href="#DejaVuSans-114"/>
     <use x="1453.927734" xlink:href="#DejaVuSans-97"/>
     <use x="1515.207031" xlink:href="#DejaVuSans-109"/>
     <use x="1612.619141" xlink:href="#DejaVuSans-101"/>
     <use x="1674.142578" xlink:href="#DejaVuSans-32"/>
     <use x="1705.929688" xlink:href="#DejaVuSans-54"/>
     <use x="1769.552734" xlink:href="#DejaVuSans-52"/>
    </g>
   </g>
  </g>
 </g>
 <defs>
  <clipPath id="p4d331745de">
   <rect height="864" width="576" x="0" y="0"/>
  </clipPath>
 </defs>
</svg>
