<?xml version="1.0" encoding="utf-8" standalone="no"?>
<!DOCTYPE svg PUBLIC "-//W3C//DTD SVG 1.1//EN"
  "http://www.w3.org/Graphics/SVG/1.1/DTD/svg11.dtd">
<!-- Created with matplotlib (https://matplotlib.org/) -->
<svg height="864pt" version="1.1" viewBox="0 0 576 864" width="576pt" xmlns="http://www.w3.org/2000/svg" xmlns:xlink="http://www.w3.org/1999/xlink">
 <metadata>
  <rdf:RDF xmlns:cc="http://creativecommons.org/ns#" xmlns:dc="http://purl.org/dc/elements/1.1/" xmlns:rdf="http://www.w3.org/1999/02/22-rdf-syntax-ns#">
   <cc:Work>
    <dc:type rdf:resource="http://purl.org/dc/dcmitype/StillImage"/>
    <dc:date>2024-02-04T22:28:03.830580</dc:date>
    <dc:format>image/svg+xml</dc:format>
    <dc:creator>
     <cc:Agent>
      <dc:title>Matplotlib v3.3.2, https://matplotlib.org/</dc:title>
     </cc:Agent>
    </dc:creator>
   </cc:Work>
  </rdf:RDF>
 </metadata>
 <defs>
  <style type="text/css">*{stroke-linecap:butt;stroke-linejoin:round;}</style>
 </defs>
 <g id="figure_1">
  <g id="patch_1">
   <path d="M 0 864 
L 576 864 
L 576 0 
L 0 0 
z
" style="fill:#ffffff;"/>
  </g>
  <g id="axes_1">
   <g id="patch_2">
    <path clip-path="url(#pbce9f840cd)" d="M 280.325547 85.890835 
Q 270.022493 100.933442 260.351224 115.053636 
" style="fill:none;stroke:#000000;stroke-linecap:round;"/>
    <path clip-path="url(#pbce9f840cd)" d="M 264.26163 112.883676 
L 260.351224 115.053636 
L 260.961499 110.623335 
L 264.26163 112.883676 
z
" style="stroke:#000000;stroke-linecap:round;"/>
   </g>
   <g id="patch_3">
    <path clip-path="url(#pbce9f840cd)" d="M 252.597101 140.116899 
Q 252.720489 144.754658 252.814142 148.274778 
" style="fill:none;stroke:#000000;stroke-linecap:round;"/>
    <path clip-path="url(#pbce9f840cd)" d="M 254.707052 144.223002 
L 252.814142 148.274778 
L 250.708467 144.329385 
L 254.707052 144.223002 
z
" style="stroke:#000000;stroke-linecap:round;"/>
   </g>
   <g id="patch_4">
    <path clip-path="url(#pbce9f840cd)" d="M 259.721546 115.972975 
Q 270.024599 100.930367 279.695869 86.810174 
" style="fill:none;stroke:#000000;stroke-linecap:round;"/>
    <path clip-path="url(#pbce9f840cd)" d="M 275.785463 88.980134 
L 279.695869 86.810174 
L 279.085593 91.240475 
L 275.785463 88.980134 
z
" style="stroke:#000000;stroke-linecap:round;"/>
   </g>
   <g id="patch_5">
    <path clip-path="url(#pbce9f840cd)" d="M 253.149858 175.844927 
Q 253.005785 217.384541 252.86559 257.806128 
" style="fill:none;stroke:#000000;stroke-linecap:round;"/>
    <path clip-path="url(#pbce9f840cd)" d="M 254.879451 253.813088 
L 252.86559 257.806128 
L 250.879475 253.799215 
L 254.879451 253.813088 
z
" style="stroke:#000000;stroke-linecap:round;"/>
   </g>
   <g id="patch_6">
    <path clip-path="url(#pbce9f840cd)" d="M 240.012329 163.713667 
Q 196.310081 167.346897 153.722022 170.887498 
" style="fill:none;stroke:#000000;stroke-linecap:round;"/>
    <path clip-path="url(#pbce9f840cd)" d="M 157.873971 172.549221 
L 153.722022 170.887498 
L 157.54257 168.562973 
L 157.873971 172.549221 
z
" style="stroke:#000000;stroke-linecap:round;"/>
   </g>
   <g id="patch_7">
    <path clip-path="url(#pbce9f840cd)" d="M 266.36519 163.882488 
Q 318.718897 168.910704 369.95969 173.832032 
" style="fill:none;stroke:#000000;stroke-linecap:round;"/>
    <path clip-path="url(#pbce9f840cd)" d="M 366.169218 171.45878 
L 369.95969 173.832032 
L 365.786805 175.440458 
L 366.169218 171.45878 
z
" style="stroke:#000000;stroke-linecap:round;"/>
   </g>
   <g id="patch_8">
    <path clip-path="url(#pbce9f840cd)" d="M 252.843795 149.389355 
Q 252.720408 144.751596 252.626755 141.231476 
" style="fill:none;stroke:#000000;stroke-linecap:round;"/>
    <path clip-path="url(#pbce9f840cd)" d="M 250.733845 145.283252 
L 252.626755 141.231476 
L 254.73243 145.17687 
L 250.733845 145.283252 
z
" style="stroke:#000000;stroke-linecap:round;"/>
   </g>
   <g id="patch_9">
    <path clip-path="url(#pbce9f840cd)" d="M 252.450823 285.374247 
Q 250.760079 346.616192 249.100189 406.740528 
" style="fill:none;stroke:#000000;stroke-linecap:round;"/>
    <path clip-path="url(#pbce9f840cd)" d="M 251.209815 402.797246 
L 249.100189 406.740528 
L 247.211339 402.686857 
L 251.209815 402.797246 
z
" style="stroke:#000000;stroke-linecap:round;"/>
   </g>
   <g id="patch_10">
    <path clip-path="url(#pbce9f840cd)" d="M 252.861707 258.925719 
Q 253.00578 217.386105 253.145975 176.964518 
" style="fill:none;stroke:#000000;stroke-linecap:round;"/>
    <path clip-path="url(#pbce9f840cd)" d="M 251.132114 180.957558 
L 253.145975 176.964518 
L 255.13209 180.971431 
L 251.132114 180.957558 
z
" style="stroke:#000000;stroke-linecap:round;"/>
   </g>
   <g id="patch_11">
    <path clip-path="url(#pbce9f840cd)" d="M 235.479936 420.791285 
Q 215.504504 420.3524 196.646837 419.938073 
" style="fill:none;stroke:#000000;stroke-linecap:round;"/>
    <path clip-path="url(#pbce9f840cd)" d="M 200.60194 422.025455 
L 196.646837 419.938073 
L 200.689804 418.02642 
L 200.60194 422.025455 
z
" style="stroke:#000000;stroke-linecap:round;"/>
   </g>
   <g id="patch_12">
    <path clip-path="url(#pbce9f840cd)" d="M 261.907433 420.236903 
Q 273.136318 419.51831 283.249452 418.87112 
" style="fill:none;stroke:#000000;stroke-linecap:round;"/>
    <path clip-path="url(#pbce9f840cd)" d="M 279.129889 417.130661 
L 283.249452 418.87112 
L 279.385346 421.122495 
L 279.129889 417.130661 
z
" style="stroke:#000000;stroke-linecap:round;"/>
   </g>
   <g id="patch_13">
    <path clip-path="url(#pbce9f840cd)" d="M 249.069267 407.860588 
Q 250.760011 346.618643 252.419901 286.494307 
" style="fill:none;stroke:#000000;stroke-linecap:round;"/>
    <path clip-path="url(#pbce9f840cd)" d="M 250.310274 290.437589 
L 252.419901 286.494307 
L 254.308751 290.547978 
L 250.310274 290.437589 
z
" style="stroke:#000000;stroke-linecap:round;"/>
   </g>
   <g id="patch_14">
    <path clip-path="url(#pbce9f840cd)" d="M 132.484854 183.33483 
Q 102.766076 231.557484 73.633877 278.828337 
" style="fill:none;stroke:#000000;stroke-linecap:round;"/>
    <path clip-path="url(#pbce9f840cd)" d="M 77.435118 276.472373 
L 73.633877 278.828337 
L 74.02985 274.373766 
L 77.435118 276.472373 
z
" style="stroke:#000000;stroke-linecap:round;"/>
   </g>
   <g id="patch_15">
    <path clip-path="url(#pbce9f840cd)" d="M 152.606736 170.980218 
Q 196.308984 167.346988 238.897043 163.806387 
" style="fill:none;stroke:#000000;stroke-linecap:round;"/>
    <path clip-path="url(#pbce9f840cd)" d="M 234.745094 162.144664 
L 238.897043 163.806387 
L 235.076495 166.130912 
L 234.745094 162.144664 
z
" style="stroke:#000000;stroke-linecap:round;"/>
   </g>
   <g id="patch_16">
    <path clip-path="url(#pbce9f840cd)" d="M 64.458355 304.172304 
Q 58.044092 355.306764 51.768985 405.331883 
" style="fill:none;stroke:#000000;stroke-linecap:round;"/>
    <path clip-path="url(#pbce9f840cd)" d="M 54.251288 401.611914 
L 51.768985 405.331883 
L 50.282391 401.114059 
L 54.251288 401.611914 
z
" style="stroke:#000000;stroke-linecap:round;"/>
   </g>
   <g id="patch_17">
    <path clip-path="url(#pbce9f840cd)" d="M 73.043527 279.786259 
Q 102.762304 231.563605 131.894504 184.292752 
" style="fill:none;stroke:#000000;stroke-linecap:round;"/>
    <path clip-path="url(#pbce9f840cd)" d="M 128.093263 186.648717 
L 131.894504 184.292752 
L 131.498531 188.747324 
L 128.093263 186.648717 
z
" style="stroke:#000000;stroke-linecap:round;"/>
   </g>
   <g id="patch_18">
    <path clip-path="url(#pbce9f840cd)" d="M 54.30906 432.066855 
Q 55.174851 434.568973 55.675044 436.014522 
" style="fill:none;stroke:#000000;stroke-linecap:round;"/>
    <path clip-path="url(#pbce9f840cd)" d="M 56.257092 431.580425 
L 55.675044 436.014522 
L 52.476995 432.888426 
L 56.257092 431.580425 
z
" style="stroke:#000000;stroke-linecap:round;"/>
   </g>
   <g id="patch_19">
    <path clip-path="url(#pbce9f840cd)" d="M 51.630167 406.438539 
Q 58.044429 355.304079 64.319537 305.27896 
" style="fill:none;stroke:#000000;stroke-linecap:round;"/>
    <path clip-path="url(#pbce9f840cd)" d="M 61.837233 308.998929 
L 64.319537 305.27896 
L 65.80613 309.496784 
L 61.837233 308.998929 
z
" style="stroke:#000000;stroke-linecap:round;"/>
   </g>
   <g id="patch_20">
    <path clip-path="url(#pbce9f840cd)" d="M 60.21535 462.800584 
Q 60.138579 469.546848 60.074531 475.17515 
" style="fill:none;stroke:#000000;stroke-linecap:round;"/>
    <path clip-path="url(#pbce9f840cd)" d="M 62.119917 471.198166 
L 60.074531 475.17515 
L 58.120176 471.152651 
L 62.119917 471.198166 
z
" style="stroke:#000000;stroke-linecap:round;"/>
   </g>
   <g id="patch_21">
    <path clip-path="url(#pbce9f840cd)" d="M 73.592109 449.635319 
Q 75.091369 449.64261 75.472609 449.644464 
" style="fill:none;stroke:#000000;stroke-linecap:round;"/>
    <path clip-path="url(#pbce9f840cd)" d="M 71.482382 447.625036 
L 75.472609 449.644464 
L 71.46293 451.624988 
L 71.482382 447.625036 
z
" style="stroke:#000000;stroke-linecap:round;"/>
   </g>
   <g id="patch_22">
    <path clip-path="url(#pbce9f840cd)" d="M 56.040309 437.070132 
Q 55.174519 434.568014 54.674325 433.122465 
" style="fill:none;stroke:#000000;stroke-linecap:round;"/>
    <path clip-path="url(#pbce9f840cd)" d="M 54.092278 437.556562 
L 54.674325 433.122465 
L 57.872375 436.248561 
L 54.092278 437.556562 
z
" style="stroke:#000000;stroke-linecap:round;"/>
   </g>
   <g id="patch_23">
    <path clip-path="url(#pbce9f840cd)" d="M 390.24345 186.996666 
Q 409.854489 225.535134 428.958471 263.077161 
" style="fill:none;stroke:#000000;stroke-linecap:round;"/>
    <path clip-path="url(#pbce9f840cd)" d="M 428.926853 258.605137 
L 428.958471 263.077161 
L 425.361881 260.419242 
L 428.926853 258.605137 
z
" style="stroke:#000000;stroke-linecap:round;"/>
   </g>
   <g id="patch_24">
    <path clip-path="url(#pbce9f840cd)" d="M 371.072963 173.938954 
Q 318.719257 168.910738 267.478463 163.98941 
" style="fill:none;stroke:#000000;stroke-linecap:round;"/>
    <path clip-path="url(#pbce9f840cd)" d="M 271.268935 166.362662 
L 267.478463 163.98941 
L 271.651348 162.380984 
L 271.268935 166.362662 
z
" style="stroke:#000000;stroke-linecap:round;"/>
   </g>
   <g id="patch_25">
    <path clip-path="url(#pbce9f840cd)" d="M 440.761108 287.984158 
Q 457.584778 326.486584 473.960791 363.964509 
" style="fill:none;stroke:#000000;stroke-linecap:round;"/>
    <path clip-path="url(#pbce9f840cd)" d="M 474.191889 359.498348 
L 473.960791 363.964509 
L 470.526521 361.099933 
L 474.191889 359.498348 
z
" style="stroke:#000000;stroke-linecap:round;"/>
   </g>
   <g id="patch_26">
    <path clip-path="url(#pbce9f840cd)" d="M 429.463526 264.069665 
Q 409.852486 225.531197 390.748505 187.98917 
" style="fill:none;stroke:#000000;stroke-linecap:round;"/>
    <path clip-path="url(#pbce9f840cd)" d="M 390.780123 192.461194 
L 390.748505 187.98917 
L 394.345095 190.647089 
L 390.780123 192.461194 
z
" style="stroke:#000000;stroke-linecap:round;"/>
   </g>
   <g id="patch_27">
    <path clip-path="url(#pbce9f840cd)" d="M 486.127824 388.675176 
Q 488.858778 393.592254 491.046882 397.53193 
" style="fill:none;stroke:#000000;stroke-linecap:round;"/>
    <path clip-path="url(#pbce9f840cd)" d="M 490.853149 393.063992 
L 491.046882 397.53193 
L 487.356292 395.006153 
L 490.853149 393.063992 
z
" style="stroke:#000000;stroke-linecap:round;"/>
   </g>
   <g id="patch_28">
    <path clip-path="url(#pbce9f840cd)" d="M 474.408995 364.990264 
Q 457.585326 326.487838 441.209313 289.009914 
" style="fill:none;stroke:#000000;stroke-linecap:round;"/>
    <path clip-path="url(#pbce9f840cd)" d="M 440.978215 293.476075 
L 441.209313 289.009914 
L 444.643583 291.874489 
L 440.978215 293.476075 
z
" style="stroke:#000000;stroke-linecap:round;"/>
   </g>
   <g id="patch_29">
    <path clip-path="url(#pbce9f840cd)" d="M 496.638251 410.735488 
Q 500.007418 418.89471 502.949868 426.020533 
" style="fill:none;stroke:#000000;stroke-linecap:round;"/>
    <path clip-path="url(#pbce9f840cd)" d="M 503.271791 421.559999 
L 502.949868 426.020533 
L 499.574595 423.086674 
L 503.271791 421.559999 
z
" style="stroke:#000000;stroke-linecap:round;"/>
   </g>
   <g id="patch_30">
    <path clip-path="url(#pbce9f840cd)" d="M 504.772943 397.412648 
Q 508.80409 397.077306 511.721051 396.83465 
" style="fill:none;stroke:#000000;stroke-linecap:round;"/>
    <path clip-path="url(#pbce9f840cd)" d="M 507.569017 395.173141 
L 511.721051 396.83465 
L 507.900623 399.159372 
L 507.569017 395.173141 
z
" style="stroke:#000000;stroke-linecap:round;"/>
   </g>
   <g id="patch_31">
    <path clip-path="url(#pbce9f840cd)" d="M 485.167456 386.946037 
Q 482.436502 382.028959 480.248398 378.089283 
" style="fill:none;stroke:#000000;stroke-linecap:round;"/>
    <path clip-path="url(#pbce9f840cd)" d="M 480.44213 382.557221 
L 480.248398 378.089283 
L 483.938988 380.61506 
L 480.44213 382.557221 
z
" style="stroke:#000000;stroke-linecap:round;"/>
   </g>
   <g id="patch_32">
    <path clip-path="url(#pbce9f840cd)" d="M 180.347419 432.70394 
Q 170.656212 497.529192 161.130311 561.248698 
" style="fill:none;stroke:#000000;stroke-linecap:round;"/>
    <path clip-path="url(#pbce9f840cd)" d="M 163.699746 557.58837 
L 161.130311 561.248698 
L 159.74371 556.996952 
L 163.699746 557.58837 
z
" style="stroke:#000000;stroke-linecap:round;"/>
   </g>
   <g id="patch_33">
    <path clip-path="url(#pbce9f840cd)" d="M 195.527321 419.913476 
Q 215.502752 420.352362 234.360419 420.766688 
" style="fill:none;stroke:#000000;stroke-linecap:round;"/>
    <path clip-path="url(#pbce9f840cd)" d="M 230.405316 418.679307 
L 234.360419 420.766688 
L 230.317453 422.678342 
L 230.405316 418.679307 
z
" style="stroke:#000000;stroke-linecap:round;"/>
   </g>
   <g id="patch_34">
    <path clip-path="url(#pbce9f840cd)" d="M 160.274654 588.604921 
Q 167.471808 663.526242 174.562053 737.334653 
" style="fill:none;stroke:#000000;stroke-linecap:round;"/>
    <path clip-path="url(#pbce9f840cd)" d="M 176.170398 733.161737 
L 174.562053 737.334653 
L 172.188727 733.544228 
L 176.170398 733.161737 
z
" style="stroke:#000000;stroke-linecap:round;"/>
   </g>
   <g id="patch_35">
    <path clip-path="url(#pbce9f840cd)" d="M 160.965085 562.353904 
Q 170.656292 497.528652 180.182193 433.809146 
" style="fill:none;stroke:#000000;stroke-linecap:round;"/>
    <path clip-path="url(#pbce9f840cd)" d="M 177.612758 437.469474 
L 180.182193 433.809146 
L 181.568794 438.060891 
L 177.612758 437.469474 
z
" style="stroke:#000000;stroke-linecap:round;"/>
   </g>
   <g id="patch_36">
    <path clip-path="url(#pbce9f840cd)" d="M 177.170922 764.790082 
Q 177.690212 770.320696 178.104985 774.738173 
" style="fill:none;stroke:#000000;stroke-linecap:round;"/>
    <path clip-path="url(#pbce9f840cd)" d="M 179.722297 770.568724 
L 178.104985 774.738173 
L 175.739813 770.942654 
L 179.722297 770.568724 
z
" style="stroke:#000000;stroke-linecap:round;"/>
   </g>
   <g id="patch_37">
    <path clip-path="url(#pbce9f840cd)" d="M 174.668771 738.445571 
Q 167.471617 663.524249 160.381372 589.715838 
" style="fill:none;stroke:#000000;stroke-linecap:round;"/>
    <path clip-path="url(#pbce9f840cd)" d="M 158.773027 593.888754 
L 160.381372 589.715838 
L 162.754698 593.506264 
L 158.773027 593.888754 
z
" style="stroke:#000000;stroke-linecap:round;"/>
   </g>
   <g id="patch_38">
    <path clip-path="url(#pbce9f840cd)" d="M 178.209405 775.85028 
Q 177.690115 770.319666 177.275342 765.902189 
" style="fill:none;stroke:#000000;stroke-linecap:round;"/>
    <path clip-path="url(#pbce9f840cd)" d="M 175.65803 770.071638 
L 177.275342 765.902189 
L 179.640514 769.697708 
L 175.65803 770.071638 
z
" style="stroke:#000000;stroke-linecap:round;"/>
   </g>
   <g id="patch_39">
    <path clip-path="url(#pbce9f840cd)" d="M 299.376249 431.055456 
Q 307.633218 490.884384 315.737336 549.605775 
" style="fill:none;stroke:#000000;stroke-linecap:round;"/>
    <path clip-path="url(#pbce9f840cd)" d="M 317.171702 545.369905 
L 315.737336 549.605775 
L 313.20926 545.916761 
L 317.171702 545.369905 
z
" style="stroke:#000000;stroke-linecap:round;"/>
   </g>
   <g id="patch_40">
    <path clip-path="url(#pbce9f840cd)" d="M 284.365057 418.799727 
Q 273.136171 419.51832 263.023038 420.16551 
" style="fill:none;stroke:#000000;stroke-linecap:round;"/>
    <path clip-path="url(#pbce9f840cd)" d="M 267.142601 421.90597 
L 263.023038 420.16551 
L 266.887144 417.914135 
L 267.142601 421.90597 
z
" style="stroke:#000000;stroke-linecap:round;"/>
   </g>
   <g id="patch_41">
    <path clip-path="url(#pbce9f840cd)" d="M 316.624285 577.006279 
Q 313.460965 615.813938 310.388477 653.507258 
" style="fill:none;stroke:#000000;stroke-linecap:round;"/>
    <path clip-path="url(#pbce9f840cd)" d="M 312.706839 649.682967 
L 310.388477 653.507258 
L 308.720062 649.357994 
L 312.706839 649.682967 
z
" style="stroke:#000000;stroke-linecap:round;"/>
   </g>
   <g id="patch_42">
    <path clip-path="url(#pbce9f840cd)" d="M 315.89108 550.719785 
Q 307.634111 490.890857 299.529993 432.169466 
" style="fill:none;stroke:#000000;stroke-linecap:round;"/>
    <path clip-path="url(#pbce9f840cd)" d="M 298.095627 436.405336 
L 299.529993 432.169466 
L 302.058069 435.858481 
L 298.095627 436.405336 
z
" style="stroke:#000000;stroke-linecap:round;"/>
   </g>
   <g id="patch_43">
    <path clip-path="url(#pbce9f840cd)" d="M 299.539566 676.817665 
Q 287.195995 688.301232 275.670994 699.02326 
" style="fill:none;stroke:#000000;stroke-linecap:round;"/>
    <path clip-path="url(#pbce9f840cd)" d="M 279.961885 697.762999 
L 275.670994 699.02326 
L 277.23732 694.834391 
L 279.961885 697.762999 
z
" style="stroke:#000000;stroke-linecap:round;"/>
   </g>
   <g id="patch_44">
    <path clip-path="url(#pbce9f840cd)" d="M 310.297501 654.623361 
Q 313.460821 615.815703 316.533308 578.122383 
" style="fill:none;stroke:#000000;stroke-linecap:round;"/>
    <path clip-path="url(#pbce9f840cd)" d="M 314.214947 581.946673 
L 316.533308 578.122383 
L 318.201724 582.271646 
L 314.214947 581.946673 
z
" style="stroke:#000000;stroke-linecap:round;"/>
   </g>
   <g id="patch_45">
    <path clip-path="url(#pbce9f840cd)" d="M 274.849087 699.787903 
Q 287.192659 688.304336 298.71766 677.582308 
" style="fill:none;stroke:#000000;stroke-linecap:round;"/>
    <path clip-path="url(#pbce9f840cd)" d="M 294.426769 678.842569 
L 298.71766 677.582308 
L 297.151334 681.771177 
L 294.426769 678.842569 
z
" style="stroke:#000000;stroke-linecap:round;"/>
   </g>
   <g id="patch_46">
    <path clip-path="url(#pbce9f840cd)" d="M 60.06186 476.288616 
Q 60.13863 469.542353 60.202679 463.914051 
" style="fill:none;stroke:#000000;stroke-linecap:round;"/>
    <path clip-path="url(#pbce9f840cd)" d="M 58.157292 467.891034 
L 60.202679 463.914051 
L 62.157033 467.93655 
L 58.157292 467.891034 
z
" style="stroke:#000000;stroke-linecap:round;"/>
   </g>
   <g id="patch_47">
    <path clip-path="url(#pbce9f840cd)" d="M 76.590386 449.6499 
Q 75.091126 449.642609 74.709887 449.640755 
" style="fill:none;stroke:#000000;stroke-linecap:round;"/>
    <path clip-path="url(#pbce9f840cd)" d="M 78.700114 451.660183 
L 74.709887 449.640755 
L 78.719566 447.66023 
L 78.700114 451.660183 
z
" style="stroke:#000000;stroke-linecap:round;"/>
   </g>
   <g id="patch_48">
    <path clip-path="url(#pbce9f840cd)" d="M 503.377144 427.055281 
Q 500.007976 418.896059 497.065526 411.770236 
" style="fill:none;stroke:#000000;stroke-linecap:round;"/>
    <path clip-path="url(#pbce9f840cd)" d="M 496.743603 416.23077 
L 497.065526 411.770236 
L 500.4408 414.704095 
L 496.743603 416.23077 
z
" style="stroke:#000000;stroke-linecap:round;"/>
   </g>
   <g id="patch_49">
    <path clip-path="url(#pbce9f840cd)" d="M 512.833318 396.742123 
Q 508.802172 397.077465 505.88521 397.320121 
" style="fill:none;stroke:#000000;stroke-linecap:round;"/>
    <path clip-path="url(#pbce9f840cd)" d="M 510.037244 398.981631 
L 505.88521 397.320121 
L 509.705638 394.9954 
L 510.037244 398.981631 
z
" style="stroke:#000000;stroke-linecap:round;"/>
   </g>
   <g id="PathCollection_1">
    <defs>
     <path d="M 0 13.228757 
C 3.508307 13.228757 6.873396 11.834891 9.354143 9.354143 
C 11.834891 6.873396 13.228757 3.508307 13.228757 0 
C 13.228757 -3.508307 11.834891 -6.873396 9.354143 -9.354143 
C 6.873396 -11.834891 3.508307 -13.228757 0 -13.228757 
C -3.508307 -13.228757 -6.873396 -11.834891 -9.354143 -9.354143 
C -11.834891 -6.873396 -13.228757 -3.508307 -13.228757 0 
C -13.228757 3.508307 -11.834891 6.873396 -9.354143 9.354143 
C -6.873396 11.834891 -3.508307 13.228757 0 13.228757 
z
" id="m71b34b1d67" style="stroke:#87ceeb;"/>
    </defs>
    <g clip-path="url(#pbce9f840cd)">
     <use style="fill:#87ceeb;stroke:#87ceeb;" x="287.80193" xlink:href="#m71b34b1d67" y="74.975207"/>
     <use style="fill:#87ceeb;stroke:#87ceeb;" x="252.245162" xlink:href="#m71b34b1d67" y="126.888603"/>
     <use style="fill:#87ceeb;stroke:#87ceeb;" x="253.195735" xlink:href="#m71b34b1d67" y="162.617651"/>
     <use style="fill:#87ceeb;stroke:#87ceeb;" x="252.81583" xlink:href="#m71b34b1d67" y="272.152995"/>
     <use style="fill:#87ceeb;stroke:#87ceeb;" x="248.704259" xlink:href="#m71b34b1d67" y="421.08184"/>
     <use style="fill:#87ceeb;stroke:#87ceeb;" x="139.42333" xlink:href="#m71b34b1d67" y="172.076234"/>
     <use style="fill:#87ceeb;stroke:#87ceeb;" x="66.10505" xlink:href="#m71b34b1d67" y="291.044855"/>
     <use style="fill:#87ceeb;stroke:#87ceeb;" x="49.983471" xlink:href="#m71b34b1d67" y="419.565988"/>
     <use style="fill:#87ceeb;stroke:#87ceeb;" x="60.365898" xlink:href="#m71b34b1d67" y="449.570999"/>
     <use style="fill:#87ceeb;stroke:#87ceeb;" x="384.242419" xlink:href="#m71b34b1d67" y="175.203791"/>
     <use style="fill:#87ceeb;stroke:#87ceeb;" x="435.464557" xlink:href="#m71b34b1d67" y="275.86254"/>
     <use style="fill:#87ceeb;stroke:#87ceeb;" x="479.705547" xlink:href="#m71b34b1d67" y="377.111882"/>
     <use style="fill:#87ceeb;stroke:#87ceeb;" x="491.589732" xlink:href="#m71b34b1d67" y="398.509331"/>
     <use style="fill:#87ceeb;stroke:#87ceeb;" x="182.302997" xlink:href="#m71b34b1d67" y="419.622921"/>
     <use style="fill:#87ceeb;stroke:#87ceeb;" x="159.009507" xlink:href="#m71b34b1d67" y="575.434923"/>
     <use style="fill:#87ceeb;stroke:#87ceeb;" x="175.933918" xlink:href="#m71b34b1d67" y="751.615569"/>
     <use style="fill:#87ceeb;stroke:#87ceeb;" x="179.446409" xlink:href="#m71b34b1d67" y="789.024793"/>
     <use style="fill:#87ceeb;stroke:#87ceeb;" x="297.56823" xlink:href="#m71b34b1d67" y="417.95479"/>
     <use style="fill:#87ceeb;stroke:#87ceeb;" x="317.699099" xlink:href="#m71b34b1d67" y="563.820452"/>
     <use style="fill:#87ceeb;stroke:#87ceeb;" x="309.222687" xlink:href="#m71b34b1d67" y="667.809189"/>
     <use style="fill:#87ceeb;stroke:#87ceeb;" x="265.165967" xlink:href="#m71b34b1d67" y="708.796379"/>
     <use style="fill:#87ceeb;stroke:#87ceeb;" x="59.911312" xlink:href="#m71b34b1d67" y="489.518201"/>
     <use style="fill:#87ceeb;stroke:#87ceeb;" x="89.816598" xlink:href="#m71b34b1d67" y="449.714219"/>
     <use style="fill:#87ceeb;stroke:#87ceeb;" x="508.425662" xlink:href="#m71b34b1d67" y="439.281438"/>
     <use style="fill:#87ceeb;stroke:#87ceeb;" x="526.016529" xlink:href="#m71b34b1d67" y="395.64544"/>
    </g>
   </g>
   <g id="text_1">
    <g clip-path="url(#pbce9f840cd)">
     <!-- Head -->
     <g transform="translate(274.72693 77.734582)scale(0.1 -0.1)">
      <defs>
       <path d="M 9.8125 72.90625 
L 19.671875 72.90625 
L 19.671875 43.015625 
L 55.515625 43.015625 
L 55.515625 72.90625 
L 65.375 72.90625 
L 65.375 0 
L 55.515625 0 
L 55.515625 34.71875 
L 19.671875 34.71875 
L 19.671875 0 
L 9.8125 0 
z
" id="DejaVuSans-72"/>
       <path d="M 56.203125 29.59375 
L 56.203125 25.203125 
L 14.890625 25.203125 
Q 15.484375 15.921875 20.484375 11.0625 
Q 25.484375 6.203125 34.421875 6.203125 
Q 39.59375 6.203125 44.453125 7.46875 
Q 49.3125 8.734375 54.109375 11.28125 
L 54.109375 2.78125 
Q 49.265625 0.734375 44.1875 -0.34375 
Q 39.109375 -1.421875 33.890625 -1.421875 
Q 20.796875 -1.421875 13.15625 6.1875 
Q 5.515625 13.8125 5.515625 26.8125 
Q 5.515625 40.234375 12.765625 48.109375 
Q 20.015625 56 32.328125 56 
Q 43.359375 56 49.78125 48.890625 
Q 56.203125 41.796875 56.203125 29.59375 
z
M 47.21875 32.234375 
Q 47.125 39.59375 43.09375 43.984375 
Q 39.0625 48.390625 32.421875 48.390625 
Q 24.90625 48.390625 20.390625 44.140625 
Q 15.875 39.890625 15.1875 32.171875 
z
" id="DejaVuSans-101"/>
       <path d="M 34.28125 27.484375 
Q 23.390625 27.484375 19.1875 25 
Q 14.984375 22.515625 14.984375 16.5 
Q 14.984375 11.71875 18.140625 8.90625 
Q 21.296875 6.109375 26.703125 6.109375 
Q 34.1875 6.109375 38.703125 11.40625 
Q 43.21875 16.703125 43.21875 25.484375 
L 43.21875 27.484375 
z
M 52.203125 31.203125 
L 52.203125 0 
L 43.21875 0 
L 43.21875 8.296875 
Q 40.140625 3.328125 35.546875 0.953125 
Q 30.953125 -1.421875 24.3125 -1.421875 
Q 15.921875 -1.421875 10.953125 3.296875 
Q 6 8.015625 6 15.921875 
Q 6 25.140625 12.171875 29.828125 
Q 18.359375 34.515625 30.609375 34.515625 
L 43.21875 34.515625 
L 43.21875 35.40625 
Q 43.21875 41.609375 39.140625 45 
Q 35.0625 48.390625 27.6875 48.390625 
Q 23 48.390625 18.546875 47.265625 
Q 14.109375 46.140625 10.015625 43.890625 
L 10.015625 52.203125 
Q 14.9375 54.109375 19.578125 55.046875 
Q 24.21875 56 28.609375 56 
Q 40.484375 56 46.34375 49.84375 
Q 52.203125 43.703125 52.203125 31.203125 
z
" id="DejaVuSans-97"/>
       <path d="M 45.40625 46.390625 
L 45.40625 75.984375 
L 54.390625 75.984375 
L 54.390625 0 
L 45.40625 0 
L 45.40625 8.203125 
Q 42.578125 3.328125 38.25 0.953125 
Q 33.9375 -1.421875 27.875 -1.421875 
Q 17.96875 -1.421875 11.734375 6.484375 
Q 5.515625 14.40625 5.515625 27.296875 
Q 5.515625 40.1875 11.734375 48.09375 
Q 17.96875 56 27.875 56 
Q 33.9375 56 38.25 53.625 
Q 42.578125 51.265625 45.40625 46.390625 
z
M 14.796875 27.296875 
Q 14.796875 17.390625 18.875 11.75 
Q 22.953125 6.109375 30.078125 6.109375 
Q 37.203125 6.109375 41.296875 11.75 
Q 45.40625 17.390625 45.40625 27.296875 
Q 45.40625 37.203125 41.296875 42.84375 
Q 37.203125 48.484375 30.078125 48.484375 
Q 22.953125 48.484375 18.875 42.84375 
Q 14.796875 37.203125 14.796875 27.296875 
z
" id="DejaVuSans-100"/>
      </defs>
      <use xlink:href="#DejaVuSans-72"/>
      <use x="75.195312" xlink:href="#DejaVuSans-101"/>
      <use x="136.71875" xlink:href="#DejaVuSans-97"/>
      <use x="197.998047" xlink:href="#DejaVuSans-100"/>
     </g>
    </g>
   </g>
   <g id="text_2">
    <g clip-path="url(#pbce9f840cd)">
     <!-- c7 -->
     <g transform="translate(246.314693 129.647978)scale(0.1 -0.1)">
      <defs>
       <path d="M 48.78125 52.59375 
L 48.78125 44.1875 
Q 44.96875 46.296875 41.140625 47.34375 
Q 37.3125 48.390625 33.40625 48.390625 
Q 24.65625 48.390625 19.8125 42.84375 
Q 14.984375 37.3125 14.984375 27.296875 
Q 14.984375 17.28125 19.8125 11.734375 
Q 24.65625 6.203125 33.40625 6.203125 
Q 37.3125 6.203125 41.140625 7.25 
Q 44.96875 8.296875 48.78125 10.40625 
L 48.78125 2.09375 
Q 45.015625 0.34375 40.984375 -0.53125 
Q 36.96875 -1.421875 32.421875 -1.421875 
Q 20.0625 -1.421875 12.78125 6.34375 
Q 5.515625 14.109375 5.515625 27.296875 
Q 5.515625 40.671875 12.859375 48.328125 
Q 20.21875 56 33.015625 56 
Q 37.15625 56 41.109375 55.140625 
Q 45.0625 54.296875 48.78125 52.59375 
z
" id="DejaVuSans-99"/>
       <path d="M 8.203125 72.90625 
L 55.078125 72.90625 
L 55.078125 68.703125 
L 28.609375 0 
L 18.3125 0 
L 43.21875 64.59375 
L 8.203125 64.59375 
z
" id="DejaVuSans-55"/>
      </defs>
      <use xlink:href="#DejaVuSans-99"/>
      <use x="54.980469" xlink:href="#DejaVuSans-55"/>
     </g>
    </g>
   </g>
   <g id="text_3">
    <g clip-path="url(#pbce9f840cd)">
     <!-- SpineShoulder -->
     <g transform="translate(216.946516 165.377026)scale(0.1 -0.1)">
      <defs>
       <path d="M 53.515625 70.515625 
L 53.515625 60.890625 
Q 47.90625 63.578125 42.921875 64.890625 
Q 37.9375 66.21875 33.296875 66.21875 
Q 25.25 66.21875 20.875 63.09375 
Q 16.5 59.96875 16.5 54.203125 
Q 16.5 49.359375 19.40625 46.890625 
Q 22.3125 44.4375 30.421875 42.921875 
L 36.375 41.703125 
Q 47.40625 39.59375 52.65625 34.296875 
Q 57.90625 29 57.90625 20.125 
Q 57.90625 9.515625 50.796875 4.046875 
Q 43.703125 -1.421875 29.984375 -1.421875 
Q 24.8125 -1.421875 18.96875 -0.25 
Q 13.140625 0.921875 6.890625 3.21875 
L 6.890625 13.375 
Q 12.890625 10.015625 18.65625 8.296875 
Q 24.421875 6.59375 29.984375 6.59375 
Q 38.421875 6.59375 43.015625 9.90625 
Q 47.609375 13.234375 47.609375 19.390625 
Q 47.609375 24.75 44.3125 27.78125 
Q 41.015625 30.8125 33.5 32.328125 
L 27.484375 33.5 
Q 16.453125 35.6875 11.515625 40.375 
Q 6.59375 45.0625 6.59375 53.421875 
Q 6.59375 63.09375 13.40625 68.65625 
Q 20.21875 74.21875 32.171875 74.21875 
Q 37.3125 74.21875 42.625 73.28125 
Q 47.953125 72.359375 53.515625 70.515625 
z
" id="DejaVuSans-83"/>
       <path d="M 18.109375 8.203125 
L 18.109375 -20.796875 
L 9.078125 -20.796875 
L 9.078125 54.6875 
L 18.109375 54.6875 
L 18.109375 46.390625 
Q 20.953125 51.265625 25.265625 53.625 
Q 29.59375 56 35.59375 56 
Q 45.5625 56 51.78125 48.09375 
Q 58.015625 40.1875 58.015625 27.296875 
Q 58.015625 14.40625 51.78125 6.484375 
Q 45.5625 -1.421875 35.59375 -1.421875 
Q 29.59375 -1.421875 25.265625 0.953125 
Q 20.953125 3.328125 18.109375 8.203125 
z
M 48.6875 27.296875 
Q 48.6875 37.203125 44.609375 42.84375 
Q 40.53125 48.484375 33.40625 48.484375 
Q 26.265625 48.484375 22.1875 42.84375 
Q 18.109375 37.203125 18.109375 27.296875 
Q 18.109375 17.390625 22.1875 11.75 
Q 26.265625 6.109375 33.40625 6.109375 
Q 40.53125 6.109375 44.609375 11.75 
Q 48.6875 17.390625 48.6875 27.296875 
z
" id="DejaVuSans-112"/>
       <path d="M 9.421875 54.6875 
L 18.40625 54.6875 
L 18.40625 0 
L 9.421875 0 
z
M 9.421875 75.984375 
L 18.40625 75.984375 
L 18.40625 64.59375 
L 9.421875 64.59375 
z
" id="DejaVuSans-105"/>
       <path d="M 54.890625 33.015625 
L 54.890625 0 
L 45.90625 0 
L 45.90625 32.71875 
Q 45.90625 40.484375 42.875 44.328125 
Q 39.84375 48.1875 33.796875 48.1875 
Q 26.515625 48.1875 22.3125 43.546875 
Q 18.109375 38.921875 18.109375 30.90625 
L 18.109375 0 
L 9.078125 0 
L 9.078125 54.6875 
L 18.109375 54.6875 
L 18.109375 46.1875 
Q 21.34375 51.125 25.703125 53.5625 
Q 30.078125 56 35.796875 56 
Q 45.21875 56 50.046875 50.171875 
Q 54.890625 44.34375 54.890625 33.015625 
z
" id="DejaVuSans-110"/>
       <path d="M 54.890625 33.015625 
L 54.890625 0 
L 45.90625 0 
L 45.90625 32.71875 
Q 45.90625 40.484375 42.875 44.328125 
Q 39.84375 48.1875 33.796875 48.1875 
Q 26.515625 48.1875 22.3125 43.546875 
Q 18.109375 38.921875 18.109375 30.90625 
L 18.109375 0 
L 9.078125 0 
L 9.078125 75.984375 
L 18.109375 75.984375 
L 18.109375 46.1875 
Q 21.34375 51.125 25.703125 53.5625 
Q 30.078125 56 35.796875 56 
Q 45.21875 56 50.046875 50.171875 
Q 54.890625 44.34375 54.890625 33.015625 
z
" id="DejaVuSans-104"/>
       <path d="M 30.609375 48.390625 
Q 23.390625 48.390625 19.1875 42.75 
Q 14.984375 37.109375 14.984375 27.296875 
Q 14.984375 17.484375 19.15625 11.84375 
Q 23.34375 6.203125 30.609375 6.203125 
Q 37.796875 6.203125 41.984375 11.859375 
Q 46.1875 17.53125 46.1875 27.296875 
Q 46.1875 37.015625 41.984375 42.703125 
Q 37.796875 48.390625 30.609375 48.390625 
z
M 30.609375 56 
Q 42.328125 56 49.015625 48.375 
Q 55.71875 40.765625 55.71875 27.296875 
Q 55.71875 13.875 49.015625 6.21875 
Q 42.328125 -1.421875 30.609375 -1.421875 
Q 18.84375 -1.421875 12.171875 6.21875 
Q 5.515625 13.875 5.515625 27.296875 
Q 5.515625 40.765625 12.171875 48.375 
Q 18.84375 56 30.609375 56 
z
" id="DejaVuSans-111"/>
       <path d="M 8.5 21.578125 
L 8.5 54.6875 
L 17.484375 54.6875 
L 17.484375 21.921875 
Q 17.484375 14.15625 20.5 10.265625 
Q 23.53125 6.390625 29.59375 6.390625 
Q 36.859375 6.390625 41.078125 11.03125 
Q 45.3125 15.671875 45.3125 23.6875 
L 45.3125 54.6875 
L 54.296875 54.6875 
L 54.296875 0 
L 45.3125 0 
L 45.3125 8.40625 
Q 42.046875 3.421875 37.71875 1 
Q 33.40625 -1.421875 27.6875 -1.421875 
Q 18.265625 -1.421875 13.375 4.4375 
Q 8.5 10.296875 8.5 21.578125 
z
M 31.109375 56 
z
" id="DejaVuSans-117"/>
       <path d="M 9.421875 75.984375 
L 18.40625 75.984375 
L 18.40625 0 
L 9.421875 0 
z
" id="DejaVuSans-108"/>
       <path d="M 41.109375 46.296875 
Q 39.59375 47.171875 37.8125 47.578125 
Q 36.03125 48 33.890625 48 
Q 26.265625 48 22.1875 43.046875 
Q 18.109375 38.09375 18.109375 28.8125 
L 18.109375 0 
L 9.078125 0 
L 9.078125 54.6875 
L 18.109375 54.6875 
L 18.109375 46.1875 
Q 20.953125 51.171875 25.484375 53.578125 
Q 30.03125 56 36.53125 56 
Q 37.453125 56 38.578125 55.875 
Q 39.703125 55.765625 41.0625 55.515625 
z
" id="DejaVuSans-114"/>
      </defs>
      <use xlink:href="#DejaVuSans-83"/>
      <use x="63.476562" xlink:href="#DejaVuSans-112"/>
      <use x="126.953125" xlink:href="#DejaVuSans-105"/>
      <use x="154.736328" xlink:href="#DejaVuSans-110"/>
      <use x="218.115234" xlink:href="#DejaVuSans-101"/>
      <use x="279.638672" xlink:href="#DejaVuSans-83"/>
      <use x="343.115234" xlink:href="#DejaVuSans-104"/>
      <use x="406.494141" xlink:href="#DejaVuSans-111"/>
      <use x="467.675781" xlink:href="#DejaVuSans-117"/>
      <use x="531.054688" xlink:href="#DejaVuSans-108"/>
      <use x="558.837891" xlink:href="#DejaVuSans-100"/>
      <use x="622.314453" xlink:href="#DejaVuSans-101"/>
      <use x="683.837891" xlink:href="#DejaVuSans-114"/>
     </g>
    </g>
   </g>
   <g id="text_4">
    <g clip-path="url(#pbce9f840cd)">
     <!-- Spine -->
     <g transform="translate(238.833018 274.91237)scale(0.1 -0.1)">
      <use xlink:href="#DejaVuSans-83"/>
      <use x="63.476562" xlink:href="#DejaVuSans-112"/>
      <use x="126.953125" xlink:href="#DejaVuSans-105"/>
      <use x="154.736328" xlink:href="#DejaVuSans-110"/>
      <use x="218.115234" xlink:href="#DejaVuSans-101"/>
     </g>
    </g>
   </g>
   <g id="text_5">
    <g clip-path="url(#pbce9f840cd)">
     <!-- Sacr -->
     <g transform="translate(237.661291 423.841215)scale(0.1 -0.1)">
      <use xlink:href="#DejaVuSans-83"/>
      <use x="63.476562" xlink:href="#DejaVuSans-97"/>
      <use x="124.755859" xlink:href="#DejaVuSans-99"/>
      <use x="179.736328" xlink:href="#DejaVuSans-114"/>
     </g>
    </g>
   </g>
   <g id="text_6">
    <g clip-path="url(#pbce9f840cd)">
     <!-- LShoulder -->
     <g transform="translate(114.370987 174.835609)scale(0.1 -0.1)">
      <defs>
       <path d="M 9.8125 72.90625 
L 19.671875 72.90625 
L 19.671875 8.296875 
L 55.171875 8.296875 
L 55.171875 0 
L 9.8125 0 
z
" id="DejaVuSans-76"/>
      </defs>
      <use xlink:href="#DejaVuSans-76"/>
      <use x="55.712891" xlink:href="#DejaVuSans-83"/>
      <use x="119.189453" xlink:href="#DejaVuSans-104"/>
      <use x="182.568359" xlink:href="#DejaVuSans-111"/>
      <use x="243.75" xlink:href="#DejaVuSans-117"/>
      <use x="307.128906" xlink:href="#DejaVuSans-108"/>
      <use x="334.912109" xlink:href="#DejaVuSans-100"/>
      <use x="398.388672" xlink:href="#DejaVuSans-101"/>
      <use x="459.912109" xlink:href="#DejaVuSans-114"/>
     </g>
    </g>
   </g>
   <g id="text_7">
    <g clip-path="url(#pbce9f840cd)">
     <!-- LElbow -->
     <g transform="translate(48.448019 293.80423)scale(0.1 -0.1)">
      <defs>
       <path d="M 9.8125 72.90625 
L 55.90625 72.90625 
L 55.90625 64.59375 
L 19.671875 64.59375 
L 19.671875 43.015625 
L 54.390625 43.015625 
L 54.390625 34.71875 
L 19.671875 34.71875 
L 19.671875 8.296875 
L 56.78125 8.296875 
L 56.78125 0 
L 9.8125 0 
z
" id="DejaVuSans-69"/>
       <path d="M 48.6875 27.296875 
Q 48.6875 37.203125 44.609375 42.84375 
Q 40.53125 48.484375 33.40625 48.484375 
Q 26.265625 48.484375 22.1875 42.84375 
Q 18.109375 37.203125 18.109375 27.296875 
Q 18.109375 17.390625 22.1875 11.75 
Q 26.265625 6.109375 33.40625 6.109375 
Q 40.53125 6.109375 44.609375 11.75 
Q 48.6875 17.390625 48.6875 27.296875 
z
M 18.109375 46.390625 
Q 20.953125 51.265625 25.265625 53.625 
Q 29.59375 56 35.59375 56 
Q 45.5625 56 51.78125 48.09375 
Q 58.015625 40.1875 58.015625 27.296875 
Q 58.015625 14.40625 51.78125 6.484375 
Q 45.5625 -1.421875 35.59375 -1.421875 
Q 29.59375 -1.421875 25.265625 0.953125 
Q 20.953125 3.328125 18.109375 8.203125 
L 18.109375 0 
L 9.078125 0 
L 9.078125 75.984375 
L 18.109375 75.984375 
z
" id="DejaVuSans-98"/>
       <path d="M 4.203125 54.6875 
L 13.1875 54.6875 
L 24.421875 12.015625 
L 35.59375 54.6875 
L 46.1875 54.6875 
L 57.421875 12.015625 
L 68.609375 54.6875 
L 77.59375 54.6875 
L 63.28125 0 
L 52.6875 0 
L 40.921875 44.828125 
L 29.109375 0 
L 18.5 0 
z
" id="DejaVuSans-119"/>
      </defs>
      <use xlink:href="#DejaVuSans-76"/>
      <use x="55.712891" xlink:href="#DejaVuSans-69"/>
      <use x="118.896484" xlink:href="#DejaVuSans-108"/>
      <use x="146.679688" xlink:href="#DejaVuSans-98"/>
      <use x="210.15625" xlink:href="#DejaVuSans-111"/>
      <use x="271.337891" xlink:href="#DejaVuSans-119"/>
     </g>
    </g>
   </g>
   <g id="text_8">
    <g clip-path="url(#pbce9f840cd)">
     <!-- LWrist -->
     <g transform="translate(34.925659 422.325363)scale(0.1 -0.1)">
      <defs>
       <path d="M 3.328125 72.90625 
L 13.28125 72.90625 
L 28.609375 11.28125 
L 43.890625 72.90625 
L 54.984375 72.90625 
L 70.3125 11.28125 
L 85.59375 72.90625 
L 95.609375 72.90625 
L 77.296875 0 
L 64.890625 0 
L 49.515625 63.28125 
L 33.984375 0 
L 21.578125 0 
z
" id="DejaVuSans-87"/>
       <path d="M 44.28125 53.078125 
L 44.28125 44.578125 
Q 40.484375 46.53125 36.375 47.5 
Q 32.28125 48.484375 27.875 48.484375 
Q 21.1875 48.484375 17.84375 46.4375 
Q 14.5 44.390625 14.5 40.28125 
Q 14.5 37.15625 16.890625 35.375 
Q 19.28125 33.59375 26.515625 31.984375 
L 29.59375 31.296875 
Q 39.15625 29.25 43.1875 25.515625 
Q 47.21875 21.78125 47.21875 15.09375 
Q 47.21875 7.46875 41.1875 3.015625 
Q 35.15625 -1.421875 24.609375 -1.421875 
Q 20.21875 -1.421875 15.453125 -0.5625 
Q 10.6875 0.296875 5.421875 2 
L 5.421875 11.28125 
Q 10.40625 8.6875 15.234375 7.390625 
Q 20.0625 6.109375 24.8125 6.109375 
Q 31.15625 6.109375 34.5625 8.28125 
Q 37.984375 10.453125 37.984375 14.40625 
Q 37.984375 18.0625 35.515625 20.015625 
Q 33.0625 21.96875 24.703125 23.78125 
L 21.578125 24.515625 
Q 13.234375 26.265625 9.515625 29.90625 
Q 5.8125 33.546875 5.8125 39.890625 
Q 5.8125 47.609375 11.28125 51.796875 
Q 16.75 56 26.8125 56 
Q 31.78125 56 36.171875 55.265625 
Q 40.578125 54.546875 44.28125 53.078125 
z
" id="DejaVuSans-115"/>
       <path d="M 18.3125 70.21875 
L 18.3125 54.6875 
L 36.8125 54.6875 
L 36.8125 47.703125 
L 18.3125 47.703125 
L 18.3125 18.015625 
Q 18.3125 11.328125 20.140625 9.421875 
Q 21.96875 7.515625 27.59375 7.515625 
L 36.8125 7.515625 
L 36.8125 0 
L 27.59375 0 
Q 17.1875 0 13.234375 3.875 
Q 9.28125 7.765625 9.28125 18.015625 
L 9.28125 47.703125 
L 2.6875 47.703125 
L 2.6875 54.6875 
L 9.28125 54.6875 
L 9.28125 70.21875 
z
" id="DejaVuSans-116"/>
      </defs>
      <use xlink:href="#DejaVuSans-76"/>
      <use x="46.587891" xlink:href="#DejaVuSans-87"/>
      <use x="140.964844" xlink:href="#DejaVuSans-114"/>
      <use x="182.078125" xlink:href="#DejaVuSans-105"/>
      <use x="209.861328" xlink:href="#DejaVuSans-115"/>
      <use x="261.960938" xlink:href="#DejaVuSans-116"/>
     </g>
    </g>
   </g>
   <g id="text_9">
    <g clip-path="url(#pbce9f840cd)">
     <!-- LHand -->
     <g transform="translate(44.412773 452.330374)scale(0.1 -0.1)">
      <use xlink:href="#DejaVuSans-76"/>
      <use x="55.712891" xlink:href="#DejaVuSans-72"/>
      <use x="130.908203" xlink:href="#DejaVuSans-97"/>
      <use x="192.1875" xlink:href="#DejaVuSans-110"/>
      <use x="255.566406" xlink:href="#DejaVuSans-100"/>
     </g>
    </g>
   </g>
   <g id="text_10">
    <g clip-path="url(#pbce9f840cd)">
     <!-- RShoulder -->
     <g transform="translate(358.501794 177.963166)scale(0.1 -0.1)">
      <defs>
       <path d="M 44.390625 34.1875 
Q 47.5625 33.109375 50.5625 29.59375 
Q 53.5625 26.078125 56.59375 19.921875 
L 66.609375 0 
L 56 0 
L 46.6875 18.703125 
Q 43.0625 26.03125 39.671875 28.421875 
Q 36.28125 30.8125 30.421875 30.8125 
L 19.671875 30.8125 
L 19.671875 0 
L 9.8125 0 
L 9.8125 72.90625 
L 32.078125 72.90625 
Q 44.578125 72.90625 50.734375 67.671875 
Q 56.890625 62.453125 56.890625 51.90625 
Q 56.890625 45.015625 53.6875 40.46875 
Q 50.484375 35.9375 44.390625 34.1875 
z
M 19.671875 64.796875 
L 19.671875 38.921875 
L 32.078125 38.921875 
Q 39.203125 38.921875 42.84375 42.21875 
Q 46.484375 45.515625 46.484375 51.90625 
Q 46.484375 58.296875 42.84375 61.546875 
Q 39.203125 64.796875 32.078125 64.796875 
z
" id="DejaVuSans-82"/>
      </defs>
      <use xlink:href="#DejaVuSans-82"/>
      <use x="69.482422" xlink:href="#DejaVuSans-83"/>
      <use x="132.958984" xlink:href="#DejaVuSans-104"/>
      <use x="196.337891" xlink:href="#DejaVuSans-111"/>
      <use x="257.519531" xlink:href="#DejaVuSans-117"/>
      <use x="320.898438" xlink:href="#DejaVuSans-108"/>
      <use x="348.681641" xlink:href="#DejaVuSans-100"/>
      <use x="412.158203" xlink:href="#DejaVuSans-101"/>
      <use x="473.681641" xlink:href="#DejaVuSans-114"/>
     </g>
    </g>
   </g>
   <g id="text_11">
    <g clip-path="url(#pbce9f840cd)">
     <!-- RElbow -->
     <g transform="translate(417.119244 278.621915)scale(0.1 -0.1)">
      <use xlink:href="#DejaVuSans-82"/>
      <use x="69.482422" xlink:href="#DejaVuSans-69"/>
      <use x="132.666016" xlink:href="#DejaVuSans-108"/>
      <use x="160.449219" xlink:href="#DejaVuSans-98"/>
      <use x="223.925781" xlink:href="#DejaVuSans-111"/>
      <use x="285.107422" xlink:href="#DejaVuSans-119"/>
     </g>
    </g>
   </g>
   <g id="text_12">
    <g clip-path="url(#pbce9f840cd)">
     <!-- RWrist -->
     <g transform="translate(463.703203 379.871257)scale(0.1 -0.1)">
      <use xlink:href="#DejaVuSans-82"/>
      <use x="65.482422" xlink:href="#DejaVuSans-87"/>
      <use x="159.859375" xlink:href="#DejaVuSans-114"/>
      <use x="200.972656" xlink:href="#DejaVuSans-105"/>
      <use x="228.755859" xlink:href="#DejaVuSans-115"/>
      <use x="280.855469" xlink:href="#DejaVuSans-116"/>
     </g>
    </g>
   </g>
   <g id="text_13">
    <g clip-path="url(#pbce9f840cd)">
     <!-- RHand -->
     <g transform="translate(474.948326 401.268706)scale(0.1 -0.1)">
      <use xlink:href="#DejaVuSans-82"/>
      <use x="69.482422" xlink:href="#DejaVuSans-72"/>
      <use x="144.677734" xlink:href="#DejaVuSans-97"/>
      <use x="205.957031" xlink:href="#DejaVuSans-110"/>
      <use x="269.335938" xlink:href="#DejaVuSans-100"/>
     </g>
    </g>
   </g>
   <g id="text_14">
    <g clip-path="url(#pbce9f840cd)">
     <!-- LHip -->
     <g transform="translate(171.193622 422.382296)scale(0.1 -0.1)">
      <use xlink:href="#DejaVuSans-76"/>
      <use x="55.712891" xlink:href="#DejaVuSans-72"/>
      <use x="130.908203" xlink:href="#DejaVuSans-105"/>
      <use x="158.691406" xlink:href="#DejaVuSans-112"/>
     </g>
    </g>
   </g>
   <g id="text_15">
    <g clip-path="url(#pbce9f840cd)">
     <!-- LKnee -->
     <g transform="translate(143.622788 578.194298)scale(0.1 -0.1)">
      <defs>
       <path d="M 9.8125 72.90625 
L 19.671875 72.90625 
L 19.671875 42.09375 
L 52.390625 72.90625 
L 65.09375 72.90625 
L 28.90625 38.921875 
L 67.671875 0 
L 54.6875 0 
L 19.671875 35.109375 
L 19.671875 0 
L 9.8125 0 
z
" id="DejaVuSans-75"/>
      </defs>
      <use xlink:href="#DejaVuSans-76"/>
      <use x="55.712891" xlink:href="#DejaVuSans-75"/>
      <use x="121.289062" xlink:href="#DejaVuSans-110"/>
      <use x="184.667969" xlink:href="#DejaVuSans-101"/>
      <use x="246.191406" xlink:href="#DejaVuSans-101"/>
     </g>
    </g>
   </g>
   <g id="text_16">
    <g clip-path="url(#pbce9f840cd)">
     <!-- LAnkle -->
     <g transform="translate(159.085481 754.374944)scale(0.1 -0.1)">
      <defs>
       <path d="M 34.1875 63.1875 
L 20.796875 26.90625 
L 47.609375 26.90625 
z
M 28.609375 72.90625 
L 39.796875 72.90625 
L 67.578125 0 
L 57.328125 0 
L 50.6875 18.703125 
L 17.828125 18.703125 
L 11.1875 0 
L 0.78125 0 
z
" id="DejaVuSans-65"/>
       <path d="M 9.078125 75.984375 
L 18.109375 75.984375 
L 18.109375 31.109375 
L 44.921875 54.6875 
L 56.390625 54.6875 
L 27.390625 29.109375 
L 57.625 0 
L 45.90625 0 
L 18.109375 26.703125 
L 18.109375 0 
L 9.078125 0 
z
" id="DejaVuSans-107"/>
      </defs>
      <use xlink:href="#DejaVuSans-76"/>
      <use x="57.962891" xlink:href="#DejaVuSans-65"/>
      <use x="126.371094" xlink:href="#DejaVuSans-110"/>
      <use x="189.75" xlink:href="#DejaVuSans-107"/>
      <use x="247.660156" xlink:href="#DejaVuSans-108"/>
      <use x="275.443359" xlink:href="#DejaVuSans-101"/>
     </g>
    </g>
   </g>
   <g id="text_17">
    <g clip-path="url(#pbce9f840cd)">
     <!-- LFoot -->
     <g transform="translate(165.887034 791.784168)scale(0.1 -0.1)">
      <defs>
       <path d="M 9.8125 72.90625 
L 51.703125 72.90625 
L 51.703125 64.59375 
L 19.671875 64.59375 
L 19.671875 43.109375 
L 48.578125 43.109375 
L 48.578125 34.8125 
L 19.671875 34.8125 
L 19.671875 0 
L 9.8125 0 
z
" id="DejaVuSans-70"/>
      </defs>
      <use xlink:href="#DejaVuSans-76"/>
      <use x="55.712891" xlink:href="#DejaVuSans-70"/>
      <use x="109.607422" xlink:href="#DejaVuSans-111"/>
      <use x="170.789062" xlink:href="#DejaVuSans-111"/>
      <use x="231.970703" xlink:href="#DejaVuSans-116"/>
     </g>
    </g>
   </g>
   <g id="text_18">
    <g clip-path="url(#pbce9f840cd)">
     <!-- RHip -->
     <g transform="translate(285.770574 420.714165)scale(0.1 -0.1)">
      <use xlink:href="#DejaVuSans-82"/>
      <use x="69.482422" xlink:href="#DejaVuSans-72"/>
      <use x="144.677734" xlink:href="#DejaVuSans-105"/>
      <use x="172.460938" xlink:href="#DejaVuSans-112"/>
     </g>
    </g>
   </g>
   <g id="text_19">
    <g clip-path="url(#pbce9f840cd)">
     <!-- RKnee -->
     <g transform="translate(301.624099 566.579827)scale(0.1 -0.1)">
      <use xlink:href="#DejaVuSans-82"/>
      <use x="69.482422" xlink:href="#DejaVuSans-75"/>
      <use x="135.058594" xlink:href="#DejaVuSans-110"/>
      <use x="198.4375" xlink:href="#DejaVuSans-101"/>
      <use x="259.960938" xlink:href="#DejaVuSans-101"/>
     </g>
    </g>
   </g>
   <g id="text_20">
    <g clip-path="url(#pbce9f840cd)">
     <!-- RAnkle -->
     <g transform="translate(291.998469 670.568564)scale(0.1 -0.1)">
      <use xlink:href="#DejaVuSans-82"/>
      <use x="65.482422" xlink:href="#DejaVuSans-65"/>
      <use x="133.890625" xlink:href="#DejaVuSans-110"/>
      <use x="197.269531" xlink:href="#DejaVuSans-107"/>
      <use x="255.179688" xlink:href="#DejaVuSans-108"/>
      <use x="282.962891" xlink:href="#DejaVuSans-101"/>
     </g>
    </g>
   </g>
   <g id="text_21">
    <g clip-path="url(#pbce9f840cd)">
     <!-- RFoot -->
     <g transform="translate(250.91831 711.555754)scale(0.1 -0.1)">
      <use xlink:href="#DejaVuSans-82"/>
      <use x="69.482422" xlink:href="#DejaVuSans-70"/>
      <use x="123.376953" xlink:href="#DejaVuSans-111"/>
      <use x="184.558594" xlink:href="#DejaVuSans-111"/>
      <use x="245.740234" xlink:href="#DejaVuSans-116"/>
     </g>
    </g>
   </g>
   <g id="text_22">
    <g clip-path="url(#pbce9f840cd)">
     <!-- LHandTip -->
     <g transform="translate(36.497249 492.277576)scale(0.1 -0.1)">
      <defs>
       <path d="M -0.296875 72.90625 
L 61.375 72.90625 
L 61.375 64.59375 
L 35.5 64.59375 
L 35.5 0 
L 25.59375 0 
L 25.59375 64.59375 
L -0.296875 64.59375 
z
" id="DejaVuSans-84"/>
      </defs>
      <use xlink:href="#DejaVuSans-76"/>
      <use x="55.712891" xlink:href="#DejaVuSans-72"/>
      <use x="130.908203" xlink:href="#DejaVuSans-97"/>
      <use x="192.1875" xlink:href="#DejaVuSans-110"/>
      <use x="255.566406" xlink:href="#DejaVuSans-100"/>
      <use x="319.042969" xlink:href="#DejaVuSans-84"/>
      <use x="377.001953" xlink:href="#DejaVuSans-105"/>
      <use x="404.785156" xlink:href="#DejaVuSans-112"/>
     </g>
    </g>
   </g>
   <g id="text_23">
    <g clip-path="url(#pbce9f840cd)">
     <!-- LThumb -->
     <g transform="translate(70.282223 452.473594)scale(0.1 -0.1)">
      <defs>
       <path d="M 52 44.1875 
Q 55.375 50.25 60.0625 53.125 
Q 64.75 56 71.09375 56 
Q 79.640625 56 84.28125 50.015625 
Q 88.921875 44.046875 88.921875 33.015625 
L 88.921875 0 
L 79.890625 0 
L 79.890625 32.71875 
Q 79.890625 40.578125 77.09375 44.375 
Q 74.3125 48.1875 68.609375 48.1875 
Q 61.625 48.1875 57.5625 43.546875 
Q 53.515625 38.921875 53.515625 30.90625 
L 53.515625 0 
L 44.484375 0 
L 44.484375 32.71875 
Q 44.484375 40.625 41.703125 44.40625 
Q 38.921875 48.1875 33.109375 48.1875 
Q 26.21875 48.1875 22.15625 43.53125 
Q 18.109375 38.875 18.109375 30.90625 
L 18.109375 0 
L 9.078125 0 
L 9.078125 54.6875 
L 18.109375 54.6875 
L 18.109375 46.1875 
Q 21.1875 51.21875 25.484375 53.609375 
Q 29.78125 56 35.6875 56 
Q 41.65625 56 45.828125 52.96875 
Q 50 49.953125 52 44.1875 
z
" id="DejaVuSans-109"/>
      </defs>
      <use xlink:href="#DejaVuSans-76"/>
      <use x="41.962891" xlink:href="#DejaVuSans-84"/>
      <use x="103.046875" xlink:href="#DejaVuSans-104"/>
      <use x="166.425781" xlink:href="#DejaVuSans-117"/>
      <use x="229.804688" xlink:href="#DejaVuSans-109"/>
      <use x="327.216797" xlink:href="#DejaVuSans-98"/>
     </g>
    </g>
   </g>
   <g id="text_24">
    <g clip-path="url(#pbce9f840cd)">
     <!-- RHandTip -->
     <g transform="translate(484.323318 442.040813)scale(0.1 -0.1)">
      <use xlink:href="#DejaVuSans-82"/>
      <use x="69.482422" xlink:href="#DejaVuSans-72"/>
      <use x="144.677734" xlink:href="#DejaVuSans-97"/>
      <use x="205.957031" xlink:href="#DejaVuSans-110"/>
      <use x="269.335938" xlink:href="#DejaVuSans-100"/>
      <use x="332.8125" xlink:href="#DejaVuSans-84"/>
      <use x="390.771484" xlink:href="#DejaVuSans-105"/>
      <use x="418.554688" xlink:href="#DejaVuSans-112"/>
     </g>
    </g>
   </g>
   <g id="text_25">
    <g clip-path="url(#pbce9f840cd)">
     <!-- RThumb -->
     <g transform="translate(505.468873 398.404815)scale(0.1 -0.1)">
      <use xlink:href="#DejaVuSans-82"/>
      <use x="62.232422" xlink:href="#DejaVuSans-84"/>
      <use x="123.316406" xlink:href="#DejaVuSans-104"/>
      <use x="186.695312" xlink:href="#DejaVuSans-117"/>
      <use x="250.074219" xlink:href="#DejaVuSans-109"/>
      <use x="347.486328" xlink:href="#DejaVuSans-98"/>
     </g>
    </g>
   </g>
   <g id="text_26">
    <!-- Node Graph Visualization - Frame 120 -->
    <g transform="translate(174.194063 -6)scale(0.12 -0.12)">
     <defs>
      <path d="M 9.8125 72.90625 
L 23.09375 72.90625 
L 55.421875 11.921875 
L 55.421875 72.90625 
L 64.984375 72.90625 
L 64.984375 0 
L 51.703125 0 
L 19.390625 60.984375 
L 19.390625 0 
L 9.8125 0 
z
" id="DejaVuSans-78"/>
      <path id="DejaVuSans-32"/>
      <path d="M 59.515625 10.40625 
L 59.515625 29.984375 
L 43.40625 29.984375 
L 43.40625 38.09375 
L 69.28125 38.09375 
L 69.28125 6.78125 
Q 63.578125 2.734375 56.6875 0.65625 
Q 49.8125 -1.421875 42 -1.421875 
Q 24.90625 -1.421875 15.25 8.5625 
Q 5.609375 18.5625 5.609375 36.375 
Q 5.609375 54.25 15.25 64.234375 
Q 24.90625 74.21875 42 74.21875 
Q 49.125 74.21875 55.546875 72.453125 
Q 61.96875 70.703125 67.390625 67.28125 
L 67.390625 56.78125 
Q 61.921875 61.421875 55.765625 63.765625 
Q 49.609375 66.109375 42.828125 66.109375 
Q 29.4375 66.109375 22.71875 58.640625 
Q 16.015625 51.171875 16.015625 36.375 
Q 16.015625 21.625 22.71875 14.15625 
Q 29.4375 6.6875 42.828125 6.6875 
Q 48.046875 6.6875 52.140625 7.59375 
Q 56.25 8.5 59.515625 10.40625 
z
" id="DejaVuSans-71"/>
      <path d="M 28.609375 0 
L 0.78125 72.90625 
L 11.078125 72.90625 
L 34.1875 11.53125 
L 57.328125 72.90625 
L 67.578125 72.90625 
L 39.796875 0 
z
" id="DejaVuSans-86"/>
      <path d="M 5.515625 54.6875 
L 48.1875 54.6875 
L 48.1875 46.484375 
L 14.40625 7.171875 
L 48.1875 7.171875 
L 48.1875 0 
L 4.296875 0 
L 4.296875 8.203125 
L 38.09375 47.515625 
L 5.515625 47.515625 
z
" id="DejaVuSans-122"/>
      <path d="M 4.890625 31.390625 
L 31.203125 31.390625 
L 31.203125 23.390625 
L 4.890625 23.390625 
z
" id="DejaVuSans-45"/>
      <path d="M 12.40625 8.296875 
L 28.515625 8.296875 
L 28.515625 63.921875 
L 10.984375 60.40625 
L 10.984375 69.390625 
L 28.421875 72.90625 
L 38.28125 72.90625 
L 38.28125 8.296875 
L 54.390625 8.296875 
L 54.390625 0 
L 12.40625 0 
z
" id="DejaVuSans-49"/>
      <path d="M 19.1875 8.296875 
L 53.609375 8.296875 
L 53.609375 0 
L 7.328125 0 
L 7.328125 8.296875 
Q 12.9375 14.109375 22.625 23.890625 
Q 32.328125 33.6875 34.8125 36.53125 
Q 39.546875 41.84375 41.421875 45.53125 
Q 43.3125 49.21875 43.3125 52.78125 
Q 43.3125 58.59375 39.234375 62.25 
Q 35.15625 65.921875 28.609375 65.921875 
Q 23.96875 65.921875 18.8125 64.3125 
Q 13.671875 62.703125 7.8125 59.421875 
L 7.8125 69.390625 
Q 13.765625 71.78125 18.9375 73 
Q 24.125 74.21875 28.421875 74.21875 
Q 39.75 74.21875 46.484375 68.546875 
Q 53.21875 62.890625 53.21875 53.421875 
Q 53.21875 48.921875 51.53125 44.890625 
Q 49.859375 40.875 45.40625 35.40625 
Q 44.1875 33.984375 37.640625 27.21875 
Q 31.109375 20.453125 19.1875 8.296875 
z
" id="DejaVuSans-50"/>
      <path d="M 31.78125 66.40625 
Q 24.171875 66.40625 20.328125 58.90625 
Q 16.5 51.421875 16.5 36.375 
Q 16.5 21.390625 20.328125 13.890625 
Q 24.171875 6.390625 31.78125 6.390625 
Q 39.453125 6.390625 43.28125 13.890625 
Q 47.125 21.390625 47.125 36.375 
Q 47.125 51.421875 43.28125 58.90625 
Q 39.453125 66.40625 31.78125 66.40625 
z
M 31.78125 74.21875 
Q 44.046875 74.21875 50.515625 64.515625 
Q 56.984375 54.828125 56.984375 36.375 
Q 56.984375 17.96875 50.515625 8.265625 
Q 44.046875 -1.421875 31.78125 -1.421875 
Q 19.53125 -1.421875 13.0625 8.265625 
Q 6.59375 17.96875 6.59375 36.375 
Q 6.59375 54.828125 13.0625 64.515625 
Q 19.53125 74.21875 31.78125 74.21875 
z
" id="DejaVuSans-48"/>
     </defs>
     <use xlink:href="#DejaVuSans-78"/>
     <use x="74.804688" xlink:href="#DejaVuSans-111"/>
     <use x="135.986328" xlink:href="#DejaVuSans-100"/>
     <use x="199.462891" xlink:href="#DejaVuSans-101"/>
     <use x="260.986328" xlink:href="#DejaVuSans-32"/>
     <use x="292.773438" xlink:href="#DejaVuSans-71"/>
     <use x="370.263672" xlink:href="#DejaVuSans-114"/>
     <use x="411.376953" xlink:href="#DejaVuSans-97"/>
     <use x="472.65625" xlink:href="#DejaVuSans-112"/>
     <use x="536.132812" xlink:href="#DejaVuSans-104"/>
     <use x="599.511719" xlink:href="#DejaVuSans-32"/>
     <use x="631.298828" xlink:href="#DejaVuSans-86"/>
     <use x="697.457031" xlink:href="#DejaVuSans-105"/>
     <use x="725.240234" xlink:href="#DejaVuSans-115"/>
     <use x="777.339844" xlink:href="#DejaVuSans-117"/>
     <use x="840.71875" xlink:href="#DejaVuSans-97"/>
     <use x="901.998047" xlink:href="#DejaVuSans-108"/>
     <use x="929.78125" xlink:href="#DejaVuSans-105"/>
     <use x="957.564453" xlink:href="#DejaVuSans-122"/>
     <use x="1010.054688" xlink:href="#DejaVuSans-97"/>
     <use x="1071.333984" xlink:href="#DejaVuSans-116"/>
     <use x="1110.542969" xlink:href="#DejaVuSans-105"/>
     <use x="1138.326172" xlink:href="#DejaVuSans-111"/>
     <use x="1199.507812" xlink:href="#DejaVuSans-110"/>
     <use x="1262.886719" xlink:href="#DejaVuSans-32"/>
     <use x="1294.673828" xlink:href="#DejaVuSans-45"/>
     <use x="1330.757812" xlink:href="#DejaVuSans-32"/>
     <use x="1362.544922" xlink:href="#DejaVuSans-70"/>
     <use x="1412.814453" xlink:href="#DejaVuSans-114"/>
     <use x="1453.927734" xlink:href="#DejaVuSans-97"/>
     <use x="1515.207031" xlink:href="#DejaVuSans-109"/>
     <use x="1612.619141" xlink:href="#DejaVuSans-101"/>
     <use x="1674.142578" xlink:href="#DejaVuSans-32"/>
     <use x="1705.929688" xlink:href="#DejaVuSans-49"/>
     <use x="1769.552734" xlink:href="#DejaVuSans-50"/>
     <use x="1833.175781" xlink:href="#DejaVuSans-48"/>
    </g>
   </g>
  </g>
 </g>
 <defs>
  <clipPath id="pbce9f840cd">
   <rect height="864" width="576" x="0" y="0"/>
  </clipPath>
 </defs>
</svg>
