<?xml version="1.0" encoding="utf-8" standalone="no"?>
<!DOCTYPE svg PUBLIC "-//W3C//DTD SVG 1.1//EN"
  "http://www.w3.org/Graphics/SVG/1.1/DTD/svg11.dtd">
<!-- Created with matplotlib (https://matplotlib.org/) -->
<svg height="864pt" version="1.1" viewBox="0 0 576 864" width="576pt" xmlns="http://www.w3.org/2000/svg" xmlns:xlink="http://www.w3.org/1999/xlink">
 <metadata>
  <rdf:RDF xmlns:cc="http://creativecommons.org/ns#" xmlns:dc="http://purl.org/dc/elements/1.1/" xmlns:rdf="http://www.w3.org/1999/02/22-rdf-syntax-ns#">
   <cc:Work>
    <dc:type rdf:resource="http://purl.org/dc/dcmitype/StillImage"/>
    <dc:date>2024-02-04T22:28:08.556965</dc:date>
    <dc:format>image/svg+xml</dc:format>
    <dc:creator>
     <cc:Agent>
      <dc:title>Matplotlib v3.3.2, https://matplotlib.org/</dc:title>
     </cc:Agent>
    </dc:creator>
   </cc:Work>
  </rdf:RDF>
 </metadata>
 <defs>
  <style type="text/css">*{stroke-linecap:butt;stroke-linejoin:round;}</style>
 </defs>
 <g id="figure_1">
  <g id="patch_1">
   <path d="M 0 864 
L 576 864 
L 576 0 
L 0 0 
z
" style="fill:#ffffff;"/>
  </g>
  <g id="axes_1">
   <g id="patch_2">
    <path clip-path="url(#p02f5d508b2)" d="M 307.270203 87.393919 
Q 303.813822 96.811512 300.742651 105.179526 
" style="fill:none;stroke:#000000;stroke-linecap:round;"/>
    <path clip-path="url(#p02f5d508b2)" d="M 303.998358 102.113524 
L 300.742651 105.179526 
L 300.243274 100.735359 
L 303.998358 102.113524 
z
" style="stroke:#000000;stroke-linecap:round;"/>
   </g>
   <g id="patch_3">
    <path clip-path="url(#p02f5d508b2)" d="M 297.078969 131.811249 
Q 297.226319 133.327649 297.265538 133.731256 
" style="fill:none;stroke:#000000;stroke-linecap:round;"/>
    <path clip-path="url(#p02f5d508b2)" d="M 298.869299 129.556576 
L 297.265538 133.731256 
L 294.888051 129.943439 
L 298.869299 129.556576 
z
" style="stroke:#000000;stroke-linecap:round;"/>
   </g>
   <g id="patch_4">
    <path clip-path="url(#p02f5d508b2)" d="M 300.357639 106.228566 
Q 303.81402 96.810974 306.885191 88.442959 
" style="fill:none;stroke:#000000;stroke-linecap:round;"/>
    <path clip-path="url(#p02f5d508b2)" d="M 303.629483 91.508961 
L 306.885191 88.442959 
L 307.384568 92.887126 
L 303.629483 91.508961 
z
" style="stroke:#000000;stroke-linecap:round;"/>
   </g>
   <g id="patch_5">
    <path clip-path="url(#p02f5d508b2)" d="M 299.644415 161.198309 
Q 302.03988 193.062817 304.351532 223.812437 
" style="fill:none;stroke:#000000;stroke-linecap:round;"/>
    <path clip-path="url(#p02f5d508b2)" d="M 306.046044 219.673763 
L 304.351532 223.812437 
L 302.057299 219.973623 
L 306.046044 219.673763 
z
" style="stroke:#000000;stroke-linecap:round;"/>
   </g>
   <g id="patch_6">
    <path clip-path="url(#p02f5d508b2)" d="M 285.426639 148.377628 
Q 217.645125 150.27565 150.981206 152.142377 
" style="fill:none;stroke:#000000;stroke-linecap:round;"/>
    <path clip-path="url(#p02f5d508b2)" d="M 155.035621 154.029629 
L 150.981206 152.142377 
L 154.923657 150.031196 
L 155.035621 154.029629 
z
" style="stroke:#000000;stroke-linecap:round;"/>
   </g>
   <g id="patch_7">
    <path clip-path="url(#p02f5d508b2)" d="M 311.875637 148.460794 
Q 387.026471 151.038355 461.059928 153.577592 
" style="fill:none;stroke:#000000;stroke-linecap:round;"/>
    <path clip-path="url(#p02f5d508b2)" d="M 457.130835 151.441654 
L 461.059928 153.577592 
L 456.993722 155.439303 
L 457.130835 151.441654 
z
" style="stroke:#000000;stroke-linecap:round;"/>
   </g>
   <g id="patch_8">
    <path clip-path="url(#p02f5d508b2)" d="M 297.373597 134.843299 
Q 297.226246 133.326899 297.187027 132.923292 
" style="fill:none;stroke:#000000;stroke-linecap:round;"/>
    <path clip-path="url(#p02f5d508b2)" d="M 295.583267 137.097972 
L 297.187027 132.923292 
L 299.564515 136.711108 
L 295.583267 137.097972 
z
" style="stroke:#000000;stroke-linecap:round;"/>
   </g>
   <g id="patch_9">
    <path clip-path="url(#p02f5d508b2)" d="M 306.220288 251.318097 
Q 309.11308 299.448592 311.938795 346.463068 
" style="fill:none;stroke:#000000;stroke-linecap:round;"/>
    <path clip-path="url(#p02f5d508b2)" d="M 313.695213 342.350283 
L 311.938795 346.463068 
L 309.702419 342.590263 
L 313.695213 342.350283 
z
" style="stroke:#000000;stroke-linecap:round;"/>
   </g>
   <g id="patch_10">
    <path clip-path="url(#p02f5d508b2)" d="M 304.435049 224.92338 
Q 302.039584 193.058872 299.727932 162.309252 
" style="fill:none;stroke:#000000;stroke-linecap:round;"/>
    <path clip-path="url(#p02f5d508b2)" d="M 298.03342 166.447926 
L 299.727932 162.309252 
L 302.022165 166.148066 
L 298.03342 166.447926 
z
" style="stroke:#000000;stroke-linecap:round;"/>
   </g>
   <g id="patch_11">
    <path clip-path="url(#p02f5d508b2)" d="M 299.591048 361.438459 
Q 274.955836 362.657785 251.437292 363.821841 
" style="fill:none;stroke:#000000;stroke-linecap:round;"/>
    <path clip-path="url(#p02f5d508b2)" d="M 255.531271 365.621657 
L 251.437292 363.821841 
L 255.333532 361.626547 
L 255.531271 365.621657 
z
" style="stroke:#000000;stroke-linecap:round;"/>
   </g>
   <g id="patch_12">
    <path clip-path="url(#p02f5d508b2)" d="M 326.025961 360.754233 
Q 343.959661 360.712924 360.77533 360.674191 
" style="fill:none;stroke:#000000;stroke-linecap:round;"/>
    <path clip-path="url(#p02f5d508b2)" d="M 356.770733 358.68341 
L 360.77533 360.674191 
L 356.779947 362.683399 
L 356.770733 358.68341 
z
" style="stroke:#000000;stroke-linecap:round;"/>
   </g>
   <g id="patch_13">
    <path clip-path="url(#p02f5d508b2)" d="M 312.005988 347.581023 
Q 309.113196 299.450527 306.28748 252.436052 
" style="fill:none;stroke:#000000;stroke-linecap:round;"/>
    <path clip-path="url(#p02f5d508b2)" d="M 304.531062 256.548836 
L 306.28748 252.436052 
L 308.523857 256.308857 
L 304.531062 256.548836 
z
" style="stroke:#000000;stroke-linecap:round;"/>
   </g>
   <g id="patch_14">
    <path clip-path="url(#p02f5d508b2)" d="M 127.399477 162.014233 
Q 93.309076 196.965077 59.999331 231.11556 
" style="fill:none;stroke:#000000;stroke-linecap:round;"/>
    <path clip-path="url(#p02f5d508b2)" d="M 64.224019 229.648586 
L 59.999331 231.11556 
L 61.360564 226.855626 
L 64.224019 229.648586 
z
" style="stroke:#000000;stroke-linecap:round;"/>
   </g>
   <g id="patch_15">
    <path clip-path="url(#p02f5d508b2)" d="M 149.862628 152.173699 
Q 217.644142 150.275677 284.308061 148.40895 
" style="fill:none;stroke:#000000;stroke-linecap:round;"/>
    <path clip-path="url(#p02f5d508b2)" d="M 280.253646 146.521698 
L 284.308061 148.40895 
L 280.36561 150.520131 
L 280.253646 146.521698 
z
" style="stroke:#000000;stroke-linecap:round;"/>
   </g>
   <g id="patch_16">
    <path clip-path="url(#p02f5d508b2)" d="M 55.230157 253.524816 
Q 70.621702 289.140153 85.569722 323.729194 
" style="fill:none;stroke:#000000;stroke-linecap:round;"/>
    <path clip-path="url(#p02f5d508b2)" d="M 85.818814 319.264 
L 85.569722 323.729194 
L 82.147022 320.850804 
L 85.818814 319.264 
z
" style="stroke:#000000;stroke-linecap:round;"/>
   </g>
   <g id="patch_17">
    <path clip-path="url(#p02f5d508b2)" d="M 59.220503 231.914046 
Q 93.310904 196.963203 126.620649 162.812719 
" style="fill:none;stroke:#000000;stroke-linecap:round;"/>
    <path clip-path="url(#p02f5d508b2)" d="M 122.395961 164.279693 
L 126.620649 162.812719 
L 125.259416 167.072653 
L 122.395961 164.279693 
z
" style="stroke:#000000;stroke-linecap:round;"/>
   </g>
   <g id="patch_18">
    <path clip-path="url(#p02f5d508b2)" d="M 104.370768 338.677951 
Q 110.095171 339.454356 114.711683 340.080497 
" style="fill:none;stroke:#000000;stroke-linecap:round;"/>
    <path clip-path="url(#p02f5d508b2)" d="M 111.016775 337.561042 
L 114.711683 340.080497 
L 110.479174 341.52475 
L 111.016775 337.561042 
z
" style="stroke:#000000;stroke-linecap:round;"/>
   </g>
   <g id="patch_19">
    <path clip-path="url(#p02f5d508b2)" d="M 86.014915 324.759351 
Q 70.623371 289.144014 55.675351 254.554973 
" style="fill:none;stroke:#000000;stroke-linecap:round;"/>
    <path clip-path="url(#p02f5d508b2)" d="M 55.426259 259.020167 
L 55.675351 254.554973 
L 59.09805 257.433363 
L 55.426259 259.020167 
z
" style="stroke:#000000;stroke-linecap:round;"/>
   </g>
   <g id="patch_20">
    <path clip-path="url(#p02f5d508b2)" d="M 138.76416 350.857841 
Q 148.173653 359.32403 156.752014 367.042409 
" style="fill:none;stroke:#000000;stroke-linecap:round;"/>
    <path clip-path="url(#p02f5d508b2)" d="M 155.116191 362.880188 
L 156.752014 367.042409 
L 152.440743 365.853734 
L 155.116191 362.880188 
z
" style="stroke:#000000;stroke-linecap:round;"/>
   </g>
   <g id="patch_21">
    <path clip-path="url(#p02f5d508b2)" d="M 115.715151 341.438641 
Q 103.536056 340.913112 92.473955 340.435781 
" style="fill:none;stroke:#000000;stroke-linecap:round;"/>
    <path clip-path="url(#p02f5d508b2)" d="M 96.384016 342.606362 
L 92.473955 340.435781 
L 96.556456 338.61008 
L 96.384016 342.606362 
z
" style="stroke:#000000;stroke-linecap:round;"/>
   </g>
   <g id="patch_22">
    <path clip-path="url(#p02f5d508b2)" d="M 115.820023 340.230822 
Q 110.09562 339.454417 105.479108 338.828276 
" style="fill:none;stroke:#000000;stroke-linecap:round;"/>
    <path clip-path="url(#p02f5d508b2)" d="M 109.174016 341.347731 
L 105.479108 338.828276 
L 109.711617 337.384022 
L 109.174016 341.347731 
z
" style="stroke:#000000;stroke-linecap:round;"/>
   </g>
   <g id="patch_23">
    <path clip-path="url(#p02f5d508b2)" d="M 481.172515 165.97075 
Q 500.706238 206.219879 519.751808 245.463172 
" style="fill:none;stroke:#000000;stroke-linecap:round;"/>
    <path clip-path="url(#p02f5d508b2)" d="M 519.804634 240.991348 
L 519.751808 245.463172 
L 516.206044 242.737817 
L 519.804634 240.991348 
z
" style="stroke:#000000;stroke-linecap:round;"/>
   </g>
   <g id="patch_24">
    <path clip-path="url(#p02f5d508b2)" d="M 462.173627 153.61579 
Q 387.022793 151.038229 312.989336 148.498992 
" style="fill:none;stroke:#000000;stroke-linecap:round;"/>
    <path clip-path="url(#p02f5d508b2)" d="M 316.918429 150.63493 
L 312.989336 148.498992 
L 317.055542 146.637281 
L 316.918429 150.63493 
z
" style="stroke:#000000;stroke-linecap:round;"/>
   </g>
   <g id="patch_25">
    <path clip-path="url(#p02f5d508b2)" d="M 521.676331 270.864325 
Q 513.819997 293.477823 506.330575 315.035208 
" style="fill:none;stroke:#000000;stroke-linecap:round;"/>
    <path clip-path="url(#p02f5d508b2)" d="M 509.532515 311.913096 
L 506.330575 315.035208 
L 505.754049 310.600389 
L 509.532515 311.913096 
z
" style="stroke:#000000;stroke-linecap:round;"/>
   </g>
   <g id="patch_26">
    <path clip-path="url(#p02f5d508b2)" d="M 520.24052 246.47016 
Q 500.706797 206.221031 481.661227 166.977739 
" style="fill:none;stroke:#000000;stroke-linecap:round;"/>
    <path clip-path="url(#p02f5d508b2)" d="M 481.608401 171.449562 
L 481.661227 166.977739 
L 485.20699 169.703094 
L 481.608401 171.449562 
z
" style="stroke:#000000;stroke-linecap:round;"/>
   </g>
   <g id="patch_27">
    <path clip-path="url(#p02f5d508b2)" d="M 490.865697 336.294356 
Q 485.708474 339.989209 481.460106 343.03292 
" style="fill:none;stroke:#000000;stroke-linecap:round;"/>
    <path clip-path="url(#p02f5d508b2)" d="M 485.876517 342.329133 
L 481.460106 343.03292 
L 483.546923 339.077519 
L 485.876517 342.329133 
z
" style="stroke:#000000;stroke-linecap:round;"/>
   </g>
   <g id="patch_28">
    <path clip-path="url(#p02f5d508b2)" d="M 505.962283 316.095293 
Q 513.818617 293.481794 521.308038 271.92441 
" style="fill:none;stroke:#000000;stroke-linecap:round;"/>
    <path clip-path="url(#p02f5d508b2)" d="M 518.106099 275.046522 
L 521.308038 271.92441 
L 521.884565 276.359228 
L 518.106099 275.046522 
z
" style="stroke:#000000;stroke-linecap:round;"/>
   </g>
   <g id="patch_29">
    <path clip-path="url(#p02f5d508b2)" d="M 459.656699 359.885168 
Q 457.296433 361.862701 455.793161 363.122207 
" style="fill:none;stroke:#000000;stroke-linecap:round;"/>
    <path clip-path="url(#p02f5d508b2)" d="M 460.143679 362.086355 
L 455.793161 363.122207 
L 457.57479 359.020281 
L 460.143679 362.086355 
z
" style="stroke:#000000;stroke-linecap:round;"/>
   </g>
   <g id="patch_30">
    <path clip-path="url(#p02f5d508b2)" d="M 456.615417 350.316621 
Q 442.296455 349.154151 429.091862 348.08215 
" style="fill:none;stroke:#000000;stroke-linecap:round;"/>
    <path clip-path="url(#p02f5d508b2)" d="M 432.916909 350.399263 
L 429.091862 348.08215 
L 433.24058 346.412379 
L 432.916909 350.399263 
z
" style="stroke:#000000;stroke-linecap:round;"/>
   </g>
   <g id="patch_31">
    <path clip-path="url(#p02f5d508b2)" d="M 480.556035 343.680635 
Q 485.713257 339.985782 489.961625 336.942071 
" style="fill:none;stroke:#000000;stroke-linecap:round;"/>
    <path clip-path="url(#p02f5d508b2)" d="M 485.545214 337.645858 
L 489.961625 336.942071 
L 487.874809 340.897472 
L 485.545214 337.645858 
z
" style="stroke:#000000;stroke-linecap:round;"/>
   </g>
   <g id="patch_32">
    <path clip-path="url(#p02f5d508b2)" d="M 234.307287 377.462091 
Q 217.498315 455.129561 200.925837 531.704295 
" style="fill:none;stroke:#000000;stroke-linecap:round;"/>
    <path clip-path="url(#p02f5d508b2)" d="M 203.726682 528.217855 
L 200.925837 531.704295 
L 199.817192 527.371754 
L 203.726682 528.217855 
z
" style="stroke:#000000;stroke-linecap:round;"/>
   </g>
   <g id="patch_33">
    <path clip-path="url(#p02f5d508b2)" d="M 250.314345 363.877421 
Q 274.949557 362.658095 298.468102 361.494039 
" style="fill:none;stroke:#000000;stroke-linecap:round;"/>
    <path clip-path="url(#p02f5d508b2)" d="M 294.374123 359.694223 
L 298.468102 361.494039 
L 294.571862 363.689333 
L 294.374123 359.694223 
z
" style="stroke:#000000;stroke-linecap:round;"/>
   </g>
   <g id="patch_34">
    <path clip-path="url(#p02f5d508b2)" d="M 200.867677 558.614952 
Q 214.032328 615.63672 226.945473 671.56911 
" style="fill:none;stroke:#000000;stroke-linecap:round;"/>
    <path clip-path="url(#p02f5d508b2)" d="M 227.994399 667.221726 
L 226.945473 671.56911 
L 224.096921 668.121539 
L 227.994399 667.221726 
z
" style="stroke:#000000;stroke-linecap:round;"/>
   </g>
   <g id="patch_35">
    <path clip-path="url(#p02f5d508b2)" d="M 200.690137 532.793368 
Q 217.499108 455.125898 234.071587 378.551164 
" style="fill:none;stroke:#000000;stroke-linecap:round;"/>
    <path clip-path="url(#p02f5d508b2)" d="M 231.270741 382.037604 
L 234.071587 378.551164 
L 235.180231 382.883705 
L 231.270741 382.037604 
z
" style="stroke:#000000;stroke-linecap:round;"/>
   </g>
   <g id="patch_36">
    <path clip-path="url(#p02f5d508b2)" d="M 230.046357 698.776699 
Q 229.971118 706.678231 229.906525 713.461779 
" style="fill:none;stroke:#000000;stroke-linecap:round;"/>
    <path clip-path="url(#p02f5d508b2)" d="M 231.944521 709.481004 
L 229.906525 713.461779 
L 227.944702 709.442917 
L 231.944521 709.481004 
z
" style="stroke:#000000;stroke-linecap:round;"/>
   </g>
   <g id="patch_37">
    <path clip-path="url(#p02f5d508b2)" d="M 227.196262 672.655382 
Q 214.031611 615.633613 201.118465 559.701223 
" style="fill:none;stroke:#000000;stroke-linecap:round;"/>
    <path clip-path="url(#p02f5d508b2)" d="M 200.06954 564.048608 
L 201.118465 559.701223 
L 203.967018 563.148795 
L 200.06954 564.048608 
z
" style="stroke:#000000;stroke-linecap:round;"/>
   </g>
   <g id="patch_38">
    <path clip-path="url(#p02f5d508b2)" d="M 229.895886 714.579179 
Q 229.971124 706.677647 230.035717 699.894099 
" style="fill:none;stroke:#000000;stroke-linecap:round;"/>
    <path clip-path="url(#p02f5d508b2)" d="M 227.997721 703.874874 
L 230.035717 699.894099 
L 231.99754 703.91296 
L 227.997721 703.874874 
z
" style="stroke:#000000;stroke-linecap:round;"/>
   </g>
   <g id="patch_39">
    <path clip-path="url(#p02f5d508b2)" d="M 375.813099 373.849718 
Q 380.368275 461.131571 384.86518 547.29691 
" style="fill:none;stroke:#000000;stroke-linecap:round;"/>
    <path clip-path="url(#p02f5d508b2)" d="M 386.653989 543.198109 
L 384.86518 547.29691 
L 382.659425 543.406583 
L 386.653989 543.198109 
z
" style="stroke:#000000;stroke-linecap:round;"/>
   </g>
   <g id="patch_40">
    <path clip-path="url(#p02f5d508b2)" d="M 361.897363 360.671606 
Q 343.963663 360.712915 327.147994 360.751649 
" style="fill:none;stroke:#000000;stroke-linecap:round;"/>
    <path clip-path="url(#p02f5d508b2)" d="M 331.15259 362.74243 
L 327.147994 360.751649 
L 331.143376 358.742441 
L 331.15259 362.74243 
z
" style="stroke:#000000;stroke-linecap:round;"/>
   </g>
   <g id="patch_41">
    <path clip-path="url(#p02f5d508b2)" d="M 385.69279 574.854914 
Q 386.171605 654.198374 386.643674 732.423821 
" style="fill:none;stroke:#000000;stroke-linecap:round;"/>
    <path clip-path="url(#p02f5d508b2)" d="M 388.619499 728.411824 
L 386.643674 732.423821 
L 384.619572 728.435963 
L 388.619499 728.411824 
z
" style="stroke:#000000;stroke-linecap:round;"/>
   </g>
   <g id="patch_42">
    <path clip-path="url(#p02f5d508b2)" d="M 384.923605 548.416389 
Q 380.36843 461.134536 375.871524 374.969198 
" style="fill:none;stroke:#000000;stroke-linecap:round;"/>
    <path clip-path="url(#p02f5d508b2)" d="M 374.082716 379.067998 
L 375.871524 374.969198 
L 378.077279 378.859525 
L 374.082716 379.067998 
z
" style="stroke:#000000;stroke-linecap:round;"/>
   </g>
   <g id="patch_43">
    <path clip-path="url(#p02f5d508b2)" d="M 387.756031 759.962259 
Q 388.373289 767.900177 388.903868 774.723425 
" style="fill:none;stroke:#000000;stroke-linecap:round;"/>
    <path clip-path="url(#p02f5d508b2)" d="M 390.587743 770.580411 
L 388.903868 774.723425 
L 386.599782 770.890517 
L 390.587743 770.580411 
z
" style="stroke:#000000;stroke-linecap:round;"/>
   </g>
   <g id="patch_44">
    <path clip-path="url(#p02f5d508b2)" d="M 386.650414 733.540825 
Q 386.171599 654.197365 385.699531 575.971918 
" style="fill:none;stroke:#000000;stroke-linecap:round;"/>
    <path clip-path="url(#p02f5d508b2)" d="M 383.723705 579.983915 
L 385.699531 575.971918 
L 387.723633 579.959776 
L 383.723705 579.983915 
z
" style="stroke:#000000;stroke-linecap:round;"/>
   </g>
   <g id="patch_45">
    <path clip-path="url(#p02f5d508b2)" d="M 388.990173 775.833307 
Q 388.372916 767.895389 387.842336 761.072141 
" style="fill:none;stroke:#000000;stroke-linecap:round;"/>
    <path clip-path="url(#p02f5d508b2)" d="M 386.158462 765.215155 
L 387.842336 761.072141 
L 390.146423 764.905049 
L 386.158462 765.215155 
z
" style="stroke:#000000;stroke-linecap:round;"/>
   </g>
   <g id="patch_46">
    <path clip-path="url(#p02f5d508b2)" d="M 157.579092 367.786572 
Q 148.169599 359.320383 139.591238 351.602004 
" style="fill:none;stroke:#000000;stroke-linecap:round;"/>
    <path clip-path="url(#p02f5d508b2)" d="M 141.22706 355.764225 
L 139.591238 351.602004 
L 143.902508 352.790679 
L 141.22706 355.764225 
z
" style="stroke:#000000;stroke-linecap:round;"/>
   </g>
   <g id="patch_47">
    <path clip-path="url(#p02f5d508b2)" d="M 91.357677 340.387614 
Q 103.536773 340.913143 114.598873 341.390473 
" style="fill:none;stroke:#000000;stroke-linecap:round;"/>
    <path clip-path="url(#p02f5d508b2)" d="M 110.688812 339.219893 
L 114.598873 341.390473 
L 110.516372 343.216174 
L 110.688812 339.219893 
z
" style="stroke:#000000;stroke-linecap:round;"/>
   </g>
   <g id="patch_48">
    <path clip-path="url(#p02f5d508b2)" d="M 454.937771 363.838889 
Q 457.298037 361.861356 458.80131 360.60185 
" style="fill:none;stroke:#000000;stroke-linecap:round;"/>
    <path clip-path="url(#p02f5d508b2)" d="M 454.450791 361.637702 
L 458.80131 360.60185 
L 457.01968 364.703776 
L 454.450791 361.637702 
z
" style="stroke:#000000;stroke-linecap:round;"/>
   </g>
   <g id="patch_49">
    <path clip-path="url(#p02f5d508b2)" d="M 427.977404 347.991674 
Q 442.296366 349.154144 455.50096 350.226145 
" style="fill:none;stroke:#000000;stroke-linecap:round;"/>
    <path clip-path="url(#p02f5d508b2)" d="M 451.675912 347.909032 
L 455.50096 350.226145 
L 451.352241 351.895916 
L 451.675912 347.909032 
z
" style="stroke:#000000;stroke-linecap:round;"/>
   </g>
   <g id="PathCollection_1">
    <defs>
     <path d="M 0 13.228757 
C 3.508307 13.228757 6.873396 11.834891 9.354143 9.354143 
C 11.834891 6.873396 13.228757 3.508307 13.228757 0 
C 13.228757 -3.508307 11.834891 -6.873396 9.354143 -9.354143 
C 6.873396 -11.834891 3.508307 -13.228757 0 -13.228757 
C -3.508307 -13.228757 -6.873396 -11.834891 -9.354143 -9.354143 
C -11.834891 -6.873396 -13.228757 -3.508307 -13.228757 0 
C -13.228757 3.508307 -11.834891 6.873396 -9.354143 9.354143 
C -6.873396 11.834891 -3.508307 13.228757 0 13.228757 
z
" id="mfd5424d35c" style="stroke:#87ceeb;"/>
    </defs>
    <g clip-path="url(#p02f5d508b2)">
     <use style="fill:#87ceeb;stroke:#87ceeb;" x="311.828034" xlink:href="#mfd5424d35c" y="74.975207"/>
     <use style="fill:#87ceeb;stroke:#87ceeb;" x="295.799808" xlink:href="#mfd5424d35c" y="118.647279"/>
     <use style="fill:#87ceeb;stroke:#87ceeb;" x="298.652758" xlink:href="#mfd5424d35c" y="148.007269"/>
     <use style="fill:#87ceeb;stroke:#87ceeb;" x="305.426706" xlink:href="#mfd5424d35c" y="238.11442"/>
     <use style="fill:#87ceeb;stroke:#87ceeb;" x="312.79957" xlink:href="#mfd5424d35c" y="360.7847"/>
     <use style="fill:#87ceeb;stroke:#87ceeb;" x="136.636509" xlink:href="#mfd5424d35c" y="152.544058"/>
     <use style="fill:#87ceeb;stroke:#87ceeb;" x="49.983471" xlink:href="#mfd5424d35c" y="241.384221"/>
     <use style="fill:#87ceeb;stroke:#87ceeb;" x="91.261602" xlink:href="#mfd5424d35c" y="336.899945"/>
     <use style="fill:#87ceeb;stroke:#87ceeb;" x="128.929189" xlink:href="#mfd5424d35c" y="342.008827"/>
     <use style="fill:#87ceeb;stroke:#87ceeb;" x="475.396506" xlink:href="#mfd5424d35c" y="154.069315"/>
     <use style="fill:#87ceeb;stroke:#87ceeb;" x="526.016529" xlink:href="#mfd5424d35c" y="258.371595"/>
     <use style="fill:#87ceeb;stroke:#87ceeb;" x="501.622085" xlink:href="#mfd5424d35c" y="328.588022"/>
     <use style="fill:#87ceeb;stroke:#87ceeb;" x="469.799646" xlink:href="#mfd5424d35c" y="351.386969"/>
     <use style="fill:#87ceeb;stroke:#87ceeb;" x="237.105824" xlink:href="#mfd5424d35c" y="364.531181"/>
     <use style="fill:#87ceeb;stroke:#87ceeb;" x="197.8916" xlink:href="#mfd5424d35c" y="545.724278"/>
     <use style="fill:#87ceeb;stroke:#87ceeb;" x="230.172339" xlink:href="#mfd5424d35c" y="685.546055"/>
     <use style="fill:#87ceeb;stroke:#87ceeb;" x="229.769903" xlink:href="#mfd5424d35c" y="727.809822"/>
     <use style="fill:#87ceeb;stroke:#87ceeb;" x="375.123754" xlink:href="#mfd5424d35c" y="360.64114"/>
     <use style="fill:#87ceeb;stroke:#87ceeb;" x="385.612951" xlink:href="#mfd5424d35c" y="561.624967"/>
     <use style="fill:#87ceeb;stroke:#87ceeb;" x="386.730253" xlink:href="#mfd5424d35c" y="746.770772"/>
     <use style="fill:#87ceeb;stroke:#87ceeb;" x="390.015951" xlink:href="#mfd5424d35c" y="789.024793"/>
     <use style="fill:#87ceeb;stroke:#87ceeb;" x="167.414063" xlink:href="#mfd5424d35c" y="376.635586"/>
     <use style="fill:#87ceeb;stroke:#87ceeb;" x="78.143639" xlink:href="#mfd5424d35c" y="339.817427"/>
     <use style="fill:#87ceeb;stroke:#87ceeb;" x="444.794824" xlink:href="#mfd5424d35c" y="372.337088"/>
     <use style="fill:#87ceeb;stroke:#87ceeb;" x="414.793175" xlink:href="#mfd5424d35c" y="346.921326"/>
    </g>
   </g>
   <g id="text_1">
    <g clip-path="url(#p02f5d508b2)">
     <!-- Head -->
     <g transform="translate(298.753034 77.734582)scale(0.1 -0.1)">
      <defs>
       <path d="M 9.8125 72.90625 
L 19.671875 72.90625 
L 19.671875 43.015625 
L 55.515625 43.015625 
L 55.515625 72.90625 
L 65.375 72.90625 
L 65.375 0 
L 55.515625 0 
L 55.515625 34.71875 
L 19.671875 34.71875 
L 19.671875 0 
L 9.8125 0 
z
" id="DejaVuSans-72"/>
       <path d="M 56.203125 29.59375 
L 56.203125 25.203125 
L 14.890625 25.203125 
Q 15.484375 15.921875 20.484375 11.0625 
Q 25.484375 6.203125 34.421875 6.203125 
Q 39.59375 6.203125 44.453125 7.46875 
Q 49.3125 8.734375 54.109375 11.28125 
L 54.109375 2.78125 
Q 49.265625 0.734375 44.1875 -0.34375 
Q 39.109375 -1.421875 33.890625 -1.421875 
Q 20.796875 -1.421875 13.15625 6.1875 
Q 5.515625 13.8125 5.515625 26.8125 
Q 5.515625 40.234375 12.765625 48.109375 
Q 20.015625 56 32.328125 56 
Q 43.359375 56 49.78125 48.890625 
Q 56.203125 41.796875 56.203125 29.59375 
z
M 47.21875 32.234375 
Q 47.125 39.59375 43.09375 43.984375 
Q 39.0625 48.390625 32.421875 48.390625 
Q 24.90625 48.390625 20.390625 44.140625 
Q 15.875 39.890625 15.1875 32.171875 
z
" id="DejaVuSans-101"/>
       <path d="M 34.28125 27.484375 
Q 23.390625 27.484375 19.1875 25 
Q 14.984375 22.515625 14.984375 16.5 
Q 14.984375 11.71875 18.140625 8.90625 
Q 21.296875 6.109375 26.703125 6.109375 
Q 34.1875 6.109375 38.703125 11.40625 
Q 43.21875 16.703125 43.21875 25.484375 
L 43.21875 27.484375 
z
M 52.203125 31.203125 
L 52.203125 0 
L 43.21875 0 
L 43.21875 8.296875 
Q 40.140625 3.328125 35.546875 0.953125 
Q 30.953125 -1.421875 24.3125 -1.421875 
Q 15.921875 -1.421875 10.953125 3.296875 
Q 6 8.015625 6 15.921875 
Q 6 25.140625 12.171875 29.828125 
Q 18.359375 34.515625 30.609375 34.515625 
L 43.21875 34.515625 
L 43.21875 35.40625 
Q 43.21875 41.609375 39.140625 45 
Q 35.0625 48.390625 27.6875 48.390625 
Q 23 48.390625 18.546875 47.265625 
Q 14.109375 46.140625 10.015625 43.890625 
L 10.015625 52.203125 
Q 14.9375 54.109375 19.578125 55.046875 
Q 24.21875 56 28.609375 56 
Q 40.484375 56 46.34375 49.84375 
Q 52.203125 43.703125 52.203125 31.203125 
z
" id="DejaVuSans-97"/>
       <path d="M 45.40625 46.390625 
L 45.40625 75.984375 
L 54.390625 75.984375 
L 54.390625 0 
L 45.40625 0 
L 45.40625 8.203125 
Q 42.578125 3.328125 38.25 0.953125 
Q 33.9375 -1.421875 27.875 -1.421875 
Q 17.96875 -1.421875 11.734375 6.484375 
Q 5.515625 14.40625 5.515625 27.296875 
Q 5.515625 40.1875 11.734375 48.09375 
Q 17.96875 56 27.875 56 
Q 33.9375 56 38.25 53.625 
Q 42.578125 51.265625 45.40625 46.390625 
z
M 14.796875 27.296875 
Q 14.796875 17.390625 18.875 11.75 
Q 22.953125 6.109375 30.078125 6.109375 
Q 37.203125 6.109375 41.296875 11.75 
Q 45.40625 17.390625 45.40625 27.296875 
Q 45.40625 37.203125 41.296875 42.84375 
Q 37.203125 48.484375 30.078125 48.484375 
Q 22.953125 48.484375 18.875 42.84375 
Q 14.796875 37.203125 14.796875 27.296875 
z
" id="DejaVuSans-100"/>
      </defs>
      <use xlink:href="#DejaVuSans-72"/>
      <use x="75.195312" xlink:href="#DejaVuSans-101"/>
      <use x="136.71875" xlink:href="#DejaVuSans-97"/>
      <use x="197.998047" xlink:href="#DejaVuSans-100"/>
     </g>
    </g>
   </g>
   <g id="text_2">
    <g clip-path="url(#p02f5d508b2)">
     <!-- c7 -->
     <g transform="translate(289.869339 121.406654)scale(0.1 -0.1)">
      <defs>
       <path d="M 48.78125 52.59375 
L 48.78125 44.1875 
Q 44.96875 46.296875 41.140625 47.34375 
Q 37.3125 48.390625 33.40625 48.390625 
Q 24.65625 48.390625 19.8125 42.84375 
Q 14.984375 37.3125 14.984375 27.296875 
Q 14.984375 17.28125 19.8125 11.734375 
Q 24.65625 6.203125 33.40625 6.203125 
Q 37.3125 6.203125 41.140625 7.25 
Q 44.96875 8.296875 48.78125 10.40625 
L 48.78125 2.09375 
Q 45.015625 0.34375 40.984375 -0.53125 
Q 36.96875 -1.421875 32.421875 -1.421875 
Q 20.0625 -1.421875 12.78125 6.34375 
Q 5.515625 14.109375 5.515625 27.296875 
Q 5.515625 40.671875 12.859375 48.328125 
Q 20.21875 56 33.015625 56 
Q 37.15625 56 41.109375 55.140625 
Q 45.0625 54.296875 48.78125 52.59375 
z
" id="DejaVuSans-99"/>
       <path d="M 8.203125 72.90625 
L 55.078125 72.90625 
L 55.078125 68.703125 
L 28.609375 0 
L 18.3125 0 
L 43.21875 64.59375 
L 8.203125 64.59375 
z
" id="DejaVuSans-55"/>
      </defs>
      <use xlink:href="#DejaVuSans-99"/>
      <use x="54.980469" xlink:href="#DejaVuSans-55"/>
     </g>
    </g>
   </g>
   <g id="text_3">
    <g clip-path="url(#p02f5d508b2)">
     <!-- SpineShoulder -->
     <g transform="translate(262.403539 150.766644)scale(0.1 -0.1)">
      <defs>
       <path d="M 53.515625 70.515625 
L 53.515625 60.890625 
Q 47.90625 63.578125 42.921875 64.890625 
Q 37.9375 66.21875 33.296875 66.21875 
Q 25.25 66.21875 20.875 63.09375 
Q 16.5 59.96875 16.5 54.203125 
Q 16.5 49.359375 19.40625 46.890625 
Q 22.3125 44.4375 30.421875 42.921875 
L 36.375 41.703125 
Q 47.40625 39.59375 52.65625 34.296875 
Q 57.90625 29 57.90625 20.125 
Q 57.90625 9.515625 50.796875 4.046875 
Q 43.703125 -1.421875 29.984375 -1.421875 
Q 24.8125 -1.421875 18.96875 -0.25 
Q 13.140625 0.921875 6.890625 3.21875 
L 6.890625 13.375 
Q 12.890625 10.015625 18.65625 8.296875 
Q 24.421875 6.59375 29.984375 6.59375 
Q 38.421875 6.59375 43.015625 9.90625 
Q 47.609375 13.234375 47.609375 19.390625 
Q 47.609375 24.75 44.3125 27.78125 
Q 41.015625 30.8125 33.5 32.328125 
L 27.484375 33.5 
Q 16.453125 35.6875 11.515625 40.375 
Q 6.59375 45.0625 6.59375 53.421875 
Q 6.59375 63.09375 13.40625 68.65625 
Q 20.21875 74.21875 32.171875 74.21875 
Q 37.3125 74.21875 42.625 73.28125 
Q 47.953125 72.359375 53.515625 70.515625 
z
" id="DejaVuSans-83"/>
       <path d="M 18.109375 8.203125 
L 18.109375 -20.796875 
L 9.078125 -20.796875 
L 9.078125 54.6875 
L 18.109375 54.6875 
L 18.109375 46.390625 
Q 20.953125 51.265625 25.265625 53.625 
Q 29.59375 56 35.59375 56 
Q 45.5625 56 51.78125 48.09375 
Q 58.015625 40.1875 58.015625 27.296875 
Q 58.015625 14.40625 51.78125 6.484375 
Q 45.5625 -1.421875 35.59375 -1.421875 
Q 29.59375 -1.421875 25.265625 0.953125 
Q 20.953125 3.328125 18.109375 8.203125 
z
M 48.6875 27.296875 
Q 48.6875 37.203125 44.609375 42.84375 
Q 40.53125 48.484375 33.40625 48.484375 
Q 26.265625 48.484375 22.1875 42.84375 
Q 18.109375 37.203125 18.109375 27.296875 
Q 18.109375 17.390625 22.1875 11.75 
Q 26.265625 6.109375 33.40625 6.109375 
Q 40.53125 6.109375 44.609375 11.75 
Q 48.6875 17.390625 48.6875 27.296875 
z
" id="DejaVuSans-112"/>
       <path d="M 9.421875 54.6875 
L 18.40625 54.6875 
L 18.40625 0 
L 9.421875 0 
z
M 9.421875 75.984375 
L 18.40625 75.984375 
L 18.40625 64.59375 
L 9.421875 64.59375 
z
" id="DejaVuSans-105"/>
       <path d="M 54.890625 33.015625 
L 54.890625 0 
L 45.90625 0 
L 45.90625 32.71875 
Q 45.90625 40.484375 42.875 44.328125 
Q 39.84375 48.1875 33.796875 48.1875 
Q 26.515625 48.1875 22.3125 43.546875 
Q 18.109375 38.921875 18.109375 30.90625 
L 18.109375 0 
L 9.078125 0 
L 9.078125 54.6875 
L 18.109375 54.6875 
L 18.109375 46.1875 
Q 21.34375 51.125 25.703125 53.5625 
Q 30.078125 56 35.796875 56 
Q 45.21875 56 50.046875 50.171875 
Q 54.890625 44.34375 54.890625 33.015625 
z
" id="DejaVuSans-110"/>
       <path d="M 54.890625 33.015625 
L 54.890625 0 
L 45.90625 0 
L 45.90625 32.71875 
Q 45.90625 40.484375 42.875 44.328125 
Q 39.84375 48.1875 33.796875 48.1875 
Q 26.515625 48.1875 22.3125 43.546875 
Q 18.109375 38.921875 18.109375 30.90625 
L 18.109375 0 
L 9.078125 0 
L 9.078125 75.984375 
L 18.109375 75.984375 
L 18.109375 46.1875 
Q 21.34375 51.125 25.703125 53.5625 
Q 30.078125 56 35.796875 56 
Q 45.21875 56 50.046875 50.171875 
Q 54.890625 44.34375 54.890625 33.015625 
z
" id="DejaVuSans-104"/>
       <path d="M 30.609375 48.390625 
Q 23.390625 48.390625 19.1875 42.75 
Q 14.984375 37.109375 14.984375 27.296875 
Q 14.984375 17.484375 19.15625 11.84375 
Q 23.34375 6.203125 30.609375 6.203125 
Q 37.796875 6.203125 41.984375 11.859375 
Q 46.1875 17.53125 46.1875 27.296875 
Q 46.1875 37.015625 41.984375 42.703125 
Q 37.796875 48.390625 30.609375 48.390625 
z
M 30.609375 56 
Q 42.328125 56 49.015625 48.375 
Q 55.71875 40.765625 55.71875 27.296875 
Q 55.71875 13.875 49.015625 6.21875 
Q 42.328125 -1.421875 30.609375 -1.421875 
Q 18.84375 -1.421875 12.171875 6.21875 
Q 5.515625 13.875 5.515625 27.296875 
Q 5.515625 40.765625 12.171875 48.375 
Q 18.84375 56 30.609375 56 
z
" id="DejaVuSans-111"/>
       <path d="M 8.5 21.578125 
L 8.5 54.6875 
L 17.484375 54.6875 
L 17.484375 21.921875 
Q 17.484375 14.15625 20.5 10.265625 
Q 23.53125 6.390625 29.59375 6.390625 
Q 36.859375 6.390625 41.078125 11.03125 
Q 45.3125 15.671875 45.3125 23.6875 
L 45.3125 54.6875 
L 54.296875 54.6875 
L 54.296875 0 
L 45.3125 0 
L 45.3125 8.40625 
Q 42.046875 3.421875 37.71875 1 
Q 33.40625 -1.421875 27.6875 -1.421875 
Q 18.265625 -1.421875 13.375 4.4375 
Q 8.5 10.296875 8.5 21.578125 
z
M 31.109375 56 
z
" id="DejaVuSans-117"/>
       <path d="M 9.421875 75.984375 
L 18.40625 75.984375 
L 18.40625 0 
L 9.421875 0 
z
" id="DejaVuSans-108"/>
       <path d="M 41.109375 46.296875 
Q 39.59375 47.171875 37.8125 47.578125 
Q 36.03125 48 33.890625 48 
Q 26.265625 48 22.1875 43.046875 
Q 18.109375 38.09375 18.109375 28.8125 
L 18.109375 0 
L 9.078125 0 
L 9.078125 54.6875 
L 18.109375 54.6875 
L 18.109375 46.1875 
Q 20.953125 51.171875 25.484375 53.578125 
Q 30.03125 56 36.53125 56 
Q 37.453125 56 38.578125 55.875 
Q 39.703125 55.765625 41.0625 55.515625 
z
" id="DejaVuSans-114"/>
      </defs>
      <use xlink:href="#DejaVuSans-83"/>
      <use x="63.476562" xlink:href="#DejaVuSans-112"/>
      <use x="126.953125" xlink:href="#DejaVuSans-105"/>
      <use x="154.736328" xlink:href="#DejaVuSans-110"/>
      <use x="218.115234" xlink:href="#DejaVuSans-101"/>
      <use x="279.638672" xlink:href="#DejaVuSans-83"/>
      <use x="343.115234" xlink:href="#DejaVuSans-104"/>
      <use x="406.494141" xlink:href="#DejaVuSans-111"/>
      <use x="467.675781" xlink:href="#DejaVuSans-117"/>
      <use x="531.054688" xlink:href="#DejaVuSans-108"/>
      <use x="558.837891" xlink:href="#DejaVuSans-100"/>
      <use x="622.314453" xlink:href="#DejaVuSans-101"/>
      <use x="683.837891" xlink:href="#DejaVuSans-114"/>
     </g>
    </g>
   </g>
   <g id="text_4">
    <g clip-path="url(#p02f5d508b2)">
     <!-- Spine -->
     <g transform="translate(291.443893 240.873795)scale(0.1 -0.1)">
      <use xlink:href="#DejaVuSans-83"/>
      <use x="63.476562" xlink:href="#DejaVuSans-112"/>
      <use x="126.953125" xlink:href="#DejaVuSans-105"/>
      <use x="154.736328" xlink:href="#DejaVuSans-110"/>
      <use x="218.115234" xlink:href="#DejaVuSans-101"/>
     </g>
    </g>
   </g>
   <g id="text_5">
    <g clip-path="url(#p02f5d508b2)">
     <!-- Sacr -->
     <g transform="translate(301.756601 363.544075)scale(0.1 -0.1)">
      <use xlink:href="#DejaVuSans-83"/>
      <use x="63.476562" xlink:href="#DejaVuSans-97"/>
      <use x="124.755859" xlink:href="#DejaVuSans-99"/>
      <use x="179.736328" xlink:href="#DejaVuSans-114"/>
     </g>
    </g>
   </g>
   <g id="text_6">
    <g clip-path="url(#p02f5d508b2)">
     <!-- LShoulder -->
     <g transform="translate(111.584165 155.303433)scale(0.1 -0.1)">
      <defs>
       <path d="M 9.8125 72.90625 
L 19.671875 72.90625 
L 19.671875 8.296875 
L 55.171875 8.296875 
L 55.171875 0 
L 9.8125 0 
z
" id="DejaVuSans-76"/>
      </defs>
      <use xlink:href="#DejaVuSans-76"/>
      <use x="55.712891" xlink:href="#DejaVuSans-83"/>
      <use x="119.189453" xlink:href="#DejaVuSans-104"/>
      <use x="182.568359" xlink:href="#DejaVuSans-111"/>
      <use x="243.75" xlink:href="#DejaVuSans-117"/>
      <use x="307.128906" xlink:href="#DejaVuSans-108"/>
      <use x="334.912109" xlink:href="#DejaVuSans-100"/>
      <use x="398.388672" xlink:href="#DejaVuSans-101"/>
      <use x="459.912109" xlink:href="#DejaVuSans-114"/>
     </g>
    </g>
   </g>
   <g id="text_7">
    <g clip-path="url(#p02f5d508b2)">
     <!-- LElbow -->
     <g transform="translate(32.32644 244.143596)scale(0.1 -0.1)">
      <defs>
       <path d="M 9.8125 72.90625 
L 55.90625 72.90625 
L 55.90625 64.59375 
L 19.671875 64.59375 
L 19.671875 43.015625 
L 54.390625 43.015625 
L 54.390625 34.71875 
L 19.671875 34.71875 
L 19.671875 8.296875 
L 56.78125 8.296875 
L 56.78125 0 
L 9.8125 0 
z
" id="DejaVuSans-69"/>
       <path d="M 48.6875 27.296875 
Q 48.6875 37.203125 44.609375 42.84375 
Q 40.53125 48.484375 33.40625 48.484375 
Q 26.265625 48.484375 22.1875 42.84375 
Q 18.109375 37.203125 18.109375 27.296875 
Q 18.109375 17.390625 22.1875 11.75 
Q 26.265625 6.109375 33.40625 6.109375 
Q 40.53125 6.109375 44.609375 11.75 
Q 48.6875 17.390625 48.6875 27.296875 
z
M 18.109375 46.390625 
Q 20.953125 51.265625 25.265625 53.625 
Q 29.59375 56 35.59375 56 
Q 45.5625 56 51.78125 48.09375 
Q 58.015625 40.1875 58.015625 27.296875 
Q 58.015625 14.40625 51.78125 6.484375 
Q 45.5625 -1.421875 35.59375 -1.421875 
Q 29.59375 -1.421875 25.265625 0.953125 
Q 20.953125 3.328125 18.109375 8.203125 
L 18.109375 0 
L 9.078125 0 
L 9.078125 75.984375 
L 18.109375 75.984375 
z
" id="DejaVuSans-98"/>
       <path d="M 4.203125 54.6875 
L 13.1875 54.6875 
L 24.421875 12.015625 
L 35.59375 54.6875 
L 46.1875 54.6875 
L 57.421875 12.015625 
L 68.609375 54.6875 
L 77.59375 54.6875 
L 63.28125 0 
L 52.6875 0 
L 40.921875 44.828125 
L 29.109375 0 
L 18.5 0 
z
" id="DejaVuSans-119"/>
      </defs>
      <use xlink:href="#DejaVuSans-76"/>
      <use x="55.712891" xlink:href="#DejaVuSans-69"/>
      <use x="118.896484" xlink:href="#DejaVuSans-108"/>
      <use x="146.679688" xlink:href="#DejaVuSans-98"/>
      <use x="210.15625" xlink:href="#DejaVuSans-111"/>
      <use x="271.337891" xlink:href="#DejaVuSans-119"/>
     </g>
    </g>
   </g>
   <g id="text_8">
    <g clip-path="url(#p02f5d508b2)">
     <!-- LWrist -->
     <g transform="translate(76.203789 339.65932)scale(0.1 -0.1)">
      <defs>
       <path d="M 3.328125 72.90625 
L 13.28125 72.90625 
L 28.609375 11.28125 
L 43.890625 72.90625 
L 54.984375 72.90625 
L 70.3125 11.28125 
L 85.59375 72.90625 
L 95.609375 72.90625 
L 77.296875 0 
L 64.890625 0 
L 49.515625 63.28125 
L 33.984375 0 
L 21.578125 0 
z
" id="DejaVuSans-87"/>
       <path d="M 44.28125 53.078125 
L 44.28125 44.578125 
Q 40.484375 46.53125 36.375 47.5 
Q 32.28125 48.484375 27.875 48.484375 
Q 21.1875 48.484375 17.84375 46.4375 
Q 14.5 44.390625 14.5 40.28125 
Q 14.5 37.15625 16.890625 35.375 
Q 19.28125 33.59375 26.515625 31.984375 
L 29.59375 31.296875 
Q 39.15625 29.25 43.1875 25.515625 
Q 47.21875 21.78125 47.21875 15.09375 
Q 47.21875 7.46875 41.1875 3.015625 
Q 35.15625 -1.421875 24.609375 -1.421875 
Q 20.21875 -1.421875 15.453125 -0.5625 
Q 10.6875 0.296875 5.421875 2 
L 5.421875 11.28125 
Q 10.40625 8.6875 15.234375 7.390625 
Q 20.0625 6.109375 24.8125 6.109375 
Q 31.15625 6.109375 34.5625 8.28125 
Q 37.984375 10.453125 37.984375 14.40625 
Q 37.984375 18.0625 35.515625 20.015625 
Q 33.0625 21.96875 24.703125 23.78125 
L 21.578125 24.515625 
Q 13.234375 26.265625 9.515625 29.90625 
Q 5.8125 33.546875 5.8125 39.890625 
Q 5.8125 47.609375 11.28125 51.796875 
Q 16.75 56 26.8125 56 
Q 31.78125 56 36.171875 55.265625 
Q 40.578125 54.546875 44.28125 53.078125 
z
" id="DejaVuSans-115"/>
       <path d="M 18.3125 70.21875 
L 18.3125 54.6875 
L 36.8125 54.6875 
L 36.8125 47.703125 
L 18.3125 47.703125 
L 18.3125 18.015625 
Q 18.3125 11.328125 20.140625 9.421875 
Q 21.96875 7.515625 27.59375 7.515625 
L 36.8125 7.515625 
L 36.8125 0 
L 27.59375 0 
Q 17.1875 0 13.234375 3.875 
Q 9.28125 7.765625 9.28125 18.015625 
L 9.28125 47.703125 
L 2.6875 47.703125 
L 2.6875 54.6875 
L 9.28125 54.6875 
L 9.28125 70.21875 
z
" id="DejaVuSans-116"/>
      </defs>
      <use xlink:href="#DejaVuSans-76"/>
      <use x="46.587891" xlink:href="#DejaVuSans-87"/>
      <use x="140.964844" xlink:href="#DejaVuSans-114"/>
      <use x="182.078125" xlink:href="#DejaVuSans-105"/>
      <use x="209.861328" xlink:href="#DejaVuSans-115"/>
      <use x="261.960938" xlink:href="#DejaVuSans-116"/>
     </g>
    </g>
   </g>
   <g id="text_9">
    <g clip-path="url(#p02f5d508b2)">
     <!-- LHand -->
     <g transform="translate(112.976064 344.768202)scale(0.1 -0.1)">
      <use xlink:href="#DejaVuSans-76"/>
      <use x="55.712891" xlink:href="#DejaVuSans-72"/>
      <use x="130.908203" xlink:href="#DejaVuSans-97"/>
      <use x="192.1875" xlink:href="#DejaVuSans-110"/>
      <use x="255.566406" xlink:href="#DejaVuSans-100"/>
     </g>
    </g>
   </g>
   <g id="text_10">
    <g clip-path="url(#p02f5d508b2)">
     <!-- RShoulder -->
     <g transform="translate(449.655881 156.82869)scale(0.1 -0.1)">
      <defs>
       <path d="M 44.390625 34.1875 
Q 47.5625 33.109375 50.5625 29.59375 
Q 53.5625 26.078125 56.59375 19.921875 
L 66.609375 0 
L 56 0 
L 46.6875 18.703125 
Q 43.0625 26.03125 39.671875 28.421875 
Q 36.28125 30.8125 30.421875 30.8125 
L 19.671875 30.8125 
L 19.671875 0 
L 9.8125 0 
L 9.8125 72.90625 
L 32.078125 72.90625 
Q 44.578125 72.90625 50.734375 67.671875 
Q 56.890625 62.453125 56.890625 51.90625 
Q 56.890625 45.015625 53.6875 40.46875 
Q 50.484375 35.9375 44.390625 34.1875 
z
M 19.671875 64.796875 
L 19.671875 38.921875 
L 32.078125 38.921875 
Q 39.203125 38.921875 42.84375 42.21875 
Q 46.484375 45.515625 46.484375 51.90625 
Q 46.484375 58.296875 42.84375 61.546875 
Q 39.203125 64.796875 32.078125 64.796875 
z
" id="DejaVuSans-82"/>
      </defs>
      <use xlink:href="#DejaVuSans-82"/>
      <use x="69.482422" xlink:href="#DejaVuSans-83"/>
      <use x="132.958984" xlink:href="#DejaVuSans-104"/>
      <use x="196.337891" xlink:href="#DejaVuSans-111"/>
      <use x="257.519531" xlink:href="#DejaVuSans-117"/>
      <use x="320.898438" xlink:href="#DejaVuSans-108"/>
      <use x="348.681641" xlink:href="#DejaVuSans-100"/>
      <use x="412.158203" xlink:href="#DejaVuSans-101"/>
      <use x="473.681641" xlink:href="#DejaVuSans-114"/>
     </g>
    </g>
   </g>
   <g id="text_11">
    <g clip-path="url(#p02f5d508b2)">
     <!-- RElbow -->
     <g transform="translate(507.671216 261.13097)scale(0.1 -0.1)">
      <use xlink:href="#DejaVuSans-82"/>
      <use x="69.482422" xlink:href="#DejaVuSans-69"/>
      <use x="132.666016" xlink:href="#DejaVuSans-108"/>
      <use x="160.449219" xlink:href="#DejaVuSans-98"/>
      <use x="223.925781" xlink:href="#DejaVuSans-111"/>
      <use x="285.107422" xlink:href="#DejaVuSans-119"/>
     </g>
    </g>
   </g>
   <g id="text_12">
    <g clip-path="url(#p02f5d508b2)">
     <!-- RWrist -->
     <g transform="translate(485.619741 331.347397)scale(0.1 -0.1)">
      <use xlink:href="#DejaVuSans-82"/>
      <use x="65.482422" xlink:href="#DejaVuSans-87"/>
      <use x="159.859375" xlink:href="#DejaVuSans-114"/>
      <use x="200.972656" xlink:href="#DejaVuSans-105"/>
      <use x="228.755859" xlink:href="#DejaVuSans-115"/>
      <use x="280.855469" xlink:href="#DejaVuSans-116"/>
     </g>
    </g>
   </g>
   <g id="text_13">
    <g clip-path="url(#p02f5d508b2)">
     <!-- RHand -->
     <g transform="translate(453.15824 354.146344)scale(0.1 -0.1)">
      <use xlink:href="#DejaVuSans-82"/>
      <use x="69.482422" xlink:href="#DejaVuSans-72"/>
      <use x="144.677734" xlink:href="#DejaVuSans-97"/>
      <use x="205.957031" xlink:href="#DejaVuSans-110"/>
      <use x="269.335938" xlink:href="#DejaVuSans-100"/>
     </g>
    </g>
   </g>
   <g id="text_14">
    <g clip-path="url(#p02f5d508b2)">
     <!-- LHip -->
     <g transform="translate(225.996449 367.290556)scale(0.1 -0.1)">
      <use xlink:href="#DejaVuSans-76"/>
      <use x="55.712891" xlink:href="#DejaVuSans-72"/>
      <use x="130.908203" xlink:href="#DejaVuSans-105"/>
      <use x="158.691406" xlink:href="#DejaVuSans-112"/>
     </g>
    </g>
   </g>
   <g id="text_15">
    <g clip-path="url(#p02f5d508b2)">
     <!-- LKnee -->
     <g transform="translate(182.504881 548.483653)scale(0.1 -0.1)">
      <defs>
       <path d="M 9.8125 72.90625 
L 19.671875 72.90625 
L 19.671875 42.09375 
L 52.390625 72.90625 
L 65.09375 72.90625 
L 28.90625 38.921875 
L 67.671875 0 
L 54.6875 0 
L 19.671875 35.109375 
L 19.671875 0 
L 9.8125 0 
z
" id="DejaVuSans-75"/>
      </defs>
      <use xlink:href="#DejaVuSans-76"/>
      <use x="55.712891" xlink:href="#DejaVuSans-75"/>
      <use x="121.289062" xlink:href="#DejaVuSans-110"/>
      <use x="184.667969" xlink:href="#DejaVuSans-101"/>
      <use x="246.191406" xlink:href="#DejaVuSans-101"/>
     </g>
    </g>
   </g>
   <g id="text_16">
    <g clip-path="url(#p02f5d508b2)">
     <!-- LAnkle -->
     <g transform="translate(213.323902 688.30543)scale(0.1 -0.1)">
      <defs>
       <path d="M 34.1875 63.1875 
L 20.796875 26.90625 
L 47.609375 26.90625 
z
M 28.609375 72.90625 
L 39.796875 72.90625 
L 67.578125 0 
L 57.328125 0 
L 50.6875 18.703125 
L 17.828125 18.703125 
L 11.1875 0 
L 0.78125 0 
z
" id="DejaVuSans-65"/>
       <path d="M 9.078125 75.984375 
L 18.109375 75.984375 
L 18.109375 31.109375 
L 44.921875 54.6875 
L 56.390625 54.6875 
L 27.390625 29.109375 
L 57.625 0 
L 45.90625 0 
L 18.109375 26.703125 
L 18.109375 0 
L 9.078125 0 
z
" id="DejaVuSans-107"/>
      </defs>
      <use xlink:href="#DejaVuSans-76"/>
      <use x="57.962891" xlink:href="#DejaVuSans-65"/>
      <use x="126.371094" xlink:href="#DejaVuSans-110"/>
      <use x="189.75" xlink:href="#DejaVuSans-107"/>
      <use x="247.660156" xlink:href="#DejaVuSans-108"/>
      <use x="275.443359" xlink:href="#DejaVuSans-101"/>
     </g>
    </g>
   </g>
   <g id="text_17">
    <g clip-path="url(#p02f5d508b2)">
     <!-- LFoot -->
     <g transform="translate(216.210528 730.569197)scale(0.1 -0.1)">
      <defs>
       <path d="M 9.8125 72.90625 
L 51.703125 72.90625 
L 51.703125 64.59375 
L 19.671875 64.59375 
L 19.671875 43.109375 
L 48.578125 43.109375 
L 48.578125 34.8125 
L 19.671875 34.8125 
L 19.671875 0 
L 9.8125 0 
z
" id="DejaVuSans-70"/>
      </defs>
      <use xlink:href="#DejaVuSans-76"/>
      <use x="55.712891" xlink:href="#DejaVuSans-70"/>
      <use x="109.607422" xlink:href="#DejaVuSans-111"/>
      <use x="170.789062" xlink:href="#DejaVuSans-111"/>
      <use x="231.970703" xlink:href="#DejaVuSans-116"/>
     </g>
    </g>
   </g>
   <g id="text_18">
    <g clip-path="url(#p02f5d508b2)">
     <!-- RHip -->
     <g transform="translate(363.326097 363.400515)scale(0.1 -0.1)">
      <use xlink:href="#DejaVuSans-82"/>
      <use x="69.482422" xlink:href="#DejaVuSans-72"/>
      <use x="144.677734" xlink:href="#DejaVuSans-105"/>
      <use x="172.460938" xlink:href="#DejaVuSans-112"/>
     </g>
    </g>
   </g>
   <g id="text_19">
    <g clip-path="url(#p02f5d508b2)">
     <!-- RKnee -->
     <g transform="translate(369.537951 564.384342)scale(0.1 -0.1)">
      <use xlink:href="#DejaVuSans-82"/>
      <use x="69.482422" xlink:href="#DejaVuSans-75"/>
      <use x="135.058594" xlink:href="#DejaVuSans-110"/>
      <use x="198.4375" xlink:href="#DejaVuSans-101"/>
      <use x="259.960938" xlink:href="#DejaVuSans-101"/>
     </g>
    </g>
   </g>
   <g id="text_20">
    <g clip-path="url(#p02f5d508b2)">
     <!-- RAnkle -->
     <g transform="translate(369.506035 749.530147)scale(0.1 -0.1)">
      <use xlink:href="#DejaVuSans-82"/>
      <use x="65.482422" xlink:href="#DejaVuSans-65"/>
      <use x="133.890625" xlink:href="#DejaVuSans-110"/>
      <use x="197.269531" xlink:href="#DejaVuSans-107"/>
      <use x="255.179688" xlink:href="#DejaVuSans-108"/>
      <use x="282.962891" xlink:href="#DejaVuSans-101"/>
     </g>
    </g>
   </g>
   <g id="text_21">
    <g clip-path="url(#p02f5d508b2)">
     <!-- RFoot -->
     <g transform="translate(375.768295 791.784168)scale(0.1 -0.1)">
      <use xlink:href="#DejaVuSans-82"/>
      <use x="69.482422" xlink:href="#DejaVuSans-70"/>
      <use x="123.376953" xlink:href="#DejaVuSans-111"/>
      <use x="184.558594" xlink:href="#DejaVuSans-111"/>
      <use x="245.740234" xlink:href="#DejaVuSans-116"/>
     </g>
    </g>
   </g>
   <g id="text_22">
    <g clip-path="url(#p02f5d508b2)">
     <!-- LHandTip -->
     <g transform="translate(144 379.394961)scale(0.1 -0.1)">
      <defs>
       <path d="M -0.296875 72.90625 
L 61.375 72.90625 
L 61.375 64.59375 
L 35.5 64.59375 
L 35.5 0 
L 25.59375 0 
L 25.59375 64.59375 
L -0.296875 64.59375 
z
" id="DejaVuSans-84"/>
      </defs>
      <use xlink:href="#DejaVuSans-76"/>
      <use x="55.712891" xlink:href="#DejaVuSans-72"/>
      <use x="130.908203" xlink:href="#DejaVuSans-97"/>
      <use x="192.1875" xlink:href="#DejaVuSans-110"/>
      <use x="255.566406" xlink:href="#DejaVuSans-100"/>
      <use x="319.042969" xlink:href="#DejaVuSans-84"/>
      <use x="377.001953" xlink:href="#DejaVuSans-105"/>
      <use x="404.785156" xlink:href="#DejaVuSans-112"/>
     </g>
    </g>
   </g>
   <g id="text_23">
    <g clip-path="url(#p02f5d508b2)">
     <!-- LThumb -->
     <g transform="translate(58.609264 342.576802)scale(0.1 -0.1)">
      <defs>
       <path d="M 52 44.1875 
Q 55.375 50.25 60.0625 53.125 
Q 64.75 56 71.09375 56 
Q 79.640625 56 84.28125 50.015625 
Q 88.921875 44.046875 88.921875 33.015625 
L 88.921875 0 
L 79.890625 0 
L 79.890625 32.71875 
Q 79.890625 40.578125 77.09375 44.375 
Q 74.3125 48.1875 68.609375 48.1875 
Q 61.625 48.1875 57.5625 43.546875 
Q 53.515625 38.921875 53.515625 30.90625 
L 53.515625 0 
L 44.484375 0 
L 44.484375 32.71875 
Q 44.484375 40.625 41.703125 44.40625 
Q 38.921875 48.1875 33.109375 48.1875 
Q 26.21875 48.1875 22.15625 43.53125 
Q 18.109375 38.875 18.109375 30.90625 
L 18.109375 0 
L 9.078125 0 
L 9.078125 54.6875 
L 18.109375 54.6875 
L 18.109375 46.1875 
Q 21.1875 51.21875 25.484375 53.609375 
Q 29.78125 56 35.6875 56 
Q 41.65625 56 45.828125 52.96875 
Q 50 49.953125 52 44.1875 
z
" id="DejaVuSans-109"/>
      </defs>
      <use xlink:href="#DejaVuSans-76"/>
      <use x="41.962891" xlink:href="#DejaVuSans-84"/>
      <use x="103.046875" xlink:href="#DejaVuSans-104"/>
      <use x="166.425781" xlink:href="#DejaVuSans-117"/>
      <use x="229.804688" xlink:href="#DejaVuSans-109"/>
      <use x="327.216797" xlink:href="#DejaVuSans-98"/>
     </g>
    </g>
   </g>
   <g id="text_24">
    <g clip-path="url(#p02f5d508b2)">
     <!-- RHandTip -->
     <g transform="translate(420.69248 375.096463)scale(0.1 -0.1)">
      <use xlink:href="#DejaVuSans-82"/>
      <use x="69.482422" xlink:href="#DejaVuSans-72"/>
      <use x="144.677734" xlink:href="#DejaVuSans-97"/>
      <use x="205.957031" xlink:href="#DejaVuSans-110"/>
      <use x="269.335938" xlink:href="#DejaVuSans-100"/>
      <use x="332.8125" xlink:href="#DejaVuSans-84"/>
      <use x="390.771484" xlink:href="#DejaVuSans-105"/>
      <use x="418.554688" xlink:href="#DejaVuSans-112"/>
     </g>
    </g>
   </g>
   <g id="text_25">
    <g clip-path="url(#p02f5d508b2)">
     <!-- RThumb -->
     <g transform="translate(394.245519 349.680701)scale(0.1 -0.1)">
      <use xlink:href="#DejaVuSans-82"/>
      <use x="62.232422" xlink:href="#DejaVuSans-84"/>
      <use x="123.316406" xlink:href="#DejaVuSans-104"/>
      <use x="186.695312" xlink:href="#DejaVuSans-117"/>
      <use x="250.074219" xlink:href="#DejaVuSans-109"/>
      <use x="347.486328" xlink:href="#DejaVuSans-98"/>
     </g>
    </g>
   </g>
   <g id="text_26">
    <!-- Node Graph Visualization - Frame 151 -->
    <g transform="translate(174.194063 -6)scale(0.12 -0.12)">
     <defs>
      <path d="M 9.8125 72.90625 
L 23.09375 72.90625 
L 55.421875 11.921875 
L 55.421875 72.90625 
L 64.984375 72.90625 
L 64.984375 0 
L 51.703125 0 
L 19.390625 60.984375 
L 19.390625 0 
L 9.8125 0 
z
" id="DejaVuSans-78"/>
      <path id="DejaVuSans-32"/>
      <path d="M 59.515625 10.40625 
L 59.515625 29.984375 
L 43.40625 29.984375 
L 43.40625 38.09375 
L 69.28125 38.09375 
L 69.28125 6.78125 
Q 63.578125 2.734375 56.6875 0.65625 
Q 49.8125 -1.421875 42 -1.421875 
Q 24.90625 -1.421875 15.25 8.5625 
Q 5.609375 18.5625 5.609375 36.375 
Q 5.609375 54.25 15.25 64.234375 
Q 24.90625 74.21875 42 74.21875 
Q 49.125 74.21875 55.546875 72.453125 
Q 61.96875 70.703125 67.390625 67.28125 
L 67.390625 56.78125 
Q 61.921875 61.421875 55.765625 63.765625 
Q 49.609375 66.109375 42.828125 66.109375 
Q 29.4375 66.109375 22.71875 58.640625 
Q 16.015625 51.171875 16.015625 36.375 
Q 16.015625 21.625 22.71875 14.15625 
Q 29.4375 6.6875 42.828125 6.6875 
Q 48.046875 6.6875 52.140625 7.59375 
Q 56.25 8.5 59.515625 10.40625 
z
" id="DejaVuSans-71"/>
      <path d="M 28.609375 0 
L 0.78125 72.90625 
L 11.078125 72.90625 
L 34.1875 11.53125 
L 57.328125 72.90625 
L 67.578125 72.90625 
L 39.796875 0 
z
" id="DejaVuSans-86"/>
      <path d="M 5.515625 54.6875 
L 48.1875 54.6875 
L 48.1875 46.484375 
L 14.40625 7.171875 
L 48.1875 7.171875 
L 48.1875 0 
L 4.296875 0 
L 4.296875 8.203125 
L 38.09375 47.515625 
L 5.515625 47.515625 
z
" id="DejaVuSans-122"/>
      <path d="M 4.890625 31.390625 
L 31.203125 31.390625 
L 31.203125 23.390625 
L 4.890625 23.390625 
z
" id="DejaVuSans-45"/>
      <path d="M 12.40625 8.296875 
L 28.515625 8.296875 
L 28.515625 63.921875 
L 10.984375 60.40625 
L 10.984375 69.390625 
L 28.421875 72.90625 
L 38.28125 72.90625 
L 38.28125 8.296875 
L 54.390625 8.296875 
L 54.390625 0 
L 12.40625 0 
z
" id="DejaVuSans-49"/>
      <path d="M 10.796875 72.90625 
L 49.515625 72.90625 
L 49.515625 64.59375 
L 19.828125 64.59375 
L 19.828125 46.734375 
Q 21.96875 47.46875 24.109375 47.828125 
Q 26.265625 48.1875 28.421875 48.1875 
Q 40.625 48.1875 47.75 41.5 
Q 54.890625 34.8125 54.890625 23.390625 
Q 54.890625 11.625 47.5625 5.09375 
Q 40.234375 -1.421875 26.90625 -1.421875 
Q 22.3125 -1.421875 17.546875 -0.640625 
Q 12.796875 0.140625 7.71875 1.703125 
L 7.71875 11.625 
Q 12.109375 9.234375 16.796875 8.0625 
Q 21.484375 6.890625 26.703125 6.890625 
Q 35.15625 6.890625 40.078125 11.328125 
Q 45.015625 15.765625 45.015625 23.390625 
Q 45.015625 31 40.078125 35.4375 
Q 35.15625 39.890625 26.703125 39.890625 
Q 22.75 39.890625 18.8125 39.015625 
Q 14.890625 38.140625 10.796875 36.28125 
z
" id="DejaVuSans-53"/>
     </defs>
     <use xlink:href="#DejaVuSans-78"/>
     <use x="74.804688" xlink:href="#DejaVuSans-111"/>
     <use x="135.986328" xlink:href="#DejaVuSans-100"/>
     <use x="199.462891" xlink:href="#DejaVuSans-101"/>
     <use x="260.986328" xlink:href="#DejaVuSans-32"/>
     <use x="292.773438" xlink:href="#DejaVuSans-71"/>
     <use x="370.263672" xlink:href="#DejaVuSans-114"/>
     <use x="411.376953" xlink:href="#DejaVuSans-97"/>
     <use x="472.65625" xlink:href="#DejaVuSans-112"/>
     <use x="536.132812" xlink:href="#DejaVuSans-104"/>
     <use x="599.511719" xlink:href="#DejaVuSans-32"/>
     <use x="631.298828" xlink:href="#DejaVuSans-86"/>
     <use x="697.457031" xlink:href="#DejaVuSans-105"/>
     <use x="725.240234" xlink:href="#DejaVuSans-115"/>
     <use x="777.339844" xlink:href="#DejaVuSans-117"/>
     <use x="840.71875" xlink:href="#DejaVuSans-97"/>
     <use x="901.998047" xlink:href="#DejaVuSans-108"/>
     <use x="929.78125" xlink:href="#DejaVuSans-105"/>
     <use x="957.564453" xlink:href="#DejaVuSans-122"/>
     <use x="1010.054688" xlink:href="#DejaVuSans-97"/>
     <use x="1071.333984" xlink:href="#DejaVuSans-116"/>
     <use x="1110.542969" xlink:href="#DejaVuSans-105"/>
     <use x="1138.326172" xlink:href="#DejaVuSans-111"/>
     <use x="1199.507812" xlink:href="#DejaVuSans-110"/>
     <use x="1262.886719" xlink:href="#DejaVuSans-32"/>
     <use x="1294.673828" xlink:href="#DejaVuSans-45"/>
     <use x="1330.757812" xlink:href="#DejaVuSans-32"/>
     <use x="1362.544922" xlink:href="#DejaVuSans-70"/>
     <use x="1412.814453" xlink:href="#DejaVuSans-114"/>
     <use x="1453.927734" xlink:href="#DejaVuSans-97"/>
     <use x="1515.207031" xlink:href="#DejaVuSans-109"/>
     <use x="1612.619141" xlink:href="#DejaVuSans-101"/>
     <use x="1674.142578" xlink:href="#DejaVuSans-32"/>
     <use x="1705.929688" xlink:href="#DejaVuSans-49"/>
     <use x="1769.552734" xlink:href="#DejaVuSans-53"/>
     <use x="1833.175781" xlink:href="#DejaVuSans-49"/>
    </g>
   </g>
  </g>
 </g>
 <defs>
  <clipPath id="p02f5d508b2">
   <rect height="864" width="576" x="0" y="0"/>
  </clipPath>
 </defs>
</svg>
