<?xml version="1.0" encoding="utf-8" standalone="no"?>
<!DOCTYPE svg PUBLIC "-//W3C//DTD SVG 1.1//EN"
  "http://www.w3.org/Graphics/SVG/1.1/DTD/svg11.dtd">
<!-- Created with matplotlib (https://matplotlib.org/) -->
<svg height="864pt" version="1.1" viewBox="0 0 576 864" width="576pt" xmlns="http://www.w3.org/2000/svg" xmlns:xlink="http://www.w3.org/1999/xlink">
 <metadata>
  <rdf:RDF xmlns:cc="http://creativecommons.org/ns#" xmlns:dc="http://purl.org/dc/elements/1.1/" xmlns:rdf="http://www.w3.org/1999/02/22-rdf-syntax-ns#">
   <cc:Work>
    <dc:type rdf:resource="http://purl.org/dc/dcmitype/StillImage"/>
    <dc:date>2024-02-04T22:28:11.519283</dc:date>
    <dc:format>image/svg+xml</dc:format>
    <dc:creator>
     <cc:Agent>
      <dc:title>Matplotlib v3.3.2, https://matplotlib.org/</dc:title>
     </cc:Agent>
    </dc:creator>
   </cc:Work>
  </rdf:RDF>
 </metadata>
 <defs>
  <style type="text/css">*{stroke-linecap:butt;stroke-linejoin:round;}</style>
 </defs>
 <g id="figure_1">
  <g id="patch_1">
   <path d="M 0 864 
L 576 864 
L 576 0 
L 0 0 
z
" style="fill:#ffffff;"/>
  </g>
  <g id="axes_1">
   <g id="patch_2">
    <path clip-path="url(#p2becc42264)" d="M 327.054807 86.312836 
Q 319.999442 98.040426 313.52043 108.809988 
" style="fill:none;stroke:#000000;stroke-linecap:round;"/>
    <path clip-path="url(#p2becc42264)" d="M 317.296226 106.413456 
L 313.52043 108.809988 
L 313.868683 104.351432 
L 317.296226 106.413456 
z
" style="stroke:#000000;stroke-linecap:round;"/>
   </g>
   <g id="patch_3">
    <path clip-path="url(#p2becc42264)" d="M 305.611988 134.318629 
Q 305.502778 137.131805 305.436938 138.827789 
" style="fill:none;stroke:#000000;stroke-linecap:round;"/>
    <path clip-path="url(#p2becc42264)" d="M 307.5906 134.908383 
L 305.436938 138.827789 
L 303.593611 134.753217 
L 307.5906 134.908383 
z
" style="stroke:#000000;stroke-linecap:round;"/>
   </g>
   <g id="patch_4">
    <path clip-path="url(#p2becc42264)" d="M 312.945804 109.765146 
Q 320.001169 98.037556 326.480181 87.267993 
" style="fill:none;stroke:#000000;stroke-linecap:round;"/>
    <path clip-path="url(#p2becc42264)" d="M 322.704385 89.664525 
L 326.480181 87.267993 
L 326.131929 91.726549 
L 322.704385 89.664525 
z
" style="stroke:#000000;stroke-linecap:round;"/>
   </g>
   <g id="patch_5">
    <path clip-path="url(#p2becc42264)" d="M 304.033874 166.362493 
Q 301.730254 202.281429 299.49819 237.084622 
" style="fill:none;stroke:#000000;stroke-linecap:round;"/>
    <path clip-path="url(#p2becc42264)" d="M 301.750099 233.220828 
L 299.49819 237.084622 
L 297.7583 232.964819 
L 301.750099 233.220828 
z
" style="stroke:#000000;stroke-linecap:round;"/>
   </g>
   <g id="patch_6">
    <path clip-path="url(#p2becc42264)" d="M 291.652494 153.252975 
Q 222.894469 153.725439 155.25445 154.19022 
" style="fill:none;stroke:#000000;stroke-linecap:round;"/>
    <path clip-path="url(#p2becc42264)" d="M 159.268098 156.162688 
L 155.25445 154.19022 
L 159.240613 152.162782 
L 159.268098 156.162688 
z
" style="stroke:#000000;stroke-linecap:round;"/>
   </g>
   <g id="patch_7">
    <path clip-path="url(#p2becc42264)" d="M 318.041149 154.489051 
Q 394.967042 162.245364 470.780541 169.889515 
" style="fill:none;stroke:#000000;stroke-linecap:round;"/>
    <path clip-path="url(#p2becc42264)" d="M 467.001359 167.498326 
L 470.780541 169.889515 
L 466.600081 171.478147 
L 467.001359 167.498326 
z
" style="stroke:#000000;stroke-linecap:round;"/>
   </g>
   <g id="patch_8">
    <path clip-path="url(#p2becc42264)" d="M 305.393519 139.946227 
Q 305.50273 137.13305 305.568569 135.437066 
" style="fill:none;stroke:#000000;stroke-linecap:round;"/>
    <path clip-path="url(#p2becc42264)" d="M 303.414908 139.356472 
L 305.568569 135.437066 
L 307.411897 139.511639 
L 303.414908 139.356472 
z
" style="stroke:#000000;stroke-linecap:round;"/>
   </g>
   <g id="patch_9">
    <path clip-path="url(#p2becc42264)" d="M 297.482034 264.586687 
Q 293.019382 318.177199 288.649512 370.653533 
" style="fill:none;stroke:#000000;stroke-linecap:round;"/>
    <path clip-path="url(#p2becc42264)" d="M 290.974557 366.833302 
L 288.649512 370.653533 
L 286.988354 366.501358 
L 290.974557 366.833302 
z
" style="stroke:#000000;stroke-linecap:round;"/>
   </g>
   <g id="patch_10">
    <path clip-path="url(#p2becc42264)" d="M 299.426544 238.201759 
Q 301.730164 202.282824 303.962227 167.47963 
" style="fill:none;stroke:#000000;stroke-linecap:round;"/>
    <path clip-path="url(#p2becc42264)" d="M 301.710318 171.343425 
L 303.962227 167.47963 
L 305.702117 171.599434 
L 301.710318 171.343425 
z
" style="stroke:#000000;stroke-linecap:round;"/>
   </g>
   <g id="patch_11">
    <path clip-path="url(#p2becc42264)" d="M 274.231617 384.841343 
Q 247.956278 384.623687 222.798934 384.415291 
" style="fill:none;stroke:#000000;stroke-linecap:round;"/>
    <path clip-path="url(#p2becc42264)" d="M 226.78223 386.448356 
L 222.798934 384.415291 
L 226.815364 382.448494 
L 226.78223 386.448356 
z
" style="stroke:#000000;stroke-linecap:round;"/>
   </g>
   <g id="patch_12">
    <path clip-path="url(#p2becc42264)" d="M 300.674741 385.574899 
Q 319.163302 386.447837 336.535074 387.268045 
" style="fill:none;stroke:#000000;stroke-linecap:round;"/>
    <path clip-path="url(#p2becc42264)" d="M 332.63385 385.081621 
L 336.535074 387.268045 
L 332.4452 389.07717 
L 332.63385 385.081621 
z
" style="stroke:#000000;stroke-linecap:round;"/>
   </g>
   <g id="patch_13">
    <path clip-path="url(#p2becc42264)" d="M 288.55684 371.766399 
Q 293.019492 318.175887 297.389362 265.699553 
" style="fill:none;stroke:#000000;stroke-linecap:round;"/>
    <path clip-path="url(#p2becc42264)" d="M 295.064317 269.519784 
L 297.389362 265.699553 
L 299.05052 269.851728 
L 295.064317 269.519784 
z
" style="stroke:#000000;stroke-linecap:round;"/>
   </g>
   <g id="patch_14">
    <path clip-path="url(#p2becc42264)" d="M 131.328998 163.404745 
Q 95.44864 197.541242 60.37829 230.907099 
" style="fill:none;stroke:#000000;stroke-linecap:round;"/>
    <path clip-path="url(#p2becc42264)" d="M 64.654828 229.598959 
L 60.37829 230.907099 
L 61.897701 226.700985 
L 64.654828 229.598959 
z
" style="stroke:#000000;stroke-linecap:round;"/>
   </g>
   <g id="patch_15">
    <path clip-path="url(#p2becc42264)" d="M 154.138622 154.197887 
Q 222.896648 153.725424 290.536666 153.260643 
" style="fill:none;stroke:#000000;stroke-linecap:round;"/>
    <path clip-path="url(#p2becc42264)" d="M 286.523018 151.288175 
L 290.536666 153.260643 
L 286.550503 155.28808 
L 286.523018 151.288175 
z
" style="stroke:#000000;stroke-linecap:round;"/>
   </g>
   <g id="patch_16">
    <path clip-path="url(#p2becc42264)" d="M 56.950868 252.040052 
Q 83.2541 294.485786 108.968407 335.981168 
" style="fill:none;stroke:#000000;stroke-linecap:round;"/>
    <path clip-path="url(#p2becc42264)" d="M 108.561449 331.527586 
L 108.968407 335.981168 
L 105.161367 333.634586 
L 108.561449 331.527586 
z
" style="stroke:#000000;stroke-linecap:round;"/>
   </g>
   <g id="patch_17">
    <path clip-path="url(#p2becc42264)" d="M 59.565122 231.680745 
Q 95.44548 197.544248 130.51583 164.178391 
" style="fill:none;stroke:#000000;stroke-linecap:round;"/>
    <path clip-path="url(#p2becc42264)" d="M 126.239293 165.486531 
L 130.51583 164.178391 
L 128.996419 168.384505 
L 126.239293 165.486531 
z
" style="stroke:#000000;stroke-linecap:round;"/>
   </g>
   <g id="patch_18">
    <path clip-path="url(#p2becc42264)" d="M 129.69483 349.433843 
Q 143.261041 350.728584 155.714276 351.917104 
" style="fill:none;stroke:#000000;stroke-linecap:round;"/>
    <path clip-path="url(#p2becc42264)" d="M 151.922383 349.546123 
L 155.714276 351.917104 
L 151.542356 353.52803 
L 151.922383 349.546123 
z
" style="stroke:#000000;stroke-linecap:round;"/>
   </g>
   <g id="patch_19">
    <path clip-path="url(#p2becc42264)" d="M 109.558677 336.933691 
Q 83.255446 294.487957 57.541138 252.992575 
" style="fill:none;stroke:#000000;stroke-linecap:round;"/>
    <path clip-path="url(#p2becc42264)" d="M 57.948097 257.446156 
L 57.541138 252.992575 
L 61.348178 255.339157 
L 57.948097 257.446156 
z
" style="stroke:#000000;stroke-linecap:round;"/>
   </g>
   <g id="patch_20">
    <path clip-path="url(#p2becc42264)" d="M 180.38219 361.482288 
Q 184.384818 364.643614 187.510065 367.111974 
" style="fill:none;stroke:#000000;stroke-linecap:round;"/>
    <path clip-path="url(#p2becc42264)" d="M 185.610668 363.063235 
L 187.510065 367.111974 
L 183.131435 366.202248 
L 185.610668 363.063235 
z
" style="stroke:#000000;stroke-linecap:round;"/>
   </g>
   <g id="patch_21">
    <path clip-path="url(#p2becc42264)" d="M 182.798141 349.947047 
Q 196.631907 346.344827 209.383719 343.02434 
" style="fill:none;stroke:#000000;stroke-linecap:round;"/>
    <path clip-path="url(#p2becc42264)" d="M 205.008819 342.096842 
L 209.383719 343.02434 
L 206.016781 345.967761 
L 205.008819 342.096842 
z
" style="stroke:#000000;stroke-linecap:round;"/>
   </g>
   <g id="patch_22">
    <path clip-path="url(#p2becc42264)" d="M 156.828668 352.02346 
Q 143.262457 350.728719 130.809222 349.540199 
" style="fill:none;stroke:#000000;stroke-linecap:round;"/>
    <path clip-path="url(#p2becc42264)" d="M 134.601115 351.91118 
L 130.809222 349.540199 
L 134.981143 347.929274 
L 134.601115 351.91118 
z
" style="stroke:#000000;stroke-linecap:round;"/>
   </g>
   <g id="patch_23">
    <path clip-path="url(#p2becc42264)" d="M 489.594471 183.758198 
Q 505.536346 227.413996 521.094717 270.019592 
" style="fill:none;stroke:#000000;stroke-linecap:round;"/>
    <path clip-path="url(#p2becc42264)" d="M 521.601308 265.576241 
L 521.094717 270.019592 
L 517.843991 266.948308 
L 521.601308 265.576241 
z
" style="stroke:#000000;stroke-linecap:round;"/>
   </g>
   <g id="patch_24">
    <path clip-path="url(#p2becc42264)" d="M 471.894938 170.001878 
Q 394.969045 162.245566 319.155546 154.601414 
" style="fill:none;stroke:#000000;stroke-linecap:round;"/>
    <path clip-path="url(#p2becc42264)" d="M 322.934728 156.992603 
L 319.155546 154.601414 
L 323.336007 153.012782 
L 322.934728 156.992603 
z
" style="stroke:#000000;stroke-linecap:round;"/>
   </g>
   <g id="patch_25">
    <path clip-path="url(#p2becc42264)" d="M 522.78949 296.326086 
Q 515.026495 327.186273 507.536248 356.962205 
" style="fill:none;stroke:#000000;stroke-linecap:round;"/>
    <path clip-path="url(#p2becc42264)" d="M 510.451636 353.570965 
L 507.536248 356.962205 
L 506.572489 352.595151 
L 510.451636 353.570965 
z
" style="stroke:#000000;stroke-linecap:round;"/>
   </g>
   <g id="patch_26">
    <path clip-path="url(#p2becc42264)" d="M 521.477678 271.068306 
Q 505.535803 227.412509 489.977432 184.806913 
" style="fill:none;stroke:#000000;stroke-linecap:round;"/>
    <path clip-path="url(#p2becc42264)" d="M 489.470841 189.250264 
L 489.977432 184.806913 
L 493.228158 187.878197 
L 489.470841 189.250264 
z
" style="stroke:#000000;stroke-linecap:round;"/>
   </g>
   <g id="patch_27">
    <path clip-path="url(#p2becc42264)" d="M 493.082439 378.294589 
Q 482.165492 385.690877 472.17415 392.460062 
" style="fill:none;stroke:#000000;stroke-linecap:round;"/>
    <path clip-path="url(#p2becc42264)" d="M 476.607487 391.872247 
L 472.17415 392.460062 
L 474.363899 388.560704 
L 476.607487 391.872247 
z
" style="stroke:#000000;stroke-linecap:round;"/>
   </g>
   <g id="patch_28">
    <path clip-path="url(#p2becc42264)" d="M 507.264018 358.044403 
Q 515.027013 327.184216 522.517259 297.408283 
" style="fill:none;stroke:#000000;stroke-linecap:round;"/>
    <path clip-path="url(#p2becc42264)" d="M 519.601871 300.799524 
L 522.517259 297.408283 
L 523.481019 301.775338 
L 519.601871 300.799524 
z
" style="stroke:#000000;stroke-linecap:round;"/>
   </g>
   <g id="patch_29">
    <path clip-path="url(#p2becc42264)" d="M 450.483602 409.381795 
Q 444.224037 415.043228 438.793664 419.954702 
" style="fill:none;stroke:#000000;stroke-linecap:round;"/>
    <path clip-path="url(#p2becc42264)" d="M 443.101843 418.754871 
L 438.793664 419.954702 
L 440.418707 415.78826 
L 443.101843 418.754871 
z
" style="stroke:#000000;stroke-linecap:round;"/>
   </g>
   <g id="patch_30">
    <path clip-path="url(#p2becc42264)" d="M 447.214253 398.544757 
Q 434.206297 396.591021 422.303974 394.803345 
" style="fill:none;stroke:#000000;stroke-linecap:round;"/>
    <path clip-path="url(#p2becc42264)" d="M 425.962547 397.375279 
L 422.303974 394.803345 
L 426.556665 393.419647 
L 425.962547 397.375279 
z
" style="stroke:#000000;stroke-linecap:round;"/>
   </g>
   <g id="patch_31">
    <path clip-path="url(#p2becc42264)" d="M 471.248115 393.087456 
Q 482.165062 385.691168 492.156404 378.921983 
" style="fill:none;stroke:#000000;stroke-linecap:round;"/>
    <path clip-path="url(#p2becc42264)" d="M 487.723067 379.509799 
L 492.156404 378.921983 
L 489.966654 382.821341 
L 487.723067 379.509799 
z
" style="stroke:#000000;stroke-linecap:round;"/>
   </g>
   <g id="patch_32">
    <path clip-path="url(#p2becc42264)" d="M 202.680947 396.202293 
Q 171.596382 460.331421 140.999478 523.454475 
" style="fill:none;stroke:#000000;stroke-linecap:round;"/>
    <path clip-path="url(#p2becc42264)" d="M 144.543913 520.727392 
L 140.999478 523.454475 
L 140.944473 518.982677 
L 144.543913 520.727392 
z
" style="stroke:#000000;stroke-linecap:round;"/>
   </g>
   <g id="patch_33">
    <path clip-path="url(#p2becc42264)" d="M 221.679237 384.406016 
Q 247.954576 384.623673 273.11192 384.832068 
" style="fill:none;stroke:#000000;stroke-linecap:round;"/>
    <path clip-path="url(#p2becc42264)" d="M 269.128624 382.799003 
L 273.11192 384.832068 
L 269.09549 386.798866 
L 269.128624 382.799003 
z
" style="stroke:#000000;stroke-linecap:round;"/>
   </g>
   <g id="patch_34">
    <path clip-path="url(#p2becc42264)" d="M 135.256486 549.581256 
Q 137.394751 604.480077 139.489502 658.26171 
" style="fill:none;stroke:#000000;stroke-linecap:round;"/>
    <path clip-path="url(#p2becc42264)" d="M 141.332308 654.186901 
L 139.489502 658.26171 
L 137.335339 654.34258 
L 141.332308 654.186901 
z
" style="stroke:#000000;stroke-linecap:round;"/>
   </g>
   <g id="patch_35">
    <path clip-path="url(#p2becc42264)" d="M 140.512691 524.458744 
Q 171.597257 460.329616 202.19416 397.206562 
" style="fill:none;stroke:#000000;stroke-linecap:round;"/>
    <path clip-path="url(#p2becc42264)" d="M 198.649725 399.933645 
L 202.19416 397.206562 
L 202.249165 401.67836 
L 198.649725 399.933645 
z
" style="stroke:#000000;stroke-linecap:round;"/>
   </g>
   <g id="patch_36">
    <path clip-path="url(#p2becc42264)" d="M 136.642775 685.378387 
Q 134.284038 694.232002 132.213122 702.005266 
" style="fill:none;stroke:#000000;stroke-linecap:round;"/>
    <path clip-path="url(#p2becc42264)" d="M 135.175456 698.654955 
L 132.213122 702.005266 
L 131.310274 697.625212 
L 135.175456 698.654955 
z
" style="stroke:#000000;stroke-linecap:round;"/>
   </g>
   <g id="patch_37">
    <path clip-path="url(#p2becc42264)" d="M 139.533082 659.380597 
Q 137.394817 604.481776 135.300066 550.700143 
" style="fill:none;stroke:#000000;stroke-linecap:round;"/>
    <path clip-path="url(#p2becc42264)" d="M 133.45726 554.774952 
L 135.300066 550.700143 
L 137.454229 554.619273 
L 133.45726 554.774952 
z
" style="stroke:#000000;stroke-linecap:round;"/>
   </g>
   <g id="patch_38">
    <path clip-path="url(#p2becc42264)" d="M 131.923927 703.090771 
Q 134.282664 694.237156 136.35358 686.463892 
" style="fill:none;stroke:#000000;stroke-linecap:round;"/>
    <path clip-path="url(#p2becc42264)" d="M 133.391246 689.814203 
L 136.35358 686.463892 
L 137.256427 690.843945 
L 133.391246 689.814203 
z
" style="stroke:#000000;stroke-linecap:round;"/>
   </g>
   <g id="patch_39">
    <path clip-path="url(#p2becc42264)" d="M 350.19744 401.157759 
Q 346.55907 473.293157 342.97702 544.311941 
" style="fill:none;stroke:#000000;stroke-linecap:round;"/>
    <path clip-path="url(#p2becc42264)" d="M 345.175977 540.417767 
L 342.97702 544.311941 
L 341.181056 540.216271 
L 345.175977 540.417767 
z
" style="stroke:#000000;stroke-linecap:round;"/>
   </g>
   <g id="patch_40">
    <path clip-path="url(#p2becc42264)" d="M 337.648069 387.320595 
Q 319.159508 386.447658 301.787736 385.627449 
" style="fill:none;stroke:#000000;stroke-linecap:round;"/>
    <path clip-path="url(#p2becc42264)" d="M 305.68896 387.813874 
L 301.787736 385.627449 
L 305.87761 383.818325 
L 305.68896 387.813874 
z
" style="stroke:#000000;stroke-linecap:round;"/>
   </g>
   <g id="patch_41">
    <path clip-path="url(#p2becc42264)" d="M 338.210698 571.234808 
Q 312.310254 651.906297 286.751584 731.513271 
" style="fill:none;stroke:#000000;stroke-linecap:round;"/>
    <path clip-path="url(#p2becc42264)" d="M 289.878611 728.316132 
L 286.751584 731.513271 
L 286.070089 727.093366 
L 289.878611 728.316132 
z
" style="stroke:#000000;stroke-linecap:round;"/>
   </g>
   <g id="patch_42">
    <path clip-path="url(#p2becc42264)" d="M 342.920778 545.427023 
Q 346.559147 473.291625 350.141197 402.272842 
" style="fill:none;stroke:#000000;stroke-linecap:round;"/>
    <path clip-path="url(#p2becc42264)" d="M 347.94224 406.167015 
L 350.141197 402.272842 
L 351.937162 406.368511 
L 347.94224 406.167015 
z
" style="stroke:#000000;stroke-linecap:round;"/>
   </g>
   <g id="patch_43">
    <path clip-path="url(#p2becc42264)" d="M 279.867649 758.160864 
Q 278.148087 767.099423 276.639734 774.940079 
" style="fill:none;stroke:#000000;stroke-linecap:round;"/>
    <path clip-path="url(#p2becc42264)" d="M 279.35937 771.389926 
L 276.639734 774.940079 
L 275.431394 770.634279 
L 279.35937 771.389926 
z
" style="stroke:#000000;stroke-linecap:round;"/>
   </g>
   <g id="patch_44">
    <path clip-path="url(#p2becc42264)" d="M 286.41016 732.576695 
Q 312.310604 651.905207 337.869274 572.298232 
" style="fill:none;stroke:#000000;stroke-linecap:round;"/>
    <path clip-path="url(#p2becc42264)" d="M 334.742246 575.495371 
L 337.869274 572.298232 
L 338.550768 576.718138 
L 334.742246 575.495371 
z
" style="stroke:#000000;stroke-linecap:round;"/>
   </g>
   <g id="patch_45">
    <path clip-path="url(#p2becc42264)" d="M 276.429054 776.035231 
Q 278.148616 767.096672 279.656969 759.256016 
" style="fill:none;stroke:#000000;stroke-linecap:round;"/>
    <path clip-path="url(#p2becc42264)" d="M 276.937333 762.806168 
L 279.656969 759.256016 
L 280.865309 763.561816 
L 276.937333 762.806168 
z
" style="stroke:#000000;stroke-linecap:round;"/>
   </g>
   <g id="patch_46">
    <path clip-path="url(#p2becc42264)" d="M 188.382358 367.800922 
Q 184.37973 364.639595 181.254483 362.171236 
" style="fill:none;stroke:#000000;stroke-linecap:round;"/>
    <path clip-path="url(#p2becc42264)" d="M 183.15388 366.219975 
L 181.254483 362.171236 
L 185.633112 363.080962 
L 183.15388 366.219975 
z
" style="stroke:#000000;stroke-linecap:round;"/>
   </g>
   <g id="patch_47">
    <path clip-path="url(#p2becc42264)" d="M 210.467458 342.742142 
Q 196.633692 346.344362 183.88188 349.664849 
" style="fill:none;stroke:#000000;stroke-linecap:round;"/>
    <path clip-path="url(#p2becc42264)" d="M 188.25678 350.592347 
L 183.88188 349.664849 
L 187.248819 346.721428 
L 188.25678 350.592347 
z
" style="stroke:#000000;stroke-linecap:round;"/>
   </g>
   <g id="patch_48">
    <path clip-path="url(#p2becc42264)" d="M 437.964657 420.704494 
Q 444.224222 415.04306 449.654595 410.131586 
" style="fill:none;stroke:#000000;stroke-linecap:round;"/>
    <path clip-path="url(#p2becc42264)" d="M 445.346416 411.331417 
L 449.654595 410.131586 
L 448.029553 414.298028 
L 445.346416 411.331417 
z
" style="stroke:#000000;stroke-linecap:round;"/>
   </g>
   <g id="patch_49">
    <path clip-path="url(#p2becc42264)" d="M 421.195732 394.636892 
Q 434.203687 396.590629 446.10601 398.378304 
" style="fill:none;stroke:#000000;stroke-linecap:round;"/>
    <path clip-path="url(#p2becc42264)" d="M 442.447437 395.80637 
L 446.10601 398.378304 
L 441.853319 399.762002 
L 442.447437 395.80637 
z
" style="stroke:#000000;stroke-linecap:round;"/>
   </g>
   <g id="PathCollection_1">
    <defs>
     <path d="M 0 13.228757 
C 3.508307 13.228757 6.873396 11.834891 9.354143 9.354143 
C 11.834891 6.873396 13.228757 3.508307 13.228757 0 
C 13.228757 -3.508307 11.834891 -6.873396 9.354143 -9.354143 
C 6.873396 -11.834891 3.508307 -13.228757 0 -13.228757 
C -3.508307 -13.228757 -6.873396 -11.834891 -9.354143 -9.354143 
C -11.834891 -6.873396 -13.228757 -3.508307 -13.228757 0 
C -13.228757 3.508307 -11.834891 6.873396 -9.354143 9.354143 
C -6.873396 11.834891 -3.508307 13.228757 0 13.228757 
z
" id="me368b69e48" style="stroke:#87ceeb;"/>
    </defs>
    <g clip-path="url(#p2becc42264)">
     <use style="fill:#87ceeb;stroke:#87ceeb;" x="333.875571" xlink:href="#me368b69e48" y="74.975207"/>
     <use style="fill:#87ceeb;stroke:#87ceeb;" x="306.12504" xlink:href="#me368b69e48" y="121.102775"/>
     <use style="fill:#87ceeb;stroke:#87ceeb;" x="304.880467" xlink:href="#me368b69e48" y="153.162081"/>
     <use style="fill:#87ceeb;stroke:#87ceeb;" x="298.57995" xlink:href="#me368b69e48" y="251.402172"/>
     <use style="fill:#87ceeb;stroke:#87ceeb;" x="287.458923" xlink:href="#me368b69e48" y="384.950914"/>
     <use style="fill:#87ceeb;stroke:#87ceeb;" x="140.910649" xlink:href="#me368b69e48" y="154.288782"/>
     <use style="fill:#87ceeb;stroke:#87ceeb;" x="49.983471" xlink:href="#me368b69e48" y="240.796708"/>
     <use style="fill:#87ceeb;stroke:#87ceeb;" x="116.526074" xlink:href="#me368b69e48" y="348.177035"/>
     <use style="fill:#87ceeb;stroke:#87ceeb;" x="169.997424" xlink:href="#me368b69e48" y="353.280269"/>
     <use style="fill:#87ceeb;stroke:#87ceeb;" x="485.05562" xlink:href="#me368b69e48" y="171.328848"/>
     <use style="fill:#87ceeb;stroke:#87ceeb;" x="526.016529" xlink:href="#me368b69e48" y="283.497656"/>
     <use style="fill:#87ceeb;stroke:#87ceeb;" x="504.036979" xlink:href="#me368b69e48" y="370.872832"/>
     <use style="fill:#87ceeb;stroke:#87ceeb;" x="460.293575" xlink:href="#me368b69e48" y="400.509213"/>
     <use style="fill:#87ceeb;stroke:#87ceeb;" x="208.451931" xlink:href="#me368b69e48" y="384.296445"/>
     <use style="fill:#87ceeb;stroke:#87ceeb;" x="134.741708" xlink:href="#me368b69e48" y="536.364592"/>
     <use style="fill:#87ceeb;stroke:#87ceeb;" x="140.04786" xlink:href="#me368b69e48" y="672.597261"/>
     <use style="fill:#87ceeb;stroke:#87ceeb;" x="128.518842" xlink:href="#me368b69e48" y="715.871897"/>
     <use style="fill:#87ceeb;stroke:#87ceeb;" x="350.863887" xlink:href="#me368b69e48" y="387.94458"/>
     <use style="fill:#87ceeb;stroke:#87ceeb;" x="342.254331" xlink:href="#me368b69e48" y="558.640202"/>
     <use style="fill:#87ceeb;stroke:#87ceeb;" x="282.366527" xlink:href="#me368b69e48" y="745.171301"/>
     <use style="fill:#87ceeb;stroke:#87ceeb;" x="273.930176" xlink:href="#me368b69e48" y="789.024793"/>
     <use style="fill:#87ceeb;stroke:#87ceeb;" x="198.767124" xlink:href="#me368b69e48" y="376.002941"/>
     <use style="fill:#87ceeb;stroke:#87ceeb;" x="223.268175" xlink:href="#me368b69e48" y="339.408921"/>
     <use style="fill:#87ceeb;stroke:#87ceeb;" x="428.154684" xlink:href="#me368b69e48" y="429.577075"/>
     <use style="fill:#87ceeb;stroke:#87ceeb;" x="408.116409" xlink:href="#me368b69e48" y="392.672436"/>
    </g>
   </g>
   <g id="text_1">
    <g clip-path="url(#p2becc42264)">
     <!-- Head -->
     <g transform="translate(320.800571 77.734582)scale(0.1 -0.1)">
      <defs>
       <path d="M 9.8125 72.90625 
L 19.671875 72.90625 
L 19.671875 43.015625 
L 55.515625 43.015625 
L 55.515625 72.90625 
L 65.375 72.90625 
L 65.375 0 
L 55.515625 0 
L 55.515625 34.71875 
L 19.671875 34.71875 
L 19.671875 0 
L 9.8125 0 
z
" id="DejaVuSans-72"/>
       <path d="M 56.203125 29.59375 
L 56.203125 25.203125 
L 14.890625 25.203125 
Q 15.484375 15.921875 20.484375 11.0625 
Q 25.484375 6.203125 34.421875 6.203125 
Q 39.59375 6.203125 44.453125 7.46875 
Q 49.3125 8.734375 54.109375 11.28125 
L 54.109375 2.78125 
Q 49.265625 0.734375 44.1875 -0.34375 
Q 39.109375 -1.421875 33.890625 -1.421875 
Q 20.796875 -1.421875 13.15625 6.1875 
Q 5.515625 13.8125 5.515625 26.8125 
Q 5.515625 40.234375 12.765625 48.109375 
Q 20.015625 56 32.328125 56 
Q 43.359375 56 49.78125 48.890625 
Q 56.203125 41.796875 56.203125 29.59375 
z
M 47.21875 32.234375 
Q 47.125 39.59375 43.09375 43.984375 
Q 39.0625 48.390625 32.421875 48.390625 
Q 24.90625 48.390625 20.390625 44.140625 
Q 15.875 39.890625 15.1875 32.171875 
z
" id="DejaVuSans-101"/>
       <path d="M 34.28125 27.484375 
Q 23.390625 27.484375 19.1875 25 
Q 14.984375 22.515625 14.984375 16.5 
Q 14.984375 11.71875 18.140625 8.90625 
Q 21.296875 6.109375 26.703125 6.109375 
Q 34.1875 6.109375 38.703125 11.40625 
Q 43.21875 16.703125 43.21875 25.484375 
L 43.21875 27.484375 
z
M 52.203125 31.203125 
L 52.203125 0 
L 43.21875 0 
L 43.21875 8.296875 
Q 40.140625 3.328125 35.546875 0.953125 
Q 30.953125 -1.421875 24.3125 -1.421875 
Q 15.921875 -1.421875 10.953125 3.296875 
Q 6 8.015625 6 15.921875 
Q 6 25.140625 12.171875 29.828125 
Q 18.359375 34.515625 30.609375 34.515625 
L 43.21875 34.515625 
L 43.21875 35.40625 
Q 43.21875 41.609375 39.140625 45 
Q 35.0625 48.390625 27.6875 48.390625 
Q 23 48.390625 18.546875 47.265625 
Q 14.109375 46.140625 10.015625 43.890625 
L 10.015625 52.203125 
Q 14.9375 54.109375 19.578125 55.046875 
Q 24.21875 56 28.609375 56 
Q 40.484375 56 46.34375 49.84375 
Q 52.203125 43.703125 52.203125 31.203125 
z
" id="DejaVuSans-97"/>
       <path d="M 45.40625 46.390625 
L 45.40625 75.984375 
L 54.390625 75.984375 
L 54.390625 0 
L 45.40625 0 
L 45.40625 8.203125 
Q 42.578125 3.328125 38.25 0.953125 
Q 33.9375 -1.421875 27.875 -1.421875 
Q 17.96875 -1.421875 11.734375 6.484375 
Q 5.515625 14.40625 5.515625 27.296875 
Q 5.515625 40.1875 11.734375 48.09375 
Q 17.96875 56 27.875 56 
Q 33.9375 56 38.25 53.625 
Q 42.578125 51.265625 45.40625 46.390625 
z
M 14.796875 27.296875 
Q 14.796875 17.390625 18.875 11.75 
Q 22.953125 6.109375 30.078125 6.109375 
Q 37.203125 6.109375 41.296875 11.75 
Q 45.40625 17.390625 45.40625 27.296875 
Q 45.40625 37.203125 41.296875 42.84375 
Q 37.203125 48.484375 30.078125 48.484375 
Q 22.953125 48.484375 18.875 42.84375 
Q 14.796875 37.203125 14.796875 27.296875 
z
" id="DejaVuSans-100"/>
      </defs>
      <use xlink:href="#DejaVuSans-72"/>
      <use x="75.195312" xlink:href="#DejaVuSans-101"/>
      <use x="136.71875" xlink:href="#DejaVuSans-97"/>
      <use x="197.998047" xlink:href="#DejaVuSans-100"/>
     </g>
    </g>
   </g>
   <g id="text_2">
    <g clip-path="url(#p2becc42264)">
     <!-- c7 -->
     <g transform="translate(300.194572 123.86215)scale(0.1 -0.1)">
      <defs>
       <path d="M 48.78125 52.59375 
L 48.78125 44.1875 
Q 44.96875 46.296875 41.140625 47.34375 
Q 37.3125 48.390625 33.40625 48.390625 
Q 24.65625 48.390625 19.8125 42.84375 
Q 14.984375 37.3125 14.984375 27.296875 
Q 14.984375 17.28125 19.8125 11.734375 
Q 24.65625 6.203125 33.40625 6.203125 
Q 37.3125 6.203125 41.140625 7.25 
Q 44.96875 8.296875 48.78125 10.40625 
L 48.78125 2.09375 
Q 45.015625 0.34375 40.984375 -0.53125 
Q 36.96875 -1.421875 32.421875 -1.421875 
Q 20.0625 -1.421875 12.78125 6.34375 
Q 5.515625 14.109375 5.515625 27.296875 
Q 5.515625 40.671875 12.859375 48.328125 
Q 20.21875 56 33.015625 56 
Q 37.15625 56 41.109375 55.140625 
Q 45.0625 54.296875 48.78125 52.59375 
z
" id="DejaVuSans-99"/>
       <path d="M 8.203125 72.90625 
L 55.078125 72.90625 
L 55.078125 68.703125 
L 28.609375 0 
L 18.3125 0 
L 43.21875 64.59375 
L 8.203125 64.59375 
z
" id="DejaVuSans-55"/>
      </defs>
      <use xlink:href="#DejaVuSans-99"/>
      <use x="54.980469" xlink:href="#DejaVuSans-55"/>
     </g>
    </g>
   </g>
   <g id="text_3">
    <g clip-path="url(#p2becc42264)">
     <!-- SpineShoulder -->
     <g transform="translate(268.631248 155.921456)scale(0.1 -0.1)">
      <defs>
       <path d="M 53.515625 70.515625 
L 53.515625 60.890625 
Q 47.90625 63.578125 42.921875 64.890625 
Q 37.9375 66.21875 33.296875 66.21875 
Q 25.25 66.21875 20.875 63.09375 
Q 16.5 59.96875 16.5 54.203125 
Q 16.5 49.359375 19.40625 46.890625 
Q 22.3125 44.4375 30.421875 42.921875 
L 36.375 41.703125 
Q 47.40625 39.59375 52.65625 34.296875 
Q 57.90625 29 57.90625 20.125 
Q 57.90625 9.515625 50.796875 4.046875 
Q 43.703125 -1.421875 29.984375 -1.421875 
Q 24.8125 -1.421875 18.96875 -0.25 
Q 13.140625 0.921875 6.890625 3.21875 
L 6.890625 13.375 
Q 12.890625 10.015625 18.65625 8.296875 
Q 24.421875 6.59375 29.984375 6.59375 
Q 38.421875 6.59375 43.015625 9.90625 
Q 47.609375 13.234375 47.609375 19.390625 
Q 47.609375 24.75 44.3125 27.78125 
Q 41.015625 30.8125 33.5 32.328125 
L 27.484375 33.5 
Q 16.453125 35.6875 11.515625 40.375 
Q 6.59375 45.0625 6.59375 53.421875 
Q 6.59375 63.09375 13.40625 68.65625 
Q 20.21875 74.21875 32.171875 74.21875 
Q 37.3125 74.21875 42.625 73.28125 
Q 47.953125 72.359375 53.515625 70.515625 
z
" id="DejaVuSans-83"/>
       <path d="M 18.109375 8.203125 
L 18.109375 -20.796875 
L 9.078125 -20.796875 
L 9.078125 54.6875 
L 18.109375 54.6875 
L 18.109375 46.390625 
Q 20.953125 51.265625 25.265625 53.625 
Q 29.59375 56 35.59375 56 
Q 45.5625 56 51.78125 48.09375 
Q 58.015625 40.1875 58.015625 27.296875 
Q 58.015625 14.40625 51.78125 6.484375 
Q 45.5625 -1.421875 35.59375 -1.421875 
Q 29.59375 -1.421875 25.265625 0.953125 
Q 20.953125 3.328125 18.109375 8.203125 
z
M 48.6875 27.296875 
Q 48.6875 37.203125 44.609375 42.84375 
Q 40.53125 48.484375 33.40625 48.484375 
Q 26.265625 48.484375 22.1875 42.84375 
Q 18.109375 37.203125 18.109375 27.296875 
Q 18.109375 17.390625 22.1875 11.75 
Q 26.265625 6.109375 33.40625 6.109375 
Q 40.53125 6.109375 44.609375 11.75 
Q 48.6875 17.390625 48.6875 27.296875 
z
" id="DejaVuSans-112"/>
       <path d="M 9.421875 54.6875 
L 18.40625 54.6875 
L 18.40625 0 
L 9.421875 0 
z
M 9.421875 75.984375 
L 18.40625 75.984375 
L 18.40625 64.59375 
L 9.421875 64.59375 
z
" id="DejaVuSans-105"/>
       <path d="M 54.890625 33.015625 
L 54.890625 0 
L 45.90625 0 
L 45.90625 32.71875 
Q 45.90625 40.484375 42.875 44.328125 
Q 39.84375 48.1875 33.796875 48.1875 
Q 26.515625 48.1875 22.3125 43.546875 
Q 18.109375 38.921875 18.109375 30.90625 
L 18.109375 0 
L 9.078125 0 
L 9.078125 54.6875 
L 18.109375 54.6875 
L 18.109375 46.1875 
Q 21.34375 51.125 25.703125 53.5625 
Q 30.078125 56 35.796875 56 
Q 45.21875 56 50.046875 50.171875 
Q 54.890625 44.34375 54.890625 33.015625 
z
" id="DejaVuSans-110"/>
       <path d="M 54.890625 33.015625 
L 54.890625 0 
L 45.90625 0 
L 45.90625 32.71875 
Q 45.90625 40.484375 42.875 44.328125 
Q 39.84375 48.1875 33.796875 48.1875 
Q 26.515625 48.1875 22.3125 43.546875 
Q 18.109375 38.921875 18.109375 30.90625 
L 18.109375 0 
L 9.078125 0 
L 9.078125 75.984375 
L 18.109375 75.984375 
L 18.109375 46.1875 
Q 21.34375 51.125 25.703125 53.5625 
Q 30.078125 56 35.796875 56 
Q 45.21875 56 50.046875 50.171875 
Q 54.890625 44.34375 54.890625 33.015625 
z
" id="DejaVuSans-104"/>
       <path d="M 30.609375 48.390625 
Q 23.390625 48.390625 19.1875 42.75 
Q 14.984375 37.109375 14.984375 27.296875 
Q 14.984375 17.484375 19.15625 11.84375 
Q 23.34375 6.203125 30.609375 6.203125 
Q 37.796875 6.203125 41.984375 11.859375 
Q 46.1875 17.53125 46.1875 27.296875 
Q 46.1875 37.015625 41.984375 42.703125 
Q 37.796875 48.390625 30.609375 48.390625 
z
M 30.609375 56 
Q 42.328125 56 49.015625 48.375 
Q 55.71875 40.765625 55.71875 27.296875 
Q 55.71875 13.875 49.015625 6.21875 
Q 42.328125 -1.421875 30.609375 -1.421875 
Q 18.84375 -1.421875 12.171875 6.21875 
Q 5.515625 13.875 5.515625 27.296875 
Q 5.515625 40.765625 12.171875 48.375 
Q 18.84375 56 30.609375 56 
z
" id="DejaVuSans-111"/>
       <path d="M 8.5 21.578125 
L 8.5 54.6875 
L 17.484375 54.6875 
L 17.484375 21.921875 
Q 17.484375 14.15625 20.5 10.265625 
Q 23.53125 6.390625 29.59375 6.390625 
Q 36.859375 6.390625 41.078125 11.03125 
Q 45.3125 15.671875 45.3125 23.6875 
L 45.3125 54.6875 
L 54.296875 54.6875 
L 54.296875 0 
L 45.3125 0 
L 45.3125 8.40625 
Q 42.046875 3.421875 37.71875 1 
Q 33.40625 -1.421875 27.6875 -1.421875 
Q 18.265625 -1.421875 13.375 4.4375 
Q 8.5 10.296875 8.5 21.578125 
z
M 31.109375 56 
z
" id="DejaVuSans-117"/>
       <path d="M 9.421875 75.984375 
L 18.40625 75.984375 
L 18.40625 0 
L 9.421875 0 
z
" id="DejaVuSans-108"/>
       <path d="M 41.109375 46.296875 
Q 39.59375 47.171875 37.8125 47.578125 
Q 36.03125 48 33.890625 48 
Q 26.265625 48 22.1875 43.046875 
Q 18.109375 38.09375 18.109375 28.8125 
L 18.109375 0 
L 9.078125 0 
L 9.078125 54.6875 
L 18.109375 54.6875 
L 18.109375 46.1875 
Q 20.953125 51.171875 25.484375 53.578125 
Q 30.03125 56 36.53125 56 
Q 37.453125 56 38.578125 55.875 
Q 39.703125 55.765625 41.0625 55.515625 
z
" id="DejaVuSans-114"/>
      </defs>
      <use xlink:href="#DejaVuSans-83"/>
      <use x="63.476562" xlink:href="#DejaVuSans-112"/>
      <use x="126.953125" xlink:href="#DejaVuSans-105"/>
      <use x="154.736328" xlink:href="#DejaVuSans-110"/>
      <use x="218.115234" xlink:href="#DejaVuSans-101"/>
      <use x="279.638672" xlink:href="#DejaVuSans-83"/>
      <use x="343.115234" xlink:href="#DejaVuSans-104"/>
      <use x="406.494141" xlink:href="#DejaVuSans-111"/>
      <use x="467.675781" xlink:href="#DejaVuSans-117"/>
      <use x="531.054688" xlink:href="#DejaVuSans-108"/>
      <use x="558.837891" xlink:href="#DejaVuSans-100"/>
      <use x="622.314453" xlink:href="#DejaVuSans-101"/>
      <use x="683.837891" xlink:href="#DejaVuSans-114"/>
     </g>
    </g>
   </g>
   <g id="text_4">
    <g clip-path="url(#p2becc42264)">
     <!-- Spine -->
     <g transform="translate(284.597138 254.161547)scale(0.1 -0.1)">
      <use xlink:href="#DejaVuSans-83"/>
      <use x="63.476562" xlink:href="#DejaVuSans-112"/>
      <use x="126.953125" xlink:href="#DejaVuSans-105"/>
      <use x="154.736328" xlink:href="#DejaVuSans-110"/>
      <use x="218.115234" xlink:href="#DejaVuSans-101"/>
     </g>
    </g>
   </g>
   <g id="text_5">
    <g clip-path="url(#p2becc42264)">
     <!-- Sacr -->
     <g transform="translate(276.415955 387.710289)scale(0.1 -0.1)">
      <use xlink:href="#DejaVuSans-83"/>
      <use x="63.476562" xlink:href="#DejaVuSans-97"/>
      <use x="124.755859" xlink:href="#DejaVuSans-99"/>
      <use x="179.736328" xlink:href="#DejaVuSans-114"/>
     </g>
    </g>
   </g>
   <g id="text_6">
    <g clip-path="url(#p2becc42264)">
     <!-- LShoulder -->
     <g transform="translate(115.858305 157.048157)scale(0.1 -0.1)">
      <defs>
       <path d="M 9.8125 72.90625 
L 19.671875 72.90625 
L 19.671875 8.296875 
L 55.171875 8.296875 
L 55.171875 0 
L 9.8125 0 
z
" id="DejaVuSans-76"/>
      </defs>
      <use xlink:href="#DejaVuSans-76"/>
      <use x="55.712891" xlink:href="#DejaVuSans-83"/>
      <use x="119.189453" xlink:href="#DejaVuSans-104"/>
      <use x="182.568359" xlink:href="#DejaVuSans-111"/>
      <use x="243.75" xlink:href="#DejaVuSans-117"/>
      <use x="307.128906" xlink:href="#DejaVuSans-108"/>
      <use x="334.912109" xlink:href="#DejaVuSans-100"/>
      <use x="398.388672" xlink:href="#DejaVuSans-101"/>
      <use x="459.912109" xlink:href="#DejaVuSans-114"/>
     </g>
    </g>
   </g>
   <g id="text_7">
    <g clip-path="url(#p2becc42264)">
     <!-- LElbow -->
     <g transform="translate(32.32644 243.556083)scale(0.1 -0.1)">
      <defs>
       <path d="M 9.8125 72.90625 
L 55.90625 72.90625 
L 55.90625 64.59375 
L 19.671875 64.59375 
L 19.671875 43.015625 
L 54.390625 43.015625 
L 54.390625 34.71875 
L 19.671875 34.71875 
L 19.671875 8.296875 
L 56.78125 8.296875 
L 56.78125 0 
L 9.8125 0 
z
" id="DejaVuSans-69"/>
       <path d="M 48.6875 27.296875 
Q 48.6875 37.203125 44.609375 42.84375 
Q 40.53125 48.484375 33.40625 48.484375 
Q 26.265625 48.484375 22.1875 42.84375 
Q 18.109375 37.203125 18.109375 27.296875 
Q 18.109375 17.390625 22.1875 11.75 
Q 26.265625 6.109375 33.40625 6.109375 
Q 40.53125 6.109375 44.609375 11.75 
Q 48.6875 17.390625 48.6875 27.296875 
z
M 18.109375 46.390625 
Q 20.953125 51.265625 25.265625 53.625 
Q 29.59375 56 35.59375 56 
Q 45.5625 56 51.78125 48.09375 
Q 58.015625 40.1875 58.015625 27.296875 
Q 58.015625 14.40625 51.78125 6.484375 
Q 45.5625 -1.421875 35.59375 -1.421875 
Q 29.59375 -1.421875 25.265625 0.953125 
Q 20.953125 3.328125 18.109375 8.203125 
L 18.109375 0 
L 9.078125 0 
L 9.078125 75.984375 
L 18.109375 75.984375 
z
" id="DejaVuSans-98"/>
       <path d="M 4.203125 54.6875 
L 13.1875 54.6875 
L 24.421875 12.015625 
L 35.59375 54.6875 
L 46.1875 54.6875 
L 57.421875 12.015625 
L 68.609375 54.6875 
L 77.59375 54.6875 
L 63.28125 0 
L 52.6875 0 
L 40.921875 44.828125 
L 29.109375 0 
L 18.5 0 
z
" id="DejaVuSans-119"/>
      </defs>
      <use xlink:href="#DejaVuSans-76"/>
      <use x="55.712891" xlink:href="#DejaVuSans-69"/>
      <use x="118.896484" xlink:href="#DejaVuSans-108"/>
      <use x="146.679688" xlink:href="#DejaVuSans-98"/>
      <use x="210.15625" xlink:href="#DejaVuSans-111"/>
      <use x="271.337891" xlink:href="#DejaVuSans-119"/>
     </g>
    </g>
   </g>
   <g id="text_8">
    <g clip-path="url(#p2becc42264)">
     <!-- LWrist -->
     <g transform="translate(101.468262 350.93641)scale(0.1 -0.1)">
      <defs>
       <path d="M 3.328125 72.90625 
L 13.28125 72.90625 
L 28.609375 11.28125 
L 43.890625 72.90625 
L 54.984375 72.90625 
L 70.3125 11.28125 
L 85.59375 72.90625 
L 95.609375 72.90625 
L 77.296875 0 
L 64.890625 0 
L 49.515625 63.28125 
L 33.984375 0 
L 21.578125 0 
z
" id="DejaVuSans-87"/>
       <path d="M 44.28125 53.078125 
L 44.28125 44.578125 
Q 40.484375 46.53125 36.375 47.5 
Q 32.28125 48.484375 27.875 48.484375 
Q 21.1875 48.484375 17.84375 46.4375 
Q 14.5 44.390625 14.5 40.28125 
Q 14.5 37.15625 16.890625 35.375 
Q 19.28125 33.59375 26.515625 31.984375 
L 29.59375 31.296875 
Q 39.15625 29.25 43.1875 25.515625 
Q 47.21875 21.78125 47.21875 15.09375 
Q 47.21875 7.46875 41.1875 3.015625 
Q 35.15625 -1.421875 24.609375 -1.421875 
Q 20.21875 -1.421875 15.453125 -0.5625 
Q 10.6875 0.296875 5.421875 2 
L 5.421875 11.28125 
Q 10.40625 8.6875 15.234375 7.390625 
Q 20.0625 6.109375 24.8125 6.109375 
Q 31.15625 6.109375 34.5625 8.28125 
Q 37.984375 10.453125 37.984375 14.40625 
Q 37.984375 18.0625 35.515625 20.015625 
Q 33.0625 21.96875 24.703125 23.78125 
L 21.578125 24.515625 
Q 13.234375 26.265625 9.515625 29.90625 
Q 5.8125 33.546875 5.8125 39.890625 
Q 5.8125 47.609375 11.28125 51.796875 
Q 16.75 56 26.8125 56 
Q 31.78125 56 36.171875 55.265625 
Q 40.578125 54.546875 44.28125 53.078125 
z
" id="DejaVuSans-115"/>
       <path d="M 18.3125 70.21875 
L 18.3125 54.6875 
L 36.8125 54.6875 
L 36.8125 47.703125 
L 18.3125 47.703125 
L 18.3125 18.015625 
Q 18.3125 11.328125 20.140625 9.421875 
Q 21.96875 7.515625 27.59375 7.515625 
L 36.8125 7.515625 
L 36.8125 0 
L 27.59375 0 
Q 17.1875 0 13.234375 3.875 
Q 9.28125 7.765625 9.28125 18.015625 
L 9.28125 47.703125 
L 2.6875 47.703125 
L 2.6875 54.6875 
L 9.28125 54.6875 
L 9.28125 70.21875 
z
" id="DejaVuSans-116"/>
      </defs>
      <use xlink:href="#DejaVuSans-76"/>
      <use x="46.587891" xlink:href="#DejaVuSans-87"/>
      <use x="140.964844" xlink:href="#DejaVuSans-114"/>
      <use x="182.078125" xlink:href="#DejaVuSans-105"/>
      <use x="209.861328" xlink:href="#DejaVuSans-115"/>
      <use x="261.960938" xlink:href="#DejaVuSans-116"/>
     </g>
    </g>
   </g>
   <g id="text_9">
    <g clip-path="url(#p2becc42264)">
     <!-- LHand -->
     <g transform="translate(154.044299 356.039644)scale(0.1 -0.1)">
      <use xlink:href="#DejaVuSans-76"/>
      <use x="55.712891" xlink:href="#DejaVuSans-72"/>
      <use x="130.908203" xlink:href="#DejaVuSans-97"/>
      <use x="192.1875" xlink:href="#DejaVuSans-110"/>
      <use x="255.566406" xlink:href="#DejaVuSans-100"/>
     </g>
    </g>
   </g>
   <g id="text_10">
    <g clip-path="url(#p2becc42264)">
     <!-- RShoulder -->
     <g transform="translate(459.314995 174.088223)scale(0.1 -0.1)">
      <defs>
       <path d="M 44.390625 34.1875 
Q 47.5625 33.109375 50.5625 29.59375 
Q 53.5625 26.078125 56.59375 19.921875 
L 66.609375 0 
L 56 0 
L 46.6875 18.703125 
Q 43.0625 26.03125 39.671875 28.421875 
Q 36.28125 30.8125 30.421875 30.8125 
L 19.671875 30.8125 
L 19.671875 0 
L 9.8125 0 
L 9.8125 72.90625 
L 32.078125 72.90625 
Q 44.578125 72.90625 50.734375 67.671875 
Q 56.890625 62.453125 56.890625 51.90625 
Q 56.890625 45.015625 53.6875 40.46875 
Q 50.484375 35.9375 44.390625 34.1875 
z
M 19.671875 64.796875 
L 19.671875 38.921875 
L 32.078125 38.921875 
Q 39.203125 38.921875 42.84375 42.21875 
Q 46.484375 45.515625 46.484375 51.90625 
Q 46.484375 58.296875 42.84375 61.546875 
Q 39.203125 64.796875 32.078125 64.796875 
z
" id="DejaVuSans-82"/>
      </defs>
      <use xlink:href="#DejaVuSans-82"/>
      <use x="69.482422" xlink:href="#DejaVuSans-83"/>
      <use x="132.958984" xlink:href="#DejaVuSans-104"/>
      <use x="196.337891" xlink:href="#DejaVuSans-111"/>
      <use x="257.519531" xlink:href="#DejaVuSans-117"/>
      <use x="320.898438" xlink:href="#DejaVuSans-108"/>
      <use x="348.681641" xlink:href="#DejaVuSans-100"/>
      <use x="412.158203" xlink:href="#DejaVuSans-101"/>
      <use x="473.681641" xlink:href="#DejaVuSans-114"/>
     </g>
    </g>
   </g>
   <g id="text_11">
    <g clip-path="url(#p2becc42264)">
     <!-- RElbow -->
     <g transform="translate(507.671216 286.257031)scale(0.1 -0.1)">
      <use xlink:href="#DejaVuSans-82"/>
      <use x="69.482422" xlink:href="#DejaVuSans-69"/>
      <use x="132.666016" xlink:href="#DejaVuSans-108"/>
      <use x="160.449219" xlink:href="#DejaVuSans-98"/>
      <use x="223.925781" xlink:href="#DejaVuSans-111"/>
      <use x="285.107422" xlink:href="#DejaVuSans-119"/>
     </g>
    </g>
   </g>
   <g id="text_12">
    <g clip-path="url(#p2becc42264)">
     <!-- RWrist -->
     <g transform="translate(488.034635 373.632207)scale(0.1 -0.1)">
      <use xlink:href="#DejaVuSans-82"/>
      <use x="65.482422" xlink:href="#DejaVuSans-87"/>
      <use x="159.859375" xlink:href="#DejaVuSans-114"/>
      <use x="200.972656" xlink:href="#DejaVuSans-105"/>
      <use x="228.755859" xlink:href="#DejaVuSans-115"/>
      <use x="280.855469" xlink:href="#DejaVuSans-116"/>
     </g>
    </g>
   </g>
   <g id="text_13">
    <g clip-path="url(#p2becc42264)">
     <!-- RHand -->
     <g transform="translate(443.652169 403.268588)scale(0.1 -0.1)">
      <use xlink:href="#DejaVuSans-82"/>
      <use x="69.482422" xlink:href="#DejaVuSans-72"/>
      <use x="144.677734" xlink:href="#DejaVuSans-97"/>
      <use x="205.957031" xlink:href="#DejaVuSans-110"/>
      <use x="269.335938" xlink:href="#DejaVuSans-100"/>
     </g>
    </g>
   </g>
   <g id="text_14">
    <g clip-path="url(#p2becc42264)">
     <!-- LHip -->
     <g transform="translate(197.342556 387.05582)scale(0.1 -0.1)">
      <use xlink:href="#DejaVuSans-76"/>
      <use x="55.712891" xlink:href="#DejaVuSans-72"/>
      <use x="130.908203" xlink:href="#DejaVuSans-105"/>
      <use x="158.691406" xlink:href="#DejaVuSans-112"/>
     </g>
    </g>
   </g>
   <g id="text_15">
    <g clip-path="url(#p2becc42264)">
     <!-- LKnee -->
     <g transform="translate(119.354989 539.123967)scale(0.1 -0.1)">
      <defs>
       <path d="M 9.8125 72.90625 
L 19.671875 72.90625 
L 19.671875 42.09375 
L 52.390625 72.90625 
L 65.09375 72.90625 
L 28.90625 38.921875 
L 67.671875 0 
L 54.6875 0 
L 19.671875 35.109375 
L 19.671875 0 
L 9.8125 0 
z
" id="DejaVuSans-75"/>
      </defs>
      <use xlink:href="#DejaVuSans-76"/>
      <use x="55.712891" xlink:href="#DejaVuSans-75"/>
      <use x="121.289062" xlink:href="#DejaVuSans-110"/>
      <use x="184.667969" xlink:href="#DejaVuSans-101"/>
      <use x="246.191406" xlink:href="#DejaVuSans-101"/>
     </g>
    </g>
   </g>
   <g id="text_16">
    <g clip-path="url(#p2becc42264)">
     <!-- LAnkle -->
     <g transform="translate(123.199423 675.356636)scale(0.1 -0.1)">
      <defs>
       <path d="M 34.1875 63.1875 
L 20.796875 26.90625 
L 47.609375 26.90625 
z
M 28.609375 72.90625 
L 39.796875 72.90625 
L 67.578125 0 
L 57.328125 0 
L 50.6875 18.703125 
L 17.828125 18.703125 
L 11.1875 0 
L 0.78125 0 
z
" id="DejaVuSans-65"/>
       <path d="M 9.078125 75.984375 
L 18.109375 75.984375 
L 18.109375 31.109375 
L 44.921875 54.6875 
L 56.390625 54.6875 
L 27.390625 29.109375 
L 57.625 0 
L 45.90625 0 
L 18.109375 26.703125 
L 18.109375 0 
L 9.078125 0 
z
" id="DejaVuSans-107"/>
      </defs>
      <use xlink:href="#DejaVuSans-76"/>
      <use x="57.962891" xlink:href="#DejaVuSans-65"/>
      <use x="126.371094" xlink:href="#DejaVuSans-110"/>
      <use x="189.75" xlink:href="#DejaVuSans-107"/>
      <use x="247.660156" xlink:href="#DejaVuSans-108"/>
      <use x="275.443359" xlink:href="#DejaVuSans-101"/>
     </g>
    </g>
   </g>
   <g id="text_17">
    <g clip-path="url(#p2becc42264)">
     <!-- LFoot -->
     <g transform="translate(114.959467 718.631272)scale(0.1 -0.1)">
      <defs>
       <path d="M 9.8125 72.90625 
L 51.703125 72.90625 
L 51.703125 64.59375 
L 19.671875 64.59375 
L 19.671875 43.109375 
L 48.578125 43.109375 
L 48.578125 34.8125 
L 19.671875 34.8125 
L 19.671875 0 
L 9.8125 0 
z
" id="DejaVuSans-70"/>
      </defs>
      <use xlink:href="#DejaVuSans-76"/>
      <use x="55.712891" xlink:href="#DejaVuSans-70"/>
      <use x="109.607422" xlink:href="#DejaVuSans-111"/>
      <use x="170.789062" xlink:href="#DejaVuSans-111"/>
      <use x="231.970703" xlink:href="#DejaVuSans-116"/>
     </g>
    </g>
   </g>
   <g id="text_18">
    <g clip-path="url(#p2becc42264)">
     <!-- RHip -->
     <g transform="translate(339.06623 390.703955)scale(0.1 -0.1)">
      <use xlink:href="#DejaVuSans-82"/>
      <use x="69.482422" xlink:href="#DejaVuSans-72"/>
      <use x="144.677734" xlink:href="#DejaVuSans-105"/>
      <use x="172.460938" xlink:href="#DejaVuSans-112"/>
     </g>
    </g>
   </g>
   <g id="text_19">
    <g clip-path="url(#p2becc42264)">
     <!-- RKnee -->
     <g transform="translate(326.179331 561.399577)scale(0.1 -0.1)">
      <use xlink:href="#DejaVuSans-82"/>
      <use x="69.482422" xlink:href="#DejaVuSans-75"/>
      <use x="135.058594" xlink:href="#DejaVuSans-110"/>
      <use x="198.4375" xlink:href="#DejaVuSans-101"/>
      <use x="259.960938" xlink:href="#DejaVuSans-101"/>
     </g>
    </g>
   </g>
   <g id="text_20">
    <g clip-path="url(#p2becc42264)">
     <!-- RAnkle -->
     <g transform="translate(265.142308 747.930676)scale(0.1 -0.1)">
      <use xlink:href="#DejaVuSans-82"/>
      <use x="65.482422" xlink:href="#DejaVuSans-65"/>
      <use x="133.890625" xlink:href="#DejaVuSans-110"/>
      <use x="197.269531" xlink:href="#DejaVuSans-107"/>
      <use x="255.179688" xlink:href="#DejaVuSans-108"/>
      <use x="282.962891" xlink:href="#DejaVuSans-101"/>
     </g>
    </g>
   </g>
   <g id="text_21">
    <g clip-path="url(#p2becc42264)">
     <!-- RFoot -->
     <g transform="translate(259.68252 791.784168)scale(0.1 -0.1)">
      <use xlink:href="#DejaVuSans-82"/>
      <use x="69.482422" xlink:href="#DejaVuSans-70"/>
      <use x="123.376953" xlink:href="#DejaVuSans-111"/>
      <use x="184.558594" xlink:href="#DejaVuSans-111"/>
      <use x="245.740234" xlink:href="#DejaVuSans-116"/>
     </g>
    </g>
   </g>
   <g id="text_22">
    <g clip-path="url(#p2becc42264)">
     <!-- LHandTip -->
     <g transform="translate(175.353061 378.762316)scale(0.1 -0.1)">
      <defs>
       <path d="M -0.296875 72.90625 
L 61.375 72.90625 
L 61.375 64.59375 
L 35.5 64.59375 
L 35.5 0 
L 25.59375 0 
L 25.59375 64.59375 
L -0.296875 64.59375 
z
" id="DejaVuSans-84"/>
      </defs>
      <use xlink:href="#DejaVuSans-76"/>
      <use x="55.712891" xlink:href="#DejaVuSans-72"/>
      <use x="130.908203" xlink:href="#DejaVuSans-97"/>
      <use x="192.1875" xlink:href="#DejaVuSans-110"/>
      <use x="255.566406" xlink:href="#DejaVuSans-100"/>
      <use x="319.042969" xlink:href="#DejaVuSans-84"/>
      <use x="377.001953" xlink:href="#DejaVuSans-105"/>
      <use x="404.785156" xlink:href="#DejaVuSans-112"/>
     </g>
    </g>
   </g>
   <g id="text_23">
    <g clip-path="url(#p2becc42264)">
     <!-- LThumb -->
     <g transform="translate(203.7338 342.168296)scale(0.1 -0.1)">
      <defs>
       <path d="M 52 44.1875 
Q 55.375 50.25 60.0625 53.125 
Q 64.75 56 71.09375 56 
Q 79.640625 56 84.28125 50.015625 
Q 88.921875 44.046875 88.921875 33.015625 
L 88.921875 0 
L 79.890625 0 
L 79.890625 32.71875 
Q 79.890625 40.578125 77.09375 44.375 
Q 74.3125 48.1875 68.609375 48.1875 
Q 61.625 48.1875 57.5625 43.546875 
Q 53.515625 38.921875 53.515625 30.90625 
L 53.515625 0 
L 44.484375 0 
L 44.484375 32.71875 
Q 44.484375 40.625 41.703125 44.40625 
Q 38.921875 48.1875 33.109375 48.1875 
Q 26.21875 48.1875 22.15625 43.53125 
Q 18.109375 38.875 18.109375 30.90625 
L 18.109375 0 
L 9.078125 0 
L 9.078125 54.6875 
L 18.109375 54.6875 
L 18.109375 46.1875 
Q 21.1875 51.21875 25.484375 53.609375 
Q 29.78125 56 35.6875 56 
Q 41.65625 56 45.828125 52.96875 
Q 50 49.953125 52 44.1875 
z
" id="DejaVuSans-109"/>
      </defs>
      <use xlink:href="#DejaVuSans-76"/>
      <use x="41.962891" xlink:href="#DejaVuSans-84"/>
      <use x="103.046875" xlink:href="#DejaVuSans-104"/>
      <use x="166.425781" xlink:href="#DejaVuSans-117"/>
      <use x="229.804688" xlink:href="#DejaVuSans-109"/>
      <use x="327.216797" xlink:href="#DejaVuSans-98"/>
     </g>
    </g>
   </g>
   <g id="text_24">
    <g clip-path="url(#p2becc42264)">
     <!-- RHandTip -->
     <g transform="translate(404.05234 432.33645)scale(0.1 -0.1)">
      <use xlink:href="#DejaVuSans-82"/>
      <use x="69.482422" xlink:href="#DejaVuSans-72"/>
      <use x="144.677734" xlink:href="#DejaVuSans-97"/>
      <use x="205.957031" xlink:href="#DejaVuSans-110"/>
      <use x="269.335938" xlink:href="#DejaVuSans-100"/>
      <use x="332.8125" xlink:href="#DejaVuSans-84"/>
      <use x="390.771484" xlink:href="#DejaVuSans-105"/>
      <use x="418.554688" xlink:href="#DejaVuSans-112"/>
     </g>
    </g>
   </g>
   <g id="text_25">
    <g clip-path="url(#p2becc42264)">
     <!-- RThumb -->
     <g transform="translate(387.568753 395.431811)scale(0.1 -0.1)">
      <use xlink:href="#DejaVuSans-82"/>
      <use x="62.232422" xlink:href="#DejaVuSans-84"/>
      <use x="123.316406" xlink:href="#DejaVuSans-104"/>
      <use x="186.695312" xlink:href="#DejaVuSans-117"/>
      <use x="250.074219" xlink:href="#DejaVuSans-109"/>
      <use x="347.486328" xlink:href="#DejaVuSans-98"/>
     </g>
    </g>
   </g>
   <g id="text_26">
    <!-- Node Graph Visualization - Frame 171 -->
    <g transform="translate(174.194063 -6)scale(0.12 -0.12)">
     <defs>
      <path d="M 9.8125 72.90625 
L 23.09375 72.90625 
L 55.421875 11.921875 
L 55.421875 72.90625 
L 64.984375 72.90625 
L 64.984375 0 
L 51.703125 0 
L 19.390625 60.984375 
L 19.390625 0 
L 9.8125 0 
z
" id="DejaVuSans-78"/>
      <path id="DejaVuSans-32"/>
      <path d="M 59.515625 10.40625 
L 59.515625 29.984375 
L 43.40625 29.984375 
L 43.40625 38.09375 
L 69.28125 38.09375 
L 69.28125 6.78125 
Q 63.578125 2.734375 56.6875 0.65625 
Q 49.8125 -1.421875 42 -1.421875 
Q 24.90625 -1.421875 15.25 8.5625 
Q 5.609375 18.5625 5.609375 36.375 
Q 5.609375 54.25 15.25 64.234375 
Q 24.90625 74.21875 42 74.21875 
Q 49.125 74.21875 55.546875 72.453125 
Q 61.96875 70.703125 67.390625 67.28125 
L 67.390625 56.78125 
Q 61.921875 61.421875 55.765625 63.765625 
Q 49.609375 66.109375 42.828125 66.109375 
Q 29.4375 66.109375 22.71875 58.640625 
Q 16.015625 51.171875 16.015625 36.375 
Q 16.015625 21.625 22.71875 14.15625 
Q 29.4375 6.6875 42.828125 6.6875 
Q 48.046875 6.6875 52.140625 7.59375 
Q 56.25 8.5 59.515625 10.40625 
z
" id="DejaVuSans-71"/>
      <path d="M 28.609375 0 
L 0.78125 72.90625 
L 11.078125 72.90625 
L 34.1875 11.53125 
L 57.328125 72.90625 
L 67.578125 72.90625 
L 39.796875 0 
z
" id="DejaVuSans-86"/>
      <path d="M 5.515625 54.6875 
L 48.1875 54.6875 
L 48.1875 46.484375 
L 14.40625 7.171875 
L 48.1875 7.171875 
L 48.1875 0 
L 4.296875 0 
L 4.296875 8.203125 
L 38.09375 47.515625 
L 5.515625 47.515625 
z
" id="DejaVuSans-122"/>
      <path d="M 4.890625 31.390625 
L 31.203125 31.390625 
L 31.203125 23.390625 
L 4.890625 23.390625 
z
" id="DejaVuSans-45"/>
      <path d="M 12.40625 8.296875 
L 28.515625 8.296875 
L 28.515625 63.921875 
L 10.984375 60.40625 
L 10.984375 69.390625 
L 28.421875 72.90625 
L 38.28125 72.90625 
L 38.28125 8.296875 
L 54.390625 8.296875 
L 54.390625 0 
L 12.40625 0 
z
" id="DejaVuSans-49"/>
     </defs>
     <use xlink:href="#DejaVuSans-78"/>
     <use x="74.804688" xlink:href="#DejaVuSans-111"/>
     <use x="135.986328" xlink:href="#DejaVuSans-100"/>
     <use x="199.462891" xlink:href="#DejaVuSans-101"/>
     <use x="260.986328" xlink:href="#DejaVuSans-32"/>
     <use x="292.773438" xlink:href="#DejaVuSans-71"/>
     <use x="370.263672" xlink:href="#DejaVuSans-114"/>
     <use x="411.376953" xlink:href="#DejaVuSans-97"/>
     <use x="472.65625" xlink:href="#DejaVuSans-112"/>
     <use x="536.132812" xlink:href="#DejaVuSans-104"/>
     <use x="599.511719" xlink:href="#DejaVuSans-32"/>
     <use x="631.298828" xlink:href="#DejaVuSans-86"/>
     <use x="697.457031" xlink:href="#DejaVuSans-105"/>
     <use x="725.240234" xlink:href="#DejaVuSans-115"/>
     <use x="777.339844" xlink:href="#DejaVuSans-117"/>
     <use x="840.71875" xlink:href="#DejaVuSans-97"/>
     <use x="901.998047" xlink:href="#DejaVuSans-108"/>
     <use x="929.78125" xlink:href="#DejaVuSans-105"/>
     <use x="957.564453" xlink:href="#DejaVuSans-122"/>
     <use x="1010.054688" xlink:href="#DejaVuSans-97"/>
     <use x="1071.333984" xlink:href="#DejaVuSans-116"/>
     <use x="1110.542969" xlink:href="#DejaVuSans-105"/>
     <use x="1138.326172" xlink:href="#DejaVuSans-111"/>
     <use x="1199.507812" xlink:href="#DejaVuSans-110"/>
     <use x="1262.886719" xlink:href="#DejaVuSans-32"/>
     <use x="1294.673828" xlink:href="#DejaVuSans-45"/>
     <use x="1330.757812" xlink:href="#DejaVuSans-32"/>
     <use x="1362.544922" xlink:href="#DejaVuSans-70"/>
     <use x="1412.814453" xlink:href="#DejaVuSans-114"/>
     <use x="1453.927734" xlink:href="#DejaVuSans-97"/>
     <use x="1515.207031" xlink:href="#DejaVuSans-109"/>
     <use x="1612.619141" xlink:href="#DejaVuSans-101"/>
     <use x="1674.142578" xlink:href="#DejaVuSans-32"/>
     <use x="1705.929688" xlink:href="#DejaVuSans-49"/>
     <use x="1769.552734" xlink:href="#DejaVuSans-55"/>
     <use x="1833.175781" xlink:href="#DejaVuSans-49"/>
    </g>
   </g>
  </g>
 </g>
 <defs>
  <clipPath id="p2becc42264">
   <rect height="864" width="576" x="0" y="0"/>
  </clipPath>
 </defs>
</svg>
