<?xml version="1.0" encoding="utf-8" standalone="no"?>
<!DOCTYPE svg PUBLIC "-//W3C//DTD SVG 1.1//EN"
  "http://www.w3.org/Graphics/SVG/1.1/DTD/svg11.dtd">
<!-- Created with matplotlib (https://matplotlib.org/) -->
<svg height="864pt" version="1.1" viewBox="0 0 576 864" width="576pt" xmlns="http://www.w3.org/2000/svg" xmlns:xlink="http://www.w3.org/1999/xlink">
 <metadata>
  <rdf:RDF xmlns:cc="http://creativecommons.org/ns#" xmlns:dc="http://purl.org/dc/elements/1.1/" xmlns:rdf="http://www.w3.org/1999/02/22-rdf-syntax-ns#">
   <cc:Work>
    <dc:type rdf:resource="http://purl.org/dc/dcmitype/StillImage"/>
    <dc:date>2024-02-04T22:28:02.938416</dc:date>
    <dc:format>image/svg+xml</dc:format>
    <dc:creator>
     <cc:Agent>
      <dc:title>Matplotlib v3.3.2, https://matplotlib.org/</dc:title>
     </cc:Agent>
    </dc:creator>
   </cc:Work>
  </rdf:RDF>
 </metadata>
 <defs>
  <style type="text/css">*{stroke-linecap:butt;stroke-linejoin:round;}</style>
 </defs>
 <g id="figure_1">
  <g id="patch_1">
   <path d="M 0 864 
L 576 864 
L 576 0 
L 0 0 
z
" style="fill:#ffffff;"/>
  </g>
  <g id="axes_1">
   <g id="patch_2">
    <path clip-path="url(#pc101a35ef6)" d="M 313.190843 87.338786 
Q 308.696334 99.131594 304.599996 109.879672 
" style="fill:none;stroke:#000000;stroke-linecap:round;"/>
    <path clip-path="url(#pc101a35ef6)" d="M 307.893403 106.854202 
L 304.599996 109.879672 
L 304.155664 105.429664 
L 307.893403 106.854202 
z
" style="stroke:#000000;stroke-linecap:round;"/>
   </g>
   <g id="patch_3">
    <path clip-path="url(#pc101a35ef6)" d="M 300.782614 136.454217 
Q 301.027076 138.946156 301.162382 140.325402 
" style="fill:none;stroke:#000000;stroke-linecap:round;"/>
    <path clip-path="url(#pc101a35ef6)" d="M 302.762297 136.149247 
L 301.162382 140.325402 
L 298.781407 136.539777 
L 302.762297 136.149247 
z
" style="stroke:#000000;stroke-linecap:round;"/>
   </g>
   <g id="patch_4">
    <path clip-path="url(#pc101a35ef6)" d="M 304.202787 110.921879 
Q 308.697296 99.129071 312.793634 88.380993 
" style="fill:none;stroke:#000000;stroke-linecap:round;"/>
    <path clip-path="url(#pc101a35ef6)" d="M 309.500227 91.406463 
L 312.793634 88.380993 
L 313.237966 92.831001 
L 309.500227 91.406463 
z
" style="stroke:#000000;stroke-linecap:round;"/>
   </g>
   <g id="patch_5">
    <path clip-path="url(#pc101a35ef6)" d="M 303.562458 167.79015 
Q 306.204983 202.655154 308.763012 236.40532 
" style="fill:none;stroke:#000000;stroke-linecap:round;"/>
    <path clip-path="url(#pc101a35ef6)" d="M 310.454987 232.265608 
L 308.763012 236.40532 
L 306.466427 232.567913 
L 310.454987 232.265608 
z
" style="stroke:#000000;stroke-linecap:round;"/>
   </g>
   <g id="patch_6">
    <path clip-path="url(#pc101a35ef6)" d="M 289.344449 155.142014 
Q 219.949279 157.987743 151.671204 160.787663 
" style="fill:none;stroke:#000000;stroke-linecap:round;"/>
    <path clip-path="url(#pc101a35ef6)" d="M 155.749791 162.622091 
L 151.671204 160.787663 
L 155.585899 158.62545 
L 155.749791 162.622091 
z
" style="stroke:#000000;stroke-linecap:round;"/>
   </g>
   <g id="patch_7">
    <path clip-path="url(#pc101a35ef6)" d="M 315.771985 155.316563 
Q 391.641825 159.432484 466.395273 163.487842 
" style="fill:none;stroke:#000000;stroke-linecap:round;"/>
    <path clip-path="url(#pc101a35ef6)" d="M 462.509487 161.274098 
L 466.395273 163.487842 
L 462.292806 165.268225 
L 462.509487 161.274098 
z
" style="stroke:#000000;stroke-linecap:round;"/>
   </g>
   <g id="patch_8">
    <path clip-path="url(#pc101a35ef6)" d="M 301.270862 141.431205 
Q 301.0264 138.939266 300.891095 137.560019 
" style="fill:none;stroke:#000000;stroke-linecap:round;"/>
    <path clip-path="url(#pc101a35ef6)" d="M 299.291179 141.736174 
L 300.891095 137.560019 
L 303.27207 141.345644 
L 299.291179 141.736174 
z
" style="stroke:#000000;stroke-linecap:round;"/>
   </g>
   <g id="patch_9">
    <path clip-path="url(#pc101a35ef6)" d="M 310.651459 263.913843 
Q 313.833399 316.155539 316.947368 367.281269 
" style="fill:none;stroke:#000000;stroke-linecap:round;"/>
    <path clip-path="url(#pc101a35ef6)" d="M 318.700487 363.167077 
L 316.947368 367.281269 
L 314.707886 363.410259 
L 318.700487 363.167077 
z
" style="stroke:#000000;stroke-linecap:round;"/>
   </g>
   <g id="patch_10">
    <path clip-path="url(#pc101a35ef6)" d="M 308.847638 237.52186 
Q 306.205113 202.656857 303.647084 168.90669 
" style="fill:none;stroke:#000000;stroke-linecap:round;"/>
    <path clip-path="url(#pc101a35ef6)" d="M 301.955109 173.046403 
L 303.647084 168.90669 
L 305.943669 172.744097 
L 301.955109 173.046403 
z
" style="stroke:#000000;stroke-linecap:round;"/>
   </g>
   <g id="patch_11">
    <path clip-path="url(#pc101a35ef6)" d="M 304.613537 382.335867 
Q 278.411142 383.788823 253.325065 385.179879 
" style="fill:none;stroke:#000000;stroke-linecap:round;"/>
    <path clip-path="url(#pc101a35ef6)" d="M 257.429662 386.955346 
L 253.325065 385.179879 
L 257.208197 382.961482 
L 257.429662 386.955346 
z
" style="stroke:#000000;stroke-linecap:round;"/>
   </g>
   <g id="patch_12">
    <path clip-path="url(#pc101a35ef6)" d="M 331.0442 381.511369 
Q 350.658048 381.374626 369.153889 381.245677 
" style="fill:none;stroke:#000000;stroke-linecap:round;"/>
    <path clip-path="url(#pc101a35ef6)" d="M 365.140043 379.273612 
L 369.153889 381.245677 
L 365.167929 383.273515 
L 365.140043 379.273612 
z
" style="stroke:#000000;stroke-linecap:round;"/>
   </g>
   <g id="patch_13">
    <path clip-path="url(#pc101a35ef6)" d="M 317.015616 368.401771 
Q 313.833675 316.160075 310.719707 265.034345 
" style="fill:none;stroke:#000000;stroke-linecap:round;"/>
    <path clip-path="url(#pc101a35ef6)" d="M 308.966588 269.148537 
L 310.719707 265.034345 
L 312.959189 268.905356 
L 308.966588 269.148537 
z
" style="stroke:#000000;stroke-linecap:round;"/>
   </g>
   <g id="patch_14">
    <path clip-path="url(#pc101a35ef6)" d="M 128.543338 171.257026 
Q 93.661539 210.44999 59.523041 248.807786 
" style="fill:none;stroke:#000000;stroke-linecap:round;"/>
    <path clip-path="url(#pc101a35ef6)" d="M 63.676346 247.149456 
L 59.523041 248.807786 
L 60.68836 244.490144 
L 63.676346 247.149456 
z
" style="stroke:#000000;stroke-linecap:round;"/>
   </g>
   <g id="patch_15">
    <path clip-path="url(#pc101a35ef6)" d="M 150.556253 160.833385 
Q 219.951423 157.987655 288.229498 155.187735 
" style="fill:none;stroke:#000000;stroke-linecap:round;"/>
    <path clip-path="url(#pc101a35ef6)" d="M 284.150911 153.353307 
L 288.229498 155.187735 
L 284.314804 157.349948 
L 284.150911 153.353307 
z
" style="stroke:#000000;stroke-linecap:round;"/>
   </g>
   <g id="patch_16">
    <path clip-path="url(#pc101a35ef6)" d="M 54.916321 271.799313 
Q 70.376646 310.26459 85.420018 347.69249 
" style="fill:none;stroke:#000000;stroke-linecap:round;"/>
    <path clip-path="url(#pc101a35ef6)" d="M 85.784001 343.235191 
L 85.420018 347.69249 
L 82.072568 344.726925 
L 85.784001 343.235191 
z
" style="stroke:#000000;stroke-linecap:round;"/>
   </g>
   <g id="patch_17">
    <path clip-path="url(#pc101a35ef6)" d="M 58.778103 249.644793 
Q 93.659901 210.45183 127.7984 172.094034 
" style="fill:none;stroke:#000000;stroke-linecap:round;"/>
    <path clip-path="url(#pc101a35ef6)" d="M 123.645095 173.752363 
L 127.7984 172.094034 
L 126.633081 176.411675 
L 123.645095 173.752363 
z
" style="stroke:#000000;stroke-linecap:round;"/>
   </g>
   <g id="patch_18">
    <path clip-path="url(#pc101a35ef6)" d="M 103.453304 364.763746 
Q 125.978279 371.439653 147.431309 377.797859 
" style="fill:none;stroke:#000000;stroke-linecap:round;"/>
    <path clip-path="url(#pc101a35ef6)" d="M 144.164523 374.743664 
L 147.431309 377.797859 
L 143.027881 378.578772 
L 144.164523 374.743664 
z
" style="stroke:#000000;stroke-linecap:round;"/>
   </g>
   <g id="patch_19">
    <path clip-path="url(#pc101a35ef6)" d="M 85.837812 348.731962 
Q 70.377488 310.266685 55.334115 272.838784 
" style="fill:none;stroke:#000000;stroke-linecap:round;"/>
    <path clip-path="url(#pc101a35ef6)" d="M 54.970133 277.296084 
L 55.334115 272.838784 
L 58.681565 275.80435 
L 54.970133 277.296084 
z
" style="stroke:#000000;stroke-linecap:round;"/>
   </g>
   <g id="patch_20">
    <path clip-path="url(#pc101a35ef6)" d="M 171.768863 389.80652 
Q 183.33068 398.471793 193.997845 406.466548 
" style="fill:none;stroke:#000000;stroke-linecap:round;"/>
    <path clip-path="url(#pc101a35ef6)" d="M 191.996496 402.467222 
L 193.997845 406.466548 
L 189.597575 405.668032 
L 191.996496 402.467222 
z
" style="stroke:#000000;stroke-linecap:round;"/>
   </g>
   <g id="patch_21">
    <path clip-path="url(#pc101a35ef6)" d="M 173.101039 376.130579 
Q 176.124937 374.673071 178.141688 373.701004 
" style="fill:none;stroke:#000000;stroke-linecap:round;"/>
    <path clip-path="url(#pc101a35ef6)" d="M 173.670023 373.636132 
L 178.141688 373.701004 
L 175.406792 377.239413 
L 173.670023 373.636132 
z
" style="stroke:#000000;stroke-linecap:round;"/>
   </g>
   <g id="patch_22">
    <path clip-path="url(#pc101a35ef6)" d="M 148.502253 378.115264 
Q 125.977278 371.439356 104.524248 365.08115 
" style="fill:none;stroke:#000000;stroke-linecap:round;"/>
    <path clip-path="url(#pc101a35ef6)" d="M 107.791034 368.135345 
L 104.524248 365.08115 
L 108.927675 364.300238 
L 107.791034 368.135345 
z
" style="stroke:#000000;stroke-linecap:round;"/>
   </g>
   <g id="patch_23">
    <path clip-path="url(#pc101a35ef6)" d="M 485.844377 176.465611 
Q 503.370042 218.217747 520.462983 258.938987 
" style="fill:none;stroke:#000000;stroke-linecap:round;"/>
    <path clip-path="url(#pc101a35ef6)" d="M 520.758947 254.476655 
L 520.462983 258.938987 
L 517.070696 256.024816 
L 520.758947 254.476655 
z
" style="stroke:#000000;stroke-linecap:round;"/>
   </g>
   <g id="patch_24">
    <path clip-path="url(#pc101a35ef6)" d="M 467.513912 163.548528 
Q 391.644071 159.432606 316.890623 155.377248 
" style="fill:none;stroke:#000000;stroke-linecap:round;"/>
    <path clip-path="url(#pc101a35ef6)" d="M 320.77641 157.590992 
L 316.890623 155.377248 
L 320.99309 153.596865 
L 320.77641 157.590992 
z
" style="stroke:#000000;stroke-linecap:round;"/>
   </g>
   <g id="patch_25">
    <path clip-path="url(#pc101a35ef6)" d="M 523.862356 285.223665 
Q 519.878489 309.365785 516.076656 332.404789 
" style="fill:none;stroke:#000000;stroke-linecap:round;"/>
    <path clip-path="url(#pc101a35ef6)" d="M 518.701231 328.783793 
L 516.076656 332.404789 
L 514.754604 328.132532 
L 518.701231 328.783793 
z
" style="stroke:#000000;stroke-linecap:round;"/>
   </g>
   <g id="patch_26">
    <path clip-path="url(#pc101a35ef6)" d="M 520.895316 259.968951 
Q 503.36965 218.216814 486.27671 177.495575 
" style="fill:none;stroke:#000000;stroke-linecap:round;"/>
    <path clip-path="url(#pc101a35ef6)" d="M 485.980746 181.957907 
L 486.27671 177.495575 
L 489.668997 180.409745 
L 485.980746 181.957907 
z
" style="stroke:#000000;stroke-linecap:round;"/>
   </g>
   <g id="patch_27">
    <path clip-path="url(#pc101a35ef6)" d="M 501.846252 352.350371 
Q 493.884575 356.22455 486.928226 359.609532 
" style="fill:none;stroke:#000000;stroke-linecap:round;"/>
    <path clip-path="url(#pc101a35ef6)" d="M 491.400102 359.657717 
L 486.928226 359.609532 
L 489.6499 356.060942 
L 491.400102 359.657717 
z
" style="stroke:#000000;stroke-linecap:round;"/>
   </g>
   <g id="patch_28">
    <path clip-path="url(#pc101a35ef6)" d="M 515.894537 333.508426 
Q 519.878403 309.366307 523.680236 286.327303 
" style="fill:none;stroke:#000000;stroke-linecap:round;"/>
    <path clip-path="url(#pc101a35ef6)" d="M 521.055662 289.948298 
L 523.680236 286.327303 
L 525.002288 290.59956 
L 521.055662 289.948298 
z
" style="stroke:#000000;stroke-linecap:round;"/>
   </g>
   <g id="patch_29">
    <path clip-path="url(#pc101a35ef6)" d="M 463.264189 373.573301 
Q 459.298884 376.405018 456.24343 378.586988 
" style="fill:none;stroke:#000000;stroke-linecap:round;"/>
    <path clip-path="url(#pc101a35ef6)" d="M 460.660915 377.889978 
L 456.24343 378.586988 
L 458.336313 374.634794 
L 460.660915 377.889978 
z
" style="stroke:#000000;stroke-linecap:round;"/>
   </g>
   <g id="patch_30">
    <path clip-path="url(#pc101a35ef6)" d="M 460.956001 363.861146 
Q 450.876967 362.298808 441.902773 360.90773 
" style="fill:none;stroke:#000000;stroke-linecap:round;"/>
    <path clip-path="url(#pc101a35ef6)" d="M 445.549207 363.496844 
L 441.902773 360.90773 
L 446.161925 359.54405 
L 445.549207 363.496844 
z
" style="stroke:#000000;stroke-linecap:round;"/>
   </g>
   <g id="patch_31">
    <path clip-path="url(#pc101a35ef6)" d="M 485.921184 360.099562 
Q 493.882862 356.225383 500.839211 352.8404 
" style="fill:none;stroke:#000000;stroke-linecap:round;"/>
    <path clip-path="url(#pc101a35ef6)" d="M 496.367335 352.792215 
L 500.839211 352.8404 
L 498.117537 356.38899 
L 496.367335 352.792215 
z
" style="stroke:#000000;stroke-linecap:round;"/>
   </g>
   <g id="patch_32">
    <path clip-path="url(#pc101a35ef6)" d="M 236.315721 398.92951 
Q 218.467787 485.184005 200.8464 570.343658 
" style="fill:none;stroke:#000000;stroke-linecap:round;"/>
    <path clip-path="url(#pc101a35ef6)" d="M 203.615428 566.831895 
L 200.8464 570.343658 
L 199.698406 566.021378 
L 203.615428 566.831895 
z
" style="stroke:#000000;stroke-linecap:round;"/>
   </g>
   <g id="patch_33">
    <path clip-path="url(#pc101a35ef6)" d="M 252.202585 385.242122 
Q 278.404981 383.789165 303.491057 382.39811 
" style="fill:none;stroke:#000000;stroke-linecap:round;"/>
    <path clip-path="url(#pc101a35ef6)" d="M 299.38646 380.622643 
L 303.491057 382.39811 
L 299.607925 384.616507 
L 299.38646 380.622643 
z
" style="stroke:#000000;stroke-linecap:round;"/>
   </g>
   <g id="patch_34">
    <path clip-path="url(#pc101a35ef6)" d="M 200.59979 597.347881 
Q 214.074969 662.982986 227.325301 727.5229 
" style="fill:none;stroke:#000000;stroke-linecap:round;"/>
    <path clip-path="url(#pc101a35ef6)" d="M 228.479999 723.202406 
L 227.325301 727.5229 
L 224.561725 724.006845 
L 228.479999 723.202406 
z
" style="stroke:#000000;stroke-linecap:round;"/>
   </g>
   <g id="patch_35">
    <path clip-path="url(#pc101a35ef6)" d="M 200.620382 571.435947 
Q 218.468316 485.181452 236.089703 400.021798 
" style="fill:none;stroke:#000000;stroke-linecap:round;"/>
    <path clip-path="url(#pc101a35ef6)" d="M 233.320675 403.533561 
L 236.089703 400.021798 
L 237.237697 404.344079 
L 233.320675 403.533561 
z
" style="stroke:#000000;stroke-linecap:round;"/>
   </g>
   <g id="patch_36">
    <path clip-path="url(#pc101a35ef6)" d="M 229.477313 754.789777 
Q 229.335951 757.333121 229.256635 758.760154 
" style="fill:none;stroke:#000000;stroke-linecap:round;"/>
    <path clip-path="url(#pc101a35ef6)" d="M 231.475535 754.877309 
L 229.256635 758.760154 
L 227.481699 754.655327 
L 231.475535 754.877309 
z
" style="stroke:#000000;stroke-linecap:round;"/>
   </g>
   <g id="patch_37">
    <path clip-path="url(#pc101a35ef6)" d="M 227.55138 728.624085 
Q 214.0762 662.98898 200.825868 598.449066 
" style="fill:none;stroke:#000000;stroke-linecap:round;"/>
    <path clip-path="url(#pc101a35ef6)" d="M 199.67117 602.769561 
L 200.825868 598.449066 
L 203.589445 601.965121 
L 199.67117 602.769561 
z
" style="stroke:#000000;stroke-linecap:round;"/>
   </g>
   <g id="patch_38">
    <path clip-path="url(#pc101a35ef6)" d="M 229.194762 759.873357 
Q 229.336124 757.330013 229.41544 755.90298 
" style="fill:none;stroke:#000000;stroke-linecap:round;"/>
    <path clip-path="url(#pc101a35ef6)" d="M 227.19654 759.785824 
L 229.41544 755.90298 
L 231.190376 760.007807 
L 227.19654 759.785824 
z
" style="stroke:#000000;stroke-linecap:round;"/>
   </g>
   <g id="patch_39">
    <path clip-path="url(#pc101a35ef6)" d="M 385.054471 394.284715 
Q 394.535352 474.276812 403.884642 553.158646 
" style="fill:none;stroke:#000000;stroke-linecap:round;"/>
    <path clip-path="url(#pc101a35ef6)" d="M 405.399945 548.951051 
L 403.884642 553.158646 
L 401.427748 549.421847 
L 405.399945 548.951051 
z
" style="stroke:#000000;stroke-linecap:round;"/>
   </g>
   <g id="patch_40">
    <path clip-path="url(#pc101a35ef6)" d="M 370.272708 381.237877 
Q 350.65886 381.37462 332.163019 381.503569 
" style="fill:none;stroke:#000000;stroke-linecap:round;"/>
    <path clip-path="url(#pc101a35ef6)" d="M 336.176865 383.475634 
L 332.163019 381.503569 
L 336.148979 379.475731 
L 336.176865 383.475634 
z
" style="stroke:#000000;stroke-linecap:round;"/>
   </g>
   <g id="patch_41">
    <path clip-path="url(#pc101a35ef6)" d="M 402.205885 580.19716 
Q 383.022748 653.067745 364.124236 724.857131 
" style="fill:none;stroke:#000000;stroke-linecap:round;"/>
    <path clip-path="url(#pc101a35ef6)" d="M 367.076646 721.498072 
L 364.124236 724.857131 
L 363.208435 720.479768 
L 367.076646 721.498072 
z
" style="stroke:#000000;stroke-linecap:round;"/>
   </g>
   <g id="patch_42">
    <path clip-path="url(#pc101a35ef6)" d="M 404.015963 554.266629 
Q 394.535082 474.274532 385.185792 395.392698 
" style="fill:none;stroke:#000000;stroke-linecap:round;"/>
    <path clip-path="url(#pc101a35ef6)" d="M 383.670489 399.600293 
L 385.185792 395.392698 
L 387.642686 399.129498 
L 383.670489 399.600293 
z
" style="stroke:#000000;stroke-linecap:round;"/>
   </g>
   <g id="patch_43">
    <path clip-path="url(#pc101a35ef6)" d="M 368.168382 749.491632 
Q 378.460812 763.878624 388.102729 777.356313 
" style="fill:none;stroke:#000000;stroke-linecap:round;"/>
    <path clip-path="url(#pc101a35ef6)" d="M 387.401991 772.939417 
L 388.102729 777.356313 
L 384.14877 775.266766 
L 387.401991 772.939417 
z
" style="stroke:#000000;stroke-linecap:round;"/>
   </g>
   <g id="patch_44">
    <path clip-path="url(#pc101a35ef6)" d="M 363.838843 725.941248 
Q 383.02198 653.070664 401.920491 581.281277 
" style="fill:none;stroke:#000000;stroke-linecap:round;"/>
    <path clip-path="url(#pc101a35ef6)" d="M 398.968082 584.640336 
L 401.920491 581.281277 
L 402.836293 585.65864 
L 398.968082 584.640336 
z
" style="stroke:#000000;stroke-linecap:round;"/>
   </g>
   <g id="patch_45">
    <path clip-path="url(#pc101a35ef6)" d="M 388.753449 778.265904 
Q 378.461019 763.878912 368.819102 750.401223 
" style="fill:none;stroke:#000000;stroke-linecap:round;"/>
    <path clip-path="url(#pc101a35ef6)" d="M 369.519841 754.818119 
L 368.819102 750.401223 
L 372.773062 752.49077 
L 369.519841 754.818119 
z
" style="stroke:#000000;stroke-linecap:round;"/>
   </g>
   <g id="patch_46">
    <path clip-path="url(#pc101a35ef6)" d="M 194.894089 407.138259 
Q 183.332272 398.472986 172.665107 390.478232 
" style="fill:none;stroke:#000000;stroke-linecap:round;"/>
    <path clip-path="url(#pc101a35ef6)" d="M 174.666456 394.477557 
L 172.665107 390.478232 
L 177.065377 391.276748 
L 174.666456 394.477557 
z
" style="stroke:#000000;stroke-linecap:round;"/>
   </g>
   <g id="patch_47">
    <path clip-path="url(#pc101a35ef6)" d="M 179.148473 373.215737 
Q 176.124575 374.673245 174.107824 375.645312 
" style="fill:none;stroke:#000000;stroke-linecap:round;"/>
    <path clip-path="url(#pc101a35ef6)" d="M 178.57949 375.710184 
L 174.107824 375.645312 
L 176.842721 372.106903 
L 178.57949 375.710184 
z
" style="stroke:#000000;stroke-linecap:round;"/>
   </g>
   <g id="patch_48">
    <path clip-path="url(#pc101a35ef6)" d="M 455.331372 379.23831 
Q 459.296677 376.406594 462.352131 374.224623 
" style="fill:none;stroke:#000000;stroke-linecap:round;"/>
    <path clip-path="url(#pc101a35ef6)" d="M 457.934646 374.921634 
L 462.352131 374.224623 
L 460.259248 378.176818 
L 457.934646 374.921634 
z
" style="stroke:#000000;stroke-linecap:round;"/>
   </g>
   <g id="patch_49">
    <path clip-path="url(#pc101a35ef6)" d="M 440.79405 360.735868 
Q 450.873084 362.298206 459.847279 363.689284 
" style="fill:none;stroke:#000000;stroke-linecap:round;"/>
    <path clip-path="url(#pc101a35ef6)" d="M 456.200844 361.10017 
L 459.847279 363.689284 
L 455.588126 365.052964 
L 456.200844 361.10017 
z
" style="stroke:#000000;stroke-linecap:round;"/>
   </g>
   <g id="PathCollection_1">
    <defs>
     <path d="M 0 13.228757 
C 3.508307 13.228757 6.873396 11.834891 9.354143 9.354143 
C 11.834891 6.873396 13.228757 3.508307 13.228757 0 
C 13.228757 -3.508307 11.834891 -6.873396 9.354143 -9.354143 
C 6.873396 -11.834891 3.508307 -13.228757 0 -13.228757 
C -3.508307 -13.228757 -6.873396 -11.834891 -9.354143 -9.354143 
C -11.834891 -6.873396 -13.228757 -3.508307 -13.228757 0 
C -13.228757 3.508307 -11.834891 6.873396 -9.354143 9.354143 
C -6.873396 11.834891 -3.508307 13.228757 0 13.228757 
z
" id="mb78dc77b8e" style="stroke:#87ceeb;"/>
    </defs>
    <g clip-path="url(#pc101a35ef6)">
     <use style="fill:#87ceeb;stroke:#87ceeb;" x="317.902886" xlink:href="#mb78dc77b8e" y="74.975207"/>
     <use style="fill:#87ceeb;stroke:#87ceeb;" x="299.490744" xlink:href="#mb78dc77b8e" y="123.285458"/>
     <use style="fill:#87ceeb;stroke:#87ceeb;" x="302.562733" xlink:href="#mb78dc77b8e" y="154.599964"/>
     <use style="fill:#87ceeb;stroke:#87ceeb;" x="309.847363" xlink:href="#mb78dc77b8e" y="250.712047"/>
     <use style="fill:#87ceeb;stroke:#87ceeb;" x="317.819711" xlink:href="#mb78dc77b8e" y="381.603568"/>
     <use style="fill:#87ceeb;stroke:#87ceeb;" x="137.337969" xlink:href="#mb78dc77b8e" y="161.375435"/>
     <use style="fill:#87ceeb;stroke:#87ceeb;" x="49.983471" xlink:href="#mb78dc77b8e" y="259.526385"/>
     <use style="fill:#87ceeb;stroke:#87ceeb;" x="90.770662" xlink:href="#mb78dc77b8e" y="361.00489"/>
     <use style="fill:#87ceeb;stroke:#87ceeb;" x="161.184894" xlink:href="#mb78dc77b8e" y="381.87412"/>
     <use style="fill:#87ceeb;stroke:#87ceeb;" x="480.723164" xlink:href="#mb78dc77b8e" y="164.265127"/>
     <use style="fill:#87ceeb;stroke:#87ceeb;" x="526.016529" xlink:href="#mb78dc77b8e" y="272.169435"/>
     <use style="fill:#87ceeb;stroke:#87ceeb;" x="513.740363" xlink:href="#mb78dc77b8e" y="346.562656"/>
     <use style="fill:#87ceeb;stroke:#87ceeb;" x="474.027073" xlink:href="#mb78dc77b8e" y="365.887276"/>
     <use style="fill:#87ceeb;stroke:#87ceeb;" x="238.996411" xlink:href="#mb78dc77b8e" y="385.974421"/>
     <use style="fill:#87ceeb;stroke:#87ceeb;" x="197.939692" xlink:href="#mb78dc77b8e" y="584.391035"/>
     <use style="fill:#87ceeb;stroke:#87ceeb;" x="230.211478" xlink:href="#mb78dc77b8e" y="741.580931"/>
     <use style="fill:#87ceeb;stroke:#87ceeb;" x="228.460597" xlink:href="#mb78dc77b8e" y="773.082203"/>
     <use style="fill:#87ceeb;stroke:#87ceeb;" x="383.497197" xlink:href="#mb78dc77b8e" y="381.145679"/>
     <use style="fill:#87ceeb;stroke:#87ceeb;" x="405.573238" xlink:href="#mb78dc77b8e" y="567.405666"/>
     <use style="fill:#87ceeb;stroke:#87ceeb;" x="360.47149" xlink:href="#mb78dc77b8e" y="738.732743"/>
     <use style="fill:#87ceeb;stroke:#87ceeb;" x="396.450341" xlink:href="#mb78dc77b8e" y="789.024793"/>
     <use style="fill:#87ceeb;stroke:#87ceeb;" x="205.478058" xlink:href="#mb78dc77b8e" y="415.07066"/>
     <use style="fill:#87ceeb;stroke:#87ceeb;" x="191.064618" xlink:href="#mb78dc77b8e" y="367.472197"/>
     <use style="fill:#87ceeb;stroke:#87ceeb;" x="444.568488" xlink:href="#mb78dc77b8e" y="386.924336"/>
     <use style="fill:#87ceeb;stroke:#87ceeb;" x="427.722978" xlink:href="#mb78dc77b8e" y="358.709738"/>
    </g>
   </g>
   <g id="text_1">
    <g clip-path="url(#pc101a35ef6)">
     <!-- Head -->
     <g transform="translate(304.827886 77.734582)scale(0.1 -0.1)">
      <defs>
       <path d="M 9.8125 72.90625 
L 19.671875 72.90625 
L 19.671875 43.015625 
L 55.515625 43.015625 
L 55.515625 72.90625 
L 65.375 72.90625 
L 65.375 0 
L 55.515625 0 
L 55.515625 34.71875 
L 19.671875 34.71875 
L 19.671875 0 
L 9.8125 0 
z
" id="DejaVuSans-72"/>
       <path d="M 56.203125 29.59375 
L 56.203125 25.203125 
L 14.890625 25.203125 
Q 15.484375 15.921875 20.484375 11.0625 
Q 25.484375 6.203125 34.421875 6.203125 
Q 39.59375 6.203125 44.453125 7.46875 
Q 49.3125 8.734375 54.109375 11.28125 
L 54.109375 2.78125 
Q 49.265625 0.734375 44.1875 -0.34375 
Q 39.109375 -1.421875 33.890625 -1.421875 
Q 20.796875 -1.421875 13.15625 6.1875 
Q 5.515625 13.8125 5.515625 26.8125 
Q 5.515625 40.234375 12.765625 48.109375 
Q 20.015625 56 32.328125 56 
Q 43.359375 56 49.78125 48.890625 
Q 56.203125 41.796875 56.203125 29.59375 
z
M 47.21875 32.234375 
Q 47.125 39.59375 43.09375 43.984375 
Q 39.0625 48.390625 32.421875 48.390625 
Q 24.90625 48.390625 20.390625 44.140625 
Q 15.875 39.890625 15.1875 32.171875 
z
" id="DejaVuSans-101"/>
       <path d="M 34.28125 27.484375 
Q 23.390625 27.484375 19.1875 25 
Q 14.984375 22.515625 14.984375 16.5 
Q 14.984375 11.71875 18.140625 8.90625 
Q 21.296875 6.109375 26.703125 6.109375 
Q 34.1875 6.109375 38.703125 11.40625 
Q 43.21875 16.703125 43.21875 25.484375 
L 43.21875 27.484375 
z
M 52.203125 31.203125 
L 52.203125 0 
L 43.21875 0 
L 43.21875 8.296875 
Q 40.140625 3.328125 35.546875 0.953125 
Q 30.953125 -1.421875 24.3125 -1.421875 
Q 15.921875 -1.421875 10.953125 3.296875 
Q 6 8.015625 6 15.921875 
Q 6 25.140625 12.171875 29.828125 
Q 18.359375 34.515625 30.609375 34.515625 
L 43.21875 34.515625 
L 43.21875 35.40625 
Q 43.21875 41.609375 39.140625 45 
Q 35.0625 48.390625 27.6875 48.390625 
Q 23 48.390625 18.546875 47.265625 
Q 14.109375 46.140625 10.015625 43.890625 
L 10.015625 52.203125 
Q 14.9375 54.109375 19.578125 55.046875 
Q 24.21875 56 28.609375 56 
Q 40.484375 56 46.34375 49.84375 
Q 52.203125 43.703125 52.203125 31.203125 
z
" id="DejaVuSans-97"/>
       <path d="M 45.40625 46.390625 
L 45.40625 75.984375 
L 54.390625 75.984375 
L 54.390625 0 
L 45.40625 0 
L 45.40625 8.203125 
Q 42.578125 3.328125 38.25 0.953125 
Q 33.9375 -1.421875 27.875 -1.421875 
Q 17.96875 -1.421875 11.734375 6.484375 
Q 5.515625 14.40625 5.515625 27.296875 
Q 5.515625 40.1875 11.734375 48.09375 
Q 17.96875 56 27.875 56 
Q 33.9375 56 38.25 53.625 
Q 42.578125 51.265625 45.40625 46.390625 
z
M 14.796875 27.296875 
Q 14.796875 17.390625 18.875 11.75 
Q 22.953125 6.109375 30.078125 6.109375 
Q 37.203125 6.109375 41.296875 11.75 
Q 45.40625 17.390625 45.40625 27.296875 
Q 45.40625 37.203125 41.296875 42.84375 
Q 37.203125 48.484375 30.078125 48.484375 
Q 22.953125 48.484375 18.875 42.84375 
Q 14.796875 37.203125 14.796875 27.296875 
z
" id="DejaVuSans-100"/>
      </defs>
      <use xlink:href="#DejaVuSans-72"/>
      <use x="75.195312" xlink:href="#DejaVuSans-101"/>
      <use x="136.71875" xlink:href="#DejaVuSans-97"/>
      <use x="197.998047" xlink:href="#DejaVuSans-100"/>
     </g>
    </g>
   </g>
   <g id="text_2">
    <g clip-path="url(#pc101a35ef6)">
     <!-- c7 -->
     <g transform="translate(293.560275 126.044833)scale(0.1 -0.1)">
      <defs>
       <path d="M 48.78125 52.59375 
L 48.78125 44.1875 
Q 44.96875 46.296875 41.140625 47.34375 
Q 37.3125 48.390625 33.40625 48.390625 
Q 24.65625 48.390625 19.8125 42.84375 
Q 14.984375 37.3125 14.984375 27.296875 
Q 14.984375 17.28125 19.8125 11.734375 
Q 24.65625 6.203125 33.40625 6.203125 
Q 37.3125 6.203125 41.140625 7.25 
Q 44.96875 8.296875 48.78125 10.40625 
L 48.78125 2.09375 
Q 45.015625 0.34375 40.984375 -0.53125 
Q 36.96875 -1.421875 32.421875 -1.421875 
Q 20.0625 -1.421875 12.78125 6.34375 
Q 5.515625 14.109375 5.515625 27.296875 
Q 5.515625 40.671875 12.859375 48.328125 
Q 20.21875 56 33.015625 56 
Q 37.15625 56 41.109375 55.140625 
Q 45.0625 54.296875 48.78125 52.59375 
z
" id="DejaVuSans-99"/>
       <path d="M 8.203125 72.90625 
L 55.078125 72.90625 
L 55.078125 68.703125 
L 28.609375 0 
L 18.3125 0 
L 43.21875 64.59375 
L 8.203125 64.59375 
z
" id="DejaVuSans-55"/>
      </defs>
      <use xlink:href="#DejaVuSans-99"/>
      <use x="54.980469" xlink:href="#DejaVuSans-55"/>
     </g>
    </g>
   </g>
   <g id="text_3">
    <g clip-path="url(#pc101a35ef6)">
     <!-- SpineShoulder -->
     <g transform="translate(266.313514 157.359339)scale(0.1 -0.1)">
      <defs>
       <path d="M 53.515625 70.515625 
L 53.515625 60.890625 
Q 47.90625 63.578125 42.921875 64.890625 
Q 37.9375 66.21875 33.296875 66.21875 
Q 25.25 66.21875 20.875 63.09375 
Q 16.5 59.96875 16.5 54.203125 
Q 16.5 49.359375 19.40625 46.890625 
Q 22.3125 44.4375 30.421875 42.921875 
L 36.375 41.703125 
Q 47.40625 39.59375 52.65625 34.296875 
Q 57.90625 29 57.90625 20.125 
Q 57.90625 9.515625 50.796875 4.046875 
Q 43.703125 -1.421875 29.984375 -1.421875 
Q 24.8125 -1.421875 18.96875 -0.25 
Q 13.140625 0.921875 6.890625 3.21875 
L 6.890625 13.375 
Q 12.890625 10.015625 18.65625 8.296875 
Q 24.421875 6.59375 29.984375 6.59375 
Q 38.421875 6.59375 43.015625 9.90625 
Q 47.609375 13.234375 47.609375 19.390625 
Q 47.609375 24.75 44.3125 27.78125 
Q 41.015625 30.8125 33.5 32.328125 
L 27.484375 33.5 
Q 16.453125 35.6875 11.515625 40.375 
Q 6.59375 45.0625 6.59375 53.421875 
Q 6.59375 63.09375 13.40625 68.65625 
Q 20.21875 74.21875 32.171875 74.21875 
Q 37.3125 74.21875 42.625 73.28125 
Q 47.953125 72.359375 53.515625 70.515625 
z
" id="DejaVuSans-83"/>
       <path d="M 18.109375 8.203125 
L 18.109375 -20.796875 
L 9.078125 -20.796875 
L 9.078125 54.6875 
L 18.109375 54.6875 
L 18.109375 46.390625 
Q 20.953125 51.265625 25.265625 53.625 
Q 29.59375 56 35.59375 56 
Q 45.5625 56 51.78125 48.09375 
Q 58.015625 40.1875 58.015625 27.296875 
Q 58.015625 14.40625 51.78125 6.484375 
Q 45.5625 -1.421875 35.59375 -1.421875 
Q 29.59375 -1.421875 25.265625 0.953125 
Q 20.953125 3.328125 18.109375 8.203125 
z
M 48.6875 27.296875 
Q 48.6875 37.203125 44.609375 42.84375 
Q 40.53125 48.484375 33.40625 48.484375 
Q 26.265625 48.484375 22.1875 42.84375 
Q 18.109375 37.203125 18.109375 27.296875 
Q 18.109375 17.390625 22.1875 11.75 
Q 26.265625 6.109375 33.40625 6.109375 
Q 40.53125 6.109375 44.609375 11.75 
Q 48.6875 17.390625 48.6875 27.296875 
z
" id="DejaVuSans-112"/>
       <path d="M 9.421875 54.6875 
L 18.40625 54.6875 
L 18.40625 0 
L 9.421875 0 
z
M 9.421875 75.984375 
L 18.40625 75.984375 
L 18.40625 64.59375 
L 9.421875 64.59375 
z
" id="DejaVuSans-105"/>
       <path d="M 54.890625 33.015625 
L 54.890625 0 
L 45.90625 0 
L 45.90625 32.71875 
Q 45.90625 40.484375 42.875 44.328125 
Q 39.84375 48.1875 33.796875 48.1875 
Q 26.515625 48.1875 22.3125 43.546875 
Q 18.109375 38.921875 18.109375 30.90625 
L 18.109375 0 
L 9.078125 0 
L 9.078125 54.6875 
L 18.109375 54.6875 
L 18.109375 46.1875 
Q 21.34375 51.125 25.703125 53.5625 
Q 30.078125 56 35.796875 56 
Q 45.21875 56 50.046875 50.171875 
Q 54.890625 44.34375 54.890625 33.015625 
z
" id="DejaVuSans-110"/>
       <path d="M 54.890625 33.015625 
L 54.890625 0 
L 45.90625 0 
L 45.90625 32.71875 
Q 45.90625 40.484375 42.875 44.328125 
Q 39.84375 48.1875 33.796875 48.1875 
Q 26.515625 48.1875 22.3125 43.546875 
Q 18.109375 38.921875 18.109375 30.90625 
L 18.109375 0 
L 9.078125 0 
L 9.078125 75.984375 
L 18.109375 75.984375 
L 18.109375 46.1875 
Q 21.34375 51.125 25.703125 53.5625 
Q 30.078125 56 35.796875 56 
Q 45.21875 56 50.046875 50.171875 
Q 54.890625 44.34375 54.890625 33.015625 
z
" id="DejaVuSans-104"/>
       <path d="M 30.609375 48.390625 
Q 23.390625 48.390625 19.1875 42.75 
Q 14.984375 37.109375 14.984375 27.296875 
Q 14.984375 17.484375 19.15625 11.84375 
Q 23.34375 6.203125 30.609375 6.203125 
Q 37.796875 6.203125 41.984375 11.859375 
Q 46.1875 17.53125 46.1875 27.296875 
Q 46.1875 37.015625 41.984375 42.703125 
Q 37.796875 48.390625 30.609375 48.390625 
z
M 30.609375 56 
Q 42.328125 56 49.015625 48.375 
Q 55.71875 40.765625 55.71875 27.296875 
Q 55.71875 13.875 49.015625 6.21875 
Q 42.328125 -1.421875 30.609375 -1.421875 
Q 18.84375 -1.421875 12.171875 6.21875 
Q 5.515625 13.875 5.515625 27.296875 
Q 5.515625 40.765625 12.171875 48.375 
Q 18.84375 56 30.609375 56 
z
" id="DejaVuSans-111"/>
       <path d="M 8.5 21.578125 
L 8.5 54.6875 
L 17.484375 54.6875 
L 17.484375 21.921875 
Q 17.484375 14.15625 20.5 10.265625 
Q 23.53125 6.390625 29.59375 6.390625 
Q 36.859375 6.390625 41.078125 11.03125 
Q 45.3125 15.671875 45.3125 23.6875 
L 45.3125 54.6875 
L 54.296875 54.6875 
L 54.296875 0 
L 45.3125 0 
L 45.3125 8.40625 
Q 42.046875 3.421875 37.71875 1 
Q 33.40625 -1.421875 27.6875 -1.421875 
Q 18.265625 -1.421875 13.375 4.4375 
Q 8.5 10.296875 8.5 21.578125 
z
M 31.109375 56 
z
" id="DejaVuSans-117"/>
       <path d="M 9.421875 75.984375 
L 18.40625 75.984375 
L 18.40625 0 
L 9.421875 0 
z
" id="DejaVuSans-108"/>
       <path d="M 41.109375 46.296875 
Q 39.59375 47.171875 37.8125 47.578125 
Q 36.03125 48 33.890625 48 
Q 26.265625 48 22.1875 43.046875 
Q 18.109375 38.09375 18.109375 28.8125 
L 18.109375 0 
L 9.078125 0 
L 9.078125 54.6875 
L 18.109375 54.6875 
L 18.109375 46.1875 
Q 20.953125 51.171875 25.484375 53.578125 
Q 30.03125 56 36.53125 56 
Q 37.453125 56 38.578125 55.875 
Q 39.703125 55.765625 41.0625 55.515625 
z
" id="DejaVuSans-114"/>
      </defs>
      <use xlink:href="#DejaVuSans-83"/>
      <use x="63.476562" xlink:href="#DejaVuSans-112"/>
      <use x="126.953125" xlink:href="#DejaVuSans-105"/>
      <use x="154.736328" xlink:href="#DejaVuSans-110"/>
      <use x="218.115234" xlink:href="#DejaVuSans-101"/>
      <use x="279.638672" xlink:href="#DejaVuSans-83"/>
      <use x="343.115234" xlink:href="#DejaVuSans-104"/>
      <use x="406.494141" xlink:href="#DejaVuSans-111"/>
      <use x="467.675781" xlink:href="#DejaVuSans-117"/>
      <use x="531.054688" xlink:href="#DejaVuSans-108"/>
      <use x="558.837891" xlink:href="#DejaVuSans-100"/>
      <use x="622.314453" xlink:href="#DejaVuSans-101"/>
      <use x="683.837891" xlink:href="#DejaVuSans-114"/>
     </g>
    </g>
   </g>
   <g id="text_4">
    <g clip-path="url(#pc101a35ef6)">
     <!-- Spine -->
     <g transform="translate(295.864551 253.471422)scale(0.1 -0.1)">
      <use xlink:href="#DejaVuSans-83"/>
      <use x="63.476562" xlink:href="#DejaVuSans-112"/>
      <use x="126.953125" xlink:href="#DejaVuSans-105"/>
      <use x="154.736328" xlink:href="#DejaVuSans-110"/>
      <use x="218.115234" xlink:href="#DejaVuSans-101"/>
     </g>
    </g>
   </g>
   <g id="text_5">
    <g clip-path="url(#pc101a35ef6)">
     <!-- Sacr -->
     <g transform="translate(306.776743 384.362943)scale(0.1 -0.1)">
      <use xlink:href="#DejaVuSans-83"/>
      <use x="63.476562" xlink:href="#DejaVuSans-97"/>
      <use x="124.755859" xlink:href="#DejaVuSans-99"/>
      <use x="179.736328" xlink:href="#DejaVuSans-114"/>
     </g>
    </g>
   </g>
   <g id="text_6">
    <g clip-path="url(#pc101a35ef6)">
     <!-- LShoulder -->
     <g transform="translate(112.285626 164.13481)scale(0.1 -0.1)">
      <defs>
       <path d="M 9.8125 72.90625 
L 19.671875 72.90625 
L 19.671875 8.296875 
L 55.171875 8.296875 
L 55.171875 0 
L 9.8125 0 
z
" id="DejaVuSans-76"/>
      </defs>
      <use xlink:href="#DejaVuSans-76"/>
      <use x="55.712891" xlink:href="#DejaVuSans-83"/>
      <use x="119.189453" xlink:href="#DejaVuSans-104"/>
      <use x="182.568359" xlink:href="#DejaVuSans-111"/>
      <use x="243.75" xlink:href="#DejaVuSans-117"/>
      <use x="307.128906" xlink:href="#DejaVuSans-108"/>
      <use x="334.912109" xlink:href="#DejaVuSans-100"/>
      <use x="398.388672" xlink:href="#DejaVuSans-101"/>
      <use x="459.912109" xlink:href="#DejaVuSans-114"/>
     </g>
    </g>
   </g>
   <g id="text_7">
    <g clip-path="url(#pc101a35ef6)">
     <!-- LElbow -->
     <g transform="translate(32.32644 262.28576)scale(0.1 -0.1)">
      <defs>
       <path d="M 9.8125 72.90625 
L 55.90625 72.90625 
L 55.90625 64.59375 
L 19.671875 64.59375 
L 19.671875 43.015625 
L 54.390625 43.015625 
L 54.390625 34.71875 
L 19.671875 34.71875 
L 19.671875 8.296875 
L 56.78125 8.296875 
L 56.78125 0 
L 9.8125 0 
z
" id="DejaVuSans-69"/>
       <path d="M 48.6875 27.296875 
Q 48.6875 37.203125 44.609375 42.84375 
Q 40.53125 48.484375 33.40625 48.484375 
Q 26.265625 48.484375 22.1875 42.84375 
Q 18.109375 37.203125 18.109375 27.296875 
Q 18.109375 17.390625 22.1875 11.75 
Q 26.265625 6.109375 33.40625 6.109375 
Q 40.53125 6.109375 44.609375 11.75 
Q 48.6875 17.390625 48.6875 27.296875 
z
M 18.109375 46.390625 
Q 20.953125 51.265625 25.265625 53.625 
Q 29.59375 56 35.59375 56 
Q 45.5625 56 51.78125 48.09375 
Q 58.015625 40.1875 58.015625 27.296875 
Q 58.015625 14.40625 51.78125 6.484375 
Q 45.5625 -1.421875 35.59375 -1.421875 
Q 29.59375 -1.421875 25.265625 0.953125 
Q 20.953125 3.328125 18.109375 8.203125 
L 18.109375 0 
L 9.078125 0 
L 9.078125 75.984375 
L 18.109375 75.984375 
z
" id="DejaVuSans-98"/>
       <path d="M 4.203125 54.6875 
L 13.1875 54.6875 
L 24.421875 12.015625 
L 35.59375 54.6875 
L 46.1875 54.6875 
L 57.421875 12.015625 
L 68.609375 54.6875 
L 77.59375 54.6875 
L 63.28125 0 
L 52.6875 0 
L 40.921875 44.828125 
L 29.109375 0 
L 18.5 0 
z
" id="DejaVuSans-119"/>
      </defs>
      <use xlink:href="#DejaVuSans-76"/>
      <use x="55.712891" xlink:href="#DejaVuSans-69"/>
      <use x="118.896484" xlink:href="#DejaVuSans-108"/>
      <use x="146.679688" xlink:href="#DejaVuSans-98"/>
      <use x="210.15625" xlink:href="#DejaVuSans-111"/>
      <use x="271.337891" xlink:href="#DejaVuSans-119"/>
     </g>
    </g>
   </g>
   <g id="text_8">
    <g clip-path="url(#pc101a35ef6)">
     <!-- LWrist -->
     <g transform="translate(75.71285 363.764265)scale(0.1 -0.1)">
      <defs>
       <path d="M 3.328125 72.90625 
L 13.28125 72.90625 
L 28.609375 11.28125 
L 43.890625 72.90625 
L 54.984375 72.90625 
L 70.3125 11.28125 
L 85.59375 72.90625 
L 95.609375 72.90625 
L 77.296875 0 
L 64.890625 0 
L 49.515625 63.28125 
L 33.984375 0 
L 21.578125 0 
z
" id="DejaVuSans-87"/>
       <path d="M 44.28125 53.078125 
L 44.28125 44.578125 
Q 40.484375 46.53125 36.375 47.5 
Q 32.28125 48.484375 27.875 48.484375 
Q 21.1875 48.484375 17.84375 46.4375 
Q 14.5 44.390625 14.5 40.28125 
Q 14.5 37.15625 16.890625 35.375 
Q 19.28125 33.59375 26.515625 31.984375 
L 29.59375 31.296875 
Q 39.15625 29.25 43.1875 25.515625 
Q 47.21875 21.78125 47.21875 15.09375 
Q 47.21875 7.46875 41.1875 3.015625 
Q 35.15625 -1.421875 24.609375 -1.421875 
Q 20.21875 -1.421875 15.453125 -0.5625 
Q 10.6875 0.296875 5.421875 2 
L 5.421875 11.28125 
Q 10.40625 8.6875 15.234375 7.390625 
Q 20.0625 6.109375 24.8125 6.109375 
Q 31.15625 6.109375 34.5625 8.28125 
Q 37.984375 10.453125 37.984375 14.40625 
Q 37.984375 18.0625 35.515625 20.015625 
Q 33.0625 21.96875 24.703125 23.78125 
L 21.578125 24.515625 
Q 13.234375 26.265625 9.515625 29.90625 
Q 5.8125 33.546875 5.8125 39.890625 
Q 5.8125 47.609375 11.28125 51.796875 
Q 16.75 56 26.8125 56 
Q 31.78125 56 36.171875 55.265625 
Q 40.578125 54.546875 44.28125 53.078125 
z
" id="DejaVuSans-115"/>
       <path d="M 18.3125 70.21875 
L 18.3125 54.6875 
L 36.8125 54.6875 
L 36.8125 47.703125 
L 18.3125 47.703125 
L 18.3125 18.015625 
Q 18.3125 11.328125 20.140625 9.421875 
Q 21.96875 7.515625 27.59375 7.515625 
L 36.8125 7.515625 
L 36.8125 0 
L 27.59375 0 
Q 17.1875 0 13.234375 3.875 
Q 9.28125 7.765625 9.28125 18.015625 
L 9.28125 47.703125 
L 2.6875 47.703125 
L 2.6875 54.6875 
L 9.28125 54.6875 
L 9.28125 70.21875 
z
" id="DejaVuSans-116"/>
      </defs>
      <use xlink:href="#DejaVuSans-76"/>
      <use x="46.587891" xlink:href="#DejaVuSans-87"/>
      <use x="140.964844" xlink:href="#DejaVuSans-114"/>
      <use x="182.078125" xlink:href="#DejaVuSans-105"/>
      <use x="209.861328" xlink:href="#DejaVuSans-115"/>
      <use x="261.960938" xlink:href="#DejaVuSans-116"/>
     </g>
    </g>
   </g>
   <g id="text_9">
    <g clip-path="url(#pc101a35ef6)">
     <!-- LHand -->
     <g transform="translate(145.231769 384.633495)scale(0.1 -0.1)">
      <use xlink:href="#DejaVuSans-76"/>
      <use x="55.712891" xlink:href="#DejaVuSans-72"/>
      <use x="130.908203" xlink:href="#DejaVuSans-97"/>
      <use x="192.1875" xlink:href="#DejaVuSans-110"/>
      <use x="255.566406" xlink:href="#DejaVuSans-100"/>
     </g>
    </g>
   </g>
   <g id="text_10">
    <g clip-path="url(#pc101a35ef6)">
     <!-- RShoulder -->
     <g transform="translate(454.982539 167.024502)scale(0.1 -0.1)">
      <defs>
       <path d="M 44.390625 34.1875 
Q 47.5625 33.109375 50.5625 29.59375 
Q 53.5625 26.078125 56.59375 19.921875 
L 66.609375 0 
L 56 0 
L 46.6875 18.703125 
Q 43.0625 26.03125 39.671875 28.421875 
Q 36.28125 30.8125 30.421875 30.8125 
L 19.671875 30.8125 
L 19.671875 0 
L 9.8125 0 
L 9.8125 72.90625 
L 32.078125 72.90625 
Q 44.578125 72.90625 50.734375 67.671875 
Q 56.890625 62.453125 56.890625 51.90625 
Q 56.890625 45.015625 53.6875 40.46875 
Q 50.484375 35.9375 44.390625 34.1875 
z
M 19.671875 64.796875 
L 19.671875 38.921875 
L 32.078125 38.921875 
Q 39.203125 38.921875 42.84375 42.21875 
Q 46.484375 45.515625 46.484375 51.90625 
Q 46.484375 58.296875 42.84375 61.546875 
Q 39.203125 64.796875 32.078125 64.796875 
z
" id="DejaVuSans-82"/>
      </defs>
      <use xlink:href="#DejaVuSans-82"/>
      <use x="69.482422" xlink:href="#DejaVuSans-83"/>
      <use x="132.958984" xlink:href="#DejaVuSans-104"/>
      <use x="196.337891" xlink:href="#DejaVuSans-111"/>
      <use x="257.519531" xlink:href="#DejaVuSans-117"/>
      <use x="320.898438" xlink:href="#DejaVuSans-108"/>
      <use x="348.681641" xlink:href="#DejaVuSans-100"/>
      <use x="412.158203" xlink:href="#DejaVuSans-101"/>
      <use x="473.681641" xlink:href="#DejaVuSans-114"/>
     </g>
    </g>
   </g>
   <g id="text_11">
    <g clip-path="url(#pc101a35ef6)">
     <!-- RElbow -->
     <g transform="translate(507.671216 274.92881)scale(0.1 -0.1)">
      <use xlink:href="#DejaVuSans-82"/>
      <use x="69.482422" xlink:href="#DejaVuSans-69"/>
      <use x="132.666016" xlink:href="#DejaVuSans-108"/>
      <use x="160.449219" xlink:href="#DejaVuSans-98"/>
      <use x="223.925781" xlink:href="#DejaVuSans-111"/>
      <use x="285.107422" xlink:href="#DejaVuSans-119"/>
     </g>
    </g>
   </g>
   <g id="text_12">
    <g clip-path="url(#pc101a35ef6)">
     <!-- RWrist -->
     <g transform="translate(497.73802 349.322031)scale(0.1 -0.1)">
      <use xlink:href="#DejaVuSans-82"/>
      <use x="65.482422" xlink:href="#DejaVuSans-87"/>
      <use x="159.859375" xlink:href="#DejaVuSans-114"/>
      <use x="200.972656" xlink:href="#DejaVuSans-105"/>
      <use x="228.755859" xlink:href="#DejaVuSans-115"/>
      <use x="280.855469" xlink:href="#DejaVuSans-116"/>
     </g>
    </g>
   </g>
   <g id="text_13">
    <g clip-path="url(#pc101a35ef6)">
     <!-- RHand -->
     <g transform="translate(457.385667 368.646651)scale(0.1 -0.1)">
      <use xlink:href="#DejaVuSans-82"/>
      <use x="69.482422" xlink:href="#DejaVuSans-72"/>
      <use x="144.677734" xlink:href="#DejaVuSans-97"/>
      <use x="205.957031" xlink:href="#DejaVuSans-110"/>
      <use x="269.335938" xlink:href="#DejaVuSans-100"/>
     </g>
    </g>
   </g>
   <g id="text_14">
    <g clip-path="url(#pc101a35ef6)">
     <!-- LHip -->
     <g transform="translate(227.887036 388.733796)scale(0.1 -0.1)">
      <use xlink:href="#DejaVuSans-76"/>
      <use x="55.712891" xlink:href="#DejaVuSans-72"/>
      <use x="130.908203" xlink:href="#DejaVuSans-105"/>
      <use x="158.691406" xlink:href="#DejaVuSans-112"/>
     </g>
    </g>
   </g>
   <g id="text_15">
    <g clip-path="url(#pc101a35ef6)">
     <!-- LKnee -->
     <g transform="translate(182.552973 587.15041)scale(0.1 -0.1)">
      <defs>
       <path d="M 9.8125 72.90625 
L 19.671875 72.90625 
L 19.671875 42.09375 
L 52.390625 72.90625 
L 65.09375 72.90625 
L 28.90625 38.921875 
L 67.671875 0 
L 54.6875 0 
L 19.671875 35.109375 
L 19.671875 0 
L 9.8125 0 
z
" id="DejaVuSans-75"/>
      </defs>
      <use xlink:href="#DejaVuSans-76"/>
      <use x="55.712891" xlink:href="#DejaVuSans-75"/>
      <use x="121.289062" xlink:href="#DejaVuSans-110"/>
      <use x="184.667969" xlink:href="#DejaVuSans-101"/>
      <use x="246.191406" xlink:href="#DejaVuSans-101"/>
     </g>
    </g>
   </g>
   <g id="text_16">
    <g clip-path="url(#pc101a35ef6)">
     <!-- LAnkle -->
     <g transform="translate(213.36304 744.340306)scale(0.1 -0.1)">
      <defs>
       <path d="M 34.1875 63.1875 
L 20.796875 26.90625 
L 47.609375 26.90625 
z
M 28.609375 72.90625 
L 39.796875 72.90625 
L 67.578125 0 
L 57.328125 0 
L 50.6875 18.703125 
L 17.828125 18.703125 
L 11.1875 0 
L 0.78125 0 
z
" id="DejaVuSans-65"/>
       <path d="M 9.078125 75.984375 
L 18.109375 75.984375 
L 18.109375 31.109375 
L 44.921875 54.6875 
L 56.390625 54.6875 
L 27.390625 29.109375 
L 57.625 0 
L 45.90625 0 
L 18.109375 26.703125 
L 18.109375 0 
L 9.078125 0 
z
" id="DejaVuSans-107"/>
      </defs>
      <use xlink:href="#DejaVuSans-76"/>
      <use x="57.962891" xlink:href="#DejaVuSans-65"/>
      <use x="126.371094" xlink:href="#DejaVuSans-110"/>
      <use x="189.75" xlink:href="#DejaVuSans-107"/>
      <use x="247.660156" xlink:href="#DejaVuSans-108"/>
      <use x="275.443359" xlink:href="#DejaVuSans-101"/>
     </g>
    </g>
   </g>
   <g id="text_17">
    <g clip-path="url(#pc101a35ef6)">
     <!-- LFoot -->
     <g transform="translate(214.901222 775.841578)scale(0.1 -0.1)">
      <defs>
       <path d="M 9.8125 72.90625 
L 51.703125 72.90625 
L 51.703125 64.59375 
L 19.671875 64.59375 
L 19.671875 43.109375 
L 48.578125 43.109375 
L 48.578125 34.8125 
L 19.671875 34.8125 
L 19.671875 0 
L 9.8125 0 
z
" id="DejaVuSans-70"/>
      </defs>
      <use xlink:href="#DejaVuSans-76"/>
      <use x="55.712891" xlink:href="#DejaVuSans-70"/>
      <use x="109.607422" xlink:href="#DejaVuSans-111"/>
      <use x="170.789062" xlink:href="#DejaVuSans-111"/>
      <use x="231.970703" xlink:href="#DejaVuSans-116"/>
     </g>
    </g>
   </g>
   <g id="text_18">
    <g clip-path="url(#pc101a35ef6)">
     <!-- RHip -->
     <g transform="translate(371.69954 383.905054)scale(0.1 -0.1)">
      <use xlink:href="#DejaVuSans-82"/>
      <use x="69.482422" xlink:href="#DejaVuSans-72"/>
      <use x="144.677734" xlink:href="#DejaVuSans-105"/>
      <use x="172.460938" xlink:href="#DejaVuSans-112"/>
     </g>
    </g>
   </g>
   <g id="text_19">
    <g clip-path="url(#pc101a35ef6)">
     <!-- RKnee -->
     <g transform="translate(389.498238 570.165041)scale(0.1 -0.1)">
      <use xlink:href="#DejaVuSans-82"/>
      <use x="69.482422" xlink:href="#DejaVuSans-75"/>
      <use x="135.058594" xlink:href="#DejaVuSans-110"/>
      <use x="198.4375" xlink:href="#DejaVuSans-101"/>
      <use x="259.960938" xlink:href="#DejaVuSans-101"/>
     </g>
    </g>
   </g>
   <g id="text_20">
    <g clip-path="url(#pc101a35ef6)">
     <!-- RAnkle -->
     <g transform="translate(343.247271 741.492118)scale(0.1 -0.1)">
      <use xlink:href="#DejaVuSans-82"/>
      <use x="65.482422" xlink:href="#DejaVuSans-65"/>
      <use x="133.890625" xlink:href="#DejaVuSans-110"/>
      <use x="197.269531" xlink:href="#DejaVuSans-107"/>
      <use x="255.179688" xlink:href="#DejaVuSans-108"/>
      <use x="282.962891" xlink:href="#DejaVuSans-101"/>
     </g>
    </g>
   </g>
   <g id="text_21">
    <g clip-path="url(#pc101a35ef6)">
     <!-- RFoot -->
     <g transform="translate(382.202685 791.784168)scale(0.1 -0.1)">
      <use xlink:href="#DejaVuSans-82"/>
      <use x="69.482422" xlink:href="#DejaVuSans-70"/>
      <use x="123.376953" xlink:href="#DejaVuSans-111"/>
      <use x="184.558594" xlink:href="#DejaVuSans-111"/>
      <use x="245.740234" xlink:href="#DejaVuSans-116"/>
     </g>
    </g>
   </g>
   <g id="text_22">
    <g clip-path="url(#pc101a35ef6)">
     <!-- LHandTip -->
     <g transform="translate(182.063995 417.830035)scale(0.1 -0.1)">
      <defs>
       <path d="M -0.296875 72.90625 
L 61.375 72.90625 
L 61.375 64.59375 
L 35.5 64.59375 
L 35.5 0 
L 25.59375 0 
L 25.59375 64.59375 
L -0.296875 64.59375 
z
" id="DejaVuSans-84"/>
      </defs>
      <use xlink:href="#DejaVuSans-76"/>
      <use x="55.712891" xlink:href="#DejaVuSans-72"/>
      <use x="130.908203" xlink:href="#DejaVuSans-97"/>
      <use x="192.1875" xlink:href="#DejaVuSans-110"/>
      <use x="255.566406" xlink:href="#DejaVuSans-100"/>
      <use x="319.042969" xlink:href="#DejaVuSans-84"/>
      <use x="377.001953" xlink:href="#DejaVuSans-105"/>
      <use x="404.785156" xlink:href="#DejaVuSans-112"/>
     </g>
    </g>
   </g>
   <g id="text_23">
    <g clip-path="url(#pc101a35ef6)">
     <!-- LThumb -->
     <g transform="translate(171.530243 370.231572)scale(0.1 -0.1)">
      <defs>
       <path d="M 52 44.1875 
Q 55.375 50.25 60.0625 53.125 
Q 64.75 56 71.09375 56 
Q 79.640625 56 84.28125 50.015625 
Q 88.921875 44.046875 88.921875 33.015625 
L 88.921875 0 
L 79.890625 0 
L 79.890625 32.71875 
Q 79.890625 40.578125 77.09375 44.375 
Q 74.3125 48.1875 68.609375 48.1875 
Q 61.625 48.1875 57.5625 43.546875 
Q 53.515625 38.921875 53.515625 30.90625 
L 53.515625 0 
L 44.484375 0 
L 44.484375 32.71875 
Q 44.484375 40.625 41.703125 44.40625 
Q 38.921875 48.1875 33.109375 48.1875 
Q 26.21875 48.1875 22.15625 43.53125 
Q 18.109375 38.875 18.109375 30.90625 
L 18.109375 0 
L 9.078125 0 
L 9.078125 54.6875 
L 18.109375 54.6875 
L 18.109375 46.1875 
Q 21.1875 51.21875 25.484375 53.609375 
Q 29.78125 56 35.6875 56 
Q 41.65625 56 45.828125 52.96875 
Q 50 49.953125 52 44.1875 
z
" id="DejaVuSans-109"/>
      </defs>
      <use xlink:href="#DejaVuSans-76"/>
      <use x="41.962891" xlink:href="#DejaVuSans-84"/>
      <use x="103.046875" xlink:href="#DejaVuSans-104"/>
      <use x="166.425781" xlink:href="#DejaVuSans-117"/>
      <use x="229.804688" xlink:href="#DejaVuSans-109"/>
      <use x="327.216797" xlink:href="#DejaVuSans-98"/>
     </g>
    </g>
   </g>
   <g id="text_24">
    <g clip-path="url(#pc101a35ef6)">
     <!-- RHandTip -->
     <g transform="translate(420.466144 389.683711)scale(0.1 -0.1)">
      <use xlink:href="#DejaVuSans-82"/>
      <use x="69.482422" xlink:href="#DejaVuSans-72"/>
      <use x="144.677734" xlink:href="#DejaVuSans-97"/>
      <use x="205.957031" xlink:href="#DejaVuSans-110"/>
      <use x="269.335938" xlink:href="#DejaVuSans-100"/>
      <use x="332.8125" xlink:href="#DejaVuSans-84"/>
      <use x="390.771484" xlink:href="#DejaVuSans-105"/>
      <use x="418.554688" xlink:href="#DejaVuSans-112"/>
     </g>
    </g>
   </g>
   <g id="text_25">
    <g clip-path="url(#pc101a35ef6)">
     <!-- RThumb -->
     <g transform="translate(407.175321 361.469113)scale(0.1 -0.1)">
      <use xlink:href="#DejaVuSans-82"/>
      <use x="62.232422" xlink:href="#DejaVuSans-84"/>
      <use x="123.316406" xlink:href="#DejaVuSans-104"/>
      <use x="186.695312" xlink:href="#DejaVuSans-117"/>
      <use x="250.074219" xlink:href="#DejaVuSans-109"/>
      <use x="347.486328" xlink:href="#DejaVuSans-98"/>
     </g>
    </g>
   </g>
   <g id="text_26">
    <!-- Node Graph Visualization - Frame 115 -->
    <g transform="translate(174.194063 -6)scale(0.12 -0.12)">
     <defs>
      <path d="M 9.8125 72.90625 
L 23.09375 72.90625 
L 55.421875 11.921875 
L 55.421875 72.90625 
L 64.984375 72.90625 
L 64.984375 0 
L 51.703125 0 
L 19.390625 60.984375 
L 19.390625 0 
L 9.8125 0 
z
" id="DejaVuSans-78"/>
      <path id="DejaVuSans-32"/>
      <path d="M 59.515625 10.40625 
L 59.515625 29.984375 
L 43.40625 29.984375 
L 43.40625 38.09375 
L 69.28125 38.09375 
L 69.28125 6.78125 
Q 63.578125 2.734375 56.6875 0.65625 
Q 49.8125 -1.421875 42 -1.421875 
Q 24.90625 -1.421875 15.25 8.5625 
Q 5.609375 18.5625 5.609375 36.375 
Q 5.609375 54.25 15.25 64.234375 
Q 24.90625 74.21875 42 74.21875 
Q 49.125 74.21875 55.546875 72.453125 
Q 61.96875 70.703125 67.390625 67.28125 
L 67.390625 56.78125 
Q 61.921875 61.421875 55.765625 63.765625 
Q 49.609375 66.109375 42.828125 66.109375 
Q 29.4375 66.109375 22.71875 58.640625 
Q 16.015625 51.171875 16.015625 36.375 
Q 16.015625 21.625 22.71875 14.15625 
Q 29.4375 6.6875 42.828125 6.6875 
Q 48.046875 6.6875 52.140625 7.59375 
Q 56.25 8.5 59.515625 10.40625 
z
" id="DejaVuSans-71"/>
      <path d="M 28.609375 0 
L 0.78125 72.90625 
L 11.078125 72.90625 
L 34.1875 11.53125 
L 57.328125 72.90625 
L 67.578125 72.90625 
L 39.796875 0 
z
" id="DejaVuSans-86"/>
      <path d="M 5.515625 54.6875 
L 48.1875 54.6875 
L 48.1875 46.484375 
L 14.40625 7.171875 
L 48.1875 7.171875 
L 48.1875 0 
L 4.296875 0 
L 4.296875 8.203125 
L 38.09375 47.515625 
L 5.515625 47.515625 
z
" id="DejaVuSans-122"/>
      <path d="M 4.890625 31.390625 
L 31.203125 31.390625 
L 31.203125 23.390625 
L 4.890625 23.390625 
z
" id="DejaVuSans-45"/>
      <path d="M 12.40625 8.296875 
L 28.515625 8.296875 
L 28.515625 63.921875 
L 10.984375 60.40625 
L 10.984375 69.390625 
L 28.421875 72.90625 
L 38.28125 72.90625 
L 38.28125 8.296875 
L 54.390625 8.296875 
L 54.390625 0 
L 12.40625 0 
z
" id="DejaVuSans-49"/>
      <path d="M 10.796875 72.90625 
L 49.515625 72.90625 
L 49.515625 64.59375 
L 19.828125 64.59375 
L 19.828125 46.734375 
Q 21.96875 47.46875 24.109375 47.828125 
Q 26.265625 48.1875 28.421875 48.1875 
Q 40.625 48.1875 47.75 41.5 
Q 54.890625 34.8125 54.890625 23.390625 
Q 54.890625 11.625 47.5625 5.09375 
Q 40.234375 -1.421875 26.90625 -1.421875 
Q 22.3125 -1.421875 17.546875 -0.640625 
Q 12.796875 0.140625 7.71875 1.703125 
L 7.71875 11.625 
Q 12.109375 9.234375 16.796875 8.0625 
Q 21.484375 6.890625 26.703125 6.890625 
Q 35.15625 6.890625 40.078125 11.328125 
Q 45.015625 15.765625 45.015625 23.390625 
Q 45.015625 31 40.078125 35.4375 
Q 35.15625 39.890625 26.703125 39.890625 
Q 22.75 39.890625 18.8125 39.015625 
Q 14.890625 38.140625 10.796875 36.28125 
z
" id="DejaVuSans-53"/>
     </defs>
     <use xlink:href="#DejaVuSans-78"/>
     <use x="74.804688" xlink:href="#DejaVuSans-111"/>
     <use x="135.986328" xlink:href="#DejaVuSans-100"/>
     <use x="199.462891" xlink:href="#DejaVuSans-101"/>
     <use x="260.986328" xlink:href="#DejaVuSans-32"/>
     <use x="292.773438" xlink:href="#DejaVuSans-71"/>
     <use x="370.263672" xlink:href="#DejaVuSans-114"/>
     <use x="411.376953" xlink:href="#DejaVuSans-97"/>
     <use x="472.65625" xlink:href="#DejaVuSans-112"/>
     <use x="536.132812" xlink:href="#DejaVuSans-104"/>
     <use x="599.511719" xlink:href="#DejaVuSans-32"/>
     <use x="631.298828" xlink:href="#DejaVuSans-86"/>
     <use x="697.457031" xlink:href="#DejaVuSans-105"/>
     <use x="725.240234" xlink:href="#DejaVuSans-115"/>
     <use x="777.339844" xlink:href="#DejaVuSans-117"/>
     <use x="840.71875" xlink:href="#DejaVuSans-97"/>
     <use x="901.998047" xlink:href="#DejaVuSans-108"/>
     <use x="929.78125" xlink:href="#DejaVuSans-105"/>
     <use x="957.564453" xlink:href="#DejaVuSans-122"/>
     <use x="1010.054688" xlink:href="#DejaVuSans-97"/>
     <use x="1071.333984" xlink:href="#DejaVuSans-116"/>
     <use x="1110.542969" xlink:href="#DejaVuSans-105"/>
     <use x="1138.326172" xlink:href="#DejaVuSans-111"/>
     <use x="1199.507812" xlink:href="#DejaVuSans-110"/>
     <use x="1262.886719" xlink:href="#DejaVuSans-32"/>
     <use x="1294.673828" xlink:href="#DejaVuSans-45"/>
     <use x="1330.757812" xlink:href="#DejaVuSans-32"/>
     <use x="1362.544922" xlink:href="#DejaVuSans-70"/>
     <use x="1412.814453" xlink:href="#DejaVuSans-114"/>
     <use x="1453.927734" xlink:href="#DejaVuSans-97"/>
     <use x="1515.207031" xlink:href="#DejaVuSans-109"/>
     <use x="1612.619141" xlink:href="#DejaVuSans-101"/>
     <use x="1674.142578" xlink:href="#DejaVuSans-32"/>
     <use x="1705.929688" xlink:href="#DejaVuSans-49"/>
     <use x="1769.552734" xlink:href="#DejaVuSans-49"/>
     <use x="1833.175781" xlink:href="#DejaVuSans-53"/>
    </g>
   </g>
  </g>
 </g>
 <defs>
  <clipPath id="pc101a35ef6">
   <rect height="864" width="576" x="0" y="0"/>
  </clipPath>
 </defs>
</svg>
