<?xml version="1.0" encoding="utf-8" standalone="no"?>
<!DOCTYPE svg PUBLIC "-//W3C//DTD SVG 1.1//EN"
  "http://www.w3.org/Graphics/SVG/1.1/DTD/svg11.dtd">
<!-- Created with matplotlib (https://matplotlib.org/) -->
<svg height="864pt" version="1.1" viewBox="0 0 576 864" width="576pt" xmlns="http://www.w3.org/2000/svg" xmlns:xlink="http://www.w3.org/1999/xlink">
 <metadata>
  <rdf:RDF xmlns:cc="http://creativecommons.org/ns#" xmlns:dc="http://purl.org/dc/elements/1.1/" xmlns:rdf="http://www.w3.org/1999/02/22-rdf-syntax-ns#">
   <cc:Work>
    <dc:type rdf:resource="http://purl.org/dc/dcmitype/StillImage"/>
    <dc:date>2024-02-04T22:27:53.940359</dc:date>
    <dc:format>image/svg+xml</dc:format>
    <dc:creator>
     <cc:Agent>
      <dc:title>Matplotlib v3.3.2, https://matplotlib.org/</dc:title>
     </cc:Agent>
    </dc:creator>
   </cc:Work>
  </rdf:RDF>
 </metadata>
 <defs>
  <style type="text/css">*{stroke-linecap:butt;stroke-linejoin:round;}</style>
 </defs>
 <g id="figure_1">
  <g id="patch_1">
   <path d="M 0 864 
L 576 864 
L 576 0 
L 0 0 
z
" style="fill:#ffffff;"/>
  </g>
  <g id="axes_1">
   <g id="patch_2">
    <path clip-path="url(#p65c92f257f)" d="M 331.851666 87.453625 
Q 329.066961 95.351719 326.654021 102.195398 
" style="fill:none;stroke:#000000;stroke-linecap:round;"/>
    <path clip-path="url(#p65c92f257f)" d="M 329.870282 99.088042 
L 326.654021 102.195398 
L 326.097893 97.757975 
L 329.870282 99.088042 
z
" style="stroke:#000000;stroke-linecap:round;"/>
   </g>
   <g id="patch_3">
    <path clip-path="url(#p65c92f257f)" d="M 320.6344 128.896216 
Q 320.602845 129.228947 320.676847 128.448638 
" style="fill:none;stroke:#000000;stroke-linecap:round;"/>
    <path clip-path="url(#p65c92f257f)" d="M 323.045567 124.655333 
L 320.676847 128.448638 
L 319.063435 124.277679 
L 323.045567 124.655333 
z
" style="stroke:#000000;stroke-linecap:round;"/>
   </g>
   <g id="patch_4">
    <path clip-path="url(#p65c92f257f)" d="M 326.283065 103.247518 
Q 329.06777 95.349424 331.48071 88.505745 
" style="fill:none;stroke:#000000;stroke-linecap:round;"/>
    <path clip-path="url(#p65c92f257f)" d="M 328.264448 91.613101 
L 331.48071 88.505745 
L 332.036838 92.943168 
L 328.264448 91.613101 
z
" style="stroke:#000000;stroke-linecap:round;"/>
   </g>
   <g id="patch_5">
    <path clip-path="url(#p65c92f257f)" d="M 318.061374 155.902809 
Q 315.32086 184.529485 312.686892 212.043215 
" style="fill:none;stroke:#000000;stroke-linecap:round;"/>
    <path clip-path="url(#p65c92f257f)" d="M 315.058978 208.252014 
L 312.686892 212.043215 
L 311.077183 207.870825 
L 315.058978 208.252014 
z
" style="stroke:#000000;stroke-linecap:round;"/>
   </g>
   <g id="patch_6">
    <path clip-path="url(#p65c92f257f)" d="M 306.137409 141.643308 
Q 231.917583 135.512452 158.811996 129.473636 
" style="fill:none;stroke:#000000;stroke-linecap:round;"/>
    <path clip-path="url(#p65c92f257f)" d="M 162.633772 131.796142 
L 158.811996 129.473636 
L 162.963066 127.809719 
L 162.633772 131.796142 
z
" style="stroke:#000000;stroke-linecap:round;"/>
   </g>
   <g id="patch_7">
    <path clip-path="url(#p65c92f257f)" d="M 332.542792 143.127672 
Q 410.735637 145.46535 487.810947 147.769617 
" style="fill:none;stroke:#000000;stroke-linecap:round;"/>
    <path clip-path="url(#p65c92f257f)" d="M 483.8725 145.650979 
L 487.810947 147.769617 
L 483.752968 149.649192 
L 483.8725 145.650979 
z
" style="stroke:#000000;stroke-linecap:round;"/>
   </g>
   <g id="patch_8">
    <path clip-path="url(#p65c92f257f)" d="M 320.571245 129.562147 
Q 320.6028 129.229416 320.528798 130.009725 
" style="fill:none;stroke:#000000;stroke-linecap:round;"/>
    <path clip-path="url(#p65c92f257f)" d="M 318.160078 133.80303 
L 320.528798 130.009725 
L 322.14221 134.180684 
L 318.160078 133.80303 
z
" style="stroke:#000000;stroke-linecap:round;"/>
   </g>
   <g id="patch_9">
    <path clip-path="url(#p65c92f257f)" d="M 310.073669 239.487455 
Q 305.882068 283.766857 301.795832 326.933201 
" style="fill:none;stroke:#000000;stroke-linecap:round;"/>
    <path clip-path="url(#p65c92f257f)" d="M 304.163895 323.139486 
L 301.795832 326.933201 
L 300.181698 322.762521 
L 304.163895 323.139486 
z
" style="stroke:#000000;stroke-linecap:round;"/>
   </g>
   <g id="patch_10">
    <path clip-path="url(#p65c92f257f)" d="M 312.58089 213.150481 
Q 315.321404 184.523805 317.955373 157.010075 
" style="fill:none;stroke:#000000;stroke-linecap:round;"/>
    <path clip-path="url(#p65c92f257f)" d="M 315.583286 160.801276 
L 317.955373 157.010075 
L 319.565082 161.182465 
L 315.583286 160.801276 
z
" style="stroke:#000000;stroke-linecap:round;"/>
   </g>
   <g id="patch_11">
    <path clip-path="url(#p65c92f257f)" d="M 287.21434 341.323497 
Q 259.196989 341.544615 232.297637 341.75691 
" style="fill:none;stroke:#000000;stroke-linecap:round;"/>
    <path clip-path="url(#p65c92f257f)" d="M 236.313297 343.72528 
L 232.297637 341.75691 
L 236.281729 339.725404 
L 236.313297 343.72528 
z
" style="stroke:#000000;stroke-linecap:round;"/>
   </g>
   <g id="patch_12">
    <path clip-path="url(#p65c92f257f)" d="M 313.656064 341.855119 
Q 341.057257 343.17416 367.341709 344.439445 
" style="fill:none;stroke:#000000;stroke-linecap:round;"/>
    <path clip-path="url(#p65c92f257f)" d="M 363.4425 342.249428 
L 367.341709 344.439445 
L 363.25017 346.244802 
L 363.4425 342.249428 
z
" style="stroke:#000000;stroke-linecap:round;"/>
   </g>
   <g id="patch_13">
    <path clip-path="url(#p65c92f257f)" d="M 301.689876 328.0525 
Q 305.881477 283.773097 309.967713 240.606753 
" style="fill:none;stroke:#000000;stroke-linecap:round;"/>
    <path clip-path="url(#p65c92f257f)" d="M 307.599649 244.400468 
L 309.967713 240.606753 
L 311.581847 244.777433 
L 307.599649 244.400468 
z
" style="stroke:#000000;stroke-linecap:round;"/>
   </g>
   <g id="patch_14">
    <path clip-path="url(#p65c92f257f)" d="M 134.840704 137.310985 
Q 97.250825 172.357895 60.478691 206.64238 
" style="fill:none;stroke:#000000;stroke-linecap:round;"/>
    <path clip-path="url(#p65c92f257f)" d="M 64.768215 205.377474 
L 60.478691 206.64238 
L 62.04048 202.451817 
L 64.768215 205.377474 
z
" style="stroke:#000000;stroke-linecap:round;"/>
   </g>
   <g id="patch_15">
    <path clip-path="url(#p65c92f257f)" d="M 157.698338 129.381644 
Q 231.918164 135.5125 305.023751 141.551315 
" style="fill:none;stroke:#000000;stroke-linecap:round;"/>
    <path clip-path="url(#p65c92f257f)" d="M 301.201976 139.22881 
L 305.023751 141.551315 
L 300.872681 143.215232 
L 301.201976 139.22881 
z
" style="stroke:#000000;stroke-linecap:round;"/>
   </g>
   <g id="patch_16">
    <path clip-path="url(#p65c92f257f)" d="M 62.743647 219.906733 
Q 150.180967 243.747047 236.53963 267.293257 
" style="fill:none;stroke:#000000;stroke-linecap:round;"/>
    <path clip-path="url(#p65c92f257f)" d="M 233.206612 264.311481 
L 236.53963 267.293257 
L 232.154398 268.170606 
L 233.206612 264.311481 
z
" style="stroke:#000000;stroke-linecap:round;"/>
   </g>
   <g id="patch_17">
    <path clip-path="url(#p65c92f257f)" d="M 59.656301 207.409135 
Q 97.246181 172.362225 134.018314 138.07774 
" style="fill:none;stroke:#000000;stroke-linecap:round;"/>
    <path clip-path="url(#p65c92f257f)" d="M 129.728791 139.342647 
L 134.018314 138.07774 
L 132.456525 142.268303 
L 129.728791 139.342647 
z
" style="stroke:#000000;stroke-linecap:round;"/>
   </g>
   <g id="patch_18">
    <path clip-path="url(#p65c92f257f)" d="M 263.188934 274.355366 
Q 282.379792 279.282273 300.487734 283.931162 
" style="fill:none;stroke:#000000;stroke-linecap:round;"/>
    <path clip-path="url(#p65c92f257f)" d="M 297.110715 280.999313 
L 300.487734 283.931162 
L 296.116044 284.873668 
L 297.110715 280.999313 
z
" style="stroke:#000000;stroke-linecap:round;"/>
   </g>
   <g id="patch_19">
    <path clip-path="url(#p65c92f257f)" d="M 237.618902 267.587527 
Q 150.181581 243.747214 63.822919 220.201003 
" style="fill:none;stroke:#000000;stroke-linecap:round;"/>
    <path clip-path="url(#p65c92f257f)" d="M 67.155937 223.18278 
L 63.822919 220.201003 
L 68.208151 219.323655 
L 67.155937 223.18278 
z
" style="stroke:#000000;stroke-linecap:round;"/>
   </g>
   <g id="patch_20">
    <path clip-path="url(#p65c92f257f)" d="M 327.123856 291.066558 
Q 331.783372 292.371462 335.366276 293.374859 
" style="fill:none;stroke:#000000;stroke-linecap:round;"/>
    <path clip-path="url(#p65c92f257f)" d="M 332.053822 290.370253 
L 335.366276 293.374859 
L 330.975119 294.222058 
L 332.053822 290.370253 
z
" style="stroke:#000000;stroke-linecap:round;"/>
   </g>
   <g id="patch_21">
    <path clip-path="url(#p65c92f257f)" d="M 327.476837 285.579143 
Q 338.931895 283.899146 349.280753 282.381384 
" style="fill:none;stroke:#000000;stroke-linecap:round;"/>
    <path clip-path="url(#p65c92f257f)" d="M 345.032874 280.982982 
L 349.280753 282.381384 
L 345.613304 284.940646 
L 345.032874 280.982982 
z
" style="stroke:#000000;stroke-linecap:round;"/>
   </g>
   <g id="patch_22">
    <path clip-path="url(#p65c92f257f)" d="M 301.57553 284.210434 
Q 282.384673 279.283526 264.27673 274.634638 
" style="fill:none;stroke:#000000;stroke-linecap:round;"/>
    <path clip-path="url(#p65c92f257f)" d="M 267.65375 277.566487 
L 264.27673 274.634638 
L 268.648421 273.692132 
L 267.65375 277.566487 
z
" style="stroke:#000000;stroke-linecap:round;"/>
   </g>
   <g id="patch_23">
    <path clip-path="url(#p65c92f257f)" d="M 504.98747 161.116896 
Q 514.083398 202.538434 522.939526 242.867958 
" style="fill:none;stroke:#000000;stroke-linecap:round;"/>
    <path clip-path="url(#p65c92f257f)" d="M 524.035046 238.532081 
L 522.939526 242.867958 
L 520.128136 239.390015 
L 524.035046 238.532081 
z
" style="stroke:#000000;stroke-linecap:round;"/>
   </g>
   <g id="patch_24">
    <path clip-path="url(#p65c92f257f)" d="M 488.930047 147.803074 
Q 410.737202 145.465397 333.661892 143.161129 
" style="fill:none;stroke:#000000;stroke-linecap:round;"/>
    <path clip-path="url(#p65c92f257f)" d="M 337.600339 145.279768 
L 333.661892 143.161129 
L 337.719871 141.281554 
L 337.600339 145.279768 
z
" style="stroke:#000000;stroke-linecap:round;"/>
   </g>
   <g id="patch_25">
    <path clip-path="url(#p65c92f257f)" d="M 512.997846 259.213753 
Q 448.370268 270.798091 384.843186 282.185168 
" style="fill:none;stroke:#000000;stroke-linecap:round;"/>
    <path clip-path="url(#p65c92f257f)" d="M 389.133305 283.44805 
L 384.843186 282.185168 
L 388.427563 279.510801 
L 389.133305 283.44805 
z
" style="stroke:#000000;stroke-linecap:round;"/>
   </g>
   <g id="patch_26">
    <path clip-path="url(#p65c92f257f)" d="M 523.179685 243.96161 
Q 514.083757 202.540071 505.227629 162.210547 
" style="fill:none;stroke:#000000;stroke-linecap:round;"/>
    <path clip-path="url(#p65c92f257f)" d="M 504.132109 166.546425 
L 505.227629 162.210547 
L 508.039019 165.68849 
L 504.132109 166.546425 
z
" style="stroke:#000000;stroke-linecap:round;"/>
   </g>
   <g id="patch_27">
    <path clip-path="url(#p65c92f257f)" d="M 357.63276 286.635803 
Q 350.695894 287.653034 344.865231 288.508049 
" style="fill:none;stroke:#000000;stroke-linecap:round;"/>
    <path clip-path="url(#p65c92f257f)" d="M 349.113084 289.906528 
L 344.865231 288.508049 
L 348.532726 285.948854 
L 349.113084 289.906528 
z
" style="stroke:#000000;stroke-linecap:round;"/>
   </g>
   <g id="patch_28">
    <path clip-path="url(#p65c92f257f)" d="M 383.739902 282.382928 
Q 448.367479 270.79859 511.894562 259.411513 
" style="fill:none;stroke:#000000;stroke-linecap:round;"/>
    <path clip-path="url(#p65c92f257f)" d="M 507.604442 258.148631 
L 511.894562 259.411513 
L 508.310185 262.08588 
L 507.604442 258.148631 
z
" style="stroke:#000000;stroke-linecap:round;"/>
   </g>
   <g id="patch_29">
    <path clip-path="url(#p65c92f257f)" d="M 317.943744 294.217217 
Q 313.469853 295.492544 310.071164 296.461374 
" style="fill:none;stroke:#000000;stroke-linecap:round;"/>
    <path clip-path="url(#p65c92f257f)" d="M 314.466202 297.288197 
L 310.071164 296.461374 
L 313.369645 293.441437 
L 314.466202 297.288197 
z
" style="stroke:#000000;stroke-linecap:round;"/>
   </g>
   <g id="patch_30">
    <path clip-path="url(#p65c92f257f)" d="M 317.546461 288.915816 
Q 312.128584 288.224645 307.819754 287.674957 
" style="fill:none;stroke:#000000;stroke-linecap:round;"/>
    <path clip-path="url(#p65c92f257f)" d="M 311.534503 290.165066 
L 307.819754 287.674957 
L 312.04069 286.197223 
L 311.534503 290.165066 
z
" style="stroke:#000000;stroke-linecap:round;"/>
   </g>
   <g id="patch_31">
    <path clip-path="url(#p65c92f257f)" d="M 343.757135 288.670541 
Q 350.694001 287.653311 356.524664 286.798296 
" style="fill:none;stroke:#000000;stroke-linecap:round;"/>
    <path clip-path="url(#p65c92f257f)" d="M 352.27681 285.399817 
L 356.524664 286.798296 
L 352.857168 289.357491 
L 352.27681 285.399817 
z
" style="stroke:#000000;stroke-linecap:round;"/>
   </g>
   <g id="patch_32">
    <path clip-path="url(#p65c92f257f)" d="M 215.068761 354.780613 
Q 195.664597 441.668576 176.504113 527.465384 
" style="fill:none;stroke:#000000;stroke-linecap:round;"/>
    <path clip-path="url(#p65c92f257f)" d="M 179.327851 523.997459 
L 176.504113 527.465384 
L 175.424015 523.125639 
L 179.327851 523.997459 
z
" style="stroke:#000000;stroke-linecap:round;"/>
   </g>
   <g id="patch_33">
    <path clip-path="url(#p65c92f257f)" d="M 231.181135 341.765721 
Q 259.198486 341.544603 286.097838 341.332309 
" style="fill:none;stroke:#000000;stroke-linecap:round;"/>
    <path clip-path="url(#p65c92f257f)" d="M 282.082178 339.363939 
L 286.097838 341.332309 
L 282.113746 343.363814 
L 282.082178 339.363939 
z
" style="stroke:#000000;stroke-linecap:round;"/>
   </g>
   <g id="patch_34">
    <path clip-path="url(#p65c92f257f)" d="M 173.80298 554.694227 
Q 176.594756 641.299321 179.350511 726.786962 
" style="fill:none;stroke:#000000;stroke-linecap:round;"/>
    <path clip-path="url(#p65c92f257f)" d="M 181.220597 722.724601 
L 179.350511 726.786962 
L 177.222674 722.853477 
L 181.220597 722.724601 
z
" style="stroke:#000000;stroke-linecap:round;"/>
   </g>
   <g id="patch_35">
    <path clip-path="url(#p65c92f257f)" d="M 176.25989 528.558965 
Q 195.664055 441.671002 214.824539 355.874194 
" style="fill:none;stroke:#000000;stroke-linecap:round;"/>
    <path clip-path="url(#p65c92f257f)" d="M 212.000801 359.342119 
L 214.824539 355.874194 
L 215.904636 360.213939 
L 212.000801 359.342119 
z
" style="stroke:#000000;stroke-linecap:round;"/>
   </g>
   <g id="patch_36">
    <path clip-path="url(#p65c92f257f)" d="M 177.46642 754.142701 
Q 175.496185 765.075291 173.724243 774.907571 
" style="fill:none;stroke:#000000;stroke-linecap:round;"/>
    <path clip-path="url(#p65c92f257f)" d="M 176.401974 771.325706 
L 173.724243 774.907571 
L 172.46539 770.616267 
L 176.401974 771.325706 
z
" style="stroke:#000000;stroke-linecap:round;"/>
   </g>
   <g id="patch_37">
    <path clip-path="url(#p65c92f257f)" d="M 179.386355 727.898902 
Q 176.594579 641.293808 173.838824 555.806167 
" style="fill:none;stroke:#000000;stroke-linecap:round;"/>
    <path clip-path="url(#p65c92f257f)" d="M 171.968738 559.868528 
L 173.838824 555.806167 
L 175.966661 559.739652 
L 171.968738 559.868528 
z
" style="stroke:#000000;stroke-linecap:round;"/>
   </g>
   <g id="patch_38">
    <path clip-path="url(#p65c92f257f)" d="M 173.526329 776.005771 
Q 175.496565 765.073182 177.268506 755.240901 
" style="fill:none;stroke:#000000;stroke-linecap:round;"/>
    <path clip-path="url(#p65c92f257f)" d="M 174.590776 758.822767 
L 177.268506 755.240901 
L 178.52736 759.532205 
L 174.590776 758.822767 
z
" style="stroke:#000000;stroke-linecap:round;"/>
   </g>
   <g id="patch_39">
    <path clip-path="url(#p65c92f257f)" d="M 379.441183 358.169513 
Q 367.468139 428.148534 355.683644 497.025535 
" style="fill:none;stroke:#000000;stroke-linecap:round;"/>
    <path clip-path="url(#p65c92f257f)" d="M 358.329575 493.420116 
L 355.683644 497.025535 
L 354.386867 492.745539 
L 358.329575 493.420116 
z
" style="stroke:#000000;stroke-linecap:round;"/>
   </g>
   <g id="patch_40">
    <path clip-path="url(#p65c92f257f)" d="M 368.459726 344.493264 
Q 341.058533 343.174222 314.774081 341.908938 
" style="fill:none;stroke:#000000;stroke-linecap:round;"/>
    <path clip-path="url(#p65c92f257f)" d="M 318.673289 344.098954 
L 314.774081 341.908938 
L 318.865619 340.103581 
L 318.673289 344.098954 
z
" style="stroke:#000000;stroke-linecap:round;"/>
   </g>
   <g id="patch_41">
    <path clip-path="url(#p65c92f257f)" d="M 347.019563 522.830383 
Q 307.804465 596.068678 269.11712 668.321339 
" style="fill:none;stroke:#000000;stroke-linecap:round;"/>
    <path clip-path="url(#p65c92f257f)" d="M 272.768426 665.739098 
L 269.11712 668.321339 
L 269.242112 663.85095 
L 272.768426 665.739098 
z
" style="stroke:#000000;stroke-linecap:round;"/>
   </g>
   <g id="patch_42">
    <path clip-path="url(#p65c92f257f)" d="M 355.494968 498.128296 
Q 367.468012 428.149275 379.252506 359.272274 
" style="fill:none;stroke:#000000;stroke-linecap:round;"/>
    <path clip-path="url(#p65c92f257f)" d="M 376.606576 362.877693 
L 379.252506 359.272274 
L 380.549284 363.55227 
L 376.606576 362.877693 
z
" style="stroke:#000000;stroke-linecap:round;"/>
   </g>
   <g id="patch_43">
    <path clip-path="url(#p65c92f257f)" d="M 272.090565 689.915618 
Q 277.701998 695.066998 282.489822 699.462292 
" style="fill:none;stroke:#000000;stroke-linecap:round;"/>
    <path clip-path="url(#p65c92f257f)" d="M 280.895714 695.283917 
L 282.489822 699.462292 
L 278.190657 698.230554 
L 280.895714 695.283917 
z
" style="stroke:#000000;stroke-linecap:round;"/>
   </g>
   <g id="patch_44">
    <path clip-path="url(#p65c92f257f)" d="M 268.589269 669.307156 
Q 307.804367 596.068861 346.491712 523.816201 
" style="fill:none;stroke:#000000;stroke-linecap:round;"/>
    <path clip-path="url(#p65c92f257f)" d="M 342.840406 526.398441 
L 346.491712 523.816201 
L 346.366721 528.28659 
L 342.840406 526.398441 
z
" style="stroke:#000000;stroke-linecap:round;"/>
   </g>
   <g id="patch_45">
    <path clip-path="url(#p65c92f257f)" d="M 283.311393 700.216506 
Q 277.699959 695.065126 272.912135 690.669832 
" style="fill:none;stroke:#000000;stroke-linecap:round;"/>
    <path clip-path="url(#p65c92f257f)" d="M 274.506244 694.848207 
L 272.912135 690.669832 
L 277.2113 691.90157 
L 274.506244 694.848207 
z
" style="stroke:#000000;stroke-linecap:round;"/>
   </g>
   <g id="patch_46">
    <path clip-path="url(#p65c92f257f)" d="M 336.44303 293.676405 
Q 331.783515 292.371502 328.200611 291.368105 
" style="fill:none;stroke:#000000;stroke-linecap:round;"/>
    <path clip-path="url(#p65c92f257f)" d="M 331.513064 294.37271 
L 328.200611 291.368105 
L 332.591767 290.520906 
L 331.513064 294.37271 
z
" style="stroke:#000000;stroke-linecap:round;"/>
   </g>
   <g id="patch_47">
    <path clip-path="url(#p65c92f257f)" d="M 350.387625 282.21905 
Q 338.932567 283.899047 328.58371 285.416809 
" style="fill:none;stroke:#000000;stroke-linecap:round;"/>
    <path clip-path="url(#p65c92f257f)" d="M 332.831589 286.815211 
L 328.58371 285.416809 
L 332.251158 282.857547 
L 332.831589 286.815211 
z
" style="stroke:#000000;stroke-linecap:round;"/>
   </g>
   <g id="patch_48">
    <path clip-path="url(#p65c92f257f)" d="M 309.001447 296.766308 
Q 313.475338 295.490981 316.874027 294.52215 
" style="fill:none;stroke:#000000;stroke-linecap:round;"/>
    <path clip-path="url(#p65c92f257f)" d="M 312.478989 293.695328 
L 316.874027 294.52215 
L 313.575546 297.542088 
L 312.478989 293.695328 
z
" style="stroke:#000000;stroke-linecap:round;"/>
   </g>
   <g id="patch_49">
    <path clip-path="url(#p65c92f257f)" d="M 306.710109 287.533397 
Q 312.127986 288.224569 316.436817 288.774256 
" style="fill:none;stroke:#000000;stroke-linecap:round;"/>
    <path clip-path="url(#p65c92f257f)" d="M 312.722068 286.284148 
L 316.436817 288.774256 
L 312.215881 290.251991 
L 312.722068 286.284148 
z
" style="stroke:#000000;stroke-linecap:round;"/>
   </g>
   <g id="PathCollection_1">
    <defs>
     <path d="M 0 13.228757 
C 3.508307 13.228757 6.873396 11.834891 9.354143 9.354143 
C 11.834891 6.873396 13.228757 3.508307 13.228757 0 
C 13.228757 -3.508307 11.834891 -6.873396 9.354143 -9.354143 
C 6.873396 -11.834891 3.508307 -13.228757 0 -13.228757 
C -3.508307 -13.228757 -6.873396 -11.834891 -9.354143 -9.354143 
C -11.834891 -6.873396 -13.228757 -3.508307 -13.228757 0 
C -13.228757 3.508307 -11.834891 6.873396 -9.354143 9.354143 
C -6.873396 11.834891 -3.508307 13.228757 0 13.228757 
z
" id="mb02d81ec12" style="stroke:#87ceeb;"/>
    </defs>
    <g clip-path="url(#p65c92f257f)">
     <use style="fill:#87ceeb;stroke:#87ceeb;" x="336.251299" xlink:href="#mb02d81ec12" y="74.975207"/>
     <use style="fill:#87ceeb;stroke:#87ceeb;" x="321.883432" xlink:href="#mb02d81ec12" y="115.725937"/>
     <use style="fill:#87ceeb;stroke:#87ceeb;" x="319.322213" xlink:href="#mb02d81ec12" y="142.732426"/>
     <use style="fill:#87ceeb;stroke:#87ceeb;" x="311.320051" xlink:href="#mb02d81ec12" y="226.320864"/>
     <use style="fill:#87ceeb;stroke:#87ceeb;" x="300.443493" xlink:href="#mb02d81ec12" y="341.21909"/>
     <use style="fill:#87ceeb;stroke:#87ceeb;" x="144.513534" xlink:href="#mb02d81ec12" y="128.292526"/>
     <use style="fill:#87ceeb;stroke:#87ceeb;" x="49.983471" xlink:href="#mb02d81ec12" y="216.427594"/>
     <use style="fill:#87ceeb;stroke:#87ceeb;" x="250.379078" xlink:href="#mb02d81ec12" y="271.066666"/>
     <use style="fill:#87ceeb;stroke:#87ceeb;" x="314.385387" xlink:href="#mb02d81ec12" y="287.499134"/>
     <use style="fill:#87ceeb;stroke:#87ceeb;" x="502.150626" xlink:href="#mb02d81ec12" y="148.198321"/>
     <use style="fill:#87ceeb;stroke:#87ceeb;" x="526.016529" xlink:href="#mb02d81ec12" y="256.880185"/>
     <use style="fill:#87ceeb;stroke:#87ceeb;" x="370.721219" xlink:href="#mb02d81ec12" y="284.716496"/>
     <use style="fill:#87ceeb;stroke:#87ceeb;" x="330.668676" xlink:href="#mb02d81ec12" y="290.589849"/>
     <use style="fill:#87ceeb;stroke:#87ceeb;" x="217.951982" xlink:href="#mb02d81ec12" y="341.870128"/>
     <use style="fill:#87ceeb;stroke:#87ceeb;" x="173.37667" xlink:href="#mb02d81ec12" y="541.46945"/>
     <use style="fill:#87ceeb;stroke:#87ceeb;" x="179.812666" xlink:href="#mb02d81ec12" y="741.123679"/>
     <use style="fill:#87ceeb;stroke:#87ceeb;" x="171.180084" xlink:href="#mb02d81ec12" y="789.024793"/>
     <use style="fill:#87ceeb;stroke:#87ceeb;" x="381.672296" xlink:href="#mb02d81ec12" y="345.129292"/>
     <use style="fill:#87ceeb;stroke:#87ceeb;" x="353.263854" xlink:href="#mb02d81ec12" y="511.168517"/>
     <use style="fill:#87ceeb;stroke:#87ceeb;" x="262.344978" xlink:href="#mb02d81ec12" y="680.969023"/>
     <use style="fill:#87ceeb;stroke:#87ceeb;" x="293.056979" xlink:href="#mb02d81ec12" y="709.163102"/>
     <use style="fill:#87ceeb;stroke:#87ceeb;" x="349.1815" xlink:href="#mb02d81ec12" y="297.24383"/>
     <use style="fill:#87ceeb;stroke:#87ceeb;" x="363.479076" xlink:href="#mb02d81ec12" y="280.299059"/>
     <use style="fill:#87ceeb;stroke:#87ceeb;" x="296.276515" xlink:href="#mb02d81ec12" y="300.393676"/>
     <use style="fill:#87ceeb;stroke:#87ceeb;" x="293.587894" xlink:href="#mb02d81ec12" y="285.859365"/>
    </g>
   </g>
   <g id="text_1">
    <g clip-path="url(#p65c92f257f)">
     <!-- Head -->
     <g transform="translate(323.176299 77.734582)scale(0.1 -0.1)">
      <defs>
       <path d="M 9.8125 72.90625 
L 19.671875 72.90625 
L 19.671875 43.015625 
L 55.515625 43.015625 
L 55.515625 72.90625 
L 65.375 72.90625 
L 65.375 0 
L 55.515625 0 
L 55.515625 34.71875 
L 19.671875 34.71875 
L 19.671875 0 
L 9.8125 0 
z
" id="DejaVuSans-72"/>
       <path d="M 56.203125 29.59375 
L 56.203125 25.203125 
L 14.890625 25.203125 
Q 15.484375 15.921875 20.484375 11.0625 
Q 25.484375 6.203125 34.421875 6.203125 
Q 39.59375 6.203125 44.453125 7.46875 
Q 49.3125 8.734375 54.109375 11.28125 
L 54.109375 2.78125 
Q 49.265625 0.734375 44.1875 -0.34375 
Q 39.109375 -1.421875 33.890625 -1.421875 
Q 20.796875 -1.421875 13.15625 6.1875 
Q 5.515625 13.8125 5.515625 26.8125 
Q 5.515625 40.234375 12.765625 48.109375 
Q 20.015625 56 32.328125 56 
Q 43.359375 56 49.78125 48.890625 
Q 56.203125 41.796875 56.203125 29.59375 
z
M 47.21875 32.234375 
Q 47.125 39.59375 43.09375 43.984375 
Q 39.0625 48.390625 32.421875 48.390625 
Q 24.90625 48.390625 20.390625 44.140625 
Q 15.875 39.890625 15.1875 32.171875 
z
" id="DejaVuSans-101"/>
       <path d="M 34.28125 27.484375 
Q 23.390625 27.484375 19.1875 25 
Q 14.984375 22.515625 14.984375 16.5 
Q 14.984375 11.71875 18.140625 8.90625 
Q 21.296875 6.109375 26.703125 6.109375 
Q 34.1875 6.109375 38.703125 11.40625 
Q 43.21875 16.703125 43.21875 25.484375 
L 43.21875 27.484375 
z
M 52.203125 31.203125 
L 52.203125 0 
L 43.21875 0 
L 43.21875 8.296875 
Q 40.140625 3.328125 35.546875 0.953125 
Q 30.953125 -1.421875 24.3125 -1.421875 
Q 15.921875 -1.421875 10.953125 3.296875 
Q 6 8.015625 6 15.921875 
Q 6 25.140625 12.171875 29.828125 
Q 18.359375 34.515625 30.609375 34.515625 
L 43.21875 34.515625 
L 43.21875 35.40625 
Q 43.21875 41.609375 39.140625 45 
Q 35.0625 48.390625 27.6875 48.390625 
Q 23 48.390625 18.546875 47.265625 
Q 14.109375 46.140625 10.015625 43.890625 
L 10.015625 52.203125 
Q 14.9375 54.109375 19.578125 55.046875 
Q 24.21875 56 28.609375 56 
Q 40.484375 56 46.34375 49.84375 
Q 52.203125 43.703125 52.203125 31.203125 
z
" id="DejaVuSans-97"/>
       <path d="M 45.40625 46.390625 
L 45.40625 75.984375 
L 54.390625 75.984375 
L 54.390625 0 
L 45.40625 0 
L 45.40625 8.203125 
Q 42.578125 3.328125 38.25 0.953125 
Q 33.9375 -1.421875 27.875 -1.421875 
Q 17.96875 -1.421875 11.734375 6.484375 
Q 5.515625 14.40625 5.515625 27.296875 
Q 5.515625 40.1875 11.734375 48.09375 
Q 17.96875 56 27.875 56 
Q 33.9375 56 38.25 53.625 
Q 42.578125 51.265625 45.40625 46.390625 
z
M 14.796875 27.296875 
Q 14.796875 17.390625 18.875 11.75 
Q 22.953125 6.109375 30.078125 6.109375 
Q 37.203125 6.109375 41.296875 11.75 
Q 45.40625 17.390625 45.40625 27.296875 
Q 45.40625 37.203125 41.296875 42.84375 
Q 37.203125 48.484375 30.078125 48.484375 
Q 22.953125 48.484375 18.875 42.84375 
Q 14.796875 37.203125 14.796875 27.296875 
z
" id="DejaVuSans-100"/>
      </defs>
      <use xlink:href="#DejaVuSans-72"/>
      <use x="75.195312" xlink:href="#DejaVuSans-101"/>
      <use x="136.71875" xlink:href="#DejaVuSans-97"/>
      <use x="197.998047" xlink:href="#DejaVuSans-100"/>
     </g>
    </g>
   </g>
   <g id="text_2">
    <g clip-path="url(#p65c92f257f)">
     <!-- c7 -->
     <g transform="translate(315.952963 118.485312)scale(0.1 -0.1)">
      <defs>
       <path d="M 48.78125 52.59375 
L 48.78125 44.1875 
Q 44.96875 46.296875 41.140625 47.34375 
Q 37.3125 48.390625 33.40625 48.390625 
Q 24.65625 48.390625 19.8125 42.84375 
Q 14.984375 37.3125 14.984375 27.296875 
Q 14.984375 17.28125 19.8125 11.734375 
Q 24.65625 6.203125 33.40625 6.203125 
Q 37.3125 6.203125 41.140625 7.25 
Q 44.96875 8.296875 48.78125 10.40625 
L 48.78125 2.09375 
Q 45.015625 0.34375 40.984375 -0.53125 
Q 36.96875 -1.421875 32.421875 -1.421875 
Q 20.0625 -1.421875 12.78125 6.34375 
Q 5.515625 14.109375 5.515625 27.296875 
Q 5.515625 40.671875 12.859375 48.328125 
Q 20.21875 56 33.015625 56 
Q 37.15625 56 41.109375 55.140625 
Q 45.0625 54.296875 48.78125 52.59375 
z
" id="DejaVuSans-99"/>
       <path d="M 8.203125 72.90625 
L 55.078125 72.90625 
L 55.078125 68.703125 
L 28.609375 0 
L 18.3125 0 
L 43.21875 64.59375 
L 8.203125 64.59375 
z
" id="DejaVuSans-55"/>
      </defs>
      <use xlink:href="#DejaVuSans-99"/>
      <use x="54.980469" xlink:href="#DejaVuSans-55"/>
     </g>
    </g>
   </g>
   <g id="text_3">
    <g clip-path="url(#p65c92f257f)">
     <!-- SpineShoulder -->
     <g transform="translate(283.072994 145.491801)scale(0.1 -0.1)">
      <defs>
       <path d="M 53.515625 70.515625 
L 53.515625 60.890625 
Q 47.90625 63.578125 42.921875 64.890625 
Q 37.9375 66.21875 33.296875 66.21875 
Q 25.25 66.21875 20.875 63.09375 
Q 16.5 59.96875 16.5 54.203125 
Q 16.5 49.359375 19.40625 46.890625 
Q 22.3125 44.4375 30.421875 42.921875 
L 36.375 41.703125 
Q 47.40625 39.59375 52.65625 34.296875 
Q 57.90625 29 57.90625 20.125 
Q 57.90625 9.515625 50.796875 4.046875 
Q 43.703125 -1.421875 29.984375 -1.421875 
Q 24.8125 -1.421875 18.96875 -0.25 
Q 13.140625 0.921875 6.890625 3.21875 
L 6.890625 13.375 
Q 12.890625 10.015625 18.65625 8.296875 
Q 24.421875 6.59375 29.984375 6.59375 
Q 38.421875 6.59375 43.015625 9.90625 
Q 47.609375 13.234375 47.609375 19.390625 
Q 47.609375 24.75 44.3125 27.78125 
Q 41.015625 30.8125 33.5 32.328125 
L 27.484375 33.5 
Q 16.453125 35.6875 11.515625 40.375 
Q 6.59375 45.0625 6.59375 53.421875 
Q 6.59375 63.09375 13.40625 68.65625 
Q 20.21875 74.21875 32.171875 74.21875 
Q 37.3125 74.21875 42.625 73.28125 
Q 47.953125 72.359375 53.515625 70.515625 
z
" id="DejaVuSans-83"/>
       <path d="M 18.109375 8.203125 
L 18.109375 -20.796875 
L 9.078125 -20.796875 
L 9.078125 54.6875 
L 18.109375 54.6875 
L 18.109375 46.390625 
Q 20.953125 51.265625 25.265625 53.625 
Q 29.59375 56 35.59375 56 
Q 45.5625 56 51.78125 48.09375 
Q 58.015625 40.1875 58.015625 27.296875 
Q 58.015625 14.40625 51.78125 6.484375 
Q 45.5625 -1.421875 35.59375 -1.421875 
Q 29.59375 -1.421875 25.265625 0.953125 
Q 20.953125 3.328125 18.109375 8.203125 
z
M 48.6875 27.296875 
Q 48.6875 37.203125 44.609375 42.84375 
Q 40.53125 48.484375 33.40625 48.484375 
Q 26.265625 48.484375 22.1875 42.84375 
Q 18.109375 37.203125 18.109375 27.296875 
Q 18.109375 17.390625 22.1875 11.75 
Q 26.265625 6.109375 33.40625 6.109375 
Q 40.53125 6.109375 44.609375 11.75 
Q 48.6875 17.390625 48.6875 27.296875 
z
" id="DejaVuSans-112"/>
       <path d="M 9.421875 54.6875 
L 18.40625 54.6875 
L 18.40625 0 
L 9.421875 0 
z
M 9.421875 75.984375 
L 18.40625 75.984375 
L 18.40625 64.59375 
L 9.421875 64.59375 
z
" id="DejaVuSans-105"/>
       <path d="M 54.890625 33.015625 
L 54.890625 0 
L 45.90625 0 
L 45.90625 32.71875 
Q 45.90625 40.484375 42.875 44.328125 
Q 39.84375 48.1875 33.796875 48.1875 
Q 26.515625 48.1875 22.3125 43.546875 
Q 18.109375 38.921875 18.109375 30.90625 
L 18.109375 0 
L 9.078125 0 
L 9.078125 54.6875 
L 18.109375 54.6875 
L 18.109375 46.1875 
Q 21.34375 51.125 25.703125 53.5625 
Q 30.078125 56 35.796875 56 
Q 45.21875 56 50.046875 50.171875 
Q 54.890625 44.34375 54.890625 33.015625 
z
" id="DejaVuSans-110"/>
       <path d="M 54.890625 33.015625 
L 54.890625 0 
L 45.90625 0 
L 45.90625 32.71875 
Q 45.90625 40.484375 42.875 44.328125 
Q 39.84375 48.1875 33.796875 48.1875 
Q 26.515625 48.1875 22.3125 43.546875 
Q 18.109375 38.921875 18.109375 30.90625 
L 18.109375 0 
L 9.078125 0 
L 9.078125 75.984375 
L 18.109375 75.984375 
L 18.109375 46.1875 
Q 21.34375 51.125 25.703125 53.5625 
Q 30.078125 56 35.796875 56 
Q 45.21875 56 50.046875 50.171875 
Q 54.890625 44.34375 54.890625 33.015625 
z
" id="DejaVuSans-104"/>
       <path d="M 30.609375 48.390625 
Q 23.390625 48.390625 19.1875 42.75 
Q 14.984375 37.109375 14.984375 27.296875 
Q 14.984375 17.484375 19.15625 11.84375 
Q 23.34375 6.203125 30.609375 6.203125 
Q 37.796875 6.203125 41.984375 11.859375 
Q 46.1875 17.53125 46.1875 27.296875 
Q 46.1875 37.015625 41.984375 42.703125 
Q 37.796875 48.390625 30.609375 48.390625 
z
M 30.609375 56 
Q 42.328125 56 49.015625 48.375 
Q 55.71875 40.765625 55.71875 27.296875 
Q 55.71875 13.875 49.015625 6.21875 
Q 42.328125 -1.421875 30.609375 -1.421875 
Q 18.84375 -1.421875 12.171875 6.21875 
Q 5.515625 13.875 5.515625 27.296875 
Q 5.515625 40.765625 12.171875 48.375 
Q 18.84375 56 30.609375 56 
z
" id="DejaVuSans-111"/>
       <path d="M 8.5 21.578125 
L 8.5 54.6875 
L 17.484375 54.6875 
L 17.484375 21.921875 
Q 17.484375 14.15625 20.5 10.265625 
Q 23.53125 6.390625 29.59375 6.390625 
Q 36.859375 6.390625 41.078125 11.03125 
Q 45.3125 15.671875 45.3125 23.6875 
L 45.3125 54.6875 
L 54.296875 54.6875 
L 54.296875 0 
L 45.3125 0 
L 45.3125 8.40625 
Q 42.046875 3.421875 37.71875 1 
Q 33.40625 -1.421875 27.6875 -1.421875 
Q 18.265625 -1.421875 13.375 4.4375 
Q 8.5 10.296875 8.5 21.578125 
z
M 31.109375 56 
z
" id="DejaVuSans-117"/>
       <path d="M 9.421875 75.984375 
L 18.40625 75.984375 
L 18.40625 0 
L 9.421875 0 
z
" id="DejaVuSans-108"/>
       <path d="M 41.109375 46.296875 
Q 39.59375 47.171875 37.8125 47.578125 
Q 36.03125 48 33.890625 48 
Q 26.265625 48 22.1875 43.046875 
Q 18.109375 38.09375 18.109375 28.8125 
L 18.109375 0 
L 9.078125 0 
L 9.078125 54.6875 
L 18.109375 54.6875 
L 18.109375 46.1875 
Q 20.953125 51.171875 25.484375 53.578125 
Q 30.03125 56 36.53125 56 
Q 37.453125 56 38.578125 55.875 
Q 39.703125 55.765625 41.0625 55.515625 
z
" id="DejaVuSans-114"/>
      </defs>
      <use xlink:href="#DejaVuSans-83"/>
      <use x="63.476562" xlink:href="#DejaVuSans-112"/>
      <use x="126.953125" xlink:href="#DejaVuSans-105"/>
      <use x="154.736328" xlink:href="#DejaVuSans-110"/>
      <use x="218.115234" xlink:href="#DejaVuSans-101"/>
      <use x="279.638672" xlink:href="#DejaVuSans-83"/>
      <use x="343.115234" xlink:href="#DejaVuSans-104"/>
      <use x="406.494141" xlink:href="#DejaVuSans-111"/>
      <use x="467.675781" xlink:href="#DejaVuSans-117"/>
      <use x="531.054688" xlink:href="#DejaVuSans-108"/>
      <use x="558.837891" xlink:href="#DejaVuSans-100"/>
      <use x="622.314453" xlink:href="#DejaVuSans-101"/>
      <use x="683.837891" xlink:href="#DejaVuSans-114"/>
     </g>
    </g>
   </g>
   <g id="text_4">
    <g clip-path="url(#p65c92f257f)">
     <!-- Spine -->
     <g transform="translate(297.337239 229.080239)scale(0.1 -0.1)">
      <use xlink:href="#DejaVuSans-83"/>
      <use x="63.476562" xlink:href="#DejaVuSans-112"/>
      <use x="126.953125" xlink:href="#DejaVuSans-105"/>
      <use x="154.736328" xlink:href="#DejaVuSans-110"/>
      <use x="218.115234" xlink:href="#DejaVuSans-101"/>
     </g>
    </g>
   </g>
   <g id="text_5">
    <g clip-path="url(#p65c92f257f)">
     <!-- Sacr -->
     <g transform="translate(289.400524 343.978465)scale(0.1 -0.1)">
      <use xlink:href="#DejaVuSans-83"/>
      <use x="63.476562" xlink:href="#DejaVuSans-97"/>
      <use x="124.755859" xlink:href="#DejaVuSans-99"/>
      <use x="179.736328" xlink:href="#DejaVuSans-114"/>
     </g>
    </g>
   </g>
   <g id="text_6">
    <g clip-path="url(#p65c92f257f)">
     <!-- LShoulder -->
     <g transform="translate(119.461191 131.051901)scale(0.1 -0.1)">
      <defs>
       <path d="M 9.8125 72.90625 
L 19.671875 72.90625 
L 19.671875 8.296875 
L 55.171875 8.296875 
L 55.171875 0 
L 9.8125 0 
z
" id="DejaVuSans-76"/>
      </defs>
      <use xlink:href="#DejaVuSans-76"/>
      <use x="55.712891" xlink:href="#DejaVuSans-83"/>
      <use x="119.189453" xlink:href="#DejaVuSans-104"/>
      <use x="182.568359" xlink:href="#DejaVuSans-111"/>
      <use x="243.75" xlink:href="#DejaVuSans-117"/>
      <use x="307.128906" xlink:href="#DejaVuSans-108"/>
      <use x="334.912109" xlink:href="#DejaVuSans-100"/>
      <use x="398.388672" xlink:href="#DejaVuSans-101"/>
      <use x="459.912109" xlink:href="#DejaVuSans-114"/>
     </g>
    </g>
   </g>
   <g id="text_7">
    <g clip-path="url(#p65c92f257f)">
     <!-- LElbow -->
     <g transform="translate(32.32644 219.186969)scale(0.1 -0.1)">
      <defs>
       <path d="M 9.8125 72.90625 
L 55.90625 72.90625 
L 55.90625 64.59375 
L 19.671875 64.59375 
L 19.671875 43.015625 
L 54.390625 43.015625 
L 54.390625 34.71875 
L 19.671875 34.71875 
L 19.671875 8.296875 
L 56.78125 8.296875 
L 56.78125 0 
L 9.8125 0 
z
" id="DejaVuSans-69"/>
       <path d="M 48.6875 27.296875 
Q 48.6875 37.203125 44.609375 42.84375 
Q 40.53125 48.484375 33.40625 48.484375 
Q 26.265625 48.484375 22.1875 42.84375 
Q 18.109375 37.203125 18.109375 27.296875 
Q 18.109375 17.390625 22.1875 11.75 
Q 26.265625 6.109375 33.40625 6.109375 
Q 40.53125 6.109375 44.609375 11.75 
Q 48.6875 17.390625 48.6875 27.296875 
z
M 18.109375 46.390625 
Q 20.953125 51.265625 25.265625 53.625 
Q 29.59375 56 35.59375 56 
Q 45.5625 56 51.78125 48.09375 
Q 58.015625 40.1875 58.015625 27.296875 
Q 58.015625 14.40625 51.78125 6.484375 
Q 45.5625 -1.421875 35.59375 -1.421875 
Q 29.59375 -1.421875 25.265625 0.953125 
Q 20.953125 3.328125 18.109375 8.203125 
L 18.109375 0 
L 9.078125 0 
L 9.078125 75.984375 
L 18.109375 75.984375 
z
" id="DejaVuSans-98"/>
       <path d="M 4.203125 54.6875 
L 13.1875 54.6875 
L 24.421875 12.015625 
L 35.59375 54.6875 
L 46.1875 54.6875 
L 57.421875 12.015625 
L 68.609375 54.6875 
L 77.59375 54.6875 
L 63.28125 0 
L 52.6875 0 
L 40.921875 44.828125 
L 29.109375 0 
L 18.5 0 
z
" id="DejaVuSans-119"/>
      </defs>
      <use xlink:href="#DejaVuSans-76"/>
      <use x="55.712891" xlink:href="#DejaVuSans-69"/>
      <use x="118.896484" xlink:href="#DejaVuSans-108"/>
      <use x="146.679688" xlink:href="#DejaVuSans-98"/>
      <use x="210.15625" xlink:href="#DejaVuSans-111"/>
      <use x="271.337891" xlink:href="#DejaVuSans-119"/>
     </g>
    </g>
   </g>
   <g id="text_8">
    <g clip-path="url(#p65c92f257f)">
     <!-- LWrist -->
     <g transform="translate(235.321265 273.826041)scale(0.1 -0.1)">
      <defs>
       <path d="M 3.328125 72.90625 
L 13.28125 72.90625 
L 28.609375 11.28125 
L 43.890625 72.90625 
L 54.984375 72.90625 
L 70.3125 11.28125 
L 85.59375 72.90625 
L 95.609375 72.90625 
L 77.296875 0 
L 64.890625 0 
L 49.515625 63.28125 
L 33.984375 0 
L 21.578125 0 
z
" id="DejaVuSans-87"/>
       <path d="M 44.28125 53.078125 
L 44.28125 44.578125 
Q 40.484375 46.53125 36.375 47.5 
Q 32.28125 48.484375 27.875 48.484375 
Q 21.1875 48.484375 17.84375 46.4375 
Q 14.5 44.390625 14.5 40.28125 
Q 14.5 37.15625 16.890625 35.375 
Q 19.28125 33.59375 26.515625 31.984375 
L 29.59375 31.296875 
Q 39.15625 29.25 43.1875 25.515625 
Q 47.21875 21.78125 47.21875 15.09375 
Q 47.21875 7.46875 41.1875 3.015625 
Q 35.15625 -1.421875 24.609375 -1.421875 
Q 20.21875 -1.421875 15.453125 -0.5625 
Q 10.6875 0.296875 5.421875 2 
L 5.421875 11.28125 
Q 10.40625 8.6875 15.234375 7.390625 
Q 20.0625 6.109375 24.8125 6.109375 
Q 31.15625 6.109375 34.5625 8.28125 
Q 37.984375 10.453125 37.984375 14.40625 
Q 37.984375 18.0625 35.515625 20.015625 
Q 33.0625 21.96875 24.703125 23.78125 
L 21.578125 24.515625 
Q 13.234375 26.265625 9.515625 29.90625 
Q 5.8125 33.546875 5.8125 39.890625 
Q 5.8125 47.609375 11.28125 51.796875 
Q 16.75 56 26.8125 56 
Q 31.78125 56 36.171875 55.265625 
Q 40.578125 54.546875 44.28125 53.078125 
z
" id="DejaVuSans-115"/>
       <path d="M 18.3125 70.21875 
L 18.3125 54.6875 
L 36.8125 54.6875 
L 36.8125 47.703125 
L 18.3125 47.703125 
L 18.3125 18.015625 
Q 18.3125 11.328125 20.140625 9.421875 
Q 21.96875 7.515625 27.59375 7.515625 
L 36.8125 7.515625 
L 36.8125 0 
L 27.59375 0 
Q 17.1875 0 13.234375 3.875 
Q 9.28125 7.765625 9.28125 18.015625 
L 9.28125 47.703125 
L 2.6875 47.703125 
L 2.6875 54.6875 
L 9.28125 54.6875 
L 9.28125 70.21875 
z
" id="DejaVuSans-116"/>
      </defs>
      <use xlink:href="#DejaVuSans-76"/>
      <use x="46.587891" xlink:href="#DejaVuSans-87"/>
      <use x="140.964844" xlink:href="#DejaVuSans-114"/>
      <use x="182.078125" xlink:href="#DejaVuSans-105"/>
      <use x="209.861328" xlink:href="#DejaVuSans-115"/>
      <use x="261.960938" xlink:href="#DejaVuSans-116"/>
     </g>
    </g>
   </g>
   <g id="text_9">
    <g clip-path="url(#p65c92f257f)">
     <!-- LHand -->
     <g transform="translate(298.432262 290.258509)scale(0.1 -0.1)">
      <use xlink:href="#DejaVuSans-76"/>
      <use x="55.712891" xlink:href="#DejaVuSans-72"/>
      <use x="130.908203" xlink:href="#DejaVuSans-97"/>
      <use x="192.1875" xlink:href="#DejaVuSans-110"/>
      <use x="255.566406" xlink:href="#DejaVuSans-100"/>
     </g>
    </g>
   </g>
   <g id="text_10">
    <g clip-path="url(#p65c92f257f)">
     <!-- RShoulder -->
     <g transform="translate(476.410001 150.957696)scale(0.1 -0.1)">
      <defs>
       <path d="M 44.390625 34.1875 
Q 47.5625 33.109375 50.5625 29.59375 
Q 53.5625 26.078125 56.59375 19.921875 
L 66.609375 0 
L 56 0 
L 46.6875 18.703125 
Q 43.0625 26.03125 39.671875 28.421875 
Q 36.28125 30.8125 30.421875 30.8125 
L 19.671875 30.8125 
L 19.671875 0 
L 9.8125 0 
L 9.8125 72.90625 
L 32.078125 72.90625 
Q 44.578125 72.90625 50.734375 67.671875 
Q 56.890625 62.453125 56.890625 51.90625 
Q 56.890625 45.015625 53.6875 40.46875 
Q 50.484375 35.9375 44.390625 34.1875 
z
M 19.671875 64.796875 
L 19.671875 38.921875 
L 32.078125 38.921875 
Q 39.203125 38.921875 42.84375 42.21875 
Q 46.484375 45.515625 46.484375 51.90625 
Q 46.484375 58.296875 42.84375 61.546875 
Q 39.203125 64.796875 32.078125 64.796875 
z
" id="DejaVuSans-82"/>
      </defs>
      <use xlink:href="#DejaVuSans-82"/>
      <use x="69.482422" xlink:href="#DejaVuSans-83"/>
      <use x="132.958984" xlink:href="#DejaVuSans-104"/>
      <use x="196.337891" xlink:href="#DejaVuSans-111"/>
      <use x="257.519531" xlink:href="#DejaVuSans-117"/>
      <use x="320.898438" xlink:href="#DejaVuSans-108"/>
      <use x="348.681641" xlink:href="#DejaVuSans-100"/>
      <use x="412.158203" xlink:href="#DejaVuSans-101"/>
      <use x="473.681641" xlink:href="#DejaVuSans-114"/>
     </g>
    </g>
   </g>
   <g id="text_11">
    <g clip-path="url(#p65c92f257f)">
     <!-- RElbow -->
     <g transform="translate(507.671216 259.63956)scale(0.1 -0.1)">
      <use xlink:href="#DejaVuSans-82"/>
      <use x="69.482422" xlink:href="#DejaVuSans-69"/>
      <use x="132.666016" xlink:href="#DejaVuSans-108"/>
      <use x="160.449219" xlink:href="#DejaVuSans-98"/>
      <use x="223.925781" xlink:href="#DejaVuSans-111"/>
      <use x="285.107422" xlink:href="#DejaVuSans-119"/>
     </g>
    </g>
   </g>
   <g id="text_12">
    <g clip-path="url(#p65c92f257f)">
     <!-- RWrist -->
     <g transform="translate(354.718875 287.475871)scale(0.1 -0.1)">
      <use xlink:href="#DejaVuSans-82"/>
      <use x="65.482422" xlink:href="#DejaVuSans-87"/>
      <use x="159.859375" xlink:href="#DejaVuSans-114"/>
      <use x="200.972656" xlink:href="#DejaVuSans-105"/>
      <use x="228.755859" xlink:href="#DejaVuSans-115"/>
      <use x="280.855469" xlink:href="#DejaVuSans-116"/>
     </g>
    </g>
   </g>
   <g id="text_13">
    <g clip-path="url(#p65c92f257f)">
     <!-- RHand -->
     <g transform="translate(314.02727 293.349224)scale(0.1 -0.1)">
      <use xlink:href="#DejaVuSans-82"/>
      <use x="69.482422" xlink:href="#DejaVuSans-72"/>
      <use x="144.677734" xlink:href="#DejaVuSans-97"/>
      <use x="205.957031" xlink:href="#DejaVuSans-110"/>
      <use x="269.335938" xlink:href="#DejaVuSans-100"/>
     </g>
    </g>
   </g>
   <g id="text_14">
    <g clip-path="url(#p65c92f257f)">
     <!-- LHip -->
     <g transform="translate(206.842607 344.629503)scale(0.1 -0.1)">
      <use xlink:href="#DejaVuSans-76"/>
      <use x="55.712891" xlink:href="#DejaVuSans-72"/>
      <use x="130.908203" xlink:href="#DejaVuSans-105"/>
      <use x="158.691406" xlink:href="#DejaVuSans-112"/>
     </g>
    </g>
   </g>
   <g id="text_15">
    <g clip-path="url(#p65c92f257f)">
     <!-- LKnee -->
     <g transform="translate(157.989951 544.228825)scale(0.1 -0.1)">
      <defs>
       <path d="M 9.8125 72.90625 
L 19.671875 72.90625 
L 19.671875 42.09375 
L 52.390625 72.90625 
L 65.09375 72.90625 
L 28.90625 38.921875 
L 67.671875 0 
L 54.6875 0 
L 19.671875 35.109375 
L 19.671875 0 
L 9.8125 0 
z
" id="DejaVuSans-75"/>
      </defs>
      <use xlink:href="#DejaVuSans-76"/>
      <use x="55.712891" xlink:href="#DejaVuSans-75"/>
      <use x="121.289062" xlink:href="#DejaVuSans-110"/>
      <use x="184.667969" xlink:href="#DejaVuSans-101"/>
      <use x="246.191406" xlink:href="#DejaVuSans-101"/>
     </g>
    </g>
   </g>
   <g id="text_16">
    <g clip-path="url(#p65c92f257f)">
     <!-- LAnkle -->
     <g transform="translate(162.964228 743.883054)scale(0.1 -0.1)">
      <defs>
       <path d="M 34.1875 63.1875 
L 20.796875 26.90625 
L 47.609375 26.90625 
z
M 28.609375 72.90625 
L 39.796875 72.90625 
L 67.578125 0 
L 57.328125 0 
L 50.6875 18.703125 
L 17.828125 18.703125 
L 11.1875 0 
L 0.78125 0 
z
" id="DejaVuSans-65"/>
       <path d="M 9.078125 75.984375 
L 18.109375 75.984375 
L 18.109375 31.109375 
L 44.921875 54.6875 
L 56.390625 54.6875 
L 27.390625 29.109375 
L 57.625 0 
L 45.90625 0 
L 18.109375 26.703125 
L 18.109375 0 
L 9.078125 0 
z
" id="DejaVuSans-107"/>
      </defs>
      <use xlink:href="#DejaVuSans-76"/>
      <use x="57.962891" xlink:href="#DejaVuSans-65"/>
      <use x="126.371094" xlink:href="#DejaVuSans-110"/>
      <use x="189.75" xlink:href="#DejaVuSans-107"/>
      <use x="247.660156" xlink:href="#DejaVuSans-108"/>
      <use x="275.443359" xlink:href="#DejaVuSans-101"/>
     </g>
    </g>
   </g>
   <g id="text_17">
    <g clip-path="url(#p65c92f257f)">
     <!-- LFoot -->
     <g transform="translate(157.620709 791.784168)scale(0.1 -0.1)">
      <defs>
       <path d="M 9.8125 72.90625 
L 51.703125 72.90625 
L 51.703125 64.59375 
L 19.671875 64.59375 
L 19.671875 43.109375 
L 48.578125 43.109375 
L 48.578125 34.8125 
L 19.671875 34.8125 
L 19.671875 0 
L 9.8125 0 
z
" id="DejaVuSans-70"/>
      </defs>
      <use xlink:href="#DejaVuSans-76"/>
      <use x="55.712891" xlink:href="#DejaVuSans-70"/>
      <use x="109.607422" xlink:href="#DejaVuSans-111"/>
      <use x="170.789062" xlink:href="#DejaVuSans-111"/>
      <use x="231.970703" xlink:href="#DejaVuSans-116"/>
     </g>
    </g>
   </g>
   <g id="text_18">
    <g clip-path="url(#p65c92f257f)">
     <!-- RHip -->
     <g transform="translate(369.87464 347.888667)scale(0.1 -0.1)">
      <use xlink:href="#DejaVuSans-82"/>
      <use x="69.482422" xlink:href="#DejaVuSans-72"/>
      <use x="144.677734" xlink:href="#DejaVuSans-105"/>
      <use x="172.460938" xlink:href="#DejaVuSans-112"/>
     </g>
    </g>
   </g>
   <g id="text_19">
    <g clip-path="url(#p65c92f257f)">
     <!-- RKnee -->
     <g transform="translate(337.188854 513.927892)scale(0.1 -0.1)">
      <use xlink:href="#DejaVuSans-82"/>
      <use x="69.482422" xlink:href="#DejaVuSans-75"/>
      <use x="135.058594" xlink:href="#DejaVuSans-110"/>
      <use x="198.4375" xlink:href="#DejaVuSans-101"/>
      <use x="259.960938" xlink:href="#DejaVuSans-101"/>
     </g>
    </g>
   </g>
   <g id="text_20">
    <g clip-path="url(#p65c92f257f)">
     <!-- RAnkle -->
     <g transform="translate(245.120759 683.728398)scale(0.1 -0.1)">
      <use xlink:href="#DejaVuSans-82"/>
      <use x="65.482422" xlink:href="#DejaVuSans-65"/>
      <use x="133.890625" xlink:href="#DejaVuSans-110"/>
      <use x="197.269531" xlink:href="#DejaVuSans-107"/>
      <use x="255.179688" xlink:href="#DejaVuSans-108"/>
      <use x="282.962891" xlink:href="#DejaVuSans-101"/>
     </g>
    </g>
   </g>
   <g id="text_21">
    <g clip-path="url(#p65c92f257f)">
     <!-- RFoot -->
     <g transform="translate(278.809323 711.922477)scale(0.1 -0.1)">
      <use xlink:href="#DejaVuSans-82"/>
      <use x="69.482422" xlink:href="#DejaVuSans-70"/>
      <use x="123.376953" xlink:href="#DejaVuSans-111"/>
      <use x="184.558594" xlink:href="#DejaVuSans-111"/>
      <use x="245.740234" xlink:href="#DejaVuSans-116"/>
     </g>
    </g>
   </g>
   <g id="text_22">
    <g clip-path="url(#p65c92f257f)">
     <!-- LHandTip -->
     <g transform="translate(325.767437 300.003205)scale(0.1 -0.1)">
      <defs>
       <path d="M -0.296875 72.90625 
L 61.375 72.90625 
L 61.375 64.59375 
L 35.5 64.59375 
L 35.5 0 
L 25.59375 0 
L 25.59375 64.59375 
L -0.296875 64.59375 
z
" id="DejaVuSans-84"/>
      </defs>
      <use xlink:href="#DejaVuSans-76"/>
      <use x="55.712891" xlink:href="#DejaVuSans-72"/>
      <use x="130.908203" xlink:href="#DejaVuSans-97"/>
      <use x="192.1875" xlink:href="#DejaVuSans-110"/>
      <use x="255.566406" xlink:href="#DejaVuSans-100"/>
      <use x="319.042969" xlink:href="#DejaVuSans-84"/>
      <use x="377.001953" xlink:href="#DejaVuSans-105"/>
      <use x="404.785156" xlink:href="#DejaVuSans-112"/>
     </g>
    </g>
   </g>
   <g id="text_23">
    <g clip-path="url(#p65c92f257f)">
     <!-- LThumb -->
     <g transform="translate(343.944701 283.058434)scale(0.1 -0.1)">
      <defs>
       <path d="M 52 44.1875 
Q 55.375 50.25 60.0625 53.125 
Q 64.75 56 71.09375 56 
Q 79.640625 56 84.28125 50.015625 
Q 88.921875 44.046875 88.921875 33.015625 
L 88.921875 0 
L 79.890625 0 
L 79.890625 32.71875 
Q 79.890625 40.578125 77.09375 44.375 
Q 74.3125 48.1875 68.609375 48.1875 
Q 61.625 48.1875 57.5625 43.546875 
Q 53.515625 38.921875 53.515625 30.90625 
L 53.515625 0 
L 44.484375 0 
L 44.484375 32.71875 
Q 44.484375 40.625 41.703125 44.40625 
Q 38.921875 48.1875 33.109375 48.1875 
Q 26.21875 48.1875 22.15625 43.53125 
Q 18.109375 38.875 18.109375 30.90625 
L 18.109375 0 
L 9.078125 0 
L 9.078125 54.6875 
L 18.109375 54.6875 
L 18.109375 46.1875 
Q 21.1875 51.21875 25.484375 53.609375 
Q 29.78125 56 35.6875 56 
Q 41.65625 56 45.828125 52.96875 
Q 50 49.953125 52 44.1875 
z
" id="DejaVuSans-109"/>
      </defs>
      <use xlink:href="#DejaVuSans-76"/>
      <use x="41.962891" xlink:href="#DejaVuSans-84"/>
      <use x="103.046875" xlink:href="#DejaVuSans-104"/>
      <use x="166.425781" xlink:href="#DejaVuSans-117"/>
      <use x="229.804688" xlink:href="#DejaVuSans-109"/>
      <use x="327.216797" xlink:href="#DejaVuSans-98"/>
     </g>
    </g>
   </g>
   <g id="text_24">
    <g clip-path="url(#p65c92f257f)">
     <!-- RHandTip -->
     <g transform="translate(272.174171 303.153051)scale(0.1 -0.1)">
      <use xlink:href="#DejaVuSans-82"/>
      <use x="69.482422" xlink:href="#DejaVuSans-72"/>
      <use x="144.677734" xlink:href="#DejaVuSans-97"/>
      <use x="205.957031" xlink:href="#DejaVuSans-110"/>
      <use x="269.335938" xlink:href="#DejaVuSans-100"/>
      <use x="332.8125" xlink:href="#DejaVuSans-84"/>
      <use x="390.771484" xlink:href="#DejaVuSans-105"/>
      <use x="418.554688" xlink:href="#DejaVuSans-112"/>
     </g>
    </g>
   </g>
   <g id="text_25">
    <g clip-path="url(#p65c92f257f)">
     <!-- RThumb -->
     <g transform="translate(273.040238 288.61874)scale(0.1 -0.1)">
      <use xlink:href="#DejaVuSans-82"/>
      <use x="62.232422" xlink:href="#DejaVuSans-84"/>
      <use x="123.316406" xlink:href="#DejaVuSans-104"/>
      <use x="186.695312" xlink:href="#DejaVuSans-117"/>
      <use x="250.074219" xlink:href="#DejaVuSans-109"/>
      <use x="347.486328" xlink:href="#DejaVuSans-98"/>
     </g>
    </g>
   </g>
   <g id="text_26">
    <!-- Node Graph Visualization - Frame 55 -->
    <g transform="translate(178.011563 -6)scale(0.12 -0.12)">
     <defs>
      <path d="M 9.8125 72.90625 
L 23.09375 72.90625 
L 55.421875 11.921875 
L 55.421875 72.90625 
L 64.984375 72.90625 
L 64.984375 0 
L 51.703125 0 
L 19.390625 60.984375 
L 19.390625 0 
L 9.8125 0 
z
" id="DejaVuSans-78"/>
      <path id="DejaVuSans-32"/>
      <path d="M 59.515625 10.40625 
L 59.515625 29.984375 
L 43.40625 29.984375 
L 43.40625 38.09375 
L 69.28125 38.09375 
L 69.28125 6.78125 
Q 63.578125 2.734375 56.6875 0.65625 
Q 49.8125 -1.421875 42 -1.421875 
Q 24.90625 -1.421875 15.25 8.5625 
Q 5.609375 18.5625 5.609375 36.375 
Q 5.609375 54.25 15.25 64.234375 
Q 24.90625 74.21875 42 74.21875 
Q 49.125 74.21875 55.546875 72.453125 
Q 61.96875 70.703125 67.390625 67.28125 
L 67.390625 56.78125 
Q 61.921875 61.421875 55.765625 63.765625 
Q 49.609375 66.109375 42.828125 66.109375 
Q 29.4375 66.109375 22.71875 58.640625 
Q 16.015625 51.171875 16.015625 36.375 
Q 16.015625 21.625 22.71875 14.15625 
Q 29.4375 6.6875 42.828125 6.6875 
Q 48.046875 6.6875 52.140625 7.59375 
Q 56.25 8.5 59.515625 10.40625 
z
" id="DejaVuSans-71"/>
      <path d="M 28.609375 0 
L 0.78125 72.90625 
L 11.078125 72.90625 
L 34.1875 11.53125 
L 57.328125 72.90625 
L 67.578125 72.90625 
L 39.796875 0 
z
" id="DejaVuSans-86"/>
      <path d="M 5.515625 54.6875 
L 48.1875 54.6875 
L 48.1875 46.484375 
L 14.40625 7.171875 
L 48.1875 7.171875 
L 48.1875 0 
L 4.296875 0 
L 4.296875 8.203125 
L 38.09375 47.515625 
L 5.515625 47.515625 
z
" id="DejaVuSans-122"/>
      <path d="M 4.890625 31.390625 
L 31.203125 31.390625 
L 31.203125 23.390625 
L 4.890625 23.390625 
z
" id="DejaVuSans-45"/>
      <path d="M 10.796875 72.90625 
L 49.515625 72.90625 
L 49.515625 64.59375 
L 19.828125 64.59375 
L 19.828125 46.734375 
Q 21.96875 47.46875 24.109375 47.828125 
Q 26.265625 48.1875 28.421875 48.1875 
Q 40.625 48.1875 47.75 41.5 
Q 54.890625 34.8125 54.890625 23.390625 
Q 54.890625 11.625 47.5625 5.09375 
Q 40.234375 -1.421875 26.90625 -1.421875 
Q 22.3125 -1.421875 17.546875 -0.640625 
Q 12.796875 0.140625 7.71875 1.703125 
L 7.71875 11.625 
Q 12.109375 9.234375 16.796875 8.0625 
Q 21.484375 6.890625 26.703125 6.890625 
Q 35.15625 6.890625 40.078125 11.328125 
Q 45.015625 15.765625 45.015625 23.390625 
Q 45.015625 31 40.078125 35.4375 
Q 35.15625 39.890625 26.703125 39.890625 
Q 22.75 39.890625 18.8125 39.015625 
Q 14.890625 38.140625 10.796875 36.28125 
z
" id="DejaVuSans-53"/>
     </defs>
     <use xlink:href="#DejaVuSans-78"/>
     <use x="74.804688" xlink:href="#DejaVuSans-111"/>
     <use x="135.986328" xlink:href="#DejaVuSans-100"/>
     <use x="199.462891" xlink:href="#DejaVuSans-101"/>
     <use x="260.986328" xlink:href="#DejaVuSans-32"/>
     <use x="292.773438" xlink:href="#DejaVuSans-71"/>
     <use x="370.263672" xlink:href="#DejaVuSans-114"/>
     <use x="411.376953" xlink:href="#DejaVuSans-97"/>
     <use x="472.65625" xlink:href="#DejaVuSans-112"/>
     <use x="536.132812" xlink:href="#DejaVuSans-104"/>
     <use x="599.511719" xlink:href="#DejaVuSans-32"/>
     <use x="631.298828" xlink:href="#DejaVuSans-86"/>
     <use x="697.457031" xlink:href="#DejaVuSans-105"/>
     <use x="725.240234" xlink:href="#DejaVuSans-115"/>
     <use x="777.339844" xlink:href="#DejaVuSans-117"/>
     <use x="840.71875" xlink:href="#DejaVuSans-97"/>
     <use x="901.998047" xlink:href="#DejaVuSans-108"/>
     <use x="929.78125" xlink:href="#DejaVuSans-105"/>
     <use x="957.564453" xlink:href="#DejaVuSans-122"/>
     <use x="1010.054688" xlink:href="#DejaVuSans-97"/>
     <use x="1071.333984" xlink:href="#DejaVuSans-116"/>
     <use x="1110.542969" xlink:href="#DejaVuSans-105"/>
     <use x="1138.326172" xlink:href="#DejaVuSans-111"/>
     <use x="1199.507812" xlink:href="#DejaVuSans-110"/>
     <use x="1262.886719" xlink:href="#DejaVuSans-32"/>
     <use x="1294.673828" xlink:href="#DejaVuSans-45"/>
     <use x="1330.757812" xlink:href="#DejaVuSans-32"/>
     <use x="1362.544922" xlink:href="#DejaVuSans-70"/>
     <use x="1412.814453" xlink:href="#DejaVuSans-114"/>
     <use x="1453.927734" xlink:href="#DejaVuSans-97"/>
     <use x="1515.207031" xlink:href="#DejaVuSans-109"/>
     <use x="1612.619141" xlink:href="#DejaVuSans-101"/>
     <use x="1674.142578" xlink:href="#DejaVuSans-32"/>
     <use x="1705.929688" xlink:href="#DejaVuSans-53"/>
     <use x="1769.552734" xlink:href="#DejaVuSans-53"/>
    </g>
   </g>
  </g>
 </g>
 <defs>
  <clipPath id="p65c92f257f">
   <rect height="864" width="576" x="0" y="0"/>
  </clipPath>
 </defs>
</svg>
