<?xml version="1.0" encoding="utf-8" standalone="no"?>
<!DOCTYPE svg PUBLIC "-//W3C//DTD SVG 1.1//EN"
  "http://www.w3.org/Graphics/SVG/1.1/DTD/svg11.dtd">
<!-- Created with matplotlib (https://matplotlib.org/) -->
<svg height="864pt" version="1.1" viewBox="0 0 576 864" width="576pt" xmlns="http://www.w3.org/2000/svg" xmlns:xlink="http://www.w3.org/1999/xlink">
 <metadata>
  <rdf:RDF xmlns:cc="http://creativecommons.org/ns#" xmlns:dc="http://purl.org/dc/elements/1.1/" xmlns:rdf="http://www.w3.org/1999/02/22-rdf-syntax-ns#">
   <cc:Work>
    <dc:type rdf:resource="http://purl.org/dc/dcmitype/StillImage"/>
    <dc:date>2024-02-04T22:27:45.015179</dc:date>
    <dc:format>image/svg+xml</dc:format>
    <dc:creator>
     <cc:Agent>
      <dc:title>Matplotlib v3.3.2, https://matplotlib.org/</dc:title>
     </cc:Agent>
    </dc:creator>
   </cc:Work>
  </rdf:RDF>
 </metadata>
 <defs>
  <style type="text/css">*{stroke-linecap:butt;stroke-linejoin:round;}</style>
 </defs>
 <g id="figure_1">
  <g id="patch_1">
   <path d="M 0 864 
L 576 864 
L 576 0 
L 0 0 
z
" style="fill:#ffffff;"/>
  </g>
  <g id="axes_1">
   <g id="patch_2">
    <path clip-path="url(#pbb8aded948)" d="M 297.481021 87.805453 
Q 296.962413 89.868713 296.716349 90.847667 
" style="fill:none;stroke:#000000;stroke-linecap:round;"/>
    <path clip-path="url(#pbb8aded948)" d="M 299.631099 87.455878 
L 296.716349 90.847667 
L 295.751768 86.480793 
L 299.631099 87.455878 
z
" style="stroke:#000000;stroke-linecap:round;"/>
   </g>
   <g id="patch_3">
    <path clip-path="url(#pbb8aded948)" d="M 293.214266 117.98788 
Q 293.213747 119.228584 293.213696 119.351253 
" style="fill:none;stroke:#000000;stroke-linecap:round;"/>
    <path clip-path="url(#pbb8aded948)" d="M 295.215368 115.35209 
L 293.213696 119.351253 
L 291.215368 115.350417 
L 295.215368 115.35209 
z
" style="stroke:#000000;stroke-linecap:round;"/>
   </g>
   <g id="patch_4">
    <path clip-path="url(#pbb8aded948)" d="M 296.444729 91.928292 
Q 296.963338 89.865032 297.209402 88.886078 
" style="fill:none;stroke:#000000;stroke-linecap:round;"/>
    <path clip-path="url(#pbb8aded948)" d="M 294.294651 92.277866 
L 297.209402 88.886078 
L 298.173982 93.252951 
L 294.294651 92.277866 
z
" style="stroke:#000000;stroke-linecap:round;"/>
   </g>
   <g id="patch_5">
    <path clip-path="url(#pbb8aded948)" d="M 293.190838 146.927216 
Q 293.15052 178.566674 293.111627 209.088098 
" style="fill:none;stroke:#000000;stroke-linecap:round;"/>
    <path clip-path="url(#pbb8aded948)" d="M 295.116722 205.09065 
L 293.111627 209.088098 
L 291.116726 205.085553 
L 295.116722 205.09065 
z
" style="stroke:#000000;stroke-linecap:round;"/>
   </g>
   <g id="patch_6">
    <path clip-path="url(#pbb8aded948)" d="M 279.98545 134.034522 
Q 196.47678 136.165839 114.08578 138.26863 
" style="fill:none;stroke:#000000;stroke-linecap:round;"/>
    <path clip-path="url(#pbb8aded948)" d="M 118.135506 140.165924 
L 114.08578 138.26863 
L 118.033451 136.167226 
L 118.135506 140.165924 
z
" style="stroke:#000000;stroke-linecap:round;"/>
   </g>
   <g id="patch_7">
    <path clip-path="url(#pbb8aded948)" d="M 306.418812 134.351099 
Q 377.839121 137.886867 448.142763 141.367352 
" style="fill:none;stroke:#000000;stroke-linecap:round;"/>
    <path clip-path="url(#pbb8aded948)" d="M 444.246547 139.172015 
L 448.142763 141.367352 
L 444.048764 143.167122 
L 444.246547 139.172015 
z
" style="stroke:#000000;stroke-linecap:round;"/>
   </g>
   <g id="patch_8">
    <path clip-path="url(#pbb8aded948)" d="M 293.213229 120.46772 
Q 293.213748 119.227017 293.213799 119.104347 
" style="fill:none;stroke:#000000;stroke-linecap:round;"/>
    <path clip-path="url(#pbb8aded948)" d="M 291.212126 123.103511 
L 293.213799 119.104347 
L 295.212126 123.105183 
L 291.212126 123.103511 
z
" style="stroke:#000000;stroke-linecap:round;"/>
   </g>
   <g id="patch_9">
    <path clip-path="url(#pbb8aded948)" d="M 292.776223 236.662025 
Q 291.628503 284.531796 290.507581 331.283853 
" style="fill:none;stroke:#000000;stroke-linecap:round;"/>
    <path clip-path="url(#pbb8aded948)" d="M 292.602883 327.332941 
L 290.507581 331.283853 
L 288.604032 327.237065 
L 292.602883 327.332941 
z
" style="stroke:#000000;stroke-linecap:round;"/>
   </g>
   <g id="patch_10">
    <path clip-path="url(#pbb8aded948)" d="M 293.110203 210.205198 
Q 293.150521 178.565741 293.189414 148.044316 
" style="fill:none;stroke:#000000;stroke-linecap:round;"/>
    <path clip-path="url(#pbb8aded948)" d="M 291.184319 152.041765 
L 293.189414 148.044316 
L 295.184316 152.046862 
L 291.184319 152.041765 
z
" style="stroke:#000000;stroke-linecap:round;"/>
   </g>
   <g id="patch_11">
    <path clip-path="url(#pbb8aded948)" d="M 276.946569 346.053919 
Q 250.138284 346.921057 224.447448 347.75205 
" style="fill:none;stroke:#000000;stroke-linecap:round;"/>
    <path clip-path="url(#pbb8aded948)" d="M 228.510015 349.621689 
L 224.447448 347.75205 
L 228.380699 345.62378 
L 228.510015 349.621689 
z
" style="stroke:#000000;stroke-linecap:round;"/>
   </g>
   <g id="patch_12">
    <path clip-path="url(#pbb8aded948)" d="M 303.369354 346.392057 
Q 330.572434 347.969282 356.659355 349.481791 
" style="fill:none;stroke:#000000;stroke-linecap:round;"/>
    <path clip-path="url(#pbb8aded948)" d="M 352.781826 347.253615 
L 356.659355 349.481791 
L 352.550296 351.246908 
L 352.781826 347.253615 
z
" style="stroke:#000000;stroke-linecap:round;"/>
   </g>
   <g id="patch_13">
    <path clip-path="url(#pbb8aded948)" d="M 290.480827 332.399725 
Q 291.628547 284.529955 292.749469 237.777897 
" style="fill:none;stroke:#000000;stroke-linecap:round;"/>
    <path clip-path="url(#pbb8aded948)" d="M 290.654168 241.72881 
L 292.749469 237.777897 
L 294.653019 241.824686 
L 290.654168 241.72881 
z
" style="stroke:#000000;stroke-linecap:round;"/>
   </g>
   <g id="patch_14">
    <path clip-path="url(#pbb8aded948)" d="M 94.635187 150.835054 
Q 74.863639 198.070574 55.52378 244.274763 
" style="fill:none;stroke:#000000;stroke-linecap:round;"/>
    <path clip-path="url(#pbb8aded948)" d="M 58.913138 241.357186 
L 55.52378 244.274763 
L 55.223333 239.812731 
L 58.913138 241.357186 
z
" style="stroke:#000000;stroke-linecap:round;"/>
   </g>
   <g id="patch_15">
    <path clip-path="url(#pbb8aded948)" d="M 112.964175 138.297256 
Q 196.472845 136.165939 278.863844 134.063148 
" style="fill:none;stroke:#000000;stroke-linecap:round;"/>
    <path clip-path="url(#pbb8aded948)" d="M 274.814119 132.165854 
L 278.863844 134.063148 
L 274.916174 136.164552 
L 274.814119 132.165854 
z
" style="stroke:#000000;stroke-linecap:round;"/>
   </g>
   <g id="patch_16">
    <path clip-path="url(#pbb8aded948)" d="M 63.040054 259.658357 
Q 180.542254 278.984091 296.941241 298.128378 
" style="fill:none;stroke:#000000;stroke-linecap:round;"/>
    <path clip-path="url(#pbb8aded948)" d="M 293.318851 295.505728 
L 296.941241 298.128378 
L 292.669688 299.4527 
L 293.318851 295.505728 
z
" style="stroke:#000000;stroke-linecap:round;"/>
   </g>
   <g id="patch_17">
    <path clip-path="url(#pbb8aded948)" d="M 55.090212 245.310586 
Q 74.86176 198.075065 94.201619 151.870876 
" style="fill:none;stroke:#000000;stroke-linecap:round;"/>
    <path clip-path="url(#pbb8aded948)" d="M 90.812261 154.788453 
L 94.201619 151.870876 
L 94.502066 156.332908 
L 90.812261 154.788453 
z
" style="stroke:#000000;stroke-linecap:round;"/>
   </g>
   <g id="patch_18">
    <path clip-path="url(#pbb8aded948)" d="M 324.304663 301.22987 
Q 331.732585 301.664626 338.044384 302.034055 
" style="fill:none;stroke:#000000;stroke-linecap:round;"/>
    <path clip-path="url(#pbb8aded948)" d="M 334.168078 299.803753 
L 338.044384 302.034055 
L 333.934358 303.796919 
L 334.168078 299.803753 
z
" style="stroke:#000000;stroke-linecap:round;"/>
   </g>
   <g id="patch_19">
    <path clip-path="url(#pbb8aded948)" d="M 298.042619 298.309523 
Q 180.540419 278.983789 64.141432 259.839502 
" style="fill:none;stroke:#000000;stroke-linecap:round;"/>
    <path clip-path="url(#pbb8aded948)" d="M 67.763822 262.462151 
L 64.141432 259.839502 
L 68.412985 258.515179 
L 67.763822 262.462151 
z
" style="stroke:#000000;stroke-linecap:round;"/>
   </g>
   <g id="patch_20">
    <path clip-path="url(#pbb8aded948)" d="M 365.566705 303.734174 
Q 375.28444 304.368642 383.886517 304.93027 
" style="fill:none;stroke:#000000;stroke-linecap:round;"/>
    <path clip-path="url(#pbb8aded948)" d="M 380.025317 302.673915 
L 383.886517 304.93027 
L 379.764713 306.665416 
L 380.025317 302.673915 
z
" style="stroke:#000000;stroke-linecap:round;"/>
   </g>
   <g id="patch_21">
    <path clip-path="url(#pbb8aded948)" d="M 341.482874 310.391147 
Q 336.086629 314.119514 331.610221 317.212349 
" style="fill:none;stroke:#000000;stroke-linecap:round;"/>
    <path clip-path="url(#pbb8aded948)" d="M 336.038002 316.584053 
L 331.610221 317.212349 
L 333.764253 313.293146 
L 336.038002 316.584053 
z
" style="stroke:#000000;stroke-linecap:round;"/>
   </g>
   <g id="patch_22">
    <path clip-path="url(#pbb8aded948)" d="M 339.159862 302.099344 
Q 331.731939 301.664588 325.420141 301.295159 
" style="fill:none;stroke:#000000;stroke-linecap:round;"/>
    <path clip-path="url(#pbb8aded948)" d="M 329.296447 303.525462 
L 325.420141 301.295159 
L 329.530167 299.532296 
L 329.296447 303.525462 
z
" style="stroke:#000000;stroke-linecap:round;"/>
   </g>
   <g id="patch_23">
    <path clip-path="url(#pbb8aded948)" d="M 469.337835 153.382785 
Q 494.244599 194.415975 518.571235 234.493419 
" style="fill:none;stroke:#000000;stroke-linecap:round;"/>
    <path clip-path="url(#pbb8aded948)" d="M 518.205393 230.036272 
L 518.571235 234.493419 
L 514.786012 232.111804 
L 518.205393 230.036272 
z
" style="stroke:#000000;stroke-linecap:round;"/>
   </g>
   <g id="patch_24">
    <path clip-path="url(#pbb8aded948)" d="M 449.264155 141.422868 
Q 377.843846 137.887101 307.540204 134.406615 
" style="fill:none;stroke:#000000;stroke-linecap:round;"/>
    <path clip-path="url(#pbb8aded948)" d="M 311.436419 136.601952 
L 307.540204 134.406615 
L 311.634203 132.606845 
L 311.436419 136.601952 
z
" style="stroke:#000000;stroke-linecap:round;"/>
   </g>
   <g id="patch_25">
    <path clip-path="url(#pbb8aded948)" d="M 513.428307 250.828493 
Q 449.544604 271.478998 386.724735 291.785617 
" style="fill:none;stroke:#000000;stroke-linecap:round;"/>
    <path clip-path="url(#pbb8aded948)" d="M 391.145984 292.458337 
L 386.724735 291.785617 
L 389.91566 288.652249 
L 391.145984 292.458337 
z
" style="stroke:#000000;stroke-linecap:round;"/>
   </g>
   <g id="patch_26">
    <path clip-path="url(#pbb8aded948)" d="M 519.153964 235.45345 
Q 494.2472 194.42026 469.920564 154.342816 
" style="fill:none;stroke:#000000;stroke-linecap:round;"/>
    <path clip-path="url(#pbb8aded948)" d="M 470.286406 158.799963 
L 469.920564 154.342816 
L 473.705787 156.724431 
L 470.286406 158.799963 
z
" style="stroke:#000000;stroke-linecap:round;"/>
   </g>
   <g id="patch_27">
    <path clip-path="url(#pbb8aded948)" d="M 359.991903 298.167816 
Q 353.970848 299.074174 349.055371 299.814108 
" style="fill:none;stroke:#000000;stroke-linecap:round;"/>
    <path clip-path="url(#pbb8aded948)" d="M 353.308516 301.196408 
L 349.055371 299.814108 
L 352.713098 297.240972 
L 353.308516 301.196408 
z
" style="stroke:#000000;stroke-linecap:round;"/>
   </g>
   <g id="patch_28">
    <path clip-path="url(#pbb8aded948)" d="M 385.66042 292.129658 
Q 449.544123 271.479153 512.363993 251.172534 
" style="fill:none;stroke:#000000;stroke-linecap:round;"/>
    <path clip-path="url(#pbb8aded948)" d="M 507.942743 250.499814 
L 512.363993 251.172534 
L 509.173067 254.305901 
L 507.942743 250.499814 
z
" style="stroke:#000000;stroke-linecap:round;"/>
   </g>
   <g id="patch_29">
    <path clip-path="url(#pbb8aded948)" d="M 322.286751 306.031092 
Q 315.472028 308.241477 309.720795 310.106914 
" style="fill:none;stroke:#000000;stroke-linecap:round;"/>
    <path clip-path="url(#pbb8aded948)" d="M 314.142713 310.775221 
L 309.720795 310.106914 
L 312.908592 306.970364 
L 314.142713 310.775221 
z
" style="stroke:#000000;stroke-linecap:round;"/>
   </g>
   <g id="patch_30">
    <path clip-path="url(#pbb8aded948)" d="M 336.94259 315.015067 
Q 337.162356 316.401302 337.207061 316.683294 
" style="fill:none;stroke:#000000;stroke-linecap:round;"/>
    <path clip-path="url(#pbb8aded948)" d="M 338.556075 312.419474 
L 337.207061 316.683294 
L 334.605414 313.045791 
L 338.556075 312.419474 
z
" style="stroke:#000000;stroke-linecap:round;"/>
   </g>
   <g id="patch_31">
    <path clip-path="url(#pbb8aded948)" d="M 347.951503 299.980274 
Q 353.972558 299.073916 358.888036 298.333983 
" style="fill:none;stroke:#000000;stroke-linecap:round;"/>
    <path clip-path="url(#pbb8aded948)" d="M 354.63489 296.951682 
L 358.888036 298.333983 
L 355.230308 300.907118 
L 354.63489 296.951682 
z
" style="stroke:#000000;stroke-linecap:round;"/>
   </g>
   <g id="patch_32">
    <path clip-path="url(#pbb8aded948)" d="M 206.790231 361.020099 
Q 184.276057 447.898108 162.042353 533.693833 
" style="fill:none;stroke:#000000;stroke-linecap:round;"/>
    <path clip-path="url(#pbb8aded948)" d="M 164.98184 530.323461 
L 162.042353 533.693833 
L 161.109747 529.32002 
L 164.98184 530.323461 
z
" style="stroke:#000000;stroke-linecap:round;"/>
   </g>
   <g id="patch_33">
    <path clip-path="url(#pbb8aded948)" d="M 223.325549 347.788339 
Q 250.133834 346.921201 275.824671 346.090208 
" style="fill:none;stroke:#000000;stroke-linecap:round;"/>
    <path clip-path="url(#pbb8aded948)" d="M 271.762103 344.220569 
L 275.824671 346.090208 
L 271.891419 348.218478 
L 271.762103 344.220569 
z
" style="stroke:#000000;stroke-linecap:round;"/>
   </g>
   <g id="patch_34">
    <path clip-path="url(#pbb8aded948)" d="M 158.586324 560.813106 
Q 159.483544 643.556088 160.368641 725.181101 
" style="fill:none;stroke:#000000;stroke-linecap:round;"/>
    <path clip-path="url(#pbb8aded948)" d="M 162.325152 721.159651 
L 160.368641 725.181101 
L 158.325387 721.203022 
L 162.325152 721.159651 
z
" style="stroke:#000000;stroke-linecap:round;"/>
   </g>
   <g id="patch_35">
    <path clip-path="url(#pbb8aded948)" d="M 161.76105 534.779326 
Q 184.275225 447.901318 206.508929 362.105592 
" style="fill:none;stroke:#000000;stroke-linecap:round;"/>
    <path clip-path="url(#pbb8aded948)" d="M 203.569441 365.475964 
L 206.508929 362.105592 
L 207.441535 366.479406 
L 203.569441 365.475964 
z
" style="stroke:#000000;stroke-linecap:round;"/>
   </g>
   <g id="patch_36">
    <path clip-path="url(#pbb8aded948)" d="M 155.94389 751.935118 
Q 151.388565 764.274951 147.22043 775.565934 
" style="fill:none;stroke:#000000;stroke-linecap:round;"/>
    <path clip-path="url(#pbb8aded948)" d="M 150.481918 772.506082 
L 147.22043 775.565934 
L 146.729441 771.120833 
L 150.481918 772.506082 
z
" style="stroke:#000000;stroke-linecap:round;"/>
   </g>
   <g id="patch_37">
    <path clip-path="url(#pbb8aded948)" d="M 160.380752 726.298044 
Q 159.483533 643.555062 158.598436 561.930049 
" style="fill:none;stroke:#000000;stroke-linecap:round;"/>
    <path clip-path="url(#pbb8aded948)" d="M 156.641924 565.9515 
L 158.598436 561.930049 
L 160.641689 565.908128 
L 156.641924 565.9515 
z
" style="stroke:#000000;stroke-linecap:round;"/>
   </g>
   <g id="patch_38">
    <path clip-path="url(#pbb8aded948)" d="M 146.832327 776.617259 
Q 151.387651 764.277427 155.555787 752.986443 
" style="fill:none;stroke:#000000;stroke-linecap:round;"/>
    <path clip-path="url(#pbb8aded948)" d="M 152.294298 756.046295 
L 155.555787 752.986443 
L 156.046775 757.431545 
L 152.294298 756.046295 
z
" style="stroke:#000000;stroke-linecap:round;"/>
   </g>
   <g id="patch_39">
    <path clip-path="url(#pbb8aded948)" d="M 372.920917 363.400185 
Q 386.453744 454.936952 399.823057 545.367706 
" style="fill:none;stroke:#000000;stroke-linecap:round;"/>
    <path clip-path="url(#pbb8aded948)" d="M 401.21655 541.118215 
L 399.823057 545.367706 
L 397.25956 541.703217 
L 401.21655 541.118215 
z
" style="stroke:#000000;stroke-linecap:round;"/>
   </g>
   <g id="patch_40">
    <path clip-path="url(#pbb8aded948)" d="M 357.780374 349.546788 
Q 330.577294 347.969563 304.490373 346.457054 
" style="fill:none;stroke:#000000;stroke-linecap:round;"/>
    <path clip-path="url(#pbb8aded948)" d="M 308.367902 348.68523 
L 304.490373 346.457054 
L 308.599432 344.691936 
L 308.367902 348.68523 
z
" style="stroke:#000000;stroke-linecap:round;"/>
   </g>
   <g id="patch_41">
    <path clip-path="url(#pbb8aded948)" d="M 401.106406 572.765253 
Q 396.96528 639.823693 392.893066 705.766226 
" style="fill:none;stroke:#000000;stroke-linecap:round;"/>
    <path clip-path="url(#pbb8aded948)" d="M 395.135809 701.897105 
L 392.893066 705.766226 
L 391.143414 701.650558 
L 395.135809 701.897105 
z
" style="stroke:#000000;stroke-linecap:round;"/>
   </g>
   <g id="patch_42">
    <path clip-path="url(#pbb8aded948)" d="M 399.986801 546.475275 
Q 386.453974 454.938508 373.084661 364.507754 
" style="fill:none;stroke:#000000;stroke-linecap:round;"/>
    <path clip-path="url(#pbb8aded948)" d="M 371.691168 368.757245 
L 373.084661 364.507754 
L 375.648159 368.172242 
L 371.691168 368.757245 
z
" style="stroke:#000000;stroke-linecap:round;"/>
   </g>
   <g id="patch_43">
    <path clip-path="url(#pbb8aded948)" d="M 395.465957 732.8559 
Q 398.43 743.803646 401.101861 753.672213 
" style="fill:none;stroke:#000000;stroke-linecap:round;"/>
    <path clip-path="url(#pbb8aded948)" d="M 401.987014 749.288549 
L 401.101861 753.672213 
L 398.126022 750.333892 
L 401.987014 749.288549 
z
" style="stroke:#000000;stroke-linecap:round;"/>
   </g>
   <g id="patch_44">
    <path clip-path="url(#pbb8aded948)" d="M 392.824019 706.884323 
Q 396.965145 639.825882 401.037359 573.88335 
" style="fill:none;stroke:#000000;stroke-linecap:round;"/>
    <path clip-path="url(#pbb8aded948)" d="M 398.794615 577.752471 
L 401.037359 573.88335 
L 402.78701 577.999017 
L 398.794615 577.752471 
z
" style="stroke:#000000;stroke-linecap:round;"/>
   </g>
   <g id="patch_45">
    <path clip-path="url(#pbb8aded948)" d="M 401.392859 754.747021 
Q 398.428816 743.799275 395.756955 733.930708 
" style="fill:none;stroke:#000000;stroke-linecap:round;"/>
    <path clip-path="url(#pbb8aded948)" d="M 394.871802 738.314372 
L 395.756955 733.930708 
L 398.732794 737.269029 
L 394.871802 738.314372 
z
" style="stroke:#000000;stroke-linecap:round;"/>
   </g>
   <g id="patch_46">
    <path clip-path="url(#pbb8aded948)" d="M 384.998111 305.002845 
Q 375.280376 304.368377 366.678299 303.80675 
" style="fill:none;stroke:#000000;stroke-linecap:round;"/>
    <path clip-path="url(#pbb8aded948)" d="M 370.539499 306.063105 
L 366.678299 303.80675 
L 370.800103 302.071603 
L 370.539499 306.063105 
z
" style="stroke:#000000;stroke-linecap:round;"/>
   </g>
   <g id="patch_47">
    <path clip-path="url(#pbb8aded948)" d="M 341.572833 310.328993 
Q 346.969078 306.600626 351.445487 303.507792 
" style="fill:none;stroke:#000000;stroke-linecap:round;"/>
    <path clip-path="url(#pbb8aded948)" d="M 347.017706 304.136087 
L 351.445487 303.507792 
L 349.291455 307.426994 
L 347.017706 304.136087 
z
" style="stroke:#000000;stroke-linecap:round;"/>
   </g>
   <g id="patch_48">
    <path clip-path="url(#pbb8aded948)" d="M 308.655564 310.452427 
Q 315.470287 308.242042 321.22152 306.376605 
" style="fill:none;stroke:#000000;stroke-linecap:round;"/>
    <path clip-path="url(#pbb8aded948)" d="M 316.799602 305.708298 
L 321.22152 306.376605 
L 318.033724 309.513156 
L 316.799602 305.708298 
z
" style="stroke:#000000;stroke-linecap:round;"/>
   </g>
   <g id="patch_49">
    <path clip-path="url(#pbb8aded948)" d="M 335.31074 304.72174 
Q 335.090974 303.335505 335.046269 303.053513 
" style="fill:none;stroke:#000000;stroke-linecap:round;"/>
    <path clip-path="url(#pbb8aded948)" d="M 333.697255 307.317334 
L 335.046269 303.053513 
L 337.647916 306.691017 
L 333.697255 307.317334 
z
" style="stroke:#000000;stroke-linecap:round;"/>
   </g>
   <g id="PathCollection_1">
    <defs>
     <path d="M 0 13.228757 
C 3.508307 13.228757 6.873396 11.834891 9.354143 9.354143 
C 11.834891 6.873396 13.228757 3.508307 13.228757 0 
C 13.228757 -3.508307 11.834891 -6.873396 9.354143 -9.354143 
C 6.873396 -11.834891 3.508307 -13.228757 0 -13.228757 
C -3.508307 -13.228757 -6.873396 -11.834891 -9.354143 -9.354143 
C -11.834891 -6.873396 -13.228757 -3.508307 -13.228757 0 
C -13.228757 3.508307 -11.834891 6.873396 -9.354143 9.354143 
C -6.873396 11.834891 -3.508307 13.228757 0 13.228757 
z
" id="medf58d334b" style="stroke:#87ceeb;"/>
    </defs>
    <g clip-path="url(#pbb8aded948)">
     <use style="fill:#87ceeb;stroke:#87ceeb;" x="300.705953" xlink:href="#medf58d334b" y="74.975207"/>
     <use style="fill:#87ceeb;stroke:#87ceeb;" x="293.219798" xlink:href="#medf58d334b" y="104.758538"/>
     <use style="fill:#87ceeb;stroke:#87ceeb;" x="293.207697" xlink:href="#medf58d334b" y="133.697063"/>
     <use style="fill:#87ceeb;stroke:#87ceeb;" x="293.093344" xlink:href="#medf58d334b" y="223.435351"/>
     <use style="fill:#87ceeb;stroke:#87ceeb;" x="290.163706" xlink:href="#medf58d334b" y="345.626399"/>
     <use style="fill:#87ceeb;stroke:#87ceeb;" x="99.741928" xlink:href="#medf58d334b" y="138.634715"/>
     <use style="fill:#87ceeb;stroke:#87ceeb;" x="49.983471" xlink:href="#medf58d334b" y="257.510924"/>
     <use style="fill:#87ceeb;stroke:#87ceeb;" x="311.099202" xlink:href="#medf58d334b" y="300.456955"/>
     <use style="fill:#87ceeb;stroke:#87ceeb;" x="352.365323" xlink:href="#medf58d334b" y="302.872259"/>
     <use style="fill:#87ceeb;stroke:#87ceeb;" x="462.47527" xlink:href="#medf58d334b" y="142.076904"/>
     <use style="fill:#87ceeb;stroke:#87ceeb;" x="526.016529" xlink:href="#medf58d334b" y="246.759331"/>
     <use style="fill:#87ceeb;stroke:#87ceeb;" x="373.072198" xlink:href="#medf58d334b" y="296.19882"/>
     <use style="fill:#87ceeb;stroke:#87ceeb;" x="334.871208" xlink:href="#medf58d334b" y="301.94927"/>
     <use style="fill:#87ceeb;stroke:#87ceeb;" x="210.108412" xlink:href="#medf58d334b" y="348.215859"/>
     <use style="fill:#87ceeb;stroke:#87ceeb;" x="158.44287" xlink:href="#medf58d334b" y="547.583566"/>
     <use style="fill:#87ceeb;stroke:#87ceeb;" x="160.524206" xlink:href="#medf58d334b" y="739.527584"/>
     <use style="fill:#87ceeb;stroke:#87ceeb;" x="142.25201" xlink:href="#medf58d334b" y="789.024793"/>
     <use style="fill:#87ceeb;stroke:#87ceeb;" x="370.986022" xlink:href="#medf58d334b" y="350.312446"/>
     <use style="fill:#87ceeb;stroke:#87ceeb;" x="401.921697" xlink:href="#medf58d334b" y="559.563014"/>
     <use style="fill:#87ceeb;stroke:#87ceeb;" x="392.008728" xlink:href="#medf58d334b" y="720.086562"/>
     <use style="fill:#87ceeb;stroke:#87ceeb;" x="404.850088" xlink:href="#medf58d334b" y="767.516359"/>
     <use style="fill:#87ceeb;stroke:#87ceeb;" x="398.199493" xlink:href="#medf58d334b" y="305.86476"/>
     <use style="fill:#87ceeb;stroke:#87ceeb;" x="330.690384" xlink:href="#medf58d334b" y="317.847881"/>
     <use style="fill:#87ceeb;stroke:#87ceeb;" x="296.071107" xlink:href="#medf58d334b" y="314.534249"/>
     <use style="fill:#87ceeb;stroke:#87ceeb;" x="337.382122" xlink:href="#medf58d334b" y="317.787537"/>
    </g>
   </g>
   <g id="text_1">
    <g clip-path="url(#pbb8aded948)">
     <!-- Head -->
     <g transform="translate(287.630953 77.734582)scale(0.1 -0.1)">
      <defs>
       <path d="M 9.8125 72.90625 
L 19.671875 72.90625 
L 19.671875 43.015625 
L 55.515625 43.015625 
L 55.515625 72.90625 
L 65.375 72.90625 
L 65.375 0 
L 55.515625 0 
L 55.515625 34.71875 
L 19.671875 34.71875 
L 19.671875 0 
L 9.8125 0 
z
" id="DejaVuSans-72"/>
       <path d="M 56.203125 29.59375 
L 56.203125 25.203125 
L 14.890625 25.203125 
Q 15.484375 15.921875 20.484375 11.0625 
Q 25.484375 6.203125 34.421875 6.203125 
Q 39.59375 6.203125 44.453125 7.46875 
Q 49.3125 8.734375 54.109375 11.28125 
L 54.109375 2.78125 
Q 49.265625 0.734375 44.1875 -0.34375 
Q 39.109375 -1.421875 33.890625 -1.421875 
Q 20.796875 -1.421875 13.15625 6.1875 
Q 5.515625 13.8125 5.515625 26.8125 
Q 5.515625 40.234375 12.765625 48.109375 
Q 20.015625 56 32.328125 56 
Q 43.359375 56 49.78125 48.890625 
Q 56.203125 41.796875 56.203125 29.59375 
z
M 47.21875 32.234375 
Q 47.125 39.59375 43.09375 43.984375 
Q 39.0625 48.390625 32.421875 48.390625 
Q 24.90625 48.390625 20.390625 44.140625 
Q 15.875 39.890625 15.1875 32.171875 
z
" id="DejaVuSans-101"/>
       <path d="M 34.28125 27.484375 
Q 23.390625 27.484375 19.1875 25 
Q 14.984375 22.515625 14.984375 16.5 
Q 14.984375 11.71875 18.140625 8.90625 
Q 21.296875 6.109375 26.703125 6.109375 
Q 34.1875 6.109375 38.703125 11.40625 
Q 43.21875 16.703125 43.21875 25.484375 
L 43.21875 27.484375 
z
M 52.203125 31.203125 
L 52.203125 0 
L 43.21875 0 
L 43.21875 8.296875 
Q 40.140625 3.328125 35.546875 0.953125 
Q 30.953125 -1.421875 24.3125 -1.421875 
Q 15.921875 -1.421875 10.953125 3.296875 
Q 6 8.015625 6 15.921875 
Q 6 25.140625 12.171875 29.828125 
Q 18.359375 34.515625 30.609375 34.515625 
L 43.21875 34.515625 
L 43.21875 35.40625 
Q 43.21875 41.609375 39.140625 45 
Q 35.0625 48.390625 27.6875 48.390625 
Q 23 48.390625 18.546875 47.265625 
Q 14.109375 46.140625 10.015625 43.890625 
L 10.015625 52.203125 
Q 14.9375 54.109375 19.578125 55.046875 
Q 24.21875 56 28.609375 56 
Q 40.484375 56 46.34375 49.84375 
Q 52.203125 43.703125 52.203125 31.203125 
z
" id="DejaVuSans-97"/>
       <path d="M 45.40625 46.390625 
L 45.40625 75.984375 
L 54.390625 75.984375 
L 54.390625 0 
L 45.40625 0 
L 45.40625 8.203125 
Q 42.578125 3.328125 38.25 0.953125 
Q 33.9375 -1.421875 27.875 -1.421875 
Q 17.96875 -1.421875 11.734375 6.484375 
Q 5.515625 14.40625 5.515625 27.296875 
Q 5.515625 40.1875 11.734375 48.09375 
Q 17.96875 56 27.875 56 
Q 33.9375 56 38.25 53.625 
Q 42.578125 51.265625 45.40625 46.390625 
z
M 14.796875 27.296875 
Q 14.796875 17.390625 18.875 11.75 
Q 22.953125 6.109375 30.078125 6.109375 
Q 37.203125 6.109375 41.296875 11.75 
Q 45.40625 17.390625 45.40625 27.296875 
Q 45.40625 37.203125 41.296875 42.84375 
Q 37.203125 48.484375 30.078125 48.484375 
Q 22.953125 48.484375 18.875 42.84375 
Q 14.796875 37.203125 14.796875 27.296875 
z
" id="DejaVuSans-100"/>
      </defs>
      <use xlink:href="#DejaVuSans-72"/>
      <use x="75.195312" xlink:href="#DejaVuSans-101"/>
      <use x="136.71875" xlink:href="#DejaVuSans-97"/>
      <use x="197.998047" xlink:href="#DejaVuSans-100"/>
     </g>
    </g>
   </g>
   <g id="text_2">
    <g clip-path="url(#pbb8aded948)">
     <!-- c7 -->
     <g transform="translate(287.289329 107.517913)scale(0.1 -0.1)">
      <defs>
       <path d="M 48.78125 52.59375 
L 48.78125 44.1875 
Q 44.96875 46.296875 41.140625 47.34375 
Q 37.3125 48.390625 33.40625 48.390625 
Q 24.65625 48.390625 19.8125 42.84375 
Q 14.984375 37.3125 14.984375 27.296875 
Q 14.984375 17.28125 19.8125 11.734375 
Q 24.65625 6.203125 33.40625 6.203125 
Q 37.3125 6.203125 41.140625 7.25 
Q 44.96875 8.296875 48.78125 10.40625 
L 48.78125 2.09375 
Q 45.015625 0.34375 40.984375 -0.53125 
Q 36.96875 -1.421875 32.421875 -1.421875 
Q 20.0625 -1.421875 12.78125 6.34375 
Q 5.515625 14.109375 5.515625 27.296875 
Q 5.515625 40.671875 12.859375 48.328125 
Q 20.21875 56 33.015625 56 
Q 37.15625 56 41.109375 55.140625 
Q 45.0625 54.296875 48.78125 52.59375 
z
" id="DejaVuSans-99"/>
       <path d="M 8.203125 72.90625 
L 55.078125 72.90625 
L 55.078125 68.703125 
L 28.609375 0 
L 18.3125 0 
L 43.21875 64.59375 
L 8.203125 64.59375 
z
" id="DejaVuSans-55"/>
      </defs>
      <use xlink:href="#DejaVuSans-99"/>
      <use x="54.980469" xlink:href="#DejaVuSans-55"/>
     </g>
    </g>
   </g>
   <g id="text_3">
    <g clip-path="url(#pbb8aded948)">
     <!-- SpineShoulder -->
     <g transform="translate(256.958478 136.456438)scale(0.1 -0.1)">
      <defs>
       <path d="M 53.515625 70.515625 
L 53.515625 60.890625 
Q 47.90625 63.578125 42.921875 64.890625 
Q 37.9375 66.21875 33.296875 66.21875 
Q 25.25 66.21875 20.875 63.09375 
Q 16.5 59.96875 16.5 54.203125 
Q 16.5 49.359375 19.40625 46.890625 
Q 22.3125 44.4375 30.421875 42.921875 
L 36.375 41.703125 
Q 47.40625 39.59375 52.65625 34.296875 
Q 57.90625 29 57.90625 20.125 
Q 57.90625 9.515625 50.796875 4.046875 
Q 43.703125 -1.421875 29.984375 -1.421875 
Q 24.8125 -1.421875 18.96875 -0.25 
Q 13.140625 0.921875 6.890625 3.21875 
L 6.890625 13.375 
Q 12.890625 10.015625 18.65625 8.296875 
Q 24.421875 6.59375 29.984375 6.59375 
Q 38.421875 6.59375 43.015625 9.90625 
Q 47.609375 13.234375 47.609375 19.390625 
Q 47.609375 24.75 44.3125 27.78125 
Q 41.015625 30.8125 33.5 32.328125 
L 27.484375 33.5 
Q 16.453125 35.6875 11.515625 40.375 
Q 6.59375 45.0625 6.59375 53.421875 
Q 6.59375 63.09375 13.40625 68.65625 
Q 20.21875 74.21875 32.171875 74.21875 
Q 37.3125 74.21875 42.625 73.28125 
Q 47.953125 72.359375 53.515625 70.515625 
z
" id="DejaVuSans-83"/>
       <path d="M 18.109375 8.203125 
L 18.109375 -20.796875 
L 9.078125 -20.796875 
L 9.078125 54.6875 
L 18.109375 54.6875 
L 18.109375 46.390625 
Q 20.953125 51.265625 25.265625 53.625 
Q 29.59375 56 35.59375 56 
Q 45.5625 56 51.78125 48.09375 
Q 58.015625 40.1875 58.015625 27.296875 
Q 58.015625 14.40625 51.78125 6.484375 
Q 45.5625 -1.421875 35.59375 -1.421875 
Q 29.59375 -1.421875 25.265625 0.953125 
Q 20.953125 3.328125 18.109375 8.203125 
z
M 48.6875 27.296875 
Q 48.6875 37.203125 44.609375 42.84375 
Q 40.53125 48.484375 33.40625 48.484375 
Q 26.265625 48.484375 22.1875 42.84375 
Q 18.109375 37.203125 18.109375 27.296875 
Q 18.109375 17.390625 22.1875 11.75 
Q 26.265625 6.109375 33.40625 6.109375 
Q 40.53125 6.109375 44.609375 11.75 
Q 48.6875 17.390625 48.6875 27.296875 
z
" id="DejaVuSans-112"/>
       <path d="M 9.421875 54.6875 
L 18.40625 54.6875 
L 18.40625 0 
L 9.421875 0 
z
M 9.421875 75.984375 
L 18.40625 75.984375 
L 18.40625 64.59375 
L 9.421875 64.59375 
z
" id="DejaVuSans-105"/>
       <path d="M 54.890625 33.015625 
L 54.890625 0 
L 45.90625 0 
L 45.90625 32.71875 
Q 45.90625 40.484375 42.875 44.328125 
Q 39.84375 48.1875 33.796875 48.1875 
Q 26.515625 48.1875 22.3125 43.546875 
Q 18.109375 38.921875 18.109375 30.90625 
L 18.109375 0 
L 9.078125 0 
L 9.078125 54.6875 
L 18.109375 54.6875 
L 18.109375 46.1875 
Q 21.34375 51.125 25.703125 53.5625 
Q 30.078125 56 35.796875 56 
Q 45.21875 56 50.046875 50.171875 
Q 54.890625 44.34375 54.890625 33.015625 
z
" id="DejaVuSans-110"/>
       <path d="M 54.890625 33.015625 
L 54.890625 0 
L 45.90625 0 
L 45.90625 32.71875 
Q 45.90625 40.484375 42.875 44.328125 
Q 39.84375 48.1875 33.796875 48.1875 
Q 26.515625 48.1875 22.3125 43.546875 
Q 18.109375 38.921875 18.109375 30.90625 
L 18.109375 0 
L 9.078125 0 
L 9.078125 75.984375 
L 18.109375 75.984375 
L 18.109375 46.1875 
Q 21.34375 51.125 25.703125 53.5625 
Q 30.078125 56 35.796875 56 
Q 45.21875 56 50.046875 50.171875 
Q 54.890625 44.34375 54.890625 33.015625 
z
" id="DejaVuSans-104"/>
       <path d="M 30.609375 48.390625 
Q 23.390625 48.390625 19.1875 42.75 
Q 14.984375 37.109375 14.984375 27.296875 
Q 14.984375 17.484375 19.15625 11.84375 
Q 23.34375 6.203125 30.609375 6.203125 
Q 37.796875 6.203125 41.984375 11.859375 
Q 46.1875 17.53125 46.1875 27.296875 
Q 46.1875 37.015625 41.984375 42.703125 
Q 37.796875 48.390625 30.609375 48.390625 
z
M 30.609375 56 
Q 42.328125 56 49.015625 48.375 
Q 55.71875 40.765625 55.71875 27.296875 
Q 55.71875 13.875 49.015625 6.21875 
Q 42.328125 -1.421875 30.609375 -1.421875 
Q 18.84375 -1.421875 12.171875 6.21875 
Q 5.515625 13.875 5.515625 27.296875 
Q 5.515625 40.765625 12.171875 48.375 
Q 18.84375 56 30.609375 56 
z
" id="DejaVuSans-111"/>
       <path d="M 8.5 21.578125 
L 8.5 54.6875 
L 17.484375 54.6875 
L 17.484375 21.921875 
Q 17.484375 14.15625 20.5 10.265625 
Q 23.53125 6.390625 29.59375 6.390625 
Q 36.859375 6.390625 41.078125 11.03125 
Q 45.3125 15.671875 45.3125 23.6875 
L 45.3125 54.6875 
L 54.296875 54.6875 
L 54.296875 0 
L 45.3125 0 
L 45.3125 8.40625 
Q 42.046875 3.421875 37.71875 1 
Q 33.40625 -1.421875 27.6875 -1.421875 
Q 18.265625 -1.421875 13.375 4.4375 
Q 8.5 10.296875 8.5 21.578125 
z
M 31.109375 56 
z
" id="DejaVuSans-117"/>
       <path d="M 9.421875 75.984375 
L 18.40625 75.984375 
L 18.40625 0 
L 9.421875 0 
z
" id="DejaVuSans-108"/>
       <path d="M 41.109375 46.296875 
Q 39.59375 47.171875 37.8125 47.578125 
Q 36.03125 48 33.890625 48 
Q 26.265625 48 22.1875 43.046875 
Q 18.109375 38.09375 18.109375 28.8125 
L 18.109375 0 
L 9.078125 0 
L 9.078125 54.6875 
L 18.109375 54.6875 
L 18.109375 46.1875 
Q 20.953125 51.171875 25.484375 53.578125 
Q 30.03125 56 36.53125 56 
Q 37.453125 56 38.578125 55.875 
Q 39.703125 55.765625 41.0625 55.515625 
z
" id="DejaVuSans-114"/>
      </defs>
      <use xlink:href="#DejaVuSans-83"/>
      <use x="63.476562" xlink:href="#DejaVuSans-112"/>
      <use x="126.953125" xlink:href="#DejaVuSans-105"/>
      <use x="154.736328" xlink:href="#DejaVuSans-110"/>
      <use x="218.115234" xlink:href="#DejaVuSans-101"/>
      <use x="279.638672" xlink:href="#DejaVuSans-83"/>
      <use x="343.115234" xlink:href="#DejaVuSans-104"/>
      <use x="406.494141" xlink:href="#DejaVuSans-111"/>
      <use x="467.675781" xlink:href="#DejaVuSans-117"/>
      <use x="531.054688" xlink:href="#DejaVuSans-108"/>
      <use x="558.837891" xlink:href="#DejaVuSans-100"/>
      <use x="622.314453" xlink:href="#DejaVuSans-101"/>
      <use x="683.837891" xlink:href="#DejaVuSans-114"/>
     </g>
    </g>
   </g>
   <g id="text_4">
    <g clip-path="url(#pbb8aded948)">
     <!-- Spine -->
     <g transform="translate(279.110532 226.194726)scale(0.1 -0.1)">
      <use xlink:href="#DejaVuSans-83"/>
      <use x="63.476562" xlink:href="#DejaVuSans-112"/>
      <use x="126.953125" xlink:href="#DejaVuSans-105"/>
      <use x="154.736328" xlink:href="#DejaVuSans-110"/>
      <use x="218.115234" xlink:href="#DejaVuSans-101"/>
     </g>
    </g>
   </g>
   <g id="text_5">
    <g clip-path="url(#pbb8aded948)">
     <!-- Sacr -->
     <g transform="translate(279.120738 348.385774)scale(0.1 -0.1)">
      <use xlink:href="#DejaVuSans-83"/>
      <use x="63.476562" xlink:href="#DejaVuSans-97"/>
      <use x="124.755859" xlink:href="#DejaVuSans-99"/>
      <use x="179.736328" xlink:href="#DejaVuSans-114"/>
     </g>
    </g>
   </g>
   <g id="text_6">
    <g clip-path="url(#pbb8aded948)">
     <!-- LShoulder -->
     <g transform="translate(74.689584 141.39409)scale(0.1 -0.1)">
      <defs>
       <path d="M 9.8125 72.90625 
L 19.671875 72.90625 
L 19.671875 8.296875 
L 55.171875 8.296875 
L 55.171875 0 
L 9.8125 0 
z
" id="DejaVuSans-76"/>
      </defs>
      <use xlink:href="#DejaVuSans-76"/>
      <use x="55.712891" xlink:href="#DejaVuSans-83"/>
      <use x="119.189453" xlink:href="#DejaVuSans-104"/>
      <use x="182.568359" xlink:href="#DejaVuSans-111"/>
      <use x="243.75" xlink:href="#DejaVuSans-117"/>
      <use x="307.128906" xlink:href="#DejaVuSans-108"/>
      <use x="334.912109" xlink:href="#DejaVuSans-100"/>
      <use x="398.388672" xlink:href="#DejaVuSans-101"/>
      <use x="459.912109" xlink:href="#DejaVuSans-114"/>
     </g>
    </g>
   </g>
   <g id="text_7">
    <g clip-path="url(#pbb8aded948)">
     <!-- LElbow -->
     <g transform="translate(32.32644 260.270299)scale(0.1 -0.1)">
      <defs>
       <path d="M 9.8125 72.90625 
L 55.90625 72.90625 
L 55.90625 64.59375 
L 19.671875 64.59375 
L 19.671875 43.015625 
L 54.390625 43.015625 
L 54.390625 34.71875 
L 19.671875 34.71875 
L 19.671875 8.296875 
L 56.78125 8.296875 
L 56.78125 0 
L 9.8125 0 
z
" id="DejaVuSans-69"/>
       <path d="M 48.6875 27.296875 
Q 48.6875 37.203125 44.609375 42.84375 
Q 40.53125 48.484375 33.40625 48.484375 
Q 26.265625 48.484375 22.1875 42.84375 
Q 18.109375 37.203125 18.109375 27.296875 
Q 18.109375 17.390625 22.1875 11.75 
Q 26.265625 6.109375 33.40625 6.109375 
Q 40.53125 6.109375 44.609375 11.75 
Q 48.6875 17.390625 48.6875 27.296875 
z
M 18.109375 46.390625 
Q 20.953125 51.265625 25.265625 53.625 
Q 29.59375 56 35.59375 56 
Q 45.5625 56 51.78125 48.09375 
Q 58.015625 40.1875 58.015625 27.296875 
Q 58.015625 14.40625 51.78125 6.484375 
Q 45.5625 -1.421875 35.59375 -1.421875 
Q 29.59375 -1.421875 25.265625 0.953125 
Q 20.953125 3.328125 18.109375 8.203125 
L 18.109375 0 
L 9.078125 0 
L 9.078125 75.984375 
L 18.109375 75.984375 
z
" id="DejaVuSans-98"/>
       <path d="M 4.203125 54.6875 
L 13.1875 54.6875 
L 24.421875 12.015625 
L 35.59375 54.6875 
L 46.1875 54.6875 
L 57.421875 12.015625 
L 68.609375 54.6875 
L 77.59375 54.6875 
L 63.28125 0 
L 52.6875 0 
L 40.921875 44.828125 
L 29.109375 0 
L 18.5 0 
z
" id="DejaVuSans-119"/>
      </defs>
      <use xlink:href="#DejaVuSans-76"/>
      <use x="55.712891" xlink:href="#DejaVuSans-69"/>
      <use x="118.896484" xlink:href="#DejaVuSans-108"/>
      <use x="146.679688" xlink:href="#DejaVuSans-98"/>
      <use x="210.15625" xlink:href="#DejaVuSans-111"/>
      <use x="271.337891" xlink:href="#DejaVuSans-119"/>
     </g>
    </g>
   </g>
   <g id="text_8">
    <g clip-path="url(#pbb8aded948)">
     <!-- LWrist -->
     <g transform="translate(296.041389 303.21633)scale(0.1 -0.1)">
      <defs>
       <path d="M 3.328125 72.90625 
L 13.28125 72.90625 
L 28.609375 11.28125 
L 43.890625 72.90625 
L 54.984375 72.90625 
L 70.3125 11.28125 
L 85.59375 72.90625 
L 95.609375 72.90625 
L 77.296875 0 
L 64.890625 0 
L 49.515625 63.28125 
L 33.984375 0 
L 21.578125 0 
z
" id="DejaVuSans-87"/>
       <path d="M 44.28125 53.078125 
L 44.28125 44.578125 
Q 40.484375 46.53125 36.375 47.5 
Q 32.28125 48.484375 27.875 48.484375 
Q 21.1875 48.484375 17.84375 46.4375 
Q 14.5 44.390625 14.5 40.28125 
Q 14.5 37.15625 16.890625 35.375 
Q 19.28125 33.59375 26.515625 31.984375 
L 29.59375 31.296875 
Q 39.15625 29.25 43.1875 25.515625 
Q 47.21875 21.78125 47.21875 15.09375 
Q 47.21875 7.46875 41.1875 3.015625 
Q 35.15625 -1.421875 24.609375 -1.421875 
Q 20.21875 -1.421875 15.453125 -0.5625 
Q 10.6875 0.296875 5.421875 2 
L 5.421875 11.28125 
Q 10.40625 8.6875 15.234375 7.390625 
Q 20.0625 6.109375 24.8125 6.109375 
Q 31.15625 6.109375 34.5625 8.28125 
Q 37.984375 10.453125 37.984375 14.40625 
Q 37.984375 18.0625 35.515625 20.015625 
Q 33.0625 21.96875 24.703125 23.78125 
L 21.578125 24.515625 
Q 13.234375 26.265625 9.515625 29.90625 
Q 5.8125 33.546875 5.8125 39.890625 
Q 5.8125 47.609375 11.28125 51.796875 
Q 16.75 56 26.8125 56 
Q 31.78125 56 36.171875 55.265625 
Q 40.578125 54.546875 44.28125 53.078125 
z
" id="DejaVuSans-115"/>
       <path d="M 18.3125 70.21875 
L 18.3125 54.6875 
L 36.8125 54.6875 
L 36.8125 47.703125 
L 18.3125 47.703125 
L 18.3125 18.015625 
Q 18.3125 11.328125 20.140625 9.421875 
Q 21.96875 7.515625 27.59375 7.515625 
L 36.8125 7.515625 
L 36.8125 0 
L 27.59375 0 
Q 17.1875 0 13.234375 3.875 
Q 9.28125 7.765625 9.28125 18.015625 
L 9.28125 47.703125 
L 2.6875 47.703125 
L 2.6875 54.6875 
L 9.28125 54.6875 
L 9.28125 70.21875 
z
" id="DejaVuSans-116"/>
      </defs>
      <use xlink:href="#DejaVuSans-76"/>
      <use x="46.587891" xlink:href="#DejaVuSans-87"/>
      <use x="140.964844" xlink:href="#DejaVuSans-114"/>
      <use x="182.078125" xlink:href="#DejaVuSans-105"/>
      <use x="209.861328" xlink:href="#DejaVuSans-115"/>
      <use x="261.960938" xlink:href="#DejaVuSans-116"/>
     </g>
    </g>
   </g>
   <g id="text_9">
    <g clip-path="url(#pbb8aded948)">
     <!-- LHand -->
     <g transform="translate(336.412198 305.631634)scale(0.1 -0.1)">
      <use xlink:href="#DejaVuSans-76"/>
      <use x="55.712891" xlink:href="#DejaVuSans-72"/>
      <use x="130.908203" xlink:href="#DejaVuSans-97"/>
      <use x="192.1875" xlink:href="#DejaVuSans-110"/>
      <use x="255.566406" xlink:href="#DejaVuSans-100"/>
     </g>
    </g>
   </g>
   <g id="text_10">
    <g clip-path="url(#pbb8aded948)">
     <!-- RShoulder -->
     <g transform="translate(436.734645 144.836279)scale(0.1 -0.1)">
      <defs>
       <path d="M 44.390625 34.1875 
Q 47.5625 33.109375 50.5625 29.59375 
Q 53.5625 26.078125 56.59375 19.921875 
L 66.609375 0 
L 56 0 
L 46.6875 18.703125 
Q 43.0625 26.03125 39.671875 28.421875 
Q 36.28125 30.8125 30.421875 30.8125 
L 19.671875 30.8125 
L 19.671875 0 
L 9.8125 0 
L 9.8125 72.90625 
L 32.078125 72.90625 
Q 44.578125 72.90625 50.734375 67.671875 
Q 56.890625 62.453125 56.890625 51.90625 
Q 56.890625 45.015625 53.6875 40.46875 
Q 50.484375 35.9375 44.390625 34.1875 
z
M 19.671875 64.796875 
L 19.671875 38.921875 
L 32.078125 38.921875 
Q 39.203125 38.921875 42.84375 42.21875 
Q 46.484375 45.515625 46.484375 51.90625 
Q 46.484375 58.296875 42.84375 61.546875 
Q 39.203125 64.796875 32.078125 64.796875 
z
" id="DejaVuSans-82"/>
      </defs>
      <use xlink:href="#DejaVuSans-82"/>
      <use x="69.482422" xlink:href="#DejaVuSans-83"/>
      <use x="132.958984" xlink:href="#DejaVuSans-104"/>
      <use x="196.337891" xlink:href="#DejaVuSans-111"/>
      <use x="257.519531" xlink:href="#DejaVuSans-117"/>
      <use x="320.898438" xlink:href="#DejaVuSans-108"/>
      <use x="348.681641" xlink:href="#DejaVuSans-100"/>
      <use x="412.158203" xlink:href="#DejaVuSans-101"/>
      <use x="473.681641" xlink:href="#DejaVuSans-114"/>
     </g>
    </g>
   </g>
   <g id="text_11">
    <g clip-path="url(#pbb8aded948)">
     <!-- RElbow -->
     <g transform="translate(507.671216 249.518706)scale(0.1 -0.1)">
      <use xlink:href="#DejaVuSans-82"/>
      <use x="69.482422" xlink:href="#DejaVuSans-69"/>
      <use x="132.666016" xlink:href="#DejaVuSans-108"/>
      <use x="160.449219" xlink:href="#DejaVuSans-98"/>
      <use x="223.925781" xlink:href="#DejaVuSans-111"/>
      <use x="285.107422" xlink:href="#DejaVuSans-119"/>
     </g>
    </g>
   </g>
   <g id="text_12">
    <g clip-path="url(#pbb8aded948)">
     <!-- RWrist -->
     <g transform="translate(357.069854 298.958195)scale(0.1 -0.1)">
      <use xlink:href="#DejaVuSans-82"/>
      <use x="65.482422" xlink:href="#DejaVuSans-87"/>
      <use x="159.859375" xlink:href="#DejaVuSans-114"/>
      <use x="200.972656" xlink:href="#DejaVuSans-105"/>
      <use x="228.755859" xlink:href="#DejaVuSans-115"/>
      <use x="280.855469" xlink:href="#DejaVuSans-116"/>
     </g>
    </g>
   </g>
   <g id="text_13">
    <g clip-path="url(#pbb8aded948)">
     <!-- RHand -->
     <g transform="translate(318.229802 304.708645)scale(0.1 -0.1)">
      <use xlink:href="#DejaVuSans-82"/>
      <use x="69.482422" xlink:href="#DejaVuSans-72"/>
      <use x="144.677734" xlink:href="#DejaVuSans-97"/>
      <use x="205.957031" xlink:href="#DejaVuSans-110"/>
      <use x="269.335938" xlink:href="#DejaVuSans-100"/>
     </g>
    </g>
   </g>
   <g id="text_14">
    <g clip-path="url(#pbb8aded948)">
     <!-- LHip -->
     <g transform="translate(198.999037 350.975234)scale(0.1 -0.1)">
      <use xlink:href="#DejaVuSans-76"/>
      <use x="55.712891" xlink:href="#DejaVuSans-72"/>
      <use x="130.908203" xlink:href="#DejaVuSans-105"/>
      <use x="158.691406" xlink:href="#DejaVuSans-112"/>
     </g>
    </g>
   </g>
   <g id="text_15">
    <g clip-path="url(#pbb8aded948)">
     <!-- LKnee -->
     <g transform="translate(143.056151 550.342941)scale(0.1 -0.1)">
      <defs>
       <path d="M 9.8125 72.90625 
L 19.671875 72.90625 
L 19.671875 42.09375 
L 52.390625 72.90625 
L 65.09375 72.90625 
L 28.90625 38.921875 
L 67.671875 0 
L 54.6875 0 
L 19.671875 35.109375 
L 19.671875 0 
L 9.8125 0 
z
" id="DejaVuSans-75"/>
      </defs>
      <use xlink:href="#DejaVuSans-76"/>
      <use x="55.712891" xlink:href="#DejaVuSans-75"/>
      <use x="121.289062" xlink:href="#DejaVuSans-110"/>
      <use x="184.667969" xlink:href="#DejaVuSans-101"/>
      <use x="246.191406" xlink:href="#DejaVuSans-101"/>
     </g>
    </g>
   </g>
   <g id="text_16">
    <g clip-path="url(#pbb8aded948)">
     <!-- LAnkle -->
     <g transform="translate(143.675769 742.286959)scale(0.1 -0.1)">
      <defs>
       <path d="M 34.1875 63.1875 
L 20.796875 26.90625 
L 47.609375 26.90625 
z
M 28.609375 72.90625 
L 39.796875 72.90625 
L 67.578125 0 
L 57.328125 0 
L 50.6875 18.703125 
L 17.828125 18.703125 
L 11.1875 0 
L 0.78125 0 
z
" id="DejaVuSans-65"/>
       <path d="M 9.078125 75.984375 
L 18.109375 75.984375 
L 18.109375 31.109375 
L 44.921875 54.6875 
L 56.390625 54.6875 
L 27.390625 29.109375 
L 57.625 0 
L 45.90625 0 
L 18.109375 26.703125 
L 18.109375 0 
L 9.078125 0 
z
" id="DejaVuSans-107"/>
      </defs>
      <use xlink:href="#DejaVuSans-76"/>
      <use x="57.962891" xlink:href="#DejaVuSans-65"/>
      <use x="126.371094" xlink:href="#DejaVuSans-110"/>
      <use x="189.75" xlink:href="#DejaVuSans-107"/>
      <use x="247.660156" xlink:href="#DejaVuSans-108"/>
      <use x="275.443359" xlink:href="#DejaVuSans-101"/>
     </g>
    </g>
   </g>
   <g id="text_17">
    <g clip-path="url(#pbb8aded948)">
     <!-- LFoot -->
     <g transform="translate(128.692635 791.784168)scale(0.1 -0.1)">
      <defs>
       <path d="M 9.8125 72.90625 
L 51.703125 72.90625 
L 51.703125 64.59375 
L 19.671875 64.59375 
L 19.671875 43.109375 
L 48.578125 43.109375 
L 48.578125 34.8125 
L 19.671875 34.8125 
L 19.671875 0 
L 9.8125 0 
z
" id="DejaVuSans-70"/>
      </defs>
      <use xlink:href="#DejaVuSans-76"/>
      <use x="55.712891" xlink:href="#DejaVuSans-70"/>
      <use x="109.607422" xlink:href="#DejaVuSans-111"/>
      <use x="170.789062" xlink:href="#DejaVuSans-111"/>
      <use x="231.970703" xlink:href="#DejaVuSans-116"/>
     </g>
    </g>
   </g>
   <g id="text_18">
    <g clip-path="url(#pbb8aded948)">
     <!-- RHip -->
     <g transform="translate(359.188365 353.071821)scale(0.1 -0.1)">
      <use xlink:href="#DejaVuSans-82"/>
      <use x="69.482422" xlink:href="#DejaVuSans-72"/>
      <use x="144.677734" xlink:href="#DejaVuSans-105"/>
      <use x="172.460938" xlink:href="#DejaVuSans-112"/>
     </g>
    </g>
   </g>
   <g id="text_19">
    <g clip-path="url(#pbb8aded948)">
     <!-- RKnee -->
     <g transform="translate(385.846697 562.322389)scale(0.1 -0.1)">
      <use xlink:href="#DejaVuSans-82"/>
      <use x="69.482422" xlink:href="#DejaVuSans-75"/>
      <use x="135.058594" xlink:href="#DejaVuSans-110"/>
      <use x="198.4375" xlink:href="#DejaVuSans-101"/>
      <use x="259.960938" xlink:href="#DejaVuSans-101"/>
     </g>
    </g>
   </g>
   <g id="text_20">
    <g clip-path="url(#pbb8aded948)">
     <!-- RAnkle -->
     <g transform="translate(374.784509 722.845937)scale(0.1 -0.1)">
      <use xlink:href="#DejaVuSans-82"/>
      <use x="65.482422" xlink:href="#DejaVuSans-65"/>
      <use x="133.890625" xlink:href="#DejaVuSans-110"/>
      <use x="197.269531" xlink:href="#DejaVuSans-107"/>
      <use x="255.179688" xlink:href="#DejaVuSans-108"/>
      <use x="282.962891" xlink:href="#DejaVuSans-101"/>
     </g>
    </g>
   </g>
   <g id="text_21">
    <g clip-path="url(#pbb8aded948)">
     <!-- RFoot -->
     <g transform="translate(390.602432 770.275734)scale(0.1 -0.1)">
      <use xlink:href="#DejaVuSans-82"/>
      <use x="69.482422" xlink:href="#DejaVuSans-70"/>
      <use x="123.376953" xlink:href="#DejaVuSans-111"/>
      <use x="184.558594" xlink:href="#DejaVuSans-111"/>
      <use x="245.740234" xlink:href="#DejaVuSans-116"/>
     </g>
    </g>
   </g>
   <g id="text_22">
    <g clip-path="url(#pbb8aded948)">
     <!-- LHandTip -->
     <g transform="translate(374.78543 308.624135)scale(0.1 -0.1)">
      <defs>
       <path d="M -0.296875 72.90625 
L 61.375 72.90625 
L 61.375 64.59375 
L 35.5 64.59375 
L 35.5 0 
L 25.59375 0 
L 25.59375 64.59375 
L -0.296875 64.59375 
z
" id="DejaVuSans-84"/>
      </defs>
      <use xlink:href="#DejaVuSans-76"/>
      <use x="55.712891" xlink:href="#DejaVuSans-72"/>
      <use x="130.908203" xlink:href="#DejaVuSans-97"/>
      <use x="192.1875" xlink:href="#DejaVuSans-110"/>
      <use x="255.566406" xlink:href="#DejaVuSans-100"/>
      <use x="319.042969" xlink:href="#DejaVuSans-84"/>
      <use x="377.001953" xlink:href="#DejaVuSans-105"/>
      <use x="404.785156" xlink:href="#DejaVuSans-112"/>
     </g>
    </g>
   </g>
   <g id="text_23">
    <g clip-path="url(#pbb8aded948)">
     <!-- LThumb -->
     <g transform="translate(311.156009 320.607256)scale(0.1 -0.1)">
      <defs>
       <path d="M 52 44.1875 
Q 55.375 50.25 60.0625 53.125 
Q 64.75 56 71.09375 56 
Q 79.640625 56 84.28125 50.015625 
Q 88.921875 44.046875 88.921875 33.015625 
L 88.921875 0 
L 79.890625 0 
L 79.890625 32.71875 
Q 79.890625 40.578125 77.09375 44.375 
Q 74.3125 48.1875 68.609375 48.1875 
Q 61.625 48.1875 57.5625 43.546875 
Q 53.515625 38.921875 53.515625 30.90625 
L 53.515625 0 
L 44.484375 0 
L 44.484375 32.71875 
Q 44.484375 40.625 41.703125 44.40625 
Q 38.921875 48.1875 33.109375 48.1875 
Q 26.21875 48.1875 22.15625 43.53125 
Q 18.109375 38.875 18.109375 30.90625 
L 18.109375 0 
L 9.078125 0 
L 9.078125 54.6875 
L 18.109375 54.6875 
L 18.109375 46.1875 
Q 21.1875 51.21875 25.484375 53.609375 
Q 29.78125 56 35.6875 56 
Q 41.65625 56 45.828125 52.96875 
Q 50 49.953125 52 44.1875 
z
" id="DejaVuSans-109"/>
      </defs>
      <use xlink:href="#DejaVuSans-76"/>
      <use x="41.962891" xlink:href="#DejaVuSans-84"/>
      <use x="103.046875" xlink:href="#DejaVuSans-104"/>
      <use x="166.425781" xlink:href="#DejaVuSans-117"/>
      <use x="229.804688" xlink:href="#DejaVuSans-109"/>
      <use x="327.216797" xlink:href="#DejaVuSans-98"/>
     </g>
    </g>
   </g>
   <g id="text_24">
    <g clip-path="url(#pbb8aded948)">
     <!-- RHandTip -->
     <g transform="translate(271.968764 317.293624)scale(0.1 -0.1)">
      <use xlink:href="#DejaVuSans-82"/>
      <use x="69.482422" xlink:href="#DejaVuSans-72"/>
      <use x="144.677734" xlink:href="#DejaVuSans-97"/>
      <use x="205.957031" xlink:href="#DejaVuSans-110"/>
      <use x="269.335938" xlink:href="#DejaVuSans-100"/>
      <use x="332.8125" xlink:href="#DejaVuSans-84"/>
      <use x="390.771484" xlink:href="#DejaVuSans-105"/>
      <use x="418.554688" xlink:href="#DejaVuSans-112"/>
     </g>
    </g>
   </g>
   <g id="text_25">
    <g clip-path="url(#pbb8aded948)">
     <!-- RThumb -->
     <g transform="translate(316.834466 320.546912)scale(0.1 -0.1)">
      <use xlink:href="#DejaVuSans-82"/>
      <use x="62.232422" xlink:href="#DejaVuSans-84"/>
      <use x="123.316406" xlink:href="#DejaVuSans-104"/>
      <use x="186.695312" xlink:href="#DejaVuSans-117"/>
      <use x="250.074219" xlink:href="#DejaVuSans-109"/>
      <use x="347.486328" xlink:href="#DejaVuSans-98"/>
     </g>
    </g>
   </g>
   <g id="text_26">
    <!-- Node Graph Visualization - Frame 0 -->
    <g transform="translate(181.829063 -6)scale(0.12 -0.12)">
     <defs>
      <path d="M 9.8125 72.90625 
L 23.09375 72.90625 
L 55.421875 11.921875 
L 55.421875 72.90625 
L 64.984375 72.90625 
L 64.984375 0 
L 51.703125 0 
L 19.390625 60.984375 
L 19.390625 0 
L 9.8125 0 
z
" id="DejaVuSans-78"/>
      <path id="DejaVuSans-32"/>
      <path d="M 59.515625 10.40625 
L 59.515625 29.984375 
L 43.40625 29.984375 
L 43.40625 38.09375 
L 69.28125 38.09375 
L 69.28125 6.78125 
Q 63.578125 2.734375 56.6875 0.65625 
Q 49.8125 -1.421875 42 -1.421875 
Q 24.90625 -1.421875 15.25 8.5625 
Q 5.609375 18.5625 5.609375 36.375 
Q 5.609375 54.25 15.25 64.234375 
Q 24.90625 74.21875 42 74.21875 
Q 49.125 74.21875 55.546875 72.453125 
Q 61.96875 70.703125 67.390625 67.28125 
L 67.390625 56.78125 
Q 61.921875 61.421875 55.765625 63.765625 
Q 49.609375 66.109375 42.828125 66.109375 
Q 29.4375 66.109375 22.71875 58.640625 
Q 16.015625 51.171875 16.015625 36.375 
Q 16.015625 21.625 22.71875 14.15625 
Q 29.4375 6.6875 42.828125 6.6875 
Q 48.046875 6.6875 52.140625 7.59375 
Q 56.25 8.5 59.515625 10.40625 
z
" id="DejaVuSans-71"/>
      <path d="M 28.609375 0 
L 0.78125 72.90625 
L 11.078125 72.90625 
L 34.1875 11.53125 
L 57.328125 72.90625 
L 67.578125 72.90625 
L 39.796875 0 
z
" id="DejaVuSans-86"/>
      <path d="M 5.515625 54.6875 
L 48.1875 54.6875 
L 48.1875 46.484375 
L 14.40625 7.171875 
L 48.1875 7.171875 
L 48.1875 0 
L 4.296875 0 
L 4.296875 8.203125 
L 38.09375 47.515625 
L 5.515625 47.515625 
z
" id="DejaVuSans-122"/>
      <path d="M 4.890625 31.390625 
L 31.203125 31.390625 
L 31.203125 23.390625 
L 4.890625 23.390625 
z
" id="DejaVuSans-45"/>
      <path d="M 31.78125 66.40625 
Q 24.171875 66.40625 20.328125 58.90625 
Q 16.5 51.421875 16.5 36.375 
Q 16.5 21.390625 20.328125 13.890625 
Q 24.171875 6.390625 31.78125 6.390625 
Q 39.453125 6.390625 43.28125 13.890625 
Q 47.125 21.390625 47.125 36.375 
Q 47.125 51.421875 43.28125 58.90625 
Q 39.453125 66.40625 31.78125 66.40625 
z
M 31.78125 74.21875 
Q 44.046875 74.21875 50.515625 64.515625 
Q 56.984375 54.828125 56.984375 36.375 
Q 56.984375 17.96875 50.515625 8.265625 
Q 44.046875 -1.421875 31.78125 -1.421875 
Q 19.53125 -1.421875 13.0625 8.265625 
Q 6.59375 17.96875 6.59375 36.375 
Q 6.59375 54.828125 13.0625 64.515625 
Q 19.53125 74.21875 31.78125 74.21875 
z
" id="DejaVuSans-48"/>
     </defs>
     <use xlink:href="#DejaVuSans-78"/>
     <use x="74.804688" xlink:href="#DejaVuSans-111"/>
     <use x="135.986328" xlink:href="#DejaVuSans-100"/>
     <use x="199.462891" xlink:href="#DejaVuSans-101"/>
     <use x="260.986328" xlink:href="#DejaVuSans-32"/>
     <use x="292.773438" xlink:href="#DejaVuSans-71"/>
     <use x="370.263672" xlink:href="#DejaVuSans-114"/>
     <use x="411.376953" xlink:href="#DejaVuSans-97"/>
     <use x="472.65625" xlink:href="#DejaVuSans-112"/>
     <use x="536.132812" xlink:href="#DejaVuSans-104"/>
     <use x="599.511719" xlink:href="#DejaVuSans-32"/>
     <use x="631.298828" xlink:href="#DejaVuSans-86"/>
     <use x="697.457031" xlink:href="#DejaVuSans-105"/>
     <use x="725.240234" xlink:href="#DejaVuSans-115"/>
     <use x="777.339844" xlink:href="#DejaVuSans-117"/>
     <use x="840.71875" xlink:href="#DejaVuSans-97"/>
     <use x="901.998047" xlink:href="#DejaVuSans-108"/>
     <use x="929.78125" xlink:href="#DejaVuSans-105"/>
     <use x="957.564453" xlink:href="#DejaVuSans-122"/>
     <use x="1010.054688" xlink:href="#DejaVuSans-97"/>
     <use x="1071.333984" xlink:href="#DejaVuSans-116"/>
     <use x="1110.542969" xlink:href="#DejaVuSans-105"/>
     <use x="1138.326172" xlink:href="#DejaVuSans-111"/>
     <use x="1199.507812" xlink:href="#DejaVuSans-110"/>
     <use x="1262.886719" xlink:href="#DejaVuSans-32"/>
     <use x="1294.673828" xlink:href="#DejaVuSans-45"/>
     <use x="1330.757812" xlink:href="#DejaVuSans-32"/>
     <use x="1362.544922" xlink:href="#DejaVuSans-70"/>
     <use x="1412.814453" xlink:href="#DejaVuSans-114"/>
     <use x="1453.927734" xlink:href="#DejaVuSans-97"/>
     <use x="1515.207031" xlink:href="#DejaVuSans-109"/>
     <use x="1612.619141" xlink:href="#DejaVuSans-101"/>
     <use x="1674.142578" xlink:href="#DejaVuSans-32"/>
     <use x="1705.929688" xlink:href="#DejaVuSans-48"/>
    </g>
   </g>
  </g>
 </g>
 <defs>
  <clipPath id="pbb8aded948">
   <rect height="864" width="576" x="0" y="0"/>
  </clipPath>
 </defs>
</svg>
