<?xml version="1.0" encoding="utf-8" standalone="no"?>
<!DOCTYPE svg PUBLIC "-//W3C//DTD SVG 1.1//EN"
  "http://www.w3.org/Graphics/SVG/1.1/DTD/svg11.dtd">
<!-- Created with matplotlib (https://matplotlib.org/) -->
<svg height="864pt" version="1.1" viewBox="0 0 576 864" width="576pt" xmlns="http://www.w3.org/2000/svg" xmlns:xlink="http://www.w3.org/1999/xlink">
 <metadata>
  <rdf:RDF xmlns:cc="http://creativecommons.org/ns#" xmlns:dc="http://purl.org/dc/elements/1.1/" xmlns:rdf="http://www.w3.org/1999/02/22-rdf-syntax-ns#">
   <cc:Work>
    <dc:type rdf:resource="http://purl.org/dc/dcmitype/StillImage"/>
    <dc:date>2024-02-04T22:28:03.683680</dc:date>
    <dc:format>image/svg+xml</dc:format>
    <dc:creator>
     <cc:Agent>
      <dc:title>Matplotlib v3.3.2, https://matplotlib.org/</dc:title>
     </cc:Agent>
    </dc:creator>
   </cc:Work>
  </rdf:RDF>
 </metadata>
 <defs>
  <style type="text/css">*{stroke-linecap:butt;stroke-linejoin:round;}</style>
 </defs>
 <g id="figure_1">
  <g id="patch_1">
   <path d="M 0 864 
L 576 864 
L 576 0 
L 0 0 
z
" style="fill:#ffffff;"/>
  </g>
  <g id="axes_1">
   <g id="patch_2">
    <path clip-path="url(#pfd9163053f)" d="M 280.400046 85.907479 
Q 270.046296 101.094809 260.322324 115.358353 
" style="fill:none;stroke:#000000;stroke-linecap:round;"/>
    <path clip-path="url(#pfd9163053f)" d="M 264.228004 113.179898 
L 260.322324 115.358353 
L 260.922968 110.926736 
L 264.228004 113.179898 
z
" style="stroke:#000000;stroke-linecap:round;"/>
   </g>
   <g id="patch_3">
    <path clip-path="url(#pfd9163053f)" d="M 252.453608 140.434851 
Q 252.523898 144.83561 252.576332 148.118477 
" style="fill:none;stroke:#000000;stroke-linecap:round;"/>
    <path clip-path="url(#pfd9163053f)" d="M 254.512196 144.087047 
L 252.576332 148.118477 
L 250.512707 144.150928 
L 254.512196 144.087047 
z
" style="stroke:#000000;stroke-linecap:round;"/>
   </g>
   <g id="patch_4">
    <path clip-path="url(#pfd9163053f)" d="M 259.695307 116.278089 
Q 270.049057 101.090759 279.773029 86.827215 
" style="fill:none;stroke:#000000;stroke-linecap:round;"/>
    <path clip-path="url(#pfd9163053f)" d="M 275.867349 89.005669 
L 279.773029 86.827215 
L 279.172385 91.258831 
L 275.867349 89.005669 
z
" style="stroke:#000000;stroke-linecap:round;"/>
   </g>
   <g id="patch_5">
    <path clip-path="url(#pfd9163053f)" d="M 252.625085 175.693087 
Q 252.068273 216.529341 251.526704 256.247664 
" style="fill:none;stroke:#000000;stroke-linecap:round;"/>
    <path clip-path="url(#pfd9163053f)" d="M 253.581054 252.275304 
L 251.526704 256.247664 
L 249.581426 252.220768 
L 253.581054 252.275304 
z
" style="stroke:#000000;stroke-linecap:round;"/>
   </g>
   <g id="patch_6">
    <path clip-path="url(#pfd9163053f)" d="M 239.615493 163.515438 
Q 196.511395 166.950853 154.521796 170.297442 
" style="fill:none;stroke:#000000;stroke-linecap:round;"/>
    <path clip-path="url(#pfd9163053f)" d="M 158.668048 171.973326 
L 154.521796 170.297442 
L 158.350254 167.98597 
L 158.668048 171.973326 
z
" style="stroke:#000000;stroke-linecap:round;"/>
   </g>
   <g id="patch_7">
    <path clip-path="url(#pfd9163053f)" d="M 265.975802 163.663918 
Q 318.489195 168.447521 369.889164 173.1297 
" style="fill:none;stroke:#000000;stroke-linecap:round;"/>
    <path clip-path="url(#pfd9163053f)" d="M 366.087092 170.775077 
L 369.889164 173.1297 
L 365.724223 174.758584 
L 366.087092 170.775077 
z
" style="stroke:#000000;stroke-linecap:round;"/>
   </g>
   <g id="patch_8">
    <path clip-path="url(#pfd9163053f)" d="M 252.59424 149.239702 
Q 252.523951 144.838943 252.471516 141.556076 
" style="fill:none;stroke:#000000;stroke-linecap:round;"/>
    <path clip-path="url(#pfd9163053f)" d="M 250.535652 145.587506 
L 252.471516 141.556076 
L 254.535142 145.523625 
L 250.535652 145.587506 
z
" style="stroke:#000000;stroke-linecap:round;"/>
   </g>
   <g id="patch_9">
    <path clip-path="url(#pfd9163053f)" d="M 250.840153 283.814328 
Q 248.599669 344.153739 246.400672 403.375886 
" style="fill:none;stroke:#000000;stroke-linecap:round;"/>
    <path clip-path="url(#pfd9163053f)" d="M 248.547717 399.452852 
L 246.400672 403.375886 
L 244.550472 399.304429 
L 248.547717 399.452852 
z
" style="stroke:#000000;stroke-linecap:round;"/>
   </g>
   <g id="patch_10">
    <path clip-path="url(#pfd9163053f)" d="M 251.511494 257.363121 
Q 252.068306 216.526868 252.609876 176.808544 
" style="fill:none;stroke:#000000;stroke-linecap:round;"/>
    <path clip-path="url(#pfd9163053f)" d="M 250.555526 180.780904 
L 252.609876 176.808544 
L 254.555154 180.83544 
L 250.555526 180.780904 
z
" style="stroke:#000000;stroke-linecap:round;"/>
   </g>
   <g id="patch_11">
    <path clip-path="url(#pfd9163053f)" d="M 232.644013 417.484284 
Q 212.525189 417.137659 193.524234 416.810293 
" style="fill:none;stroke:#000000;stroke-linecap:round;"/>
    <path clip-path="url(#pfd9163053f)" d="M 197.489188 418.878902 
L 193.524234 416.810293 
L 197.558093 414.879495 
L 197.489188 418.878902 
z
" style="stroke:#000000;stroke-linecap:round;"/>
   </g>
   <g id="patch_12">
    <path clip-path="url(#pfd9163053f)" d="M 259.07091 416.868326 
Q 270.53484 416.135646 280.883013 415.474276 
" style="fill:none;stroke:#000000;stroke-linecap:round;"/>
    <path clip-path="url(#pfd9163053f)" d="M 276.763594 413.733475 
L 280.883013 415.474276 
L 277.01872 417.725331 
L 276.763594 413.733475 
z
" style="stroke:#000000;stroke-linecap:round;"/>
   </g>
   <g id="patch_13">
    <path clip-path="url(#pfd9163053f)" d="M 246.35931 404.489813 
Q 248.599793 344.150402 250.798791 284.928255 
" style="fill:none;stroke:#000000;stroke-linecap:round;"/>
    <path clip-path="url(#pfd9163053f)" d="M 248.651745 288.851289 
L 250.798791 284.928255 
L 252.648991 288.999712 
L 248.651745 288.851289 
z
" style="stroke:#000000;stroke-linecap:round;"/>
   </g>
   <g id="patch_14">
    <path clip-path="url(#pfd9163053f)" d="M 133.249705 182.676291 
Q 103.480236 230.665647 74.300133 277.704925 
" style="fill:none;stroke:#000000;stroke-linecap:round;"/>
    <path clip-path="url(#pfd9163053f)" d="M 78.108264 275.360115 
L 74.300133 277.704925 
L 74.709163 273.251534 
L 78.108264 275.360115 
z
" style="stroke:#000000;stroke-linecap:round;"/>
   </g>
   <g id="patch_15">
    <path clip-path="url(#pfd9163053f)" d="M 153.411698 170.385917 
Q 196.515797 166.950502 238.505396 163.603913 
" style="fill:none;stroke:#000000;stroke-linecap:round;"/>
    <path clip-path="url(#pfd9163053f)" d="M 234.359143 161.928029 
L 238.505396 163.603913 
L 234.676937 165.915385 
L 234.359143 161.928029 
z
" style="stroke:#000000;stroke-linecap:round;"/>
   </g>
   <g id="patch_16">
    <path clip-path="url(#pfd9163053f)" d="M 64.911581 302.992943 
Q 58.361171 349.956419 51.965208 395.812581 
" style="fill:none;stroke:#000000;stroke-linecap:round;"/>
    <path clip-path="url(#pfd9163053f)" d="M 54.4986 392.127214 
L 51.965208 395.812581 
L 50.53695 391.574648 
L 54.4986 392.127214 
z
" style="stroke:#000000;stroke-linecap:round;"/>
   </g>
   <g id="patch_17">
    <path clip-path="url(#pfd9163053f)" d="M 73.710564 278.655329 
Q 103.480034 230.665973 132.660137 183.626694 
" style="fill:none;stroke:#000000;stroke-linecap:round;"/>
    <path clip-path="url(#pfd9163053f)" d="M 128.852006 185.971505 
L 132.660137 183.626694 
L 132.251107 188.080085 
L 128.852006 185.971505 
z
" style="stroke:#000000;stroke-linecap:round;"/>
   </g>
   <g id="patch_18">
    <path clip-path="url(#pfd9163053f)" d="M 53.824856 422.675618 
Q 55.177643 427.132176 56.205683 430.518902 
" style="fill:none;stroke:#000000;stroke-linecap:round;"/>
    <path clip-path="url(#pfd9163053f)" d="M 56.957605 426.110431 
L 56.205683 430.518902 
L 53.13006 427.272282 
L 56.957605 426.110431 
z
" style="stroke:#000000;stroke-linecap:round;"/>
   </g>
   <g id="patch_19">
    <path clip-path="url(#pfd9163053f)" d="M 51.810432 396.922254 
Q 58.360842 349.958778 64.756805 304.102616 
" style="fill:none;stroke:#000000;stroke-linecap:round;"/>
    <path clip-path="url(#pfd9163053f)" d="M 62.223414 307.787983 
L 64.756805 304.102616 
L 66.185064 308.340549 
L 62.223414 307.787983 
z
" style="stroke:#000000;stroke-linecap:round;"/>
   </g>
   <g id="patch_20">
    <path clip-path="url(#pfd9163053f)" d="M 59.836651 457.463316 
Q 59.544503 464.668247 59.297652 470.756063 
" style="fill:none;stroke:#000000;stroke-linecap:round;"/>
    <path clip-path="url(#pfd9163053f)" d="M 61.45807 466.840377 
L 59.297652 470.756063 
L 57.461355 466.678317 
L 61.45807 466.840377 
z
" style="stroke:#000000;stroke-linecap:round;"/>
   </g>
   <g id="patch_21">
    <path clip-path="url(#pfd9163053f)" d="M 73.593517 443.764065 
Q 75.205377 443.705291 75.699946 443.687257 
" style="fill:none;stroke:#000000;stroke-linecap:round;"/>
    <path clip-path="url(#pfd9163053f)" d="M 71.629724 441.834343 
L 75.699946 443.687257 
L 71.775481 445.831686 
L 71.629724 441.834343 
z
" style="stroke:#000000;stroke-linecap:round;"/>
   </g>
   <g id="patch_22">
    <path clip-path="url(#pfd9163053f)" d="M 56.5312 431.59127 
Q 55.178413 427.134712 54.150373 423.747986 
" style="fill:none;stroke:#000000;stroke-linecap:round;"/>
    <path clip-path="url(#pfd9163053f)" d="M 53.398451 428.156457 
L 54.150373 423.747986 
L 57.225996 426.994606 
L 53.398451 428.156457 
z
" style="stroke:#000000;stroke-linecap:round;"/>
   </g>
   <g id="patch_23">
    <path clip-path="url(#pfd9163053f)" d="M 389.992911 186.312588 
Q 409.235108 225.642549 427.98596 263.968229 
" style="fill:none;stroke:#000000;stroke-linecap:round;"/>
    <path clip-path="url(#pfd9163053f)" d="M 428.024584 259.49626 
L 427.98596 263.968229 
L 424.431559 261.254149 
L 428.024584 259.49626 
z
" style="stroke:#000000;stroke-linecap:round;"/>
   </g>
   <g id="patch_24">
    <path clip-path="url(#pfd9163053f)" d="M 371.009748 173.231777 
Q 318.496355 168.448174 267.096386 163.765995 
" style="fill:none;stroke:#000000;stroke-linecap:round;"/>
    <path clip-path="url(#pfd9163053f)" d="M 270.898458 166.120618 
L 267.096386 163.765995 
L 271.261328 162.137111 
L 270.898458 166.120618 
z
" style="stroke:#000000;stroke-linecap:round;"/>
   </g>
   <g id="patch_25">
    <path clip-path="url(#pfd9163053f)" d="M 439.55964 288.989416 
Q 456.224705 327.370873 472.444487 364.726794 
" style="fill:none;stroke:#000000;stroke-linecap:round;"/>
    <path clip-path="url(#pfd9163053f)" d="M 472.685928 360.261181 
L 472.444487 364.726794 
L 469.01686 361.854274 
L 472.685928 360.261181 
z
" style="stroke:#000000;stroke-linecap:round;"/>
   </g>
   <g id="patch_26">
    <path clip-path="url(#pfd9163053f)" d="M 428.47898 264.975935 
Q 409.236783 225.645974 390.485931 187.320294 
" style="fill:none;stroke:#000000;stroke-linecap:round;"/>
    <path clip-path="url(#pfd9163053f)" d="M 390.447307 191.792263 
L 390.485931 187.320294 
L 394.040332 190.034374 
L 390.447307 191.792263 
z
" style="stroke:#000000;stroke-linecap:round;"/>
   </g>
   <g id="patch_27">
    <path clip-path="url(#pfd9163053f)" d="M 484.831787 389.307937 
Q 487.47749 393.835927 489.559151 397.398589 
" style="fill:none;stroke:#000000;stroke-linecap:round;"/>
    <path clip-path="url(#pfd9163053f)" d="M 489.268009 392.93594 
L 489.559151 397.398589 
L 485.814347 394.953913 
L 489.268009 392.93594 
z
" style="stroke:#000000;stroke-linecap:round;"/>
   </g>
   <g id="patch_28">
    <path clip-path="url(#pfd9163053f)" d="M 472.890912 365.754958 
Q 456.225846 327.373501 440.006064 290.017579 
" style="fill:none;stroke:#000000;stroke-linecap:round;"/>
    <path clip-path="url(#pfd9163053f)" d="M 439.764624 294.483193 
L 440.006064 290.017579 
L 443.433691 292.8901 
L 439.764624 294.483193 
z
" style="stroke:#000000;stroke-linecap:round;"/>
   </g>
   <g id="patch_29">
    <path clip-path="url(#pfd9163053f)" d="M 494.538814 410.836406 
Q 497.313915 418.675032 499.715892 425.459724 
" style="fill:none;stroke:#000000;stroke-linecap:round;"/>
    <path clip-path="url(#pfd9163053f)" d="M 500.266301 421.021588 
L 499.715892 425.459724 
L 496.495629 422.356515 
L 500.266301 421.021588 
z
" style="stroke:#000000;stroke-linecap:round;"/>
   </g>
   <g id="patch_30">
    <path clip-path="url(#pfd9163053f)" d="M 503.350973 398.220239 
Q 508.069736 398.168984 511.670531 398.129873 
" style="fill:none;stroke:#000000;stroke-linecap:round;"/>
    <path clip-path="url(#pfd9163053f)" d="M 507.649044 396.173436 
L 511.670531 398.129873 
L 507.692489 400.1732 
L 507.649044 396.173436 
z
" style="stroke:#000000;stroke-linecap:round;"/>
   </g>
   <g id="patch_31">
    <path clip-path="url(#pfd9163053f)" d="M 483.450151 386.943334 
Q 480.804449 382.415344 478.722787 378.852682 
" style="fill:none;stroke:#000000;stroke-linecap:round;"/>
    <path clip-path="url(#pfd9163053f)" d="M 479.013929 383.315331 
L 478.722787 378.852682 
L 482.467592 381.297358 
L 479.013929 383.315331 
z
" style="stroke:#000000;stroke-linecap:round;"/>
   </g>
   <g id="patch_32">
    <path clip-path="url(#pfd9163053f)" d="M 177.445486 429.682209 
Q 168.971343 493.743213 160.643819 556.695838 
" style="fill:none;stroke:#000000;stroke-linecap:round;"/>
    <path clip-path="url(#pfd9163053f)" d="M 163.151107 552.992663 
L 160.643819 556.695838 
L 159.185652 552.468103 
L 163.151107 552.992663 
z
" style="stroke:#000000;stroke-linecap:round;"/>
   </g>
   <g id="patch_33">
    <path clip-path="url(#pfd9163053f)" d="M 192.405238 416.791014 
Q 212.524062 417.137639 231.525017 417.465005 
" style="fill:none;stroke:#000000;stroke-linecap:round;"/>
    <path clip-path="url(#pfd9163053f)" d="M 227.560063 415.396397 
L 231.525017 417.465005 
L 227.491158 419.395803 
L 227.560063 415.396397 
z
" style="stroke:#000000;stroke-linecap:round;"/>
   </g>
   <g id="patch_34">
    <path clip-path="url(#pfd9163053f)" d="M 159.977822 584.095702 
Q 167.111506 661.411917 174.142469 737.614826 
" style="fill:none;stroke:#000000;stroke-linecap:round;"/>
    <path clip-path="url(#pfd9163053f)" d="M 175.766506 733.447992 
L 174.142469 737.614826 
L 171.783424 733.815496 
L 175.766506 733.447992 
z
" style="stroke:#000000;stroke-linecap:round;"/>
   </g>
   <g id="patch_35">
    <path clip-path="url(#pfd9163053f)" d="M 160.497592 557.801254 
Q 168.971735 493.74025 177.299259 430.787624 
" style="fill:none;stroke:#000000;stroke-linecap:round;"/>
    <path clip-path="url(#pfd9163053f)" d="M 174.791971 434.4908 
L 177.299259 430.787624 
L 178.757426 435.01536 
L 174.791971 434.4908 
z
" style="stroke:#000000;stroke-linecap:round;"/>
   </g>
   <g id="patch_36">
    <path clip-path="url(#pfd9163053f)" d="M 176.538768 765.084406 
Q 176.978645 770.463103 177.327392 774.727486 
" style="fill:none;stroke:#000000;stroke-linecap:round;"/>
    <path clip-path="url(#pfd9163053f)" d="M 178.9947 770.577777 
L 177.327392 774.727486 
L 175.00801 770.903813 
L 178.9947 770.577777 
z
" style="stroke:#000000;stroke-linecap:round;"/>
   </g>
   <g id="patch_37">
    <path clip-path="url(#pfd9163053f)" d="M 174.245049 738.7266 
Q 167.111365 661.410386 160.080401 585.207476 
" style="fill:none;stroke:#000000;stroke-linecap:round;"/>
    <path clip-path="url(#pfd9163053f)" d="M 158.456365 589.37431 
L 160.080401 585.207476 
L 162.439447 589.006806 
L 158.456365 589.37431 
z
" style="stroke:#000000;stroke-linecap:round;"/>
   </g>
   <g id="patch_38">
    <path clip-path="url(#pfd9163053f)" d="M 177.418571 775.8424 
Q 176.978694 770.463703 176.629947 766.19932 
" style="fill:none;stroke:#000000;stroke-linecap:round;"/>
    <path clip-path="url(#pfd9163053f)" d="M 174.962639 770.349029 
L 176.629947 766.19932 
L 178.949329 770.022992 
L 174.962639 770.349029 
z
" style="stroke:#000000;stroke-linecap:round;"/>
   </g>
   <g id="patch_39">
    <path clip-path="url(#pfd9163053f)" d="M 296.980416 427.664931 
Q 305.147346 487.715741 313.163611 546.658715 
" style="fill:none;stroke:#000000;stroke-linecap:round;"/>
    <path clip-path="url(#pfd9163053f)" d="M 314.606328 542.425682 
L 313.163611 546.658715 
L 310.642815 542.964721 
L 314.606328 542.425682 
z
" style="stroke:#000000;stroke-linecap:round;"/>
   </g>
   <g id="patch_40">
    <path clip-path="url(#pfd9163053f)" d="M 281.995494 415.403176 
Q 270.531564 416.135856 260.183391 416.797226 
" style="fill:none;stroke:#000000;stroke-linecap:round;"/>
    <path clip-path="url(#pfd9163053f)" d="M 264.30281 418.538027 
L 260.183391 416.797226 
L 264.047683 414.546171 
L 264.30281 418.538027 
z
" style="stroke:#000000;stroke-linecap:round;"/>
   </g>
   <g id="patch_41">
    <path clip-path="url(#pfd9163053f)" d="M 312.642259 573.876792 
Q 305.421157 612.112541 298.407537 649.249677 
" style="fill:none;stroke:#000000;stroke-linecap:round;"/>
    <path clip-path="url(#pfd9163053f)" d="M 301.115104 645.690311 
L 298.407537 649.249677 
L 297.184585 644.948004 
L 301.115104 645.690311 
z
" style="stroke:#000000;stroke-linecap:round;"/>
   </g>
   <g id="patch_42">
    <path clip-path="url(#pfd9163053f)" d="M 313.314969 547.77164 
Q 305.148038 487.72083 297.131774 428.777855 
" style="fill:none;stroke:#000000;stroke-linecap:round;"/>
    <path clip-path="url(#pfd9163053f)" d="M 295.689056 433.010888 
L 297.131774 428.777855 
L 299.65257 432.471849 
L 295.689056 433.010888 
z
" style="stroke:#000000;stroke-linecap:round;"/>
   </g>
   <g id="patch_43">
    <path clip-path="url(#pfd9163053f)" d="M 285.274734 671.429903 
Q 266.281648 686.090655 248.173601 700.068247 
" style="fill:none;stroke:#000000;stroke-linecap:round;"/>
    <path clip-path="url(#pfd9163053f)" d="M 252.562083 699.207302 
L 248.173601 700.068247 
L 250.117935 696.040894 
L 252.562083 699.207302 
z
" style="stroke:#000000;stroke-linecap:round;"/>
   </g>
   <g id="patch_44">
    <path clip-path="url(#pfd9163053f)" d="M 298.200049 650.348328 
Q 305.42115 612.112579 312.434771 574.975443 
" style="fill:none;stroke:#000000;stroke-linecap:round;"/>
    <path clip-path="url(#pfd9163053f)" d="M 309.727204 578.534808 
L 312.434771 574.975443 
L 313.657723 579.277116 
L 309.727204 578.534808 
z
" style="stroke:#000000;stroke-linecap:round;"/>
   </g>
   <g id="patch_45">
    <path clip-path="url(#pfd9163053f)" d="M 247.285475 700.753791 
Q 266.27856 686.093039 284.386607 672.115447 
" style="fill:none;stroke:#000000;stroke-linecap:round;"/>
    <path clip-path="url(#pfd9163053f)" d="M 279.998125 672.976392 
L 284.386607 672.115447 
L 282.442274 676.1428 
L 279.998125 672.976392 
z
" style="stroke:#000000;stroke-linecap:round;"/>
   </g>
   <g id="patch_46">
    <path clip-path="url(#pfd9163053f)" d="M 59.2524 471.872075 
Q 59.544548 464.667144 59.791398 458.579329 
" style="fill:none;stroke:#000000;stroke-linecap:round;"/>
    <path clip-path="url(#pfd9163053f)" d="M 57.63098 462.495015 
L 59.791398 458.579329 
L 61.627696 462.657075 
L 57.63098 462.495015 
z
" style="stroke:#000000;stroke-linecap:round;"/>
   </g>
   <g id="patch_47">
    <path clip-path="url(#pfd9163053f)" d="M 76.816368 443.646549 
Q 75.204508 443.705323 74.709939 443.723356 
" style="fill:none;stroke:#000000;stroke-linecap:round;"/>
    <path clip-path="url(#pfd9163053f)" d="M 78.780161 445.576271 
L 74.709939 443.723356 
L 78.634404 441.578927 
L 78.780161 445.576271 
z
" style="stroke:#000000;stroke-linecap:round;"/>
   </g>
   <g id="patch_48">
    <path clip-path="url(#pfd9163053f)" d="M 500.087525 426.509448 
Q 497.312424 418.670821 494.910447 411.886129 
" style="fill:none;stroke:#000000;stroke-linecap:round;"/>
    <path clip-path="url(#pfd9163053f)" d="M 494.360038 416.324265 
L 494.910447 411.886129 
L 498.13071 414.989338 
L 494.360038 416.324265 
z
" style="stroke:#000000;stroke-linecap:round;"/>
   </g>
   <g id="patch_49">
    <path clip-path="url(#pfd9163053f)" d="M 512.788748 398.117727 
Q 508.069985 398.168982 504.46919 398.208093 
" style="fill:none;stroke:#000000;stroke-linecap:round;"/>
    <path clip-path="url(#pfd9163053f)" d="M 508.490676 400.16453 
L 504.46919 398.208093 
L 508.447232 396.164766 
L 508.490676 400.16453 
z
" style="stroke:#000000;stroke-linecap:round;"/>
   </g>
   <g id="PathCollection_1">
    <defs>
     <path d="M 0 13.228757 
C 3.508307 13.228757 6.873396 11.834891 9.354143 9.354143 
C 11.834891 6.873396 13.228757 3.508307 13.228757 0 
C 13.228757 -3.508307 11.834891 -6.873396 9.354143 -9.354143 
C 6.873396 -11.834891 3.508307 -13.228757 0 -13.228757 
C -3.508307 -13.228757 -6.873396 -11.834891 -9.354143 -9.354143 
C -11.834891 -6.873396 -13.228757 -3.508307 -13.228757 0 
C -13.228757 3.508307 -11.834891 6.873396 -9.354143 9.354143 
C -6.873396 11.834891 -3.508307 13.228757 0 13.228757 
z
" id="m7e550f2bc8" style="stroke:#87ceeb;"/>
    </defs>
    <g clip-path="url(#pfd9163053f)">
     <use style="fill:#87ceeb;stroke:#87ceeb;" x="287.852969" xlink:href="#m7e550f2bc8" y="74.975207"/>
     <use style="fill:#87ceeb;stroke:#87ceeb;" x="252.242384" xlink:href="#m7e550f2bc8" y="127.210361"/>
     <use style="fill:#87ceeb;stroke:#87ceeb;" x="252.805464" xlink:href="#m7e550f2bc8" y="162.464192"/>
     <use style="fill:#87ceeb;stroke:#87ceeb;" x="251.331115" xlink:href="#m7e550f2bc8" y="270.592016"/>
     <use style="fill:#87ceeb;stroke:#87ceeb;" x="245.868348" xlink:href="#m7e550f2bc8" y="417.712125"/>
     <use style="fill:#87ceeb;stroke:#87ceeb;" x="140.221727" xlink:href="#m7e550f2bc8" y="171.437163"/>
     <use style="fill:#87ceeb;stroke:#87ceeb;" x="66.738542" xlink:href="#m7e550f2bc8" y="289.894456"/>
     <use style="fill:#87ceeb;stroke:#87ceeb;" x="49.983471" xlink:href="#m7e550f2bc8" y="410.020741"/>
     <use style="fill:#87ceeb;stroke:#87ceeb;" x="60.372585" xlink:href="#m7e550f2bc8" y="444.246147"/>
     <use style="fill:#87ceeb;stroke:#87ceeb;" x="384.180086" xlink:href="#m7e550f2bc8" y="174.431503"/>
     <use style="fill:#87ceeb;stroke:#87ceeb;" x="434.291805" xlink:href="#m7e550f2bc8" y="276.85702"/>
     <use style="fill:#87ceeb;stroke:#87ceeb;" x="478.158746" xlink:href="#m7e550f2bc8" y="377.887354"/>
     <use style="fill:#87ceeb;stroke:#87ceeb;" x="490.123192" xlink:href="#m7e550f2bc8" y="398.363917"/>
     <use style="fill:#87ceeb;stroke:#87ceeb;" x="179.180903" xlink:href="#m7e550f2bc8" y="416.563173"/>
     <use style="fill:#87ceeb;stroke:#87ceeb;" x="158.762175" xlink:href="#m7e550f2bc8" y="570.92029"/>
     <use style="fill:#87ceeb;stroke:#87ceeb;" x="175.460696" xlink:href="#m7e550f2bc8" y="751.902012"/>
     <use style="fill:#87ceeb;stroke:#87ceeb;" x="178.496643" xlink:href="#m7e550f2bc8" y="789.024793"/>
     <use style="fill:#87ceeb;stroke:#87ceeb;" x="295.198056" xlink:href="#m7e550f2bc8" y="414.559377"/>
     <use style="fill:#87ceeb;stroke:#87ceeb;" x="315.097329" xlink:href="#m7e550f2bc8" y="560.877193"/>
     <use style="fill:#87ceeb;stroke:#87ceeb;" x="295.744979" xlink:href="#m7e550f2bc8" y="663.347926"/>
     <use style="fill:#87ceeb;stroke:#87ceeb;" x="236.815229" xlink:href="#m7e550f2bc8" y="708.835768"/>
     <use style="fill:#87ceeb;stroke:#87ceeb;" x="58.716466" xlink:href="#m7e550f2bc8" y="485.089245"/>
     <use style="fill:#87ceeb;stroke:#87ceeb;" x="90.037301" xlink:href="#m7e550f2bc8" y="443.164467"/>
     <use style="fill:#87ceeb;stroke:#87ceeb;" x="504.503147" xlink:href="#m7e550f2bc8" y="438.981937"/>
     <use style="fill:#87ceeb;stroke:#87ceeb;" x="526.016529" xlink:href="#m7e550f2bc8" y="397.97405"/>
    </g>
   </g>
   <g id="text_1">
    <g clip-path="url(#pfd9163053f)">
     <!-- Head -->
     <g transform="translate(274.777969 77.734582)scale(0.1 -0.1)">
      <defs>
       <path d="M 9.8125 72.90625 
L 19.671875 72.90625 
L 19.671875 43.015625 
L 55.515625 43.015625 
L 55.515625 72.90625 
L 65.375 72.90625 
L 65.375 0 
L 55.515625 0 
L 55.515625 34.71875 
L 19.671875 34.71875 
L 19.671875 0 
L 9.8125 0 
z
" id="DejaVuSans-72"/>
       <path d="M 56.203125 29.59375 
L 56.203125 25.203125 
L 14.890625 25.203125 
Q 15.484375 15.921875 20.484375 11.0625 
Q 25.484375 6.203125 34.421875 6.203125 
Q 39.59375 6.203125 44.453125 7.46875 
Q 49.3125 8.734375 54.109375 11.28125 
L 54.109375 2.78125 
Q 49.265625 0.734375 44.1875 -0.34375 
Q 39.109375 -1.421875 33.890625 -1.421875 
Q 20.796875 -1.421875 13.15625 6.1875 
Q 5.515625 13.8125 5.515625 26.8125 
Q 5.515625 40.234375 12.765625 48.109375 
Q 20.015625 56 32.328125 56 
Q 43.359375 56 49.78125 48.890625 
Q 56.203125 41.796875 56.203125 29.59375 
z
M 47.21875 32.234375 
Q 47.125 39.59375 43.09375 43.984375 
Q 39.0625 48.390625 32.421875 48.390625 
Q 24.90625 48.390625 20.390625 44.140625 
Q 15.875 39.890625 15.1875 32.171875 
z
" id="DejaVuSans-101"/>
       <path d="M 34.28125 27.484375 
Q 23.390625 27.484375 19.1875 25 
Q 14.984375 22.515625 14.984375 16.5 
Q 14.984375 11.71875 18.140625 8.90625 
Q 21.296875 6.109375 26.703125 6.109375 
Q 34.1875 6.109375 38.703125 11.40625 
Q 43.21875 16.703125 43.21875 25.484375 
L 43.21875 27.484375 
z
M 52.203125 31.203125 
L 52.203125 0 
L 43.21875 0 
L 43.21875 8.296875 
Q 40.140625 3.328125 35.546875 0.953125 
Q 30.953125 -1.421875 24.3125 -1.421875 
Q 15.921875 -1.421875 10.953125 3.296875 
Q 6 8.015625 6 15.921875 
Q 6 25.140625 12.171875 29.828125 
Q 18.359375 34.515625 30.609375 34.515625 
L 43.21875 34.515625 
L 43.21875 35.40625 
Q 43.21875 41.609375 39.140625 45 
Q 35.0625 48.390625 27.6875 48.390625 
Q 23 48.390625 18.546875 47.265625 
Q 14.109375 46.140625 10.015625 43.890625 
L 10.015625 52.203125 
Q 14.9375 54.109375 19.578125 55.046875 
Q 24.21875 56 28.609375 56 
Q 40.484375 56 46.34375 49.84375 
Q 52.203125 43.703125 52.203125 31.203125 
z
" id="DejaVuSans-97"/>
       <path d="M 45.40625 46.390625 
L 45.40625 75.984375 
L 54.390625 75.984375 
L 54.390625 0 
L 45.40625 0 
L 45.40625 8.203125 
Q 42.578125 3.328125 38.25 0.953125 
Q 33.9375 -1.421875 27.875 -1.421875 
Q 17.96875 -1.421875 11.734375 6.484375 
Q 5.515625 14.40625 5.515625 27.296875 
Q 5.515625 40.1875 11.734375 48.09375 
Q 17.96875 56 27.875 56 
Q 33.9375 56 38.25 53.625 
Q 42.578125 51.265625 45.40625 46.390625 
z
M 14.796875 27.296875 
Q 14.796875 17.390625 18.875 11.75 
Q 22.953125 6.109375 30.078125 6.109375 
Q 37.203125 6.109375 41.296875 11.75 
Q 45.40625 17.390625 45.40625 27.296875 
Q 45.40625 37.203125 41.296875 42.84375 
Q 37.203125 48.484375 30.078125 48.484375 
Q 22.953125 48.484375 18.875 42.84375 
Q 14.796875 37.203125 14.796875 27.296875 
z
" id="DejaVuSans-100"/>
      </defs>
      <use xlink:href="#DejaVuSans-72"/>
      <use x="75.195312" xlink:href="#DejaVuSans-101"/>
      <use x="136.71875" xlink:href="#DejaVuSans-97"/>
      <use x="197.998047" xlink:href="#DejaVuSans-100"/>
     </g>
    </g>
   </g>
   <g id="text_2">
    <g clip-path="url(#pfd9163053f)">
     <!-- c7 -->
     <g transform="translate(246.311915 129.969736)scale(0.1 -0.1)">
      <defs>
       <path d="M 48.78125 52.59375 
L 48.78125 44.1875 
Q 44.96875 46.296875 41.140625 47.34375 
Q 37.3125 48.390625 33.40625 48.390625 
Q 24.65625 48.390625 19.8125 42.84375 
Q 14.984375 37.3125 14.984375 27.296875 
Q 14.984375 17.28125 19.8125 11.734375 
Q 24.65625 6.203125 33.40625 6.203125 
Q 37.3125 6.203125 41.140625 7.25 
Q 44.96875 8.296875 48.78125 10.40625 
L 48.78125 2.09375 
Q 45.015625 0.34375 40.984375 -0.53125 
Q 36.96875 -1.421875 32.421875 -1.421875 
Q 20.0625 -1.421875 12.78125 6.34375 
Q 5.515625 14.109375 5.515625 27.296875 
Q 5.515625 40.671875 12.859375 48.328125 
Q 20.21875 56 33.015625 56 
Q 37.15625 56 41.109375 55.140625 
Q 45.0625 54.296875 48.78125 52.59375 
z
" id="DejaVuSans-99"/>
       <path d="M 8.203125 72.90625 
L 55.078125 72.90625 
L 55.078125 68.703125 
L 28.609375 0 
L 18.3125 0 
L 43.21875 64.59375 
L 8.203125 64.59375 
z
" id="DejaVuSans-55"/>
      </defs>
      <use xlink:href="#DejaVuSans-99"/>
      <use x="54.980469" xlink:href="#DejaVuSans-55"/>
     </g>
    </g>
   </g>
   <g id="text_3">
    <g clip-path="url(#pfd9163053f)">
     <!-- SpineShoulder -->
     <g transform="translate(216.556246 165.223567)scale(0.1 -0.1)">
      <defs>
       <path d="M 53.515625 70.515625 
L 53.515625 60.890625 
Q 47.90625 63.578125 42.921875 64.890625 
Q 37.9375 66.21875 33.296875 66.21875 
Q 25.25 66.21875 20.875 63.09375 
Q 16.5 59.96875 16.5 54.203125 
Q 16.5 49.359375 19.40625 46.890625 
Q 22.3125 44.4375 30.421875 42.921875 
L 36.375 41.703125 
Q 47.40625 39.59375 52.65625 34.296875 
Q 57.90625 29 57.90625 20.125 
Q 57.90625 9.515625 50.796875 4.046875 
Q 43.703125 -1.421875 29.984375 -1.421875 
Q 24.8125 -1.421875 18.96875 -0.25 
Q 13.140625 0.921875 6.890625 3.21875 
L 6.890625 13.375 
Q 12.890625 10.015625 18.65625 8.296875 
Q 24.421875 6.59375 29.984375 6.59375 
Q 38.421875 6.59375 43.015625 9.90625 
Q 47.609375 13.234375 47.609375 19.390625 
Q 47.609375 24.75 44.3125 27.78125 
Q 41.015625 30.8125 33.5 32.328125 
L 27.484375 33.5 
Q 16.453125 35.6875 11.515625 40.375 
Q 6.59375 45.0625 6.59375 53.421875 
Q 6.59375 63.09375 13.40625 68.65625 
Q 20.21875 74.21875 32.171875 74.21875 
Q 37.3125 74.21875 42.625 73.28125 
Q 47.953125 72.359375 53.515625 70.515625 
z
" id="DejaVuSans-83"/>
       <path d="M 18.109375 8.203125 
L 18.109375 -20.796875 
L 9.078125 -20.796875 
L 9.078125 54.6875 
L 18.109375 54.6875 
L 18.109375 46.390625 
Q 20.953125 51.265625 25.265625 53.625 
Q 29.59375 56 35.59375 56 
Q 45.5625 56 51.78125 48.09375 
Q 58.015625 40.1875 58.015625 27.296875 
Q 58.015625 14.40625 51.78125 6.484375 
Q 45.5625 -1.421875 35.59375 -1.421875 
Q 29.59375 -1.421875 25.265625 0.953125 
Q 20.953125 3.328125 18.109375 8.203125 
z
M 48.6875 27.296875 
Q 48.6875 37.203125 44.609375 42.84375 
Q 40.53125 48.484375 33.40625 48.484375 
Q 26.265625 48.484375 22.1875 42.84375 
Q 18.109375 37.203125 18.109375 27.296875 
Q 18.109375 17.390625 22.1875 11.75 
Q 26.265625 6.109375 33.40625 6.109375 
Q 40.53125 6.109375 44.609375 11.75 
Q 48.6875 17.390625 48.6875 27.296875 
z
" id="DejaVuSans-112"/>
       <path d="M 9.421875 54.6875 
L 18.40625 54.6875 
L 18.40625 0 
L 9.421875 0 
z
M 9.421875 75.984375 
L 18.40625 75.984375 
L 18.40625 64.59375 
L 9.421875 64.59375 
z
" id="DejaVuSans-105"/>
       <path d="M 54.890625 33.015625 
L 54.890625 0 
L 45.90625 0 
L 45.90625 32.71875 
Q 45.90625 40.484375 42.875 44.328125 
Q 39.84375 48.1875 33.796875 48.1875 
Q 26.515625 48.1875 22.3125 43.546875 
Q 18.109375 38.921875 18.109375 30.90625 
L 18.109375 0 
L 9.078125 0 
L 9.078125 54.6875 
L 18.109375 54.6875 
L 18.109375 46.1875 
Q 21.34375 51.125 25.703125 53.5625 
Q 30.078125 56 35.796875 56 
Q 45.21875 56 50.046875 50.171875 
Q 54.890625 44.34375 54.890625 33.015625 
z
" id="DejaVuSans-110"/>
       <path d="M 54.890625 33.015625 
L 54.890625 0 
L 45.90625 0 
L 45.90625 32.71875 
Q 45.90625 40.484375 42.875 44.328125 
Q 39.84375 48.1875 33.796875 48.1875 
Q 26.515625 48.1875 22.3125 43.546875 
Q 18.109375 38.921875 18.109375 30.90625 
L 18.109375 0 
L 9.078125 0 
L 9.078125 75.984375 
L 18.109375 75.984375 
L 18.109375 46.1875 
Q 21.34375 51.125 25.703125 53.5625 
Q 30.078125 56 35.796875 56 
Q 45.21875 56 50.046875 50.171875 
Q 54.890625 44.34375 54.890625 33.015625 
z
" id="DejaVuSans-104"/>
       <path d="M 30.609375 48.390625 
Q 23.390625 48.390625 19.1875 42.75 
Q 14.984375 37.109375 14.984375 27.296875 
Q 14.984375 17.484375 19.15625 11.84375 
Q 23.34375 6.203125 30.609375 6.203125 
Q 37.796875 6.203125 41.984375 11.859375 
Q 46.1875 17.53125 46.1875 27.296875 
Q 46.1875 37.015625 41.984375 42.703125 
Q 37.796875 48.390625 30.609375 48.390625 
z
M 30.609375 56 
Q 42.328125 56 49.015625 48.375 
Q 55.71875 40.765625 55.71875 27.296875 
Q 55.71875 13.875 49.015625 6.21875 
Q 42.328125 -1.421875 30.609375 -1.421875 
Q 18.84375 -1.421875 12.171875 6.21875 
Q 5.515625 13.875 5.515625 27.296875 
Q 5.515625 40.765625 12.171875 48.375 
Q 18.84375 56 30.609375 56 
z
" id="DejaVuSans-111"/>
       <path d="M 8.5 21.578125 
L 8.5 54.6875 
L 17.484375 54.6875 
L 17.484375 21.921875 
Q 17.484375 14.15625 20.5 10.265625 
Q 23.53125 6.390625 29.59375 6.390625 
Q 36.859375 6.390625 41.078125 11.03125 
Q 45.3125 15.671875 45.3125 23.6875 
L 45.3125 54.6875 
L 54.296875 54.6875 
L 54.296875 0 
L 45.3125 0 
L 45.3125 8.40625 
Q 42.046875 3.421875 37.71875 1 
Q 33.40625 -1.421875 27.6875 -1.421875 
Q 18.265625 -1.421875 13.375 4.4375 
Q 8.5 10.296875 8.5 21.578125 
z
M 31.109375 56 
z
" id="DejaVuSans-117"/>
       <path d="M 9.421875 75.984375 
L 18.40625 75.984375 
L 18.40625 0 
L 9.421875 0 
z
" id="DejaVuSans-108"/>
       <path d="M 41.109375 46.296875 
Q 39.59375 47.171875 37.8125 47.578125 
Q 36.03125 48 33.890625 48 
Q 26.265625 48 22.1875 43.046875 
Q 18.109375 38.09375 18.109375 28.8125 
L 18.109375 0 
L 9.078125 0 
L 9.078125 54.6875 
L 18.109375 54.6875 
L 18.109375 46.1875 
Q 20.953125 51.171875 25.484375 53.578125 
Q 30.03125 56 36.53125 56 
Q 37.453125 56 38.578125 55.875 
Q 39.703125 55.765625 41.0625 55.515625 
z
" id="DejaVuSans-114"/>
      </defs>
      <use xlink:href="#DejaVuSans-83"/>
      <use x="63.476562" xlink:href="#DejaVuSans-112"/>
      <use x="126.953125" xlink:href="#DejaVuSans-105"/>
      <use x="154.736328" xlink:href="#DejaVuSans-110"/>
      <use x="218.115234" xlink:href="#DejaVuSans-101"/>
      <use x="279.638672" xlink:href="#DejaVuSans-83"/>
      <use x="343.115234" xlink:href="#DejaVuSans-104"/>
      <use x="406.494141" xlink:href="#DejaVuSans-111"/>
      <use x="467.675781" xlink:href="#DejaVuSans-117"/>
      <use x="531.054688" xlink:href="#DejaVuSans-108"/>
      <use x="558.837891" xlink:href="#DejaVuSans-100"/>
      <use x="622.314453" xlink:href="#DejaVuSans-101"/>
      <use x="683.837891" xlink:href="#DejaVuSans-114"/>
     </g>
    </g>
   </g>
   <g id="text_4">
    <g clip-path="url(#pfd9163053f)">
     <!-- Spine -->
     <g transform="translate(237.348302 273.351391)scale(0.1 -0.1)">
      <use xlink:href="#DejaVuSans-83"/>
      <use x="63.476562" xlink:href="#DejaVuSans-112"/>
      <use x="126.953125" xlink:href="#DejaVuSans-105"/>
      <use x="154.736328" xlink:href="#DejaVuSans-110"/>
      <use x="218.115234" xlink:href="#DejaVuSans-101"/>
     </g>
    </g>
   </g>
   <g id="text_5">
    <g clip-path="url(#pfd9163053f)">
     <!-- Sacr -->
     <g transform="translate(234.825379 420.4715)scale(0.1 -0.1)">
      <use xlink:href="#DejaVuSans-83"/>
      <use x="63.476562" xlink:href="#DejaVuSans-97"/>
      <use x="124.755859" xlink:href="#DejaVuSans-99"/>
      <use x="179.736328" xlink:href="#DejaVuSans-114"/>
     </g>
    </g>
   </g>
   <g id="text_6">
    <g clip-path="url(#pfd9163053f)">
     <!-- LShoulder -->
     <g transform="translate(115.169384 174.196538)scale(0.1 -0.1)">
      <defs>
       <path d="M 9.8125 72.90625 
L 19.671875 72.90625 
L 19.671875 8.296875 
L 55.171875 8.296875 
L 55.171875 0 
L 9.8125 0 
z
" id="DejaVuSans-76"/>
      </defs>
      <use xlink:href="#DejaVuSans-76"/>
      <use x="55.712891" xlink:href="#DejaVuSans-83"/>
      <use x="119.189453" xlink:href="#DejaVuSans-104"/>
      <use x="182.568359" xlink:href="#DejaVuSans-111"/>
      <use x="243.75" xlink:href="#DejaVuSans-117"/>
      <use x="307.128906" xlink:href="#DejaVuSans-108"/>
      <use x="334.912109" xlink:href="#DejaVuSans-100"/>
      <use x="398.388672" xlink:href="#DejaVuSans-101"/>
      <use x="459.912109" xlink:href="#DejaVuSans-114"/>
     </g>
    </g>
   </g>
   <g id="text_7">
    <g clip-path="url(#pfd9163053f)">
     <!-- LElbow -->
     <g transform="translate(49.081511 292.653831)scale(0.1 -0.1)">
      <defs>
       <path d="M 9.8125 72.90625 
L 55.90625 72.90625 
L 55.90625 64.59375 
L 19.671875 64.59375 
L 19.671875 43.015625 
L 54.390625 43.015625 
L 54.390625 34.71875 
L 19.671875 34.71875 
L 19.671875 8.296875 
L 56.78125 8.296875 
L 56.78125 0 
L 9.8125 0 
z
" id="DejaVuSans-69"/>
       <path d="M 48.6875 27.296875 
Q 48.6875 37.203125 44.609375 42.84375 
Q 40.53125 48.484375 33.40625 48.484375 
Q 26.265625 48.484375 22.1875 42.84375 
Q 18.109375 37.203125 18.109375 27.296875 
Q 18.109375 17.390625 22.1875 11.75 
Q 26.265625 6.109375 33.40625 6.109375 
Q 40.53125 6.109375 44.609375 11.75 
Q 48.6875 17.390625 48.6875 27.296875 
z
M 18.109375 46.390625 
Q 20.953125 51.265625 25.265625 53.625 
Q 29.59375 56 35.59375 56 
Q 45.5625 56 51.78125 48.09375 
Q 58.015625 40.1875 58.015625 27.296875 
Q 58.015625 14.40625 51.78125 6.484375 
Q 45.5625 -1.421875 35.59375 -1.421875 
Q 29.59375 -1.421875 25.265625 0.953125 
Q 20.953125 3.328125 18.109375 8.203125 
L 18.109375 0 
L 9.078125 0 
L 9.078125 75.984375 
L 18.109375 75.984375 
z
" id="DejaVuSans-98"/>
       <path d="M 4.203125 54.6875 
L 13.1875 54.6875 
L 24.421875 12.015625 
L 35.59375 54.6875 
L 46.1875 54.6875 
L 57.421875 12.015625 
L 68.609375 54.6875 
L 77.59375 54.6875 
L 63.28125 0 
L 52.6875 0 
L 40.921875 44.828125 
L 29.109375 0 
L 18.5 0 
z
" id="DejaVuSans-119"/>
      </defs>
      <use xlink:href="#DejaVuSans-76"/>
      <use x="55.712891" xlink:href="#DejaVuSans-69"/>
      <use x="118.896484" xlink:href="#DejaVuSans-108"/>
      <use x="146.679688" xlink:href="#DejaVuSans-98"/>
      <use x="210.15625" xlink:href="#DejaVuSans-111"/>
      <use x="271.337891" xlink:href="#DejaVuSans-119"/>
     </g>
    </g>
   </g>
   <g id="text_8">
    <g clip-path="url(#pfd9163053f)">
     <!-- LWrist -->
     <g transform="translate(34.925659 412.780116)scale(0.1 -0.1)">
      <defs>
       <path d="M 3.328125 72.90625 
L 13.28125 72.90625 
L 28.609375 11.28125 
L 43.890625 72.90625 
L 54.984375 72.90625 
L 70.3125 11.28125 
L 85.59375 72.90625 
L 95.609375 72.90625 
L 77.296875 0 
L 64.890625 0 
L 49.515625 63.28125 
L 33.984375 0 
L 21.578125 0 
z
" id="DejaVuSans-87"/>
       <path d="M 44.28125 53.078125 
L 44.28125 44.578125 
Q 40.484375 46.53125 36.375 47.5 
Q 32.28125 48.484375 27.875 48.484375 
Q 21.1875 48.484375 17.84375 46.4375 
Q 14.5 44.390625 14.5 40.28125 
Q 14.5 37.15625 16.890625 35.375 
Q 19.28125 33.59375 26.515625 31.984375 
L 29.59375 31.296875 
Q 39.15625 29.25 43.1875 25.515625 
Q 47.21875 21.78125 47.21875 15.09375 
Q 47.21875 7.46875 41.1875 3.015625 
Q 35.15625 -1.421875 24.609375 -1.421875 
Q 20.21875 -1.421875 15.453125 -0.5625 
Q 10.6875 0.296875 5.421875 2 
L 5.421875 11.28125 
Q 10.40625 8.6875 15.234375 7.390625 
Q 20.0625 6.109375 24.8125 6.109375 
Q 31.15625 6.109375 34.5625 8.28125 
Q 37.984375 10.453125 37.984375 14.40625 
Q 37.984375 18.0625 35.515625 20.015625 
Q 33.0625 21.96875 24.703125 23.78125 
L 21.578125 24.515625 
Q 13.234375 26.265625 9.515625 29.90625 
Q 5.8125 33.546875 5.8125 39.890625 
Q 5.8125 47.609375 11.28125 51.796875 
Q 16.75 56 26.8125 56 
Q 31.78125 56 36.171875 55.265625 
Q 40.578125 54.546875 44.28125 53.078125 
z
" id="DejaVuSans-115"/>
       <path d="M 18.3125 70.21875 
L 18.3125 54.6875 
L 36.8125 54.6875 
L 36.8125 47.703125 
L 18.3125 47.703125 
L 18.3125 18.015625 
Q 18.3125 11.328125 20.140625 9.421875 
Q 21.96875 7.515625 27.59375 7.515625 
L 36.8125 7.515625 
L 36.8125 0 
L 27.59375 0 
Q 17.1875 0 13.234375 3.875 
Q 9.28125 7.765625 9.28125 18.015625 
L 9.28125 47.703125 
L 2.6875 47.703125 
L 2.6875 54.6875 
L 9.28125 54.6875 
L 9.28125 70.21875 
z
" id="DejaVuSans-116"/>
      </defs>
      <use xlink:href="#DejaVuSans-76"/>
      <use x="46.587891" xlink:href="#DejaVuSans-87"/>
      <use x="140.964844" xlink:href="#DejaVuSans-114"/>
      <use x="182.078125" xlink:href="#DejaVuSans-105"/>
      <use x="209.861328" xlink:href="#DejaVuSans-115"/>
      <use x="261.960938" xlink:href="#DejaVuSans-116"/>
     </g>
    </g>
   </g>
   <g id="text_9">
    <g clip-path="url(#pfd9163053f)">
     <!-- LHand -->
     <g transform="translate(44.41946 447.005522)scale(0.1 -0.1)">
      <use xlink:href="#DejaVuSans-76"/>
      <use x="55.712891" xlink:href="#DejaVuSans-72"/>
      <use x="130.908203" xlink:href="#DejaVuSans-97"/>
      <use x="192.1875" xlink:href="#DejaVuSans-110"/>
      <use x="255.566406" xlink:href="#DejaVuSans-100"/>
     </g>
    </g>
   </g>
   <g id="text_10">
    <g clip-path="url(#pfd9163053f)">
     <!-- RShoulder -->
     <g transform="translate(358.439461 177.190878)scale(0.1 -0.1)">
      <defs>
       <path d="M 44.390625 34.1875 
Q 47.5625 33.109375 50.5625 29.59375 
Q 53.5625 26.078125 56.59375 19.921875 
L 66.609375 0 
L 56 0 
L 46.6875 18.703125 
Q 43.0625 26.03125 39.671875 28.421875 
Q 36.28125 30.8125 30.421875 30.8125 
L 19.671875 30.8125 
L 19.671875 0 
L 9.8125 0 
L 9.8125 72.90625 
L 32.078125 72.90625 
Q 44.578125 72.90625 50.734375 67.671875 
Q 56.890625 62.453125 56.890625 51.90625 
Q 56.890625 45.015625 53.6875 40.46875 
Q 50.484375 35.9375 44.390625 34.1875 
z
M 19.671875 64.796875 
L 19.671875 38.921875 
L 32.078125 38.921875 
Q 39.203125 38.921875 42.84375 42.21875 
Q 46.484375 45.515625 46.484375 51.90625 
Q 46.484375 58.296875 42.84375 61.546875 
Q 39.203125 64.796875 32.078125 64.796875 
z
" id="DejaVuSans-82"/>
      </defs>
      <use xlink:href="#DejaVuSans-82"/>
      <use x="69.482422" xlink:href="#DejaVuSans-83"/>
      <use x="132.958984" xlink:href="#DejaVuSans-104"/>
      <use x="196.337891" xlink:href="#DejaVuSans-111"/>
      <use x="257.519531" xlink:href="#DejaVuSans-117"/>
      <use x="320.898438" xlink:href="#DejaVuSans-108"/>
      <use x="348.681641" xlink:href="#DejaVuSans-100"/>
      <use x="412.158203" xlink:href="#DejaVuSans-101"/>
      <use x="473.681641" xlink:href="#DejaVuSans-114"/>
     </g>
    </g>
   </g>
   <g id="text_11">
    <g clip-path="url(#pfd9163053f)">
     <!-- RElbow -->
     <g transform="translate(415.946493 279.616395)scale(0.1 -0.1)">
      <use xlink:href="#DejaVuSans-82"/>
      <use x="69.482422" xlink:href="#DejaVuSans-69"/>
      <use x="132.666016" xlink:href="#DejaVuSans-108"/>
      <use x="160.449219" xlink:href="#DejaVuSans-98"/>
      <use x="223.925781" xlink:href="#DejaVuSans-111"/>
      <use x="285.107422" xlink:href="#DejaVuSans-119"/>
     </g>
    </g>
   </g>
   <g id="text_12">
    <g clip-path="url(#pfd9163053f)">
     <!-- RWrist -->
     <g transform="translate(462.156403 380.646729)scale(0.1 -0.1)">
      <use xlink:href="#DejaVuSans-82"/>
      <use x="65.482422" xlink:href="#DejaVuSans-87"/>
      <use x="159.859375" xlink:href="#DejaVuSans-114"/>
      <use x="200.972656" xlink:href="#DejaVuSans-105"/>
      <use x="228.755859" xlink:href="#DejaVuSans-115"/>
      <use x="280.855469" xlink:href="#DejaVuSans-116"/>
     </g>
    </g>
   </g>
   <g id="text_13">
    <g clip-path="url(#pfd9163053f)">
     <!-- RHand -->
     <g transform="translate(473.481786 401.123292)scale(0.1 -0.1)">
      <use xlink:href="#DejaVuSans-82"/>
      <use x="69.482422" xlink:href="#DejaVuSans-72"/>
      <use x="144.677734" xlink:href="#DejaVuSans-97"/>
      <use x="205.957031" xlink:href="#DejaVuSans-110"/>
      <use x="269.335938" xlink:href="#DejaVuSans-100"/>
     </g>
    </g>
   </g>
   <g id="text_14">
    <g clip-path="url(#pfd9163053f)">
     <!-- LHip -->
     <g transform="translate(168.071528 419.322548)scale(0.1 -0.1)">
      <use xlink:href="#DejaVuSans-76"/>
      <use x="55.712891" xlink:href="#DejaVuSans-72"/>
      <use x="130.908203" xlink:href="#DejaVuSans-105"/>
      <use x="158.691406" xlink:href="#DejaVuSans-112"/>
     </g>
    </g>
   </g>
   <g id="text_15">
    <g clip-path="url(#pfd9163053f)">
     <!-- LKnee -->
     <g transform="translate(143.375456 573.679665)scale(0.1 -0.1)">
      <defs>
       <path d="M 9.8125 72.90625 
L 19.671875 72.90625 
L 19.671875 42.09375 
L 52.390625 72.90625 
L 65.09375 72.90625 
L 28.90625 38.921875 
L 67.671875 0 
L 54.6875 0 
L 19.671875 35.109375 
L 19.671875 0 
L 9.8125 0 
z
" id="DejaVuSans-75"/>
      </defs>
      <use xlink:href="#DejaVuSans-76"/>
      <use x="55.712891" xlink:href="#DejaVuSans-75"/>
      <use x="121.289062" xlink:href="#DejaVuSans-110"/>
      <use x="184.667969" xlink:href="#DejaVuSans-101"/>
      <use x="246.191406" xlink:href="#DejaVuSans-101"/>
     </g>
    </g>
   </g>
   <g id="text_16">
    <g clip-path="url(#pfd9163053f)">
     <!-- LAnkle -->
     <g transform="translate(158.612258 754.661387)scale(0.1 -0.1)">
      <defs>
       <path d="M 34.1875 63.1875 
L 20.796875 26.90625 
L 47.609375 26.90625 
z
M 28.609375 72.90625 
L 39.796875 72.90625 
L 67.578125 0 
L 57.328125 0 
L 50.6875 18.703125 
L 17.828125 18.703125 
L 11.1875 0 
L 0.78125 0 
z
" id="DejaVuSans-65"/>
       <path d="M 9.078125 75.984375 
L 18.109375 75.984375 
L 18.109375 31.109375 
L 44.921875 54.6875 
L 56.390625 54.6875 
L 27.390625 29.109375 
L 57.625 0 
L 45.90625 0 
L 18.109375 26.703125 
L 18.109375 0 
L 9.078125 0 
z
" id="DejaVuSans-107"/>
      </defs>
      <use xlink:href="#DejaVuSans-76"/>
      <use x="57.962891" xlink:href="#DejaVuSans-65"/>
      <use x="126.371094" xlink:href="#DejaVuSans-110"/>
      <use x="189.75" xlink:href="#DejaVuSans-107"/>
      <use x="247.660156" xlink:href="#DejaVuSans-108"/>
      <use x="275.443359" xlink:href="#DejaVuSans-101"/>
     </g>
    </g>
   </g>
   <g id="text_17">
    <g clip-path="url(#pfd9163053f)">
     <!-- LFoot -->
     <g transform="translate(164.937268 791.784168)scale(0.1 -0.1)">
      <defs>
       <path d="M 9.8125 72.90625 
L 51.703125 72.90625 
L 51.703125 64.59375 
L 19.671875 64.59375 
L 19.671875 43.109375 
L 48.578125 43.109375 
L 48.578125 34.8125 
L 19.671875 34.8125 
L 19.671875 0 
L 9.8125 0 
z
" id="DejaVuSans-70"/>
      </defs>
      <use xlink:href="#DejaVuSans-76"/>
      <use x="55.712891" xlink:href="#DejaVuSans-70"/>
      <use x="109.607422" xlink:href="#DejaVuSans-111"/>
      <use x="170.789062" xlink:href="#DejaVuSans-111"/>
      <use x="231.970703" xlink:href="#DejaVuSans-116"/>
     </g>
    </g>
   </g>
   <g id="text_18">
    <g clip-path="url(#pfd9163053f)">
     <!-- RHip -->
     <g transform="translate(283.4004 417.318752)scale(0.1 -0.1)">
      <use xlink:href="#DejaVuSans-82"/>
      <use x="69.482422" xlink:href="#DejaVuSans-72"/>
      <use x="144.677734" xlink:href="#DejaVuSans-105"/>
      <use x="172.460938" xlink:href="#DejaVuSans-112"/>
     </g>
    </g>
   </g>
   <g id="text_19">
    <g clip-path="url(#pfd9163053f)">
     <!-- RKnee -->
     <g transform="translate(299.022329 563.636568)scale(0.1 -0.1)">
      <use xlink:href="#DejaVuSans-82"/>
      <use x="69.482422" xlink:href="#DejaVuSans-75"/>
      <use x="135.058594" xlink:href="#DejaVuSans-110"/>
      <use x="198.4375" xlink:href="#DejaVuSans-101"/>
      <use x="259.960938" xlink:href="#DejaVuSans-101"/>
     </g>
    </g>
   </g>
   <g id="text_20">
    <g clip-path="url(#pfd9163053f)">
     <!-- RAnkle -->
     <g transform="translate(278.52076 666.107301)scale(0.1 -0.1)">
      <use xlink:href="#DejaVuSans-82"/>
      <use x="65.482422" xlink:href="#DejaVuSans-65"/>
      <use x="133.890625" xlink:href="#DejaVuSans-110"/>
      <use x="197.269531" xlink:href="#DejaVuSans-107"/>
      <use x="255.179688" xlink:href="#DejaVuSans-108"/>
      <use x="282.962891" xlink:href="#DejaVuSans-101"/>
     </g>
    </g>
   </g>
   <g id="text_21">
    <g clip-path="url(#pfd9163053f)">
     <!-- RFoot -->
     <g transform="translate(222.567573 711.595143)scale(0.1 -0.1)">
      <use xlink:href="#DejaVuSans-82"/>
      <use x="69.482422" xlink:href="#DejaVuSans-70"/>
      <use x="123.376953" xlink:href="#DejaVuSans-111"/>
      <use x="184.558594" xlink:href="#DejaVuSans-111"/>
      <use x="245.740234" xlink:href="#DejaVuSans-116"/>
     </g>
    </g>
   </g>
   <g id="text_22">
    <g clip-path="url(#pfd9163053f)">
     <!-- LHandTip -->
     <g transform="translate(35.302404 487.84862)scale(0.1 -0.1)">
      <defs>
       <path d="M -0.296875 72.90625 
L 61.375 72.90625 
L 61.375 64.59375 
L 35.5 64.59375 
L 35.5 0 
L 25.59375 0 
L 25.59375 64.59375 
L -0.296875 64.59375 
z
" id="DejaVuSans-84"/>
      </defs>
      <use xlink:href="#DejaVuSans-76"/>
      <use x="55.712891" xlink:href="#DejaVuSans-72"/>
      <use x="130.908203" xlink:href="#DejaVuSans-97"/>
      <use x="192.1875" xlink:href="#DejaVuSans-110"/>
      <use x="255.566406" xlink:href="#DejaVuSans-100"/>
      <use x="319.042969" xlink:href="#DejaVuSans-84"/>
      <use x="377.001953" xlink:href="#DejaVuSans-105"/>
      <use x="404.785156" xlink:href="#DejaVuSans-112"/>
     </g>
    </g>
   </g>
   <g id="text_23">
    <g clip-path="url(#pfd9163053f)">
     <!-- LThumb -->
     <g transform="translate(70.502926 445.923842)scale(0.1 -0.1)">
      <defs>
       <path d="M 52 44.1875 
Q 55.375 50.25 60.0625 53.125 
Q 64.75 56 71.09375 56 
Q 79.640625 56 84.28125 50.015625 
Q 88.921875 44.046875 88.921875 33.015625 
L 88.921875 0 
L 79.890625 0 
L 79.890625 32.71875 
Q 79.890625 40.578125 77.09375 44.375 
Q 74.3125 48.1875 68.609375 48.1875 
Q 61.625 48.1875 57.5625 43.546875 
Q 53.515625 38.921875 53.515625 30.90625 
L 53.515625 0 
L 44.484375 0 
L 44.484375 32.71875 
Q 44.484375 40.625 41.703125 44.40625 
Q 38.921875 48.1875 33.109375 48.1875 
Q 26.21875 48.1875 22.15625 43.53125 
Q 18.109375 38.875 18.109375 30.90625 
L 18.109375 0 
L 9.078125 0 
L 9.078125 54.6875 
L 18.109375 54.6875 
L 18.109375 46.1875 
Q 21.1875 51.21875 25.484375 53.609375 
Q 29.78125 56 35.6875 56 
Q 41.65625 56 45.828125 52.96875 
Q 50 49.953125 52 44.1875 
z
" id="DejaVuSans-109"/>
      </defs>
      <use xlink:href="#DejaVuSans-76"/>
      <use x="41.962891" xlink:href="#DejaVuSans-84"/>
      <use x="103.046875" xlink:href="#DejaVuSans-104"/>
      <use x="166.425781" xlink:href="#DejaVuSans-117"/>
      <use x="229.804688" xlink:href="#DejaVuSans-109"/>
      <use x="327.216797" xlink:href="#DejaVuSans-98"/>
     </g>
    </g>
   </g>
   <g id="text_24">
    <g clip-path="url(#pfd9163053f)">
     <!-- RHandTip -->
     <g transform="translate(480.400803 441.741312)scale(0.1 -0.1)">
      <use xlink:href="#DejaVuSans-82"/>
      <use x="69.482422" xlink:href="#DejaVuSans-72"/>
      <use x="144.677734" xlink:href="#DejaVuSans-97"/>
      <use x="205.957031" xlink:href="#DejaVuSans-110"/>
      <use x="269.335938" xlink:href="#DejaVuSans-100"/>
      <use x="332.8125" xlink:href="#DejaVuSans-84"/>
      <use x="390.771484" xlink:href="#DejaVuSans-105"/>
      <use x="418.554688" xlink:href="#DejaVuSans-112"/>
     </g>
    </g>
   </g>
   <g id="text_25">
    <g clip-path="url(#pfd9163053f)">
     <!-- RThumb -->
     <g transform="translate(505.468873 400.733425)scale(0.1 -0.1)">
      <use xlink:href="#DejaVuSans-82"/>
      <use x="62.232422" xlink:href="#DejaVuSans-84"/>
      <use x="123.316406" xlink:href="#DejaVuSans-104"/>
      <use x="186.695312" xlink:href="#DejaVuSans-117"/>
      <use x="250.074219" xlink:href="#DejaVuSans-109"/>
      <use x="347.486328" xlink:href="#DejaVuSans-98"/>
     </g>
    </g>
   </g>
   <g id="text_26">
    <!-- Node Graph Visualization - Frame 119 -->
    <g transform="translate(174.194063 -6)scale(0.12 -0.12)">
     <defs>
      <path d="M 9.8125 72.90625 
L 23.09375 72.90625 
L 55.421875 11.921875 
L 55.421875 72.90625 
L 64.984375 72.90625 
L 64.984375 0 
L 51.703125 0 
L 19.390625 60.984375 
L 19.390625 0 
L 9.8125 0 
z
" id="DejaVuSans-78"/>
      <path id="DejaVuSans-32"/>
      <path d="M 59.515625 10.40625 
L 59.515625 29.984375 
L 43.40625 29.984375 
L 43.40625 38.09375 
L 69.28125 38.09375 
L 69.28125 6.78125 
Q 63.578125 2.734375 56.6875 0.65625 
Q 49.8125 -1.421875 42 -1.421875 
Q 24.90625 -1.421875 15.25 8.5625 
Q 5.609375 18.5625 5.609375 36.375 
Q 5.609375 54.25 15.25 64.234375 
Q 24.90625 74.21875 42 74.21875 
Q 49.125 74.21875 55.546875 72.453125 
Q 61.96875 70.703125 67.390625 67.28125 
L 67.390625 56.78125 
Q 61.921875 61.421875 55.765625 63.765625 
Q 49.609375 66.109375 42.828125 66.109375 
Q 29.4375 66.109375 22.71875 58.640625 
Q 16.015625 51.171875 16.015625 36.375 
Q 16.015625 21.625 22.71875 14.15625 
Q 29.4375 6.6875 42.828125 6.6875 
Q 48.046875 6.6875 52.140625 7.59375 
Q 56.25 8.5 59.515625 10.40625 
z
" id="DejaVuSans-71"/>
      <path d="M 28.609375 0 
L 0.78125 72.90625 
L 11.078125 72.90625 
L 34.1875 11.53125 
L 57.328125 72.90625 
L 67.578125 72.90625 
L 39.796875 0 
z
" id="DejaVuSans-86"/>
      <path d="M 5.515625 54.6875 
L 48.1875 54.6875 
L 48.1875 46.484375 
L 14.40625 7.171875 
L 48.1875 7.171875 
L 48.1875 0 
L 4.296875 0 
L 4.296875 8.203125 
L 38.09375 47.515625 
L 5.515625 47.515625 
z
" id="DejaVuSans-122"/>
      <path d="M 4.890625 31.390625 
L 31.203125 31.390625 
L 31.203125 23.390625 
L 4.890625 23.390625 
z
" id="DejaVuSans-45"/>
      <path d="M 12.40625 8.296875 
L 28.515625 8.296875 
L 28.515625 63.921875 
L 10.984375 60.40625 
L 10.984375 69.390625 
L 28.421875 72.90625 
L 38.28125 72.90625 
L 38.28125 8.296875 
L 54.390625 8.296875 
L 54.390625 0 
L 12.40625 0 
z
" id="DejaVuSans-49"/>
      <path d="M 10.984375 1.515625 
L 10.984375 10.5 
Q 14.703125 8.734375 18.5 7.8125 
Q 22.3125 6.890625 25.984375 6.890625 
Q 35.75 6.890625 40.890625 13.453125 
Q 46.046875 20.015625 46.78125 33.40625 
Q 43.953125 29.203125 39.59375 26.953125 
Q 35.25 24.703125 29.984375 24.703125 
Q 19.046875 24.703125 12.671875 31.3125 
Q 6.296875 37.9375 6.296875 49.421875 
Q 6.296875 60.640625 12.9375 67.421875 
Q 19.578125 74.21875 30.609375 74.21875 
Q 43.265625 74.21875 49.921875 64.515625 
Q 56.59375 54.828125 56.59375 36.375 
Q 56.59375 19.140625 48.40625 8.859375 
Q 40.234375 -1.421875 26.421875 -1.421875 
Q 22.703125 -1.421875 18.890625 -0.6875 
Q 15.09375 0.046875 10.984375 1.515625 
z
M 30.609375 32.421875 
Q 37.25 32.421875 41.125 36.953125 
Q 45.015625 41.5 45.015625 49.421875 
Q 45.015625 57.28125 41.125 61.84375 
Q 37.25 66.40625 30.609375 66.40625 
Q 23.96875 66.40625 20.09375 61.84375 
Q 16.21875 57.28125 16.21875 49.421875 
Q 16.21875 41.5 20.09375 36.953125 
Q 23.96875 32.421875 30.609375 32.421875 
z
" id="DejaVuSans-57"/>
     </defs>
     <use xlink:href="#DejaVuSans-78"/>
     <use x="74.804688" xlink:href="#DejaVuSans-111"/>
     <use x="135.986328" xlink:href="#DejaVuSans-100"/>
     <use x="199.462891" xlink:href="#DejaVuSans-101"/>
     <use x="260.986328" xlink:href="#DejaVuSans-32"/>
     <use x="292.773438" xlink:href="#DejaVuSans-71"/>
     <use x="370.263672" xlink:href="#DejaVuSans-114"/>
     <use x="411.376953" xlink:href="#DejaVuSans-97"/>
     <use x="472.65625" xlink:href="#DejaVuSans-112"/>
     <use x="536.132812" xlink:href="#DejaVuSans-104"/>
     <use x="599.511719" xlink:href="#DejaVuSans-32"/>
     <use x="631.298828" xlink:href="#DejaVuSans-86"/>
     <use x="697.457031" xlink:href="#DejaVuSans-105"/>
     <use x="725.240234" xlink:href="#DejaVuSans-115"/>
     <use x="777.339844" xlink:href="#DejaVuSans-117"/>
     <use x="840.71875" xlink:href="#DejaVuSans-97"/>
     <use x="901.998047" xlink:href="#DejaVuSans-108"/>
     <use x="929.78125" xlink:href="#DejaVuSans-105"/>
     <use x="957.564453" xlink:href="#DejaVuSans-122"/>
     <use x="1010.054688" xlink:href="#DejaVuSans-97"/>
     <use x="1071.333984" xlink:href="#DejaVuSans-116"/>
     <use x="1110.542969" xlink:href="#DejaVuSans-105"/>
     <use x="1138.326172" xlink:href="#DejaVuSans-111"/>
     <use x="1199.507812" xlink:href="#DejaVuSans-110"/>
     <use x="1262.886719" xlink:href="#DejaVuSans-32"/>
     <use x="1294.673828" xlink:href="#DejaVuSans-45"/>
     <use x="1330.757812" xlink:href="#DejaVuSans-32"/>
     <use x="1362.544922" xlink:href="#DejaVuSans-70"/>
     <use x="1412.814453" xlink:href="#DejaVuSans-114"/>
     <use x="1453.927734" xlink:href="#DejaVuSans-97"/>
     <use x="1515.207031" xlink:href="#DejaVuSans-109"/>
     <use x="1612.619141" xlink:href="#DejaVuSans-101"/>
     <use x="1674.142578" xlink:href="#DejaVuSans-32"/>
     <use x="1705.929688" xlink:href="#DejaVuSans-49"/>
     <use x="1769.552734" xlink:href="#DejaVuSans-49"/>
     <use x="1833.175781" xlink:href="#DejaVuSans-57"/>
    </g>
   </g>
  </g>
 </g>
 <defs>
  <clipPath id="pfd9163053f">
   <rect height="864" width="576" x="0" y="0"/>
  </clipPath>
 </defs>
</svg>
