<?xml version="1.0" encoding="utf-8" standalone="no"?>
<!DOCTYPE svg PUBLIC "-//W3C//DTD SVG 1.1//EN"
  "http://www.w3.org/Graphics/SVG/1.1/DTD/svg11.dtd">
<!-- Created with matplotlib (https://matplotlib.org/) -->
<svg height="864pt" version="1.1" viewBox="0 0 576 864" width="576pt" xmlns="http://www.w3.org/2000/svg" xmlns:xlink="http://www.w3.org/1999/xlink">
 <metadata>
  <rdf:RDF xmlns:cc="http://creativecommons.org/ns#" xmlns:dc="http://purl.org/dc/elements/1.1/" xmlns:rdf="http://www.w3.org/1999/02/22-rdf-syntax-ns#">
   <cc:Work>
    <dc:type rdf:resource="http://purl.org/dc/dcmitype/StillImage"/>
    <dc:date>2024-02-04T22:28:16.640641</dc:date>
    <dc:format>image/svg+xml</dc:format>
    <dc:creator>
     <cc:Agent>
      <dc:title>Matplotlib v3.3.2, https://matplotlib.org/</dc:title>
     </cc:Agent>
    </dc:creator>
   </cc:Work>
  </rdf:RDF>
 </metadata>
 <defs>
  <style type="text/css">*{stroke-linecap:butt;stroke-linejoin:round;}</style>
 </defs>
 <g id="figure_1">
  <g id="patch_1">
   <path d="M 0 864 
L 576 864 
L 576 0 
L 0 0 
z
" style="fill:#ffffff;"/>
  </g>
  <g id="axes_1">
   <g id="patch_2">
    <path clip-path="url(#pa7567b6bc2)" d="M 329.666367 86.308046 
Q 322.448944 98.305516 315.807857 109.344949 
" style="fill:none;stroke:#000000;stroke-linecap:round;"/>
    <path clip-path="url(#pa7567b6bc2)" d="M 319.583609 106.948347 
L 315.807857 109.344949 
L 316.156026 104.886386 
L 319.583609 106.948347 
z
" style="stroke:#000000;stroke-linecap:round;"/>
   </g>
   <g id="patch_3">
    <path clip-path="url(#pa7567b6bc2)" d="M 308.963734 134.853983 
Q 309.06525 137.284135 309.120103 138.597227 
" style="fill:none;stroke:#000000;stroke-linecap:round;"/>
    <path clip-path="url(#pa7567b6bc2)" d="M 310.951411 134.517238 
L 309.120103 138.597227 
L 306.954896 134.684187 
L 310.951411 134.517238 
z
" style="stroke:#000000;stroke-linecap:round;"/>
   </g>
   <g id="patch_4">
    <path clip-path="url(#pa7567b6bc2)" d="M 315.22931 110.306663 
Q 322.446733 98.309193 329.08782 87.26976 
" style="fill:none;stroke:#000000;stroke-linecap:round;"/>
    <path clip-path="url(#pa7567b6bc2)" d="M 325.312068 89.666362 
L 329.08782 87.26976 
L 328.73965 91.728323 
L 325.312068 89.666362 
z
" style="stroke:#000000;stroke-linecap:round;"/>
   </g>
   <g id="patch_5">
    <path clip-path="url(#pa7567b6bc2)" d="M 309.881547 166.164679 
Q 310.307631 200.856777 310.719986 234.430926 
" style="fill:none;stroke:#000000;stroke-linecap:round;"/>
    <path clip-path="url(#pa7567b6bc2)" d="M 312.670711 230.406665 
L 310.719986 234.430926 
L 308.671013 230.455789 
L 312.670711 230.406665 
z
" style="stroke:#000000;stroke-linecap:round;"/>
   </g>
   <g id="patch_6">
    <path clip-path="url(#pa7567b6bc2)" d="M 296.501485 153.420042 
Q 227.143392 155.962379 158.902582 158.463761 
" style="fill:none;stroke:#000000;stroke-linecap:round;"/>
    <path clip-path="url(#pa7567b6bc2)" d="M 162.973159 160.315896 
L 158.902582 158.463761 
L 162.826636 156.31858 
L 162.973159 160.315896 
z
" style="stroke:#000000;stroke-linecap:round;"/>
   </g>
   <g id="patch_7">
    <path clip-path="url(#pa7567b6bc2)" d="M 322.892547 154.166763 
Q 399.110109 161.29018 474.214487 168.309557 
" style="fill:none;stroke:#000000;stroke-linecap:round;"/>
    <path clip-path="url(#pa7567b6bc2)" d="M 470.417956 165.946011 
L 474.214487 168.309557 
L 470.045732 169.928655 
L 470.417956 165.946011 
z
" style="stroke:#000000;stroke-linecap:round;"/>
   </g>
   <g id="patch_8">
    <path clip-path="url(#pa7567b6bc2)" d="M 309.16705 139.721068 
Q 309.065534 137.290916 309.010681 135.977824 
" style="fill:none;stroke:#000000;stroke-linecap:round;"/>
    <path clip-path="url(#pa7567b6bc2)" d="M 307.179373 140.057813 
L 309.010681 135.977824 
L 311.175887 139.890864 
L 307.179373 140.057813 
z
" style="stroke:#000000;stroke-linecap:round;"/>
   </g>
   <g id="patch_9">
    <path clip-path="url(#pa7567b6bc2)" d="M 310.753361 262.004809 
Q 310.19325 313.878667 309.645211 364.634557 
" style="fill:none;stroke:#000000;stroke-linecap:round;"/>
    <path clip-path="url(#pa7567b6bc2)" d="M 311.688282 360.656384 
L 309.645211 364.634557 
L 307.688515 360.613196 
L 311.688282 360.656384 
z
" style="stroke:#000000;stroke-linecap:round;"/>
   </g>
   <g id="patch_10">
    <path clip-path="url(#pa7567b6bc2)" d="M 310.733707 235.548148 
Q 310.307623 200.85605 309.895269 167.281901 
" style="fill:none;stroke:#000000;stroke-linecap:round;"/>
    <path clip-path="url(#pa7567b6bc2)" d="M 307.944543 171.306161 
L 309.895269 167.281901 
L 311.944242 171.257038 
L 307.944543 171.306161 
z
" style="stroke:#000000;stroke-linecap:round;"/>
   </g>
   <g id="patch_11">
    <path clip-path="url(#pa7567b6bc2)" d="M 296.259499 378.994493 
Q 269.331505 379.027128 243.521545 379.058407 
" style="fill:none;stroke:#000000;stroke-linecap:round;"/>
    <path clip-path="url(#pa7567b6bc2)" d="M 247.523966 381.053558 
L 243.521545 379.058407 
L 247.519118 377.053561 
L 247.523966 381.053558 
z
" style="stroke:#000000;stroke-linecap:round;"/>
   </g>
   <g id="patch_12">
    <path clip-path="url(#pa7567b6bc2)" d="M 322.720046 378.868244 
Q 341.432212 378.712355 359.026382 378.565781 
" style="fill:none;stroke:#000000;stroke-linecap:round;"/>
    <path clip-path="url(#pa7567b6bc2)" d="M 355.00986 376.599172 
L 359.026382 378.565781 
L 355.043182 380.599034 
L 355.00986 376.599172 
z
" style="stroke:#000000;stroke-linecap:round;"/>
   </g>
   <g id="patch_13">
    <path clip-path="url(#pa7567b6bc2)" d="M 309.633157 365.750928 
Q 310.193268 313.877069 310.741307 263.12118 
" style="fill:none;stroke:#000000;stroke-linecap:round;"/>
    <path clip-path="url(#pa7567b6bc2)" d="M 308.698236 267.099353 
L 310.741307 263.12118 
L 312.698003 267.142541 
L 308.698236 267.099353 
z
" style="stroke:#000000;stroke-linecap:round;"/>
   </g>
   <g id="patch_14">
    <path clip-path="url(#pa7567b6bc2)" d="M 134.858994 167.977531 
Q 97.273963 202.779395 60.509293 236.821646 
" style="fill:none;stroke:#000000;stroke-linecap:round;"/>
    <path clip-path="url(#pa7567b6bc2)" d="M 64.803135 235.57148 
L 60.509293 236.821646 
L 62.085465 232.636472 
L 64.803135 235.57148 
z
" style="stroke:#000000;stroke-linecap:round;"/>
   </g>
   <g id="patch_15">
    <path clip-path="url(#pa7567b6bc2)" d="M 157.783646 158.504776 
Q 227.14174 155.962439 295.38255 153.461057 
" style="fill:none;stroke:#000000;stroke-linecap:round;"/>
    <path clip-path="url(#pa7567b6bc2)" d="M 291.311973 151.608922 
L 295.38255 153.461057 
L 291.458495 155.606237 
L 291.311973 151.608922 
z
" style="stroke:#000000;stroke-linecap:round;"/>
   </g>
   <g id="patch_16">
    <path clip-path="url(#pa7567b6bc2)" d="M 61.303157 253.417811 
Q 108.068481 281.71649 153.877266 309.436347 
" style="fill:none;stroke:#000000;stroke-linecap:round;"/>
    <path clip-path="url(#pa7567b6bc2)" d="M 151.490478 305.654385 
L 153.877266 309.436347 
L 149.419623 309.076601 
L 151.490478 305.654385 
z
" style="stroke:#000000;stroke-linecap:round;"/>
   </g>
   <g id="patch_17">
    <path clip-path="url(#pa7567b6bc2)" d="M 59.690541 237.57977 
Q 97.275571 202.777906 134.040242 168.735655 
" style="fill:none;stroke:#000000;stroke-linecap:round;"/>
    <path clip-path="url(#pa7567b6bc2)" d="M 129.746399 169.985822 
L 134.040242 168.735655 
L 132.46407 172.920829 
L 129.746399 169.985822 
z
" style="stroke:#000000;stroke-linecap:round;"/>
   </g>
   <g id="patch_18">
    <path clip-path="url(#pa7567b6bc2)" d="M 179.310476 318.245298 
Q 195.187351 319.912402 209.952305 321.462752 
" style="fill:none;stroke:#000000;stroke-linecap:round;"/>
    <path clip-path="url(#pa7567b6bc2)" d="M 206.183031 319.055976 
L 209.952305 321.462752 
L 205.765319 323.034106 
L 206.183031 319.055976 
z
" style="stroke:#000000;stroke-linecap:round;"/>
   </g>
   <g id="patch_19">
    <path clip-path="url(#pa7567b6bc2)" d="M 154.831484 310.013765 
Q 108.06616 281.715086 62.257375 253.995229 
" style="fill:none;stroke:#000000;stroke-linecap:round;"/>
    <path clip-path="url(#pa7567b6bc2)" d="M 64.644163 257.777191 
L 62.257375 253.995229 
L 66.715018 254.354975 
L 64.644163 257.777191 
z
" style="stroke:#000000;stroke-linecap:round;"/>
   </g>
   <g id="patch_20">
    <path clip-path="url(#pa7567b6bc2)" d="M 236.668743 327.424858 
Q 249.135477 331.894765 260.549779 335.987327 
" style="fill:none;stroke:#000000;stroke-linecap:round;"/>
    <path clip-path="url(#pa7567b6bc2)" d="M 257.459505 332.754649 
L 260.549779 335.987327 
L 256.109473 336.519939 
L 257.459505 332.754649 
z
" style="stroke:#000000;stroke-linecap:round;"/>
   </g>
   <g id="patch_21">
    <path clip-path="url(#pa7567b6bc2)" d="M 236.447302 317.918029 
Q 247.696044 313.279713 257.911174 309.067598 
" style="fill:none;stroke:#000000;stroke-linecap:round;"/>
    <path clip-path="url(#pa7567b6bc2)" d="M 253.450802 308.743437 
L 257.911174 309.067598 
L 254.975623 312.441399 
L 253.450802 308.743437 
z
" style="stroke:#000000;stroke-linecap:round;"/>
   </g>
   <g id="patch_22">
    <path clip-path="url(#pa7567b6bc2)" d="M 211.058675 321.578924 
Q 195.1818 319.911819 180.416845 318.361469 
" style="fill:none;stroke:#000000;stroke-linecap:round;"/>
    <path clip-path="url(#pa7567b6bc2)" d="M 184.186119 320.768246 
L 180.416845 318.361469 
L 184.603831 316.790116 
L 184.186119 320.768246 
z
" style="stroke:#000000;stroke-linecap:round;"/>
   </g>
   <g id="patch_23">
    <path clip-path="url(#pa7567b6bc2)" d="M 492.559455 182.236479 
Q 507.258697 227.84015 521.614945 272.379699 
" style="fill:none;stroke:#000000;stroke-linecap:round;"/>
    <path clip-path="url(#pa7567b6bc2)" d="M 522.291372 267.959015 
L 521.614945 272.379699 
L 518.484254 269.186148 
L 522.291372 267.959015 
z
" style="stroke:#000000;stroke-linecap:round;"/>
   </g>
   <g id="patch_24">
    <path clip-path="url(#pa7567b6bc2)" d="M 475.327347 168.413567 
Q 399.109786 161.29015 324.005407 154.270773 
" style="fill:none;stroke:#000000;stroke-linecap:round;"/>
    <path clip-path="url(#pa7567b6bc2)" d="M 327.801938 156.634319 
L 324.005407 154.270773 
L 328.174163 152.651676 
L 327.801938 156.634319 
z
" style="stroke:#000000;stroke-linecap:round;"/>
   </g>
   <g id="patch_25">
    <path clip-path="url(#pa7567b6bc2)" d="M 525.080016 299.231939 
Q 522.816655 331.125318 520.632437 361.903468 
" style="fill:none;stroke:#000000;stroke-linecap:round;"/>
    <path clip-path="url(#pa7567b6bc2)" d="M 522.910574 358.05508 
L 520.632437 361.903468 
L 518.920608 357.771926 
L 522.910574 358.05508 
z
" style="stroke:#000000;stroke-linecap:round;"/>
   </g>
   <g id="patch_26">
    <path clip-path="url(#pa7567b6bc2)" d="M 521.9579 273.443698 
Q 507.258658 227.840027 492.90241 183.300477 
" style="fill:none;stroke:#000000;stroke-linecap:round;"/>
    <path clip-path="url(#pa7567b6bc2)" d="M 492.225983 187.721161 
L 492.90241 183.300477 
L 496.033101 186.494029 
L 492.225983 187.721161 
z
" style="stroke:#000000;stroke-linecap:round;"/>
   </g>
   <g id="patch_27">
    <path clip-path="url(#pa7567b6bc2)" d="M 512.829849 387.569644 
Q 510.699303 391.133315 509.142463 393.737372 
" style="fill:none;stroke:#000000;stroke-linecap:round;"/>
    <path clip-path="url(#pa7567b6bc2)" d="M 512.911631 391.330429 
L 509.142463 393.737372 
L 509.478409 389.277872 
L 512.911631 391.330429 
z
" style="stroke:#000000;stroke-linecap:round;"/>
   </g>
   <g id="patch_28">
    <path clip-path="url(#pa7567b6bc2)" d="M 520.553116 363.021196 
Q 522.816478 331.127817 525.000695 300.349667 
" style="fill:none;stroke:#000000;stroke-linecap:round;"/>
    <path clip-path="url(#pa7567b6bc2)" d="M 522.722559 304.198055 
L 525.000695 300.349667 
L 526.712524 304.481209 
L 522.722559 304.198055 
z
" style="stroke:#000000;stroke-linecap:round;"/>
   </g>
   <g id="patch_29">
    <path clip-path="url(#pa7567b6bc2)" d="M 492.095992 415.061938 
Q 484.36454 422.254964 477.451645 428.686438 
" style="fill:none;stroke:#000000;stroke-linecap:round;"/>
    <path clip-path="url(#pa7567b6bc2)" d="M 481.742515 427.426105 
L 477.451645 428.686438 
L 479.0179 424.497543 
L 481.742515 427.426105 
z
" style="stroke:#000000;stroke-linecap:round;"/>
   </g>
   <g id="patch_30">
    <path clip-path="url(#pa7567b6bc2)" d="M 488.553386 406.23218 
Q 473.362835 406.438598 459.290215 406.629824 
" style="fill:none;stroke:#000000;stroke-linecap:round;"/>
    <path clip-path="url(#pa7567b6bc2)" d="M 463.317021 408.57529 
L 459.290215 406.629824 
L 463.262672 404.575659 
L 463.317021 408.57529 
z
" style="stroke:#000000;stroke-linecap:round;"/>
   </g>
   <g id="patch_31">
    <path clip-path="url(#pa7567b6bc2)" d="M 508.566627 394.700548 
Q 510.697174 391.136877 512.254013 388.53282 
" style="fill:none;stroke:#000000;stroke-linecap:round;"/>
    <path clip-path="url(#pa7567b6bc2)" d="M 508.484845 390.939763 
L 512.254013 388.53282 
L 511.918067 392.99232 
L 508.484845 390.939763 
z
" style="stroke:#000000;stroke-linecap:round;"/>
   </g>
   <g id="patch_32">
    <path clip-path="url(#pa7567b6bc2)" d="M 224.218198 391.339401 
Q 199.893177 451.534843 175.987046 510.693689 
" style="fill:none;stroke:#000000;stroke-linecap:round;"/>
    <path clip-path="url(#pa7567b6bc2)" d="M 179.34003 507.734381 
L 175.987046 510.693689 
L 175.63139 506.235717 
L 179.34003 507.734381 
z
" style="stroke:#000000;stroke-linecap:round;"/>
   </g>
   <g id="patch_33">
    <path clip-path="url(#pa7567b6bc2)" d="M 242.404763 379.059761 
Q 269.332756 379.027126 295.142717 378.995847 
" style="fill:none;stroke:#000000;stroke-linecap:round;"/>
    <path clip-path="url(#pa7567b6bc2)" d="M 291.140296 377.000696 
L 295.142717 378.995847 
L 291.145144 381.000693 
L 291.140296 377.000696 
z
" style="stroke:#000000;stroke-linecap:round;"/>
   </g>
   <g id="patch_34">
    <path clip-path="url(#pa7567b6bc2)" d="M 173.258266 536.950021 
Q 186.412542 601.385357 199.343186 664.725253 
" style="fill:none;stroke:#000000;stroke-linecap:round;"/>
    <path clip-path="url(#pa7567b6bc2)" d="M 200.502683 660.406044 
L 199.343186 664.725253 
L 196.583517 661.20613 
L 200.502683 660.406044 
z
" style="stroke:#000000;stroke-linecap:round;"/>
   </g>
   <g id="patch_35">
    <path clip-path="url(#pa7567b6bc2)" d="M 175.568746 511.728826 
Q 199.893767 451.533384 223.799898 392.374539 
" style="fill:none;stroke:#000000;stroke-linecap:round;"/>
    <path clip-path="url(#pa7567b6bc2)" d="M 220.446915 395.333846 
L 223.799898 392.374539 
L 224.155554 396.83251 
L 220.446915 395.333846 
z
" style="stroke:#000000;stroke-linecap:round;"/>
   </g>
   <g id="patch_36">
    <path clip-path="url(#pa7567b6bc2)" d="M 200.492741 691.902243 
Q 199.590615 698.780174 198.833888 704.549567 
" style="fill:none;stroke:#000000;stroke-linecap:round;"/>
    <path clip-path="url(#pa7567b6bc2)" d="M 201.337097 700.843633 
L 198.833888 704.549567 
L 197.371067 700.323439 
L 201.337097 700.843633 
z
" style="stroke:#000000;stroke-linecap:round;"/>
   </g>
   <g id="patch_37">
    <path clip-path="url(#pa7567b6bc2)" d="M 199.56806 665.826785 
Q 186.413785 601.391448 173.483141 538.051553 
" style="fill:none;stroke:#000000;stroke-linecap:round;"/>
    <path clip-path="url(#pa7567b6bc2)" d="M 172.323643 542.370762 
L 173.483141 538.051553 
L 176.242809 541.570676 
L 172.323643 542.370762 
z
" style="stroke:#000000;stroke-linecap:round;"/>
   </g>
   <g id="patch_38">
    <path clip-path="url(#pa7567b6bc2)" d="M 198.688287 705.65965 
Q 199.590413 698.781718 200.34714 693.012326 
" style="fill:none;stroke:#000000;stroke-linecap:round;"/>
    <path clip-path="url(#pa7567b6bc2)" d="M 197.843931 696.718259 
L 200.34714 693.012326 
L 201.809961 697.238453 
L 197.843931 696.718259 
z
" style="stroke:#000000;stroke-linecap:round;"/>
   </g>
   <g id="patch_39">
    <path clip-path="url(#pa7567b6bc2)" d="M 374.695356 391.609364 
Q 382.762995 471.948174 390.718922 551.174545 
" style="fill:none;stroke:#000000;stroke-linecap:round;"/>
    <path clip-path="url(#pa7567b6bc2)" d="M 392.309242 546.994726 
L 390.718922 551.174545 
L 388.32926 547.394397 
L 392.309242 546.994726 
z
" style="stroke:#000000;stroke-linecap:round;"/>
   </g>
   <g id="patch_40">
    <path clip-path="url(#pa7567b6bc2)" d="M 360.1438 378.556472 
Q 341.431635 378.71236 323.837465 378.858935 
" style="fill:none;stroke:#000000;stroke-linecap:round;"/>
    <path clip-path="url(#pa7567b6bc2)" d="M 327.853987 380.825543 
L 323.837465 378.858935 
L 327.820665 376.825682 
L 327.853987 380.825543 
z
" style="stroke:#000000;stroke-linecap:round;"/>
   </g>
   <g id="patch_41">
    <path clip-path="url(#pa7567b6bc2)" d="M 393.587182 578.601843 
Q 402.054794 656.222335 410.40116 732.731387 
" style="fill:none;stroke:#000000;stroke-linecap:round;"/>
    <path clip-path="url(#pa7567b6bc2)" d="M 411.955579 728.538085 
L 410.40116 732.731387 
L 407.97917 728.971871 
L 411.955579 728.538085 
z
" style="stroke:#000000;stroke-linecap:round;"/>
   </g>
   <g id="patch_42">
    <path clip-path="url(#pa7567b6bc2)" d="M 390.830822 552.288868 
Q 382.763184 471.950058 374.807257 392.723687 
" style="fill:none;stroke:#000000;stroke-linecap:round;"/>
    <path clip-path="url(#pa7567b6bc2)" d="M 373.216936 396.903505 
L 374.807257 392.723687 
L 377.196919 396.503835 
L 373.216936 396.903505 
z
" style="stroke:#000000;stroke-linecap:round;"/>
   </g>
   <g id="patch_43">
    <path clip-path="url(#pa7567b6bc2)" d="M 412.999808 760.183906 
Q 413.618628 768.011996 414.149341 774.725529 
" style="fill:none;stroke:#000000;stroke-linecap:round;"/>
    <path clip-path="url(#pa7567b6bc2)" d="M 415.827899 770.580358 
L 414.149341 774.725529 
L 411.840339 770.89558 
L 415.827899 770.580358 
z
" style="stroke:#000000;stroke-linecap:round;"/>
   </g>
   <g id="patch_44">
    <path clip-path="url(#pa7567b6bc2)" d="M 410.522774 733.846188 
Q 402.055161 656.225696 393.708795 579.716644 
" style="fill:none;stroke:#000000;stroke-linecap:round;"/>
    <path clip-path="url(#pa7567b6bc2)" d="M 392.154377 583.909946 
L 393.708795 579.716644 
L 396.130786 583.47616 
L 392.154377 583.909946 
z
" style="stroke:#000000;stroke-linecap:round;"/>
   </g>
   <g id="patch_45">
    <path clip-path="url(#pa7567b6bc2)" d="M 414.2372 775.836943 
Q 413.618379 768.008853 413.087666 761.29532 
" style="fill:none;stroke:#000000;stroke-linecap:round;"/>
    <path clip-path="url(#pa7567b6bc2)" d="M 411.409108 765.440491 
L 413.087666 761.29532 
L 415.396668 765.125269 
L 411.409108 765.440491 
z
" style="stroke:#000000;stroke-linecap:round;"/>
   </g>
   <g id="patch_46">
    <path clip-path="url(#pa7567b6bc2)" d="M 261.606771 336.366308 
Q 249.140038 331.896401 237.725735 327.803839 
" style="fill:none;stroke:#000000;stroke-linecap:round;"/>
    <path clip-path="url(#pa7567b6bc2)" d="M 240.816009 331.036517 
L 237.725735 327.803839 
L 242.166042 327.271227 
L 240.816009 331.036517 
z
" style="stroke:#000000;stroke-linecap:round;"/>
   </g>
   <g id="patch_47">
    <path clip-path="url(#pa7567b6bc2)" d="M 258.945584 308.641068 
Q 247.696842 313.279384 237.481712 317.4915 
" style="fill:none;stroke:#000000;stroke-linecap:round;"/>
    <path clip-path="url(#pa7567b6bc2)" d="M 241.942084 317.81566 
L 237.481712 317.4915 
L 240.417263 314.117698 
L 241.942084 317.81566 
z
" style="stroke:#000000;stroke-linecap:round;"/>
   </g>
   <g id="patch_48">
    <path clip-path="url(#pa7567b6bc2)" d="M 476.631547 429.449424 
Q 484.362999 422.256397 491.275894 415.824924 
" style="fill:none;stroke:#000000;stroke-linecap:round;"/>
    <path clip-path="url(#pa7567b6bc2)" d="M 486.985024 417.085257 
L 491.275894 415.824924 
L 489.709639 420.013819 
L 486.985024 417.085257 
z
" style="stroke:#000000;stroke-linecap:round;"/>
   </g>
   <g id="patch_49">
    <path clip-path="url(#pa7567b6bc2)" d="M 458.173744 406.644995 
Q 473.364295 406.438578 487.436914 406.247352 
" style="fill:none;stroke:#000000;stroke-linecap:round;"/>
    <path clip-path="url(#pa7567b6bc2)" d="M 483.410109 404.301885 
L 487.436914 406.247352 
L 483.464458 408.301516 
L 483.410109 404.301885 
z
" style="stroke:#000000;stroke-linecap:round;"/>
   </g>
   <g id="PathCollection_1">
    <defs>
     <path d="M 0 13.228757 
C 3.508307 13.228757 6.873396 11.834891 9.354143 9.354143 
C 11.834891 6.873396 13.228757 3.508307 13.228757 0 
C 13.228757 -3.508307 11.834891 -6.873396 9.354143 -9.354143 
C 6.873396 -11.834891 3.508307 -13.228757 0 -13.228757 
C -3.508307 -13.228757 -6.873396 -11.834891 -9.354143 -9.354143 
C -11.834891 -6.873396 -13.228757 -3.508307 -13.228757 0 
C -13.228757 3.508307 -11.834891 6.873396 -9.354143 9.354143 
C -6.873396 11.834891 -3.508307 13.228757 0 13.228757 
z
" id="m6dd19a992f" style="stroke:#87ceeb;"/>
    </defs>
    <g clip-path="url(#pa7567b6bc2)">
     <use style="fill:#87ceeb;stroke:#87ceeb;" x="336.483961" xlink:href="#m6dd19a992f" y="74.975207"/>
     <use style="fill:#87ceeb;stroke:#87ceeb;" x="308.411716" xlink:href="#m6dd19a992f" y="121.639502"/>
     <use style="fill:#87ceeb;stroke:#87ceeb;" x="309.719068" xlink:href="#m6dd19a992f" y="152.935549"/>
     <use style="fill:#87ceeb;stroke:#87ceeb;" x="310.896186" xlink:href="#m6dd19a992f" y="248.777278"/>
     <use style="fill:#87ceeb;stroke:#87ceeb;" x="309.490332" xlink:href="#m6dd19a992f" y="378.978458"/>
     <use style="fill:#87ceeb;stroke:#87ceeb;" x="144.566063" xlink:href="#m6dd19a992f" y="158.989269"/>
     <use style="fill:#87ceeb;stroke:#87ceeb;" x="49.983471" xlink:href="#m6dd19a992f" y="246.568032"/>
     <use style="fill:#87ceeb;stroke:#87ceeb;" x="166.15117" xlink:href="#m6dd19a992f" y="316.863544"/>
     <use style="fill:#87ceeb;stroke:#87ceeb;" x="224.217981" xlink:href="#m6dd19a992f" y="322.960678"/>
     <use style="fill:#87ceeb;stroke:#87ceeb;" x="488.500826" xlink:href="#m6dd19a992f" y="169.644782"/>
     <use style="fill:#87ceeb;stroke:#87ceeb;" x="526.016529" xlink:href="#m6dd19a992f" y="286.035395"/>
     <use style="fill:#87ceeb;stroke:#87ceeb;" x="519.616603" xlink:href="#m6dd19a992f" y="376.21774"/>
     <use style="fill:#87ceeb;stroke:#87ceeb;" x="501.779873" xlink:href="#m6dd19a992f" y="406.052452"/>
     <use style="fill:#87ceeb;stroke:#87ceeb;" x="229.17393" xlink:href="#m6dd19a992f" y="379.075796"/>
     <use style="fill:#87ceeb;stroke:#87ceeb;" x="170.613014" xlink:href="#m6dd19a992f" y="523.992432"/>
     <use style="fill:#87ceeb;stroke:#87ceeb;" x="202.213312" xlink:href="#m6dd19a992f" y="678.784374"/>
     <use style="fill:#87ceeb;stroke:#87ceeb;" x="196.967716" xlink:href="#m6dd19a992f" y="718.777518"/>
     <use style="fill:#87ceeb;stroke:#87ceeb;" x="373.373515" xlink:href="#m6dd19a992f" y="378.446257"/>
     <use style="fill:#87ceeb;stroke:#87ceeb;" x="392.152664" xlink:href="#m6dd19a992f" y="565.451975"/>
     <use style="fill:#87ceeb;stroke:#87ceeb;" x="411.957292" xlink:href="#m6dd19a992f" y="746.996056"/>
     <use style="fill:#87ceeb;stroke:#87ceeb;" x="415.279716" xlink:href="#m6dd19a992f" y="789.024793"/>
     <use style="fill:#87ceeb;stroke:#87ceeb;" x="274.057533" xlink:href="#m6dd19a992f" y="340.830488"/>
     <use style="fill:#87ceeb;stroke:#87ceeb;" x="271.174905" xlink:href="#m6dd19a992f" y="303.59842"/>
     <use style="fill:#87ceeb;stroke:#87ceeb;" x="466.947666" xlink:href="#m6dd19a992f" y="438.45891"/>
     <use style="fill:#87ceeb;stroke:#87ceeb;" x="444.947257" xlink:href="#m6dd19a992f" y="406.824723"/>
    </g>
   </g>
   <g id="text_1">
    <g clip-path="url(#pa7567b6bc2)">
     <!-- Head -->
     <g transform="translate(323.408961 77.734582)scale(0.1 -0.1)">
      <defs>
       <path d="M 9.8125 72.90625 
L 19.671875 72.90625 
L 19.671875 43.015625 
L 55.515625 43.015625 
L 55.515625 72.90625 
L 65.375 72.90625 
L 65.375 0 
L 55.515625 0 
L 55.515625 34.71875 
L 19.671875 34.71875 
L 19.671875 0 
L 9.8125 0 
z
" id="DejaVuSans-72"/>
       <path d="M 56.203125 29.59375 
L 56.203125 25.203125 
L 14.890625 25.203125 
Q 15.484375 15.921875 20.484375 11.0625 
Q 25.484375 6.203125 34.421875 6.203125 
Q 39.59375 6.203125 44.453125 7.46875 
Q 49.3125 8.734375 54.109375 11.28125 
L 54.109375 2.78125 
Q 49.265625 0.734375 44.1875 -0.34375 
Q 39.109375 -1.421875 33.890625 -1.421875 
Q 20.796875 -1.421875 13.15625 6.1875 
Q 5.515625 13.8125 5.515625 26.8125 
Q 5.515625 40.234375 12.765625 48.109375 
Q 20.015625 56 32.328125 56 
Q 43.359375 56 49.78125 48.890625 
Q 56.203125 41.796875 56.203125 29.59375 
z
M 47.21875 32.234375 
Q 47.125 39.59375 43.09375 43.984375 
Q 39.0625 48.390625 32.421875 48.390625 
Q 24.90625 48.390625 20.390625 44.140625 
Q 15.875 39.890625 15.1875 32.171875 
z
" id="DejaVuSans-101"/>
       <path d="M 34.28125 27.484375 
Q 23.390625 27.484375 19.1875 25 
Q 14.984375 22.515625 14.984375 16.5 
Q 14.984375 11.71875 18.140625 8.90625 
Q 21.296875 6.109375 26.703125 6.109375 
Q 34.1875 6.109375 38.703125 11.40625 
Q 43.21875 16.703125 43.21875 25.484375 
L 43.21875 27.484375 
z
M 52.203125 31.203125 
L 52.203125 0 
L 43.21875 0 
L 43.21875 8.296875 
Q 40.140625 3.328125 35.546875 0.953125 
Q 30.953125 -1.421875 24.3125 -1.421875 
Q 15.921875 -1.421875 10.953125 3.296875 
Q 6 8.015625 6 15.921875 
Q 6 25.140625 12.171875 29.828125 
Q 18.359375 34.515625 30.609375 34.515625 
L 43.21875 34.515625 
L 43.21875 35.40625 
Q 43.21875 41.609375 39.140625 45 
Q 35.0625 48.390625 27.6875 48.390625 
Q 23 48.390625 18.546875 47.265625 
Q 14.109375 46.140625 10.015625 43.890625 
L 10.015625 52.203125 
Q 14.9375 54.109375 19.578125 55.046875 
Q 24.21875 56 28.609375 56 
Q 40.484375 56 46.34375 49.84375 
Q 52.203125 43.703125 52.203125 31.203125 
z
" id="DejaVuSans-97"/>
       <path d="M 45.40625 46.390625 
L 45.40625 75.984375 
L 54.390625 75.984375 
L 54.390625 0 
L 45.40625 0 
L 45.40625 8.203125 
Q 42.578125 3.328125 38.25 0.953125 
Q 33.9375 -1.421875 27.875 -1.421875 
Q 17.96875 -1.421875 11.734375 6.484375 
Q 5.515625 14.40625 5.515625 27.296875 
Q 5.515625 40.1875 11.734375 48.09375 
Q 17.96875 56 27.875 56 
Q 33.9375 56 38.25 53.625 
Q 42.578125 51.265625 45.40625 46.390625 
z
M 14.796875 27.296875 
Q 14.796875 17.390625 18.875 11.75 
Q 22.953125 6.109375 30.078125 6.109375 
Q 37.203125 6.109375 41.296875 11.75 
Q 45.40625 17.390625 45.40625 27.296875 
Q 45.40625 37.203125 41.296875 42.84375 
Q 37.203125 48.484375 30.078125 48.484375 
Q 22.953125 48.484375 18.875 42.84375 
Q 14.796875 37.203125 14.796875 27.296875 
z
" id="DejaVuSans-100"/>
      </defs>
      <use xlink:href="#DejaVuSans-72"/>
      <use x="75.195312" xlink:href="#DejaVuSans-101"/>
      <use x="136.71875" xlink:href="#DejaVuSans-97"/>
      <use x="197.998047" xlink:href="#DejaVuSans-100"/>
     </g>
    </g>
   </g>
   <g id="text_2">
    <g clip-path="url(#pa7567b6bc2)">
     <!-- c7 -->
     <g transform="translate(302.481247 124.398877)scale(0.1 -0.1)">
      <defs>
       <path d="M 48.78125 52.59375 
L 48.78125 44.1875 
Q 44.96875 46.296875 41.140625 47.34375 
Q 37.3125 48.390625 33.40625 48.390625 
Q 24.65625 48.390625 19.8125 42.84375 
Q 14.984375 37.3125 14.984375 27.296875 
Q 14.984375 17.28125 19.8125 11.734375 
Q 24.65625 6.203125 33.40625 6.203125 
Q 37.3125 6.203125 41.140625 7.25 
Q 44.96875 8.296875 48.78125 10.40625 
L 48.78125 2.09375 
Q 45.015625 0.34375 40.984375 -0.53125 
Q 36.96875 -1.421875 32.421875 -1.421875 
Q 20.0625 -1.421875 12.78125 6.34375 
Q 5.515625 14.109375 5.515625 27.296875 
Q 5.515625 40.671875 12.859375 48.328125 
Q 20.21875 56 33.015625 56 
Q 37.15625 56 41.109375 55.140625 
Q 45.0625 54.296875 48.78125 52.59375 
z
" id="DejaVuSans-99"/>
       <path d="M 8.203125 72.90625 
L 55.078125 72.90625 
L 55.078125 68.703125 
L 28.609375 0 
L 18.3125 0 
L 43.21875 64.59375 
L 8.203125 64.59375 
z
" id="DejaVuSans-55"/>
      </defs>
      <use xlink:href="#DejaVuSans-99"/>
      <use x="54.980469" xlink:href="#DejaVuSans-55"/>
     </g>
    </g>
   </g>
   <g id="text_3">
    <g clip-path="url(#pa7567b6bc2)">
     <!-- SpineShoulder -->
     <g transform="translate(273.469849 155.694924)scale(0.1 -0.1)">
      <defs>
       <path d="M 53.515625 70.515625 
L 53.515625 60.890625 
Q 47.90625 63.578125 42.921875 64.890625 
Q 37.9375 66.21875 33.296875 66.21875 
Q 25.25 66.21875 20.875 63.09375 
Q 16.5 59.96875 16.5 54.203125 
Q 16.5 49.359375 19.40625 46.890625 
Q 22.3125 44.4375 30.421875 42.921875 
L 36.375 41.703125 
Q 47.40625 39.59375 52.65625 34.296875 
Q 57.90625 29 57.90625 20.125 
Q 57.90625 9.515625 50.796875 4.046875 
Q 43.703125 -1.421875 29.984375 -1.421875 
Q 24.8125 -1.421875 18.96875 -0.25 
Q 13.140625 0.921875 6.890625 3.21875 
L 6.890625 13.375 
Q 12.890625 10.015625 18.65625 8.296875 
Q 24.421875 6.59375 29.984375 6.59375 
Q 38.421875 6.59375 43.015625 9.90625 
Q 47.609375 13.234375 47.609375 19.390625 
Q 47.609375 24.75 44.3125 27.78125 
Q 41.015625 30.8125 33.5 32.328125 
L 27.484375 33.5 
Q 16.453125 35.6875 11.515625 40.375 
Q 6.59375 45.0625 6.59375 53.421875 
Q 6.59375 63.09375 13.40625 68.65625 
Q 20.21875 74.21875 32.171875 74.21875 
Q 37.3125 74.21875 42.625 73.28125 
Q 47.953125 72.359375 53.515625 70.515625 
z
" id="DejaVuSans-83"/>
       <path d="M 18.109375 8.203125 
L 18.109375 -20.796875 
L 9.078125 -20.796875 
L 9.078125 54.6875 
L 18.109375 54.6875 
L 18.109375 46.390625 
Q 20.953125 51.265625 25.265625 53.625 
Q 29.59375 56 35.59375 56 
Q 45.5625 56 51.78125 48.09375 
Q 58.015625 40.1875 58.015625 27.296875 
Q 58.015625 14.40625 51.78125 6.484375 
Q 45.5625 -1.421875 35.59375 -1.421875 
Q 29.59375 -1.421875 25.265625 0.953125 
Q 20.953125 3.328125 18.109375 8.203125 
z
M 48.6875 27.296875 
Q 48.6875 37.203125 44.609375 42.84375 
Q 40.53125 48.484375 33.40625 48.484375 
Q 26.265625 48.484375 22.1875 42.84375 
Q 18.109375 37.203125 18.109375 27.296875 
Q 18.109375 17.390625 22.1875 11.75 
Q 26.265625 6.109375 33.40625 6.109375 
Q 40.53125 6.109375 44.609375 11.75 
Q 48.6875 17.390625 48.6875 27.296875 
z
" id="DejaVuSans-112"/>
       <path d="M 9.421875 54.6875 
L 18.40625 54.6875 
L 18.40625 0 
L 9.421875 0 
z
M 9.421875 75.984375 
L 18.40625 75.984375 
L 18.40625 64.59375 
L 9.421875 64.59375 
z
" id="DejaVuSans-105"/>
       <path d="M 54.890625 33.015625 
L 54.890625 0 
L 45.90625 0 
L 45.90625 32.71875 
Q 45.90625 40.484375 42.875 44.328125 
Q 39.84375 48.1875 33.796875 48.1875 
Q 26.515625 48.1875 22.3125 43.546875 
Q 18.109375 38.921875 18.109375 30.90625 
L 18.109375 0 
L 9.078125 0 
L 9.078125 54.6875 
L 18.109375 54.6875 
L 18.109375 46.1875 
Q 21.34375 51.125 25.703125 53.5625 
Q 30.078125 56 35.796875 56 
Q 45.21875 56 50.046875 50.171875 
Q 54.890625 44.34375 54.890625 33.015625 
z
" id="DejaVuSans-110"/>
       <path d="M 54.890625 33.015625 
L 54.890625 0 
L 45.90625 0 
L 45.90625 32.71875 
Q 45.90625 40.484375 42.875 44.328125 
Q 39.84375 48.1875 33.796875 48.1875 
Q 26.515625 48.1875 22.3125 43.546875 
Q 18.109375 38.921875 18.109375 30.90625 
L 18.109375 0 
L 9.078125 0 
L 9.078125 75.984375 
L 18.109375 75.984375 
L 18.109375 46.1875 
Q 21.34375 51.125 25.703125 53.5625 
Q 30.078125 56 35.796875 56 
Q 45.21875 56 50.046875 50.171875 
Q 54.890625 44.34375 54.890625 33.015625 
z
" id="DejaVuSans-104"/>
       <path d="M 30.609375 48.390625 
Q 23.390625 48.390625 19.1875 42.75 
Q 14.984375 37.109375 14.984375 27.296875 
Q 14.984375 17.484375 19.15625 11.84375 
Q 23.34375 6.203125 30.609375 6.203125 
Q 37.796875 6.203125 41.984375 11.859375 
Q 46.1875 17.53125 46.1875 27.296875 
Q 46.1875 37.015625 41.984375 42.703125 
Q 37.796875 48.390625 30.609375 48.390625 
z
M 30.609375 56 
Q 42.328125 56 49.015625 48.375 
Q 55.71875 40.765625 55.71875 27.296875 
Q 55.71875 13.875 49.015625 6.21875 
Q 42.328125 -1.421875 30.609375 -1.421875 
Q 18.84375 -1.421875 12.171875 6.21875 
Q 5.515625 13.875 5.515625 27.296875 
Q 5.515625 40.765625 12.171875 48.375 
Q 18.84375 56 30.609375 56 
z
" id="DejaVuSans-111"/>
       <path d="M 8.5 21.578125 
L 8.5 54.6875 
L 17.484375 54.6875 
L 17.484375 21.921875 
Q 17.484375 14.15625 20.5 10.265625 
Q 23.53125 6.390625 29.59375 6.390625 
Q 36.859375 6.390625 41.078125 11.03125 
Q 45.3125 15.671875 45.3125 23.6875 
L 45.3125 54.6875 
L 54.296875 54.6875 
L 54.296875 0 
L 45.3125 0 
L 45.3125 8.40625 
Q 42.046875 3.421875 37.71875 1 
Q 33.40625 -1.421875 27.6875 -1.421875 
Q 18.265625 -1.421875 13.375 4.4375 
Q 8.5 10.296875 8.5 21.578125 
z
M 31.109375 56 
z
" id="DejaVuSans-117"/>
       <path d="M 9.421875 75.984375 
L 18.40625 75.984375 
L 18.40625 0 
L 9.421875 0 
z
" id="DejaVuSans-108"/>
       <path d="M 41.109375 46.296875 
Q 39.59375 47.171875 37.8125 47.578125 
Q 36.03125 48 33.890625 48 
Q 26.265625 48 22.1875 43.046875 
Q 18.109375 38.09375 18.109375 28.8125 
L 18.109375 0 
L 9.078125 0 
L 9.078125 54.6875 
L 18.109375 54.6875 
L 18.109375 46.1875 
Q 20.953125 51.171875 25.484375 53.578125 
Q 30.03125 56 36.53125 56 
Q 37.453125 56 38.578125 55.875 
Q 39.703125 55.765625 41.0625 55.515625 
z
" id="DejaVuSans-114"/>
      </defs>
      <use xlink:href="#DejaVuSans-83"/>
      <use x="63.476562" xlink:href="#DejaVuSans-112"/>
      <use x="126.953125" xlink:href="#DejaVuSans-105"/>
      <use x="154.736328" xlink:href="#DejaVuSans-110"/>
      <use x="218.115234" xlink:href="#DejaVuSans-101"/>
      <use x="279.638672" xlink:href="#DejaVuSans-83"/>
      <use x="343.115234" xlink:href="#DejaVuSans-104"/>
      <use x="406.494141" xlink:href="#DejaVuSans-111"/>
      <use x="467.675781" xlink:href="#DejaVuSans-117"/>
      <use x="531.054688" xlink:href="#DejaVuSans-108"/>
      <use x="558.837891" xlink:href="#DejaVuSans-100"/>
      <use x="622.314453" xlink:href="#DejaVuSans-101"/>
      <use x="683.837891" xlink:href="#DejaVuSans-114"/>
     </g>
    </g>
   </g>
   <g id="text_4">
    <g clip-path="url(#pa7567b6bc2)">
     <!-- Spine -->
     <g transform="translate(296.913373 251.536653)scale(0.1 -0.1)">
      <use xlink:href="#DejaVuSans-83"/>
      <use x="63.476562" xlink:href="#DejaVuSans-112"/>
      <use x="126.953125" xlink:href="#DejaVuSans-105"/>
      <use x="154.736328" xlink:href="#DejaVuSans-110"/>
      <use x="218.115234" xlink:href="#DejaVuSans-101"/>
     </g>
    </g>
   </g>
   <g id="text_5">
    <g clip-path="url(#pa7567b6bc2)">
     <!-- Sacr -->
     <g transform="translate(298.447363 381.737833)scale(0.1 -0.1)">
      <use xlink:href="#DejaVuSans-83"/>
      <use x="63.476562" xlink:href="#DejaVuSans-97"/>
      <use x="124.755859" xlink:href="#DejaVuSans-99"/>
      <use x="179.736328" xlink:href="#DejaVuSans-114"/>
     </g>
    </g>
   </g>
   <g id="text_6">
    <g clip-path="url(#pa7567b6bc2)">
     <!-- LShoulder -->
     <g transform="translate(119.51372 161.748644)scale(0.1 -0.1)">
      <defs>
       <path d="M 9.8125 72.90625 
L 19.671875 72.90625 
L 19.671875 8.296875 
L 55.171875 8.296875 
L 55.171875 0 
L 9.8125 0 
z
" id="DejaVuSans-76"/>
      </defs>
      <use xlink:href="#DejaVuSans-76"/>
      <use x="55.712891" xlink:href="#DejaVuSans-83"/>
      <use x="119.189453" xlink:href="#DejaVuSans-104"/>
      <use x="182.568359" xlink:href="#DejaVuSans-111"/>
      <use x="243.75" xlink:href="#DejaVuSans-117"/>
      <use x="307.128906" xlink:href="#DejaVuSans-108"/>
      <use x="334.912109" xlink:href="#DejaVuSans-100"/>
      <use x="398.388672" xlink:href="#DejaVuSans-101"/>
      <use x="459.912109" xlink:href="#DejaVuSans-114"/>
     </g>
    </g>
   </g>
   <g id="text_7">
    <g clip-path="url(#pa7567b6bc2)">
     <!-- LElbow -->
     <g transform="translate(32.32644 249.327407)scale(0.1 -0.1)">
      <defs>
       <path d="M 9.8125 72.90625 
L 55.90625 72.90625 
L 55.90625 64.59375 
L 19.671875 64.59375 
L 19.671875 43.015625 
L 54.390625 43.015625 
L 54.390625 34.71875 
L 19.671875 34.71875 
L 19.671875 8.296875 
L 56.78125 8.296875 
L 56.78125 0 
L 9.8125 0 
z
" id="DejaVuSans-69"/>
       <path d="M 48.6875 27.296875 
Q 48.6875 37.203125 44.609375 42.84375 
Q 40.53125 48.484375 33.40625 48.484375 
Q 26.265625 48.484375 22.1875 42.84375 
Q 18.109375 37.203125 18.109375 27.296875 
Q 18.109375 17.390625 22.1875 11.75 
Q 26.265625 6.109375 33.40625 6.109375 
Q 40.53125 6.109375 44.609375 11.75 
Q 48.6875 17.390625 48.6875 27.296875 
z
M 18.109375 46.390625 
Q 20.953125 51.265625 25.265625 53.625 
Q 29.59375 56 35.59375 56 
Q 45.5625 56 51.78125 48.09375 
Q 58.015625 40.1875 58.015625 27.296875 
Q 58.015625 14.40625 51.78125 6.484375 
Q 45.5625 -1.421875 35.59375 -1.421875 
Q 29.59375 -1.421875 25.265625 0.953125 
Q 20.953125 3.328125 18.109375 8.203125 
L 18.109375 0 
L 9.078125 0 
L 9.078125 75.984375 
L 18.109375 75.984375 
z
" id="DejaVuSans-98"/>
       <path d="M 4.203125 54.6875 
L 13.1875 54.6875 
L 24.421875 12.015625 
L 35.59375 54.6875 
L 46.1875 54.6875 
L 57.421875 12.015625 
L 68.609375 54.6875 
L 77.59375 54.6875 
L 63.28125 0 
L 52.6875 0 
L 40.921875 44.828125 
L 29.109375 0 
L 18.5 0 
z
" id="DejaVuSans-119"/>
      </defs>
      <use xlink:href="#DejaVuSans-76"/>
      <use x="55.712891" xlink:href="#DejaVuSans-69"/>
      <use x="118.896484" xlink:href="#DejaVuSans-108"/>
      <use x="146.679688" xlink:href="#DejaVuSans-98"/>
      <use x="210.15625" xlink:href="#DejaVuSans-111"/>
      <use x="271.337891" xlink:href="#DejaVuSans-119"/>
     </g>
    </g>
   </g>
   <g id="text_8">
    <g clip-path="url(#pa7567b6bc2)">
     <!-- LWrist -->
     <g transform="translate(151.093357 319.622919)scale(0.1 -0.1)">
      <defs>
       <path d="M 3.328125 72.90625 
L 13.28125 72.90625 
L 28.609375 11.28125 
L 43.890625 72.90625 
L 54.984375 72.90625 
L 70.3125 11.28125 
L 85.59375 72.90625 
L 95.609375 72.90625 
L 77.296875 0 
L 64.890625 0 
L 49.515625 63.28125 
L 33.984375 0 
L 21.578125 0 
z
" id="DejaVuSans-87"/>
       <path d="M 44.28125 53.078125 
L 44.28125 44.578125 
Q 40.484375 46.53125 36.375 47.5 
Q 32.28125 48.484375 27.875 48.484375 
Q 21.1875 48.484375 17.84375 46.4375 
Q 14.5 44.390625 14.5 40.28125 
Q 14.5 37.15625 16.890625 35.375 
Q 19.28125 33.59375 26.515625 31.984375 
L 29.59375 31.296875 
Q 39.15625 29.25 43.1875 25.515625 
Q 47.21875 21.78125 47.21875 15.09375 
Q 47.21875 7.46875 41.1875 3.015625 
Q 35.15625 -1.421875 24.609375 -1.421875 
Q 20.21875 -1.421875 15.453125 -0.5625 
Q 10.6875 0.296875 5.421875 2 
L 5.421875 11.28125 
Q 10.40625 8.6875 15.234375 7.390625 
Q 20.0625 6.109375 24.8125 6.109375 
Q 31.15625 6.109375 34.5625 8.28125 
Q 37.984375 10.453125 37.984375 14.40625 
Q 37.984375 18.0625 35.515625 20.015625 
Q 33.0625 21.96875 24.703125 23.78125 
L 21.578125 24.515625 
Q 13.234375 26.265625 9.515625 29.90625 
Q 5.8125 33.546875 5.8125 39.890625 
Q 5.8125 47.609375 11.28125 51.796875 
Q 16.75 56 26.8125 56 
Q 31.78125 56 36.171875 55.265625 
Q 40.578125 54.546875 44.28125 53.078125 
z
" id="DejaVuSans-115"/>
       <path d="M 18.3125 70.21875 
L 18.3125 54.6875 
L 36.8125 54.6875 
L 36.8125 47.703125 
L 18.3125 47.703125 
L 18.3125 18.015625 
Q 18.3125 11.328125 20.140625 9.421875 
Q 21.96875 7.515625 27.59375 7.515625 
L 36.8125 7.515625 
L 36.8125 0 
L 27.59375 0 
Q 17.1875 0 13.234375 3.875 
Q 9.28125 7.765625 9.28125 18.015625 
L 9.28125 47.703125 
L 2.6875 47.703125 
L 2.6875 54.6875 
L 9.28125 54.6875 
L 9.28125 70.21875 
z
" id="DejaVuSans-116"/>
      </defs>
      <use xlink:href="#DejaVuSans-76"/>
      <use x="46.587891" xlink:href="#DejaVuSans-87"/>
      <use x="140.964844" xlink:href="#DejaVuSans-114"/>
      <use x="182.078125" xlink:href="#DejaVuSans-105"/>
      <use x="209.861328" xlink:href="#DejaVuSans-115"/>
      <use x="261.960938" xlink:href="#DejaVuSans-116"/>
     </g>
    </g>
   </g>
   <g id="text_9">
    <g clip-path="url(#pa7567b6bc2)">
     <!-- LHand -->
     <g transform="translate(208.264856 325.720053)scale(0.1 -0.1)">
      <use xlink:href="#DejaVuSans-76"/>
      <use x="55.712891" xlink:href="#DejaVuSans-72"/>
      <use x="130.908203" xlink:href="#DejaVuSans-97"/>
      <use x="192.1875" xlink:href="#DejaVuSans-110"/>
      <use x="255.566406" xlink:href="#DejaVuSans-100"/>
     </g>
    </g>
   </g>
   <g id="text_10">
    <g clip-path="url(#pa7567b6bc2)">
     <!-- RShoulder -->
     <g transform="translate(462.760201 172.404157)scale(0.1 -0.1)">
      <defs>
       <path d="M 44.390625 34.1875 
Q 47.5625 33.109375 50.5625 29.59375 
Q 53.5625 26.078125 56.59375 19.921875 
L 66.609375 0 
L 56 0 
L 46.6875 18.703125 
Q 43.0625 26.03125 39.671875 28.421875 
Q 36.28125 30.8125 30.421875 30.8125 
L 19.671875 30.8125 
L 19.671875 0 
L 9.8125 0 
L 9.8125 72.90625 
L 32.078125 72.90625 
Q 44.578125 72.90625 50.734375 67.671875 
Q 56.890625 62.453125 56.890625 51.90625 
Q 56.890625 45.015625 53.6875 40.46875 
Q 50.484375 35.9375 44.390625 34.1875 
z
M 19.671875 64.796875 
L 19.671875 38.921875 
L 32.078125 38.921875 
Q 39.203125 38.921875 42.84375 42.21875 
Q 46.484375 45.515625 46.484375 51.90625 
Q 46.484375 58.296875 42.84375 61.546875 
Q 39.203125 64.796875 32.078125 64.796875 
z
" id="DejaVuSans-82"/>
      </defs>
      <use xlink:href="#DejaVuSans-82"/>
      <use x="69.482422" xlink:href="#DejaVuSans-83"/>
      <use x="132.958984" xlink:href="#DejaVuSans-104"/>
      <use x="196.337891" xlink:href="#DejaVuSans-111"/>
      <use x="257.519531" xlink:href="#DejaVuSans-117"/>
      <use x="320.898438" xlink:href="#DejaVuSans-108"/>
      <use x="348.681641" xlink:href="#DejaVuSans-100"/>
      <use x="412.158203" xlink:href="#DejaVuSans-101"/>
      <use x="473.681641" xlink:href="#DejaVuSans-114"/>
     </g>
    </g>
   </g>
   <g id="text_11">
    <g clip-path="url(#pa7567b6bc2)">
     <!-- RElbow -->
     <g transform="translate(507.671216 288.79477)scale(0.1 -0.1)">
      <use xlink:href="#DejaVuSans-82"/>
      <use x="69.482422" xlink:href="#DejaVuSans-69"/>
      <use x="132.666016" xlink:href="#DejaVuSans-108"/>
      <use x="160.449219" xlink:href="#DejaVuSans-98"/>
      <use x="223.925781" xlink:href="#DejaVuSans-111"/>
      <use x="285.107422" xlink:href="#DejaVuSans-119"/>
     </g>
    </g>
   </g>
   <g id="text_12">
    <g clip-path="url(#pa7567b6bc2)">
     <!-- RWrist -->
     <g transform="translate(503.61426 378.977115)scale(0.1 -0.1)">
      <use xlink:href="#DejaVuSans-82"/>
      <use x="65.482422" xlink:href="#DejaVuSans-87"/>
      <use x="159.859375" xlink:href="#DejaVuSans-114"/>
      <use x="200.972656" xlink:href="#DejaVuSans-105"/>
      <use x="228.755859" xlink:href="#DejaVuSans-115"/>
      <use x="280.855469" xlink:href="#DejaVuSans-116"/>
     </g>
    </g>
   </g>
   <g id="text_13">
    <g clip-path="url(#pa7567b6bc2)">
     <!-- RHand -->
     <g transform="translate(485.138467 408.811827)scale(0.1 -0.1)">
      <use xlink:href="#DejaVuSans-82"/>
      <use x="69.482422" xlink:href="#DejaVuSans-72"/>
      <use x="144.677734" xlink:href="#DejaVuSans-97"/>
      <use x="205.957031" xlink:href="#DejaVuSans-110"/>
      <use x="269.335938" xlink:href="#DejaVuSans-100"/>
     </g>
    </g>
   </g>
   <g id="text_14">
    <g clip-path="url(#pa7567b6bc2)">
     <!-- LHip -->
     <g transform="translate(218.064555 381.835171)scale(0.1 -0.1)">
      <use xlink:href="#DejaVuSans-76"/>
      <use x="55.712891" xlink:href="#DejaVuSans-72"/>
      <use x="130.908203" xlink:href="#DejaVuSans-105"/>
      <use x="158.691406" xlink:href="#DejaVuSans-112"/>
     </g>
    </g>
   </g>
   <g id="text_15">
    <g clip-path="url(#pa7567b6bc2)">
     <!-- LKnee -->
     <g transform="translate(155.226296 526.751807)scale(0.1 -0.1)">
      <defs>
       <path d="M 9.8125 72.90625 
L 19.671875 72.90625 
L 19.671875 42.09375 
L 52.390625 72.90625 
L 65.09375 72.90625 
L 28.90625 38.921875 
L 67.671875 0 
L 54.6875 0 
L 19.671875 35.109375 
L 19.671875 0 
L 9.8125 0 
z
" id="DejaVuSans-75"/>
      </defs>
      <use xlink:href="#DejaVuSans-76"/>
      <use x="55.712891" xlink:href="#DejaVuSans-75"/>
      <use x="121.289062" xlink:href="#DejaVuSans-110"/>
      <use x="184.667969" xlink:href="#DejaVuSans-101"/>
      <use x="246.191406" xlink:href="#DejaVuSans-101"/>
     </g>
    </g>
   </g>
   <g id="text_16">
    <g clip-path="url(#pa7567b6bc2)">
     <!-- LAnkle -->
     <g transform="translate(185.364874 681.543749)scale(0.1 -0.1)">
      <defs>
       <path d="M 34.1875 63.1875 
L 20.796875 26.90625 
L 47.609375 26.90625 
z
M 28.609375 72.90625 
L 39.796875 72.90625 
L 67.578125 0 
L 57.328125 0 
L 50.6875 18.703125 
L 17.828125 18.703125 
L 11.1875 0 
L 0.78125 0 
z
" id="DejaVuSans-65"/>
       <path d="M 9.078125 75.984375 
L 18.109375 75.984375 
L 18.109375 31.109375 
L 44.921875 54.6875 
L 56.390625 54.6875 
L 27.390625 29.109375 
L 57.625 0 
L 45.90625 0 
L 18.109375 26.703125 
L 18.109375 0 
L 9.078125 0 
z
" id="DejaVuSans-107"/>
      </defs>
      <use xlink:href="#DejaVuSans-76"/>
      <use x="57.962891" xlink:href="#DejaVuSans-65"/>
      <use x="126.371094" xlink:href="#DejaVuSans-110"/>
      <use x="189.75" xlink:href="#DejaVuSans-107"/>
      <use x="247.660156" xlink:href="#DejaVuSans-108"/>
      <use x="275.443359" xlink:href="#DejaVuSans-101"/>
     </g>
    </g>
   </g>
   <g id="text_17">
    <g clip-path="url(#pa7567b6bc2)">
     <!-- LFoot -->
     <g transform="translate(183.408341 721.536893)scale(0.1 -0.1)">
      <defs>
       <path d="M 9.8125 72.90625 
L 51.703125 72.90625 
L 51.703125 64.59375 
L 19.671875 64.59375 
L 19.671875 43.109375 
L 48.578125 43.109375 
L 48.578125 34.8125 
L 19.671875 34.8125 
L 19.671875 0 
L 9.8125 0 
z
" id="DejaVuSans-70"/>
      </defs>
      <use xlink:href="#DejaVuSans-76"/>
      <use x="55.712891" xlink:href="#DejaVuSans-70"/>
      <use x="109.607422" xlink:href="#DejaVuSans-111"/>
      <use x="170.789062" xlink:href="#DejaVuSans-111"/>
      <use x="231.970703" xlink:href="#DejaVuSans-116"/>
     </g>
    </g>
   </g>
   <g id="text_18">
    <g clip-path="url(#pa7567b6bc2)">
     <!-- RHip -->
     <g transform="translate(361.575859 381.205632)scale(0.1 -0.1)">
      <use xlink:href="#DejaVuSans-82"/>
      <use x="69.482422" xlink:href="#DejaVuSans-72"/>
      <use x="144.677734" xlink:href="#DejaVuSans-105"/>
      <use x="172.460938" xlink:href="#DejaVuSans-112"/>
     </g>
    </g>
   </g>
   <g id="text_19">
    <g clip-path="url(#pa7567b6bc2)">
     <!-- RKnee -->
     <g transform="translate(376.077664 568.21135)scale(0.1 -0.1)">
      <use xlink:href="#DejaVuSans-82"/>
      <use x="69.482422" xlink:href="#DejaVuSans-75"/>
      <use x="135.058594" xlink:href="#DejaVuSans-110"/>
      <use x="198.4375" xlink:href="#DejaVuSans-101"/>
      <use x="259.960938" xlink:href="#DejaVuSans-101"/>
     </g>
    </g>
   </g>
   <g id="text_20">
    <g clip-path="url(#pa7567b6bc2)">
     <!-- RAnkle -->
     <g transform="translate(394.733073 749.755431)scale(0.1 -0.1)">
      <use xlink:href="#DejaVuSans-82"/>
      <use x="65.482422" xlink:href="#DejaVuSans-65"/>
      <use x="133.890625" xlink:href="#DejaVuSans-110"/>
      <use x="197.269531" xlink:href="#DejaVuSans-107"/>
      <use x="255.179688" xlink:href="#DejaVuSans-108"/>
      <use x="282.962891" xlink:href="#DejaVuSans-101"/>
     </g>
    </g>
   </g>
   <g id="text_21">
    <g clip-path="url(#pa7567b6bc2)">
     <!-- RFoot -->
     <g transform="translate(401.032059 791.784168)scale(0.1 -0.1)">
      <use xlink:href="#DejaVuSans-82"/>
      <use x="69.482422" xlink:href="#DejaVuSans-70"/>
      <use x="123.376953" xlink:href="#DejaVuSans-111"/>
      <use x="184.558594" xlink:href="#DejaVuSans-111"/>
      <use x="245.740234" xlink:href="#DejaVuSans-116"/>
     </g>
    </g>
   </g>
   <g id="text_22">
    <g clip-path="url(#pa7567b6bc2)">
     <!-- LHandTip -->
     <g transform="translate(250.643471 343.589863)scale(0.1 -0.1)">
      <defs>
       <path d="M -0.296875 72.90625 
L 61.375 72.90625 
L 61.375 64.59375 
L 35.5 64.59375 
L 35.5 0 
L 25.59375 0 
L 25.59375 64.59375 
L -0.296875 64.59375 
z
" id="DejaVuSans-84"/>
      </defs>
      <use xlink:href="#DejaVuSans-76"/>
      <use x="55.712891" xlink:href="#DejaVuSans-72"/>
      <use x="130.908203" xlink:href="#DejaVuSans-97"/>
      <use x="192.1875" xlink:href="#DejaVuSans-110"/>
      <use x="255.566406" xlink:href="#DejaVuSans-100"/>
      <use x="319.042969" xlink:href="#DejaVuSans-84"/>
      <use x="377.001953" xlink:href="#DejaVuSans-105"/>
      <use x="404.785156" xlink:href="#DejaVuSans-112"/>
     </g>
    </g>
   </g>
   <g id="text_23">
    <g clip-path="url(#pa7567b6bc2)">
     <!-- LThumb -->
     <g transform="translate(251.64053 306.357795)scale(0.1 -0.1)">
      <defs>
       <path d="M 52 44.1875 
Q 55.375 50.25 60.0625 53.125 
Q 64.75 56 71.09375 56 
Q 79.640625 56 84.28125 50.015625 
Q 88.921875 44.046875 88.921875 33.015625 
L 88.921875 0 
L 79.890625 0 
L 79.890625 32.71875 
Q 79.890625 40.578125 77.09375 44.375 
Q 74.3125 48.1875 68.609375 48.1875 
Q 61.625 48.1875 57.5625 43.546875 
Q 53.515625 38.921875 53.515625 30.90625 
L 53.515625 0 
L 44.484375 0 
L 44.484375 32.71875 
Q 44.484375 40.625 41.703125 44.40625 
Q 38.921875 48.1875 33.109375 48.1875 
Q 26.21875 48.1875 22.15625 43.53125 
Q 18.109375 38.875 18.109375 30.90625 
L 18.109375 0 
L 9.078125 0 
L 9.078125 54.6875 
L 18.109375 54.6875 
L 18.109375 46.1875 
Q 21.1875 51.21875 25.484375 53.609375 
Q 29.78125 56 35.6875 56 
Q 41.65625 56 45.828125 52.96875 
Q 50 49.953125 52 44.1875 
z
" id="DejaVuSans-109"/>
      </defs>
      <use xlink:href="#DejaVuSans-76"/>
      <use x="41.962891" xlink:href="#DejaVuSans-84"/>
      <use x="103.046875" xlink:href="#DejaVuSans-104"/>
      <use x="166.425781" xlink:href="#DejaVuSans-117"/>
      <use x="229.804688" xlink:href="#DejaVuSans-109"/>
      <use x="327.216797" xlink:href="#DejaVuSans-98"/>
     </g>
    </g>
   </g>
   <g id="text_24">
    <g clip-path="url(#pa7567b6bc2)">
     <!-- RHandTip -->
     <g transform="translate(442.845322 441.218285)scale(0.1 -0.1)">
      <use xlink:href="#DejaVuSans-82"/>
      <use x="69.482422" xlink:href="#DejaVuSans-72"/>
      <use x="144.677734" xlink:href="#DejaVuSans-97"/>
      <use x="205.957031" xlink:href="#DejaVuSans-110"/>
      <use x="269.335938" xlink:href="#DejaVuSans-100"/>
      <use x="332.8125" xlink:href="#DejaVuSans-84"/>
      <use x="390.771484" xlink:href="#DejaVuSans-105"/>
      <use x="418.554688" xlink:href="#DejaVuSans-112"/>
     </g>
    </g>
   </g>
   <g id="text_25">
    <g clip-path="url(#pa7567b6bc2)">
     <!-- RThumb -->
     <g transform="translate(424.399601 409.584098)scale(0.1 -0.1)">
      <use xlink:href="#DejaVuSans-82"/>
      <use x="62.232422" xlink:href="#DejaVuSans-84"/>
      <use x="123.316406" xlink:href="#DejaVuSans-104"/>
      <use x="186.695312" xlink:href="#DejaVuSans-117"/>
      <use x="250.074219" xlink:href="#DejaVuSans-109"/>
      <use x="347.486328" xlink:href="#DejaVuSans-98"/>
     </g>
    </g>
   </g>
   <g id="text_26">
    <!-- Node Graph Visualization - Frame 204 -->
    <g transform="translate(174.194063 -6)scale(0.12 -0.12)">
     <defs>
      <path d="M 9.8125 72.90625 
L 23.09375 72.90625 
L 55.421875 11.921875 
L 55.421875 72.90625 
L 64.984375 72.90625 
L 64.984375 0 
L 51.703125 0 
L 19.390625 60.984375 
L 19.390625 0 
L 9.8125 0 
z
" id="DejaVuSans-78"/>
      <path id="DejaVuSans-32"/>
      <path d="M 59.515625 10.40625 
L 59.515625 29.984375 
L 43.40625 29.984375 
L 43.40625 38.09375 
L 69.28125 38.09375 
L 69.28125 6.78125 
Q 63.578125 2.734375 56.6875 0.65625 
Q 49.8125 -1.421875 42 -1.421875 
Q 24.90625 -1.421875 15.25 8.5625 
Q 5.609375 18.5625 5.609375 36.375 
Q 5.609375 54.25 15.25 64.234375 
Q 24.90625 74.21875 42 74.21875 
Q 49.125 74.21875 55.546875 72.453125 
Q 61.96875 70.703125 67.390625 67.28125 
L 67.390625 56.78125 
Q 61.921875 61.421875 55.765625 63.765625 
Q 49.609375 66.109375 42.828125 66.109375 
Q 29.4375 66.109375 22.71875 58.640625 
Q 16.015625 51.171875 16.015625 36.375 
Q 16.015625 21.625 22.71875 14.15625 
Q 29.4375 6.6875 42.828125 6.6875 
Q 48.046875 6.6875 52.140625 7.59375 
Q 56.25 8.5 59.515625 10.40625 
z
" id="DejaVuSans-71"/>
      <path d="M 28.609375 0 
L 0.78125 72.90625 
L 11.078125 72.90625 
L 34.1875 11.53125 
L 57.328125 72.90625 
L 67.578125 72.90625 
L 39.796875 0 
z
" id="DejaVuSans-86"/>
      <path d="M 5.515625 54.6875 
L 48.1875 54.6875 
L 48.1875 46.484375 
L 14.40625 7.171875 
L 48.1875 7.171875 
L 48.1875 0 
L 4.296875 0 
L 4.296875 8.203125 
L 38.09375 47.515625 
L 5.515625 47.515625 
z
" id="DejaVuSans-122"/>
      <path d="M 4.890625 31.390625 
L 31.203125 31.390625 
L 31.203125 23.390625 
L 4.890625 23.390625 
z
" id="DejaVuSans-45"/>
      <path d="M 19.1875 8.296875 
L 53.609375 8.296875 
L 53.609375 0 
L 7.328125 0 
L 7.328125 8.296875 
Q 12.9375 14.109375 22.625 23.890625 
Q 32.328125 33.6875 34.8125 36.53125 
Q 39.546875 41.84375 41.421875 45.53125 
Q 43.3125 49.21875 43.3125 52.78125 
Q 43.3125 58.59375 39.234375 62.25 
Q 35.15625 65.921875 28.609375 65.921875 
Q 23.96875 65.921875 18.8125 64.3125 
Q 13.671875 62.703125 7.8125 59.421875 
L 7.8125 69.390625 
Q 13.765625 71.78125 18.9375 73 
Q 24.125 74.21875 28.421875 74.21875 
Q 39.75 74.21875 46.484375 68.546875 
Q 53.21875 62.890625 53.21875 53.421875 
Q 53.21875 48.921875 51.53125 44.890625 
Q 49.859375 40.875 45.40625 35.40625 
Q 44.1875 33.984375 37.640625 27.21875 
Q 31.109375 20.453125 19.1875 8.296875 
z
" id="DejaVuSans-50"/>
      <path d="M 31.78125 66.40625 
Q 24.171875 66.40625 20.328125 58.90625 
Q 16.5 51.421875 16.5 36.375 
Q 16.5 21.390625 20.328125 13.890625 
Q 24.171875 6.390625 31.78125 6.390625 
Q 39.453125 6.390625 43.28125 13.890625 
Q 47.125 21.390625 47.125 36.375 
Q 47.125 51.421875 43.28125 58.90625 
Q 39.453125 66.40625 31.78125 66.40625 
z
M 31.78125 74.21875 
Q 44.046875 74.21875 50.515625 64.515625 
Q 56.984375 54.828125 56.984375 36.375 
Q 56.984375 17.96875 50.515625 8.265625 
Q 44.046875 -1.421875 31.78125 -1.421875 
Q 19.53125 -1.421875 13.0625 8.265625 
Q 6.59375 17.96875 6.59375 36.375 
Q 6.59375 54.828125 13.0625 64.515625 
Q 19.53125 74.21875 31.78125 74.21875 
z
" id="DejaVuSans-48"/>
      <path d="M 37.796875 64.3125 
L 12.890625 25.390625 
L 37.796875 25.390625 
z
M 35.203125 72.90625 
L 47.609375 72.90625 
L 47.609375 25.390625 
L 58.015625 25.390625 
L 58.015625 17.1875 
L 47.609375 17.1875 
L 47.609375 0 
L 37.796875 0 
L 37.796875 17.1875 
L 4.890625 17.1875 
L 4.890625 26.703125 
z
" id="DejaVuSans-52"/>
     </defs>
     <use xlink:href="#DejaVuSans-78"/>
     <use x="74.804688" xlink:href="#DejaVuSans-111"/>
     <use x="135.986328" xlink:href="#DejaVuSans-100"/>
     <use x="199.462891" xlink:href="#DejaVuSans-101"/>
     <use x="260.986328" xlink:href="#DejaVuSans-32"/>
     <use x="292.773438" xlink:href="#DejaVuSans-71"/>
     <use x="370.263672" xlink:href="#DejaVuSans-114"/>
     <use x="411.376953" xlink:href="#DejaVuSans-97"/>
     <use x="472.65625" xlink:href="#DejaVuSans-112"/>
     <use x="536.132812" xlink:href="#DejaVuSans-104"/>
     <use x="599.511719" xlink:href="#DejaVuSans-32"/>
     <use x="631.298828" xlink:href="#DejaVuSans-86"/>
     <use x="697.457031" xlink:href="#DejaVuSans-105"/>
     <use x="725.240234" xlink:href="#DejaVuSans-115"/>
     <use x="777.339844" xlink:href="#DejaVuSans-117"/>
     <use x="840.71875" xlink:href="#DejaVuSans-97"/>
     <use x="901.998047" xlink:href="#DejaVuSans-108"/>
     <use x="929.78125" xlink:href="#DejaVuSans-105"/>
     <use x="957.564453" xlink:href="#DejaVuSans-122"/>
     <use x="1010.054688" xlink:href="#DejaVuSans-97"/>
     <use x="1071.333984" xlink:href="#DejaVuSans-116"/>
     <use x="1110.542969" xlink:href="#DejaVuSans-105"/>
     <use x="1138.326172" xlink:href="#DejaVuSans-111"/>
     <use x="1199.507812" xlink:href="#DejaVuSans-110"/>
     <use x="1262.886719" xlink:href="#DejaVuSans-32"/>
     <use x="1294.673828" xlink:href="#DejaVuSans-45"/>
     <use x="1330.757812" xlink:href="#DejaVuSans-32"/>
     <use x="1362.544922" xlink:href="#DejaVuSans-70"/>
     <use x="1412.814453" xlink:href="#DejaVuSans-114"/>
     <use x="1453.927734" xlink:href="#DejaVuSans-97"/>
     <use x="1515.207031" xlink:href="#DejaVuSans-109"/>
     <use x="1612.619141" xlink:href="#DejaVuSans-101"/>
     <use x="1674.142578" xlink:href="#DejaVuSans-32"/>
     <use x="1705.929688" xlink:href="#DejaVuSans-50"/>
     <use x="1769.552734" xlink:href="#DejaVuSans-48"/>
     <use x="1833.175781" xlink:href="#DejaVuSans-52"/>
    </g>
   </g>
  </g>
 </g>
 <defs>
  <clipPath id="pa7567b6bc2">
   <rect height="864" width="576" x="0" y="0"/>
  </clipPath>
 </defs>
</svg>
