<?xml version="1.0" encoding="utf-8" standalone="no"?>
<!DOCTYPE svg PUBLIC "-//W3C//DTD SVG 1.1//EN"
  "http://www.w3.org/Graphics/SVG/1.1/DTD/svg11.dtd">
<!-- Created with matplotlib (https://matplotlib.org/) -->
<svg height="864pt" version="1.1" viewBox="0 0 576 864" width="576pt" xmlns="http://www.w3.org/2000/svg" xmlns:xlink="http://www.w3.org/1999/xlink">
 <metadata>
  <rdf:RDF xmlns:cc="http://creativecommons.org/ns#" xmlns:dc="http://purl.org/dc/elements/1.1/" xmlns:rdf="http://www.w3.org/1999/02/22-rdf-syntax-ns#">
   <cc:Work>
    <dc:type rdf:resource="http://purl.org/dc/dcmitype/StillImage"/>
    <dc:date>2024-02-04T22:27:47.507728</dc:date>
    <dc:format>image/svg+xml</dc:format>
    <dc:creator>
     <cc:Agent>
      <dc:title>Matplotlib v3.3.2, https://matplotlib.org/</dc:title>
     </cc:Agent>
    </dc:creator>
   </cc:Work>
  </rdf:RDF>
 </metadata>
 <defs>
  <style type="text/css">*{stroke-linecap:butt;stroke-linejoin:round;}</style>
 </defs>
 <g id="figure_1">
  <g id="patch_1">
   <path d="M 0 864 
L 576 864 
L 576 0 
L 0 0 
z
" style="fill:#ffffff;"/>
  </g>
  <g id="axes_1">
   <g id="patch_2">
    <path clip-path="url(#p8b2457ddf6)" d="M 325.972598 87.761603 
Q 323.801089 95.970006 321.915516 103.097558 
" style="fill:none;stroke:#000000;stroke-linecap:round;"/>
    <path clip-path="url(#p8b2457ddf6)" d="M 324.871999 99.742083 
L 321.915516 103.097558 
L 321.005026 98.719087 
L 324.871999 99.742083 
z
" style="stroke:#000000;stroke-linecap:round;"/>
   </g>
   <g id="patch_3">
    <path clip-path="url(#p8b2457ddf6)" d="M 316.26628 130.045213 
Q 316.116197 131.036423 316.133492 130.922198 
" style="fill:none;stroke:#000000;stroke-linecap:round;"/>
    <path clip-path="url(#p8b2457ddf6)" d="M 318.709783 127.266692 
L 316.133492 130.922198 
L 314.754861 126.667862 
L 318.709783 127.266692 
z
" style="stroke:#000000;stroke-linecap:round;"/>
   </g>
   <g id="patch_4">
    <path clip-path="url(#p8b2457ddf6)" d="M 321.62925 104.179654 
Q 323.80076 95.97125 325.686333 88.843699 
" style="fill:none;stroke:#000000;stroke-linecap:round;"/>
    <path clip-path="url(#p8b2457ddf6)" d="M 322.72985 92.199174 
L 325.686333 88.843699 
L 326.596823 93.22217 
L 322.72985 92.199174 
z
" style="stroke:#000000;stroke-linecap:round;"/>
   </g>
   <g id="patch_5">
    <path clip-path="url(#p8b2457ddf6)" d="M 312.038478 158.195619 
Q 307.492861 188.749712 303.111767 218.197943 
" style="fill:none;stroke:#000000;stroke-linecap:round;"/>
    <path clip-path="url(#p8b2457ddf6)" d="M 305.678607 214.535794 
L 303.111767 218.197943 
L 301.722152 213.947182 
L 305.678607 214.535794 
z
" style="stroke:#000000;stroke-linecap:round;"/>
   </g>
   <g id="patch_6">
    <path clip-path="url(#p8b2457ddf6)" d="M 300.787699 144.196656 
Q 230.157338 139.307954 160.642342 134.496453 
" style="fill:none;stroke:#000000;stroke-linecap:round;"/>
    <path clip-path="url(#p8b2457ddf6)" d="M 164.494695 136.76788 
L 160.642342 134.496453 
L 164.770895 132.777427 
L 164.494695 136.76788 
z
" style="stroke:#000000;stroke-linecap:round;"/>
   </g>
   <g id="patch_7">
    <path clip-path="url(#p8b2457ddf6)" d="M 327.19842 145.765484 
Q 404.62096 149.605544 480.926838 153.390218 
" style="fill:none;stroke:#000000;stroke-linecap:round;"/>
    <path clip-path="url(#p8b2457ddf6)" d="M 477.030825 151.194523 
L 480.926838 153.390218 
L 476.832673 155.189612 
L 477.030825 151.194523 
z
" style="stroke:#000000;stroke-linecap:round;"/>
   </g>
   <g id="patch_8">
    <path clip-path="url(#p8b2457ddf6)" d="M 315.965609 132.030965 
Q 316.115692 131.039755 316.098397 131.153979 
" style="fill:none;stroke:#000000;stroke-linecap:round;"/>
    <path clip-path="url(#p8b2457ddf6)" d="M 313.522107 134.809486 
L 316.098397 131.153979 
L 317.477028 135.408316 
L 313.522107 134.809486 
z
" style="stroke:#000000;stroke-linecap:round;"/>
   </g>
   <g id="patch_9">
    <path clip-path="url(#p8b2457ddf6)" d="M 299.077529 245.476793 
Q 292.225139 292.11362 285.535278 337.644289 
" style="fill:none;stroke:#000000;stroke-linecap:round;"/>
    <path clip-path="url(#p8b2457ddf6)" d="M 288.095513 333.97752 
L 285.535278 337.644289 
L 284.138003 333.396039 
L 288.095513 333.97752 
z
" style="stroke:#000000;stroke-linecap:round;"/>
   </g>
   <g id="patch_10">
    <path clip-path="url(#p8b2457ddf6)" d="M 302.947764 219.300311 
Q 307.493381 188.746218 311.874476 159.297987 
" style="fill:none;stroke:#000000;stroke-linecap:round;"/>
    <path clip-path="url(#p8b2457ddf6)" d="M 309.307636 162.960136 
L 311.874476 159.297987 
L 313.26409 163.548749 
L 309.307636 162.960136 
z
" style="stroke:#000000;stroke-linecap:round;"/>
   </g>
   <g id="patch_11">
    <path clip-path="url(#p8b2457ddf6)" d="M 270.22553 351.54859 
Q 244.214749 350.972359 219.321728 350.42089 
" style="fill:none;stroke:#000000;stroke-linecap:round;"/>
    <path clip-path="url(#p8b2457ddf6)" d="M 223.276451 352.508992 
L 219.321728 350.42089 
L 223.365043 348.509973 
L 223.276451 352.508992 
z
" style="stroke:#000000;stroke-linecap:round;"/>
   </g>
   <g id="patch_12">
    <path clip-path="url(#p8b2457ddf6)" d="M 296.622874 353.081593 
Q 322.880501 355.553261 348.025014 357.92015 
" style="fill:none;stroke:#000000;stroke-linecap:round;"/>
    <path clip-path="url(#p8b2457ddf6)" d="M 344.230052 355.554083 
L 348.025014 357.92015 
L 343.855184 359.536479 
L 344.230052 355.554083 
z
" style="stroke:#000000;stroke-linecap:round;"/>
   </g>
   <g id="patch_13">
    <path clip-path="url(#p8b2457ddf6)" d="M 285.372733 338.750552 
Q 292.225123 292.113726 298.914985 246.583056 
" style="fill:none;stroke:#000000;stroke-linecap:round;"/>
    <path clip-path="url(#p8b2457ddf6)" d="M 296.35475 250.249826 
L 298.914985 246.583056 
L 300.312259 250.831306 
L 296.35475 250.249826 
z
" style="stroke:#000000;stroke-linecap:round;"/>
   </g>
   <g id="patch_14">
    <path clip-path="url(#p8b2457ddf6)" d="M 136.780436 142.662413 
Q 98.156475 179.681516 60.339675 215.926997 
" style="fill:none;stroke:#000000;stroke-linecap:round;"/>
    <path clip-path="url(#p8b2457ddf6)" d="M 64.611359 214.603094 
L 60.339675 215.926997 
L 61.843563 211.715309 
L 64.611359 214.603094 
z
" style="stroke:#000000;stroke-linecap:round;"/>
   </g>
   <g id="patch_15">
    <path clip-path="url(#p8b2457ddf6)" d="M 159.531262 134.419549 
Q 230.161623 139.308251 299.676619 144.119752 
" style="fill:none;stroke:#000000;stroke-linecap:round;"/>
    <path clip-path="url(#p8b2457ddf6)" d="M 295.824266 141.848325 
L 299.676619 144.119752 
L 295.548066 145.838778 
L 295.824266 141.848325 
z
" style="stroke:#000000;stroke-linecap:round;"/>
   </g>
   <g id="patch_16">
    <path clip-path="url(#p8b2457ddf6)" d="M 62.800962 229.13492 
Q 134.305451 247.444254 204.726849 265.476252 
" style="fill:none;stroke:#000000;stroke-linecap:round;"/>
    <path clip-path="url(#p8b2457ddf6)" d="M 201.347977 262.546538 
L 204.726849 265.476252 
L 200.355754 266.421522 
L 201.347977 262.546538 
z
" style="stroke:#000000;stroke-linecap:round;"/>
   </g>
   <g id="patch_17">
    <path clip-path="url(#p8b2457ddf6)" d="M 59.536753 216.696557 
Q 98.160714 179.677454 135.977514 143.431972 
" style="fill:none;stroke:#000000;stroke-linecap:round;"/>
    <path clip-path="url(#p8b2457ddf6)" d="M 131.70583 144.755875 
L 135.977514 143.431972 
L 134.473626 147.643661 
L 131.70583 144.755875 
z
" style="stroke:#000000;stroke-linecap:round;"/>
   </g>
   <g id="patch_18">
    <path clip-path="url(#p8b2457ddf6)" d="M 231.803094 270.233827 
Q 237.560291 270.757517 242.204051 271.179926 
" style="fill:none;stroke:#000000;stroke-linecap:round;"/>
    <path clip-path="url(#p8b2457ddf6)" d="M 238.401675 268.825795 
L 242.204051 271.179926 
L 238.03932 272.809348 
L 238.401675 268.825795 
z
" style="stroke:#000000;stroke-linecap:round;"/>
   </g>
   <g id="patch_19">
    <path clip-path="url(#p8b2457ddf6)" d="M 205.808237 265.753151 
Q 134.303748 247.443818 63.88235 229.411819 
" style="fill:none;stroke:#000000;stroke-linecap:round;"/>
    <path clip-path="url(#p8b2457ddf6)" d="M 67.261222 232.341533 
L 63.88235 229.411819 
L 68.253444 228.46655 
L 67.261222 232.341533 
z
" style="stroke:#000000;stroke-linecap:round;"/>
   </g>
   <g id="patch_20">
    <path clip-path="url(#p8b2457ddf6)" d="M 268.893076 277.073797 
Q 278.428782 280.605885 286.916067 283.749631 
" style="fill:none;stroke:#000000;stroke-linecap:round;"/>
    <path clip-path="url(#p8b2457ddf6)" d="M 283.859804 280.484779 
L 286.916067 283.749631 
L 282.470427 284.23573 
L 283.859804 280.484779 
z
" style="stroke:#000000;stroke-linecap:round;"/>
   </g>
   <g id="patch_21">
    <path clip-path="url(#p8b2457ddf6)" d="M 243.581127 275.363615 
Q 240.871981 275.968961 239.253962 276.3305 
" style="fill:none;stroke:#000000;stroke-linecap:round;"/>
    <path clip-path="url(#p8b2457ddf6)" d="M 243.593832 277.410096 
L 239.253962 276.3305 
L 242.721561 273.506362 
L 243.593832 277.410096 
z
" style="stroke:#000000;stroke-linecap:round;"/>
   </g>
   <g id="patch_22">
    <path clip-path="url(#p8b2457ddf6)" d="M 243.311913 271.2807 
Q 237.554716 270.75701 232.910956 270.334601 
" style="fill:none;stroke:#000000;stroke-linecap:round;"/>
    <path clip-path="url(#p8b2457ddf6)" d="M 236.713333 272.688733 
L 232.910956 270.334601 
L 237.075687 268.705179 
L 236.713333 272.688733 
z
" style="stroke:#000000;stroke-linecap:round;"/>
   </g>
   <g id="patch_23">
    <path clip-path="url(#p8b2457ddf6)" d="M 498.994657 166.791481 
Q 510.637367 206.330007 521.964261 244.796031 
" style="fill:none;stroke:#000000;stroke-linecap:round;"/>
    <path clip-path="url(#p8b2457ddf6)" d="M 522.75292 240.393984 
L 521.964261 244.796031 
L 518.915819 241.523876 
L 522.75292 240.393984 
z
" style="stroke:#000000;stroke-linecap:round;"/>
   </g>
   <g id="patch_24">
    <path clip-path="url(#p8b2457ddf6)" d="M 482.044582 153.445657 
Q 404.622043 149.605598 328.316165 145.820923 
" style="fill:none;stroke:#000000;stroke-linecap:round;"/>
    <path clip-path="url(#p8b2457ddf6)" d="M 332.212178 148.016619 
L 328.316165 145.820923 
L 332.410329 144.02153 
L 332.212178 148.016619 
z
" style="stroke:#000000;stroke-linecap:round;"/>
   </g>
   <g id="patch_25">
    <path clip-path="url(#p8b2457ddf6)" d="M 513.095051 261.402991 
Q 446.577475 276.05114 381.151772 290.458842 
" style="fill:none;stroke:#000000;stroke-linecap:round;"/>
    <path clip-path="url(#p8b2457ddf6)" d="M 385.488297 291.551796 
L 381.151772 290.458842 
L 384.62805 287.645394 
L 385.488297 291.551796 
z
" style="stroke:#000000;stroke-linecap:round;"/>
   </g>
   <g id="patch_26">
    <path clip-path="url(#p8b2457ddf6)" d="M 522.279631 245.867025 
Q 510.636922 206.328498 499.310027 167.862475 
" style="fill:none;stroke:#000000;stroke-linecap:round;"/>
    <path clip-path="url(#p8b2457ddf6)" d="M 498.521369 172.264522 
L 499.310027 167.862475 
L 502.35847 171.13463 
L 498.521369 172.264522 
z
" style="stroke:#000000;stroke-linecap:round;"/>
   </g>
   <g id="patch_27">
    <path clip-path="url(#p8b2457ddf6)" d="M 353.905648 293.405501 
Q 347.646609 293.339585 342.505542 293.285443 
" style="fill:none;stroke:#000000;stroke-linecap:round;"/>
    <path clip-path="url(#p8b2457ddf6)" d="M 346.484259 295.327455 
L 342.505542 293.285443 
L 346.526382 291.327677 
L 346.484259 295.327455 
z
" style="stroke:#000000;stroke-linecap:round;"/>
   </g>
   <g id="patch_28">
    <path clip-path="url(#p8b2457ddf6)" d="M 380.059591 290.699356 
Q 446.577167 276.051208 512.002871 261.643506 
" style="fill:none;stroke:#000000;stroke-linecap:round;"/>
    <path clip-path="url(#p8b2457ddf6)" d="M 507.666345 260.550552 
L 512.002871 261.643506 
L 508.526592 264.456954 
L 507.666345 260.550552 
z
" style="stroke:#000000;stroke-linecap:round;"/>
   </g>
   <g id="patch_29">
    <path clip-path="url(#p8b2457ddf6)" d="M 314.93794 292.674696 
Q 306.993734 292.398501 300.166886 292.161152 
" style="fill:none;stroke:#000000;stroke-linecap:round;"/>
    <path clip-path="url(#p8b2457ddf6)" d="M 304.094979 294.298928 
L 300.166886 292.161152 
L 304.233963 290.301343 
L 304.094979 294.298928 
z
" style="stroke:#000000;stroke-linecap:round;"/>
   </g>
   <g id="patch_30">
    <path clip-path="url(#p8b2457ddf6)" d="M 316.016291 287.881715 
Q 313.334283 286.721563 311.678419 286.005288 
" style="fill:none;stroke:#000000;stroke-linecap:round;"/>
    <path clip-path="url(#p8b2457ddf6)" d="M 314.555632 289.428977 
L 311.678419 286.005288 
L 316.143698 285.757731 
L 314.555632 289.428977 
z
" style="stroke:#000000;stroke-linecap:round;"/>
   </g>
   <g id="patch_31">
    <path clip-path="url(#p8b2457ddf6)" d="M 341.391667 293.273713 
Q 347.650706 293.339629 352.791773 293.39377 
" style="fill:none;stroke:#000000;stroke-linecap:round;"/>
    <path clip-path="url(#p8b2457ddf6)" d="M 348.813056 291.351759 
L 352.791773 293.39377 
L 348.770933 295.351537 
L 348.813056 291.351759 
z
" style="stroke:#000000;stroke-linecap:round;"/>
   </g>
   <g id="patch_32">
    <path clip-path="url(#p8b2457ddf6)" d="M 200.282512 362.471769 
Q 177.111827 423.499699 154.33799 483.482397 
" style="fill:none;stroke:#000000;stroke-linecap:round;"/>
    <path clip-path="url(#p8b2457ddf6)" d="M 157.627563 480.452759 
L 154.33799 483.482397 
L 153.888024 479.032955 
L 157.627563 480.452759 
z
" style="stroke:#000000;stroke-linecap:round;"/>
   </g>
   <g id="patch_33">
    <path clip-path="url(#p8b2457ddf6)" d="M 218.202285 350.39609 
Q 244.213066 350.972321 269.106087 351.52379 
" style="fill:none;stroke:#000000;stroke-linecap:round;"/>
    <path clip-path="url(#p8b2457ddf6)" d="M 265.151365 349.435688 
L 269.106087 351.52379 
L 265.062772 353.434707 
L 265.151365 349.435688 
z
" style="stroke:#000000;stroke-linecap:round;"/>
   </g>
   <g id="patch_34">
    <path clip-path="url(#p8b2457ddf6)" d="M 149.662562 510.117583 
Q 151.722004 575.353674 153.746169 639.472287 
" style="fill:none;stroke:#000000;stroke-linecap:round;"/>
    <path clip-path="url(#p8b2457ddf6)" d="M 155.618959 635.411172 
L 153.746169 639.472287 
L 151.620951 635.537385 
L 155.618959 635.411172 
z
" style="stroke:#000000;stroke-linecap:round;"/>
   </g>
   <g id="patch_35">
    <path clip-path="url(#p8b2457ddf6)" d="M 153.941212 484.527446 
Q 177.111897 423.499516 199.885734 363.516818 
" style="fill:none;stroke:#000000;stroke-linecap:round;"/>
    <path clip-path="url(#p8b2457ddf6)" d="M 196.596161 366.546456 
L 199.885734 363.516818 
L 200.3357 367.96626 
L 196.596161 366.546456 
z
" style="stroke:#000000;stroke-linecap:round;"/>
   </g>
   <g id="patch_36">
    <path clip-path="url(#p8b2457ddf6)" d="M 145.295508 663.595526 
Q 134.938825 674.977173 125.334599 685.531894 
" style="fill:none;stroke:#000000;stroke-linecap:round;"/>
    <path clip-path="url(#p8b2457ddf6)" d="M 129.505926 683.919431 
L 125.334599 685.531894 
L 126.547425 681.227356 
L 129.505926 683.919431 
z
" style="stroke:#000000;stroke-linecap:round;"/>
   </g>
   <g id="patch_37">
    <path clip-path="url(#p8b2457ddf6)" d="M 153.78144 640.589568 
Q 151.721998 575.353477 149.697833 511.234864 
" style="fill:none;stroke:#000000;stroke-linecap:round;"/>
    <path clip-path="url(#p8b2457ddf6)" d="M 147.825043 515.295979 
L 149.697833 511.234864 
L 151.823051 515.169766 
L 147.825043 515.295979 
z
" style="stroke:#000000;stroke-linecap:round;"/>
   </g>
   <g id="patch_38">
    <path clip-path="url(#p8b2457ddf6)" d="M 124.583 686.357877 
Q 134.939683 674.97623 144.543909 664.421509 
" style="fill:none;stroke:#000000;stroke-linecap:round;"/>
    <path clip-path="url(#p8b2457ddf6)" d="M 140.372583 666.033972 
L 144.543909 664.421509 
L 143.331084 668.726047 
L 140.372583 666.033972 
z
" style="stroke:#000000;stroke-linecap:round;"/>
   </g>
   <g id="patch_39">
    <path clip-path="url(#p8b2457ddf6)" d="M 362.347095 372.491123 
Q 362.616981 463.875573 362.883565 554.141994 
" style="fill:none;stroke:#000000;stroke-linecap:round;"/>
    <path clip-path="url(#p8b2457ddf6)" d="M 364.871743 550.136105 
L 362.883565 554.141994 
L 360.87176 550.147918 
L 364.871743 550.136105 
z
" style="stroke:#000000;stroke-linecap:round;"/>
   </g>
   <g id="patch_40">
    <path clip-path="url(#p8b2457ddf6)" d="M 349.134422 358.02458 
Q 322.876795 355.552912 297.732282 353.186023 
" style="fill:none;stroke:#000000;stroke-linecap:round;"/>
    <path clip-path="url(#p8b2457ddf6)" d="M 301.527244 355.55209 
L 297.732282 353.186023 
L 301.902112 351.569694 
L 301.527244 355.55209 
z
" style="stroke:#000000;stroke-linecap:round;"/>
   </g>
   <g id="patch_41">
    <path clip-path="url(#p8b2457ddf6)" d="M 360.642471 581.5185 
Q 346.941202 659.705795 333.432912 736.791837 
" style="fill:none;stroke:#000000;stroke-linecap:round;"/>
    <path clip-path="url(#p8b2457ddf6)" d="M 336.09332 733.197086 
L 333.432912 736.791837 
L 332.153356 732.506661 
L 336.09332 733.197086 
z
" style="stroke:#000000;stroke-linecap:round;"/>
   </g>
   <g id="patch_42">
    <path clip-path="url(#p8b2457ddf6)" d="M 362.88687 555.26127 
Q 362.616985 463.87682 362.350401 373.610399 
" style="fill:none;stroke:#000000;stroke-linecap:round;"/>
    <path clip-path="url(#p8b2457ddf6)" d="M 360.362223 377.616288 
L 362.350401 373.610399 
L 364.362205 377.604475 
L 360.362223 377.616288 
z
" style="stroke:#000000;stroke-linecap:round;"/>
   </g>
   <g id="patch_43">
    <path clip-path="url(#p8b2457ddf6)" d="M 327.934085 763.802327 
Q 326.485691 769.974011 325.29274 775.057233 
" style="fill:none;stroke:#000000;stroke-linecap:round;"/>
    <path clip-path="url(#p8b2457ddf6)" d="M 328.153745 771.619988 
L 325.29274 775.057233 
L 324.259547 770.706082 
L 328.153745 771.619988 
z
" style="stroke:#000000;stroke-linecap:round;"/>
   </g>
   <g id="patch_44">
    <path clip-path="url(#p8b2457ddf6)" d="M 333.239962 737.892922 
Q 346.941231 659.705627 360.44952 582.619585 
" style="fill:none;stroke:#000000;stroke-linecap:round;"/>
    <path clip-path="url(#p8b2457ddf6)" d="M 357.789113 586.214336 
L 360.44952 582.619585 
L 361.729077 586.904762 
L 357.789113 586.214336 
z
" style="stroke:#000000;stroke-linecap:round;"/>
   </g>
   <g id="patch_45">
    <path clip-path="url(#p8b2457ddf6)" d="M 325.037195 776.146126 
Q 326.485589 769.974443 327.67854 764.89122 
" style="fill:none;stroke:#000000;stroke-linecap:round;"/>
    <path clip-path="url(#p8b2457ddf6)" d="M 324.817535 768.328465 
L 327.67854 764.89122 
L 328.711733 769.242371 
L 324.817535 768.328465 
z
" style="stroke:#000000;stroke-linecap:round;"/>
   </g>
   <g id="patch_46">
    <path clip-path="url(#p8b2457ddf6)" d="M 287.968833 284.139583 
Q 278.433126 280.607494 269.945842 277.463748 
" style="fill:none;stroke:#000000;stroke-linecap:round;"/>
    <path clip-path="url(#p8b2457ddf6)" d="M 273.002104 280.7286 
L 269.945842 277.463748 
L 274.391481 276.97765 
L 273.002104 280.7286 
z
" style="stroke:#000000;stroke-linecap:round;"/>
   </g>
   <g id="patch_47">
    <path clip-path="url(#p8b2457ddf6)" d="M 251.070988 273.690041 
Q 253.780134 273.084695 255.398153 272.723156 
" style="fill:none;stroke:#000000;stroke-linecap:round;"/>
    <path clip-path="url(#p8b2457ddf6)" d="M 251.058283 271.64356 
L 255.398153 272.723156 
L 251.930554 275.547295 
L 251.058283 271.64356 
z
" style="stroke:#000000;stroke-linecap:round;"/>
   </g>
   <g id="patch_48">
    <path clip-path="url(#p8b2457ddf6)" d="M 299.047621 292.122239 
Q 306.991828 292.398434 313.818675 292.635783 
" style="fill:none;stroke:#000000;stroke-linecap:round;"/>
    <path clip-path="url(#p8b2457ddf6)" d="M 309.890582 290.498007 
L 313.818675 292.635783 
L 309.751599 294.495591 
L 309.890582 290.498007 
z
" style="stroke:#000000;stroke-linecap:round;"/>
   </g>
   <g id="patch_49">
    <path clip-path="url(#p8b2457ddf6)" d="M 310.652418 285.561472 
Q 313.334427 286.721625 314.990291 287.4379 
" style="fill:none;stroke:#000000;stroke-linecap:round;"/>
    <path clip-path="url(#p8b2457ddf6)" d="M 312.113078 284.014211 
L 314.990291 287.4379 
L 310.525012 287.685457 
L 312.113078 284.014211 
z
" style="stroke:#000000;stroke-linecap:round;"/>
   </g>
   <g id="PathCollection_1">
    <defs>
     <path d="M 0 13.228757 
C 3.508307 13.228757 6.873396 11.834891 9.354143 9.354143 
C 11.834891 6.873396 13.228757 3.508307 13.228757 0 
C 13.228757 -3.508307 11.834891 -6.873396 9.354143 -9.354143 
C 6.873396 -11.834891 3.508307 -13.228757 0 -13.228757 
C -3.508307 -13.228757 -6.873396 -11.834891 -9.354143 -9.354143 
C -11.834891 -6.873396 -13.228757 -3.508307 -13.228757 0 
C -13.228757 3.508307 -11.834891 6.873396 -9.354143 9.354143 
C -6.873396 11.834891 -3.508307 13.228757 0 13.228757 
z
" id="m4c3e4edb00" style="stroke:#87ceeb;"/>
    </defs>
    <g clip-path="url(#p8b2457ddf6)">
     <use style="fill:#87ceeb;stroke:#87ceeb;" x="329.355202" xlink:href="#m4c3e4edb00" y="74.975207"/>
     <use style="fill:#87ceeb;stroke:#87ceeb;" x="318.246647" xlink:href="#m4c3e4edb00" y="116.96605"/>
     <use style="fill:#87ceeb;stroke:#87ceeb;" x="313.985243" xlink:href="#m4c3e4edb00" y="145.110127"/>
     <use style="fill:#87ceeb;stroke:#87ceeb;" x="301.001" xlink:href="#m4c3e4edb00" y="232.385803"/>
     <use style="fill:#87ceeb;stroke:#87ceeb;" x="283.449263" xlink:href="#m4c3e4edb00" y="351.841542"/>
     <use style="fill:#87ceeb;stroke:#87ceeb;" x="146.333718" xlink:href="#m4c3e4edb00" y="133.506077"/>
     <use style="fill:#87ceeb;stroke:#87ceeb;" x="49.983471" xlink:href="#m4c3e4edb00" y="225.852893"/>
     <use style="fill:#87ceeb;stroke:#87ceeb;" x="218.625728" xlink:href="#m4c3e4edb00" y="269.035179"/>
     <use style="fill:#87ceeb;stroke:#87ceeb;" x="256.48928" xlink:href="#m4c3e4edb00" y="272.479349"/>
     <use style="fill:#87ceeb;stroke:#87ceeb;" x="495.25776" xlink:href="#m4c3e4edb00" y="154.101014"/>
     <use style="fill:#87ceeb;stroke:#87ceeb;" x="526.016529" xlink:href="#m4c3e4edb00" y="258.557492"/>
     <use style="fill:#87ceeb;stroke:#87ceeb;" x="367.138113" xlink:href="#m4c3e4edb00" y="293.544855"/>
     <use style="fill:#87ceeb;stroke:#87ceeb;" x="328.159202" xlink:href="#m4c3e4edb00" y="293.134358"/>
     <use style="fill:#87ceeb;stroke:#87ceeb;" x="204.978553" xlink:href="#m4c3e4edb00" y="350.103137"/>
     <use style="fill:#87ceeb;stroke:#87ceeb;" x="149.245171" xlink:href="#m4c3e4edb00" y="496.896078"/>
     <use style="fill:#87ceeb;stroke:#87ceeb;" x="154.198831" xlink:href="#m4c3e4edb00" y="653.811074"/>
     <use style="fill:#87ceeb;stroke:#87ceeb;" x="115.679678" xlink:href="#m4c3e4edb00" y="696.142329"/>
     <use style="fill:#87ceeb;stroke:#87ceeb;" x="362.308034" xlink:href="#m4c3e4edb00" y="359.26463"/>
     <use style="fill:#87ceeb;stroke:#87ceeb;" x="362.925932" xlink:href="#m4c3e4edb00" y="568.487762"/>
     <use style="fill:#87ceeb;stroke:#87ceeb;" x="330.956501" xlink:href="#m4c3e4edb00" y="750.92366"/>
     <use style="fill:#87ceeb;stroke:#87ceeb;" x="322.014779" xlink:href="#m4c3e4edb00" y="789.024793"/>
     <use style="fill:#87ceeb;stroke:#87ceeb;" x="300.372628" xlink:href="#m4c3e4edb00" y="288.73403"/>
     <use style="fill:#87ceeb;stroke:#87ceeb;" x="238.162835" xlink:href="#m4c3e4edb00" y="276.574307"/>
     <use style="fill:#87ceeb;stroke:#87ceeb;" x="285.826359" xlink:href="#m4c3e4edb00" y="291.662576"/>
     <use style="fill:#87ceeb;stroke:#87ceeb;" x="298.509508" xlink:href="#m4c3e4edb00" y="280.308829"/>
    </g>
   </g>
   <g id="text_1">
    <g clip-path="url(#p8b2457ddf6)">
     <!-- Head -->
     <g transform="translate(316.280202 77.734582)scale(0.1 -0.1)">
      <defs>
       <path d="M 9.8125 72.90625 
L 19.671875 72.90625 
L 19.671875 43.015625 
L 55.515625 43.015625 
L 55.515625 72.90625 
L 65.375 72.90625 
L 65.375 0 
L 55.515625 0 
L 55.515625 34.71875 
L 19.671875 34.71875 
L 19.671875 0 
L 9.8125 0 
z
" id="DejaVuSans-72"/>
       <path d="M 56.203125 29.59375 
L 56.203125 25.203125 
L 14.890625 25.203125 
Q 15.484375 15.921875 20.484375 11.0625 
Q 25.484375 6.203125 34.421875 6.203125 
Q 39.59375 6.203125 44.453125 7.46875 
Q 49.3125 8.734375 54.109375 11.28125 
L 54.109375 2.78125 
Q 49.265625 0.734375 44.1875 -0.34375 
Q 39.109375 -1.421875 33.890625 -1.421875 
Q 20.796875 -1.421875 13.15625 6.1875 
Q 5.515625 13.8125 5.515625 26.8125 
Q 5.515625 40.234375 12.765625 48.109375 
Q 20.015625 56 32.328125 56 
Q 43.359375 56 49.78125 48.890625 
Q 56.203125 41.796875 56.203125 29.59375 
z
M 47.21875 32.234375 
Q 47.125 39.59375 43.09375 43.984375 
Q 39.0625 48.390625 32.421875 48.390625 
Q 24.90625 48.390625 20.390625 44.140625 
Q 15.875 39.890625 15.1875 32.171875 
z
" id="DejaVuSans-101"/>
       <path d="M 34.28125 27.484375 
Q 23.390625 27.484375 19.1875 25 
Q 14.984375 22.515625 14.984375 16.5 
Q 14.984375 11.71875 18.140625 8.90625 
Q 21.296875 6.109375 26.703125 6.109375 
Q 34.1875 6.109375 38.703125 11.40625 
Q 43.21875 16.703125 43.21875 25.484375 
L 43.21875 27.484375 
z
M 52.203125 31.203125 
L 52.203125 0 
L 43.21875 0 
L 43.21875 8.296875 
Q 40.140625 3.328125 35.546875 0.953125 
Q 30.953125 -1.421875 24.3125 -1.421875 
Q 15.921875 -1.421875 10.953125 3.296875 
Q 6 8.015625 6 15.921875 
Q 6 25.140625 12.171875 29.828125 
Q 18.359375 34.515625 30.609375 34.515625 
L 43.21875 34.515625 
L 43.21875 35.40625 
Q 43.21875 41.609375 39.140625 45 
Q 35.0625 48.390625 27.6875 48.390625 
Q 23 48.390625 18.546875 47.265625 
Q 14.109375 46.140625 10.015625 43.890625 
L 10.015625 52.203125 
Q 14.9375 54.109375 19.578125 55.046875 
Q 24.21875 56 28.609375 56 
Q 40.484375 56 46.34375 49.84375 
Q 52.203125 43.703125 52.203125 31.203125 
z
" id="DejaVuSans-97"/>
       <path d="M 45.40625 46.390625 
L 45.40625 75.984375 
L 54.390625 75.984375 
L 54.390625 0 
L 45.40625 0 
L 45.40625 8.203125 
Q 42.578125 3.328125 38.25 0.953125 
Q 33.9375 -1.421875 27.875 -1.421875 
Q 17.96875 -1.421875 11.734375 6.484375 
Q 5.515625 14.40625 5.515625 27.296875 
Q 5.515625 40.1875 11.734375 48.09375 
Q 17.96875 56 27.875 56 
Q 33.9375 56 38.25 53.625 
Q 42.578125 51.265625 45.40625 46.390625 
z
M 14.796875 27.296875 
Q 14.796875 17.390625 18.875 11.75 
Q 22.953125 6.109375 30.078125 6.109375 
Q 37.203125 6.109375 41.296875 11.75 
Q 45.40625 17.390625 45.40625 27.296875 
Q 45.40625 37.203125 41.296875 42.84375 
Q 37.203125 48.484375 30.078125 48.484375 
Q 22.953125 48.484375 18.875 42.84375 
Q 14.796875 37.203125 14.796875 27.296875 
z
" id="DejaVuSans-100"/>
      </defs>
      <use xlink:href="#DejaVuSans-72"/>
      <use x="75.195312" xlink:href="#DejaVuSans-101"/>
      <use x="136.71875" xlink:href="#DejaVuSans-97"/>
      <use x="197.998047" xlink:href="#DejaVuSans-100"/>
     </g>
    </g>
   </g>
   <g id="text_2">
    <g clip-path="url(#p8b2457ddf6)">
     <!-- c7 -->
     <g transform="translate(312.316178 119.725425)scale(0.1 -0.1)">
      <defs>
       <path d="M 48.78125 52.59375 
L 48.78125 44.1875 
Q 44.96875 46.296875 41.140625 47.34375 
Q 37.3125 48.390625 33.40625 48.390625 
Q 24.65625 48.390625 19.8125 42.84375 
Q 14.984375 37.3125 14.984375 27.296875 
Q 14.984375 17.28125 19.8125 11.734375 
Q 24.65625 6.203125 33.40625 6.203125 
Q 37.3125 6.203125 41.140625 7.25 
Q 44.96875 8.296875 48.78125 10.40625 
L 48.78125 2.09375 
Q 45.015625 0.34375 40.984375 -0.53125 
Q 36.96875 -1.421875 32.421875 -1.421875 
Q 20.0625 -1.421875 12.78125 6.34375 
Q 5.515625 14.109375 5.515625 27.296875 
Q 5.515625 40.671875 12.859375 48.328125 
Q 20.21875 56 33.015625 56 
Q 37.15625 56 41.109375 55.140625 
Q 45.0625 54.296875 48.78125 52.59375 
z
" id="DejaVuSans-99"/>
       <path d="M 8.203125 72.90625 
L 55.078125 72.90625 
L 55.078125 68.703125 
L 28.609375 0 
L 18.3125 0 
L 43.21875 64.59375 
L 8.203125 64.59375 
z
" id="DejaVuSans-55"/>
      </defs>
      <use xlink:href="#DejaVuSans-99"/>
      <use x="54.980469" xlink:href="#DejaVuSans-55"/>
     </g>
    </g>
   </g>
   <g id="text_3">
    <g clip-path="url(#p8b2457ddf6)">
     <!-- SpineShoulder -->
     <g transform="translate(277.736024 147.869502)scale(0.1 -0.1)">
      <defs>
       <path d="M 53.515625 70.515625 
L 53.515625 60.890625 
Q 47.90625 63.578125 42.921875 64.890625 
Q 37.9375 66.21875 33.296875 66.21875 
Q 25.25 66.21875 20.875 63.09375 
Q 16.5 59.96875 16.5 54.203125 
Q 16.5 49.359375 19.40625 46.890625 
Q 22.3125 44.4375 30.421875 42.921875 
L 36.375 41.703125 
Q 47.40625 39.59375 52.65625 34.296875 
Q 57.90625 29 57.90625 20.125 
Q 57.90625 9.515625 50.796875 4.046875 
Q 43.703125 -1.421875 29.984375 -1.421875 
Q 24.8125 -1.421875 18.96875 -0.25 
Q 13.140625 0.921875 6.890625 3.21875 
L 6.890625 13.375 
Q 12.890625 10.015625 18.65625 8.296875 
Q 24.421875 6.59375 29.984375 6.59375 
Q 38.421875 6.59375 43.015625 9.90625 
Q 47.609375 13.234375 47.609375 19.390625 
Q 47.609375 24.75 44.3125 27.78125 
Q 41.015625 30.8125 33.5 32.328125 
L 27.484375 33.5 
Q 16.453125 35.6875 11.515625 40.375 
Q 6.59375 45.0625 6.59375 53.421875 
Q 6.59375 63.09375 13.40625 68.65625 
Q 20.21875 74.21875 32.171875 74.21875 
Q 37.3125 74.21875 42.625 73.28125 
Q 47.953125 72.359375 53.515625 70.515625 
z
" id="DejaVuSans-83"/>
       <path d="M 18.109375 8.203125 
L 18.109375 -20.796875 
L 9.078125 -20.796875 
L 9.078125 54.6875 
L 18.109375 54.6875 
L 18.109375 46.390625 
Q 20.953125 51.265625 25.265625 53.625 
Q 29.59375 56 35.59375 56 
Q 45.5625 56 51.78125 48.09375 
Q 58.015625 40.1875 58.015625 27.296875 
Q 58.015625 14.40625 51.78125 6.484375 
Q 45.5625 -1.421875 35.59375 -1.421875 
Q 29.59375 -1.421875 25.265625 0.953125 
Q 20.953125 3.328125 18.109375 8.203125 
z
M 48.6875 27.296875 
Q 48.6875 37.203125 44.609375 42.84375 
Q 40.53125 48.484375 33.40625 48.484375 
Q 26.265625 48.484375 22.1875 42.84375 
Q 18.109375 37.203125 18.109375 27.296875 
Q 18.109375 17.390625 22.1875 11.75 
Q 26.265625 6.109375 33.40625 6.109375 
Q 40.53125 6.109375 44.609375 11.75 
Q 48.6875 17.390625 48.6875 27.296875 
z
" id="DejaVuSans-112"/>
       <path d="M 9.421875 54.6875 
L 18.40625 54.6875 
L 18.40625 0 
L 9.421875 0 
z
M 9.421875 75.984375 
L 18.40625 75.984375 
L 18.40625 64.59375 
L 9.421875 64.59375 
z
" id="DejaVuSans-105"/>
       <path d="M 54.890625 33.015625 
L 54.890625 0 
L 45.90625 0 
L 45.90625 32.71875 
Q 45.90625 40.484375 42.875 44.328125 
Q 39.84375 48.1875 33.796875 48.1875 
Q 26.515625 48.1875 22.3125 43.546875 
Q 18.109375 38.921875 18.109375 30.90625 
L 18.109375 0 
L 9.078125 0 
L 9.078125 54.6875 
L 18.109375 54.6875 
L 18.109375 46.1875 
Q 21.34375 51.125 25.703125 53.5625 
Q 30.078125 56 35.796875 56 
Q 45.21875 56 50.046875 50.171875 
Q 54.890625 44.34375 54.890625 33.015625 
z
" id="DejaVuSans-110"/>
       <path d="M 54.890625 33.015625 
L 54.890625 0 
L 45.90625 0 
L 45.90625 32.71875 
Q 45.90625 40.484375 42.875 44.328125 
Q 39.84375 48.1875 33.796875 48.1875 
Q 26.515625 48.1875 22.3125 43.546875 
Q 18.109375 38.921875 18.109375 30.90625 
L 18.109375 0 
L 9.078125 0 
L 9.078125 75.984375 
L 18.109375 75.984375 
L 18.109375 46.1875 
Q 21.34375 51.125 25.703125 53.5625 
Q 30.078125 56 35.796875 56 
Q 45.21875 56 50.046875 50.171875 
Q 54.890625 44.34375 54.890625 33.015625 
z
" id="DejaVuSans-104"/>
       <path d="M 30.609375 48.390625 
Q 23.390625 48.390625 19.1875 42.75 
Q 14.984375 37.109375 14.984375 27.296875 
Q 14.984375 17.484375 19.15625 11.84375 
Q 23.34375 6.203125 30.609375 6.203125 
Q 37.796875 6.203125 41.984375 11.859375 
Q 46.1875 17.53125 46.1875 27.296875 
Q 46.1875 37.015625 41.984375 42.703125 
Q 37.796875 48.390625 30.609375 48.390625 
z
M 30.609375 56 
Q 42.328125 56 49.015625 48.375 
Q 55.71875 40.765625 55.71875 27.296875 
Q 55.71875 13.875 49.015625 6.21875 
Q 42.328125 -1.421875 30.609375 -1.421875 
Q 18.84375 -1.421875 12.171875 6.21875 
Q 5.515625 13.875 5.515625 27.296875 
Q 5.515625 40.765625 12.171875 48.375 
Q 18.84375 56 30.609375 56 
z
" id="DejaVuSans-111"/>
       <path d="M 8.5 21.578125 
L 8.5 54.6875 
L 17.484375 54.6875 
L 17.484375 21.921875 
Q 17.484375 14.15625 20.5 10.265625 
Q 23.53125 6.390625 29.59375 6.390625 
Q 36.859375 6.390625 41.078125 11.03125 
Q 45.3125 15.671875 45.3125 23.6875 
L 45.3125 54.6875 
L 54.296875 54.6875 
L 54.296875 0 
L 45.3125 0 
L 45.3125 8.40625 
Q 42.046875 3.421875 37.71875 1 
Q 33.40625 -1.421875 27.6875 -1.421875 
Q 18.265625 -1.421875 13.375 4.4375 
Q 8.5 10.296875 8.5 21.578125 
z
M 31.109375 56 
z
" id="DejaVuSans-117"/>
       <path d="M 9.421875 75.984375 
L 18.40625 75.984375 
L 18.40625 0 
L 9.421875 0 
z
" id="DejaVuSans-108"/>
       <path d="M 41.109375 46.296875 
Q 39.59375 47.171875 37.8125 47.578125 
Q 36.03125 48 33.890625 48 
Q 26.265625 48 22.1875 43.046875 
Q 18.109375 38.09375 18.109375 28.8125 
L 18.109375 0 
L 9.078125 0 
L 9.078125 54.6875 
L 18.109375 54.6875 
L 18.109375 46.1875 
Q 20.953125 51.171875 25.484375 53.578125 
Q 30.03125 56 36.53125 56 
Q 37.453125 56 38.578125 55.875 
Q 39.703125 55.765625 41.0625 55.515625 
z
" id="DejaVuSans-114"/>
      </defs>
      <use xlink:href="#DejaVuSans-83"/>
      <use x="63.476562" xlink:href="#DejaVuSans-112"/>
      <use x="126.953125" xlink:href="#DejaVuSans-105"/>
      <use x="154.736328" xlink:href="#DejaVuSans-110"/>
      <use x="218.115234" xlink:href="#DejaVuSans-101"/>
      <use x="279.638672" xlink:href="#DejaVuSans-83"/>
      <use x="343.115234" xlink:href="#DejaVuSans-104"/>
      <use x="406.494141" xlink:href="#DejaVuSans-111"/>
      <use x="467.675781" xlink:href="#DejaVuSans-117"/>
      <use x="531.054688" xlink:href="#DejaVuSans-108"/>
      <use x="558.837891" xlink:href="#DejaVuSans-100"/>
      <use x="622.314453" xlink:href="#DejaVuSans-101"/>
      <use x="683.837891" xlink:href="#DejaVuSans-114"/>
     </g>
    </g>
   </g>
   <g id="text_4">
    <g clip-path="url(#p8b2457ddf6)">
     <!-- Spine -->
     <g transform="translate(287.018187 235.145178)scale(0.1 -0.1)">
      <use xlink:href="#DejaVuSans-83"/>
      <use x="63.476562" xlink:href="#DejaVuSans-112"/>
      <use x="126.953125" xlink:href="#DejaVuSans-105"/>
      <use x="154.736328" xlink:href="#DejaVuSans-110"/>
      <use x="218.115234" xlink:href="#DejaVuSans-101"/>
     </g>
    </g>
   </g>
   <g id="text_5">
    <g clip-path="url(#p8b2457ddf6)">
     <!-- Sacr -->
     <g transform="translate(272.406294 354.600917)scale(0.1 -0.1)">
      <use xlink:href="#DejaVuSans-83"/>
      <use x="63.476562" xlink:href="#DejaVuSans-97"/>
      <use x="124.755859" xlink:href="#DejaVuSans-99"/>
      <use x="179.736328" xlink:href="#DejaVuSans-114"/>
     </g>
    </g>
   </g>
   <g id="text_6">
    <g clip-path="url(#p8b2457ddf6)">
     <!-- LShoulder -->
     <g transform="translate(121.281374 136.265452)scale(0.1 -0.1)">
      <defs>
       <path d="M 9.8125 72.90625 
L 19.671875 72.90625 
L 19.671875 8.296875 
L 55.171875 8.296875 
L 55.171875 0 
L 9.8125 0 
z
" id="DejaVuSans-76"/>
      </defs>
      <use xlink:href="#DejaVuSans-76"/>
      <use x="55.712891" xlink:href="#DejaVuSans-83"/>
      <use x="119.189453" xlink:href="#DejaVuSans-104"/>
      <use x="182.568359" xlink:href="#DejaVuSans-111"/>
      <use x="243.75" xlink:href="#DejaVuSans-117"/>
      <use x="307.128906" xlink:href="#DejaVuSans-108"/>
      <use x="334.912109" xlink:href="#DejaVuSans-100"/>
      <use x="398.388672" xlink:href="#DejaVuSans-101"/>
      <use x="459.912109" xlink:href="#DejaVuSans-114"/>
     </g>
    </g>
   </g>
   <g id="text_7">
    <g clip-path="url(#p8b2457ddf6)">
     <!-- LElbow -->
     <g transform="translate(32.32644 228.612268)scale(0.1 -0.1)">
      <defs>
       <path d="M 9.8125 72.90625 
L 55.90625 72.90625 
L 55.90625 64.59375 
L 19.671875 64.59375 
L 19.671875 43.015625 
L 54.390625 43.015625 
L 54.390625 34.71875 
L 19.671875 34.71875 
L 19.671875 8.296875 
L 56.78125 8.296875 
L 56.78125 0 
L 9.8125 0 
z
" id="DejaVuSans-69"/>
       <path d="M 48.6875 27.296875 
Q 48.6875 37.203125 44.609375 42.84375 
Q 40.53125 48.484375 33.40625 48.484375 
Q 26.265625 48.484375 22.1875 42.84375 
Q 18.109375 37.203125 18.109375 27.296875 
Q 18.109375 17.390625 22.1875 11.75 
Q 26.265625 6.109375 33.40625 6.109375 
Q 40.53125 6.109375 44.609375 11.75 
Q 48.6875 17.390625 48.6875 27.296875 
z
M 18.109375 46.390625 
Q 20.953125 51.265625 25.265625 53.625 
Q 29.59375 56 35.59375 56 
Q 45.5625 56 51.78125 48.09375 
Q 58.015625 40.1875 58.015625 27.296875 
Q 58.015625 14.40625 51.78125 6.484375 
Q 45.5625 -1.421875 35.59375 -1.421875 
Q 29.59375 -1.421875 25.265625 0.953125 
Q 20.953125 3.328125 18.109375 8.203125 
L 18.109375 0 
L 9.078125 0 
L 9.078125 75.984375 
L 18.109375 75.984375 
z
" id="DejaVuSans-98"/>
       <path d="M 4.203125 54.6875 
L 13.1875 54.6875 
L 24.421875 12.015625 
L 35.59375 54.6875 
L 46.1875 54.6875 
L 57.421875 12.015625 
L 68.609375 54.6875 
L 77.59375 54.6875 
L 63.28125 0 
L 52.6875 0 
L 40.921875 44.828125 
L 29.109375 0 
L 18.5 0 
z
" id="DejaVuSans-119"/>
      </defs>
      <use xlink:href="#DejaVuSans-76"/>
      <use x="55.712891" xlink:href="#DejaVuSans-69"/>
      <use x="118.896484" xlink:href="#DejaVuSans-108"/>
      <use x="146.679688" xlink:href="#DejaVuSans-98"/>
      <use x="210.15625" xlink:href="#DejaVuSans-111"/>
      <use x="271.337891" xlink:href="#DejaVuSans-119"/>
     </g>
    </g>
   </g>
   <g id="text_8">
    <g clip-path="url(#p8b2457ddf6)">
     <!-- LWrist -->
     <g transform="translate(203.567915 271.794554)scale(0.1 -0.1)">
      <defs>
       <path d="M 3.328125 72.90625 
L 13.28125 72.90625 
L 28.609375 11.28125 
L 43.890625 72.90625 
L 54.984375 72.90625 
L 70.3125 11.28125 
L 85.59375 72.90625 
L 95.609375 72.90625 
L 77.296875 0 
L 64.890625 0 
L 49.515625 63.28125 
L 33.984375 0 
L 21.578125 0 
z
" id="DejaVuSans-87"/>
       <path d="M 44.28125 53.078125 
L 44.28125 44.578125 
Q 40.484375 46.53125 36.375 47.5 
Q 32.28125 48.484375 27.875 48.484375 
Q 21.1875 48.484375 17.84375 46.4375 
Q 14.5 44.390625 14.5 40.28125 
Q 14.5 37.15625 16.890625 35.375 
Q 19.28125 33.59375 26.515625 31.984375 
L 29.59375 31.296875 
Q 39.15625 29.25 43.1875 25.515625 
Q 47.21875 21.78125 47.21875 15.09375 
Q 47.21875 7.46875 41.1875 3.015625 
Q 35.15625 -1.421875 24.609375 -1.421875 
Q 20.21875 -1.421875 15.453125 -0.5625 
Q 10.6875 0.296875 5.421875 2 
L 5.421875 11.28125 
Q 10.40625 8.6875 15.234375 7.390625 
Q 20.0625 6.109375 24.8125 6.109375 
Q 31.15625 6.109375 34.5625 8.28125 
Q 37.984375 10.453125 37.984375 14.40625 
Q 37.984375 18.0625 35.515625 20.015625 
Q 33.0625 21.96875 24.703125 23.78125 
L 21.578125 24.515625 
Q 13.234375 26.265625 9.515625 29.90625 
Q 5.8125 33.546875 5.8125 39.890625 
Q 5.8125 47.609375 11.28125 51.796875 
Q 16.75 56 26.8125 56 
Q 31.78125 56 36.171875 55.265625 
Q 40.578125 54.546875 44.28125 53.078125 
z
" id="DejaVuSans-115"/>
       <path d="M 18.3125 70.21875 
L 18.3125 54.6875 
L 36.8125 54.6875 
L 36.8125 47.703125 
L 18.3125 47.703125 
L 18.3125 18.015625 
Q 18.3125 11.328125 20.140625 9.421875 
Q 21.96875 7.515625 27.59375 7.515625 
L 36.8125 7.515625 
L 36.8125 0 
L 27.59375 0 
Q 17.1875 0 13.234375 3.875 
Q 9.28125 7.765625 9.28125 18.015625 
L 9.28125 47.703125 
L 2.6875 47.703125 
L 2.6875 54.6875 
L 9.28125 54.6875 
L 9.28125 70.21875 
z
" id="DejaVuSans-116"/>
      </defs>
      <use xlink:href="#DejaVuSans-76"/>
      <use x="46.587891" xlink:href="#DejaVuSans-87"/>
      <use x="140.964844" xlink:href="#DejaVuSans-114"/>
      <use x="182.078125" xlink:href="#DejaVuSans-105"/>
      <use x="209.861328" xlink:href="#DejaVuSans-115"/>
      <use x="261.960938" xlink:href="#DejaVuSans-116"/>
     </g>
    </g>
   </g>
   <g id="text_9">
    <g clip-path="url(#p8b2457ddf6)">
     <!-- LHand -->
     <g transform="translate(240.536155 275.238724)scale(0.1 -0.1)">
      <use xlink:href="#DejaVuSans-76"/>
      <use x="55.712891" xlink:href="#DejaVuSans-72"/>
      <use x="130.908203" xlink:href="#DejaVuSans-97"/>
      <use x="192.1875" xlink:href="#DejaVuSans-110"/>
      <use x="255.566406" xlink:href="#DejaVuSans-100"/>
     </g>
    </g>
   </g>
   <g id="text_10">
    <g clip-path="url(#p8b2457ddf6)">
     <!-- RShoulder -->
     <g transform="translate(469.517135 156.860389)scale(0.1 -0.1)">
      <defs>
       <path d="M 44.390625 34.1875 
Q 47.5625 33.109375 50.5625 29.59375 
Q 53.5625 26.078125 56.59375 19.921875 
L 66.609375 0 
L 56 0 
L 46.6875 18.703125 
Q 43.0625 26.03125 39.671875 28.421875 
Q 36.28125 30.8125 30.421875 30.8125 
L 19.671875 30.8125 
L 19.671875 0 
L 9.8125 0 
L 9.8125 72.90625 
L 32.078125 72.90625 
Q 44.578125 72.90625 50.734375 67.671875 
Q 56.890625 62.453125 56.890625 51.90625 
Q 56.890625 45.015625 53.6875 40.46875 
Q 50.484375 35.9375 44.390625 34.1875 
z
M 19.671875 64.796875 
L 19.671875 38.921875 
L 32.078125 38.921875 
Q 39.203125 38.921875 42.84375 42.21875 
Q 46.484375 45.515625 46.484375 51.90625 
Q 46.484375 58.296875 42.84375 61.546875 
Q 39.203125 64.796875 32.078125 64.796875 
z
" id="DejaVuSans-82"/>
      </defs>
      <use xlink:href="#DejaVuSans-82"/>
      <use x="69.482422" xlink:href="#DejaVuSans-83"/>
      <use x="132.958984" xlink:href="#DejaVuSans-104"/>
      <use x="196.337891" xlink:href="#DejaVuSans-111"/>
      <use x="257.519531" xlink:href="#DejaVuSans-117"/>
      <use x="320.898438" xlink:href="#DejaVuSans-108"/>
      <use x="348.681641" xlink:href="#DejaVuSans-100"/>
      <use x="412.158203" xlink:href="#DejaVuSans-101"/>
      <use x="473.681641" xlink:href="#DejaVuSans-114"/>
     </g>
    </g>
   </g>
   <g id="text_11">
    <g clip-path="url(#p8b2457ddf6)">
     <!-- RElbow -->
     <g transform="translate(507.671216 261.316867)scale(0.1 -0.1)">
      <use xlink:href="#DejaVuSans-82"/>
      <use x="69.482422" xlink:href="#DejaVuSans-69"/>
      <use x="132.666016" xlink:href="#DejaVuSans-108"/>
      <use x="160.449219" xlink:href="#DejaVuSans-98"/>
      <use x="223.925781" xlink:href="#DejaVuSans-111"/>
      <use x="285.107422" xlink:href="#DejaVuSans-119"/>
     </g>
    </g>
   </g>
   <g id="text_12">
    <g clip-path="url(#p8b2457ddf6)">
     <!-- RWrist -->
     <g transform="translate(351.13577 296.30423)scale(0.1 -0.1)">
      <use xlink:href="#DejaVuSans-82"/>
      <use x="65.482422" xlink:href="#DejaVuSans-87"/>
      <use x="159.859375" xlink:href="#DejaVuSans-114"/>
      <use x="200.972656" xlink:href="#DejaVuSans-105"/>
      <use x="228.755859" xlink:href="#DejaVuSans-115"/>
      <use x="280.855469" xlink:href="#DejaVuSans-116"/>
     </g>
    </g>
   </g>
   <g id="text_13">
    <g clip-path="url(#p8b2457ddf6)">
     <!-- RHand -->
     <g transform="translate(311.517796 295.893733)scale(0.1 -0.1)">
      <use xlink:href="#DejaVuSans-82"/>
      <use x="69.482422" xlink:href="#DejaVuSans-72"/>
      <use x="144.677734" xlink:href="#DejaVuSans-97"/>
      <use x="205.957031" xlink:href="#DejaVuSans-110"/>
      <use x="269.335938" xlink:href="#DejaVuSans-100"/>
     </g>
    </g>
   </g>
   <g id="text_14">
    <g clip-path="url(#p8b2457ddf6)">
     <!-- LHip -->
     <g transform="translate(193.869178 352.862512)scale(0.1 -0.1)">
      <use xlink:href="#DejaVuSans-76"/>
      <use x="55.712891" xlink:href="#DejaVuSans-72"/>
      <use x="130.908203" xlink:href="#DejaVuSans-105"/>
      <use x="158.691406" xlink:href="#DejaVuSans-112"/>
     </g>
    </g>
   </g>
   <g id="text_15">
    <g clip-path="url(#p8b2457ddf6)">
     <!-- LKnee -->
     <g transform="translate(133.858453 499.655453)scale(0.1 -0.1)">
      <defs>
       <path d="M 9.8125 72.90625 
L 19.671875 72.90625 
L 19.671875 42.09375 
L 52.390625 72.90625 
L 65.09375 72.90625 
L 28.90625 38.921875 
L 67.671875 0 
L 54.6875 0 
L 19.671875 35.109375 
L 19.671875 0 
L 9.8125 0 
z
" id="DejaVuSans-75"/>
      </defs>
      <use xlink:href="#DejaVuSans-76"/>
      <use x="55.712891" xlink:href="#DejaVuSans-75"/>
      <use x="121.289062" xlink:href="#DejaVuSans-110"/>
      <use x="184.667969" xlink:href="#DejaVuSans-101"/>
      <use x="246.191406" xlink:href="#DejaVuSans-101"/>
     </g>
    </g>
   </g>
   <g id="text_16">
    <g clip-path="url(#p8b2457ddf6)">
     <!-- LAnkle -->
     <g transform="translate(137.350393 656.570449)scale(0.1 -0.1)">
      <defs>
       <path d="M 34.1875 63.1875 
L 20.796875 26.90625 
L 47.609375 26.90625 
z
M 28.609375 72.90625 
L 39.796875 72.90625 
L 67.578125 0 
L 57.328125 0 
L 50.6875 18.703125 
L 17.828125 18.703125 
L 11.1875 0 
L 0.78125 0 
z
" id="DejaVuSans-65"/>
       <path d="M 9.078125 75.984375 
L 18.109375 75.984375 
L 18.109375 31.109375 
L 44.921875 54.6875 
L 56.390625 54.6875 
L 27.390625 29.109375 
L 57.625 0 
L 45.90625 0 
L 18.109375 26.703125 
L 18.109375 0 
L 9.078125 0 
z
" id="DejaVuSans-107"/>
      </defs>
      <use xlink:href="#DejaVuSans-76"/>
      <use x="57.962891" xlink:href="#DejaVuSans-65"/>
      <use x="126.371094" xlink:href="#DejaVuSans-110"/>
      <use x="189.75" xlink:href="#DejaVuSans-107"/>
      <use x="247.660156" xlink:href="#DejaVuSans-108"/>
      <use x="275.443359" xlink:href="#DejaVuSans-101"/>
     </g>
    </g>
   </g>
   <g id="text_17">
    <g clip-path="url(#p8b2457ddf6)">
     <!-- LFoot -->
     <g transform="translate(102.120303 698.901704)scale(0.1 -0.1)">
      <defs>
       <path d="M 9.8125 72.90625 
L 51.703125 72.90625 
L 51.703125 64.59375 
L 19.671875 64.59375 
L 19.671875 43.109375 
L 48.578125 43.109375 
L 48.578125 34.8125 
L 19.671875 34.8125 
L 19.671875 0 
L 9.8125 0 
z
" id="DejaVuSans-70"/>
      </defs>
      <use xlink:href="#DejaVuSans-76"/>
      <use x="55.712891" xlink:href="#DejaVuSans-70"/>
      <use x="109.607422" xlink:href="#DejaVuSans-111"/>
      <use x="170.789062" xlink:href="#DejaVuSans-111"/>
      <use x="231.970703" xlink:href="#DejaVuSans-116"/>
     </g>
    </g>
   </g>
   <g id="text_18">
    <g clip-path="url(#p8b2457ddf6)">
     <!-- RHip -->
     <g transform="translate(350.510377 362.024005)scale(0.1 -0.1)">
      <use xlink:href="#DejaVuSans-82"/>
      <use x="69.482422" xlink:href="#DejaVuSans-72"/>
      <use x="144.677734" xlink:href="#DejaVuSans-105"/>
      <use x="172.460938" xlink:href="#DejaVuSans-112"/>
     </g>
    </g>
   </g>
   <g id="text_19">
    <g clip-path="url(#p8b2457ddf6)">
     <!-- RKnee -->
     <g transform="translate(346.850932 571.247137)scale(0.1 -0.1)">
      <use xlink:href="#DejaVuSans-82"/>
      <use x="69.482422" xlink:href="#DejaVuSans-75"/>
      <use x="135.058594" xlink:href="#DejaVuSans-110"/>
      <use x="198.4375" xlink:href="#DejaVuSans-101"/>
      <use x="259.960938" xlink:href="#DejaVuSans-101"/>
     </g>
    </g>
   </g>
   <g id="text_20">
    <g clip-path="url(#p8b2457ddf6)">
     <!-- RAnkle -->
     <g transform="translate(313.732282 753.683035)scale(0.1 -0.1)">
      <use xlink:href="#DejaVuSans-82"/>
      <use x="65.482422" xlink:href="#DejaVuSans-65"/>
      <use x="133.890625" xlink:href="#DejaVuSans-110"/>
      <use x="197.269531" xlink:href="#DejaVuSans-107"/>
      <use x="255.179688" xlink:href="#DejaVuSans-108"/>
      <use x="282.962891" xlink:href="#DejaVuSans-101"/>
     </g>
    </g>
   </g>
   <g id="text_21">
    <g clip-path="url(#p8b2457ddf6)">
     <!-- RFoot -->
     <g transform="translate(307.767123 791.784168)scale(0.1 -0.1)">
      <use xlink:href="#DejaVuSans-82"/>
      <use x="69.482422" xlink:href="#DejaVuSans-70"/>
      <use x="123.376953" xlink:href="#DejaVuSans-111"/>
      <use x="184.558594" xlink:href="#DejaVuSans-111"/>
      <use x="245.740234" xlink:href="#DejaVuSans-116"/>
     </g>
    </g>
   </g>
   <g id="text_22">
    <g clip-path="url(#p8b2457ddf6)">
     <!-- LHandTip -->
     <g transform="translate(276.958566 291.493405)scale(0.1 -0.1)">
      <defs>
       <path d="M -0.296875 72.90625 
L 61.375 72.90625 
L 61.375 64.59375 
L 35.5 64.59375 
L 35.5 0 
L 25.59375 0 
L 25.59375 64.59375 
L -0.296875 64.59375 
z
" id="DejaVuSans-84"/>
      </defs>
      <use xlink:href="#DejaVuSans-76"/>
      <use x="55.712891" xlink:href="#DejaVuSans-72"/>
      <use x="130.908203" xlink:href="#DejaVuSans-97"/>
      <use x="192.1875" xlink:href="#DejaVuSans-110"/>
      <use x="255.566406" xlink:href="#DejaVuSans-100"/>
      <use x="319.042969" xlink:href="#DejaVuSans-84"/>
      <use x="377.001953" xlink:href="#DejaVuSans-105"/>
      <use x="404.785156" xlink:href="#DejaVuSans-112"/>
     </g>
    </g>
   </g>
   <g id="text_23">
    <g clip-path="url(#p8b2457ddf6)">
     <!-- LThumb -->
     <g transform="translate(218.62846 279.333682)scale(0.1 -0.1)">
      <defs>
       <path d="M 52 44.1875 
Q 55.375 50.25 60.0625 53.125 
Q 64.75 56 71.09375 56 
Q 79.640625 56 84.28125 50.015625 
Q 88.921875 44.046875 88.921875 33.015625 
L 88.921875 0 
L 79.890625 0 
L 79.890625 32.71875 
Q 79.890625 40.578125 77.09375 44.375 
Q 74.3125 48.1875 68.609375 48.1875 
Q 61.625 48.1875 57.5625 43.546875 
Q 53.515625 38.921875 53.515625 30.90625 
L 53.515625 0 
L 44.484375 0 
L 44.484375 32.71875 
Q 44.484375 40.625 41.703125 44.40625 
Q 38.921875 48.1875 33.109375 48.1875 
Q 26.21875 48.1875 22.15625 43.53125 
Q 18.109375 38.875 18.109375 30.90625 
L 18.109375 0 
L 9.078125 0 
L 9.078125 54.6875 
L 18.109375 54.6875 
L 18.109375 46.1875 
Q 21.1875 51.21875 25.484375 53.609375 
Q 29.78125 56 35.6875 56 
Q 41.65625 56 45.828125 52.96875 
Q 50 49.953125 52 44.1875 
z
" id="DejaVuSans-109"/>
      </defs>
      <use xlink:href="#DejaVuSans-76"/>
      <use x="41.962891" xlink:href="#DejaVuSans-84"/>
      <use x="103.046875" xlink:href="#DejaVuSans-104"/>
      <use x="166.425781" xlink:href="#DejaVuSans-117"/>
      <use x="229.804688" xlink:href="#DejaVuSans-109"/>
      <use x="327.216797" xlink:href="#DejaVuSans-98"/>
     </g>
    </g>
   </g>
   <g id="text_24">
    <g clip-path="url(#p8b2457ddf6)">
     <!-- RHandTip -->
     <g transform="translate(261.724016 294.421951)scale(0.1 -0.1)">
      <use xlink:href="#DejaVuSans-82"/>
      <use x="69.482422" xlink:href="#DejaVuSans-72"/>
      <use x="144.677734" xlink:href="#DejaVuSans-97"/>
      <use x="205.957031" xlink:href="#DejaVuSans-110"/>
      <use x="269.335938" xlink:href="#DejaVuSans-100"/>
      <use x="332.8125" xlink:href="#DejaVuSans-84"/>
      <use x="390.771484" xlink:href="#DejaVuSans-105"/>
      <use x="418.554688" xlink:href="#DejaVuSans-112"/>
     </g>
    </g>
   </g>
   <g id="text_25">
    <g clip-path="url(#p8b2457ddf6)">
     <!-- RThumb -->
     <g transform="translate(277.961852 283.068204)scale(0.1 -0.1)">
      <use xlink:href="#DejaVuSans-82"/>
      <use x="62.232422" xlink:href="#DejaVuSans-84"/>
      <use x="123.316406" xlink:href="#DejaVuSans-104"/>
      <use x="186.695312" xlink:href="#DejaVuSans-117"/>
      <use x="250.074219" xlink:href="#DejaVuSans-109"/>
      <use x="347.486328" xlink:href="#DejaVuSans-98"/>
     </g>
    </g>
   </g>
   <g id="text_26">
    <!-- Node Graph Visualization - Frame 17 -->
    <g transform="translate(178.011563 -6)scale(0.12 -0.12)">
     <defs>
      <path d="M 9.8125 72.90625 
L 23.09375 72.90625 
L 55.421875 11.921875 
L 55.421875 72.90625 
L 64.984375 72.90625 
L 64.984375 0 
L 51.703125 0 
L 19.390625 60.984375 
L 19.390625 0 
L 9.8125 0 
z
" id="DejaVuSans-78"/>
      <path id="DejaVuSans-32"/>
      <path d="M 59.515625 10.40625 
L 59.515625 29.984375 
L 43.40625 29.984375 
L 43.40625 38.09375 
L 69.28125 38.09375 
L 69.28125 6.78125 
Q 63.578125 2.734375 56.6875 0.65625 
Q 49.8125 -1.421875 42 -1.421875 
Q 24.90625 -1.421875 15.25 8.5625 
Q 5.609375 18.5625 5.609375 36.375 
Q 5.609375 54.25 15.25 64.234375 
Q 24.90625 74.21875 42 74.21875 
Q 49.125 74.21875 55.546875 72.453125 
Q 61.96875 70.703125 67.390625 67.28125 
L 67.390625 56.78125 
Q 61.921875 61.421875 55.765625 63.765625 
Q 49.609375 66.109375 42.828125 66.109375 
Q 29.4375 66.109375 22.71875 58.640625 
Q 16.015625 51.171875 16.015625 36.375 
Q 16.015625 21.625 22.71875 14.15625 
Q 29.4375 6.6875 42.828125 6.6875 
Q 48.046875 6.6875 52.140625 7.59375 
Q 56.25 8.5 59.515625 10.40625 
z
" id="DejaVuSans-71"/>
      <path d="M 28.609375 0 
L 0.78125 72.90625 
L 11.078125 72.90625 
L 34.1875 11.53125 
L 57.328125 72.90625 
L 67.578125 72.90625 
L 39.796875 0 
z
" id="DejaVuSans-86"/>
      <path d="M 5.515625 54.6875 
L 48.1875 54.6875 
L 48.1875 46.484375 
L 14.40625 7.171875 
L 48.1875 7.171875 
L 48.1875 0 
L 4.296875 0 
L 4.296875 8.203125 
L 38.09375 47.515625 
L 5.515625 47.515625 
z
" id="DejaVuSans-122"/>
      <path d="M 4.890625 31.390625 
L 31.203125 31.390625 
L 31.203125 23.390625 
L 4.890625 23.390625 
z
" id="DejaVuSans-45"/>
      <path d="M 12.40625 8.296875 
L 28.515625 8.296875 
L 28.515625 63.921875 
L 10.984375 60.40625 
L 10.984375 69.390625 
L 28.421875 72.90625 
L 38.28125 72.90625 
L 38.28125 8.296875 
L 54.390625 8.296875 
L 54.390625 0 
L 12.40625 0 
z
" id="DejaVuSans-49"/>
     </defs>
     <use xlink:href="#DejaVuSans-78"/>
     <use x="74.804688" xlink:href="#DejaVuSans-111"/>
     <use x="135.986328" xlink:href="#DejaVuSans-100"/>
     <use x="199.462891" xlink:href="#DejaVuSans-101"/>
     <use x="260.986328" xlink:href="#DejaVuSans-32"/>
     <use x="292.773438" xlink:href="#DejaVuSans-71"/>
     <use x="370.263672" xlink:href="#DejaVuSans-114"/>
     <use x="411.376953" xlink:href="#DejaVuSans-97"/>
     <use x="472.65625" xlink:href="#DejaVuSans-112"/>
     <use x="536.132812" xlink:href="#DejaVuSans-104"/>
     <use x="599.511719" xlink:href="#DejaVuSans-32"/>
     <use x="631.298828" xlink:href="#DejaVuSans-86"/>
     <use x="697.457031" xlink:href="#DejaVuSans-105"/>
     <use x="725.240234" xlink:href="#DejaVuSans-115"/>
     <use x="777.339844" xlink:href="#DejaVuSans-117"/>
     <use x="840.71875" xlink:href="#DejaVuSans-97"/>
     <use x="901.998047" xlink:href="#DejaVuSans-108"/>
     <use x="929.78125" xlink:href="#DejaVuSans-105"/>
     <use x="957.564453" xlink:href="#DejaVuSans-122"/>
     <use x="1010.054688" xlink:href="#DejaVuSans-97"/>
     <use x="1071.333984" xlink:href="#DejaVuSans-116"/>
     <use x="1110.542969" xlink:href="#DejaVuSans-105"/>
     <use x="1138.326172" xlink:href="#DejaVuSans-111"/>
     <use x="1199.507812" xlink:href="#DejaVuSans-110"/>
     <use x="1262.886719" xlink:href="#DejaVuSans-32"/>
     <use x="1294.673828" xlink:href="#DejaVuSans-45"/>
     <use x="1330.757812" xlink:href="#DejaVuSans-32"/>
     <use x="1362.544922" xlink:href="#DejaVuSans-70"/>
     <use x="1412.814453" xlink:href="#DejaVuSans-114"/>
     <use x="1453.927734" xlink:href="#DejaVuSans-97"/>
     <use x="1515.207031" xlink:href="#DejaVuSans-109"/>
     <use x="1612.619141" xlink:href="#DejaVuSans-101"/>
     <use x="1674.142578" xlink:href="#DejaVuSans-32"/>
     <use x="1705.929688" xlink:href="#DejaVuSans-49"/>
     <use x="1769.552734" xlink:href="#DejaVuSans-55"/>
    </g>
   </g>
  </g>
 </g>
 <defs>
  <clipPath id="p8b2457ddf6">
   <rect height="864" width="576" x="0" y="0"/>
  </clipPath>
 </defs>
</svg>
