<?xml version="1.0" encoding="utf-8" standalone="no"?>
<!DOCTYPE svg PUBLIC "-//W3C//DTD SVG 1.1//EN"
  "http://www.w3.org/Graphics/SVG/1.1/DTD/svg11.dtd">
<!-- Created with matplotlib (https://matplotlib.org/) -->
<svg height="864pt" version="1.1" viewBox="0 0 576 864" width="576pt" xmlns="http://www.w3.org/2000/svg" xmlns:xlink="http://www.w3.org/1999/xlink">
 <metadata>
  <rdf:RDF xmlns:cc="http://creativecommons.org/ns#" xmlns:dc="http://purl.org/dc/elements/1.1/" xmlns:rdf="http://www.w3.org/1999/02/22-rdf-syntax-ns#">
   <cc:Work>
    <dc:type rdf:resource="http://purl.org/dc/dcmitype/StillImage"/>
    <dc:date>2024-02-04T22:28:28.478921</dc:date>
    <dc:format>image/svg+xml</dc:format>
    <dc:creator>
     <cc:Agent>
      <dc:title>Matplotlib v3.3.2, https://matplotlib.org/</dc:title>
     </cc:Agent>
    </dc:creator>
   </cc:Work>
  </rdf:RDF>
 </metadata>
 <defs>
  <style type="text/css">*{stroke-linecap:butt;stroke-linejoin:round;}</style>
 </defs>
 <g id="figure_1">
  <g id="patch_1">
   <path d="M 0 864 
L 576 864 
L 576 0 
L 0 0 
z
" style="fill:#ffffff;"/>
  </g>
  <g id="axes_1">
   <g id="patch_2">
    <path clip-path="url(#pb8be56759d)" d="M 311.539583 88.175982 
Q 311.955002 95.079829 312.303268 100.867661 
" style="fill:none;stroke:#000000;stroke-linecap:round;"/>
    <path clip-path="url(#pb8be56759d)" d="M 314.059403 96.754756 
L 312.303268 100.867661 
L 310.066625 96.99501 
L 314.059403 96.754756 
z
" style="stroke:#000000;stroke-linecap:round;"/>
   </g>
   <g id="patch_3">
    <path clip-path="url(#pb8be56759d)" d="M 311.059649 128.252536 
Q 310.634062 130.892645 310.386406 132.42897 
" style="fill:none;stroke:#000000;stroke-linecap:round;"/>
    <path clip-path="url(#pb8be56759d)" d="M 312.997499 128.798241 
L 310.386406 132.42897 
L 309.048479 128.161658 
L 312.997499 128.798241 
z
" style="stroke:#000000;stroke-linecap:round;"/>
   </g>
   <g id="patch_4">
    <path clip-path="url(#pb8be56759d)" d="M 312.370826 101.990405 
Q 311.955407 95.086557 311.607141 89.298725 
" style="fill:none;stroke:#000000;stroke-linecap:round;"/>
    <path clip-path="url(#pb8be56759d)" d="M 309.851006 93.411631 
L 311.607141 89.298725 
L 313.843784 93.171377 
L 309.851006 93.411631 
z
" style="stroke:#000000;stroke-linecap:round;"/>
   </g>
   <g id="patch_5">
    <path clip-path="url(#pb8be56759d)" d="M 306.025722 159.661819 
Q 300.440517 194.797606 295.030831 228.829223 
" style="fill:none;stroke:#000000;stroke-linecap:round;"/>
    <path clip-path="url(#pb8be56759d)" d="M 297.63399 225.192801 
L 295.030831 228.829223 
L 293.683589 224.564843 
L 297.63399 225.192801 
z
" style="stroke:#000000;stroke-linecap:round;"/>
   </g>
   <g id="patch_6">
    <path clip-path="url(#pb8be56759d)" d="M 294.883089 146.098525 
Q 214.076563 143.053304 134.387278 140.050186 
" style="fill:none;stroke:#000000;stroke-linecap:round;"/>
    <path clip-path="url(#pb8be56759d)" d="M 138.309123 142.199401 
L 134.387278 140.050186 
L 138.459758 138.202239 
L 138.309123 142.199401 
z
" style="stroke:#000000;stroke-linecap:round;"/>
   </g>
   <g id="patch_7">
    <path clip-path="url(#pb8be56759d)" d="M 321.323847 147.040069 
Q 405.965565 149.87845 489.489877 152.679361 
" style="fill:none;stroke:#000000;stroke-linecap:round;"/>
    <path clip-path="url(#pb8be56759d)" d="M 485.559155 150.546423 
L 489.489877 152.679361 
L 485.425094 154.544176 
L 485.559155 150.546423 
z
" style="stroke:#000000;stroke-linecap:round;"/>
   </g>
   <g id="patch_8">
    <path clip-path="url(#pb8be56759d)" d="M 310.208057 133.53535 
Q 310.633643 130.89524 310.8813 129.358916 
" style="fill:none;stroke:#000000;stroke-linecap:round;"/>
    <path clip-path="url(#pb8be56759d)" d="M 308.270206 132.989644 
L 310.8813 129.358916 
L 312.219226 133.626228 
L 308.270206 132.989644 
z
" style="stroke:#000000;stroke-linecap:round;"/>
   </g>
   <g id="patch_9">
    <path clip-path="url(#pb8be56759d)" d="M 290.715246 256.061176 
Q 282.424848 308.549169 274.30888 359.932819 
" style="fill:none;stroke:#000000;stroke-linecap:round;"/>
    <path clip-path="url(#pb8be56759d)" d="M 276.908447 356.293829 
L 274.30888 359.932819 
L 272.957428 355.669771 
L 276.908447 356.293829 
z
" style="stroke:#000000;stroke-linecap:round;"/>
   </g>
   <g id="patch_10">
    <path clip-path="url(#pb8be56759d)" d="M 294.85541 229.932775 
Q 300.440615 194.796988 305.850301 160.765372 
" style="fill:none;stroke:#000000;stroke-linecap:round;"/>
    <path clip-path="url(#pb8be56759d)" d="M 303.247142 164.401794 
L 305.850301 160.765372 
L 307.197543 165.029752 
L 303.247142 164.401794 
z
" style="stroke:#000000;stroke-linecap:round;"/>
   </g>
   <g id="patch_11">
    <path clip-path="url(#pb8be56759d)" d="M 258.85221 373.612083 
Q 230.937541 372.575637 204.140135 371.580674 
" style="fill:none;stroke:#000000;stroke-linecap:round;"/>
    <path clip-path="url(#pb8be56759d)" d="M 208.063174 373.727711 
L 204.140135 371.580674 
L 208.211588 369.730466 
L 208.063174 373.727711 
z
" style="stroke:#000000;stroke-linecap:round;"/>
   </g>
   <g id="patch_12">
    <path clip-path="url(#pb8be56759d)" d="M 285.297778 374.04106 
Q 314.043277 373.906723 341.670754 373.77761 
" style="fill:none;stroke:#000000;stroke-linecap:round;"/>
    <path clip-path="url(#pb8be56759d)" d="M 337.661452 371.796325 
L 341.670754 373.77761 
L 337.680145 375.796281 
L 337.661452 371.796325 
z
" style="stroke:#000000;stroke-linecap:round;"/>
   </g>
   <g id="patch_13">
    <path clip-path="url(#pb8be56759d)" d="M 274.134068 361.039588 
Q 282.424465 308.551594 290.540434 257.167944 
" style="fill:none;stroke:#000000;stroke-linecap:round;"/>
    <path clip-path="url(#pb8be56759d)" d="M 287.940867 260.806935 
L 290.540434 257.167944 
L 291.891886 261.430992 
L 287.940867 260.806935 
z
" style="stroke:#000000;stroke-linecap:round;"/>
   </g>
   <g id="patch_14">
    <path clip-path="url(#pb8be56759d)" d="M 111.470469 149.577761 
Q 85.017437 180.614209 59.289644 210.799759 
" style="fill:none;stroke:#000000;stroke-linecap:round;"/>
    <path clip-path="url(#pb8be56759d)" d="M 63.406472 209.052839 
L 59.289644 210.799759 
L 60.362205 206.458144 
L 63.406472 209.052839 
z
" style="stroke:#000000;stroke-linecap:round;"/>
   </g>
   <g id="patch_15">
    <path clip-path="url(#pb8be56759d)" d="M 133.270963 140.008117 
Q 214.077489 143.053338 293.766774 146.056456 
" style="fill:none;stroke:#000000;stroke-linecap:round;"/>
    <path clip-path="url(#pb8be56759d)" d="M 289.844929 143.907241 
L 293.766774 146.056456 
L 289.694294 147.904403 
L 289.844929 143.907241 
z
" style="stroke:#000000;stroke-linecap:round;"/>
   </g>
   <g id="patch_16">
    <path clip-path="url(#pb8be56759d)" d="M 62.059335 227.13057 
Q 117.395758 251.931399 171.711929 276.274968 
" style="fill:none;stroke:#000000;stroke-linecap:round;"/>
    <path clip-path="url(#pb8be56759d)" d="M 168.879735 272.813946 
L 171.711929 276.274968 
L 167.243794 276.46411 
L 168.879735 272.813946 
z
" style="stroke:#000000;stroke-linecap:round;"/>
   </g>
   <g id="patch_17">
    <path clip-path="url(#pb8be56759d)" d="M 58.564494 211.650552 
Q 85.017526 180.614104 110.745319 150.428555 
" style="fill:none;stroke:#000000;stroke-linecap:round;"/>
    <path clip-path="url(#pb8be56759d)" d="M 106.628491 152.175475 
L 110.745319 150.428555 
L 109.672758 154.770169 
L 106.628491 152.175475 
z
" style="stroke:#000000;stroke-linecap:round;"/>
   </g>
   <g id="patch_18">
    <path clip-path="url(#pb8be56759d)" d="M 184.805242 282.143165 
Q 187.181251 285.864199 188.955559 288.642918 
" style="fill:none;stroke:#000000;stroke-linecap:round;"/>
    <path clip-path="url(#pb8be56759d)" d="M 188.488514 284.195237 
L 188.955559 288.642918 
L 185.117187 286.347946 
L 188.488514 284.195237 
z
" style="stroke:#000000;stroke-linecap:round;"/>
   </g>
   <g id="patch_19">
    <path clip-path="url(#pb8be56759d)" d="M 172.729378 276.730971 
Q 117.392955 251.930143 63.076784 227.586573 
" style="fill:none;stroke:#000000;stroke-linecap:round;"/>
    <path clip-path="url(#pb8be56759d)" d="M 65.908978 231.047596 
L 63.076784 227.586573 
L 67.544918 227.397432 
L 65.908978 231.047596 
z
" style="stroke:#000000;stroke-linecap:round;"/>
   </g>
   <g id="patch_20">
    <path clip-path="url(#pb8be56759d)" d="M 202.131945 293.705006 
Q 207.27653 295.390497 211.358648 296.727898 
" style="fill:none;stroke:#000000;stroke-linecap:round;"/>
    <path clip-path="url(#pb8be56759d)" d="M 208.180137 293.581938 
L 211.358648 296.727898 
L 206.934773 297.383131 
L 208.180137 293.581938 
z
" style="stroke:#000000;stroke-linecap:round;"/>
   </g>
   <g id="patch_21">
    <path clip-path="url(#pb8be56759d)" d="M 202.71684 290.963649 
Q 215.159644 292.266985 226.490497 293.453849 
" style="fill:none;stroke:#000000;stroke-linecap:round;"/>
    <path clip-path="url(#pb8be56759d)" d="M 222.720614 291.048026 
L 226.490497 293.453849 
L 222.303909 295.026262 
L 222.720614 291.048026 
z
" style="stroke:#000000;stroke-linecap:round;"/>
   </g>
   <g id="patch_22">
    <path clip-path="url(#pb8be56759d)" d="M 189.55726 289.585232 
Q 187.181251 285.864199 185.406942 283.085479 
" style="fill:none;stroke:#000000;stroke-linecap:round;"/>
    <path clip-path="url(#pb8be56759d)" d="M 185.873988 287.533161 
L 185.406942 283.085479 
L 189.245314 285.380452 
L 185.873988 287.533161 
z
" style="stroke:#000000;stroke-linecap:round;"/>
   </g>
   <g id="patch_23">
    <path clip-path="url(#pb8be56759d)" d="M 506.46151 166.122014 
Q 514.921646 207.739716 523.15906 248.261793 
" style="fill:none;stroke:#000000;stroke-linecap:round;"/>
    <path clip-path="url(#pb8be56759d)" d="M 524.322144 243.943549 
L 523.15906 248.261793 
L 520.402315 244.74038 
L 524.322144 243.943549 
z
" style="stroke:#000000;stroke-linecap:round;"/>
   </g>
   <g id="patch_24">
    <path clip-path="url(#pb8be56759d)" d="M 490.605303 152.716765 
Q 405.963585 149.878384 322.439273 147.077474 
" style="fill:none;stroke:#000000;stroke-linecap:round;"/>
    <path clip-path="url(#pb8be56759d)" d="M 326.369996 149.210411 
L 322.439273 147.077474 
L 326.504057 145.212658 
L 326.369996 149.210411 
z
" style="stroke:#000000;stroke-linecap:round;"/>
   </g>
   <g id="patch_25">
    <path clip-path="url(#pb8be56759d)" d="M 513.414569 266.328974 
Q 454.748131 284.999303 397.147076 303.330579 
" style="fill:none;stroke:#000000;stroke-linecap:round;"/>
    <path clip-path="url(#pb8be56759d)" d="M 401.565227 304.023361 
L 397.147076 303.330579 
L 400.352192 300.211728 
L 401.565227 304.023361 
z
" style="stroke:#000000;stroke-linecap:round;"/>
   </g>
   <g id="patch_26">
    <path clip-path="url(#pb8be56759d)" d="M 523.381609 249.356572 
Q 514.921474 207.738869 506.684059 167.216793 
" style="fill:none;stroke:#000000;stroke-linecap:round;"/>
    <path clip-path="url(#pb8be56759d)" d="M 505.520976 171.535037 
L 506.684059 167.216793 
L 509.440805 170.738206 
L 505.520976 171.535037 
z
" style="stroke:#000000;stroke-linecap:round;"/>
   </g>
   <g id="patch_27">
    <path clip-path="url(#pb8be56759d)" d="M 370.247922 307.625841 
Q 353.216128 307.554227 337.302357 307.487314 
" style="fill:none;stroke:#000000;stroke-linecap:round;"/>
    <path clip-path="url(#pb8be56759d)" d="M 341.293913 309.504115 
L 337.302357 307.487314 
L 341.310731 305.504151 
L 341.293913 309.504115 
z
" style="stroke:#000000;stroke-linecap:round;"/>
   </g>
   <g id="patch_28">
    <path clip-path="url(#pb8be56759d)" d="M 396.077576 303.670943 
Q 454.744014 285.000614 512.345068 266.669338 
" style="fill:none;stroke:#000000;stroke-linecap:round;"/>
    <path clip-path="url(#pb8be56759d)" d="M 507.926918 265.976556 
L 512.345068 266.669338 
L 509.139953 269.788189 
L 507.926918 265.976556 
z
" style="stroke:#000000;stroke-linecap:round;"/>
   </g>
   <g id="patch_29">
    <path clip-path="url(#pb8be56759d)" d="M 310.083908 310.488197 
Q 304.854596 311.731866 300.712981 312.716852 
" style="fill:none;stroke:#000000;stroke-linecap:round;"/>
    <path clip-path="url(#pb8be56759d)" d="M 305.067188 313.73709 
L 300.712981 312.716852 
L 304.141695 309.845629 
L 305.067188 313.73709 
z
" style="stroke:#000000;stroke-linecap:round;"/>
   </g>
   <g id="patch_30">
    <path clip-path="url(#pb8be56759d)" d="M 336.134261 308.550825 
Q 348.628448 309.616283 360.008643 310.586744 
" style="fill:none;stroke:#000000;stroke-linecap:round;"/>
    <path clip-path="url(#pb8be56759d)" d="M 356.193044 308.254105 
L 360.008643 310.586744 
L 355.853173 312.23964 
L 356.193044 308.254105 
z
" style="stroke:#000000;stroke-linecap:round;"/>
   </g>
   <g id="patch_31">
    <path clip-path="url(#pb8be56759d)" d="M 336.183196 307.482608 
Q 353.21499 307.554222 369.128761 307.621136 
" style="fill:none;stroke:#000000;stroke-linecap:round;"/>
    <path clip-path="url(#pb8be56759d)" d="M 365.137206 305.604334 
L 369.128761 307.621136 
L 365.120387 309.604299 
L 365.137206 305.604334 
z
" style="stroke:#000000;stroke-linecap:round;"/>
   </g>
   <g id="patch_32">
    <path clip-path="url(#pb8be56759d)" d="M 187.330143 384.046372 
Q 177.165252 437.497226 167.209237 489.84973 
" style="fill:none;stroke:#000000;stroke-linecap:round;"/>
    <path clip-path="url(#pb8be56759d)" d="M 169.921321 486.293805 
L 167.209237 489.84973 
L 165.991748 485.546508 
L 169.921321 486.293805 
z
" style="stroke:#000000;stroke-linecap:round;"/>
   </g>
   <g id="patch_33">
    <path clip-path="url(#pb8be56759d)" d="M 203.02055 371.539105 
Q 230.935219 372.575551 257.732625 373.570513 
" style="fill:none;stroke:#000000;stroke-linecap:round;"/>
    <path clip-path="url(#pb8be56759d)" d="M 253.809586 371.423477 
L 257.732625 373.570513 
L 253.661172 375.420722 
L 253.809586 371.423477 
z
" style="stroke:#000000;stroke-linecap:round;"/>
   </g>
   <g id="patch_34">
    <path clip-path="url(#pb8be56759d)" d="M 166.323659 517.051157 
Q 175.207263 581.965972 183.939277 645.773078 
" style="fill:none;stroke:#000000;stroke-linecap:round;"/>
    <path clip-path="url(#pb8be56759d)" d="M 185.378462 641.538843 
L 183.939277 645.773078 
L 181.4154 642.081188 
L 185.378462 641.538843 
z
" style="stroke:#000000;stroke-linecap:round;"/>
   </g>
   <g id="patch_35">
    <path clip-path="url(#pb8be56759d)" d="M 167.001378 490.942729 
Q 177.166269 437.491876 187.122285 385.139371 
" style="fill:none;stroke:#000000;stroke-linecap:round;"/>
    <path clip-path="url(#pb8be56759d)" d="M 184.4102 388.695296 
L 187.122285 385.139371 
L 188.339774 389.442593 
L 184.4102 388.695296 
z
" style="stroke:#000000;stroke-linecap:round;"/>
   </g>
   <g id="patch_36">
    <path clip-path="url(#pb8be56759d)" d="M 187.288039 673.1464 
Q 187.635629 676.405397 187.864648 678.552666 
" style="fill:none;stroke:#000000;stroke-linecap:round;"/>
    <path clip-path="url(#pb8be56759d)" d="M 189.429152 674.363116 
L 187.864648 678.552666 
L 185.45171 674.787333 
L 189.429152 674.363116 
z
" style="stroke:#000000;stroke-linecap:round;"/>
   </g>
   <g id="patch_37">
    <path clip-path="url(#pb8be56759d)" d="M 184.090565 646.878574 
Q 175.20696 581.963759 166.474947 518.156653 
" style="fill:none;stroke:#000000;stroke-linecap:round;"/>
    <path clip-path="url(#pb8be56759d)" d="M 165.035761 522.390888 
L 166.474947 518.156653 
L 168.998823 521.848542 
L 165.035761 522.390888 
z
" style="stroke:#000000;stroke-linecap:round;"/>
   </g>
   <g id="patch_38">
    <path clip-path="url(#pb8be56759d)" d="M 187.983072 679.663008 
Q 187.635482 676.404011 187.406463 674.256742 
" style="fill:none;stroke:#000000;stroke-linecap:round;"/>
    <path clip-path="url(#pb8be56759d)" d="M 185.841959 678.446292 
L 187.406463 674.256742 
L 189.819401 678.022075 
L 185.841959 678.446292 
z
" style="stroke:#000000;stroke-linecap:round;"/>
   </g>
   <g id="patch_39">
    <path clip-path="url(#pb8be56759d)" d="M 357.590282 386.845212 
Q 367.474915 469.459233 377.226725 550.963138 
" style="fill:none;stroke:#000000;stroke-linecap:round;"/>
    <path clip-path="url(#pb8be56759d)" d="M 378.737357 546.753864 
L 377.226725 550.963138 
L 374.765684 547.229068 
L 378.737357 546.753864 
z
" style="stroke:#000000;stroke-linecap:round;"/>
   </g>
   <g id="patch_40">
    <path clip-path="url(#pb8be56759d)" d="M 342.791705 373.772372 
Q 314.046206 373.906709 286.418729 374.035821 
" style="fill:none;stroke:#000000;stroke-linecap:round;"/>
    <path clip-path="url(#pb8be56759d)" d="M 290.428032 376.017106 
L 286.418729 374.035821 
L 290.409339 372.01715 
L 290.428032 376.017106 
z
" style="stroke:#000000;stroke-linecap:round;"/>
   </g>
   <g id="patch_41">
    <path clip-path="url(#pb8be56759d)" d="M 377.855149 578.398018 
Q 371.057499 661.689396 364.350792 743.866444 
" style="fill:none;stroke:#000000;stroke-linecap:round;"/>
    <path clip-path="url(#pb8be56759d)" d="M 366.669534 740.042384 
L 364.350792 743.866444 
L 362.68279 739.717014 
L 366.669534 740.042384 
z
" style="stroke:#000000;stroke-linecap:round;"/>
   </g>
   <g id="patch_42">
    <path clip-path="url(#pb8be56759d)" d="M 377.359872 552.075956 
Q 367.475238 469.461934 357.723429 387.95803 
" style="fill:none;stroke:#000000;stroke-linecap:round;"/>
    <path clip-path="url(#pb8be56759d)" d="M 356.212797 392.167304 
L 357.723429 387.95803 
L 360.184469 391.6921 
L 356.212797 392.167304 
z
" style="stroke:#000000;stroke-linecap:round;"/>
   </g>
   <g id="patch_43">
    <path clip-path="url(#pb8be56759d)" d="M 368.527869 770.269563 
Q 369.997254 773.597289 371.015029 775.902249 
" style="fill:none;stroke:#000000;stroke-linecap:round;"/>
    <path clip-path="url(#pb8be56759d)" d="M 371.228876 771.435229 
L 371.015029 775.902249 
L 367.569721 773.05096 
L 371.228876 771.435229 
z
" style="stroke:#000000;stroke-linecap:round;"/>
   </g>
   <g id="patch_44">
    <path clip-path="url(#pb8be56759d)" d="M 364.259976 744.979212 
Q 371.057626 661.687835 377.764333 579.510786 
" style="fill:none;stroke:#000000;stroke-linecap:round;"/>
    <path clip-path="url(#pb8be56759d)" d="M 375.445591 583.334846 
L 377.764333 579.510786 
L 379.432336 583.660216 
L 375.445591 583.334846 
z
" style="stroke:#000000;stroke-linecap:round;"/>
   </g>
   <g id="patch_45">
    <path clip-path="url(#pb8be56759d)" d="M 371.465242 776.92185 
Q 369.995857 773.594125 368.978083 771.289164 
" style="fill:none;stroke:#000000;stroke-linecap:round;"/>
    <path clip-path="url(#pb8be56759d)" d="M 368.764235 775.756184 
L 368.978083 771.289164 
L 372.42339 774.140454 
L 368.764235 775.756184 
z
" style="stroke:#000000;stroke-linecap:round;"/>
   </g>
   <g id="patch_46">
    <path clip-path="url(#pb8be56759d)" d="M 212.418358 297.075085 
Q 207.273774 295.389594 203.191655 294.052192 
" style="fill:none;stroke:#000000;stroke-linecap:round;"/>
    <path clip-path="url(#pb8be56759d)" d="M 206.370167 297.198152 
L 203.191655 294.052192 
L 207.61553 293.396959 
L 206.370167 297.198152 
z
" style="stroke:#000000;stroke-linecap:round;"/>
   </g>
   <g id="patch_47">
    <path clip-path="url(#pb8be56759d)" d="M 227.598479 293.569906 
Q 215.155676 292.26657 203.824822 291.079706 
" style="fill:none;stroke:#000000;stroke-linecap:round;"/>
    <path clip-path="url(#pb8be56759d)" d="M 207.594705 293.485528 
L 203.824822 291.079706 
L 208.01141 289.507293 
L 207.594705 293.485528 
z
" style="stroke:#000000;stroke-linecap:round;"/>
   </g>
   <g id="patch_48">
    <path clip-path="url(#pb8be56759d)" d="M 299.629328 312.974574 
Q 304.858639 311.730905 309.000255 310.745918 
" style="fill:none;stroke:#000000;stroke-linecap:round;"/>
    <path clip-path="url(#pb8be56759d)" d="M 304.646048 309.725681 
L 309.000255 310.745918 
L 305.571541 313.617141 
L 304.646048 309.725681 
z
" style="stroke:#000000;stroke-linecap:round;"/>
   </g>
   <g id="patch_49">
    <path clip-path="url(#pb8be56759d)" d="M 361.125324 310.68197 
Q 348.631137 309.616512 337.250942 308.646052 
" style="fill:none;stroke:#000000;stroke-linecap:round;"/>
    <path clip-path="url(#pb8be56759d)" d="M 341.066541 310.978691 
L 337.250942 308.646052 
L 341.406412 306.993156 
L 341.066541 310.978691 
z
" style="stroke:#000000;stroke-linecap:round;"/>
   </g>
   <g id="PathCollection_1">
    <defs>
     <path d="M 0 13.228757 
C 3.508307 13.228757 6.873396 11.834891 9.354143 9.354143 
C 11.834891 6.873396 13.228757 3.508307 13.228757 0 
C 13.228757 -3.508307 11.834891 -6.873396 9.354143 -9.354143 
C 6.873396 -11.834891 3.508307 -13.228757 0 -13.228757 
C -3.508307 -13.228757 -6.873396 -11.834891 -9.354143 -9.354143 
C -11.834891 -6.873396 -13.228757 -3.508307 -13.228757 0 
C -13.228757 3.508307 -11.834891 6.873396 -9.354143 9.354143 
C -6.873396 11.834891 -3.508307 13.228757 0 13.228757 
z
" id="m112636ffd7" style="stroke:#87ceeb;"/>
    </defs>
    <g clip-path="url(#pb8be56759d)">
     <use style="fill:#87ceeb;stroke:#87ceeb;" x="310.745264" xlink:href="#m112636ffd7" y="74.975207"/>
     <use style="fill:#87ceeb;stroke:#87ceeb;" x="313.165145" xlink:href="#m112636ffd7" y="115.19118"/>
     <use style="fill:#87ceeb;stroke:#87ceeb;" x="308.10256" xlink:href="#m112636ffd7" y="146.596705"/>
     <use style="fill:#87ceeb;stroke:#87ceeb;" x="292.778572" xlink:href="#m112636ffd7" y="242.997889"/>
     <use style="fill:#87ceeb;stroke:#87ceeb;" x="272.070741" xlink:href="#m112636ffd7" y="374.102874"/>
     <use style="fill:#87ceeb;stroke:#87ceeb;" x="120.051492" xlink:href="#m112636ffd7" y="139.509937"/>
     <use style="fill:#87ceeb;stroke:#87ceeb;" x="49.983471" xlink:href="#m112636ffd7" y="221.718377"/>
     <use style="fill:#87ceeb;stroke:#87ceeb;" x="184.805242" xlink:href="#m112636ffd7" y="282.143165"/>
     <use style="fill:#87ceeb;stroke:#87ceeb;" x="189.55726" xlink:href="#m112636ffd7" y="289.585232"/>
     <use style="fill:#87ceeb;stroke:#87ceeb;" x="503.826591" xlink:href="#m112636ffd7" y="153.160129"/>
     <use style="fill:#87ceeb;stroke:#87ceeb;" x="526.016529" xlink:href="#m112636ffd7" y="262.318457"/>
     <use style="fill:#87ceeb;stroke:#87ceeb;" x="383.475616" xlink:href="#m112636ffd7" y="307.68146"/>
     <use style="fill:#87ceeb;stroke:#87ceeb;" x="322.955503" xlink:href="#m112636ffd7" y="307.426989"/>
     <use style="fill:#87ceeb;stroke:#87ceeb;" x="189.802018" xlink:href="#m112636ffd7" y="371.048314"/>
     <use style="fill:#87ceeb;stroke:#87ceeb;" x="164.529503" xlink:href="#m112636ffd7" y="503.940788"/>
     <use style="fill:#87ceeb;stroke:#87ceeb;" x="185.884721" xlink:href="#m112636ffd7" y="659.988943"/>
     <use style="fill:#87ceeb;stroke:#87ceeb;" x="189.38639" xlink:href="#m112636ffd7" y="692.820465"/>
     <use style="fill:#87ceeb;stroke:#87ceeb;" x="356.018742" xlink:href="#m112636ffd7" y="373.710557"/>
     <use style="fill:#87ceeb;stroke:#87ceeb;" x="378.931412" xlink:href="#m112636ffd7" y="565.21061"/>
     <use style="fill:#87ceeb;stroke:#87ceeb;" x="363.183714" xlink:href="#m112636ffd7" y="758.16662"/>
     <use style="fill:#87ceeb;stroke:#87ceeb;" x="376.809398" xlink:href="#m112636ffd7" y="789.024793"/>
     <use style="fill:#87ceeb;stroke:#87ceeb;" x="224.993044" xlink:href="#m112636ffd7" y="301.194858"/>
     <use style="fill:#87ceeb;stroke:#87ceeb;" x="240.75806" xlink:href="#m112636ffd7" y="294.948322"/>
     <use style="fill:#87ceeb;stroke:#87ceeb;" x="286.757733" xlink:href="#m112636ffd7" y="316.035781"/>
     <use style="fill:#87ceeb;stroke:#87ceeb;" x="374.304082" xlink:href="#m112636ffd7" y="311.805806"/>
    </g>
   </g>
   <g id="text_1">
    <g clip-path="url(#pb8be56759d)">
     <!-- Head -->
     <g transform="translate(297.670264 77.734582)scale(0.1 -0.1)">
      <defs>
       <path d="M 9.8125 72.90625 
L 19.671875 72.90625 
L 19.671875 43.015625 
L 55.515625 43.015625 
L 55.515625 72.90625 
L 65.375 72.90625 
L 65.375 0 
L 55.515625 0 
L 55.515625 34.71875 
L 19.671875 34.71875 
L 19.671875 0 
L 9.8125 0 
z
" id="DejaVuSans-72"/>
       <path d="M 56.203125 29.59375 
L 56.203125 25.203125 
L 14.890625 25.203125 
Q 15.484375 15.921875 20.484375 11.0625 
Q 25.484375 6.203125 34.421875 6.203125 
Q 39.59375 6.203125 44.453125 7.46875 
Q 49.3125 8.734375 54.109375 11.28125 
L 54.109375 2.78125 
Q 49.265625 0.734375 44.1875 -0.34375 
Q 39.109375 -1.421875 33.890625 -1.421875 
Q 20.796875 -1.421875 13.15625 6.1875 
Q 5.515625 13.8125 5.515625 26.8125 
Q 5.515625 40.234375 12.765625 48.109375 
Q 20.015625 56 32.328125 56 
Q 43.359375 56 49.78125 48.890625 
Q 56.203125 41.796875 56.203125 29.59375 
z
M 47.21875 32.234375 
Q 47.125 39.59375 43.09375 43.984375 
Q 39.0625 48.390625 32.421875 48.390625 
Q 24.90625 48.390625 20.390625 44.140625 
Q 15.875 39.890625 15.1875 32.171875 
z
" id="DejaVuSans-101"/>
       <path d="M 34.28125 27.484375 
Q 23.390625 27.484375 19.1875 25 
Q 14.984375 22.515625 14.984375 16.5 
Q 14.984375 11.71875 18.140625 8.90625 
Q 21.296875 6.109375 26.703125 6.109375 
Q 34.1875 6.109375 38.703125 11.40625 
Q 43.21875 16.703125 43.21875 25.484375 
L 43.21875 27.484375 
z
M 52.203125 31.203125 
L 52.203125 0 
L 43.21875 0 
L 43.21875 8.296875 
Q 40.140625 3.328125 35.546875 0.953125 
Q 30.953125 -1.421875 24.3125 -1.421875 
Q 15.921875 -1.421875 10.953125 3.296875 
Q 6 8.015625 6 15.921875 
Q 6 25.140625 12.171875 29.828125 
Q 18.359375 34.515625 30.609375 34.515625 
L 43.21875 34.515625 
L 43.21875 35.40625 
Q 43.21875 41.609375 39.140625 45 
Q 35.0625 48.390625 27.6875 48.390625 
Q 23 48.390625 18.546875 47.265625 
Q 14.109375 46.140625 10.015625 43.890625 
L 10.015625 52.203125 
Q 14.9375 54.109375 19.578125 55.046875 
Q 24.21875 56 28.609375 56 
Q 40.484375 56 46.34375 49.84375 
Q 52.203125 43.703125 52.203125 31.203125 
z
" id="DejaVuSans-97"/>
       <path d="M 45.40625 46.390625 
L 45.40625 75.984375 
L 54.390625 75.984375 
L 54.390625 0 
L 45.40625 0 
L 45.40625 8.203125 
Q 42.578125 3.328125 38.25 0.953125 
Q 33.9375 -1.421875 27.875 -1.421875 
Q 17.96875 -1.421875 11.734375 6.484375 
Q 5.515625 14.40625 5.515625 27.296875 
Q 5.515625 40.1875 11.734375 48.09375 
Q 17.96875 56 27.875 56 
Q 33.9375 56 38.25 53.625 
Q 42.578125 51.265625 45.40625 46.390625 
z
M 14.796875 27.296875 
Q 14.796875 17.390625 18.875 11.75 
Q 22.953125 6.109375 30.078125 6.109375 
Q 37.203125 6.109375 41.296875 11.75 
Q 45.40625 17.390625 45.40625 27.296875 
Q 45.40625 37.203125 41.296875 42.84375 
Q 37.203125 48.484375 30.078125 48.484375 
Q 22.953125 48.484375 18.875 42.84375 
Q 14.796875 37.203125 14.796875 27.296875 
z
" id="DejaVuSans-100"/>
      </defs>
      <use xlink:href="#DejaVuSans-72"/>
      <use x="75.195312" xlink:href="#DejaVuSans-101"/>
      <use x="136.71875" xlink:href="#DejaVuSans-97"/>
      <use x="197.998047" xlink:href="#DejaVuSans-100"/>
     </g>
    </g>
   </g>
   <g id="text_2">
    <g clip-path="url(#pb8be56759d)">
     <!-- c7 -->
     <g transform="translate(307.234676 117.950555)scale(0.1 -0.1)">
      <defs>
       <path d="M 48.78125 52.59375 
L 48.78125 44.1875 
Q 44.96875 46.296875 41.140625 47.34375 
Q 37.3125 48.390625 33.40625 48.390625 
Q 24.65625 48.390625 19.8125 42.84375 
Q 14.984375 37.3125 14.984375 27.296875 
Q 14.984375 17.28125 19.8125 11.734375 
Q 24.65625 6.203125 33.40625 6.203125 
Q 37.3125 6.203125 41.140625 7.25 
Q 44.96875 8.296875 48.78125 10.40625 
L 48.78125 2.09375 
Q 45.015625 0.34375 40.984375 -0.53125 
Q 36.96875 -1.421875 32.421875 -1.421875 
Q 20.0625 -1.421875 12.78125 6.34375 
Q 5.515625 14.109375 5.515625 27.296875 
Q 5.515625 40.671875 12.859375 48.328125 
Q 20.21875 56 33.015625 56 
Q 37.15625 56 41.109375 55.140625 
Q 45.0625 54.296875 48.78125 52.59375 
z
" id="DejaVuSans-99"/>
       <path d="M 8.203125 72.90625 
L 55.078125 72.90625 
L 55.078125 68.703125 
L 28.609375 0 
L 18.3125 0 
L 43.21875 64.59375 
L 8.203125 64.59375 
z
" id="DejaVuSans-55"/>
      </defs>
      <use xlink:href="#DejaVuSans-99"/>
      <use x="54.980469" xlink:href="#DejaVuSans-55"/>
     </g>
    </g>
   </g>
   <g id="text_3">
    <g clip-path="url(#pb8be56759d)">
     <!-- SpineShoulder -->
     <g transform="translate(271.853341 149.35608)scale(0.1 -0.1)">
      <defs>
       <path d="M 53.515625 70.515625 
L 53.515625 60.890625 
Q 47.90625 63.578125 42.921875 64.890625 
Q 37.9375 66.21875 33.296875 66.21875 
Q 25.25 66.21875 20.875 63.09375 
Q 16.5 59.96875 16.5 54.203125 
Q 16.5 49.359375 19.40625 46.890625 
Q 22.3125 44.4375 30.421875 42.921875 
L 36.375 41.703125 
Q 47.40625 39.59375 52.65625 34.296875 
Q 57.90625 29 57.90625 20.125 
Q 57.90625 9.515625 50.796875 4.046875 
Q 43.703125 -1.421875 29.984375 -1.421875 
Q 24.8125 -1.421875 18.96875 -0.25 
Q 13.140625 0.921875 6.890625 3.21875 
L 6.890625 13.375 
Q 12.890625 10.015625 18.65625 8.296875 
Q 24.421875 6.59375 29.984375 6.59375 
Q 38.421875 6.59375 43.015625 9.90625 
Q 47.609375 13.234375 47.609375 19.390625 
Q 47.609375 24.75 44.3125 27.78125 
Q 41.015625 30.8125 33.5 32.328125 
L 27.484375 33.5 
Q 16.453125 35.6875 11.515625 40.375 
Q 6.59375 45.0625 6.59375 53.421875 
Q 6.59375 63.09375 13.40625 68.65625 
Q 20.21875 74.21875 32.171875 74.21875 
Q 37.3125 74.21875 42.625 73.28125 
Q 47.953125 72.359375 53.515625 70.515625 
z
" id="DejaVuSans-83"/>
       <path d="M 18.109375 8.203125 
L 18.109375 -20.796875 
L 9.078125 -20.796875 
L 9.078125 54.6875 
L 18.109375 54.6875 
L 18.109375 46.390625 
Q 20.953125 51.265625 25.265625 53.625 
Q 29.59375 56 35.59375 56 
Q 45.5625 56 51.78125 48.09375 
Q 58.015625 40.1875 58.015625 27.296875 
Q 58.015625 14.40625 51.78125 6.484375 
Q 45.5625 -1.421875 35.59375 -1.421875 
Q 29.59375 -1.421875 25.265625 0.953125 
Q 20.953125 3.328125 18.109375 8.203125 
z
M 48.6875 27.296875 
Q 48.6875 37.203125 44.609375 42.84375 
Q 40.53125 48.484375 33.40625 48.484375 
Q 26.265625 48.484375 22.1875 42.84375 
Q 18.109375 37.203125 18.109375 27.296875 
Q 18.109375 17.390625 22.1875 11.75 
Q 26.265625 6.109375 33.40625 6.109375 
Q 40.53125 6.109375 44.609375 11.75 
Q 48.6875 17.390625 48.6875 27.296875 
z
" id="DejaVuSans-112"/>
       <path d="M 9.421875 54.6875 
L 18.40625 54.6875 
L 18.40625 0 
L 9.421875 0 
z
M 9.421875 75.984375 
L 18.40625 75.984375 
L 18.40625 64.59375 
L 9.421875 64.59375 
z
" id="DejaVuSans-105"/>
       <path d="M 54.890625 33.015625 
L 54.890625 0 
L 45.90625 0 
L 45.90625 32.71875 
Q 45.90625 40.484375 42.875 44.328125 
Q 39.84375 48.1875 33.796875 48.1875 
Q 26.515625 48.1875 22.3125 43.546875 
Q 18.109375 38.921875 18.109375 30.90625 
L 18.109375 0 
L 9.078125 0 
L 9.078125 54.6875 
L 18.109375 54.6875 
L 18.109375 46.1875 
Q 21.34375 51.125 25.703125 53.5625 
Q 30.078125 56 35.796875 56 
Q 45.21875 56 50.046875 50.171875 
Q 54.890625 44.34375 54.890625 33.015625 
z
" id="DejaVuSans-110"/>
       <path d="M 54.890625 33.015625 
L 54.890625 0 
L 45.90625 0 
L 45.90625 32.71875 
Q 45.90625 40.484375 42.875 44.328125 
Q 39.84375 48.1875 33.796875 48.1875 
Q 26.515625 48.1875 22.3125 43.546875 
Q 18.109375 38.921875 18.109375 30.90625 
L 18.109375 0 
L 9.078125 0 
L 9.078125 75.984375 
L 18.109375 75.984375 
L 18.109375 46.1875 
Q 21.34375 51.125 25.703125 53.5625 
Q 30.078125 56 35.796875 56 
Q 45.21875 56 50.046875 50.171875 
Q 54.890625 44.34375 54.890625 33.015625 
z
" id="DejaVuSans-104"/>
       <path d="M 30.609375 48.390625 
Q 23.390625 48.390625 19.1875 42.75 
Q 14.984375 37.109375 14.984375 27.296875 
Q 14.984375 17.484375 19.15625 11.84375 
Q 23.34375 6.203125 30.609375 6.203125 
Q 37.796875 6.203125 41.984375 11.859375 
Q 46.1875 17.53125 46.1875 27.296875 
Q 46.1875 37.015625 41.984375 42.703125 
Q 37.796875 48.390625 30.609375 48.390625 
z
M 30.609375 56 
Q 42.328125 56 49.015625 48.375 
Q 55.71875 40.765625 55.71875 27.296875 
Q 55.71875 13.875 49.015625 6.21875 
Q 42.328125 -1.421875 30.609375 -1.421875 
Q 18.84375 -1.421875 12.171875 6.21875 
Q 5.515625 13.875 5.515625 27.296875 
Q 5.515625 40.765625 12.171875 48.375 
Q 18.84375 56 30.609375 56 
z
" id="DejaVuSans-111"/>
       <path d="M 8.5 21.578125 
L 8.5 54.6875 
L 17.484375 54.6875 
L 17.484375 21.921875 
Q 17.484375 14.15625 20.5 10.265625 
Q 23.53125 6.390625 29.59375 6.390625 
Q 36.859375 6.390625 41.078125 11.03125 
Q 45.3125 15.671875 45.3125 23.6875 
L 45.3125 54.6875 
L 54.296875 54.6875 
L 54.296875 0 
L 45.3125 0 
L 45.3125 8.40625 
Q 42.046875 3.421875 37.71875 1 
Q 33.40625 -1.421875 27.6875 -1.421875 
Q 18.265625 -1.421875 13.375 4.4375 
Q 8.5 10.296875 8.5 21.578125 
z
M 31.109375 56 
z
" id="DejaVuSans-117"/>
       <path d="M 9.421875 75.984375 
L 18.40625 75.984375 
L 18.40625 0 
L 9.421875 0 
z
" id="DejaVuSans-108"/>
       <path d="M 41.109375 46.296875 
Q 39.59375 47.171875 37.8125 47.578125 
Q 36.03125 48 33.890625 48 
Q 26.265625 48 22.1875 43.046875 
Q 18.109375 38.09375 18.109375 28.8125 
L 18.109375 0 
L 9.078125 0 
L 9.078125 54.6875 
L 18.109375 54.6875 
L 18.109375 46.1875 
Q 20.953125 51.171875 25.484375 53.578125 
Q 30.03125 56 36.53125 56 
Q 37.453125 56 38.578125 55.875 
Q 39.703125 55.765625 41.0625 55.515625 
z
" id="DejaVuSans-114"/>
      </defs>
      <use xlink:href="#DejaVuSans-83"/>
      <use x="63.476562" xlink:href="#DejaVuSans-112"/>
      <use x="126.953125" xlink:href="#DejaVuSans-105"/>
      <use x="154.736328" xlink:href="#DejaVuSans-110"/>
      <use x="218.115234" xlink:href="#DejaVuSans-101"/>
      <use x="279.638672" xlink:href="#DejaVuSans-83"/>
      <use x="343.115234" xlink:href="#DejaVuSans-104"/>
      <use x="406.494141" xlink:href="#DejaVuSans-111"/>
      <use x="467.675781" xlink:href="#DejaVuSans-117"/>
      <use x="531.054688" xlink:href="#DejaVuSans-108"/>
      <use x="558.837891" xlink:href="#DejaVuSans-100"/>
      <use x="622.314453" xlink:href="#DejaVuSans-101"/>
      <use x="683.837891" xlink:href="#DejaVuSans-114"/>
     </g>
    </g>
   </g>
   <g id="text_4">
    <g clip-path="url(#pb8be56759d)">
     <!-- Spine -->
     <g transform="translate(278.79576 245.757264)scale(0.1 -0.1)">
      <use xlink:href="#DejaVuSans-83"/>
      <use x="63.476562" xlink:href="#DejaVuSans-112"/>
      <use x="126.953125" xlink:href="#DejaVuSans-105"/>
      <use x="154.736328" xlink:href="#DejaVuSans-110"/>
      <use x="218.115234" xlink:href="#DejaVuSans-101"/>
     </g>
    </g>
   </g>
   <g id="text_5">
    <g clip-path="url(#pb8be56759d)">
     <!-- Sacr -->
     <g transform="translate(261.027773 376.862249)scale(0.1 -0.1)">
      <use xlink:href="#DejaVuSans-83"/>
      <use x="63.476562" xlink:href="#DejaVuSans-97"/>
      <use x="124.755859" xlink:href="#DejaVuSans-99"/>
      <use x="179.736328" xlink:href="#DejaVuSans-114"/>
     </g>
    </g>
   </g>
   <g id="text_6">
    <g clip-path="url(#pb8be56759d)">
     <!-- LShoulder -->
     <g transform="translate(94.999148 142.269312)scale(0.1 -0.1)">
      <defs>
       <path d="M 9.8125 72.90625 
L 19.671875 72.90625 
L 19.671875 8.296875 
L 55.171875 8.296875 
L 55.171875 0 
L 9.8125 0 
z
" id="DejaVuSans-76"/>
      </defs>
      <use xlink:href="#DejaVuSans-76"/>
      <use x="55.712891" xlink:href="#DejaVuSans-83"/>
      <use x="119.189453" xlink:href="#DejaVuSans-104"/>
      <use x="182.568359" xlink:href="#DejaVuSans-111"/>
      <use x="243.75" xlink:href="#DejaVuSans-117"/>
      <use x="307.128906" xlink:href="#DejaVuSans-108"/>
      <use x="334.912109" xlink:href="#DejaVuSans-100"/>
      <use x="398.388672" xlink:href="#DejaVuSans-101"/>
      <use x="459.912109" xlink:href="#DejaVuSans-114"/>
     </g>
    </g>
   </g>
   <g id="text_7">
    <g clip-path="url(#pb8be56759d)">
     <!-- LElbow -->
     <g transform="translate(32.32644 224.477752)scale(0.1 -0.1)">
      <defs>
       <path d="M 9.8125 72.90625 
L 55.90625 72.90625 
L 55.90625 64.59375 
L 19.671875 64.59375 
L 19.671875 43.015625 
L 54.390625 43.015625 
L 54.390625 34.71875 
L 19.671875 34.71875 
L 19.671875 8.296875 
L 56.78125 8.296875 
L 56.78125 0 
L 9.8125 0 
z
" id="DejaVuSans-69"/>
       <path d="M 48.6875 27.296875 
Q 48.6875 37.203125 44.609375 42.84375 
Q 40.53125 48.484375 33.40625 48.484375 
Q 26.265625 48.484375 22.1875 42.84375 
Q 18.109375 37.203125 18.109375 27.296875 
Q 18.109375 17.390625 22.1875 11.75 
Q 26.265625 6.109375 33.40625 6.109375 
Q 40.53125 6.109375 44.609375 11.75 
Q 48.6875 17.390625 48.6875 27.296875 
z
M 18.109375 46.390625 
Q 20.953125 51.265625 25.265625 53.625 
Q 29.59375 56 35.59375 56 
Q 45.5625 56 51.78125 48.09375 
Q 58.015625 40.1875 58.015625 27.296875 
Q 58.015625 14.40625 51.78125 6.484375 
Q 45.5625 -1.421875 35.59375 -1.421875 
Q 29.59375 -1.421875 25.265625 0.953125 
Q 20.953125 3.328125 18.109375 8.203125 
L 18.109375 0 
L 9.078125 0 
L 9.078125 75.984375 
L 18.109375 75.984375 
z
" id="DejaVuSans-98"/>
       <path d="M 4.203125 54.6875 
L 13.1875 54.6875 
L 24.421875 12.015625 
L 35.59375 54.6875 
L 46.1875 54.6875 
L 57.421875 12.015625 
L 68.609375 54.6875 
L 77.59375 54.6875 
L 63.28125 0 
L 52.6875 0 
L 40.921875 44.828125 
L 29.109375 0 
L 18.5 0 
z
" id="DejaVuSans-119"/>
      </defs>
      <use xlink:href="#DejaVuSans-76"/>
      <use x="55.712891" xlink:href="#DejaVuSans-69"/>
      <use x="118.896484" xlink:href="#DejaVuSans-108"/>
      <use x="146.679688" xlink:href="#DejaVuSans-98"/>
      <use x="210.15625" xlink:href="#DejaVuSans-111"/>
      <use x="271.337891" xlink:href="#DejaVuSans-119"/>
     </g>
    </g>
   </g>
   <g id="text_8">
    <g clip-path="url(#pb8be56759d)">
     <!-- LWrist -->
     <g transform="translate(169.747429 284.90254)scale(0.1 -0.1)">
      <defs>
       <path d="M 3.328125 72.90625 
L 13.28125 72.90625 
L 28.609375 11.28125 
L 43.890625 72.90625 
L 54.984375 72.90625 
L 70.3125 11.28125 
L 85.59375 72.90625 
L 95.609375 72.90625 
L 77.296875 0 
L 64.890625 0 
L 49.515625 63.28125 
L 33.984375 0 
L 21.578125 0 
z
" id="DejaVuSans-87"/>
       <path d="M 44.28125 53.078125 
L 44.28125 44.578125 
Q 40.484375 46.53125 36.375 47.5 
Q 32.28125 48.484375 27.875 48.484375 
Q 21.1875 48.484375 17.84375 46.4375 
Q 14.5 44.390625 14.5 40.28125 
Q 14.5 37.15625 16.890625 35.375 
Q 19.28125 33.59375 26.515625 31.984375 
L 29.59375 31.296875 
Q 39.15625 29.25 43.1875 25.515625 
Q 47.21875 21.78125 47.21875 15.09375 
Q 47.21875 7.46875 41.1875 3.015625 
Q 35.15625 -1.421875 24.609375 -1.421875 
Q 20.21875 -1.421875 15.453125 -0.5625 
Q 10.6875 0.296875 5.421875 2 
L 5.421875 11.28125 
Q 10.40625 8.6875 15.234375 7.390625 
Q 20.0625 6.109375 24.8125 6.109375 
Q 31.15625 6.109375 34.5625 8.28125 
Q 37.984375 10.453125 37.984375 14.40625 
Q 37.984375 18.0625 35.515625 20.015625 
Q 33.0625 21.96875 24.703125 23.78125 
L 21.578125 24.515625 
Q 13.234375 26.265625 9.515625 29.90625 
Q 5.8125 33.546875 5.8125 39.890625 
Q 5.8125 47.609375 11.28125 51.796875 
Q 16.75 56 26.8125 56 
Q 31.78125 56 36.171875 55.265625 
Q 40.578125 54.546875 44.28125 53.078125 
z
" id="DejaVuSans-115"/>
       <path d="M 18.3125 70.21875 
L 18.3125 54.6875 
L 36.8125 54.6875 
L 36.8125 47.703125 
L 18.3125 47.703125 
L 18.3125 18.015625 
Q 18.3125 11.328125 20.140625 9.421875 
Q 21.96875 7.515625 27.59375 7.515625 
L 36.8125 7.515625 
L 36.8125 0 
L 27.59375 0 
Q 17.1875 0 13.234375 3.875 
Q 9.28125 7.765625 9.28125 18.015625 
L 9.28125 47.703125 
L 2.6875 47.703125 
L 2.6875 54.6875 
L 9.28125 54.6875 
L 9.28125 70.21875 
z
" id="DejaVuSans-116"/>
      </defs>
      <use xlink:href="#DejaVuSans-76"/>
      <use x="46.587891" xlink:href="#DejaVuSans-87"/>
      <use x="140.964844" xlink:href="#DejaVuSans-114"/>
      <use x="182.078125" xlink:href="#DejaVuSans-105"/>
      <use x="209.861328" xlink:href="#DejaVuSans-115"/>
      <use x="261.960938" xlink:href="#DejaVuSans-116"/>
     </g>
    </g>
   </g>
   <g id="text_9">
    <g clip-path="url(#pb8be56759d)">
     <!-- LHand -->
     <g transform="translate(173.604135 292.344607)scale(0.1 -0.1)">
      <use xlink:href="#DejaVuSans-76"/>
      <use x="55.712891" xlink:href="#DejaVuSans-72"/>
      <use x="130.908203" xlink:href="#DejaVuSans-97"/>
      <use x="192.1875" xlink:href="#DejaVuSans-110"/>
      <use x="255.566406" xlink:href="#DejaVuSans-100"/>
     </g>
    </g>
   </g>
   <g id="text_10">
    <g clip-path="url(#pb8be56759d)">
     <!-- RShoulder -->
     <g transform="translate(478.085966 155.919504)scale(0.1 -0.1)">
      <defs>
       <path d="M 44.390625 34.1875 
Q 47.5625 33.109375 50.5625 29.59375 
Q 53.5625 26.078125 56.59375 19.921875 
L 66.609375 0 
L 56 0 
L 46.6875 18.703125 
Q 43.0625 26.03125 39.671875 28.421875 
Q 36.28125 30.8125 30.421875 30.8125 
L 19.671875 30.8125 
L 19.671875 0 
L 9.8125 0 
L 9.8125 72.90625 
L 32.078125 72.90625 
Q 44.578125 72.90625 50.734375 67.671875 
Q 56.890625 62.453125 56.890625 51.90625 
Q 56.890625 45.015625 53.6875 40.46875 
Q 50.484375 35.9375 44.390625 34.1875 
z
M 19.671875 64.796875 
L 19.671875 38.921875 
L 32.078125 38.921875 
Q 39.203125 38.921875 42.84375 42.21875 
Q 46.484375 45.515625 46.484375 51.90625 
Q 46.484375 58.296875 42.84375 61.546875 
Q 39.203125 64.796875 32.078125 64.796875 
z
" id="DejaVuSans-82"/>
      </defs>
      <use xlink:href="#DejaVuSans-82"/>
      <use x="69.482422" xlink:href="#DejaVuSans-83"/>
      <use x="132.958984" xlink:href="#DejaVuSans-104"/>
      <use x="196.337891" xlink:href="#DejaVuSans-111"/>
      <use x="257.519531" xlink:href="#DejaVuSans-117"/>
      <use x="320.898438" xlink:href="#DejaVuSans-108"/>
      <use x="348.681641" xlink:href="#DejaVuSans-100"/>
      <use x="412.158203" xlink:href="#DejaVuSans-101"/>
      <use x="473.681641" xlink:href="#DejaVuSans-114"/>
     </g>
    </g>
   </g>
   <g id="text_11">
    <g clip-path="url(#pb8be56759d)">
     <!-- RElbow -->
     <g transform="translate(507.671216 265.077832)scale(0.1 -0.1)">
      <use xlink:href="#DejaVuSans-82"/>
      <use x="69.482422" xlink:href="#DejaVuSans-69"/>
      <use x="132.666016" xlink:href="#DejaVuSans-108"/>
      <use x="160.449219" xlink:href="#DejaVuSans-98"/>
      <use x="223.925781" xlink:href="#DejaVuSans-111"/>
      <use x="285.107422" xlink:href="#DejaVuSans-119"/>
     </g>
    </g>
   </g>
   <g id="text_12">
    <g clip-path="url(#pb8be56759d)">
     <!-- RWrist -->
     <g transform="translate(367.473272 310.440835)scale(0.1 -0.1)">
      <use xlink:href="#DejaVuSans-82"/>
      <use x="65.482422" xlink:href="#DejaVuSans-87"/>
      <use x="159.859375" xlink:href="#DejaVuSans-114"/>
      <use x="200.972656" xlink:href="#DejaVuSans-105"/>
      <use x="228.755859" xlink:href="#DejaVuSans-115"/>
      <use x="280.855469" xlink:href="#DejaVuSans-116"/>
     </g>
    </g>
   </g>
   <g id="text_13">
    <g clip-path="url(#pb8be56759d)">
     <!-- RHand -->
     <g transform="translate(306.314096 310.186364)scale(0.1 -0.1)">
      <use xlink:href="#DejaVuSans-82"/>
      <use x="69.482422" xlink:href="#DejaVuSans-72"/>
      <use x="144.677734" xlink:href="#DejaVuSans-97"/>
      <use x="205.957031" xlink:href="#DejaVuSans-110"/>
      <use x="269.335938" xlink:href="#DejaVuSans-100"/>
     </g>
    </g>
   </g>
   <g id="text_14">
    <g clip-path="url(#pb8be56759d)">
     <!-- LHip -->
     <g transform="translate(178.692643 373.807689)scale(0.1 -0.1)">
      <use xlink:href="#DejaVuSans-76"/>
      <use x="55.712891" xlink:href="#DejaVuSans-72"/>
      <use x="130.908203" xlink:href="#DejaVuSans-105"/>
      <use x="158.691406" xlink:href="#DejaVuSans-112"/>
     </g>
    </g>
   </g>
   <g id="text_15">
    <g clip-path="url(#pb8be56759d)">
     <!-- LKnee -->
     <g transform="translate(149.142784 506.700163)scale(0.1 -0.1)">
      <defs>
       <path d="M 9.8125 72.90625 
L 19.671875 72.90625 
L 19.671875 42.09375 
L 52.390625 72.90625 
L 65.09375 72.90625 
L 28.90625 38.921875 
L 67.671875 0 
L 54.6875 0 
L 19.671875 35.109375 
L 19.671875 0 
L 9.8125 0 
z
" id="DejaVuSans-75"/>
      </defs>
      <use xlink:href="#DejaVuSans-76"/>
      <use x="55.712891" xlink:href="#DejaVuSans-75"/>
      <use x="121.289062" xlink:href="#DejaVuSans-110"/>
      <use x="184.667969" xlink:href="#DejaVuSans-101"/>
      <use x="246.191406" xlink:href="#DejaVuSans-101"/>
     </g>
    </g>
   </g>
   <g id="text_16">
    <g clip-path="url(#pb8be56759d)">
     <!-- LAnkle -->
     <g transform="translate(169.036283 662.748318)scale(0.1 -0.1)">
      <defs>
       <path d="M 34.1875 63.1875 
L 20.796875 26.90625 
L 47.609375 26.90625 
z
M 28.609375 72.90625 
L 39.796875 72.90625 
L 67.578125 0 
L 57.328125 0 
L 50.6875 18.703125 
L 17.828125 18.703125 
L 11.1875 0 
L 0.78125 0 
z
" id="DejaVuSans-65"/>
       <path d="M 9.078125 75.984375 
L 18.109375 75.984375 
L 18.109375 31.109375 
L 44.921875 54.6875 
L 56.390625 54.6875 
L 27.390625 29.109375 
L 57.625 0 
L 45.90625 0 
L 18.109375 26.703125 
L 18.109375 0 
L 9.078125 0 
z
" id="DejaVuSans-107"/>
      </defs>
      <use xlink:href="#DejaVuSans-76"/>
      <use x="57.962891" xlink:href="#DejaVuSans-65"/>
      <use x="126.371094" xlink:href="#DejaVuSans-110"/>
      <use x="189.75" xlink:href="#DejaVuSans-107"/>
      <use x="247.660156" xlink:href="#DejaVuSans-108"/>
      <use x="275.443359" xlink:href="#DejaVuSans-101"/>
     </g>
    </g>
   </g>
   <g id="text_17">
    <g clip-path="url(#pb8be56759d)">
     <!-- LFoot -->
     <g transform="translate(175.827015 695.57984)scale(0.1 -0.1)">
      <defs>
       <path d="M 9.8125 72.90625 
L 51.703125 72.90625 
L 51.703125 64.59375 
L 19.671875 64.59375 
L 19.671875 43.109375 
L 48.578125 43.109375 
L 48.578125 34.8125 
L 19.671875 34.8125 
L 19.671875 0 
L 9.8125 0 
z
" id="DejaVuSans-70"/>
      </defs>
      <use xlink:href="#DejaVuSans-76"/>
      <use x="55.712891" xlink:href="#DejaVuSans-70"/>
      <use x="109.607422" xlink:href="#DejaVuSans-111"/>
      <use x="170.789062" xlink:href="#DejaVuSans-111"/>
      <use x="231.970703" xlink:href="#DejaVuSans-116"/>
     </g>
    </g>
   </g>
   <g id="text_18">
    <g clip-path="url(#pb8be56759d)">
     <!-- RHip -->
     <g transform="translate(344.221086 376.469932)scale(0.1 -0.1)">
      <use xlink:href="#DejaVuSans-82"/>
      <use x="69.482422" xlink:href="#DejaVuSans-72"/>
      <use x="144.677734" xlink:href="#DejaVuSans-105"/>
      <use x="172.460938" xlink:href="#DejaVuSans-112"/>
     </g>
    </g>
   </g>
   <g id="text_19">
    <g clip-path="url(#pb8be56759d)">
     <!-- RKnee -->
     <g transform="translate(362.856412 567.969985)scale(0.1 -0.1)">
      <use xlink:href="#DejaVuSans-82"/>
      <use x="69.482422" xlink:href="#DejaVuSans-75"/>
      <use x="135.058594" xlink:href="#DejaVuSans-110"/>
      <use x="198.4375" xlink:href="#DejaVuSans-101"/>
      <use x="259.960938" xlink:href="#DejaVuSans-101"/>
     </g>
    </g>
   </g>
   <g id="text_20">
    <g clip-path="url(#pb8be56759d)">
     <!-- RAnkle -->
     <g transform="translate(345.959495 760.925995)scale(0.1 -0.1)">
      <use xlink:href="#DejaVuSans-82"/>
      <use x="65.482422" xlink:href="#DejaVuSans-65"/>
      <use x="133.890625" xlink:href="#DejaVuSans-110"/>
      <use x="197.269531" xlink:href="#DejaVuSans-107"/>
      <use x="255.179688" xlink:href="#DejaVuSans-108"/>
      <use x="282.962891" xlink:href="#DejaVuSans-101"/>
     </g>
    </g>
   </g>
   <g id="text_21">
    <g clip-path="url(#pb8be56759d)">
     <!-- RFoot -->
     <g transform="translate(362.561742 791.784168)scale(0.1 -0.1)">
      <use xlink:href="#DejaVuSans-82"/>
      <use x="69.482422" xlink:href="#DejaVuSans-70"/>
      <use x="123.376953" xlink:href="#DejaVuSans-111"/>
      <use x="184.558594" xlink:href="#DejaVuSans-111"/>
      <use x="245.740234" xlink:href="#DejaVuSans-116"/>
     </g>
    </g>
   </g>
   <g id="text_22">
    <g clip-path="url(#pb8be56759d)">
     <!-- LHandTip -->
     <g transform="translate(201.578981 303.954233)scale(0.1 -0.1)">
      <defs>
       <path d="M -0.296875 72.90625 
L 61.375 72.90625 
L 61.375 64.59375 
L 35.5 64.59375 
L 35.5 0 
L 25.59375 0 
L 25.59375 64.59375 
L -0.296875 64.59375 
z
" id="DejaVuSans-84"/>
      </defs>
      <use xlink:href="#DejaVuSans-76"/>
      <use x="55.712891" xlink:href="#DejaVuSans-72"/>
      <use x="130.908203" xlink:href="#DejaVuSans-97"/>
      <use x="192.1875" xlink:href="#DejaVuSans-110"/>
      <use x="255.566406" xlink:href="#DejaVuSans-100"/>
      <use x="319.042969" xlink:href="#DejaVuSans-84"/>
      <use x="377.001953" xlink:href="#DejaVuSans-105"/>
      <use x="404.785156" xlink:href="#DejaVuSans-112"/>
     </g>
    </g>
   </g>
   <g id="text_23">
    <g clip-path="url(#pb8be56759d)">
     <!-- LThumb -->
     <g transform="translate(221.223685 297.707697)scale(0.1 -0.1)">
      <defs>
       <path d="M 52 44.1875 
Q 55.375 50.25 60.0625 53.125 
Q 64.75 56 71.09375 56 
Q 79.640625 56 84.28125 50.015625 
Q 88.921875 44.046875 88.921875 33.015625 
L 88.921875 0 
L 79.890625 0 
L 79.890625 32.71875 
Q 79.890625 40.578125 77.09375 44.375 
Q 74.3125 48.1875 68.609375 48.1875 
Q 61.625 48.1875 57.5625 43.546875 
Q 53.515625 38.921875 53.515625 30.90625 
L 53.515625 0 
L 44.484375 0 
L 44.484375 32.71875 
Q 44.484375 40.625 41.703125 44.40625 
Q 38.921875 48.1875 33.109375 48.1875 
Q 26.21875 48.1875 22.15625 43.53125 
Q 18.109375 38.875 18.109375 30.90625 
L 18.109375 0 
L 9.078125 0 
L 9.078125 54.6875 
L 18.109375 54.6875 
L 18.109375 46.1875 
Q 21.1875 51.21875 25.484375 53.609375 
Q 29.78125 56 35.6875 56 
Q 41.65625 56 45.828125 52.96875 
Q 50 49.953125 52 44.1875 
z
" id="DejaVuSans-109"/>
      </defs>
      <use xlink:href="#DejaVuSans-76"/>
      <use x="41.962891" xlink:href="#DejaVuSans-84"/>
      <use x="103.046875" xlink:href="#DejaVuSans-104"/>
      <use x="166.425781" xlink:href="#DejaVuSans-117"/>
      <use x="229.804688" xlink:href="#DejaVuSans-109"/>
      <use x="327.216797" xlink:href="#DejaVuSans-98"/>
     </g>
    </g>
   </g>
   <g id="text_24">
    <g clip-path="url(#pb8be56759d)">
     <!-- RHandTip -->
     <g transform="translate(262.655389 318.795156)scale(0.1 -0.1)">
      <use xlink:href="#DejaVuSans-82"/>
      <use x="69.482422" xlink:href="#DejaVuSans-72"/>
      <use x="144.677734" xlink:href="#DejaVuSans-97"/>
      <use x="205.957031" xlink:href="#DejaVuSans-110"/>
      <use x="269.335938" xlink:href="#DejaVuSans-100"/>
      <use x="332.8125" xlink:href="#DejaVuSans-84"/>
      <use x="390.771484" xlink:href="#DejaVuSans-105"/>
      <use x="418.554688" xlink:href="#DejaVuSans-112"/>
     </g>
    </g>
   </g>
   <g id="text_25">
    <g clip-path="url(#pb8be56759d)">
     <!-- RThumb -->
     <g transform="translate(353.756426 314.565181)scale(0.1 -0.1)">
      <use xlink:href="#DejaVuSans-82"/>
      <use x="62.232422" xlink:href="#DejaVuSans-84"/>
      <use x="123.316406" xlink:href="#DejaVuSans-104"/>
      <use x="186.695312" xlink:href="#DejaVuSans-117"/>
      <use x="250.074219" xlink:href="#DejaVuSans-109"/>
      <use x="347.486328" xlink:href="#DejaVuSans-98"/>
     </g>
    </g>
   </g>
   <g id="text_26">
    <!-- Node Graph Visualization - Frame 282 -->
    <g transform="translate(174.194063 -6)scale(0.12 -0.12)">
     <defs>
      <path d="M 9.8125 72.90625 
L 23.09375 72.90625 
L 55.421875 11.921875 
L 55.421875 72.90625 
L 64.984375 72.90625 
L 64.984375 0 
L 51.703125 0 
L 19.390625 60.984375 
L 19.390625 0 
L 9.8125 0 
z
" id="DejaVuSans-78"/>
      <path id="DejaVuSans-32"/>
      <path d="M 59.515625 10.40625 
L 59.515625 29.984375 
L 43.40625 29.984375 
L 43.40625 38.09375 
L 69.28125 38.09375 
L 69.28125 6.78125 
Q 63.578125 2.734375 56.6875 0.65625 
Q 49.8125 -1.421875 42 -1.421875 
Q 24.90625 -1.421875 15.25 8.5625 
Q 5.609375 18.5625 5.609375 36.375 
Q 5.609375 54.25 15.25 64.234375 
Q 24.90625 74.21875 42 74.21875 
Q 49.125 74.21875 55.546875 72.453125 
Q 61.96875 70.703125 67.390625 67.28125 
L 67.390625 56.78125 
Q 61.921875 61.421875 55.765625 63.765625 
Q 49.609375 66.109375 42.828125 66.109375 
Q 29.4375 66.109375 22.71875 58.640625 
Q 16.015625 51.171875 16.015625 36.375 
Q 16.015625 21.625 22.71875 14.15625 
Q 29.4375 6.6875 42.828125 6.6875 
Q 48.046875 6.6875 52.140625 7.59375 
Q 56.25 8.5 59.515625 10.40625 
z
" id="DejaVuSans-71"/>
      <path d="M 28.609375 0 
L 0.78125 72.90625 
L 11.078125 72.90625 
L 34.1875 11.53125 
L 57.328125 72.90625 
L 67.578125 72.90625 
L 39.796875 0 
z
" id="DejaVuSans-86"/>
      <path d="M 5.515625 54.6875 
L 48.1875 54.6875 
L 48.1875 46.484375 
L 14.40625 7.171875 
L 48.1875 7.171875 
L 48.1875 0 
L 4.296875 0 
L 4.296875 8.203125 
L 38.09375 47.515625 
L 5.515625 47.515625 
z
" id="DejaVuSans-122"/>
      <path d="M 4.890625 31.390625 
L 31.203125 31.390625 
L 31.203125 23.390625 
L 4.890625 23.390625 
z
" id="DejaVuSans-45"/>
      <path d="M 19.1875 8.296875 
L 53.609375 8.296875 
L 53.609375 0 
L 7.328125 0 
L 7.328125 8.296875 
Q 12.9375 14.109375 22.625 23.890625 
Q 32.328125 33.6875 34.8125 36.53125 
Q 39.546875 41.84375 41.421875 45.53125 
Q 43.3125 49.21875 43.3125 52.78125 
Q 43.3125 58.59375 39.234375 62.25 
Q 35.15625 65.921875 28.609375 65.921875 
Q 23.96875 65.921875 18.8125 64.3125 
Q 13.671875 62.703125 7.8125 59.421875 
L 7.8125 69.390625 
Q 13.765625 71.78125 18.9375 73 
Q 24.125 74.21875 28.421875 74.21875 
Q 39.75 74.21875 46.484375 68.546875 
Q 53.21875 62.890625 53.21875 53.421875 
Q 53.21875 48.921875 51.53125 44.890625 
Q 49.859375 40.875 45.40625 35.40625 
Q 44.1875 33.984375 37.640625 27.21875 
Q 31.109375 20.453125 19.1875 8.296875 
z
" id="DejaVuSans-50"/>
      <path d="M 31.78125 34.625 
Q 24.75 34.625 20.71875 30.859375 
Q 16.703125 27.09375 16.703125 20.515625 
Q 16.703125 13.921875 20.71875 10.15625 
Q 24.75 6.390625 31.78125 6.390625 
Q 38.8125 6.390625 42.859375 10.171875 
Q 46.921875 13.96875 46.921875 20.515625 
Q 46.921875 27.09375 42.890625 30.859375 
Q 38.875 34.625 31.78125 34.625 
z
M 21.921875 38.8125 
Q 15.578125 40.375 12.03125 44.71875 
Q 8.5 49.078125 8.5 55.328125 
Q 8.5 64.0625 14.71875 69.140625 
Q 20.953125 74.21875 31.78125 74.21875 
Q 42.671875 74.21875 48.875 69.140625 
Q 55.078125 64.0625 55.078125 55.328125 
Q 55.078125 49.078125 51.53125 44.71875 
Q 48 40.375 41.703125 38.8125 
Q 48.828125 37.15625 52.796875 32.3125 
Q 56.78125 27.484375 56.78125 20.515625 
Q 56.78125 9.90625 50.3125 4.234375 
Q 43.84375 -1.421875 31.78125 -1.421875 
Q 19.734375 -1.421875 13.25 4.234375 
Q 6.78125 9.90625 6.78125 20.515625 
Q 6.78125 27.484375 10.78125 32.3125 
Q 14.796875 37.15625 21.921875 38.8125 
z
M 18.3125 54.390625 
Q 18.3125 48.734375 21.84375 45.5625 
Q 25.390625 42.390625 31.78125 42.390625 
Q 38.140625 42.390625 41.71875 45.5625 
Q 45.3125 48.734375 45.3125 54.390625 
Q 45.3125 60.0625 41.71875 63.234375 
Q 38.140625 66.40625 31.78125 66.40625 
Q 25.390625 66.40625 21.84375 63.234375 
Q 18.3125 60.0625 18.3125 54.390625 
z
" id="DejaVuSans-56"/>
     </defs>
     <use xlink:href="#DejaVuSans-78"/>
     <use x="74.804688" xlink:href="#DejaVuSans-111"/>
     <use x="135.986328" xlink:href="#DejaVuSans-100"/>
     <use x="199.462891" xlink:href="#DejaVuSans-101"/>
     <use x="260.986328" xlink:href="#DejaVuSans-32"/>
     <use x="292.773438" xlink:href="#DejaVuSans-71"/>
     <use x="370.263672" xlink:href="#DejaVuSans-114"/>
     <use x="411.376953" xlink:href="#DejaVuSans-97"/>
     <use x="472.65625" xlink:href="#DejaVuSans-112"/>
     <use x="536.132812" xlink:href="#DejaVuSans-104"/>
     <use x="599.511719" xlink:href="#DejaVuSans-32"/>
     <use x="631.298828" xlink:href="#DejaVuSans-86"/>
     <use x="697.457031" xlink:href="#DejaVuSans-105"/>
     <use x="725.240234" xlink:href="#DejaVuSans-115"/>
     <use x="777.339844" xlink:href="#DejaVuSans-117"/>
     <use x="840.71875" xlink:href="#DejaVuSans-97"/>
     <use x="901.998047" xlink:href="#DejaVuSans-108"/>
     <use x="929.78125" xlink:href="#DejaVuSans-105"/>
     <use x="957.564453" xlink:href="#DejaVuSans-122"/>
     <use x="1010.054688" xlink:href="#DejaVuSans-97"/>
     <use x="1071.333984" xlink:href="#DejaVuSans-116"/>
     <use x="1110.542969" xlink:href="#DejaVuSans-105"/>
     <use x="1138.326172" xlink:href="#DejaVuSans-111"/>
     <use x="1199.507812" xlink:href="#DejaVuSans-110"/>
     <use x="1262.886719" xlink:href="#DejaVuSans-32"/>
     <use x="1294.673828" xlink:href="#DejaVuSans-45"/>
     <use x="1330.757812" xlink:href="#DejaVuSans-32"/>
     <use x="1362.544922" xlink:href="#DejaVuSans-70"/>
     <use x="1412.814453" xlink:href="#DejaVuSans-114"/>
     <use x="1453.927734" xlink:href="#DejaVuSans-97"/>
     <use x="1515.207031" xlink:href="#DejaVuSans-109"/>
     <use x="1612.619141" xlink:href="#DejaVuSans-101"/>
     <use x="1674.142578" xlink:href="#DejaVuSans-32"/>
     <use x="1705.929688" xlink:href="#DejaVuSans-50"/>
     <use x="1769.552734" xlink:href="#DejaVuSans-56"/>
     <use x="1833.175781" xlink:href="#DejaVuSans-50"/>
    </g>
   </g>
  </g>
 </g>
 <defs>
  <clipPath id="pb8be56759d">
   <rect height="864" width="576" x="0" y="0"/>
  </clipPath>
 </defs>
</svg>
