<?xml version="1.0" encoding="utf-8" standalone="no"?>
<!DOCTYPE svg PUBLIC "-//W3C//DTD SVG 1.1//EN"
  "http://www.w3.org/Graphics/SVG/1.1/DTD/svg11.dtd">
<!-- Created with matplotlib (https://matplotlib.org/) -->
<svg height="864pt" version="1.1" viewBox="0 0 576 864" width="576pt" xmlns="http://www.w3.org/2000/svg" xmlns:xlink="http://www.w3.org/1999/xlink">
 <metadata>
  <rdf:RDF xmlns:cc="http://creativecommons.org/ns#" xmlns:dc="http://purl.org/dc/elements/1.1/" xmlns:rdf="http://www.w3.org/1999/02/22-rdf-syntax-ns#">
   <cc:Work>
    <dc:type rdf:resource="http://purl.org/dc/dcmitype/StillImage"/>
    <dc:date>2024-02-04T22:28:15.168059</dc:date>
    <dc:format>image/svg+xml</dc:format>
    <dc:creator>
     <cc:Agent>
      <dc:title>Matplotlib v3.3.2, https://matplotlib.org/</dc:title>
     </cc:Agent>
    </dc:creator>
   </cc:Work>
  </rdf:RDF>
 </metadata>
 <defs>
  <style type="text/css">*{stroke-linecap:butt;stroke-linejoin:round;}</style>
 </defs>
 <g id="figure_1">
  <g id="patch_1">
   <path d="M 0 864 
L 576 864 
L 576 0 
L 0 0 
z
" style="fill:#ffffff;"/>
  </g>
  <g id="axes_1">
   <g id="patch_2">
    <path clip-path="url(#pf587039337)" d="M 325.168414 86.102928 
Q 317.107339 98.635035 309.6511 110.226837 
" style="fill:none;stroke:#000000;stroke-linecap:round;"/>
    <path clip-path="url(#pf587039337)" d="M 313.497095 107.944663 
L 309.6511 110.226837 
L 310.132958 105.780737 
L 313.497095 107.944663 
z
" style="stroke:#000000;stroke-linecap:round;"/>
   </g>
   <g id="patch_3">
    <path clip-path="url(#pf587039337)" d="M 302.434134 135.512755 
Q 302.576234 138.962135 302.672315 141.294429 
" style="fill:none;stroke:#000000;stroke-linecap:round;"/>
    <path clip-path="url(#pf587039337)" d="M 304.505976 137.215497 
L 302.672315 141.294429 
L 300.509366 137.380141 
L 304.505976 137.215497 
z
" style="stroke:#000000;stroke-linecap:round;"/>
   </g>
   <g id="patch_4">
    <path clip-path="url(#pf587039337)" d="M 309.047273 111.165573 
Q 317.108348 98.633466 324.564587 87.041664 
" style="fill:none;stroke:#000000;stroke-linecap:round;"/>
    <path clip-path="url(#pf587039337)" d="M 320.718592 89.323837 
L 324.564587 87.041664 
L 324.082729 91.487764 
L 320.718592 89.323837 
z
" style="stroke:#000000;stroke-linecap:round;"/>
   </g>
   <g id="patch_5">
    <path clip-path="url(#pf587039337)" d="M 303.460916 168.849586 
Q 304.02818 206.690267 304.578686 243.41304 
" style="fill:none;stroke:#000000;stroke-linecap:round;"/>
    <path clip-path="url(#pf587039337)" d="M 306.518504 239.383511 
L 304.578686 243.41304 
L 302.518954 239.443468 
L 306.518504 239.383511 
z
" style="stroke:#000000;stroke-linecap:round;"/>
   </g>
   <g id="patch_6">
    <path clip-path="url(#pf587039337)" d="M 290.045146 156.191322 
Q 221.510383 159.129201 154.092628 162.019196 
" style="fill:none;stroke:#000000;stroke-linecap:round;"/>
    <path clip-path="url(#pf587039337)" d="M 158.174613 163.846051 
L 154.092628 162.019196 
L 158.003303 159.849721 
L 158.174613 163.846051 
z
" style="stroke:#000000;stroke-linecap:round;"/>
   </g>
   <g id="patch_7">
    <path clip-path="url(#pf587039337)" d="M 316.435801 156.853623 
Q 392.614797 163.96021 467.680592 170.96295 
" style="fill:none;stroke:#000000;stroke-linecap:round;"/>
    <path clip-path="url(#pf587039337)" d="M 463.883654 168.600057 
L 467.680592 170.96295 
L 463.512115 172.582764 
L 463.883654 168.600057 
z
" style="stroke:#000000;stroke-linecap:round;"/>
   </g>
   <g id="patch_8">
    <path clip-path="url(#pf587039337)" d="M 302.718077 142.405266 
Q 302.575977 138.955886 302.479896 136.623593 
" style="fill:none;stroke:#000000;stroke-linecap:round;"/>
    <path clip-path="url(#pf587039337)" d="M 300.646235 140.702525 
L 302.479896 136.623593 
L 304.642845 140.537881 
L 300.646235 140.702525 
z
" style="stroke:#000000;stroke-linecap:round;"/>
   </g>
   <g id="patch_9">
    <path clip-path="url(#pf587039337)" d="M 304.717718 270.983243 
Q 304.394705 327.181774 304.078119 382.262288 
" style="fill:none;stroke:#000000;stroke-linecap:round;"/>
    <path clip-path="url(#pf587039337)" d="M 306.101077 378.27385 
L 304.078119 382.262288 
L 302.101143 378.250859 
L 306.101077 378.27385 
z
" style="stroke:#000000;stroke-linecap:round;"/>
   </g>
   <g id="patch_10">
    <path clip-path="url(#pf587039337)" d="M 304.595479 244.533303 
Q 304.028215 206.692621 303.47771 169.969848 
" style="fill:none;stroke:#000000;stroke-linecap:round;"/>
    <path clip-path="url(#pf587039337)" d="M 301.537891 173.999377 
L 303.47771 169.969848 
L 305.537442 173.93942 
L 301.537891 173.999377 
z
" style="stroke:#000000;stroke-linecap:round;"/>
   </g>
   <g id="patch_11">
    <path clip-path="url(#pf587039337)" d="M 290.77247 396.765705 
Q 264.651899 397.071443 239.649286 397.364095 
" style="fill:none;stroke:#000000;stroke-linecap:round;"/>
    <path clip-path="url(#pf587039337)" d="M 243.67242 399.317142 
L 239.649286 397.364095 
L 243.625604 395.317416 
L 243.67242 399.317142 
z
" style="stroke:#000000;stroke-linecap:round;"/>
   </g>
   <g id="patch_12">
    <path clip-path="url(#pf587039337)" d="M 317.227022 396.486846 
Q 335.480396 396.315667 352.615785 396.154972 
" style="fill:none;stroke:#000000;stroke-linecap:round;"/>
    <path clip-path="url(#pf587039337)" d="M 348.597205 394.19257 
L 352.615785 396.154972 
L 348.634716 398.192394 
L 348.597205 394.19257 
z
" style="stroke:#000000;stroke-linecap:round;"/>
   </g>
   <g id="patch_13">
    <path clip-path="url(#pf587039337)" d="M 304.071661 383.385848 
Q 304.394674 327.187317 304.71126 272.106802 
" style="fill:none;stroke:#000000;stroke-linecap:round;"/>
    <path clip-path="url(#pf587039337)" d="M 302.688302 276.095241 
L 304.71126 272.106802 
L 306.688236 276.118231 
L 302.688302 276.095241 
z
" style="stroke:#000000;stroke-linecap:round;"/>
   </g>
   <g id="patch_14">
    <path clip-path="url(#pf587039337)" d="M 130.625235 172.202382 
Q 94.873183 209.642889 59.893258 246.274803 
" style="fill:none;stroke:#000000;stroke-linecap:round;"/>
    <path clip-path="url(#pf587039337)" d="M 64.102155 244.76312 
L 59.893258 246.274803 
L 61.20925 242.000676 
L 64.102155 244.76312 
z
" style="stroke:#000000;stroke-linecap:round;"/>
   </g>
   <g id="patch_15">
    <path clip-path="url(#pf587039337)" d="M 152.980126 162.066886 
Q 221.514889 159.129008 288.932644 156.239012 
" style="fill:none;stroke:#000000;stroke-linecap:round;"/>
    <path clip-path="url(#pf587039337)" d="M 284.850658 154.412158 
L 288.932644 156.239012 
L 285.021969 158.408487 
L 284.850658 154.412158 
z
" style="stroke:#000000;stroke-linecap:round;"/>
   </g>
   <g id="patch_16">
    <path clip-path="url(#pf587039337)" d="M 61.573326 263.034066 
Q 135.462292 303.717926 208.37187 343.862528 
" style="fill:none;stroke:#000000;stroke-linecap:round;"/>
    <path clip-path="url(#pf587039337)" d="M 205.832561 340.181236 
L 208.37187 343.862528 
L 203.903251 343.685199 
L 205.832561 340.181236 
z
" style="stroke:#000000;stroke-linecap:round;"/>
   </g>
   <g id="patch_17">
    <path clip-path="url(#pf587039337)" d="M 59.120843 247.083697 
Q 94.872895 209.643191 129.85282 173.011276 
" style="fill:none;stroke:#000000;stroke-linecap:round;"/>
    <path clip-path="url(#pf587039337)" d="M 125.643923 174.522959 
L 129.85282 173.011276 
L 128.536829 177.285404 
L 125.643923 174.522959 
z
" style="stroke:#000000;stroke-linecap:round;"/>
   </g>
   <g id="patch_18">
    <path clip-path="url(#pf587039337)" d="M 232.444046 357.315916 
Q 233.349479 357.830119 233.282715 357.792203 
" style="fill:none;stroke:#000000;stroke-linecap:round;"/>
    <path clip-path="url(#pf587039337)" d="M 230.79214 354.077767 
L 233.282715 357.792203 
L 228.816821 357.556001 
L 230.79214 354.077767 
z
" style="stroke:#000000;stroke-linecap:round;"/>
   </g>
   <g id="patch_19">
    <path clip-path="url(#pf587039337)" d="M 209.348539 344.40029 
Q 135.459573 303.716429 62.549995 263.571827 
" style="fill:none;stroke:#000000;stroke-linecap:round;"/>
    <path clip-path="url(#pf587039337)" d="M 65.089303 267.25312 
L 62.549995 263.571827 
L 67.018614 263.749156 
L 65.089303 267.25312 
z
" style="stroke:#000000;stroke-linecap:round;"/>
   </g>
   <g id="patch_20">
    <path clip-path="url(#pf587039337)" d="M 246.596549 363.119708 
Q 252.434221 365.378497 257.229193 367.23383 
" style="fill:none;stroke:#000000;stroke-linecap:round;"/>
    <path clip-path="url(#pf587039337)" d="M 254.220438 363.925145 
L 257.229193 367.23383 
L 252.776993 367.655623 
L 254.220438 363.925145 
z
" style="stroke:#000000;stroke-linecap:round;"/>
   </g>
   <g id="patch_21">
    <path clip-path="url(#pf587039337)" d="M 247.043928 361.715105 
Q 259.225645 364.925823 270.326249 367.851594 
" style="fill:none;stroke:#000000;stroke-linecap:round;"/>
    <path clip-path="url(#pf587039337)" d="M 266.968072 364.898182 
L 270.326249 367.851594 
L 265.948613 368.766088 
L 266.968072 364.898182 
z
" style="stroke:#000000;stroke-linecap:round;"/>
   </g>
   <g id="patch_22">
    <path clip-path="url(#pf587039337)" d="M 222.749258 351.810163 
Q 221.843825 351.29596 221.910589 351.333876 
" style="fill:none;stroke:#000000;stroke-linecap:round;"/>
    <path clip-path="url(#pf587039337)" d="M 224.401164 355.048312 
L 221.910589 351.333876 
L 226.376483 351.570078 
L 224.401164 355.048312 
z
" style="stroke:#000000;stroke-linecap:round;"/>
   </g>
   <g id="patch_23">
    <path clip-path="url(#pf587039337)" d="M 486.465219 184.732016 
Q 503.990403 233.171465 521.135217 280.559573 
" style="fill:none;stroke:#000000;stroke-linecap:round;"/>
    <path clip-path="url(#pf587039337)" d="M 521.655058 276.117753 
L 521.135217 280.559573 
L 517.893665 277.478608 
L 521.655058 276.117753 
z
" style="stroke:#000000;stroke-linecap:round;"/>
   </g>
   <g id="patch_24">
    <path clip-path="url(#pf587039337)" d="M 468.792635 171.06669 
Q 392.613639 163.960102 317.547843 156.957363 
" style="fill:none;stroke:#000000;stroke-linecap:round;"/>
    <path clip-path="url(#pf587039337)" d="M 321.344781 159.320256 
L 317.547843 156.957363 
L 321.71632 155.337548 
L 321.344781 159.320256 
z
" style="stroke:#000000;stroke-linecap:round;"/>
   </g>
   <g id="patch_25">
    <path clip-path="url(#pf587039337)" d="M 525.2735 307.259564 
Q 523.436862 339.907652 521.663021 371.439471 
" style="fill:none;stroke:#000000;stroke-linecap:round;"/>
    <path clip-path="url(#pf587039337)" d="M 523.884531 367.558119 
L 521.663021 371.439471 
L 519.890845 367.333452 
L 523.884531 367.558119 
z
" style="stroke:#000000;stroke-linecap:round;"/>
   </g>
   <g id="patch_26">
    <path clip-path="url(#pf587039337)" d="M 521.517082 281.615043 
Q 503.991897 233.175594 486.847083 185.787486 
" style="fill:none;stroke:#000000;stroke-linecap:round;"/>
    <path clip-path="url(#pf587039337)" d="M 486.327243 190.229306 
L 486.847083 185.787486 
L 490.088635 188.868451 
L 486.327243 190.229306 
z
" style="stroke:#000000;stroke-linecap:round;"/>
   </g>
   <g id="patch_27">
    <path clip-path="url(#pf587039337)" d="M 513.717039 396.904975 
Q 510.627212 401.725177 508.140742 405.604126 
" style="fill:none;stroke:#000000;stroke-linecap:round;"/>
    <path clip-path="url(#pf587039337)" d="M 511.98315 403.315916 
L 508.140742 405.604126 
L 508.615619 401.157274 
L 511.98315 403.315916 
z
" style="stroke:#000000;stroke-linecap:round;"/>
   </g>
   <g id="patch_28">
    <path clip-path="url(#pf587039337)" d="M 521.60008 372.558302 
Q 523.436718 339.910214 525.210559 308.378395 
" style="fill:none;stroke:#000000;stroke-linecap:round;"/>
    <path clip-path="url(#pf587039337)" d="M 522.989049 312.259747 
L 525.210559 308.378395 
L 526.982735 312.484414 
L 522.989049 312.259747 
z
" style="stroke:#000000;stroke-linecap:round;"/>
   </g>
   <g id="patch_29">
    <path clip-path="url(#pf587039337)" d="M 491.265645 427.252727 
Q 484.227584 434.628073 477.961381 441.19457 
" style="fill:none;stroke:#000000;stroke-linecap:round;"/>
    <path clip-path="url(#pf587039337)" d="M 482.169776 439.68149 
L 477.961381 441.19457 
L 479.275954 436.920006 
L 482.169776 439.68149 
z
" style="stroke:#000000;stroke-linecap:round;"/>
   </g>
   <g id="patch_30">
    <path clip-path="url(#pf587039337)" d="M 487.168501 417.714998 
Q 474.68441 417.745956 463.31835 417.774141 
" style="fill:none;stroke:#000000;stroke-linecap:round;"/>
    <path clip-path="url(#pf587039337)" d="M 467.323298 419.764216 
L 463.31835 417.774141 
L 467.313379 415.764228 
L 467.323298 419.764216 
z
" style="stroke:#000000;stroke-linecap:round;"/>
   </g>
   <g id="patch_31">
    <path clip-path="url(#pf587039337)" d="M 507.538519 406.543608 
Q 510.628347 401.723406 513.114816 397.844457 
" style="fill:none;stroke:#000000;stroke-linecap:round;"/>
    <path clip-path="url(#pf587039337)" d="M 509.272409 400.132667 
L 513.114816 397.844457 
L 512.63994 402.291309 
L 509.272409 400.132667 
z
" style="stroke:#000000;stroke-linecap:round;"/>
   </g>
   <g id="patch_32">
    <path clip-path="url(#pf587039337)" d="M 221.970897 410.332683 
Q 202.652911 484.607028 183.616351 557.799339 
" style="fill:none;stroke:#000000;stroke-linecap:round;"/>
    <path clip-path="url(#pf587039337)" d="M 186.558814 554.431564 
L 183.616351 557.799339 
L 182.687608 553.424703 
L 186.558814 554.431564 
z
" style="stroke:#000000;stroke-linecap:round;"/>
   </g>
   <g id="patch_33">
    <path clip-path="url(#pf587039337)" d="M 238.523387 397.377273 
Q 264.643958 397.071536 289.646571 396.778884 
" style="fill:none;stroke:#000000;stroke-linecap:round;"/>
    <path clip-path="url(#pf587039337)" d="M 285.623437 394.825837 
L 289.646571 396.778884 
L 285.670253 398.825563 
L 285.623437 394.825837 
z
" style="stroke:#000000;stroke-linecap:round;"/>
   </g>
   <g id="patch_34">
    <path clip-path="url(#pf587039337)" d="M 181.236569 584.859491 
Q 188.146046 658.729081 194.951401 731.485496 
" style="fill:none;stroke:#000000;stroke-linecap:round;"/>
    <path clip-path="url(#pf587039337)" d="M 196.57019 727.316621 
L 194.951401 731.485496 
L 192.587574 727.68914 
L 196.57019 727.316621 
z
" style="stroke:#000000;stroke-linecap:round;"/>
   </g>
   <g id="patch_35">
    <path clip-path="url(#pf587039337)" d="M 183.333737 558.88594 
Q 202.651723 484.611594 221.688284 411.419284 
" style="fill:none;stroke:#000000;stroke-linecap:round;"/>
    <path clip-path="url(#pf587039337)" d="M 218.745821 414.787059 
L 221.688284 411.419284 
L 222.617026 415.793919 
L 218.745821 414.787059 
z
" style="stroke:#000000;stroke-linecap:round;"/>
   </g>
   <g id="patch_36">
    <path clip-path="url(#pf587039337)" d="M 193.380941 758.680179 
Q 191.417341 767.397958 189.699413 775.025029 
" style="fill:none;stroke:#000000;stroke-linecap:round;"/>
    <path clip-path="url(#pf587039337)" d="M 192.529475 771.562263 
L 189.699413 775.025029 
L 188.627237 770.68332 
L 192.529475 771.562263 
z
" style="stroke:#000000;stroke-linecap:round;"/>
   </g>
   <g id="patch_37">
    <path clip-path="url(#pf587039337)" d="M 195.055762 732.601231 
Q 188.146285 658.731641 181.34093 585.975226 
" style="fill:none;stroke:#000000;stroke-linecap:round;"/>
    <path clip-path="url(#pf587039337)" d="M 179.722141 590.144101 
L 181.34093 585.975226 
L 183.704757 589.771582 
L 179.722141 590.144101 
z
" style="stroke:#000000;stroke-linecap:round;"/>
   </g>
   <g id="patch_38">
    <path clip-path="url(#pf587039337)" d="M 189.453059 776.118763 
Q 191.416659 767.400983 193.134587 759.773912 
" style="fill:none;stroke:#000000;stroke-linecap:round;"/>
    <path clip-path="url(#pf587039337)" d="M 190.304525 763.236678 
L 193.134587 759.773912 
L 194.206763 764.115622 
L 190.304525 763.236678 
z
" style="stroke:#000000;stroke-linecap:round;"/>
   </g>
   <g id="patch_39">
    <path clip-path="url(#pf587039337)" d="M 369.166737 409.063861 
Q 381.03591 479.187553 392.718499 548.20889 
" style="fill:none;stroke:#000000;stroke-linecap:round;"/>
    <path clip-path="url(#pf587039337)" d="M 394.022904 543.931212 
L 392.718499 548.20889 
L 390.078999 544.598759 
L 394.022904 543.931212 
z
" style="stroke:#000000;stroke-linecap:round;"/>
   </g>
   <g id="patch_40">
    <path clip-path="url(#pf587039337)" d="M 353.72763 396.144545 
Q 335.474256 396.315724 318.338867 396.476419 
" style="fill:none;stroke:#000000;stroke-linecap:round;"/>
    <path clip-path="url(#pf587039337)" d="M 322.357446 398.438821 
L 318.338867 396.476419 
L 322.319936 394.438997 
L 322.357446 398.438821 
z
" style="stroke:#000000;stroke-linecap:round;"/>
   </g>
   <g id="patch_41">
    <path clip-path="url(#pf587039337)" d="M 391.365438 575.042524 
Q 376.766855 624.445525 362.485106 672.776324 
" style="fill:none;stroke:#000000;stroke-linecap:round;"/>
    <path clip-path="url(#pf587039337)" d="M 365.536663 669.507073 
L 362.485106 672.776324 
L 361.700639 668.373528 
L 365.536663 669.507073 
z
" style="stroke:#000000;stroke-linecap:round;"/>
   </g>
   <g id="patch_42">
    <path clip-path="url(#pf587039337)" d="M 392.905772 549.315309 
Q 381.036599 479.191618 369.35401 410.170281 
" style="fill:none;stroke:#000000;stroke-linecap:round;"/>
    <path clip-path="url(#pf587039337)" d="M 368.049605 414.447959 
L 369.35401 410.170281 
L 371.99351 413.780412 
L 368.049605 414.447959 
z
" style="stroke:#000000;stroke-linecap:round;"/>
   </g>
   <g id="patch_43">
    <path clip-path="url(#pf587039337)" d="M 362.606367 699.08243 
Q 365.472178 707.668681 367.984022 715.19441 
" style="fill:none;stroke:#000000;stroke-linecap:round;"/>
    <path clip-path="url(#pf587039337)" d="M 368.614747 710.766975 
L 367.984022 715.19441 
L 364.820509 712.033368 
L 368.614747 710.766975 
z
" style="stroke:#000000;stroke-linecap:round;"/>
   </g>
   <g id="patch_44">
    <path clip-path="url(#pf587039337)" d="M 362.167027 673.852736 
Q 376.76561 624.449736 391.047359 576.118936 
" style="fill:none;stroke:#000000;stroke-linecap:round;"/>
    <path clip-path="url(#pf587039337)" d="M 387.995802 579.388187 
L 391.047359 576.118936 
L 391.831826 580.521732 
L 387.995802 579.388187 
z
" style="stroke:#000000;stroke-linecap:round;"/>
   </g>
   <g id="patch_45">
    <path clip-path="url(#pf587039337)" d="M 368.339402 716.259166 
Q 365.473591 707.672915 362.961747 700.147186 
" style="fill:none;stroke:#000000;stroke-linecap:round;"/>
    <path clip-path="url(#pf587039337)" d="M 362.331022 704.574621 
L 362.961747 700.147186 
L 366.12526 703.308228 
L 362.331022 704.574621 
z
" style="stroke:#000000;stroke-linecap:round;"/>
   </g>
   <g id="patch_46">
    <path clip-path="url(#pf587039337)" d="M 258.268073 367.635806 
Q 252.4304 365.377018 247.635428 363.521685 
" style="fill:none;stroke:#000000;stroke-linecap:round;"/>
    <path clip-path="url(#pf587039337)" d="M 250.644184 366.830369 
L 247.635428 363.521685 
L 252.087629 363.099891 
L 250.644184 366.830369 
z
" style="stroke:#000000;stroke-linecap:round;"/>
   </g>
   <g id="patch_47">
    <path clip-path="url(#pf587039337)" d="M 271.414704 368.138476 
Q 259.232987 364.927758 248.132383 362.001987 
" style="fill:none;stroke:#000000;stroke-linecap:round;"/>
    <path clip-path="url(#pf587039337)" d="M 251.490561 364.9554 
L 248.132383 362.001987 
L 252.510019 361.087493 
L 251.490561 364.9554 
z
" style="stroke:#000000;stroke-linecap:round;"/>
   </g>
   <g id="patch_48">
    <path clip-path="url(#pf587039337)" d="M 477.192312 442.000496 
Q 484.230372 434.62515 490.496575 428.058653 
" style="fill:none;stroke:#000000;stroke-linecap:round;"/>
    <path clip-path="url(#pf587039337)" d="M 486.28818 429.571733 
L 490.496575 428.058653 
L 489.182002 432.333217 
L 486.28818 429.571733 
z
" style="stroke:#000000;stroke-linecap:round;"/>
   </g>
   <g id="patch_49">
    <path clip-path="url(#pf587039337)" d="M 462.202552 417.776908 
Q 474.686643 417.74595 486.052703 417.717765 
" style="fill:none;stroke:#000000;stroke-linecap:round;"/>
    <path clip-path="url(#pf587039337)" d="M 482.047756 415.72769 
L 486.052703 417.717765 
L 482.057675 419.727678 
L 482.047756 415.72769 
z
" style="stroke:#000000;stroke-linecap:round;"/>
   </g>
   <g id="PathCollection_1">
    <defs>
     <path d="M 0 13.228757 
C 3.508307 13.228757 6.873396 11.834891 9.354143 9.354143 
C 11.834891 6.873396 13.228757 3.508307 13.228757 0 
C 13.228757 -3.508307 11.834891 -6.873396 9.354143 -9.354143 
C 6.873396 -11.834891 3.508307 -13.228757 0 -13.228757 
C -3.508307 -13.228757 -6.873396 -11.834891 -9.354143 -9.354143 
C -11.834891 -6.873396 -13.228757 -3.508307 -13.228757 0 
C -13.228757 3.508307 -11.834891 6.873396 -9.354143 9.354143 
C -6.873396 11.834891 -3.508307 13.228757 0 13.228757 
z
" id="me91e8ca5a1" style="stroke:#87ceeb;"/>
    </defs>
    <g clip-path="url(#pf587039337)">
     <use style="fill:#87ceeb;stroke:#87ceeb;" x="332.32614" xlink:href="#me91e8ca5a1" y="74.975207"/>
     <use style="fill:#87ceeb;stroke:#87ceeb;" x="301.889547" xlink:href="#me91e8ca5a1" y="122.293294"/>
     <use style="fill:#87ceeb;stroke:#87ceeb;" x="303.262664" xlink:href="#me91e8ca5a1" y="155.624727"/>
     <use style="fill:#87ceeb;stroke:#87ceeb;" x="304.793731" xlink:href="#me91e8ca5a1" y="257.758161"/>
     <use style="fill:#87ceeb;stroke:#87ceeb;" x="303.995648" xlink:href="#me91e8ca5a1" y="396.61093"/>
     <use style="fill:#87ceeb;stroke:#87ceeb;" x="139.762607" xlink:href="#me91e8ca5a1" y="162.633481"/>
     <use style="fill:#87ceeb;stroke:#87ceeb;" x="49.983471" xlink:href="#me91e8ca5a1" y="256.652598"/>
     <use style="fill:#87ceeb;stroke:#87ceeb;" x="220.938393" xlink:href="#me91e8ca5a1" y="350.781757"/>
     <use style="fill:#87ceeb;stroke:#87ceeb;" x="234.254911" xlink:href="#me91e8ca5a1" y="358.344321"/>
     <use style="fill:#87ceeb;stroke:#87ceeb;" x="481.965772" xlink:href="#me91e8ca5a1" y="172.295586"/>
     <use style="fill:#87ceeb;stroke:#87ceeb;" x="526.016529" xlink:href="#me91e8ca5a1" y="294.051474"/>
     <use style="fill:#87ceeb;stroke:#87ceeb;" x="520.857051" xlink:href="#me91e8ca5a1" y="385.766392"/>
     <use style="fill:#87ceeb;stroke:#87ceeb;" x="500.398508" xlink:href="#me91e8ca5a1" y="417.68219"/>
     <use style="fill:#87ceeb;stroke:#87ceeb;" x="225.30021" xlink:href="#me91e8ca5a1" y="397.532049"/>
     <use style="fill:#87ceeb;stroke:#87ceeb;" x="180.004425" xlink:href="#me91e8ca5a1" y="571.686574"/>
     <use style="fill:#87ceeb;stroke:#87ceeb;" x="196.287906" xlink:href="#me91e8ca5a1" y="745.774148"/>
     <use style="fill:#87ceeb;stroke:#87ceeb;" x="186.546094" xlink:href="#me91e8ca5a1" y="789.024793"/>
     <use style="fill:#87ceeb;stroke:#87ceeb;" x="366.959004" xlink:href="#me91e8ca5a1" y="396.020461"/>
     <use style="fill:#87ceeb;stroke:#87ceeb;" x="395.113505" xlink:href="#me91e8ca5a1" y="562.358709"/>
     <use style="fill:#87ceeb;stroke:#87ceeb;" x="358.41896" xlink:href="#me91e8ca5a1" y="686.536551"/>
     <use style="fill:#87ceeb;stroke:#87ceeb;" x="372.526809" xlink:href="#me91e8ca5a1" y="728.805045"/>
     <use style="fill:#87ceeb;stroke:#87ceeb;" x="270.609711" xlink:href="#me91e8ca5a1" y="372.411194"/>
     <use style="fill:#87ceeb;stroke:#87ceeb;" x="284.203722" xlink:href="#me91e8ca5a1" y="371.50926"/>
     <use style="fill:#87ceeb;stroke:#87ceeb;" x="468.059449" xlink:href="#me91e8ca5a1" y="451.571033"/>
     <use style="fill:#87ceeb;stroke:#87ceeb;" x="448.972546" xlink:href="#me91e8ca5a1" y="417.809716"/>
    </g>
   </g>
   <g id="text_1">
    <g clip-path="url(#pf587039337)">
     <!-- Head -->
     <g transform="translate(319.25114 77.734582)scale(0.1 -0.1)">
      <defs>
       <path d="M 9.8125 72.90625 
L 19.671875 72.90625 
L 19.671875 43.015625 
L 55.515625 43.015625 
L 55.515625 72.90625 
L 65.375 72.90625 
L 65.375 0 
L 55.515625 0 
L 55.515625 34.71875 
L 19.671875 34.71875 
L 19.671875 0 
L 9.8125 0 
z
" id="DejaVuSans-72"/>
       <path d="M 56.203125 29.59375 
L 56.203125 25.203125 
L 14.890625 25.203125 
Q 15.484375 15.921875 20.484375 11.0625 
Q 25.484375 6.203125 34.421875 6.203125 
Q 39.59375 6.203125 44.453125 7.46875 
Q 49.3125 8.734375 54.109375 11.28125 
L 54.109375 2.78125 
Q 49.265625 0.734375 44.1875 -0.34375 
Q 39.109375 -1.421875 33.890625 -1.421875 
Q 20.796875 -1.421875 13.15625 6.1875 
Q 5.515625 13.8125 5.515625 26.8125 
Q 5.515625 40.234375 12.765625 48.109375 
Q 20.015625 56 32.328125 56 
Q 43.359375 56 49.78125 48.890625 
Q 56.203125 41.796875 56.203125 29.59375 
z
M 47.21875 32.234375 
Q 47.125 39.59375 43.09375 43.984375 
Q 39.0625 48.390625 32.421875 48.390625 
Q 24.90625 48.390625 20.390625 44.140625 
Q 15.875 39.890625 15.1875 32.171875 
z
" id="DejaVuSans-101"/>
       <path d="M 34.28125 27.484375 
Q 23.390625 27.484375 19.1875 25 
Q 14.984375 22.515625 14.984375 16.5 
Q 14.984375 11.71875 18.140625 8.90625 
Q 21.296875 6.109375 26.703125 6.109375 
Q 34.1875 6.109375 38.703125 11.40625 
Q 43.21875 16.703125 43.21875 25.484375 
L 43.21875 27.484375 
z
M 52.203125 31.203125 
L 52.203125 0 
L 43.21875 0 
L 43.21875 8.296875 
Q 40.140625 3.328125 35.546875 0.953125 
Q 30.953125 -1.421875 24.3125 -1.421875 
Q 15.921875 -1.421875 10.953125 3.296875 
Q 6 8.015625 6 15.921875 
Q 6 25.140625 12.171875 29.828125 
Q 18.359375 34.515625 30.609375 34.515625 
L 43.21875 34.515625 
L 43.21875 35.40625 
Q 43.21875 41.609375 39.140625 45 
Q 35.0625 48.390625 27.6875 48.390625 
Q 23 48.390625 18.546875 47.265625 
Q 14.109375 46.140625 10.015625 43.890625 
L 10.015625 52.203125 
Q 14.9375 54.109375 19.578125 55.046875 
Q 24.21875 56 28.609375 56 
Q 40.484375 56 46.34375 49.84375 
Q 52.203125 43.703125 52.203125 31.203125 
z
" id="DejaVuSans-97"/>
       <path d="M 45.40625 46.390625 
L 45.40625 75.984375 
L 54.390625 75.984375 
L 54.390625 0 
L 45.40625 0 
L 45.40625 8.203125 
Q 42.578125 3.328125 38.25 0.953125 
Q 33.9375 -1.421875 27.875 -1.421875 
Q 17.96875 -1.421875 11.734375 6.484375 
Q 5.515625 14.40625 5.515625 27.296875 
Q 5.515625 40.1875 11.734375 48.09375 
Q 17.96875 56 27.875 56 
Q 33.9375 56 38.25 53.625 
Q 42.578125 51.265625 45.40625 46.390625 
z
M 14.796875 27.296875 
Q 14.796875 17.390625 18.875 11.75 
Q 22.953125 6.109375 30.078125 6.109375 
Q 37.203125 6.109375 41.296875 11.75 
Q 45.40625 17.390625 45.40625 27.296875 
Q 45.40625 37.203125 41.296875 42.84375 
Q 37.203125 48.484375 30.078125 48.484375 
Q 22.953125 48.484375 18.875 42.84375 
Q 14.796875 37.203125 14.796875 27.296875 
z
" id="DejaVuSans-100"/>
      </defs>
      <use xlink:href="#DejaVuSans-72"/>
      <use x="75.195312" xlink:href="#DejaVuSans-101"/>
      <use x="136.71875" xlink:href="#DejaVuSans-97"/>
      <use x="197.998047" xlink:href="#DejaVuSans-100"/>
     </g>
    </g>
   </g>
   <g id="text_2">
    <g clip-path="url(#pf587039337)">
     <!-- c7 -->
     <g transform="translate(295.959078 125.052669)scale(0.1 -0.1)">
      <defs>
       <path d="M 48.78125 52.59375 
L 48.78125 44.1875 
Q 44.96875 46.296875 41.140625 47.34375 
Q 37.3125 48.390625 33.40625 48.390625 
Q 24.65625 48.390625 19.8125 42.84375 
Q 14.984375 37.3125 14.984375 27.296875 
Q 14.984375 17.28125 19.8125 11.734375 
Q 24.65625 6.203125 33.40625 6.203125 
Q 37.3125 6.203125 41.140625 7.25 
Q 44.96875 8.296875 48.78125 10.40625 
L 48.78125 2.09375 
Q 45.015625 0.34375 40.984375 -0.53125 
Q 36.96875 -1.421875 32.421875 -1.421875 
Q 20.0625 -1.421875 12.78125 6.34375 
Q 5.515625 14.109375 5.515625 27.296875 
Q 5.515625 40.671875 12.859375 48.328125 
Q 20.21875 56 33.015625 56 
Q 37.15625 56 41.109375 55.140625 
Q 45.0625 54.296875 48.78125 52.59375 
z
" id="DejaVuSans-99"/>
       <path d="M 8.203125 72.90625 
L 55.078125 72.90625 
L 55.078125 68.703125 
L 28.609375 0 
L 18.3125 0 
L 43.21875 64.59375 
L 8.203125 64.59375 
z
" id="DejaVuSans-55"/>
      </defs>
      <use xlink:href="#DejaVuSans-99"/>
      <use x="54.980469" xlink:href="#DejaVuSans-55"/>
     </g>
    </g>
   </g>
   <g id="text_3">
    <g clip-path="url(#pf587039337)">
     <!-- SpineShoulder -->
     <g transform="translate(267.013445 158.384102)scale(0.1 -0.1)">
      <defs>
       <path d="M 53.515625 70.515625 
L 53.515625 60.890625 
Q 47.90625 63.578125 42.921875 64.890625 
Q 37.9375 66.21875 33.296875 66.21875 
Q 25.25 66.21875 20.875 63.09375 
Q 16.5 59.96875 16.5 54.203125 
Q 16.5 49.359375 19.40625 46.890625 
Q 22.3125 44.4375 30.421875 42.921875 
L 36.375 41.703125 
Q 47.40625 39.59375 52.65625 34.296875 
Q 57.90625 29 57.90625 20.125 
Q 57.90625 9.515625 50.796875 4.046875 
Q 43.703125 -1.421875 29.984375 -1.421875 
Q 24.8125 -1.421875 18.96875 -0.25 
Q 13.140625 0.921875 6.890625 3.21875 
L 6.890625 13.375 
Q 12.890625 10.015625 18.65625 8.296875 
Q 24.421875 6.59375 29.984375 6.59375 
Q 38.421875 6.59375 43.015625 9.90625 
Q 47.609375 13.234375 47.609375 19.390625 
Q 47.609375 24.75 44.3125 27.78125 
Q 41.015625 30.8125 33.5 32.328125 
L 27.484375 33.5 
Q 16.453125 35.6875 11.515625 40.375 
Q 6.59375 45.0625 6.59375 53.421875 
Q 6.59375 63.09375 13.40625 68.65625 
Q 20.21875 74.21875 32.171875 74.21875 
Q 37.3125 74.21875 42.625 73.28125 
Q 47.953125 72.359375 53.515625 70.515625 
z
" id="DejaVuSans-83"/>
       <path d="M 18.109375 8.203125 
L 18.109375 -20.796875 
L 9.078125 -20.796875 
L 9.078125 54.6875 
L 18.109375 54.6875 
L 18.109375 46.390625 
Q 20.953125 51.265625 25.265625 53.625 
Q 29.59375 56 35.59375 56 
Q 45.5625 56 51.78125 48.09375 
Q 58.015625 40.1875 58.015625 27.296875 
Q 58.015625 14.40625 51.78125 6.484375 
Q 45.5625 -1.421875 35.59375 -1.421875 
Q 29.59375 -1.421875 25.265625 0.953125 
Q 20.953125 3.328125 18.109375 8.203125 
z
M 48.6875 27.296875 
Q 48.6875 37.203125 44.609375 42.84375 
Q 40.53125 48.484375 33.40625 48.484375 
Q 26.265625 48.484375 22.1875 42.84375 
Q 18.109375 37.203125 18.109375 27.296875 
Q 18.109375 17.390625 22.1875 11.75 
Q 26.265625 6.109375 33.40625 6.109375 
Q 40.53125 6.109375 44.609375 11.75 
Q 48.6875 17.390625 48.6875 27.296875 
z
" id="DejaVuSans-112"/>
       <path d="M 9.421875 54.6875 
L 18.40625 54.6875 
L 18.40625 0 
L 9.421875 0 
z
M 9.421875 75.984375 
L 18.40625 75.984375 
L 18.40625 64.59375 
L 9.421875 64.59375 
z
" id="DejaVuSans-105"/>
       <path d="M 54.890625 33.015625 
L 54.890625 0 
L 45.90625 0 
L 45.90625 32.71875 
Q 45.90625 40.484375 42.875 44.328125 
Q 39.84375 48.1875 33.796875 48.1875 
Q 26.515625 48.1875 22.3125 43.546875 
Q 18.109375 38.921875 18.109375 30.90625 
L 18.109375 0 
L 9.078125 0 
L 9.078125 54.6875 
L 18.109375 54.6875 
L 18.109375 46.1875 
Q 21.34375 51.125 25.703125 53.5625 
Q 30.078125 56 35.796875 56 
Q 45.21875 56 50.046875 50.171875 
Q 54.890625 44.34375 54.890625 33.015625 
z
" id="DejaVuSans-110"/>
       <path d="M 54.890625 33.015625 
L 54.890625 0 
L 45.90625 0 
L 45.90625 32.71875 
Q 45.90625 40.484375 42.875 44.328125 
Q 39.84375 48.1875 33.796875 48.1875 
Q 26.515625 48.1875 22.3125 43.546875 
Q 18.109375 38.921875 18.109375 30.90625 
L 18.109375 0 
L 9.078125 0 
L 9.078125 75.984375 
L 18.109375 75.984375 
L 18.109375 46.1875 
Q 21.34375 51.125 25.703125 53.5625 
Q 30.078125 56 35.796875 56 
Q 45.21875 56 50.046875 50.171875 
Q 54.890625 44.34375 54.890625 33.015625 
z
" id="DejaVuSans-104"/>
       <path d="M 30.609375 48.390625 
Q 23.390625 48.390625 19.1875 42.75 
Q 14.984375 37.109375 14.984375 27.296875 
Q 14.984375 17.484375 19.15625 11.84375 
Q 23.34375 6.203125 30.609375 6.203125 
Q 37.796875 6.203125 41.984375 11.859375 
Q 46.1875 17.53125 46.1875 27.296875 
Q 46.1875 37.015625 41.984375 42.703125 
Q 37.796875 48.390625 30.609375 48.390625 
z
M 30.609375 56 
Q 42.328125 56 49.015625 48.375 
Q 55.71875 40.765625 55.71875 27.296875 
Q 55.71875 13.875 49.015625 6.21875 
Q 42.328125 -1.421875 30.609375 -1.421875 
Q 18.84375 -1.421875 12.171875 6.21875 
Q 5.515625 13.875 5.515625 27.296875 
Q 5.515625 40.765625 12.171875 48.375 
Q 18.84375 56 30.609375 56 
z
" id="DejaVuSans-111"/>
       <path d="M 8.5 21.578125 
L 8.5 54.6875 
L 17.484375 54.6875 
L 17.484375 21.921875 
Q 17.484375 14.15625 20.5 10.265625 
Q 23.53125 6.390625 29.59375 6.390625 
Q 36.859375 6.390625 41.078125 11.03125 
Q 45.3125 15.671875 45.3125 23.6875 
L 45.3125 54.6875 
L 54.296875 54.6875 
L 54.296875 0 
L 45.3125 0 
L 45.3125 8.40625 
Q 42.046875 3.421875 37.71875 1 
Q 33.40625 -1.421875 27.6875 -1.421875 
Q 18.265625 -1.421875 13.375 4.4375 
Q 8.5 10.296875 8.5 21.578125 
z
M 31.109375 56 
z
" id="DejaVuSans-117"/>
       <path d="M 9.421875 75.984375 
L 18.40625 75.984375 
L 18.40625 0 
L 9.421875 0 
z
" id="DejaVuSans-108"/>
       <path d="M 41.109375 46.296875 
Q 39.59375 47.171875 37.8125 47.578125 
Q 36.03125 48 33.890625 48 
Q 26.265625 48 22.1875 43.046875 
Q 18.109375 38.09375 18.109375 28.8125 
L 18.109375 0 
L 9.078125 0 
L 9.078125 54.6875 
L 18.109375 54.6875 
L 18.109375 46.1875 
Q 20.953125 51.171875 25.484375 53.578125 
Q 30.03125 56 36.53125 56 
Q 37.453125 56 38.578125 55.875 
Q 39.703125 55.765625 41.0625 55.515625 
z
" id="DejaVuSans-114"/>
      </defs>
      <use xlink:href="#DejaVuSans-83"/>
      <use x="63.476562" xlink:href="#DejaVuSans-112"/>
      <use x="126.953125" xlink:href="#DejaVuSans-105"/>
      <use x="154.736328" xlink:href="#DejaVuSans-110"/>
      <use x="218.115234" xlink:href="#DejaVuSans-101"/>
      <use x="279.638672" xlink:href="#DejaVuSans-83"/>
      <use x="343.115234" xlink:href="#DejaVuSans-104"/>
      <use x="406.494141" xlink:href="#DejaVuSans-111"/>
      <use x="467.675781" xlink:href="#DejaVuSans-117"/>
      <use x="531.054688" xlink:href="#DejaVuSans-108"/>
      <use x="558.837891" xlink:href="#DejaVuSans-100"/>
      <use x="622.314453" xlink:href="#DejaVuSans-101"/>
      <use x="683.837891" xlink:href="#DejaVuSans-114"/>
     </g>
    </g>
   </g>
   <g id="text_4">
    <g clip-path="url(#pf587039337)">
     <!-- Spine -->
     <g transform="translate(290.810919 260.517536)scale(0.1 -0.1)">
      <use xlink:href="#DejaVuSans-83"/>
      <use x="63.476562" xlink:href="#DejaVuSans-112"/>
      <use x="126.953125" xlink:href="#DejaVuSans-105"/>
      <use x="154.736328" xlink:href="#DejaVuSans-110"/>
      <use x="218.115234" xlink:href="#DejaVuSans-101"/>
     </g>
    </g>
   </g>
   <g id="text_5">
    <g clip-path="url(#pf587039337)">
     <!-- Sacr -->
     <g transform="translate(292.952679 399.370305)scale(0.1 -0.1)">
      <use xlink:href="#DejaVuSans-83"/>
      <use x="63.476562" xlink:href="#DejaVuSans-97"/>
      <use x="124.755859" xlink:href="#DejaVuSans-99"/>
      <use x="179.736328" xlink:href="#DejaVuSans-114"/>
     </g>
    </g>
   </g>
   <g id="text_6">
    <g clip-path="url(#pf587039337)">
     <!-- LShoulder -->
     <g transform="translate(114.710264 165.392856)scale(0.1 -0.1)">
      <defs>
       <path d="M 9.8125 72.90625 
L 19.671875 72.90625 
L 19.671875 8.296875 
L 55.171875 8.296875 
L 55.171875 0 
L 9.8125 0 
z
" id="DejaVuSans-76"/>
      </defs>
      <use xlink:href="#DejaVuSans-76"/>
      <use x="55.712891" xlink:href="#DejaVuSans-83"/>
      <use x="119.189453" xlink:href="#DejaVuSans-104"/>
      <use x="182.568359" xlink:href="#DejaVuSans-111"/>
      <use x="243.75" xlink:href="#DejaVuSans-117"/>
      <use x="307.128906" xlink:href="#DejaVuSans-108"/>
      <use x="334.912109" xlink:href="#DejaVuSans-100"/>
      <use x="398.388672" xlink:href="#DejaVuSans-101"/>
      <use x="459.912109" xlink:href="#DejaVuSans-114"/>
     </g>
    </g>
   </g>
   <g id="text_7">
    <g clip-path="url(#pf587039337)">
     <!-- LElbow -->
     <g transform="translate(32.32644 259.411973)scale(0.1 -0.1)">
      <defs>
       <path d="M 9.8125 72.90625 
L 55.90625 72.90625 
L 55.90625 64.59375 
L 19.671875 64.59375 
L 19.671875 43.015625 
L 54.390625 43.015625 
L 54.390625 34.71875 
L 19.671875 34.71875 
L 19.671875 8.296875 
L 56.78125 8.296875 
L 56.78125 0 
L 9.8125 0 
z
" id="DejaVuSans-69"/>
       <path d="M 48.6875 27.296875 
Q 48.6875 37.203125 44.609375 42.84375 
Q 40.53125 48.484375 33.40625 48.484375 
Q 26.265625 48.484375 22.1875 42.84375 
Q 18.109375 37.203125 18.109375 27.296875 
Q 18.109375 17.390625 22.1875 11.75 
Q 26.265625 6.109375 33.40625 6.109375 
Q 40.53125 6.109375 44.609375 11.75 
Q 48.6875 17.390625 48.6875 27.296875 
z
M 18.109375 46.390625 
Q 20.953125 51.265625 25.265625 53.625 
Q 29.59375 56 35.59375 56 
Q 45.5625 56 51.78125 48.09375 
Q 58.015625 40.1875 58.015625 27.296875 
Q 58.015625 14.40625 51.78125 6.484375 
Q 45.5625 -1.421875 35.59375 -1.421875 
Q 29.59375 -1.421875 25.265625 0.953125 
Q 20.953125 3.328125 18.109375 8.203125 
L 18.109375 0 
L 9.078125 0 
L 9.078125 75.984375 
L 18.109375 75.984375 
z
" id="DejaVuSans-98"/>
       <path d="M 4.203125 54.6875 
L 13.1875 54.6875 
L 24.421875 12.015625 
L 35.59375 54.6875 
L 46.1875 54.6875 
L 57.421875 12.015625 
L 68.609375 54.6875 
L 77.59375 54.6875 
L 63.28125 0 
L 52.6875 0 
L 40.921875 44.828125 
L 29.109375 0 
L 18.5 0 
z
" id="DejaVuSans-119"/>
      </defs>
      <use xlink:href="#DejaVuSans-76"/>
      <use x="55.712891" xlink:href="#DejaVuSans-69"/>
      <use x="118.896484" xlink:href="#DejaVuSans-108"/>
      <use x="146.679688" xlink:href="#DejaVuSans-98"/>
      <use x="210.15625" xlink:href="#DejaVuSans-111"/>
      <use x="271.337891" xlink:href="#DejaVuSans-119"/>
     </g>
    </g>
   </g>
   <g id="text_8">
    <g clip-path="url(#pf587039337)">
     <!-- LWrist -->
     <g transform="translate(205.880581 353.541132)scale(0.1 -0.1)">
      <defs>
       <path d="M 3.328125 72.90625 
L 13.28125 72.90625 
L 28.609375 11.28125 
L 43.890625 72.90625 
L 54.984375 72.90625 
L 70.3125 11.28125 
L 85.59375 72.90625 
L 95.609375 72.90625 
L 77.296875 0 
L 64.890625 0 
L 49.515625 63.28125 
L 33.984375 0 
L 21.578125 0 
z
" id="DejaVuSans-87"/>
       <path d="M 44.28125 53.078125 
L 44.28125 44.578125 
Q 40.484375 46.53125 36.375 47.5 
Q 32.28125 48.484375 27.875 48.484375 
Q 21.1875 48.484375 17.84375 46.4375 
Q 14.5 44.390625 14.5 40.28125 
Q 14.5 37.15625 16.890625 35.375 
Q 19.28125 33.59375 26.515625 31.984375 
L 29.59375 31.296875 
Q 39.15625 29.25 43.1875 25.515625 
Q 47.21875 21.78125 47.21875 15.09375 
Q 47.21875 7.46875 41.1875 3.015625 
Q 35.15625 -1.421875 24.609375 -1.421875 
Q 20.21875 -1.421875 15.453125 -0.5625 
Q 10.6875 0.296875 5.421875 2 
L 5.421875 11.28125 
Q 10.40625 8.6875 15.234375 7.390625 
Q 20.0625 6.109375 24.8125 6.109375 
Q 31.15625 6.109375 34.5625 8.28125 
Q 37.984375 10.453125 37.984375 14.40625 
Q 37.984375 18.0625 35.515625 20.015625 
Q 33.0625 21.96875 24.703125 23.78125 
L 21.578125 24.515625 
Q 13.234375 26.265625 9.515625 29.90625 
Q 5.8125 33.546875 5.8125 39.890625 
Q 5.8125 47.609375 11.28125 51.796875 
Q 16.75 56 26.8125 56 
Q 31.78125 56 36.171875 55.265625 
Q 40.578125 54.546875 44.28125 53.078125 
z
" id="DejaVuSans-115"/>
       <path d="M 18.3125 70.21875 
L 18.3125 54.6875 
L 36.8125 54.6875 
L 36.8125 47.703125 
L 18.3125 47.703125 
L 18.3125 18.015625 
Q 18.3125 11.328125 20.140625 9.421875 
Q 21.96875 7.515625 27.59375 7.515625 
L 36.8125 7.515625 
L 36.8125 0 
L 27.59375 0 
Q 17.1875 0 13.234375 3.875 
Q 9.28125 7.765625 9.28125 18.015625 
L 9.28125 47.703125 
L 2.6875 47.703125 
L 2.6875 54.6875 
L 9.28125 54.6875 
L 9.28125 70.21875 
z
" id="DejaVuSans-116"/>
      </defs>
      <use xlink:href="#DejaVuSans-76"/>
      <use x="46.587891" xlink:href="#DejaVuSans-87"/>
      <use x="140.964844" xlink:href="#DejaVuSans-114"/>
      <use x="182.078125" xlink:href="#DejaVuSans-105"/>
      <use x="209.861328" xlink:href="#DejaVuSans-115"/>
      <use x="261.960938" xlink:href="#DejaVuSans-116"/>
     </g>
    </g>
   </g>
   <g id="text_9">
    <g clip-path="url(#pf587039337)">
     <!-- LHand -->
     <g transform="translate(218.301786 361.103696)scale(0.1 -0.1)">
      <use xlink:href="#DejaVuSans-76"/>
      <use x="55.712891" xlink:href="#DejaVuSans-72"/>
      <use x="130.908203" xlink:href="#DejaVuSans-97"/>
      <use x="192.1875" xlink:href="#DejaVuSans-110"/>
      <use x="255.566406" xlink:href="#DejaVuSans-100"/>
     </g>
    </g>
   </g>
   <g id="text_10">
    <g clip-path="url(#pf587039337)">
     <!-- RShoulder -->
     <g transform="translate(456.225147 175.054961)scale(0.1 -0.1)">
      <defs>
       <path d="M 44.390625 34.1875 
Q 47.5625 33.109375 50.5625 29.59375 
Q 53.5625 26.078125 56.59375 19.921875 
L 66.609375 0 
L 56 0 
L 46.6875 18.703125 
Q 43.0625 26.03125 39.671875 28.421875 
Q 36.28125 30.8125 30.421875 30.8125 
L 19.671875 30.8125 
L 19.671875 0 
L 9.8125 0 
L 9.8125 72.90625 
L 32.078125 72.90625 
Q 44.578125 72.90625 50.734375 67.671875 
Q 56.890625 62.453125 56.890625 51.90625 
Q 56.890625 45.015625 53.6875 40.46875 
Q 50.484375 35.9375 44.390625 34.1875 
z
M 19.671875 64.796875 
L 19.671875 38.921875 
L 32.078125 38.921875 
Q 39.203125 38.921875 42.84375 42.21875 
Q 46.484375 45.515625 46.484375 51.90625 
Q 46.484375 58.296875 42.84375 61.546875 
Q 39.203125 64.796875 32.078125 64.796875 
z
" id="DejaVuSans-82"/>
      </defs>
      <use xlink:href="#DejaVuSans-82"/>
      <use x="69.482422" xlink:href="#DejaVuSans-83"/>
      <use x="132.958984" xlink:href="#DejaVuSans-104"/>
      <use x="196.337891" xlink:href="#DejaVuSans-111"/>
      <use x="257.519531" xlink:href="#DejaVuSans-117"/>
      <use x="320.898438" xlink:href="#DejaVuSans-108"/>
      <use x="348.681641" xlink:href="#DejaVuSans-100"/>
      <use x="412.158203" xlink:href="#DejaVuSans-101"/>
      <use x="473.681641" xlink:href="#DejaVuSans-114"/>
     </g>
    </g>
   </g>
   <g id="text_11">
    <g clip-path="url(#pf587039337)">
     <!-- RElbow -->
     <g transform="translate(507.671216 296.810849)scale(0.1 -0.1)">
      <use xlink:href="#DejaVuSans-82"/>
      <use x="69.482422" xlink:href="#DejaVuSans-69"/>
      <use x="132.666016" xlink:href="#DejaVuSans-108"/>
      <use x="160.449219" xlink:href="#DejaVuSans-98"/>
      <use x="223.925781" xlink:href="#DejaVuSans-111"/>
      <use x="285.107422" xlink:href="#DejaVuSans-119"/>
     </g>
    </g>
   </g>
   <g id="text_12">
    <g clip-path="url(#pf587039337)">
     <!-- RWrist -->
     <g transform="translate(504.854707 388.525767)scale(0.1 -0.1)">
      <use xlink:href="#DejaVuSans-82"/>
      <use x="65.482422" xlink:href="#DejaVuSans-87"/>
      <use x="159.859375" xlink:href="#DejaVuSans-114"/>
      <use x="200.972656" xlink:href="#DejaVuSans-105"/>
      <use x="228.755859" xlink:href="#DejaVuSans-115"/>
      <use x="280.855469" xlink:href="#DejaVuSans-116"/>
     </g>
    </g>
   </g>
   <g id="text_13">
    <g clip-path="url(#pf587039337)">
     <!-- RHand -->
     <g transform="translate(483.757101 420.441565)scale(0.1 -0.1)">
      <use xlink:href="#DejaVuSans-82"/>
      <use x="69.482422" xlink:href="#DejaVuSans-72"/>
      <use x="144.677734" xlink:href="#DejaVuSans-97"/>
      <use x="205.957031" xlink:href="#DejaVuSans-110"/>
      <use x="269.335938" xlink:href="#DejaVuSans-100"/>
     </g>
    </g>
   </g>
   <g id="text_14">
    <g clip-path="url(#pf587039337)">
     <!-- LHip -->
     <g transform="translate(214.190835 400.291424)scale(0.1 -0.1)">
      <use xlink:href="#DejaVuSans-76"/>
      <use x="55.712891" xlink:href="#DejaVuSans-72"/>
      <use x="130.908203" xlink:href="#DejaVuSans-105"/>
      <use x="158.691406" xlink:href="#DejaVuSans-112"/>
     </g>
    </g>
   </g>
   <g id="text_15">
    <g clip-path="url(#pf587039337)">
     <!-- LKnee -->
     <g transform="translate(164.617706 574.445949)scale(0.1 -0.1)">
      <defs>
       <path d="M 9.8125 72.90625 
L 19.671875 72.90625 
L 19.671875 42.09375 
L 52.390625 72.90625 
L 65.09375 72.90625 
L 28.90625 38.921875 
L 67.671875 0 
L 54.6875 0 
L 19.671875 35.109375 
L 19.671875 0 
L 9.8125 0 
z
" id="DejaVuSans-75"/>
      </defs>
      <use xlink:href="#DejaVuSans-76"/>
      <use x="55.712891" xlink:href="#DejaVuSans-75"/>
      <use x="121.289062" xlink:href="#DejaVuSans-110"/>
      <use x="184.667969" xlink:href="#DejaVuSans-101"/>
      <use x="246.191406" xlink:href="#DejaVuSans-101"/>
     </g>
    </g>
   </g>
   <g id="text_16">
    <g clip-path="url(#pf587039337)">
     <!-- LAnkle -->
     <g transform="translate(179.439468 748.533523)scale(0.1 -0.1)">
      <defs>
       <path d="M 34.1875 63.1875 
L 20.796875 26.90625 
L 47.609375 26.90625 
z
M 28.609375 72.90625 
L 39.796875 72.90625 
L 67.578125 0 
L 57.328125 0 
L 50.6875 18.703125 
L 17.828125 18.703125 
L 11.1875 0 
L 0.78125 0 
z
" id="DejaVuSans-65"/>
       <path d="M 9.078125 75.984375 
L 18.109375 75.984375 
L 18.109375 31.109375 
L 44.921875 54.6875 
L 56.390625 54.6875 
L 27.390625 29.109375 
L 57.625 0 
L 45.90625 0 
L 18.109375 26.703125 
L 18.109375 0 
L 9.078125 0 
z
" id="DejaVuSans-107"/>
      </defs>
      <use xlink:href="#DejaVuSans-76"/>
      <use x="57.962891" xlink:href="#DejaVuSans-65"/>
      <use x="126.371094" xlink:href="#DejaVuSans-110"/>
      <use x="189.75" xlink:href="#DejaVuSans-107"/>
      <use x="247.660156" xlink:href="#DejaVuSans-108"/>
      <use x="275.443359" xlink:href="#DejaVuSans-101"/>
     </g>
    </g>
   </g>
   <g id="text_17">
    <g clip-path="url(#pf587039337)">
     <!-- LFoot -->
     <g transform="translate(172.986719 791.784168)scale(0.1 -0.1)">
      <defs>
       <path d="M 9.8125 72.90625 
L 51.703125 72.90625 
L 51.703125 64.59375 
L 19.671875 64.59375 
L 19.671875 43.109375 
L 48.578125 43.109375 
L 48.578125 34.8125 
L 19.671875 34.8125 
L 19.671875 0 
L 9.8125 0 
z
" id="DejaVuSans-70"/>
      </defs>
      <use xlink:href="#DejaVuSans-76"/>
      <use x="55.712891" xlink:href="#DejaVuSans-70"/>
      <use x="109.607422" xlink:href="#DejaVuSans-111"/>
      <use x="170.789062" xlink:href="#DejaVuSans-111"/>
      <use x="231.970703" xlink:href="#DejaVuSans-116"/>
     </g>
    </g>
   </g>
   <g id="text_18">
    <g clip-path="url(#pf587039337)">
     <!-- RHip -->
     <g transform="translate(355.161348 398.779836)scale(0.1 -0.1)">
      <use xlink:href="#DejaVuSans-82"/>
      <use x="69.482422" xlink:href="#DejaVuSans-72"/>
      <use x="144.677734" xlink:href="#DejaVuSans-105"/>
      <use x="172.460938" xlink:href="#DejaVuSans-112"/>
     </g>
    </g>
   </g>
   <g id="text_19">
    <g clip-path="url(#pf587039337)">
     <!-- RKnee -->
     <g transform="translate(379.038505 565.118084)scale(0.1 -0.1)">
      <use xlink:href="#DejaVuSans-82"/>
      <use x="69.482422" xlink:href="#DejaVuSans-75"/>
      <use x="135.058594" xlink:href="#DejaVuSans-110"/>
      <use x="198.4375" xlink:href="#DejaVuSans-101"/>
      <use x="259.960938" xlink:href="#DejaVuSans-101"/>
     </g>
    </g>
   </g>
   <g id="text_20">
    <g clip-path="url(#pf587039337)">
     <!-- RAnkle -->
     <g transform="translate(341.194742 689.295926)scale(0.1 -0.1)">
      <use xlink:href="#DejaVuSans-82"/>
      <use x="65.482422" xlink:href="#DejaVuSans-65"/>
      <use x="133.890625" xlink:href="#DejaVuSans-110"/>
      <use x="197.269531" xlink:href="#DejaVuSans-107"/>
      <use x="255.179688" xlink:href="#DejaVuSans-108"/>
      <use x="282.962891" xlink:href="#DejaVuSans-101"/>
     </g>
    </g>
   </g>
   <g id="text_21">
    <g clip-path="url(#pf587039337)">
     <!-- RFoot -->
     <g transform="translate(358.279153 731.56442)scale(0.1 -0.1)">
      <use xlink:href="#DejaVuSans-82"/>
      <use x="69.482422" xlink:href="#DejaVuSans-70"/>
      <use x="123.376953" xlink:href="#DejaVuSans-111"/>
      <use x="184.558594" xlink:href="#DejaVuSans-111"/>
      <use x="245.740234" xlink:href="#DejaVuSans-116"/>
     </g>
    </g>
   </g>
   <g id="text_22">
    <g clip-path="url(#pf587039337)">
     <!-- LHandTip -->
     <g transform="translate(247.195648 375.170569)scale(0.1 -0.1)">
      <defs>
       <path d="M -0.296875 72.90625 
L 61.375 72.90625 
L 61.375 64.59375 
L 35.5 64.59375 
L 35.5 0 
L 25.59375 0 
L 25.59375 64.59375 
L -0.296875 64.59375 
z
" id="DejaVuSans-84"/>
      </defs>
      <use xlink:href="#DejaVuSans-76"/>
      <use x="55.712891" xlink:href="#DejaVuSans-72"/>
      <use x="130.908203" xlink:href="#DejaVuSans-97"/>
      <use x="192.1875" xlink:href="#DejaVuSans-110"/>
      <use x="255.566406" xlink:href="#DejaVuSans-100"/>
      <use x="319.042969" xlink:href="#DejaVuSans-84"/>
      <use x="377.001953" xlink:href="#DejaVuSans-105"/>
      <use x="404.785156" xlink:href="#DejaVuSans-112"/>
     </g>
    </g>
   </g>
   <g id="text_23">
    <g clip-path="url(#pf587039337)">
     <!-- LThumb -->
     <g transform="translate(264.669347 374.268635)scale(0.1 -0.1)">
      <defs>
       <path d="M 52 44.1875 
Q 55.375 50.25 60.0625 53.125 
Q 64.75 56 71.09375 56 
Q 79.640625 56 84.28125 50.015625 
Q 88.921875 44.046875 88.921875 33.015625 
L 88.921875 0 
L 79.890625 0 
L 79.890625 32.71875 
Q 79.890625 40.578125 77.09375 44.375 
Q 74.3125 48.1875 68.609375 48.1875 
Q 61.625 48.1875 57.5625 43.546875 
Q 53.515625 38.921875 53.515625 30.90625 
L 53.515625 0 
L 44.484375 0 
L 44.484375 32.71875 
Q 44.484375 40.625 41.703125 44.40625 
Q 38.921875 48.1875 33.109375 48.1875 
Q 26.21875 48.1875 22.15625 43.53125 
Q 18.109375 38.875 18.109375 30.90625 
L 18.109375 0 
L 9.078125 0 
L 9.078125 54.6875 
L 18.109375 54.6875 
L 18.109375 46.1875 
Q 21.1875 51.21875 25.484375 53.609375 
Q 29.78125 56 35.6875 56 
Q 41.65625 56 45.828125 52.96875 
Q 50 49.953125 52 44.1875 
z
" id="DejaVuSans-109"/>
      </defs>
      <use xlink:href="#DejaVuSans-76"/>
      <use x="41.962891" xlink:href="#DejaVuSans-84"/>
      <use x="103.046875" xlink:href="#DejaVuSans-104"/>
      <use x="166.425781" xlink:href="#DejaVuSans-117"/>
      <use x="229.804688" xlink:href="#DejaVuSans-109"/>
      <use x="327.216797" xlink:href="#DejaVuSans-98"/>
     </g>
    </g>
   </g>
   <g id="text_24">
    <g clip-path="url(#pf587039337)">
     <!-- RHandTip -->
     <g transform="translate(443.957105 454.330408)scale(0.1 -0.1)">
      <use xlink:href="#DejaVuSans-82"/>
      <use x="69.482422" xlink:href="#DejaVuSans-72"/>
      <use x="144.677734" xlink:href="#DejaVuSans-97"/>
      <use x="205.957031" xlink:href="#DejaVuSans-110"/>
      <use x="269.335938" xlink:href="#DejaVuSans-100"/>
      <use x="332.8125" xlink:href="#DejaVuSans-84"/>
      <use x="390.771484" xlink:href="#DejaVuSans-105"/>
      <use x="418.554688" xlink:href="#DejaVuSans-112"/>
     </g>
    </g>
   </g>
   <g id="text_25">
    <g clip-path="url(#pf587039337)">
     <!-- RThumb -->
     <g transform="translate(428.42489 420.569091)scale(0.1 -0.1)">
      <use xlink:href="#DejaVuSans-82"/>
      <use x="62.232422" xlink:href="#DejaVuSans-84"/>
      <use x="123.316406" xlink:href="#DejaVuSans-104"/>
      <use x="186.695312" xlink:href="#DejaVuSans-117"/>
      <use x="250.074219" xlink:href="#DejaVuSans-109"/>
      <use x="347.486328" xlink:href="#DejaVuSans-98"/>
     </g>
    </g>
   </g>
   <g id="text_26">
    <!-- Node Graph Visualization - Frame 194 -->
    <g transform="translate(174.194063 -6)scale(0.12 -0.12)">
     <defs>
      <path d="M 9.8125 72.90625 
L 23.09375 72.90625 
L 55.421875 11.921875 
L 55.421875 72.90625 
L 64.984375 72.90625 
L 64.984375 0 
L 51.703125 0 
L 19.390625 60.984375 
L 19.390625 0 
L 9.8125 0 
z
" id="DejaVuSans-78"/>
      <path id="DejaVuSans-32"/>
      <path d="M 59.515625 10.40625 
L 59.515625 29.984375 
L 43.40625 29.984375 
L 43.40625 38.09375 
L 69.28125 38.09375 
L 69.28125 6.78125 
Q 63.578125 2.734375 56.6875 0.65625 
Q 49.8125 -1.421875 42 -1.421875 
Q 24.90625 -1.421875 15.25 8.5625 
Q 5.609375 18.5625 5.609375 36.375 
Q 5.609375 54.25 15.25 64.234375 
Q 24.90625 74.21875 42 74.21875 
Q 49.125 74.21875 55.546875 72.453125 
Q 61.96875 70.703125 67.390625 67.28125 
L 67.390625 56.78125 
Q 61.921875 61.421875 55.765625 63.765625 
Q 49.609375 66.109375 42.828125 66.109375 
Q 29.4375 66.109375 22.71875 58.640625 
Q 16.015625 51.171875 16.015625 36.375 
Q 16.015625 21.625 22.71875 14.15625 
Q 29.4375 6.6875 42.828125 6.6875 
Q 48.046875 6.6875 52.140625 7.59375 
Q 56.25 8.5 59.515625 10.40625 
z
" id="DejaVuSans-71"/>
      <path d="M 28.609375 0 
L 0.78125 72.90625 
L 11.078125 72.90625 
L 34.1875 11.53125 
L 57.328125 72.90625 
L 67.578125 72.90625 
L 39.796875 0 
z
" id="DejaVuSans-86"/>
      <path d="M 5.515625 54.6875 
L 48.1875 54.6875 
L 48.1875 46.484375 
L 14.40625 7.171875 
L 48.1875 7.171875 
L 48.1875 0 
L 4.296875 0 
L 4.296875 8.203125 
L 38.09375 47.515625 
L 5.515625 47.515625 
z
" id="DejaVuSans-122"/>
      <path d="M 4.890625 31.390625 
L 31.203125 31.390625 
L 31.203125 23.390625 
L 4.890625 23.390625 
z
" id="DejaVuSans-45"/>
      <path d="M 12.40625 8.296875 
L 28.515625 8.296875 
L 28.515625 63.921875 
L 10.984375 60.40625 
L 10.984375 69.390625 
L 28.421875 72.90625 
L 38.28125 72.90625 
L 38.28125 8.296875 
L 54.390625 8.296875 
L 54.390625 0 
L 12.40625 0 
z
" id="DejaVuSans-49"/>
      <path d="M 10.984375 1.515625 
L 10.984375 10.5 
Q 14.703125 8.734375 18.5 7.8125 
Q 22.3125 6.890625 25.984375 6.890625 
Q 35.75 6.890625 40.890625 13.453125 
Q 46.046875 20.015625 46.78125 33.40625 
Q 43.953125 29.203125 39.59375 26.953125 
Q 35.25 24.703125 29.984375 24.703125 
Q 19.046875 24.703125 12.671875 31.3125 
Q 6.296875 37.9375 6.296875 49.421875 
Q 6.296875 60.640625 12.9375 67.421875 
Q 19.578125 74.21875 30.609375 74.21875 
Q 43.265625 74.21875 49.921875 64.515625 
Q 56.59375 54.828125 56.59375 36.375 
Q 56.59375 19.140625 48.40625 8.859375 
Q 40.234375 -1.421875 26.421875 -1.421875 
Q 22.703125 -1.421875 18.890625 -0.6875 
Q 15.09375 0.046875 10.984375 1.515625 
z
M 30.609375 32.421875 
Q 37.25 32.421875 41.125 36.953125 
Q 45.015625 41.5 45.015625 49.421875 
Q 45.015625 57.28125 41.125 61.84375 
Q 37.25 66.40625 30.609375 66.40625 
Q 23.96875 66.40625 20.09375 61.84375 
Q 16.21875 57.28125 16.21875 49.421875 
Q 16.21875 41.5 20.09375 36.953125 
Q 23.96875 32.421875 30.609375 32.421875 
z
" id="DejaVuSans-57"/>
      <path d="M 37.796875 64.3125 
L 12.890625 25.390625 
L 37.796875 25.390625 
z
M 35.203125 72.90625 
L 47.609375 72.90625 
L 47.609375 25.390625 
L 58.015625 25.390625 
L 58.015625 17.1875 
L 47.609375 17.1875 
L 47.609375 0 
L 37.796875 0 
L 37.796875 17.1875 
L 4.890625 17.1875 
L 4.890625 26.703125 
z
" id="DejaVuSans-52"/>
     </defs>
     <use xlink:href="#DejaVuSans-78"/>
     <use x="74.804688" xlink:href="#DejaVuSans-111"/>
     <use x="135.986328" xlink:href="#DejaVuSans-100"/>
     <use x="199.462891" xlink:href="#DejaVuSans-101"/>
     <use x="260.986328" xlink:href="#DejaVuSans-32"/>
     <use x="292.773438" xlink:href="#DejaVuSans-71"/>
     <use x="370.263672" xlink:href="#DejaVuSans-114"/>
     <use x="411.376953" xlink:href="#DejaVuSans-97"/>
     <use x="472.65625" xlink:href="#DejaVuSans-112"/>
     <use x="536.132812" xlink:href="#DejaVuSans-104"/>
     <use x="599.511719" xlink:href="#DejaVuSans-32"/>
     <use x="631.298828" xlink:href="#DejaVuSans-86"/>
     <use x="697.457031" xlink:href="#DejaVuSans-105"/>
     <use x="725.240234" xlink:href="#DejaVuSans-115"/>
     <use x="777.339844" xlink:href="#DejaVuSans-117"/>
     <use x="840.71875" xlink:href="#DejaVuSans-97"/>
     <use x="901.998047" xlink:href="#DejaVuSans-108"/>
     <use x="929.78125" xlink:href="#DejaVuSans-105"/>
     <use x="957.564453" xlink:href="#DejaVuSans-122"/>
     <use x="1010.054688" xlink:href="#DejaVuSans-97"/>
     <use x="1071.333984" xlink:href="#DejaVuSans-116"/>
     <use x="1110.542969" xlink:href="#DejaVuSans-105"/>
     <use x="1138.326172" xlink:href="#DejaVuSans-111"/>
     <use x="1199.507812" xlink:href="#DejaVuSans-110"/>
     <use x="1262.886719" xlink:href="#DejaVuSans-32"/>
     <use x="1294.673828" xlink:href="#DejaVuSans-45"/>
     <use x="1330.757812" xlink:href="#DejaVuSans-32"/>
     <use x="1362.544922" xlink:href="#DejaVuSans-70"/>
     <use x="1412.814453" xlink:href="#DejaVuSans-114"/>
     <use x="1453.927734" xlink:href="#DejaVuSans-97"/>
     <use x="1515.207031" xlink:href="#DejaVuSans-109"/>
     <use x="1612.619141" xlink:href="#DejaVuSans-101"/>
     <use x="1674.142578" xlink:href="#DejaVuSans-32"/>
     <use x="1705.929688" xlink:href="#DejaVuSans-49"/>
     <use x="1769.552734" xlink:href="#DejaVuSans-57"/>
     <use x="1833.175781" xlink:href="#DejaVuSans-52"/>
    </g>
   </g>
  </g>
 </g>
 <defs>
  <clipPath id="pf587039337">
   <rect height="864" width="576" x="0" y="0"/>
  </clipPath>
 </defs>
</svg>
