<?xml version="1.0" encoding="utf-8" standalone="no"?>
<!DOCTYPE svg PUBLIC "-//W3C//DTD SVG 1.1//EN"
  "http://www.w3.org/Graphics/SVG/1.1/DTD/svg11.dtd">
<!-- Created with matplotlib (https://matplotlib.org/) -->
<svg height="864pt" version="1.1" viewBox="0 0 576 864" width="576pt" xmlns="http://www.w3.org/2000/svg" xmlns:xlink="http://www.w3.org/1999/xlink">
 <metadata>
  <rdf:RDF xmlns:cc="http://creativecommons.org/ns#" xmlns:dc="http://purl.org/dc/elements/1.1/" xmlns:rdf="http://www.w3.org/1999/02/22-rdf-syntax-ns#">
   <cc:Work>
    <dc:type rdf:resource="http://purl.org/dc/dcmitype/StillImage"/>
    <dc:date>2024-02-04T22:27:59.727195</dc:date>
    <dc:format>image/svg+xml</dc:format>
    <dc:creator>
     <cc:Agent>
      <dc:title>Matplotlib v3.3.2, https://matplotlib.org/</dc:title>
     </cc:Agent>
    </dc:creator>
   </cc:Work>
  </rdf:RDF>
 </metadata>
 <defs>
  <style type="text/css">*{stroke-linecap:butt;stroke-linejoin:round;}</style>
 </defs>
 <g id="figure_1">
  <g id="patch_1">
   <path d="M 0 864 
L 576 864 
L 576 0 
L 0 0 
z
" style="fill:#ffffff;"/>
  </g>
  <g id="axes_1">
   <g id="patch_2">
    <path clip-path="url(#pec5c68d90e)" d="M 320.159971 87.142854 
Q 315.360203 98.391574 310.99922 108.61196 
" style="fill:none;stroke:#000000;stroke-linecap:round;"/>
    <path clip-path="url(#pec5c68d90e)" d="M 314.408599 105.717805 
L 310.99922 108.61196 
L 310.729524 104.147963 
L 314.408599 105.717805 
z
" style="stroke:#000000;stroke-linecap:round;"/>
   </g>
   <g id="patch_3">
    <path clip-path="url(#pec5c68d90e)" d="M 304.712465 135.016098 
Q 304.679928 135.670027 304.702951 135.207303 
" style="fill:none;stroke:#000000;stroke-linecap:round;"/>
    <path clip-path="url(#pec5c68d90e)" d="M 306.899257 131.311634 
L 304.702951 135.207303 
L 302.904199 131.112857 
L 306.899257 131.311634 
z
" style="stroke:#000000;stroke-linecap:round;"/>
   </g>
   <g id="patch_4">
    <path clip-path="url(#pec5c68d90e)" d="M 310.56166 109.637425 
Q 315.361427 98.388706 319.722411 88.16832 
" style="fill:none;stroke:#000000;stroke-linecap:round;"/>
    <path clip-path="url(#pec5c68d90e)" d="M 316.313031 91.062474 
L 319.722411 88.16832 
L 319.992107 92.632316 
L 316.313031 91.062474 
z
" style="stroke:#000000;stroke-linecap:round;"/>
   </g>
   <g id="patch_5">
    <path clip-path="url(#pec5c68d90e)" d="M 303.012601 162.726565 
Q 300.836731 192.092433 298.743476 220.343323 
" style="fill:none;stroke:#000000;stroke-linecap:round;"/>
    <path clip-path="url(#pec5c68d90e)" d="M 301.033579 216.502044 
L 298.743476 220.343323 
L 297.044514 216.206473 
L 301.033579 216.502044 
z
" style="stroke:#000000;stroke-linecap:round;"/>
   </g>
   <g id="patch_6">
    <path clip-path="url(#pec5c68d90e)" d="M 290.762483 149.366744 
Q 225.950323 148.54884 162.256108 147.745045 
" style="fill:none;stroke:#000000;stroke-linecap:round;"/>
    <path clip-path="url(#pec5c68d90e)" d="M 166.230553 149.79536 
L 162.256108 147.745045 
L 166.281027 145.795678 
L 166.230553 149.79536 
z
" style="stroke:#000000;stroke-linecap:round;"/>
   </g>
   <g id="patch_7">
    <path clip-path="url(#pec5c68d90e)" d="M 317.139634 150.987541 
Q 398.877463 160.024853 479.504029 168.939298 
" style="fill:none;stroke:#000000;stroke-linecap:round;"/>
    <path clip-path="url(#pec5c68d90e)" d="M 475.748046 166.511832 
L 479.504029 168.939298 
L 475.308466 170.487604 
L 475.748046 166.511832 
z
" style="stroke:#000000;stroke-linecap:round;"/>
   </g>
   <g id="patch_8">
    <path clip-path="url(#pec5c68d90e)" d="M 304.647456 136.322646 
Q 304.679993 135.668717 304.65697 136.131441 
" style="fill:none;stroke:#000000;stroke-linecap:round;"/>
    <path clip-path="url(#pec5c68d90e)" d="M 302.460663 140.02711 
L 304.65697 136.131441 
L 306.455721 140.225888 
L 302.460663 140.02711 
z
" style="stroke:#000000;stroke-linecap:round;"/>
   </g>
   <g id="patch_9">
    <path clip-path="url(#pec5c68d90e)" d="M 296.488676 247.82651 
Q 292.433929 292.54532 288.480143 336.150663 
" style="fill:none;stroke:#000000;stroke-linecap:round;"/>
    <path clip-path="url(#pec5c68d90e)" d="M 290.833179 332.347608 
L 288.480143 336.150663 
L 286.849521 331.986402 
L 290.833179 332.347608 
z
" style="stroke:#000000;stroke-linecap:round;"/>
   </g>
   <g id="patch_10">
    <path clip-path="url(#pec5c68d90e)" d="M 298.660966 221.456891 
Q 300.836836 192.091024 302.930091 163.840133 
" style="fill:none;stroke:#000000;stroke-linecap:round;"/>
    <path clip-path="url(#pec5c68d90e)" d="M 300.639988 167.681413 
L 302.930091 163.840133 
L 304.629053 167.976983 
L 300.639988 167.681413 
z
" style="stroke:#000000;stroke-linecap:round;"/>
   </g>
   <g id="patch_11">
    <path clip-path="url(#pec5c68d90e)" d="M 273.959231 350.758407 
Q 245.920113 351.437316 218.998703 352.089162 
" style="fill:none;stroke:#000000;stroke-linecap:round;"/>
    <path clip-path="url(#pec5c68d90e)" d="M 223.045942 353.991752 
L 218.998703 352.089162 
L 222.949119 349.992924 
L 223.045942 353.991752 
z
" style="stroke:#000000;stroke-linecap:round;"/>
   </g>
   <g id="patch_12">
    <path clip-path="url(#pec5c68d90e)" d="M 300.402689 351.030855 
Q 321.592988 351.980994 341.666376 352.881052 
" style="fill:none;stroke:#000000;stroke-linecap:round;"/>
    <path clip-path="url(#pec5c68d90e)" d="M 337.759977 350.703886 
L 341.666376 352.881052 
L 337.580804 354.699871 
L 337.759977 350.703886 
z
" style="stroke:#000000;stroke-linecap:round;"/>
   </g>
   <g id="patch_13">
    <path clip-path="url(#pec5c68d90e)" d="M 288.379426 337.261455 
Q 292.434172 292.542645 296.387958 248.937302 
" style="fill:none;stroke:#000000;stroke-linecap:round;"/>
    <path clip-path="url(#pec5c68d90e)" d="M 294.034922 252.740357 
L 296.387958 248.937302 
L 298.01858 253.101563 
L 294.034922 252.740357 
z
" style="stroke:#000000;stroke-linecap:round;"/>
   </g>
   <g id="patch_14">
    <path clip-path="url(#pec5c68d90e)" d="M 140.169079 158.296559 
Q 115.491989 192.525136 91.46874 225.8468 
" style="fill:none;stroke:#000000;stroke-linecap:round;"/>
    <path clip-path="url(#pec5c68d90e)" d="M 95.430326 223.771748 
L 91.46874 225.8468 
L 92.185651 221.4325 
L 95.430326 223.771748 
z
" style="stroke:#000000;stroke-linecap:round;"/>
   </g>
   <g id="patch_15">
    <path clip-path="url(#pec5c68d90e)" d="M 161.134391 147.730889 
Q 225.946551 148.548793 289.640766 149.352588 
" style="fill:none;stroke:#000000;stroke-linecap:round;"/>
    <path clip-path="url(#pec5c68d90e)" d="M 285.666321 147.302273 
L 289.640766 149.352588 
L 285.615847 151.301955 
L 285.666321 147.302273 
z
" style="stroke:#000000;stroke-linecap:round;"/>
   </g>
   <g id="patch_16">
    <path clip-path="url(#pec5c68d90e)" d="M 81.632827 250.633152 
Q 76.824816 294.392452 72.138913 337.040406 
" style="fill:none;stroke:#000000;stroke-linecap:round;"/>
    <path clip-path="url(#pec5c68d90e)" d="M 74.563816 333.282768 
L 72.138913 337.040406 
L 70.587744 332.845901 
L 74.563816 333.282768 
z
" style="stroke:#000000;stroke-linecap:round;"/>
   </g>
   <g id="patch_17">
    <path clip-path="url(#pec5c68d90e)" d="M 90.815004 226.753571 
Q 115.492093 192.524993 139.515342 159.20333 
" style="fill:none;stroke:#000000;stroke-linecap:round;"/>
    <path clip-path="url(#pec5c68d90e)" d="M 135.553756 161.278381 
L 139.515342 159.20333 
L 138.798431 163.617629 
L 135.553756 161.278381 
z
" style="stroke:#000000;stroke-linecap:round;"/>
   </g>
   <g id="patch_18">
    <path clip-path="url(#pec5c68d90e)" d="M 82.326915 357.373827 
Q 91.049953 361.878015 98.779573 365.869246 
" style="fill:none;stroke:#000000;stroke-linecap:round;"/>
    <path clip-path="url(#pec5c68d90e)" d="M 96.143022 362.256962 
L 98.779573 365.869246 
L 94.307815 365.811117 
L 96.143022 362.256962 
z
" style="stroke:#000000;stroke-linecap:round;"/>
   </g>
   <g id="patch_19">
    <path clip-path="url(#pec5c68d90e)" d="M 72.016231 338.156982 
Q 76.824241 294.397682 81.510144 251.749728 
" style="fill:none;stroke:#000000;stroke-linecap:round;"/>
    <path clip-path="url(#pec5c68d90e)" d="M 79.085241 255.507366 
L 81.510144 251.749728 
L 83.061313 255.944233 
L 79.085241 255.507366 
z
" style="stroke:#000000;stroke-linecap:round;"/>
   </g>
   <g id="patch_20">
    <path clip-path="url(#pec5c68d90e)" d="M 121.05585 381.624467 
Q 127.829954 388.144559 133.79853 393.889329 
" style="fill:none;stroke:#000000;stroke-linecap:round;"/>
    <path clip-path="url(#pec5c68d90e)" d="M 132.303525 389.674479 
L 133.79853 393.889329 
L 129.529647 392.556423 
L 132.303525 389.674479 
z
" style="stroke:#000000;stroke-linecap:round;"/>
   </g>
   <g id="patch_21">
    <path clip-path="url(#pec5c68d90e)" d="M 123.840197 377.271232 
Q 125.831929 378.050926 126.782556 378.423064 
" style="fill:none;stroke:#000000;stroke-linecap:round;"/>
    <path clip-path="url(#pec5c68d90e)" d="M 123.786848 375.102562 
L 126.782556 378.423064 
L 122.32873 378.827329 
L 123.786848 375.102562 
z
" style="stroke:#000000;stroke-linecap:round;"/>
   </g>
   <g id="patch_22">
    <path clip-path="url(#pec5c68d90e)" d="M 99.768499 366.379883 
Q 91.045462 361.875696 83.315841 357.884464 
" style="fill:none;stroke:#000000;stroke-linecap:round;"/>
    <path clip-path="url(#pec5c68d90e)" d="M 85.952392 361.496748 
L 83.315841 357.884464 
L 87.787599 357.942594 
L 85.952392 361.496748 
z
" style="stroke:#000000;stroke-linecap:round;"/>
   </g>
   <g id="patch_23">
    <path clip-path="url(#pec5c68d90e)" d="M 498.110069 183.013851 
Q 509.891197 216.897124 521.30515 249.724376 
" style="fill:none;stroke:#000000;stroke-linecap:round;"/>
    <path clip-path="url(#pec5c68d90e)" d="M 521.88057 245.289414 
L 521.30515 249.724376 
L 518.102432 246.603063 
L 521.88057 245.289414 
z
" style="stroke:#000000;stroke-linecap:round;"/>
   </g>
   <g id="patch_24">
    <path clip-path="url(#pec5c68d90e)" d="M 480.615098 169.062143 
Q 398.87727 160.024831 318.250703 151.110386 
" style="fill:none;stroke:#000000;stroke-linecap:round;"/>
    <path clip-path="url(#pec5c68d90e)" d="M 322.006686 153.537853 
L 318.250703 151.110386 
L 322.446266 149.56208 
L 322.006686 153.537853 
z
" style="stroke:#000000;stroke-linecap:round;"/>
   </g>
   <g id="patch_25">
    <path clip-path="url(#pec5c68d90e)" d="M 514.633056 270.008831 
Q 481.367722 289.687919 449.064649 308.797753 
" style="fill:none;stroke:#000000;stroke-linecap:round;"/>
    <path clip-path="url(#pec5c68d90e)" d="M 453.525658 308.482473 
L 449.064649 308.797753 
L 451.48903 305.039778 
L 453.525658 308.482473 
z
" style="stroke:#000000;stroke-linecap:round;"/>
   </g>
   <g id="patch_26">
    <path clip-path="url(#pec5c68d90e)" d="M 521.671062 250.776764 
Q 509.889934 216.89349 498.475981 184.066239 
" style="fill:none;stroke:#000000;stroke-linecap:round;"/>
    <path clip-path="url(#pec5c68d90e)" d="M 497.900561 188.501201 
L 498.475981 184.066239 
L 501.678699 187.187552 
L 497.900561 188.501201 
z
" style="stroke:#000000;stroke-linecap:round;"/>
   </g>
   <g id="patch_27">
    <path clip-path="url(#pec5c68d90e)" d="M 425.356646 322.881016 
Q 425.253588 322.942511 426.110633 322.431117 
" style="fill:none;stroke:#000000;stroke-linecap:round;"/>
    <path clip-path="url(#pec5c68d90e)" d="M 430.570418 322.098974 
L 426.110633 322.431117 
L 428.52079 318.664003 
L 430.570418 322.098974 
z
" style="stroke:#000000;stroke-linecap:round;"/>
   </g>
   <g id="patch_28">
    <path clip-path="url(#pec5c68d90e)" d="M 448.098198 309.369485 
Q 481.363533 289.690397 513.666605 270.580563 
" style="fill:none;stroke:#000000;stroke-linecap:round;"/>
    <path clip-path="url(#pec5c68d90e)" d="M 509.205596 270.895843 
L 513.666605 270.580563 
L 511.242224 274.338538 
L 509.205596 270.895843 
z
" style="stroke:#000000;stroke-linecap:round;"/>
   </g>
   <g id="patch_29">
    <path clip-path="url(#pec5c68d90e)" d="M 400.784383 332.195847 
Q 399.657089 332.40506 399.629058 332.410262 
" style="fill:none;stroke:#000000;stroke-linecap:round;"/>
    <path clip-path="url(#pec5c68d90e)" d="M 403.926847 333.646793 
L 399.629058 332.410262 
L 403.196957 329.713949 
L 403.926847 333.646793 
z
" style="stroke:#000000;stroke-linecap:round;"/>
   </g>
   <g id="patch_30">
    <path clip-path="url(#pec5c68d90e)" d="M 400.716305 327.771547 
Q 398.845897 327.483969 398.080537 327.366294 
" style="fill:none;stroke:#000000;stroke-linecap:round;"/>
    <path clip-path="url(#pec5c68d90e)" d="M 401.730149 329.950928 
L 398.080537 327.366294 
L 402.338012 325.997385 
L 401.730149 329.950928 
z
" style="stroke:#000000;stroke-linecap:round;"/>
   </g>
   <g id="patch_31">
    <path clip-path="url(#pec5c68d90e)" d="M 425.149576 323.004574 
Q 425.252635 322.943079 424.39559 323.454473 
" style="fill:none;stroke:#000000;stroke-linecap:round;"/>
    <path clip-path="url(#pec5c68d90e)" d="M 419.935805 323.786616 
L 424.39559 323.454473 
L 421.985433 327.221586 
L 419.935805 323.786616 
z
" style="stroke:#000000;stroke-linecap:round;"/>
   </g>
   <g id="patch_32">
    <path clip-path="url(#pec5c68d90e)" d="M 199.968702 364.806819 
Q 167.547069 450.416515 135.521407 534.980645 
" style="fill:none;stroke:#000000;stroke-linecap:round;"/>
    <path clip-path="url(#pec5c68d90e)" d="M 138.80844 531.94825 
L 135.521407 534.980645 
L 135.067711 530.531582 
L 138.80844 531.94825 
z
" style="stroke:#000000;stroke-linecap:round;"/>
   </g>
   <g id="patch_33">
    <path clip-path="url(#pec5c68d90e)" d="M 217.878956 352.116274 
Q 245.918073 351.437365 272.839483 350.785519 
" style="fill:none;stroke:#000000;stroke-linecap:round;"/>
    <path clip-path="url(#pec5c68d90e)" d="M 268.792244 348.882928 
L 272.839483 350.785519 
L 268.889067 352.881756 
L 268.792244 348.882928 
z
" style="stroke:#000000;stroke-linecap:round;"/>
   </g>
   <g id="patch_34">
    <path clip-path="url(#pec5c68d90e)" d="M 126.684884 561.087075 
Q 101.403216 646.519911 76.438801 730.88067 
" style="fill:none;stroke:#000000;stroke-linecap:round;"/>
    <path clip-path="url(#pec5c68d90e)" d="M 79.491634 727.612611 
L 76.438801 730.88067 
L 75.656053 726.477569 
L 79.491634 727.612611 
z
" style="stroke:#000000;stroke-linecap:round;"/>
   </g>
   <g id="patch_35">
    <path clip-path="url(#pec5c68d90e)" d="M 135.124107 536.029722 
Q 167.54574 450.420026 199.571402 365.855895 
" style="fill:none;stroke:#000000;stroke-linecap:round;"/>
    <path clip-path="url(#pec5c68d90e)" d="M 196.284369 368.88829 
L 199.571402 365.855895 
L 200.025098 370.304958 
L 196.284369 368.88829 
z
" style="stroke:#000000;stroke-linecap:round;"/>
   </g>
   <g id="patch_36">
    <path clip-path="url(#pec5c68d90e)" d="M 66.412441 756.446742 
Q 61.177111 766.828212 56.445208 776.211404 
" style="fill:none;stroke:#000000;stroke-linecap:round;"/>
    <path clip-path="url(#pec5c68d90e)" d="M 60.032101 773.540412 
L 56.445208 776.211404 
L 56.46055 771.739294 
L 60.032101 773.540412 
z
" style="stroke:#000000;stroke-linecap:round;"/>
   </g>
   <g id="patch_37">
    <path clip-path="url(#pec5c68d90e)" d="M 76.122262 731.950333 
Q 101.40393 646.517496 126.368345 562.156737 
" style="fill:none;stroke:#000000;stroke-linecap:round;"/>
    <path clip-path="url(#pec5c68d90e)" d="M 123.315512 565.424797 
L 126.368345 562.156737 
L 127.151093 566.559839 
L 123.315512 565.424797 
z
" style="stroke:#000000;stroke-linecap:round;"/>
   </g>
   <g id="patch_38">
    <path clip-path="url(#pec5c68d90e)" d="M 55.938887 777.215419 
Q 61.174218 766.833949 65.906121 757.450758 
" style="fill:none;stroke:#000000;stroke-linecap:round;"/>
    <path clip-path="url(#pec5c68d90e)" d="M 62.319228 760.12175 
L 65.906121 757.450758 
L 65.890778 761.922868 
L 62.319228 760.12175 
z
" style="stroke:#000000;stroke-linecap:round;"/>
   </g>
   <g id="patch_39">
    <path clip-path="url(#pec5c68d90e)" d="M 353.44434 366.500912 
Q 339.095524 439.340994 324.962798 511.084123 
" style="fill:none;stroke:#000000;stroke-linecap:round;"/>
    <path clip-path="url(#pec5c68d90e)" d="M 327.698192 507.546098 
L 324.962798 511.084123 
L 323.773614 506.772993 
L 327.698192 507.546098 
z
" style="stroke:#000000;stroke-linecap:round;"/>
   </g>
   <g id="patch_40">
    <path clip-path="url(#pec5c68d90e)" d="M 342.782689 352.931106 
Q 321.59239 351.980967 301.519003 351.080909 
" style="fill:none;stroke:#000000;stroke-linecap:round;"/>
    <path clip-path="url(#pec5c68d90e)" d="M 305.425401 353.258075 
L 301.519003 351.080909 
L 305.604574 349.26209 
L 305.425401 353.258075 
z
" style="stroke:#000000;stroke-linecap:round;"/>
   </g>
   <g id="patch_41">
    <path clip-path="url(#pec5c68d90e)" d="M 317.752085 537.624157 
Q 288.569908 619.577441 259.762777 700.477472 
" style="fill:none;stroke:#000000;stroke-linecap:round;"/>
    <path clip-path="url(#pec5c68d90e)" d="M 262.988696 697.380142 
L 259.762777 700.477472 
L 259.220465 696.038339 
L 262.988696 697.380142 
z
" style="stroke:#000000;stroke-linecap:round;"/>
   </g>
   <g id="patch_42">
    <path clip-path="url(#pec5c68d90e)" d="M 324.745886 512.185249 
Q 339.094702 439.345167 353.227428 367.602038 
" style="fill:none;stroke:#000000;stroke-linecap:round;"/>
    <path clip-path="url(#pec5c68d90e)" d="M 350.492034 371.140063 
L 353.227428 367.602038 
L 354.416612 371.913168 
L 350.492034 371.140063 
z
" style="stroke:#000000;stroke-linecap:round;"/>
   </g>
   <g id="patch_43">
    <path clip-path="url(#pec5c68d90e)" d="M 260.142844 726.163327 
Q 264.401201 736.142867 268.220762 745.094079 
" style="fill:none;stroke:#000000;stroke-linecap:round;"/>
    <path clip-path="url(#pec5c68d90e)" d="M 268.490405 740.630079 
L 268.220762 745.094079 
L 264.811348 742.199965 
L 268.490405 740.630079 
z
" style="stroke:#000000;stroke-linecap:round;"/>
   </g>
   <g id="patch_44">
    <path clip-path="url(#pec5c68d90e)" d="M 259.387341 701.531821 
Q 288.569518 619.578537 317.376649 538.678506 
" style="fill:none;stroke:#000000;stroke-linecap:round;"/>
    <path clip-path="url(#pec5c68d90e)" d="M 314.15073 541.775836 
L 317.376649 538.678506 
L 317.918961 543.117639 
L 314.15073 541.775836 
z
" style="stroke:#000000;stroke-linecap:round;"/>
   </g>
   <g id="patch_45">
    <path clip-path="url(#pec5c68d90e)" d="M 268.659666 746.122657 
Q 264.401308 736.143117 260.581747 727.191905 
" style="fill:none;stroke:#000000;stroke-linecap:round;"/>
    <path clip-path="url(#pec5c68d90e)" d="M 260.312105 731.655904 
L 260.581747 727.191905 
L 263.991161 730.086018 
L 260.312105 731.655904 
z
" style="stroke:#000000;stroke-linecap:round;"/>
   </g>
   <g id="patch_46">
    <path clip-path="url(#pec5c68d90e)" d="M 134.602696 394.663341 
Q 127.828593 388.143249 121.860017 382.398479 
" style="fill:none;stroke:#000000;stroke-linecap:round;"/>
    <path clip-path="url(#pec5c68d90e)" d="M 123.355021 386.613329 
L 121.860017 382.398479 
L 126.1289 383.731386 
L 123.355021 386.613329 
z
" style="stroke:#000000;stroke-linecap:round;"/>
   </g>
   <g id="patch_47">
    <path clip-path="url(#pec5c68d90e)" d="M 115.507159 374.009133 
Q 113.515427 373.229438 112.5648 372.8573 
" style="fill:none;stroke:#000000;stroke-linecap:round;"/>
    <path clip-path="url(#pec5c68d90e)" d="M 115.560508 376.177802 
L 112.5648 372.8573 
L 117.018626 372.453035 
L 115.560508 376.177802 
z
" style="stroke:#000000;stroke-linecap:round;"/>
   </g>
   <g id="patch_48">
    <path clip-path="url(#pec5c68d90e)" d="M 398.527378 332.614721 
Q 399.654672 332.405508 399.682702 332.400306 
" style="fill:none;stroke:#000000;stroke-linecap:round;"/>
    <path clip-path="url(#pec5c68d90e)" d="M 395.384913 331.163775 
L 399.682702 332.400306 
L 396.114804 335.096618 
L 395.384913 331.163775 
z
" style="stroke:#000000;stroke-linecap:round;"/>
   </g>
   <g id="patch_49">
    <path clip-path="url(#pec5c68d90e)" d="M 396.972195 327.195885 
Q 398.842603 327.483463 399.607962 327.601138 
" style="fill:none;stroke:#000000;stroke-linecap:round;"/>
    <path clip-path="url(#pec5c68d90e)" d="M 395.958351 325.016504 
L 399.607962 327.601138 
L 395.350488 328.970047 
L 395.958351 325.016504 
z
" style="stroke:#000000;stroke-linecap:round;"/>
   </g>
   <g id="PathCollection_1">
    <defs>
     <path d="M 0 13.228757 
C 3.508307 13.228757 6.873396 11.834891 9.354143 9.354143 
C 11.834891 6.873396 13.228757 3.508307 13.228757 0 
C 13.228757 -3.508307 11.834891 -6.873396 9.354143 -9.354143 
C 6.873396 -11.834891 3.508307 -13.228757 0 -13.228757 
C -3.508307 -13.228757 -6.873396 -11.834891 -9.354143 -9.354143 
C -11.834891 -6.873396 -13.228757 -3.508307 -13.228757 0 
C -13.228757 3.508307 -11.834891 6.873396 -9.354143 9.354143 
C -6.873396 11.834891 -3.508307 13.228757 0 13.228757 
z
" id="m99b6c32064" style="stroke:#87ceeb;"/>
    </defs>
    <g clip-path="url(#pec5c68d90e)">
     <use style="fill:#87ceeb;stroke:#87ceeb;" x="325.35184" xlink:href="#m99b6c32064" y="74.975207"/>
     <use style="fill:#87ceeb;stroke:#87ceeb;" x="305.36979" xlink:href="#m99b6c32064" y="121.805073"/>
     <use style="fill:#87ceeb;stroke:#87ceeb;" x="303.990131" xlink:href="#m99b6c32064" y="149.533672"/>
     <use style="fill:#87ceeb;stroke:#87ceeb;" x="297.683436" xlink:href="#m99b6c32064" y="234.649785"/>
     <use style="fill:#87ceeb;stroke:#87ceeb;" x="287.184665" xlink:href="#m99b6c32064" y="350.43818"/>
     <use style="fill:#87ceeb;stroke:#87ceeb;" x="147.906743" xlink:href="#m99b6c32064" y="147.563961"/>
     <use style="fill:#87ceeb;stroke:#87ceeb;" x="83.077339" xlink:href="#m99b6c32064" y="237.486168"/>
     <use style="fill:#87ceeb;stroke:#87ceeb;" x="70.571718" xlink:href="#m99b6c32064" y="351.303966"/>
     <use style="fill:#87ceeb;stroke:#87ceeb;" x="111.523696" xlink:href="#m99b6c32064" y="372.449744"/>
     <use style="fill:#87ceeb;stroke:#87ceeb;" x="493.764602" xlink:href="#m99b6c32064" y="170.516012"/>
     <use style="fill:#87ceeb;stroke:#87ceeb;" x="526.016529" xlink:href="#m99b6c32064" y="263.274602"/>
     <use style="fill:#87ceeb;stroke:#87ceeb;" x="436.714725" xlink:href="#m99b6c32064" y="316.103714"/>
     <use style="fill:#87ceeb;stroke:#87ceeb;" x="413.791497" xlink:href="#m99b6c32064" y="329.781876"/>
     <use style="fill:#87ceeb;stroke:#87ceeb;" x="204.653521" xlink:href="#m99b6c32064" y="352.436501"/>
     <use style="fill:#87ceeb;stroke:#87ceeb;" x="130.439288" xlink:href="#m99b6c32064" y="548.40004"/>
     <use style="fill:#87ceeb;stroke:#87ceeb;" x="72.367858" xlink:href="#m99b6c32064" y="744.637368"/>
     <use style="fill:#87ceeb;stroke:#87ceeb;" x="49.983471" xlink:href="#m99b6c32064" y="789.024793"/>
     <use style="fill:#87ceeb;stroke:#87ceeb;" x="356.000713" xlink:href="#m99b6c32064" y="353.523781"/>
     <use style="fill:#87ceeb;stroke:#87ceeb;" x="322.189513" xlink:href="#m99b6c32064" y="525.16238"/>
     <use style="fill:#87ceeb;stroke:#87ceeb;" x="254.949913" xlink:href="#m99b6c32064" y="713.993598"/>
     <use style="fill:#87ceeb;stroke:#87ceeb;" x="273.852596" xlink:href="#m99b6c32064" y="758.292386"/>
     <use style="fill:#87ceeb;stroke:#87ceeb;" x="144.134851" xlink:href="#m99b6c32064" y="403.838065"/>
     <use style="fill:#87ceeb;stroke:#87ceeb;" x="127.82366" xlink:href="#m99b6c32064" y="378.830621"/>
     <use style="fill:#87ceeb;stroke:#87ceeb;" x="385.520264" xlink:href="#m99b6c32064" y="335.028692"/>
     <use style="fill:#87ceeb;stroke:#87ceeb;" x="383.897003" xlink:href="#m99b6c32064" y="325.185556"/>
    </g>
   </g>
   <g id="text_1">
    <g clip-path="url(#pec5c68d90e)">
     <!-- Head -->
     <g transform="translate(312.27684 77.734582)scale(0.1 -0.1)">
      <defs>
       <path d="M 9.8125 72.90625 
L 19.671875 72.90625 
L 19.671875 43.015625 
L 55.515625 43.015625 
L 55.515625 72.90625 
L 65.375 72.90625 
L 65.375 0 
L 55.515625 0 
L 55.515625 34.71875 
L 19.671875 34.71875 
L 19.671875 0 
L 9.8125 0 
z
" id="DejaVuSans-72"/>
       <path d="M 56.203125 29.59375 
L 56.203125 25.203125 
L 14.890625 25.203125 
Q 15.484375 15.921875 20.484375 11.0625 
Q 25.484375 6.203125 34.421875 6.203125 
Q 39.59375 6.203125 44.453125 7.46875 
Q 49.3125 8.734375 54.109375 11.28125 
L 54.109375 2.78125 
Q 49.265625 0.734375 44.1875 -0.34375 
Q 39.109375 -1.421875 33.890625 -1.421875 
Q 20.796875 -1.421875 13.15625 6.1875 
Q 5.515625 13.8125 5.515625 26.8125 
Q 5.515625 40.234375 12.765625 48.109375 
Q 20.015625 56 32.328125 56 
Q 43.359375 56 49.78125 48.890625 
Q 56.203125 41.796875 56.203125 29.59375 
z
M 47.21875 32.234375 
Q 47.125 39.59375 43.09375 43.984375 
Q 39.0625 48.390625 32.421875 48.390625 
Q 24.90625 48.390625 20.390625 44.140625 
Q 15.875 39.890625 15.1875 32.171875 
z
" id="DejaVuSans-101"/>
       <path d="M 34.28125 27.484375 
Q 23.390625 27.484375 19.1875 25 
Q 14.984375 22.515625 14.984375 16.5 
Q 14.984375 11.71875 18.140625 8.90625 
Q 21.296875 6.109375 26.703125 6.109375 
Q 34.1875 6.109375 38.703125 11.40625 
Q 43.21875 16.703125 43.21875 25.484375 
L 43.21875 27.484375 
z
M 52.203125 31.203125 
L 52.203125 0 
L 43.21875 0 
L 43.21875 8.296875 
Q 40.140625 3.328125 35.546875 0.953125 
Q 30.953125 -1.421875 24.3125 -1.421875 
Q 15.921875 -1.421875 10.953125 3.296875 
Q 6 8.015625 6 15.921875 
Q 6 25.140625 12.171875 29.828125 
Q 18.359375 34.515625 30.609375 34.515625 
L 43.21875 34.515625 
L 43.21875 35.40625 
Q 43.21875 41.609375 39.140625 45 
Q 35.0625 48.390625 27.6875 48.390625 
Q 23 48.390625 18.546875 47.265625 
Q 14.109375 46.140625 10.015625 43.890625 
L 10.015625 52.203125 
Q 14.9375 54.109375 19.578125 55.046875 
Q 24.21875 56 28.609375 56 
Q 40.484375 56 46.34375 49.84375 
Q 52.203125 43.703125 52.203125 31.203125 
z
" id="DejaVuSans-97"/>
       <path d="M 45.40625 46.390625 
L 45.40625 75.984375 
L 54.390625 75.984375 
L 54.390625 0 
L 45.40625 0 
L 45.40625 8.203125 
Q 42.578125 3.328125 38.25 0.953125 
Q 33.9375 -1.421875 27.875 -1.421875 
Q 17.96875 -1.421875 11.734375 6.484375 
Q 5.515625 14.40625 5.515625 27.296875 
Q 5.515625 40.1875 11.734375 48.09375 
Q 17.96875 56 27.875 56 
Q 33.9375 56 38.25 53.625 
Q 42.578125 51.265625 45.40625 46.390625 
z
M 14.796875 27.296875 
Q 14.796875 17.390625 18.875 11.75 
Q 22.953125 6.109375 30.078125 6.109375 
Q 37.203125 6.109375 41.296875 11.75 
Q 45.40625 17.390625 45.40625 27.296875 
Q 45.40625 37.203125 41.296875 42.84375 
Q 37.203125 48.484375 30.078125 48.484375 
Q 22.953125 48.484375 18.875 42.84375 
Q 14.796875 37.203125 14.796875 27.296875 
z
" id="DejaVuSans-100"/>
      </defs>
      <use xlink:href="#DejaVuSans-72"/>
      <use x="75.195312" xlink:href="#DejaVuSans-101"/>
      <use x="136.71875" xlink:href="#DejaVuSans-97"/>
      <use x="197.998047" xlink:href="#DejaVuSans-100"/>
     </g>
    </g>
   </g>
   <g id="text_2">
    <g clip-path="url(#pec5c68d90e)">
     <!-- c7 -->
     <g transform="translate(299.439321 124.564448)scale(0.1 -0.1)">
      <defs>
       <path d="M 48.78125 52.59375 
L 48.78125 44.1875 
Q 44.96875 46.296875 41.140625 47.34375 
Q 37.3125 48.390625 33.40625 48.390625 
Q 24.65625 48.390625 19.8125 42.84375 
Q 14.984375 37.3125 14.984375 27.296875 
Q 14.984375 17.28125 19.8125 11.734375 
Q 24.65625 6.203125 33.40625 6.203125 
Q 37.3125 6.203125 41.140625 7.25 
Q 44.96875 8.296875 48.78125 10.40625 
L 48.78125 2.09375 
Q 45.015625 0.34375 40.984375 -0.53125 
Q 36.96875 -1.421875 32.421875 -1.421875 
Q 20.0625 -1.421875 12.78125 6.34375 
Q 5.515625 14.109375 5.515625 27.296875 
Q 5.515625 40.671875 12.859375 48.328125 
Q 20.21875 56 33.015625 56 
Q 37.15625 56 41.109375 55.140625 
Q 45.0625 54.296875 48.78125 52.59375 
z
" id="DejaVuSans-99"/>
       <path d="M 8.203125 72.90625 
L 55.078125 72.90625 
L 55.078125 68.703125 
L 28.609375 0 
L 18.3125 0 
L 43.21875 64.59375 
L 8.203125 64.59375 
z
" id="DejaVuSans-55"/>
      </defs>
      <use xlink:href="#DejaVuSans-99"/>
      <use x="54.980469" xlink:href="#DejaVuSans-55"/>
     </g>
    </g>
   </g>
   <g id="text_3">
    <g clip-path="url(#pec5c68d90e)">
     <!-- SpineShoulder -->
     <g transform="translate(267.740912 152.293047)scale(0.1 -0.1)">
      <defs>
       <path d="M 53.515625 70.515625 
L 53.515625 60.890625 
Q 47.90625 63.578125 42.921875 64.890625 
Q 37.9375 66.21875 33.296875 66.21875 
Q 25.25 66.21875 20.875 63.09375 
Q 16.5 59.96875 16.5 54.203125 
Q 16.5 49.359375 19.40625 46.890625 
Q 22.3125 44.4375 30.421875 42.921875 
L 36.375 41.703125 
Q 47.40625 39.59375 52.65625 34.296875 
Q 57.90625 29 57.90625 20.125 
Q 57.90625 9.515625 50.796875 4.046875 
Q 43.703125 -1.421875 29.984375 -1.421875 
Q 24.8125 -1.421875 18.96875 -0.25 
Q 13.140625 0.921875 6.890625 3.21875 
L 6.890625 13.375 
Q 12.890625 10.015625 18.65625 8.296875 
Q 24.421875 6.59375 29.984375 6.59375 
Q 38.421875 6.59375 43.015625 9.90625 
Q 47.609375 13.234375 47.609375 19.390625 
Q 47.609375 24.75 44.3125 27.78125 
Q 41.015625 30.8125 33.5 32.328125 
L 27.484375 33.5 
Q 16.453125 35.6875 11.515625 40.375 
Q 6.59375 45.0625 6.59375 53.421875 
Q 6.59375 63.09375 13.40625 68.65625 
Q 20.21875 74.21875 32.171875 74.21875 
Q 37.3125 74.21875 42.625 73.28125 
Q 47.953125 72.359375 53.515625 70.515625 
z
" id="DejaVuSans-83"/>
       <path d="M 18.109375 8.203125 
L 18.109375 -20.796875 
L 9.078125 -20.796875 
L 9.078125 54.6875 
L 18.109375 54.6875 
L 18.109375 46.390625 
Q 20.953125 51.265625 25.265625 53.625 
Q 29.59375 56 35.59375 56 
Q 45.5625 56 51.78125 48.09375 
Q 58.015625 40.1875 58.015625 27.296875 
Q 58.015625 14.40625 51.78125 6.484375 
Q 45.5625 -1.421875 35.59375 -1.421875 
Q 29.59375 -1.421875 25.265625 0.953125 
Q 20.953125 3.328125 18.109375 8.203125 
z
M 48.6875 27.296875 
Q 48.6875 37.203125 44.609375 42.84375 
Q 40.53125 48.484375 33.40625 48.484375 
Q 26.265625 48.484375 22.1875 42.84375 
Q 18.109375 37.203125 18.109375 27.296875 
Q 18.109375 17.390625 22.1875 11.75 
Q 26.265625 6.109375 33.40625 6.109375 
Q 40.53125 6.109375 44.609375 11.75 
Q 48.6875 17.390625 48.6875 27.296875 
z
" id="DejaVuSans-112"/>
       <path d="M 9.421875 54.6875 
L 18.40625 54.6875 
L 18.40625 0 
L 9.421875 0 
z
M 9.421875 75.984375 
L 18.40625 75.984375 
L 18.40625 64.59375 
L 9.421875 64.59375 
z
" id="DejaVuSans-105"/>
       <path d="M 54.890625 33.015625 
L 54.890625 0 
L 45.90625 0 
L 45.90625 32.71875 
Q 45.90625 40.484375 42.875 44.328125 
Q 39.84375 48.1875 33.796875 48.1875 
Q 26.515625 48.1875 22.3125 43.546875 
Q 18.109375 38.921875 18.109375 30.90625 
L 18.109375 0 
L 9.078125 0 
L 9.078125 54.6875 
L 18.109375 54.6875 
L 18.109375 46.1875 
Q 21.34375 51.125 25.703125 53.5625 
Q 30.078125 56 35.796875 56 
Q 45.21875 56 50.046875 50.171875 
Q 54.890625 44.34375 54.890625 33.015625 
z
" id="DejaVuSans-110"/>
       <path d="M 54.890625 33.015625 
L 54.890625 0 
L 45.90625 0 
L 45.90625 32.71875 
Q 45.90625 40.484375 42.875 44.328125 
Q 39.84375 48.1875 33.796875 48.1875 
Q 26.515625 48.1875 22.3125 43.546875 
Q 18.109375 38.921875 18.109375 30.90625 
L 18.109375 0 
L 9.078125 0 
L 9.078125 75.984375 
L 18.109375 75.984375 
L 18.109375 46.1875 
Q 21.34375 51.125 25.703125 53.5625 
Q 30.078125 56 35.796875 56 
Q 45.21875 56 50.046875 50.171875 
Q 54.890625 44.34375 54.890625 33.015625 
z
" id="DejaVuSans-104"/>
       <path d="M 30.609375 48.390625 
Q 23.390625 48.390625 19.1875 42.75 
Q 14.984375 37.109375 14.984375 27.296875 
Q 14.984375 17.484375 19.15625 11.84375 
Q 23.34375 6.203125 30.609375 6.203125 
Q 37.796875 6.203125 41.984375 11.859375 
Q 46.1875 17.53125 46.1875 27.296875 
Q 46.1875 37.015625 41.984375 42.703125 
Q 37.796875 48.390625 30.609375 48.390625 
z
M 30.609375 56 
Q 42.328125 56 49.015625 48.375 
Q 55.71875 40.765625 55.71875 27.296875 
Q 55.71875 13.875 49.015625 6.21875 
Q 42.328125 -1.421875 30.609375 -1.421875 
Q 18.84375 -1.421875 12.171875 6.21875 
Q 5.515625 13.875 5.515625 27.296875 
Q 5.515625 40.765625 12.171875 48.375 
Q 18.84375 56 30.609375 56 
z
" id="DejaVuSans-111"/>
       <path d="M 8.5 21.578125 
L 8.5 54.6875 
L 17.484375 54.6875 
L 17.484375 21.921875 
Q 17.484375 14.15625 20.5 10.265625 
Q 23.53125 6.390625 29.59375 6.390625 
Q 36.859375 6.390625 41.078125 11.03125 
Q 45.3125 15.671875 45.3125 23.6875 
L 45.3125 54.6875 
L 54.296875 54.6875 
L 54.296875 0 
L 45.3125 0 
L 45.3125 8.40625 
Q 42.046875 3.421875 37.71875 1 
Q 33.40625 -1.421875 27.6875 -1.421875 
Q 18.265625 -1.421875 13.375 4.4375 
Q 8.5 10.296875 8.5 21.578125 
z
M 31.109375 56 
z
" id="DejaVuSans-117"/>
       <path d="M 9.421875 75.984375 
L 18.40625 75.984375 
L 18.40625 0 
L 9.421875 0 
z
" id="DejaVuSans-108"/>
       <path d="M 41.109375 46.296875 
Q 39.59375 47.171875 37.8125 47.578125 
Q 36.03125 48 33.890625 48 
Q 26.265625 48 22.1875 43.046875 
Q 18.109375 38.09375 18.109375 28.8125 
L 18.109375 0 
L 9.078125 0 
L 9.078125 54.6875 
L 18.109375 54.6875 
L 18.109375 46.1875 
Q 20.953125 51.171875 25.484375 53.578125 
Q 30.03125 56 36.53125 56 
Q 37.453125 56 38.578125 55.875 
Q 39.703125 55.765625 41.0625 55.515625 
z
" id="DejaVuSans-114"/>
      </defs>
      <use xlink:href="#DejaVuSans-83"/>
      <use x="63.476562" xlink:href="#DejaVuSans-112"/>
      <use x="126.953125" xlink:href="#DejaVuSans-105"/>
      <use x="154.736328" xlink:href="#DejaVuSans-110"/>
      <use x="218.115234" xlink:href="#DejaVuSans-101"/>
      <use x="279.638672" xlink:href="#DejaVuSans-83"/>
      <use x="343.115234" xlink:href="#DejaVuSans-104"/>
      <use x="406.494141" xlink:href="#DejaVuSans-111"/>
      <use x="467.675781" xlink:href="#DejaVuSans-117"/>
      <use x="531.054688" xlink:href="#DejaVuSans-108"/>
      <use x="558.837891" xlink:href="#DejaVuSans-100"/>
      <use x="622.314453" xlink:href="#DejaVuSans-101"/>
      <use x="683.837891" xlink:href="#DejaVuSans-114"/>
     </g>
    </g>
   </g>
   <g id="text_4">
    <g clip-path="url(#pec5c68d90e)">
     <!-- Spine -->
     <g transform="translate(283.700624 237.40916)scale(0.1 -0.1)">
      <use xlink:href="#DejaVuSans-83"/>
      <use x="63.476562" xlink:href="#DejaVuSans-112"/>
      <use x="126.953125" xlink:href="#DejaVuSans-105"/>
      <use x="154.736328" xlink:href="#DejaVuSans-110"/>
      <use x="218.115234" xlink:href="#DejaVuSans-101"/>
     </g>
    </g>
   </g>
   <g id="text_5">
    <g clip-path="url(#pec5c68d90e)">
     <!-- Sacr -->
     <g transform="translate(276.141696 353.197555)scale(0.1 -0.1)">
      <use xlink:href="#DejaVuSans-83"/>
      <use x="63.476562" xlink:href="#DejaVuSans-97"/>
      <use x="124.755859" xlink:href="#DejaVuSans-99"/>
      <use x="179.736328" xlink:href="#DejaVuSans-114"/>
     </g>
    </g>
   </g>
   <g id="text_6">
    <g clip-path="url(#pec5c68d90e)">
     <!-- LShoulder -->
     <g transform="translate(122.8544 150.323336)scale(0.1 -0.1)">
      <defs>
       <path d="M 9.8125 72.90625 
L 19.671875 72.90625 
L 19.671875 8.296875 
L 55.171875 8.296875 
L 55.171875 0 
L 9.8125 0 
z
" id="DejaVuSans-76"/>
      </defs>
      <use xlink:href="#DejaVuSans-76"/>
      <use x="55.712891" xlink:href="#DejaVuSans-83"/>
      <use x="119.189453" xlink:href="#DejaVuSans-104"/>
      <use x="182.568359" xlink:href="#DejaVuSans-111"/>
      <use x="243.75" xlink:href="#DejaVuSans-117"/>
      <use x="307.128906" xlink:href="#DejaVuSans-108"/>
      <use x="334.912109" xlink:href="#DejaVuSans-100"/>
      <use x="398.388672" xlink:href="#DejaVuSans-101"/>
      <use x="459.912109" xlink:href="#DejaVuSans-114"/>
     </g>
    </g>
   </g>
   <g id="text_7">
    <g clip-path="url(#pec5c68d90e)">
     <!-- LElbow -->
     <g transform="translate(65.420307 240.245543)scale(0.1 -0.1)">
      <defs>
       <path d="M 9.8125 72.90625 
L 55.90625 72.90625 
L 55.90625 64.59375 
L 19.671875 64.59375 
L 19.671875 43.015625 
L 54.390625 43.015625 
L 54.390625 34.71875 
L 19.671875 34.71875 
L 19.671875 8.296875 
L 56.78125 8.296875 
L 56.78125 0 
L 9.8125 0 
z
" id="DejaVuSans-69"/>
       <path d="M 48.6875 27.296875 
Q 48.6875 37.203125 44.609375 42.84375 
Q 40.53125 48.484375 33.40625 48.484375 
Q 26.265625 48.484375 22.1875 42.84375 
Q 18.109375 37.203125 18.109375 27.296875 
Q 18.109375 17.390625 22.1875 11.75 
Q 26.265625 6.109375 33.40625 6.109375 
Q 40.53125 6.109375 44.609375 11.75 
Q 48.6875 17.390625 48.6875 27.296875 
z
M 18.109375 46.390625 
Q 20.953125 51.265625 25.265625 53.625 
Q 29.59375 56 35.59375 56 
Q 45.5625 56 51.78125 48.09375 
Q 58.015625 40.1875 58.015625 27.296875 
Q 58.015625 14.40625 51.78125 6.484375 
Q 45.5625 -1.421875 35.59375 -1.421875 
Q 29.59375 -1.421875 25.265625 0.953125 
Q 20.953125 3.328125 18.109375 8.203125 
L 18.109375 0 
L 9.078125 0 
L 9.078125 75.984375 
L 18.109375 75.984375 
z
" id="DejaVuSans-98"/>
       <path d="M 4.203125 54.6875 
L 13.1875 54.6875 
L 24.421875 12.015625 
L 35.59375 54.6875 
L 46.1875 54.6875 
L 57.421875 12.015625 
L 68.609375 54.6875 
L 77.59375 54.6875 
L 63.28125 0 
L 52.6875 0 
L 40.921875 44.828125 
L 29.109375 0 
L 18.5 0 
z
" id="DejaVuSans-119"/>
      </defs>
      <use xlink:href="#DejaVuSans-76"/>
      <use x="55.712891" xlink:href="#DejaVuSans-69"/>
      <use x="118.896484" xlink:href="#DejaVuSans-108"/>
      <use x="146.679688" xlink:href="#DejaVuSans-98"/>
      <use x="210.15625" xlink:href="#DejaVuSans-111"/>
      <use x="271.337891" xlink:href="#DejaVuSans-119"/>
     </g>
    </g>
   </g>
   <g id="text_8">
    <g clip-path="url(#pec5c68d90e)">
     <!-- LWrist -->
     <g transform="translate(55.513906 354.063341)scale(0.1 -0.1)">
      <defs>
       <path d="M 3.328125 72.90625 
L 13.28125 72.90625 
L 28.609375 11.28125 
L 43.890625 72.90625 
L 54.984375 72.90625 
L 70.3125 11.28125 
L 85.59375 72.90625 
L 95.609375 72.90625 
L 77.296875 0 
L 64.890625 0 
L 49.515625 63.28125 
L 33.984375 0 
L 21.578125 0 
z
" id="DejaVuSans-87"/>
       <path d="M 44.28125 53.078125 
L 44.28125 44.578125 
Q 40.484375 46.53125 36.375 47.5 
Q 32.28125 48.484375 27.875 48.484375 
Q 21.1875 48.484375 17.84375 46.4375 
Q 14.5 44.390625 14.5 40.28125 
Q 14.5 37.15625 16.890625 35.375 
Q 19.28125 33.59375 26.515625 31.984375 
L 29.59375 31.296875 
Q 39.15625 29.25 43.1875 25.515625 
Q 47.21875 21.78125 47.21875 15.09375 
Q 47.21875 7.46875 41.1875 3.015625 
Q 35.15625 -1.421875 24.609375 -1.421875 
Q 20.21875 -1.421875 15.453125 -0.5625 
Q 10.6875 0.296875 5.421875 2 
L 5.421875 11.28125 
Q 10.40625 8.6875 15.234375 7.390625 
Q 20.0625 6.109375 24.8125 6.109375 
Q 31.15625 6.109375 34.5625 8.28125 
Q 37.984375 10.453125 37.984375 14.40625 
Q 37.984375 18.0625 35.515625 20.015625 
Q 33.0625 21.96875 24.703125 23.78125 
L 21.578125 24.515625 
Q 13.234375 26.265625 9.515625 29.90625 
Q 5.8125 33.546875 5.8125 39.890625 
Q 5.8125 47.609375 11.28125 51.796875 
Q 16.75 56 26.8125 56 
Q 31.78125 56 36.171875 55.265625 
Q 40.578125 54.546875 44.28125 53.078125 
z
" id="DejaVuSans-115"/>
       <path d="M 18.3125 70.21875 
L 18.3125 54.6875 
L 36.8125 54.6875 
L 36.8125 47.703125 
L 18.3125 47.703125 
L 18.3125 18.015625 
Q 18.3125 11.328125 20.140625 9.421875 
Q 21.96875 7.515625 27.59375 7.515625 
L 36.8125 7.515625 
L 36.8125 0 
L 27.59375 0 
Q 17.1875 0 13.234375 3.875 
Q 9.28125 7.765625 9.28125 18.015625 
L 9.28125 47.703125 
L 2.6875 47.703125 
L 2.6875 54.6875 
L 9.28125 54.6875 
L 9.28125 70.21875 
z
" id="DejaVuSans-116"/>
      </defs>
      <use xlink:href="#DejaVuSans-76"/>
      <use x="46.587891" xlink:href="#DejaVuSans-87"/>
      <use x="140.964844" xlink:href="#DejaVuSans-114"/>
      <use x="182.078125" xlink:href="#DejaVuSans-105"/>
      <use x="209.861328" xlink:href="#DejaVuSans-115"/>
      <use x="261.960938" xlink:href="#DejaVuSans-116"/>
     </g>
    </g>
   </g>
   <g id="text_9">
    <g clip-path="url(#pec5c68d90e)">
     <!-- LHand -->
     <g transform="translate(95.570571 375.209119)scale(0.1 -0.1)">
      <use xlink:href="#DejaVuSans-76"/>
      <use x="55.712891" xlink:href="#DejaVuSans-72"/>
      <use x="130.908203" xlink:href="#DejaVuSans-97"/>
      <use x="192.1875" xlink:href="#DejaVuSans-110"/>
      <use x="255.566406" xlink:href="#DejaVuSans-100"/>
     </g>
    </g>
   </g>
   <g id="text_10">
    <g clip-path="url(#pec5c68d90e)">
     <!-- RShoulder -->
     <g transform="translate(468.023977 173.275387)scale(0.1 -0.1)">
      <defs>
       <path d="M 44.390625 34.1875 
Q 47.5625 33.109375 50.5625 29.59375 
Q 53.5625 26.078125 56.59375 19.921875 
L 66.609375 0 
L 56 0 
L 46.6875 18.703125 
Q 43.0625 26.03125 39.671875 28.421875 
Q 36.28125 30.8125 30.421875 30.8125 
L 19.671875 30.8125 
L 19.671875 0 
L 9.8125 0 
L 9.8125 72.90625 
L 32.078125 72.90625 
Q 44.578125 72.90625 50.734375 67.671875 
Q 56.890625 62.453125 56.890625 51.90625 
Q 56.890625 45.015625 53.6875 40.46875 
Q 50.484375 35.9375 44.390625 34.1875 
z
M 19.671875 64.796875 
L 19.671875 38.921875 
L 32.078125 38.921875 
Q 39.203125 38.921875 42.84375 42.21875 
Q 46.484375 45.515625 46.484375 51.90625 
Q 46.484375 58.296875 42.84375 61.546875 
Q 39.203125 64.796875 32.078125 64.796875 
z
" id="DejaVuSans-82"/>
      </defs>
      <use xlink:href="#DejaVuSans-82"/>
      <use x="69.482422" xlink:href="#DejaVuSans-83"/>
      <use x="132.958984" xlink:href="#DejaVuSans-104"/>
      <use x="196.337891" xlink:href="#DejaVuSans-111"/>
      <use x="257.519531" xlink:href="#DejaVuSans-117"/>
      <use x="320.898438" xlink:href="#DejaVuSans-108"/>
      <use x="348.681641" xlink:href="#DejaVuSans-100"/>
      <use x="412.158203" xlink:href="#DejaVuSans-101"/>
      <use x="473.681641" xlink:href="#DejaVuSans-114"/>
     </g>
    </g>
   </g>
   <g id="text_11">
    <g clip-path="url(#pec5c68d90e)">
     <!-- RElbow -->
     <g transform="translate(507.671216 266.033977)scale(0.1 -0.1)">
      <use xlink:href="#DejaVuSans-82"/>
      <use x="69.482422" xlink:href="#DejaVuSans-69"/>
      <use x="132.666016" xlink:href="#DejaVuSans-108"/>
      <use x="160.449219" xlink:href="#DejaVuSans-98"/>
      <use x="223.925781" xlink:href="#DejaVuSans-111"/>
      <use x="285.107422" xlink:href="#DejaVuSans-119"/>
     </g>
    </g>
   </g>
   <g id="text_12">
    <g clip-path="url(#pec5c68d90e)">
     <!-- RWrist -->
     <g transform="translate(420.712382 318.863089)scale(0.1 -0.1)">
      <use xlink:href="#DejaVuSans-82"/>
      <use x="65.482422" xlink:href="#DejaVuSans-87"/>
      <use x="159.859375" xlink:href="#DejaVuSans-114"/>
      <use x="200.972656" xlink:href="#DejaVuSans-105"/>
      <use x="228.755859" xlink:href="#DejaVuSans-115"/>
      <use x="280.855469" xlink:href="#DejaVuSans-116"/>
     </g>
    </g>
   </g>
   <g id="text_13">
    <g clip-path="url(#pec5c68d90e)">
     <!-- RHand -->
     <g transform="translate(397.150091 332.541251)scale(0.1 -0.1)">
      <use xlink:href="#DejaVuSans-82"/>
      <use x="69.482422" xlink:href="#DejaVuSans-72"/>
      <use x="144.677734" xlink:href="#DejaVuSans-97"/>
      <use x="205.957031" xlink:href="#DejaVuSans-110"/>
      <use x="269.335938" xlink:href="#DejaVuSans-100"/>
     </g>
    </g>
   </g>
   <g id="text_14">
    <g clip-path="url(#pec5c68d90e)">
     <!-- LHip -->
     <g transform="translate(193.544146 355.195876)scale(0.1 -0.1)">
      <use xlink:href="#DejaVuSans-76"/>
      <use x="55.712891" xlink:href="#DejaVuSans-72"/>
      <use x="130.908203" xlink:href="#DejaVuSans-105"/>
      <use x="158.691406" xlink:href="#DejaVuSans-112"/>
     </g>
    </g>
   </g>
   <g id="text_15">
    <g clip-path="url(#pec5c68d90e)">
     <!-- LKnee -->
     <g transform="translate(115.052569 551.159415)scale(0.1 -0.1)">
      <defs>
       <path d="M 9.8125 72.90625 
L 19.671875 72.90625 
L 19.671875 42.09375 
L 52.390625 72.90625 
L 65.09375 72.90625 
L 28.90625 38.921875 
L 67.671875 0 
L 54.6875 0 
L 19.671875 35.109375 
L 19.671875 0 
L 9.8125 0 
z
" id="DejaVuSans-75"/>
      </defs>
      <use xlink:href="#DejaVuSans-76"/>
      <use x="55.712891" xlink:href="#DejaVuSans-75"/>
      <use x="121.289062" xlink:href="#DejaVuSans-110"/>
      <use x="184.667969" xlink:href="#DejaVuSans-101"/>
      <use x="246.191406" xlink:href="#DejaVuSans-101"/>
     </g>
    </g>
   </g>
   <g id="text_16">
    <g clip-path="url(#pec5c68d90e)">
     <!-- LAnkle -->
     <g transform="translate(55.51942 747.396743)scale(0.1 -0.1)">
      <defs>
       <path d="M 34.1875 63.1875 
L 20.796875 26.90625 
L 47.609375 26.90625 
z
M 28.609375 72.90625 
L 39.796875 72.90625 
L 67.578125 0 
L 57.328125 0 
L 50.6875 18.703125 
L 17.828125 18.703125 
L 11.1875 0 
L 0.78125 0 
z
" id="DejaVuSans-65"/>
       <path d="M 9.078125 75.984375 
L 18.109375 75.984375 
L 18.109375 31.109375 
L 44.921875 54.6875 
L 56.390625 54.6875 
L 27.390625 29.109375 
L 57.625 0 
L 45.90625 0 
L 18.109375 26.703125 
L 18.109375 0 
L 9.078125 0 
z
" id="DejaVuSans-107"/>
      </defs>
      <use xlink:href="#DejaVuSans-76"/>
      <use x="57.962891" xlink:href="#DejaVuSans-65"/>
      <use x="126.371094" xlink:href="#DejaVuSans-110"/>
      <use x="189.75" xlink:href="#DejaVuSans-107"/>
      <use x="247.660156" xlink:href="#DejaVuSans-108"/>
      <use x="275.443359" xlink:href="#DejaVuSans-101"/>
     </g>
    </g>
   </g>
   <g id="text_17">
    <g clip-path="url(#pec5c68d90e)">
     <!-- LFoot -->
     <g transform="translate(36.424096 791.784168)scale(0.1 -0.1)">
      <defs>
       <path d="M 9.8125 72.90625 
L 51.703125 72.90625 
L 51.703125 64.59375 
L 19.671875 64.59375 
L 19.671875 43.109375 
L 48.578125 43.109375 
L 48.578125 34.8125 
L 19.671875 34.8125 
L 19.671875 0 
L 9.8125 0 
z
" id="DejaVuSans-70"/>
      </defs>
      <use xlink:href="#DejaVuSans-76"/>
      <use x="55.712891" xlink:href="#DejaVuSans-70"/>
      <use x="109.607422" xlink:href="#DejaVuSans-111"/>
      <use x="170.789062" xlink:href="#DejaVuSans-111"/>
      <use x="231.970703" xlink:href="#DejaVuSans-116"/>
     </g>
    </g>
   </g>
   <g id="text_18">
    <g clip-path="url(#pec5c68d90e)">
     <!-- RHip -->
     <g transform="translate(344.203057 356.283156)scale(0.1 -0.1)">
      <use xlink:href="#DejaVuSans-82"/>
      <use x="69.482422" xlink:href="#DejaVuSans-72"/>
      <use x="144.677734" xlink:href="#DejaVuSans-105"/>
      <use x="172.460938" xlink:href="#DejaVuSans-112"/>
     </g>
    </g>
   </g>
   <g id="text_19">
    <g clip-path="url(#pec5c68d90e)">
     <!-- RKnee -->
     <g transform="translate(306.114513 527.921755)scale(0.1 -0.1)">
      <use xlink:href="#DejaVuSans-82"/>
      <use x="69.482422" xlink:href="#DejaVuSans-75"/>
      <use x="135.058594" xlink:href="#DejaVuSans-110"/>
      <use x="198.4375" xlink:href="#DejaVuSans-101"/>
      <use x="259.960938" xlink:href="#DejaVuSans-101"/>
     </g>
    </g>
   </g>
   <g id="text_20">
    <g clip-path="url(#pec5c68d90e)">
     <!-- RAnkle -->
     <g transform="translate(237.725695 716.752973)scale(0.1 -0.1)">
      <use xlink:href="#DejaVuSans-82"/>
      <use x="65.482422" xlink:href="#DejaVuSans-65"/>
      <use x="133.890625" xlink:href="#DejaVuSans-110"/>
      <use x="197.269531" xlink:href="#DejaVuSans-107"/>
      <use x="255.179688" xlink:href="#DejaVuSans-108"/>
      <use x="282.962891" xlink:href="#DejaVuSans-101"/>
     </g>
    </g>
   </g>
   <g id="text_21">
    <g clip-path="url(#pec5c68d90e)">
     <!-- RFoot -->
     <g transform="translate(259.60494 761.051761)scale(0.1 -0.1)">
      <use xlink:href="#DejaVuSans-82"/>
      <use x="69.482422" xlink:href="#DejaVuSans-70"/>
      <use x="123.376953" xlink:href="#DejaVuSans-111"/>
      <use x="184.558594" xlink:href="#DejaVuSans-111"/>
      <use x="245.740234" xlink:href="#DejaVuSans-116"/>
     </g>
    </g>
   </g>
   <g id="text_22">
    <g clip-path="url(#pec5c68d90e)">
     <!-- LHandTip -->
     <g transform="translate(120.720788 406.59744)scale(0.1 -0.1)">
      <defs>
       <path d="M -0.296875 72.90625 
L 61.375 72.90625 
L 61.375 64.59375 
L 35.5 64.59375 
L 35.5 0 
L 25.59375 0 
L 25.59375 64.59375 
L -0.296875 64.59375 
z
" id="DejaVuSans-84"/>
      </defs>
      <use xlink:href="#DejaVuSans-76"/>
      <use x="55.712891" xlink:href="#DejaVuSans-72"/>
      <use x="130.908203" xlink:href="#DejaVuSans-97"/>
      <use x="192.1875" xlink:href="#DejaVuSans-110"/>
      <use x="255.566406" xlink:href="#DejaVuSans-100"/>
      <use x="319.042969" xlink:href="#DejaVuSans-84"/>
      <use x="377.001953" xlink:href="#DejaVuSans-105"/>
      <use x="404.785156" xlink:href="#DejaVuSans-112"/>
     </g>
    </g>
   </g>
   <g id="text_23">
    <g clip-path="url(#pec5c68d90e)">
     <!-- LThumb -->
     <g transform="translate(108.289285 381.589996)scale(0.1 -0.1)">
      <defs>
       <path d="M 52 44.1875 
Q 55.375 50.25 60.0625 53.125 
Q 64.75 56 71.09375 56 
Q 79.640625 56 84.28125 50.015625 
Q 88.921875 44.046875 88.921875 33.015625 
L 88.921875 0 
L 79.890625 0 
L 79.890625 32.71875 
Q 79.890625 40.578125 77.09375 44.375 
Q 74.3125 48.1875 68.609375 48.1875 
Q 61.625 48.1875 57.5625 43.546875 
Q 53.515625 38.921875 53.515625 30.90625 
L 53.515625 0 
L 44.484375 0 
L 44.484375 32.71875 
Q 44.484375 40.625 41.703125 44.40625 
Q 38.921875 48.1875 33.109375 48.1875 
Q 26.21875 48.1875 22.15625 43.53125 
Q 18.109375 38.875 18.109375 30.90625 
L 18.109375 0 
L 9.078125 0 
L 9.078125 54.6875 
L 18.109375 54.6875 
L 18.109375 46.1875 
Q 21.1875 51.21875 25.484375 53.609375 
Q 29.78125 56 35.6875 56 
Q 41.65625 56 45.828125 52.96875 
Q 50 49.953125 52 44.1875 
z
" id="DejaVuSans-109"/>
      </defs>
      <use xlink:href="#DejaVuSans-76"/>
      <use x="41.962891" xlink:href="#DejaVuSans-84"/>
      <use x="103.046875" xlink:href="#DejaVuSans-104"/>
      <use x="166.425781" xlink:href="#DejaVuSans-117"/>
      <use x="229.804688" xlink:href="#DejaVuSans-109"/>
      <use x="327.216797" xlink:href="#DejaVuSans-98"/>
     </g>
    </g>
   </g>
   <g id="text_24">
    <g clip-path="url(#pec5c68d90e)">
     <!-- RHandTip -->
     <g transform="translate(361.41792 337.788067)scale(0.1 -0.1)">
      <use xlink:href="#DejaVuSans-82"/>
      <use x="69.482422" xlink:href="#DejaVuSans-72"/>
      <use x="144.677734" xlink:href="#DejaVuSans-97"/>
      <use x="205.957031" xlink:href="#DejaVuSans-110"/>
      <use x="269.335938" xlink:href="#DejaVuSans-100"/>
      <use x="332.8125" xlink:href="#DejaVuSans-84"/>
      <use x="390.771484" xlink:href="#DejaVuSans-105"/>
      <use x="418.554688" xlink:href="#DejaVuSans-112"/>
     </g>
    </g>
   </g>
   <g id="text_25">
    <g clip-path="url(#pec5c68d90e)">
     <!-- RThumb -->
     <g transform="translate(363.349346 327.944931)scale(0.1 -0.1)">
      <use xlink:href="#DejaVuSans-82"/>
      <use x="62.232422" xlink:href="#DejaVuSans-84"/>
      <use x="123.316406" xlink:href="#DejaVuSans-104"/>
      <use x="186.695312" xlink:href="#DejaVuSans-117"/>
      <use x="250.074219" xlink:href="#DejaVuSans-109"/>
      <use x="347.486328" xlink:href="#DejaVuSans-98"/>
     </g>
    </g>
   </g>
   <g id="text_26">
    <!-- Node Graph Visualization - Frame 93 -->
    <g transform="translate(178.011563 -6)scale(0.12 -0.12)">
     <defs>
      <path d="M 9.8125 72.90625 
L 23.09375 72.90625 
L 55.421875 11.921875 
L 55.421875 72.90625 
L 64.984375 72.90625 
L 64.984375 0 
L 51.703125 0 
L 19.390625 60.984375 
L 19.390625 0 
L 9.8125 0 
z
" id="DejaVuSans-78"/>
      <path id="DejaVuSans-32"/>
      <path d="M 59.515625 10.40625 
L 59.515625 29.984375 
L 43.40625 29.984375 
L 43.40625 38.09375 
L 69.28125 38.09375 
L 69.28125 6.78125 
Q 63.578125 2.734375 56.6875 0.65625 
Q 49.8125 -1.421875 42 -1.421875 
Q 24.90625 -1.421875 15.25 8.5625 
Q 5.609375 18.5625 5.609375 36.375 
Q 5.609375 54.25 15.25 64.234375 
Q 24.90625 74.21875 42 74.21875 
Q 49.125 74.21875 55.546875 72.453125 
Q 61.96875 70.703125 67.390625 67.28125 
L 67.390625 56.78125 
Q 61.921875 61.421875 55.765625 63.765625 
Q 49.609375 66.109375 42.828125 66.109375 
Q 29.4375 66.109375 22.71875 58.640625 
Q 16.015625 51.171875 16.015625 36.375 
Q 16.015625 21.625 22.71875 14.15625 
Q 29.4375 6.6875 42.828125 6.6875 
Q 48.046875 6.6875 52.140625 7.59375 
Q 56.25 8.5 59.515625 10.40625 
z
" id="DejaVuSans-71"/>
      <path d="M 28.609375 0 
L 0.78125 72.90625 
L 11.078125 72.90625 
L 34.1875 11.53125 
L 57.328125 72.90625 
L 67.578125 72.90625 
L 39.796875 0 
z
" id="DejaVuSans-86"/>
      <path d="M 5.515625 54.6875 
L 48.1875 54.6875 
L 48.1875 46.484375 
L 14.40625 7.171875 
L 48.1875 7.171875 
L 48.1875 0 
L 4.296875 0 
L 4.296875 8.203125 
L 38.09375 47.515625 
L 5.515625 47.515625 
z
" id="DejaVuSans-122"/>
      <path d="M 4.890625 31.390625 
L 31.203125 31.390625 
L 31.203125 23.390625 
L 4.890625 23.390625 
z
" id="DejaVuSans-45"/>
      <path d="M 10.984375 1.515625 
L 10.984375 10.5 
Q 14.703125 8.734375 18.5 7.8125 
Q 22.3125 6.890625 25.984375 6.890625 
Q 35.75 6.890625 40.890625 13.453125 
Q 46.046875 20.015625 46.78125 33.40625 
Q 43.953125 29.203125 39.59375 26.953125 
Q 35.25 24.703125 29.984375 24.703125 
Q 19.046875 24.703125 12.671875 31.3125 
Q 6.296875 37.9375 6.296875 49.421875 
Q 6.296875 60.640625 12.9375 67.421875 
Q 19.578125 74.21875 30.609375 74.21875 
Q 43.265625 74.21875 49.921875 64.515625 
Q 56.59375 54.828125 56.59375 36.375 
Q 56.59375 19.140625 48.40625 8.859375 
Q 40.234375 -1.421875 26.421875 -1.421875 
Q 22.703125 -1.421875 18.890625 -0.6875 
Q 15.09375 0.046875 10.984375 1.515625 
z
M 30.609375 32.421875 
Q 37.25 32.421875 41.125 36.953125 
Q 45.015625 41.5 45.015625 49.421875 
Q 45.015625 57.28125 41.125 61.84375 
Q 37.25 66.40625 30.609375 66.40625 
Q 23.96875 66.40625 20.09375 61.84375 
Q 16.21875 57.28125 16.21875 49.421875 
Q 16.21875 41.5 20.09375 36.953125 
Q 23.96875 32.421875 30.609375 32.421875 
z
" id="DejaVuSans-57"/>
      <path d="M 40.578125 39.3125 
Q 47.65625 37.796875 51.625 33 
Q 55.609375 28.21875 55.609375 21.1875 
Q 55.609375 10.40625 48.1875 4.484375 
Q 40.765625 -1.421875 27.09375 -1.421875 
Q 22.515625 -1.421875 17.65625 -0.515625 
Q 12.796875 0.390625 7.625 2.203125 
L 7.625 11.71875 
Q 11.71875 9.328125 16.59375 8.109375 
Q 21.484375 6.890625 26.8125 6.890625 
Q 36.078125 6.890625 40.9375 10.546875 
Q 45.796875 14.203125 45.796875 21.1875 
Q 45.796875 27.640625 41.28125 31.265625 
Q 36.765625 34.90625 28.71875 34.90625 
L 20.21875 34.90625 
L 20.21875 43.015625 
L 29.109375 43.015625 
Q 36.375 43.015625 40.234375 45.921875 
Q 44.09375 48.828125 44.09375 54.296875 
Q 44.09375 59.90625 40.109375 62.90625 
Q 36.140625 65.921875 28.71875 65.921875 
Q 24.65625 65.921875 20.015625 65.03125 
Q 15.375 64.15625 9.8125 62.3125 
L 9.8125 71.09375 
Q 15.4375 72.65625 20.34375 73.4375 
Q 25.25 74.21875 29.59375 74.21875 
Q 40.828125 74.21875 47.359375 69.109375 
Q 53.90625 64.015625 53.90625 55.328125 
Q 53.90625 49.265625 50.4375 45.09375 
Q 46.96875 40.921875 40.578125 39.3125 
z
" id="DejaVuSans-51"/>
     </defs>
     <use xlink:href="#DejaVuSans-78"/>
     <use x="74.804688" xlink:href="#DejaVuSans-111"/>
     <use x="135.986328" xlink:href="#DejaVuSans-100"/>
     <use x="199.462891" xlink:href="#DejaVuSans-101"/>
     <use x="260.986328" xlink:href="#DejaVuSans-32"/>
     <use x="292.773438" xlink:href="#DejaVuSans-71"/>
     <use x="370.263672" xlink:href="#DejaVuSans-114"/>
     <use x="411.376953" xlink:href="#DejaVuSans-97"/>
     <use x="472.65625" xlink:href="#DejaVuSans-112"/>
     <use x="536.132812" xlink:href="#DejaVuSans-104"/>
     <use x="599.511719" xlink:href="#DejaVuSans-32"/>
     <use x="631.298828" xlink:href="#DejaVuSans-86"/>
     <use x="697.457031" xlink:href="#DejaVuSans-105"/>
     <use x="725.240234" xlink:href="#DejaVuSans-115"/>
     <use x="777.339844" xlink:href="#DejaVuSans-117"/>
     <use x="840.71875" xlink:href="#DejaVuSans-97"/>
     <use x="901.998047" xlink:href="#DejaVuSans-108"/>
     <use x="929.78125" xlink:href="#DejaVuSans-105"/>
     <use x="957.564453" xlink:href="#DejaVuSans-122"/>
     <use x="1010.054688" xlink:href="#DejaVuSans-97"/>
     <use x="1071.333984" xlink:href="#DejaVuSans-116"/>
     <use x="1110.542969" xlink:href="#DejaVuSans-105"/>
     <use x="1138.326172" xlink:href="#DejaVuSans-111"/>
     <use x="1199.507812" xlink:href="#DejaVuSans-110"/>
     <use x="1262.886719" xlink:href="#DejaVuSans-32"/>
     <use x="1294.673828" xlink:href="#DejaVuSans-45"/>
     <use x="1330.757812" xlink:href="#DejaVuSans-32"/>
     <use x="1362.544922" xlink:href="#DejaVuSans-70"/>
     <use x="1412.814453" xlink:href="#DejaVuSans-114"/>
     <use x="1453.927734" xlink:href="#DejaVuSans-97"/>
     <use x="1515.207031" xlink:href="#DejaVuSans-109"/>
     <use x="1612.619141" xlink:href="#DejaVuSans-101"/>
     <use x="1674.142578" xlink:href="#DejaVuSans-32"/>
     <use x="1705.929688" xlink:href="#DejaVuSans-57"/>
     <use x="1769.552734" xlink:href="#DejaVuSans-51"/>
    </g>
   </g>
  </g>
 </g>
 <defs>
  <clipPath id="pec5c68d90e">
   <rect height="864" width="576" x="0" y="0"/>
  </clipPath>
 </defs>
</svg>
