<?xml version="1.0" encoding="utf-8" standalone="no"?>
<!DOCTYPE svg PUBLIC "-//W3C//DTD SVG 1.1//EN"
  "http://www.w3.org/Graphics/SVG/1.1/DTD/svg11.dtd">
<!-- Created with matplotlib (https://matplotlib.org/) -->
<svg height="864pt" version="1.1" viewBox="0 0 576 864" width="576pt" xmlns="http://www.w3.org/2000/svg" xmlns:xlink="http://www.w3.org/1999/xlink">
 <metadata>
  <rdf:RDF xmlns:cc="http://creativecommons.org/ns#" xmlns:dc="http://purl.org/dc/elements/1.1/" xmlns:rdf="http://www.w3.org/1999/02/22-rdf-syntax-ns#">
   <cc:Work>
    <dc:type rdf:resource="http://purl.org/dc/dcmitype/StillImage"/>
    <dc:date>2024-02-04T22:28:23.165956</dc:date>
    <dc:format>image/svg+xml</dc:format>
    <dc:creator>
     <cc:Agent>
      <dc:title>Matplotlib v3.3.2, https://matplotlib.org/</dc:title>
     </cc:Agent>
    </dc:creator>
   </cc:Work>
  </rdf:RDF>
 </metadata>
 <defs>
  <style type="text/css">*{stroke-linecap:butt;stroke-linejoin:round;}</style>
 </defs>
 <g id="figure_1">
  <g id="patch_1">
   <path d="M 0 864 
L 576 864 
L 576 0 
L 0 0 
z
" style="fill:#ffffff;"/>
  </g>
  <g id="axes_1">
   <g id="patch_2">
    <path clip-path="url(#p2d9126159d)" d="M 314.347921 88.199714 
Q 314.174903 96.406985 314.025449 103.49647 
" style="fill:none;stroke:#000000;stroke-linecap:round;"/>
    <path clip-path="url(#p2d9126159d)" d="M 316.10931 99.539511 
L 314.025449 103.49647 
L 312.110199 99.455205 
L 316.10931 99.539511 
z
" style="stroke:#000000;stroke-linecap:round;"/>
   </g>
   <g id="patch_3">
    <path clip-path="url(#p2d9126159d)" d="M 311.224493 130.831289 
Q 310.799873 133.039422 310.586381 134.149636 
" style="fill:none;stroke:#000000;stroke-linecap:round;"/>
    <path clip-path="url(#p2d9126159d)" d="M 313.30575 130.59928 
L 310.586381 134.149636 
L 309.377718 129.843927 
L 313.30575 130.59928 
z
" style="stroke:#000000;stroke-linecap:round;"/>
   </g>
   <g id="patch_4">
    <path clip-path="url(#p2d9126159d)" d="M 314.001906 104.613276 
Q 314.174924 96.406006 314.324378 89.316521 
" style="fill:none;stroke:#000000;stroke-linecap:round;"/>
    <path clip-path="url(#p2d9126159d)" d="M 312.240516 93.273479 
L 314.324378 89.316521 
L 316.239628 93.357785 
L 312.240516 93.273479 
z
" style="stroke:#000000;stroke-linecap:round;"/>
   </g>
   <g id="patch_5">
    <path clip-path="url(#p2d9126159d)" d="M 305.384725 161.23445 
Q 298.862029 195.245392 292.549914 228.158311 
" style="fill:none;stroke:#000000;stroke-linecap:round;"/>
    <path clip-path="url(#p2d9126159d)" d="M 295.267517 224.606602 
L 292.549914 228.158311 
L 291.339109 223.853203 
L 295.267517 224.606602 
z
" style="stroke:#000000;stroke-linecap:round;"/>
   </g>
   <g id="patch_6">
    <path clip-path="url(#p2d9126159d)" d="M 294.658783 147.642567 
Q 214.023809 143.989863 134.505723 140.387752 
" style="fill:none;stroke:#000000;stroke-linecap:round;"/>
    <path clip-path="url(#p2d9126159d)" d="M 138.41112 142.566715 
L 134.505723 140.387752 
L 138.592131 138.570813 
L 138.41112 142.566715 
z
" style="stroke:#000000;stroke-linecap:round;"/>
   </g>
   <g id="patch_7">
    <path clip-path="url(#p2d9126159d)" d="M 321.084121 149.038349 
Q 409.066332 154.347742 495.932539 159.589789 
" style="fill:none;stroke:#000000;stroke-linecap:round;"/>
    <path clip-path="url(#p2d9126159d)" d="M 492.060276 157.352474 
L 495.932539 159.589789 
L 491.81933 161.34521 
L 492.060276 157.352474 
z
" style="stroke:#000000;stroke-linecap:round;"/>
   </g>
   <g id="patch_8">
    <path clip-path="url(#p2d9126159d)" d="M 310.375203 135.247819 
Q 310.799822 133.039686 311.013314 131.929471 
" style="fill:none;stroke:#000000;stroke-linecap:round;"/>
    <path clip-path="url(#p2d9126159d)" d="M 308.293945 135.479827 
L 311.013314 131.929471 
L 312.221978 136.23518 
L 308.293945 135.479827 
z
" style="stroke:#000000;stroke-linecap:round;"/>
   </g>
   <g id="patch_9">
    <path clip-path="url(#p2d9126159d)" d="M 287.401462 255.252454 
Q 277.684122 306.909567 268.173473 357.467917 
" style="fill:none;stroke:#000000;stroke-linecap:round;"/>
    <path clip-path="url(#p2d9126159d)" d="M 270.878478 353.906605 
L 268.173473 357.467917 
L 266.947426 353.167125 
L 270.878478 353.906605 
z
" style="stroke:#000000;stroke-linecap:round;"/>
   </g>
   <g id="patch_10">
    <path clip-path="url(#p2d9126159d)" d="M 292.339506 229.25543 
Q 298.862202 195.244488 305.174317 162.331569 
" style="fill:none;stroke:#000000;stroke-linecap:round;"/>
    <path clip-path="url(#p2d9126159d)" d="M 302.456714 165.883278 
L 305.174317 162.331569 
L 306.385122 166.636677 
L 302.456714 165.883278 
z
" style="stroke:#000000;stroke-linecap:round;"/>
   </g>
   <g id="patch_11">
    <path clip-path="url(#p2d9126159d)" d="M 252.301406 371.09948 
Q 221.400404 370.001357 191.616731 368.942941 
" style="fill:none;stroke:#000000;stroke-linecap:round;"/>
    <path clip-path="url(#p2d9126159d)" d="M 195.543179 371.083737 
L 191.616731 368.942941 
L 195.685237 367.08626 
L 195.543179 371.083737 
z
" style="stroke:#000000;stroke-linecap:round;"/>
   </g>
   <g id="patch_12">
    <path clip-path="url(#p2d9126159d)" d="M 278.732158 372.272066 
Q 309.3819 373.902556 338.915187 375.473653 
" style="fill:none;stroke:#000000;stroke-linecap:round;"/>
    <path clip-path="url(#p2d9126159d)" d="M 335.02708 373.263988 
L 338.915187 375.473653 
L 334.81459 377.25834 
L 335.02708 373.263988 
z
" style="stroke:#000000;stroke-linecap:round;"/>
   </g>
   <g id="patch_13">
    <path clip-path="url(#p2d9126159d)" d="M 267.96703 358.565359 
Q 277.68437 306.908246 287.195019 256.349896 
" style="fill:none;stroke:#000000;stroke-linecap:round;"/>
    <path clip-path="url(#p2d9126159d)" d="M 284.490014 259.911208 
L 287.195019 256.349896 
L 288.421066 260.650688 
L 284.490014 259.911208 
z
" style="stroke:#000000;stroke-linecap:round;"/>
   </g>
   <g id="patch_14">
    <path clip-path="url(#p2d9126159d)" d="M 112.286012 150.360023 
Q 85.079035 186.988998 58.53872 222.720441 
" style="fill:none;stroke:#000000;stroke-linecap:round;"/>
    <path clip-path="url(#p2d9126159d)" d="M 62.529393 220.701894 
L 58.53872 222.720441 
L 59.318287 218.316775 
L 62.529393 220.701894 
z
" style="stroke:#000000;stroke-linecap:round;"/>
   </g>
   <g id="patch_15">
    <path clip-path="url(#p2d9126159d)" d="M 133.393105 140.337352 
Q 214.028079 143.990056 293.546165 147.592167 
" style="fill:none;stroke:#000000;stroke-linecap:round;"/>
    <path clip-path="url(#p2d9126159d)" d="M 289.640768 145.413204 
L 293.546165 147.592167 
L 289.459757 149.409106 
L 289.640768 145.413204 
z
" style="stroke:#000000;stroke-linecap:round;"/>
   </g>
   <g id="patch_16">
    <path clip-path="url(#p2d9126159d)" d="M 62.599581 238.217857 
Q 147.185379 264.898183 230.704926 291.242189 
" style="fill:none;stroke:#000000;stroke-linecap:round;"/>
    <path clip-path="url(#p2d9126159d)" d="M 227.491822 288.131568 
L 230.704926 291.242189 
L 226.288567 291.9463 
L 227.491822 288.131568 
z
" style="stroke:#000000;stroke-linecap:round;"/>
   </g>
   <g id="patch_17">
    <path clip-path="url(#p2d9126159d)" d="M 57.87277 223.617015 
Q 85.079747 186.98804 111.620062 151.256597 
" style="fill:none;stroke:#000000;stroke-linecap:round;"/>
    <path clip-path="url(#p2d9126159d)" d="M 107.629389 153.275143 
L 111.620062 151.256597 
L 110.840495 155.660263 
L 107.629389 153.275143 
z
" style="stroke:#000000;stroke-linecap:round;"/>
   </g>
   <g id="patch_18">
    <path clip-path="url(#p2d9126159d)" d="M 257.250178 298.668984 
Q 276.247851 303.263569 294.158819 307.595335 
" style="fill:none;stroke:#000000;stroke-linecap:round;"/>
    <path clip-path="url(#p2d9126159d)" d="M 290.741054 304.711088 
L 294.158819 307.595335 
L 289.800763 308.599 
L 290.741054 304.711088 
z
" style="stroke:#000000;stroke-linecap:round;"/>
   </g>
   <g id="patch_19">
    <path clip-path="url(#p2d9126159d)" d="M 231.773519 291.579248 
Q 147.187721 264.898922 63.668174 238.554915 
" style="fill:none;stroke:#000000;stroke-linecap:round;"/>
    <path clip-path="url(#p2d9126159d)" d="M 66.881278 241.665536 
L 63.668174 238.554915 
L 68.084533 237.850805 
L 66.881278 241.665536 
z
" style="stroke:#000000;stroke-linecap:round;"/>
   </g>
   <g id="patch_20">
    <path clip-path="url(#p2d9126159d)" d="M 320.411699 315.812762 
Q 321.120333 316.091718 320.788638 315.961145 
" style="fill:none;stroke:#000000;stroke-linecap:round;"/>
    <path clip-path="url(#p2d9126159d)" d="M 317.799228 312.634971 
L 320.788638 315.961145 
L 316.334053 316.356968 
L 317.799228 312.634971 
z
" style="stroke:#000000;stroke-linecap:round;"/>
   </g>
   <g id="patch_21">
    <path clip-path="url(#p2d9126159d)" d="M 321.191451 309.012189 
Q 335.587426 306.860362 348.877652 304.873816 
" style="fill:none;stroke:#000000;stroke-linecap:round;"/>
    <path clip-path="url(#p2d9126159d)" d="M 344.625938 303.487118 
L 348.877652 304.873816 
L 345.217266 307.443168 
L 344.625938 303.487118 
z
" style="stroke:#000000;stroke-linecap:round;"/>
   </g>
   <g id="patch_22">
    <path clip-path="url(#p2d9126159d)" d="M 295.244603 307.857932 
Q 276.246931 303.263347 258.335962 298.931581 
" style="fill:none;stroke:#000000;stroke-linecap:round;"/>
    <path clip-path="url(#p2d9126159d)" d="M 261.753728 301.815828 
L 258.335962 298.931581 
L 262.694019 297.927916 
L 261.753728 301.815828 
z
" style="stroke:#000000;stroke-linecap:round;"/>
   </g>
   <g id="patch_23">
    <path clip-path="url(#p2d9126159d)" d="M 512.029779 173.561422 
Q 518.13511 218.634109 524.090368 262.598879 
" style="fill:none;stroke:#000000;stroke-linecap:round;"/>
    <path clip-path="url(#p2d9126159d)" d="M 525.535351 258.366619 
L 524.090368 262.598879 
L 521.571549 258.903537 
L 525.535351 258.366619 
z
" style="stroke:#000000;stroke-linecap:round;"/>
   </g>
   <g id="patch_24">
    <path clip-path="url(#p2d9126159d)" d="M 497.046774 159.657029 
Q 409.064563 154.347635 322.198355 149.105589 
" style="fill:none;stroke:#000000;stroke-linecap:round;"/>
    <path clip-path="url(#p2d9126159d)" d="M 326.070618 151.342904 
L 322.198355 149.105589 
L 326.311565 147.350167 
L 326.070618 151.342904 
z
" style="stroke:#000000;stroke-linecap:round;"/>
   </g>
   <g id="patch_25">
    <path clip-path="url(#p2d9126159d)" d="M 513.044418 279.413989 
Q 439.001822 294.226929 366.055536 308.820542 
" style="fill:none;stroke:#000000;stroke-linecap:round;"/>
    <path clip-path="url(#p2d9126159d)" d="M 370.370159 309.996991 
L 366.055536 308.820542 
L 369.585469 306.074713 
L 370.370159 309.996991 
z
" style="stroke:#000000;stroke-linecap:round;"/>
   </g>
   <g id="patch_26">
    <path clip-path="url(#p2d9126159d)" d="M 524.241067 263.711424 
Q 518.135737 218.638737 512.180479 174.673967 
" style="fill:none;stroke:#000000;stroke-linecap:round;"/>
    <path clip-path="url(#p2d9126159d)" d="M 510.735496 178.906227 
L 512.180479 174.673967 
L 514.699297 178.369309 
L 510.735496 178.906227 
z
" style="stroke:#000000;stroke-linecap:round;"/>
   </g>
   <g id="patch_27">
    <path clip-path="url(#p2d9126159d)" d="M 338.881949 313.446099 
Q 334.794961 314.010863 331.815482 314.422585 
" style="fill:none;stroke:#000000;stroke-linecap:round;"/>
    <path clip-path="url(#p2d9126159d)" d="M 336.0516 315.856218 
L 331.815482 314.422585 
L 335.50406 311.893871 
L 336.0516 315.856218 
z
" style="stroke:#000000;stroke-linecap:round;"/>
   </g>
   <g id="patch_28">
    <path clip-path="url(#p2d9126159d)" d="M 364.957878 309.040139 
Q 439.000474 294.227199 511.94676 279.633586 
" style="fill:none;stroke:#000000;stroke-linecap:round;"/>
    <path clip-path="url(#p2d9126159d)" d="M 507.632137 278.457137 
L 511.94676 279.633586 
L 508.416827 282.379415 
L 507.632137 278.457137 
z
" style="stroke:#000000;stroke-linecap:round;"/>
   </g>
   <g id="patch_29">
    <path clip-path="url(#p2d9126159d)" d="M 318.13817 318.706059 
Q 312.04526 320.708187 307.01451 322.361289 
" style="fill:none;stroke:#000000;stroke-linecap:round;"/>
    <path clip-path="url(#p2d9126159d)" d="M 311.43896 323.012627 
L 307.01451 322.361289 
L 310.19025 319.212532 
L 311.43896 323.012627 
z
" style="stroke:#000000;stroke-linecap:round;"/>
   </g>
   <g id="patch_30">
    <path clip-path="url(#p2d9126159d)" d="M 317.971424 311.009499 
Q 310.585305 308.941447 304.275816 307.174842 
" style="fill:none;stroke:#000000;stroke-linecap:round;"/>
    <path clip-path="url(#p2d9126159d)" d="M 307.588435 310.179265 
L 304.275816 307.174842 
L 308.666925 306.3274 
L 307.588435 310.179265 
z
" style="stroke:#000000;stroke-linecap:round;"/>
   </g>
   <g id="patch_31">
    <path clip-path="url(#p2d9126159d)" d="M 343.81179 312.764864 
Q 347.898778 312.2001 350.878257 311.788378 
" style="fill:none;stroke:#000000;stroke-linecap:round;"/>
    <path clip-path="url(#p2d9126159d)" d="M 346.642139 310.354745 
L 350.878257 311.788378 
L 347.18968 314.317092 
L 346.642139 310.354745 
z
" style="stroke:#000000;stroke-linecap:round;"/>
   </g>
   <g id="patch_32">
    <path clip-path="url(#p2d9126159d)" d="M 172.854607 380.905014 
Q 150.494219 443.920739 128.507711 505.882798 
" style="fill:none;stroke:#000000;stroke-linecap:round;"/>
    <path clip-path="url(#p2d9126159d)" d="M 131.730205 502.781905 
L 128.507711 505.882798 
L 127.960493 501.444268 
L 131.730205 502.781905 
z
" style="stroke:#000000;stroke-linecap:round;"/>
   </g>
   <g id="patch_33">
    <path clip-path="url(#p2d9126159d)" d="M 190.499423 368.903235 
Q 221.400425 370.001358 251.184098 371.059775 
" style="fill:none;stroke:#000000;stroke-linecap:round;"/>
    <path clip-path="url(#p2d9126159d)" d="M 247.25765 368.918979 
L 251.184098 371.059775 
L 247.115592 372.916456 
L 247.25765 368.918979 
z
" style="stroke:#000000;stroke-linecap:round;"/>
   </g>
   <g id="patch_34">
    <path clip-path="url(#p2d9126159d)" d="M 125.026274 532.565343 
Q 130.485035 587.206865 135.832657 640.735891 
" style="fill:none;stroke:#000000;stroke-linecap:round;"/>
    <path clip-path="url(#p2d9126159d)" d="M 137.425124 636.55689 
L 135.832657 640.735891 
L 133.444937 636.954516 
L 137.425124 636.55689 
z
" style="stroke:#000000;stroke-linecap:round;"/>
   </g>
   <g id="patch_35">
    <path clip-path="url(#p2d9126159d)" d="M 128.136479 506.929001 
Q 150.496867 443.913275 172.483374 381.951217 
" style="fill:none;stroke:#000000;stroke-linecap:round;"/>
    <path clip-path="url(#p2d9126159d)" d="M 169.260881 385.052109 
L 172.483374 381.951217 
L 173.030592 386.389747 
L 169.260881 385.052109 
z
" style="stroke:#000000;stroke-linecap:round;"/>
   </g>
   <g id="patch_36">
    <path clip-path="url(#p2d9126159d)" d="M 133.005852 667.543794 
Q 130.716852 674.287682 128.787198 679.972858 
" style="fill:none;stroke:#000000;stroke-linecap:round;"/>
    <path clip-path="url(#p2d9126159d)" d="M 131.966715 676.827915 
L 128.787198 679.972858 
L 128.178953 675.542279 
L 131.966715 676.827915 
z
" style="stroke:#000000;stroke-linecap:round;"/>
   </g>
   <g id="patch_37">
    <path clip-path="url(#p2d9126159d)" d="M 135.943796 641.848386 
Q 130.485035 587.206864 125.137414 533.677838 
" style="fill:none;stroke:#000000;stroke-linecap:round;"/>
    <path clip-path="url(#p2d9126159d)" d="M 123.544946 537.856839 
L 125.137414 533.677838 
L 127.525133 537.459213 
L 123.544946 537.856839 
z
" style="stroke:#000000;stroke-linecap:round;"/>
   </g>
   <g id="patch_38">
    <path clip-path="url(#p2d9126159d)" d="M 128.428513 681.029622 
Q 130.717513 674.285734 132.647167 668.600558 
" style="fill:none;stroke:#000000;stroke-linecap:round;"/>
    <path clip-path="url(#p2d9126159d)" d="M 129.46765 671.745502 
L 132.647167 668.600558 
L 133.255411 673.031138 
L 129.46765 671.745502 
z
" style="stroke:#000000;stroke-linecap:round;"/>
   </g>
   <g id="patch_39">
    <path clip-path="url(#p2d9126159d)" d="M 352.4208 389.43764 
Q 347.851799 462.806365 343.352289 535.059217 
" style="fill:none;stroke:#000000;stroke-linecap:round;"/>
    <path clip-path="url(#p2d9126159d)" d="M 345.597038 531.191259 
L 343.352289 535.059217 
L 341.604772 530.942643 
L 345.597038 531.191259 
z
" style="stroke:#000000;stroke-linecap:round;"/>
   </g>
   <g id="patch_40">
    <path clip-path="url(#p2d9126159d)" d="M 340.031614 375.533044 
Q 309.381871 373.902555 279.848584 372.331457 
" style="fill:none;stroke:#000000;stroke-linecap:round;"/>
    <path clip-path="url(#p2d9126159d)" d="M 283.736692 374.541123 
L 279.848584 372.331457 
L 283.949181 370.546771 
L 283.736692 374.541123 
z
" style="stroke:#000000;stroke-linecap:round;"/>
   </g>
   <g id="patch_41">
    <path clip-path="url(#p2d9126159d)" d="M 337.74181 561.733476 
Q 302.98586 652.735909 268.62881 742.69389 
" style="fill:none;stroke:#000000;stroke-linecap:round;"/>
    <path clip-path="url(#p2d9126159d)" d="M 271.92433 739.670722 
L 268.62881 742.69389 
L 268.187587 738.243573 
L 271.92433 739.670722 
z
" style="stroke:#000000;stroke-linecap:round;"/>
   </g>
   <g id="patch_42">
    <path clip-path="url(#p2d9126159d)" d="M 343.282716 536.176404 
Q 347.851717 462.807679 352.351227 390.554826 
" style="fill:none;stroke:#000000;stroke-linecap:round;"/>
    <path clip-path="url(#p2d9126159d)" d="M 350.106478 394.422784 
L 352.351227 390.554826 
L 354.098744 394.671401 
L 350.106478 394.422784 
z
" style="stroke:#000000;stroke-linecap:round;"/>
   </g>
   <g id="patch_43">
    <path clip-path="url(#p2d9126159d)" d="M 271.130639 766.905186 
Q 275.116141 772.557945 278.457397 777.296949 
" style="fill:none;stroke:#000000;stroke-linecap:round;"/>
    <path clip-path="url(#p2d9126159d)" d="M 277.787044 772.87534 
L 278.457397 777.296949 
L 274.517898 775.180266 
L 277.787044 772.87534 
z
" style="stroke:#000000;stroke-linecap:round;"/>
   </g>
   <g id="patch_44">
    <path clip-path="url(#p2d9126159d)" d="M 268.228772 743.741319 
Q 302.984723 652.738886 337.341773 562.780905 
" style="fill:none;stroke:#000000;stroke-linecap:round;"/>
    <path clip-path="url(#p2d9126159d)" d="M 334.046252 565.804073 
L 337.341773 562.780905 
L 337.782995 567.231222 
L 334.046252 565.804073 
z
" style="stroke:#000000;stroke-linecap:round;"/>
   </g>
   <g id="patch_45">
    <path clip-path="url(#p2d9126159d)" d="M 279.105527 778.216212 
Q 275.120025 772.563454 271.778769 767.824449 
" style="fill:none;stroke:#000000;stroke-linecap:round;"/>
    <path clip-path="url(#p2d9126159d)" d="M 272.449122 772.246058 
L 271.778769 767.824449 
L 275.718268 769.941132 
L 272.449122 772.246058 
z
" style="stroke:#000000;stroke-linecap:round;"/>
   </g>
   <g id="patch_46">
    <path clip-path="url(#p2d9126159d)" d="M 321.828874 316.370637 
Q 321.120239 316.091681 321.451935 316.222254 
" style="fill:none;stroke:#000000;stroke-linecap:round;"/>
    <path clip-path="url(#p2d9126159d)" d="M 324.441344 319.548427 
L 321.451935 316.222254 
L 325.906519 315.82643 
L 324.441344 319.548427 
z
" style="stroke:#000000;stroke-linecap:round;"/>
   </g>
   <g id="patch_47">
    <path clip-path="url(#p2d9126159d)" d="M 349.980636 304.708948 
Q 335.584661 306.860775 322.294435 308.847322 
" style="fill:none;stroke:#000000;stroke-linecap:round;"/>
    <path clip-path="url(#p2d9126159d)" d="M 326.546149 310.234019 
L 322.294435 308.847322 
L 325.954821 306.277969 
L 326.546149 310.234019 
z
" style="stroke:#000000;stroke-linecap:round;"/>
   </g>
   <g id="patch_48">
    <path clip-path="url(#p2d9126159d)" d="M 305.955621 322.70924 
Q 312.048531 320.707112 317.079282 319.054009 
" style="fill:none;stroke:#000000;stroke-linecap:round;"/>
    <path clip-path="url(#p2d9126159d)" d="M 312.654832 318.402672 
L 317.079282 319.054009 
L 313.903541 322.202767 
L 312.654832 318.402672 
z
" style="stroke:#000000;stroke-linecap:round;"/>
   </g>
   <g id="patch_49">
    <path clip-path="url(#p2d9126159d)" d="M 303.198501 306.873203 
Q 310.58462 308.941255 316.894109 310.70786 
" style="fill:none;stroke:#000000;stroke-linecap:round;"/>
    <path clip-path="url(#p2d9126159d)" d="M 313.58149 307.703438 
L 316.894109 310.70786 
L 312.503 311.555302 
L 313.58149 307.703438 
z
" style="stroke:#000000;stroke-linecap:round;"/>
   </g>
   <g id="PathCollection_1">
    <defs>
     <path d="M 0 13.228757 
C 3.508307 13.228757 6.873396 11.834891 9.354143 9.354143 
C 11.834891 6.873396 13.228757 3.508307 13.228757 0 
C 13.228757 -3.508307 11.834891 -6.873396 9.354143 -9.354143 
C 6.873396 -11.834891 3.508307 -13.228757 0 -13.228757 
C -3.508307 -13.228757 -6.873396 -11.834891 -9.354143 -9.354143 
C -11.834891 -6.873396 -13.228757 -3.508307 -13.228757 0 
C -13.228757 3.508307 -11.834891 6.873396 -9.354143 9.354143 
C -6.873396 11.834891 -3.508307 13.228757 0 13.228757 
z
" id="mee50325274" style="stroke:#87ceeb;"/>
    </defs>
    <g clip-path="url(#p2d9126159d)">
     <use style="fill:#87ceeb;stroke:#87ceeb;" x="314.626708" xlink:href="#mee50325274" y="74.975207"/>
     <use style="fill:#87ceeb;stroke:#87ceeb;" x="313.723119" xlink:href="#mee50325274" y="117.837784"/>
     <use style="fill:#87ceeb;stroke:#87ceeb;" x="307.876577" xlink:href="#mee50325274" y="148.241324"/>
     <use style="fill:#87ceeb;stroke:#87ceeb;" x="289.847655" xlink:href="#mee50325274" y="242.248556"/>
     <use style="fill:#87ceeb;stroke:#87ceeb;" x="265.520837" xlink:href="#mee50325274" y="371.569257"/>
     <use style="fill:#87ceeb;stroke:#87ceeb;" x="120.175311" xlink:href="#mee50325274" y="139.738595"/>
     <use style="fill:#87ceeb;stroke:#87ceeb;" x="49.983471" xlink:href="#mee50325274" y="234.238442"/>
     <use style="fill:#87ceeb;stroke:#87ceeb;" x="244.389629" xlink:href="#mee50325274" y="295.558662"/>
     <use style="fill:#87ceeb;stroke:#87ceeb;" x="308.105153" xlink:href="#mee50325274" y="310.968254"/>
     <use style="fill:#87ceeb;stroke:#87ceeb;" x="510.254318" xlink:href="#mee50325274" y="160.454054"/>
     <use style="fill:#87ceeb;stroke:#87ceeb;" x="526.016529" xlink:href="#mee50325274" y="276.818792"/>
     <use style="fill:#87ceeb;stroke:#87ceeb;" x="351.985767" xlink:href="#mee50325274" y="311.635336"/>
     <use style="fill:#87ceeb;stroke:#87ceeb;" x="330.707973" xlink:href="#mee50325274" y="314.575627"/>
     <use style="fill:#87ceeb;stroke:#87ceeb;" x="177.279992" xlink:href="#mee50325274" y="368.433459"/>
     <use style="fill:#87ceeb;stroke:#87ceeb;" x="123.711094" xlink:href="#mee50325274" y="519.400556"/>
     <use style="fill:#87ceeb;stroke:#87ceeb;" x="137.258976" xlink:href="#mee50325274" y="655.013173"/>
     <use style="fill:#87ceeb;stroke:#87ceeb;" x="124.175389" xlink:href="#mee50325274" y="693.560243"/>
     <use style="fill:#87ceeb;stroke:#87ceeb;" x="353.242934" xlink:href="#mee50325274" y="376.235854"/>
     <use style="fill:#87ceeb;stroke:#87ceeb;" x="342.460582" xlink:href="#mee50325274" y="549.37819"/>
     <use style="fill:#87ceeb;stroke:#87ceeb;" x="263.51" xlink:href="#mee50325274" y="756.096605"/>
     <use style="fill:#87ceeb;stroke:#87ceeb;" x="286.726166" xlink:href="#mee50325274" y="789.024793"/>
     <use style="fill:#87ceeb;stroke:#87ceeb;" x="334.13542" xlink:href="#mee50325274" y="321.215145"/>
     <use style="fill:#87ceeb;stroke:#87ceeb;" x="363.066935" xlink:href="#mee50325274" y="302.752884"/>
     <use style="fill:#87ceeb;stroke:#87ceeb;" x="293.385819" xlink:href="#mee50325274" y="326.839671"/>
     <use style="fill:#87ceeb;stroke:#87ceeb;" x="290.461953" xlink:href="#mee50325274" y="303.307075"/>
    </g>
   </g>
   <g id="text_1">
    <g clip-path="url(#p2d9126159d)">
     <!-- Head -->
     <g transform="translate(301.551708 77.734582)scale(0.1 -0.1)">
      <defs>
       <path d="M 9.8125 72.90625 
L 19.671875 72.90625 
L 19.671875 43.015625 
L 55.515625 43.015625 
L 55.515625 72.90625 
L 65.375 72.90625 
L 65.375 0 
L 55.515625 0 
L 55.515625 34.71875 
L 19.671875 34.71875 
L 19.671875 0 
L 9.8125 0 
z
" id="DejaVuSans-72"/>
       <path d="M 56.203125 29.59375 
L 56.203125 25.203125 
L 14.890625 25.203125 
Q 15.484375 15.921875 20.484375 11.0625 
Q 25.484375 6.203125 34.421875 6.203125 
Q 39.59375 6.203125 44.453125 7.46875 
Q 49.3125 8.734375 54.109375 11.28125 
L 54.109375 2.78125 
Q 49.265625 0.734375 44.1875 -0.34375 
Q 39.109375 -1.421875 33.890625 -1.421875 
Q 20.796875 -1.421875 13.15625 6.1875 
Q 5.515625 13.8125 5.515625 26.8125 
Q 5.515625 40.234375 12.765625 48.109375 
Q 20.015625 56 32.328125 56 
Q 43.359375 56 49.78125 48.890625 
Q 56.203125 41.796875 56.203125 29.59375 
z
M 47.21875 32.234375 
Q 47.125 39.59375 43.09375 43.984375 
Q 39.0625 48.390625 32.421875 48.390625 
Q 24.90625 48.390625 20.390625 44.140625 
Q 15.875 39.890625 15.1875 32.171875 
z
" id="DejaVuSans-101"/>
       <path d="M 34.28125 27.484375 
Q 23.390625 27.484375 19.1875 25 
Q 14.984375 22.515625 14.984375 16.5 
Q 14.984375 11.71875 18.140625 8.90625 
Q 21.296875 6.109375 26.703125 6.109375 
Q 34.1875 6.109375 38.703125 11.40625 
Q 43.21875 16.703125 43.21875 25.484375 
L 43.21875 27.484375 
z
M 52.203125 31.203125 
L 52.203125 0 
L 43.21875 0 
L 43.21875 8.296875 
Q 40.140625 3.328125 35.546875 0.953125 
Q 30.953125 -1.421875 24.3125 -1.421875 
Q 15.921875 -1.421875 10.953125 3.296875 
Q 6 8.015625 6 15.921875 
Q 6 25.140625 12.171875 29.828125 
Q 18.359375 34.515625 30.609375 34.515625 
L 43.21875 34.515625 
L 43.21875 35.40625 
Q 43.21875 41.609375 39.140625 45 
Q 35.0625 48.390625 27.6875 48.390625 
Q 23 48.390625 18.546875 47.265625 
Q 14.109375 46.140625 10.015625 43.890625 
L 10.015625 52.203125 
Q 14.9375 54.109375 19.578125 55.046875 
Q 24.21875 56 28.609375 56 
Q 40.484375 56 46.34375 49.84375 
Q 52.203125 43.703125 52.203125 31.203125 
z
" id="DejaVuSans-97"/>
       <path d="M 45.40625 46.390625 
L 45.40625 75.984375 
L 54.390625 75.984375 
L 54.390625 0 
L 45.40625 0 
L 45.40625 8.203125 
Q 42.578125 3.328125 38.25 0.953125 
Q 33.9375 -1.421875 27.875 -1.421875 
Q 17.96875 -1.421875 11.734375 6.484375 
Q 5.515625 14.40625 5.515625 27.296875 
Q 5.515625 40.1875 11.734375 48.09375 
Q 17.96875 56 27.875 56 
Q 33.9375 56 38.25 53.625 
Q 42.578125 51.265625 45.40625 46.390625 
z
M 14.796875 27.296875 
Q 14.796875 17.390625 18.875 11.75 
Q 22.953125 6.109375 30.078125 6.109375 
Q 37.203125 6.109375 41.296875 11.75 
Q 45.40625 17.390625 45.40625 27.296875 
Q 45.40625 37.203125 41.296875 42.84375 
Q 37.203125 48.484375 30.078125 48.484375 
Q 22.953125 48.484375 18.875 42.84375 
Q 14.796875 37.203125 14.796875 27.296875 
z
" id="DejaVuSans-100"/>
      </defs>
      <use xlink:href="#DejaVuSans-72"/>
      <use x="75.195312" xlink:href="#DejaVuSans-101"/>
      <use x="136.71875" xlink:href="#DejaVuSans-97"/>
      <use x="197.998047" xlink:href="#DejaVuSans-100"/>
     </g>
    </g>
   </g>
   <g id="text_2">
    <g clip-path="url(#p2d9126159d)">
     <!-- c7 -->
     <g transform="translate(307.79265 120.597159)scale(0.1 -0.1)">
      <defs>
       <path d="M 48.78125 52.59375 
L 48.78125 44.1875 
Q 44.96875 46.296875 41.140625 47.34375 
Q 37.3125 48.390625 33.40625 48.390625 
Q 24.65625 48.390625 19.8125 42.84375 
Q 14.984375 37.3125 14.984375 27.296875 
Q 14.984375 17.28125 19.8125 11.734375 
Q 24.65625 6.203125 33.40625 6.203125 
Q 37.3125 6.203125 41.140625 7.25 
Q 44.96875 8.296875 48.78125 10.40625 
L 48.78125 2.09375 
Q 45.015625 0.34375 40.984375 -0.53125 
Q 36.96875 -1.421875 32.421875 -1.421875 
Q 20.0625 -1.421875 12.78125 6.34375 
Q 5.515625 14.109375 5.515625 27.296875 
Q 5.515625 40.671875 12.859375 48.328125 
Q 20.21875 56 33.015625 56 
Q 37.15625 56 41.109375 55.140625 
Q 45.0625 54.296875 48.78125 52.59375 
z
" id="DejaVuSans-99"/>
       <path d="M 8.203125 72.90625 
L 55.078125 72.90625 
L 55.078125 68.703125 
L 28.609375 0 
L 18.3125 0 
L 43.21875 64.59375 
L 8.203125 64.59375 
z
" id="DejaVuSans-55"/>
      </defs>
      <use xlink:href="#DejaVuSans-99"/>
      <use x="54.980469" xlink:href="#DejaVuSans-55"/>
     </g>
    </g>
   </g>
   <g id="text_3">
    <g clip-path="url(#p2d9126159d)">
     <!-- SpineShoulder -->
     <g transform="translate(271.627358 151.000699)scale(0.1 -0.1)">
      <defs>
       <path d="M 53.515625 70.515625 
L 53.515625 60.890625 
Q 47.90625 63.578125 42.921875 64.890625 
Q 37.9375 66.21875 33.296875 66.21875 
Q 25.25 66.21875 20.875 63.09375 
Q 16.5 59.96875 16.5 54.203125 
Q 16.5 49.359375 19.40625 46.890625 
Q 22.3125 44.4375 30.421875 42.921875 
L 36.375 41.703125 
Q 47.40625 39.59375 52.65625 34.296875 
Q 57.90625 29 57.90625 20.125 
Q 57.90625 9.515625 50.796875 4.046875 
Q 43.703125 -1.421875 29.984375 -1.421875 
Q 24.8125 -1.421875 18.96875 -0.25 
Q 13.140625 0.921875 6.890625 3.21875 
L 6.890625 13.375 
Q 12.890625 10.015625 18.65625 8.296875 
Q 24.421875 6.59375 29.984375 6.59375 
Q 38.421875 6.59375 43.015625 9.90625 
Q 47.609375 13.234375 47.609375 19.390625 
Q 47.609375 24.75 44.3125 27.78125 
Q 41.015625 30.8125 33.5 32.328125 
L 27.484375 33.5 
Q 16.453125 35.6875 11.515625 40.375 
Q 6.59375 45.0625 6.59375 53.421875 
Q 6.59375 63.09375 13.40625 68.65625 
Q 20.21875 74.21875 32.171875 74.21875 
Q 37.3125 74.21875 42.625 73.28125 
Q 47.953125 72.359375 53.515625 70.515625 
z
" id="DejaVuSans-83"/>
       <path d="M 18.109375 8.203125 
L 18.109375 -20.796875 
L 9.078125 -20.796875 
L 9.078125 54.6875 
L 18.109375 54.6875 
L 18.109375 46.390625 
Q 20.953125 51.265625 25.265625 53.625 
Q 29.59375 56 35.59375 56 
Q 45.5625 56 51.78125 48.09375 
Q 58.015625 40.1875 58.015625 27.296875 
Q 58.015625 14.40625 51.78125 6.484375 
Q 45.5625 -1.421875 35.59375 -1.421875 
Q 29.59375 -1.421875 25.265625 0.953125 
Q 20.953125 3.328125 18.109375 8.203125 
z
M 48.6875 27.296875 
Q 48.6875 37.203125 44.609375 42.84375 
Q 40.53125 48.484375 33.40625 48.484375 
Q 26.265625 48.484375 22.1875 42.84375 
Q 18.109375 37.203125 18.109375 27.296875 
Q 18.109375 17.390625 22.1875 11.75 
Q 26.265625 6.109375 33.40625 6.109375 
Q 40.53125 6.109375 44.609375 11.75 
Q 48.6875 17.390625 48.6875 27.296875 
z
" id="DejaVuSans-112"/>
       <path d="M 9.421875 54.6875 
L 18.40625 54.6875 
L 18.40625 0 
L 9.421875 0 
z
M 9.421875 75.984375 
L 18.40625 75.984375 
L 18.40625 64.59375 
L 9.421875 64.59375 
z
" id="DejaVuSans-105"/>
       <path d="M 54.890625 33.015625 
L 54.890625 0 
L 45.90625 0 
L 45.90625 32.71875 
Q 45.90625 40.484375 42.875 44.328125 
Q 39.84375 48.1875 33.796875 48.1875 
Q 26.515625 48.1875 22.3125 43.546875 
Q 18.109375 38.921875 18.109375 30.90625 
L 18.109375 0 
L 9.078125 0 
L 9.078125 54.6875 
L 18.109375 54.6875 
L 18.109375 46.1875 
Q 21.34375 51.125 25.703125 53.5625 
Q 30.078125 56 35.796875 56 
Q 45.21875 56 50.046875 50.171875 
Q 54.890625 44.34375 54.890625 33.015625 
z
" id="DejaVuSans-110"/>
       <path d="M 54.890625 33.015625 
L 54.890625 0 
L 45.90625 0 
L 45.90625 32.71875 
Q 45.90625 40.484375 42.875 44.328125 
Q 39.84375 48.1875 33.796875 48.1875 
Q 26.515625 48.1875 22.3125 43.546875 
Q 18.109375 38.921875 18.109375 30.90625 
L 18.109375 0 
L 9.078125 0 
L 9.078125 75.984375 
L 18.109375 75.984375 
L 18.109375 46.1875 
Q 21.34375 51.125 25.703125 53.5625 
Q 30.078125 56 35.796875 56 
Q 45.21875 56 50.046875 50.171875 
Q 54.890625 44.34375 54.890625 33.015625 
z
" id="DejaVuSans-104"/>
       <path d="M 30.609375 48.390625 
Q 23.390625 48.390625 19.1875 42.75 
Q 14.984375 37.109375 14.984375 27.296875 
Q 14.984375 17.484375 19.15625 11.84375 
Q 23.34375 6.203125 30.609375 6.203125 
Q 37.796875 6.203125 41.984375 11.859375 
Q 46.1875 17.53125 46.1875 27.296875 
Q 46.1875 37.015625 41.984375 42.703125 
Q 37.796875 48.390625 30.609375 48.390625 
z
M 30.609375 56 
Q 42.328125 56 49.015625 48.375 
Q 55.71875 40.765625 55.71875 27.296875 
Q 55.71875 13.875 49.015625 6.21875 
Q 42.328125 -1.421875 30.609375 -1.421875 
Q 18.84375 -1.421875 12.171875 6.21875 
Q 5.515625 13.875 5.515625 27.296875 
Q 5.515625 40.765625 12.171875 48.375 
Q 18.84375 56 30.609375 56 
z
" id="DejaVuSans-111"/>
       <path d="M 8.5 21.578125 
L 8.5 54.6875 
L 17.484375 54.6875 
L 17.484375 21.921875 
Q 17.484375 14.15625 20.5 10.265625 
Q 23.53125 6.390625 29.59375 6.390625 
Q 36.859375 6.390625 41.078125 11.03125 
Q 45.3125 15.671875 45.3125 23.6875 
L 45.3125 54.6875 
L 54.296875 54.6875 
L 54.296875 0 
L 45.3125 0 
L 45.3125 8.40625 
Q 42.046875 3.421875 37.71875 1 
Q 33.40625 -1.421875 27.6875 -1.421875 
Q 18.265625 -1.421875 13.375 4.4375 
Q 8.5 10.296875 8.5 21.578125 
z
M 31.109375 56 
z
" id="DejaVuSans-117"/>
       <path d="M 9.421875 75.984375 
L 18.40625 75.984375 
L 18.40625 0 
L 9.421875 0 
z
" id="DejaVuSans-108"/>
       <path d="M 41.109375 46.296875 
Q 39.59375 47.171875 37.8125 47.578125 
Q 36.03125 48 33.890625 48 
Q 26.265625 48 22.1875 43.046875 
Q 18.109375 38.09375 18.109375 28.8125 
L 18.109375 0 
L 9.078125 0 
L 9.078125 54.6875 
L 18.109375 54.6875 
L 18.109375 46.1875 
Q 20.953125 51.171875 25.484375 53.578125 
Q 30.03125 56 36.53125 56 
Q 37.453125 56 38.578125 55.875 
Q 39.703125 55.765625 41.0625 55.515625 
z
" id="DejaVuSans-114"/>
      </defs>
      <use xlink:href="#DejaVuSans-83"/>
      <use x="63.476562" xlink:href="#DejaVuSans-112"/>
      <use x="126.953125" xlink:href="#DejaVuSans-105"/>
      <use x="154.736328" xlink:href="#DejaVuSans-110"/>
      <use x="218.115234" xlink:href="#DejaVuSans-101"/>
      <use x="279.638672" xlink:href="#DejaVuSans-83"/>
      <use x="343.115234" xlink:href="#DejaVuSans-104"/>
      <use x="406.494141" xlink:href="#DejaVuSans-111"/>
      <use x="467.675781" xlink:href="#DejaVuSans-117"/>
      <use x="531.054688" xlink:href="#DejaVuSans-108"/>
      <use x="558.837891" xlink:href="#DejaVuSans-100"/>
      <use x="622.314453" xlink:href="#DejaVuSans-101"/>
      <use x="683.837891" xlink:href="#DejaVuSans-114"/>
     </g>
    </g>
   </g>
   <g id="text_4">
    <g clip-path="url(#p2d9126159d)">
     <!-- Spine -->
     <g transform="translate(275.864842 245.007931)scale(0.1 -0.1)">
      <use xlink:href="#DejaVuSans-83"/>
      <use x="63.476562" xlink:href="#DejaVuSans-112"/>
      <use x="126.953125" xlink:href="#DejaVuSans-105"/>
      <use x="154.736328" xlink:href="#DejaVuSans-110"/>
      <use x="218.115234" xlink:href="#DejaVuSans-101"/>
     </g>
    </g>
   </g>
   <g id="text_5">
    <g clip-path="url(#p2d9126159d)">
     <!-- Sacr -->
     <g transform="translate(254.477868 374.328632)scale(0.1 -0.1)">
      <use xlink:href="#DejaVuSans-83"/>
      <use x="63.476562" xlink:href="#DejaVuSans-97"/>
      <use x="124.755859" xlink:href="#DejaVuSans-99"/>
      <use x="179.736328" xlink:href="#DejaVuSans-114"/>
     </g>
    </g>
   </g>
   <g id="text_6">
    <g clip-path="url(#p2d9126159d)">
     <!-- LShoulder -->
     <g transform="translate(95.122967 142.49797)scale(0.1 -0.1)">
      <defs>
       <path d="M 9.8125 72.90625 
L 19.671875 72.90625 
L 19.671875 8.296875 
L 55.171875 8.296875 
L 55.171875 0 
L 9.8125 0 
z
" id="DejaVuSans-76"/>
      </defs>
      <use xlink:href="#DejaVuSans-76"/>
      <use x="55.712891" xlink:href="#DejaVuSans-83"/>
      <use x="119.189453" xlink:href="#DejaVuSans-104"/>
      <use x="182.568359" xlink:href="#DejaVuSans-111"/>
      <use x="243.75" xlink:href="#DejaVuSans-117"/>
      <use x="307.128906" xlink:href="#DejaVuSans-108"/>
      <use x="334.912109" xlink:href="#DejaVuSans-100"/>
      <use x="398.388672" xlink:href="#DejaVuSans-101"/>
      <use x="459.912109" xlink:href="#DejaVuSans-114"/>
     </g>
    </g>
   </g>
   <g id="text_7">
    <g clip-path="url(#p2d9126159d)">
     <!-- LElbow -->
     <g transform="translate(32.32644 236.997817)scale(0.1 -0.1)">
      <defs>
       <path d="M 9.8125 72.90625 
L 55.90625 72.90625 
L 55.90625 64.59375 
L 19.671875 64.59375 
L 19.671875 43.015625 
L 54.390625 43.015625 
L 54.390625 34.71875 
L 19.671875 34.71875 
L 19.671875 8.296875 
L 56.78125 8.296875 
L 56.78125 0 
L 9.8125 0 
z
" id="DejaVuSans-69"/>
       <path d="M 48.6875 27.296875 
Q 48.6875 37.203125 44.609375 42.84375 
Q 40.53125 48.484375 33.40625 48.484375 
Q 26.265625 48.484375 22.1875 42.84375 
Q 18.109375 37.203125 18.109375 27.296875 
Q 18.109375 17.390625 22.1875 11.75 
Q 26.265625 6.109375 33.40625 6.109375 
Q 40.53125 6.109375 44.609375 11.75 
Q 48.6875 17.390625 48.6875 27.296875 
z
M 18.109375 46.390625 
Q 20.953125 51.265625 25.265625 53.625 
Q 29.59375 56 35.59375 56 
Q 45.5625 56 51.78125 48.09375 
Q 58.015625 40.1875 58.015625 27.296875 
Q 58.015625 14.40625 51.78125 6.484375 
Q 45.5625 -1.421875 35.59375 -1.421875 
Q 29.59375 -1.421875 25.265625 0.953125 
Q 20.953125 3.328125 18.109375 8.203125 
L 18.109375 0 
L 9.078125 0 
L 9.078125 75.984375 
L 18.109375 75.984375 
z
" id="DejaVuSans-98"/>
       <path d="M 4.203125 54.6875 
L 13.1875 54.6875 
L 24.421875 12.015625 
L 35.59375 54.6875 
L 46.1875 54.6875 
L 57.421875 12.015625 
L 68.609375 54.6875 
L 77.59375 54.6875 
L 63.28125 0 
L 52.6875 0 
L 40.921875 44.828125 
L 29.109375 0 
L 18.5 0 
z
" id="DejaVuSans-119"/>
      </defs>
      <use xlink:href="#DejaVuSans-76"/>
      <use x="55.712891" xlink:href="#DejaVuSans-69"/>
      <use x="118.896484" xlink:href="#DejaVuSans-108"/>
      <use x="146.679688" xlink:href="#DejaVuSans-98"/>
      <use x="210.15625" xlink:href="#DejaVuSans-111"/>
      <use x="271.337891" xlink:href="#DejaVuSans-119"/>
     </g>
    </g>
   </g>
   <g id="text_8">
    <g clip-path="url(#p2d9126159d)">
     <!-- LWrist -->
     <g transform="translate(229.331816 298.318037)scale(0.1 -0.1)">
      <defs>
       <path d="M 3.328125 72.90625 
L 13.28125 72.90625 
L 28.609375 11.28125 
L 43.890625 72.90625 
L 54.984375 72.90625 
L 70.3125 11.28125 
L 85.59375 72.90625 
L 95.609375 72.90625 
L 77.296875 0 
L 64.890625 0 
L 49.515625 63.28125 
L 33.984375 0 
L 21.578125 0 
z
" id="DejaVuSans-87"/>
       <path d="M 44.28125 53.078125 
L 44.28125 44.578125 
Q 40.484375 46.53125 36.375 47.5 
Q 32.28125 48.484375 27.875 48.484375 
Q 21.1875 48.484375 17.84375 46.4375 
Q 14.5 44.390625 14.5 40.28125 
Q 14.5 37.15625 16.890625 35.375 
Q 19.28125 33.59375 26.515625 31.984375 
L 29.59375 31.296875 
Q 39.15625 29.25 43.1875 25.515625 
Q 47.21875 21.78125 47.21875 15.09375 
Q 47.21875 7.46875 41.1875 3.015625 
Q 35.15625 -1.421875 24.609375 -1.421875 
Q 20.21875 -1.421875 15.453125 -0.5625 
Q 10.6875 0.296875 5.421875 2 
L 5.421875 11.28125 
Q 10.40625 8.6875 15.234375 7.390625 
Q 20.0625 6.109375 24.8125 6.109375 
Q 31.15625 6.109375 34.5625 8.28125 
Q 37.984375 10.453125 37.984375 14.40625 
Q 37.984375 18.0625 35.515625 20.015625 
Q 33.0625 21.96875 24.703125 23.78125 
L 21.578125 24.515625 
Q 13.234375 26.265625 9.515625 29.90625 
Q 5.8125 33.546875 5.8125 39.890625 
Q 5.8125 47.609375 11.28125 51.796875 
Q 16.75 56 26.8125 56 
Q 31.78125 56 36.171875 55.265625 
Q 40.578125 54.546875 44.28125 53.078125 
z
" id="DejaVuSans-115"/>
       <path d="M 18.3125 70.21875 
L 18.3125 54.6875 
L 36.8125 54.6875 
L 36.8125 47.703125 
L 18.3125 47.703125 
L 18.3125 18.015625 
Q 18.3125 11.328125 20.140625 9.421875 
Q 21.96875 7.515625 27.59375 7.515625 
L 36.8125 7.515625 
L 36.8125 0 
L 27.59375 0 
Q 17.1875 0 13.234375 3.875 
Q 9.28125 7.765625 9.28125 18.015625 
L 9.28125 47.703125 
L 2.6875 47.703125 
L 2.6875 54.6875 
L 9.28125 54.6875 
L 9.28125 70.21875 
z
" id="DejaVuSans-116"/>
      </defs>
      <use xlink:href="#DejaVuSans-76"/>
      <use x="46.587891" xlink:href="#DejaVuSans-87"/>
      <use x="140.964844" xlink:href="#DejaVuSans-114"/>
      <use x="182.078125" xlink:href="#DejaVuSans-105"/>
      <use x="209.861328" xlink:href="#DejaVuSans-115"/>
      <use x="261.960938" xlink:href="#DejaVuSans-116"/>
     </g>
    </g>
   </g>
   <g id="text_9">
    <g clip-path="url(#p2d9126159d)">
     <!-- LHand -->
     <g transform="translate(292.152028 313.727629)scale(0.1 -0.1)">
      <use xlink:href="#DejaVuSans-76"/>
      <use x="55.712891" xlink:href="#DejaVuSans-72"/>
      <use x="130.908203" xlink:href="#DejaVuSans-97"/>
      <use x="192.1875" xlink:href="#DejaVuSans-110"/>
      <use x="255.566406" xlink:href="#DejaVuSans-100"/>
     </g>
    </g>
   </g>
   <g id="text_10">
    <g clip-path="url(#p2d9126159d)">
     <!-- RShoulder -->
     <g transform="translate(484.513693 163.213429)scale(0.1 -0.1)">
      <defs>
       <path d="M 44.390625 34.1875 
Q 47.5625 33.109375 50.5625 29.59375 
Q 53.5625 26.078125 56.59375 19.921875 
L 66.609375 0 
L 56 0 
L 46.6875 18.703125 
Q 43.0625 26.03125 39.671875 28.421875 
Q 36.28125 30.8125 30.421875 30.8125 
L 19.671875 30.8125 
L 19.671875 0 
L 9.8125 0 
L 9.8125 72.90625 
L 32.078125 72.90625 
Q 44.578125 72.90625 50.734375 67.671875 
Q 56.890625 62.453125 56.890625 51.90625 
Q 56.890625 45.015625 53.6875 40.46875 
Q 50.484375 35.9375 44.390625 34.1875 
z
M 19.671875 64.796875 
L 19.671875 38.921875 
L 32.078125 38.921875 
Q 39.203125 38.921875 42.84375 42.21875 
Q 46.484375 45.515625 46.484375 51.90625 
Q 46.484375 58.296875 42.84375 61.546875 
Q 39.203125 64.796875 32.078125 64.796875 
z
" id="DejaVuSans-82"/>
      </defs>
      <use xlink:href="#DejaVuSans-82"/>
      <use x="69.482422" xlink:href="#DejaVuSans-83"/>
      <use x="132.958984" xlink:href="#DejaVuSans-104"/>
      <use x="196.337891" xlink:href="#DejaVuSans-111"/>
      <use x="257.519531" xlink:href="#DejaVuSans-117"/>
      <use x="320.898438" xlink:href="#DejaVuSans-108"/>
      <use x="348.681641" xlink:href="#DejaVuSans-100"/>
      <use x="412.158203" xlink:href="#DejaVuSans-101"/>
      <use x="473.681641" xlink:href="#DejaVuSans-114"/>
     </g>
    </g>
   </g>
   <g id="text_11">
    <g clip-path="url(#p2d9126159d)">
     <!-- RElbow -->
     <g transform="translate(507.671216 279.578167)scale(0.1 -0.1)">
      <use xlink:href="#DejaVuSans-82"/>
      <use x="69.482422" xlink:href="#DejaVuSans-69"/>
      <use x="132.666016" xlink:href="#DejaVuSans-108"/>
      <use x="160.449219" xlink:href="#DejaVuSans-98"/>
      <use x="223.925781" xlink:href="#DejaVuSans-111"/>
      <use x="285.107422" xlink:href="#DejaVuSans-119"/>
     </g>
    </g>
   </g>
   <g id="text_12">
    <g clip-path="url(#p2d9126159d)">
     <!-- RWrist -->
     <g transform="translate(335.983423 314.394711)scale(0.1 -0.1)">
      <use xlink:href="#DejaVuSans-82"/>
      <use x="65.482422" xlink:href="#DejaVuSans-87"/>
      <use x="159.859375" xlink:href="#DejaVuSans-114"/>
      <use x="200.972656" xlink:href="#DejaVuSans-105"/>
      <use x="228.755859" xlink:href="#DejaVuSans-115"/>
      <use x="280.855469" xlink:href="#DejaVuSans-116"/>
     </g>
    </g>
   </g>
   <g id="text_13">
    <g clip-path="url(#p2d9126159d)">
     <!-- RHand -->
     <g transform="translate(314.066566 317.335002)scale(0.1 -0.1)">
      <use xlink:href="#DejaVuSans-82"/>
      <use x="69.482422" xlink:href="#DejaVuSans-72"/>
      <use x="144.677734" xlink:href="#DejaVuSans-97"/>
      <use x="205.957031" xlink:href="#DejaVuSans-110"/>
      <use x="269.335938" xlink:href="#DejaVuSans-100"/>
     </g>
    </g>
   </g>
   <g id="text_14">
    <g clip-path="url(#p2d9126159d)">
     <!-- LHip -->
     <g transform="translate(166.170617 371.192834)scale(0.1 -0.1)">
      <use xlink:href="#DejaVuSans-76"/>
      <use x="55.712891" xlink:href="#DejaVuSans-72"/>
      <use x="130.908203" xlink:href="#DejaVuSans-105"/>
      <use x="158.691406" xlink:href="#DejaVuSans-112"/>
     </g>
    </g>
   </g>
   <g id="text_15">
    <g clip-path="url(#p2d9126159d)">
     <!-- LKnee -->
     <g transform="translate(108.324375 522.159931)scale(0.1 -0.1)">
      <defs>
       <path d="M 9.8125 72.90625 
L 19.671875 72.90625 
L 19.671875 42.09375 
L 52.390625 72.90625 
L 65.09375 72.90625 
L 28.90625 38.921875 
L 67.671875 0 
L 54.6875 0 
L 19.671875 35.109375 
L 19.671875 0 
L 9.8125 0 
z
" id="DejaVuSans-75"/>
      </defs>
      <use xlink:href="#DejaVuSans-76"/>
      <use x="55.712891" xlink:href="#DejaVuSans-75"/>
      <use x="121.289062" xlink:href="#DejaVuSans-110"/>
      <use x="184.667969" xlink:href="#DejaVuSans-101"/>
      <use x="246.191406" xlink:href="#DejaVuSans-101"/>
     </g>
    </g>
   </g>
   <g id="text_16">
    <g clip-path="url(#p2d9126159d)">
     <!-- LAnkle -->
     <g transform="translate(120.410539 657.772548)scale(0.1 -0.1)">
      <defs>
       <path d="M 34.1875 63.1875 
L 20.796875 26.90625 
L 47.609375 26.90625 
z
M 28.609375 72.90625 
L 39.796875 72.90625 
L 67.578125 0 
L 57.328125 0 
L 50.6875 18.703125 
L 17.828125 18.703125 
L 11.1875 0 
L 0.78125 0 
z
" id="DejaVuSans-65"/>
       <path d="M 9.078125 75.984375 
L 18.109375 75.984375 
L 18.109375 31.109375 
L 44.921875 54.6875 
L 56.390625 54.6875 
L 27.390625 29.109375 
L 57.625 0 
L 45.90625 0 
L 18.109375 26.703125 
L 18.109375 0 
L 9.078125 0 
z
" id="DejaVuSans-107"/>
      </defs>
      <use xlink:href="#DejaVuSans-76"/>
      <use x="57.962891" xlink:href="#DejaVuSans-65"/>
      <use x="126.371094" xlink:href="#DejaVuSans-110"/>
      <use x="189.75" xlink:href="#DejaVuSans-107"/>
      <use x="247.660156" xlink:href="#DejaVuSans-108"/>
      <use x="275.443359" xlink:href="#DejaVuSans-101"/>
     </g>
    </g>
   </g>
   <g id="text_17">
    <g clip-path="url(#p2d9126159d)">
     <!-- LFoot -->
     <g transform="translate(110.616014 696.319618)scale(0.1 -0.1)">
      <defs>
       <path d="M 9.8125 72.90625 
L 51.703125 72.90625 
L 51.703125 64.59375 
L 19.671875 64.59375 
L 19.671875 43.109375 
L 48.578125 43.109375 
L 48.578125 34.8125 
L 19.671875 34.8125 
L 19.671875 0 
L 9.8125 0 
z
" id="DejaVuSans-70"/>
      </defs>
      <use xlink:href="#DejaVuSans-76"/>
      <use x="55.712891" xlink:href="#DejaVuSans-70"/>
      <use x="109.607422" xlink:href="#DejaVuSans-111"/>
      <use x="170.789062" xlink:href="#DejaVuSans-111"/>
      <use x="231.970703" xlink:href="#DejaVuSans-116"/>
     </g>
    </g>
   </g>
   <g id="text_18">
    <g clip-path="url(#p2d9126159d)">
     <!-- RHip -->
     <g transform="translate(341.445278 378.995229)scale(0.1 -0.1)">
      <use xlink:href="#DejaVuSans-82"/>
      <use x="69.482422" xlink:href="#DejaVuSans-72"/>
      <use x="144.677734" xlink:href="#DejaVuSans-105"/>
      <use x="172.460938" xlink:href="#DejaVuSans-112"/>
     </g>
    </g>
   </g>
   <g id="text_19">
    <g clip-path="url(#p2d9126159d)">
     <!-- RKnee -->
     <g transform="translate(326.385582 552.137565)scale(0.1 -0.1)">
      <use xlink:href="#DejaVuSans-82"/>
      <use x="69.482422" xlink:href="#DejaVuSans-75"/>
      <use x="135.058594" xlink:href="#DejaVuSans-110"/>
      <use x="198.4375" xlink:href="#DejaVuSans-101"/>
      <use x="259.960938" xlink:href="#DejaVuSans-101"/>
     </g>
    </g>
   </g>
   <g id="text_20">
    <g clip-path="url(#p2d9126159d)">
     <!-- RAnkle -->
     <g transform="translate(246.285782 758.85598)scale(0.1 -0.1)">
      <use xlink:href="#DejaVuSans-82"/>
      <use x="65.482422" xlink:href="#DejaVuSans-65"/>
      <use x="133.890625" xlink:href="#DejaVuSans-110"/>
      <use x="197.269531" xlink:href="#DejaVuSans-107"/>
      <use x="255.179688" xlink:href="#DejaVuSans-108"/>
      <use x="282.962891" xlink:href="#DejaVuSans-101"/>
     </g>
    </g>
   </g>
   <g id="text_21">
    <g clip-path="url(#p2d9126159d)">
     <!-- RFoot -->
     <g transform="translate(272.478509 791.784168)scale(0.1 -0.1)">
      <use xlink:href="#DejaVuSans-82"/>
      <use x="69.482422" xlink:href="#DejaVuSans-70"/>
      <use x="123.376953" xlink:href="#DejaVuSans-111"/>
      <use x="184.558594" xlink:href="#DejaVuSans-111"/>
      <use x="245.740234" xlink:href="#DejaVuSans-116"/>
     </g>
    </g>
   </g>
   <g id="text_22">
    <g clip-path="url(#p2d9126159d)">
     <!-- LHandTip -->
     <g transform="translate(310.721358 323.97452)scale(0.1 -0.1)">
      <defs>
       <path d="M -0.296875 72.90625 
L 61.375 72.90625 
L 61.375 64.59375 
L 35.5 64.59375 
L 35.5 0 
L 25.59375 0 
L 25.59375 64.59375 
L -0.296875 64.59375 
z
" id="DejaVuSans-84"/>
      </defs>
      <use xlink:href="#DejaVuSans-76"/>
      <use x="55.712891" xlink:href="#DejaVuSans-72"/>
      <use x="130.908203" xlink:href="#DejaVuSans-97"/>
      <use x="192.1875" xlink:href="#DejaVuSans-110"/>
      <use x="255.566406" xlink:href="#DejaVuSans-100"/>
      <use x="319.042969" xlink:href="#DejaVuSans-84"/>
      <use x="377.001953" xlink:href="#DejaVuSans-105"/>
      <use x="404.785156" xlink:href="#DejaVuSans-112"/>
     </g>
    </g>
   </g>
   <g id="text_23">
    <g clip-path="url(#p2d9126159d)">
     <!-- LThumb -->
     <g transform="translate(343.53256 305.512259)scale(0.1 -0.1)">
      <defs>
       <path d="M 52 44.1875 
Q 55.375 50.25 60.0625 53.125 
Q 64.75 56 71.09375 56 
Q 79.640625 56 84.28125 50.015625 
Q 88.921875 44.046875 88.921875 33.015625 
L 88.921875 0 
L 79.890625 0 
L 79.890625 32.71875 
Q 79.890625 40.578125 77.09375 44.375 
Q 74.3125 48.1875 68.609375 48.1875 
Q 61.625 48.1875 57.5625 43.546875 
Q 53.515625 38.921875 53.515625 30.90625 
L 53.515625 0 
L 44.484375 0 
L 44.484375 32.71875 
Q 44.484375 40.625 41.703125 44.40625 
Q 38.921875 48.1875 33.109375 48.1875 
Q 26.21875 48.1875 22.15625 43.53125 
Q 18.109375 38.875 18.109375 30.90625 
L 18.109375 0 
L 9.078125 0 
L 9.078125 54.6875 
L 18.109375 54.6875 
L 18.109375 46.1875 
Q 21.1875 51.21875 25.484375 53.609375 
Q 29.78125 56 35.6875 56 
Q 41.65625 56 45.828125 52.96875 
Q 50 49.953125 52 44.1875 
z
" id="DejaVuSans-109"/>
      </defs>
      <use xlink:href="#DejaVuSans-76"/>
      <use x="41.962891" xlink:href="#DejaVuSans-84"/>
      <use x="103.046875" xlink:href="#DejaVuSans-104"/>
      <use x="166.425781" xlink:href="#DejaVuSans-117"/>
      <use x="229.804688" xlink:href="#DejaVuSans-109"/>
      <use x="327.216797" xlink:href="#DejaVuSans-98"/>
     </g>
    </g>
   </g>
   <g id="text_24">
    <g clip-path="url(#p2d9126159d)">
     <!-- RHandTip -->
     <g transform="translate(269.283475 329.599046)scale(0.1 -0.1)">
      <use xlink:href="#DejaVuSans-82"/>
      <use x="69.482422" xlink:href="#DejaVuSans-72"/>
      <use x="144.677734" xlink:href="#DejaVuSans-97"/>
      <use x="205.957031" xlink:href="#DejaVuSans-110"/>
      <use x="269.335938" xlink:href="#DejaVuSans-100"/>
      <use x="332.8125" xlink:href="#DejaVuSans-84"/>
      <use x="390.771484" xlink:href="#DejaVuSans-105"/>
      <use x="418.554688" xlink:href="#DejaVuSans-112"/>
     </g>
    </g>
   </g>
   <g id="text_25">
    <g clip-path="url(#p2d9126159d)">
     <!-- RThumb -->
     <g transform="translate(269.914296 306.06645)scale(0.1 -0.1)">
      <use xlink:href="#DejaVuSans-82"/>
      <use x="62.232422" xlink:href="#DejaVuSans-84"/>
      <use x="123.316406" xlink:href="#DejaVuSans-104"/>
      <use x="186.695312" xlink:href="#DejaVuSans-117"/>
      <use x="250.074219" xlink:href="#DejaVuSans-109"/>
      <use x="347.486328" xlink:href="#DejaVuSans-98"/>
     </g>
    </g>
   </g>
   <g id="text_26">
    <!-- Node Graph Visualization - Frame 246 -->
    <g transform="translate(174.194063 -6)scale(0.12 -0.12)">
     <defs>
      <path d="M 9.8125 72.90625 
L 23.09375 72.90625 
L 55.421875 11.921875 
L 55.421875 72.90625 
L 64.984375 72.90625 
L 64.984375 0 
L 51.703125 0 
L 19.390625 60.984375 
L 19.390625 0 
L 9.8125 0 
z
" id="DejaVuSans-78"/>
      <path id="DejaVuSans-32"/>
      <path d="M 59.515625 10.40625 
L 59.515625 29.984375 
L 43.40625 29.984375 
L 43.40625 38.09375 
L 69.28125 38.09375 
L 69.28125 6.78125 
Q 63.578125 2.734375 56.6875 0.65625 
Q 49.8125 -1.421875 42 -1.421875 
Q 24.90625 -1.421875 15.25 8.5625 
Q 5.609375 18.5625 5.609375 36.375 
Q 5.609375 54.25 15.25 64.234375 
Q 24.90625 74.21875 42 74.21875 
Q 49.125 74.21875 55.546875 72.453125 
Q 61.96875 70.703125 67.390625 67.28125 
L 67.390625 56.78125 
Q 61.921875 61.421875 55.765625 63.765625 
Q 49.609375 66.109375 42.828125 66.109375 
Q 29.4375 66.109375 22.71875 58.640625 
Q 16.015625 51.171875 16.015625 36.375 
Q 16.015625 21.625 22.71875 14.15625 
Q 29.4375 6.6875 42.828125 6.6875 
Q 48.046875 6.6875 52.140625 7.59375 
Q 56.25 8.5 59.515625 10.40625 
z
" id="DejaVuSans-71"/>
      <path d="M 28.609375 0 
L 0.78125 72.90625 
L 11.078125 72.90625 
L 34.1875 11.53125 
L 57.328125 72.90625 
L 67.578125 72.90625 
L 39.796875 0 
z
" id="DejaVuSans-86"/>
      <path d="M 5.515625 54.6875 
L 48.1875 54.6875 
L 48.1875 46.484375 
L 14.40625 7.171875 
L 48.1875 7.171875 
L 48.1875 0 
L 4.296875 0 
L 4.296875 8.203125 
L 38.09375 47.515625 
L 5.515625 47.515625 
z
" id="DejaVuSans-122"/>
      <path d="M 4.890625 31.390625 
L 31.203125 31.390625 
L 31.203125 23.390625 
L 4.890625 23.390625 
z
" id="DejaVuSans-45"/>
      <path d="M 19.1875 8.296875 
L 53.609375 8.296875 
L 53.609375 0 
L 7.328125 0 
L 7.328125 8.296875 
Q 12.9375 14.109375 22.625 23.890625 
Q 32.328125 33.6875 34.8125 36.53125 
Q 39.546875 41.84375 41.421875 45.53125 
Q 43.3125 49.21875 43.3125 52.78125 
Q 43.3125 58.59375 39.234375 62.25 
Q 35.15625 65.921875 28.609375 65.921875 
Q 23.96875 65.921875 18.8125 64.3125 
Q 13.671875 62.703125 7.8125 59.421875 
L 7.8125 69.390625 
Q 13.765625 71.78125 18.9375 73 
Q 24.125 74.21875 28.421875 74.21875 
Q 39.75 74.21875 46.484375 68.546875 
Q 53.21875 62.890625 53.21875 53.421875 
Q 53.21875 48.921875 51.53125 44.890625 
Q 49.859375 40.875 45.40625 35.40625 
Q 44.1875 33.984375 37.640625 27.21875 
Q 31.109375 20.453125 19.1875 8.296875 
z
" id="DejaVuSans-50"/>
      <path d="M 37.796875 64.3125 
L 12.890625 25.390625 
L 37.796875 25.390625 
z
M 35.203125 72.90625 
L 47.609375 72.90625 
L 47.609375 25.390625 
L 58.015625 25.390625 
L 58.015625 17.1875 
L 47.609375 17.1875 
L 47.609375 0 
L 37.796875 0 
L 37.796875 17.1875 
L 4.890625 17.1875 
L 4.890625 26.703125 
z
" id="DejaVuSans-52"/>
      <path d="M 33.015625 40.375 
Q 26.375 40.375 22.484375 35.828125 
Q 18.609375 31.296875 18.609375 23.390625 
Q 18.609375 15.53125 22.484375 10.953125 
Q 26.375 6.390625 33.015625 6.390625 
Q 39.65625 6.390625 43.53125 10.953125 
Q 47.40625 15.53125 47.40625 23.390625 
Q 47.40625 31.296875 43.53125 35.828125 
Q 39.65625 40.375 33.015625 40.375 
z
M 52.59375 71.296875 
L 52.59375 62.3125 
Q 48.875 64.0625 45.09375 64.984375 
Q 41.3125 65.921875 37.59375 65.921875 
Q 27.828125 65.921875 22.671875 59.328125 
Q 17.53125 52.734375 16.796875 39.40625 
Q 19.671875 43.65625 24.015625 45.921875 
Q 28.375 48.1875 33.59375 48.1875 
Q 44.578125 48.1875 50.953125 41.515625 
Q 57.328125 34.859375 57.328125 23.390625 
Q 57.328125 12.15625 50.6875 5.359375 
Q 44.046875 -1.421875 33.015625 -1.421875 
Q 20.359375 -1.421875 13.671875 8.265625 
Q 6.984375 17.96875 6.984375 36.375 
Q 6.984375 53.65625 15.1875 63.9375 
Q 23.390625 74.21875 37.203125 74.21875 
Q 40.921875 74.21875 44.703125 73.484375 
Q 48.484375 72.75 52.59375 71.296875 
z
" id="DejaVuSans-54"/>
     </defs>
     <use xlink:href="#DejaVuSans-78"/>
     <use x="74.804688" xlink:href="#DejaVuSans-111"/>
     <use x="135.986328" xlink:href="#DejaVuSans-100"/>
     <use x="199.462891" xlink:href="#DejaVuSans-101"/>
     <use x="260.986328" xlink:href="#DejaVuSans-32"/>
     <use x="292.773438" xlink:href="#DejaVuSans-71"/>
     <use x="370.263672" xlink:href="#DejaVuSans-114"/>
     <use x="411.376953" xlink:href="#DejaVuSans-97"/>
     <use x="472.65625" xlink:href="#DejaVuSans-112"/>
     <use x="536.132812" xlink:href="#DejaVuSans-104"/>
     <use x="599.511719" xlink:href="#DejaVuSans-32"/>
     <use x="631.298828" xlink:href="#DejaVuSans-86"/>
     <use x="697.457031" xlink:href="#DejaVuSans-105"/>
     <use x="725.240234" xlink:href="#DejaVuSans-115"/>
     <use x="777.339844" xlink:href="#DejaVuSans-117"/>
     <use x="840.71875" xlink:href="#DejaVuSans-97"/>
     <use x="901.998047" xlink:href="#DejaVuSans-108"/>
     <use x="929.78125" xlink:href="#DejaVuSans-105"/>
     <use x="957.564453" xlink:href="#DejaVuSans-122"/>
     <use x="1010.054688" xlink:href="#DejaVuSans-97"/>
     <use x="1071.333984" xlink:href="#DejaVuSans-116"/>
     <use x="1110.542969" xlink:href="#DejaVuSans-105"/>
     <use x="1138.326172" xlink:href="#DejaVuSans-111"/>
     <use x="1199.507812" xlink:href="#DejaVuSans-110"/>
     <use x="1262.886719" xlink:href="#DejaVuSans-32"/>
     <use x="1294.673828" xlink:href="#DejaVuSans-45"/>
     <use x="1330.757812" xlink:href="#DejaVuSans-32"/>
     <use x="1362.544922" xlink:href="#DejaVuSans-70"/>
     <use x="1412.814453" xlink:href="#DejaVuSans-114"/>
     <use x="1453.927734" xlink:href="#DejaVuSans-97"/>
     <use x="1515.207031" xlink:href="#DejaVuSans-109"/>
     <use x="1612.619141" xlink:href="#DejaVuSans-101"/>
     <use x="1674.142578" xlink:href="#DejaVuSans-32"/>
     <use x="1705.929688" xlink:href="#DejaVuSans-50"/>
     <use x="1769.552734" xlink:href="#DejaVuSans-52"/>
     <use x="1833.175781" xlink:href="#DejaVuSans-54"/>
    </g>
   </g>
  </g>
 </g>
 <defs>
  <clipPath id="p2d9126159d">
   <rect height="864" width="576" x="0" y="0"/>
  </clipPath>
 </defs>
</svg>
