<?xml version="1.0" encoding="utf-8" standalone="no"?>
<!DOCTYPE svg PUBLIC "-//W3C//DTD SVG 1.1//EN"
  "http://www.w3.org/Graphics/SVG/1.1/DTD/svg11.dtd">
<!-- Created with matplotlib (https://matplotlib.org/) -->
<svg height="864pt" version="1.1" viewBox="0 0 576 864" width="576pt" xmlns="http://www.w3.org/2000/svg" xmlns:xlink="http://www.w3.org/1999/xlink">
 <metadata>
  <rdf:RDF xmlns:cc="http://creativecommons.org/ns#" xmlns:dc="http://purl.org/dc/elements/1.1/" xmlns:rdf="http://www.w3.org/1999/02/22-rdf-syntax-ns#">
   <cc:Work>
    <dc:type rdf:resource="http://purl.org/dc/dcmitype/StillImage"/>
    <dc:date>2024-02-04T22:28:19.607824</dc:date>
    <dc:format>image/svg+xml</dc:format>
    <dc:creator>
     <cc:Agent>
      <dc:title>Matplotlib v3.3.2, https://matplotlib.org/</dc:title>
     </cc:Agent>
    </dc:creator>
   </cc:Work>
  </rdf:RDF>
 </metadata>
 <defs>
  <style type="text/css">*{stroke-linecap:butt;stroke-linejoin:round;}</style>
 </defs>
 <g id="figure_1">
  <g id="patch_1">
   <path d="M 0 864 
L 576 864 
L 576 0 
L 0 0 
z
" style="fill:#ffffff;"/>
  </g>
  <g id="axes_1">
   <g id="patch_2">
    <path clip-path="url(#p79fb8a6bcd)" d="M 358.901409 85.266961 
Q 347.771868 99.056229 337.344526 111.975487 
" style="fill:none;stroke:#000000;stroke-linecap:round;"/>
    <path clip-path="url(#p79fb8a6bcd)" d="M 341.413109 110.118978 
L 337.344526 111.975487 
L 338.300468 107.606715 
L 341.413109 110.118978 
z
" style="stroke:#000000;stroke-linecap:round;"/>
   </g>
   <g id="patch_3">
    <path clip-path="url(#p79fb8a6bcd)" d="M 327.465624 136.336502 
Q 327.245976 139.672547 327.099781 141.892975 
" style="fill:none;stroke:#000000;stroke-linecap:round;"/>
    <path clip-path="url(#p79fb8a6bcd)" d="M 329.358254 138.033014 
L 327.099781 141.892975 
L 325.366896 137.770219 
L 329.358254 138.033014 
z
" style="stroke:#000000;stroke-linecap:round;"/>
   </g>
   <g id="patch_4">
    <path clip-path="url(#p79fb8a6bcd)" d="M 336.641224 112.846863 
Q 347.770765 99.057595 358.198108 86.138337 
" style="fill:none;stroke:#000000;stroke-linecap:round;"/>
    <path clip-path="url(#p79fb8a6bcd)" d="M 354.129524 87.994846 
L 358.198108 86.138337 
L 357.242165 90.507109 
L 354.129524 87.994846 
z
" style="stroke:#000000;stroke-linecap:round;"/>
   </g>
   <g id="patch_5">
    <path clip-path="url(#p79fb8a6bcd)" d="M 324.83204 169.376186 
Q 321.064568 206.807871 317.409058 243.127142 
" style="fill:none;stroke:#000000;stroke-linecap:round;"/>
    <path clip-path="url(#p79fb8a6bcd)" d="M 319.799578 239.347537 
L 317.409058 243.127142 
L 315.819686 238.946964 
L 319.799578 239.347537 
z
" style="stroke:#000000;stroke-linecap:round;"/>
   </g>
   <g id="patch_6">
    <path clip-path="url(#p79fb8a6bcd)" d="M 312.926434 156.138317 
Q 242.605948 155.7464 173.403479 155.360713 
" style="fill:none;stroke:#000000;stroke-linecap:round;"/>
    <path clip-path="url(#p79fb8a6bcd)" d="M 177.392271 157.382975 
L 173.403479 155.360713 
L 177.414563 153.383037 
L 177.392271 157.382975 
z
" style="stroke:#000000;stroke-linecap:round;"/>
   </g>
   <g id="patch_7">
    <path clip-path="url(#p79fb8a6bcd)" d="M 339.251545 158.097758 
Q 419.497605 169.653735 498.637046 181.050351 
" style="fill:none;stroke:#000000;stroke-linecap:round;"/>
    <path clip-path="url(#p79fb8a6bcd)" d="M 494.962961 178.500626 
L 498.637046 181.050351 
L 494.392815 182.459784 
L 494.962961 178.500626 
z
" style="stroke:#000000;stroke-linecap:round;"/>
   </g>
   <g id="patch_8">
    <path clip-path="url(#p79fb8a6bcd)" d="M 327.02596 143.014171 
Q 327.245608 139.678125 327.391803 137.457698 
" style="fill:none;stroke:#000000;stroke-linecap:round;"/>
    <path clip-path="url(#p79fb8a6bcd)" d="M 325.13333 141.317659 
L 327.391803 137.457698 
L 329.124688 141.580453 
L 325.13333 141.317659 
z
" style="stroke:#000000;stroke-linecap:round;"/>
   </g>
   <g id="patch_9">
    <path clip-path="url(#p79fb8a6bcd)" d="M 314.297221 270.520512 
Q 307.200144 326.103896 300.244672 380.57825 
" style="fill:none;stroke:#000000;stroke-linecap:round;"/>
    <path clip-path="url(#p79fb8a6bcd)" d="M 302.735186 376.863773 
L 300.244672 380.57825 
L 298.767399 376.357153 
L 302.735186 376.863773 
z
" style="stroke:#000000;stroke-linecap:round;"/>
   </g>
   <g id="patch_10">
    <path clip-path="url(#p79fb8a6bcd)" d="M 317.297512 244.235411 
Q 321.064985 206.803726 324.720494 170.484455 
" style="fill:none;stroke:#000000;stroke-linecap:round;"/>
    <path clip-path="url(#p79fb8a6bcd)" d="M 322.329975 174.26406 
L 324.720494 170.484455 
L 326.309867 174.664633 
L 322.329975 174.26406 
z
" style="stroke:#000000;stroke-linecap:round;"/>
   </g>
   <g id="patch_11">
    <path clip-path="url(#p79fb8a6bcd)" d="M 285.224758 393.972305 
Q 255.804276 392.112361 227.4996 390.322957 
" style="fill:none;stroke:#000000;stroke-linecap:round;"/>
    <path clip-path="url(#p79fb8a6bcd)" d="M 231.365444 392.571345 
L 227.4996 390.322957 
L 231.617818 388.579315 
L 231.365444 392.571345 
z
" style="stroke:#000000;stroke-linecap:round;"/>
   </g>
   <g id="patch_12">
    <path clip-path="url(#p79fb8a6bcd)" d="M 311.637564 395.470095 
Q 330.79647 396.431829 348.838748 397.337511 
" style="fill:none;stroke:#000000;stroke-linecap:round;"/>
    <path clip-path="url(#p79fb8a6bcd)" d="M 344.944047 395.139487 
L 348.838748 397.337511 
L 344.743509 399.134457 
L 344.944047 395.139487 
z
" style="stroke:#000000;stroke-linecap:round;"/>
   </g>
   <g id="patch_13">
    <path clip-path="url(#p79fb8a6bcd)" d="M 300.103227 381.68603 
Q 307.200304 326.102646 314.155776 271.628292 
" style="fill:none;stroke:#000000;stroke-linecap:round;"/>
    <path clip-path="url(#p79fb8a6bcd)" d="M 311.665262 275.342768 
L 314.155776 271.628292 
L 315.633049 275.849389 
L 311.665262 275.342768 
z
" style="stroke:#000000;stroke-linecap:round;"/>
   </g>
   <g id="patch_14">
    <path clip-path="url(#p79fb8a6bcd)" d="M 149.254639 164.167518 
Q 107.227922 202.26607 66.029537 239.613713 
" style="fill:none;stroke:#000000;stroke-linecap:round;"/>
    <path clip-path="url(#p79fb8a6bcd)" d="M 70.336337 238.408943 
L 66.029537 239.613713 
L 67.649801 235.445411 
L 70.336337 238.408943 
z
" style="stroke:#000000;stroke-linecap:round;"/>
   </g>
   <g id="patch_15">
    <path clip-path="url(#p79fb8a6bcd)" d="M 172.288237 155.354498 
Q 242.608723 155.746415 311.811192 156.132102 
" style="fill:none;stroke:#000000;stroke-linecap:round;"/>
    <path clip-path="url(#p79fb8a6bcd)" d="M 307.8224 154.10984 
L 311.811192 156.132102 
L 307.800108 158.109778 
L 307.8224 154.10984 
z
" style="stroke:#000000;stroke-linecap:round;"/>
   </g>
   <g id="patch_16">
    <path clip-path="url(#p79fb8a6bcd)" d="M 67.196488 255.241252 
Q 125.084192 284.663945 181.975215 313.580054 
" style="fill:none;stroke:#000000;stroke-linecap:round;"/>
    <path clip-path="url(#p79fb8a6bcd)" d="M 179.315588 309.984725 
L 181.975215 313.580054 
L 177.503176 313.550558 
L 179.315588 309.984725 
z
" style="stroke:#000000;stroke-linecap:round;"/>
   </g>
   <g id="patch_17">
    <path clip-path="url(#p79fb8a6bcd)" d="M 65.206068 240.360214 
Q 107.232786 202.261661 148.431171 164.914018 
" style="fill:none;stroke:#000000;stroke-linecap:round;"/>
    <path clip-path="url(#p79fb8a6bcd)" d="M 144.12437 166.118788 
L 148.431171 164.914018 
L 146.810906 169.082321 
L 144.12437 166.118788 
z
" style="stroke:#000000;stroke-linecap:round;"/>
   </g>
   <g id="patch_18">
    <path clip-path="url(#p79fb8a6bcd)" d="M 207.947321 321.183935 
Q 214.36434 321.721177 219.667223 322.165141 
" style="fill:none;stroke:#000000;stroke-linecap:round;"/>
    <path clip-path="url(#p79fb8a6bcd)" d="M 215.848027 319.838396 
L 219.667223 322.165141 
L 215.514309 323.824451 
L 215.848027 319.838396 
z
" style="stroke:#000000;stroke-linecap:round;"/>
   </g>
   <g id="patch_19">
    <path clip-path="url(#p79fb8a6bcd)" d="M 182.970492 314.085925 
Q 125.082789 284.663232 68.191766 255.747123 
" style="fill:none;stroke:#000000;stroke-linecap:round;"/>
    <path clip-path="url(#p79fb8a6bcd)" d="M 70.851392 259.342452 
L 68.191766 255.747123 
L 72.663805 255.77662 
L 70.851392 259.342452 
z
" style="stroke:#000000;stroke-linecap:round;"/>
   </g>
   <g id="patch_20">
    <path clip-path="url(#p79fb8a6bcd)" d="M 246.131725 328.559168 
Q 252.416589 331.243693 257.673286 333.489046 
" style="fill:none;stroke:#000000;stroke-linecap:round;"/>
    <path clip-path="url(#p79fb8a6bcd)" d="M 254.78042 330.078573 
L 257.673286 333.489046 
L 253.209188 333.757055 
L 254.78042 330.078573 
z
" style="stroke:#000000;stroke-linecap:round;"/>
   </g>
   <g id="patch_21">
    <path clip-path="url(#p79fb8a6bcd)" d="M 247.194822 323.510893 
Q 247.475958 323.514054 246.639131 323.504646 
" style="fill:none;stroke:#000000;stroke-linecap:round;"/>
    <path clip-path="url(#p79fb8a6bcd)" d="M 242.661868 321.459804 
L 246.639131 323.504646 
L 242.616899 325.459551 
L 242.661868 321.459804 
z
" style="stroke:#000000;stroke-linecap:round;"/>
   </g>
   <g id="patch_22">
    <path clip-path="url(#p79fb8a6bcd)" d="M 220.781375 322.25842 
Q 214.364356 321.721178 209.061473 321.277214 
" style="fill:none;stroke:#000000;stroke-linecap:round;"/>
    <path clip-path="url(#p79fb8a6bcd)" d="M 212.880668 323.603959 
L 209.061473 321.277214 
L 213.214386 319.617904 
L 212.880668 323.603959 
z
" style="stroke:#000000;stroke-linecap:round;"/>
   </g>
   <g id="patch_23">
    <path clip-path="url(#p79fb8a6bcd)" d="M 514.212183 196.248431 
Q 519.426118 246.087446 524.523723 294.814495 
" style="fill:none;stroke:#000000;stroke-linecap:round;"/>
    <path clip-path="url(#p79fb8a6bcd)" d="M 526.096677 290.628111 
L 524.523723 294.814495 
L 522.118388 291.044301 
L 526.096677 290.628111 
z
" style="stroke:#000000;stroke-linecap:round;"/>
   </g>
   <g id="patch_24">
    <path clip-path="url(#p79fb8a6bcd)" d="M 499.741599 181.209414 
Q 419.495539 169.653437 340.356098 158.256821 
" style="fill:none;stroke:#000000;stroke-linecap:round;"/>
    <path clip-path="url(#p79fb8a6bcd)" d="M 344.030183 160.806546 
L 340.356098 158.256821 
L 344.600329 156.847388 
L 344.030183 160.806546 
z
" style="stroke:#000000;stroke-linecap:round;"/>
   </g>
   <g id="patch_25">
    <path clip-path="url(#p79fb8a6bcd)" d="M 521.247141 321.419647 
Q 506.593302 359.320811 492.342646 396.17917 
" style="fill:none;stroke:#000000;stroke-linecap:round;"/>
    <path clip-path="url(#p79fb8a6bcd)" d="M 495.650545 393.169551 
L 492.342646 396.17917 
L 491.91969 391.727079 
L 495.650545 393.169551 
z
" style="stroke:#000000;stroke-linecap:round;"/>
   </g>
   <g id="patch_26">
    <path clip-path="url(#p79fb8a6bcd)" d="M 524.640488 295.930633 
Q 519.426554 246.091618 514.328949 197.364569 
" style="fill:none;stroke:#000000;stroke-linecap:round;"/>
    <path clip-path="url(#p79fb8a6bcd)" d="M 512.755995 201.550954 
L 514.328949 197.364569 
L 516.734284 201.134763 
L 512.755995 201.550954 
z
" style="stroke:#000000;stroke-linecap:round;"/>
   </g>
   <g id="patch_27">
    <path clip-path="url(#p79fb8a6bcd)" d="M 479.126854 420.061196 
Q 476.602182 423.357724 474.757304 425.766627 
" style="fill:none;stroke:#000000;stroke-linecap:round;"/>
    <path clip-path="url(#p79fb8a6bcd)" d="M 478.777245 423.807016 
L 474.757304 425.766627 
L 475.60158 421.374908 
L 478.777245 423.807016 
z
" style="stroke:#000000;stroke-linecap:round;"/>
   </g>
   <g id="patch_28">
    <path clip-path="url(#p79fb8a6bcd)" d="M 491.938463 397.224563 
Q 506.592302 359.323399 520.842958 322.46504 
" style="fill:none;stroke:#000000;stroke-linecap:round;"/>
    <path clip-path="url(#p79fb8a6bcd)" d="M 517.535059 325.474659 
L 520.842958 322.46504 
L 521.265914 326.91713 
L 517.535059 325.474659 
z
" style="stroke:#000000;stroke-linecap:round;"/>
   </g>
   <g id="patch_29">
    <path clip-path="url(#p79fb8a6bcd)" d="M 456.039678 445.822611 
Q 446.424161 454.159385 437.653384 461.763758 
" style="fill:none;stroke:#000000;stroke-linecap:round;"/>
    <path clip-path="url(#p79fb8a6bcd)" d="M 441.985783 460.654558 
L 437.653384 461.763758 
L 439.365464 457.632319 
L 441.985783 460.654558 
z
" style="stroke:#000000;stroke-linecap:round;"/>
   </g>
   <g id="patch_30">
    <path clip-path="url(#p79fb8a6bcd)" d="M 452.823639 437.867488 
Q 438.165199 438.654288 424.623186 439.381164 
" style="fill:none;stroke:#000000;stroke-linecap:round;"/>
    <path clip-path="url(#p79fb8a6bcd)" d="M 428.724634 441.163895 
L 424.623186 439.381164 
L 428.51024 437.169645 
L 428.724634 441.163895 
z
" style="stroke:#000000;stroke-linecap:round;"/>
   </g>
   <g id="patch_31">
    <path clip-path="url(#p79fb8a6bcd)" d="M 474.074987 426.657547 
Q 476.599658 423.361019 478.444536 420.952116 
" style="fill:none;stroke:#000000;stroke-linecap:round;"/>
    <path clip-path="url(#p79fb8a6bcd)" d="M 474.424595 422.911727 
L 478.444536 420.952116 
L 477.60026 425.343835 
L 474.424595 422.911727 
z
" style="stroke:#000000;stroke-linecap:round;"/>
   </g>
   <g id="patch_32">
    <path clip-path="url(#p79fb8a6bcd)" d="M 207.168857 401.200937 
Q 164.277501 485.299097 121.894109 568.401278 
" style="fill:none;stroke:#000000;stroke-linecap:round;"/>
    <path clip-path="url(#p79fb8a6bcd)" d="M 125.493117 565.746632 
L 121.894109 568.401278 
L 121.929797 563.929284 
L 125.493117 565.746632 
z
" style="stroke:#000000;stroke-linecap:round;"/>
   </g>
   <g id="patch_33">
    <path clip-path="url(#p79fb8a6bcd)" d="M 226.381685 390.252283 
Q 255.802167 392.112227 284.106843 393.901632 
" style="fill:none;stroke:#000000;stroke-linecap:round;"/>
    <path clip-path="url(#p79fb8a6bcd)" d="M 280.240999 391.653243 
L 284.106843 393.901632 
L 279.988625 395.645273 
L 280.240999 391.653243 
z
" style="stroke:#000000;stroke-linecap:round;"/>
   </g>
   <g id="patch_34">
    <path clip-path="url(#p79fb8a6bcd)" d="M 112.651982 594.124504 
Q 97.134012 667.8578 81.8463 740.49703 
" style="fill:none;stroke:#000000;stroke-linecap:round;"/>
    <path clip-path="url(#p79fb8a6bcd)" d="M 84.627222 736.994677 
L 81.8463 740.49703 
L 80.712971 736.170881 
L 84.627222 736.994677 
z
" style="stroke:#000000;stroke-linecap:round;"/>
   </g>
   <g id="patch_35">
    <path clip-path="url(#p79fb8a6bcd)" d="M 121.385652 569.398223 
Q 164.277008 485.300063 206.6604 402.197882 
" style="fill:none;stroke:#000000;stroke-linecap:round;"/>
    <path clip-path="url(#p79fb8a6bcd)" d="M 203.061392 404.852528 
L 206.6604 402.197882 
L 206.624712 406.669875 
L 203.061392 404.852528 
z
" style="stroke:#000000;stroke-linecap:round;"/>
   </g>
   <g id="patch_36">
    <path clip-path="url(#p79fb8a6bcd)" d="M 70.392313 764.676618 
Q 64.436828 771.781636 59.199552 778.029816 
" style="fill:none;stroke:#000000;stroke-linecap:round;"/>
    <path clip-path="url(#p79fb8a6bcd)" d="M 63.30186 776.249066 
L 59.199552 778.029816 
L 60.236338 773.679519 
L 63.30186 776.249066 
z
" style="stroke:#000000;stroke-linecap:round;"/>
   </g>
   <g id="patch_37">
    <path clip-path="url(#p79fb8a6bcd)" d="M 81.61542 741.59405 
Q 97.13339 667.860754 112.421102 595.221524 
" style="fill:none;stroke:#000000;stroke-linecap:round;"/>
    <path clip-path="url(#p79fb8a6bcd)" d="M 109.640181 598.723877 
L 112.421102 595.221524 
L 113.554431 599.547673 
L 109.640181 598.723877 
z
" style="stroke:#000000;stroke-linecap:round;"/>
   </g>
   <g id="patch_38">
    <path clip-path="url(#p79fb8a6bcd)" d="M 58.482597 778.885158 
Q 64.438083 771.780139 69.675358 765.53196 
" style="fill:none;stroke:#000000;stroke-linecap:round;"/>
    <path clip-path="url(#p79fb8a6bcd)" d="M 65.57305 767.31271 
L 69.675358 765.53196 
L 68.638573 769.882256 
L 65.57305 767.31271 
z
" style="stroke:#000000;stroke-linecap:round;"/>
   </g>
   <g id="patch_39">
    <path clip-path="url(#p79fb8a6bcd)" d="M 361.330278 411.156507 
Q 351.525726 481.033878 341.876525 549.80406 
" style="fill:none;stroke:#000000;stroke-linecap:round;"/>
    <path clip-path="url(#p79fb8a6bcd)" d="M 344.412922 546.120762 
L 341.876525 549.80406 
L 340.451725 545.564963 
L 344.412922 546.120762 
z
" style="stroke:#000000;stroke-linecap:round;"/>
   </g>
   <g id="patch_40">
    <path clip-path="url(#p79fb8a6bcd)" d="M 349.958639 397.393727 
Q 330.799733 396.431993 312.757455 395.526311 
" style="fill:none;stroke:#000000;stroke-linecap:round;"/>
    <path clip-path="url(#p79fb8a6bcd)" d="M 316.652155 397.724335 
L 312.757455 395.526311 
L 316.852694 393.729365 
L 316.652155 397.724335 
z
" style="stroke:#000000;stroke-linecap:round;"/>
   </g>
   <g id="patch_41">
    <path clip-path="url(#p79fb8a6bcd)" d="M 336.005036 576.661049 
Q 314.736754 646.024963 293.796223 714.319962 
" style="fill:none;stroke:#000000;stroke-linecap:round;"/>
    <path clip-path="url(#p79fb8a6bcd)" d="M 296.880949 711.08199 
L 293.796223 714.319962 
L 293.056681 709.909398 
L 296.880949 711.08199 
z
" style="stroke:#000000;stroke-linecap:round;"/>
   </g>
   <g id="patch_42">
    <path clip-path="url(#p79fb8a6bcd)" d="M 341.720623 550.915174 
Q 351.525175 481.037804 361.174377 412.267621 
" style="fill:none;stroke:#000000;stroke-linecap:round;"/>
    <path clip-path="url(#p79fb8a6bcd)" d="M 358.637979 415.95092 
L 361.174377 412.267621 
L 362.599177 416.506719 
L 358.637979 415.95092 
z
" style="stroke:#000000;stroke-linecap:round;"/>
   </g>
   <g id="patch_43">
    <path clip-path="url(#p79fb8a6bcd)" d="M 284.437151 740.213906 
Q 281.007598 748.318758 278.013737 755.393965 
" style="fill:none;stroke:#000000;stroke-linecap:round;"/>
    <path clip-path="url(#p79fb8a6bcd)" d="M 281.414407 752.489581 
L 278.013737 755.393965 
L 277.730632 750.930798 
L 281.414407 752.489581 
z
" style="stroke:#000000;stroke-linecap:round;"/>
   </g>
   <g id="patch_44">
    <path clip-path="url(#p79fb8a6bcd)" d="M 293.469287 715.386225 
Q 314.737568 646.02231 335.6781 577.727312 
" style="fill:none;stroke:#000000;stroke-linecap:round;"/>
    <path clip-path="url(#p79fb8a6bcd)" d="M 332.593373 580.965283 
L 335.6781 577.727312 
L 336.417641 582.137876 
L 332.593373 580.965283 
z
" style="stroke:#000000;stroke-linecap:round;"/>
   </g>
   <g id="patch_45">
    <path clip-path="url(#p79fb8a6bcd)" d="M 277.577657 756.424526 
Q 281.007211 748.319673 284.001071 741.244467 
" style="fill:none;stroke:#000000;stroke-linecap:round;"/>
    <path clip-path="url(#p79fb8a6bcd)" d="M 280.600401 744.148851 
L 284.001071 741.244467 
L 284.284176 745.707633 
L 280.600401 744.148851 
z
" style="stroke:#000000;stroke-linecap:round;"/>
   </g>
   <g id="patch_46">
    <path clip-path="url(#p79fb8a6bcd)" d="M 258.699609 333.927431 
Q 252.414745 331.242906 247.158049 328.997553 
" style="fill:none;stroke:#000000;stroke-linecap:round;"/>
    <path clip-path="url(#p79fb8a6bcd)" d="M 250.050915 332.408026 
L 247.158049 328.997553 
L 251.622147 328.729544 
L 250.050915 332.408026 
z
" style="stroke:#000000;stroke-linecap:round;"/>
   </g>
   <g id="patch_47">
    <path clip-path="url(#p79fb8a6bcd)" d="M 247.755558 323.517198 
Q 247.474422 323.514037 248.31125 323.523445 
" style="fill:none;stroke:#000000;stroke-linecap:round;"/>
    <path clip-path="url(#p79fb8a6bcd)" d="M 252.288513 325.568287 
L 248.31125 323.523445 
L 252.333481 321.56854 
L 252.288513 325.568287 
z
" style="stroke:#000000;stroke-linecap:round;"/>
   </g>
   <g id="patch_48">
    <path clip-path="url(#p79fb8a6bcd)" d="M 436.809867 462.495098 
Q 446.425385 454.158324 455.196161 446.553951 
" style="fill:none;stroke:#000000;stroke-linecap:round;"/>
    <path clip-path="url(#p79fb8a6bcd)" d="M 450.863763 447.663151 
L 455.196161 446.553951 
L 453.484082 450.68539 
L 450.863763 447.663151 
z
" style="stroke:#000000;stroke-linecap:round;"/>
   </g>
   <g id="patch_49">
    <path clip-path="url(#p79fb8a6bcd)" d="M 423.507067 439.441072 
Q 438.165507 438.654272 451.70752 437.927396 
" style="fill:none;stroke:#000000;stroke-linecap:round;"/>
    <path clip-path="url(#p79fb8a6bcd)" d="M 447.606073 436.144665 
L 451.70752 437.927396 
L 447.820467 440.138915 
L 447.606073 436.144665 
z
" style="stroke:#000000;stroke-linecap:round;"/>
   </g>
   <g id="PathCollection_1">
    <defs>
     <path d="M 0 13.228757 
C 3.508307 13.228757 6.873396 11.834891 9.354143 9.354143 
C 11.834891 6.873396 13.228757 3.508307 13.228757 0 
C 13.228757 -3.508307 11.834891 -6.873396 9.354143 -9.354143 
C 6.873396 -11.834891 3.508307 -13.228757 0 -13.228757 
C -3.508307 -13.228757 -6.873396 -11.834891 -9.354143 -9.354143 
C -11.834891 -6.873396 -13.228757 -3.508307 -13.228757 0 
C -13.228757 3.508307 -11.834891 6.873396 -9.354143 9.354143 
C -6.873396 11.834891 -3.508307 13.228757 0 13.228757 
z
" id="mfa9c2b1a3d" style="stroke:#87ceeb;"/>
    </defs>
    <g clip-path="url(#p79fb8a6bcd)">
     <use style="fill:#87ceeb;stroke:#87ceeb;" x="367.208051" xlink:href="#mfa9c2b1a3d" y="74.975207"/>
     <use style="fill:#87ceeb;stroke:#87ceeb;" x="328.334583" xlink:href="#mfa9c2b1a3d" y="123.138618"/>
     <use style="fill:#87ceeb;stroke:#87ceeb;" x="326.157001" xlink:href="#mfa9c2b1a3d" y="156.212055"/>
     <use style="fill:#87ceeb;stroke:#87ceeb;" x="315.972551" xlink:href="#mfa9c2b1a3d" y="257.399542"/>
     <use style="fill:#87ceeb;stroke:#87ceeb;" x="298.427897" xlink:href="#mfa9c2b1a3d" y="394.807"/>
     <use style="fill:#87ceeb;stroke:#87ceeb;" x="159.05767" xlink:href="#mfa9c2b1a3d" y="155.28076"/>
     <use style="fill:#87ceeb;stroke:#87ceeb;" x="55.403038" xlink:href="#mfa9c2b1a3d" y="249.246972"/>
     <use style="fill:#87ceeb;stroke:#87ceeb;" x="194.763943" xlink:href="#mfa9c2b1a3d" y="320.080205"/>
     <use style="fill:#87ceeb;stroke:#87ceeb;" x="233.964752" xlink:href="#mfa9c2b1a3d" y="323.36215"/>
     <use style="fill:#87ceeb;stroke:#87ceeb;" x="512.836143" xlink:href="#mfa9c2b1a3d" y="183.095117"/>
     <use style="fill:#87ceeb;stroke:#87ceeb;" x="526.016529" xlink:href="#mfa9c2b1a3d" y="309.083947"/>
     <use style="fill:#87ceeb;stroke:#87ceeb;" x="487.169075" xlink:href="#mfa9c2b1a3d" y="409.560263"/>
     <use style="fill:#87ceeb;stroke:#87ceeb;" x="466.032765" xlink:href="#mfa9c2b1a3d" y="437.15848"/>
     <use style="fill:#87ceeb;stroke:#87ceeb;" x="213.178546" xlink:href="#mfa9c2b1a3d" y="389.417588"/>
     <use style="fill:#87ceeb;stroke:#87ceeb;" x="115.375962" xlink:href="#mfa9c2b1a3d" y="581.181572"/>
     <use style="fill:#87ceeb;stroke:#87ceeb;" x="78.89144" xlink:href="#mfa9c2b1a3d" y="754.536982"/>
     <use style="fill:#87ceeb;stroke:#87ceeb;" x="49.983471" xlink:href="#mfa9c2b1a3d" y="789.024793"/>
     <use style="fill:#87ceeb;stroke:#87ceeb;" x="363.168306" xlink:href="#mfa9c2b1a3d" y="398.056822"/>
     <use style="fill:#87ceeb;stroke:#87ceeb;" x="339.882596" xlink:href="#mfa9c2b1a3d" y="564.014859"/>
     <use style="fill:#87ceeb;stroke:#87ceeb;" x="289.591727" xlink:href="#mfa9c2b1a3d" y="728.032415"/>
     <use style="fill:#87ceeb;stroke:#87ceeb;" x="272.423081" xlink:href="#mfa9c2b1a3d" y="768.606017"/>
     <use style="fill:#87ceeb;stroke:#87ceeb;" x="270.866582" xlink:href="#mfa9c2b1a3d" y="339.124449"/>
     <use style="fill:#87ceeb;stroke:#87ceeb;" x="260.985628" xlink:href="#mfa9c2b1a3d" y="323.665941"/>
     <use style="fill:#87ceeb;stroke:#87ceeb;" x="426.816781" xlink:href="#mfa9c2b1a3d" y="471.159229"/>
     <use style="fill:#87ceeb;stroke:#87ceeb;" x="410.297941" xlink:href="#mfa9c2b1a3d" y="440.15008"/>
    </g>
   </g>
   <g id="text_1">
    <g clip-path="url(#p79fb8a6bcd)">
     <!-- Head -->
     <g transform="translate(354.133051 77.734582)scale(0.1 -0.1)">
      <defs>
       <path d="M 9.8125 72.90625 
L 19.671875 72.90625 
L 19.671875 43.015625 
L 55.515625 43.015625 
L 55.515625 72.90625 
L 65.375 72.90625 
L 65.375 0 
L 55.515625 0 
L 55.515625 34.71875 
L 19.671875 34.71875 
L 19.671875 0 
L 9.8125 0 
z
" id="DejaVuSans-72"/>
       <path d="M 56.203125 29.59375 
L 56.203125 25.203125 
L 14.890625 25.203125 
Q 15.484375 15.921875 20.484375 11.0625 
Q 25.484375 6.203125 34.421875 6.203125 
Q 39.59375 6.203125 44.453125 7.46875 
Q 49.3125 8.734375 54.109375 11.28125 
L 54.109375 2.78125 
Q 49.265625 0.734375 44.1875 -0.34375 
Q 39.109375 -1.421875 33.890625 -1.421875 
Q 20.796875 -1.421875 13.15625 6.1875 
Q 5.515625 13.8125 5.515625 26.8125 
Q 5.515625 40.234375 12.765625 48.109375 
Q 20.015625 56 32.328125 56 
Q 43.359375 56 49.78125 48.890625 
Q 56.203125 41.796875 56.203125 29.59375 
z
M 47.21875 32.234375 
Q 47.125 39.59375 43.09375 43.984375 
Q 39.0625 48.390625 32.421875 48.390625 
Q 24.90625 48.390625 20.390625 44.140625 
Q 15.875 39.890625 15.1875 32.171875 
z
" id="DejaVuSans-101"/>
       <path d="M 34.28125 27.484375 
Q 23.390625 27.484375 19.1875 25 
Q 14.984375 22.515625 14.984375 16.5 
Q 14.984375 11.71875 18.140625 8.90625 
Q 21.296875 6.109375 26.703125 6.109375 
Q 34.1875 6.109375 38.703125 11.40625 
Q 43.21875 16.703125 43.21875 25.484375 
L 43.21875 27.484375 
z
M 52.203125 31.203125 
L 52.203125 0 
L 43.21875 0 
L 43.21875 8.296875 
Q 40.140625 3.328125 35.546875 0.953125 
Q 30.953125 -1.421875 24.3125 -1.421875 
Q 15.921875 -1.421875 10.953125 3.296875 
Q 6 8.015625 6 15.921875 
Q 6 25.140625 12.171875 29.828125 
Q 18.359375 34.515625 30.609375 34.515625 
L 43.21875 34.515625 
L 43.21875 35.40625 
Q 43.21875 41.609375 39.140625 45 
Q 35.0625 48.390625 27.6875 48.390625 
Q 23 48.390625 18.546875 47.265625 
Q 14.109375 46.140625 10.015625 43.890625 
L 10.015625 52.203125 
Q 14.9375 54.109375 19.578125 55.046875 
Q 24.21875 56 28.609375 56 
Q 40.484375 56 46.34375 49.84375 
Q 52.203125 43.703125 52.203125 31.203125 
z
" id="DejaVuSans-97"/>
       <path d="M 45.40625 46.390625 
L 45.40625 75.984375 
L 54.390625 75.984375 
L 54.390625 0 
L 45.40625 0 
L 45.40625 8.203125 
Q 42.578125 3.328125 38.25 0.953125 
Q 33.9375 -1.421875 27.875 -1.421875 
Q 17.96875 -1.421875 11.734375 6.484375 
Q 5.515625 14.40625 5.515625 27.296875 
Q 5.515625 40.1875 11.734375 48.09375 
Q 17.96875 56 27.875 56 
Q 33.9375 56 38.25 53.625 
Q 42.578125 51.265625 45.40625 46.390625 
z
M 14.796875 27.296875 
Q 14.796875 17.390625 18.875 11.75 
Q 22.953125 6.109375 30.078125 6.109375 
Q 37.203125 6.109375 41.296875 11.75 
Q 45.40625 17.390625 45.40625 27.296875 
Q 45.40625 37.203125 41.296875 42.84375 
Q 37.203125 48.484375 30.078125 48.484375 
Q 22.953125 48.484375 18.875 42.84375 
Q 14.796875 37.203125 14.796875 27.296875 
z
" id="DejaVuSans-100"/>
      </defs>
      <use xlink:href="#DejaVuSans-72"/>
      <use x="75.195312" xlink:href="#DejaVuSans-101"/>
      <use x="136.71875" xlink:href="#DejaVuSans-97"/>
      <use x="197.998047" xlink:href="#DejaVuSans-100"/>
     </g>
    </g>
   </g>
   <g id="text_2">
    <g clip-path="url(#p79fb8a6bcd)">
     <!-- c7 -->
     <g transform="translate(322.404114 125.897993)scale(0.1 -0.1)">
      <defs>
       <path d="M 48.78125 52.59375 
L 48.78125 44.1875 
Q 44.96875 46.296875 41.140625 47.34375 
Q 37.3125 48.390625 33.40625 48.390625 
Q 24.65625 48.390625 19.8125 42.84375 
Q 14.984375 37.3125 14.984375 27.296875 
Q 14.984375 17.28125 19.8125 11.734375 
Q 24.65625 6.203125 33.40625 6.203125 
Q 37.3125 6.203125 41.140625 7.25 
Q 44.96875 8.296875 48.78125 10.40625 
L 48.78125 2.09375 
Q 45.015625 0.34375 40.984375 -0.53125 
Q 36.96875 -1.421875 32.421875 -1.421875 
Q 20.0625 -1.421875 12.78125 6.34375 
Q 5.515625 14.109375 5.515625 27.296875 
Q 5.515625 40.671875 12.859375 48.328125 
Q 20.21875 56 33.015625 56 
Q 37.15625 56 41.109375 55.140625 
Q 45.0625 54.296875 48.78125 52.59375 
z
" id="DejaVuSans-99"/>
       <path d="M 8.203125 72.90625 
L 55.078125 72.90625 
L 55.078125 68.703125 
L 28.609375 0 
L 18.3125 0 
L 43.21875 64.59375 
L 8.203125 64.59375 
z
" id="DejaVuSans-55"/>
      </defs>
      <use xlink:href="#DejaVuSans-99"/>
      <use x="54.980469" xlink:href="#DejaVuSans-55"/>
     </g>
    </g>
   </g>
   <g id="text_3">
    <g clip-path="url(#p79fb8a6bcd)">
     <!-- SpineShoulder -->
     <g transform="translate(289.907782 158.97143)scale(0.1 -0.1)">
      <defs>
       <path d="M 53.515625 70.515625 
L 53.515625 60.890625 
Q 47.90625 63.578125 42.921875 64.890625 
Q 37.9375 66.21875 33.296875 66.21875 
Q 25.25 66.21875 20.875 63.09375 
Q 16.5 59.96875 16.5 54.203125 
Q 16.5 49.359375 19.40625 46.890625 
Q 22.3125 44.4375 30.421875 42.921875 
L 36.375 41.703125 
Q 47.40625 39.59375 52.65625 34.296875 
Q 57.90625 29 57.90625 20.125 
Q 57.90625 9.515625 50.796875 4.046875 
Q 43.703125 -1.421875 29.984375 -1.421875 
Q 24.8125 -1.421875 18.96875 -0.25 
Q 13.140625 0.921875 6.890625 3.21875 
L 6.890625 13.375 
Q 12.890625 10.015625 18.65625 8.296875 
Q 24.421875 6.59375 29.984375 6.59375 
Q 38.421875 6.59375 43.015625 9.90625 
Q 47.609375 13.234375 47.609375 19.390625 
Q 47.609375 24.75 44.3125 27.78125 
Q 41.015625 30.8125 33.5 32.328125 
L 27.484375 33.5 
Q 16.453125 35.6875 11.515625 40.375 
Q 6.59375 45.0625 6.59375 53.421875 
Q 6.59375 63.09375 13.40625 68.65625 
Q 20.21875 74.21875 32.171875 74.21875 
Q 37.3125 74.21875 42.625 73.28125 
Q 47.953125 72.359375 53.515625 70.515625 
z
" id="DejaVuSans-83"/>
       <path d="M 18.109375 8.203125 
L 18.109375 -20.796875 
L 9.078125 -20.796875 
L 9.078125 54.6875 
L 18.109375 54.6875 
L 18.109375 46.390625 
Q 20.953125 51.265625 25.265625 53.625 
Q 29.59375 56 35.59375 56 
Q 45.5625 56 51.78125 48.09375 
Q 58.015625 40.1875 58.015625 27.296875 
Q 58.015625 14.40625 51.78125 6.484375 
Q 45.5625 -1.421875 35.59375 -1.421875 
Q 29.59375 -1.421875 25.265625 0.953125 
Q 20.953125 3.328125 18.109375 8.203125 
z
M 48.6875 27.296875 
Q 48.6875 37.203125 44.609375 42.84375 
Q 40.53125 48.484375 33.40625 48.484375 
Q 26.265625 48.484375 22.1875 42.84375 
Q 18.109375 37.203125 18.109375 27.296875 
Q 18.109375 17.390625 22.1875 11.75 
Q 26.265625 6.109375 33.40625 6.109375 
Q 40.53125 6.109375 44.609375 11.75 
Q 48.6875 17.390625 48.6875 27.296875 
z
" id="DejaVuSans-112"/>
       <path d="M 9.421875 54.6875 
L 18.40625 54.6875 
L 18.40625 0 
L 9.421875 0 
z
M 9.421875 75.984375 
L 18.40625 75.984375 
L 18.40625 64.59375 
L 9.421875 64.59375 
z
" id="DejaVuSans-105"/>
       <path d="M 54.890625 33.015625 
L 54.890625 0 
L 45.90625 0 
L 45.90625 32.71875 
Q 45.90625 40.484375 42.875 44.328125 
Q 39.84375 48.1875 33.796875 48.1875 
Q 26.515625 48.1875 22.3125 43.546875 
Q 18.109375 38.921875 18.109375 30.90625 
L 18.109375 0 
L 9.078125 0 
L 9.078125 54.6875 
L 18.109375 54.6875 
L 18.109375 46.1875 
Q 21.34375 51.125 25.703125 53.5625 
Q 30.078125 56 35.796875 56 
Q 45.21875 56 50.046875 50.171875 
Q 54.890625 44.34375 54.890625 33.015625 
z
" id="DejaVuSans-110"/>
       <path d="M 54.890625 33.015625 
L 54.890625 0 
L 45.90625 0 
L 45.90625 32.71875 
Q 45.90625 40.484375 42.875 44.328125 
Q 39.84375 48.1875 33.796875 48.1875 
Q 26.515625 48.1875 22.3125 43.546875 
Q 18.109375 38.921875 18.109375 30.90625 
L 18.109375 0 
L 9.078125 0 
L 9.078125 75.984375 
L 18.109375 75.984375 
L 18.109375 46.1875 
Q 21.34375 51.125 25.703125 53.5625 
Q 30.078125 56 35.796875 56 
Q 45.21875 56 50.046875 50.171875 
Q 54.890625 44.34375 54.890625 33.015625 
z
" id="DejaVuSans-104"/>
       <path d="M 30.609375 48.390625 
Q 23.390625 48.390625 19.1875 42.75 
Q 14.984375 37.109375 14.984375 27.296875 
Q 14.984375 17.484375 19.15625 11.84375 
Q 23.34375 6.203125 30.609375 6.203125 
Q 37.796875 6.203125 41.984375 11.859375 
Q 46.1875 17.53125 46.1875 27.296875 
Q 46.1875 37.015625 41.984375 42.703125 
Q 37.796875 48.390625 30.609375 48.390625 
z
M 30.609375 56 
Q 42.328125 56 49.015625 48.375 
Q 55.71875 40.765625 55.71875 27.296875 
Q 55.71875 13.875 49.015625 6.21875 
Q 42.328125 -1.421875 30.609375 -1.421875 
Q 18.84375 -1.421875 12.171875 6.21875 
Q 5.515625 13.875 5.515625 27.296875 
Q 5.515625 40.765625 12.171875 48.375 
Q 18.84375 56 30.609375 56 
z
" id="DejaVuSans-111"/>
       <path d="M 8.5 21.578125 
L 8.5 54.6875 
L 17.484375 54.6875 
L 17.484375 21.921875 
Q 17.484375 14.15625 20.5 10.265625 
Q 23.53125 6.390625 29.59375 6.390625 
Q 36.859375 6.390625 41.078125 11.03125 
Q 45.3125 15.671875 45.3125 23.6875 
L 45.3125 54.6875 
L 54.296875 54.6875 
L 54.296875 0 
L 45.3125 0 
L 45.3125 8.40625 
Q 42.046875 3.421875 37.71875 1 
Q 33.40625 -1.421875 27.6875 -1.421875 
Q 18.265625 -1.421875 13.375 4.4375 
Q 8.5 10.296875 8.5 21.578125 
z
M 31.109375 56 
z
" id="DejaVuSans-117"/>
       <path d="M 9.421875 75.984375 
L 18.40625 75.984375 
L 18.40625 0 
L 9.421875 0 
z
" id="DejaVuSans-108"/>
       <path d="M 41.109375 46.296875 
Q 39.59375 47.171875 37.8125 47.578125 
Q 36.03125 48 33.890625 48 
Q 26.265625 48 22.1875 43.046875 
Q 18.109375 38.09375 18.109375 28.8125 
L 18.109375 0 
L 9.078125 0 
L 9.078125 54.6875 
L 18.109375 54.6875 
L 18.109375 46.1875 
Q 20.953125 51.171875 25.484375 53.578125 
Q 30.03125 56 36.53125 56 
Q 37.453125 56 38.578125 55.875 
Q 39.703125 55.765625 41.0625 55.515625 
z
" id="DejaVuSans-114"/>
      </defs>
      <use xlink:href="#DejaVuSans-83"/>
      <use x="63.476562" xlink:href="#DejaVuSans-112"/>
      <use x="126.953125" xlink:href="#DejaVuSans-105"/>
      <use x="154.736328" xlink:href="#DejaVuSans-110"/>
      <use x="218.115234" xlink:href="#DejaVuSans-101"/>
      <use x="279.638672" xlink:href="#DejaVuSans-83"/>
      <use x="343.115234" xlink:href="#DejaVuSans-104"/>
      <use x="406.494141" xlink:href="#DejaVuSans-111"/>
      <use x="467.675781" xlink:href="#DejaVuSans-117"/>
      <use x="531.054688" xlink:href="#DejaVuSans-108"/>
      <use x="558.837891" xlink:href="#DejaVuSans-100"/>
      <use x="622.314453" xlink:href="#DejaVuSans-101"/>
      <use x="683.837891" xlink:href="#DejaVuSans-114"/>
     </g>
    </g>
   </g>
   <g id="text_4">
    <g clip-path="url(#p79fb8a6bcd)">
     <!-- Spine -->
     <g transform="translate(301.989739 260.158917)scale(0.1 -0.1)">
      <use xlink:href="#DejaVuSans-83"/>
      <use x="63.476562" xlink:href="#DejaVuSans-112"/>
      <use x="126.953125" xlink:href="#DejaVuSans-105"/>
      <use x="154.736328" xlink:href="#DejaVuSans-110"/>
      <use x="218.115234" xlink:href="#DejaVuSans-101"/>
     </g>
    </g>
   </g>
   <g id="text_5">
    <g clip-path="url(#p79fb8a6bcd)">
     <!-- Sacr -->
     <g transform="translate(287.384928 397.566375)scale(0.1 -0.1)">
      <use xlink:href="#DejaVuSans-83"/>
      <use x="63.476562" xlink:href="#DejaVuSans-97"/>
      <use x="124.755859" xlink:href="#DejaVuSans-99"/>
      <use x="179.736328" xlink:href="#DejaVuSans-114"/>
     </g>
    </g>
   </g>
   <g id="text_6">
    <g clip-path="url(#p79fb8a6bcd)">
     <!-- LShoulder -->
     <g transform="translate(134.005326 158.040135)scale(0.1 -0.1)">
      <defs>
       <path d="M 9.8125 72.90625 
L 19.671875 72.90625 
L 19.671875 8.296875 
L 55.171875 8.296875 
L 55.171875 0 
L 9.8125 0 
z
" id="DejaVuSans-76"/>
      </defs>
      <use xlink:href="#DejaVuSans-76"/>
      <use x="55.712891" xlink:href="#DejaVuSans-83"/>
      <use x="119.189453" xlink:href="#DejaVuSans-104"/>
      <use x="182.568359" xlink:href="#DejaVuSans-111"/>
      <use x="243.75" xlink:href="#DejaVuSans-117"/>
      <use x="307.128906" xlink:href="#DejaVuSans-108"/>
      <use x="334.912109" xlink:href="#DejaVuSans-100"/>
      <use x="398.388672" xlink:href="#DejaVuSans-101"/>
      <use x="459.912109" xlink:href="#DejaVuSans-114"/>
     </g>
    </g>
   </g>
   <g id="text_7">
    <g clip-path="url(#p79fb8a6bcd)">
     <!-- LElbow -->
     <g transform="translate(37.746006 252.006347)scale(0.1 -0.1)">
      <defs>
       <path d="M 9.8125 72.90625 
L 55.90625 72.90625 
L 55.90625 64.59375 
L 19.671875 64.59375 
L 19.671875 43.015625 
L 54.390625 43.015625 
L 54.390625 34.71875 
L 19.671875 34.71875 
L 19.671875 8.296875 
L 56.78125 8.296875 
L 56.78125 0 
L 9.8125 0 
z
" id="DejaVuSans-69"/>
       <path d="M 48.6875 27.296875 
Q 48.6875 37.203125 44.609375 42.84375 
Q 40.53125 48.484375 33.40625 48.484375 
Q 26.265625 48.484375 22.1875 42.84375 
Q 18.109375 37.203125 18.109375 27.296875 
Q 18.109375 17.390625 22.1875 11.75 
Q 26.265625 6.109375 33.40625 6.109375 
Q 40.53125 6.109375 44.609375 11.75 
Q 48.6875 17.390625 48.6875 27.296875 
z
M 18.109375 46.390625 
Q 20.953125 51.265625 25.265625 53.625 
Q 29.59375 56 35.59375 56 
Q 45.5625 56 51.78125 48.09375 
Q 58.015625 40.1875 58.015625 27.296875 
Q 58.015625 14.40625 51.78125 6.484375 
Q 45.5625 -1.421875 35.59375 -1.421875 
Q 29.59375 -1.421875 25.265625 0.953125 
Q 20.953125 3.328125 18.109375 8.203125 
L 18.109375 0 
L 9.078125 0 
L 9.078125 75.984375 
L 18.109375 75.984375 
z
" id="DejaVuSans-98"/>
       <path d="M 4.203125 54.6875 
L 13.1875 54.6875 
L 24.421875 12.015625 
L 35.59375 54.6875 
L 46.1875 54.6875 
L 57.421875 12.015625 
L 68.609375 54.6875 
L 77.59375 54.6875 
L 63.28125 0 
L 52.6875 0 
L 40.921875 44.828125 
L 29.109375 0 
L 18.5 0 
z
" id="DejaVuSans-119"/>
      </defs>
      <use xlink:href="#DejaVuSans-76"/>
      <use x="55.712891" xlink:href="#DejaVuSans-69"/>
      <use x="118.896484" xlink:href="#DejaVuSans-108"/>
      <use x="146.679688" xlink:href="#DejaVuSans-98"/>
      <use x="210.15625" xlink:href="#DejaVuSans-111"/>
      <use x="271.337891" xlink:href="#DejaVuSans-119"/>
     </g>
    </g>
   </g>
   <g id="text_8">
    <g clip-path="url(#p79fb8a6bcd)">
     <!-- LWrist -->
     <g transform="translate(179.70613 322.83958)scale(0.1 -0.1)">
      <defs>
       <path d="M 3.328125 72.90625 
L 13.28125 72.90625 
L 28.609375 11.28125 
L 43.890625 72.90625 
L 54.984375 72.90625 
L 70.3125 11.28125 
L 85.59375 72.90625 
L 95.609375 72.90625 
L 77.296875 0 
L 64.890625 0 
L 49.515625 63.28125 
L 33.984375 0 
L 21.578125 0 
z
" id="DejaVuSans-87"/>
       <path d="M 44.28125 53.078125 
L 44.28125 44.578125 
Q 40.484375 46.53125 36.375 47.5 
Q 32.28125 48.484375 27.875 48.484375 
Q 21.1875 48.484375 17.84375 46.4375 
Q 14.5 44.390625 14.5 40.28125 
Q 14.5 37.15625 16.890625 35.375 
Q 19.28125 33.59375 26.515625 31.984375 
L 29.59375 31.296875 
Q 39.15625 29.25 43.1875 25.515625 
Q 47.21875 21.78125 47.21875 15.09375 
Q 47.21875 7.46875 41.1875 3.015625 
Q 35.15625 -1.421875 24.609375 -1.421875 
Q 20.21875 -1.421875 15.453125 -0.5625 
Q 10.6875 0.296875 5.421875 2 
L 5.421875 11.28125 
Q 10.40625 8.6875 15.234375 7.390625 
Q 20.0625 6.109375 24.8125 6.109375 
Q 31.15625 6.109375 34.5625 8.28125 
Q 37.984375 10.453125 37.984375 14.40625 
Q 37.984375 18.0625 35.515625 20.015625 
Q 33.0625 21.96875 24.703125 23.78125 
L 21.578125 24.515625 
Q 13.234375 26.265625 9.515625 29.90625 
Q 5.8125 33.546875 5.8125 39.890625 
Q 5.8125 47.609375 11.28125 51.796875 
Q 16.75 56 26.8125 56 
Q 31.78125 56 36.171875 55.265625 
Q 40.578125 54.546875 44.28125 53.078125 
z
" id="DejaVuSans-115"/>
       <path d="M 18.3125 70.21875 
L 18.3125 54.6875 
L 36.8125 54.6875 
L 36.8125 47.703125 
L 18.3125 47.703125 
L 18.3125 18.015625 
Q 18.3125 11.328125 20.140625 9.421875 
Q 21.96875 7.515625 27.59375 7.515625 
L 36.8125 7.515625 
L 36.8125 0 
L 27.59375 0 
Q 17.1875 0 13.234375 3.875 
Q 9.28125 7.765625 9.28125 18.015625 
L 9.28125 47.703125 
L 2.6875 47.703125 
L 2.6875 54.6875 
L 9.28125 54.6875 
L 9.28125 70.21875 
z
" id="DejaVuSans-116"/>
      </defs>
      <use xlink:href="#DejaVuSans-76"/>
      <use x="46.587891" xlink:href="#DejaVuSans-87"/>
      <use x="140.964844" xlink:href="#DejaVuSans-114"/>
      <use x="182.078125" xlink:href="#DejaVuSans-105"/>
      <use x="209.861328" xlink:href="#DejaVuSans-115"/>
      <use x="261.960938" xlink:href="#DejaVuSans-116"/>
     </g>
    </g>
   </g>
   <g id="text_9">
    <g clip-path="url(#p79fb8a6bcd)">
     <!-- LHand -->
     <g transform="translate(218.011627 326.121525)scale(0.1 -0.1)">
      <use xlink:href="#DejaVuSans-76"/>
      <use x="55.712891" xlink:href="#DejaVuSans-72"/>
      <use x="130.908203" xlink:href="#DejaVuSans-97"/>
      <use x="192.1875" xlink:href="#DejaVuSans-110"/>
      <use x="255.566406" xlink:href="#DejaVuSans-100"/>
     </g>
    </g>
   </g>
   <g id="text_10">
    <g clip-path="url(#p79fb8a6bcd)">
     <!-- RShoulder -->
     <g transform="translate(487.095518 185.854492)scale(0.1 -0.1)">
      <defs>
       <path d="M 44.390625 34.1875 
Q 47.5625 33.109375 50.5625 29.59375 
Q 53.5625 26.078125 56.59375 19.921875 
L 66.609375 0 
L 56 0 
L 46.6875 18.703125 
Q 43.0625 26.03125 39.671875 28.421875 
Q 36.28125 30.8125 30.421875 30.8125 
L 19.671875 30.8125 
L 19.671875 0 
L 9.8125 0 
L 9.8125 72.90625 
L 32.078125 72.90625 
Q 44.578125 72.90625 50.734375 67.671875 
Q 56.890625 62.453125 56.890625 51.90625 
Q 56.890625 45.015625 53.6875 40.46875 
Q 50.484375 35.9375 44.390625 34.1875 
z
M 19.671875 64.796875 
L 19.671875 38.921875 
L 32.078125 38.921875 
Q 39.203125 38.921875 42.84375 42.21875 
Q 46.484375 45.515625 46.484375 51.90625 
Q 46.484375 58.296875 42.84375 61.546875 
Q 39.203125 64.796875 32.078125 64.796875 
z
" id="DejaVuSans-82"/>
      </defs>
      <use xlink:href="#DejaVuSans-82"/>
      <use x="69.482422" xlink:href="#DejaVuSans-83"/>
      <use x="132.958984" xlink:href="#DejaVuSans-104"/>
      <use x="196.337891" xlink:href="#DejaVuSans-111"/>
      <use x="257.519531" xlink:href="#DejaVuSans-117"/>
      <use x="320.898438" xlink:href="#DejaVuSans-108"/>
      <use x="348.681641" xlink:href="#DejaVuSans-100"/>
      <use x="412.158203" xlink:href="#DejaVuSans-101"/>
      <use x="473.681641" xlink:href="#DejaVuSans-114"/>
     </g>
    </g>
   </g>
   <g id="text_11">
    <g clip-path="url(#p79fb8a6bcd)">
     <!-- RElbow -->
     <g transform="translate(507.671216 311.843322)scale(0.1 -0.1)">
      <use xlink:href="#DejaVuSans-82"/>
      <use x="69.482422" xlink:href="#DejaVuSans-69"/>
      <use x="132.666016" xlink:href="#DejaVuSans-108"/>
      <use x="160.449219" xlink:href="#DejaVuSans-98"/>
      <use x="223.925781" xlink:href="#DejaVuSans-111"/>
      <use x="285.107422" xlink:href="#DejaVuSans-119"/>
     </g>
    </g>
   </g>
   <g id="text_12">
    <g clip-path="url(#p79fb8a6bcd)">
     <!-- RWrist -->
     <g transform="translate(471.166731 412.319638)scale(0.1 -0.1)">
      <use xlink:href="#DejaVuSans-82"/>
      <use x="65.482422" xlink:href="#DejaVuSans-87"/>
      <use x="159.859375" xlink:href="#DejaVuSans-114"/>
      <use x="200.972656" xlink:href="#DejaVuSans-105"/>
      <use x="228.755859" xlink:href="#DejaVuSans-115"/>
      <use x="280.855469" xlink:href="#DejaVuSans-116"/>
     </g>
    </g>
   </g>
   <g id="text_13">
    <g clip-path="url(#p79fb8a6bcd)">
     <!-- RHand -->
     <g transform="translate(449.391359 439.917855)scale(0.1 -0.1)">
      <use xlink:href="#DejaVuSans-82"/>
      <use x="69.482422" xlink:href="#DejaVuSans-72"/>
      <use x="144.677734" xlink:href="#DejaVuSans-97"/>
      <use x="205.957031" xlink:href="#DejaVuSans-110"/>
      <use x="269.335938" xlink:href="#DejaVuSans-100"/>
     </g>
    </g>
   </g>
   <g id="text_14">
    <g clip-path="url(#p79fb8a6bcd)">
     <!-- LHip -->
     <g transform="translate(202.069171 392.176963)scale(0.1 -0.1)">
      <use xlink:href="#DejaVuSans-76"/>
      <use x="55.712891" xlink:href="#DejaVuSans-72"/>
      <use x="130.908203" xlink:href="#DejaVuSans-105"/>
      <use x="158.691406" xlink:href="#DejaVuSans-112"/>
     </g>
    </g>
   </g>
   <g id="text_15">
    <g clip-path="url(#p79fb8a6bcd)">
     <!-- LKnee -->
     <g transform="translate(99.989244 583.940947)scale(0.1 -0.1)">
      <defs>
       <path d="M 9.8125 72.90625 
L 19.671875 72.90625 
L 19.671875 42.09375 
L 52.390625 72.90625 
L 65.09375 72.90625 
L 28.90625 38.921875 
L 67.671875 0 
L 54.6875 0 
L 19.671875 35.109375 
L 19.671875 0 
L 9.8125 0 
z
" id="DejaVuSans-75"/>
      </defs>
      <use xlink:href="#DejaVuSans-76"/>
      <use x="55.712891" xlink:href="#DejaVuSans-75"/>
      <use x="121.289062" xlink:href="#DejaVuSans-110"/>
      <use x="184.667969" xlink:href="#DejaVuSans-101"/>
      <use x="246.191406" xlink:href="#DejaVuSans-101"/>
     </g>
    </g>
   </g>
   <g id="text_16">
    <g clip-path="url(#p79fb8a6bcd)">
     <!-- LAnkle -->
     <g transform="translate(62.043002 757.296357)scale(0.1 -0.1)">
      <defs>
       <path d="M 34.1875 63.1875 
L 20.796875 26.90625 
L 47.609375 26.90625 
z
M 28.609375 72.90625 
L 39.796875 72.90625 
L 67.578125 0 
L 57.328125 0 
L 50.6875 18.703125 
L 17.828125 18.703125 
L 11.1875 0 
L 0.78125 0 
z
" id="DejaVuSans-65"/>
       <path d="M 9.078125 75.984375 
L 18.109375 75.984375 
L 18.109375 31.109375 
L 44.921875 54.6875 
L 56.390625 54.6875 
L 27.390625 29.109375 
L 57.625 0 
L 45.90625 0 
L 18.109375 26.703125 
L 18.109375 0 
L 9.078125 0 
z
" id="DejaVuSans-107"/>
      </defs>
      <use xlink:href="#DejaVuSans-76"/>
      <use x="57.962891" xlink:href="#DejaVuSans-65"/>
      <use x="126.371094" xlink:href="#DejaVuSans-110"/>
      <use x="189.75" xlink:href="#DejaVuSans-107"/>
      <use x="247.660156" xlink:href="#DejaVuSans-108"/>
      <use x="275.443359" xlink:href="#DejaVuSans-101"/>
     </g>
    </g>
   </g>
   <g id="text_17">
    <g clip-path="url(#p79fb8a6bcd)">
     <!-- LFoot -->
     <g transform="translate(36.424096 791.784168)scale(0.1 -0.1)">
      <defs>
       <path d="M 9.8125 72.90625 
L 51.703125 72.90625 
L 51.703125 64.59375 
L 19.671875 64.59375 
L 19.671875 43.109375 
L 48.578125 43.109375 
L 48.578125 34.8125 
L 19.671875 34.8125 
L 19.671875 0 
L 9.8125 0 
z
" id="DejaVuSans-70"/>
      </defs>
      <use xlink:href="#DejaVuSans-76"/>
      <use x="55.712891" xlink:href="#DejaVuSans-70"/>
      <use x="109.607422" xlink:href="#DejaVuSans-111"/>
      <use x="170.789062" xlink:href="#DejaVuSans-111"/>
      <use x="231.970703" xlink:href="#DejaVuSans-116"/>
     </g>
    </g>
   </g>
   <g id="text_18">
    <g clip-path="url(#p79fb8a6bcd)">
     <!-- RHip -->
     <g transform="translate(351.37065 400.816197)scale(0.1 -0.1)">
      <use xlink:href="#DejaVuSans-82"/>
      <use x="69.482422" xlink:href="#DejaVuSans-72"/>
      <use x="144.677734" xlink:href="#DejaVuSans-105"/>
      <use x="172.460938" xlink:href="#DejaVuSans-112"/>
     </g>
    </g>
   </g>
   <g id="text_19">
    <g clip-path="url(#p79fb8a6bcd)">
     <!-- RKnee -->
     <g transform="translate(323.807596 566.774234)scale(0.1 -0.1)">
      <use xlink:href="#DejaVuSans-82"/>
      <use x="69.482422" xlink:href="#DejaVuSans-75"/>
      <use x="135.058594" xlink:href="#DejaVuSans-110"/>
      <use x="198.4375" xlink:href="#DejaVuSans-101"/>
      <use x="259.960938" xlink:href="#DejaVuSans-101"/>
     </g>
    </g>
   </g>
   <g id="text_20">
    <g clip-path="url(#p79fb8a6bcd)">
     <!-- RAnkle -->
     <g transform="translate(272.367508 730.79179)scale(0.1 -0.1)">
      <use xlink:href="#DejaVuSans-82"/>
      <use x="65.482422" xlink:href="#DejaVuSans-65"/>
      <use x="133.890625" xlink:href="#DejaVuSans-110"/>
      <use x="197.269531" xlink:href="#DejaVuSans-107"/>
      <use x="255.179688" xlink:href="#DejaVuSans-108"/>
      <use x="282.962891" xlink:href="#DejaVuSans-101"/>
     </g>
    </g>
   </g>
   <g id="text_21">
    <g clip-path="url(#p79fb8a6bcd)">
     <!-- RFoot -->
     <g transform="translate(258.175425 771.365392)scale(0.1 -0.1)">
      <use xlink:href="#DejaVuSans-82"/>
      <use x="69.482422" xlink:href="#DejaVuSans-70"/>
      <use x="123.376953" xlink:href="#DejaVuSans-111"/>
      <use x="184.558594" xlink:href="#DejaVuSans-111"/>
      <use x="245.740234" xlink:href="#DejaVuSans-116"/>
     </g>
    </g>
   </g>
   <g id="text_22">
    <g clip-path="url(#p79fb8a6bcd)">
     <!-- LHandTip -->
     <g transform="translate(247.452519 341.883824)scale(0.1 -0.1)">
      <defs>
       <path d="M -0.296875 72.90625 
L 61.375 72.90625 
L 61.375 64.59375 
L 35.5 64.59375 
L 35.5 0 
L 25.59375 0 
L 25.59375 64.59375 
L -0.296875 64.59375 
z
" id="DejaVuSans-84"/>
      </defs>
      <use xlink:href="#DejaVuSans-76"/>
      <use x="55.712891" xlink:href="#DejaVuSans-72"/>
      <use x="130.908203" xlink:href="#DejaVuSans-97"/>
      <use x="192.1875" xlink:href="#DejaVuSans-110"/>
      <use x="255.566406" xlink:href="#DejaVuSans-100"/>
      <use x="319.042969" xlink:href="#DejaVuSans-84"/>
      <use x="377.001953" xlink:href="#DejaVuSans-105"/>
      <use x="404.785156" xlink:href="#DejaVuSans-112"/>
     </g>
    </g>
   </g>
   <g id="text_23">
    <g clip-path="url(#p79fb8a6bcd)">
     <!-- LThumb -->
     <g transform="translate(241.451253 326.425316)scale(0.1 -0.1)">
      <defs>
       <path d="M 52 44.1875 
Q 55.375 50.25 60.0625 53.125 
Q 64.75 56 71.09375 56 
Q 79.640625 56 84.28125 50.015625 
Q 88.921875 44.046875 88.921875 33.015625 
L 88.921875 0 
L 79.890625 0 
L 79.890625 32.71875 
Q 79.890625 40.578125 77.09375 44.375 
Q 74.3125 48.1875 68.609375 48.1875 
Q 61.625 48.1875 57.5625 43.546875 
Q 53.515625 38.921875 53.515625 30.90625 
L 53.515625 0 
L 44.484375 0 
L 44.484375 32.71875 
Q 44.484375 40.625 41.703125 44.40625 
Q 38.921875 48.1875 33.109375 48.1875 
Q 26.21875 48.1875 22.15625 43.53125 
Q 18.109375 38.875 18.109375 30.90625 
L 18.109375 0 
L 9.078125 0 
L 9.078125 54.6875 
L 18.109375 54.6875 
L 18.109375 46.1875 
Q 21.1875 51.21875 25.484375 53.609375 
Q 29.78125 56 35.6875 56 
Q 41.65625 56 45.828125 52.96875 
Q 50 49.953125 52 44.1875 
z
" id="DejaVuSans-109"/>
      </defs>
      <use xlink:href="#DejaVuSans-76"/>
      <use x="41.962891" xlink:href="#DejaVuSans-84"/>
      <use x="103.046875" xlink:href="#DejaVuSans-104"/>
      <use x="166.425781" xlink:href="#DejaVuSans-117"/>
      <use x="229.804688" xlink:href="#DejaVuSans-109"/>
      <use x="327.216797" xlink:href="#DejaVuSans-98"/>
     </g>
    </g>
   </g>
   <g id="text_24">
    <g clip-path="url(#p79fb8a6bcd)">
     <!-- RHandTip -->
     <g transform="translate(402.714437 473.918604)scale(0.1 -0.1)">
      <use xlink:href="#DejaVuSans-82"/>
      <use x="69.482422" xlink:href="#DejaVuSans-72"/>
      <use x="144.677734" xlink:href="#DejaVuSans-97"/>
      <use x="205.957031" xlink:href="#DejaVuSans-110"/>
      <use x="269.335938" xlink:href="#DejaVuSans-100"/>
      <use x="332.8125" xlink:href="#DejaVuSans-84"/>
      <use x="390.771484" xlink:href="#DejaVuSans-105"/>
      <use x="418.554688" xlink:href="#DejaVuSans-112"/>
     </g>
    </g>
   </g>
   <g id="text_25">
    <g clip-path="url(#p79fb8a6bcd)">
     <!-- RThumb -->
     <g transform="translate(389.750285 442.909455)scale(0.1 -0.1)">
      <use xlink:href="#DejaVuSans-82"/>
      <use x="62.232422" xlink:href="#DejaVuSans-84"/>
      <use x="123.316406" xlink:href="#DejaVuSans-104"/>
      <use x="186.695312" xlink:href="#DejaVuSans-117"/>
      <use x="250.074219" xlink:href="#DejaVuSans-109"/>
      <use x="347.486328" xlink:href="#DejaVuSans-98"/>
     </g>
    </g>
   </g>
   <g id="text_26">
    <!-- Node Graph Visualization - Frame 224 -->
    <g transform="translate(174.194063 -6)scale(0.12 -0.12)">
     <defs>
      <path d="M 9.8125 72.90625 
L 23.09375 72.90625 
L 55.421875 11.921875 
L 55.421875 72.90625 
L 64.984375 72.90625 
L 64.984375 0 
L 51.703125 0 
L 19.390625 60.984375 
L 19.390625 0 
L 9.8125 0 
z
" id="DejaVuSans-78"/>
      <path id="DejaVuSans-32"/>
      <path d="M 59.515625 10.40625 
L 59.515625 29.984375 
L 43.40625 29.984375 
L 43.40625 38.09375 
L 69.28125 38.09375 
L 69.28125 6.78125 
Q 63.578125 2.734375 56.6875 0.65625 
Q 49.8125 -1.421875 42 -1.421875 
Q 24.90625 -1.421875 15.25 8.5625 
Q 5.609375 18.5625 5.609375 36.375 
Q 5.609375 54.25 15.25 64.234375 
Q 24.90625 74.21875 42 74.21875 
Q 49.125 74.21875 55.546875 72.453125 
Q 61.96875 70.703125 67.390625 67.28125 
L 67.390625 56.78125 
Q 61.921875 61.421875 55.765625 63.765625 
Q 49.609375 66.109375 42.828125 66.109375 
Q 29.4375 66.109375 22.71875 58.640625 
Q 16.015625 51.171875 16.015625 36.375 
Q 16.015625 21.625 22.71875 14.15625 
Q 29.4375 6.6875 42.828125 6.6875 
Q 48.046875 6.6875 52.140625 7.59375 
Q 56.25 8.5 59.515625 10.40625 
z
" id="DejaVuSans-71"/>
      <path d="M 28.609375 0 
L 0.78125 72.90625 
L 11.078125 72.90625 
L 34.1875 11.53125 
L 57.328125 72.90625 
L 67.578125 72.90625 
L 39.796875 0 
z
" id="DejaVuSans-86"/>
      <path d="M 5.515625 54.6875 
L 48.1875 54.6875 
L 48.1875 46.484375 
L 14.40625 7.171875 
L 48.1875 7.171875 
L 48.1875 0 
L 4.296875 0 
L 4.296875 8.203125 
L 38.09375 47.515625 
L 5.515625 47.515625 
z
" id="DejaVuSans-122"/>
      <path d="M 4.890625 31.390625 
L 31.203125 31.390625 
L 31.203125 23.390625 
L 4.890625 23.390625 
z
" id="DejaVuSans-45"/>
      <path d="M 19.1875 8.296875 
L 53.609375 8.296875 
L 53.609375 0 
L 7.328125 0 
L 7.328125 8.296875 
Q 12.9375 14.109375 22.625 23.890625 
Q 32.328125 33.6875 34.8125 36.53125 
Q 39.546875 41.84375 41.421875 45.53125 
Q 43.3125 49.21875 43.3125 52.78125 
Q 43.3125 58.59375 39.234375 62.25 
Q 35.15625 65.921875 28.609375 65.921875 
Q 23.96875 65.921875 18.8125 64.3125 
Q 13.671875 62.703125 7.8125 59.421875 
L 7.8125 69.390625 
Q 13.765625 71.78125 18.9375 73 
Q 24.125 74.21875 28.421875 74.21875 
Q 39.75 74.21875 46.484375 68.546875 
Q 53.21875 62.890625 53.21875 53.421875 
Q 53.21875 48.921875 51.53125 44.890625 
Q 49.859375 40.875 45.40625 35.40625 
Q 44.1875 33.984375 37.640625 27.21875 
Q 31.109375 20.453125 19.1875 8.296875 
z
" id="DejaVuSans-50"/>
      <path d="M 37.796875 64.3125 
L 12.890625 25.390625 
L 37.796875 25.390625 
z
M 35.203125 72.90625 
L 47.609375 72.90625 
L 47.609375 25.390625 
L 58.015625 25.390625 
L 58.015625 17.1875 
L 47.609375 17.1875 
L 47.609375 0 
L 37.796875 0 
L 37.796875 17.1875 
L 4.890625 17.1875 
L 4.890625 26.703125 
z
" id="DejaVuSans-52"/>
     </defs>
     <use xlink:href="#DejaVuSans-78"/>
     <use x="74.804688" xlink:href="#DejaVuSans-111"/>
     <use x="135.986328" xlink:href="#DejaVuSans-100"/>
     <use x="199.462891" xlink:href="#DejaVuSans-101"/>
     <use x="260.986328" xlink:href="#DejaVuSans-32"/>
     <use x="292.773438" xlink:href="#DejaVuSans-71"/>
     <use x="370.263672" xlink:href="#DejaVuSans-114"/>
     <use x="411.376953" xlink:href="#DejaVuSans-97"/>
     <use x="472.65625" xlink:href="#DejaVuSans-112"/>
     <use x="536.132812" xlink:href="#DejaVuSans-104"/>
     <use x="599.511719" xlink:href="#DejaVuSans-32"/>
     <use x="631.298828" xlink:href="#DejaVuSans-86"/>
     <use x="697.457031" xlink:href="#DejaVuSans-105"/>
     <use x="725.240234" xlink:href="#DejaVuSans-115"/>
     <use x="777.339844" xlink:href="#DejaVuSans-117"/>
     <use x="840.71875" xlink:href="#DejaVuSans-97"/>
     <use x="901.998047" xlink:href="#DejaVuSans-108"/>
     <use x="929.78125" xlink:href="#DejaVuSans-105"/>
     <use x="957.564453" xlink:href="#DejaVuSans-122"/>
     <use x="1010.054688" xlink:href="#DejaVuSans-97"/>
     <use x="1071.333984" xlink:href="#DejaVuSans-116"/>
     <use x="1110.542969" xlink:href="#DejaVuSans-105"/>
     <use x="1138.326172" xlink:href="#DejaVuSans-111"/>
     <use x="1199.507812" xlink:href="#DejaVuSans-110"/>
     <use x="1262.886719" xlink:href="#DejaVuSans-32"/>
     <use x="1294.673828" xlink:href="#DejaVuSans-45"/>
     <use x="1330.757812" xlink:href="#DejaVuSans-32"/>
     <use x="1362.544922" xlink:href="#DejaVuSans-70"/>
     <use x="1412.814453" xlink:href="#DejaVuSans-114"/>
     <use x="1453.927734" xlink:href="#DejaVuSans-97"/>
     <use x="1515.207031" xlink:href="#DejaVuSans-109"/>
     <use x="1612.619141" xlink:href="#DejaVuSans-101"/>
     <use x="1674.142578" xlink:href="#DejaVuSans-32"/>
     <use x="1705.929688" xlink:href="#DejaVuSans-50"/>
     <use x="1769.552734" xlink:href="#DejaVuSans-50"/>
     <use x="1833.175781" xlink:href="#DejaVuSans-52"/>
    </g>
   </g>
  </g>
 </g>
 <defs>
  <clipPath id="p79fb8a6bcd">
   <rect height="864" width="576" x="0" y="0"/>
  </clipPath>
 </defs>
</svg>
