<?xml version="1.0" encoding="utf-8" standalone="no"?>
<!DOCTYPE svg PUBLIC "-//W3C//DTD SVG 1.1//EN"
  "http://www.w3.org/Graphics/SVG/1.1/DTD/svg11.dtd">
<!-- Created with matplotlib (https://matplotlib.org/) -->
<svg height="864pt" version="1.1" viewBox="0 0 576 864" width="576pt" xmlns="http://www.w3.org/2000/svg" xmlns:xlink="http://www.w3.org/1999/xlink">
 <metadata>
  <rdf:RDF xmlns:cc="http://creativecommons.org/ns#" xmlns:dc="http://purl.org/dc/elements/1.1/" xmlns:rdf="http://www.w3.org/1999/02/22-rdf-syntax-ns#">
   <cc:Work>
    <dc:type rdf:resource="http://purl.org/dc/dcmitype/StillImage"/>
    <dc:date>2024-02-04T22:28:25.675919</dc:date>
    <dc:format>image/svg+xml</dc:format>
    <dc:creator>
     <cc:Agent>
      <dc:title>Matplotlib v3.3.2, https://matplotlib.org/</dc:title>
     </cc:Agent>
    </dc:creator>
   </cc:Work>
  </rdf:RDF>
 </metadata>
 <defs>
  <style type="text/css">*{stroke-linecap:butt;stroke-linejoin:round;}</style>
 </defs>
 <g id="figure_1">
  <g id="patch_1">
   <path d="M 0 864 
L 576 864 
L 576 0 
L 0 0 
z
" style="fill:#ffffff;"/>
  </g>
  <g id="axes_1">
   <g id="patch_2">
    <path clip-path="url(#pd7788b2435)" d="M 299.166551 88.201088 
Q 299.286297 96.232742 299.389376 103.146486 
" style="fill:none;stroke:#000000;stroke-linecap:round;"/>
    <path clip-path="url(#pd7788b2435)" d="M 301.329524 99.117116 
L 299.389376 103.146486 
L 297.329968 99.176746 
L 301.329524 99.117116 
z
" style="stroke:#000000;stroke-linecap:round;"/>
   </g>
   <g id="patch_3">
    <path clip-path="url(#pd7788b2435)" d="M 299.720594 130.72046 
Q 299.745276 133.502696 299.76004 135.166941 
" style="fill:none;stroke:#000000;stroke-linecap:round;"/>
    <path clip-path="url(#pd7788b2435)" d="M 301.724478 131.149356 
L 299.76004 135.166941 
L 297.724635 131.18484 
L 301.724478 131.149356 
z
" style="stroke:#000000;stroke-linecap:round;"/>
   </g>
   <g id="patch_4">
    <path clip-path="url(#pd7788b2435)" d="M 299.406025 104.263126 
Q 299.286279 96.231472 299.1832 89.317727 
" style="fill:none;stroke:#000000;stroke-linecap:round;"/>
    <path clip-path="url(#pd7788b2435)" d="M 297.243052 93.347098 
L 299.1832 89.317727 
L 301.242608 93.287468 
L 297.243052 93.347098 
z
" style="stroke:#000000;stroke-linecap:round;"/>
   </g>
   <g id="patch_5">
    <path clip-path="url(#pd7788b2435)" d="M 300.012298 162.737151 
Q 300.353096 198.795188 300.683328 233.73524 
" style="fill:none;stroke:#000000;stroke-linecap:round;"/>
    <path clip-path="url(#pd7788b2435)" d="M 302.645435 229.716517 
L 300.683328 233.73524 
L 298.645614 229.754321 
L 302.645435 229.716517 
z
" style="stroke:#000000;stroke-linecap:round;"/>
   </g>
   <g id="patch_6">
    <path clip-path="url(#pd7788b2435)" d="M 286.659882 149.355397 
Q 207.451469 148.427826 129.361014 147.513347 
" style="fill:none;stroke:#000000;stroke-linecap:round;"/>
    <path clip-path="url(#pd7788b2435)" d="M 133.337321 149.560049 
L 129.361014 147.513347 
L 133.384159 145.560323 
L 133.337321 149.560049 
z
" style="stroke:#000000;stroke-linecap:round;"/>
   </g>
   <g id="patch_7">
    <path clip-path="url(#pd7788b2435)" d="M 313.110111 149.865639 
Q 396.278706 152.100662 478.329671 154.30565 
" style="fill:none;stroke:#000000;stroke-linecap:round;"/>
    <path clip-path="url(#pd7788b2435)" d="M 474.384842 152.198917 
L 478.329671 154.30565 
L 474.277387 156.197473 
L 474.384842 152.198917 
z
" style="stroke:#000000;stroke-linecap:round;"/>
   </g>
   <g id="patch_8">
    <path clip-path="url(#pd7788b2435)" d="M 299.769904 136.278843 
Q 299.745222 133.496608 299.730458 131.832363 
" style="fill:none;stroke:#000000;stroke-linecap:round;"/>
    <path clip-path="url(#pd7788b2435)" d="M 297.766021 135.849947 
L 299.730458 131.832363 
L 301.765864 135.814463 
L 297.766021 135.849947 
z
" style="stroke:#000000;stroke-linecap:round;"/>
   </g>
   <g id="patch_9">
    <path clip-path="url(#pd7788b2435)" d="M 300.965523 261.30972 
Q 301.561861 315.118499 302.145809 367.809313 
" style="fill:none;stroke:#000000;stroke-linecap:round;"/>
    <path clip-path="url(#pd7788b2435)" d="M 304.101359 363.787395 
L 302.145809 367.809313 
L 300.101604 363.831722 
L 304.101359 363.787395 
z
" style="stroke:#000000;stroke-linecap:round;"/>
   </g>
   <g id="patch_10">
    <path clip-path="url(#pd7788b2435)" d="M 300.693908 234.854639 
Q 300.35311 198.796602 300.022878 163.85655 
" style="fill:none;stroke:#000000;stroke-linecap:round;"/>
    <path clip-path="url(#pd7788b2435)" d="M 298.060771 167.875273 
L 300.022878 163.85655 
L 302.060592 167.837469 
L 298.060771 167.875273 
z
" style="stroke:#000000;stroke-linecap:round;"/>
   </g>
   <g id="patch_11">
    <path clip-path="url(#pd7788b2435)" d="M 289.077021 381.885989 
Q 260.131467 381.295376 232.303714 380.727572 
" style="fill:none;stroke:#000000;stroke-linecap:round;"/>
    <path clip-path="url(#pd7788b2435)" d="M 236.262081 382.808756 
L 232.303714 380.727572 
L 236.343681 378.809588 
L 236.262081 382.808756 
z
" style="stroke:#000000;stroke-linecap:round;"/>
   </g>
   <g id="patch_12">
    <path clip-path="url(#pd7788b2435)" d="M 315.534488 382.261024 
Q 344.338416 382.489919 372.024345 382.70993 
" style="fill:none;stroke:#000000;stroke-linecap:round;"/>
    <path clip-path="url(#pd7788b2435)" d="M 368.040364 380.678207 
L 372.024345 382.70993 
L 368.008578 384.678081 
L 368.040364 380.678207 
z
" style="stroke:#000000;stroke-linecap:round;"/>
   </g>
   <g id="patch_13">
    <path clip-path="url(#pd7788b2435)" d="M 302.158203 368.927665 
Q 301.561865 315.118886 300.977917 262.428072 
" style="fill:none;stroke:#000000;stroke-linecap:round;"/>
    <path clip-path="url(#pd7788b2435)" d="M 299.022367 266.449991 
L 300.977917 262.428072 
L 303.022122 266.405663 
L 299.022367 266.449991 
z
" style="stroke:#000000;stroke-linecap:round;"/>
   </g>
   <g id="patch_14">
    <path clip-path="url(#pd7788b2435)" d="M 107.40707 158.172397 
Q 82.497166 193.62735 58.229994 228.167484 
" style="fill:none;stroke:#000000;stroke-linecap:round;"/>
    <path clip-path="url(#pd7788b2435)" d="M 62.165984 226.044283 
L 58.229994 228.167484 
L 58.893026 223.744772 
L 62.165984 226.044283 
z
" style="stroke:#000000;stroke-linecap:round;"/>
   </g>
   <g id="patch_15">
    <path clip-path="url(#pd7788b2435)" d="M 128.24134 147.500235 
Q 207.449752 148.427806 285.540207 149.342285 
" style="fill:none;stroke:#000000;stroke-linecap:round;"/>
    <path clip-path="url(#pd7788b2435)" d="M 281.563901 147.295583 
L 285.540207 149.342285 
L 281.517062 151.295309 
L 281.563901 147.295583 
z
" style="stroke:#000000;stroke-linecap:round;"/>
   </g>
   <g id="patch_16">
    <path clip-path="url(#pd7788b2435)" d="M 62.614291 243.828412 
Q 148.408371 270.478034 233.13474 296.796001 
" style="fill:none;stroke:#000000;stroke-linecap:round;"/>
    <path clip-path="url(#pd7788b2435)" d="M 229.908068 293.699457 
L 233.13474 296.796001 
L 228.721501 297.519412 
L 229.908068 293.699457 
z
" style="stroke:#000000;stroke-linecap:round;"/>
   </g>
   <g id="patch_17">
    <path clip-path="url(#pd7788b2435)" d="M 57.590337 229.077926 
Q 82.500241 193.622973 106.767413 159.082839 
" style="fill:none;stroke:#000000;stroke-linecap:round;"/>
    <path clip-path="url(#pd7788b2435)" d="M 102.831423 161.206041 
L 106.767413 159.082839 
L 106.104381 163.505552 
L 102.831423 161.206041 
z
" style="stroke:#000000;stroke-linecap:round;"/>
   </g>
   <g id="patch_18">
    <path clip-path="url(#pd7788b2435)" d="M 259.700042 304.146917 
Q 279.3287 308.869202 297.87034 313.329971 
" style="fill:none;stroke:#000000;stroke-linecap:round;"/>
    <path clip-path="url(#pd7788b2435)" d="M 294.449118 310.449824 
L 297.87034 313.329971 
L 293.51349 314.33886 
L 294.449118 310.449824 
z
" style="stroke:#000000;stroke-linecap:round;"/>
   </g>
   <g id="patch_19">
    <path clip-path="url(#pd7788b2435)" d="M 234.207215 297.129136 
Q 148.413136 270.479514 63.686767 244.161548 
" style="fill:none;stroke:#000000;stroke-linecap:round;"/>
    <path clip-path="url(#pd7788b2435)" d="M 66.913439 247.258092 
L 63.686767 244.161548 
L 68.100005 243.438136 
L 66.913439 247.258092 
z
" style="stroke:#000000;stroke-linecap:round;"/>
   </g>
   <g id="patch_20">
    <path clip-path="url(#pd7788b2435)" d="M 324.235826 321.238159 
Q 326.67502 322.132428 328.064504 322.641848 
" style="fill:none;stroke:#000000;stroke-linecap:round;"/>
    <path clip-path="url(#pd7788b2435)" d="M 324.997388 319.387189 
L 328.064504 322.641848 
L 323.620507 323.142745 
L 324.997388 319.387189 
z
" style="stroke:#000000;stroke-linecap:round;"/>
   </g>
   <g id="patch_21">
    <path clip-path="url(#pd7788b2435)" d="M 324.687532 313.613648 
Q 335.219451 311.099621 344.66389 308.845181 
" style="fill:none;stroke:#000000;stroke-linecap:round;"/>
    <path clip-path="url(#pd7788b2435)" d="M 340.308836 307.828566 
L 344.66389 308.845181 
L 341.237565 311.719255 
L 340.308836 307.828566 
z
" style="stroke:#000000;stroke-linecap:round;"/>
   </g>
   <g id="patch_22">
    <path clip-path="url(#pd7788b2435)" d="M 298.95633 313.59124 
Q 279.327672 308.868955 260.786032 304.408186 
" style="fill:none;stroke:#000000;stroke-linecap:round;"/>
    <path clip-path="url(#pd7788b2435)" d="M 264.207253 307.288332 
L 260.786032 304.408186 
L 265.142882 303.399297 
L 264.207253 307.288332 
z
" style="stroke:#000000;stroke-linecap:round;"/>
   </g>
   <g id="patch_23">
    <path clip-path="url(#pd7788b2435)" d="M 496.430727 167.372557 
Q 509.344269 210.95099 521.940158 253.457464 
" style="fill:none;stroke:#000000;stroke-linecap:round;"/>
    <path clip-path="url(#pd7788b2435)" d="M 522.721269 249.054071 
L 521.940158 253.457464 
L 518.886111 250.190539 
L 522.721269 249.054071 
z
" style="stroke:#000000;stroke-linecap:round;"/>
   </g>
   <g id="patch_24">
    <path clip-path="url(#pd7788b2435)" d="M 479.450021 154.335757 
Q 396.281426 152.100735 314.230461 149.895747 
" style="fill:none;stroke:#000000;stroke-linecap:round;"/>
    <path clip-path="url(#pd7788b2435)" d="M 318.17529 152.00248 
L 314.230461 149.895747 
L 318.282745 148.003923 
L 318.17529 152.00248 
z
" style="stroke:#000000;stroke-linecap:round;"/>
   </g>
   <g id="patch_25">
    <path clip-path="url(#pd7788b2435)" d="M 513.519731 271.564421 
Q 458.819392 290.608126 405.174926 309.284233 
" style="fill:none;stroke:#000000;stroke-linecap:round;"/>
    <path clip-path="url(#pd7788b2435)" d="M 409.610119 309.857878 
L 405.174926 309.284233 
L 408.294958 306.080266 
L 409.610119 309.857878 
z
" style="stroke:#000000;stroke-linecap:round;"/>
   </g>
   <g id="patch_26">
    <path clip-path="url(#pd7788b2435)" d="M 522.258649 254.532253 
Q 509.345107 210.95382 496.749218 168.447346 
" style="fill:none;stroke:#000000;stroke-linecap:round;"/>
    <path clip-path="url(#pd7788b2435)" d="M 495.968106 172.850739 
L 496.749218 168.447346 
L 499.803265 171.714271 
L 495.968106 172.850739 
z
" style="stroke:#000000;stroke-linecap:round;"/>
   </g>
   <g id="patch_27">
    <path clip-path="url(#pd7788b2435)" d="M 378.454977 315.265028 
Q 365.822322 316.476596 354.302594 317.581425 
" style="fill:none;stroke:#000000;stroke-linecap:round;"/>
    <path clip-path="url(#pd7788b2435)" d="M 358.475262 319.190412 
L 354.302594 317.581425 
L 358.093384 315.208682 
L 358.475262 319.190412 
z
" style="stroke:#000000;stroke-linecap:round;"/>
   </g>
   <g id="patch_28">
    <path clip-path="url(#pd7788b2435)" d="M 404.120461 309.651341 
Q 458.820801 290.607635 512.465266 271.931529 
" style="fill:none;stroke:#000000;stroke-linecap:round;"/>
    <path clip-path="url(#pd7788b2435)" d="M 508.030073 271.357883 
L 512.465266 271.931529 
L 509.345234 275.135495 
L 508.030073 271.357883 
z
" style="stroke:#000000;stroke-linecap:round;"/>
   </g>
   <g id="patch_29">
    <path clip-path="url(#pd7788b2435)" d="M 327.156734 322.023584 
Q 320.205427 323.683897 314.341566 325.084474 
" style="fill:none;stroke:#000000;stroke-linecap:round;"/>
    <path clip-path="url(#pd7788b2435)" d="M 318.696757 326.100499 
L 314.341566 325.084474 
L 317.7675 322.209936 
L 318.696757 326.100499 
z
" style="stroke:#000000;stroke-linecap:round;"/>
   </g>
   <g id="patch_30">
    <path clip-path="url(#pd7788b2435)" d="M 353.117057 320.79801 
Q 359.158608 321.649889 364.093077 322.345665 
" style="fill:none;stroke:#000000;stroke-linecap:round;"/>
    <path clip-path="url(#pd7788b2435)" d="M 360.411502 319.806767 
L 364.093077 322.345665 
L 359.853014 323.767586 
L 360.411502 319.806767 
z
" style="stroke:#000000;stroke-linecap:round;"/>
   </g>
   <g id="patch_31">
    <path clip-path="url(#pd7788b2435)" d="M 353.188487 317.688276 
Q 365.821142 316.476709 377.34087 315.371879 
" style="fill:none;stroke:#000000;stroke-linecap:round;"/>
    <path clip-path="url(#pd7788b2435)" d="M 373.168202 313.762893 
L 377.34087 315.371879 
L 373.55008 317.744622 
L 373.168202 313.762893 
z
" style="stroke:#000000;stroke-linecap:round;"/>
   </g>
   <g id="patch_32">
    <path clip-path="url(#pd7788b2435)" d="M 214.227345 393.128352 
Q 191.985875 468.764128 170.059819 543.327285 
" style="fill:none;stroke:#000000;stroke-linecap:round;"/>
    <path clip-path="url(#pd7788b2435)" d="M 173.107043 540.053994 
L 170.059819 543.327285 
L 169.269521 538.925532 
L 173.107043 540.053994 
z
" style="stroke:#000000;stroke-linecap:round;"/>
   </g>
   <g id="patch_33">
    <path clip-path="url(#pd7788b2435)" d="M 231.187768 380.704802 
Q 260.133323 381.295414 287.961076 381.863219 
" style="fill:none;stroke:#000000;stroke-linecap:round;"/>
    <path clip-path="url(#pd7788b2435)" d="M 284.002708 379.782035 
L 287.961076 381.863219 
L 283.921108 383.781203 
L 284.002708 379.782035 
z
" style="stroke:#000000;stroke-linecap:round;"/>
   </g>
   <g id="patch_34">
    <path clip-path="url(#pd7788b2435)" d="M 166.146678 570.317545 
Q 166.994878 653.719029 167.831709 736.002536 
" style="fill:none;stroke:#000000;stroke-linecap:round;"/>
    <path clip-path="url(#pd7788b2435)" d="M 169.790927 731.982404 
L 167.831709 736.002536 
L 165.791134 732.023082 
L 169.790927 731.982404 
z
" style="stroke:#000000;stroke-linecap:round;"/>
   </g>
   <g id="patch_35">
    <path clip-path="url(#pd7788b2435)" d="M 169.744812 544.39852 
Q 191.986282 468.762744 213.912337 394.199588 
" style="fill:none;stroke:#000000;stroke-linecap:round;"/>
    <path clip-path="url(#pd7788b2435)" d="M 210.865114 397.472878 
L 213.912337 394.199588 
L 214.702636 398.601341 
L 210.865114 397.472878 
z
" style="stroke:#000000;stroke-linecap:round;"/>
   </g>
   <g id="patch_36">
    <path clip-path="url(#pd7788b2435)" d="M 165.664658 763.373707 
Q 164.543515 769.687844 163.617834 774.901167 
" style="fill:none;stroke:#000000;stroke-linecap:round;"/>
    <path clip-path="url(#pd7788b2435)" d="M 166.286338 771.312422 
L 163.617834 774.901167 
L 162.34794 770.613117 
L 166.286338 771.312422 
z
" style="stroke:#000000;stroke-linecap:round;"/>
   </g>
   <g id="patch_37">
    <path clip-path="url(#pd7788b2435)" d="M 167.843093 737.121934 
Q 166.994893 653.720451 166.158062 571.436944 
" style="fill:none;stroke:#000000;stroke-linecap:round;"/>
    <path clip-path="url(#pd7788b2435)" d="M 164.198844 575.457076 
L 166.158062 571.436944 
L 168.198637 575.416398 
L 164.198844 575.457076 
z
" style="stroke:#000000;stroke-linecap:round;"/>
   </g>
   <g id="patch_38">
    <path clip-path="url(#pd7788b2435)" d="M 163.422975 775.998593 
Q 164.544117 769.684455 165.469798 764.471133 
" style="fill:none;stroke:#000000;stroke-linecap:round;"/>
    <path clip-path="url(#pd7788b2435)" d="M 162.801295 768.059878 
L 165.469798 764.471133 
L 166.739692 768.759182 
L 162.801295 768.059878 
z
" style="stroke:#000000;stroke-linecap:round;"/>
   </g>
   <g id="patch_39">
    <path clip-path="url(#pd7788b2435)" d="M 386.824938 396.041949 
Q 388.607458 447.52574 390.351291 497.892166 
" style="fill:none;stroke:#000000;stroke-linecap:round;"/>
    <path clip-path="url(#pd7788b2435)" d="M 392.211685 493.825357 
L 390.351291 497.892166 
L 388.21408 493.963766 
L 392.211685 493.825357 
z
" style="stroke:#000000;stroke-linecap:round;"/>
   </g>
   <g id="patch_40">
    <path clip-path="url(#pd7788b2435)" d="M 373.137608 382.718777 
Q 344.333681 382.489881 316.647752 382.269871 
" style="fill:none;stroke:#000000;stroke-linecap:round;"/>
    <path clip-path="url(#pd7788b2435)" d="M 320.631733 384.301593 
L 316.647752 382.269871 
L 320.663518 380.301719 
L 320.631733 384.301593 
z
" style="stroke:#000000;stroke-linecap:round;"/>
   </g>
   <g id="patch_41">
    <path clip-path="url(#pd7788b2435)" d="M 385.052318 524.125178 
Q 352.381328 591.171333 320.200093 657.21243 
" style="fill:none;stroke:#000000;stroke-linecap:round;"/>
    <path clip-path="url(#pd7788b2435)" d="M 323.750195 654.49273 
L 320.200093 657.21243 
L 320.154394 652.740528 
L 323.750195 654.49273 
z
" style="stroke:#000000;stroke-linecap:round;"/>
   </g>
   <g id="patch_42">
    <path clip-path="url(#pd7788b2435)" d="M 390.39013 499.013919 
Q 388.60761 447.530128 386.863777 397.163702 
" style="fill:none;stroke:#000000;stroke-linecap:round;"/>
    <path clip-path="url(#pd7788b2435)" d="M 385.003383 401.230511 
L 386.863777 397.163702 
L 389.000988 401.092102 
L 385.003383 401.230511 
z
" style="stroke:#000000;stroke-linecap:round;"/>
   </g>
   <g id="patch_43">
    <path clip-path="url(#pd7788b2435)" d="M 310.578825 682.909375 
Q 309.318343 687.744285 308.33991 691.497322 
" style="fill:none;stroke:#000000;stroke-linecap:round;"/>
    <path clip-path="url(#pd7788b2435)" d="M 311.284311 688.131241 
L 308.33991 691.497322 
L 307.413686 687.122152 
L 311.284311 688.131241 
z
" style="stroke:#000000;stroke-linecap:round;"/>
   </g>
   <g id="patch_44">
    <path clip-path="url(#pd7788b2435)" d="M 319.711659 658.214776 
Q 352.382649 591.168621 384.563884 525.127524 
" style="fill:none;stroke:#000000;stroke-linecap:round;"/>
    <path clip-path="url(#pd7788b2435)" d="M 381.013781 527.847224 
L 384.563884 525.127524 
L 384.609583 529.599426 
L 381.013781 527.847224 
z
" style="stroke:#000000;stroke-linecap:round;"/>
   </g>
   <g id="patch_45">
    <path clip-path="url(#pd7788b2435)" d="M 308.057552 692.580381 
Q 309.318034 687.745471 310.296467 683.992434 
" style="fill:none;stroke:#000000;stroke-linecap:round;"/>
    <path clip-path="url(#pd7788b2435)" d="M 307.352065 687.358515 
L 310.296467 683.992434 
L 311.222691 688.367603 
L 307.352065 687.358515 
z
" style="stroke:#000000;stroke-linecap:round;"/>
   </g>
   <g id="patch_46">
    <path clip-path="url(#pd7788b2435)" d="M 329.11866 323.028328 
Q 326.679467 322.134058 325.289983 321.624639 
" style="fill:none;stroke:#000000;stroke-linecap:round;"/>
    <path clip-path="url(#pd7788b2435)" d="M 328.357098 324.879297 
L 325.289983 321.624639 
L 329.733979 321.123742 
L 328.357098 324.879297 
z
" style="stroke:#000000;stroke-linecap:round;"/>
   </g>
   <g id="patch_47">
    <path clip-path="url(#pd7788b2435)" d="M 345.752449 308.585336 
Q 335.22053 311.099363 325.776091 313.353803 
" style="fill:none;stroke:#000000;stroke-linecap:round;"/>
    <path clip-path="url(#pd7788b2435)" d="M 330.131145 314.370419 
L 325.776091 313.353803 
L 329.202416 310.479729 
L 330.131145 314.370419 
z
" style="stroke:#000000;stroke-linecap:round;"/>
   </g>
   <g id="patch_48">
    <path clip-path="url(#pd7788b2435)" d="M 313.253593 325.344335 
Q 320.2049 323.684023 326.068762 322.283445 
" style="fill:none;stroke:#000000;stroke-linecap:round;"/>
    <path clip-path="url(#pd7788b2435)" d="M 321.71357 321.267421 
L 326.068762 322.283445 
L 322.642827 325.157984 
L 321.71357 321.267421 
z
" style="stroke:#000000;stroke-linecap:round;"/>
   </g>
   <g id="patch_49">
    <path clip-path="url(#pd7788b2435)" d="M 365.200361 322.501796 
Q 359.15881 321.649917 354.224341 320.954141 
" style="fill:none;stroke:#000000;stroke-linecap:round;"/>
    <path clip-path="url(#pd7788b2435)" d="M 357.905916 323.493039 
L 354.224341 320.954141 
L 358.464404 319.53222 
L 357.905916 323.493039 
z
" style="stroke:#000000;stroke-linecap:round;"/>
   </g>
   <g id="PathCollection_1">
    <defs>
     <path d="M 0 13.228757 
C 3.508307 13.228757 6.873396 11.834891 9.354143 9.354143 
C 11.834891 6.873396 13.228757 3.508307 13.228757 0 
C 13.228757 -3.508307 11.834891 -6.873396 9.354143 -9.354143 
C 6.873396 -11.834891 3.508307 -13.228757 0 -13.228757 
C -3.508307 -13.228757 -6.873396 -11.834891 -9.354143 -9.354143 
C -11.834891 -6.873396 -13.228757 -3.508307 -13.228757 0 
C -13.228757 3.508307 -11.834891 6.873396 -9.354143 9.354143 
C -6.873396 11.834891 -3.508307 13.228757 0 13.228757 
z
" id="m686c306ad5" style="stroke:#87ceeb;"/>
    </defs>
    <g clip-path="url(#pd7788b2435)">
     <use style="fill:#87ceeb;stroke:#87ceeb;" x="298.969363" xlink:href="#m686c306ad5" y="74.975207"/>
     <use style="fill:#87ceeb;stroke:#87ceeb;" x="299.603213" xlink:href="#m686c306ad5" y="117.489007"/>
     <use style="fill:#87ceeb;stroke:#87ceeb;" x="299.887286" xlink:href="#m686c306ad5" y="149.510297"/>
     <use style="fill:#87ceeb;stroke:#87ceeb;" x="300.81892" xlink:href="#m686c306ad5" y="248.081493"/>
     <use style="fill:#87ceeb;stroke:#87ceeb;" x="302.304805" xlink:href="#m686c306ad5" y="382.155892"/>
     <use style="fill:#87ceeb;stroke:#87ceeb;" x="115.013936" xlink:href="#m686c306ad5" y="147.345335"/>
     <use style="fill:#87ceeb;stroke:#87ceeb;" x="49.983471" xlink:href="#m686c306ad5" y="239.904988"/>
     <use style="fill:#87ceeb;stroke:#87ceeb;" x="246.838035" xlink:href="#m686c306ad5" y="301.052561"/>
     <use style="fill:#87ceeb;stroke:#87ceeb;" x="311.818336" xlink:href="#m686c306ad5" y="316.685596"/>
     <use style="fill:#87ceeb;stroke:#87ceeb;" x="492.672847" xlink:href="#m686c306ad5" y="154.6911"/>
     <use style="fill:#87ceeb;stroke:#87ceeb;" x="526.016529" xlink:href="#m686c306ad5" y="267.21371"/>
     <use style="fill:#87ceeb;stroke:#87ceeb;" x="391.623663" xlink:href="#m686c306ad5" y="314.002051"/>
     <use style="fill:#87ceeb;stroke:#87ceeb;" x="340.019801" xlink:href="#m686c306ad5" y="318.951253"/>
     <use style="fill:#87ceeb;stroke:#87ceeb;" x="217.959984" xlink:href="#m686c306ad5" y="380.434899"/>
     <use style="fill:#87ceeb;stroke:#87ceeb;" x="166.012172" xlink:href="#m686c306ad5" y="557.091974"/>
     <use style="fill:#87ceeb;stroke:#87ceeb;" x="167.977599" xlink:href="#m686c306ad5" y="750.347506"/>
     <use style="fill:#87ceeb;stroke:#87ceeb;" x="161.110034" xlink:href="#m686c306ad5" y="789.024793"/>
     <use style="fill:#87ceeb;stroke:#87ceeb;" x="386.367291" xlink:href="#m686c306ad5" y="382.823908"/>
     <use style="fill:#87ceeb;stroke:#87ceeb;" x="390.847777" xlink:href="#m686c306ad5" y="512.231959"/>
     <use style="fill:#87ceeb;stroke:#87ceeb;" x="313.9162" xlink:href="#m686c306ad5" y="670.107994"/>
     <use style="fill:#87ceeb;stroke:#87ceeb;" x="304.720177" xlink:href="#m686c306ad5" y="705.381761"/>
     <use style="fill:#87ceeb;stroke:#87ceeb;" x="341.53615" xlink:href="#m686c306ad5" y="327.58089"/>
     <use style="fill:#87ceeb;stroke:#87ceeb;" x="358.621645" xlink:href="#m686c306ad5" y="305.513388"/>
     <use style="fill:#87ceeb;stroke:#87ceeb;" x="300.390526" xlink:href="#m686c306ad5" y="328.416666"/>
     <use style="fill:#87ceeb;stroke:#87ceeb;" x="378.297617" xlink:href="#m686c306ad5" y="324.348552"/>
    </g>
   </g>
   <g id="text_1">
    <g clip-path="url(#pd7788b2435)">
     <!-- Head -->
     <g transform="translate(285.894363 77.734582)scale(0.1 -0.1)">
      <defs>
       <path d="M 9.8125 72.90625 
L 19.671875 72.90625 
L 19.671875 43.015625 
L 55.515625 43.015625 
L 55.515625 72.90625 
L 65.375 72.90625 
L 65.375 0 
L 55.515625 0 
L 55.515625 34.71875 
L 19.671875 34.71875 
L 19.671875 0 
L 9.8125 0 
z
" id="DejaVuSans-72"/>
       <path d="M 56.203125 29.59375 
L 56.203125 25.203125 
L 14.890625 25.203125 
Q 15.484375 15.921875 20.484375 11.0625 
Q 25.484375 6.203125 34.421875 6.203125 
Q 39.59375 6.203125 44.453125 7.46875 
Q 49.3125 8.734375 54.109375 11.28125 
L 54.109375 2.78125 
Q 49.265625 0.734375 44.1875 -0.34375 
Q 39.109375 -1.421875 33.890625 -1.421875 
Q 20.796875 -1.421875 13.15625 6.1875 
Q 5.515625 13.8125 5.515625 26.8125 
Q 5.515625 40.234375 12.765625 48.109375 
Q 20.015625 56 32.328125 56 
Q 43.359375 56 49.78125 48.890625 
Q 56.203125 41.796875 56.203125 29.59375 
z
M 47.21875 32.234375 
Q 47.125 39.59375 43.09375 43.984375 
Q 39.0625 48.390625 32.421875 48.390625 
Q 24.90625 48.390625 20.390625 44.140625 
Q 15.875 39.890625 15.1875 32.171875 
z
" id="DejaVuSans-101"/>
       <path d="M 34.28125 27.484375 
Q 23.390625 27.484375 19.1875 25 
Q 14.984375 22.515625 14.984375 16.5 
Q 14.984375 11.71875 18.140625 8.90625 
Q 21.296875 6.109375 26.703125 6.109375 
Q 34.1875 6.109375 38.703125 11.40625 
Q 43.21875 16.703125 43.21875 25.484375 
L 43.21875 27.484375 
z
M 52.203125 31.203125 
L 52.203125 0 
L 43.21875 0 
L 43.21875 8.296875 
Q 40.140625 3.328125 35.546875 0.953125 
Q 30.953125 -1.421875 24.3125 -1.421875 
Q 15.921875 -1.421875 10.953125 3.296875 
Q 6 8.015625 6 15.921875 
Q 6 25.140625 12.171875 29.828125 
Q 18.359375 34.515625 30.609375 34.515625 
L 43.21875 34.515625 
L 43.21875 35.40625 
Q 43.21875 41.609375 39.140625 45 
Q 35.0625 48.390625 27.6875 48.390625 
Q 23 48.390625 18.546875 47.265625 
Q 14.109375 46.140625 10.015625 43.890625 
L 10.015625 52.203125 
Q 14.9375 54.109375 19.578125 55.046875 
Q 24.21875 56 28.609375 56 
Q 40.484375 56 46.34375 49.84375 
Q 52.203125 43.703125 52.203125 31.203125 
z
" id="DejaVuSans-97"/>
       <path d="M 45.40625 46.390625 
L 45.40625 75.984375 
L 54.390625 75.984375 
L 54.390625 0 
L 45.40625 0 
L 45.40625 8.203125 
Q 42.578125 3.328125 38.25 0.953125 
Q 33.9375 -1.421875 27.875 -1.421875 
Q 17.96875 -1.421875 11.734375 6.484375 
Q 5.515625 14.40625 5.515625 27.296875 
Q 5.515625 40.1875 11.734375 48.09375 
Q 17.96875 56 27.875 56 
Q 33.9375 56 38.25 53.625 
Q 42.578125 51.265625 45.40625 46.390625 
z
M 14.796875 27.296875 
Q 14.796875 17.390625 18.875 11.75 
Q 22.953125 6.109375 30.078125 6.109375 
Q 37.203125 6.109375 41.296875 11.75 
Q 45.40625 17.390625 45.40625 27.296875 
Q 45.40625 37.203125 41.296875 42.84375 
Q 37.203125 48.484375 30.078125 48.484375 
Q 22.953125 48.484375 18.875 42.84375 
Q 14.796875 37.203125 14.796875 27.296875 
z
" id="DejaVuSans-100"/>
      </defs>
      <use xlink:href="#DejaVuSans-72"/>
      <use x="75.195312" xlink:href="#DejaVuSans-101"/>
      <use x="136.71875" xlink:href="#DejaVuSans-97"/>
      <use x="197.998047" xlink:href="#DejaVuSans-100"/>
     </g>
    </g>
   </g>
   <g id="text_2">
    <g clip-path="url(#pd7788b2435)">
     <!-- c7 -->
     <g transform="translate(293.672744 120.248382)scale(0.1 -0.1)">
      <defs>
       <path d="M 48.78125 52.59375 
L 48.78125 44.1875 
Q 44.96875 46.296875 41.140625 47.34375 
Q 37.3125 48.390625 33.40625 48.390625 
Q 24.65625 48.390625 19.8125 42.84375 
Q 14.984375 37.3125 14.984375 27.296875 
Q 14.984375 17.28125 19.8125 11.734375 
Q 24.65625 6.203125 33.40625 6.203125 
Q 37.3125 6.203125 41.140625 7.25 
Q 44.96875 8.296875 48.78125 10.40625 
L 48.78125 2.09375 
Q 45.015625 0.34375 40.984375 -0.53125 
Q 36.96875 -1.421875 32.421875 -1.421875 
Q 20.0625 -1.421875 12.78125 6.34375 
Q 5.515625 14.109375 5.515625 27.296875 
Q 5.515625 40.671875 12.859375 48.328125 
Q 20.21875 56 33.015625 56 
Q 37.15625 56 41.109375 55.140625 
Q 45.0625 54.296875 48.78125 52.59375 
z
" id="DejaVuSans-99"/>
       <path d="M 8.203125 72.90625 
L 55.078125 72.90625 
L 55.078125 68.703125 
L 28.609375 0 
L 18.3125 0 
L 43.21875 64.59375 
L 8.203125 64.59375 
z
" id="DejaVuSans-55"/>
      </defs>
      <use xlink:href="#DejaVuSans-99"/>
      <use x="54.980469" xlink:href="#DejaVuSans-55"/>
     </g>
    </g>
   </g>
   <g id="text_3">
    <g clip-path="url(#pd7788b2435)">
     <!-- SpineShoulder -->
     <g transform="translate(263.638067 152.269672)scale(0.1 -0.1)">
      <defs>
       <path d="M 53.515625 70.515625 
L 53.515625 60.890625 
Q 47.90625 63.578125 42.921875 64.890625 
Q 37.9375 66.21875 33.296875 66.21875 
Q 25.25 66.21875 20.875 63.09375 
Q 16.5 59.96875 16.5 54.203125 
Q 16.5 49.359375 19.40625 46.890625 
Q 22.3125 44.4375 30.421875 42.921875 
L 36.375 41.703125 
Q 47.40625 39.59375 52.65625 34.296875 
Q 57.90625 29 57.90625 20.125 
Q 57.90625 9.515625 50.796875 4.046875 
Q 43.703125 -1.421875 29.984375 -1.421875 
Q 24.8125 -1.421875 18.96875 -0.25 
Q 13.140625 0.921875 6.890625 3.21875 
L 6.890625 13.375 
Q 12.890625 10.015625 18.65625 8.296875 
Q 24.421875 6.59375 29.984375 6.59375 
Q 38.421875 6.59375 43.015625 9.90625 
Q 47.609375 13.234375 47.609375 19.390625 
Q 47.609375 24.75 44.3125 27.78125 
Q 41.015625 30.8125 33.5 32.328125 
L 27.484375 33.5 
Q 16.453125 35.6875 11.515625 40.375 
Q 6.59375 45.0625 6.59375 53.421875 
Q 6.59375 63.09375 13.40625 68.65625 
Q 20.21875 74.21875 32.171875 74.21875 
Q 37.3125 74.21875 42.625 73.28125 
Q 47.953125 72.359375 53.515625 70.515625 
z
" id="DejaVuSans-83"/>
       <path d="M 18.109375 8.203125 
L 18.109375 -20.796875 
L 9.078125 -20.796875 
L 9.078125 54.6875 
L 18.109375 54.6875 
L 18.109375 46.390625 
Q 20.953125 51.265625 25.265625 53.625 
Q 29.59375 56 35.59375 56 
Q 45.5625 56 51.78125 48.09375 
Q 58.015625 40.1875 58.015625 27.296875 
Q 58.015625 14.40625 51.78125 6.484375 
Q 45.5625 -1.421875 35.59375 -1.421875 
Q 29.59375 -1.421875 25.265625 0.953125 
Q 20.953125 3.328125 18.109375 8.203125 
z
M 48.6875 27.296875 
Q 48.6875 37.203125 44.609375 42.84375 
Q 40.53125 48.484375 33.40625 48.484375 
Q 26.265625 48.484375 22.1875 42.84375 
Q 18.109375 37.203125 18.109375 27.296875 
Q 18.109375 17.390625 22.1875 11.75 
Q 26.265625 6.109375 33.40625 6.109375 
Q 40.53125 6.109375 44.609375 11.75 
Q 48.6875 17.390625 48.6875 27.296875 
z
" id="DejaVuSans-112"/>
       <path d="M 9.421875 54.6875 
L 18.40625 54.6875 
L 18.40625 0 
L 9.421875 0 
z
M 9.421875 75.984375 
L 18.40625 75.984375 
L 18.40625 64.59375 
L 9.421875 64.59375 
z
" id="DejaVuSans-105"/>
       <path d="M 54.890625 33.015625 
L 54.890625 0 
L 45.90625 0 
L 45.90625 32.71875 
Q 45.90625 40.484375 42.875 44.328125 
Q 39.84375 48.1875 33.796875 48.1875 
Q 26.515625 48.1875 22.3125 43.546875 
Q 18.109375 38.921875 18.109375 30.90625 
L 18.109375 0 
L 9.078125 0 
L 9.078125 54.6875 
L 18.109375 54.6875 
L 18.109375 46.1875 
Q 21.34375 51.125 25.703125 53.5625 
Q 30.078125 56 35.796875 56 
Q 45.21875 56 50.046875 50.171875 
Q 54.890625 44.34375 54.890625 33.015625 
z
" id="DejaVuSans-110"/>
       <path d="M 54.890625 33.015625 
L 54.890625 0 
L 45.90625 0 
L 45.90625 32.71875 
Q 45.90625 40.484375 42.875 44.328125 
Q 39.84375 48.1875 33.796875 48.1875 
Q 26.515625 48.1875 22.3125 43.546875 
Q 18.109375 38.921875 18.109375 30.90625 
L 18.109375 0 
L 9.078125 0 
L 9.078125 75.984375 
L 18.109375 75.984375 
L 18.109375 46.1875 
Q 21.34375 51.125 25.703125 53.5625 
Q 30.078125 56 35.796875 56 
Q 45.21875 56 50.046875 50.171875 
Q 54.890625 44.34375 54.890625 33.015625 
z
" id="DejaVuSans-104"/>
       <path d="M 30.609375 48.390625 
Q 23.390625 48.390625 19.1875 42.75 
Q 14.984375 37.109375 14.984375 27.296875 
Q 14.984375 17.484375 19.15625 11.84375 
Q 23.34375 6.203125 30.609375 6.203125 
Q 37.796875 6.203125 41.984375 11.859375 
Q 46.1875 17.53125 46.1875 27.296875 
Q 46.1875 37.015625 41.984375 42.703125 
Q 37.796875 48.390625 30.609375 48.390625 
z
M 30.609375 56 
Q 42.328125 56 49.015625 48.375 
Q 55.71875 40.765625 55.71875 27.296875 
Q 55.71875 13.875 49.015625 6.21875 
Q 42.328125 -1.421875 30.609375 -1.421875 
Q 18.84375 -1.421875 12.171875 6.21875 
Q 5.515625 13.875 5.515625 27.296875 
Q 5.515625 40.765625 12.171875 48.375 
Q 18.84375 56 30.609375 56 
z
" id="DejaVuSans-111"/>
       <path d="M 8.5 21.578125 
L 8.5 54.6875 
L 17.484375 54.6875 
L 17.484375 21.921875 
Q 17.484375 14.15625 20.5 10.265625 
Q 23.53125 6.390625 29.59375 6.390625 
Q 36.859375 6.390625 41.078125 11.03125 
Q 45.3125 15.671875 45.3125 23.6875 
L 45.3125 54.6875 
L 54.296875 54.6875 
L 54.296875 0 
L 45.3125 0 
L 45.3125 8.40625 
Q 42.046875 3.421875 37.71875 1 
Q 33.40625 -1.421875 27.6875 -1.421875 
Q 18.265625 -1.421875 13.375 4.4375 
Q 8.5 10.296875 8.5 21.578125 
z
M 31.109375 56 
z
" id="DejaVuSans-117"/>
       <path d="M 9.421875 75.984375 
L 18.40625 75.984375 
L 18.40625 0 
L 9.421875 0 
z
" id="DejaVuSans-108"/>
       <path d="M 41.109375 46.296875 
Q 39.59375 47.171875 37.8125 47.578125 
Q 36.03125 48 33.890625 48 
Q 26.265625 48 22.1875 43.046875 
Q 18.109375 38.09375 18.109375 28.8125 
L 18.109375 0 
L 9.078125 0 
L 9.078125 54.6875 
L 18.109375 54.6875 
L 18.109375 46.1875 
Q 20.953125 51.171875 25.484375 53.578125 
Q 30.03125 56 36.53125 56 
Q 37.453125 56 38.578125 55.875 
Q 39.703125 55.765625 41.0625 55.515625 
z
" id="DejaVuSans-114"/>
      </defs>
      <use xlink:href="#DejaVuSans-83"/>
      <use x="63.476562" xlink:href="#DejaVuSans-112"/>
      <use x="126.953125" xlink:href="#DejaVuSans-105"/>
      <use x="154.736328" xlink:href="#DejaVuSans-110"/>
      <use x="218.115234" xlink:href="#DejaVuSans-101"/>
      <use x="279.638672" xlink:href="#DejaVuSans-83"/>
      <use x="343.115234" xlink:href="#DejaVuSans-104"/>
      <use x="406.494141" xlink:href="#DejaVuSans-111"/>
      <use x="467.675781" xlink:href="#DejaVuSans-117"/>
      <use x="531.054688" xlink:href="#DejaVuSans-108"/>
      <use x="558.837891" xlink:href="#DejaVuSans-100"/>
      <use x="622.314453" xlink:href="#DejaVuSans-101"/>
      <use x="683.837891" xlink:href="#DejaVuSans-114"/>
     </g>
    </g>
   </g>
   <g id="text_4">
    <g clip-path="url(#pd7788b2435)">
     <!-- Spine -->
     <g transform="translate(286.836108 250.840868)scale(0.1 -0.1)">
      <use xlink:href="#DejaVuSans-83"/>
      <use x="63.476562" xlink:href="#DejaVuSans-112"/>
      <use x="126.953125" xlink:href="#DejaVuSans-105"/>
      <use x="154.736328" xlink:href="#DejaVuSans-110"/>
      <use x="218.115234" xlink:href="#DejaVuSans-101"/>
     </g>
    </g>
   </g>
   <g id="text_5">
    <g clip-path="url(#pd7788b2435)">
     <!-- Sacr -->
     <g transform="translate(291.261837 384.915267)scale(0.1 -0.1)">
      <use xlink:href="#DejaVuSans-83"/>
      <use x="63.476562" xlink:href="#DejaVuSans-97"/>
      <use x="124.755859" xlink:href="#DejaVuSans-99"/>
      <use x="179.736328" xlink:href="#DejaVuSans-114"/>
     </g>
    </g>
   </g>
   <g id="text_6">
    <g clip-path="url(#pd7788b2435)">
     <!-- LShoulder -->
     <g transform="translate(89.961592 150.10471)scale(0.1 -0.1)">
      <defs>
       <path d="M 9.8125 72.90625 
L 19.671875 72.90625 
L 19.671875 8.296875 
L 55.171875 8.296875 
L 55.171875 0 
L 9.8125 0 
z
" id="DejaVuSans-76"/>
      </defs>
      <use xlink:href="#DejaVuSans-76"/>
      <use x="55.712891" xlink:href="#DejaVuSans-83"/>
      <use x="119.189453" xlink:href="#DejaVuSans-104"/>
      <use x="182.568359" xlink:href="#DejaVuSans-111"/>
      <use x="243.75" xlink:href="#DejaVuSans-117"/>
      <use x="307.128906" xlink:href="#DejaVuSans-108"/>
      <use x="334.912109" xlink:href="#DejaVuSans-100"/>
      <use x="398.388672" xlink:href="#DejaVuSans-101"/>
      <use x="459.912109" xlink:href="#DejaVuSans-114"/>
     </g>
    </g>
   </g>
   <g id="text_7">
    <g clip-path="url(#pd7788b2435)">
     <!-- LElbow -->
     <g transform="translate(32.32644 242.664363)scale(0.1 -0.1)">
      <defs>
       <path d="M 9.8125 72.90625 
L 55.90625 72.90625 
L 55.90625 64.59375 
L 19.671875 64.59375 
L 19.671875 43.015625 
L 54.390625 43.015625 
L 54.390625 34.71875 
L 19.671875 34.71875 
L 19.671875 8.296875 
L 56.78125 8.296875 
L 56.78125 0 
L 9.8125 0 
z
" id="DejaVuSans-69"/>
       <path d="M 48.6875 27.296875 
Q 48.6875 37.203125 44.609375 42.84375 
Q 40.53125 48.484375 33.40625 48.484375 
Q 26.265625 48.484375 22.1875 42.84375 
Q 18.109375 37.203125 18.109375 27.296875 
Q 18.109375 17.390625 22.1875 11.75 
Q 26.265625 6.109375 33.40625 6.109375 
Q 40.53125 6.109375 44.609375 11.75 
Q 48.6875 17.390625 48.6875 27.296875 
z
M 18.109375 46.390625 
Q 20.953125 51.265625 25.265625 53.625 
Q 29.59375 56 35.59375 56 
Q 45.5625 56 51.78125 48.09375 
Q 58.015625 40.1875 58.015625 27.296875 
Q 58.015625 14.40625 51.78125 6.484375 
Q 45.5625 -1.421875 35.59375 -1.421875 
Q 29.59375 -1.421875 25.265625 0.953125 
Q 20.953125 3.328125 18.109375 8.203125 
L 18.109375 0 
L 9.078125 0 
L 9.078125 75.984375 
L 18.109375 75.984375 
z
" id="DejaVuSans-98"/>
       <path d="M 4.203125 54.6875 
L 13.1875 54.6875 
L 24.421875 12.015625 
L 35.59375 54.6875 
L 46.1875 54.6875 
L 57.421875 12.015625 
L 68.609375 54.6875 
L 77.59375 54.6875 
L 63.28125 0 
L 52.6875 0 
L 40.921875 44.828125 
L 29.109375 0 
L 18.5 0 
z
" id="DejaVuSans-119"/>
      </defs>
      <use xlink:href="#DejaVuSans-76"/>
      <use x="55.712891" xlink:href="#DejaVuSans-69"/>
      <use x="118.896484" xlink:href="#DejaVuSans-108"/>
      <use x="146.679688" xlink:href="#DejaVuSans-98"/>
      <use x="210.15625" xlink:href="#DejaVuSans-111"/>
      <use x="271.337891" xlink:href="#DejaVuSans-119"/>
     </g>
    </g>
   </g>
   <g id="text_8">
    <g clip-path="url(#pd7788b2435)">
     <!-- LWrist -->
     <g transform="translate(231.780223 303.811936)scale(0.1 -0.1)">
      <defs>
       <path d="M 3.328125 72.90625 
L 13.28125 72.90625 
L 28.609375 11.28125 
L 43.890625 72.90625 
L 54.984375 72.90625 
L 70.3125 11.28125 
L 85.59375 72.90625 
L 95.609375 72.90625 
L 77.296875 0 
L 64.890625 0 
L 49.515625 63.28125 
L 33.984375 0 
L 21.578125 0 
z
" id="DejaVuSans-87"/>
       <path d="M 44.28125 53.078125 
L 44.28125 44.578125 
Q 40.484375 46.53125 36.375 47.5 
Q 32.28125 48.484375 27.875 48.484375 
Q 21.1875 48.484375 17.84375 46.4375 
Q 14.5 44.390625 14.5 40.28125 
Q 14.5 37.15625 16.890625 35.375 
Q 19.28125 33.59375 26.515625 31.984375 
L 29.59375 31.296875 
Q 39.15625 29.25 43.1875 25.515625 
Q 47.21875 21.78125 47.21875 15.09375 
Q 47.21875 7.46875 41.1875 3.015625 
Q 35.15625 -1.421875 24.609375 -1.421875 
Q 20.21875 -1.421875 15.453125 -0.5625 
Q 10.6875 0.296875 5.421875 2 
L 5.421875 11.28125 
Q 10.40625 8.6875 15.234375 7.390625 
Q 20.0625 6.109375 24.8125 6.109375 
Q 31.15625 6.109375 34.5625 8.28125 
Q 37.984375 10.453125 37.984375 14.40625 
Q 37.984375 18.0625 35.515625 20.015625 
Q 33.0625 21.96875 24.703125 23.78125 
L 21.578125 24.515625 
Q 13.234375 26.265625 9.515625 29.90625 
Q 5.8125 33.546875 5.8125 39.890625 
Q 5.8125 47.609375 11.28125 51.796875 
Q 16.75 56 26.8125 56 
Q 31.78125 56 36.171875 55.265625 
Q 40.578125 54.546875 44.28125 53.078125 
z
" id="DejaVuSans-115"/>
       <path d="M 18.3125 70.21875 
L 18.3125 54.6875 
L 36.8125 54.6875 
L 36.8125 47.703125 
L 18.3125 47.703125 
L 18.3125 18.015625 
Q 18.3125 11.328125 20.140625 9.421875 
Q 21.96875 7.515625 27.59375 7.515625 
L 36.8125 7.515625 
L 36.8125 0 
L 27.59375 0 
Q 17.1875 0 13.234375 3.875 
Q 9.28125 7.765625 9.28125 18.015625 
L 9.28125 47.703125 
L 2.6875 47.703125 
L 2.6875 54.6875 
L 9.28125 54.6875 
L 9.28125 70.21875 
z
" id="DejaVuSans-116"/>
      </defs>
      <use xlink:href="#DejaVuSans-76"/>
      <use x="46.587891" xlink:href="#DejaVuSans-87"/>
      <use x="140.964844" xlink:href="#DejaVuSans-114"/>
      <use x="182.078125" xlink:href="#DejaVuSans-105"/>
      <use x="209.861328" xlink:href="#DejaVuSans-115"/>
      <use x="261.960938" xlink:href="#DejaVuSans-116"/>
     </g>
    </g>
   </g>
   <g id="text_9">
    <g clip-path="url(#pd7788b2435)">
     <!-- LHand -->
     <g transform="translate(295.865211 319.444971)scale(0.1 -0.1)">
      <use xlink:href="#DejaVuSans-76"/>
      <use x="55.712891" xlink:href="#DejaVuSans-72"/>
      <use x="130.908203" xlink:href="#DejaVuSans-97"/>
      <use x="192.1875" xlink:href="#DejaVuSans-110"/>
      <use x="255.566406" xlink:href="#DejaVuSans-100"/>
     </g>
    </g>
   </g>
   <g id="text_10">
    <g clip-path="url(#pd7788b2435)">
     <!-- RShoulder -->
     <g transform="translate(466.932222 157.450475)scale(0.1 -0.1)">
      <defs>
       <path d="M 44.390625 34.1875 
Q 47.5625 33.109375 50.5625 29.59375 
Q 53.5625 26.078125 56.59375 19.921875 
L 66.609375 0 
L 56 0 
L 46.6875 18.703125 
Q 43.0625 26.03125 39.671875 28.421875 
Q 36.28125 30.8125 30.421875 30.8125 
L 19.671875 30.8125 
L 19.671875 0 
L 9.8125 0 
L 9.8125 72.90625 
L 32.078125 72.90625 
Q 44.578125 72.90625 50.734375 67.671875 
Q 56.890625 62.453125 56.890625 51.90625 
Q 56.890625 45.015625 53.6875 40.46875 
Q 50.484375 35.9375 44.390625 34.1875 
z
M 19.671875 64.796875 
L 19.671875 38.921875 
L 32.078125 38.921875 
Q 39.203125 38.921875 42.84375 42.21875 
Q 46.484375 45.515625 46.484375 51.90625 
Q 46.484375 58.296875 42.84375 61.546875 
Q 39.203125 64.796875 32.078125 64.796875 
z
" id="DejaVuSans-82"/>
      </defs>
      <use xlink:href="#DejaVuSans-82"/>
      <use x="69.482422" xlink:href="#DejaVuSans-83"/>
      <use x="132.958984" xlink:href="#DejaVuSans-104"/>
      <use x="196.337891" xlink:href="#DejaVuSans-111"/>
      <use x="257.519531" xlink:href="#DejaVuSans-117"/>
      <use x="320.898438" xlink:href="#DejaVuSans-108"/>
      <use x="348.681641" xlink:href="#DejaVuSans-100"/>
      <use x="412.158203" xlink:href="#DejaVuSans-101"/>
      <use x="473.681641" xlink:href="#DejaVuSans-114"/>
     </g>
    </g>
   </g>
   <g id="text_11">
    <g clip-path="url(#pd7788b2435)">
     <!-- RElbow -->
     <g transform="translate(507.671216 269.973085)scale(0.1 -0.1)">
      <use xlink:href="#DejaVuSans-82"/>
      <use x="69.482422" xlink:href="#DejaVuSans-69"/>
      <use x="132.666016" xlink:href="#DejaVuSans-108"/>
      <use x="160.449219" xlink:href="#DejaVuSans-98"/>
      <use x="223.925781" xlink:href="#DejaVuSans-111"/>
      <use x="285.107422" xlink:href="#DejaVuSans-119"/>
     </g>
    </g>
   </g>
   <g id="text_12">
    <g clip-path="url(#pd7788b2435)">
     <!-- RWrist -->
     <g transform="translate(375.621319 316.761426)scale(0.1 -0.1)">
      <use xlink:href="#DejaVuSans-82"/>
      <use x="65.482422" xlink:href="#DejaVuSans-87"/>
      <use x="159.859375" xlink:href="#DejaVuSans-114"/>
      <use x="200.972656" xlink:href="#DejaVuSans-105"/>
      <use x="228.755859" xlink:href="#DejaVuSans-115"/>
      <use x="280.855469" xlink:href="#DejaVuSans-116"/>
     </g>
    </g>
   </g>
   <g id="text_13">
    <g clip-path="url(#pd7788b2435)">
     <!-- RHand -->
     <g transform="translate(323.378395 321.710628)scale(0.1 -0.1)">
      <use xlink:href="#DejaVuSans-82"/>
      <use x="69.482422" xlink:href="#DejaVuSans-72"/>
      <use x="144.677734" xlink:href="#DejaVuSans-97"/>
      <use x="205.957031" xlink:href="#DejaVuSans-110"/>
      <use x="269.335938" xlink:href="#DejaVuSans-100"/>
     </g>
    </g>
   </g>
   <g id="text_14">
    <g clip-path="url(#pd7788b2435)">
     <!-- LHip -->
     <g transform="translate(206.850609 383.194274)scale(0.1 -0.1)">
      <use xlink:href="#DejaVuSans-76"/>
      <use x="55.712891" xlink:href="#DejaVuSans-72"/>
      <use x="130.908203" xlink:href="#DejaVuSans-105"/>
      <use x="158.691406" xlink:href="#DejaVuSans-112"/>
     </g>
    </g>
   </g>
   <g id="text_15">
    <g clip-path="url(#pd7788b2435)">
     <!-- LKnee -->
     <g transform="translate(150.625454 559.851349)scale(0.1 -0.1)">
      <defs>
       <path d="M 9.8125 72.90625 
L 19.671875 72.90625 
L 19.671875 42.09375 
L 52.390625 72.90625 
L 65.09375 72.90625 
L 28.90625 38.921875 
L 67.671875 0 
L 54.6875 0 
L 19.671875 35.109375 
L 19.671875 0 
L 9.8125 0 
z
" id="DejaVuSans-75"/>
      </defs>
      <use xlink:href="#DejaVuSans-76"/>
      <use x="55.712891" xlink:href="#DejaVuSans-75"/>
      <use x="121.289062" xlink:href="#DejaVuSans-110"/>
      <use x="184.667969" xlink:href="#DejaVuSans-101"/>
      <use x="246.191406" xlink:href="#DejaVuSans-101"/>
     </g>
    </g>
   </g>
   <g id="text_16">
    <g clip-path="url(#pd7788b2435)">
     <!-- LAnkle -->
     <g transform="translate(151.129161 753.106881)scale(0.1 -0.1)">
      <defs>
       <path d="M 34.1875 63.1875 
L 20.796875 26.90625 
L 47.609375 26.90625 
z
M 28.609375 72.90625 
L 39.796875 72.90625 
L 67.578125 0 
L 57.328125 0 
L 50.6875 18.703125 
L 17.828125 18.703125 
L 11.1875 0 
L 0.78125 0 
z
" id="DejaVuSans-65"/>
       <path d="M 9.078125 75.984375 
L 18.109375 75.984375 
L 18.109375 31.109375 
L 44.921875 54.6875 
L 56.390625 54.6875 
L 27.390625 29.109375 
L 57.625 0 
L 45.90625 0 
L 18.109375 26.703125 
L 18.109375 0 
L 9.078125 0 
z
" id="DejaVuSans-107"/>
      </defs>
      <use xlink:href="#DejaVuSans-76"/>
      <use x="57.962891" xlink:href="#DejaVuSans-65"/>
      <use x="126.371094" xlink:href="#DejaVuSans-110"/>
      <use x="189.75" xlink:href="#DejaVuSans-107"/>
      <use x="247.660156" xlink:href="#DejaVuSans-108"/>
      <use x="275.443359" xlink:href="#DejaVuSans-101"/>
     </g>
    </g>
   </g>
   <g id="text_17">
    <g clip-path="url(#pd7788b2435)">
     <!-- LFoot -->
     <g transform="translate(147.550659 791.784168)scale(0.1 -0.1)">
      <defs>
       <path d="M 9.8125 72.90625 
L 51.703125 72.90625 
L 51.703125 64.59375 
L 19.671875 64.59375 
L 19.671875 43.109375 
L 48.578125 43.109375 
L 48.578125 34.8125 
L 19.671875 34.8125 
L 19.671875 0 
L 9.8125 0 
z
" id="DejaVuSans-70"/>
      </defs>
      <use xlink:href="#DejaVuSans-76"/>
      <use x="55.712891" xlink:href="#DejaVuSans-70"/>
      <use x="109.607422" xlink:href="#DejaVuSans-111"/>
      <use x="170.789062" xlink:href="#DejaVuSans-111"/>
      <use x="231.970703" xlink:href="#DejaVuSans-116"/>
     </g>
    </g>
   </g>
   <g id="text_18">
    <g clip-path="url(#pd7788b2435)">
     <!-- RHip -->
     <g transform="translate(374.569635 385.583283)scale(0.1 -0.1)">
      <use xlink:href="#DejaVuSans-82"/>
      <use x="69.482422" xlink:href="#DejaVuSans-72"/>
      <use x="144.677734" xlink:href="#DejaVuSans-105"/>
      <use x="172.460938" xlink:href="#DejaVuSans-112"/>
     </g>
    </g>
   </g>
   <g id="text_19">
    <g clip-path="url(#pd7788b2435)">
     <!-- RKnee -->
     <g transform="translate(374.772777 514.991334)scale(0.1 -0.1)">
      <use xlink:href="#DejaVuSans-82"/>
      <use x="69.482422" xlink:href="#DejaVuSans-75"/>
      <use x="135.058594" xlink:href="#DejaVuSans-110"/>
      <use x="198.4375" xlink:href="#DejaVuSans-101"/>
      <use x="259.960938" xlink:href="#DejaVuSans-101"/>
     </g>
    </g>
   </g>
   <g id="text_20">
    <g clip-path="url(#pd7788b2435)">
     <!-- RAnkle -->
     <g transform="translate(296.691981 672.867369)scale(0.1 -0.1)">
      <use xlink:href="#DejaVuSans-82"/>
      <use x="65.482422" xlink:href="#DejaVuSans-65"/>
      <use x="133.890625" xlink:href="#DejaVuSans-110"/>
      <use x="197.269531" xlink:href="#DejaVuSans-107"/>
      <use x="255.179688" xlink:href="#DejaVuSans-108"/>
      <use x="282.962891" xlink:href="#DejaVuSans-101"/>
     </g>
    </g>
   </g>
   <g id="text_21">
    <g clip-path="url(#pd7788b2435)">
     <!-- RFoot -->
     <g transform="translate(290.472521 708.141136)scale(0.1 -0.1)">
      <use xlink:href="#DejaVuSans-82"/>
      <use x="69.482422" xlink:href="#DejaVuSans-70"/>
      <use x="123.376953" xlink:href="#DejaVuSans-111"/>
      <use x="184.558594" xlink:href="#DejaVuSans-111"/>
      <use x="245.740234" xlink:href="#DejaVuSans-116"/>
     </g>
    </g>
   </g>
   <g id="text_22">
    <g clip-path="url(#pd7788b2435)">
     <!-- LHandTip -->
     <g transform="translate(318.122088 330.340265)scale(0.1 -0.1)">
      <defs>
       <path d="M -0.296875 72.90625 
L 61.375 72.90625 
L 61.375 64.59375 
L 35.5 64.59375 
L 35.5 0 
L 25.59375 0 
L 25.59375 64.59375 
L -0.296875 64.59375 
z
" id="DejaVuSans-84"/>
      </defs>
      <use xlink:href="#DejaVuSans-76"/>
      <use x="55.712891" xlink:href="#DejaVuSans-72"/>
      <use x="130.908203" xlink:href="#DejaVuSans-97"/>
      <use x="192.1875" xlink:href="#DejaVuSans-110"/>
      <use x="255.566406" xlink:href="#DejaVuSans-100"/>
      <use x="319.042969" xlink:href="#DejaVuSans-84"/>
      <use x="377.001953" xlink:href="#DejaVuSans-105"/>
      <use x="404.785156" xlink:href="#DejaVuSans-112"/>
     </g>
    </g>
   </g>
   <g id="text_23">
    <g clip-path="url(#pd7788b2435)">
     <!-- LThumb -->
     <g transform="translate(339.08727 308.272763)scale(0.1 -0.1)">
      <defs>
       <path d="M 52 44.1875 
Q 55.375 50.25 60.0625 53.125 
Q 64.75 56 71.09375 56 
Q 79.640625 56 84.28125 50.015625 
Q 88.921875 44.046875 88.921875 33.015625 
L 88.921875 0 
L 79.890625 0 
L 79.890625 32.71875 
Q 79.890625 40.578125 77.09375 44.375 
Q 74.3125 48.1875 68.609375 48.1875 
Q 61.625 48.1875 57.5625 43.546875 
Q 53.515625 38.921875 53.515625 30.90625 
L 53.515625 0 
L 44.484375 0 
L 44.484375 32.71875 
Q 44.484375 40.625 41.703125 44.40625 
Q 38.921875 48.1875 33.109375 48.1875 
Q 26.21875 48.1875 22.15625 43.53125 
Q 18.109375 38.875 18.109375 30.90625 
L 18.109375 0 
L 9.078125 0 
L 9.078125 54.6875 
L 18.109375 54.6875 
L 18.109375 46.1875 
Q 21.1875 51.21875 25.484375 53.609375 
Q 29.78125 56 35.6875 56 
Q 41.65625 56 45.828125 52.96875 
Q 50 49.953125 52 44.1875 
z
" id="DejaVuSans-109"/>
      </defs>
      <use xlink:href="#DejaVuSans-76"/>
      <use x="41.962891" xlink:href="#DejaVuSans-84"/>
      <use x="103.046875" xlink:href="#DejaVuSans-104"/>
      <use x="166.425781" xlink:href="#DejaVuSans-117"/>
      <use x="229.804688" xlink:href="#DejaVuSans-109"/>
      <use x="327.216797" xlink:href="#DejaVuSans-98"/>
     </g>
    </g>
   </g>
   <g id="text_24">
    <g clip-path="url(#pd7788b2435)">
     <!-- RHandTip -->
     <g transform="translate(276.288182 331.176041)scale(0.1 -0.1)">
      <use xlink:href="#DejaVuSans-82"/>
      <use x="69.482422" xlink:href="#DejaVuSans-72"/>
      <use x="144.677734" xlink:href="#DejaVuSans-97"/>
      <use x="205.957031" xlink:href="#DejaVuSans-110"/>
      <use x="269.335938" xlink:href="#DejaVuSans-100"/>
      <use x="332.8125" xlink:href="#DejaVuSans-84"/>
      <use x="390.771484" xlink:href="#DejaVuSans-105"/>
      <use x="418.554688" xlink:href="#DejaVuSans-112"/>
     </g>
    </g>
   </g>
   <g id="text_25">
    <g clip-path="url(#pd7788b2435)">
     <!-- RThumb -->
     <g transform="translate(357.749961 327.107927)scale(0.1 -0.1)">
      <use xlink:href="#DejaVuSans-82"/>
      <use x="62.232422" xlink:href="#DejaVuSans-84"/>
      <use x="123.316406" xlink:href="#DejaVuSans-104"/>
      <use x="186.695312" xlink:href="#DejaVuSans-117"/>
      <use x="250.074219" xlink:href="#DejaVuSans-109"/>
      <use x="347.486328" xlink:href="#DejaVuSans-98"/>
     </g>
    </g>
   </g>
   <g id="text_26">
    <!-- Node Graph Visualization - Frame 263 -->
    <g transform="translate(174.194063 -6)scale(0.12 -0.12)">
     <defs>
      <path d="M 9.8125 72.90625 
L 23.09375 72.90625 
L 55.421875 11.921875 
L 55.421875 72.90625 
L 64.984375 72.90625 
L 64.984375 0 
L 51.703125 0 
L 19.390625 60.984375 
L 19.390625 0 
L 9.8125 0 
z
" id="DejaVuSans-78"/>
      <path id="DejaVuSans-32"/>
      <path d="M 59.515625 10.40625 
L 59.515625 29.984375 
L 43.40625 29.984375 
L 43.40625 38.09375 
L 69.28125 38.09375 
L 69.28125 6.78125 
Q 63.578125 2.734375 56.6875 0.65625 
Q 49.8125 -1.421875 42 -1.421875 
Q 24.90625 -1.421875 15.25 8.5625 
Q 5.609375 18.5625 5.609375 36.375 
Q 5.609375 54.25 15.25 64.234375 
Q 24.90625 74.21875 42 74.21875 
Q 49.125 74.21875 55.546875 72.453125 
Q 61.96875 70.703125 67.390625 67.28125 
L 67.390625 56.78125 
Q 61.921875 61.421875 55.765625 63.765625 
Q 49.609375 66.109375 42.828125 66.109375 
Q 29.4375 66.109375 22.71875 58.640625 
Q 16.015625 51.171875 16.015625 36.375 
Q 16.015625 21.625 22.71875 14.15625 
Q 29.4375 6.6875 42.828125 6.6875 
Q 48.046875 6.6875 52.140625 7.59375 
Q 56.25 8.5 59.515625 10.40625 
z
" id="DejaVuSans-71"/>
      <path d="M 28.609375 0 
L 0.78125 72.90625 
L 11.078125 72.90625 
L 34.1875 11.53125 
L 57.328125 72.90625 
L 67.578125 72.90625 
L 39.796875 0 
z
" id="DejaVuSans-86"/>
      <path d="M 5.515625 54.6875 
L 48.1875 54.6875 
L 48.1875 46.484375 
L 14.40625 7.171875 
L 48.1875 7.171875 
L 48.1875 0 
L 4.296875 0 
L 4.296875 8.203125 
L 38.09375 47.515625 
L 5.515625 47.515625 
z
" id="DejaVuSans-122"/>
      <path d="M 4.890625 31.390625 
L 31.203125 31.390625 
L 31.203125 23.390625 
L 4.890625 23.390625 
z
" id="DejaVuSans-45"/>
      <path d="M 19.1875 8.296875 
L 53.609375 8.296875 
L 53.609375 0 
L 7.328125 0 
L 7.328125 8.296875 
Q 12.9375 14.109375 22.625 23.890625 
Q 32.328125 33.6875 34.8125 36.53125 
Q 39.546875 41.84375 41.421875 45.53125 
Q 43.3125 49.21875 43.3125 52.78125 
Q 43.3125 58.59375 39.234375 62.25 
Q 35.15625 65.921875 28.609375 65.921875 
Q 23.96875 65.921875 18.8125 64.3125 
Q 13.671875 62.703125 7.8125 59.421875 
L 7.8125 69.390625 
Q 13.765625 71.78125 18.9375 73 
Q 24.125 74.21875 28.421875 74.21875 
Q 39.75 74.21875 46.484375 68.546875 
Q 53.21875 62.890625 53.21875 53.421875 
Q 53.21875 48.921875 51.53125 44.890625 
Q 49.859375 40.875 45.40625 35.40625 
Q 44.1875 33.984375 37.640625 27.21875 
Q 31.109375 20.453125 19.1875 8.296875 
z
" id="DejaVuSans-50"/>
      <path d="M 33.015625 40.375 
Q 26.375 40.375 22.484375 35.828125 
Q 18.609375 31.296875 18.609375 23.390625 
Q 18.609375 15.53125 22.484375 10.953125 
Q 26.375 6.390625 33.015625 6.390625 
Q 39.65625 6.390625 43.53125 10.953125 
Q 47.40625 15.53125 47.40625 23.390625 
Q 47.40625 31.296875 43.53125 35.828125 
Q 39.65625 40.375 33.015625 40.375 
z
M 52.59375 71.296875 
L 52.59375 62.3125 
Q 48.875 64.0625 45.09375 64.984375 
Q 41.3125 65.921875 37.59375 65.921875 
Q 27.828125 65.921875 22.671875 59.328125 
Q 17.53125 52.734375 16.796875 39.40625 
Q 19.671875 43.65625 24.015625 45.921875 
Q 28.375 48.1875 33.59375 48.1875 
Q 44.578125 48.1875 50.953125 41.515625 
Q 57.328125 34.859375 57.328125 23.390625 
Q 57.328125 12.15625 50.6875 5.359375 
Q 44.046875 -1.421875 33.015625 -1.421875 
Q 20.359375 -1.421875 13.671875 8.265625 
Q 6.984375 17.96875 6.984375 36.375 
Q 6.984375 53.65625 15.1875 63.9375 
Q 23.390625 74.21875 37.203125 74.21875 
Q 40.921875 74.21875 44.703125 73.484375 
Q 48.484375 72.75 52.59375 71.296875 
z
" id="DejaVuSans-54"/>
      <path d="M 40.578125 39.3125 
Q 47.65625 37.796875 51.625 33 
Q 55.609375 28.21875 55.609375 21.1875 
Q 55.609375 10.40625 48.1875 4.484375 
Q 40.765625 -1.421875 27.09375 -1.421875 
Q 22.515625 -1.421875 17.65625 -0.515625 
Q 12.796875 0.390625 7.625 2.203125 
L 7.625 11.71875 
Q 11.71875 9.328125 16.59375 8.109375 
Q 21.484375 6.890625 26.8125 6.890625 
Q 36.078125 6.890625 40.9375 10.546875 
Q 45.796875 14.203125 45.796875 21.1875 
Q 45.796875 27.640625 41.28125 31.265625 
Q 36.765625 34.90625 28.71875 34.90625 
L 20.21875 34.90625 
L 20.21875 43.015625 
L 29.109375 43.015625 
Q 36.375 43.015625 40.234375 45.921875 
Q 44.09375 48.828125 44.09375 54.296875 
Q 44.09375 59.90625 40.109375 62.90625 
Q 36.140625 65.921875 28.71875 65.921875 
Q 24.65625 65.921875 20.015625 65.03125 
Q 15.375 64.15625 9.8125 62.3125 
L 9.8125 71.09375 
Q 15.4375 72.65625 20.34375 73.4375 
Q 25.25 74.21875 29.59375 74.21875 
Q 40.828125 74.21875 47.359375 69.109375 
Q 53.90625 64.015625 53.90625 55.328125 
Q 53.90625 49.265625 50.4375 45.09375 
Q 46.96875 40.921875 40.578125 39.3125 
z
" id="DejaVuSans-51"/>
     </defs>
     <use xlink:href="#DejaVuSans-78"/>
     <use x="74.804688" xlink:href="#DejaVuSans-111"/>
     <use x="135.986328" xlink:href="#DejaVuSans-100"/>
     <use x="199.462891" xlink:href="#DejaVuSans-101"/>
     <use x="260.986328" xlink:href="#DejaVuSans-32"/>
     <use x="292.773438" xlink:href="#DejaVuSans-71"/>
     <use x="370.263672" xlink:href="#DejaVuSans-114"/>
     <use x="411.376953" xlink:href="#DejaVuSans-97"/>
     <use x="472.65625" xlink:href="#DejaVuSans-112"/>
     <use x="536.132812" xlink:href="#DejaVuSans-104"/>
     <use x="599.511719" xlink:href="#DejaVuSans-32"/>
     <use x="631.298828" xlink:href="#DejaVuSans-86"/>
     <use x="697.457031" xlink:href="#DejaVuSans-105"/>
     <use x="725.240234" xlink:href="#DejaVuSans-115"/>
     <use x="777.339844" xlink:href="#DejaVuSans-117"/>
     <use x="840.71875" xlink:href="#DejaVuSans-97"/>
     <use x="901.998047" xlink:href="#DejaVuSans-108"/>
     <use x="929.78125" xlink:href="#DejaVuSans-105"/>
     <use x="957.564453" xlink:href="#DejaVuSans-122"/>
     <use x="1010.054688" xlink:href="#DejaVuSans-97"/>
     <use x="1071.333984" xlink:href="#DejaVuSans-116"/>
     <use x="1110.542969" xlink:href="#DejaVuSans-105"/>
     <use x="1138.326172" xlink:href="#DejaVuSans-111"/>
     <use x="1199.507812" xlink:href="#DejaVuSans-110"/>
     <use x="1262.886719" xlink:href="#DejaVuSans-32"/>
     <use x="1294.673828" xlink:href="#DejaVuSans-45"/>
     <use x="1330.757812" xlink:href="#DejaVuSans-32"/>
     <use x="1362.544922" xlink:href="#DejaVuSans-70"/>
     <use x="1412.814453" xlink:href="#DejaVuSans-114"/>
     <use x="1453.927734" xlink:href="#DejaVuSans-97"/>
     <use x="1515.207031" xlink:href="#DejaVuSans-109"/>
     <use x="1612.619141" xlink:href="#DejaVuSans-101"/>
     <use x="1674.142578" xlink:href="#DejaVuSans-32"/>
     <use x="1705.929688" xlink:href="#DejaVuSans-50"/>
     <use x="1769.552734" xlink:href="#DejaVuSans-54"/>
     <use x="1833.175781" xlink:href="#DejaVuSans-51"/>
    </g>
   </g>
  </g>
 </g>
 <defs>
  <clipPath id="pd7788b2435">
   <rect height="864" width="576" x="0" y="0"/>
  </clipPath>
 </defs>
</svg>
