<?xml version="1.0" encoding="utf-8" standalone="no"?>
<!DOCTYPE svg PUBLIC "-//W3C//DTD SVG 1.1//EN"
  "http://www.w3.org/Graphics/SVG/1.1/DTD/svg11.dtd">
<!-- Created with matplotlib (https://matplotlib.org/) -->
<svg height="864pt" version="1.1" viewBox="0 0 576 864" width="576pt" xmlns="http://www.w3.org/2000/svg" xmlns:xlink="http://www.w3.org/1999/xlink">
 <metadata>
  <rdf:RDF xmlns:cc="http://creativecommons.org/ns#" xmlns:dc="http://purl.org/dc/elements/1.1/" xmlns:rdf="http://www.w3.org/1999/02/22-rdf-syntax-ns#">
   <cc:Work>
    <dc:type rdf:resource="http://purl.org/dc/dcmitype/StillImage"/>
    <dc:date>2024-02-04T22:27:52.222608</dc:date>
    <dc:format>image/svg+xml</dc:format>
    <dc:creator>
     <cc:Agent>
      <dc:title>Matplotlib v3.3.2, https://matplotlib.org/</dc:title>
     </cc:Agent>
    </dc:creator>
   </cc:Work>
  </rdf:RDF>
 </metadata>
 <defs>
  <style type="text/css">*{stroke-linecap:butt;stroke-linejoin:round;}</style>
 </defs>
 <g id="figure_1">
  <g id="patch_1">
   <path d="M 0 864 
L 576 864 
L 576 0 
L 0 0 
z
" style="fill:#ffffff;"/>
  </g>
  <g id="axes_1">
   <g id="patch_2">
    <path clip-path="url(#p8f6dac7bdc)" d="M 330.330493 87.829813 
Q 328.290817 96.228569 326.514992 103.54087 
" style="fill:none;stroke:#000000;stroke-linecap:round;"/>
    <path clip-path="url(#p8f6dac7bdc)" d="M 329.40248 100.125843 
L 326.514992 103.54087 
L 325.515463 99.181863 
L 329.40248 100.125843 
z
" style="stroke:#000000;stroke-linecap:round;"/>
   </g>
   <g id="patch_3">
    <path clip-path="url(#p8f6dac7bdc)" d="M 320.231986 130.388525 
Q 320.044602 131.223236 320.10211 130.967064 
" style="fill:none;stroke:#000000;stroke-linecap:round;"/>
    <path clip-path="url(#p8f6dac7bdc)" d="M 322.929695 127.502275 
L 320.10211 130.967064 
L 319.02683 126.626123 
L 322.929695 127.502275 
z
" style="stroke:#000000;stroke-linecap:round;"/>
   </g>
   <g id="patch_4">
    <path clip-path="url(#p8f6dac7bdc)" d="M 326.251678 104.625114 
Q 328.291354 96.226358 330.06718 88.914056 
" style="fill:none;stroke:#000000;stroke-linecap:round;"/>
    <path clip-path="url(#p8f6dac7bdc)" d="M 327.179691 92.329083 
L 330.06718 88.914056 
L 331.066708 93.273063 
L 327.179691 92.329083 
z
" style="stroke:#000000;stroke-linecap:round;"/>
   </g>
   <g id="patch_5">
    <path clip-path="url(#p8f6dac7bdc)" d="M 314.077327 157.880676 
Q 307.491765 187.389898 301.149724 215.807929 
" style="fill:none;stroke:#000000;stroke-linecap:round;"/>
    <path clip-path="url(#p8f6dac7bdc)" d="M 303.972952 212.339589 
L 301.149724 215.807929 
L 300.068988 211.468343 
L 303.972952 212.339589 
z
" style="stroke:#000000;stroke-linecap:round;"/>
   </g>
   <g id="patch_6">
    <path clip-path="url(#p8f6dac7bdc)" d="M 303.776523 143.873409 
Q 228.243719 137.599357 153.825111 131.417854 
" style="fill:none;stroke:#000000;stroke-linecap:round;"/>
    <path clip-path="url(#p8f6dac7bdc)" d="M 157.645825 133.742105 
L 153.825111 131.417854 
L 157.976941 129.755834 
L 157.645825 133.742105 
z
" style="stroke:#000000;stroke-linecap:round;"/>
   </g>
   <g id="patch_7">
    <path clip-path="url(#p8f6dac7bdc)" d="M 330.177665 145.546399 
Q 409.100718 148.997414 486.906804 152.399587 
" style="fill:none;stroke:#000000;stroke-linecap:round;"/>
    <path clip-path="url(#p8f6dac7bdc)" d="M 482.997992 150.226758 
L 486.906804 152.399587 
L 482.823253 154.22294 
L 482.997992 150.226758 
z
" style="stroke:#000000;stroke-linecap:round;"/>
   </g>
   <g id="patch_8">
    <path clip-path="url(#p8f6dac7bdc)" d="M 319.85685 132.059589 
Q 320.044234 131.224877 319.986726 131.48105 
" style="fill:none;stroke:#000000;stroke-linecap:round;"/>
    <path clip-path="url(#p8f6dac7bdc)" d="M 317.15914 134.945838 
L 319.986726 131.48105 
L 321.062005 135.821991 
L 317.15914 134.945838 
z
" style="stroke:#000000;stroke-linecap:round;"/>
   </g>
   <g id="patch_9">
    <path clip-path="url(#p8f6dac7bdc)" d="M 295.164248 242.729231 
Q 285.188441 287.782035 275.45434 331.743245 
" style="fill:none;stroke:#000000;stroke-linecap:round;"/>
    <path clip-path="url(#p8f6dac7bdc)" d="M 278.271797 328.270216 
L 275.45434 331.743245 
L 274.366391 327.405462 
L 278.271797 328.270216 
z
" style="stroke:#000000;stroke-linecap:round;"/>
   </g>
   <g id="patch_10">
    <path clip-path="url(#p8f6dac7bdc)" d="M 300.906312 216.898632 
Q 307.491874 187.38941 313.833916 158.971379 
" style="fill:none;stroke:#000000;stroke-linecap:round;"/>
    <path clip-path="url(#p8f6dac7bdc)" d="M 311.010688 162.439719 
L 313.833916 158.971379 
L 314.914651 163.310965 
L 311.010688 162.439719 
z
" style="stroke:#000000;stroke-linecap:round;"/>
   </g>
   <g id="patch_11">
    <path clip-path="url(#p8f6dac7bdc)" d="M 259.123183 345.792879 
Q 229.3568 345.880854 200.708445 345.965525 
" style="fill:none;stroke:#000000;stroke-linecap:round;"/>
    <path clip-path="url(#p8f6dac7bdc)" d="M 204.714339 347.953694 
L 200.708445 345.965525 
L 204.702517 343.953711 
L 204.714339 347.953694 
z
" style="stroke:#000000;stroke-linecap:round;"/>
   </g>
   <g id="patch_12">
    <path clip-path="url(#p8f6dac7bdc)" d="M 285.557227 346.511443 
Q 314.914259 348.195839 343.155092 349.81619 
" style="fill:none;stroke:#000000;stroke-linecap:round;"/>
    <path clip-path="url(#p8f6dac7bdc)" d="M 339.276224 347.590346 
L 343.155092 349.81619 
L 339.047096 351.583778 
L 339.276224 347.590346 
z
" style="stroke:#000000;stroke-linecap:round;"/>
   </g>
   <g id="patch_13">
    <path clip-path="url(#p8f6dac7bdc)" d="M 275.212496 332.835464 
Q 285.188303 287.78266 294.922403 243.82145 
" style="fill:none;stroke:#000000;stroke-linecap:round;"/>
    <path clip-path="url(#p8f6dac7bdc)" d="M 292.104946 247.29448 
L 294.922403 243.82145 
L 296.010353 248.159234 
L 292.104946 247.29448 
z
" style="stroke:#000000;stroke-linecap:round;"/>
   </g>
   <g id="patch_14">
    <path clip-path="url(#p8f6dac7bdc)" d="M 130.603463 139.995935 
Q 94.75527 179.234985 59.661176 217.648606 
" style="fill:none;stroke:#000000;stroke-linecap:round;"/>
    <path clip-path="url(#p8f6dac7bdc)" d="M 63.835698 216.044434 
L 59.661176 217.648606 
L 60.882552 213.346485 
L 63.835698 216.044434 
z
" style="stroke:#000000;stroke-linecap:round;"/>
   </g>
   <g id="patch_15">
    <path clip-path="url(#p8f6dac7bdc)" d="M 152.707845 131.32505 
Q 228.240649 137.599102 302.659257 143.780604 
" style="fill:none;stroke:#000000;stroke-linecap:round;"/>
    <path clip-path="url(#p8f6dac7bdc)" d="M 298.838543 141.456353 
L 302.659257 143.780604 
L 298.507428 145.442625 
L 298.838543 141.456353 
z
" style="stroke:#000000;stroke-linecap:round;"/>
   </g>
   <g id="patch_16">
    <path clip-path="url(#p8f6dac7bdc)" d="M 62.840349 231.367853 
Q 157.871505 254.474563 251.81628 277.317121 
" style="fill:none;stroke:#000000;stroke-linecap:round;"/>
    <path clip-path="url(#p8f6dac7bdc)" d="M 248.402056 274.428684 
L 251.81628 277.317121 
L 247.456996 278.315439 
L 248.402056 274.428684 
z
" style="stroke:#000000;stroke-linecap:round;"/>
   </g>
   <g id="patch_17">
    <path clip-path="url(#p8f6dac7bdc)" d="M 58.90542 218.475848 
Q 94.753613 179.236798 129.847707 140.823178 
" style="fill:none;stroke:#000000;stroke-linecap:round;"/>
    <path clip-path="url(#p8f6dac7bdc)" d="M 125.673185 142.427349 
L 129.847707 140.823178 
L 128.626331 145.125298 
L 125.673185 142.427349 
z
" style="stroke:#000000;stroke-linecap:round;"/>
   </g>
   <g id="patch_18">
    <path clip-path="url(#p8f6dac7bdc)" d="M 278.620743 283.774255 
Q 293.821062 287.398905 307.93384 290.764221 
" style="fill:none;stroke:#000000;stroke-linecap:round;"/>
    <path clip-path="url(#p8f6dac7bdc)" d="M 304.506845 287.890947 
L 307.93384 290.764221 
L 303.579024 291.781853 
L 304.506845 287.890947 
z
" style="stroke:#000000;stroke-linecap:round;"/>
   </g>
   <g id="patch_19">
    <path clip-path="url(#p8f6dac7bdc)" d="M 252.898251 277.580201 
Q 157.867094 254.473491 63.922319 231.630932 
" style="fill:none;stroke:#000000;stroke-linecap:round;"/>
    <path clip-path="url(#p8f6dac7bdc)" d="M 67.336543 234.51937 
L 63.922319 231.630932 
L 68.281603 230.632615 
L 67.336543 234.51937 
z
" style="stroke:#000000;stroke-linecap:round;"/>
   </g>
   <g id="patch_20">
    <path clip-path="url(#p8f6dac7bdc)" d="M 335.000948 295.885607 
Q 340.364515 296.619235 344.620363 297.201349 
" style="fill:none;stroke:#000000;stroke-linecap:round;"/>
    <path clip-path="url(#p8f6dac7bdc)" d="M 340.928299 294.677727 
L 344.620363 297.201349 
L 340.386227 298.640826 
L 340.928299 294.677727 
z
" style="stroke:#000000;stroke-linecap:round;"/>
   </g>
   <g id="patch_21">
    <path clip-path="url(#p8f6dac7bdc)" d="M 334.642567 290.560392 
Q 339.543976 289.202757 343.367921 288.143566 
" style="fill:none;stroke:#000000;stroke-linecap:round;"/>
    <path clip-path="url(#p8f6dac7bdc)" d="M 338.97919 287.283891 
L 343.367921 288.143566 
L 340.046942 291.138746 
L 338.97919 287.283891 
z
" style="stroke:#000000;stroke-linecap:round;"/>
   </g>
   <g id="patch_22">
    <path clip-path="url(#p8f6dac7bdc)" d="M 309.025396 291.024512 
Q 293.825077 287.399862 279.712299 284.034546 
" style="fill:none;stroke:#000000;stroke-linecap:round;"/>
    <path clip-path="url(#p8f6dac7bdc)" d="M 283.139295 286.907819 
L 279.712299 284.034546 
L 284.067115 283.016913 
L 283.139295 286.907819 
z
" style="stroke:#000000;stroke-linecap:round;"/>
   </g>
   <g id="patch_23">
    <path clip-path="url(#p8f6dac7bdc)" d="M 504.216113 165.917614 
Q 513.628387 206.676435 522.789098 246.345891 
" style="fill:none;stroke:#000000;stroke-linecap:round;"/>
    <path clip-path="url(#p8f6dac7bdc)" d="M 523.837795 241.998451 
L 522.789098 246.345891 
L 519.940364 242.89847 
L 523.837795 241.998451 
z
" style="stroke:#000000;stroke-linecap:round;"/>
   </g>
   <g id="patch_24">
    <path clip-path="url(#p8f6dac7bdc)" d="M 488.020461 152.448283 
Q 409.097409 148.997269 331.291322 145.595095 
" style="fill:none;stroke:#000000;stroke-linecap:round;"/>
    <path clip-path="url(#p8f6dac7bdc)" d="M 335.200135 147.767924 
L 331.291322 145.595095 
L 335.374873 143.771743 
L 335.200135 147.767924 
z
" style="stroke:#000000;stroke-linecap:round;"/>
   </g>
   <g id="patch_25">
    <path clip-path="url(#p8f6dac7bdc)" d="M 513.00766 262.72767 
Q 435.951626 276.977704 359.994986 291.024426 
" style="fill:none;stroke:#000000;stroke-linecap:round;"/>
    <path clip-path="url(#p8f6dac7bdc)" d="M 364.291988 292.263689 
L 359.994986 291.024426 
L 363.564598 288.330382 
L 364.291988 292.263689 
z
" style="stroke:#000000;stroke-linecap:round;"/>
   </g>
   <g id="patch_26">
    <path clip-path="url(#p8f6dac7bdc)" d="M 523.039586 247.430604 
Q 513.627312 206.671783 504.466601 167.002327 
" style="fill:none;stroke:#000000;stroke-linecap:round;"/>
    <path clip-path="url(#p8f6dac7bdc)" d="M 503.417904 171.349767 
L 504.466601 167.002327 
L 507.315335 170.449749 
L 503.417904 171.349767 
z
" style="stroke:#000000;stroke-linecap:round;"/>
   </g>
   <g id="patch_27">
    <path clip-path="url(#p8f6dac7bdc)" d="M 332.662764 294.061809 
Q 328.213733 294.205972 324.88215 294.313925 
" style="fill:none;stroke:#000000;stroke-linecap:round;"/>
    <path clip-path="url(#p8f6dac7bdc)" d="M 328.944824 296.183332 
L 324.88215 294.313925 
L 328.81528 292.18543 
L 328.944824 296.183332 
z
" style="stroke:#000000;stroke-linecap:round;"/>
   </g>
   <g id="patch_28">
    <path clip-path="url(#p8f6dac7bdc)" d="M 358.896675 291.227537 
Q 435.952708 276.977504 511.909348 262.930782 
" style="fill:none;stroke:#000000;stroke-linecap:round;"/>
    <path clip-path="url(#p8f6dac7bdc)" d="M 507.612347 261.691518 
L 511.909348 262.930782 
L 508.339736 265.624825 
L 507.612347 261.691518 
z
" style="stroke:#000000;stroke-linecap:round;"/>
   </g>
   <g id="patch_29">
    <path clip-path="url(#p8f6dac7bdc)" d="M 297.474684 296.859146 
Q 292.340369 297.676699 288.310178 298.318439 
" style="fill:none;stroke:#000000;stroke-linecap:round;"/>
    <path clip-path="url(#p8f6dac7bdc)" d="M 292.574916 299.664548 
L 288.310178 298.318439 
L 291.945908 295.714314 
L 292.574916 299.664548 
z
" style="stroke:#000000;stroke-linecap:round;"/>
   </g>
   <g id="patch_30">
    <path clip-path="url(#p8f6dac7bdc)" d="M 310.540483 294.778639 
Q 313.277478 290.086189 315.451169 286.359497 
" style="fill:none;stroke:#000000;stroke-linecap:round;"/>
    <path clip-path="url(#p8f6dac7bdc)" d="M 311.708231 288.80703 
L 315.451169 286.359497 
L 315.163433 290.822367 
L 311.708231 288.80703 
z
" style="stroke:#000000;stroke-linecap:round;"/>
   </g>
   <g id="patch_31">
    <path clip-path="url(#p8f6dac7bdc)" d="M 323.765525 294.350107 
Q 328.214555 294.205945 331.546138 294.097992 
" style="fill:none;stroke:#000000;stroke-linecap:round;"/>
    <path clip-path="url(#p8f6dac7bdc)" d="M 327.483464 292.228585 
L 331.546138 294.097992 
L 327.613009 296.226487 
L 327.483464 292.228585 
z
" style="stroke:#000000;stroke-linecap:round;"/>
   </g>
   <g id="patch_32">
    <path clip-path="url(#p8f6dac7bdc)" d="M 182.138617 358.544248 
Q 152.823892 445.592083 123.865991 531.580355 
" style="fill:none;stroke:#000000;stroke-linecap:round;"/>
    <path clip-path="url(#p8f6dac7bdc)" d="M 127.038012 528.427851 
L 123.865991 531.580355 
L 123.247201 527.151236 
L 127.038012 528.427851 
z
" style="stroke:#000000;stroke-linecap:round;"/>
   </g>
   <g id="patch_33">
    <path clip-path="url(#p8f6dac7bdc)" d="M 199.589297 345.968832 
Q 229.35568 345.880857 258.004034 345.796187 
" style="fill:none;stroke:#000000;stroke-linecap:round;"/>
    <path clip-path="url(#p8f6dac7bdc)" d="M 253.998141 343.808018 
L 258.004034 345.796187 
L 254.009963 347.808 
L 253.998141 343.808018 
z
" style="stroke:#000000;stroke-linecap:round;"/>
   </g>
   <g id="patch_34">
    <path clip-path="url(#p8f6dac7bdc)" d="M 116.732303 558.157647 
Q 100.251788 641.901662 83.987157 724.548685 
" style="fill:none;stroke:#000000;stroke-linecap:round;"/>
    <path clip-path="url(#p8f6dac7bdc)" d="M 86.721889 721.010148 
L 83.987157 724.548685 
L 82.797167 720.237777 
L 86.721889 721.010148 
z
" style="stroke:#000000;stroke-linecap:round;"/>
   </g>
   <g id="patch_35">
    <path clip-path="url(#p8f6dac7bdc)" d="M 123.508282 532.642545 
Q 152.823007 445.59471 181.780908 359.606438 
" style="fill:none;stroke:#000000;stroke-linecap:round;"/>
    <path clip-path="url(#p8f6dac7bdc)" d="M 178.608887 362.758942 
L 181.780908 359.606438 
L 182.399698 364.035557 
L 178.608887 362.758942 
z
" style="stroke:#000000;stroke-linecap:round;"/>
   </g>
   <g id="patch_36">
    <path clip-path="url(#p8f6dac7bdc)" d="M 75.409419 750.507321 
Q 68.901122 763.824107 62.883747 776.136405 
" style="fill:none;stroke:#000000;stroke-linecap:round;"/>
    <path clip-path="url(#p8f6dac7bdc)" d="M 66.437005 773.420829 
L 62.883747 776.136405 
L 62.843241 771.664453 
L 66.437005 773.420829 
z
" style="stroke:#000000;stroke-linecap:round;"/>
   </g>
   <g id="patch_37">
    <path clip-path="url(#p8f6dac7bdc)" d="M 83.771394 725.645062 
Q 100.251909 641.901046 116.51654 559.254023 
" style="fill:none;stroke:#000000;stroke-linecap:round;"/>
    <path clip-path="url(#p8f6dac7bdc)" d="M 113.781808 562.79256 
L 116.51654 559.254023 
L 117.70653 563.564931 
L 113.781808 562.79256 
z
" style="stroke:#000000;stroke-linecap:round;"/>
   </g>
   <g id="patch_38">
    <path clip-path="url(#p8f6dac7bdc)" d="M 62.392617 777.141318 
Q 68.900914 763.824532 74.91829 751.512234 
" style="fill:none;stroke:#000000;stroke-linecap:round;"/>
    <path clip-path="url(#p8f6dac7bdc)" d="M 71.365031 754.22781 
L 74.91829 751.512234 
L 74.958795 755.984186 
L 71.365031 754.22781 
z
" style="stroke:#000000;stroke-linecap:round;"/>
   </g>
   <g id="patch_39">
    <path clip-path="url(#p8f6dac7bdc)" d="M 355.320797 363.690925 
Q 342.471954 441.353625 329.805602 517.913286 
" style="fill:none;stroke:#000000;stroke-linecap:round;"/>
    <path clip-path="url(#p8f6dac7bdc)" d="M 332.431681 514.293381 
L 329.805602 517.913286 
L 328.485326 513.64048 
L 332.431681 514.293381 
z
" style="stroke:#000000;stroke-linecap:round;"/>
   </g>
   <g id="patch_40">
    <path clip-path="url(#p8f6dac7bdc)" d="M 344.275143 349.880455 
Q 314.918111 348.19606 286.677277 346.575708 
" style="fill:none;stroke:#000000;stroke-linecap:round;"/>
    <path clip-path="url(#p8f6dac7bdc)" d="M 290.556145 348.801552 
L 286.677277 346.575708 
L 290.785273 344.80812 
L 290.556145 348.801552 
z
" style="stroke:#000000;stroke-linecap:round;"/>
   </g>
   <g id="patch_41">
    <path clip-path="url(#p8f6dac7bdc)" d="M 322.312523 544.246996 
Q 289.054361 622.889268 256.231679 700.501804 
" style="fill:none;stroke:#000000;stroke-linecap:round;"/>
    <path clip-path="url(#p8f6dac7bdc)" d="M 259.631748 697.596717 
L 256.231679 700.501804 
L 255.947651 696.038696 
L 259.631748 697.596717 
z
" style="stroke:#000000;stroke-linecap:round;"/>
   </g>
   <g id="patch_42">
    <path clip-path="url(#p8f6dac7bdc)" d="M 329.623756 519.012423 
Q 342.472599 441.349723 355.138951 364.790063 
" style="fill:none;stroke:#000000;stroke-linecap:round;"/>
    <path clip-path="url(#p8f6dac7bdc)" d="M 352.512872 368.409967 
L 355.138951 364.790063 
L 356.459227 369.062869 
L 352.512872 368.409967 
z
" style="stroke:#000000;stroke-linecap:round;"/>
   </g>
   <g id="patch_43">
    <path clip-path="url(#p8f6dac7bdc)" d="M 254.827784 726.2613 
Q 257.207485 733.399058 259.233572 739.476177 
" style="fill:none;stroke:#000000;stroke-linecap:round;"/>
    <path clip-path="url(#p8f6dac7bdc)" d="M 259.865778 735.048953 
L 259.233572 739.476177 
L 256.071116 736.314078 
L 259.865778 735.048953 
z
" style="stroke:#000000;stroke-linecap:round;"/>
   </g>
   <g id="patch_44">
    <path clip-path="url(#p8f6dac7bdc)" d="M 255.796118 701.531732 
Q 289.05428 622.88946 321.876962 545.276924 
" style="fill:none;stroke:#000000;stroke-linecap:round;"/>
    <path clip-path="url(#p8f6dac7bdc)" d="M 318.476892 548.182011 
L 321.876962 545.276924 
L 322.160989 549.740031 
L 318.476892 548.182011 
z
" style="stroke:#000000;stroke-linecap:round;"/>
   </g>
   <g id="patch_45">
    <path clip-path="url(#p8f6dac7bdc)" d="M 259.588882 740.541906 
Q 257.209181 733.404148 255.183094 727.327029 
" style="fill:none;stroke:#000000;stroke-linecap:round;"/>
    <path clip-path="url(#p8f6dac7bdc)" d="M 254.550888 731.754254 
L 255.183094 727.327029 
L 258.34555 730.489128 
L 254.550888 731.754254 
z
" style="stroke:#000000;stroke-linecap:round;"/>
   </g>
   <g id="patch_46">
    <path clip-path="url(#p8f6dac7bdc)" d="M 345.72521 297.35247 
Q 340.361642 296.618842 336.105795 296.036727 
" style="fill:none;stroke:#000000;stroke-linecap:round;"/>
    <path clip-path="url(#p8f6dac7bdc)" d="M 339.797858 298.560349 
L 336.105795 296.036727 
L 340.33993 294.59725 
L 339.797858 298.560349 
z
" style="stroke:#000000;stroke-linecap:round;"/>
   </g>
   <g id="patch_47">
    <path clip-path="url(#p8f6dac7bdc)" d="M 344.442174 287.84601 
Q 339.540765 289.203646 335.71682 290.262836 
" style="fill:none;stroke:#000000;stroke-linecap:round;"/>
    <path clip-path="url(#p8f6dac7bdc)" d="M 340.105551 291.122512 
L 335.71682 290.262836 
L 339.037799 287.267657 
L 340.105551 291.122512 
z
" style="stroke:#000000;stroke-linecap:round;"/>
   </g>
   <g id="patch_48">
    <path clip-path="url(#p8f6dac7bdc)" d="M 300.271853 296.413745 
Q 305.406168 295.596192 309.436359 294.954452 
" style="fill:none;stroke:#000000;stroke-linecap:round;"/>
    <path clip-path="url(#p8f6dac7bdc)" d="M 305.171621 293.608343 
L 309.436359 294.954452 
L 305.800629 297.558577 
L 305.171621 293.608343 
z
" style="stroke:#000000;stroke-linecap:round;"/>
   </g>
   <g id="patch_49">
    <path clip-path="url(#p8f6dac7bdc)" d="M 316.014473 285.393739 
Q 313.277478 290.086189 311.103787 293.812881 
" style="fill:none;stroke:#000000;stroke-linecap:round;"/>
    <path clip-path="url(#p8f6dac7bdc)" d="M 314.846725 291.365348 
L 311.103787 293.812881 
L 311.391523 289.350011 
L 314.846725 291.365348 
z
" style="stroke:#000000;stroke-linecap:round;"/>
   </g>
   <g id="PathCollection_1">
    <defs>
     <path d="M 0 13.228757 
C 3.508307 13.228757 6.873396 11.834891 9.354143 9.354143 
C 11.834891 6.873396 13.228757 3.508307 13.228757 0 
C 13.228757 -3.508307 11.834891 -6.873396 9.354143 -9.354143 
C 6.873396 -11.834891 3.508307 -13.228757 0 -13.228757 
C -3.508307 -13.228757 -6.873396 -11.834891 -9.354143 -9.354143 
C -11.834891 -6.873396 -13.228757 -3.508307 -13.228757 0 
C -13.228757 3.508307 -11.834891 6.873396 -9.354143 9.354143 
C -6.873396 11.834891 -3.508307 13.228757 0 13.228757 
z
" id="m0261e1b917" style="stroke:#87ceeb;"/>
    </defs>
    <g clip-path="url(#p8f6dac7bdc)">
     <use style="fill:#87ceeb;stroke:#87ceeb;" x="333.452292" xlink:href="#m0261e1b917" y="74.975207"/>
     <use style="fill:#87ceeb;stroke:#87ceeb;" x="323.129879" xlink:href="#m0261e1b917" y="117.47972"/>
     <use style="fill:#87ceeb;stroke:#87ceeb;" x="316.958956" xlink:href="#m0261e1b917" y="144.968394"/>
     <use style="fill:#87ceeb;stroke:#87ceeb;" x="298.024683" xlink:href="#m0261e1b917" y="229.810914"/>
     <use style="fill:#87ceeb;stroke:#87ceeb;" x="272.352061" xlink:href="#m0261e1b917" y="345.753781"/>
     <use style="fill:#87ceeb;stroke:#87ceeb;" x="139.525412" xlink:href="#m0261e1b917" y="130.230065"/>
     <use style="fill:#87ceeb;stroke:#87ceeb;" x="49.983471" xlink:href="#m0261e1b917" y="228.241719"/>
     <use style="fill:#87ceeb;stroke:#87ceeb;" x="265.755128" xlink:href="#m0261e1b917" y="280.706335"/>
     <use style="fill:#87ceeb;stroke:#87ceeb;" x="321.891011" xlink:href="#m0261e1b917" y="294.092431"/>
     <use style="fill:#87ceeb;stroke:#87ceeb;" x="501.23917" xlink:href="#m0261e1b917" y="153.026289"/>
     <use style="fill:#87ceeb;stroke:#87ceeb;" x="526.016529" xlink:href="#m0261e1b917" y="260.321929"/>
     <use style="fill:#87ceeb;stroke:#87ceeb;" x="345.887805" xlink:href="#m0261e1b917" y="293.633278"/>
     <use style="fill:#87ceeb;stroke:#87ceeb;" x="310.540483" xlink:href="#m0261e1b917" y="294.778639"/>
     <use style="fill:#87ceeb;stroke:#87ceeb;" x="186.360419" xlink:href="#m0261e1b917" y="346.00793"/>
     <use style="fill:#87ceeb;stroke:#87ceeb;" x="119.28648" xlink:href="#m0261e1b917" y="545.178863"/>
     <use style="fill:#87ceeb;stroke:#87ceeb;" x="81.217217" xlink:href="#m0261e1b917" y="738.623846"/>
     <use style="fill:#87ceeb;stroke:#87ceeb;" x="56.58482" xlink:href="#m0261e1b917" y="789.024793"/>
     <use style="fill:#87ceeb;stroke:#87ceeb;" x="357.480309" xlink:href="#m0261e1b917" y="350.638117"/>
     <use style="fill:#87ceeb;stroke:#87ceeb;" x="327.464244" xlink:href="#m0261e1b917" y="532.065231"/>
     <use style="fill:#87ceeb;stroke:#87ceeb;" x="250.644396" xlink:href="#m0261e1b917" y="713.713496"/>
     <use style="fill:#87ceeb;stroke:#87ceeb;" x="263.77227" xlink:href="#m0261e1b917" y="753.08971"/>
     <use style="fill:#87ceeb;stroke:#87ceeb;" x="358.835146" xlink:href="#m0261e1b917" y="299.145645"/>
     <use style="fill:#87ceeb;stroke:#87ceeb;" x="357.19373" xlink:href="#m0261e1b917" y="284.313971"/>
     <use style="fill:#87ceeb;stroke:#87ceeb;" x="287.206054" xlink:href="#m0261e1b917" y="298.494252"/>
     <use style="fill:#87ceeb;stroke:#87ceeb;" x="316.014473" xlink:href="#m0261e1b917" y="285.393739"/>
    </g>
   </g>
   <g id="text_1">
    <g clip-path="url(#p8f6dac7bdc)">
     <!-- Head -->
     <g transform="translate(320.377292 77.734582)scale(0.1 -0.1)">
      <defs>
       <path d="M 9.8125 72.90625 
L 19.671875 72.90625 
L 19.671875 43.015625 
L 55.515625 43.015625 
L 55.515625 72.90625 
L 65.375 72.90625 
L 65.375 0 
L 55.515625 0 
L 55.515625 34.71875 
L 19.671875 34.71875 
L 19.671875 0 
L 9.8125 0 
z
" id="DejaVuSans-72"/>
       <path d="M 56.203125 29.59375 
L 56.203125 25.203125 
L 14.890625 25.203125 
Q 15.484375 15.921875 20.484375 11.0625 
Q 25.484375 6.203125 34.421875 6.203125 
Q 39.59375 6.203125 44.453125 7.46875 
Q 49.3125 8.734375 54.109375 11.28125 
L 54.109375 2.78125 
Q 49.265625 0.734375 44.1875 -0.34375 
Q 39.109375 -1.421875 33.890625 -1.421875 
Q 20.796875 -1.421875 13.15625 6.1875 
Q 5.515625 13.8125 5.515625 26.8125 
Q 5.515625 40.234375 12.765625 48.109375 
Q 20.015625 56 32.328125 56 
Q 43.359375 56 49.78125 48.890625 
Q 56.203125 41.796875 56.203125 29.59375 
z
M 47.21875 32.234375 
Q 47.125 39.59375 43.09375 43.984375 
Q 39.0625 48.390625 32.421875 48.390625 
Q 24.90625 48.390625 20.390625 44.140625 
Q 15.875 39.890625 15.1875 32.171875 
z
" id="DejaVuSans-101"/>
       <path d="M 34.28125 27.484375 
Q 23.390625 27.484375 19.1875 25 
Q 14.984375 22.515625 14.984375 16.5 
Q 14.984375 11.71875 18.140625 8.90625 
Q 21.296875 6.109375 26.703125 6.109375 
Q 34.1875 6.109375 38.703125 11.40625 
Q 43.21875 16.703125 43.21875 25.484375 
L 43.21875 27.484375 
z
M 52.203125 31.203125 
L 52.203125 0 
L 43.21875 0 
L 43.21875 8.296875 
Q 40.140625 3.328125 35.546875 0.953125 
Q 30.953125 -1.421875 24.3125 -1.421875 
Q 15.921875 -1.421875 10.953125 3.296875 
Q 6 8.015625 6 15.921875 
Q 6 25.140625 12.171875 29.828125 
Q 18.359375 34.515625 30.609375 34.515625 
L 43.21875 34.515625 
L 43.21875 35.40625 
Q 43.21875 41.609375 39.140625 45 
Q 35.0625 48.390625 27.6875 48.390625 
Q 23 48.390625 18.546875 47.265625 
Q 14.109375 46.140625 10.015625 43.890625 
L 10.015625 52.203125 
Q 14.9375 54.109375 19.578125 55.046875 
Q 24.21875 56 28.609375 56 
Q 40.484375 56 46.34375 49.84375 
Q 52.203125 43.703125 52.203125 31.203125 
z
" id="DejaVuSans-97"/>
       <path d="M 45.40625 46.390625 
L 45.40625 75.984375 
L 54.390625 75.984375 
L 54.390625 0 
L 45.40625 0 
L 45.40625 8.203125 
Q 42.578125 3.328125 38.25 0.953125 
Q 33.9375 -1.421875 27.875 -1.421875 
Q 17.96875 -1.421875 11.734375 6.484375 
Q 5.515625 14.40625 5.515625 27.296875 
Q 5.515625 40.1875 11.734375 48.09375 
Q 17.96875 56 27.875 56 
Q 33.9375 56 38.25 53.625 
Q 42.578125 51.265625 45.40625 46.390625 
z
M 14.796875 27.296875 
Q 14.796875 17.390625 18.875 11.75 
Q 22.953125 6.109375 30.078125 6.109375 
Q 37.203125 6.109375 41.296875 11.75 
Q 45.40625 17.390625 45.40625 27.296875 
Q 45.40625 37.203125 41.296875 42.84375 
Q 37.203125 48.484375 30.078125 48.484375 
Q 22.953125 48.484375 18.875 42.84375 
Q 14.796875 37.203125 14.796875 27.296875 
z
" id="DejaVuSans-100"/>
      </defs>
      <use xlink:href="#DejaVuSans-72"/>
      <use x="75.195312" xlink:href="#DejaVuSans-101"/>
      <use x="136.71875" xlink:href="#DejaVuSans-97"/>
      <use x="197.998047" xlink:href="#DejaVuSans-100"/>
     </g>
    </g>
   </g>
   <g id="text_2">
    <g clip-path="url(#p8f6dac7bdc)">
     <!-- c7 -->
     <g transform="translate(317.199411 120.239095)scale(0.1 -0.1)">
      <defs>
       <path d="M 48.78125 52.59375 
L 48.78125 44.1875 
Q 44.96875 46.296875 41.140625 47.34375 
Q 37.3125 48.390625 33.40625 48.390625 
Q 24.65625 48.390625 19.8125 42.84375 
Q 14.984375 37.3125 14.984375 27.296875 
Q 14.984375 17.28125 19.8125 11.734375 
Q 24.65625 6.203125 33.40625 6.203125 
Q 37.3125 6.203125 41.140625 7.25 
Q 44.96875 8.296875 48.78125 10.40625 
L 48.78125 2.09375 
Q 45.015625 0.34375 40.984375 -0.53125 
Q 36.96875 -1.421875 32.421875 -1.421875 
Q 20.0625 -1.421875 12.78125 6.34375 
Q 5.515625 14.109375 5.515625 27.296875 
Q 5.515625 40.671875 12.859375 48.328125 
Q 20.21875 56 33.015625 56 
Q 37.15625 56 41.109375 55.140625 
Q 45.0625 54.296875 48.78125 52.59375 
z
" id="DejaVuSans-99"/>
       <path d="M 8.203125 72.90625 
L 55.078125 72.90625 
L 55.078125 68.703125 
L 28.609375 0 
L 18.3125 0 
L 43.21875 64.59375 
L 8.203125 64.59375 
z
" id="DejaVuSans-55"/>
      </defs>
      <use xlink:href="#DejaVuSans-99"/>
      <use x="54.980469" xlink:href="#DejaVuSans-55"/>
     </g>
    </g>
   </g>
   <g id="text_3">
    <g clip-path="url(#p8f6dac7bdc)">
     <!-- SpineShoulder -->
     <g transform="translate(280.709738 147.727769)scale(0.1 -0.1)">
      <defs>
       <path d="M 53.515625 70.515625 
L 53.515625 60.890625 
Q 47.90625 63.578125 42.921875 64.890625 
Q 37.9375 66.21875 33.296875 66.21875 
Q 25.25 66.21875 20.875 63.09375 
Q 16.5 59.96875 16.5 54.203125 
Q 16.5 49.359375 19.40625 46.890625 
Q 22.3125 44.4375 30.421875 42.921875 
L 36.375 41.703125 
Q 47.40625 39.59375 52.65625 34.296875 
Q 57.90625 29 57.90625 20.125 
Q 57.90625 9.515625 50.796875 4.046875 
Q 43.703125 -1.421875 29.984375 -1.421875 
Q 24.8125 -1.421875 18.96875 -0.25 
Q 13.140625 0.921875 6.890625 3.21875 
L 6.890625 13.375 
Q 12.890625 10.015625 18.65625 8.296875 
Q 24.421875 6.59375 29.984375 6.59375 
Q 38.421875 6.59375 43.015625 9.90625 
Q 47.609375 13.234375 47.609375 19.390625 
Q 47.609375 24.75 44.3125 27.78125 
Q 41.015625 30.8125 33.5 32.328125 
L 27.484375 33.5 
Q 16.453125 35.6875 11.515625 40.375 
Q 6.59375 45.0625 6.59375 53.421875 
Q 6.59375 63.09375 13.40625 68.65625 
Q 20.21875 74.21875 32.171875 74.21875 
Q 37.3125 74.21875 42.625 73.28125 
Q 47.953125 72.359375 53.515625 70.515625 
z
" id="DejaVuSans-83"/>
       <path d="M 18.109375 8.203125 
L 18.109375 -20.796875 
L 9.078125 -20.796875 
L 9.078125 54.6875 
L 18.109375 54.6875 
L 18.109375 46.390625 
Q 20.953125 51.265625 25.265625 53.625 
Q 29.59375 56 35.59375 56 
Q 45.5625 56 51.78125 48.09375 
Q 58.015625 40.1875 58.015625 27.296875 
Q 58.015625 14.40625 51.78125 6.484375 
Q 45.5625 -1.421875 35.59375 -1.421875 
Q 29.59375 -1.421875 25.265625 0.953125 
Q 20.953125 3.328125 18.109375 8.203125 
z
M 48.6875 27.296875 
Q 48.6875 37.203125 44.609375 42.84375 
Q 40.53125 48.484375 33.40625 48.484375 
Q 26.265625 48.484375 22.1875 42.84375 
Q 18.109375 37.203125 18.109375 27.296875 
Q 18.109375 17.390625 22.1875 11.75 
Q 26.265625 6.109375 33.40625 6.109375 
Q 40.53125 6.109375 44.609375 11.75 
Q 48.6875 17.390625 48.6875 27.296875 
z
" id="DejaVuSans-112"/>
       <path d="M 9.421875 54.6875 
L 18.40625 54.6875 
L 18.40625 0 
L 9.421875 0 
z
M 9.421875 75.984375 
L 18.40625 75.984375 
L 18.40625 64.59375 
L 9.421875 64.59375 
z
" id="DejaVuSans-105"/>
       <path d="M 54.890625 33.015625 
L 54.890625 0 
L 45.90625 0 
L 45.90625 32.71875 
Q 45.90625 40.484375 42.875 44.328125 
Q 39.84375 48.1875 33.796875 48.1875 
Q 26.515625 48.1875 22.3125 43.546875 
Q 18.109375 38.921875 18.109375 30.90625 
L 18.109375 0 
L 9.078125 0 
L 9.078125 54.6875 
L 18.109375 54.6875 
L 18.109375 46.1875 
Q 21.34375 51.125 25.703125 53.5625 
Q 30.078125 56 35.796875 56 
Q 45.21875 56 50.046875 50.171875 
Q 54.890625 44.34375 54.890625 33.015625 
z
" id="DejaVuSans-110"/>
       <path d="M 54.890625 33.015625 
L 54.890625 0 
L 45.90625 0 
L 45.90625 32.71875 
Q 45.90625 40.484375 42.875 44.328125 
Q 39.84375 48.1875 33.796875 48.1875 
Q 26.515625 48.1875 22.3125 43.546875 
Q 18.109375 38.921875 18.109375 30.90625 
L 18.109375 0 
L 9.078125 0 
L 9.078125 75.984375 
L 18.109375 75.984375 
L 18.109375 46.1875 
Q 21.34375 51.125 25.703125 53.5625 
Q 30.078125 56 35.796875 56 
Q 45.21875 56 50.046875 50.171875 
Q 54.890625 44.34375 54.890625 33.015625 
z
" id="DejaVuSans-104"/>
       <path d="M 30.609375 48.390625 
Q 23.390625 48.390625 19.1875 42.75 
Q 14.984375 37.109375 14.984375 27.296875 
Q 14.984375 17.484375 19.15625 11.84375 
Q 23.34375 6.203125 30.609375 6.203125 
Q 37.796875 6.203125 41.984375 11.859375 
Q 46.1875 17.53125 46.1875 27.296875 
Q 46.1875 37.015625 41.984375 42.703125 
Q 37.796875 48.390625 30.609375 48.390625 
z
M 30.609375 56 
Q 42.328125 56 49.015625 48.375 
Q 55.71875 40.765625 55.71875 27.296875 
Q 55.71875 13.875 49.015625 6.21875 
Q 42.328125 -1.421875 30.609375 -1.421875 
Q 18.84375 -1.421875 12.171875 6.21875 
Q 5.515625 13.875 5.515625 27.296875 
Q 5.515625 40.765625 12.171875 48.375 
Q 18.84375 56 30.609375 56 
z
" id="DejaVuSans-111"/>
       <path d="M 8.5 21.578125 
L 8.5 54.6875 
L 17.484375 54.6875 
L 17.484375 21.921875 
Q 17.484375 14.15625 20.5 10.265625 
Q 23.53125 6.390625 29.59375 6.390625 
Q 36.859375 6.390625 41.078125 11.03125 
Q 45.3125 15.671875 45.3125 23.6875 
L 45.3125 54.6875 
L 54.296875 54.6875 
L 54.296875 0 
L 45.3125 0 
L 45.3125 8.40625 
Q 42.046875 3.421875 37.71875 1 
Q 33.40625 -1.421875 27.6875 -1.421875 
Q 18.265625 -1.421875 13.375 4.4375 
Q 8.5 10.296875 8.5 21.578125 
z
M 31.109375 56 
z
" id="DejaVuSans-117"/>
       <path d="M 9.421875 75.984375 
L 18.40625 75.984375 
L 18.40625 0 
L 9.421875 0 
z
" id="DejaVuSans-108"/>
       <path d="M 41.109375 46.296875 
Q 39.59375 47.171875 37.8125 47.578125 
Q 36.03125 48 33.890625 48 
Q 26.265625 48 22.1875 43.046875 
Q 18.109375 38.09375 18.109375 28.8125 
L 18.109375 0 
L 9.078125 0 
L 9.078125 54.6875 
L 18.109375 54.6875 
L 18.109375 46.1875 
Q 20.953125 51.171875 25.484375 53.578125 
Q 30.03125 56 36.53125 56 
Q 37.453125 56 38.578125 55.875 
Q 39.703125 55.765625 41.0625 55.515625 
z
" id="DejaVuSans-114"/>
      </defs>
      <use xlink:href="#DejaVuSans-83"/>
      <use x="63.476562" xlink:href="#DejaVuSans-112"/>
      <use x="126.953125" xlink:href="#DejaVuSans-105"/>
      <use x="154.736328" xlink:href="#DejaVuSans-110"/>
      <use x="218.115234" xlink:href="#DejaVuSans-101"/>
      <use x="279.638672" xlink:href="#DejaVuSans-83"/>
      <use x="343.115234" xlink:href="#DejaVuSans-104"/>
      <use x="406.494141" xlink:href="#DejaVuSans-111"/>
      <use x="467.675781" xlink:href="#DejaVuSans-117"/>
      <use x="531.054688" xlink:href="#DejaVuSans-108"/>
      <use x="558.837891" xlink:href="#DejaVuSans-100"/>
      <use x="622.314453" xlink:href="#DejaVuSans-101"/>
      <use x="683.837891" xlink:href="#DejaVuSans-114"/>
     </g>
    </g>
   </g>
   <g id="text_4">
    <g clip-path="url(#p8f6dac7bdc)">
     <!-- Spine -->
     <g transform="translate(284.041871 232.570289)scale(0.1 -0.1)">
      <use xlink:href="#DejaVuSans-83"/>
      <use x="63.476562" xlink:href="#DejaVuSans-112"/>
      <use x="126.953125" xlink:href="#DejaVuSans-105"/>
      <use x="154.736328" xlink:href="#DejaVuSans-110"/>
      <use x="218.115234" xlink:href="#DejaVuSans-101"/>
     </g>
    </g>
   </g>
   <g id="text_5">
    <g clip-path="url(#p8f6dac7bdc)">
     <!-- Sacr -->
     <g transform="translate(261.309092 348.513156)scale(0.1 -0.1)">
      <use xlink:href="#DejaVuSans-83"/>
      <use x="63.476562" xlink:href="#DejaVuSans-97"/>
      <use x="124.755859" xlink:href="#DejaVuSans-99"/>
      <use x="179.736328" xlink:href="#DejaVuSans-114"/>
     </g>
    </g>
   </g>
   <g id="text_6">
    <g clip-path="url(#p8f6dac7bdc)">
     <!-- LShoulder -->
     <g transform="translate(114.473068 132.98944)scale(0.1 -0.1)">
      <defs>
       <path d="M 9.8125 72.90625 
L 19.671875 72.90625 
L 19.671875 8.296875 
L 55.171875 8.296875 
L 55.171875 0 
L 9.8125 0 
z
" id="DejaVuSans-76"/>
      </defs>
      <use xlink:href="#DejaVuSans-76"/>
      <use x="55.712891" xlink:href="#DejaVuSans-83"/>
      <use x="119.189453" xlink:href="#DejaVuSans-104"/>
      <use x="182.568359" xlink:href="#DejaVuSans-111"/>
      <use x="243.75" xlink:href="#DejaVuSans-117"/>
      <use x="307.128906" xlink:href="#DejaVuSans-108"/>
      <use x="334.912109" xlink:href="#DejaVuSans-100"/>
      <use x="398.388672" xlink:href="#DejaVuSans-101"/>
      <use x="459.912109" xlink:href="#DejaVuSans-114"/>
     </g>
    </g>
   </g>
   <g id="text_7">
    <g clip-path="url(#p8f6dac7bdc)">
     <!-- LElbow -->
     <g transform="translate(32.32644 231.001094)scale(0.1 -0.1)">
      <defs>
       <path d="M 9.8125 72.90625 
L 55.90625 72.90625 
L 55.90625 64.59375 
L 19.671875 64.59375 
L 19.671875 43.015625 
L 54.390625 43.015625 
L 54.390625 34.71875 
L 19.671875 34.71875 
L 19.671875 8.296875 
L 56.78125 8.296875 
L 56.78125 0 
L 9.8125 0 
z
" id="DejaVuSans-69"/>
       <path d="M 48.6875 27.296875 
Q 48.6875 37.203125 44.609375 42.84375 
Q 40.53125 48.484375 33.40625 48.484375 
Q 26.265625 48.484375 22.1875 42.84375 
Q 18.109375 37.203125 18.109375 27.296875 
Q 18.109375 17.390625 22.1875 11.75 
Q 26.265625 6.109375 33.40625 6.109375 
Q 40.53125 6.109375 44.609375 11.75 
Q 48.6875 17.390625 48.6875 27.296875 
z
M 18.109375 46.390625 
Q 20.953125 51.265625 25.265625 53.625 
Q 29.59375 56 35.59375 56 
Q 45.5625 56 51.78125 48.09375 
Q 58.015625 40.1875 58.015625 27.296875 
Q 58.015625 14.40625 51.78125 6.484375 
Q 45.5625 -1.421875 35.59375 -1.421875 
Q 29.59375 -1.421875 25.265625 0.953125 
Q 20.953125 3.328125 18.109375 8.203125 
L 18.109375 0 
L 9.078125 0 
L 9.078125 75.984375 
L 18.109375 75.984375 
z
" id="DejaVuSans-98"/>
       <path d="M 4.203125 54.6875 
L 13.1875 54.6875 
L 24.421875 12.015625 
L 35.59375 54.6875 
L 46.1875 54.6875 
L 57.421875 12.015625 
L 68.609375 54.6875 
L 77.59375 54.6875 
L 63.28125 0 
L 52.6875 0 
L 40.921875 44.828125 
L 29.109375 0 
L 18.5 0 
z
" id="DejaVuSans-119"/>
      </defs>
      <use xlink:href="#DejaVuSans-76"/>
      <use x="55.712891" xlink:href="#DejaVuSans-69"/>
      <use x="118.896484" xlink:href="#DejaVuSans-108"/>
      <use x="146.679688" xlink:href="#DejaVuSans-98"/>
      <use x="210.15625" xlink:href="#DejaVuSans-111"/>
      <use x="271.337891" xlink:href="#DejaVuSans-119"/>
     </g>
    </g>
   </g>
   <g id="text_8">
    <g clip-path="url(#p8f6dac7bdc)">
     <!-- LWrist -->
     <g transform="translate(250.697315 283.46571)scale(0.1 -0.1)">
      <defs>
       <path d="M 3.328125 72.90625 
L 13.28125 72.90625 
L 28.609375 11.28125 
L 43.890625 72.90625 
L 54.984375 72.90625 
L 70.3125 11.28125 
L 85.59375 72.90625 
L 95.609375 72.90625 
L 77.296875 0 
L 64.890625 0 
L 49.515625 63.28125 
L 33.984375 0 
L 21.578125 0 
z
" id="DejaVuSans-87"/>
       <path d="M 44.28125 53.078125 
L 44.28125 44.578125 
Q 40.484375 46.53125 36.375 47.5 
Q 32.28125 48.484375 27.875 48.484375 
Q 21.1875 48.484375 17.84375 46.4375 
Q 14.5 44.390625 14.5 40.28125 
Q 14.5 37.15625 16.890625 35.375 
Q 19.28125 33.59375 26.515625 31.984375 
L 29.59375 31.296875 
Q 39.15625 29.25 43.1875 25.515625 
Q 47.21875 21.78125 47.21875 15.09375 
Q 47.21875 7.46875 41.1875 3.015625 
Q 35.15625 -1.421875 24.609375 -1.421875 
Q 20.21875 -1.421875 15.453125 -0.5625 
Q 10.6875 0.296875 5.421875 2 
L 5.421875 11.28125 
Q 10.40625 8.6875 15.234375 7.390625 
Q 20.0625 6.109375 24.8125 6.109375 
Q 31.15625 6.109375 34.5625 8.28125 
Q 37.984375 10.453125 37.984375 14.40625 
Q 37.984375 18.0625 35.515625 20.015625 
Q 33.0625 21.96875 24.703125 23.78125 
L 21.578125 24.515625 
Q 13.234375 26.265625 9.515625 29.90625 
Q 5.8125 33.546875 5.8125 39.890625 
Q 5.8125 47.609375 11.28125 51.796875 
Q 16.75 56 26.8125 56 
Q 31.78125 56 36.171875 55.265625 
Q 40.578125 54.546875 44.28125 53.078125 
z
" id="DejaVuSans-115"/>
       <path d="M 18.3125 70.21875 
L 18.3125 54.6875 
L 36.8125 54.6875 
L 36.8125 47.703125 
L 18.3125 47.703125 
L 18.3125 18.015625 
Q 18.3125 11.328125 20.140625 9.421875 
Q 21.96875 7.515625 27.59375 7.515625 
L 36.8125 7.515625 
L 36.8125 0 
L 27.59375 0 
Q 17.1875 0 13.234375 3.875 
Q 9.28125 7.765625 9.28125 18.015625 
L 9.28125 47.703125 
L 2.6875 47.703125 
L 2.6875 54.6875 
L 9.28125 54.6875 
L 9.28125 70.21875 
z
" id="DejaVuSans-116"/>
      </defs>
      <use xlink:href="#DejaVuSans-76"/>
      <use x="46.587891" xlink:href="#DejaVuSans-87"/>
      <use x="140.964844" xlink:href="#DejaVuSans-114"/>
      <use x="182.078125" xlink:href="#DejaVuSans-105"/>
      <use x="209.861328" xlink:href="#DejaVuSans-115"/>
      <use x="261.960938" xlink:href="#DejaVuSans-116"/>
     </g>
    </g>
   </g>
   <g id="text_9">
    <g clip-path="url(#p8f6dac7bdc)">
     <!-- LHand -->
     <g transform="translate(305.937886 296.851806)scale(0.1 -0.1)">
      <use xlink:href="#DejaVuSans-76"/>
      <use x="55.712891" xlink:href="#DejaVuSans-72"/>
      <use x="130.908203" xlink:href="#DejaVuSans-97"/>
      <use x="192.1875" xlink:href="#DejaVuSans-110"/>
      <use x="255.566406" xlink:href="#DejaVuSans-100"/>
     </g>
    </g>
   </g>
   <g id="text_10">
    <g clip-path="url(#p8f6dac7bdc)">
     <!-- RShoulder -->
     <g transform="translate(475.498545 155.785664)scale(0.1 -0.1)">
      <defs>
       <path d="M 44.390625 34.1875 
Q 47.5625 33.109375 50.5625 29.59375 
Q 53.5625 26.078125 56.59375 19.921875 
L 66.609375 0 
L 56 0 
L 46.6875 18.703125 
Q 43.0625 26.03125 39.671875 28.421875 
Q 36.28125 30.8125 30.421875 30.8125 
L 19.671875 30.8125 
L 19.671875 0 
L 9.8125 0 
L 9.8125 72.90625 
L 32.078125 72.90625 
Q 44.578125 72.90625 50.734375 67.671875 
Q 56.890625 62.453125 56.890625 51.90625 
Q 56.890625 45.015625 53.6875 40.46875 
Q 50.484375 35.9375 44.390625 34.1875 
z
M 19.671875 64.796875 
L 19.671875 38.921875 
L 32.078125 38.921875 
Q 39.203125 38.921875 42.84375 42.21875 
Q 46.484375 45.515625 46.484375 51.90625 
Q 46.484375 58.296875 42.84375 61.546875 
Q 39.203125 64.796875 32.078125 64.796875 
z
" id="DejaVuSans-82"/>
      </defs>
      <use xlink:href="#DejaVuSans-82"/>
      <use x="69.482422" xlink:href="#DejaVuSans-83"/>
      <use x="132.958984" xlink:href="#DejaVuSans-104"/>
      <use x="196.337891" xlink:href="#DejaVuSans-111"/>
      <use x="257.519531" xlink:href="#DejaVuSans-117"/>
      <use x="320.898438" xlink:href="#DejaVuSans-108"/>
      <use x="348.681641" xlink:href="#DejaVuSans-100"/>
      <use x="412.158203" xlink:href="#DejaVuSans-101"/>
      <use x="473.681641" xlink:href="#DejaVuSans-114"/>
     </g>
    </g>
   </g>
   <g id="text_11">
    <g clip-path="url(#p8f6dac7bdc)">
     <!-- RElbow -->
     <g transform="translate(507.671216 263.081304)scale(0.1 -0.1)">
      <use xlink:href="#DejaVuSans-82"/>
      <use x="69.482422" xlink:href="#DejaVuSans-69"/>
      <use x="132.666016" xlink:href="#DejaVuSans-108"/>
      <use x="160.449219" xlink:href="#DejaVuSans-98"/>
      <use x="223.925781" xlink:href="#DejaVuSans-111"/>
      <use x="285.107422" xlink:href="#DejaVuSans-119"/>
     </g>
    </g>
   </g>
   <g id="text_12">
    <g clip-path="url(#p8f6dac7bdc)">
     <!-- RWrist -->
     <g transform="translate(329.885462 296.392653)scale(0.1 -0.1)">
      <use xlink:href="#DejaVuSans-82"/>
      <use x="65.482422" xlink:href="#DejaVuSans-87"/>
      <use x="159.859375" xlink:href="#DejaVuSans-114"/>
      <use x="200.972656" xlink:href="#DejaVuSans-105"/>
      <use x="228.755859" xlink:href="#DejaVuSans-115"/>
      <use x="280.855469" xlink:href="#DejaVuSans-116"/>
     </g>
    </g>
   </g>
   <g id="text_13">
    <g clip-path="url(#p8f6dac7bdc)">
     <!-- RHand -->
     <g transform="translate(293.899077 297.538014)scale(0.1 -0.1)">
      <use xlink:href="#DejaVuSans-82"/>
      <use x="69.482422" xlink:href="#DejaVuSans-72"/>
      <use x="144.677734" xlink:href="#DejaVuSans-97"/>
      <use x="205.957031" xlink:href="#DejaVuSans-110"/>
      <use x="269.335938" xlink:href="#DejaVuSans-100"/>
     </g>
    </g>
   </g>
   <g id="text_14">
    <g clip-path="url(#p8f6dac7bdc)">
     <!-- LHip -->
     <g transform="translate(175.251044 348.767305)scale(0.1 -0.1)">
      <use xlink:href="#DejaVuSans-76"/>
      <use x="55.712891" xlink:href="#DejaVuSans-72"/>
      <use x="130.908203" xlink:href="#DejaVuSans-105"/>
      <use x="158.691406" xlink:href="#DejaVuSans-112"/>
     </g>
    </g>
   </g>
   <g id="text_15">
    <g clip-path="url(#p8f6dac7bdc)">
     <!-- LKnee -->
     <g transform="translate(103.899761 547.938238)scale(0.1 -0.1)">
      <defs>
       <path d="M 9.8125 72.90625 
L 19.671875 72.90625 
L 19.671875 42.09375 
L 52.390625 72.90625 
L 65.09375 72.90625 
L 28.90625 38.921875 
L 67.671875 0 
L 54.6875 0 
L 19.671875 35.109375 
L 19.671875 0 
L 9.8125 0 
z
" id="DejaVuSans-75"/>
      </defs>
      <use xlink:href="#DejaVuSans-76"/>
      <use x="55.712891" xlink:href="#DejaVuSans-75"/>
      <use x="121.289062" xlink:href="#DejaVuSans-110"/>
      <use x="184.667969" xlink:href="#DejaVuSans-101"/>
      <use x="246.191406" xlink:href="#DejaVuSans-101"/>
     </g>
    </g>
   </g>
   <g id="text_16">
    <g clip-path="url(#p8f6dac7bdc)">
     <!-- LAnkle -->
     <g transform="translate(64.368779 741.383221)scale(0.1 -0.1)">
      <defs>
       <path d="M 34.1875 63.1875 
L 20.796875 26.90625 
L 47.609375 26.90625 
z
M 28.609375 72.90625 
L 39.796875 72.90625 
L 67.578125 0 
L 57.328125 0 
L 50.6875 18.703125 
L 17.828125 18.703125 
L 11.1875 0 
L 0.78125 0 
z
" id="DejaVuSans-65"/>
       <path d="M 9.078125 75.984375 
L 18.109375 75.984375 
L 18.109375 31.109375 
L 44.921875 54.6875 
L 56.390625 54.6875 
L 27.390625 29.109375 
L 57.625 0 
L 45.90625 0 
L 18.109375 26.703125 
L 18.109375 0 
L 9.078125 0 
z
" id="DejaVuSans-107"/>
      </defs>
      <use xlink:href="#DejaVuSans-76"/>
      <use x="57.962891" xlink:href="#DejaVuSans-65"/>
      <use x="126.371094" xlink:href="#DejaVuSans-110"/>
      <use x="189.75" xlink:href="#DejaVuSans-107"/>
      <use x="247.660156" xlink:href="#DejaVuSans-108"/>
      <use x="275.443359" xlink:href="#DejaVuSans-101"/>
     </g>
    </g>
   </g>
   <g id="text_17">
    <g clip-path="url(#p8f6dac7bdc)">
     <!-- LFoot -->
     <g transform="translate(43.025445 791.784168)scale(0.1 -0.1)">
      <defs>
       <path d="M 9.8125 72.90625 
L 51.703125 72.90625 
L 51.703125 64.59375 
L 19.671875 64.59375 
L 19.671875 43.109375 
L 48.578125 43.109375 
L 48.578125 34.8125 
L 19.671875 34.8125 
L 19.671875 0 
L 9.8125 0 
z
" id="DejaVuSans-70"/>
      </defs>
      <use xlink:href="#DejaVuSans-76"/>
      <use x="55.712891" xlink:href="#DejaVuSans-70"/>
      <use x="109.607422" xlink:href="#DejaVuSans-111"/>
      <use x="170.789062" xlink:href="#DejaVuSans-111"/>
      <use x="231.970703" xlink:href="#DejaVuSans-116"/>
     </g>
    </g>
   </g>
   <g id="text_18">
    <g clip-path="url(#p8f6dac7bdc)">
     <!-- RHip -->
     <g transform="translate(345.682652 353.397492)scale(0.1 -0.1)">
      <use xlink:href="#DejaVuSans-82"/>
      <use x="69.482422" xlink:href="#DejaVuSans-72"/>
      <use x="144.677734" xlink:href="#DejaVuSans-105"/>
      <use x="172.460938" xlink:href="#DejaVuSans-112"/>
     </g>
    </g>
   </g>
   <g id="text_19">
    <g clip-path="url(#p8f6dac7bdc)">
     <!-- RKnee -->
     <g transform="translate(311.389244 534.824606)scale(0.1 -0.1)">
      <use xlink:href="#DejaVuSans-82"/>
      <use x="69.482422" xlink:href="#DejaVuSans-75"/>
      <use x="135.058594" xlink:href="#DejaVuSans-110"/>
      <use x="198.4375" xlink:href="#DejaVuSans-101"/>
      <use x="259.960938" xlink:href="#DejaVuSans-101"/>
     </g>
    </g>
   </g>
   <g id="text_20">
    <g clip-path="url(#p8f6dac7bdc)">
     <!-- RAnkle -->
     <g transform="translate(233.420177 716.472871)scale(0.1 -0.1)">
      <use xlink:href="#DejaVuSans-82"/>
      <use x="65.482422" xlink:href="#DejaVuSans-65"/>
      <use x="133.890625" xlink:href="#DejaVuSans-110"/>
      <use x="197.269531" xlink:href="#DejaVuSans-107"/>
      <use x="255.179688" xlink:href="#DejaVuSans-108"/>
      <use x="282.962891" xlink:href="#DejaVuSans-101"/>
     </g>
    </g>
   </g>
   <g id="text_21">
    <g clip-path="url(#p8f6dac7bdc)">
     <!-- RFoot -->
     <g transform="translate(249.524614 755.849085)scale(0.1 -0.1)">
      <use xlink:href="#DejaVuSans-82"/>
      <use x="69.482422" xlink:href="#DejaVuSans-70"/>
      <use x="123.376953" xlink:href="#DejaVuSans-111"/>
      <use x="184.558594" xlink:href="#DejaVuSans-111"/>
      <use x="245.740234" xlink:href="#DejaVuSans-116"/>
     </g>
    </g>
   </g>
   <g id="text_22">
    <g clip-path="url(#p8f6dac7bdc)">
     <!-- LHandTip -->
     <g transform="translate(335.421084 301.90502)scale(0.1 -0.1)">
      <defs>
       <path d="M -0.296875 72.90625 
L 61.375 72.90625 
L 61.375 64.59375 
L 35.5 64.59375 
L 35.5 0 
L 25.59375 0 
L 25.59375 64.59375 
L -0.296875 64.59375 
z
" id="DejaVuSans-84"/>
      </defs>
      <use xlink:href="#DejaVuSans-76"/>
      <use x="55.712891" xlink:href="#DejaVuSans-72"/>
      <use x="130.908203" xlink:href="#DejaVuSans-97"/>
      <use x="192.1875" xlink:href="#DejaVuSans-110"/>
      <use x="255.566406" xlink:href="#DejaVuSans-100"/>
      <use x="319.042969" xlink:href="#DejaVuSans-84"/>
      <use x="377.001953" xlink:href="#DejaVuSans-105"/>
      <use x="404.785156" xlink:href="#DejaVuSans-112"/>
     </g>
    </g>
   </g>
   <g id="text_23">
    <g clip-path="url(#p8f6dac7bdc)">
     <!-- LThumb -->
     <g transform="translate(337.659355 287.073346)scale(0.1 -0.1)">
      <defs>
       <path d="M 52 44.1875 
Q 55.375 50.25 60.0625 53.125 
Q 64.75 56 71.09375 56 
Q 79.640625 56 84.28125 50.015625 
Q 88.921875 44.046875 88.921875 33.015625 
L 88.921875 0 
L 79.890625 0 
L 79.890625 32.71875 
Q 79.890625 40.578125 77.09375 44.375 
Q 74.3125 48.1875 68.609375 48.1875 
Q 61.625 48.1875 57.5625 43.546875 
Q 53.515625 38.921875 53.515625 30.90625 
L 53.515625 0 
L 44.484375 0 
L 44.484375 32.71875 
Q 44.484375 40.625 41.703125 44.40625 
Q 38.921875 48.1875 33.109375 48.1875 
Q 26.21875 48.1875 22.15625 43.53125 
Q 18.109375 38.875 18.109375 30.90625 
L 18.109375 0 
L 9.078125 0 
L 9.078125 54.6875 
L 18.109375 54.6875 
L 18.109375 46.1875 
Q 21.1875 51.21875 25.484375 53.609375 
Q 29.78125 56 35.6875 56 
Q 41.65625 56 45.828125 52.96875 
Q 50 49.953125 52 44.1875 
z
" id="DejaVuSans-109"/>
      </defs>
      <use xlink:href="#DejaVuSans-76"/>
      <use x="41.962891" xlink:href="#DejaVuSans-84"/>
      <use x="103.046875" xlink:href="#DejaVuSans-104"/>
      <use x="166.425781" xlink:href="#DejaVuSans-117"/>
      <use x="229.804688" xlink:href="#DejaVuSans-109"/>
      <use x="327.216797" xlink:href="#DejaVuSans-98"/>
     </g>
    </g>
   </g>
   <g id="text_24">
    <g clip-path="url(#p8f6dac7bdc)">
     <!-- RHandTip -->
     <g transform="translate(263.10371 301.253627)scale(0.1 -0.1)">
      <use xlink:href="#DejaVuSans-82"/>
      <use x="69.482422" xlink:href="#DejaVuSans-72"/>
      <use x="144.677734" xlink:href="#DejaVuSans-97"/>
      <use x="205.957031" xlink:href="#DejaVuSans-110"/>
      <use x="269.335938" xlink:href="#DejaVuSans-100"/>
      <use x="332.8125" xlink:href="#DejaVuSans-84"/>
      <use x="390.771484" xlink:href="#DejaVuSans-105"/>
      <use x="418.554688" xlink:href="#DejaVuSans-112"/>
     </g>
    </g>
   </g>
   <g id="text_25">
    <g clip-path="url(#p8f6dac7bdc)">
     <!-- RThumb -->
     <g transform="translate(295.466817 288.153114)scale(0.1 -0.1)">
      <use xlink:href="#DejaVuSans-82"/>
      <use x="62.232422" xlink:href="#DejaVuSans-84"/>
      <use x="123.316406" xlink:href="#DejaVuSans-104"/>
      <use x="186.695312" xlink:href="#DejaVuSans-117"/>
      <use x="250.074219" xlink:href="#DejaVuSans-109"/>
      <use x="347.486328" xlink:href="#DejaVuSans-98"/>
     </g>
    </g>
   </g>
   <g id="text_26">
    <!-- Node Graph Visualization - Frame 49 -->
    <g transform="translate(178.011563 -6)scale(0.12 -0.12)">
     <defs>
      <path d="M 9.8125 72.90625 
L 23.09375 72.90625 
L 55.421875 11.921875 
L 55.421875 72.90625 
L 64.984375 72.90625 
L 64.984375 0 
L 51.703125 0 
L 19.390625 60.984375 
L 19.390625 0 
L 9.8125 0 
z
" id="DejaVuSans-78"/>
      <path id="DejaVuSans-32"/>
      <path d="M 59.515625 10.40625 
L 59.515625 29.984375 
L 43.40625 29.984375 
L 43.40625 38.09375 
L 69.28125 38.09375 
L 69.28125 6.78125 
Q 63.578125 2.734375 56.6875 0.65625 
Q 49.8125 -1.421875 42 -1.421875 
Q 24.90625 -1.421875 15.25 8.5625 
Q 5.609375 18.5625 5.609375 36.375 
Q 5.609375 54.25 15.25 64.234375 
Q 24.90625 74.21875 42 74.21875 
Q 49.125 74.21875 55.546875 72.453125 
Q 61.96875 70.703125 67.390625 67.28125 
L 67.390625 56.78125 
Q 61.921875 61.421875 55.765625 63.765625 
Q 49.609375 66.109375 42.828125 66.109375 
Q 29.4375 66.109375 22.71875 58.640625 
Q 16.015625 51.171875 16.015625 36.375 
Q 16.015625 21.625 22.71875 14.15625 
Q 29.4375 6.6875 42.828125 6.6875 
Q 48.046875 6.6875 52.140625 7.59375 
Q 56.25 8.5 59.515625 10.40625 
z
" id="DejaVuSans-71"/>
      <path d="M 28.609375 0 
L 0.78125 72.90625 
L 11.078125 72.90625 
L 34.1875 11.53125 
L 57.328125 72.90625 
L 67.578125 72.90625 
L 39.796875 0 
z
" id="DejaVuSans-86"/>
      <path d="M 5.515625 54.6875 
L 48.1875 54.6875 
L 48.1875 46.484375 
L 14.40625 7.171875 
L 48.1875 7.171875 
L 48.1875 0 
L 4.296875 0 
L 4.296875 8.203125 
L 38.09375 47.515625 
L 5.515625 47.515625 
z
" id="DejaVuSans-122"/>
      <path d="M 4.890625 31.390625 
L 31.203125 31.390625 
L 31.203125 23.390625 
L 4.890625 23.390625 
z
" id="DejaVuSans-45"/>
      <path d="M 37.796875 64.3125 
L 12.890625 25.390625 
L 37.796875 25.390625 
z
M 35.203125 72.90625 
L 47.609375 72.90625 
L 47.609375 25.390625 
L 58.015625 25.390625 
L 58.015625 17.1875 
L 47.609375 17.1875 
L 47.609375 0 
L 37.796875 0 
L 37.796875 17.1875 
L 4.890625 17.1875 
L 4.890625 26.703125 
z
" id="DejaVuSans-52"/>
      <path d="M 10.984375 1.515625 
L 10.984375 10.5 
Q 14.703125 8.734375 18.5 7.8125 
Q 22.3125 6.890625 25.984375 6.890625 
Q 35.75 6.890625 40.890625 13.453125 
Q 46.046875 20.015625 46.78125 33.40625 
Q 43.953125 29.203125 39.59375 26.953125 
Q 35.25 24.703125 29.984375 24.703125 
Q 19.046875 24.703125 12.671875 31.3125 
Q 6.296875 37.9375 6.296875 49.421875 
Q 6.296875 60.640625 12.9375 67.421875 
Q 19.578125 74.21875 30.609375 74.21875 
Q 43.265625 74.21875 49.921875 64.515625 
Q 56.59375 54.828125 56.59375 36.375 
Q 56.59375 19.140625 48.40625 8.859375 
Q 40.234375 -1.421875 26.421875 -1.421875 
Q 22.703125 -1.421875 18.890625 -0.6875 
Q 15.09375 0.046875 10.984375 1.515625 
z
M 30.609375 32.421875 
Q 37.25 32.421875 41.125 36.953125 
Q 45.015625 41.5 45.015625 49.421875 
Q 45.015625 57.28125 41.125 61.84375 
Q 37.25 66.40625 30.609375 66.40625 
Q 23.96875 66.40625 20.09375 61.84375 
Q 16.21875 57.28125 16.21875 49.421875 
Q 16.21875 41.5 20.09375 36.953125 
Q 23.96875 32.421875 30.609375 32.421875 
z
" id="DejaVuSans-57"/>
     </defs>
     <use xlink:href="#DejaVuSans-78"/>
     <use x="74.804688" xlink:href="#DejaVuSans-111"/>
     <use x="135.986328" xlink:href="#DejaVuSans-100"/>
     <use x="199.462891" xlink:href="#DejaVuSans-101"/>
     <use x="260.986328" xlink:href="#DejaVuSans-32"/>
     <use x="292.773438" xlink:href="#DejaVuSans-71"/>
     <use x="370.263672" xlink:href="#DejaVuSans-114"/>
     <use x="411.376953" xlink:href="#DejaVuSans-97"/>
     <use x="472.65625" xlink:href="#DejaVuSans-112"/>
     <use x="536.132812" xlink:href="#DejaVuSans-104"/>
     <use x="599.511719" xlink:href="#DejaVuSans-32"/>
     <use x="631.298828" xlink:href="#DejaVuSans-86"/>
     <use x="697.457031" xlink:href="#DejaVuSans-105"/>
     <use x="725.240234" xlink:href="#DejaVuSans-115"/>
     <use x="777.339844" xlink:href="#DejaVuSans-117"/>
     <use x="840.71875" xlink:href="#DejaVuSans-97"/>
     <use x="901.998047" xlink:href="#DejaVuSans-108"/>
     <use x="929.78125" xlink:href="#DejaVuSans-105"/>
     <use x="957.564453" xlink:href="#DejaVuSans-122"/>
     <use x="1010.054688" xlink:href="#DejaVuSans-97"/>
     <use x="1071.333984" xlink:href="#DejaVuSans-116"/>
     <use x="1110.542969" xlink:href="#DejaVuSans-105"/>
     <use x="1138.326172" xlink:href="#DejaVuSans-111"/>
     <use x="1199.507812" xlink:href="#DejaVuSans-110"/>
     <use x="1262.886719" xlink:href="#DejaVuSans-32"/>
     <use x="1294.673828" xlink:href="#DejaVuSans-45"/>
     <use x="1330.757812" xlink:href="#DejaVuSans-32"/>
     <use x="1362.544922" xlink:href="#DejaVuSans-70"/>
     <use x="1412.814453" xlink:href="#DejaVuSans-114"/>
     <use x="1453.927734" xlink:href="#DejaVuSans-97"/>
     <use x="1515.207031" xlink:href="#DejaVuSans-109"/>
     <use x="1612.619141" xlink:href="#DejaVuSans-101"/>
     <use x="1674.142578" xlink:href="#DejaVuSans-32"/>
     <use x="1705.929688" xlink:href="#DejaVuSans-52"/>
     <use x="1769.552734" xlink:href="#DejaVuSans-57"/>
    </g>
   </g>
  </g>
 </g>
 <defs>
  <clipPath id="p8f6dac7bdc">
   <rect height="864" width="576" x="0" y="0"/>
  </clipPath>
 </defs>
</svg>
