<?xml version="1.0" encoding="utf-8" standalone="no"?>
<!DOCTYPE svg PUBLIC "-//W3C//DTD SVG 1.1//EN"
  "http://www.w3.org/Graphics/SVG/1.1/DTD/svg11.dtd">
<!-- Created with matplotlib (https://matplotlib.org/) -->
<svg height="864pt" version="1.1" viewBox="0 0 576 864" width="576pt" xmlns="http://www.w3.org/2000/svg" xmlns:xlink="http://www.w3.org/1999/xlink">
 <metadata>
  <rdf:RDF xmlns:cc="http://creativecommons.org/ns#" xmlns:dc="http://purl.org/dc/elements/1.1/" xmlns:rdf="http://www.w3.org/1999/02/22-rdf-syntax-ns#">
   <cc:Work>
    <dc:type rdf:resource="http://purl.org/dc/dcmitype/StillImage"/>
    <dc:date>2024-02-04T22:28:01.477500</dc:date>
    <dc:format>image/svg+xml</dc:format>
    <dc:creator>
     <cc:Agent>
      <dc:title>Matplotlib v3.3.2, https://matplotlib.org/</dc:title>
     </cc:Agent>
    </dc:creator>
   </cc:Work>
  </rdf:RDF>
 </metadata>
 <defs>
  <style type="text/css">*{stroke-linecap:butt;stroke-linejoin:round;}</style>
 </defs>
 <g id="figure_1">
  <g id="patch_1">
   <path d="M 0 864 
L 576 864 
L 576 0 
L 0 0 
z
" style="fill:#ffffff;"/>
  </g>
  <g id="axes_1">
   <g id="patch_2">
    <path clip-path="url(#pada63ad7b4)" d="M 308.632814 86.810028 
Q 303.273966 97.529481 298.415053 107.248901 
" style="fill:none;stroke:#000000;stroke-linecap:round;"/>
    <path clip-path="url(#pada63ad7b4)" d="M 301.992586 104.565385 
L 298.415053 107.248901 
L 298.41476 102.776765 
L 301.992586 104.565385 
z
" style="stroke:#000000;stroke-linecap:round;"/>
   </g>
   <g id="patch_3">
    <path clip-path="url(#pada63ad7b4)" d="M 293.033694 133.264766 
Q 293.168348 134.984051 293.215705 135.588715 
" style="fill:none;stroke:#000000;stroke-linecap:round;"/>
    <path clip-path="url(#pada63ad7b4)" d="M 294.897276 131.444766 
L 293.215705 135.588715 
L 290.909488 131.757088 
L 294.897276 131.444766 
z
" style="stroke:#000000;stroke-linecap:round;"/>
   </g>
   <g id="patch_4">
    <path clip-path="url(#pada63ad7b4)" d="M 297.917438 108.244295 
Q 303.276285 97.524842 308.135199 87.805422 
" style="fill:none;stroke:#000000;stroke-linecap:round;"/>
    <path clip-path="url(#pada63ad7b4)" d="M 304.557666 90.488938 
L 308.135199 87.805422 
L 308.135492 92.277558 
L 304.557666 90.488938 
z
" style="stroke:#000000;stroke-linecap:round;"/>
   </g>
   <g id="patch_5">
    <path clip-path="url(#pada63ad7b4)" d="M 295.047512 163.100743 
Q 296.798789 195.610505 298.489927 227.003852 
" style="fill:none;stroke:#000000;stroke-linecap:round;"/>
    <path clip-path="url(#pada63ad7b4)" d="M 300.271866 222.902061 
L 298.489927 227.003852 
L 296.277657 223.117226 
L 300.271866 222.902061 
z
" style="stroke:#000000;stroke-linecap:round;"/>
   </g>
   <g id="patch_6">
    <path clip-path="url(#pada63ad7b4)" d="M 281.12425 150.514463 
Q 210.712716 153.824832 141.417982 157.082696 
" style="fill:none;stroke:#000000;stroke-linecap:round;"/>
    <path clip-path="url(#pada63ad7b4)" d="M 145.507494 158.892638 
L 141.417982 157.082696 
L 145.319643 154.897052 
L 145.507494 158.892638 
z
" style="stroke:#000000;stroke-linecap:round;"/>
   </g>
   <g id="patch_7">
    <path clip-path="url(#pada63ad7b4)" d="M 307.515847 151.015958 
Q 385.584425 157.665755 462.539003 164.220662 
" style="fill:none;stroke:#000000;stroke-linecap:round;"/>
    <path clip-path="url(#pada63ad7b4)" d="M 458.723179 161.888392 
L 462.539003 164.220662 
L 458.383692 165.87396 
L 458.723179 161.888392 
z
" style="stroke:#000000;stroke-linecap:round;"/>
   </g>
   <g id="patch_8">
    <path clip-path="url(#pada63ad7b4)" d="M 293.303341 136.707666 
Q 293.168687 134.988381 293.121329 134.383717 
" style="fill:none;stroke:#000000;stroke-linecap:round;"/>
    <path clip-path="url(#pada63ad7b4)" d="M 291.439758 138.527666 
L 293.121329 134.383717 
L 295.427546 138.215344 
L 291.439758 138.527666 
z
" style="stroke:#000000;stroke-linecap:round;"/>
   </g>
   <g id="patch_9">
    <path clip-path="url(#pada63ad7b4)" d="M 299.712442 254.549944 
Q 301.381541 303.504797 303.012544 351.342265 
" style="fill:none;stroke:#000000;stroke-linecap:round;"/>
    <path clip-path="url(#pada63ad7b4)" d="M 304.875083 347.276438 
L 303.012544 351.342265 
L 300.877406 347.412737 
L 304.875083 347.276438 
z
" style="stroke:#000000;stroke-linecap:round;"/>
   </g>
   <g id="patch_10">
    <path clip-path="url(#pada63ad7b4)" d="M 298.550318 228.12493 
Q 296.79904 195.615168 295.107903 164.221821 
" style="fill:none;stroke:#000000;stroke-linecap:round;"/>
    <path clip-path="url(#pada63ad7b4)" d="M 293.325964 168.323612 
L 295.107903 164.221821 
L 297.320173 168.108447 
L 293.325964 168.323612 
z
" style="stroke:#000000;stroke-linecap:round;"/>
   </g>
   <g id="patch_11">
    <path clip-path="url(#pada63ad7b4)" d="M 290.27347 365.959375 
Q 265.166793 366.483603 241.177905 366.984491 
" style="fill:none;stroke:#000000;stroke-linecap:round;"/>
    <path clip-path="url(#pada63ad7b4)" d="M 245.218785 368.900553 
L 241.177905 366.984491 
L 245.135283 364.901425 
L 245.218785 368.900553 
z
" style="stroke:#000000;stroke-linecap:round;"/>
   </g>
   <g id="patch_12">
    <path clip-path="url(#pada63ad7b4)" d="M 316.720759 366.230065 
Q 335.08218 366.989691 352.326522 367.703103 
" style="fill:none;stroke:#000000;stroke-linecap:round;"/>
    <path clip-path="url(#pada63ad7b4)" d="M 348.412612 365.539471 
L 352.326522 367.703103 
L 348.24727 369.536052 
L 348.412612 365.539471 
z
" style="stroke:#000000;stroke-linecap:round;"/>
   </g>
   <g id="patch_13">
    <path clip-path="url(#pada63ad7b4)" d="M 303.050843 352.465587 
Q 301.381744 303.510735 299.750741 255.673267 
" style="fill:none;stroke:#000000;stroke-linecap:round;"/>
    <path clip-path="url(#pada63ad7b4)" d="M 297.888202 259.739094 
L 299.750741 255.673267 
L 301.885879 259.602794 
L 297.888202 259.739094 
z
" style="stroke:#000000;stroke-linecap:round;"/>
   </g>
   <g id="patch_14">
    <path clip-path="url(#pada63ad7b4)" d="M 118.590377 167.892405 
Q 88.536122 203.74478 59.200112 238.740344 
" style="fill:none;stroke:#000000;stroke-linecap:round;"/>
    <path clip-path="url(#pada63ad7b4)" d="M 63.302493 236.959763 
L 59.200112 238.740344 
L 60.237075 234.390091 
L 63.302493 236.959763 
z
" style="stroke:#000000;stroke-linecap:round;"/>
   </g>
   <g id="patch_15">
    <path clip-path="url(#pada63ad7b4)" d="M 140.298907 157.135309 
Q 210.710441 153.824939 280.005175 150.567076 
" style="fill:none;stroke:#000000;stroke-linecap:round;"/>
    <path clip-path="url(#pada63ad7b4)" d="M 275.915663 148.757133 
L 280.005175 150.567076 
L 276.103514 152.75272 
L 275.915663 148.757133 
z
" style="stroke:#000000;stroke-linecap:round;"/>
   </g>
   <g id="patch_16">
    <path clip-path="url(#pada63ad7b4)" d="M 54.908826 262.013211 
Q 70.5851 301.091692 85.845119 339.132517 
" style="fill:none;stroke:#000000;stroke-linecap:round;"/>
    <path clip-path="url(#pada63ad7b4)" d="M 86.212099 334.675464 
L 85.845119 339.132517 
L 82.499664 336.164701 
L 86.212099 334.675464 
z
" style="stroke:#000000;stroke-linecap:round;"/>
   </g>
   <g id="patch_17">
    <path clip-path="url(#pada63ad7b4)" d="M 58.480214 239.599126 
Q 88.534469 203.746751 117.870479 168.751187 
" style="fill:none;stroke:#000000;stroke-linecap:round;"/>
    <path clip-path="url(#pada63ad7b4)" d="M 113.768098 170.531769 
L 117.870479 168.751187 
L 116.833516 173.101441 
L 113.768098 170.531769 
z
" style="stroke:#000000;stroke-linecap:round;"/>
   </g>
   <g id="patch_18">
    <path clip-path="url(#pada63ad7b4)" d="M 103.301888 357.755323 
Q 111.959992 361.547653 119.593993 364.891417 
" style="fill:none;stroke:#000000;stroke-linecap:round;"/>
    <path clip-path="url(#pada63ad7b4)" d="M 116.73247 361.454603 
L 119.593993 364.891417 
L 115.127629 365.118547 
L 116.73247 361.454603 
z
" style="stroke:#000000;stroke-linecap:round;"/>
   </g>
   <g id="patch_19">
    <path clip-path="url(#pada63ad7b4)" d="M 86.261597 340.170733 
Q 70.585324 301.092251 55.325305 263.051427 
" style="fill:none;stroke:#000000;stroke-linecap:round;"/>
    <path clip-path="url(#pada63ad7b4)" d="M 54.958325 267.50848 
L 55.325305 263.051427 
L 58.67076 266.019243 
L 54.958325 267.50848 
z
" style="stroke:#000000;stroke-linecap:round;"/>
   </g>
   <g id="patch_20">
    <path clip-path="url(#pada63ad7b4)" d="M 144.178439 377.29137 
Q 154.121995 383.065024 163.098686 388.277274 
" style="fill:none;stroke:#000000;stroke-linecap:round;"/>
    <path clip-path="url(#pada63ad7b4)" d="M 160.643795 384.539159 
L 163.098686 388.277274 
L 158.635259 387.998318 
L 160.643795 384.539159 
z
" style="stroke:#000000;stroke-linecap:round;"/>
   </g>
   <g id="patch_21">
    <path clip-path="url(#pada63ad7b4)" d="M 145.596373 367.54401 
Q 148.424417 366.861135 150.165662 366.440684 
" style="fill:none;stroke:#000000;stroke-linecap:round;"/>
    <path clip-path="url(#pada63ad7b4)" d="M 145.80797 365.435437 
L 150.165662 366.440684 
L 146.746849 369.323689 
L 145.80797 365.435437 
z
" style="stroke:#000000;stroke-linecap:round;"/>
   </g>
   <g id="patch_22">
    <path clip-path="url(#pada63ad7b4)" d="M 120.62343 365.342319 
Q 111.965325 361.549989 104.331324 358.206225 
" style="fill:none;stroke:#000000;stroke-linecap:round;"/>
    <path clip-path="url(#pada63ad7b4)" d="M 107.192847 361.643039 
L 104.331324 358.206225 
L 108.797689 357.979095 
L 107.192847 361.643039 
z
" style="stroke:#000000;stroke-linecap:round;"/>
   </g>
   <g id="patch_23">
    <path clip-path="url(#pada63ad7b4)" d="M 482.693128 177.300698 
Q 501.424338 215.209803 519.660277 252.116558 
" style="fill:none;stroke:#000000;stroke-linecap:round;"/>
    <path clip-path="url(#pada63ad7b4)" d="M 519.681405 247.644471 
L 519.660277 252.116558 
L 516.095285 249.416404 
L 519.681405 247.644471 
z
" style="stroke:#000000;stroke-linecap:round;"/>
   </g>
   <g id="patch_24">
    <path clip-path="url(#pada63ad7b4)" d="M 463.651908 164.315458 
Q 385.58333 157.665661 308.628752 151.110754 
" style="fill:none;stroke:#000000;stroke-linecap:round;"/>
    <path clip-path="url(#pada63ad7b4)" d="M 312.444576 153.443024 
L 308.628752 151.110754 
L 312.784063 149.457456 
L 312.444576 153.443024 
z
" style="stroke:#000000;stroke-linecap:round;"/>
   </g>
   <g id="patch_25">
    <path clip-path="url(#pada63ad7b4)" d="M 521.434529 277.393369 
Q 514.645018 295.786291 508.242678 313.130357 
" style="fill:none;stroke:#000000;stroke-linecap:round;"/>
    <path clip-path="url(#pada63ad7b4)" d="M 511.504115 310.070451 
L 508.242678 313.130357 
L 507.751615 308.685264 
L 511.504115 310.070451 
z
" style="stroke:#000000;stroke-linecap:round;"/>
   </g>
   <g id="patch_26">
    <path clip-path="url(#pada63ad7b4)" d="M 520.155119 253.118041 
Q 501.423909 215.208936 483.187969 178.302181 
" style="fill:none;stroke:#000000;stroke-linecap:round;"/>
    <path clip-path="url(#pada63ad7b4)" d="M 483.166842 182.774267 
L 483.187969 178.302181 
L 486.752962 181.002335 
L 483.166842 182.774267 
z
" style="stroke:#000000;stroke-linecap:round;"/>
   </g>
   <g id="patch_27">
    <path clip-path="url(#pada63ad7b4)" d="M 490.388992 329.573914 
Q 473.748086 333.428388 458.196378 337.030575 
" style="fill:none;stroke:#000000;stroke-linecap:round;"/>
    <path clip-path="url(#pada63ad7b4)" d="M 462.544515 338.076382 
L 458.196378 337.030575 
L 461.641905 334.17955 
L 462.544515 338.076382 
z
" style="stroke:#000000;stroke-linecap:round;"/>
   </g>
   <g id="patch_28">
    <path clip-path="url(#pada63ad7b4)" d="M 507.856485 314.176563 
Q 514.645996 295.783641 521.048335 278.439575 
" style="fill:none;stroke:#000000;stroke-linecap:round;"/>
    <path clip-path="url(#pada63ad7b4)" d="M 517.786898 281.499481 
L 521.048335 278.439575 
L 521.539398 282.884668 
L 517.786898 281.499481 
z
" style="stroke:#000000;stroke-linecap:round;"/>
   </g>
   <g id="patch_29">
    <path clip-path="url(#pada63ad7b4)" d="M 432.217676 345.829159 
Q 425.027185 349.160728 418.85113 352.022278 
" style="fill:none;stroke:#000000;stroke-linecap:round;"/>
    <path clip-path="url(#pada63ad7b4)" d="M 423.321285 352.155367 
L 418.85113 352.022278 
L 421.639695 348.526007 
L 423.321285 352.155367 
z
" style="stroke:#000000;stroke-linecap:round;"/>
   </g>
   <g id="patch_30">
    <path clip-path="url(#pada63ad7b4)" d="M 431.224467 337.805353 
Q 421.233016 335.912425 412.340059 334.227612 
" style="fill:none;stroke:#000000;stroke-linecap:round;"/>
    <path clip-path="url(#pada63ad7b4)" d="M 415.897862 336.937232 
L 412.340059 334.227612 
L 416.642437 333.007141 
L 415.897862 336.937232 
z
" style="stroke:#000000;stroke-linecap:round;"/>
   </g>
   <g id="patch_31">
    <path clip-path="url(#pada63ad7b4)" d="M 457.106574 337.283003 
Q 473.74748 333.428529 489.299187 329.826342 
" style="fill:none;stroke:#000000;stroke-linecap:round;"/>
    <path clip-path="url(#pada63ad7b4)" d="M 484.951051 328.780535 
L 489.299187 329.826342 
L 485.853661 332.677367 
L 484.951051 328.780535 
z
" style="stroke:#000000;stroke-linecap:round;"/>
   </g>
   <g id="patch_32">
    <path clip-path="url(#pada63ad7b4)" d="M 223.520648 380.087939 
Q 199.805178 471.624978 176.370112 562.079718 
" style="fill:none;stroke:#000000;stroke-linecap:round;"/>
    <path clip-path="url(#pada63ad7b4)" d="M 179.30939 558.709162 
L 176.370112 562.079718 
L 175.437234 557.705962 
L 179.30939 558.709162 
z
" style="stroke:#000000;stroke-linecap:round;"/>
   </g>
   <g id="patch_33">
    <path clip-path="url(#pada63ad7b4)" d="M 240.065945 367.007708 
Q 265.172623 366.483481 289.16151 365.982593 
" style="fill:none;stroke:#000000;stroke-linecap:round;"/>
    <path clip-path="url(#pada63ad7b4)" d="M 285.12063 364.066531 
L 289.16151 365.982593 
L 285.204132 368.065659 
L 285.12063 364.066531 
z
" style="stroke:#000000;stroke-linecap:round;"/>
   </g>
   <g id="patch_34">
    <path clip-path="url(#pada63ad7b4)" d="M 173.275342 589.189891 
Q 175.99782 660.629926 178.677722 730.952738 
" style="fill:none;stroke:#000000;stroke-linecap:round;"/>
    <path clip-path="url(#pada63ad7b4)" d="M 180.523948 726.879478 
L 178.677722 730.952738 
L 176.526849 727.031802 
L 180.523948 726.879478 
z
" style="stroke:#000000;stroke-linecap:round;"/>
   </g>
   <g id="patch_35">
    <path clip-path="url(#pada63ad7b4)" d="M 176.088808 563.165493 
Q 199.804278 471.628453 223.239345 381.173714 
" style="fill:none;stroke:#000000;stroke-linecap:round;"/>
    <path clip-path="url(#pada63ad7b4)" d="M 220.300066 384.544269 
L 223.239345 381.173714 
L 224.172222 385.54747 
L 220.300066 384.544269 
z
" style="stroke:#000000;stroke-linecap:round;"/>
   </g>
   <g id="patch_36">
    <path clip-path="url(#pada63ad7b4)" d="M 176.238966 758.174614 
Q 174.158621 767.154381 172.330608 775.044961 
" style="fill:none;stroke:#000000;stroke-linecap:round;"/>
    <path clip-path="url(#pada63ad7b4)" d="M 175.181777 771.599553 
L 172.330608 775.044961 
L 171.284983 770.696782 
L 175.181777 771.599553 
z
" style="stroke:#000000;stroke-linecap:round;"/>
   </g>
   <g id="patch_37">
    <path clip-path="url(#pada63ad7b4)" d="M 178.720265 732.069084 
Q 175.997787 660.629048 173.317885 590.306236 
" style="fill:none;stroke:#000000;stroke-linecap:round;"/>
    <path clip-path="url(#pada63ad7b4)" d="M 171.471659 594.379497 
L 173.317885 590.306236 
L 175.468758 594.227173 
L 171.471659 594.379497 
z
" style="stroke:#000000;stroke-linecap:round;"/>
   </g>
   <g id="patch_38">
    <path clip-path="url(#pada63ad7b4)" d="M 172.077006 776.139632 
Q 174.157351 767.159864 175.985363 759.269284 
" style="fill:none;stroke:#000000;stroke-linecap:round;"/>
    <path clip-path="url(#pada63ad7b4)" d="M 173.134195 762.714693 
L 175.985363 759.269284 
L 177.030989 763.617464 
L 173.134195 762.714693 
z
" style="stroke:#000000;stroke-linecap:round;"/>
   </g>
   <g id="patch_39">
    <path clip-path="url(#pada63ad7b4)" d="M 368.195124 381.43164 
Q 375.72958 446.071935 383.134594 509.601714 
" style="fill:none;stroke:#000000;stroke-linecap:round;"/>
    <path clip-path="url(#pada63ad7b4)" d="M 384.658041 505.39706 
L 383.134594 509.601714 
L 380.68494 505.860164 
L 384.658041 505.39706 
z
" style="stroke:#000000;stroke-linecap:round;"/>
   </g>
   <g id="patch_40">
    <path clip-path="url(#pada63ad7b4)" d="M 353.4448 367.749367 
Q 335.08338 366.989741 317.839037 366.27633 
" style="fill:none;stroke:#000000;stroke-linecap:round;"/>
    <path clip-path="url(#pada63ad7b4)" d="M 321.752948 368.439962 
L 317.839037 366.27633 
L 321.918289 364.44338 
L 321.752948 368.439962 
z
" style="stroke:#000000;stroke-linecap:round;"/>
   </g>
   <g id="patch_41">
    <path clip-path="url(#pada63ad7b4)" d="M 378.021637 535.21708 
Q 346.432767 588.220688 315.416276 640.263888 
" style="fill:none;stroke:#000000;stroke-linecap:round;"/>
    <path clip-path="url(#pada63ad7b4)" d="M 319.182112 637.851734 
L 315.416276 640.263888 
L 315.746055 635.803927 
L 319.182112 637.851734 
z
" style="stroke:#000000;stroke-linecap:round;"/>
   </g>
   <g id="patch_42">
    <path clip-path="url(#pada63ad7b4)" d="M 383.26444 510.715701 
Q 375.729985 446.075407 368.32497 382.545628 
" style="fill:none;stroke:#000000;stroke-linecap:round;"/>
    <path clip-path="url(#pada63ad7b4)" d="M 366.801523 386.750281 
L 368.32497 382.545628 
L 370.774625 386.287178 
L 366.801523 386.750281 
z
" style="stroke:#000000;stroke-linecap:round;"/>
   </g>
   <g id="patch_43">
    <path clip-path="url(#pada63ad7b4)" d="M 305.853017 665.630498 
Q 304.453023 673.864221 303.240441 680.995731 
" style="fill:none;stroke:#000000;stroke-linecap:round;"/>
    <path clip-path="url(#pada63ad7b4)" d="M 305.882645 677.387579 
L 303.240441 680.995731 
L 301.939242 676.717076 
L 305.882645 677.387579 
z
" style="stroke:#000000;stroke-linecap:round;"/>
   </g>
   <g id="patch_44">
    <path clip-path="url(#pada63ad7b4)" d="M 314.844215 641.223761 
Q 346.433085 588.220154 377.449576 536.176954 
" style="fill:none;stroke:#000000;stroke-linecap:round;"/>
    <path clip-path="url(#pada63ad7b4)" d="M 373.68374 538.589107 
L 377.449576 536.176954 
L 377.119797 540.636914 
L 373.68374 538.589107 
z
" style="stroke:#000000;stroke-linecap:round;"/>
   </g>
   <g id="patch_45">
    <path clip-path="url(#pada63ad7b4)" d="M 303.052307 682.102191 
Q 304.452301 673.868467 305.664883 666.736958 
" style="fill:none;stroke:#000000;stroke-linecap:round;"/>
    <path clip-path="url(#pada63ad7b4)" d="M 303.022679 670.345109 
L 305.664883 666.736958 
L 306.966081 671.015612 
L 303.022679 670.345109 
z
" style="stroke:#000000;stroke-linecap:round;"/>
   </g>
   <g id="patch_46">
    <path clip-path="url(#pada63ad7b4)" d="M 164.062191 388.836726 
Q 154.118635 383.063073 145.141944 377.850822 
" style="fill:none;stroke:#000000;stroke-linecap:round;"/>
    <path clip-path="url(#pada63ad7b4)" d="M 147.596835 381.588938 
L 145.141944 377.850822 
L 149.605371 378.129778 
L 147.596835 381.588938 
z
" style="stroke:#000000;stroke-linecap:round;"/>
   </g>
   <g id="patch_47">
    <path clip-path="url(#pada63ad7b4)" d="M 151.25742 366.177062 
Q 148.429376 366.859937 146.688131 367.280388 
" style="fill:none;stroke:#000000;stroke-linecap:round;"/>
    <path clip-path="url(#pada63ad7b4)" d="M 151.045823 368.285635 
L 146.688131 367.280388 
L 150.106945 364.397383 
L 151.045823 368.285635 
z
" style="stroke:#000000;stroke-linecap:round;"/>
   </g>
   <g id="patch_48">
    <path clip-path="url(#pada63ad7b4)" d="M 417.836084 352.492579 
Q 425.026575 349.16101 431.20263 346.29946 
" style="fill:none;stroke:#000000;stroke-linecap:round;"/>
    <path clip-path="url(#pada63ad7b4)" d="M 426.732475 346.166371 
L 431.20263 346.29946 
L 428.414065 349.795731 
L 426.732475 346.166371 
z
" style="stroke:#000000;stroke-linecap:round;"/>
   </g>
   <g id="patch_49">
    <path clip-path="url(#pada63ad7b4)" d="M 411.237015 334.018635 
Q 421.228465 335.911563 430.121422 337.596376 
" style="fill:none;stroke:#000000;stroke-linecap:round;"/>
    <path clip-path="url(#pada63ad7b4)" d="M 426.563619 334.886757 
L 430.121422 337.596376 
L 425.819044 338.816847 
L 426.563619 334.886757 
z
" style="stroke:#000000;stroke-linecap:round;"/>
   </g>
   <g id="PathCollection_1">
    <defs>
     <path d="M 0 13.228757 
C 3.508307 13.228757 6.873396 11.834891 9.354143 9.354143 
C 11.834891 6.873396 13.228757 3.508307 13.228757 0 
C 13.228757 -3.508307 11.834891 -6.873396 9.354143 -9.354143 
C 6.873396 -11.834891 3.508307 -13.228757 0 -13.228757 
C -3.508307 -13.228757 -6.873396 -11.834891 -9.354143 -9.354143 
C -11.834891 -6.873396 -13.228757 -3.508307 -13.228757 0 
C -13.228757 3.508307 -11.834891 6.873396 -9.354143 9.354143 
C -6.873396 11.834891 -3.508307 13.228757 0 13.228757 
z
" id="m94210db8d0" style="stroke:#87ceeb;"/>
    </defs>
    <g clip-path="url(#pada63ad7b4)">
     <use style="fill:#87ceeb;stroke:#87ceeb;" x="314.549255" xlink:href="#m94210db8d0" y="74.975207"/>
     <use style="fill:#87ceeb;stroke:#87ceeb;" x="292.000997" xlink:href="#m94210db8d0" y="120.079116"/>
     <use style="fill:#87ceeb;stroke:#87ceeb;" x="294.336037" xlink:href="#m94210db8d0" y="149.893316"/>
     <use style="fill:#87ceeb;stroke:#87ceeb;" x="299.261793" xlink:href="#m94210db8d0" y="241.332357"/>
     <use style="fill:#87ceeb;stroke:#87ceeb;" x="303.501492" xlink:href="#m94210db8d0" y="365.683174"/>
     <use style="fill:#87ceeb;stroke:#87ceeb;" x="127.08712" xlink:href="#m94210db8d0" y="157.756455"/>
     <use style="fill:#87ceeb;stroke:#87ceeb;" x="49.983471" xlink:href="#m94210db8d0" y="249.735076"/>
     <use style="fill:#87ceeb;stroke:#87ceeb;" x="91.186953" xlink:href="#m94210db8d0" y="352.448868"/>
     <use style="fill:#87ceeb;stroke:#87ceeb;" x="132.738365" xlink:href="#m94210db8d0" y="370.648774"/>
     <use style="fill:#87ceeb;stroke:#87ceeb;" x="476.831718" xlink:href="#m94210db8d0" y="165.4381"/>
     <use style="fill:#87ceeb;stroke:#87ceeb;" x="526.016529" xlink:href="#m94210db8d0" y="264.980639"/>
     <use style="fill:#87ceeb;stroke:#87ceeb;" x="503.274485" xlink:href="#m94210db8d0" y="326.589293"/>
     <use style="fill:#87ceeb;stroke:#87ceeb;" x="444.221081" xlink:href="#m94210db8d0" y="340.267624"/>
     <use style="fill:#87ceeb;stroke:#87ceeb;" x="226.837923" xlink:href="#m94210db8d0" y="367.283909"/>
     <use style="fill:#87ceeb;stroke:#87ceeb;" x="172.771533" xlink:href="#m94210db8d0" y="575.969522"/>
     <use style="fill:#87ceeb;stroke:#87ceeb;" x="179.224074" xlink:href="#m94210db8d0" y="745.289452"/>
     <use style="fill:#87ceeb;stroke:#87ceeb;" x="169.091898" xlink:href="#m94210db8d0" y="789.024793"/>
     <use style="fill:#87ceeb;stroke:#87ceeb;" x="366.664067" xlink:href="#m94210db8d0" y="368.296258"/>
     <use style="fill:#87ceeb;stroke:#87ceeb;" x="384.795497" xlink:href="#m94210db8d0" y="523.851083"/>
     <use style="fill:#87ceeb;stroke:#87ceeb;" x="308.070355" xlink:href="#m94210db8d0" y="652.589758"/>
     <use style="fill:#87ceeb;stroke:#87ceeb;" x="300.834969" xlink:href="#m94210db8d0" y="695.14293"/>
     <use style="fill:#87ceeb;stroke:#87ceeb;" x="175.502265" xlink:href="#m94210db8d0" y="395.479322"/>
     <use style="fill:#87ceeb;stroke:#87ceeb;" x="164.115428" xlink:href="#m94210db8d0" y="363.072298"/>
     <use style="fill:#87ceeb;stroke:#87ceeb;" x="405.832679" xlink:href="#m94210db8d0" y="358.054114"/>
     <use style="fill:#87ceeb;stroke:#87ceeb;" x="398.2404" xlink:href="#m94210db8d0" y="331.556364"/>
    </g>
   </g>
   <g id="text_1">
    <g clip-path="url(#pada63ad7b4)">
     <!-- Head -->
     <g transform="translate(301.474255 77.734582)scale(0.1 -0.1)">
      <defs>
       <path d="M 9.8125 72.90625 
L 19.671875 72.90625 
L 19.671875 43.015625 
L 55.515625 43.015625 
L 55.515625 72.90625 
L 65.375 72.90625 
L 65.375 0 
L 55.515625 0 
L 55.515625 34.71875 
L 19.671875 34.71875 
L 19.671875 0 
L 9.8125 0 
z
" id="DejaVuSans-72"/>
       <path d="M 56.203125 29.59375 
L 56.203125 25.203125 
L 14.890625 25.203125 
Q 15.484375 15.921875 20.484375 11.0625 
Q 25.484375 6.203125 34.421875 6.203125 
Q 39.59375 6.203125 44.453125 7.46875 
Q 49.3125 8.734375 54.109375 11.28125 
L 54.109375 2.78125 
Q 49.265625 0.734375 44.1875 -0.34375 
Q 39.109375 -1.421875 33.890625 -1.421875 
Q 20.796875 -1.421875 13.15625 6.1875 
Q 5.515625 13.8125 5.515625 26.8125 
Q 5.515625 40.234375 12.765625 48.109375 
Q 20.015625 56 32.328125 56 
Q 43.359375 56 49.78125 48.890625 
Q 56.203125 41.796875 56.203125 29.59375 
z
M 47.21875 32.234375 
Q 47.125 39.59375 43.09375 43.984375 
Q 39.0625 48.390625 32.421875 48.390625 
Q 24.90625 48.390625 20.390625 44.140625 
Q 15.875 39.890625 15.1875 32.171875 
z
" id="DejaVuSans-101"/>
       <path d="M 34.28125 27.484375 
Q 23.390625 27.484375 19.1875 25 
Q 14.984375 22.515625 14.984375 16.5 
Q 14.984375 11.71875 18.140625 8.90625 
Q 21.296875 6.109375 26.703125 6.109375 
Q 34.1875 6.109375 38.703125 11.40625 
Q 43.21875 16.703125 43.21875 25.484375 
L 43.21875 27.484375 
z
M 52.203125 31.203125 
L 52.203125 0 
L 43.21875 0 
L 43.21875 8.296875 
Q 40.140625 3.328125 35.546875 0.953125 
Q 30.953125 -1.421875 24.3125 -1.421875 
Q 15.921875 -1.421875 10.953125 3.296875 
Q 6 8.015625 6 15.921875 
Q 6 25.140625 12.171875 29.828125 
Q 18.359375 34.515625 30.609375 34.515625 
L 43.21875 34.515625 
L 43.21875 35.40625 
Q 43.21875 41.609375 39.140625 45 
Q 35.0625 48.390625 27.6875 48.390625 
Q 23 48.390625 18.546875 47.265625 
Q 14.109375 46.140625 10.015625 43.890625 
L 10.015625 52.203125 
Q 14.9375 54.109375 19.578125 55.046875 
Q 24.21875 56 28.609375 56 
Q 40.484375 56 46.34375 49.84375 
Q 52.203125 43.703125 52.203125 31.203125 
z
" id="DejaVuSans-97"/>
       <path d="M 45.40625 46.390625 
L 45.40625 75.984375 
L 54.390625 75.984375 
L 54.390625 0 
L 45.40625 0 
L 45.40625 8.203125 
Q 42.578125 3.328125 38.25 0.953125 
Q 33.9375 -1.421875 27.875 -1.421875 
Q 17.96875 -1.421875 11.734375 6.484375 
Q 5.515625 14.40625 5.515625 27.296875 
Q 5.515625 40.1875 11.734375 48.09375 
Q 17.96875 56 27.875 56 
Q 33.9375 56 38.25 53.625 
Q 42.578125 51.265625 45.40625 46.390625 
z
M 14.796875 27.296875 
Q 14.796875 17.390625 18.875 11.75 
Q 22.953125 6.109375 30.078125 6.109375 
Q 37.203125 6.109375 41.296875 11.75 
Q 45.40625 17.390625 45.40625 27.296875 
Q 45.40625 37.203125 41.296875 42.84375 
Q 37.203125 48.484375 30.078125 48.484375 
Q 22.953125 48.484375 18.875 42.84375 
Q 14.796875 37.203125 14.796875 27.296875 
z
" id="DejaVuSans-100"/>
      </defs>
      <use xlink:href="#DejaVuSans-72"/>
      <use x="75.195312" xlink:href="#DejaVuSans-101"/>
      <use x="136.71875" xlink:href="#DejaVuSans-97"/>
      <use x="197.998047" xlink:href="#DejaVuSans-100"/>
     </g>
    </g>
   </g>
   <g id="text_2">
    <g clip-path="url(#pada63ad7b4)">
     <!-- c7 -->
     <g transform="translate(286.070528 122.838491)scale(0.1 -0.1)">
      <defs>
       <path d="M 48.78125 52.59375 
L 48.78125 44.1875 
Q 44.96875 46.296875 41.140625 47.34375 
Q 37.3125 48.390625 33.40625 48.390625 
Q 24.65625 48.390625 19.8125 42.84375 
Q 14.984375 37.3125 14.984375 27.296875 
Q 14.984375 17.28125 19.8125 11.734375 
Q 24.65625 6.203125 33.40625 6.203125 
Q 37.3125 6.203125 41.140625 7.25 
Q 44.96875 8.296875 48.78125 10.40625 
L 48.78125 2.09375 
Q 45.015625 0.34375 40.984375 -0.53125 
Q 36.96875 -1.421875 32.421875 -1.421875 
Q 20.0625 -1.421875 12.78125 6.34375 
Q 5.515625 14.109375 5.515625 27.296875 
Q 5.515625 40.671875 12.859375 48.328125 
Q 20.21875 56 33.015625 56 
Q 37.15625 56 41.109375 55.140625 
Q 45.0625 54.296875 48.78125 52.59375 
z
" id="DejaVuSans-99"/>
       <path d="M 8.203125 72.90625 
L 55.078125 72.90625 
L 55.078125 68.703125 
L 28.609375 0 
L 18.3125 0 
L 43.21875 64.59375 
L 8.203125 64.59375 
z
" id="DejaVuSans-55"/>
      </defs>
      <use xlink:href="#DejaVuSans-99"/>
      <use x="54.980469" xlink:href="#DejaVuSans-55"/>
     </g>
    </g>
   </g>
   <g id="text_3">
    <g clip-path="url(#pada63ad7b4)">
     <!-- SpineShoulder -->
     <g transform="translate(258.086818 152.652691)scale(0.1 -0.1)">
      <defs>
       <path d="M 53.515625 70.515625 
L 53.515625 60.890625 
Q 47.90625 63.578125 42.921875 64.890625 
Q 37.9375 66.21875 33.296875 66.21875 
Q 25.25 66.21875 20.875 63.09375 
Q 16.5 59.96875 16.5 54.203125 
Q 16.5 49.359375 19.40625 46.890625 
Q 22.3125 44.4375 30.421875 42.921875 
L 36.375 41.703125 
Q 47.40625 39.59375 52.65625 34.296875 
Q 57.90625 29 57.90625 20.125 
Q 57.90625 9.515625 50.796875 4.046875 
Q 43.703125 -1.421875 29.984375 -1.421875 
Q 24.8125 -1.421875 18.96875 -0.25 
Q 13.140625 0.921875 6.890625 3.21875 
L 6.890625 13.375 
Q 12.890625 10.015625 18.65625 8.296875 
Q 24.421875 6.59375 29.984375 6.59375 
Q 38.421875 6.59375 43.015625 9.90625 
Q 47.609375 13.234375 47.609375 19.390625 
Q 47.609375 24.75 44.3125 27.78125 
Q 41.015625 30.8125 33.5 32.328125 
L 27.484375 33.5 
Q 16.453125 35.6875 11.515625 40.375 
Q 6.59375 45.0625 6.59375 53.421875 
Q 6.59375 63.09375 13.40625 68.65625 
Q 20.21875 74.21875 32.171875 74.21875 
Q 37.3125 74.21875 42.625 73.28125 
Q 47.953125 72.359375 53.515625 70.515625 
z
" id="DejaVuSans-83"/>
       <path d="M 18.109375 8.203125 
L 18.109375 -20.796875 
L 9.078125 -20.796875 
L 9.078125 54.6875 
L 18.109375 54.6875 
L 18.109375 46.390625 
Q 20.953125 51.265625 25.265625 53.625 
Q 29.59375 56 35.59375 56 
Q 45.5625 56 51.78125 48.09375 
Q 58.015625 40.1875 58.015625 27.296875 
Q 58.015625 14.40625 51.78125 6.484375 
Q 45.5625 -1.421875 35.59375 -1.421875 
Q 29.59375 -1.421875 25.265625 0.953125 
Q 20.953125 3.328125 18.109375 8.203125 
z
M 48.6875 27.296875 
Q 48.6875 37.203125 44.609375 42.84375 
Q 40.53125 48.484375 33.40625 48.484375 
Q 26.265625 48.484375 22.1875 42.84375 
Q 18.109375 37.203125 18.109375 27.296875 
Q 18.109375 17.390625 22.1875 11.75 
Q 26.265625 6.109375 33.40625 6.109375 
Q 40.53125 6.109375 44.609375 11.75 
Q 48.6875 17.390625 48.6875 27.296875 
z
" id="DejaVuSans-112"/>
       <path d="M 9.421875 54.6875 
L 18.40625 54.6875 
L 18.40625 0 
L 9.421875 0 
z
M 9.421875 75.984375 
L 18.40625 75.984375 
L 18.40625 64.59375 
L 9.421875 64.59375 
z
" id="DejaVuSans-105"/>
       <path d="M 54.890625 33.015625 
L 54.890625 0 
L 45.90625 0 
L 45.90625 32.71875 
Q 45.90625 40.484375 42.875 44.328125 
Q 39.84375 48.1875 33.796875 48.1875 
Q 26.515625 48.1875 22.3125 43.546875 
Q 18.109375 38.921875 18.109375 30.90625 
L 18.109375 0 
L 9.078125 0 
L 9.078125 54.6875 
L 18.109375 54.6875 
L 18.109375 46.1875 
Q 21.34375 51.125 25.703125 53.5625 
Q 30.078125 56 35.796875 56 
Q 45.21875 56 50.046875 50.171875 
Q 54.890625 44.34375 54.890625 33.015625 
z
" id="DejaVuSans-110"/>
       <path d="M 54.890625 33.015625 
L 54.890625 0 
L 45.90625 0 
L 45.90625 32.71875 
Q 45.90625 40.484375 42.875 44.328125 
Q 39.84375 48.1875 33.796875 48.1875 
Q 26.515625 48.1875 22.3125 43.546875 
Q 18.109375 38.921875 18.109375 30.90625 
L 18.109375 0 
L 9.078125 0 
L 9.078125 75.984375 
L 18.109375 75.984375 
L 18.109375 46.1875 
Q 21.34375 51.125 25.703125 53.5625 
Q 30.078125 56 35.796875 56 
Q 45.21875 56 50.046875 50.171875 
Q 54.890625 44.34375 54.890625 33.015625 
z
" id="DejaVuSans-104"/>
       <path d="M 30.609375 48.390625 
Q 23.390625 48.390625 19.1875 42.75 
Q 14.984375 37.109375 14.984375 27.296875 
Q 14.984375 17.484375 19.15625 11.84375 
Q 23.34375 6.203125 30.609375 6.203125 
Q 37.796875 6.203125 41.984375 11.859375 
Q 46.1875 17.53125 46.1875 27.296875 
Q 46.1875 37.015625 41.984375 42.703125 
Q 37.796875 48.390625 30.609375 48.390625 
z
M 30.609375 56 
Q 42.328125 56 49.015625 48.375 
Q 55.71875 40.765625 55.71875 27.296875 
Q 55.71875 13.875 49.015625 6.21875 
Q 42.328125 -1.421875 30.609375 -1.421875 
Q 18.84375 -1.421875 12.171875 6.21875 
Q 5.515625 13.875 5.515625 27.296875 
Q 5.515625 40.765625 12.171875 48.375 
Q 18.84375 56 30.609375 56 
z
" id="DejaVuSans-111"/>
       <path d="M 8.5 21.578125 
L 8.5 54.6875 
L 17.484375 54.6875 
L 17.484375 21.921875 
Q 17.484375 14.15625 20.5 10.265625 
Q 23.53125 6.390625 29.59375 6.390625 
Q 36.859375 6.390625 41.078125 11.03125 
Q 45.3125 15.671875 45.3125 23.6875 
L 45.3125 54.6875 
L 54.296875 54.6875 
L 54.296875 0 
L 45.3125 0 
L 45.3125 8.40625 
Q 42.046875 3.421875 37.71875 1 
Q 33.40625 -1.421875 27.6875 -1.421875 
Q 18.265625 -1.421875 13.375 4.4375 
Q 8.5 10.296875 8.5 21.578125 
z
M 31.109375 56 
z
" id="DejaVuSans-117"/>
       <path d="M 9.421875 75.984375 
L 18.40625 75.984375 
L 18.40625 0 
L 9.421875 0 
z
" id="DejaVuSans-108"/>
       <path d="M 41.109375 46.296875 
Q 39.59375 47.171875 37.8125 47.578125 
Q 36.03125 48 33.890625 48 
Q 26.265625 48 22.1875 43.046875 
Q 18.109375 38.09375 18.109375 28.8125 
L 18.109375 0 
L 9.078125 0 
L 9.078125 54.6875 
L 18.109375 54.6875 
L 18.109375 46.1875 
Q 20.953125 51.171875 25.484375 53.578125 
Q 30.03125 56 36.53125 56 
Q 37.453125 56 38.578125 55.875 
Q 39.703125 55.765625 41.0625 55.515625 
z
" id="DejaVuSans-114"/>
      </defs>
      <use xlink:href="#DejaVuSans-83"/>
      <use x="63.476562" xlink:href="#DejaVuSans-112"/>
      <use x="126.953125" xlink:href="#DejaVuSans-105"/>
      <use x="154.736328" xlink:href="#DejaVuSans-110"/>
      <use x="218.115234" xlink:href="#DejaVuSans-101"/>
      <use x="279.638672" xlink:href="#DejaVuSans-83"/>
      <use x="343.115234" xlink:href="#DejaVuSans-104"/>
      <use x="406.494141" xlink:href="#DejaVuSans-111"/>
      <use x="467.675781" xlink:href="#DejaVuSans-117"/>
      <use x="531.054688" xlink:href="#DejaVuSans-108"/>
      <use x="558.837891" xlink:href="#DejaVuSans-100"/>
      <use x="622.314453" xlink:href="#DejaVuSans-101"/>
      <use x="683.837891" xlink:href="#DejaVuSans-114"/>
     </g>
    </g>
   </g>
   <g id="text_4">
    <g clip-path="url(#pada63ad7b4)">
     <!-- Spine -->
     <g transform="translate(285.27898 244.091732)scale(0.1 -0.1)">
      <use xlink:href="#DejaVuSans-83"/>
      <use x="63.476562" xlink:href="#DejaVuSans-112"/>
      <use x="126.953125" xlink:href="#DejaVuSans-105"/>
      <use x="154.736328" xlink:href="#DejaVuSans-110"/>
      <use x="218.115234" xlink:href="#DejaVuSans-101"/>
     </g>
    </g>
   </g>
   <g id="text_5">
    <g clip-path="url(#pada63ad7b4)">
     <!-- Sacr -->
     <g transform="translate(292.458523 368.442549)scale(0.1 -0.1)">
      <use xlink:href="#DejaVuSans-83"/>
      <use x="63.476562" xlink:href="#DejaVuSans-97"/>
      <use x="124.755859" xlink:href="#DejaVuSans-99"/>
      <use x="179.736328" xlink:href="#DejaVuSans-114"/>
     </g>
    </g>
   </g>
   <g id="text_6">
    <g clip-path="url(#pada63ad7b4)">
     <!-- LShoulder -->
     <g transform="translate(102.034776 160.51583)scale(0.1 -0.1)">
      <defs>
       <path d="M 9.8125 72.90625 
L 19.671875 72.90625 
L 19.671875 8.296875 
L 55.171875 8.296875 
L 55.171875 0 
L 9.8125 0 
z
" id="DejaVuSans-76"/>
      </defs>
      <use xlink:href="#DejaVuSans-76"/>
      <use x="55.712891" xlink:href="#DejaVuSans-83"/>
      <use x="119.189453" xlink:href="#DejaVuSans-104"/>
      <use x="182.568359" xlink:href="#DejaVuSans-111"/>
      <use x="243.75" xlink:href="#DejaVuSans-117"/>
      <use x="307.128906" xlink:href="#DejaVuSans-108"/>
      <use x="334.912109" xlink:href="#DejaVuSans-100"/>
      <use x="398.388672" xlink:href="#DejaVuSans-101"/>
      <use x="459.912109" xlink:href="#DejaVuSans-114"/>
     </g>
    </g>
   </g>
   <g id="text_7">
    <g clip-path="url(#pada63ad7b4)">
     <!-- LElbow -->
     <g transform="translate(32.32644 252.494451)scale(0.1 -0.1)">
      <defs>
       <path d="M 9.8125 72.90625 
L 55.90625 72.90625 
L 55.90625 64.59375 
L 19.671875 64.59375 
L 19.671875 43.015625 
L 54.390625 43.015625 
L 54.390625 34.71875 
L 19.671875 34.71875 
L 19.671875 8.296875 
L 56.78125 8.296875 
L 56.78125 0 
L 9.8125 0 
z
" id="DejaVuSans-69"/>
       <path d="M 48.6875 27.296875 
Q 48.6875 37.203125 44.609375 42.84375 
Q 40.53125 48.484375 33.40625 48.484375 
Q 26.265625 48.484375 22.1875 42.84375 
Q 18.109375 37.203125 18.109375 27.296875 
Q 18.109375 17.390625 22.1875 11.75 
Q 26.265625 6.109375 33.40625 6.109375 
Q 40.53125 6.109375 44.609375 11.75 
Q 48.6875 17.390625 48.6875 27.296875 
z
M 18.109375 46.390625 
Q 20.953125 51.265625 25.265625 53.625 
Q 29.59375 56 35.59375 56 
Q 45.5625 56 51.78125 48.09375 
Q 58.015625 40.1875 58.015625 27.296875 
Q 58.015625 14.40625 51.78125 6.484375 
Q 45.5625 -1.421875 35.59375 -1.421875 
Q 29.59375 -1.421875 25.265625 0.953125 
Q 20.953125 3.328125 18.109375 8.203125 
L 18.109375 0 
L 9.078125 0 
L 9.078125 75.984375 
L 18.109375 75.984375 
z
" id="DejaVuSans-98"/>
       <path d="M 4.203125 54.6875 
L 13.1875 54.6875 
L 24.421875 12.015625 
L 35.59375 54.6875 
L 46.1875 54.6875 
L 57.421875 12.015625 
L 68.609375 54.6875 
L 77.59375 54.6875 
L 63.28125 0 
L 52.6875 0 
L 40.921875 44.828125 
L 29.109375 0 
L 18.5 0 
z
" id="DejaVuSans-119"/>
      </defs>
      <use xlink:href="#DejaVuSans-76"/>
      <use x="55.712891" xlink:href="#DejaVuSans-69"/>
      <use x="118.896484" xlink:href="#DejaVuSans-108"/>
      <use x="146.679688" xlink:href="#DejaVuSans-98"/>
      <use x="210.15625" xlink:href="#DejaVuSans-111"/>
      <use x="271.337891" xlink:href="#DejaVuSans-119"/>
     </g>
    </g>
   </g>
   <g id="text_8">
    <g clip-path="url(#pada63ad7b4)">
     <!-- LWrist -->
     <g transform="translate(76.12914 355.208243)scale(0.1 -0.1)">
      <defs>
       <path d="M 3.328125 72.90625 
L 13.28125 72.90625 
L 28.609375 11.28125 
L 43.890625 72.90625 
L 54.984375 72.90625 
L 70.3125 11.28125 
L 85.59375 72.90625 
L 95.609375 72.90625 
L 77.296875 0 
L 64.890625 0 
L 49.515625 63.28125 
L 33.984375 0 
L 21.578125 0 
z
" id="DejaVuSans-87"/>
       <path d="M 44.28125 53.078125 
L 44.28125 44.578125 
Q 40.484375 46.53125 36.375 47.5 
Q 32.28125 48.484375 27.875 48.484375 
Q 21.1875 48.484375 17.84375 46.4375 
Q 14.5 44.390625 14.5 40.28125 
Q 14.5 37.15625 16.890625 35.375 
Q 19.28125 33.59375 26.515625 31.984375 
L 29.59375 31.296875 
Q 39.15625 29.25 43.1875 25.515625 
Q 47.21875 21.78125 47.21875 15.09375 
Q 47.21875 7.46875 41.1875 3.015625 
Q 35.15625 -1.421875 24.609375 -1.421875 
Q 20.21875 -1.421875 15.453125 -0.5625 
Q 10.6875 0.296875 5.421875 2 
L 5.421875 11.28125 
Q 10.40625 8.6875 15.234375 7.390625 
Q 20.0625 6.109375 24.8125 6.109375 
Q 31.15625 6.109375 34.5625 8.28125 
Q 37.984375 10.453125 37.984375 14.40625 
Q 37.984375 18.0625 35.515625 20.015625 
Q 33.0625 21.96875 24.703125 23.78125 
L 21.578125 24.515625 
Q 13.234375 26.265625 9.515625 29.90625 
Q 5.8125 33.546875 5.8125 39.890625 
Q 5.8125 47.609375 11.28125 51.796875 
Q 16.75 56 26.8125 56 
Q 31.78125 56 36.171875 55.265625 
Q 40.578125 54.546875 44.28125 53.078125 
z
" id="DejaVuSans-115"/>
       <path d="M 18.3125 70.21875 
L 18.3125 54.6875 
L 36.8125 54.6875 
L 36.8125 47.703125 
L 18.3125 47.703125 
L 18.3125 18.015625 
Q 18.3125 11.328125 20.140625 9.421875 
Q 21.96875 7.515625 27.59375 7.515625 
L 36.8125 7.515625 
L 36.8125 0 
L 27.59375 0 
Q 17.1875 0 13.234375 3.875 
Q 9.28125 7.765625 9.28125 18.015625 
L 9.28125 47.703125 
L 2.6875 47.703125 
L 2.6875 54.6875 
L 9.28125 54.6875 
L 9.28125 70.21875 
z
" id="DejaVuSans-116"/>
      </defs>
      <use xlink:href="#DejaVuSans-76"/>
      <use x="46.587891" xlink:href="#DejaVuSans-87"/>
      <use x="140.964844" xlink:href="#DejaVuSans-114"/>
      <use x="182.078125" xlink:href="#DejaVuSans-105"/>
      <use x="209.861328" xlink:href="#DejaVuSans-115"/>
      <use x="261.960938" xlink:href="#DejaVuSans-116"/>
     </g>
    </g>
   </g>
   <g id="text_9">
    <g clip-path="url(#pada63ad7b4)">
     <!-- LHand -->
     <g transform="translate(116.78524 373.408149)scale(0.1 -0.1)">
      <use xlink:href="#DejaVuSans-76"/>
      <use x="55.712891" xlink:href="#DejaVuSans-72"/>
      <use x="130.908203" xlink:href="#DejaVuSans-97"/>
      <use x="192.1875" xlink:href="#DejaVuSans-110"/>
      <use x="255.566406" xlink:href="#DejaVuSans-100"/>
     </g>
    </g>
   </g>
   <g id="text_10">
    <g clip-path="url(#pada63ad7b4)">
     <!-- RShoulder -->
     <g transform="translate(451.091093 168.197475)scale(0.1 -0.1)">
      <defs>
       <path d="M 44.390625 34.1875 
Q 47.5625 33.109375 50.5625 29.59375 
Q 53.5625 26.078125 56.59375 19.921875 
L 66.609375 0 
L 56 0 
L 46.6875 18.703125 
Q 43.0625 26.03125 39.671875 28.421875 
Q 36.28125 30.8125 30.421875 30.8125 
L 19.671875 30.8125 
L 19.671875 0 
L 9.8125 0 
L 9.8125 72.90625 
L 32.078125 72.90625 
Q 44.578125 72.90625 50.734375 67.671875 
Q 56.890625 62.453125 56.890625 51.90625 
Q 56.890625 45.015625 53.6875 40.46875 
Q 50.484375 35.9375 44.390625 34.1875 
z
M 19.671875 64.796875 
L 19.671875 38.921875 
L 32.078125 38.921875 
Q 39.203125 38.921875 42.84375 42.21875 
Q 46.484375 45.515625 46.484375 51.90625 
Q 46.484375 58.296875 42.84375 61.546875 
Q 39.203125 64.796875 32.078125 64.796875 
z
" id="DejaVuSans-82"/>
      </defs>
      <use xlink:href="#DejaVuSans-82"/>
      <use x="69.482422" xlink:href="#DejaVuSans-83"/>
      <use x="132.958984" xlink:href="#DejaVuSans-104"/>
      <use x="196.337891" xlink:href="#DejaVuSans-111"/>
      <use x="257.519531" xlink:href="#DejaVuSans-117"/>
      <use x="320.898438" xlink:href="#DejaVuSans-108"/>
      <use x="348.681641" xlink:href="#DejaVuSans-100"/>
      <use x="412.158203" xlink:href="#DejaVuSans-101"/>
      <use x="473.681641" xlink:href="#DejaVuSans-114"/>
     </g>
    </g>
   </g>
   <g id="text_11">
    <g clip-path="url(#pada63ad7b4)">
     <!-- RElbow -->
     <g transform="translate(507.671216 267.740014)scale(0.1 -0.1)">
      <use xlink:href="#DejaVuSans-82"/>
      <use x="69.482422" xlink:href="#DejaVuSans-69"/>
      <use x="132.666016" xlink:href="#DejaVuSans-108"/>
      <use x="160.449219" xlink:href="#DejaVuSans-98"/>
      <use x="223.925781" xlink:href="#DejaVuSans-111"/>
      <use x="285.107422" xlink:href="#DejaVuSans-119"/>
     </g>
    </g>
   </g>
   <g id="text_12">
    <g clip-path="url(#pada63ad7b4)">
     <!-- RWrist -->
     <g transform="translate(487.272141 329.348668)scale(0.1 -0.1)">
      <use xlink:href="#DejaVuSans-82"/>
      <use x="65.482422" xlink:href="#DejaVuSans-87"/>
      <use x="159.859375" xlink:href="#DejaVuSans-114"/>
      <use x="200.972656" xlink:href="#DejaVuSans-105"/>
      <use x="228.755859" xlink:href="#DejaVuSans-115"/>
      <use x="280.855469" xlink:href="#DejaVuSans-116"/>
     </g>
    </g>
   </g>
   <g id="text_13">
    <g clip-path="url(#pada63ad7b4)">
     <!-- RHand -->
     <g transform="translate(427.579675 343.026999)scale(0.1 -0.1)">
      <use xlink:href="#DejaVuSans-82"/>
      <use x="69.482422" xlink:href="#DejaVuSans-72"/>
      <use x="144.677734" xlink:href="#DejaVuSans-97"/>
      <use x="205.957031" xlink:href="#DejaVuSans-110"/>
      <use x="269.335938" xlink:href="#DejaVuSans-100"/>
     </g>
    </g>
   </g>
   <g id="text_14">
    <g clip-path="url(#pada63ad7b4)">
     <!-- LHip -->
     <g transform="translate(215.728548 370.043284)scale(0.1 -0.1)">
      <use xlink:href="#DejaVuSans-76"/>
      <use x="55.712891" xlink:href="#DejaVuSans-72"/>
      <use x="130.908203" xlink:href="#DejaVuSans-105"/>
      <use x="158.691406" xlink:href="#DejaVuSans-112"/>
     </g>
    </g>
   </g>
   <g id="text_15">
    <g clip-path="url(#pada63ad7b4)">
     <!-- LKnee -->
     <g transform="translate(157.384814 578.728897)scale(0.1 -0.1)">
      <defs>
       <path d="M 9.8125 72.90625 
L 19.671875 72.90625 
L 19.671875 42.09375 
L 52.390625 72.90625 
L 65.09375 72.90625 
L 28.90625 38.921875 
L 67.671875 0 
L 54.6875 0 
L 19.671875 35.109375 
L 19.671875 0 
L 9.8125 0 
z
" id="DejaVuSans-75"/>
      </defs>
      <use xlink:href="#DejaVuSans-76"/>
      <use x="55.712891" xlink:href="#DejaVuSans-75"/>
      <use x="121.289062" xlink:href="#DejaVuSans-110"/>
      <use x="184.667969" xlink:href="#DejaVuSans-101"/>
      <use x="246.191406" xlink:href="#DejaVuSans-101"/>
     </g>
    </g>
   </g>
   <g id="text_16">
    <g clip-path="url(#pada63ad7b4)">
     <!-- LAnkle -->
     <g transform="translate(162.375637 748.048827)scale(0.1 -0.1)">
      <defs>
       <path d="M 34.1875 63.1875 
L 20.796875 26.90625 
L 47.609375 26.90625 
z
M 28.609375 72.90625 
L 39.796875 72.90625 
L 67.578125 0 
L 57.328125 0 
L 50.6875 18.703125 
L 17.828125 18.703125 
L 11.1875 0 
L 0.78125 0 
z
" id="DejaVuSans-65"/>
       <path d="M 9.078125 75.984375 
L 18.109375 75.984375 
L 18.109375 31.109375 
L 44.921875 54.6875 
L 56.390625 54.6875 
L 27.390625 29.109375 
L 57.625 0 
L 45.90625 0 
L 18.109375 26.703125 
L 18.109375 0 
L 9.078125 0 
z
" id="DejaVuSans-107"/>
      </defs>
      <use xlink:href="#DejaVuSans-76"/>
      <use x="57.962891" xlink:href="#DejaVuSans-65"/>
      <use x="126.371094" xlink:href="#DejaVuSans-110"/>
      <use x="189.75" xlink:href="#DejaVuSans-107"/>
      <use x="247.660156" xlink:href="#DejaVuSans-108"/>
      <use x="275.443359" xlink:href="#DejaVuSans-101"/>
     </g>
    </g>
   </g>
   <g id="text_17">
    <g clip-path="url(#pada63ad7b4)">
     <!-- LFoot -->
     <g transform="translate(155.532523 791.784168)scale(0.1 -0.1)">
      <defs>
       <path d="M 9.8125 72.90625 
L 51.703125 72.90625 
L 51.703125 64.59375 
L 19.671875 64.59375 
L 19.671875 43.109375 
L 48.578125 43.109375 
L 48.578125 34.8125 
L 19.671875 34.8125 
L 19.671875 0 
L 9.8125 0 
z
" id="DejaVuSans-70"/>
      </defs>
      <use xlink:href="#DejaVuSans-76"/>
      <use x="55.712891" xlink:href="#DejaVuSans-70"/>
      <use x="109.607422" xlink:href="#DejaVuSans-111"/>
      <use x="170.789062" xlink:href="#DejaVuSans-111"/>
      <use x="231.970703" xlink:href="#DejaVuSans-116"/>
     </g>
    </g>
   </g>
   <g id="text_18">
    <g clip-path="url(#pada63ad7b4)">
     <!-- RHip -->
     <g transform="translate(354.866411 371.055633)scale(0.1 -0.1)">
      <use xlink:href="#DejaVuSans-82"/>
      <use x="69.482422" xlink:href="#DejaVuSans-72"/>
      <use x="144.677734" xlink:href="#DejaVuSans-105"/>
      <use x="172.460938" xlink:href="#DejaVuSans-112"/>
     </g>
    </g>
   </g>
   <g id="text_19">
    <g clip-path="url(#pada63ad7b4)">
     <!-- RKnee -->
     <g transform="translate(368.720497 526.610458)scale(0.1 -0.1)">
      <use xlink:href="#DejaVuSans-82"/>
      <use x="69.482422" xlink:href="#DejaVuSans-75"/>
      <use x="135.058594" xlink:href="#DejaVuSans-110"/>
      <use x="198.4375" xlink:href="#DejaVuSans-101"/>
      <use x="259.960938" xlink:href="#DejaVuSans-101"/>
     </g>
    </g>
   </g>
   <g id="text_20">
    <g clip-path="url(#pada63ad7b4)">
     <!-- RAnkle -->
     <g transform="translate(290.846136 655.349133)scale(0.1 -0.1)">
      <use xlink:href="#DejaVuSans-82"/>
      <use x="65.482422" xlink:href="#DejaVuSans-65"/>
      <use x="133.890625" xlink:href="#DejaVuSans-110"/>
      <use x="197.269531" xlink:href="#DejaVuSans-107"/>
      <use x="255.179688" xlink:href="#DejaVuSans-108"/>
      <use x="282.962891" xlink:href="#DejaVuSans-101"/>
     </g>
    </g>
   </g>
   <g id="text_21">
    <g clip-path="url(#pada63ad7b4)">
     <!-- RFoot -->
     <g transform="translate(286.587313 697.902305)scale(0.1 -0.1)">
      <use xlink:href="#DejaVuSans-82"/>
      <use x="69.482422" xlink:href="#DejaVuSans-70"/>
      <use x="123.376953" xlink:href="#DejaVuSans-111"/>
      <use x="184.558594" xlink:href="#DejaVuSans-111"/>
      <use x="245.740234" xlink:href="#DejaVuSans-116"/>
     </g>
    </g>
   </g>
   <g id="text_22">
    <g clip-path="url(#pada63ad7b4)">
     <!-- LHandTip -->
     <g transform="translate(152.088203 398.238697)scale(0.1 -0.1)">
      <defs>
       <path d="M -0.296875 72.90625 
L 61.375 72.90625 
L 61.375 64.59375 
L 35.5 64.59375 
L 35.5 0 
L 25.59375 0 
L 25.59375 64.59375 
L -0.296875 64.59375 
z
" id="DejaVuSans-84"/>
      </defs>
      <use xlink:href="#DejaVuSans-76"/>
      <use x="55.712891" xlink:href="#DejaVuSans-72"/>
      <use x="130.908203" xlink:href="#DejaVuSans-97"/>
      <use x="192.1875" xlink:href="#DejaVuSans-110"/>
      <use x="255.566406" xlink:href="#DejaVuSans-100"/>
      <use x="319.042969" xlink:href="#DejaVuSans-84"/>
      <use x="377.001953" xlink:href="#DejaVuSans-105"/>
      <use x="404.785156" xlink:href="#DejaVuSans-112"/>
     </g>
    </g>
   </g>
   <g id="text_23">
    <g clip-path="url(#pada63ad7b4)">
     <!-- LThumb -->
     <g transform="translate(144.581053 365.831673)scale(0.1 -0.1)">
      <defs>
       <path d="M 52 44.1875 
Q 55.375 50.25 60.0625 53.125 
Q 64.75 56 71.09375 56 
Q 79.640625 56 84.28125 50.015625 
Q 88.921875 44.046875 88.921875 33.015625 
L 88.921875 0 
L 79.890625 0 
L 79.890625 32.71875 
Q 79.890625 40.578125 77.09375 44.375 
Q 74.3125 48.1875 68.609375 48.1875 
Q 61.625 48.1875 57.5625 43.546875 
Q 53.515625 38.921875 53.515625 30.90625 
L 53.515625 0 
L 44.484375 0 
L 44.484375 32.71875 
Q 44.484375 40.625 41.703125 44.40625 
Q 38.921875 48.1875 33.109375 48.1875 
Q 26.21875 48.1875 22.15625 43.53125 
Q 18.109375 38.875 18.109375 30.90625 
L 18.109375 0 
L 9.078125 0 
L 9.078125 54.6875 
L 18.109375 54.6875 
L 18.109375 46.1875 
Q 21.1875 51.21875 25.484375 53.609375 
Q 29.78125 56 35.6875 56 
Q 41.65625 56 45.828125 52.96875 
Q 50 49.953125 52 44.1875 
z
" id="DejaVuSans-109"/>
      </defs>
      <use xlink:href="#DejaVuSans-76"/>
      <use x="41.962891" xlink:href="#DejaVuSans-84"/>
      <use x="103.046875" xlink:href="#DejaVuSans-104"/>
      <use x="166.425781" xlink:href="#DejaVuSans-117"/>
      <use x="229.804688" xlink:href="#DejaVuSans-109"/>
      <use x="327.216797" xlink:href="#DejaVuSans-98"/>
     </g>
    </g>
   </g>
   <g id="text_24">
    <g clip-path="url(#pada63ad7b4)">
     <!-- RHandTip -->
     <g transform="translate(381.730335 360.813489)scale(0.1 -0.1)">
      <use xlink:href="#DejaVuSans-82"/>
      <use x="69.482422" xlink:href="#DejaVuSans-72"/>
      <use x="144.677734" xlink:href="#DejaVuSans-97"/>
      <use x="205.957031" xlink:href="#DejaVuSans-110"/>
      <use x="269.335938" xlink:href="#DejaVuSans-100"/>
      <use x="332.8125" xlink:href="#DejaVuSans-84"/>
      <use x="390.771484" xlink:href="#DejaVuSans-105"/>
      <use x="418.554688" xlink:href="#DejaVuSans-112"/>
     </g>
    </g>
   </g>
   <g id="text_25">
    <g clip-path="url(#pada63ad7b4)">
     <!-- RThumb -->
     <g transform="translate(377.692744 334.315739)scale(0.1 -0.1)">
      <use xlink:href="#DejaVuSans-82"/>
      <use x="62.232422" xlink:href="#DejaVuSans-84"/>
      <use x="123.316406" xlink:href="#DejaVuSans-104"/>
      <use x="186.695312" xlink:href="#DejaVuSans-117"/>
      <use x="250.074219" xlink:href="#DejaVuSans-109"/>
      <use x="347.486328" xlink:href="#DejaVuSans-98"/>
     </g>
    </g>
   </g>
   <g id="text_26">
    <!-- Node Graph Visualization - Frame 105 -->
    <g transform="translate(174.194063 -6)scale(0.12 -0.12)">
     <defs>
      <path d="M 9.8125 72.90625 
L 23.09375 72.90625 
L 55.421875 11.921875 
L 55.421875 72.90625 
L 64.984375 72.90625 
L 64.984375 0 
L 51.703125 0 
L 19.390625 60.984375 
L 19.390625 0 
L 9.8125 0 
z
" id="DejaVuSans-78"/>
      <path id="DejaVuSans-32"/>
      <path d="M 59.515625 10.40625 
L 59.515625 29.984375 
L 43.40625 29.984375 
L 43.40625 38.09375 
L 69.28125 38.09375 
L 69.28125 6.78125 
Q 63.578125 2.734375 56.6875 0.65625 
Q 49.8125 -1.421875 42 -1.421875 
Q 24.90625 -1.421875 15.25 8.5625 
Q 5.609375 18.5625 5.609375 36.375 
Q 5.609375 54.25 15.25 64.234375 
Q 24.90625 74.21875 42 74.21875 
Q 49.125 74.21875 55.546875 72.453125 
Q 61.96875 70.703125 67.390625 67.28125 
L 67.390625 56.78125 
Q 61.921875 61.421875 55.765625 63.765625 
Q 49.609375 66.109375 42.828125 66.109375 
Q 29.4375 66.109375 22.71875 58.640625 
Q 16.015625 51.171875 16.015625 36.375 
Q 16.015625 21.625 22.71875 14.15625 
Q 29.4375 6.6875 42.828125 6.6875 
Q 48.046875 6.6875 52.140625 7.59375 
Q 56.25 8.5 59.515625 10.40625 
z
" id="DejaVuSans-71"/>
      <path d="M 28.609375 0 
L 0.78125 72.90625 
L 11.078125 72.90625 
L 34.1875 11.53125 
L 57.328125 72.90625 
L 67.578125 72.90625 
L 39.796875 0 
z
" id="DejaVuSans-86"/>
      <path d="M 5.515625 54.6875 
L 48.1875 54.6875 
L 48.1875 46.484375 
L 14.40625 7.171875 
L 48.1875 7.171875 
L 48.1875 0 
L 4.296875 0 
L 4.296875 8.203125 
L 38.09375 47.515625 
L 5.515625 47.515625 
z
" id="DejaVuSans-122"/>
      <path d="M 4.890625 31.390625 
L 31.203125 31.390625 
L 31.203125 23.390625 
L 4.890625 23.390625 
z
" id="DejaVuSans-45"/>
      <path d="M 12.40625 8.296875 
L 28.515625 8.296875 
L 28.515625 63.921875 
L 10.984375 60.40625 
L 10.984375 69.390625 
L 28.421875 72.90625 
L 38.28125 72.90625 
L 38.28125 8.296875 
L 54.390625 8.296875 
L 54.390625 0 
L 12.40625 0 
z
" id="DejaVuSans-49"/>
      <path d="M 31.78125 66.40625 
Q 24.171875 66.40625 20.328125 58.90625 
Q 16.5 51.421875 16.5 36.375 
Q 16.5 21.390625 20.328125 13.890625 
Q 24.171875 6.390625 31.78125 6.390625 
Q 39.453125 6.390625 43.28125 13.890625 
Q 47.125 21.390625 47.125 36.375 
Q 47.125 51.421875 43.28125 58.90625 
Q 39.453125 66.40625 31.78125 66.40625 
z
M 31.78125 74.21875 
Q 44.046875 74.21875 50.515625 64.515625 
Q 56.984375 54.828125 56.984375 36.375 
Q 56.984375 17.96875 50.515625 8.265625 
Q 44.046875 -1.421875 31.78125 -1.421875 
Q 19.53125 -1.421875 13.0625 8.265625 
Q 6.59375 17.96875 6.59375 36.375 
Q 6.59375 54.828125 13.0625 64.515625 
Q 19.53125 74.21875 31.78125 74.21875 
z
" id="DejaVuSans-48"/>
      <path d="M 10.796875 72.90625 
L 49.515625 72.90625 
L 49.515625 64.59375 
L 19.828125 64.59375 
L 19.828125 46.734375 
Q 21.96875 47.46875 24.109375 47.828125 
Q 26.265625 48.1875 28.421875 48.1875 
Q 40.625 48.1875 47.75 41.5 
Q 54.890625 34.8125 54.890625 23.390625 
Q 54.890625 11.625 47.5625 5.09375 
Q 40.234375 -1.421875 26.90625 -1.421875 
Q 22.3125 -1.421875 17.546875 -0.640625 
Q 12.796875 0.140625 7.71875 1.703125 
L 7.71875 11.625 
Q 12.109375 9.234375 16.796875 8.0625 
Q 21.484375 6.890625 26.703125 6.890625 
Q 35.15625 6.890625 40.078125 11.328125 
Q 45.015625 15.765625 45.015625 23.390625 
Q 45.015625 31 40.078125 35.4375 
Q 35.15625 39.890625 26.703125 39.890625 
Q 22.75 39.890625 18.8125 39.015625 
Q 14.890625 38.140625 10.796875 36.28125 
z
" id="DejaVuSans-53"/>
     </defs>
     <use xlink:href="#DejaVuSans-78"/>
     <use x="74.804688" xlink:href="#DejaVuSans-111"/>
     <use x="135.986328" xlink:href="#DejaVuSans-100"/>
     <use x="199.462891" xlink:href="#DejaVuSans-101"/>
     <use x="260.986328" xlink:href="#DejaVuSans-32"/>
     <use x="292.773438" xlink:href="#DejaVuSans-71"/>
     <use x="370.263672" xlink:href="#DejaVuSans-114"/>
     <use x="411.376953" xlink:href="#DejaVuSans-97"/>
     <use x="472.65625" xlink:href="#DejaVuSans-112"/>
     <use x="536.132812" xlink:href="#DejaVuSans-104"/>
     <use x="599.511719" xlink:href="#DejaVuSans-32"/>
     <use x="631.298828" xlink:href="#DejaVuSans-86"/>
     <use x="697.457031" xlink:href="#DejaVuSans-105"/>
     <use x="725.240234" xlink:href="#DejaVuSans-115"/>
     <use x="777.339844" xlink:href="#DejaVuSans-117"/>
     <use x="840.71875" xlink:href="#DejaVuSans-97"/>
     <use x="901.998047" xlink:href="#DejaVuSans-108"/>
     <use x="929.78125" xlink:href="#DejaVuSans-105"/>
     <use x="957.564453" xlink:href="#DejaVuSans-122"/>
     <use x="1010.054688" xlink:href="#DejaVuSans-97"/>
     <use x="1071.333984" xlink:href="#DejaVuSans-116"/>
     <use x="1110.542969" xlink:href="#DejaVuSans-105"/>
     <use x="1138.326172" xlink:href="#DejaVuSans-111"/>
     <use x="1199.507812" xlink:href="#DejaVuSans-110"/>
     <use x="1262.886719" xlink:href="#DejaVuSans-32"/>
     <use x="1294.673828" xlink:href="#DejaVuSans-45"/>
     <use x="1330.757812" xlink:href="#DejaVuSans-32"/>
     <use x="1362.544922" xlink:href="#DejaVuSans-70"/>
     <use x="1412.814453" xlink:href="#DejaVuSans-114"/>
     <use x="1453.927734" xlink:href="#DejaVuSans-97"/>
     <use x="1515.207031" xlink:href="#DejaVuSans-109"/>
     <use x="1612.619141" xlink:href="#DejaVuSans-101"/>
     <use x="1674.142578" xlink:href="#DejaVuSans-32"/>
     <use x="1705.929688" xlink:href="#DejaVuSans-49"/>
     <use x="1769.552734" xlink:href="#DejaVuSans-48"/>
     <use x="1833.175781" xlink:href="#DejaVuSans-53"/>
    </g>
   </g>
  </g>
 </g>
 <defs>
  <clipPath id="pada63ad7b4">
   <rect height="864" width="576" x="0" y="0"/>
  </clipPath>
 </defs>
</svg>
